<?xml version="1.0" encoding="us-ascii" standalone="no"?><svg xmlns="http://www.w3.org/2000/svg" xmlns:xlink="http://www.w3.org/1999/xlink" contentStyleType="text/css" height="747px" preserveAspectRatio="none" style="width:946px;height:747px;background:#FFFFFF;" version="1.1" viewBox="0 0 946 747" width="946px" zoomAndPan="magnify"><defs/><g><text fill="#000000" font-family="sans-serif" font-size="14" font-weight="bold" lengthAdjust="spacing" textLength="201" x="365.75" y="25.1074">Class Diagram (CD) - US 2001</text><!--class AddExamUI--><g id="elem_AddExamUI"><rect codeLine="5" fill="#F1F1F1" height="79.2031" id="AddExamUI" rx="2.5" ry="2.5" style="stroke:#181818;stroke-width:0.5;" width="110" x="280" y="46.6211"/><ellipse cx="295" cy="68.9121" fill="#ADD1B2" rx="11" ry="11" style="stroke:#181818;stroke-width:1.0;"/><path d="M297.7656,64.7871 Q297.9219,64.5684 298.1094,64.459 Q298.2969,64.3496 298.5156,64.3496 Q298.8906,64.3496 299.125,64.6152 Q299.3594,64.8652 299.3594,65.4746 L299.3594,66.9277 Q299.3594,67.5371 299.125,67.8027 Q298.8906,68.0684 298.5156,68.0684 Q298.1719,68.0684 297.9688,67.8652 Q297.7656,67.6777 297.6563,67.1621 Q297.6094,66.8027 297.4219,66.6152 Q297.0938,66.2402 296.4844,66.0215 Q295.875,65.8027 295.25,65.8027 Q294.4844,65.8027 293.8438,66.1309 Q293.2188,66.459 292.7188,67.209 Q292.2344,67.959 292.2344,68.9902 L292.2344,70.084 Q292.2344,71.3184 293.125,72.1465 Q294.0156,72.959 295.6094,72.959 Q296.5469,72.959 297.2031,72.709 Q297.5938,72.5527 298.0156,72.1152 Q298.2813,71.8496 298.4219,71.7715 Q298.5781,71.6934 298.7813,71.6934 Q299.1094,71.6934 299.3594,71.959 Q299.625,72.209 299.625,72.5527 Q299.625,72.8965 299.2813,73.3027 Q298.7813,73.8809 297.9844,74.209 Q296.9063,74.6621 295.6094,74.6621 Q294.0938,74.6621 292.8906,74.0371 Q291.9063,73.5371 291.2188,72.4746 Q290.5313,71.3965 290.5313,70.1152 L290.5313,68.959 Q290.5313,67.6309 291.1406,66.4902 Q291.7656,65.334 292.8594,64.7246 Q293.9531,64.0996 295.1875,64.0996 Q295.9219,64.0996 296.5625,64.2715 Q297.2188,64.4277 297.7656,64.7871 Z " fill="#000000"/><text fill="#000000" font-family="sans-serif" font-size="12" font-style="italic" lengthAdjust="spacing" textLength="82" x="307" y="64.5703">&#171;presentation&#187;</text><text fill="#000000" font-family="sans-serif" font-size="14" lengthAdjust="spacing" textLength="71" x="312.5" y="82.6895">AddExamUI</text><line style="stroke:#181818;stroke-width:0.5;" x1="281" x2="389" y1="91.2031" y2="91.2031"/><line style="stroke:#181818;stroke-width:0.5;" x1="281" x2="389" y1="99.2031" y2="99.2031"/><text fill="#000000" font-family="sans-serif" font-size="14" lengthAdjust="spacing" textLength="60" x="286" y="118.3105">doShow()</text></g><!--class Course--><g id="elem_Course"><rect codeLine="9" fill="#F1F1F1" height="60.582" id="Course" rx="2.5" ry="2.5" style="stroke:#181818;stroke-width:0.5;" width="84" x="7" y="530.6211"/><ellipse cx="22" cy="552.9121" fill="#ADD1B2" rx="11" ry="11" style="stroke:#181818;stroke-width:1.0;"/><path d="M24.7656,548.7871 Q24.9219,548.5684 25.1094,548.459 Q25.2969,548.3496 25.5156,548.3496 Q25.8906,548.3496 26.125,548.6152 Q26.3594,548.8652 26.3594,549.4746 L26.3594,550.9277 Q26.3594,551.5371 26.125,551.8027 Q25.8906,552.0684 25.5156,552.0684 Q25.1719,552.0684 24.9688,551.8652 Q24.7656,551.6777 24.6563,551.1621 Q24.6094,550.8027 24.4219,550.6152 Q24.0938,550.2402 23.4844,550.0215 Q22.875,549.8027 22.25,549.8027 Q21.4844,549.8027 20.8438,550.1309 Q20.2188,550.459 19.7188,551.209 Q19.2344,551.959 19.2344,552.9902 L19.2344,554.084 Q19.2344,555.3184 20.125,556.1465 Q21.0156,556.959 22.6094,556.959 Q23.5469,556.959 24.2031,556.709 Q24.5938,556.5527 25.0156,556.1152 Q25.2813,555.8496 25.4219,555.7715 Q25.5781,555.6934 25.7813,555.6934 Q26.1094,555.6934 26.3594,555.959 Q26.625,556.209 26.625,556.5527 Q26.625,556.8965 26.2813,557.3027 Q25.7813,557.8809 24.9844,558.209 Q23.9063,558.6621 22.6094,558.6621 Q21.0938,558.6621 19.8906,558.0371 Q18.9063,557.5371 18.2188,556.4746 Q17.5313,555.3965 17.5313,554.1152 L17.5313,552.959 Q17.5313,551.6309 18.1406,550.4902 Q18.7656,549.334 19.8594,548.7246 Q20.9531,548.0996 22.1875,548.0996 Q22.9219,548.0996 23.5625,548.2715 Q24.2188,548.4277 24.7656,548.7871 Z " fill="#000000"/><text fill="#000000" font-family="sans-serif" font-size="12" font-style="italic" lengthAdjust="spacing" textLength="56" x="34" y="548.5703">&#171;domain&#187;</text><text fill="#000000" font-family="sans-serif" font-size="14" lengthAdjust="spacing" textLength="46" x="39" y="566.6895">Course</text><line style="stroke:#181818;stroke-width:0.5;" x1="8" x2="90" y1="575.2031" y2="575.2031"/><line style="stroke:#181818;stroke-width:0.5;" x1="8" x2="90" y1="583.2031" y2="583.2031"/></g><!--class Exam--><g id="elem_Exam"><rect codeLine="12" fill="#F1F1F1" height="60.582" id="Exam" rx="2.5" ry="2.5" style="stroke:#181818;stroke-width:0.5;" width="84" x="726" y="530.6211"/><ellipse cx="741" cy="552.9121" fill="#ADD1B2" rx="11" ry="11" style="stroke:#181818;stroke-width:1.0;"/><path d="M743.7656,548.7871 Q743.9219,548.5684 744.1094,548.459 Q744.2969,548.3496 744.5156,548.3496 Q744.8906,548.3496 745.125,548.6152 Q745.3594,548.8652 745.3594,549.4746 L745.3594,550.9277 Q745.3594,551.5371 745.125,551.8027 Q744.8906,552.0684 744.5156,552.0684 Q744.1719,552.0684 743.9688,551.8652 Q743.7656,551.6777 743.6563,551.1621 Q743.6094,550.8027 743.4219,550.6152 Q743.0938,550.2402 742.4844,550.0215 Q741.875,549.8027 741.25,549.8027 Q740.4844,549.8027 739.8438,550.1309 Q739.2188,550.459 738.7188,551.209 Q738.2344,551.959 738.2344,552.9902 L738.2344,554.084 Q738.2344,555.3184 739.125,556.1465 Q740.0156,556.959 741.6094,556.959 Q742.5469,556.959 743.2031,556.709 Q743.5938,556.5527 744.0156,556.1152 Q744.2813,555.8496 744.4219,555.7715 Q744.5781,555.6934 744.7813,555.6934 Q745.1094,555.6934 745.3594,555.959 Q745.625,556.209 745.625,556.5527 Q745.625,556.8965 745.2813,557.3027 Q744.7813,557.8809 743.9844,558.209 Q742.9063,558.6621 741.6094,558.6621 Q740.0938,558.6621 738.8906,558.0371 Q737.9063,557.5371 737.2188,556.4746 Q736.5313,555.3965 736.5313,554.1152 L736.5313,552.959 Q736.5313,551.6309 737.1406,550.4902 Q737.7656,549.334 738.8594,548.7246 Q739.9531,548.0996 741.1875,548.0996 Q741.9219,548.0996 742.5625,548.2715 Q743.2188,548.4277 743.7656,548.7871 Z " fill="#000000"/><text fill="#000000" font-family="sans-serif" font-size="12" font-style="italic" lengthAdjust="spacing" textLength="56" x="753" y="548.5703">&#171;domain&#187;</text><text fill="#000000" font-family="sans-serif" font-size="14" lengthAdjust="spacing" textLength="34" x="764" y="566.6895">Exam</text><line style="stroke:#181818;stroke-width:0.5;" x1="727" x2="809" y1="575.2031" y2="575.2031"/><line style="stroke:#181818;stroke-width:0.5;" x1="727" x2="809" y1="583.2031" y2="583.2031"/></g><!--class AddExamController--><g id="elem_AddExamController"><rect codeLine="15" fill="#F1F1F1" height="116.4453" id="AddExamController" rx="2.5" ry="2.5" style="stroke:#181818;stroke-width:0.5;" width="316" x="177" y="204.6211"/><ellipse cx="270.25" cy="226.9121" fill="#ADD1B2" rx="11" ry="11" style="stroke:#181818;stroke-width:1.0;"/><path d="M273.0156,222.7871 Q273.1719,222.5684 273.3594,222.459 Q273.5469,222.3496 273.7656,222.3496 Q274.1406,222.3496 274.375,222.6152 Q274.6094,222.8652 274.6094,223.4746 L274.6094,224.9277 Q274.6094,225.5371 274.375,225.8027 Q274.1406,226.0684 273.7656,226.0684 Q273.4219,226.0684 273.2188,225.8652 Q273.0156,225.6777 272.9063,225.1621 Q272.8594,224.8027 272.6719,224.6152 Q272.3438,224.2402 271.7344,224.0215 Q271.125,223.8027 270.5,223.8027 Q269.7344,223.8027 269.0938,224.1309 Q268.4688,224.459 267.9688,225.209 Q267.4844,225.959 267.4844,226.9902 L267.4844,228.084 Q267.4844,229.3184 268.375,230.1465 Q269.2656,230.959 270.8594,230.959 Q271.7969,230.959 272.4531,230.709 Q272.8438,230.5527 273.2656,230.1152 Q273.5313,229.8496 273.6719,229.7715 Q273.8281,229.6934 274.0313,229.6934 Q274.3594,229.6934 274.6094,229.959 Q274.875,230.209 274.875,230.5527 Q274.875,230.8965 274.5313,231.3027 Q274.0313,231.8809 273.2344,232.209 Q272.1563,232.6621 270.8594,232.6621 Q269.3438,232.6621 268.1406,232.0371 Q267.1563,231.5371 266.4688,230.4746 Q265.7813,229.3965 265.7813,228.1152 L265.7813,226.959 Q265.7813,225.6309 266.3906,224.4902 Q267.0156,223.334 268.1094,222.7246 Q269.2031,222.0996 270.4375,222.0996 Q271.1719,222.0996 271.8125,222.2715 Q272.4688,222.4277 273.0156,222.7871 Z " fill="#000000"/><text fill="#000000" font-family="sans-serif" font-size="12" font-style="italic" lengthAdjust="spacing" textLength="74" x="314.25" y="222.5703">&#171;application&#187;</text><text fill="#000000" font-family="sans-serif" font-size="14" lengthAdjust="spacing" textLength="121" x="290.75" y="240.6895">AddExamController</text><line style="stroke:#181818;stroke-width:0.5;" x1="178" x2="492" y1="249.2031" y2="249.2031"/><line style="stroke:#181818;stroke-width:0.5;" x1="178" x2="492" y1="257.2031" y2="257.2031"/><ellipse cx="188" cy="272.0137" fill="#84BE84" rx="3" ry="3" style="stroke:#038048;stroke-width:1.0;"/><text fill="#000000" font-family="sans-serif" font-size="14" lengthAdjust="spacing" textLength="261" x="197" y="276.3105">Iterable&lt;Course&gt; listAllTeacherCourses()</text><ellipse cx="188" cy="290.6348" fill="#84BE84" rx="3" ry="3" style="stroke:#038048;stroke-width:1.0;"/><text fill="#000000" font-family="sans-serif" font-size="14" lengthAdjust="spacing" textLength="190" x="197" y="294.9316">Exam getExam(String filePath)</text><ellipse cx="188" cy="309.2559" fill="#84BE84" rx="3" ry="3" style="stroke:#038048;stroke-width:1.0;"/><text fill="#000000" font-family="sans-serif" font-size="14" lengthAdjust="spacing" textLength="290" x="197" y="313.5527">Course addExam(Course course, Exam exam)</text></g><!--class CourseRepository--><g id="elem_CourseRepository"><rect codeLine="21" fill="#F1F1F1" height="79.2031" id="CourseRepository" rx="2.5" ry="2.5" style="stroke:#181818;stroke-width:0.5;" width="209" x="126.5" y="521.6211"/><ellipse cx="169.85" cy="543.9121" fill="#B4A7E5" rx="11" ry="11" style="stroke:#181818;stroke-width:1.0;"/><path d="M170.8031,540.5527 L170.8031,547.209 L172.5219,547.209 Q173.1313,547.209 173.3969,547.4434 Q173.6625,547.6777 173.6625,548.0684 Q173.6625,548.4434 173.3969,548.6777 Q173.1313,548.9121 172.5219,548.9121 L167.3813,548.9121 Q166.7719,548.9121 166.5063,548.6777 Q166.2406,548.4434 166.2406,548.0527 Q166.2406,547.6777 166.5063,547.4434 Q166.7719,547.209 167.3813,547.209 L169.1,547.209 L169.1,540.5527 L167.3813,540.5527 Q166.7719,540.5527 166.5063,540.3184 Q166.2406,540.084 166.2406,539.6934 Q166.2406,539.3184 166.5063,539.084 Q166.7719,538.8496 167.3813,538.8496 L172.5219,538.8496 Q173.1313,538.8496 173.3969,539.084 Q173.6625,539.3184 173.6625,539.6934 Q173.6625,540.084 173.3969,540.3184 Q173.1313,540.5527 172.5219,540.5527 L170.8031,540.5527 Z " fill="#000000"/><text fill="#000000" font-family="sans-serif" font-size="12" font-style="italic" lengthAdjust="spacing" textLength="78" x="208.15" y="539.5703">&#171;repositories&#187;</text><text fill="#000000" font-family="sans-serif" font-size="14" font-style="italic" lengthAdjust="spacing" textLength="114" x="190.15" y="557.6895">CourseRepository</text><line style="stroke:#181818;stroke-width:0.5;" x1="127.5" x2="334.5" y1="566.2031" y2="566.2031"/><line style="stroke:#181818;stroke-width:0.5;" x1="127.5" x2="334.5" y1="574.2031" y2="574.2031"/><ellipse cx="137.5" cy="589.0137" fill="#84BE84" rx="3" ry="3" style="stroke:#038048;stroke-width:1.0;"/><text fill="#000000" font-family="sans-serif" font-size="14" lengthAdjust="spacing" textLength="183" x="146.5" y="593.3105">Course save(Course course)</text></g><!--class ExamMain--><g id="elem_ExamMain"><rect codeLine="25" fill="#F1F1F1" height="79.2031" id="ExamMain" rx="2.5" ry="2.5" style="stroke:#181818;stroke-width:0.5;" width="265" x="363.5" y="381.6211"/><ellipse cx="459.75" cy="403.9121" fill="#ADD1B2" rx="11" ry="11" style="stroke:#181818;stroke-width:1.0;"/><path d="M462.5156,399.7871 Q462.6719,399.5684 462.8594,399.459 Q463.0469,399.3496 463.2656,399.3496 Q463.6406,399.3496 463.875,399.6152 Q464.1094,399.8652 464.1094,400.4746 L464.1094,401.9277 Q464.1094,402.5371 463.875,402.8027 Q463.6406,403.0684 463.2656,403.0684 Q462.9219,403.0684 462.7188,402.8652 Q462.5156,402.6777 462.4063,402.1621 Q462.3594,401.8027 462.1719,401.6152 Q461.8438,401.2402 461.2344,401.0215 Q460.625,400.8027 460,400.8027 Q459.2344,400.8027 458.5938,401.1309 Q457.9688,401.459 457.4688,402.209 Q456.9844,402.959 456.9844,403.9902 L456.9844,405.084 Q456.9844,406.3184 457.875,407.1465 Q458.7656,407.959 460.3594,407.959 Q461.2969,407.959 461.9531,407.709 Q462.3438,407.5527 462.7656,407.1152 Q463.0313,406.8496 463.1719,406.7715 Q463.3281,406.6934 463.5313,406.6934 Q463.8594,406.6934 464.1094,406.959 Q464.375,407.209 464.375,407.5527 Q464.375,407.8965 464.0313,408.3027 Q463.5313,408.8809 462.7344,409.209 Q461.6563,409.6621 460.3594,409.6621 Q458.8438,409.6621 457.6406,409.0371 Q456.6563,408.5371 455.9688,407.4746 Q455.2813,406.3965 455.2813,405.1152 L455.2813,403.959 Q455.2813,402.6309 455.8906,401.4902 Q456.5156,400.334 457.6094,399.7246 Q458.7031,399.0996 459.9375,399.0996 Q460.6719,399.0996 461.3125,399.2715 Q461.9688,399.4277 462.5156,399.7871 Z " fill="#000000"/><text fill="#000000" font-family="sans-serif" font-size="12" font-style="italic" lengthAdjust="spacing" textLength="42" x="491.25" y="399.5703">&#171;lprog&#187;</text><text fill="#000000" font-family="sans-serif" font-size="14" lengthAdjust="spacing" textLength="64" x="480.25" y="417.6895">ExamMain</text><line style="stroke:#181818;stroke-width:0.5;" x1="364.5" x2="627.5" y1="426.2031" y2="426.2031"/><line style="stroke:#181818;stroke-width:0.5;" x1="364.5" x2="627.5" y1="434.2031" y2="434.2031"/><ellipse cx="374.5" cy="449.0137" fill="#84BE84" rx="3" ry="3" style="stroke:#038048;stroke-width:1.0;"/><text fill="#000000" font-family="sans-serif" font-size="14" lengthAdjust="spacing" textLength="239" x="383.5" y="453.3105">Exam parseWithVisitor(String filePath)</text></g><!--class ExamLexer--><g id="elem_ExamLexer"><rect codeLine="29" fill="#F1F1F1" height="60.582" id="ExamLexer" rx="2.5" ry="2.5" style="stroke:#181818;stroke-width:0.5;" width="101" x="630.5" y="670.6211"/><ellipse cx="645.5" cy="692.9121" fill="#ADD1B2" rx="11" ry="11" style="stroke:#181818;stroke-width:1.0;"/><path d="M648.2656,688.7871 Q648.4219,688.5684 648.6094,688.459 Q648.7969,688.3496 649.0156,688.3496 Q649.3906,688.3496 649.625,688.6152 Q649.8594,688.8652 649.8594,689.4746 L649.8594,690.9277 Q649.8594,691.5371 649.625,691.8027 Q649.3906,692.0684 649.0156,692.0684 Q648.6719,692.0684 648.4688,691.8652 Q648.2656,691.6777 648.1563,691.1621 Q648.1094,690.8027 647.9219,690.6152 Q647.5938,690.2402 646.9844,690.0215 Q646.375,689.8027 645.75,689.8027 Q644.9844,689.8027 644.3438,690.1309 Q643.7188,690.459 643.2188,691.209 Q642.7344,691.959 642.7344,692.9902 L642.7344,694.084 Q642.7344,695.3184 643.625,696.1465 Q644.5156,696.959 646.1094,696.959 Q647.0469,696.959 647.7031,696.709 Q648.0938,696.5527 648.5156,696.1152 Q648.7813,695.8496 648.9219,695.7715 Q649.0781,695.6934 649.2813,695.6934 Q649.6094,695.6934 649.8594,695.959 Q650.125,696.209 650.125,696.5527 Q650.125,696.8965 649.7813,697.3027 Q649.2813,697.8809 648.4844,698.209 Q647.4063,698.6621 646.1094,698.6621 Q644.5938,698.6621 643.3906,698.0371 Q642.4063,697.5371 641.7188,696.4746 Q641.0313,695.3965 641.0313,694.1152 L641.0313,692.959 Q641.0313,691.6309 641.6406,690.4902 Q642.2656,689.334 643.3594,688.7246 Q644.4531,688.0996 645.6875,688.0996 Q646.4219,688.0996 647.0625,688.2715 Q647.7188,688.4277 648.2656,688.7871 Z " fill="#000000"/><text fill="#000000" font-family="sans-serif" font-size="12" font-style="italic" lengthAdjust="spacing" textLength="42" x="673" y="688.5703">&#171;lprog&#187;</text><text fill="#000000" font-family="sans-serif" font-size="14" lengthAdjust="spacing" textLength="69" x="659.5" y="706.6895">ExamLexer</text><line style="stroke:#181818;stroke-width:0.5;" x1="631.5" x2="730.5" y1="715.2031" y2="715.2031"/><line style="stroke:#181818;stroke-width:0.5;" x1="631.5" x2="730.5" y1="723.2031" y2="723.2031"/></g><!--class CommonTokenStream--><g id="elem_CommonTokenStream"><rect codeLine="30" fill="#F1F1F1" height="60.582" id="CommonTokenStream" rx="2.5" ry="2.5" style="stroke:#181818;stroke-width:0.5;" width="173" x="766.5" y="670.6211"/><ellipse cx="781.5" cy="692.9121" fill="#ADD1B2" rx="11" ry="11" style="stroke:#181818;stroke-width:1.0;"/><path d="M784.2656,688.7871 Q784.4219,688.5684 784.6094,688.459 Q784.7969,688.3496 785.0156,688.3496 Q785.3906,688.3496 785.625,688.6152 Q785.8594,688.8652 785.8594,689.4746 L785.8594,690.9277 Q785.8594,691.5371 785.625,691.8027 Q785.3906,692.0684 785.0156,692.0684 Q784.6719,692.0684 784.4688,691.8652 Q784.2656,691.6777 784.1563,691.1621 Q784.1094,690.8027 783.9219,690.6152 Q783.5938,690.2402 782.9844,690.0215 Q782.375,689.8027 781.75,689.8027 Q780.9844,689.8027 780.3438,690.1309 Q779.7188,690.459 779.2188,691.209 Q778.7344,691.959 778.7344,692.9902 L778.7344,694.084 Q778.7344,695.3184 779.625,696.1465 Q780.5156,696.959 782.1094,696.959 Q783.0469,696.959 783.7031,696.709 Q784.0938,696.5527 784.5156,696.1152 Q784.7813,695.8496 784.9219,695.7715 Q785.0781,695.6934 785.2813,695.6934 Q785.6094,695.6934 785.8594,695.959 Q786.125,696.209 786.125,696.5527 Q786.125,696.8965 785.7813,697.3027 Q785.2813,697.8809 784.4844,698.209 Q783.4063,698.6621 782.1094,698.6621 Q780.5938,698.6621 779.3906,698.0371 Q778.4063,697.5371 777.7188,696.4746 Q777.0313,695.3965 777.0313,694.1152 L777.0313,692.959 Q777.0313,691.6309 777.6406,690.4902 Q778.2656,689.334 779.3594,688.7246 Q780.4531,688.0996 781.6875,688.0996 Q782.4219,688.0996 783.0625,688.2715 Q783.7188,688.4277 784.2656,688.7871 Z " fill="#000000"/><text fill="#000000" font-family="sans-serif" font-size="12" font-style="italic" lengthAdjust="spacing" textLength="42" x="845" y="688.5703">&#171;lprog&#187;</text><text fill="#000000" font-family="sans-serif" font-size="14" lengthAdjust="spacing" textLength="141" x="795.5" y="706.6895">CommonTokenStream</text><line style="stroke:#181818;stroke-width:0.5;" x1="767.5" x2="938.5" y1="715.2031" y2="715.2031"/><line style="stroke:#181818;stroke-width:0.5;" x1="767.5" x2="938.5" y1="723.2031" y2="723.2031"/></g><!--class ExamParser--><g id="elem_ExamParser"><rect codeLine="31" fill="#F1F1F1" height="60.582" id="ExamParser" rx="2.5" ry="2.5" style="stroke:#181818;stroke-width:0.5;" width="108" x="189" y="670.6211"/><ellipse cx="204" cy="692.9121" fill="#ADD1B2" rx="11" ry="11" style="stroke:#181818;stroke-width:1.0;"/><path d="M206.7656,688.7871 Q206.9219,688.5684 207.1094,688.459 Q207.2969,688.3496 207.5156,688.3496 Q207.8906,688.3496 208.125,688.6152 Q208.3594,688.8652 208.3594,689.4746 L208.3594,690.9277 Q208.3594,691.5371 208.125,691.8027 Q207.8906,692.0684 207.5156,692.0684 Q207.1719,692.0684 206.9688,691.8652 Q206.7656,691.6777 206.6563,691.1621 Q206.6094,690.8027 206.4219,690.6152 Q206.0938,690.2402 205.4844,690.0215 Q204.875,689.8027 204.25,689.8027 Q203.4844,689.8027 202.8438,690.1309 Q202.2188,690.459 201.7188,691.209 Q201.2344,691.959 201.2344,692.9902 L201.2344,694.084 Q201.2344,695.3184 202.125,696.1465 Q203.0156,696.959 204.6094,696.959 Q205.5469,696.959 206.2031,696.709 Q206.5938,696.5527 207.0156,696.1152 Q207.2813,695.8496 207.4219,695.7715 Q207.5781,695.6934 207.7813,695.6934 Q208.1094,695.6934 208.3594,695.959 Q208.625,696.209 208.625,696.5527 Q208.625,696.8965 208.2813,697.3027 Q207.7813,697.8809 206.9844,698.209 Q205.9063,698.6621 204.6094,698.6621 Q203.0938,698.6621 201.8906,698.0371 Q200.9063,697.5371 200.2188,696.4746 Q199.5313,695.3965 199.5313,694.1152 L199.5313,692.959 Q199.5313,691.6309 200.1406,690.4902 Q200.7656,689.334 201.8594,688.7246 Q202.9531,688.0996 204.1875,688.0996 Q204.9219,688.0996 205.5625,688.2715 Q206.2188,688.4277 206.7656,688.7871 Z " fill="#000000"/><text fill="#000000" font-family="sans-serif" font-size="12" font-style="italic" lengthAdjust="spacing" textLength="42" x="235" y="688.5703">&#171;lprog&#187;</text><text fill="#000000" font-family="sans-serif" font-size="14" lengthAdjust="spacing" textLength="76" x="218" y="706.6895">ExamParser</text><line style="stroke:#181818;stroke-width:0.5;" x1="190" x2="296" y1="715.2031" y2="715.2031"/><line style="stroke:#181818;stroke-width:0.5;" x1="190" x2="296" y1="723.2031" y2="723.2031"/></g><!--class ParseTree--><g id="elem_ParseTree"><rect codeLine="32" fill="#F1F1F1" height="60.582" id="ParseTree" rx="2.5" ry="2.5" style="stroke:#181818;stroke-width:0.5;" width="99" x="332.5" y="670.6211"/><ellipse cx="347.5" cy="692.9121" fill="#ADD1B2" rx="11" ry="11" style="stroke:#181818;stroke-width:1.0;"/><path d="M350.2656,688.7871 Q350.4219,688.5684 350.6094,688.459 Q350.7969,688.3496 351.0156,688.3496 Q351.3906,688.3496 351.625,688.6152 Q351.8594,688.8652 351.8594,689.4746 L351.8594,690.9277 Q351.8594,691.5371 351.625,691.8027 Q351.3906,692.0684 351.0156,692.0684 Q350.6719,692.0684 350.4688,691.8652 Q350.2656,691.6777 350.1563,691.1621 Q350.1094,690.8027 349.9219,690.6152 Q349.5938,690.2402 348.9844,690.0215 Q348.375,689.8027 347.75,689.8027 Q346.9844,689.8027 346.3438,690.1309 Q345.7188,690.459 345.2188,691.209 Q344.7344,691.959 344.7344,692.9902 L344.7344,694.084 Q344.7344,695.3184 345.625,696.1465 Q346.5156,696.959 348.1094,696.959 Q349.0469,696.959 349.7031,696.709 Q350.0938,696.5527 350.5156,696.1152 Q350.7813,695.8496 350.9219,695.7715 Q351.0781,695.6934 351.2813,695.6934 Q351.6094,695.6934 351.8594,695.959 Q352.125,696.209 352.125,696.5527 Q352.125,696.8965 351.7813,697.3027 Q351.2813,697.8809 350.4844,698.209 Q349.4063,698.6621 348.1094,698.6621 Q346.5938,698.6621 345.3906,698.0371 Q344.4063,697.5371 343.7188,696.4746 Q343.0313,695.3965 343.0313,694.1152 L343.0313,692.959 Q343.0313,691.6309 343.6406,690.4902 Q344.2656,689.334 345.3594,688.7246 Q346.4531,688.0996 347.6875,688.0996 Q348.4219,688.0996 349.0625,688.2715 Q349.7188,688.4277 350.2656,688.7871 Z " fill="#000000"/><text fill="#000000" font-family="sans-serif" font-size="12" font-style="italic" lengthAdjust="spacing" textLength="42" x="374" y="688.5703">&#171;lprog&#187;</text><text fill="#000000" font-family="sans-serif" font-size="14" lengthAdjust="spacing" textLength="67" x="361.5" y="706.6895">ParseTree</text><line style="stroke:#181818;stroke-width:0.5;" x1="333.5" x2="430.5" y1="715.2031" y2="715.2031"/><line style="stroke:#181818;stroke-width:0.5;" x1="333.5" x2="430.5" y1="723.2031" y2="723.2031"/></g><!--class EvalVisitor--><g id="elem_EvalVisitor"><rect codeLine="33" fill="#F1F1F1" height="79.2031" id="EvalVisitor" rx="2.5" ry="2.5" style="stroke:#181818;stroke-width:0.5;" width="128" x="467" y="661.6211"/><ellipse cx="495.5" cy="683.9121" fill="#ADD1B2" rx="11" ry="11" style="stroke:#181818;stroke-width:1.0;"/><path d="M498.2656,679.7871 Q498.4219,679.5684 498.6094,679.459 Q498.7969,679.3496 499.0156,679.3496 Q499.3906,679.3496 499.625,679.6152 Q499.8594,679.8652 499.8594,680.4746 L499.8594,681.9277 Q499.8594,682.5371 499.625,682.8027 Q499.3906,683.0684 499.0156,683.0684 Q498.6719,683.0684 498.4688,682.8652 Q498.2656,682.6777 498.1563,682.1621 Q498.1094,681.8027 497.9219,681.6152 Q497.5938,681.2402 496.9844,681.0215 Q496.375,680.8027 495.75,680.8027 Q494.9844,680.8027 494.3438,681.1309 Q493.7188,681.459 493.2188,682.209 Q492.7344,682.959 492.7344,683.9902 L492.7344,685.084 Q492.7344,686.3184 493.625,687.1465 Q494.5156,687.959 496.1094,687.959 Q497.0469,687.959 497.7031,687.709 Q498.0938,687.5527 498.5156,687.1152 Q498.7813,686.8496 498.9219,686.7715 Q499.0781,686.6934 499.2813,686.6934 Q499.6094,686.6934 499.8594,686.959 Q500.125,687.209 500.125,687.5527 Q500.125,687.8965 499.7813,688.3027 Q499.2813,688.8809 498.4844,689.209 Q497.4063,689.6621 496.1094,689.6621 Q494.5938,689.6621 493.3906,689.0371 Q492.4063,688.5371 491.7188,687.4746 Q491.0313,686.3965 491.0313,685.1152 L491.0313,683.959 Q491.0313,682.6309 491.6406,681.4902 Q492.2656,680.334 493.3594,679.7246 Q494.4531,679.0996 495.6875,679.0996 Q496.4219,679.0996 497.0625,679.2715 Q497.7188,679.4277 498.2656,679.7871 Z " fill="#000000"/><text fill="#000000" font-family="sans-serif" font-size="12" font-style="italic" lengthAdjust="spacing" textLength="42" x="524.5" y="679.5703">&#171;lprog&#187;</text><text fill="#000000" font-family="sans-serif" font-size="14" lengthAdjust="spacing" textLength="66" x="512.5" y="697.6895">EvalVisitor</text><line style="stroke:#181818;stroke-width:0.5;" x1="468" x2="594" y1="706.2031" y2="706.2031"/><line style="stroke:#181818;stroke-width:0.5;" x1="468" x2="594" y1="714.2031" y2="714.2031"/><ellipse cx="478" cy="729.0137" fill="#84BE84" rx="3" ry="3" style="stroke:#038048;stroke-width:1.0;"/><text fill="#000000" font-family="sans-serif" font-size="14" lengthAdjust="spacing" textLength="102" x="487" y="733.3105">Exam getExam()</text></g><!--link AddExamUI to AddExamController--><g id="link_AddExamUI_AddExamController"><path codeLine="38" d="M335,125.8511 C335,147.4111 335,174.7611 335,199.2611 " fill="none" id="AddExamUI-to-AddExamController" style="stroke:#181818;stroke-width:1.0;"/><polygon fill="#181818" points="335,204.4411,339,195.4411,335,199.4411,331,195.4411,335,204.4411" style="stroke:#181818;stroke-width:1.0;"/><text fill="#000000" font-family="sans-serif" font-size="13" lengthAdjust="spacing" textLength="73" x="336" y="170.6494">theController</text></g><!--link AddExamController to Course--><g id="link_AddExamController_Course"><path codeLine="39" d="M277.03,320.8911 C257.8,340.0711 236.37,361.6611 217,381.6211 C168.54,431.5711 113.43,490.5511 79.95,526.6311 " fill="none" id="AddExamController-to-Course" style="stroke:#181818;stroke-width:1.0;"/><polygon fill="#181818" points="76.38,530.4911,85.43,526.6056,79.7773,526.8226,79.5604,521.1699,76.38,530.4911" style="stroke:#181818;stroke-width:1.0;"/><text fill="#000000" font-family="sans-serif" font-size="13" lengthAdjust="spacing" textLength="39" x="218" y="426.6494">course</text></g><!--link AddExamController to Exam--><g id="link_AddExamController_Exam"><path codeLine="40" d="M493.35,302.9811 C545.54,321.1111 601.53,346.6111 646,381.6211 C695.74,420.7811 732.89,485.8111 752.45,525.6311 " fill="none" id="AddExamController-to-Exam" style="stroke:#181818;stroke-width:1.0;"/><polygon fill="#181818" points="754.75,530.3611,754.4159,520.5179,752.5655,525.8636,747.2198,524.0131,754.75,530.3611" style="stroke:#181818;stroke-width:1.0;"/><text fill="#000000" font-family="sans-serif" font-size="13" lengthAdjust="spacing" textLength="32" x="715" y="426.6494">exam</text></g><!--link AddExamController to ExamMain--><g id="link_AddExamController_ExamMain"><path codeLine="41" d="M394.04,321.0111 C413.23,339.6611 434.17,360.0211 452.06,377.4111 " fill="none" id="AddExamController-to-ExamMain" style="stroke:#181818;stroke-width:1.0;"/><polygon fill="#181818" points="456.06,381.3011,452.3948,372.1596,452.4748,377.8159,446.8185,377.8959,456.06,381.3011" style="stroke:#181818;stroke-width:1.0;"/></g><!--link AddExamController to CourseRepository--><g id="link_AddExamController_CourseRepository"><path codeLine="42" d="M314.95,320.7911 C294.88,378.0111 264.44,464.7911 246.26,516.6211 " fill="none" id="AddExamController-to-CourseRepository" style="stroke:#181818;stroke-width:1.0;"/><polygon fill="#181818" points="244.54,521.5311,251.2983,514.3669,246.1981,516.814,243.751,511.7139,244.54,521.5311" style="stroke:#181818;stroke-width:1.0;"/><text fill="#000000" font-family="sans-serif" font-size="13" lengthAdjust="spacing" textLength="25" x="295" y="426.6494">repo</text></g><!--link AddExamUI to Course--><g id="link_AddExamUI_Course"><path codeLine="45" d="M279.94,111.4011 C240.94,131.2311 190.2,162.8111 159,204.6211 C84.06,305.0411 59.53,457.3511 52.05,525.2811 " fill="none" id="AddExamUI-to-Course" style="stroke:#181818;stroke-width:1.0;stroke-dasharray:7.0,7.0;"/><polygon fill="#181818" points="51.5,530.4211,56.4533,521.9085,52.0428,525.4506,48.5006,521.0401,51.5,530.4211" style="stroke:#181818;stroke-width:1.0;"/></g><!--link ExamMain to Course--><g id="link_ExamMain_Course"><path codeLine="46" d="M363.1,445.3511 C286.77,461.3611 190.24,486.2111 109,521.6211 C104.49,523.5911 99.93,525.8711 95.46,528.3211 " fill="none" id="ExamMain-to-Course" style="stroke:#181818;stroke-width:1.0;stroke-dasharray:7.0,7.0;"/><polygon fill="#181818" points="91.01,530.8311,100.8142,529.8944,95.3652,528.375,96.8845,522.926,91.01,530.8311" style="stroke:#181818;stroke-width:1.0;"/></g><!--link AddExamUI to Exam--><g id="link_AddExamUI_Exam"><path codeLine="47" d="M390.37,107.0711 C484.76,144.4011 674.49,234.5611 756,381.6211 C780.76,426.2811 778.66,487.2011 774,525.0811 " fill="none" id="AddExamUI-to-Exam" style="stroke:#181818;stroke-width:1.0;stroke-dasharray:7.0,7.0;"/><polygon fill="#181818" points="773.29,530.4911,778.4142,522.0803,773.933,525.5326,770.4807,521.0514,773.29,530.4911" style="stroke:#181818;stroke-width:1.0;"/></g><!--link ExamMain to Exam--><g id="link_ExamMain_Exam"><path codeLine="48" d="M628.73,460.2611 C650.56,468.8311 672.43,478.9311 692,490.6211 C708.42,500.4311 724.38,514.1711 737.4,526.8511 " fill="none" id="ExamMain-to-Exam" style="stroke:#181818;stroke-width:1.0;stroke-dasharray:7.0,7.0;"/><polygon fill="#181818" points="741,530.3911,737.3905,521.2275,737.4361,526.8842,731.7794,526.9298,741,530.3911" style="stroke:#181818;stroke-width:1.0;"/></g><!--link ExamMain to ExamLexer--><g id="link_ExamMain_ExamLexer"><path codeLine="49" d="M521.72,460.7711 C558.03,515.3411 623.74,614.0711 658.32,666.0311 " fill="none" id="ExamMain-to-ExamLexer" style="stroke:#181818;stroke-width:1.0;stroke-dasharray:7.0,7.0;"/><polygon fill="#181818" points="661.16,670.3011,659.4959,660.5938,658.3865,666.1408,652.8395,665.0314,661.16,670.3011" style="stroke:#181818;stroke-width:1.0;"/></g><!--link ExamMain to CommonTokenStream--><g id="link_ExamMain_CommonTokenStream"><path codeLine="50" d="M541.91,460.7811 C601.94,511.3011 700.51,594.1511 709,600.6211 C739.63,623.9611 775.22,648.5711 803.35,667.4811 " fill="none" id="ExamMain-to-CommonTokenStream" style="stroke:#181818;stroke-width:1.0;stroke-dasharray:7.0,7.0;"/><polygon fill="#181818" points="807.8,670.4611,802.5501,662.1281,803.6463,667.6777,798.0967,668.7739,807.8,670.4611" style="stroke:#181818;stroke-width:1.0;"/></g><!--link ExamMain to ExamParser--><g id="link_ExamMain_ExamParser"><path codeLine="51" d="M466.26,460.7011 C431.61,505.4011 376.14,576.0511 353,600.6211 C330.89,624.0911 304.1,648.4011 282.49,667.1211 " fill="none" id="ExamMain-to-ExamParser" style="stroke:#181818;stroke-width:1.0;stroke-dasharray:7.0,7.0;"/><polygon fill="#181818" points="278.52,670.5511,287.945,667.693,282.3032,667.2819,282.7143,661.64,278.52,670.5511" style="stroke:#181818;stroke-width:1.0;"/></g><!--link ExamMain to ParseTree--><g id="link_ExamMain_ParseTree"><path codeLine="52" d="M482.13,460.7211 C466.68,503.0411 440.51,572.7611 415,631.6211 C410.13,642.8511 404.46,654.9411 399.2,665.7811 " fill="none" id="ExamMain-to-ParseTree" style="stroke:#181818;stroke-width:1.0;stroke-dasharray:7.0,7.0;"/><polygon fill="#181818" points="396.98,670.3511,404.5181,664.0126,399.1701,665.8563,397.3264,660.5083,396.98,670.3511" style="stroke:#181818;stroke-width:1.0;"/></g><!--link ExamMain to EvalVisitor--><g id="link_ExamMain_EvalVisitor"><path codeLine="53" d="M500.87,460.7711 C507.33,512.0811 518.7,602.4511 525.48,656.2611 " fill="none" id="ExamMain-to-EvalVisitor" style="stroke:#181818;stroke-width:1.0;stroke-dasharray:7.0,7.0;"/><polygon fill="#181818" points="526.12,661.3511,528.9828,651.9275,525.5051,656.389,521.0436,652.9113,526.12,661.3511" style="stroke:#181818;stroke-width:1.0;"/></g><!--SRC=[VL9TJy8m57tlh-WR8qg2FYva2G4VIDGG0NqmFbotozROjKjR4MFuxtPTsLYsiOSrxJdtt8zp3JCSwOA3rdJ985MGqs2n7DC9tMte_NHwHyZ8mQX9x6Zp97auGhvRqTciKAXH631CYYYYVuJQBv6RJFu4Ot8YFcGXlvL6oqza3gnYrc0fDW3vL0ifZ9ASex8yA0hEudR6cvL11PySPrMcY7AcpPppBKASeQfUjIt9iLt654rv1XkZc4Zfdd5SWyaynLSCLG61lyRkkArAHljpFJ9Xi-yXHj_d2nPICoFLhorNdIyCTLElrzDmmBRsk3sN9piIAy8B9TCcsgKlmDBVcCbUcTFlDj9IUiIZ6ryjTQgzoNCfjl8BXLL0vqM7L2giouIz4WxPAiJUq0DmN-909sSdNCMZPpYmrDbBcasRJAAUPGYfoR2vaowZZFFp3Vs41rYkaj2PUeLH-j4Brtakp0zfQRvjQOa5YWH5R7VWigdt17I6oKSTJ6hFUx3-mFAfFsm8yP1RY06yinDNTAgr623Kcp4aq2m7-GS0]--></g></svg>