<?xml version="1.0" encoding="us-ascii" standalone="no"?><svg xmlns="http://www.w3.org/2000/svg" xmlns:xlink="http://www.w3.org/1999/xlink" contentStyleType="text/css" height="696.8px" preserveAspectRatio="none" style="width:1659px;height:696px;background:#FFFFFF;" version="1.1" viewBox="0 0 1659 696" width="1659.2px" zoomAndPan="magnify"><defs/><g><text fill="#000000" font-family="sans-serif" font-size="11.2" font-weight="bold" lengthAdjust="spacing" textLength="170.4" x="739" y="20.0859">Domain Classes (DC) - US 2001</text><!--cluster <<aggregate>> Course--><g id="cluster_&lt;&lt;aggregate&gt;&gt; Course"><path d="M736.4,36.5078 L851.6,36.5078 A3,3 0 0 1 853.6,38.5078 L859.2,56.2047 L859.6,56.2047 A2,2 0 0 1 861.6,58.2047 L861.6,132.1078 A2,2 0 0 1 859.6,134.1078 L736.4,134.1078 A2,2 0 0 1 734.4,132.1078 L734.4,38.5078 A2,2 0 0 1 736.4,36.5078 " fill="none" style="stroke:#000000;stroke-width:1.2000000000000002;"/><line style="stroke:#000000;stroke-width:1.2000000000000002;" x1="734.4" x2="859.2" y1="56.2047" y2="56.2047"/><text fill="#000000" font-family="sans-serif" font-size="11.2" font-weight="bold" lengthAdjust="spacing" textLength="114.4" x="737.6" y="50.1938">&#171;aggregate&#187; Course</text></g><!--cluster <<aggregate>> Teacher--><g id="cluster_&lt;&lt;aggregate&gt;&gt; Teacher"><path d="M1086,311.7078 L1206,311.7078 A3,3 0 0 1 1208,313.7078 L1213.6,331.4047 L1214,331.4047 A2,2 0 0 1 1216,333.4047 L1216,546.9078 A2,2 0 0 1 1214,548.9078 L1086,548.9078 A2,2 0 0 1 1084,546.9078 L1084,313.7078 A2,2 0 0 1 1086,311.7078 " fill="none" style="stroke:#000000;stroke-width:1.2000000000000002;"/><line style="stroke:#000000;stroke-width:1.2000000000000002;" x1="1084" x2="1213.6" y1="331.4047" y2="331.4047"/><text fill="#000000" font-family="sans-serif" font-size="11.2" font-weight="bold" lengthAdjust="spacing" textLength="119.2" x="1087.2" y="325.3938">&#171;aggregate&#187; Teacher</text></g><!--cluster <<aggregate>> Exam--><g id="cluster_&lt;&lt;aggregate&gt;&gt; Exam"><path d="M724.4,174.9078 L828.4,174.9078 A3,3 0 0 1 830.4,176.9078 L836,194.6047 L837.2,194.6047 A2,2 0 0 1 839.2,196.6047 L839.2,400.9078 A2,2 0 0 1 837.2,402.9078 L724.4,402.9078 A2,2 0 0 1 722.4,400.9078 L722.4,176.9078 A2,2 0 0 1 724.4,174.9078 " fill="none" style="stroke:#000000;stroke-width:1.2000000000000002;"/><line style="stroke:#000000;stroke-width:1.2000000000000002;" x1="722.4" x2="836" y1="194.6047" y2="194.6047"/><text fill="#000000" font-family="sans-serif" font-size="11.2" font-weight="bold" lengthAdjust="spacing" textLength="103.2" x="725.6" y="188.5938">&#171;aggregate&#187; Exam</text></g><!--cluster <<aggregate>> Question--><g id="cluster_&lt;&lt;aggregate&gt;&gt; Question"><path d="M6.8,456.9078 L132.4,456.9078 A3,3 0 0 1 134.4,458.9078 L140,476.6047 L819.6,476.6047 A2,2 0 0 1 821.6,478.6047 L821.6,689.3078 A2,2 0 0 1 819.6,691.3078 L6.8,691.3078 A2,2 0 0 1 4.8,689.3078 L4.8,458.9078 A2,2 0 0 1 6.8,456.9078 " fill="none" style="stroke:#000000;stroke-width:1.2000000000000002;"/><line style="stroke:#000000;stroke-width:1.2000000000000002;" x1="4.8" x2="140" y1="476.6047" y2="476.6047"/><text fill="#000000" font-family="sans-serif" font-size="11.2" font-weight="bold" lengthAdjust="spacing" textLength="124.8" x="8" y="470.5938">&#171;aggregate&#187; Question</text></g><!--class Course--><g id="elem_Course"><rect codeLine="10" fill="#F1F1F1" height="54.8344" id="Course" rx="2" ry="2" style="stroke:#181818;stroke-width:0.4000000000000001;" width="62.4" x="766.4" y="66.1078"/><ellipse cx="778.4" cy="90.325" fill="#ADD1B2" rx="8.8" ry="8.8" style="stroke:#181818;stroke-width:0.8000000000000002;"/><path d="M777.4875,90.9625 L777.4875,92.9625 L780.95,92.9625 L780.95,92.225 Q780.95,91.7375 781.1375,91.525 Q781.3375,91.3125 781.6375,91.3125 Q781.9375,91.3125 782.125,91.525 Q782.3125,91.7375 782.3125,92.225 L782.3125,94.325 L775.9125,94.325 Q775.4125,94.325 775.2,94.1375 Q775,93.95 775,93.6375 Q775,93.3375 775.2125,93.15 Q775.425,92.9625 775.9125,92.9625 L776.125,92.9625 L776.125,87.6375 L775.9125,87.6375 Q775.4125,87.6375 775.2,87.45 Q775,87.2625 775,86.95 Q775,86.65 775.2,86.4625 Q775.4125,86.275 775.9125,86.275 L782.0125,86.275 L782.0125,88.35 Q782.0125,88.8375 781.825,89.05 Q781.65,89.25 781.3375,89.25 Q781.0375,89.25 780.85,89.05 Q780.6625,88.8375 780.6625,88.35 L780.6625,87.6375 L777.4875,87.6375 L777.4875,89.6 L778.675,89.6 Q778.675,89.075 778.775,88.925 Q778.9875,88.6 779.3625,88.6 Q779.6625,88.6 779.85,88.8125 Q780.0375,89.0125 780.0375,89.5 L780.0375,91.075 Q780.0375,91.5125 779.9375,91.6625 Q779.725,91.975 779.3625,91.975 Q778.9875,91.975 778.775,91.65 Q778.675,91.5 778.675,90.9625 L777.4875,90.9625 Z " fill="#000000"/><text fill="#000000" font-family="sans-serif" font-size="9.6" font-style="italic" lengthAdjust="spacing" textLength="34.4" x="790.8" y="80.4672">&#171;entity&#187;</text><text fill="#000000" font-family="sans-serif" font-size="9.6" font-style="italic" lengthAdjust="spacing" textLength="28" x="794" y="93.2359">&#171;root&#187;</text><text fill="#000000" font-family="sans-serif" font-size="11.2" lengthAdjust="spacing" textLength="36.8" x="789.6" y="107.7313">Course</text><line style="stroke:#181818;stroke-width:0.4000000000000001;" x1="767.2" x2="828" y1="114.5422" y2="114.5422"/></g><!--class Teacher--><g id="elem_Teacher"><rect codeLine="15" fill="#F1F1F1" height="54.8344" id="Teacher" rx="2" ry="2" style="stroke:#181818;stroke-width:0.4000000000000001;" width="68" x="1102.8" y="341.3078"/><ellipse cx="1114.8" cy="365.525" fill="#ADD1B2" rx="8.8" ry="8.8" style="stroke:#181818;stroke-width:0.8000000000000002;"/><path d="M1113.8875,366.1625 L1113.8875,368.1625 L1117.35,368.1625 L1117.35,367.425 Q1117.35,366.9375 1117.5375,366.725 Q1117.7375,366.5125 1118.0375,366.5125 Q1118.3375,366.5125 1118.525,366.725 Q1118.7125,366.9375 1118.7125,367.425 L1118.7125,369.525 L1112.3125,369.525 Q1111.8125,369.525 1111.6,369.3375 Q1111.4,369.15 1111.4,368.8375 Q1111.4,368.5375 1111.6125,368.35 Q1111.825,368.1625 1112.3125,368.1625 L1112.525,368.1625 L1112.525,362.8375 L1112.3125,362.8375 Q1111.8125,362.8375 1111.6,362.65 Q1111.4,362.4625 1111.4,362.15 Q1111.4,361.85 1111.6,361.6625 Q1111.8125,361.475 1112.3125,361.475 L1118.4125,361.475 L1118.4125,363.55 Q1118.4125,364.0375 1118.225,364.25 Q1118.05,364.45 1117.7375,364.45 Q1117.4375,364.45 1117.25,364.25 Q1117.0625,364.0375 1117.0625,363.55 L1117.0625,362.8375 L1113.8875,362.8375 L1113.8875,364.8 L1115.075,364.8 Q1115.075,364.275 1115.175,364.125 Q1115.3875,363.8 1115.7625,363.8 Q1116.0625,363.8 1116.25,364.0125 Q1116.4375,364.2125 1116.4375,364.7 L1116.4375,366.275 Q1116.4375,366.7125 1116.3375,366.8625 Q1116.125,367.175 1115.7625,367.175 Q1115.3875,367.175 1115.175,366.85 Q1115.075,366.7 1115.075,366.1625 L1113.8875,366.1625 Z " fill="#000000"/><text fill="#000000" font-family="sans-serif" font-size="9.6" font-style="italic" lengthAdjust="spacing" textLength="34.4" x="1130" y="355.6672">&#171;entity&#187;</text><text fill="#000000" font-family="sans-serif" font-size="9.6" font-style="italic" lengthAdjust="spacing" textLength="28" x="1133.2" y="368.4359">&#171;root&#187;</text><text fill="#000000" font-family="sans-serif" font-size="11.2" lengthAdjust="spacing" textLength="42.4" x="1126" y="382.9313">Teacher</text><line style="stroke:#181818;stroke-width:0.4000000000000001;" x1="1103.6" x2="1170" y1="389.7422" y2="389.7422"/></g><!--class Acronym--><g id="elem_Acronym"><rect codeLine="16" fill="#F1F1F1" height="42.0656" id="Acronym" rx="2" ry="2" style="stroke:#181818;stroke-width:0.4000000000000001;" width="87.2" x="1097.2" y="493.7078"/><ellipse cx="1109.2" cy="511.5406" fill="#FF8B40" rx="8.8" ry="8.8" style="stroke:#181818;stroke-width:0.8000000000000002;"/><path d="M1109.675,514.1531 L1111.65,509.4531 L1111.3375,509.4531 Q1110.85,509.4531 1110.6375,509.2656 Q1110.425,509.0781 1110.425,508.7656 Q1110.425,508.4656 1110.6375,508.2781 Q1110.85,508.0906 1111.3375,508.0906 L1113.1625,508.0906 Q1113.65,508.0906 1113.8625,508.2781 Q1114.075,508.4656 1114.075,508.7656 Q1114.075,509.1406 1113.75,509.3531 Q1113.6,509.4531 1113.125,509.4531 L1110.3375,516.1406 L1109.025,516.1406 L1106.2375,509.4531 Q1105.7625,509.4531 1105.6125,509.3531 Q1105.2875,509.1406 1105.2875,508.7656 Q1105.2875,508.4656 1105.5,508.2781 Q1105.7125,508.0906 1106.2,508.0906 L1108.0375,508.0906 Q1108.525,508.0906 1108.725,508.2781 Q1108.9375,508.4656 1108.9375,508.7656 Q1108.9375,509.0781 1108.725,509.2656 Q1108.525,509.4531 1108.0375,509.4531 L1107.7125,509.4531 L1109.675,514.1531 Z " fill="#000000"/><text fill="#000000" font-family="sans-serif" font-size="9.6" font-style="italic" lengthAdjust="spacing" textLength="64.8" x="1118.8" y="508.0672">&#171;value object&#187;</text><text fill="#000000" font-family="sans-serif" font-size="11.2" lengthAdjust="spacing" textLength="44" x="1129.2" y="522.5625">Acronym</text><line style="stroke:#181818;stroke-width:0.4000000000000001;" x1="1098" x2="1183.6" y1="529.3734" y2="529.3734"/></g><!--class Exam--><g id="elem_Exam"><rect codeLine="36" fill="#F1F1F1" height="54.8344" id="Exam" rx="2" ry="2" style="stroke:#181818;stroke-width:0.4000000000000001;" width="56.8" x="769.2" y="204.5078"/><ellipse cx="781.2" cy="228.725" fill="#ADD1B2" rx="8.8" ry="8.8" style="stroke:#181818;stroke-width:0.8000000000000002;"/><path d="M780.2875,229.3625 L780.2875,231.3625 L783.75,231.3625 L783.75,230.625 Q783.75,230.1375 783.9375,229.925 Q784.1375,229.7125 784.4375,229.7125 Q784.7375,229.7125 784.925,229.925 Q785.1125,230.1375 785.1125,230.625 L785.1125,232.725 L778.7125,232.725 Q778.2125,232.725 778,232.5375 Q777.8,232.35 777.8,232.0375 Q777.8,231.7375 778.0125,231.55 Q778.225,231.3625 778.7125,231.3625 L778.925,231.3625 L778.925,226.0375 L778.7125,226.0375 Q778.2125,226.0375 778,225.85 Q777.8,225.6625 777.8,225.35 Q777.8,225.05 778,224.8625 Q778.2125,224.675 778.7125,224.675 L784.8125,224.675 L784.8125,226.75 Q784.8125,227.2375 784.625,227.45 Q784.45,227.65 784.1375,227.65 Q783.8375,227.65 783.65,227.45 Q783.4625,227.2375 783.4625,226.75 L783.4625,226.0375 L780.2875,226.0375 L780.2875,228 L781.475,228 Q781.475,227.475 781.575,227.325 Q781.7875,227 782.1625,227 Q782.4625,227 782.65,227.2125 Q782.8375,227.4125 782.8375,227.9 L782.8375,229.475 Q782.8375,229.9125 782.7375,230.0625 Q782.525,230.375 782.1625,230.375 Q781.7875,230.375 781.575,230.05 Q781.475,229.9 781.475,229.3625 L780.2875,229.3625 Z " fill="#000000"/><text fill="#000000" font-family="sans-serif" font-size="9.6" font-style="italic" lengthAdjust="spacing" textLength="34.4" x="790.8" y="218.8672">&#171;entity&#187;</text><text fill="#000000" font-family="sans-serif" font-size="9.6" font-style="italic" lengthAdjust="spacing" textLength="28" x="794" y="231.6359">&#171;root&#187;</text><text fill="#000000" font-family="sans-serif" font-size="11.2" lengthAdjust="spacing" textLength="27.2" x="794.4" y="246.1313">Exam</text><line style="stroke:#181818;stroke-width:0.4000000000000001;" x1="770" x2="825.2" y1="252.9422" y2="252.9422"/></g><!--class ExamSection--><g id="elem_ExamSection"><rect codeLine="38" fill="#F1F1F1" height="42.0656" id="ExamSection" rx="2" ry="2" style="stroke:#181818;stroke-width:0.4000000000000001;" width="90.4" x="735.6" y="347.7078"/><ellipse cx="747.6" cy="365.5406" fill="#ADD1B2" rx="8.8" ry="8.8" style="stroke:#181818;stroke-width:0.8000000000000002;"/><path d="M746.6875,366.1781 L746.6875,368.1781 L750.15,368.1781 L750.15,367.4406 Q750.15,366.9531 750.3375,366.7406 Q750.5375,366.5281 750.8375,366.5281 Q751.1375,366.5281 751.325,366.7406 Q751.5125,366.9531 751.5125,367.4406 L751.5125,369.5406 L745.1125,369.5406 Q744.6125,369.5406 744.4,369.3531 Q744.2,369.1656 744.2,368.8531 Q744.2,368.5531 744.4125,368.3656 Q744.625,368.1781 745.1125,368.1781 L745.325,368.1781 L745.325,362.8531 L745.1125,362.8531 Q744.6125,362.8531 744.4,362.6656 Q744.2,362.4781 744.2,362.1656 Q744.2,361.8656 744.4,361.6781 Q744.6125,361.4906 745.1125,361.4906 L751.2125,361.4906 L751.2125,363.5656 Q751.2125,364.0531 751.025,364.2656 Q750.85,364.4656 750.5375,364.4656 Q750.2375,364.4656 750.05,364.2656 Q749.8625,364.0531 749.8625,363.5656 L749.8625,362.8531 L746.6875,362.8531 L746.6875,364.8156 L747.875,364.8156 Q747.875,364.2906 747.975,364.1406 Q748.1875,363.8156 748.5625,363.8156 Q748.8625,363.8156 749.05,364.0281 Q749.2375,364.2281 749.2375,364.7156 L749.2375,366.2906 Q749.2375,366.7281 749.1375,366.8781 Q748.925,367.1906 748.5625,367.1906 Q748.1875,367.1906 747.975,366.8656 Q747.875,366.7156 747.875,366.1781 L746.6875,366.1781 Z " fill="#000000"/><text fill="#000000" font-family="sans-serif" font-size="9.6" font-style="italic" lengthAdjust="spacing" textLength="40" x="771.2" y="362.0672">&#171;entity&gt;&#187;</text><text fill="#000000" font-family="sans-serif" font-size="11.2" lengthAdjust="spacing" textLength="64.8" x="758.8" y="376.5625">ExamSection</text><line style="stroke:#181818;stroke-width:0.4000000000000001;" x1="736.4" x2="825.2" y1="383.3734" y2="383.3734"/></g><!--class Answer--><g id="elem_Answer"><rect codeLine="44" fill="#F1F1F1" height="71.8594" id="Answer" rx="2" ry="2" style="stroke:#181818;stroke-width:0.4000000000000001;" width="81.6" x="17.6" y="606.5078"/><ellipse cx="38.24" cy="624.3406" fill="#ADD1B2" rx="8.8" ry="8.8" style="stroke:#181818;stroke-width:0.8000000000000002;"/><path d="M37.3275,624.9781 L37.3275,626.9781 L40.79,626.9781 L40.79,626.2406 Q40.79,625.7531 40.9775,625.5406 Q41.1775,625.3281 41.4775,625.3281 Q41.7775,625.3281 41.965,625.5406 Q42.1525,625.7531 42.1525,626.2406 L42.1525,628.3406 L35.7525,628.3406 Q35.2525,628.3406 35.04,628.1531 Q34.84,627.9656 34.84,627.6531 Q34.84,627.3531 35.0525,627.1656 Q35.265,626.9781 35.7525,626.9781 L35.965,626.9781 L35.965,621.6531 L35.7525,621.6531 Q35.2525,621.6531 35.04,621.4656 Q34.84,621.2781 34.84,620.9656 Q34.84,620.6656 35.04,620.4781 Q35.2525,620.2906 35.7525,620.2906 L41.8525,620.2906 L41.8525,622.3656 Q41.8525,622.8531 41.665,623.0656 Q41.49,623.2656 41.1775,623.2656 Q40.8775,623.2656 40.69,623.0656 Q40.5025,622.8531 40.5025,622.3656 L40.5025,621.6531 L37.3275,621.6531 L37.3275,623.6156 L38.515,623.6156 Q38.515,623.0906 38.615,622.9406 Q38.8275,622.6156 39.2025,622.6156 Q39.5025,622.6156 39.69,622.8281 Q39.8775,623.0281 39.8775,623.5156 L39.8775,625.0906 Q39.8775,625.5281 39.7775,625.6781 Q39.565,625.9906 39.2025,625.9906 Q38.8275,625.9906 38.615,625.6656 Q38.515,625.5156 38.515,624.9781 L37.3275,624.9781 Z " fill="#000000"/><text fill="#000000" font-family="sans-serif" font-size="9.6" font-style="italic" lengthAdjust="spacing" textLength="40" x="49.76" y="620.8672">&#171;entity&gt;&#187;</text><text fill="#000000" font-family="sans-serif" font-size="11.2" lengthAdjust="spacing" textLength="36.8" x="51.36" y="635.3625">Answer</text><line style="stroke:#181818;stroke-width:0.4000000000000001;" x1="18.4" x2="98.4" y1="642.1734" y2="642.1734"/><text fill="#000000" font-family="sans-serif" font-size="11.2" lengthAdjust="spacing" textLength="72" x="22.4" y="657.4594">correctAnswer</text><text fill="#000000" font-family="sans-serif" font-size="11.2" lengthAdjust="spacing" textLength="46.4" x="22.4" y="672.3563">feedback</text></g><!--class Question--><g id="elem_Question"><rect codeLine="50" fill="#F1F1F1" height="56.9625" id="Question" rx="2" ry="2" style="stroke:#181818;stroke-width:0.4000000000000001;" width="74.4" x="404.4" y="486.5078"/><ellipse cx="416.4" cy="504.3406" fill="#A9DCDF" rx="8.8" ry="8.8" style="stroke:#181818;stroke-width:0.8000000000000002;"/><path d="M418.15,505.7531 L414.8375,505.7531 L414.5,506.5781 L414.8375,506.5781 Q415.325,506.5781 415.5375,506.7656 Q415.75,506.9531 415.75,507.2656 Q415.75,507.5656 415.5375,507.7531 Q415.325,507.9406 414.8375,507.9406 L413,507.9406 Q412.5125,507.9406 412.3125,507.7531 Q412.1,507.5656 412.1,507.2531 Q412.1,506.9531 412.325,506.7656 Q412.5375,506.5656 413.0375,506.5781 L415.175,501.2531 L414.2875,501.2531 Q413.8,501.2531 413.5875,501.0656 Q413.375,500.8781 413.375,500.5656 Q413.375,500.2656 413.5875,500.0781 Q413.8,499.8906 414.2875,499.8906 L417.225,499.8906 L419.9375,506.5781 Q420.4125,506.5781 420.5625,506.6906 Q420.875,506.9031 420.875,507.2656 Q420.875,507.5656 420.6625,507.7531 Q420.4625,507.9406 419.975,507.9406 L418.1375,507.9406 Q417.65,507.9406 417.4375,507.7531 Q417.225,507.5656 417.225,507.2531 Q417.225,506.9531 417.4375,506.7656 Q417.65,506.5781 418.1375,506.5781 L418.475,506.5781 L418.15,505.7531 Z M417.575,504.3906 L416.4875,501.6906 L415.3875,504.3906 L417.575,504.3906 Z " fill="#000000"/><text fill="#000000" font-family="sans-serif" font-size="9.6" font-style="italic" lengthAdjust="spacing" textLength="52" x="426" y="500.8672">&#171;abstract&gt;&#187;</text><text fill="#000000" font-family="sans-serif" font-size="11.2" font-style="italic" lengthAdjust="spacing" textLength="45.6" x="429.2" y="515.3625">Question</text><line style="stroke:#181818;stroke-width:0.4000000000000001;" x1="405.2" x2="478" y1="522.1734" y2="522.1734"/><text fill="#000000" font-family="sans-serif" font-size="11.2" lengthAdjust="spacing" textLength="17.6" x="409.2" y="537.4594">text</text></g><!--class QuestionScore--><g id="elem_QuestionScore"><rect codeLine="53" fill="#F1F1F1" height="42.0656" id="QuestionScore" rx="2" ry="2" style="stroke:#181818;stroke-width:0.4000000000000001;" width="100.8" x="275.2" y="493.7078"/><ellipse cx="287.2" cy="511.5406" fill="#FF8B40" rx="8.8" ry="8.8" style="stroke:#181818;stroke-width:0.8000000000000002;"/><path d="M287.675,514.1531 L289.65,509.4531 L289.3375,509.4531 Q288.85,509.4531 288.6375,509.2656 Q288.425,509.0781 288.425,508.7656 Q288.425,508.4656 288.6375,508.2781 Q288.85,508.0906 289.3375,508.0906 L291.1625,508.0906 Q291.65,508.0906 291.8625,508.2781 Q292.075,508.4656 292.075,508.7656 Q292.075,509.1406 291.75,509.3531 Q291.6,509.4531 291.125,509.4531 L288.3375,516.1406 L287.025,516.1406 L284.2375,509.4531 Q283.7625,509.4531 283.6125,509.3531 Q283.2875,509.1406 283.2875,508.7656 Q283.2875,508.4656 283.5,508.2781 Q283.7125,508.0906 284.2,508.0906 L286.0375,508.0906 Q286.525,508.0906 286.725,508.2781 Q286.9375,508.4656 286.9375,508.7656 Q286.9375,509.0781 286.725,509.2656 Q286.525,509.4531 286.0375,509.4531 L285.7125,509.4531 L287.675,514.1531 Z " fill="#000000"/><text fill="#000000" font-family="sans-serif" font-size="9.6" font-style="italic" lengthAdjust="spacing" textLength="64.8" x="303.6" y="508.0672">&#171;value object&#187;</text><text fill="#000000" font-family="sans-serif" font-size="11.2" lengthAdjust="spacing" textLength="75.2" x="298.4" y="522.5625">QuestionScore</text><line style="stroke:#181818;stroke-width:0.4000000000000001;" x1="276" x2="375.2" y1="529.3734" y2="529.3734"/></g><!--class Matching--><g id="elem_Matching"><rect codeLine="55" fill="#F1F1F1" height="42.0656" id="Matching" rx="2" ry="2" style="stroke:#181818;stroke-width:0.4000000000000001;" width="71.2" x="127.6" y="621.3078"/><ellipse cx="139.6" cy="639.1406" fill="#ADD1B2" rx="8.8" ry="8.8" style="stroke:#181818;stroke-width:0.8000000000000002;"/><path d="M138.6875,639.7781 L138.6875,641.7781 L142.15,641.7781 L142.15,641.0406 Q142.15,640.5531 142.3375,640.3406 Q142.5375,640.1281 142.8375,640.1281 Q143.1375,640.1281 143.325,640.3406 Q143.5125,640.5531 143.5125,641.0406 L143.5125,643.1406 L137.1125,643.1406 Q136.6125,643.1406 136.4,642.9531 Q136.2,642.7656 136.2,642.4531 Q136.2,642.1531 136.4125,641.9656 Q136.625,641.7781 137.1125,641.7781 L137.325,641.7781 L137.325,636.4531 L137.1125,636.4531 Q136.6125,636.4531 136.4,636.2656 Q136.2,636.0781 136.2,635.7656 Q136.2,635.4656 136.4,635.2781 Q136.6125,635.0906 137.1125,635.0906 L143.2125,635.0906 L143.2125,637.1656 Q143.2125,637.6531 143.025,637.8656 Q142.85,638.0656 142.5375,638.0656 Q142.2375,638.0656 142.05,637.8656 Q141.8625,637.6531 141.8625,637.1656 L141.8625,636.4531 L138.6875,636.4531 L138.6875,638.4156 L139.875,638.4156 Q139.875,637.8906 139.975,637.7406 Q140.1875,637.4156 140.5625,637.4156 Q140.8625,637.4156 141.05,637.6281 Q141.2375,637.8281 141.2375,638.3156 L141.2375,639.8906 Q141.2375,640.3281 141.1375,640.4781 Q140.925,640.7906 140.5625,640.7906 Q140.1875,640.7906 139.975,640.4656 Q139.875,640.3156 139.875,639.7781 L138.6875,639.7781 Z " fill="#000000"/><text fill="#000000" font-family="sans-serif" font-size="9.6" font-style="italic" lengthAdjust="spacing" textLength="40" x="153.6" y="635.6672">&#171;entity&gt;&#187;</text><text fill="#000000" font-family="sans-serif" font-size="11.2" lengthAdjust="spacing" textLength="45.6" x="150.8" y="650.1625">Matching</text><line style="stroke:#181818;stroke-width:0.4000000000000001;" x1="128.4" x2="198" y1="656.9734" y2="656.9734"/></g><!--class MultipleChoice--><g id="elem_MultipleChoice"><rect codeLine="56" fill="#F1F1F1" height="42.0656" id="MultipleChoice" rx="2" ry="2" style="stroke:#181818;stroke-width:0.4000000000000001;" width="99.2" x="227.2" y="621.3078"/><ellipse cx="239.2" cy="639.1406" fill="#ADD1B2" rx="8.8" ry="8.8" style="stroke:#181818;stroke-width:0.8000000000000002;"/><path d="M238.2875,639.7781 L238.2875,641.7781 L241.75,641.7781 L241.75,641.0406 Q241.75,640.5531 241.9375,640.3406 Q242.1375,640.1281 242.4375,640.1281 Q242.7375,640.1281 242.925,640.3406 Q243.1125,640.5531 243.1125,641.0406 L243.1125,643.1406 L236.7125,643.1406 Q236.2125,643.1406 236,642.9531 Q235.8,642.7656 235.8,642.4531 Q235.8,642.1531 236.0125,641.9656 Q236.225,641.7781 236.7125,641.7781 L236.925,641.7781 L236.925,636.4531 L236.7125,636.4531 Q236.2125,636.4531 236,636.2656 Q235.8,636.0781 235.8,635.7656 Q235.8,635.4656 236,635.2781 Q236.2125,635.0906 236.7125,635.0906 L242.8125,635.0906 L242.8125,637.1656 Q242.8125,637.6531 242.625,637.8656 Q242.45,638.0656 242.1375,638.0656 Q241.8375,638.0656 241.65,637.8656 Q241.4625,637.6531 241.4625,637.1656 L241.4625,636.4531 L238.2875,636.4531 L238.2875,638.4156 L239.475,638.4156 Q239.475,637.8906 239.575,637.7406 Q239.7875,637.4156 240.1625,637.4156 Q240.4625,637.4156 240.65,637.6281 Q240.8375,637.8281 240.8375,638.3156 L240.8375,639.8906 Q240.8375,640.3281 240.7375,640.4781 Q240.525,640.7906 240.1625,640.7906 Q239.7875,640.7906 239.575,640.4656 Q239.475,640.3156 239.475,639.7781 L238.2875,639.7781 Z " fill="#000000"/><text fill="#000000" font-family="sans-serif" font-size="9.6" font-style="italic" lengthAdjust="spacing" textLength="40" x="267.2" y="635.6672">&#171;entity&gt;&#187;</text><text fill="#000000" font-family="sans-serif" font-size="11.2" lengthAdjust="spacing" textLength="73.6" x="250.4" y="650.1625">MultipleChoice</text><line style="stroke:#181818;stroke-width:0.4000000000000001;" x1="228" x2="325.6" y1="656.9734" y2="656.9734"/></g><!--class ShortAnswer--><g id="elem_ShortAnswer"><rect codeLine="57" fill="#F1F1F1" height="42.0656" id="ShortAnswer" rx="2" ry="2" style="stroke:#181818;stroke-width:0.4000000000000001;" width="89.6" x="354.4" y="621.3078"/><ellipse cx="366.4" cy="639.1406" fill="#ADD1B2" rx="8.8" ry="8.8" style="stroke:#181818;stroke-width:0.8000000000000002;"/><path d="M365.4875,639.7781 L365.4875,641.7781 L368.95,641.7781 L368.95,641.0406 Q368.95,640.5531 369.1375,640.3406 Q369.3375,640.1281 369.6375,640.1281 Q369.9375,640.1281 370.125,640.3406 Q370.3125,640.5531 370.3125,641.0406 L370.3125,643.1406 L363.9125,643.1406 Q363.4125,643.1406 363.2,642.9531 Q363,642.7656 363,642.4531 Q363,642.1531 363.2125,641.9656 Q363.425,641.7781 363.9125,641.7781 L364.125,641.7781 L364.125,636.4531 L363.9125,636.4531 Q363.4125,636.4531 363.2,636.2656 Q363,636.0781 363,635.7656 Q363,635.4656 363.2,635.2781 Q363.4125,635.0906 363.9125,635.0906 L370.0125,635.0906 L370.0125,637.1656 Q370.0125,637.6531 369.825,637.8656 Q369.65,638.0656 369.3375,638.0656 Q369.0375,638.0656 368.85,637.8656 Q368.6625,637.6531 368.6625,637.1656 L368.6625,636.4531 L365.4875,636.4531 L365.4875,638.4156 L366.675,638.4156 Q366.675,637.8906 366.775,637.7406 Q366.9875,637.4156 367.3625,637.4156 Q367.6625,637.4156 367.85,637.6281 Q368.0375,637.8281 368.0375,638.3156 L368.0375,639.8906 Q368.0375,640.3281 367.9375,640.4781 Q367.725,640.7906 367.3625,640.7906 Q366.9875,640.7906 366.775,640.4656 Q366.675,640.3156 366.675,639.7781 L365.4875,639.7781 Z " fill="#000000"/><text fill="#000000" font-family="sans-serif" font-size="9.6" font-style="italic" lengthAdjust="spacing" textLength="40" x="389.6" y="635.6672">&#171;entity&gt;&#187;</text><text fill="#000000" font-family="sans-serif" font-size="11.2" lengthAdjust="spacing" textLength="64" x="377.6" y="650.1625">ShortAnswer</text><line style="stroke:#181818;stroke-width:0.4000000000000001;" x1="355.2" x2="443.2" y1="656.9734" y2="656.9734"/></g><!--class Numerical--><g id="elem_Numerical"><rect codeLine="58" fill="#F1F1F1" height="42.0656" id="Numerical" rx="2" ry="2" style="stroke:#181818;stroke-width:0.4000000000000001;" width="75.2" x="472" y="621.3078"/><ellipse cx="484" cy="639.1406" fill="#ADD1B2" rx="8.8" ry="8.8" style="stroke:#181818;stroke-width:0.8000000000000002;"/><path d="M483.0875,639.7781 L483.0875,641.7781 L486.55,641.7781 L486.55,641.0406 Q486.55,640.5531 486.7375,640.3406 Q486.9375,640.1281 487.2375,640.1281 Q487.5375,640.1281 487.725,640.3406 Q487.9125,640.5531 487.9125,641.0406 L487.9125,643.1406 L481.5125,643.1406 Q481.0125,643.1406 480.8,642.9531 Q480.6,642.7656 480.6,642.4531 Q480.6,642.1531 480.8125,641.9656 Q481.025,641.7781 481.5125,641.7781 L481.725,641.7781 L481.725,636.4531 L481.5125,636.4531 Q481.0125,636.4531 480.8,636.2656 Q480.6,636.0781 480.6,635.7656 Q480.6,635.4656 480.8,635.2781 Q481.0125,635.0906 481.5125,635.0906 L487.6125,635.0906 L487.6125,637.1656 Q487.6125,637.6531 487.425,637.8656 Q487.25,638.0656 486.9375,638.0656 Q486.6375,638.0656 486.45,637.8656 Q486.2625,637.6531 486.2625,637.1656 L486.2625,636.4531 L483.0875,636.4531 L483.0875,638.4156 L484.275,638.4156 Q484.275,637.8906 484.375,637.7406 Q484.5875,637.4156 484.9625,637.4156 Q485.2625,637.4156 485.45,637.6281 Q485.6375,637.8281 485.6375,638.3156 L485.6375,639.8906 Q485.6375,640.3281 485.5375,640.4781 Q485.325,640.7906 484.9625,640.7906 Q484.5875,640.7906 484.375,640.4656 Q484.275,640.3156 484.275,639.7781 L483.0875,639.7781 Z " fill="#000000"/><text fill="#000000" font-family="sans-serif" font-size="9.6" font-style="italic" lengthAdjust="spacing" textLength="40" x="500" y="635.6672">&#171;entity&gt;&#187;</text><text fill="#000000" font-family="sans-serif" font-size="11.2" lengthAdjust="spacing" textLength="49.6" x="495.2" y="650.1625">Numerical</text><line style="stroke:#181818;stroke-width:0.4000000000000001;" x1="472.8" x2="546.4" y1="656.9734" y2="656.9734"/></g><!--class SelectMissingWords--><g id="elem_SelectMissingWords"><rect codeLine="59" fill="#F1F1F1" height="42.0656" id="SelectMissingWords" rx="2" ry="2" style="stroke:#181818;stroke-width:0.4000000000000001;" width="127.2" x="575.6" y="621.3078"/><ellipse cx="587.6" cy="639.1406" fill="#ADD1B2" rx="8.8" ry="8.8" style="stroke:#181818;stroke-width:0.8000000000000002;"/><path d="M586.6875,639.7781 L586.6875,641.7781 L590.15,641.7781 L590.15,641.0406 Q590.15,640.5531 590.3375,640.3406 Q590.5375,640.1281 590.8375,640.1281 Q591.1375,640.1281 591.325,640.3406 Q591.5125,640.5531 591.5125,641.0406 L591.5125,643.1406 L585.1125,643.1406 Q584.6125,643.1406 584.4,642.9531 Q584.2,642.7656 584.2,642.4531 Q584.2,642.1531 584.4125,641.9656 Q584.625,641.7781 585.1125,641.7781 L585.325,641.7781 L585.325,636.4531 L585.1125,636.4531 Q584.6125,636.4531 584.4,636.2656 Q584.2,636.0781 584.2,635.7656 Q584.2,635.4656 584.4,635.2781 Q584.6125,635.0906 585.1125,635.0906 L591.2125,635.0906 L591.2125,637.1656 Q591.2125,637.6531 591.025,637.8656 Q590.85,638.0656 590.5375,638.0656 Q590.2375,638.0656 590.05,637.8656 Q589.8625,637.6531 589.8625,637.1656 L589.8625,636.4531 L586.6875,636.4531 L586.6875,638.4156 L587.875,638.4156 Q587.875,637.8906 587.975,637.7406 Q588.1875,637.4156 588.5625,637.4156 Q588.8625,637.4156 589.05,637.6281 Q589.2375,637.8281 589.2375,638.3156 L589.2375,639.8906 Q589.2375,640.3281 589.1375,640.4781 Q588.925,640.7906 588.5625,640.7906 Q588.1875,640.7906 587.975,640.4656 Q587.875,640.3156 587.875,639.7781 L586.6875,639.7781 Z " fill="#000000"/><text fill="#000000" font-family="sans-serif" font-size="9.6" font-style="italic" lengthAdjust="spacing" textLength="40" x="629.6" y="635.6672">&#171;entity&gt;&#187;</text><text fill="#000000" font-family="sans-serif" font-size="11.2" lengthAdjust="spacing" textLength="101.6" x="598.8" y="650.1625">SelectMissingWords</text><line style="stroke:#181818;stroke-width:0.4000000000000001;" x1="576.4" x2="702" y1="656.9734" y2="656.9734"/></g><!--class TrueFalse--><g id="elem_TrueFalse"><rect codeLine="60" fill="#F1F1F1" height="42.0656" id="TrueFalse" rx="2" ry="2" style="stroke:#181818;stroke-width:0.4000000000000001;" width="77.6" x="730.8" y="621.3078"/><ellipse cx="742.8" cy="639.1406" fill="#ADD1B2" rx="8.8" ry="8.8" style="stroke:#181818;stroke-width:0.8000000000000002;"/><path d="M741.8875,639.7781 L741.8875,641.7781 L745.35,641.7781 L745.35,641.0406 Q745.35,640.5531 745.5375,640.3406 Q745.7375,640.1281 746.0375,640.1281 Q746.3375,640.1281 746.525,640.3406 Q746.7125,640.5531 746.7125,641.0406 L746.7125,643.1406 L740.3125,643.1406 Q739.8125,643.1406 739.6,642.9531 Q739.4,642.7656 739.4,642.4531 Q739.4,642.1531 739.6125,641.9656 Q739.825,641.7781 740.3125,641.7781 L740.525,641.7781 L740.525,636.4531 L740.3125,636.4531 Q739.8125,636.4531 739.6,636.2656 Q739.4,636.0781 739.4,635.7656 Q739.4,635.4656 739.6,635.2781 Q739.8125,635.0906 740.3125,635.0906 L746.4125,635.0906 L746.4125,637.1656 Q746.4125,637.6531 746.225,637.8656 Q746.05,638.0656 745.7375,638.0656 Q745.4375,638.0656 745.25,637.8656 Q745.0625,637.6531 745.0625,637.1656 L745.0625,636.4531 L741.8875,636.4531 L741.8875,638.4156 L743.075,638.4156 Q743.075,637.8906 743.175,637.7406 Q743.3875,637.4156 743.7625,637.4156 Q744.0625,637.4156 744.25,637.6281 Q744.4375,637.8281 744.4375,638.3156 L744.4375,639.8906 Q744.4375,640.3281 744.3375,640.4781 Q744.125,640.7906 743.7625,640.7906 Q743.3875,640.7906 743.175,640.4656 Q743.075,640.3156 743.075,639.7781 L741.8875,639.7781 Z " fill="#000000"/><text fill="#000000" font-family="sans-serif" font-size="9.6" font-style="italic" lengthAdjust="spacing" textLength="40" x="760" y="635.6672">&#171;entity&gt;&#187;</text><text fill="#000000" font-family="sans-serif" font-size="11.2" lengthAdjust="spacing" textLength="52" x="754" y="650.1625">TrueFalse</text><line style="stroke:#181818;stroke-width:0.4000000000000001;" x1="731.6" x2="807.6" y1="656.9734" y2="656.9734"/></g><!--class ExamTitle--><g id="elem_ExamTitle"><rect codeLine="19" fill="#F1F1F1" height="42.0656" id="ExamTitle" rx="2" ry="2" style="stroke:#181818;stroke-width:0.4000000000000001;" width="87.2" x="854" y="347.7078"/><ellipse cx="866" cy="365.5406" fill="#FF8B40" rx="8.8" ry="8.8" style="stroke:#181818;stroke-width:0.8000000000000002;"/><path d="M866.475,368.1531 L868.45,363.4531 L868.1375,363.4531 Q867.65,363.4531 867.4375,363.2656 Q867.225,363.0781 867.225,362.7656 Q867.225,362.4656 867.4375,362.2781 Q867.65,362.0906 868.1375,362.0906 L869.9625,362.0906 Q870.45,362.0906 870.6625,362.2781 Q870.875,362.4656 870.875,362.7656 Q870.875,363.1406 870.55,363.3531 Q870.4,363.4531 869.925,363.4531 L867.1375,370.1406 L865.825,370.1406 L863.0375,363.4531 Q862.5625,363.4531 862.4125,363.3531 Q862.0875,363.1406 862.0875,362.7656 Q862.0875,362.4656 862.3,362.2781 Q862.5125,362.0906 863,362.0906 L864.8375,362.0906 Q865.325,362.0906 865.525,362.2781 Q865.7375,362.4656 865.7375,362.7656 Q865.7375,363.0781 865.525,363.2656 Q865.325,363.4531 864.8375,363.4531 L864.5125,363.4531 L866.475,368.1531 Z " fill="#000000"/><text fill="#000000" font-family="sans-serif" font-size="9.6" font-style="italic" lengthAdjust="spacing" textLength="64.8" x="875.6" y="362.0672">&#171;value object&#187;</text><text fill="#000000" font-family="sans-serif" font-size="11.2" lengthAdjust="spacing" textLength="48.8" x="883.6" y="376.5625">ExamTitle</text><line style="stroke:#181818;stroke-width:0.4000000000000001;" x1="854.8" x2="940.4" y1="383.3734" y2="383.3734"/></g><!--class ExamDateTime--><g id="elem_ExamDateTime"><rect codeLine="20" fill="#F1F1F1" height="71.8594" id="ExamDateTime" rx="2" ry="2" style="stroke:#181818;stroke-width:0.4000000000000001;" width="101.6" x="969.2" y="332.9078"/><ellipse cx="981.2" cy="350.7406" fill="#FF8B40" rx="8.8" ry="8.8" style="stroke:#181818;stroke-width:0.8000000000000002;"/><path d="M981.675,353.3531 L983.65,348.6531 L983.3375,348.6531 Q982.85,348.6531 982.6375,348.4656 Q982.425,348.2781 982.425,347.9656 Q982.425,347.6656 982.6375,347.4781 Q982.85,347.2906 983.3375,347.2906 L985.1625,347.2906 Q985.65,347.2906 985.8625,347.4781 Q986.075,347.6656 986.075,347.9656 Q986.075,348.3406 985.75,348.5531 Q985.6,348.6531 985.125,348.6531 L982.3375,355.3406 L981.025,355.3406 L978.2375,348.6531 Q977.7625,348.6531 977.6125,348.5531 Q977.2875,348.3406 977.2875,347.9656 Q977.2875,347.6656 977.5,347.4781 Q977.7125,347.2906 978.2,347.2906 L980.0375,347.2906 Q980.525,347.2906 980.725,347.4781 Q980.9375,347.6656 980.9375,347.9656 Q980.9375,348.2781 980.725,348.4656 Q980.525,348.6531 980.0375,348.6531 L979.7125,348.6531 L981.675,353.3531 Z " fill="#000000"/><text fill="#000000" font-family="sans-serif" font-size="9.6" font-style="italic" lengthAdjust="spacing" textLength="64.8" x="998" y="347.2672">&#171;value object&#187;</text><text fill="#000000" font-family="sans-serif" font-size="11.2" lengthAdjust="spacing" textLength="76" x="992.4" y="361.7625">ExamDateTime</text><line style="stroke:#181818;stroke-width:0.4000000000000001;" x1="970" x2="1070" y1="368.5734" y2="368.5734"/><text fill="#000000" font-family="sans-serif" font-size="11.2" lengthAdjust="spacing" textLength="89.6" x="974" y="383.8594">openingDateTime</text><text fill="#000000" font-family="sans-serif" font-size="11.2" lengthAdjust="spacing" textLength="84" x="974" y="398.7563">closingDateTime</text></g><!--class Header--><g id="elem_Header"><rect codeLine="26" fill="#F1F1F1" height="42.0656" id="Header" rx="2" ry="2" style="stroke:#181818;stroke-width:0.4000000000000001;" width="62.4" x="1329.6" y="347.7078"/><ellipse cx="1341.6" cy="365.5406" fill="#ADD1B2" rx="8.8" ry="8.8" style="stroke:#181818;stroke-width:0.8000000000000002;"/><path d="M1340.6875,366.1781 L1340.6875,368.1781 L1344.15,368.1781 L1344.15,367.4406 Q1344.15,366.9531 1344.3375,366.7406 Q1344.5375,366.5281 1344.8375,366.5281 Q1345.1375,366.5281 1345.325,366.7406 Q1345.5125,366.9531 1345.5125,367.4406 L1345.5125,369.5406 L1339.1125,369.5406 Q1338.6125,369.5406 1338.4,369.3531 Q1338.2,369.1656 1338.2,368.8531 Q1338.2,368.5531 1338.4125,368.3656 Q1338.625,368.1781 1339.1125,368.1781 L1339.325,368.1781 L1339.325,362.8531 L1339.1125,362.8531 Q1338.6125,362.8531 1338.4,362.6656 Q1338.2,362.4781 1338.2,362.1656 Q1338.2,361.8656 1338.4,361.6781 Q1338.6125,361.4906 1339.1125,361.4906 L1345.2125,361.4906 L1345.2125,363.5656 Q1345.2125,364.0531 1345.025,364.2656 Q1344.85,364.4656 1344.5375,364.4656 Q1344.2375,364.4656 1344.05,364.2656 Q1343.8625,364.0531 1343.8625,363.5656 L1343.8625,362.8531 L1340.6875,362.8531 L1340.6875,364.8156 L1341.875,364.8156 Q1341.875,364.2906 1341.975,364.1406 Q1342.1875,363.8156 1342.5625,363.8156 Q1342.8625,363.8156 1343.05,364.0281 Q1343.2375,364.2281 1343.2375,364.7156 L1343.2375,366.2906 Q1343.2375,366.7281 1343.1375,366.8781 Q1342.925,367.1906 1342.5625,367.1906 Q1342.1875,367.1906 1341.975,366.8656 Q1341.875,366.7156 1341.875,366.1781 L1340.6875,366.1781 Z " fill="#000000"/><text fill="#000000" font-family="sans-serif" font-size="9.6" font-style="italic" lengthAdjust="spacing" textLength="40" x="1351.2" y="362.0672">&#171;entity&gt;&#187;</text><text fill="#000000" font-family="sans-serif" font-size="11.2" lengthAdjust="spacing" textLength="36.8" x="1352.8" y="376.5625">Header</text><line style="stroke:#181818;stroke-width:0.4000000000000001;" x1="1330.4" x2="1391.2" y1="383.3734" y2="383.3734"/></g><!--class HeaderTypeNote--><g id="elem_HeaderTypeNote"><rect codeLine="27" fill="#F1F1F1" height="42.0656" id="HeaderTypeNote" rx="2" ry="2" style="stroke:#181818;stroke-width:0.4000000000000001;" width="111.2" x="1229.2" y="493.7078"/><ellipse cx="1241.2" cy="511.5406" fill="#FF8B40" rx="8.8" ry="8.8" style="stroke:#181818;stroke-width:0.8000000000000002;"/><path d="M1241.675,514.1531 L1243.65,509.4531 L1243.3375,509.4531 Q1242.85,509.4531 1242.6375,509.2656 Q1242.425,509.0781 1242.425,508.7656 Q1242.425,508.4656 1242.6375,508.2781 Q1242.85,508.0906 1243.3375,508.0906 L1245.1625,508.0906 Q1245.65,508.0906 1245.8625,508.2781 Q1246.075,508.4656 1246.075,508.7656 Q1246.075,509.1406 1245.75,509.3531 Q1245.6,509.4531 1245.125,509.4531 L1242.3375,516.1406 L1241.025,516.1406 L1238.2375,509.4531 Q1237.7625,509.4531 1237.6125,509.3531 Q1237.2875,509.1406 1237.2875,508.7656 Q1237.2875,508.4656 1237.5,508.2781 Q1237.7125,508.0906 1238.2,508.0906 L1240.0375,508.0906 Q1240.525,508.0906 1240.725,508.2781 Q1240.9375,508.4656 1240.9375,508.7656 Q1240.9375,509.0781 1240.725,509.2656 Q1240.525,509.4531 1240.0375,509.4531 L1239.7125,509.4531 L1241.675,514.1531 Z " fill="#000000"/><text fill="#000000" font-family="sans-serif" font-size="9.6" font-style="italic" lengthAdjust="spacing" textLength="64.8" x="1262.8" y="508.0672">&#171;value object&#187;</text><text fill="#000000" font-family="sans-serif" font-size="11.2" lengthAdjust="spacing" textLength="85.6" x="1252.4" y="522.5625">HeaderTypeNote</text><line style="stroke:#181818;stroke-width:0.4000000000000001;" x1="1230" x2="1339.6" y1="529.3734" y2="529.3734"/></g><!--class HeaderTypeFeedback--><g id="elem_HeaderTypeFeedback"><rect codeLine="28" fill="#F1F1F1" height="42.0656" id="HeaderTypeFeedback" rx="2" ry="2" style="stroke:#181818;stroke-width:0.4000000000000001;" width="138.4" x="1368.4" y="493.7078"/><ellipse cx="1380.4" cy="511.5406" fill="#FF8B40" rx="8.8" ry="8.8" style="stroke:#181818;stroke-width:0.8000000000000002;"/><path d="M1380.875,514.1531 L1382.85,509.4531 L1382.5375,509.4531 Q1382.05,509.4531 1381.8375,509.2656 Q1381.625,509.0781 1381.625,508.7656 Q1381.625,508.4656 1381.8375,508.2781 Q1382.05,508.0906 1382.5375,508.0906 L1384.3625,508.0906 Q1384.85,508.0906 1385.0625,508.2781 Q1385.275,508.4656 1385.275,508.7656 Q1385.275,509.1406 1384.95,509.3531 Q1384.8,509.4531 1384.325,509.4531 L1381.5375,516.1406 L1380.225,516.1406 L1377.4375,509.4531 Q1376.9625,509.4531 1376.8125,509.3531 Q1376.4875,509.1406 1376.4875,508.7656 Q1376.4875,508.4656 1376.7,508.2781 Q1376.9125,508.0906 1377.4,508.0906 L1379.2375,508.0906 Q1379.725,508.0906 1379.925,508.2781 Q1380.1375,508.4656 1380.1375,508.7656 Q1380.1375,509.0781 1379.925,509.2656 Q1379.725,509.4531 1379.2375,509.4531 L1378.9125,509.4531 L1380.875,514.1531 Z " fill="#000000"/><text fill="#000000" font-family="sans-serif" font-size="9.6" font-style="italic" lengthAdjust="spacing" textLength="64.8" x="1415.6" y="508.0672">&#171;value object&#187;</text><text fill="#000000" font-family="sans-serif" font-size="11.2" lengthAdjust="spacing" textLength="112.8" x="1391.6" y="522.5625">HeaderTypeFeedback</text><line style="stroke:#181818;stroke-width:0.4000000000000001;" x1="1369.2" x2="1506" y1="529.3734" y2="529.3734"/></g><!--class HeaderDescription--><g id="elem_HeaderDescription"><rect codeLine="29" fill="#F1F1F1" height="42.0656" id="HeaderDescription" rx="2" ry="2" style="stroke:#181818;stroke-width:0.4000000000000001;" width="119.2" x="1534.8" y="493.7078"/><ellipse cx="1546.8" cy="511.5406" fill="#FF8B40" rx="8.8" ry="8.8" style="stroke:#181818;stroke-width:0.8000000000000002;"/><path d="M1547.275,514.1531 L1549.25,509.4531 L1548.9375,509.4531 Q1548.45,509.4531 1548.2375,509.2656 Q1548.025,509.0781 1548.025,508.7656 Q1548.025,508.4656 1548.2375,508.2781 Q1548.45,508.0906 1548.9375,508.0906 L1550.7625,508.0906 Q1551.25,508.0906 1551.4625,508.2781 Q1551.675,508.4656 1551.675,508.7656 Q1551.675,509.1406 1551.35,509.3531 Q1551.2,509.4531 1550.725,509.4531 L1547.9375,516.1406 L1546.625,516.1406 L1543.8375,509.4531 Q1543.3625,509.4531 1543.2125,509.3531 Q1542.8875,509.1406 1542.8875,508.7656 Q1542.8875,508.4656 1543.1,508.2781 Q1543.3125,508.0906 1543.8,508.0906 L1545.6375,508.0906 Q1546.125,508.0906 1546.325,508.2781 Q1546.5375,508.4656 1546.5375,508.7656 Q1546.5375,509.0781 1546.325,509.2656 Q1546.125,509.4531 1545.6375,509.4531 L1545.3125,509.4531 L1547.275,514.1531 Z " fill="#000000"/><text fill="#000000" font-family="sans-serif" font-size="9.6" font-style="italic" lengthAdjust="spacing" textLength="64.8" x="1572.4" y="508.0672">&#171;value object&#187;</text><text fill="#000000" font-family="sans-serif" font-size="11.2" lengthAdjust="spacing" textLength="93.6" x="1558" y="522.5625">HeaderDescription</text><line style="stroke:#181818;stroke-width:0.4000000000000001;" x1="1535.6" x2="1653.2" y1="529.3734" y2="529.3734"/></g><!--class SectionDescription--><g id="elem_SectionDescription"><rect codeLine="32" fill="#F1F1F1" height="42.0656" id="SectionDescription" rx="2" ry="2" style="stroke:#181818;stroke-width:0.4000000000000001;" width="120" x="834.4" y="493.7078"/><ellipse cx="846.4" cy="511.5406" fill="#FF8B40" rx="8.8" ry="8.8" style="stroke:#181818;stroke-width:0.8000000000000002;"/><path d="M846.875,514.1531 L848.85,509.4531 L848.5375,509.4531 Q848.05,509.4531 847.8375,509.2656 Q847.625,509.0781 847.625,508.7656 Q847.625,508.4656 847.8375,508.2781 Q848.05,508.0906 848.5375,508.0906 L850.3625,508.0906 Q850.85,508.0906 851.0625,508.2781 Q851.275,508.4656 851.275,508.7656 Q851.275,509.1406 850.95,509.3531 Q850.8,509.4531 850.325,509.4531 L847.5375,516.1406 L846.225,516.1406 L843.4375,509.4531 Q842.9625,509.4531 842.8125,509.3531 Q842.4875,509.1406 842.4875,508.7656 Q842.4875,508.4656 842.7,508.2781 Q842.9125,508.0906 843.4,508.0906 L845.2375,508.0906 Q845.725,508.0906 845.925,508.2781 Q846.1375,508.4656 846.1375,508.7656 Q846.1375,509.0781 845.925,509.2656 Q845.725,509.4531 845.2375,509.4531 L844.9125,509.4531 L846.875,514.1531 Z " fill="#000000"/><text fill="#000000" font-family="sans-serif" font-size="9.6" font-style="italic" lengthAdjust="spacing" textLength="64.8" x="872.4" y="508.0672">&#171;value object&#187;</text><text fill="#000000" font-family="sans-serif" font-size="11.2" lengthAdjust="spacing" textLength="94.4" x="857.6" y="522.5625">SectionDescription</text><line style="stroke:#181818;stroke-width:0.4000000000000001;" x1="835.2" x2="953.6" y1="529.3734" y2="529.3734"/></g><!--link Teacher to Acronym--><g id="link_Teacher_Acronym"><path codeLine="63" d="M1137.544,396.5318 C1138.28,423.1638 1139.4,463.6438 1140.12,489.4838 " fill="none" id="Teacher-to-Acronym" style="stroke:#181818;stroke-width:0.8000000000000002;"/><polygon fill="#181818" points="1140.232,493.4998,1143.2251,486.2114,1140.1178,489.5014,1136.8277,486.3941,1140.232,493.4998" style="stroke:#181818;stroke-width:0.8000000000000002;"/></g><!--link Exam to ExamTitle--><g id="link_Exam_ExamTitle"><path codeLine="65" d="M817.6,259.9398 C835.792,284.5478 862.408,320.5318 879.864,344.1318 " fill="none" id="Exam-to-ExamTitle" style="stroke:#181818;stroke-width:0.8000000000000002;"/><polygon fill="#181818" points="882.376,347.5238,880.6644,339.8329,879.9962,344.3088,875.5203,343.6406,882.376,347.5238" style="stroke:#181818;stroke-width:0.8000000000000002;"/></g><!--link Exam to ExamDateTime--><g id="link_Exam_ExamDateTime"><path codeLine="66" d="M826.16,242.6678 C858.952,254.6198 913.576,276.8198 955.2,305.3078 C965.536,312.3798 975.736,321.1638 984.88,329.8998 " fill="none" id="Exam-to-ExamDateTime" style="stroke:#181818;stroke-width:0.8000000000000002;"/><polygon fill="#181818" points="987.936,332.8518,984.9893,325.5445,985.0623,330.0694,980.5374,330.1423,987.936,332.8518" style="stroke:#181818;stroke-width:0.8000000000000002;"/></g><!--link Exam to Header--><g id="link_Exam_Header"><path codeLine="67" d="M826.184,235.2598 C885.128,240.5238 1024.168,255.1158 1137.6,283.7078 C1165.08,290.6358 1171.04,295.4198 1197.6,305.3078 C1241.976,321.8358 1292.872,341.5318 1325.856,354.4118 " fill="none" id="Exam-to-Header" style="stroke:#181818;stroke-width:0.8000000000000002;"/><polygon fill="#181818" points="1329.592,355.8678,1324.0596,350.2578,1325.8687,354.4059,1321.7206,356.215,1329.592,355.8678" style="stroke:#181818;stroke-width:0.8000000000000002;"/><polygon fill="#000000" points="1187.8909,292.352,1181.3976,288.3866,1180.3068,292.9606,1187.8909,292.352" style="stroke:#000000;stroke-width:0.8000000000000002;"/><text fill="#000000" font-family="sans-serif" font-size="10.4" lengthAdjust="spacing" textLength="16.8" x="1191.2" y="295.7305">has</text><text fill="#000000" font-family="sans-serif" font-size="10.4" lengthAdjust="spacing" textLength="5.6" x="832.3627" y="248.5007">1</text><text fill="#000000" font-family="sans-serif" font-size="10.4" lengthAdjust="spacing" textLength="5.6" x="1317.5092" y="349.7625">1</text></g><!--link Exam to ExamSection--><g id="link_Exam_ExamSection"><path codeLine="68" d="M794.24,259.9398 C791.208,284.3478 786.784,319.9398 783.848,343.5478 " fill="none" id="Exam-to-ExamSection" style="stroke:#181818;stroke-width:0.8000000000000002;"/><polygon fill="#181818" points="783.36,347.5238,787.4212,340.772,783.8519,343.5542,781.0697,339.9849,783.36,347.5238" style="stroke:#181818;stroke-width:0.8000000000000002;"/><polygon fill="#000000" points="793.9066,295.3937,797.1323,288.5029,792.466,287.9229,793.9066,295.3937" style="stroke:#000000;stroke-width:0.8000000000000002;"/><text fill="#000000" font-family="sans-serif" font-size="10.4" lengthAdjust="spacing" textLength="16.8" x="801.6" y="295.7305">has</text><text fill="#000000" font-family="sans-serif" font-size="10.4" lengthAdjust="spacing" textLength="5.6" x="787.6198" y="276.948">1</text><text fill="#000000" font-family="sans-serif" font-size="10.4" lengthAdjust="spacing" textLength="16" x="766.102" y="338.6945">1..*</text></g><!--link Exam to Teacher--><g id="link_Exam_Teacher"><path codeLine="69" d="M826.184,234.2918 C880.568,238.1238 1000.984,252.4038 1084.8,305.3078 C1097.824,313.5238 1109.16,326.0998 1117.904,337.8438 " fill="none" id="Exam-to-Teacher" style="stroke:#181818;stroke-width:0.8000000000000002;"/><polygon fill="#181818" points="1120.304,341.1238,1118.6409,333.4222,1117.9445,337.8938,1113.4729,337.1974,1120.304,341.1238" style="stroke:#181818;stroke-width:0.8000000000000002;"/><polygon fill="#000000" points="1078.1696,292.7623,1072.1369,288.126,1070.5639,292.5574,1078.1696,292.7623" style="stroke:#000000;stroke-width:0.8000000000000002;"/><text fill="#000000" font-family="sans-serif" font-size="10.4" lengthAdjust="spacing" textLength="48.8" x="1081.6" y="295.7305">created by</text><text fill="#000000" font-family="sans-serif" font-size="10.4" lengthAdjust="spacing" textLength="16" x="832.4719" y="231.1725">0..*</text><text fill="#000000" font-family="sans-serif" font-size="10.4" lengthAdjust="spacing" textLength="5.6" x="1111.0257" y="332.2109">1</text></g><!--link Header to HeaderTypeNote--><g id="link_Header_HeaderTypeNote"><path codeLine="71" d="M1349.912,390.3958 C1336.048,416.7398 1312.128,462.1798 1297.464,490.0438 " fill="none" id="Header-to-HeaderTypeNote" style="stroke:#181818;stroke-width:0.8000000000000002;"/><polygon fill="#181818" points="1295.544,493.6918,1301.7272,488.8083,1297.4056,490.1514,1296.0625,485.8298,1295.544,493.6918" style="stroke:#181818;stroke-width:0.8000000000000002;"/></g><!--link Header to HeaderTypeFeedback--><g id="link_Header_HeaderTypeFeedback"><path codeLine="72" d="M1371.8,390.3958 C1385.816,416.7398 1409.984,462.1798 1424.8,490.0438 " fill="none" id="Header-to-HeaderTypeFeedback" style="stroke:#181818;stroke-width:0.8000000000000002;"/><polygon fill="#181818" points="1426.744,493.6918,1426.1753,485.8333,1424.8599,490.1633,1420.5298,488.8479,1426.744,493.6918" style="stroke:#181818;stroke-width:0.8000000000000002;"/></g><!--link Header to HeaderDescription--><g id="link_Header_HeaderDescription"><path codeLine="73" d="M1392.12,382.7718 C1425.312,397.2438 1478.656,422.2838 1520.8,450.5078 C1538.408,462.2998 1556.44,477.8198 1570.256,490.5718 " fill="none" id="Header-to-HeaderDescription" style="stroke:#181818;stroke-width:0.8000000000000002;"/><polygon fill="#181818" points="1573.312,493.4198,1570.2177,486.1738,1570.3825,490.6963,1565.86,490.861,1573.312,493.4198" style="stroke:#181818;stroke-width:0.8000000000000002;"/></g><!--link ExamSection to SectionDescription--><g id="link_ExamSection_SectionDescription"><path codeLine="75" d="M797.08,390.3958 C817.888,416.8518 853.84,462.5558 875.736,490.3878 " fill="none" id="ExamSection-to-SectionDescription" style="stroke:#181818;stroke-width:0.8000000000000002;"/><polygon fill="#181818" points="878.336,493.6918,876.4051,486.053,875.8652,490.5461,871.3721,490.0062,878.336,493.6918" style="stroke:#181818;stroke-width:0.8000000000000002;"/></g><!--link ExamSection to Question--><g id="link_ExamSection_Question"><path codeLine="76" d="M735.408,389.0358 C669.032,417.2918 546.472,469.4598 482.656,496.6278 " fill="none" id="ExamSection-to-Question" style="stroke:#181818;stroke-width:0.8000000000000002;"/><polygon fill="#181818" points="478.912,498.2278,486.7901,498.3536,482.5927,496.6618,484.2845,492.4644,478.912,498.2278" style="stroke:#181818;stroke-width:0.8000000000000002;"/><polygon fill="#000000" points="641.1196,438.1909,648.6984,437.52,646.8566,433.1934,641.1196,438.1909" style="stroke:#000000;stroke-width:0.8000000000000002;"/><text fill="#000000" font-family="sans-serif" font-size="10.4" lengthAdjust="spacing" textLength="16.8" x="652" y="440.9305">has</text><text fill="#000000" font-family="sans-serif" font-size="10.4" lengthAdjust="spacing" textLength="5.6" x="723.6334" y="388.4025">1</text><text fill="#000000" font-family="sans-serif" font-size="10.4" lengthAdjust="spacing" textLength="16" x="485.284" y="492.5535">1..*</text></g><!--reverse link QuestionScore to Question--><g id="link_QuestionScore_Question"><path codeLine="78" d="M380.296,514.9078 C388.288,514.9078 396.272,514.9078 404.256,514.9078 " fill="none" id="QuestionScore-backto-Question" style="stroke:#181818;stroke-width:0.8000000000000002;"/><polygon fill="#181818" points="376.12,514.9078,383.32,518.1078,380.12,514.9078,383.32,511.7078,376.12,514.9078" style="stroke:#181818;stroke-width:0.8000000000000002;"/></g><!--link Question to Answer--><g id="link_Question_Answer"><path codeLine="79" d="M411.384,543.4758 C404.864,548.1558 397.72,552.4278 390.4,555.3078 C336.584,576.5158 317.752,557.1638 260.8,567.3078 C194.144,579.1798 175.584,579.2758 113.6,606.5078 C110.008,608.0838 106.384,609.8758 102.8,611.7958 " fill="none" id="Question-to-Answer" style="stroke:#181818;stroke-width:0.8000000000000002;"/><polygon fill="#181818" points="99.232,613.7558,107.0843,613.1066,102.741,611.8356,104.012,607.4923,99.232,613.7558" style="stroke:#181818;stroke-width:0.8000000000000002;"/><polygon fill="#000000" points="260.8946,575.8889,268.4678,576.6203,267.4513,572.0291,260.8946,575.8889" style="stroke:#000000;stroke-width:0.8000000000000002;"/><text fill="#000000" font-family="sans-serif" font-size="10.4" lengthAdjust="spacing" textLength="16.8" x="272" y="579.3305">has</text><text fill="#000000" font-family="sans-serif" font-size="10.4" lengthAdjust="spacing" textLength="5.6" x="399.903" y="561.0047">1</text><text fill="#000000" font-family="sans-serif" font-size="10.4" lengthAdjust="spacing" textLength="16" x="105.4886" y="606.8473">1..*</text></g><!--reverse link Question to Matching--><g id="link_Question_Matching"><path codeLine="81" d="M395.88,552.3238 C394.064,553.3798 392.232,554.3798 390.4,555.3078 C388.12,556.4678 215.904,605.4038 213.6,606.5078 C205.224,610.5078 196.72,615.8598 189.144,621.1718 " fill="none" id="Question-backto-Matching" style="stroke:#181818;stroke-width:0.8000000000000002;"/><polygon fill="none" points="393.048,547.4918,409.504,543.4198,399.176,556.8598,393.048,547.4918" style="stroke:#181818;stroke-width:0.8000000000000002;"/></g><!--reverse link Question to MultipleChoice--><g id="link_Question_MultipleChoice"><path codeLine="82" d="M393,553.3158 C392.128,553.9878 391.256,554.6518 390.4,555.3078 C360.912,577.9238 326.976,603.6998 303.928,621.1718 " fill="none" id="Question-backto-MultipleChoice" style="stroke:#181818;stroke-width:0.8000000000000002;"/><polygon fill="none" points="389.728,548.7638,405.824,543.4358,396.56,557.6358,389.728,548.7638" style="stroke:#181818;stroke-width:0.8000000000000002;"/></g><!--reverse link Question to ShortAnswer--><g id="link_Question_ShortAnswer"><path codeLine="83" d="M427.144,558.6758 C420.032,579.8038 411.792,604.2838 406.112,621.1558 " fill="none" id="Question-backto-ShortAnswer" style="stroke:#181818;stroke-width:0.8000000000000002;"/><polygon fill="none" points="421.888,556.7398,432.296,543.3558,432.496,560.3078,421.888,556.7398" style="stroke:#181818;stroke-width:0.8000000000000002;"/></g><!--reverse link Question to Numerical--><g id="link_Question_Numerical"><path codeLine="84" d="M464.12,557.4358 C475.672,578.8438 489.224,603.9478 498.512,621.1558 " fill="none" id="Question-backto-Numerical" style="stroke:#181818;stroke-width:0.8000000000000002;"/><polygon fill="none" points="459.192,560.0998,456.52,543.3558,469.048,554.7798,459.192,560.0998" style="stroke:#181818;stroke-width:0.8000000000000002;"/></g><!--reverse link Question to SelectMissingWords--><g id="link_Question_SelectMissingWords"><path codeLine="85" d="M492.504,548.1638 C528.688,571.2358 576.176,601.5238 607.176,621.2918 " fill="none" id="Question-backto-SelectMissingWords" style="stroke:#181818;stroke-width:0.8000000000000002;"/><polygon fill="none" points="489.48,552.8758,479,539.5558,495.504,543.4358,489.48,552.8758" style="stroke:#181818;stroke-width:0.8000000000000002;"/></g><!--reverse link Question to TrueFalse--><g id="link_Question_TrueFalse"><path codeLine="86" d="M494.592,528.6278 C551.248,543.4758 642.904,570.5078 716.8,606.5078 C725.32,610.6598 734.072,615.9878 741.944,621.2438 " fill="none" id="Question-backto-TrueFalse" style="stroke:#181818;stroke-width:0.8000000000000002;"/><polygon fill="none" points="492.992,533.9958,478.888,524.5878,495.776,523.1478,492.992,533.9958" style="stroke:#181818;stroke-width:0.8000000000000002;"/></g><!--link Course to Exam--><g id="link_Course_Exam"><path codeLine="88" d="M797.6,121.5318 C797.6,144.2038 797.6,176.5878 797.6,200.3078 " fill="none" id="Course-to-Exam" style="stroke:#181818;stroke-width:0.8000000000000002;"/><polygon fill="#181818" points="797.6,204.3398,800.8,197.1398,797.6,200.3398,794.4,197.1398,797.6,204.3398" style="stroke:#181818;stroke-width:0.8000000000000002;"/><polygon fill="#000000" points="801.6,158.6242,803.9511,151.3882,799.2489,151.3882,801.6,158.6242" style="stroke:#000000;stroke-width:0.8000000000000002;"/><text fill="#000000" font-family="sans-serif" font-size="10.4" lengthAdjust="spacing" textLength="16.8" x="808.8" y="158.9305">has</text><text fill="#000000" font-family="sans-serif" font-size="10.4" lengthAdjust="spacing" textLength="5.6" x="791.5363" y="138.5386">1</text><text fill="#000000" font-family="sans-serif" font-size="10.4" lengthAdjust="spacing" textLength="16" x="780.075" y="195.43">1..*</text></g><!--SRC=[bLLDZzCm4BtxLupAeRk8hBg80rf5aKfB1OTT2RN0sKbc6xD97DaEkmNslsCdTZxSXhAvL9dtPkPv_2PLl0B58UPAyG9I9Z1HZ9U4AAPoX3KlA2jXbLCfKSB5UdK90NpTmjl5ufgGZAK81QgCfvB81rPMLD024aDVAYLON2lydF1ootuXB0YPhtWj99AA9WzqZp0BGxhV2znJXL44BJg3tmJqWwKMSR112CFsNTF2K72keeWywuexf4c6OggaXRsQDdgogA4r9u1b8dXvA3HqyUqDlDfitdzujxY4dpIl4NZyGy-g5T7IFpxHOjUCxTy9FNkjDUvOSIR1IkSLbgpSknohayjXp0pa4z9KpyEUj7qR7DJrRu7TeS8xhlvFSf-oGKnZFV0NfArH9e9LnbrdiiXyQrtOvjktbnGmmvroXC4yEvZGII_u92jbD4upyoyroaRnH4-7kxxpPIaVzIKDohUHOMNBRUwP2xEPWopptDjRQ0BFhTXUYdcZiLI29geJeEkxsBY3mYTbw_GBuBAsklyvYmpFSajLacbVZkOqnEjSiIh7LSPPWbEiRSQ5EXxBa79N5oXOGlF96fXhURTCcZNvpaKgfvWxKUE6vXBzotNVYY3bZsKGkQy28OrhNBHR_kDmjvqDChkUGQ0HyskNymOoAY7oyQkhrxEHwyQyHOExKaxb3IG2TSCKueEc4jl2wHbl_JJg5lmqOx2AxHYSGaSxNjaHpJjZPqvtGD95WXplLH2DdTZ3NY5hbgvCvyEWhe8_VHNY6T27XyxpiTvoHrd7NlCflSbyXDY_kHFNtv_dBm00]--></g></svg>