<?xml version="1.0" encoding="us-ascii" standalone="no"?><svg xmlns="http://www.w3.org/2000/svg" xmlns:xlink="http://www.w3.org/1999/xlink" contentStyleType="text/css" height="966px" preserveAspectRatio="none" style="width:1845px;height:966px;background:#FFFFFF;" version="1.1" viewBox="0 0 1845 966" width="1845px" zoomAndPan="magnify"><defs/><g><text fill="#000000" font-family="sans-serif" font-size="14" font-weight="bold" lengthAdjust="spacing" textLength="233" x="807.75" y="30.1074">Sequence Diagram (SD) - US 2001</text><rect fill="#FFFFFF" height="711.6934" style="stroke:#181818;stroke-width:1.0;" width="10" x="33.5" y="137.8633"/><rect fill="#FFFFFF" height="688.4023" style="stroke:#181818;stroke-width:1.0;" width="10" x="537.5" y="161.1543"/><rect fill="#FFFFFF" height="93.873" style="stroke:#181818;stroke-width:1.0;" width="10" x="773.5" y="223.7363"/><rect fill="#FFFFFF" height="187.7461" style="stroke:#181818;stroke-width:1.0;" width="10" x="773.5" y="474.0645"/><rect fill="#FFFFFF" height="62.582" style="stroke:#181818;stroke-width:1.0;" width="10" x="773.5" y="755.6836"/><rect fill="#FFFFFF" height="125.1641" style="stroke:#181818;stroke-width:1.0;" width="10" x="967.5" y="505.3555"/><rect fill="#FFFFFF" height="62.582" style="stroke:#181818;stroke-width:1.0;" width="10" x="1497.5" y="536.6465"/><rect fill="#FFFFFF" height="31.291" style="stroke:#181818;stroke-width:1.0;" width="10" x="1779.5" y="255.0273"/><line style="stroke:#181818;stroke-width:0.5;stroke-dasharray:5.0,5.0;" x1="38" x2="38" y1="127.8633" y2="867.5566"/><line style="stroke:#181818;stroke-width:0.5;stroke-dasharray:5.0,5.0;" x1="542" x2="542" y1="127.8633" y2="867.5566"/><line style="stroke:#181818;stroke-width:0.5;stroke-dasharray:5.0,5.0;" x1="778" x2="778" y1="127.8633" y2="867.5566"/><line style="stroke:#181818;stroke-width:0.5;stroke-dasharray:5.0,5.0;" x1="972.5" x2="972.5" y1="127.8633" y2="867.5566"/><line style="stroke:#181818;stroke-width:0.5;stroke-dasharray:5.0,5.0;" x1="1054.5" x2="1054.5" y1="127.8633" y2="867.5566"/><line style="stroke:#181818;stroke-width:0.5;stroke-dasharray:5.0,5.0;" x1="1183.5" x2="1183.5" y1="127.8633" y2="867.5566"/><line style="stroke:#181818;stroke-width:0.5;stroke-dasharray:5.0,5.0;" x1="1316.5" x2="1316.5" y1="127.8633" y2="867.5566"/><line style="stroke:#181818;stroke-width:0.5;stroke-dasharray:5.0,5.0;" x1="1411.5" x2="1411.5" y1="127.8633" y2="867.5566"/><line style="stroke:#181818;stroke-width:0.5;stroke-dasharray:5.0,5.0;" x1="1502.5" x2="1502.5" y1="127.8633" y2="867.5566"/><line style="stroke:#181818;stroke-width:0.5;stroke-dasharray:5.0,5.0;" x1="1590.5" x2="1590.5" y1="127.8633" y2="867.5566"/><line style="stroke:#181818;stroke-width:0.5;stroke-dasharray:5.0,5.0;" x1="1676.5" x2="1676.5" y1="127.8633" y2="867.5566"/><line style="stroke:#181818;stroke-width:0.5;stroke-dasharray:5.0,5.0;" x1="1784.5" x2="1784.5" y1="127.8633" y2="867.5566"/><text fill="#000000" font-family="sans-serif" font-size="14" lengthAdjust="spacing" textLength="61" x="5" y="124.3496">Professor</text><ellipse cx="38.5" cy="57.7422" fill="#E3E3E3" rx="8" ry="8" style="stroke:#181818;stroke-width:0.5;"/><path d="M38.5,65.7422 L38.5,92.7422 M25.5,73.7422 L51.5,73.7422 M38.5,92.7422 L25.5,107.7422 M38.5,92.7422 L51.5,107.7422 " fill="none" style="stroke:#181818;stroke-width:0.5;"/><text fill="#000000" font-family="sans-serif" font-size="14" lengthAdjust="spacing" textLength="61" x="5" y="881.6641">Professor</text><ellipse cx="38.5" cy="893.6777" fill="#E3E3E3" rx="8" ry="8" style="stroke:#181818;stroke-width:0.5;"/><path d="M38.5,901.6777 L38.5,928.6777 M25.5,909.6777 L51.5,909.6777 M38.5,928.6777 L25.5,943.6777 M38.5,928.6777 L51.5,943.6777 " fill="none" style="stroke:#181818;stroke-width:0.5;"/><rect fill="#E3E3E3" height="51.2422" rx="2.5" ry="2.5" style="stroke:#181818;stroke-width:0.5;" width="109" x="488" y="75.6211"/><text fill="#000000" font-family="sans-serif" font-size="14" font-style="italic" lengthAdjust="spacing" textLength="95" x="495" y="97.7285">&#171;presentation&#187;</text><text fill="#000000" font-family="sans-serif" font-size="14" lengthAdjust="spacing" textLength="71" x="507" y="116.3496">AddExamUI</text><rect fill="#E3E3E3" height="51.2422" rx="2.5" ry="2.5" style="stroke:#181818;stroke-width:0.5;" width="109" x="488" y="866.5566"/><text fill="#000000" font-family="sans-serif" font-size="14" font-style="italic" lengthAdjust="spacing" textLength="95" x="495" y="888.6641">&#171;presentation&#187;</text><text fill="#000000" font-family="sans-serif" font-size="14" lengthAdjust="spacing" textLength="71" x="507" y="907.2852">AddExamUI</text><text fill="#000000" font-family="sans-serif" font-size="14" font-style="italic" lengthAdjust="spacing" textLength="84" x="733.5" y="105.7285">&#171;application&#187;</text><text fill="#000000" font-family="sans-serif" font-size="14" lengthAdjust="spacing" textLength="121" x="715" y="124.3496">AddExamController</text><ellipse cx="778.5" cy="74.6211" fill="#E3E3E3" rx="12" ry="12" style="stroke:#181818;stroke-width:0.5;"/><polygon fill="#181818" points="774.5,62.6211,780.5,57.6211,778.5,62.6211,780.5,67.6211,774.5,62.6211" style="stroke:#181818;stroke-width:1.0;"/><text fill="#000000" font-family="sans-serif" font-size="14" font-style="italic" lengthAdjust="spacing" textLength="84" x="733.5" y="881.6641">&#171;application&#187;</text><text fill="#000000" font-family="sans-serif" font-size="14" lengthAdjust="spacing" textLength="121" x="715" y="900.2852">AddExamController</text><ellipse cx="778.5" cy="919.7988" fill="#E3E3E3" rx="12" ry="12" style="stroke:#181818;stroke-width:0.5;"/><polygon fill="#181818" points="774.5,907.7988,780.5,902.7988,778.5,907.7988,780.5,912.7988,774.5,907.7988" style="stroke:#181818;stroke-width:1.0;"/><rect fill="#E3E3E3" height="51.2422" rx="2.5" ry="2.5" style="stroke:#181818;stroke-width:0.5;" width="62" x="941.5" y="75.6211"/><text fill="#000000" font-family="sans-serif" font-size="14" font-style="italic" lengthAdjust="spacing" textLength="48" x="948.5" y="97.7285">&#171;lprog&#187;</text><text fill="#000000" font-family="sans-serif" font-size="14" lengthAdjust="spacing" textLength="34" x="955.5" y="116.3496">Exam</text><rect fill="#E3E3E3" height="51.2422" rx="2.5" ry="2.5" style="stroke:#181818;stroke-width:0.5;" width="62" x="941.5" y="866.5566"/><text fill="#000000" font-family="sans-serif" font-size="14" font-style="italic" lengthAdjust="spacing" textLength="48" x="948.5" y="888.6641">&#171;lprog&#187;</text><text fill="#000000" font-family="sans-serif" font-size="14" lengthAdjust="spacing" textLength="34" x="955.5" y="907.2852">Exam</text><rect fill="#E3E3E3" height="51.2422" rx="2.5" ry="2.5" style="stroke:#181818;stroke-width:0.5;" width="83" x="1013.5" y="75.6211"/><text fill="#000000" font-family="sans-serif" font-size="14" font-style="italic" lengthAdjust="spacing" textLength="48" x="1031" y="97.7285">&#171;lprog&#187;</text><text fill="#000000" font-family="sans-serif" font-size="14" lengthAdjust="spacing" textLength="69" x="1020.5" y="116.3496">ExamLexer</text><rect fill="#E3E3E3" height="51.2422" rx="2.5" ry="2.5" style="stroke:#181818;stroke-width:0.5;" width="83" x="1013.5" y="866.5566"/><text fill="#000000" font-family="sans-serif" font-size="14" font-style="italic" lengthAdjust="spacing" textLength="48" x="1031" y="888.6641">&#171;lprog&#187;</text><text fill="#000000" font-family="sans-serif" font-size="14" lengthAdjust="spacing" textLength="69" x="1020.5" y="907.2852">ExamLexer</text><rect fill="#E3E3E3" height="51.2422" rx="2.5" ry="2.5" style="stroke:#181818;stroke-width:0.5;" width="155" x="1106.5" y="75.6211"/><text fill="#000000" font-family="sans-serif" font-size="14" font-style="italic" lengthAdjust="spacing" textLength="48" x="1160" y="97.7285">&#171;lprog&#187;</text><text fill="#000000" font-family="sans-serif" font-size="14" lengthAdjust="spacing" textLength="141" x="1113.5" y="116.3496">CommonTokenStream</text><rect fill="#E3E3E3" height="51.2422" rx="2.5" ry="2.5" style="stroke:#181818;stroke-width:0.5;" width="155" x="1106.5" y="866.5566"/><text fill="#000000" font-family="sans-serif" font-size="14" font-style="italic" lengthAdjust="spacing" textLength="48" x="1160" y="888.6641">&#171;lprog&#187;</text><text fill="#000000" font-family="sans-serif" font-size="14" lengthAdjust="spacing" textLength="141" x="1113.5" y="907.2852">CommonTokenStream</text><rect fill="#E3E3E3" height="51.2422" rx="2.5" ry="2.5" style="stroke:#181818;stroke-width:0.5;" width="90" x="1271.5" y="75.6211"/><text fill="#000000" font-family="sans-serif" font-size="14" font-style="italic" lengthAdjust="spacing" textLength="48" x="1292.5" y="97.7285">&#171;lprog&#187;</text><text fill="#000000" font-family="sans-serif" font-size="14" lengthAdjust="spacing" textLength="76" x="1278.5" y="116.3496">ExamParser</text><rect fill="#E3E3E3" height="51.2422" rx="2.5" ry="2.5" style="stroke:#181818;stroke-width:0.5;" width="90" x="1271.5" y="866.5566"/><text fill="#000000" font-family="sans-serif" font-size="14" font-style="italic" lengthAdjust="spacing" textLength="48" x="1292.5" y="888.6641">&#171;lprog&#187;</text><text fill="#000000" font-family="sans-serif" font-size="14" lengthAdjust="spacing" textLength="76" x="1278.5" y="907.2852">ExamParser</text><rect fill="#E3E3E3" height="51.2422" rx="2.5" ry="2.5" style="stroke:#181818;stroke-width:0.5;" width="81" x="1371.5" y="75.6211"/><text fill="#000000" font-family="sans-serif" font-size="14" font-style="italic" lengthAdjust="spacing" textLength="48" x="1388" y="97.7285">&#171;lprog&#187;</text><text fill="#000000" font-family="sans-serif" font-size="14" lengthAdjust="spacing" textLength="67" x="1378.5" y="116.3496">ParseTree</text><rect fill="#E3E3E3" height="51.2422" rx="2.5" ry="2.5" style="stroke:#181818;stroke-width:0.5;" width="81" x="1371.5" y="866.5566"/><text fill="#000000" font-family="sans-serif" font-size="14" font-style="italic" lengthAdjust="spacing" textLength="48" x="1388" y="888.6641">&#171;lprog&#187;</text><text fill="#000000" font-family="sans-serif" font-size="14" lengthAdjust="spacing" textLength="67" x="1378.5" y="907.2852">ParseTree</text><rect fill="#E3E3E3" height="51.2422" rx="2.5" ry="2.5" style="stroke:#181818;stroke-width:0.5;" width="80" x="1462.5" y="75.6211"/><text fill="#000000" font-family="sans-serif" font-size="14" font-style="italic" lengthAdjust="spacing" textLength="48" x="1478.5" y="97.7285">&#171;lprog&#187;</text><text fill="#000000" font-family="sans-serif" font-size="14" lengthAdjust="spacing" textLength="66" x="1469.5" y="116.3496">EvalVisitor</text><rect fill="#E3E3E3" height="51.2422" rx="2.5" ry="2.5" style="stroke:#181818;stroke-width:0.5;" width="80" x="1462.5" y="866.5566"/><text fill="#000000" font-family="sans-serif" font-size="14" font-style="italic" lengthAdjust="spacing" textLength="48" x="1478.5" y="888.6641">&#171;lprog&#187;</text><text fill="#000000" font-family="sans-serif" font-size="14" lengthAdjust="spacing" textLength="66" x="1469.5" y="907.2852">EvalVisitor</text><rect fill="#E3E3E3" height="51.2422" rx="2.5" ry="2.5" style="stroke:#181818;stroke-width:0.5;" width="76" x="1552.5" y="75.6211"/><text fill="#000000" font-family="sans-serif" font-size="14" font-style="italic" lengthAdjust="spacing" textLength="62" x="1559.5" y="97.7285">&#171;domain&#187;</text><text fill="#000000" font-family="sans-serif" font-size="14" lengthAdjust="spacing" textLength="46" x="1567.5" y="116.3496">Course</text><rect fill="#E3E3E3" height="51.2422" rx="2.5" ry="2.5" style="stroke:#181818;stroke-width:0.5;" width="76" x="1552.5" y="866.5566"/><text fill="#000000" font-family="sans-serif" font-size="14" font-style="italic" lengthAdjust="spacing" textLength="62" x="1559.5" y="888.6641">&#171;domain&#187;</text><text fill="#000000" font-family="sans-serif" font-size="14" lengthAdjust="spacing" textLength="46" x="1567.5" y="907.2852">Course</text><rect fill="#E3E3E3" height="51.2422" rx="2.5" ry="2.5" style="stroke:#181818;stroke-width:0.5;" width="76" x="1638.5" y="75.6211"/><text fill="#000000" font-family="sans-serif" font-size="14" font-style="italic" lengthAdjust="spacing" textLength="62" x="1645.5" y="97.7285">&#171;domain&#187;</text><text fill="#000000" font-family="sans-serif" font-size="14" lengthAdjust="spacing" textLength="34" x="1659.5" y="116.3496">Exam</text><rect fill="#E3E3E3" height="51.2422" rx="2.5" ry="2.5" style="stroke:#181818;stroke-width:0.5;" width="76" x="1638.5" y="866.5566"/><text fill="#000000" font-family="sans-serif" font-size="14" font-style="italic" lengthAdjust="spacing" textLength="62" x="1645.5" y="888.6641">&#171;domain&#187;</text><text fill="#000000" font-family="sans-serif" font-size="14" lengthAdjust="spacing" textLength="34" x="1659.5" y="907.2852">Exam</text><text fill="#000000" font-family="sans-serif" font-size="14" font-style="italic" lengthAdjust="spacing" textLength="79" x="1742" y="105.7285">&#171;repository&#187;</text><text fill="#000000" font-family="sans-serif" font-size="14" lengthAdjust="spacing" textLength="114" x="1724.5" y="124.3496">CourseRepository</text><path d="M1766.5,54.6211 C1766.5,44.6211 1784.5,44.6211 1784.5,44.6211 C1784.5,44.6211 1802.5,44.6211 1802.5,54.6211 L1802.5,80.6211 C1802.5,90.6211 1784.5,90.6211 1784.5,90.6211 C1784.5,90.6211 1766.5,90.6211 1766.5,80.6211 L1766.5,54.6211 " fill="#E3E3E3" style="stroke:#181818;stroke-width:1.5;"/><path d="M1766.5,54.6211 C1766.5,64.6211 1784.5,64.6211 1784.5,64.6211 C1784.5,64.6211 1802.5,64.6211 1802.5,54.6211 " fill="none" style="stroke:#181818;stroke-width:1.5;"/><text fill="#000000" font-family="sans-serif" font-size="14" font-style="italic" lengthAdjust="spacing" textLength="79" x="1742" y="881.6641">&#171;repository&#187;</text><text fill="#000000" font-family="sans-serif" font-size="14" lengthAdjust="spacing" textLength="114" x="1724.5" y="900.2852">CourseRepository</text><path d="M1766.5,913.7988 C1766.5,903.7988 1784.5,903.7988 1784.5,903.7988 C1784.5,903.7988 1802.5,903.7988 1802.5,913.7988 L1802.5,939.7988 C1802.5,949.7988 1784.5,949.7988 1784.5,949.7988 C1784.5,949.7988 1766.5,949.7988 1766.5,939.7988 L1766.5,913.7988 " fill="#E3E3E3" style="stroke:#181818;stroke-width:1.5;"/><path d="M1766.5,913.7988 C1766.5,923.7988 1784.5,923.7988 1784.5,923.7988 C1784.5,923.7988 1802.5,923.7988 1802.5,913.7988 " fill="none" style="stroke:#181818;stroke-width:1.5;"/><rect fill="#FFFFFF" height="711.6934" style="stroke:#181818;stroke-width:1.0;" width="10" x="33.5" y="137.8633"/><rect fill="#FFFFFF" height="688.4023" style="stroke:#181818;stroke-width:1.0;" width="10" x="537.5" y="161.1543"/><rect fill="#FFFFFF" height="93.873" style="stroke:#181818;stroke-width:1.0;" width="10" x="773.5" y="223.7363"/><rect fill="#FFFFFF" height="187.7461" style="stroke:#181818;stroke-width:1.0;" width="10" x="773.5" y="474.0645"/><rect fill="#FFFFFF" height="62.582" style="stroke:#181818;stroke-width:1.0;" width="10" x="773.5" y="755.6836"/><rect fill="#FFFFFF" height="125.1641" style="stroke:#181818;stroke-width:1.0;" width="10" x="967.5" y="505.3555"/><rect fill="#FFFFFF" height="62.582" style="stroke:#181818;stroke-width:1.0;" width="10" x="1497.5" y="536.6465"/><rect fill="#FFFFFF" height="31.291" style="stroke:#181818;stroke-width:1.0;" width="10" x="1779.5" y="255.0273"/><polygon fill="#181818" points="525.5,157.1543,535.5,161.1543,525.5,165.1543,529.5,161.1543" style="stroke:#181818;stroke-width:1.0;"/><line style="stroke:#181818;stroke-width:1.0;" x1="43.5" x2="531.5" y1="161.1543" y2="161.1543"/><text fill="#000000" font-family="sans-serif" font-size="13" font-weight="bold" lengthAdjust="spacing" textLength="7" x="50.5" y="155.8916">1</text><text fill="#000000" font-family="sans-serif" font-size="13" lengthAdjust="spacing" textLength="308" x="61.5" y="155.8916">Pede para adicionar/atualizar exame a um reposit&#243;rio</text><polygon fill="#181818" points="766.5,188.4453,776.5,192.4453,766.5,196.4453,770.5,192.4453" style="stroke:#181818;stroke-width:1.0;"/><line style="stroke:#181818;stroke-width:1.0;" x1="547.5" x2="772.5" y1="192.4453" y2="192.4453"/><text fill="#000000" font-family="sans-serif" font-size="13" font-weight="bold" lengthAdjust="spacing" textLength="7" x="554.5" y="187.1826">2</text><text fill="#000000" font-family="sans-serif" font-size="13" lengthAdjust="spacing" textLength="36" x="565.5" y="187.1826">create</text><polygon fill="#181818" points="761.5,219.7363,771.5,223.7363,761.5,227.7363,765.5,223.7363" style="stroke:#181818;stroke-width:1.0;"/><line style="stroke:#181818;stroke-width:1.0;" x1="547.5" x2="767.5" y1="223.7363" y2="223.7363"/><text fill="#000000" font-family="sans-serif" font-size="13" font-weight="bold" lengthAdjust="spacing" textLength="7" x="554.5" y="218.4736">3</text><text fill="#000000" font-family="sans-serif" font-size="13" lengthAdjust="spacing" textLength="196" x="565.5" y="218.4736">listAllTeacherCoursesInProgress()</text><polygon fill="#181818" points="1767.5,251.0273,1777.5,255.0273,1767.5,259.0273,1771.5,255.0273" style="stroke:#181818;stroke-width:1.0;"/><line style="stroke:#181818;stroke-width:1.0;" x1="783.5" x2="1773.5" y1="255.0273" y2="255.0273"/><text fill="#000000" font-family="sans-serif" font-size="13" font-weight="bold" lengthAdjust="spacing" textLength="7" x="790.5" y="249.7646">4</text><text fill="#000000" font-family="sans-serif" font-size="13" lengthAdjust="spacing" textLength="275" x="801.5" y="249.7646">list = findAllTeacherCoursesInProgress(teacher)</text><polygon fill="#181818" points="794.5,282.3184,784.5,286.3184,794.5,290.3184,790.5,286.3184" style="stroke:#181818;stroke-width:1.0;"/><line style="stroke:#181818;stroke-width:1.0;stroke-dasharray:2.0,2.0;" x1="788.5" x2="1783.5" y1="286.3184" y2="286.3184"/><text fill="#000000" font-family="sans-serif" font-size="13" font-weight="bold" lengthAdjust="spacing" textLength="7" x="800.5" y="281.0557">5</text><text fill="#000000" font-family="sans-serif" font-size="13" lengthAdjust="spacing" textLength="17" x="811.5" y="281.0557">list</text><polygon fill="#181818" points="558.5,313.6094,548.5,317.6094,558.5,321.6094,554.5,317.6094" style="stroke:#181818;stroke-width:1.0;"/><line style="stroke:#181818;stroke-width:1.0;stroke-dasharray:2.0,2.0;" x1="552.5" x2="777.5" y1="317.6094" y2="317.6094"/><text fill="#000000" font-family="sans-serif" font-size="13" font-weight="bold" lengthAdjust="spacing" textLength="7" x="564.5" y="312.3467">6</text><text fill="#000000" font-family="sans-serif" font-size="13" lengthAdjust="spacing" textLength="17" x="575.5" y="312.3467">list</text><polygon fill="#181818" points="54.5,344.9004,44.5,348.9004,54.5,352.9004,50.5,348.9004" style="stroke:#181818;stroke-width:1.0;"/><line style="stroke:#181818;stroke-width:1.0;stroke-dasharray:2.0,2.0;" x1="48.5" x2="536.5" y1="348.9004" y2="348.9004"/><text fill="#000000" font-family="sans-serif" font-size="13" font-weight="bold" lengthAdjust="spacing" textLength="7" x="60.5" y="343.6377">7</text><text fill="#000000" font-family="sans-serif" font-size="13" lengthAdjust="spacing" textLength="448" x="71.5" y="343.6377">Mostra os cursos que leciona e em progresso e pede para escolher um curso</text><polygon fill="#181818" points="525.5,376.1914,535.5,380.1914,525.5,384.1914,529.5,380.1914" style="stroke:#181818;stroke-width:1.0;"/><line style="stroke:#181818;stroke-width:1.0;" x1="43.5" x2="531.5" y1="380.1914" y2="380.1914"/><text fill="#000000" font-family="sans-serif" font-size="13" font-weight="bold" lengthAdjust="spacing" textLength="7" x="50.5" y="374.9287">8</text><text fill="#000000" font-family="sans-serif" font-size="13" lengthAdjust="spacing" textLength="269" x="61.5" y="374.9287">Escolhe o curso a que quer adicionar o exame</text><polygon fill="#181818" points="54.5,407.4824,44.5,411.4824,54.5,415.4824,50.5,411.4824" style="stroke:#181818;stroke-width:1.0;"/><line style="stroke:#181818;stroke-width:1.0;stroke-dasharray:2.0,2.0;" x1="48.5" x2="536.5" y1="411.4824" y2="411.4824"/><text fill="#000000" font-family="sans-serif" font-size="13" font-weight="bold" lengthAdjust="spacing" textLength="7" x="60.5" y="406.2197">9</text><text fill="#000000" font-family="sans-serif" font-size="13" lengthAdjust="spacing" textLength="243" x="71.5" y="406.2197">Pede para introduzir o caminho do ficheiro</text><polygon fill="#181818" points="525.5,438.7734,535.5,442.7734,525.5,446.7734,529.5,442.7734" style="stroke:#181818;stroke-width:1.0;"/><line style="stroke:#181818;stroke-width:1.0;" x1="43.5" x2="531.5" y1="442.7734" y2="442.7734"/><text fill="#000000" font-family="sans-serif" font-size="13" font-weight="bold" lengthAdjust="spacing" textLength="14" x="50.5" y="437.5107">10</text><text fill="#000000" font-family="sans-serif" font-size="13" lengthAdjust="spacing" textLength="173" x="68.5" y="437.5107">Introduz o caminho do ficheiro</text><polygon fill="#181818" points="761.5,470.0645,771.5,474.0645,761.5,478.0645,765.5,474.0645" style="stroke:#181818;stroke-width:1.0;"/><line style="stroke:#181818;stroke-width:1.0;" x1="547.5" x2="767.5" y1="474.0645" y2="474.0645"/><text fill="#000000" font-family="sans-serif" font-size="13" font-weight="bold" lengthAdjust="spacing" textLength="14" x="554.5" y="468.8018">11</text><text fill="#000000" font-family="sans-serif" font-size="13" lengthAdjust="spacing" textLength="103" x="572.5" y="468.8018">getExam(filePath)</text><polygon fill="#181818" points="955.5,501.3555,965.5,505.3555,955.5,509.3555,959.5,505.3555" style="stroke:#181818;stroke-width:1.0;"/><line style="stroke:#181818;stroke-width:1.0;" x1="783.5" x2="961.5" y1="505.3555" y2="505.3555"/><text fill="#000000" font-family="sans-serif" font-size="13" font-weight="bold" lengthAdjust="spacing" textLength="14" x="790.5" y="500.0928">12</text><text fill="#000000" font-family="sans-serif" font-size="13" lengthAdjust="spacing" textLength="147" x="808.5" y="500.0928">parseWithVisitor(filePath)</text><polygon fill="#181818" points="1485.5,532.6465,1495.5,536.6465,1485.5,540.6465,1489.5,536.6465" style="stroke:#181818;stroke-width:1.0;"/><line style="stroke:#181818;stroke-width:1.0;" x1="977.5" x2="1491.5" y1="536.6465" y2="536.6465"/><text fill="#000000" font-family="sans-serif" font-size="13" font-weight="bold" lengthAdjust="spacing" textLength="14" x="984.5" y="531.3838">13</text><text fill="#000000" font-family="sans-serif" font-size="13" lengthAdjust="spacing" textLength="52" x="1002.5" y="531.3838">visit(tree)</text><polygon fill="#181818" points="1485.5,563.9375,1495.5,567.9375,1485.5,571.9375,1489.5,567.9375" style="stroke:#181818;stroke-width:1.0;"/><line style="stroke:#181818;stroke-width:1.0;" x1="977.5" x2="1491.5" y1="567.9375" y2="567.9375"/><text fill="#000000" font-family="sans-serif" font-size="13" font-weight="bold" lengthAdjust="spacing" textLength="14" x="984.5" y="562.6748">14</text><text fill="#000000" font-family="sans-serif" font-size="13" lengthAdjust="spacing" textLength="60" x="1002.5" y="562.6748">getExam()</text><polygon fill="#181818" points="988.5,595.2285,978.5,599.2285,988.5,603.2285,984.5,599.2285" style="stroke:#181818;stroke-width:1.0;"/><line style="stroke:#181818;stroke-width:1.0;stroke-dasharray:2.0,2.0;" x1="982.5" x2="1501.5" y1="599.2285" y2="599.2285"/><text fill="#000000" font-family="sans-serif" font-size="13" font-weight="bold" lengthAdjust="spacing" textLength="14" x="994.5" y="593.9658">15</text><text fill="#000000" font-family="sans-serif" font-size="13" lengthAdjust="spacing" textLength="32" x="1012.5" y="593.9658">exam</text><polygon fill="#181818" points="794.5,626.5195,784.5,630.5195,794.5,634.5195,790.5,630.5195" style="stroke:#181818;stroke-width:1.0;"/><line style="stroke:#181818;stroke-width:1.0;stroke-dasharray:2.0,2.0;" x1="788.5" x2="971.5" y1="630.5195" y2="630.5195"/><text fill="#000000" font-family="sans-serif" font-size="13" font-weight="bold" lengthAdjust="spacing" textLength="14" x="800.5" y="625.2568">16</text><text fill="#000000" font-family="sans-serif" font-size="13" lengthAdjust="spacing" textLength="32" x="818.5" y="625.2568">exam</text><polygon fill="#181818" points="558.5,657.8105,548.5,661.8105,558.5,665.8105,554.5,661.8105" style="stroke:#181818;stroke-width:1.0;"/><line style="stroke:#181818;stroke-width:1.0;stroke-dasharray:2.0,2.0;" x1="552.5" x2="777.5" y1="661.8105" y2="661.8105"/><text fill="#000000" font-family="sans-serif" font-size="13" font-weight="bold" lengthAdjust="spacing" textLength="14" x="564.5" y="656.5479">17</text><text fill="#000000" font-family="sans-serif" font-size="13" lengthAdjust="spacing" textLength="32" x="582.5" y="656.5479">exam</text><polygon fill="#181818" points="54.5,689.1016,44.5,693.1016,54.5,697.1016,50.5,693.1016" style="stroke:#181818;stroke-width:1.0;"/><line style="stroke:#181818;stroke-width:1.0;stroke-dasharray:2.0,2.0;" x1="48.5" x2="536.5" y1="693.1016" y2="693.1016"/><text fill="#000000" font-family="sans-serif" font-size="13" font-weight="bold" lengthAdjust="spacing" textLength="14" x="60.5" y="687.8389">18</text><text fill="#000000" font-family="sans-serif" font-size="13" lengthAdjust="spacing" textLength="452" x="78.5" y="687.8389">Mostra os dados das quest&#245;es e pede confirma&#231;&#227;o para as adicionar/atualizar</text><polygon fill="#181818" points="525.5,720.3926,535.5,724.3926,525.5,728.3926,529.5,724.3926" style="stroke:#181818;stroke-width:1.0;"/><line style="stroke:#181818;stroke-width:1.0;" x1="43.5" x2="531.5" y1="724.3926" y2="724.3926"/><text fill="#000000" font-family="sans-serif" font-size="13" font-weight="bold" lengthAdjust="spacing" textLength="14" x="50.5" y="719.1299">19</text><text fill="#000000" font-family="sans-serif" font-size="13" lengthAdjust="spacing" textLength="119" x="68.5" y="719.1299">Confirma a opera&#231;&#227;o</text><polygon fill="#181818" points="761.5,751.6836,771.5,755.6836,761.5,759.6836,765.5,755.6836" style="stroke:#181818;stroke-width:1.0;"/><line style="stroke:#181818;stroke-width:1.0;" x1="547.5" x2="767.5" y1="755.6836" y2="755.6836"/><text fill="#000000" font-family="sans-serif" font-size="13" font-weight="bold" lengthAdjust="spacing" textLength="14" x="554.5" y="750.4209">20</text><text fill="#000000" font-family="sans-serif" font-size="13" lengthAdjust="spacing" textLength="142" x="572.5" y="750.4209">addExam(course, exam)</text><polygon fill="#181818" points="1772.5,782.9746,1782.5,786.9746,1772.5,790.9746,1776.5,786.9746" style="stroke:#181818;stroke-width:1.0;"/><line style="stroke:#181818;stroke-width:1.0;" x1="783.5" x2="1778.5" y1="786.9746" y2="786.9746"/><text fill="#000000" font-family="sans-serif" font-size="13" font-weight="bold" lengthAdjust="spacing" textLength="14" x="790.5" y="781.7119">21</text><text fill="#000000" font-family="sans-serif" font-size="13" lengthAdjust="spacing" textLength="73" x="808.5" y="781.7119">save(course)</text><polygon fill="#181818" points="558.5,814.2656,548.5,818.2656,558.5,822.2656,554.5,818.2656" style="stroke:#181818;stroke-width:1.0;"/><line style="stroke:#181818;stroke-width:1.0;stroke-dasharray:2.0,2.0;" x1="552.5" x2="777.5" y1="818.2656" y2="818.2656"/><text fill="#000000" font-family="sans-serif" font-size="13" font-weight="bold" lengthAdjust="spacing" textLength="14" x="564.5" y="813.0029">22</text><text fill="#000000" font-family="sans-serif" font-size="13" lengthAdjust="spacing" textLength="32" x="582.5" y="813.0029">exam</text><polygon fill="#181818" points="49.5,845.5566,39.5,849.5566,49.5,853.5566,45.5,849.5566" style="stroke:#181818;stroke-width:1.0;"/><line style="stroke:#181818;stroke-width:1.0;stroke-dasharray:2.0,2.0;" x1="43.5" x2="541.5" y1="849.5566" y2="849.5566"/><text fill="#000000" font-family="sans-serif" font-size="13" font-weight="bold" lengthAdjust="spacing" textLength="14" x="55.5" y="844.2939">23</text><text fill="#000000" font-family="sans-serif" font-size="13" lengthAdjust="spacing" textLength="181" x="73.5" y="844.2939">Informa o sucesso da opera&#231;&#227;o</text><!--SRC=[dLHBRjim4Dtp5BEqWHfDkpJI087ZXO44DMAdNK-fiKo48bMISfDSfuiUeEW9VB4EIIcMVmtGXIIAVFFu-6Q6_b6P6XrMK5bZvThPYY2uXeH_NQbHFc99Y_2i2Hp9WARKVO1VOs5_A5F22hKd8O8A35tGzuQC9BXHM4RSO74pX14yBE3ZnSK7WKsmfgc-aHC2PR0Eviwko7iUeOVhE2LuXw2agj44k2wAwHDM3xEupE_BozgH9nCmA6kkheIq9ZYhE-0a_sfAV9Fb_Is7O5rh9Rk8FdqCYS0xL8Q1kdQsF06vfQTCc0UdWHDRiQ5B-qXc4HnbudPqddgEpcVkTdGQcXQNZYWYq_SCvGRr5-LLo8PsmtEA6sPDHZ6Yi1MxSCQWQHzGOC1lo96Pu9vgcxPvJbJtq_bdHhlNMOw8oLOR3DIcMAGFZAvYJiSmfu8W5XPWmJjRW-uzXWQrUa47n1fO9JGLjAJRtqxP7UV3J0ZcORQKy358DZrmKUxFQkN3jTPBGhacbxNxcU4ABBcc_62uOumHGgIu69-Eb0dW4woKAVx54_92douIC5_Y6Uqh4WKTuTA-dJb7eAGjdemHsSSnt5aVs3xhGR8S_d0VWgRa9H0GjtGhp_9l_UetUMarYutcfiZ3r4mp06nUvZH4PdxSBbUyc79qf6gNLnNRicXUL0HBh9HPMoWiUybMANUqxQp5dqFl9RQa4Ejqi5AQvXZMPnEPsdmS5NdwgiAwROzJWH4gH0hWmAwFnh29em5tDVN0xV8fVATjA4GtETefYRRrStj0j3lY8J3Bso-KGymRXLBm3HxVgLPysFuXtvK6NwehvIhS_jh-j6rZ-bEzUPYsIHl8PM9hSfdW85kOR-g1J8tpBib-i_KyRgYD6FxNkMTcPQCm2xwHgGsAFOsz-7YTz7xpZVKN]--></g></svg>