<?xml version="1.0" encoding="us-ascii" standalone="no"?><svg xmlns="http://www.w3.org/2000/svg" xmlns:xlink="http://www.w3.org/1999/xlink" contentStyleType="text/css" height="534px" preserveAspectRatio="none" style="width:490px;height:534px;background:#FFFFFF;" version="1.1" viewBox="0 0 490 534" width="490px" zoomAndPan="magnify"><defs/><g><text fill="#000000" font-family="sans-serif" font-size="14" font-weight="bold" lengthAdjust="spacing" textLength="201" x="137.5" y="25.1074">Class Diagram (CD) - US 2002</text><!--class ListFutureExamsUI--><g id="elem_ListFutureExamsUI"><rect codeLine="5" fill="#F1F1F1" height="79.2031" id="ListFutureExamsUI" rx="2.5" ry="2.5" style="stroke:#181818;stroke-width:0.5;" width="149" x="153.5" y="46.6211"/><ellipse cx="168.5" cy="68.9121" fill="#ADD1B2" rx="11" ry="11" style="stroke:#181818;stroke-width:1.0;"/><path d="M171.2656,64.7871 Q171.4219,64.5684 171.6094,64.459 Q171.7969,64.3496 172.0156,64.3496 Q172.3906,64.3496 172.625,64.6152 Q172.8594,64.8652 172.8594,65.4746 L172.8594,66.9277 Q172.8594,67.5371 172.625,67.8027 Q172.3906,68.0684 172.0156,68.0684 Q171.6719,68.0684 171.4688,67.8652 Q171.2656,67.6777 171.1563,67.1621 Q171.1094,66.8027 170.9219,66.6152 Q170.5938,66.2402 169.9844,66.0215 Q169.375,65.8027 168.75,65.8027 Q167.9844,65.8027 167.3438,66.1309 Q166.7188,66.459 166.2188,67.209 Q165.7344,67.959 165.7344,68.9902 L165.7344,70.084 Q165.7344,71.3184 166.625,72.1465 Q167.5156,72.959 169.1094,72.959 Q170.0469,72.959 170.7031,72.709 Q171.0938,72.5527 171.5156,72.1152 Q171.7813,71.8496 171.9219,71.7715 Q172.0781,71.6934 172.2813,71.6934 Q172.6094,71.6934 172.8594,71.959 Q173.125,72.209 173.125,72.5527 Q173.125,72.8965 172.7813,73.3027 Q172.2813,73.8809 171.4844,74.209 Q170.4063,74.6621 169.1094,74.6621 Q167.5938,74.6621 166.3906,74.0371 Q165.4063,73.5371 164.7188,72.4746 Q164.0313,71.3965 164.0313,70.1152 L164.0313,68.959 Q164.0313,67.6309 164.6406,66.4902 Q165.2656,65.334 166.3594,64.7246 Q167.4531,64.0996 168.6875,64.0996 Q169.4219,64.0996 170.0625,64.2715 Q170.7188,64.4277 171.2656,64.7871 Z " fill="#000000"/><text fill="#000000" font-family="sans-serif" font-size="12" font-style="italic" lengthAdjust="spacing" textLength="82" x="200" y="64.5703">&#171;presentation&#187;</text><text fill="#000000" font-family="sans-serif" font-size="14" lengthAdjust="spacing" textLength="117" x="182.5" y="82.6895">ListFutureExamsUI</text><line style="stroke:#181818;stroke-width:0.5;" x1="154.5" x2="301.5" y1="91.2031" y2="91.2031"/><line style="stroke:#181818;stroke-width:0.5;" x1="154.5" x2="301.5" y1="99.2031" y2="99.2031"/><text fill="#000000" font-family="sans-serif" font-size="14" lengthAdjust="spacing" textLength="60" x="159.5" y="118.3105">doShow()</text></g><!--class ListFutureExamsController--><g id="elem_ListFutureExamsController"><rect codeLine="9" fill="#F1F1F1" height="60.582" id="ListFutureExamsController" rx="2.5" ry="2.5" style="stroke:#181818;stroke-width:0.5;" width="199" x="128.5" y="204.6211"/><ellipse cx="143.5" cy="226.9121" fill="#ADD1B2" rx="11" ry="11" style="stroke:#181818;stroke-width:1.0;"/><path d="M146.2656,222.7871 Q146.4219,222.5684 146.6094,222.459 Q146.7969,222.3496 147.0156,222.3496 Q147.3906,222.3496 147.625,222.6152 Q147.8594,222.8652 147.8594,223.4746 L147.8594,224.9277 Q147.8594,225.5371 147.625,225.8027 Q147.3906,226.0684 147.0156,226.0684 Q146.6719,226.0684 146.4688,225.8652 Q146.2656,225.6777 146.1563,225.1621 Q146.1094,224.8027 145.9219,224.6152 Q145.5938,224.2402 144.9844,224.0215 Q144.375,223.8027 143.75,223.8027 Q142.9844,223.8027 142.3438,224.1309 Q141.7188,224.459 141.2188,225.209 Q140.7344,225.959 140.7344,226.9902 L140.7344,228.084 Q140.7344,229.3184 141.625,230.1465 Q142.5156,230.959 144.1094,230.959 Q145.0469,230.959 145.7031,230.709 Q146.0938,230.5527 146.5156,230.1152 Q146.7813,229.8496 146.9219,229.7715 Q147.0781,229.6934 147.2813,229.6934 Q147.6094,229.6934 147.8594,229.959 Q148.125,230.209 148.125,230.5527 Q148.125,230.8965 147.7813,231.3027 Q147.2813,231.8809 146.4844,232.209 Q145.4063,232.6621 144.1094,232.6621 Q142.5938,232.6621 141.3906,232.0371 Q140.4063,231.5371 139.7188,230.4746 Q139.0313,229.3965 139.0313,228.1152 L139.0313,226.959 Q139.0313,225.6309 139.6406,224.4902 Q140.2656,223.334 141.3594,222.7246 Q142.4531,222.0996 143.6875,222.0996 Q144.4219,222.0996 145.0625,222.2715 Q145.7188,222.4277 146.2656,222.7871 Z " fill="#000000"/><text fill="#000000" font-family="sans-serif" font-size="12" font-style="italic" lengthAdjust="spacing" textLength="74" x="204" y="222.5703">&#171;application&#187;</text><text fill="#000000" font-family="sans-serif" font-size="14" lengthAdjust="spacing" textLength="167" x="157.5" y="240.6895">ListFutureExamsController</text><line style="stroke:#181818;stroke-width:0.5;" x1="129.5" x2="326.5" y1="249.2031" y2="249.2031"/><line style="stroke:#181818;stroke-width:0.5;" x1="129.5" x2="326.5" y1="257.2031" y2="257.2031"/></g><!--class ListExamService--><g id="elem_ListExamService"><rect codeLine="10" fill="#F1F1F1" height="60.582" id="ListExamService" rx="2.5" ry="2.5" style="stroke:#181818;stroke-width:0.5;" width="135" x="228.5" y="344.6211"/><ellipse cx="243.5" cy="366.9121" fill="#ADD1B2" rx="11" ry="11" style="stroke:#181818;stroke-width:1.0;"/><path d="M246.2656,362.7871 Q246.4219,362.5684 246.6094,362.459 Q246.7969,362.3496 247.0156,362.3496 Q247.3906,362.3496 247.625,362.6152 Q247.8594,362.8652 247.8594,363.4746 L247.8594,364.9277 Q247.8594,365.5371 247.625,365.8027 Q247.3906,366.0684 247.0156,366.0684 Q246.6719,366.0684 246.4688,365.8652 Q246.2656,365.6777 246.1563,365.1621 Q246.1094,364.8027 245.9219,364.6152 Q245.5938,364.2402 244.9844,364.0215 Q244.375,363.8027 243.75,363.8027 Q242.9844,363.8027 242.3438,364.1309 Q241.7188,364.459 241.2188,365.209 Q240.7344,365.959 240.7344,366.9902 L240.7344,368.084 Q240.7344,369.3184 241.625,370.1465 Q242.5156,370.959 244.1094,370.959 Q245.0469,370.959 245.7031,370.709 Q246.0938,370.5527 246.5156,370.1152 Q246.7813,369.8496 246.9219,369.7715 Q247.0781,369.6934 247.2813,369.6934 Q247.6094,369.6934 247.8594,369.959 Q248.125,370.209 248.125,370.5527 Q248.125,370.8965 247.7813,371.3027 Q247.2813,371.8809 246.4844,372.209 Q245.4063,372.6621 244.1094,372.6621 Q242.5938,372.6621 241.3906,372.0371 Q240.4063,371.5371 239.7188,370.4746 Q239.0313,369.3965 239.0313,368.1152 L239.0313,366.959 Q239.0313,365.6309 239.6406,364.4902 Q240.2656,363.334 241.3594,362.7246 Q242.4531,362.0996 243.6875,362.0996 Q244.4219,362.0996 245.0625,362.2715 Q245.7188,362.4277 246.2656,362.7871 Z " fill="#000000"/><text fill="#000000" font-family="sans-serif" font-size="12" font-style="italic" lengthAdjust="spacing" textLength="74" x="272" y="362.5703">&#171;application&#187;</text><text fill="#000000" font-family="sans-serif" font-size="14" lengthAdjust="spacing" textLength="103" x="257.5" y="380.6895">ListExamService</text><line style="stroke:#181818;stroke-width:0.5;" x1="229.5" x2="362.5" y1="389.2031" y2="389.2031"/><line style="stroke:#181818;stroke-width:0.5;" x1="229.5" x2="362.5" y1="397.2031" y2="397.2031"/></g><!--class Course--><g id="elem_Course"><rect codeLine="12" fill="#F1F1F1" height="60.582" id="Course" rx="2.5" ry="2.5" style="stroke:#181818;stroke-width:0.5;" width="84" x="7" y="344.6211"/><ellipse cx="22" cy="366.9121" fill="#ADD1B2" rx="11" ry="11" style="stroke:#181818;stroke-width:1.0;"/><path d="M24.7656,362.7871 Q24.9219,362.5684 25.1094,362.459 Q25.2969,362.3496 25.5156,362.3496 Q25.8906,362.3496 26.125,362.6152 Q26.3594,362.8652 26.3594,363.4746 L26.3594,364.9277 Q26.3594,365.5371 26.125,365.8027 Q25.8906,366.0684 25.5156,366.0684 Q25.1719,366.0684 24.9688,365.8652 Q24.7656,365.6777 24.6563,365.1621 Q24.6094,364.8027 24.4219,364.6152 Q24.0938,364.2402 23.4844,364.0215 Q22.875,363.8027 22.25,363.8027 Q21.4844,363.8027 20.8438,364.1309 Q20.2188,364.459 19.7188,365.209 Q19.2344,365.959 19.2344,366.9902 L19.2344,368.084 Q19.2344,369.3184 20.125,370.1465 Q21.0156,370.959 22.6094,370.959 Q23.5469,370.959 24.2031,370.709 Q24.5938,370.5527 25.0156,370.1152 Q25.2813,369.8496 25.4219,369.7715 Q25.5781,369.6934 25.7813,369.6934 Q26.1094,369.6934 26.3594,369.959 Q26.625,370.209 26.625,370.5527 Q26.625,370.8965 26.2813,371.3027 Q25.7813,371.8809 24.9844,372.209 Q23.9063,372.6621 22.6094,372.6621 Q21.0938,372.6621 19.8906,372.0371 Q18.9063,371.5371 18.2188,370.4746 Q17.5313,369.3965 17.5313,368.1152 L17.5313,366.959 Q17.5313,365.6309 18.1406,364.4902 Q18.7656,363.334 19.8594,362.7246 Q20.9531,362.0996 22.1875,362.0996 Q22.9219,362.0996 23.5625,362.2715 Q24.2188,362.4277 24.7656,362.7871 Z " fill="#000000"/><text fill="#000000" font-family="sans-serif" font-size="12" font-style="italic" lengthAdjust="spacing" textLength="56" x="34" y="362.5703">&#171;domain&#187;</text><text fill="#000000" font-family="sans-serif" font-size="14" lengthAdjust="spacing" textLength="46" x="39" y="380.6895">Course</text><line style="stroke:#181818;stroke-width:0.5;" x1="8" x2="90" y1="389.2031" y2="389.2031"/><line style="stroke:#181818;stroke-width:0.5;" x1="8" x2="90" y1="397.2031" y2="397.2031"/></g><!--class Exam--><g id="elem_Exam"><rect codeLine="13" fill="#F1F1F1" height="60.582" id="Exam" rx="2.5" ry="2.5" style="stroke:#181818;stroke-width:0.5;" width="84" x="399" y="344.6211"/><ellipse cx="414" cy="366.9121" fill="#ADD1B2" rx="11" ry="11" style="stroke:#181818;stroke-width:1.0;"/><path d="M416.7656,362.7871 Q416.9219,362.5684 417.1094,362.459 Q417.2969,362.3496 417.5156,362.3496 Q417.8906,362.3496 418.125,362.6152 Q418.3594,362.8652 418.3594,363.4746 L418.3594,364.9277 Q418.3594,365.5371 418.125,365.8027 Q417.8906,366.0684 417.5156,366.0684 Q417.1719,366.0684 416.9688,365.8652 Q416.7656,365.6777 416.6563,365.1621 Q416.6094,364.8027 416.4219,364.6152 Q416.0938,364.2402 415.4844,364.0215 Q414.875,363.8027 414.25,363.8027 Q413.4844,363.8027 412.8438,364.1309 Q412.2188,364.459 411.7188,365.209 Q411.2344,365.959 411.2344,366.9902 L411.2344,368.084 Q411.2344,369.3184 412.125,370.1465 Q413.0156,370.959 414.6094,370.959 Q415.5469,370.959 416.2031,370.709 Q416.5938,370.5527 417.0156,370.1152 Q417.2813,369.8496 417.4219,369.7715 Q417.5781,369.6934 417.7813,369.6934 Q418.1094,369.6934 418.3594,369.959 Q418.625,370.209 418.625,370.5527 Q418.625,370.8965 418.2813,371.3027 Q417.7813,371.8809 416.9844,372.209 Q415.9063,372.6621 414.6094,372.6621 Q413.0938,372.6621 411.8906,372.0371 Q410.9063,371.5371 410.2188,370.4746 Q409.5313,369.3965 409.5313,368.1152 L409.5313,366.959 Q409.5313,365.6309 410.1406,364.4902 Q410.7656,363.334 411.8594,362.7246 Q412.9531,362.0996 414.1875,362.0996 Q414.9219,362.0996 415.5625,362.2715 Q416.2188,362.4277 416.7656,362.7871 Z " fill="#000000"/><text fill="#000000" font-family="sans-serif" font-size="12" font-style="italic" lengthAdjust="spacing" textLength="56" x="426" y="362.5703">&#171;domain&#187;</text><text fill="#000000" font-family="sans-serif" font-size="14" lengthAdjust="spacing" textLength="34" x="437" y="380.6895">Exam</text><line style="stroke:#181818;stroke-width:0.5;" x1="400" x2="482" y1="389.2031" y2="389.2031"/><line style="stroke:#181818;stroke-width:0.5;" x1="400" x2="482" y1="397.2031" y2="397.2031"/></g><!--class ExamRepository--><g id="elem_ExamRepository"><rect codeLine="15" fill="#F1F1F1" height="60.582" id="ExamRepository" rx="2.5" ry="2.5" style="stroke:#181818;stroke-width:0.5;" width="134" x="119" y="466.6211"/><ellipse cx="134" cy="488.9121" fill="#B4A7E5" rx="11" ry="11" style="stroke:#181818;stroke-width:1.0;"/><path d="M134.9531,485.5527 L134.9531,492.209 L136.6719,492.209 Q137.2813,492.209 137.5469,492.4434 Q137.8125,492.6777 137.8125,493.0684 Q137.8125,493.4434 137.5469,493.6777 Q137.2813,493.9121 136.6719,493.9121 L131.5313,493.9121 Q130.9219,493.9121 130.6563,493.6777 Q130.3906,493.4434 130.3906,493.0527 Q130.3906,492.6777 130.6563,492.4434 Q130.9219,492.209 131.5313,492.209 L133.25,492.209 L133.25,485.5527 L131.5313,485.5527 Q130.9219,485.5527 130.6563,485.3184 Q130.3906,485.084 130.3906,484.6934 Q130.3906,484.3184 130.6563,484.084 Q130.9219,483.8496 131.5313,483.8496 L136.6719,483.8496 Q137.2813,483.8496 137.5469,484.084 Q137.8125,484.3184 137.8125,484.6934 Q137.8125,485.084 137.5469,485.3184 Q137.2813,485.5527 136.6719,485.5527 L134.9531,485.5527 Z " fill="#000000"/><text fill="#000000" font-family="sans-serif" font-size="12" font-style="italic" lengthAdjust="spacing" textLength="78" x="160" y="484.5703">&#171;repositories&#187;</text><text fill="#000000" font-family="sans-serif" font-size="14" font-style="italic" lengthAdjust="spacing" textLength="102" x="148" y="502.6895">ExamRepository</text><line style="stroke:#181818;stroke-width:0.5;" x1="120" x2="252" y1="511.2031" y2="511.2031"/><line style="stroke:#181818;stroke-width:0.5;" x1="120" x2="252" y1="519.2031" y2="519.2031"/></g><!--link ListFutureExamsUI to ListFutureExamsController--><g id="link_ListFutureExamsUI_ListFutureExamsController"><path codeLine="18" d="M228,125.7411 C228,148.5811 228,177.2711 228,199.3911 " fill="none" id="ListFutureExamsUI-to-ListFutureExamsController" style="stroke:#181818;stroke-width:1.0;"/><polygon fill="#181818" points="228,204.5811,232,195.5811,228,199.5811,224,195.5811,228,204.5811" style="stroke:#181818;stroke-width:1.0;"/><text fill="#000000" font-family="sans-serif" font-size="13" lengthAdjust="spacing" textLength="73" x="229" y="170.6494">theController</text></g><!--link ListFutureExamsController to ExamRepository--><g id="link_ListFutureExamsController_ExamRepository"><path codeLine="19" d="M212.22,266.0211 C201.92,287.2811 189.41,316.8911 184,344.6211 C176.31,384.0411 178.5,430.3211 181.53,461.2611 " fill="none" id="ListFutureExamsController-to-ExamRepository" style="stroke:#181818;stroke-width:1.0;"/><polygon fill="#181818" points="182.06,466.4711,185.1127,457.1073,181.5455,461.4976,177.1551,457.9305,182.06,466.4711" style="stroke:#181818;stroke-width:1.0;"/><text fill="#000000" font-family="sans-serif" font-size="13" lengthAdjust="spacing" textLength="25" x="185" y="380.6494">repo</text></g><!--link ListFutureExamsController to ListExamService--><g id="link_ListFutureExamsController_ListExamService"><path codeLine="20" d="M242.59,265.7211 C253.3,287.4611 267.88,317.0511 279.1,339.8111 " fill="none" id="ListFutureExamsController-to-ListExamService" style="stroke:#181818;stroke-width:1.0;"/><polygon fill="#181818" points="281.44,344.5611,281.0683,334.7193,279.2383,340.0719,273.8856,338.242,281.44,344.5611" style="stroke:#181818;stroke-width:1.0;"/><text fill="#000000" font-family="sans-serif" font-size="13" lengthAdjust="spacing" textLength="40" x="268" y="310.6494">service</text></g><!--link ListFutureExamsController to Course--><g id="link_ListFutureExamsController_Course"><path codeLine="21" d="M145.27,265.7111 C128.88,273.8511 112.56,283.7811 99,295.6211 C85.1,307.7611 73.66,324.6811 65.24,339.7111 " fill="none" id="ListFutureExamsController-to-Course" style="stroke:#181818;stroke-width:1.0;"/><polygon fill="#181818" points="62.72,344.3111,70.5494,338.3361,65.1203,339.9249,63.5315,334.4957,62.72,344.3111" style="stroke:#181818;stroke-width:1.0;"/><text fill="#000000" font-family="sans-serif" font-size="13" lengthAdjust="spacing" textLength="39" x="100" y="310.6494">course</text></g><!--link ListFutureExamsController to Exam--><g id="link_ListFutureExamsController_Exam"><path codeLine="22" d="M273.69,265.7211 C309.4,288.8611 358.83,320.8811 394.69,344.1211 " fill="none" id="ListFutureExamsController-to-Exam" style="stroke:#181818;stroke-width:1.0;"/><polygon fill="#181818" points="399,346.9111,393.6122,338.6666,394.8006,344.1972,389.27,345.3856,399,346.9111" style="stroke:#181818;stroke-width:1.0;"/><text fill="#000000" font-family="sans-serif" font-size="13" lengthAdjust="spacing" textLength="32" x="349" y="310.6494">exam</text></g><!--link ListFutureExamsUI to Course--><g id="link_ListFutureExamsUI_Course"><path codeLine="25" d="M181.61,125.6611 C158.09,147.0511 130.47,175.2111 111,204.6211 C86.9,241.0311 88.86,254.5711 74,295.6211 C68.84,309.8711 63.67,325.7811 59.38,339.5311 " fill="none" id="ListFutureExamsUI-to-Course" style="stroke:#181818;stroke-width:1.0;stroke-dasharray:7.0,7.0;"/><polygon fill="#181818" points="57.84,344.4911,64.3348,337.0872,59.3265,339.7172,56.6965,334.7088,57.84,344.4911" style="stroke:#181818;stroke-width:1.0;"/></g><!--link ListFutureExamsUI to Exam--><g id="link_ListFutureExamsUI_Exam"><path codeLine="26" d="M279.58,125.9611 C290.46,135.1611 301.51,145.3111 311,155.6211 C363.44,212.6211 405.07,294.1411 426.07,339.7811 " fill="none" id="ListFutureExamsUI-to-Exam" style="stroke:#181818;stroke-width:1.0;stroke-dasharray:7.0,7.0;"/><polygon fill="#181818" points="428.16,344.3611,428.04,334.513,426.0738,339.8171,420.7696,337.8509,428.16,344.3611" style="stroke:#181818;stroke-width:1.0;"/></g><!--link ListExamService to ExamRepository--><g id="link_ListExamService_ExamRepository"><path codeLine="27" d="M268.81,405.7811 C253.08,422.9511 233.22,444.6011 216.9,462.4111 " fill="none" id="ListExamService-to-ExamRepository" style="stroke:#181818;stroke-width:1.0;stroke-dasharray:7.0,7.0;"/><polygon fill="#181818" points="213.26,466.3811,222.2943,462.4591,216.6425,462.6989,216.4027,457.0471,213.26,466.3811" style="stroke:#181818;stroke-width:1.0;"/></g><!--SRC=[ZP0_JyCm4CNt-nItjHqYLHsZAai24X9Y8Eg46ApaQ4vAxCZd553LxuuTIWgcq7hnd_kzvxldsBM4UQj4i62rjQh3ULuiCC5DYQlbSWKm6yiaK8tOFOkx7TnWwUPDTRAvm_MwjoIadN9iT9RX7j2lsfIDUPqlu03dfRdHpfgs9UijLD-tN4qEXs-I09TaTrnH3EudxzmCLaAzDftY7nv17nM0jIFxehnZg3vIRuITiU-UiryN9ZdIimUru-tu9_oUFqcoVqPBqJLqkiFVPF29kaanT7D14sUKedoUBkYEaQLOZOShElCi-Sq7Kb1FkYPT-P3EHV9KAsceVfw-kG25DuW7YO5JCF01]--></g></svg>