<?xml version="1.0" encoding="us-ascii" standalone="no"?><svg xmlns="http://www.w3.org/2000/svg" xmlns:xlink="http://www.w3.org/1999/xlink" contentStyleType="text/css" height="687px" preserveAspectRatio="none" style="width:1759px;height:687px;background:#FFFFFF;" version="1.1" viewBox="0 0 1759 687" width="1759px" zoomAndPan="magnify"><defs/><g><text fill="#000000" font-family="sans-serif" font-size="14" font-weight="bold" lengthAdjust="spacing" textLength="213" x="766" y="25.1074">Domain Classes (DC) - US 2002</text><!--cluster <<aggregate>> Course--><g id="cluster_&lt;&lt;aggregate&gt;&gt; Course"><path d="M8.5,45.6348 L152.5,45.6348 A3.75,3.75 0 0 1 155,48.1348 L162,70.2559 L799.5,70.2559 A2.5,2.5 0 0 1 802,72.7559 L802,362.6348 A2.5,2.5 0 0 1 799.5,365.1348 L8.5,365.1348 A2.5,2.5 0 0 1 6,362.6348 L6,48.1348 A2.5,2.5 0 0 1 8.5,45.6348 " fill="none" style="stroke:#000000;stroke-width:1.5;"/><line style="stroke:#000000;stroke-width:1.5;" x1="6" x2="162" y1="70.2559" y2="70.2559"/><text fill="#000000" font-family="sans-serif" font-size="14" font-weight="bold" lengthAdjust="spacing" textLength="143" x="10" y="62.7422">&#171;aggregate&#187; Course</text></g><!--cluster <<aggregate>> Exam--><g id="cluster_&lt;&lt;aggregate&gt;&gt; Exam"><path d="M828.5,224.6348 L958.5,224.6348 A3.75,3.75 0 0 1 961,227.1348 L968,249.2559 L1299.5,249.2559 A2.5,2.5 0 0 1 1302,251.7559 L1302,554.1348 A2.5,2.5 0 0 1 1299.5,556.6348 L828.5,556.6348 A2.5,2.5 0 0 1 826,554.1348 L826,227.1348 A2.5,2.5 0 0 1 828.5,224.6348 " fill="none" style="stroke:#000000;stroke-width:1.5;"/><line style="stroke:#000000;stroke-width:1.5;" x1="826" x2="968" y1="249.2559" y2="249.2559"/><text fill="#000000" font-family="sans-serif" font-size="14" font-weight="bold" lengthAdjust="spacing" textLength="129" x="830" y="241.7422">&#171;aggregate&#187; Exam</text></g><!--cluster <<aggregate>> Enrollment--><g id="cluster_&lt;&lt;aggregate&gt;&gt; Enrollment"><path d="M1328.5,224.6348 L1497.5,224.6348 A3.75,3.75 0 0 1 1500,227.1348 L1507,249.2559 L1507.5,249.2559 A2.5,2.5 0 0 1 1510,251.7559 L1510,535.6348 A2.5,2.5 0 0 1 1507.5,538.1348 L1328.5,538.1348 A2.5,2.5 0 0 1 1326,535.6348 L1326,227.1348 A2.5,2.5 0 0 1 1328.5,224.6348 " fill="none" style="stroke:#000000;stroke-width:1.5;"/><line style="stroke:#000000;stroke-width:1.5;" x1="1326" x2="1507" y1="249.2559" y2="249.2559"/><text fill="#000000" font-family="sans-serif" font-size="14" font-weight="bold" lengthAdjust="spacing" textLength="168" x="1330" y="241.7422">&#171;aggregate&#187; Enrollment</text></g><!--cluster <<aggregate>> Student--><g id="cluster_&lt;&lt;aggregate&gt;&gt; Student"><path d="M1536.5,416.1348 L1684.5,416.1348 A3.75,3.75 0 0 1 1687,418.6348 L1694,440.7559 L1749.5,440.7559 A2.5,2.5 0 0 1 1752,443.2559 L1752,678.1348 A2.5,2.5 0 0 1 1749.5,680.6348 L1536.5,680.6348 A2.5,2.5 0 0 1 1534,678.1348 L1534,418.6348 A2.5,2.5 0 0 1 1536.5,416.1348 " fill="none" style="stroke:#000000;stroke-width:1.5;"/><line style="stroke:#000000;stroke-width:1.5;" x1="1534" x2="1694" y1="440.7559" y2="440.7559"/><text fill="#000000" font-family="sans-serif" font-size="14" font-weight="bold" lengthAdjust="spacing" textLength="147" x="1538" y="433.2422">&#171;aggregate&#187; Student</text></g><!--class Course--><g id="elem_Course"><rect codeLine="8" fill="#F1F1F1" height="76.543" id="Course" rx="2.5" ry="2.5" style="stroke:#181818;stroke-width:0.5;" width="78" x="519" y="82.6348"/><ellipse cx="534" cy="112.9063" fill="#ADD1B2" rx="11" ry="11" style="stroke:#181818;stroke-width:1.0;"/><path d="M532.8594,113.7031 L532.8594,116.2031 L537.1875,116.2031 L537.1875,115.2813 Q537.1875,114.6719 537.4219,114.4063 Q537.6719,114.1406 538.0469,114.1406 Q538.4219,114.1406 538.6563,114.4063 Q538.8906,114.6719 538.8906,115.2813 L538.8906,117.9063 L530.8906,117.9063 Q530.2656,117.9063 530,117.6719 Q529.75,117.4375 529.75,117.0469 Q529.75,116.6719 530.0156,116.4375 Q530.2813,116.2031 530.8906,116.2031 L531.1563,116.2031 L531.1563,109.5469 L530.8906,109.5469 Q530.2656,109.5469 530,109.3125 Q529.75,109.0781 529.75,108.6875 Q529.75,108.3125 530,108.0781 Q530.2656,107.8438 530.8906,107.8438 L538.5156,107.8438 L538.5156,110.4375 Q538.5156,111.0469 538.2813,111.3125 Q538.0625,111.5625 537.6719,111.5625 Q537.2969,111.5625 537.0625,111.3125 Q536.8281,111.0469 536.8281,110.4375 L536.8281,109.5469 L532.8594,109.5469 L532.8594,112 L534.3438,112 Q534.3438,111.3438 534.4688,111.1563 Q534.7344,110.75 535.2031,110.75 Q535.5781,110.75 535.8125,111.0156 Q536.0469,111.2656 536.0469,111.875 L536.0469,113.8438 Q536.0469,114.3906 535.9219,114.5781 Q535.6563,114.9688 535.2031,114.9688 Q534.7344,114.9688 534.4688,114.5625 Q534.3438,114.375 534.3438,113.7031 L532.8594,113.7031 Z " fill="#000000"/><text fill="#000000" font-family="sans-serif" font-size="12" font-style="italic" lengthAdjust="spacing" textLength="43" x="549.5" y="100.584">&#171;entity&#187;</text><text fill="#000000" font-family="sans-serif" font-size="12" font-style="italic" lengthAdjust="spacing" textLength="35" x="553.5" y="116.5449">&#171;root&#187;</text><text fill="#000000" font-family="sans-serif" font-size="14" lengthAdjust="spacing" textLength="46" x="548" y="134.6641">Course</text><line style="stroke:#181818;stroke-width:0.5;" x1="520" x2="596" y1="143.1777" y2="143.1777"/><line style="stroke:#181818;stroke-width:0.5;" x1="520" x2="596" y1="151.1777" y2="151.1777"/></g><!--class CourseTitle--><g id="elem_CourseTitle"><rect codeLine="9" fill="#F1F1F1" height="60.582" id="CourseTitle" rx="2.5" ry="2.5" style="stroke:#181818;stroke-width:0.5;" width="109" x="22.5" y="269.6348"/><ellipse cx="37.5" cy="291.9258" fill="#FF8B40" rx="11" ry="11" style="stroke:#181818;stroke-width:1.0;"/><path d="M38.0938,295.1914 L40.5625,289.3164 L40.1719,289.3164 Q39.5625,289.3164 39.2969,289.082 Q39.0313,288.8477 39.0313,288.457 Q39.0313,288.082 39.2969,287.8477 Q39.5625,287.6133 40.1719,287.6133 L42.4531,287.6133 Q43.0625,287.6133 43.3281,287.8477 Q43.5938,288.082 43.5938,288.457 Q43.5938,288.9258 43.1875,289.1914 Q43,289.3164 42.4063,289.3164 L38.9219,297.6758 L37.2813,297.6758 L33.7969,289.3164 Q33.2031,289.3164 33.0156,289.1914 Q32.6094,288.9258 32.6094,288.457 Q32.6094,288.082 32.875,287.8477 Q33.1406,287.6133 33.75,287.6133 L36.0469,287.6133 Q36.6563,287.6133 36.9063,287.8477 Q37.1719,288.082 37.1719,288.457 Q37.1719,288.8477 36.9063,289.082 Q36.6563,289.3164 36.0469,289.3164 L35.6406,289.3164 L38.0938,295.1914 Z " fill="#000000"/><text fill="#000000" font-family="sans-serif" font-size="12" font-style="italic" lengthAdjust="spacing" textLength="81" x="49.5" y="287.584">&#171;value object&#187;</text><text fill="#000000" font-family="sans-serif" font-size="14" lengthAdjust="spacing" textLength="73" x="53.5" y="305.7031">CourseTitle</text><line style="stroke:#181818;stroke-width:0.5;" x1="23.5" x2="130.5" y1="314.2168" y2="314.2168"/><line style="stroke:#181818;stroke-width:0.5;" x1="23.5" x2="130.5" y1="322.2168" y2="322.2168"/></g><!--class CourseCode--><g id="elem_CourseCode"><rect codeLine="10" fill="#F1F1F1" height="60.582" id="CourseCode" rx="2.5" ry="2.5" style="stroke:#181818;stroke-width:0.5;" width="112" x="167" y="269.6348"/><ellipse cx="182" cy="291.9258" fill="#FF8B40" rx="11" ry="11" style="stroke:#181818;stroke-width:1.0;"/><path d="M182.5938,295.1914 L185.0625,289.3164 L184.6719,289.3164 Q184.0625,289.3164 183.7969,289.082 Q183.5313,288.8477 183.5313,288.457 Q183.5313,288.082 183.7969,287.8477 Q184.0625,287.6133 184.6719,287.6133 L186.9531,287.6133 Q187.5625,287.6133 187.8281,287.8477 Q188.0938,288.082 188.0938,288.457 Q188.0938,288.9258 187.6875,289.1914 Q187.5,289.3164 186.9063,289.3164 L183.4219,297.6758 L181.7813,297.6758 L178.2969,289.3164 Q177.7031,289.3164 177.5156,289.1914 Q177.1094,288.9258 177.1094,288.457 Q177.1094,288.082 177.375,287.8477 Q177.6406,287.6133 178.25,287.6133 L180.5469,287.6133 Q181.1563,287.6133 181.4063,287.8477 Q181.6719,288.082 181.6719,288.457 Q181.6719,288.8477 181.4063,289.082 Q181.1563,289.3164 180.5469,289.3164 L180.1406,289.3164 L182.5938,295.1914 Z " fill="#000000"/><text fill="#000000" font-family="sans-serif" font-size="12" font-style="italic" lengthAdjust="spacing" textLength="81" x="195.5" y="287.584">&#171;value object&#187;</text><text fill="#000000" font-family="sans-serif" font-size="14" lengthAdjust="spacing" textLength="80" x="196" y="305.7031">CourseCode</text><line style="stroke:#181818;stroke-width:0.5;" x1="168" x2="278" y1="314.2168" y2="314.2168"/><line style="stroke:#181818;stroke-width:0.5;" x1="168" x2="278" y1="322.2168" y2="322.2168"/></g><!--class CourseDescription--><g id="elem_CourseDescription"><rect codeLine="11" fill="#F1F1F1" height="60.582" id="CourseDescription" rx="2.5" ry="2.5" style="stroke:#181818;stroke-width:0.5;" width="149" x="314.5" y="269.6348"/><ellipse cx="329.5" cy="291.9258" fill="#FF8B40" rx="11" ry="11" style="stroke:#181818;stroke-width:1.0;"/><path d="M330.0938,295.1914 L332.5625,289.3164 L332.1719,289.3164 Q331.5625,289.3164 331.2969,289.082 Q331.0313,288.8477 331.0313,288.457 Q331.0313,288.082 331.2969,287.8477 Q331.5625,287.6133 332.1719,287.6133 L334.4531,287.6133 Q335.0625,287.6133 335.3281,287.8477 Q335.5938,288.082 335.5938,288.457 Q335.5938,288.9258 335.1875,289.1914 Q335,289.3164 334.4063,289.3164 L330.9219,297.6758 L329.2813,297.6758 L325.7969,289.3164 Q325.2031,289.3164 325.0156,289.1914 Q324.6094,288.9258 324.6094,288.457 Q324.6094,288.082 324.875,287.8477 Q325.1406,287.6133 325.75,287.6133 L328.0469,287.6133 Q328.6563,287.6133 328.9063,287.8477 Q329.1719,288.082 329.1719,288.457 Q329.1719,288.8477 328.9063,289.082 Q328.6563,289.3164 328.0469,289.3164 L327.6406,289.3164 L330.0938,295.1914 Z " fill="#000000"/><text fill="#000000" font-family="sans-serif" font-size="12" font-style="italic" lengthAdjust="spacing" textLength="81" x="361.5" y="287.584">&#171;value object&#187;</text><text fill="#000000" font-family="sans-serif" font-size="14" lengthAdjust="spacing" textLength="117" x="343.5" y="305.7031">CourseDescription</text><line style="stroke:#181818;stroke-width:0.5;" x1="315.5" x2="462.5" y1="314.2168" y2="314.2168"/><line style="stroke:#181818;stroke-width:0.5;" x1="315.5" x2="462.5" y1="322.2168" y2="322.2168"/></g><!--class CourseStatus--><g id="elem_CourseStatus"><rect codeLine="12" fill="#F1F1F1" height="60.582" id="CourseStatus" rx="2.5" ry="2.5" style="stroke:#181818;stroke-width:0.5;" width="118" x="499" y="269.6348"/><ellipse cx="514" cy="291.9258" fill="#FF8B40" rx="11" ry="11" style="stroke:#181818;stroke-width:1.0;"/><path d="M514.5938,295.1914 L517.0625,289.3164 L516.6719,289.3164 Q516.0625,289.3164 515.7969,289.082 Q515.5313,288.8477 515.5313,288.457 Q515.5313,288.082 515.7969,287.8477 Q516.0625,287.6133 516.6719,287.6133 L518.9531,287.6133 Q519.5625,287.6133 519.8281,287.8477 Q520.0938,288.082 520.0938,288.457 Q520.0938,288.9258 519.6875,289.1914 Q519.5,289.3164 518.9063,289.3164 L515.4219,297.6758 L513.7813,297.6758 L510.2969,289.3164 Q509.7031,289.3164 509.5156,289.1914 Q509.1094,288.9258 509.1094,288.457 Q509.1094,288.082 509.375,287.8477 Q509.6406,287.6133 510.25,287.6133 L512.5469,287.6133 Q513.1563,287.6133 513.4063,287.8477 Q513.6719,288.082 513.6719,288.457 Q513.6719,288.8477 513.4063,289.082 Q513.1563,289.3164 512.5469,289.3164 L512.1406,289.3164 L514.5938,295.1914 Z " fill="#000000"/><text fill="#000000" font-family="sans-serif" font-size="12" font-style="italic" lengthAdjust="spacing" textLength="81" x="530.5" y="287.584">&#171;value object&#187;</text><text fill="#000000" font-family="sans-serif" font-size="14" lengthAdjust="spacing" textLength="86" x="528" y="305.7031">CourseStatus</text><line style="stroke:#181818;stroke-width:0.5;" x1="500" x2="616" y1="314.2168" y2="314.2168"/><line style="stroke:#181818;stroke-width:0.5;" x1="500" x2="616" y1="322.2168" y2="322.2168"/></g><!--class EnrolmentLimits--><g id="elem_EnrolmentLimits"><rect codeLine="13" fill="#F1F1F1" height="97.8242" id="EnrolmentLimits" rx="2.5" ry="2.5" style="stroke:#181818;stroke-width:0.5;" width="134" x="652" y="251.1348"/><ellipse cx="667.9" cy="273.4258" fill="#FF8B40" rx="11" ry="11" style="stroke:#181818;stroke-width:1.0;"/><path d="M668.4938,276.6914 L670.9625,270.8164 L670.5719,270.8164 Q669.9625,270.8164 669.6969,270.582 Q669.4313,270.3477 669.4313,269.957 Q669.4313,269.582 669.6969,269.3477 Q669.9625,269.1133 670.5719,269.1133 L672.8531,269.1133 Q673.4625,269.1133 673.7281,269.3477 Q673.9938,269.582 673.9938,269.957 Q673.9938,270.4258 673.5875,270.6914 Q673.4,270.8164 672.8063,270.8164 L669.3219,279.1758 L667.6813,279.1758 L664.1969,270.8164 Q663.6031,270.8164 663.4156,270.6914 Q663.0094,270.4258 663.0094,269.957 Q663.0094,269.582 663.275,269.3477 Q663.5406,269.1133 664.15,269.1133 L666.4469,269.1133 Q667.0563,269.1133 667.3063,269.3477 Q667.5719,269.582 667.5719,269.957 Q667.5719,270.3477 667.3063,270.582 Q667.0563,270.8164 666.4469,270.8164 L666.0406,270.8164 L668.4938,276.6914 Z " fill="#000000"/><text fill="#000000" font-family="sans-serif" font-size="12" font-style="italic" lengthAdjust="spacing" textLength="81" x="691.6" y="269.084">&#171;value object&#187;</text><text fill="#000000" font-family="sans-serif" font-size="14" lengthAdjust="spacing" textLength="100" x="682.1" y="287.2031">EnrolmentLimits</text><line style="stroke:#181818;stroke-width:0.5;" x1="653" x2="785" y1="295.7168" y2="295.7168"/><text fill="#000000" font-family="sans-serif" font-size="14" lengthAdjust="spacing" textLength="119" x="658" y="314.8242">minimumEnrolment</text><text fill="#000000" font-family="sans-serif" font-size="14" lengthAdjust="spacing" textLength="122" x="658" y="333.4453">maximumEnrolment</text><line style="stroke:#181818;stroke-width:0.5;" x1="653" x2="785" y1="340.959" y2="340.959"/></g><!--class Exam--><g id="elem_Exam"><rect codeLine="21" fill="#F1F1F1" height="76.543" id="Exam" rx="2.5" ry="2.5" style="stroke:#181818;stroke-width:0.5;" width="71" x="940.5" y="261.6348"/><ellipse cx="955.5" cy="291.9063" fill="#ADD1B2" rx="11" ry="11" style="stroke:#181818;stroke-width:1.0;"/><path d="M954.3594,292.7031 L954.3594,295.2031 L958.6875,295.2031 L958.6875,294.2813 Q958.6875,293.6719 958.9219,293.4063 Q959.1719,293.1406 959.5469,293.1406 Q959.9219,293.1406 960.1563,293.4063 Q960.3906,293.6719 960.3906,294.2813 L960.3906,296.9063 L952.3906,296.9063 Q951.7656,296.9063 951.5,296.6719 Q951.25,296.4375 951.25,296.0469 Q951.25,295.6719 951.5156,295.4375 Q951.7813,295.2031 952.3906,295.2031 L952.6563,295.2031 L952.6563,288.5469 L952.3906,288.5469 Q951.7656,288.5469 951.5,288.3125 Q951.25,288.0781 951.25,287.6875 Q951.25,287.3125 951.5,287.0781 Q951.7656,286.8438 952.3906,286.8438 L960.0156,286.8438 L960.0156,289.4375 Q960.0156,290.0469 959.7813,290.3125 Q959.5625,290.5625 959.1719,290.5625 Q958.7969,290.5625 958.5625,290.3125 Q958.3281,290.0469 958.3281,289.4375 L958.3281,288.5469 L954.3594,288.5469 L954.3594,291 L955.8438,291 Q955.8438,290.3438 955.9688,290.1563 Q956.2344,289.75 956.7031,289.75 Q957.0781,289.75 957.3125,290.0156 Q957.5469,290.2656 957.5469,290.875 L957.5469,292.8438 Q957.5469,293.3906 957.4219,293.5781 Q957.1563,293.9688 956.7031,293.9688 Q956.2344,293.9688 955.9688,293.5625 Q955.8438,293.375 955.8438,292.7031 L954.3594,292.7031 Z " fill="#000000"/><text fill="#000000" font-family="sans-serif" font-size="12" font-style="italic" lengthAdjust="spacing" textLength="43" x="967.5" y="279.584">&#171;entity&#187;</text><text fill="#000000" font-family="sans-serif" font-size="12" font-style="italic" lengthAdjust="spacing" textLength="35" x="971.5" y="295.5449">&#171;root&#187;</text><text fill="#000000" font-family="sans-serif" font-size="14" lengthAdjust="spacing" textLength="34" x="972" y="313.6641">Exam</text><line style="stroke:#181818;stroke-width:0.5;" x1="941.5" x2="1010.5" y1="322.1777" y2="322.1777"/><line style="stroke:#181818;stroke-width:0.5;" x1="941.5" x2="1010.5" y1="330.1777" y2="330.1777"/></g><!--class ExamTitle--><g id="elem_ExamTitle"><rect codeLine="22" fill="#F1F1F1" height="60.582" id="ExamTitle" rx="2.5" ry="2.5" style="stroke:#181818;stroke-width:0.5;" width="109" x="842.5" y="461.1348"/><ellipse cx="857.5" cy="483.4258" fill="#FF8B40" rx="11" ry="11" style="stroke:#181818;stroke-width:1.0;"/><path d="M858.0938,486.6914 L860.5625,480.8164 L860.1719,480.8164 Q859.5625,480.8164 859.2969,480.582 Q859.0313,480.3477 859.0313,479.957 Q859.0313,479.582 859.2969,479.3477 Q859.5625,479.1133 860.1719,479.1133 L862.4531,479.1133 Q863.0625,479.1133 863.3281,479.3477 Q863.5938,479.582 863.5938,479.957 Q863.5938,480.4258 863.1875,480.6914 Q863,480.8164 862.4063,480.8164 L858.9219,489.1758 L857.2813,489.1758 L853.7969,480.8164 Q853.2031,480.8164 853.0156,480.6914 Q852.6094,480.4258 852.6094,479.957 Q852.6094,479.582 852.875,479.3477 Q853.1406,479.1133 853.75,479.1133 L856.0469,479.1133 Q856.6563,479.1133 856.9063,479.3477 Q857.1719,479.582 857.1719,479.957 Q857.1719,480.3477 856.9063,480.582 Q856.6563,480.8164 856.0469,480.8164 L855.6406,480.8164 L858.0938,486.6914 Z " fill="#000000"/><text fill="#000000" font-family="sans-serif" font-size="12" font-style="italic" lengthAdjust="spacing" textLength="81" x="869.5" y="479.084">&#171;value object&#187;</text><text fill="#000000" font-family="sans-serif" font-size="14" lengthAdjust="spacing" textLength="61" x="879.5" y="497.2031">ExamTitle</text><line style="stroke:#181818;stroke-width:0.5;" x1="843.5" x2="950.5" y1="505.7168" y2="505.7168"/><line style="stroke:#181818;stroke-width:0.5;" x1="843.5" x2="950.5" y1="513.7168" y2="513.7168"/></g><!--class ExamDescription--><g id="elem_ExamDescription"><rect codeLine="23" fill="#F1F1F1" height="60.582" id="ExamDescription" rx="2.5" ry="2.5" style="stroke:#181818;stroke-width:0.5;" width="137" x="986.5" y="461.1348"/><ellipse cx="1001.5" cy="483.4258" fill="#FF8B40" rx="11" ry="11" style="stroke:#181818;stroke-width:1.0;"/><path d="M1002.0938,486.6914 L1004.5625,480.8164 L1004.1719,480.8164 Q1003.5625,480.8164 1003.2969,480.582 Q1003.0313,480.3477 1003.0313,479.957 Q1003.0313,479.582 1003.2969,479.3477 Q1003.5625,479.1133 1004.1719,479.1133 L1006.4531,479.1133 Q1007.0625,479.1133 1007.3281,479.3477 Q1007.5938,479.582 1007.5938,479.957 Q1007.5938,480.4258 1007.1875,480.6914 Q1007,480.8164 1006.4063,480.8164 L1002.9219,489.1758 L1001.2813,489.1758 L997.7969,480.8164 Q997.2031,480.8164 997.0156,480.6914 Q996.6094,480.4258 996.6094,479.957 Q996.6094,479.582 996.875,479.3477 Q997.1406,479.1133 997.75,479.1133 L1000.0469,479.1133 Q1000.6563,479.1133 1000.9063,479.3477 Q1001.1719,479.582 1001.1719,479.957 Q1001.1719,480.3477 1000.9063,480.582 Q1000.6563,480.8164 1000.0469,480.8164 L999.6406,480.8164 L1002.0938,486.6914 Z " fill="#000000"/><text fill="#000000" font-family="sans-serif" font-size="12" font-style="italic" lengthAdjust="spacing" textLength="81" x="1027.5" y="479.084">&#171;value object&#187;</text><text fill="#000000" font-family="sans-serif" font-size="14" lengthAdjust="spacing" textLength="105" x="1015.5" y="497.2031">ExamDescription</text><line style="stroke:#181818;stroke-width:0.5;" x1="987.5" x2="1122.5" y1="505.7168" y2="505.7168"/><line style="stroke:#181818;stroke-width:0.5;" x1="987.5" x2="1122.5" y1="513.7168" y2="513.7168"/></g><!--class ExamDateTime--><g id="elem_ExamDateTime"><rect codeLine="24" fill="#F1F1F1" height="97.8242" id="ExamDateTime" rx="2.5" ry="2.5" style="stroke:#181818;stroke-width:0.5;" width="127" x="1158.5" y="442.6348"/><ellipse cx="1173.5" cy="464.9258" fill="#FF8B40" rx="11" ry="11" style="stroke:#181818;stroke-width:1.0;"/><path d="M1174.0938,468.1914 L1176.5625,462.3164 L1176.1719,462.3164 Q1175.5625,462.3164 1175.2969,462.082 Q1175.0313,461.8477 1175.0313,461.457 Q1175.0313,461.082 1175.2969,460.8477 Q1175.5625,460.6133 1176.1719,460.6133 L1178.4531,460.6133 Q1179.0625,460.6133 1179.3281,460.8477 Q1179.5938,461.082 1179.5938,461.457 Q1179.5938,461.9258 1179.1875,462.1914 Q1179,462.3164 1178.4063,462.3164 L1174.9219,470.6758 L1173.2813,470.6758 L1169.7969,462.3164 Q1169.2031,462.3164 1169.0156,462.1914 Q1168.6094,461.9258 1168.6094,461.457 Q1168.6094,461.082 1168.875,460.8477 Q1169.1406,460.6133 1169.75,460.6133 L1172.0469,460.6133 Q1172.6563,460.6133 1172.9063,460.8477 Q1173.1719,461.082 1173.1719,461.457 Q1173.1719,461.8477 1172.9063,462.082 Q1172.6563,462.3164 1172.0469,462.3164 L1171.6406,462.3164 L1174.0938,468.1914 Z " fill="#000000"/><text fill="#000000" font-family="sans-serif" font-size="12" font-style="italic" lengthAdjust="spacing" textLength="81" x="1194.5" y="460.584">&#171;value object&#187;</text><text fill="#000000" font-family="sans-serif" font-size="14" lengthAdjust="spacing" textLength="95" x="1187.5" y="478.7031">ExamDateTime</text><line style="stroke:#181818;stroke-width:0.5;" x1="1159.5" x2="1284.5" y1="487.2168" y2="487.2168"/><text fill="#000000" font-family="sans-serif" font-size="14" lengthAdjust="spacing" textLength="112" x="1164.5" y="506.3242">openingDateTime</text><text fill="#000000" font-family="sans-serif" font-size="14" lengthAdjust="spacing" textLength="105" x="1164.5" y="524.9453">closingDateTime</text><line style="stroke:#181818;stroke-width:0.5;" x1="1159.5" x2="1284.5" y1="532.459" y2="532.459"/></g><!--class Enrollment--><g id="elem_Enrollment"><rect codeLine="32" fill="#F1F1F1" height="76.543" id="Enrollment" rx="2.5" ry="2.5" style="stroke:#181818;stroke-width:0.5;" width="99" x="1368.5" y="261.6348"/><ellipse cx="1383.5" cy="291.9063" fill="#ADD1B2" rx="11" ry="11" style="stroke:#181818;stroke-width:1.0;"/><path d="M1382.3594,292.7031 L1382.3594,295.2031 L1386.6875,295.2031 L1386.6875,294.2813 Q1386.6875,293.6719 1386.9219,293.4063 Q1387.1719,293.1406 1387.5469,293.1406 Q1387.9219,293.1406 1388.1563,293.4063 Q1388.3906,293.6719 1388.3906,294.2813 L1388.3906,296.9063 L1380.3906,296.9063 Q1379.7656,296.9063 1379.5,296.6719 Q1379.25,296.4375 1379.25,296.0469 Q1379.25,295.6719 1379.5156,295.4375 Q1379.7813,295.2031 1380.3906,295.2031 L1380.6563,295.2031 L1380.6563,288.5469 L1380.3906,288.5469 Q1379.7656,288.5469 1379.5,288.3125 Q1379.25,288.0781 1379.25,287.6875 Q1379.25,287.3125 1379.5,287.0781 Q1379.7656,286.8438 1380.3906,286.8438 L1388.0156,286.8438 L1388.0156,289.4375 Q1388.0156,290.0469 1387.7813,290.3125 Q1387.5625,290.5625 1387.1719,290.5625 Q1386.7969,290.5625 1386.5625,290.3125 Q1386.3281,290.0469 1386.3281,289.4375 L1386.3281,288.5469 L1382.3594,288.5469 L1382.3594,291 L1383.8438,291 Q1383.8438,290.3438 1383.9688,290.1563 Q1384.2344,289.75 1384.7031,289.75 Q1385.0781,289.75 1385.3125,290.0156 Q1385.5469,290.2656 1385.5469,290.875 L1385.5469,292.8438 Q1385.5469,293.3906 1385.4219,293.5781 Q1385.1563,293.9688 1384.7031,293.9688 Q1384.2344,293.9688 1383.9688,293.5625 Q1383.8438,293.375 1383.8438,292.7031 L1382.3594,292.7031 Z " fill="#000000"/><text fill="#000000" font-family="sans-serif" font-size="12" font-style="italic" lengthAdjust="spacing" textLength="43" x="1409.5" y="279.584">&#171;entity&#187;</text><text fill="#000000" font-family="sans-serif" font-size="12" font-style="italic" lengthAdjust="spacing" textLength="35" x="1413.5" y="295.5449">&#171;root&#187;</text><text fill="#000000" font-family="sans-serif" font-size="14" lengthAdjust="spacing" textLength="67" x="1397.5" y="313.6641">Enrollment</text><line style="stroke:#181818;stroke-width:0.5;" x1="1369.5" x2="1466.5" y1="322.1777" y2="322.1777"/><line style="stroke:#181818;stroke-width:0.5;" x1="1369.5" x2="1466.5" y1="330.1777" y2="330.1777"/></g><!--class EnrollmentStatus--><g id="elem_EnrollmentStatus"><rect codeLine="33" fill="#F1F1F1" height="60.582" id="EnrollmentStatus" rx="2.5" ry="2.5" style="stroke:#181818;stroke-width:0.5;" width="139" x="1348.5" y="461.1348"/><ellipse cx="1363.5" cy="483.4258" fill="#FF8B40" rx="11" ry="11" style="stroke:#181818;stroke-width:1.0;"/><path d="M1364.0938,486.6914 L1366.5625,480.8164 L1366.1719,480.8164 Q1365.5625,480.8164 1365.2969,480.582 Q1365.0313,480.3477 1365.0313,479.957 Q1365.0313,479.582 1365.2969,479.3477 Q1365.5625,479.1133 1366.1719,479.1133 L1368.4531,479.1133 Q1369.0625,479.1133 1369.3281,479.3477 Q1369.5938,479.582 1369.5938,479.957 Q1369.5938,480.4258 1369.1875,480.6914 Q1369,480.8164 1368.4063,480.8164 L1364.9219,489.1758 L1363.2813,489.1758 L1359.7969,480.8164 Q1359.2031,480.8164 1359.0156,480.6914 Q1358.6094,480.4258 1358.6094,479.957 Q1358.6094,479.582 1358.875,479.3477 Q1359.1406,479.1133 1359.75,479.1133 L1362.0469,479.1133 Q1362.6563,479.1133 1362.9063,479.3477 Q1363.1719,479.582 1363.1719,479.957 Q1363.1719,480.3477 1362.9063,480.582 Q1362.6563,480.8164 1362.0469,480.8164 L1361.6406,480.8164 L1364.0938,486.6914 Z " fill="#000000"/><text fill="#000000" font-family="sans-serif" font-size="12" font-style="italic" lengthAdjust="spacing" textLength="81" x="1390.5" y="479.084">&#171;value object&#187;</text><text fill="#000000" font-family="sans-serif" font-size="14" lengthAdjust="spacing" textLength="107" x="1377.5" y="497.2031">EnrollmentStatus</text><line style="stroke:#181818;stroke-width:0.5;" x1="1349.5" x2="1486.5" y1="505.7168" y2="505.7168"/><line style="stroke:#181818;stroke-width:0.5;" x1="1349.5" x2="1486.5" y1="513.7168" y2="513.7168"/></g><!--class Student--><g id="elem_Student"><rect codeLine="38" fill="#F1F1F1" height="76.543" id="Student" rx="2.5" ry="2.5" style="stroke:#181818;stroke-width:0.5;" width="81" x="1576.5" y="453.1348"/><ellipse cx="1591.5" cy="483.4063" fill="#ADD1B2" rx="11" ry="11" style="stroke:#181818;stroke-width:1.0;"/><path d="M1590.3594,484.2031 L1590.3594,486.7031 L1594.6875,486.7031 L1594.6875,485.7813 Q1594.6875,485.1719 1594.9219,484.9063 Q1595.1719,484.6406 1595.5469,484.6406 Q1595.9219,484.6406 1596.1563,484.9063 Q1596.3906,485.1719 1596.3906,485.7813 L1596.3906,488.4063 L1588.3906,488.4063 Q1587.7656,488.4063 1587.5,488.1719 Q1587.25,487.9375 1587.25,487.5469 Q1587.25,487.1719 1587.5156,486.9375 Q1587.7813,486.7031 1588.3906,486.7031 L1588.6563,486.7031 L1588.6563,480.0469 L1588.3906,480.0469 Q1587.7656,480.0469 1587.5,479.8125 Q1587.25,479.5781 1587.25,479.1875 Q1587.25,478.8125 1587.5,478.5781 Q1587.7656,478.3438 1588.3906,478.3438 L1596.0156,478.3438 L1596.0156,480.9375 Q1596.0156,481.5469 1595.7813,481.8125 Q1595.5625,482.0625 1595.1719,482.0625 Q1594.7969,482.0625 1594.5625,481.8125 Q1594.3281,481.5469 1594.3281,480.9375 L1594.3281,480.0469 L1590.3594,480.0469 L1590.3594,482.5 L1591.8438,482.5 Q1591.8438,481.8438 1591.9688,481.6563 Q1592.2344,481.25 1592.7031,481.25 Q1593.0781,481.25 1593.3125,481.5156 Q1593.5469,481.7656 1593.5469,482.375 L1593.5469,484.3438 Q1593.5469,484.8906 1593.4219,485.0781 Q1593.1563,485.4688 1592.7031,485.4688 Q1592.2344,485.4688 1591.9688,485.0625 Q1591.8438,484.875 1591.8438,484.2031 L1590.3594,484.2031 Z " fill="#000000"/><text fill="#000000" font-family="sans-serif" font-size="12" font-style="italic" lengthAdjust="spacing" textLength="43" x="1608.5" y="471.084">&#171;entity&#187;</text><text fill="#000000" font-family="sans-serif" font-size="12" font-style="italic" lengthAdjust="spacing" textLength="35" x="1612.5" y="487.0449">&#171;root&#187;</text><text fill="#000000" font-family="sans-serif" font-size="14" lengthAdjust="spacing" textLength="49" x="1605.5" y="505.1641">Student</text><line style="stroke:#181818;stroke-width:0.5;" x1="1577.5" x2="1656.5" y1="513.6777" y2="513.6777"/><line style="stroke:#181818;stroke-width:0.5;" x1="1577.5" x2="1656.5" y1="521.6777" y2="521.6777"/></g><!--class MechanographicNumber--><g id="elem_MechanographicNumber"><rect codeLine="39" fill="#F1F1F1" height="60.582" id="MechanographicNumber" rx="2.5" ry="2.5" style="stroke:#181818;stroke-width:0.5;" width="186" x="1550" y="603.6348"/><ellipse cx="1565" cy="625.9258" fill="#FF8B40" rx="11" ry="11" style="stroke:#181818;stroke-width:1.0;"/><path d="M1565.5938,629.1914 L1568.0625,623.3164 L1567.6719,623.3164 Q1567.0625,623.3164 1566.7969,623.082 Q1566.5313,622.8477 1566.5313,622.457 Q1566.5313,622.082 1566.7969,621.8477 Q1567.0625,621.6133 1567.6719,621.6133 L1569.9531,621.6133 Q1570.5625,621.6133 1570.8281,621.8477 Q1571.0938,622.082 1571.0938,622.457 Q1571.0938,622.9258 1570.6875,623.1914 Q1570.5,623.3164 1569.9063,623.3164 L1566.4219,631.6758 L1564.7813,631.6758 L1561.2969,623.3164 Q1560.7031,623.3164 1560.5156,623.1914 Q1560.1094,622.9258 1560.1094,622.457 Q1560.1094,622.082 1560.375,621.8477 Q1560.6406,621.6133 1561.25,621.6133 L1563.5469,621.6133 Q1564.1563,621.6133 1564.4063,621.8477 Q1564.6719,622.082 1564.6719,622.457 Q1564.6719,622.8477 1564.4063,623.082 Q1564.1563,623.3164 1563.5469,623.3164 L1563.1406,623.3164 L1565.5938,629.1914 Z " fill="#000000"/><text fill="#000000" font-family="sans-serif" font-size="12" font-style="italic" lengthAdjust="spacing" textLength="81" x="1615.5" y="621.584">&#171;value object&#187;</text><text fill="#000000" font-family="sans-serif" font-size="14" lengthAdjust="spacing" textLength="154" x="1579" y="639.7031">MechanographicNumber</text><line style="stroke:#181818;stroke-width:0.5;" x1="1551" x2="1735" y1="648.2168" y2="648.2168"/><line style="stroke:#181818;stroke-width:0.5;" x1="1551" x2="1735" y1="656.2168" y2="656.2168"/></g><!--link Enrollment to EnrollmentStatus--><g id="link_Enrollment_EnrollmentStatus"><path codeLine="42" d="M1418,339.0248 C1418,373.0648 1418,422.6348 1418,455.7248 " fill="none" id="Enrollment-to-EnrollmentStatus" style="stroke:#181818;stroke-width:1.0;"/><polygon fill="#181818" points="1418,460.8948,1422,451.8948,1418,455.8948,1414,451.8948,1418,460.8948" style="stroke:#181818;stroke-width:1.0;"/></g><!--link Student to MechanographicNumber--><g id="link_Student_MechanographicNumber"><path codeLine="44" d="M1623.97,530.2848 C1627.88,551.4148 1632.72,577.6048 1636.55,598.2648 " fill="none" id="Student-to-MechanographicNumber" style="stroke:#181818;stroke-width:1.0;"/><polygon fill="#181818" points="1637.5,603.3948,1639.7863,593.815,1636.5855,598.4791,1631.9213,595.2782,1637.5,603.3948" style="stroke:#181818;stroke-width:1.0;"/></g><!--link Course to CourseTitle--><g id="link_Course_CourseTitle"><path codeLine="46" d="M518.99,123.2848 C442.61,127.1448 270.25,143.9248 149,216.6348 C129.01,228.6248 111.65,248.0548 98.99,265.0448 " fill="none" id="Course-to-CourseTitle" style="stroke:#181818;stroke-width:1.0;"/><polygon fill="#181818" points="95.87,269.3048,104.4119,264.4021,98.8219,265.2691,97.9548,259.6791,95.87,269.3048" style="stroke:#181818;stroke-width:1.0;"/></g><!--link Course to CourseCode--><g id="link_Course_CourseCode"><path codeLine="47" d="M518.98,129.9448 C465.41,142.0148 367.71,168.9248 297,216.6348 C277.74,229.6348 260.18,248.7248 247.01,265.2748 " fill="none" id="Course-to-CourseCode" style="stroke:#181818;stroke-width:1.0;"/><polygon fill="#181818" points="243.75,269.4148,252.4468,264.7925,246.8315,265.4772,246.1468,259.862,243.75,269.4148" style="stroke:#181818;stroke-width:1.0;"/></g><!--link Course to CourseDescription--><g id="link_Course_CourseDescription"><path codeLine="48" d="M522.16,159.6748 C492.21,191.0448 449.88,235.3648 421.05,265.5748 " fill="none" id="Course-to-CourseDescription" style="stroke:#181818;stroke-width:1.0;"/><polygon fill="#181818" points="417.25,269.5548,426.3616,265.8159,420.7061,265.9416,420.5804,260.2861,417.25,269.5548" style="stroke:#181818;stroke-width:1.0;"/></g><!--link Course to CourseStatus--><g id="link_Course_CourseStatus"><path codeLine="49" d="M558,159.6748 C558,190.6548 558,234.2848 558,264.4548 " fill="none" id="Course-to-CourseStatus" style="stroke:#181818;stroke-width:1.0;"/><polygon fill="#181818" points="558,269.5548,562,260.5548,558,264.5548,554,260.5548,558,269.5548" style="stroke:#181818;stroke-width:1.0;"/></g><!--link Course to EnrolmentLimits--><g id="link_Course_EnrolmentLimits"><path codeLine="50" d="M592.14,159.6748 C615.29,185.1148 646.19,219.0848 671.7,247.1348 " fill="none" id="Course-to-EnrolmentLimits" style="stroke:#181818;stroke-width:1.0;"/><polygon fill="#181818" points="675.1,250.8748,671.9949,241.5282,671.7324,247.1789,666.0816,246.9164,675.1,250.8748" style="stroke:#181818;stroke-width:1.0;"/></g><!--link Course to Exam--><g id="link_Course_Exam"><path codeLine="51" d="M597.23,136.3248 C645.74,154.0948 730.64,185.9448 802,216.6348 C848.44,236.6048 900.73,261.7648 935.75,279.0248 " fill="none" id="Course-to-Exam" style="stroke:#181818;stroke-width:1.0;"/><polygon fill="#181818" points="940.36,281.2948,934.0603,273.7242,935.8765,279.0816,930.5191,280.8978,940.36,281.2948" style="stroke:#181818;stroke-width:1.0;"/><polygon fill="#000000" points="792.6074,201.2225,785.4142,195.0009,783.131,200.4171,792.6074,201.2225" style="stroke:#000000;stroke-width:1.0;"/><text fill="#000000" font-family="sans-serif" font-size="13" lengthAdjust="spacing" textLength="21" x="797" y="204.6631">has</text><text fill="#000000" font-family="sans-serif" font-size="13" lengthAdjust="spacing" textLength="7" x="605.1083" y="134.6555">1</text><text fill="#000000" font-family="sans-serif" font-size="13" lengthAdjust="spacing" textLength="20" x="912.5156" y="273.6883">1..*</text></g><!--link Course to Enrollment--><g id="link_Course_Enrollment"><path codeLine="52" d="M597.22,124.5848 C731.4,133.3748 1171.01,165.4848 1302,216.6348 C1327.03,226.4148 1351.73,242.7648 1371.86,258.3548 " fill="none" id="Course-to-Enrollment" style="stroke:#181818;stroke-width:1.0;"/><polygon fill="#181818" points="1375.83,261.4548,1371.2077,252.758,1371.8925,258.3732,1366.2772,259.058,1375.83,261.4548" style="stroke:#181818;stroke-width:1.0;"/><polygon fill="#000000" points="1279.9271,200.1311,1271.514,195.6959,1270.5138,201.488,1279.9271,200.1311" style="stroke:#000000;stroke-width:1.0;"/><text fill="#000000" font-family="sans-serif" font-size="13" lengthAdjust="spacing" textLength="21" x="1284" y="204.6631">has</text><text fill="#000000" font-family="sans-serif" font-size="13" lengthAdjust="spacing" textLength="7" x="605.0965" y="120.751">1</text><text fill="#000000" font-family="sans-serif" font-size="13" lengthAdjust="spacing" textLength="20" x="1346.8633" y="250.4383">0..*</text></g><!--link Enrollment to Student--><g id="link_Enrollment_Student"><path codeLine="54" d="M1457.79,339.0248 C1491.39,371.0248 1539.4,416.7348 1573.9,449.5948 " fill="none" id="Enrollment-to-Student" style="stroke:#181818;stroke-width:1.0;"/><polygon fill="#181818" points="1577.62,453.1348,1573.8444,444.0384,1573.9929,449.6933,1568.338,449.8418,1577.62,453.1348" style="stroke:#181818;stroke-width:1.0;"/><text fill="#000000" font-family="sans-serif" font-size="13" lengthAdjust="spacing" textLength="21" x="1518" y="396.1631">has</text><text fill="#000000" font-family="sans-serif" font-size="13" lengthAdjust="spacing" textLength="20" x="1442.1654" y="360.0684">1..*</text><text fill="#000000" font-family="sans-serif" font-size="13" lengthAdjust="spacing" textLength="7" x="1562.982" y="441.8578">1</text></g><!--link Exam to ExamTitle--><g id="link_Exam_ExamTitle"><path codeLine="56" d="M960.2,339.0248 C945.95,373.2048 925.18,423.0448 911.38,456.1348 " fill="none" id="Exam-to-ExamTitle" style="stroke:#181818;stroke-width:1.0;"/><polygon fill="#181818" points="909.4,460.8948,916.5613,454.1334,911.3281,456.2815,909.18,451.0484,909.4,460.8948" style="stroke:#181818;stroke-width:1.0;"/></g><!--link Exam to ExamDateTime--><g id="link_Exam_ExamDateTime"><path codeLine="57" d="M1011.66,321.1648 C1046.16,341.2448 1099.22,374.0048 1141,408.1348 C1152.45,417.4948 1164.02,428.2948 1174.69,438.9348 " fill="none" id="Exam-to-ExamDateTime" style="stroke:#181818;stroke-width:1.0;"/><polygon fill="#181818" points="1178.27,442.5348,1174.753,433.3353,1174.7416,438.9921,1169.0848,438.9807,1178.27,442.5348" style="stroke:#181818;stroke-width:1.0;"/></g><!--link Exam to ExamDescription--><g id="link_Exam_ExamDescription"><path codeLine="58" d="M991.8,339.0248 C1006.05,373.2048 1026.82,423.0448 1040.62,456.1348 " fill="none" id="Exam-to-ExamDescription" style="stroke:#181818;stroke-width:1.0;"/><polygon fill="#181818" points="1042.6,460.8948,1042.82,451.0484,1040.6719,456.2815,1035.4387,454.1334,1042.6,460.8948" style="stroke:#181818;stroke-width:1.0;"/></g><!--SRC=[dLF1KeCm5BpdAzxWmUf8XtOyE4w6WxGzgPTMxobaQ9Ga30bQn-c_IqgW3D3IcXjlTyE-VNcQwOJ2J7B210G9KOeg6Cs26t3XRGbJpviYf6KAMi9QQYqvH2oZeMPI87GTo3nJ5AKa_2Gn1GTZ4iSPZOcclWybwi0lWk9GePd-iKN0kFmkQ1XdKchVtxD2uy6ILdjp68_Ux-1giNXuklTku8iaEGMv_YXCz6W26LqgcL4LPYmrBLseN6gYStMsQ2uocV2YxsV6cLPmMcXZCuSpmNZEQ_q18Diki4ExOZJpBU771cEmrbXCQM0eXdBPI8pYF-dkTONL5UFqx91aIWKJSQMhws4YLRjk8pAnbRaT2wfcjEEgWQ7GQk9PZyNOMkeyEk79mYr3jZhWveM66o9ad95qmyBNdAzfDkoeqQmRoM_X-fss4AeCL8o-No5ajxyYDVQy7pBht8yqtbK_mHfhOQqTh61due1RmCvaFBvrocruX0rHu7SeNaavX58Hcq7PYyexdNeyUsf1DFVNbggzwfRhHzj56kt_0G00]--></g></svg>