<?xml version="1.0" encoding="us-ascii" standalone="no"?><svg xmlns="http://www.w3.org/2000/svg" xmlns:xlink="http://www.w3.org/1999/xlink" contentStyleType="text/css" height="560px" preserveAspectRatio="none" style="width:1197px;height:560px;background:#FFFFFF;" version="1.1" viewBox="0 0 1197 560" width="1197px" zoomAndPan="magnify"><defs/><g><text fill="#000000" font-family="sans-serif" font-size="14" font-weight="bold" lengthAdjust="spacing" textLength="233" x="481" y="30.1074">Sequence Diagram (SD) - US 2002</text><rect fill="#FFFFFF" height="304.9102" style="stroke:#181818;stroke-width:1.0;" width="10" x="21" y="137.8633"/><rect fill="#FFFFFF" height="281.6191" style="stroke:#181818;stroke-width:1.0;" width="10" x="317" y="161.1543"/><rect fill="#FFFFFF" height="156.4551" style="stroke:#181818;stroke-width:1.0;" width="10" x="483" y="255.0273"/><rect fill="#FFFFFF" height="93.873" style="stroke:#181818;stroke-width:1.0;" width="10" x="665" y="286.3184"/><rect fill="#FFFFFF" height="31.291" style="stroke:#181818;stroke-width:1.0;" width="10" x="902" y="317.6094"/><line style="stroke:#181818;stroke-width:0.5;stroke-dasharray:5.0,5.0;" x1="26" x2="26" y1="127.8633" y2="460.7734"/><line style="stroke:#181818;stroke-width:0.5;stroke-dasharray:5.0,5.0;" x1="321.5" x2="321.5" y1="127.8633" y2="460.7734"/><line style="stroke:#181818;stroke-width:0.5;stroke-dasharray:5.0,5.0;" x1="487.5" x2="487.5" y1="127.8633" y2="460.7734"/><line style="stroke:#181818;stroke-width:0.5;stroke-dasharray:5.0,5.0;" x1="669.5" x2="669.5" y1="127.8633" y2="460.7734"/><line style="stroke:#181818;stroke-width:0.5;stroke-dasharray:5.0,5.0;" x1="907" x2="907" y1="127.8633" y2="460.7734"/><line style="stroke:#181818;stroke-width:0.5;stroke-dasharray:5.0,5.0;" x1="1030" x2="1030" y1="127.8633" y2="460.7734"/><line style="stroke:#181818;stroke-width:0.5;stroke-dasharray:5.0,5.0;" x1="1144" x2="1144" y1="127.8633" y2="460.7734"/><text fill="#000000" font-family="sans-serif" font-size="14" lengthAdjust="spacing" textLength="36" x="5" y="124.3496">Aluno</text><ellipse cx="26" cy="57.7422" fill="#E3E3E3" rx="8" ry="8" style="stroke:#181818;stroke-width:0.5;"/><path d="M26,65.7422 L26,92.7422 M13,73.7422 L39,73.7422 M26,92.7422 L13,107.7422 M26,92.7422 L39,107.7422 " fill="none" style="stroke:#181818;stroke-width:0.5;"/><text fill="#000000" font-family="sans-serif" font-size="14" lengthAdjust="spacing" textLength="36" x="5" y="474.8809">Aluno</text><ellipse cx="26" cy="486.8945" fill="#E3E3E3" rx="8" ry="8" style="stroke:#181818;stroke-width:0.5;"/><path d="M26,494.8945 L26,521.8945 M13,502.8945 L39,502.8945 M26,521.8945 L13,536.8945 M26,521.8945 L39,536.8945 " fill="none" style="stroke:#181818;stroke-width:0.5;"/><rect fill="#E3E3E3" height="51.2422" rx="2.5" ry="2.5" style="stroke:#181818;stroke-width:0.5;" width="135" x="254.5" y="75.6211"/><text fill="#000000" font-family="sans-serif" font-size="14" lengthAdjust="spacing" textLength="95" x="272.5" y="97.7285">&#171;presentation&#187;</text><text fill="#000000" font-family="sans-serif" font-size="14" lengthAdjust="spacing" textLength="117" x="265.5" y="116.3496">ListFutureExamsUI</text><rect fill="#E3E3E3" height="51.2422" rx="2.5" ry="2.5" style="stroke:#181818;stroke-width:0.5;" width="135" x="254.5" y="459.7734"/><text fill="#000000" font-family="sans-serif" font-size="14" lengthAdjust="spacing" textLength="95" x="272.5" y="481.8809">&#171;presentation&#187;</text><text fill="#000000" font-family="sans-serif" font-size="14" lengthAdjust="spacing" textLength="117" x="265.5" y="500.502">ListFutureExamsUI</text><text fill="#000000" font-family="sans-serif" font-size="14" lengthAdjust="spacing" textLength="84" x="441" y="105.7285">&#171;application&#187;</text><text fill="#000000" font-family="sans-serif" font-size="14" lengthAdjust="spacing" textLength="167" x="403.5" y="124.3496">ListFutureExamsController</text><ellipse cx="488" cy="74.6211" fill="#E3E3E3" rx="12" ry="12" style="stroke:#181818;stroke-width:0.5;"/><polygon fill="#181818" points="484,62.6211,490,57.6211,488,62.6211,490,67.6211,484,62.6211" style="stroke:#181818;stroke-width:1.0;"/><text fill="#000000" font-family="sans-serif" font-size="14" lengthAdjust="spacing" textLength="84" x="441" y="474.8809">&#171;application&#187;</text><text fill="#000000" font-family="sans-serif" font-size="14" lengthAdjust="spacing" textLength="167" x="403.5" y="493.502">ListFutureExamsController</text><ellipse cx="488" cy="513.0156" fill="#E3E3E3" rx="12" ry="12" style="stroke:#181818;stroke-width:0.5;"/><polygon fill="#181818" points="484,501.0156,490,496.0156,488,501.0156,490,506.0156,484,501.0156" style="stroke:#181818;stroke-width:1.0;"/><rect fill="#E3E3E3" height="51.2422" rx="2.5" ry="2.5" style="stroke:#181818;stroke-width:0.5;" width="121" x="609.5" y="75.6211"/><text fill="#000000" font-family="sans-serif" font-size="14" lengthAdjust="spacing" textLength="84" x="626" y="97.7285">&#171;application&#187;</text><text fill="#000000" font-family="sans-serif" font-size="14" lengthAdjust="spacing" textLength="103" x="620.5" y="116.3496">ListExamService</text><rect fill="#E3E3E3" height="51.2422" rx="2.5" ry="2.5" style="stroke:#181818;stroke-width:0.5;" width="121" x="609.5" y="459.7734"/><text fill="#000000" font-family="sans-serif" font-size="14" lengthAdjust="spacing" textLength="84" x="626" y="481.8809">&#171;application&#187;</text><text fill="#000000" font-family="sans-serif" font-size="14" lengthAdjust="spacing" textLength="103" x="620.5" y="500.502">ListExamService</text><text fill="#000000" font-family="sans-serif" font-size="14" lengthAdjust="spacing" textLength="79" x="862.5" y="105.7285">&#171;repository&#187;</text><text fill="#000000" font-family="sans-serif" font-size="14" lengthAdjust="spacing" textLength="102" x="855" y="124.3496">ExamRepository</text><path d="M889,54.6211 C889,44.6211 907,44.6211 907,44.6211 C907,44.6211 925,44.6211 925,54.6211 L925,80.6211 C925,90.6211 907,90.6211 907,90.6211 C907,90.6211 889,90.6211 889,80.6211 L889,54.6211 " fill="#E3E3E3" style="stroke:#181818;stroke-width:1.5;"/><path d="M889,54.6211 C889,64.6211 907,64.6211 907,64.6211 C907,64.6211 925,64.6211 925,54.6211 " fill="none" style="stroke:#181818;stroke-width:1.5;"/><text fill="#000000" font-family="sans-serif" font-size="14" lengthAdjust="spacing" textLength="79" x="862.5" y="474.8809">&#171;repository&#187;</text><text fill="#000000" font-family="sans-serif" font-size="14" lengthAdjust="spacing" textLength="102" x="855" y="493.502">ExamRepository</text><path d="M889,507.0156 C889,497.0156 907,497.0156 907,497.0156 C907,497.0156 925,497.0156 925,507.0156 L925,533.0156 C925,543.0156 907,543.0156 907,543.0156 C907,543.0156 889,543.0156 889,533.0156 L889,507.0156 " fill="#E3E3E3" style="stroke:#181818;stroke-width:1.5;"/><path d="M889,507.0156 C889,517.0156 907,517.0156 907,517.0156 C907,517.0156 925,517.0156 925,507.0156 " fill="none" style="stroke:#181818;stroke-width:1.5;"/><rect fill="#E3E3E3" height="51.2422" rx="2.5" ry="2.5" style="stroke:#181818;stroke-width:0.5;" width="115" x="973" y="75.6211"/><text fill="#000000" font-family="sans-serif" font-size="14" lengthAdjust="spacing" textLength="62" x="997.5" y="97.7285">&#171;domain&#187;</text><text fill="#000000" font-family="sans-serif" font-size="14" lengthAdjust="spacing" textLength="97" x="984" y="116.3496">course: Course</text><rect fill="#E3E3E3" height="51.2422" rx="2.5" ry="2.5" style="stroke:#181818;stroke-width:0.5;" width="115" x="973" y="459.7734"/><text fill="#000000" font-family="sans-serif" font-size="14" lengthAdjust="spacing" textLength="62" x="997.5" y="481.8809">&#171;domain&#187;</text><text fill="#000000" font-family="sans-serif" font-size="14" lengthAdjust="spacing" textLength="97" x="984" y="500.502">course: Course</text><rect fill="#E3E3E3" height="51.2422" rx="2.5" ry="2.5" style="stroke:#181818;stroke-width:0.5;" width="93" x="1098" y="75.6211"/><text fill="#000000" font-family="sans-serif" font-size="14" lengthAdjust="spacing" textLength="62" x="1111.5" y="97.7285">&#171;domain&#187;</text><text fill="#000000" font-family="sans-serif" font-size="14" lengthAdjust="spacing" textLength="75" x="1109" y="116.3496">exam: Exam</text><rect fill="#E3E3E3" height="51.2422" rx="2.5" ry="2.5" style="stroke:#181818;stroke-width:0.5;" width="93" x="1098" y="459.7734"/><text fill="#000000" font-family="sans-serif" font-size="14" lengthAdjust="spacing" textLength="62" x="1111.5" y="481.8809">&#171;domain&#187;</text><text fill="#000000" font-family="sans-serif" font-size="14" lengthAdjust="spacing" textLength="75" x="1109" y="500.502">exam: Exam</text><rect fill="#FFFFFF" height="304.9102" style="stroke:#181818;stroke-width:1.0;" width="10" x="21" y="137.8633"/><rect fill="#FFFFFF" height="281.6191" style="stroke:#181818;stroke-width:1.0;" width="10" x="317" y="161.1543"/><rect fill="#FFFFFF" height="156.4551" style="stroke:#181818;stroke-width:1.0;" width="10" x="483" y="255.0273"/><rect fill="#FFFFFF" height="93.873" style="stroke:#181818;stroke-width:1.0;" width="10" x="665" y="286.3184"/><rect fill="#FFFFFF" height="31.291" style="stroke:#181818;stroke-width:1.0;" width="10" x="902" y="317.6094"/><polygon fill="#181818" points="305,157.1543,315,161.1543,305,165.1543,309,161.1543" style="stroke:#181818;stroke-width:1.0;"/><line style="stroke:#181818;stroke-width:1.0;" x1="31" x2="311" y1="161.1543" y2="161.1543"/><text fill="#000000" font-family="sans-serif" font-size="13" font-weight="bold" lengthAdjust="spacing" textLength="7" x="38" y="155.8916">1</text><text fill="#000000" font-family="sans-serif" font-size="13" lengthAdjust="spacing" textLength="238" x="49" y="155.8916">Pede para listar todos os exames futuros</text><polygon fill="#181818" points="476,188.4453,486,192.4453,476,196.4453,480,192.4453" style="stroke:#181818;stroke-width:1.0;"/><line style="stroke:#181818;stroke-width:1.0;" x1="327" x2="482" y1="192.4453" y2="192.4453"/><text fill="#000000" font-family="sans-serif" font-size="13" font-weight="bold" lengthAdjust="spacing" textLength="7" x="334" y="187.1826">2</text><text fill="#000000" font-family="sans-serif" font-size="13" lengthAdjust="spacing" textLength="36" x="345" y="187.1826">create</text><polygon fill="#181818" points="658,219.7363,668,223.7363,658,227.7363,662,223.7363" style="stroke:#181818;stroke-width:1.0;"/><line style="stroke:#181818;stroke-width:1.0;" x1="488" x2="664" y1="223.7363" y2="223.7363"/><text fill="#000000" font-family="sans-serif" font-size="13" font-weight="bold" lengthAdjust="spacing" textLength="7" x="495" y="218.4736">3</text><text fill="#000000" font-family="sans-serif" font-size="13" lengthAdjust="spacing" textLength="36" x="506" y="218.4736">create</text><polygon fill="#181818" points="471,251.0273,481,255.0273,471,259.0273,475,255.0273" style="stroke:#181818;stroke-width:1.0;"/><line style="stroke:#181818;stroke-width:1.0;" x1="327" x2="477" y1="255.0273" y2="255.0273"/><text fill="#000000" font-family="sans-serif" font-size="13" font-weight="bold" lengthAdjust="spacing" textLength="7" x="334" y="249.7646">4</text><text fill="#000000" font-family="sans-serif" font-size="13" lengthAdjust="spacing" textLength="103" x="345" y="249.7646">listFutureExams()</text><polygon fill="#181818" points="653,282.3184,663,286.3184,653,290.3184,657,286.3184" style="stroke:#181818;stroke-width:1.0;"/><line style="stroke:#181818;stroke-width:1.0;" x1="493" x2="659" y1="286.3184" y2="286.3184"/><text fill="#000000" font-family="sans-serif" font-size="13" font-weight="bold" lengthAdjust="spacing" textLength="7" x="500" y="281.0557">5</text><text fill="#000000" font-family="sans-serif" font-size="13" lengthAdjust="spacing" textLength="142" x="511" y="281.0557">allFutureExams(student)</text><polygon fill="#181818" points="890,313.6094,900,317.6094,890,321.6094,894,317.6094" style="stroke:#181818;stroke-width:1.0;"/><line style="stroke:#181818;stroke-width:1.0;" x1="675" x2="896" y1="317.6094" y2="317.6094"/><text fill="#000000" font-family="sans-serif" font-size="13" font-weight="bold" lengthAdjust="spacing" textLength="7" x="682" y="312.3467">6</text><text fill="#000000" font-family="sans-serif" font-size="13" lengthAdjust="spacing" textLength="197" x="693" y="312.3467">list = findAllFutureExams(student)</text><polygon fill="#181818" points="686,344.9004,676,348.9004,686,352.9004,682,348.9004" style="stroke:#181818;stroke-width:1.0;"/><line style="stroke:#181818;stroke-width:1.0;stroke-dasharray:2.0,2.0;" x1="680" x2="906" y1="348.9004" y2="348.9004"/><text fill="#000000" font-family="sans-serif" font-size="13" font-weight="bold" lengthAdjust="spacing" textLength="7" x="692" y="343.6377">7</text><text fill="#000000" font-family="sans-serif" font-size="13" lengthAdjust="spacing" textLength="4" x="703" y="343.6377">&#160;</text><polygon fill="#181818" points="504,376.1914,494,380.1914,504,384.1914,500,380.1914" style="stroke:#181818;stroke-width:1.0;"/><line style="stroke:#181818;stroke-width:1.0;stroke-dasharray:2.0,2.0;" x1="498" x2="669" y1="380.1914" y2="380.1914"/><text fill="#000000" font-family="sans-serif" font-size="13" font-weight="bold" lengthAdjust="spacing" textLength="7" x="510" y="374.9287">8</text><text fill="#000000" font-family="sans-serif" font-size="13" lengthAdjust="spacing" textLength="17" x="521" y="374.9287">list</text><polygon fill="#181818" points="338,407.4824,328,411.4824,338,415.4824,334,411.4824" style="stroke:#181818;stroke-width:1.0;"/><line style="stroke:#181818;stroke-width:1.0;stroke-dasharray:2.0,2.0;" x1="332" x2="487" y1="411.4824" y2="411.4824"/><text fill="#000000" font-family="sans-serif" font-size="13" font-weight="bold" lengthAdjust="spacing" textLength="7" x="344" y="406.2197">9</text><text fill="#000000" font-family="sans-serif" font-size="13" lengthAdjust="spacing" textLength="17" x="355" y="406.2197">list</text><polygon fill="#181818" points="37,438.7734,27,442.7734,37,446.7734,33,442.7734" style="stroke:#181818;stroke-width:1.0;"/><line style="stroke:#181818;stroke-width:1.0;stroke-dasharray:2.0,2.0;" x1="31" x2="321" y1="442.7734" y2="442.7734"/><text fill="#000000" font-family="sans-serif" font-size="13" font-weight="bold" lengthAdjust="spacing" textLength="14" x="43" y="437.5107">10</text><text fill="#000000" font-family="sans-serif" font-size="13" lengthAdjust="spacing" textLength="244" x="61" y="437.5107">Mostra a lista de todos os exames futuros</text><!--SRC=[ZP9FJ-Cm4CNl-HGZJd2eX3XMK0cL8bK2WH9OxM4lWpCj5euTx34ittx7asx_H5sqKQGadlTxOyzBUhE-nuWTTC47ynf3Hy0nKvMsbHxD6wwfuIz74Cam-hNR5wHNRCEdzMjOeKjKLMnPf0szP_A6uCRYkkXEcvipcC1p0nVdvnTLXPc3pzqBHNat729Sk-m3O19DNOavMsDxz0mdbvTzf4IUaMtmindyyd1d4zzcpf4Mlx5BpyiJHPUL2PvZS8N2ldVM_1kQ3r97KU7vKtqtRdpKei0DnGzhIC5cKV-eMcHymKI5YjI7PELGNmDKW7gxfaozU7mODsj3XtRJnuGS4qrXhizXVtNp7K7IPAgjLBtuUQ-JjH_8f3EjG2vvWSbC1WLJUAIMeCG8Jaw54JYq8O7SnOiIhCgiGb9mPxNSE2sBKHcQM9b8KXiAkYIbCfPHwO1nXscSdXtsqJYE6Q9p-rZYtCg_CQ8r4rrIIkWoyKrNk8ALzUtr_nXfK8EJEaos6z6rbaRANSl3auxLkmqEn_iRoZ7jRXHbW4KfAKxXFYIMy3Rn2V1jW7j-9SBzJ_av_W00]--></g></svg>