<?xml version="1.0" encoding="us-ascii" standalone="no"?><svg xmlns="http://www.w3.org/2000/svg" xmlns:xlink="http://www.w3.org/1999/xlink" contentStyleType="text/css" height="507px" preserveAspectRatio="none" style="width:902px;height:507px;background:#FFFFFF;" version="1.1" viewBox="0 0 902 507" width="902px" zoomAndPan="magnify"><defs/><g><text fill="#000000" font-family="sans-serif" font-size="14" font-weight="bold" lengthAdjust="spacing" textLength="247" x="320.5" y="22.9951">Class Diagram (SSD) - US 1010</text><!--class CreateRecurringClassUI--><g id="elem_CreateRecurringClassUI"><rect codeLine="4" fill="#F1F1F1" height="72.5625" id="CreateRecurringClassUI" rx="2.5" ry="2.5" style="stroke:#181818;stroke-width:0.5;" width="199" x="471" y="44.2969"/><ellipse cx="486" cy="64.4297" fill="#ADD1B2" rx="11" ry="11" style="stroke:#181818;stroke-width:1.0;"/><path d="M488.3438,60.1016 C487.4063,59.6641 486.8125,59.5234 485.9375,59.5234 C483.3125,59.5234 481.3125,61.6016 481.3125,64.3203 L481.3125,65.4453 C481.3125,68.0234 483.4219,69.9141 486.3125,69.9141 C487.5313,69.9141 488.6875,69.6172 489.4375,69.0703 C490.0156,68.6641 490.3438,68.2109 490.3438,67.8203 C490.3438,67.3672 489.9531,66.9766 489.4844,66.9766 C489.2656,66.9766 489.0625,67.0547 488.875,67.2422 C488.4219,67.7266 488.4219,67.7266 488.2344,67.8203 C487.8125,68.0859 487.125,68.2109 486.3594,68.2109 C484.3125,68.2109 483.0156,67.1172 483.0156,65.4141 L483.0156,64.3203 C483.0156,62.5391 484.2656,61.2266 486,61.2266 C486.5781,61.2266 487.1875,61.3828 487.6563,61.6328 C488.1406,61.9141 488.3125,62.1328 488.4063,62.5391 C488.4688,62.9453 488.5,63.0703 488.6406,63.1953 C488.7813,63.3359 489.0156,63.4453 489.2344,63.4453 C489.5,63.4453 489.7656,63.3047 489.9375,63.0859 C490.0469,62.9297 490.0781,62.7422 490.0781,62.3203 L490.0781,60.8984 C490.0781,60.4609 490.0625,60.3359 489.9688,60.1797 C489.8125,59.9141 489.5313,59.7734 489.2344,59.7734 C488.9375,59.7734 488.7344,59.8672 488.5156,60.1797 L488.3438,60.1016 Z " fill="#000000"/><text fill="#000000" font-family="sans-serif" font-size="12" font-style="italic" lengthAdjust="spacing" textLength="90" x="538.5" y="60.4355">&#171;presentation&#187;</text><text fill="#000000" font-family="sans-serif" font-size="14" lengthAdjust="spacing" textLength="167" x="500" y="76.2607">CreateRecurringClassUI</text><line style="stroke:#181818;stroke-width:0.5;" x1="472" x2="669" y1="84.5625" y2="84.5625"/><line style="stroke:#181818;stroke-width:0.5;" x1="472" x2="669" y1="92.5625" y2="92.5625"/><text fill="#000000" font-family="sans-serif" font-size="14" lengthAdjust="spacing" textLength="66" x="477" y="109.5576">doShow()</text></g><!--class JpaCourseRepository--><g id="elem_JpaCourseRepository"><rect codeLine="8" fill="#F1F1F1" height="56.2656" id="JpaCourseRepository" rx="2.5" ry="2.5" style="stroke:#181818;stroke-width:0.5;" width="182" x="273.5" y="444.2969"/><ellipse cx="288.5" cy="464.4297" fill="#ADD1B2" rx="11" ry="11" style="stroke:#181818;stroke-width:1.0;"/><path d="M290.8438,460.1016 C289.9063,459.6641 289.3125,459.5234 288.4375,459.5234 C285.8125,459.5234 283.8125,461.6016 283.8125,464.3203 L283.8125,465.4453 C283.8125,468.0234 285.9219,469.9141 288.8125,469.9141 C290.0313,469.9141 291.1875,469.6172 291.9375,469.0703 C292.5156,468.6641 292.8438,468.2109 292.8438,467.8203 C292.8438,467.3672 292.4531,466.9766 291.9844,466.9766 C291.7656,466.9766 291.5625,467.0547 291.375,467.2422 C290.9219,467.7266 290.9219,467.7266 290.7344,467.8203 C290.3125,468.0859 289.625,468.2109 288.8594,468.2109 C286.8125,468.2109 285.5156,467.1172 285.5156,465.4141 L285.5156,464.3203 C285.5156,462.5391 286.7656,461.2266 288.5,461.2266 C289.0781,461.2266 289.6875,461.3828 290.1563,461.6328 C290.6406,461.9141 290.8125,462.1328 290.9063,462.5391 C290.9688,462.9453 291,463.0703 291.1406,463.1953 C291.2813,463.3359 291.5156,463.4453 291.7344,463.4453 C292,463.4453 292.2656,463.3047 292.4375,463.0859 C292.5469,462.9297 292.5781,462.7422 292.5781,462.3203 L292.5781,460.8984 C292.5781,460.4609 292.5625,460.3359 292.4688,460.1797 C292.3125,459.9141 292.0313,459.7734 291.7344,459.7734 C291.4375,459.7734 291.2344,459.8672 291.0156,460.1797 L290.8438,460.1016 Z " fill="#000000"/><text fill="#000000" font-family="sans-serif" font-size="12" font-style="italic" lengthAdjust="spacing" textLength="83" x="336" y="460.4355">&#171;persistence&#187;</text><text fill="#000000" font-family="sans-serif" font-size="14" lengthAdjust="spacing" textLength="150" x="302.5" y="476.2607">JpaCourseRepository</text><line style="stroke:#181818;stroke-width:0.5;" x1="274.5" x2="454.5" y1="484.5625" y2="484.5625"/><line style="stroke:#181818;stroke-width:0.5;" x1="274.5" x2="454.5" y1="492.5625" y2="492.5625"/></g><!--class InMemoryCourseRepository--><g id="elem_InMemoryCourseRepository"><rect codeLine="9" fill="#F1F1F1" height="56.2656" id="InMemoryCourseRepository" rx="2.5" ry="2.5" style="stroke:#181818;stroke-width:0.5;" width="231" x="7" y="444.2969"/><ellipse cx="22" cy="464.4297" fill="#ADD1B2" rx="11" ry="11" style="stroke:#181818;stroke-width:1.0;"/><path d="M24.3438,460.1016 C23.4063,459.6641 22.8125,459.5234 21.9375,459.5234 C19.3125,459.5234 17.3125,461.6016 17.3125,464.3203 L17.3125,465.4453 C17.3125,468.0234 19.4219,469.9141 22.3125,469.9141 C23.5313,469.9141 24.6875,469.6172 25.4375,469.0703 C26.0156,468.6641 26.3438,468.2109 26.3438,467.8203 C26.3438,467.3672 25.9531,466.9766 25.4844,466.9766 C25.2656,466.9766 25.0625,467.0547 24.875,467.2422 C24.4219,467.7266 24.4219,467.7266 24.2344,467.8203 C23.8125,468.0859 23.125,468.2109 22.3594,468.2109 C20.3125,468.2109 19.0156,467.1172 19.0156,465.4141 L19.0156,464.3203 C19.0156,462.5391 20.2656,461.2266 22,461.2266 C22.5781,461.2266 23.1875,461.3828 23.6563,461.6328 C24.1406,461.9141 24.3125,462.1328 24.4063,462.5391 C24.4688,462.9453 24.5,463.0703 24.6406,463.1953 C24.7813,463.3359 25.0156,463.4453 25.2344,463.4453 C25.5,463.4453 25.7656,463.3047 25.9375,463.0859 C26.0469,462.9297 26.0781,462.7422 26.0781,462.3203 L26.0781,460.8984 C26.0781,460.4609 26.0625,460.3359 25.9688,460.1797 C25.8125,459.9141 25.5313,459.7734 25.2344,459.7734 C24.9375,459.7734 24.7344,459.8672 24.5156,460.1797 L24.3438,460.1016 Z " fill="#000000"/><text fill="#000000" font-family="sans-serif" font-size="12" font-style="italic" lengthAdjust="spacing" textLength="83" x="94" y="460.4355">&#171;persistence&#187;</text><text fill="#000000" font-family="sans-serif" font-size="14" lengthAdjust="spacing" textLength="199" x="36" y="476.2607">InMemoryCourseRepository</text><line style="stroke:#181818;stroke-width:0.5;" x1="8" x2="237" y1="484.5625" y2="484.5625"/><line style="stroke:#181818;stroke-width:0.5;" x1="8" x2="237" y1="492.5625" y2="492.5625"/></g><!--class Course--><g id="elem_Course"><rect codeLine="11" fill="#F1F1F1" height="56.2656" id="Course" rx="2.5" ry="2.5" style="stroke:#181818;stroke-width:0.5;" width="87" x="333" y="327.2969"/><ellipse cx="348" cy="347.4297" fill="#ADD1B2" rx="11" ry="11" style="stroke:#181818;stroke-width:1.0;"/><path d="M350.3438,343.1016 C349.4063,342.6641 348.8125,342.5234 347.9375,342.5234 C345.3125,342.5234 343.3125,344.6016 343.3125,347.3203 L343.3125,348.4453 C343.3125,351.0234 345.4219,352.9141 348.3125,352.9141 C349.5313,352.9141 350.6875,352.6172 351.4375,352.0703 C352.0156,351.6641 352.3438,351.2109 352.3438,350.8203 C352.3438,350.3672 351.9531,349.9766 351.4844,349.9766 C351.2656,349.9766 351.0625,350.0547 350.875,350.2422 C350.4219,350.7266 350.4219,350.7266 350.2344,350.8203 C349.8125,351.0859 349.125,351.2109 348.3594,351.2109 C346.3125,351.2109 345.0156,350.1172 345.0156,348.4141 L345.0156,347.3203 C345.0156,345.5391 346.2656,344.2266 348,344.2266 C348.5781,344.2266 349.1875,344.3828 349.6563,344.6328 C350.1406,344.9141 350.3125,345.1328 350.4063,345.5391 C350.4688,345.9453 350.5,346.0703 350.6406,346.1953 C350.7813,346.3359 351.0156,346.4453 351.2344,346.4453 C351.5,346.4453 351.7656,346.3047 351.9375,346.0859 C352.0469,345.9297 352.0781,345.7422 352.0781,345.3203 L352.0781,343.8984 C352.0781,343.4609 352.0625,343.3359 351.9688,343.1797 C351.8125,342.9141 351.5313,342.7734 351.2344,342.7734 C350.9375,342.7734 350.7344,342.8672 350.5156,343.1797 L350.3438,343.1016 Z " fill="#000000"/><text fill="#000000" font-family="sans-serif" font-size="12" font-style="italic" lengthAdjust="spacing" textLength="59" x="360" y="343.4355">&#171;domain&#187;</text><text fill="#000000" font-family="sans-serif" font-size="14" lengthAdjust="spacing" textLength="49" x="365" y="359.2607">Course</text><line style="stroke:#181818;stroke-width:0.5;" x1="334" x2="419" y1="367.5625" y2="367.5625"/><line style="stroke:#181818;stroke-width:0.5;" x1="334" x2="419" y1="375.5625" y2="375.5625"/></g><!--class RecurringClass--><g id="elem_RecurringClass"><rect codeLine="12" fill="#F1F1F1" height="56.2656" id="RecurringClass" rx="2.5" ry="2.5" style="stroke:#181818;stroke-width:0.5;" width="137" x="758" y="327.2969"/><ellipse cx="773" cy="347.4297" fill="#ADD1B2" rx="11" ry="11" style="stroke:#181818;stroke-width:1.0;"/><path d="M775.3438,343.1016 C774.4063,342.6641 773.8125,342.5234 772.9375,342.5234 C770.3125,342.5234 768.3125,344.6016 768.3125,347.3203 L768.3125,348.4453 C768.3125,351.0234 770.4219,352.9141 773.3125,352.9141 C774.5313,352.9141 775.6875,352.6172 776.4375,352.0703 C777.0156,351.6641 777.3438,351.2109 777.3438,350.8203 C777.3438,350.3672 776.9531,349.9766 776.4844,349.9766 C776.2656,349.9766 776.0625,350.0547 775.875,350.2422 C775.4219,350.7266 775.4219,350.7266 775.2344,350.8203 C774.8125,351.0859 774.125,351.2109 773.3594,351.2109 C771.3125,351.2109 770.0156,350.1172 770.0156,348.4141 L770.0156,347.3203 C770.0156,345.5391 771.2656,344.2266 773,344.2266 C773.5781,344.2266 774.1875,344.3828 774.6563,344.6328 C775.1406,344.9141 775.3125,345.1328 775.4063,345.5391 C775.4688,345.9453 775.5,346.0703 775.6406,346.1953 C775.7813,346.3359 776.0156,346.4453 776.2344,346.4453 C776.5,346.4453 776.7656,346.3047 776.9375,346.0859 C777.0469,345.9297 777.0781,345.7422 777.0781,345.3203 L777.0781,343.8984 C777.0781,343.4609 777.0625,343.3359 776.9688,343.1797 C776.8125,342.9141 776.5313,342.7734 776.2344,342.7734 C775.9375,342.7734 775.7344,342.8672 775.5156,343.1797 L775.3438,343.1016 Z " fill="#000000"/><text fill="#000000" font-family="sans-serif" font-size="12" font-style="italic" lengthAdjust="spacing" textLength="59" x="810" y="343.4355">&#171;domain&#187;</text><text fill="#000000" font-family="sans-serif" font-size="14" lengthAdjust="spacing" textLength="105" x="787" y="359.2607">RecurringClass</text><line style="stroke:#181818;stroke-width:0.5;" x1="759" x2="894" y1="367.5625" y2="367.5625"/><line style="stroke:#181818;stroke-width:0.5;" x1="759" x2="894" y1="375.5625" y2="375.5625"/></g><!--class CreateRecurringClassController--><g id="elem_CreateRecurringClassController"><rect codeLine="14" fill="#F1F1F1" height="56.2656" id="CreateRecurringClassController" rx="2.5" ry="2.5" style="stroke:#181818;stroke-width:0.5;" width="259" x="441" y="194.2969"/><ellipse cx="456" cy="214.4297" fill="#ADD1B2" rx="11" ry="11" style="stroke:#181818;stroke-width:1.0;"/><path d="M458.3438,210.1016 C457.4063,209.6641 456.8125,209.5234 455.9375,209.5234 C453.3125,209.5234 451.3125,211.6016 451.3125,214.3203 L451.3125,215.4453 C451.3125,218.0234 453.4219,219.9141 456.3125,219.9141 C457.5313,219.9141 458.6875,219.6172 459.4375,219.0703 C460.0156,218.6641 460.3438,218.2109 460.3438,217.8203 C460.3438,217.3672 459.9531,216.9766 459.4844,216.9766 C459.2656,216.9766 459.0625,217.0547 458.875,217.2422 C458.4219,217.7266 458.4219,217.7266 458.2344,217.8203 C457.8125,218.0859 457.125,218.2109 456.3594,218.2109 C454.3125,218.2109 453.0156,217.1172 453.0156,215.4141 L453.0156,214.3203 C453.0156,212.5391 454.2656,211.2266 456,211.2266 C456.5781,211.2266 457.1875,211.3828 457.6563,211.6328 C458.1406,211.9141 458.3125,212.1328 458.4063,212.5391 C458.4688,212.9453 458.5,213.0703 458.6406,213.1953 C458.7813,213.3359 459.0156,213.4453 459.2344,213.4453 C459.5,213.4453 459.7656,213.3047 459.9375,213.0859 C460.0469,212.9297 460.0781,212.7422 460.0781,212.3203 L460.0781,210.8984 C460.0781,210.4609 460.0625,210.3359 459.9688,210.1797 C459.8125,209.9141 459.5313,209.7734 459.2344,209.7734 C458.9375,209.7734 458.7344,209.8672 458.5156,210.1797 L458.3438,210.1016 Z " fill="#000000"/><text fill="#000000" font-family="sans-serif" font-size="12" font-style="italic" lengthAdjust="spacing" textLength="80" x="543.5" y="210.4355">&#171;application&#187;</text><text fill="#000000" font-family="sans-serif" font-size="14" lengthAdjust="spacing" textLength="227" x="470" y="226.2607">CreateRecurringClassController</text><line style="stroke:#181818;stroke-width:0.5;" x1="442" x2="699" y1="234.5625" y2="234.5625"/><line style="stroke:#181818;stroke-width:0.5;" x1="442" x2="699" y1="242.5625" y2="242.5625"/></g><!--class ListCourseService--><g id="elem_ListCourseService"><rect codeLine="15" fill="#F1F1F1" height="56.2656" id="ListCourseService" rx="2.5" ry="2.5" style="stroke:#181818;stroke-width:0.5;" width="160" x="562.5" y="327.2969"/><ellipse cx="577.5" cy="347.4297" fill="#ADD1B2" rx="11" ry="11" style="stroke:#181818;stroke-width:1.0;"/><path d="M579.8438,343.1016 C578.9063,342.6641 578.3125,342.5234 577.4375,342.5234 C574.8125,342.5234 572.8125,344.6016 572.8125,347.3203 L572.8125,348.4453 C572.8125,351.0234 574.9219,352.9141 577.8125,352.9141 C579.0313,352.9141 580.1875,352.6172 580.9375,352.0703 C581.5156,351.6641 581.8438,351.2109 581.8438,350.8203 C581.8438,350.3672 581.4531,349.9766 580.9844,349.9766 C580.7656,349.9766 580.5625,350.0547 580.375,350.2422 C579.9219,350.7266 579.9219,350.7266 579.7344,350.8203 C579.3125,351.0859 578.625,351.2109 577.8594,351.2109 C575.8125,351.2109 574.5156,350.1172 574.5156,348.4141 L574.5156,347.3203 C574.5156,345.5391 575.7656,344.2266 577.5,344.2266 C578.0781,344.2266 578.6875,344.3828 579.1563,344.6328 C579.6406,344.9141 579.8125,345.1328 579.9063,345.5391 C579.9688,345.9453 580,346.0703 580.1406,346.1953 C580.2813,346.3359 580.5156,346.4453 580.7344,346.4453 C581,346.4453 581.2656,346.3047 581.4375,346.0859 C581.5469,345.9297 581.5781,345.7422 581.5781,345.3203 L581.5781,343.8984 C581.5781,343.4609 581.5625,343.3359 581.4688,343.1797 C581.3125,342.9141 581.0313,342.7734 580.7344,342.7734 C580.4375,342.7734 580.2344,342.8672 580.0156,343.1797 L579.8438,343.1016 Z " fill="#000000"/><text fill="#000000" font-family="sans-serif" font-size="12" font-style="italic" lengthAdjust="spacing" textLength="80" x="615.5" y="343.4355">&#171;application&#187;</text><text fill="#000000" font-family="sans-serif" font-size="14" lengthAdjust="spacing" textLength="128" x="591.5" y="359.2607">ListCourseService</text><line style="stroke:#181818;stroke-width:0.5;" x1="563.5" x2="721.5" y1="367.5625" y2="367.5625"/><line style="stroke:#181818;stroke-width:0.5;" x1="563.5" x2="721.5" y1="375.5625" y2="375.5625"/></g><!--class CourseRepository--><g id="elem_CourseRepository"><rect codeLine="17" fill="#F1F1F1" height="56.2656" id="CourseRepository" rx="2.5" ry="2.5" style="stroke:#181818;stroke-width:0.5;" width="158" x="490.5" y="444.2969"/><ellipse cx="505.5" cy="464.4297" fill="#B4A7E5" rx="11" ry="11" style="stroke:#181818;stroke-width:1.0;"/><path d="M506.4531,461.2109 L508.1719,461.2109 C508.5625,461.2109 508.75,461.1797 508.875,461.1016 C509.1406,460.9453 509.2813,460.6641 509.2813,460.3672 C509.2813,460.1016 509.1719,459.8359 508.9375,459.6641 C508.7656,459.5547 508.625,459.5234 508.1719,459.5234 L503.0313,459.5234 C502.5938,459.5234 502.4688,459.5391 502.3125,459.6328 C502.0625,459.7891 501.9063,460.0859 501.9063,460.3672 C501.9063,460.6484 502.0469,460.8984 502.2656,461.0703 C502.4219,461.1797 502.6094,461.2109 503.0313,461.2109 L504.75,461.2109 L504.75,467.7266 L503.0313,467.7266 C502.5938,467.7266 502.4688,467.7422 502.3125,467.8516 C502.0625,468.0078 501.9063,468.2891 501.9063,468.5859 C501.9063,468.8359 502.0469,469.1016 502.2656,469.2578 C502.4219,469.3828 502.625,469.4297 503.0313,469.4297 L508.1719,469.4297 C508.9219,469.4297 509.2813,469.1484 509.2813,468.5859 C509.2813,468.3047 509.1719,468.0547 508.9375,467.8828 C508.7656,467.7578 508.625,467.7266 508.1719,467.7266 L506.4531,467.7266 L506.4531,461.2109 Z " fill="#000000"/><text fill="#000000" font-family="sans-serif" font-size="12" font-style="italic" lengthAdjust="spacing" textLength="83" x="541" y="460.4355">&#171;repositories&#187;</text><text fill="#000000" font-family="sans-serif" font-size="14" font-style="italic" lengthAdjust="spacing" textLength="126" x="519.5" y="476.2607">CourseRepository</text><line style="stroke:#181818;stroke-width:0.5;" x1="491.5" x2="647.5" y1="484.5625" y2="484.5625"/><line style="stroke:#181818;stroke-width:0.5;" x1="491.5" x2="647.5" y1="492.5625" y2="492.5625"/></g><!--link CreateRecurringClassUI to CreateRecurringClassController--><g id="link_CreateRecurringClassUI_CreateRecurringClassController"><path codeLine="20" d="M570.5,117.3599 C570.5,139.4799 570.5,167.6959 570.5,189.1459 " fill="none" id="CreateRecurringClassUI-to-CreateRecurringClassController" style="stroke:#181818;stroke-width:1.0;"/><polygon fill="#181818" points="570.5,194.1669,574.5,185.1669,570.5,189.1669,566.5,185.1669,570.5,194.1669" style="stroke:#181818;stroke-width:1.0;"/><text fill="#000000" font-family="sans-serif" font-size="13" lengthAdjust="spacing" textLength="83" x="571.5" y="160.3638">theController</text></g><!--link CreateRecurringClassController to CourseRepository--><g id="link_CreateRecurringClassController_CourseRepository"><path codeLine="21" d="M551.03,250.4289 C537.839,270.5579 521.569,299.2599 514.5,327.2969 C508.415,351.4309 507.639,359.3729 514.5,383.2969 C520.311,403.5591 532.299,423.6816 543.603,439.5598 " fill="none" id="CreateRecurringClassController-to-CourseRepository" style="stroke:#181818;stroke-width:1.0;"/><polygon fill="#181818" points="546.768,443.9223,544.7209,434.2885,543.832,439.8751,538.2454,438.9862,546.768,443.9223" style="stroke:#181818;stroke-width:1.0;"/><text fill="#000000" font-family="sans-serif" font-size="13" lengthAdjust="spacing" textLength="29" x="515.5" y="359.8638">repo</text></g><!--link CreateRecurringClassController to ListCourseService--><g id="link_CreateRecurringClassController_ListCourseService"><path codeLine="22" d="M580.631,250.2969 C586.379,264.6019 594.095,282.2719 602.5,297.2969 C607.281,305.8429 613.041,314.6879 618.681,322.7859 " fill="none" id="CreateRecurringClassController-to-ListCourseService" style="stroke:#181818;stroke-width:1.0;"/><polygon fill="#181818" points="621.796,327.2019,619.8756,317.5421,618.9134,323.1165,613.3389,322.1543,621.796,327.2019" style="stroke:#181818;stroke-width:1.0;"/><text fill="#000000" font-family="sans-serif" font-size="13" lengthAdjust="spacing" textLength="46" x="603.5" y="293.3638">service</text></g><!--link CreateRecurringClassController to Course--><g id="link_CreateRecurringClassController_Course"><path codeLine="24" d="M476.922,250.3229 C458.734,258.1799 440.64,268.0479 425.5,280.2969 C411.496,291.6269 400.064,308.0409 391.775,322.5329 " fill="none" id="CreateRecurringClassController-to-Course" style="stroke:#181818;stroke-width:1.0;"/><polygon fill="#181818" points="389.304,326.9609,397.1836,321.0522,391.7412,322.5951,390.1983,317.1527,389.304,326.9609" style="stroke:#181818;stroke-width:1.0;"/><text fill="#000000" font-family="sans-serif" font-size="13" lengthAdjust="spacing" textLength="43" x="426.5" y="293.3638">course</text></g><!--link CreateRecurringClassController to RecurringClass--><g id="link_CreateRecurringClassController_RecurringClass"><path codeLine="25" d="M614.589,250.3219 C638.978,264.8799 670.03,282.7789 698.5,297.2969 C717.279,306.8729 738.012,316.4979 757.223,325.0399 " fill="none" id="CreateRecurringClassController-to-RecurringClass" style="stroke:#181818;stroke-width:1.0;"/><polygon fill="#181818" points="762.072,327.1879,755.4623,319.8864,757.5002,325.1634,752.2232,327.2013,762.072,327.1879" style="stroke:#181818;stroke-width:1.0;"/><text fill="#000000" font-family="sans-serif" font-size="13" lengthAdjust="spacing" textLength="91" x="699.5" y="293.3638">recurringClass</text></g><!--link JpaCourseRepository to CourseRepository--><g id="link_JpaCourseRepository_CourseRepository"><path codeLine="26" d="M455.789,472.2969 C465.624,472.2969 475.458,472.2969 485.293,472.2969 " fill="none" id="JpaCourseRepository-to-CourseRepository" style="stroke:#181818;stroke-width:1.0;"/><polygon fill="#181818" points="490.435,472.2969,481.435,468.2969,485.435,472.2969,481.435,476.2969,490.435,472.2969" style="stroke:#181818;stroke-width:1.0;"/></g><!--link InMemoryCourseRepository to CourseRepository--><g id="link_InMemoryCourseRepository_CourseRepository"><path codeLine="27" d="M180.382,444.1671 C208.021,432.2538 241.986,419.7631 274,413.7969 C353.52,398.9769 377.39,394.7299 456,413.7969 C479.133,419.4078 502.829,430.6041 522.545,441.713 " fill="none" id="InMemoryCourseRepository-to-CourseRepository" style="stroke:#181818;stroke-width:1.0;"/><polygon fill="#181818" points="526.949,444.2296,521.1204,436.2906,522.6081,441.7483,517.1504,443.236,526.949,444.2296" style="stroke:#181818;stroke-width:1.0;"/></g><!--link CreateRecurringClassUI to Course--><g id="link_CreateRecurringClassUI_Course"><path codeLine="30" d="M507.115,117.3719 C477.872,136.6899 444.964,163.0339 423.5,194.2969 C396.747,233.2649 385.001,287.6059 380.002,321.8619 " fill="none" id="CreateRecurringClassUI-to-Course" style="stroke:#181818;stroke-width:1.0;stroke-dasharray:7.0,7.0;"/><polygon fill="#181818" points="379.256,327.1819,384.4646,318.823,379.9489,322.2301,376.5418,317.7144,379.256,327.1819" style="stroke:#181818;stroke-width:1.0;"/></g><!--link CreateRecurringClassUI to RecurringClass--><g id="link_CreateRecurringClassUI_RecurringClass"><path codeLine="31" d="M626.705,117.6159 C677.867,153.0239 751.875,211.7369 795.5,280.2969 C803.758,293.2749 810.66,308.8279 815.84,322.3179 " fill="none" id="CreateRecurringClassUI-to-RecurringClass" style="stroke:#181818;stroke-width:1.0;stroke-dasharray:7.0,7.0;"/><polygon fill="#181818" points="817.669,327.1859,818.2476,317.354,815.9103,322.5054,810.7589,320.168,817.669,327.1859" style="stroke:#181818;stroke-width:1.0;"/></g><!--link ListCourseService to CourseRepository--><g id="link_ListCourseService_CourseRepository"><path codeLine="32" d="M625.2,383.5499 C614.472,400.45 600.651,422.2229 589.461,439.8519 " fill="none" id="ListCourseService-to-CourseRepository" style="stroke:#181818;stroke-width:1.0;stroke-dasharray:7.0,7.0;"/><polygon fill="#181818" points="586.676,444.2391,594.8764,438.7844,589.3556,440.0178,588.1223,434.497,586.676,444.2391" style="stroke:#181818;stroke-width:1.0;"/></g><!--SRC=[ZL8zRuCm4DtlLtXBCY0bAufOO4cLTYZAL7Mmu0gMmBREJgggod-lSI0VV3HuidtllNltOOMjaCKLDuObWXV4QxPCqsJ50dP8sMQzMGCiV1mDP1uN4tABxvWTYOGiVF2mOzkj9ZGeBRT2oIXYly3SoLLQgk_b2ixGybyqZzMHZ9FGoWYhwASX8nbXBCeC6-wv1U_aAzOECOVH-VDG1yXLpOMyLtiqtOFyKrwif2LLLKYEmxMkH7QjijFUEo-Nr2dIIMJOXpOfXBH8Nzm5HmgYxY7Gj9OMR_ma2Yy04tqFWkYPvv3P4czlU0BtYdrx8MlipQ4E6n4oSxd1_DIEbFdB74flhetN-myOMxcH8c5osyR0i4XGeypT0hg1JOxd8-UcnFppAZ47-HY4OKk7iZTdVm00]--></g></svg>