<?xml version="1.0" encoding="us-ascii" standalone="no"?><svg xmlns="http://www.w3.org/2000/svg" xmlns:xlink="http://www.w3.org/1999/xlink" contentStyleType="text/css" height="648px" preserveAspectRatio="none" style="width:2077px;height:648px;background:#FFFFFF;" version="1.1" viewBox="0 0 2077 648" width="2077px" zoomAndPan="magnify"><defs/><g><text fill="#000000" font-family="sans-serif" font-size="25" font-weight="bold" lengthAdjust="spacing" text-decoration="underline" textLength="502" x="780.5" y="33.2056">Classes de Dom&#237;nio para a US 1010</text><!--cluster <<aggregate>> Course--><g id="cluster_&lt;&lt;aggregate&gt;&gt; Course"><path d="M8.5,56.1016 L170.5,56.1016 A3.75,3.75 0 0 1 173,58.6016 L180,78.3984 L1054.5,78.3984 A2.5,2.5 0 0 1 1057,80.8984 L1057,352.1016 A2.5,2.5 0 0 1 1054.5,354.6016 L8.5,354.6016 A2.5,2.5 0 0 1 6,352.1016 L6,58.6016 A2.5,2.5 0 0 1 8.5,56.1016 " fill="none" style="stroke:#000000;stroke-width:1.5;"/><line style="stroke:#000000;stroke-width:1.5;" x1="6" x2="180" y1="78.3984" y2="78.3984"/><text fill="#000000" font-family="sans-serif" font-size="14" font-weight="bold" lengthAdjust="spacing" textLength="161" x="10" y="71.0967">&#171;aggregate&#187; Course</text></g><!--cluster <<aggregate>> Class--><g id="cluster_&lt;&lt;aggregate&gt;&gt; Class"><path d="M1083.5,224.1016 L1233.5,224.1016 A3.75,3.75 0 0 1 1236,226.6016 L1243,246.3984 L1783.5,246.3984 A2.5,2.5 0 0 1 1786,248.8984 L1786,515.1016 A2.5,2.5 0 0 1 1783.5,517.6016 L1083.5,517.6016 A2.5,2.5 0 0 1 1081,515.1016 L1081,226.6016 A2.5,2.5 0 0 1 1083.5,224.1016 " fill="none" style="stroke:#000000;stroke-width:1.5;"/><line style="stroke:#000000;stroke-width:1.5;" x1="1081" x2="1243" y1="246.3984" y2="246.3984"/><text fill="#000000" font-family="sans-serif" font-size="14" font-weight="bold" lengthAdjust="spacing" textLength="149" x="1085" y="239.0967">&#171;aggregate&#187; Class</text></g><!--cluster <<aggregate>> Teacher--><g id="cluster_&lt;&lt;aggregate&gt;&gt; Teacher"><path d="M1812.5,403.6016 L1984.5,403.6016 A3.75,3.75 0 0 1 1987,406.1016 L1994,425.8984 L1994.5,425.8984 A2.5,2.5 0 0 1 1997,428.3984 L1997,639.1016 A2.5,2.5 0 0 1 1994.5,641.6016 L1812.5,641.6016 A2.5,2.5 0 0 1 1810,639.1016 L1810,406.1016 A2.5,2.5 0 0 1 1812.5,403.6016 " fill="none" style="stroke:#000000;stroke-width:1.5;"/><line style="stroke:#000000;stroke-width:1.5;" x1="1810" x2="1994" y1="425.8984" y2="425.8984"/><text fill="#000000" font-family="sans-serif" font-size="14" font-weight="bold" lengthAdjust="spacing" textLength="171" x="1814" y="418.5967">&#171;aggregate&#187; Teacher</text></g><!--class Course--><g id="elem_Course"><rect codeLine="8" fill="#F1F1F1" height="70.2344" id="Course" rx="2.5" ry="2.5" style="stroke:#181818;stroke-width:0.5;" width="81" x="748.5" y="91.1016"/><ellipse cx="763.5" cy="118.2188" fill="#ADD1B2" rx="11" ry="11" style="stroke:#181818;stroke-width:1.0;"/><path d="M762.2969,119.0938 L763.75,119.0938 L763.75,119.2031 C763.75,119.6094 763.7813,119.7656 763.8594,119.9219 C764.0156,120.1719 764.2969,120.3281 764.5938,120.3281 C764.8438,120.3281 765.1094,120.1875 765.2656,119.9688 C765.3906,119.8125 765.4219,119.6563 765.4219,119.2031 L765.4219,117.2813 C765.4219,117.125 765.4219,117.0781 765.4063,116.9219 C765.3438,116.4531 765.0313,116.1406 764.5781,116.1406 C764.3281,116.1406 764.0625,116.2813 763.8906,116.5 C763.7813,116.6719 763.75,116.8281 763.75,117.2813 L763.75,117.4063 L762.2969,117.4063 L762.2969,115 L766.2813,115 L766.2813,115.8594 C766.2813,116.2656 766.3125,116.4375 766.3906,116.5938 C766.5625,116.8438 766.8438,117 767.125,117 C767.3906,117 767.6563,116.8594 767.8281,116.6406 C767.9375,116.4688 767.9688,116.3281 767.9688,115.8594 L767.9688,113.3125 L760.3438,113.3125 C759.9063,113.3125 759.7813,113.3281 759.625,113.4219 C759.375,113.5781 759.2188,113.875 759.2188,114.1563 C759.2188,114.4375 759.3594,114.6875 759.5781,114.8594 C759.7344,114.9688 759.9219,115 760.3438,115 L760.5938,115 L760.5938,121.5156 L760.3438,121.5156 C759.9375,121.5156 759.7813,121.5313 759.625,121.6406 C759.375,121.8125 759.2188,122.0781 759.2188,122.375 C759.2188,122.6406 759.3594,122.8906 759.5781,123.0469 C759.7188,123.1719 759.9531,123.2188 760.3438,123.2188 L768.3438,123.2188 L768.3438,120.6406 C768.3438,120.2031 768.3125,120.0625 768.2344,119.9063 C768.0625,119.6563 767.7813,119.5 767.5,119.5 C767.2344,119.5 766.9688,119.6094 766.7969,119.8594 C766.6875,120.0156 766.6563,120.1563 766.6563,120.6406 L766.6563,121.5156 L762.2969,121.5156 L762.2969,119.0938 Z " fill="#000000"/><text fill="#000000" font-family="sans-serif" font-size="12" font-style="italic" lengthAdjust="spacing" textLength="49" x="777.5" y="107.2402">&#171;entity&#187;</text><text fill="#000000" font-family="sans-serif" font-size="12" font-style="italic" lengthAdjust="spacing" textLength="38" x="783" y="121.209">&#171;root&#187;</text><text fill="#000000" font-family="sans-serif" font-size="14" lengthAdjust="spacing" textLength="49" x="777.5" y="137.0342">Course</text><line style="stroke:#181818;stroke-width:0.5;" x1="749.5" x2="828.5" y1="145.3359" y2="145.3359"/><line style="stroke:#181818;stroke-width:0.5;" x1="749.5" x2="828.5" y1="153.3359" y2="153.3359"/></g><!--class CourseTitle--><g id="elem_CourseTitle"><rect codeLine="9" fill="#F1F1F1" height="56.2656" id="CourseTitle" rx="2.5" ry="2.5" style="stroke:#181818;stroke-width:0.5;" width="115" x="22.5" y="266.1016"/><ellipse cx="37.5" cy="286.2344" fill="#FF8B40" rx="11" ry="11" style="stroke:#181818;stroke-width:1.0;"/><path d="M37.6563,289.7813 L35.2031,284.0156 L35.5313,284.0156 C35.9375,284.0156 36.0938,283.9844 36.2344,283.9063 C36.5,283.75 36.6406,283.4688 36.6406,283.1719 C36.6406,282.9063 36.5156,282.6406 36.3125,282.4688 C36.1406,282.3594 35.9688,282.3281 35.5313,282.3281 L33.2656,282.3281 C32.8281,282.3281 32.7031,282.3438 32.5469,282.4375 C32.2969,282.5938 32.1406,282.8906 32.1406,283.1719 C32.1406,283.5156 32.375,283.8594 32.6719,283.9531 C32.8281,284 32.9531,284.0156 33.2969,284.0156 L36.7344,292.2344 L38.4219,292.2344 L41.9063,284.0156 C42.2656,284.0156 42.375,284 42.5313,283.9531 C42.8125,283.8594 43.0625,283.5156 43.0625,283.1719 C43.0625,282.9063 42.9219,282.6406 42.7031,282.4688 C42.5469,282.3594 42.375,282.3281 41.9375,282.3281 L39.6875,282.3281 C39.25,282.3281 39.125,282.3438 38.9844,282.4375 C38.7188,282.5938 38.5625,282.8906 38.5625,283.1719 C38.5625,283.4531 38.7031,283.7031 38.9063,283.875 C39.0938,283.9844 39.2344,284.0156 39.6875,284.0156 L40.0938,284.0156 L37.6563,289.7813 Z " fill="#000000"/><text fill="#000000" font-family="sans-serif" font-size="12" font-style="italic" lengthAdjust="spacing" textLength="87" x="49.5" y="282.2402">&#171;value object&#187;</text><text fill="#000000" font-family="sans-serif" font-size="14" lengthAdjust="spacing" textLength="82" x="52" y="298.0654">CourseTitle</text><line style="stroke:#181818;stroke-width:0.5;" x1="23.5" x2="136.5" y1="306.3672" y2="306.3672"/><line style="stroke:#181818;stroke-width:0.5;" x1="23.5" x2="136.5" y1="314.3672" y2="314.3672"/></g><!--class CourseCode--><g id="elem_CourseCode"><rect codeLine="10" fill="#F1F1F1" height="56.2656" id="CourseCode" rx="2.5" ry="2.5" style="stroke:#181818;stroke-width:0.5;" width="118" x="173" y="266.1016"/><ellipse cx="188" cy="286.2344" fill="#FF8B40" rx="11" ry="11" style="stroke:#181818;stroke-width:1.0;"/><path d="M188.1563,289.7813 L185.7031,284.0156 L186.0313,284.0156 C186.4375,284.0156 186.5938,283.9844 186.7344,283.9063 C187,283.75 187.1406,283.4688 187.1406,283.1719 C187.1406,282.9063 187.0156,282.6406 186.8125,282.4688 C186.6406,282.3594 186.4688,282.3281 186.0313,282.3281 L183.7656,282.3281 C183.3281,282.3281 183.2031,282.3438 183.0469,282.4375 C182.7969,282.5938 182.6406,282.8906 182.6406,283.1719 C182.6406,283.5156 182.875,283.8594 183.1719,283.9531 C183.3281,284 183.4531,284.0156 183.7969,284.0156 L187.2344,292.2344 L188.9219,292.2344 L192.4063,284.0156 C192.7656,284.0156 192.875,284 193.0313,283.9531 C193.3125,283.8594 193.5625,283.5156 193.5625,283.1719 C193.5625,282.9063 193.4219,282.6406 193.2031,282.4688 C193.0469,282.3594 192.875,282.3281 192.4375,282.3281 L190.1875,282.3281 C189.75,282.3281 189.625,282.3438 189.4844,282.4375 C189.2188,282.5938 189.0625,282.8906 189.0625,283.1719 C189.0625,283.4531 189.2031,283.7031 189.4063,283.875 C189.5938,283.9844 189.7344,284.0156 190.1875,284.0156 L190.5938,284.0156 L188.1563,289.7813 Z " fill="#000000"/><text fill="#000000" font-family="sans-serif" font-size="12" font-style="italic" lengthAdjust="spacing" textLength="87" x="201.5" y="282.2402">&#171;value object&#187;</text><text fill="#000000" font-family="sans-serif" font-size="14" lengthAdjust="spacing" textLength="86" x="202" y="298.0654">CourseCode</text><line style="stroke:#181818;stroke-width:0.5;" x1="174" x2="290" y1="306.3672" y2="306.3672"/><line style="stroke:#181818;stroke-width:0.5;" x1="174" x2="290" y1="314.3672" y2="314.3672"/></g><!--class CourseDescription--><g id="elem_CourseDescription"><rect codeLine="11" fill="#F1F1F1" height="56.2656" id="CourseDescription" rx="2.5" ry="2.5" style="stroke:#181818;stroke-width:0.5;" width="165" x="326.5" y="266.1016"/><ellipse cx="341.5" cy="286.2344" fill="#FF8B40" rx="11" ry="11" style="stroke:#181818;stroke-width:1.0;"/><path d="M341.6563,289.7813 L339.2031,284.0156 L339.5313,284.0156 C339.9375,284.0156 340.0938,283.9844 340.2344,283.9063 C340.5,283.75 340.6406,283.4688 340.6406,283.1719 C340.6406,282.9063 340.5156,282.6406 340.3125,282.4688 C340.1406,282.3594 339.9688,282.3281 339.5313,282.3281 L337.2656,282.3281 C336.8281,282.3281 336.7031,282.3438 336.5469,282.4375 C336.2969,282.5938 336.1406,282.8906 336.1406,283.1719 C336.1406,283.5156 336.375,283.8594 336.6719,283.9531 C336.8281,284 336.9531,284.0156 337.2969,284.0156 L340.7344,292.2344 L342.4219,292.2344 L345.9063,284.0156 C346.2656,284.0156 346.375,284 346.5313,283.9531 C346.8125,283.8594 347.0625,283.5156 347.0625,283.1719 C347.0625,282.9063 346.9219,282.6406 346.7031,282.4688 C346.5469,282.3594 346.375,282.3281 345.9375,282.3281 L343.6875,282.3281 C343.25,282.3281 343.125,282.3438 342.9844,282.4375 C342.7188,282.5938 342.5625,282.8906 342.5625,283.1719 C342.5625,283.4531 342.7031,283.7031 342.9063,283.875 C343.0938,283.9844 343.2344,284.0156 343.6875,284.0156 L344.0938,284.0156 L341.6563,289.7813 Z " fill="#000000"/><text fill="#000000" font-family="sans-serif" font-size="12" font-style="italic" lengthAdjust="spacing" textLength="87" x="378.5" y="282.2402">&#171;value object&#187;</text><text fill="#000000" font-family="sans-serif" font-size="14" lengthAdjust="spacing" textLength="133" x="355.5" y="298.0654">CourseDescription</text><line style="stroke:#181818;stroke-width:0.5;" x1="327.5" x2="490.5" y1="306.3672" y2="306.3672"/><line style="stroke:#181818;stroke-width:0.5;" x1="327.5" x2="490.5" y1="314.3672" y2="314.3672"/></g><!--class CourseStatus--><g id="elem_CourseStatus"><rect codeLine="12" fill="#F1F1F1" height="56.2656" id="CourseStatus" rx="2.5" ry="2.5" style="stroke:#181818;stroke-width:0.5;" width="127" x="526.5" y="266.1016"/><ellipse cx="541.5" cy="286.2344" fill="#FF8B40" rx="11" ry="11" style="stroke:#181818;stroke-width:1.0;"/><path d="M541.6563,289.7813 L539.2031,284.0156 L539.5313,284.0156 C539.9375,284.0156 540.0938,283.9844 540.2344,283.9063 C540.5,283.75 540.6406,283.4688 540.6406,283.1719 C540.6406,282.9063 540.5156,282.6406 540.3125,282.4688 C540.1406,282.3594 539.9688,282.3281 539.5313,282.3281 L537.2656,282.3281 C536.8281,282.3281 536.7031,282.3438 536.5469,282.4375 C536.2969,282.5938 536.1406,282.8906 536.1406,283.1719 C536.1406,283.5156 536.375,283.8594 536.6719,283.9531 C536.8281,284 536.9531,284.0156 537.2969,284.0156 L540.7344,292.2344 L542.4219,292.2344 L545.9063,284.0156 C546.2656,284.0156 546.375,284 546.5313,283.9531 C546.8125,283.8594 547.0625,283.5156 547.0625,283.1719 C547.0625,282.9063 546.9219,282.6406 546.7031,282.4688 C546.5469,282.3594 546.375,282.3281 545.9375,282.3281 L543.6875,282.3281 C543.25,282.3281 543.125,282.3438 542.9844,282.4375 C542.7188,282.5938 542.5625,282.8906 542.5625,283.1719 C542.5625,283.4531 542.7031,283.7031 542.9063,283.875 C543.0938,283.9844 543.2344,284.0156 543.6875,284.0156 L544.0938,284.0156 L541.6563,289.7813 Z " fill="#000000"/><text fill="#000000" font-family="sans-serif" font-size="12" font-style="italic" lengthAdjust="spacing" textLength="87" x="559.5" y="282.2402">&#171;value object&#187;</text><text fill="#000000" font-family="sans-serif" font-size="14" lengthAdjust="spacing" textLength="95" x="555.5" y="298.0654">CourseStatus</text><line style="stroke:#181818;stroke-width:0.5;" x1="527.5" x2="652.5" y1="306.3672" y2="306.3672"/><line style="stroke:#181818;stroke-width:0.5;" x1="527.5" x2="652.5" y1="314.3672" y2="314.3672"/></g><!--class CourseEnrolmentLimits--><g id="elem_CourseEnrolmentLimits"><rect codeLine="13" fill="#F1F1F1" height="88.8594" id="CourseEnrolmentLimits" rx="2.5" ry="2.5" style="stroke:#181818;stroke-width:0.5;" width="201" x="688.5" y="249.6016"/><ellipse cx="703.5" cy="269.7344" fill="#FF8B40" rx="11" ry="11" style="stroke:#181818;stroke-width:1.0;"/><path d="M703.6563,273.2813 L701.2031,267.5156 L701.5313,267.5156 C701.9375,267.5156 702.0938,267.4844 702.2344,267.4063 C702.5,267.25 702.6406,266.9688 702.6406,266.6719 C702.6406,266.4063 702.5156,266.1406 702.3125,265.9688 C702.1406,265.8594 701.9688,265.8281 701.5313,265.8281 L699.2656,265.8281 C698.8281,265.8281 698.7031,265.8438 698.5469,265.9375 C698.2969,266.0938 698.1406,266.3906 698.1406,266.6719 C698.1406,267.0156 698.375,267.3594 698.6719,267.4531 C698.8281,267.5 698.9531,267.5156 699.2969,267.5156 L702.7344,275.7344 L704.4219,275.7344 L707.9063,267.5156 C708.2656,267.5156 708.375,267.5 708.5313,267.4531 C708.8125,267.3594 709.0625,267.0156 709.0625,266.6719 C709.0625,266.4063 708.9219,266.1406 708.7031,265.9688 C708.5469,265.8594 708.375,265.8281 707.9375,265.8281 L705.6875,265.8281 C705.25,265.8281 705.125,265.8438 704.9844,265.9375 C704.7188,266.0938 704.5625,266.3906 704.5625,266.6719 C704.5625,266.9531 704.7031,267.2031 704.9063,267.375 C705.0938,267.4844 705.2344,267.5156 705.6875,267.5156 L706.0938,267.5156 L703.6563,273.2813 Z " fill="#000000"/><text fill="#000000" font-family="sans-serif" font-size="12" font-style="italic" lengthAdjust="spacing" textLength="87" x="758.5" y="265.7402">&#171;value object&#187;</text><text fill="#000000" font-family="sans-serif" font-size="14" lengthAdjust="spacing" textLength="169" x="717.5" y="281.5654">CourseEnrolmentLimits</text><line style="stroke:#181818;stroke-width:0.5;" x1="689.5" x2="888.5" y1="289.8672" y2="289.8672"/><text fill="#000000" font-family="sans-serif" font-size="14" lengthAdjust="spacing" textLength="150" x="694.5" y="306.8623">minimumEnrolments</text><text fill="#000000" font-family="sans-serif" font-size="14" lengthAdjust="spacing" textLength="153" x="694.5" y="323.1592">maximumEnrolments</text><line style="stroke:#181818;stroke-width:0.5;" x1="689.5" x2="888.5" y1="330.4609" y2="330.4609"/></g><!--class CourseDate--><g id="elem_CourseDate"><rect codeLine="17" fill="#F1F1F1" height="88.8594" id="CourseDate" rx="2.5" ry="2.5" style="stroke:#181818;stroke-width:0.5;" width="116" x="925" y="249.6016"/><ellipse cx="940" cy="269.7344" fill="#FF8B40" rx="11" ry="11" style="stroke:#181818;stroke-width:1.0;"/><path d="M940.1563,273.2813 L937.7031,267.5156 L938.0313,267.5156 C938.4375,267.5156 938.5938,267.4844 938.7344,267.4063 C939,267.25 939.1406,266.9688 939.1406,266.6719 C939.1406,266.4063 939.0156,266.1406 938.8125,265.9688 C938.6406,265.8594 938.4688,265.8281 938.0313,265.8281 L935.7656,265.8281 C935.3281,265.8281 935.2031,265.8438 935.0469,265.9375 C934.7969,266.0938 934.6406,266.3906 934.6406,266.6719 C934.6406,267.0156 934.875,267.3594 935.1719,267.4531 C935.3281,267.5 935.4531,267.5156 935.7969,267.5156 L939.2344,275.7344 L940.9219,275.7344 L944.4063,267.5156 C944.7656,267.5156 944.875,267.5 945.0313,267.4531 C945.3125,267.3594 945.5625,267.0156 945.5625,266.6719 C945.5625,266.4063 945.4219,266.1406 945.2031,265.9688 C945.0469,265.8594 944.875,265.8281 944.4375,265.8281 L942.1875,265.8281 C941.75,265.8281 941.625,265.8438 941.4844,265.9375 C941.2188,266.0938 941.0625,266.3906 941.0625,266.6719 C941.0625,266.9531 941.2031,267.2031 941.4063,267.375 C941.5938,267.4844 941.7344,267.5156 942.1875,267.5156 L942.5938,267.5156 L940.1563,273.2813 Z " fill="#000000"/><text fill="#000000" font-family="sans-serif" font-size="12" font-style="italic" lengthAdjust="spacing" textLength="87" x="952.5" y="265.7402">&#171;value object&#187;</text><text fill="#000000" font-family="sans-serif" font-size="14" lengthAdjust="spacing" textLength="84" x="954" y="281.5654">CourseDate</text><line style="stroke:#181818;stroke-width:0.5;" x1="926" x2="1040" y1="289.8672" y2="289.8672"/><text fill="#000000" font-family="sans-serif" font-size="14" lengthAdjust="spacing" textLength="70" x="931" y="306.8623">startDate</text><text fill="#000000" font-family="sans-serif" font-size="14" lengthAdjust="spacing" textLength="62" x="931" y="323.1592">endDate</text><line style="stroke:#181818;stroke-width:0.5;" x1="926" x2="1040" y1="330.4609" y2="330.4609"/></g><!--class Class--><g id="elem_Class"><rect codeLine="26" fill="#F1F1F1" height="70.2344" id="Class" rx="2.5" ry="2.5" style="stroke:#181818;stroke-width:0.5;" width="77" x="1324.5" y="259.1016"/><ellipse cx="1339.5" cy="286.2188" fill="#ADD1B2" rx="11" ry="11" style="stroke:#181818;stroke-width:1.0;"/><path d="M1338.2969,287.0938 L1339.75,287.0938 L1339.75,287.2031 C1339.75,287.6094 1339.7813,287.7656 1339.8594,287.9219 C1340.0156,288.1719 1340.2969,288.3281 1340.5938,288.3281 C1340.8438,288.3281 1341.1094,288.1875 1341.2656,287.9688 C1341.3906,287.8125 1341.4219,287.6563 1341.4219,287.2031 L1341.4219,285.2813 C1341.4219,285.125 1341.4219,285.0781 1341.4063,284.9219 C1341.3438,284.4531 1341.0313,284.1406 1340.5781,284.1406 C1340.3281,284.1406 1340.0625,284.2813 1339.8906,284.5 C1339.7813,284.6719 1339.75,284.8281 1339.75,285.2813 L1339.75,285.4063 L1338.2969,285.4063 L1338.2969,283 L1342.2813,283 L1342.2813,283.8594 C1342.2813,284.2656 1342.3125,284.4375 1342.3906,284.5938 C1342.5625,284.8438 1342.8438,285 1343.125,285 C1343.3906,285 1343.6563,284.8594 1343.8281,284.6406 C1343.9375,284.4688 1343.9688,284.3281 1343.9688,283.8594 L1343.9688,281.3125 L1336.3438,281.3125 C1335.9063,281.3125 1335.7813,281.3281 1335.625,281.4219 C1335.375,281.5781 1335.2188,281.875 1335.2188,282.1563 C1335.2188,282.4375 1335.3594,282.6875 1335.5781,282.8594 C1335.7344,282.9688 1335.9219,283 1336.3438,283 L1336.5938,283 L1336.5938,289.5156 L1336.3438,289.5156 C1335.9375,289.5156 1335.7813,289.5313 1335.625,289.6406 C1335.375,289.8125 1335.2188,290.0781 1335.2188,290.375 C1335.2188,290.6406 1335.3594,290.8906 1335.5781,291.0469 C1335.7188,291.1719 1335.9531,291.2188 1336.3438,291.2188 L1344.3438,291.2188 L1344.3438,288.6406 C1344.3438,288.2031 1344.3125,288.0625 1344.2344,287.9063 C1344.0625,287.6563 1343.7813,287.5 1343.5,287.5 C1343.2344,287.5 1342.9688,287.6094 1342.7969,287.8594 C1342.6875,288.0156 1342.6563,288.1563 1342.6563,288.6406 L1342.6563,289.5156 L1338.2969,289.5156 L1338.2969,287.0938 Z " fill="#000000"/><text fill="#000000" font-family="sans-serif" font-size="12" font-style="italic" lengthAdjust="spacing" textLength="49" x="1351.5" y="275.2402">&#171;entity&#187;</text><text fill="#000000" font-family="sans-serif" font-size="12" font-style="italic" lengthAdjust="spacing" textLength="38" x="1357" y="289.209">&#171;root&#187;</text><text fill="#000000" font-family="sans-serif" font-size="14" lengthAdjust="spacing" textLength="36" x="1358" y="305.0342">Class</text><line style="stroke:#181818;stroke-width:0.5;" x1="1325.5" x2="1400.5" y1="313.3359" y2="313.3359"/><line style="stroke:#181818;stroke-width:0.5;" x1="1325.5" x2="1400.5" y1="321.3359" y2="321.3359"/></g><!--class ClassTitle--><g id="elem_ClassTitle"><rect codeLine="27" fill="#F1F1F1" height="56.2656" id="ClassTitle" rx="2.5" ry="2.5" style="stroke:#181818;stroke-width:0.5;" width="115" x="1097.5" y="445.6016"/><ellipse cx="1112.5" cy="465.7344" fill="#FF8B40" rx="11" ry="11" style="stroke:#181818;stroke-width:1.0;"/><path d="M1112.6563,469.2813 L1110.2031,463.5156 L1110.5313,463.5156 C1110.9375,463.5156 1111.0938,463.4844 1111.2344,463.4063 C1111.5,463.25 1111.6406,462.9688 1111.6406,462.6719 C1111.6406,462.4063 1111.5156,462.1406 1111.3125,461.9688 C1111.1406,461.8594 1110.9688,461.8281 1110.5313,461.8281 L1108.2656,461.8281 C1107.8281,461.8281 1107.7031,461.8438 1107.5469,461.9375 C1107.2969,462.0938 1107.1406,462.3906 1107.1406,462.6719 C1107.1406,463.0156 1107.375,463.3594 1107.6719,463.4531 C1107.8281,463.5 1107.9531,463.5156 1108.2969,463.5156 L1111.7344,471.7344 L1113.4219,471.7344 L1116.9063,463.5156 C1117.2656,463.5156 1117.375,463.5 1117.5313,463.4531 C1117.8125,463.3594 1118.0625,463.0156 1118.0625,462.6719 C1118.0625,462.4063 1117.9219,462.1406 1117.7031,461.9688 C1117.5469,461.8594 1117.375,461.8281 1116.9375,461.8281 L1114.6875,461.8281 C1114.25,461.8281 1114.125,461.8438 1113.9844,461.9375 C1113.7188,462.0938 1113.5625,462.3906 1113.5625,462.6719 C1113.5625,462.9531 1113.7031,463.2031 1113.9063,463.375 C1114.0938,463.4844 1114.2344,463.5156 1114.6875,463.5156 L1115.0938,463.5156 L1112.6563,469.2813 Z " fill="#000000"/><text fill="#000000" font-family="sans-serif" font-size="12" font-style="italic" lengthAdjust="spacing" textLength="87" x="1124.5" y="461.7402">&#171;value object&#187;</text><text fill="#000000" font-family="sans-serif" font-size="14" lengthAdjust="spacing" textLength="69" x="1133.5" y="477.5654">ClassTitle</text><line style="stroke:#181818;stroke-width:0.5;" x1="1098.5" x2="1211.5" y1="485.8672" y2="485.8672"/><line style="stroke:#181818;stroke-width:0.5;" x1="1098.5" x2="1211.5" y1="493.8672" y2="493.8672"/></g><!--class ClassDuration--><g id="elem_ClassDuration"><rect codeLine="28" fill="#F1F1F1" height="56.2656" id="ClassDuration" rx="2.5" ry="2.5" style="stroke:#181818;stroke-width:0.5;" width="130" x="1248" y="445.6016"/><ellipse cx="1263" cy="465.7344" fill="#FF8B40" rx="11" ry="11" style="stroke:#181818;stroke-width:1.0;"/><path d="M1263.1563,469.2813 L1260.7031,463.5156 L1261.0313,463.5156 C1261.4375,463.5156 1261.5938,463.4844 1261.7344,463.4063 C1262,463.25 1262.1406,462.9688 1262.1406,462.6719 C1262.1406,462.4063 1262.0156,462.1406 1261.8125,461.9688 C1261.6406,461.8594 1261.4688,461.8281 1261.0313,461.8281 L1258.7656,461.8281 C1258.3281,461.8281 1258.2031,461.8438 1258.0469,461.9375 C1257.7969,462.0938 1257.6406,462.3906 1257.6406,462.6719 C1257.6406,463.0156 1257.875,463.3594 1258.1719,463.4531 C1258.3281,463.5 1258.4531,463.5156 1258.7969,463.5156 L1262.2344,471.7344 L1263.9219,471.7344 L1267.4063,463.5156 C1267.7656,463.5156 1267.875,463.5 1268.0313,463.4531 C1268.3125,463.3594 1268.5625,463.0156 1268.5625,462.6719 C1268.5625,462.4063 1268.4219,462.1406 1268.2031,461.9688 C1268.0469,461.8594 1267.875,461.8281 1267.4375,461.8281 L1265.1875,461.8281 C1264.75,461.8281 1264.625,461.8438 1264.4844,461.9375 C1264.2188,462.0938 1264.0625,462.3906 1264.0625,462.6719 C1264.0625,462.9531 1264.2031,463.2031 1264.4063,463.375 C1264.5938,463.4844 1264.7344,463.5156 1265.1875,463.5156 L1265.5938,463.5156 L1263.1563,469.2813 Z " fill="#000000"/><text fill="#000000" font-family="sans-serif" font-size="12" font-style="italic" lengthAdjust="spacing" textLength="87" x="1282.5" y="461.7402">&#171;value object&#187;</text><text fill="#000000" font-family="sans-serif" font-size="14" lengthAdjust="spacing" textLength="98" x="1277" y="477.5654">ClassDuration</text><line style="stroke:#181818;stroke-width:0.5;" x1="1249" x2="1377" y1="485.8672" y2="485.8672"/><line style="stroke:#181818;stroke-width:0.5;" x1="1249" x2="1377" y1="493.8672" y2="493.8672"/></g><!--class ClassDayOfTheWeek--><g id="elem_ClassDayOfTheWeek"><rect codeLine="29" fill="#F1F1F1" height="56.2656" id="ClassDayOfTheWeek" rx="2.5" ry="2.5" style="stroke:#181818;stroke-width:0.5;" width="180" x="1413" y="445.6016"/><ellipse cx="1428" cy="465.7344" fill="#FF8B40" rx="11" ry="11" style="stroke:#181818;stroke-width:1.0;"/><path d="M1428.1563,469.2813 L1425.7031,463.5156 L1426.0313,463.5156 C1426.4375,463.5156 1426.5938,463.4844 1426.7344,463.4063 C1427,463.25 1427.1406,462.9688 1427.1406,462.6719 C1427.1406,462.4063 1427.0156,462.1406 1426.8125,461.9688 C1426.6406,461.8594 1426.4688,461.8281 1426.0313,461.8281 L1423.7656,461.8281 C1423.3281,461.8281 1423.2031,461.8438 1423.0469,461.9375 C1422.7969,462.0938 1422.6406,462.3906 1422.6406,462.6719 C1422.6406,463.0156 1422.875,463.3594 1423.1719,463.4531 C1423.3281,463.5 1423.4531,463.5156 1423.7969,463.5156 L1427.2344,471.7344 L1428.9219,471.7344 L1432.4063,463.5156 C1432.7656,463.5156 1432.875,463.5 1433.0313,463.4531 C1433.3125,463.3594 1433.5625,463.0156 1433.5625,462.6719 C1433.5625,462.4063 1433.4219,462.1406 1433.2031,461.9688 C1433.0469,461.8594 1432.875,461.8281 1432.4375,461.8281 L1430.1875,461.8281 C1429.75,461.8281 1429.625,461.8438 1429.4844,461.9375 C1429.2188,462.0938 1429.0625,462.3906 1429.0625,462.6719 C1429.0625,462.9531 1429.2031,463.2031 1429.4063,463.375 C1429.5938,463.4844 1429.7344,463.5156 1430.1875,463.5156 L1430.5938,463.5156 L1428.1563,469.2813 Z " fill="#000000"/><text fill="#000000" font-family="sans-serif" font-size="12" font-style="italic" lengthAdjust="spacing" textLength="87" x="1472.5" y="461.7402">&#171;value object&#187;</text><text fill="#000000" font-family="sans-serif" font-size="14" lengthAdjust="spacing" textLength="148" x="1442" y="477.5654">ClassDayOfTheWeek</text><line style="stroke:#181818;stroke-width:0.5;" x1="1414" x2="1592" y1="485.8672" y2="485.8672"/><line style="stroke:#181818;stroke-width:0.5;" x1="1414" x2="1592" y1="493.8672" y2="493.8672"/></g><!--class ClassStartTime--><g id="elem_ClassStartTime"><rect codeLine="30" fill="#F1F1F1" height="56.2656" id="ClassStartTime" rx="2.5" ry="2.5" style="stroke:#181818;stroke-width:0.5;" width="141" x="1628.5" y="445.6016"/><ellipse cx="1643.5" cy="465.7344" fill="#FF8B40" rx="11" ry="11" style="stroke:#181818;stroke-width:1.0;"/><path d="M1643.6563,469.2813 L1641.2031,463.5156 L1641.5313,463.5156 C1641.9375,463.5156 1642.0938,463.4844 1642.2344,463.4063 C1642.5,463.25 1642.6406,462.9688 1642.6406,462.6719 C1642.6406,462.4063 1642.5156,462.1406 1642.3125,461.9688 C1642.1406,461.8594 1641.9688,461.8281 1641.5313,461.8281 L1639.2656,461.8281 C1638.8281,461.8281 1638.7031,461.8438 1638.5469,461.9375 C1638.2969,462.0938 1638.1406,462.3906 1638.1406,462.6719 C1638.1406,463.0156 1638.375,463.3594 1638.6719,463.4531 C1638.8281,463.5 1638.9531,463.5156 1639.2969,463.5156 L1642.7344,471.7344 L1644.4219,471.7344 L1647.9063,463.5156 C1648.2656,463.5156 1648.375,463.5 1648.5313,463.4531 C1648.8125,463.3594 1649.0625,463.0156 1649.0625,462.6719 C1649.0625,462.4063 1648.9219,462.1406 1648.7031,461.9688 C1648.5469,461.8594 1648.375,461.8281 1647.9375,461.8281 L1645.6875,461.8281 C1645.25,461.8281 1645.125,461.8438 1644.9844,461.9375 C1644.7188,462.0938 1644.5625,462.3906 1644.5625,462.6719 C1644.5625,462.9531 1644.7031,463.2031 1644.9063,463.375 C1645.0938,463.4844 1645.2344,463.5156 1645.6875,463.5156 L1646.0938,463.5156 L1643.6563,469.2813 Z " fill="#000000"/><text fill="#000000" font-family="sans-serif" font-size="12" font-style="italic" lengthAdjust="spacing" textLength="87" x="1668.5" y="461.7402">&#171;value object&#187;</text><text fill="#000000" font-family="sans-serif" font-size="14" lengthAdjust="spacing" textLength="109" x="1657.5" y="477.5654">ClassStartTime</text><line style="stroke:#181818;stroke-width:0.5;" x1="1629.5" x2="1768.5" y1="485.8672" y2="485.8672"/><line style="stroke:#181818;stroke-width:0.5;" x1="1629.5" x2="1768.5" y1="493.8672" y2="493.8672"/></g><!--class Teacher--><g id="elem_Teacher"><rect codeLine="36" fill="#F1F1F1" height="70.2344" id="Teacher" rx="2.5" ry="2.5" style="stroke:#181818;stroke-width:0.5;" width="90" x="1832" y="438.6016"/><ellipse cx="1847" cy="465.7188" fill="#ADD1B2" rx="11" ry="11" style="stroke:#181818;stroke-width:1.0;"/><path d="M1845.7969,466.5938 L1847.25,466.5938 L1847.25,466.7031 C1847.25,467.1094 1847.2813,467.2656 1847.3594,467.4219 C1847.5156,467.6719 1847.7969,467.8281 1848.0938,467.8281 C1848.3438,467.8281 1848.6094,467.6875 1848.7656,467.4688 C1848.8906,467.3125 1848.9219,467.1563 1848.9219,466.7031 L1848.9219,464.7813 C1848.9219,464.625 1848.9219,464.5781 1848.9063,464.4219 C1848.8438,463.9531 1848.5313,463.6406 1848.0781,463.6406 C1847.8281,463.6406 1847.5625,463.7813 1847.3906,464 C1847.2813,464.1719 1847.25,464.3281 1847.25,464.7813 L1847.25,464.9063 L1845.7969,464.9063 L1845.7969,462.5 L1849.7813,462.5 L1849.7813,463.3594 C1849.7813,463.7656 1849.8125,463.9375 1849.8906,464.0938 C1850.0625,464.3438 1850.3438,464.5 1850.625,464.5 C1850.8906,464.5 1851.1563,464.3594 1851.3281,464.1406 C1851.4375,463.9688 1851.4688,463.8281 1851.4688,463.3594 L1851.4688,460.8125 L1843.8438,460.8125 C1843.4063,460.8125 1843.2813,460.8281 1843.125,460.9219 C1842.875,461.0781 1842.7188,461.375 1842.7188,461.6563 C1842.7188,461.9375 1842.8594,462.1875 1843.0781,462.3594 C1843.2344,462.4688 1843.4219,462.5 1843.8438,462.5 L1844.0938,462.5 L1844.0938,469.0156 L1843.8438,469.0156 C1843.4375,469.0156 1843.2813,469.0313 1843.125,469.1406 C1842.875,469.3125 1842.7188,469.5781 1842.7188,469.875 C1842.7188,470.1406 1842.8594,470.3906 1843.0781,470.5469 C1843.2188,470.6719 1843.4531,470.7188 1843.8438,470.7188 L1851.8438,470.7188 L1851.8438,468.1406 C1851.8438,467.7031 1851.8125,467.5625 1851.7344,467.4063 C1851.5625,467.1563 1851.2813,467 1851,467 C1850.7344,467 1850.4688,467.1094 1850.2969,467.3594 C1850.1875,467.5156 1850.1563,467.6563 1850.1563,468.1406 L1850.1563,469.0156 L1845.7969,469.0156 L1845.7969,466.5938 Z " fill="#000000"/><text fill="#000000" font-family="sans-serif" font-size="12" font-style="italic" lengthAdjust="spacing" textLength="49" x="1865.5" y="454.7402">&#171;entity&#187;</text><text fill="#000000" font-family="sans-serif" font-size="12" font-style="italic" lengthAdjust="spacing" textLength="38" x="1871" y="468.709">&#171;root&#187;</text><text fill="#000000" font-family="sans-serif" font-size="14" lengthAdjust="spacing" textLength="58" x="1861" y="484.5342">Teacher</text><line style="stroke:#181818;stroke-width:0.5;" x1="1833" x2="1921" y1="492.8359" y2="492.8359"/><line style="stroke:#181818;stroke-width:0.5;" x1="1833" x2="1921" y1="500.8359" y2="500.8359"/></g><!--class Acronym--><g id="elem_Acronym"><rect codeLine="37" fill="#F1F1F1" height="56.2656" id="Acronym" rx="2.5" ry="2.5" style="stroke:#181818;stroke-width:0.5;" width="115" x="1826.5" y="569.6016"/><ellipse cx="1841.5" cy="589.7344" fill="#FF8B40" rx="11" ry="11" style="stroke:#181818;stroke-width:1.0;"/><path d="M1841.6563,593.2813 L1839.2031,587.5156 L1839.5313,587.5156 C1839.9375,587.5156 1840.0938,587.4844 1840.2344,587.4063 C1840.5,587.25 1840.6406,586.9688 1840.6406,586.6719 C1840.6406,586.4063 1840.5156,586.1406 1840.3125,585.9688 C1840.1406,585.8594 1839.9688,585.8281 1839.5313,585.8281 L1837.2656,585.8281 C1836.8281,585.8281 1836.7031,585.8438 1836.5469,585.9375 C1836.2969,586.0938 1836.1406,586.3906 1836.1406,586.6719 C1836.1406,587.0156 1836.375,587.3594 1836.6719,587.4531 C1836.8281,587.5 1836.9531,587.5156 1837.2969,587.5156 L1840.7344,595.7344 L1842.4219,595.7344 L1845.9063,587.5156 C1846.2656,587.5156 1846.375,587.5 1846.5313,587.4531 C1846.8125,587.3594 1847.0625,587.0156 1847.0625,586.6719 C1847.0625,586.4063 1846.9219,586.1406 1846.7031,585.9688 C1846.5469,585.8594 1846.375,585.8281 1845.9375,585.8281 L1843.6875,585.8281 C1843.25,585.8281 1843.125,585.8438 1842.9844,585.9375 C1842.7188,586.0938 1842.5625,586.3906 1842.5625,586.6719 C1842.5625,586.9531 1842.7031,587.2031 1842.9063,587.375 C1843.0938,587.4844 1843.2344,587.5156 1843.6875,587.5156 L1844.0938,587.5156 L1841.6563,593.2813 Z " fill="#000000"/><text fill="#000000" font-family="sans-serif" font-size="12" font-style="italic" lengthAdjust="spacing" textLength="87" x="1853.5" y="585.7402">&#171;value object&#187;</text><text fill="#000000" font-family="sans-serif" font-size="14" lengthAdjust="spacing" textLength="64" x="1865" y="601.5654">Acronym</text><line style="stroke:#181818;stroke-width:0.5;" x1="1827.5" x2="1940.5" y1="609.8672" y2="609.8672"/><line style="stroke:#181818;stroke-width:0.5;" x1="1827.5" x2="1940.5" y1="617.8672" y2="617.8672"/></g><!--link Teacher to Acronym--><g id="link_Teacher_Acronym"><path codeLine="41" d="M1878.97,508.9096 C1879.97,526.2826 1881.17,547.2536 1882.15,564.3309 " fill="none" id="Teacher-to-Acronym" style="stroke:#181818;stroke-width:1.0;"/><polygon fill="#181818" points="1882.44,569.4974,1885.9187,560.2833,1882.154,564.5055,1877.9318,560.7409,1882.44,569.4974" style="stroke:#181818;stroke-width:1.0;"/></g><!--link Course to CourseTitle--><g id="link_Course_CourseTitle"><path codeLine="44" d="M748.114,129.3616 C624.995,136.7026 259.797,162.5666 155,216.1016 C134.164,226.7456 115.748,245.4316 102.379,261.7306 " fill="none" id="Course-to-CourseTitle" style="stroke:#181818;stroke-width:1.0;"/><polygon fill="#181818" points="99.091,265.8166,107.8492,261.3117,102.2253,261.9209,101.6161,256.2969,99.091,265.8166" style="stroke:#181818;stroke-width:1.0;"/></g><!--link Course to CourseCode--><g id="link_Course_CourseCode"><path codeLine="45" d="M748.466,126.7096 C662.392,127.5066 457.134,138.1576 309,216.1016 C288.024,227.1386 269.125,245.8336 255.3,262.0386 " fill="none" id="Course-to-CourseCode" style="stroke:#181818;stroke-width:1.0;"/><polygon fill="#181818" points="251.897,266.0986,260.7439,261.7705,255.1089,262.2666,254.6128,256.6315,251.897,266.0986" style="stroke:#181818;stroke-width:1.0;"/></g><!--link Course to CourseDescription--><g id="link_Course_CourseDescription"><path codeLine="46" d="M748.319,135.3416 C692.226,147.7276 588.999,174.2526 509,216.1016 C485.174,228.5656 461.211,246.7736 442.718,262.3556 " fill="none" id="Course-to-CourseDescription" style="stroke:#181818;stroke-width:1.0;"/><polygon fill="#181818" points="438.618,265.8416,448.0649,263.0566,442.4264,262.6017,442.8812,256.9632,438.618,265.8416" style="stroke:#181818;stroke-width:1.0;"/></g><!--link Course to CourseStatus--><g id="link_Course_CourseStatus"><path codeLine="47" d="M748.245,156.0716 C725.094,172.9616 695.858,195.0296 671,216.1016 C653.808,230.6746 635.542,247.8756 620.715,262.3196 " fill="none" id="Course-to-CourseStatus" style="stroke:#181818;stroke-width:1.0;"/><polygon fill="#181818" points="617.022,265.9286,626.2545,262.4991,620.598,262.434,620.6632,256.7775,617.022,265.9286" style="stroke:#181818;stroke-width:1.0;"/></g><!--link Course to CourseEnrolmentLimits--><g id="link_Course_CourseEnrolmentLimits"><path codeLine="48" d="M789,161.4966 C789,185.4456 789,217.7316 789,244.3306 " fill="none" id="Course-to-CourseEnrolmentLimits" style="stroke:#181818;stroke-width:1.0;"/><polygon fill="#181818" points="789,249.5696,793,240.5696,789,244.5696,785,240.5696,789,249.5696" style="stroke:#181818;stroke-width:1.0;"/></g><!--link Course to CourseDate--><g id="link_Course_CourseDate"><path codeLine="49" d="M829.739,155.5736 C853.018,172.3916 882.384,194.5516 907,216.1016 C917.447,225.2476 928.198,235.5316 938.206,245.5346 " fill="none" id="Course-to-CourseDate" style="stroke:#181818;stroke-width:1.0;"/><polygon fill="#181818" points="941.857,249.2036,938.3456,240.0019,938.3308,245.6588,932.6739,245.6439,941.857,249.2036" style="stroke:#181818;stroke-width:1.0;"/></g><!--link Course to Class--><g id="link_Course_Class"><path codeLine="50" d="M829.821,138.9066 C934.451,169.1656 1211.55,249.3016 1319.28,280.4586 " fill="none" id="Course-to-Class" style="stroke:#181818;stroke-width:1.0;"/><polygon fill="#181818" points="1324.28,281.9056,1316.7411,275.568,1319.4758,280.5199,1314.524,283.2547,1324.28,281.9056" style="stroke:#181818;stroke-width:1.0;"/><polygon fill="#000000" points="1068.8032,201.0571,1060.9306,195.7209,1059.2977,201.3674,1068.8032,201.0571" style="stroke:#000000;stroke-width:1.0;"/><text fill="#000000" font-family="sans-serif" font-size="13" lengthAdjust="spacing" textLength="23" x="1073" y="204.1685">has</text><text fill="#000000" font-family="sans-serif" font-size="13" lengthAdjust="spacing" textLength="8" x="837.5246" y="154.4547">1</text><text fill="#000000" font-family="sans-serif" font-size="13" lengthAdjust="spacing" textLength="23" x="1293.5901" y="275.9487">1..*</text></g><!--link Course to Teacher--><g id="link_Course_Teacher"><path codeLine="51" d="M829.714,128.1726 C1007.38,133.1856 1709.3,156.6436 1786,216.1016 C1821.03,243.2586 1853.59,368.3726 1868.49,433.2816 " fill="none" id="Course-to-Teacher" style="stroke:#181818;stroke-width:1.0;"/><polygon fill="#181818" points="1869.62,438.2286,1871.5179,428.5643,1868.5078,433.3538,1863.7183,430.3438,1869.62,438.2286" style="stroke:#181818;stroke-width:1.0;"/><polygon fill="#000000" points="1860.7973,295.577,1852.9471,290.2082,1851.2906,295.8478,1860.7973,295.577" style="stroke:#000000;stroke-width:1.0;"/><text fill="#000000" font-family="sans-serif" font-size="13" lengthAdjust="spacing" textLength="100" x="1865" y="298.6685">has responsible</text><text fill="#000000" font-family="sans-serif" font-size="13" lengthAdjust="spacing" textLength="8" x="837.3992" y="124.2976">1</text><text fill="#000000" font-family="sans-serif" font-size="13" lengthAdjust="spacing" textLength="8" x="1859.5929" y="427.6497">1</text></g><!--link Course to Teacher--><g id="link_Course_Teacher"><path codeLine="52" d="M829.823,126.8916 C1029.47,126.2866 1896.55,128.7316 1974,216.1016 C2017.19,264.8246 1997.02,301.6946 1974,362.6016 C1963.54,390.2896 1942.57,415.5136 1922.8,434.8026 " fill="none" id="Course-to-Teacher-1" style="stroke:#181818;stroke-width:1.0;"/><polygon fill="#181818" points="1918.87,438.5806,1928.1278,435.2201,1922.472,435.1127,1922.5793,429.4569,1918.87,438.5806" style="stroke:#181818;stroke-width:1.0;"/><polygon fill="#000000" points="2008.8127,295.5238,2000.9034,290.2423,1999.3095,295.8999,2008.8127,295.5238" style="stroke:#000000;stroke-width:1.0;"/><text fill="#000000" font-family="sans-serif" font-size="13" lengthAdjust="spacing" textLength="56" x="2013" y="298.6685">is taught</text><text fill="#000000" font-family="sans-serif" font-size="13" lengthAdjust="spacing" textLength="23" x="837.5079" y="140.1686">1..*</text><text fill="#000000" font-family="sans-serif" font-size="13" lengthAdjust="spacing" textLength="23" x="1901.6593" y="427.5322">1..*</text></g><!--link Class to ClassTitle--><g id="link_Class_ClassTitle"><path codeLine="55" d="M1324.25,322.0046 C1297.05,341.4516 1260.28,368.8946 1230,395.6016 C1213.75,409.9316 1196.82,427.0996 1183.16,441.5836 " fill="none" id="Class-to-ClassTitle" style="stroke:#181818;stroke-width:1.0;"/><polygon fill="#181818" points="1179.4,445.5936,1188.4771,441.7718,1182.823,441.949,1182.6458,436.2949,1179.4,445.5936" style="stroke:#181818;stroke-width:1.0;"/></g><!--link Class to ClassDuration--><g id="link_Class_ClassDuration"><path codeLine="56" d="M1353.36,329.3256 C1344.31,361.4556 1330.87,409.1526 1322.03,440.5546 " fill="none" id="Class-to-ClassDuration" style="stroke:#181818;stroke-width:1.0;"/><polygon fill="#181818" points="1320.65,445.4496,1326.9398,437.8707,1322.0053,440.6368,1319.2393,435.7023,1320.65,445.4496" style="stroke:#181818;stroke-width:1.0;"/></g><!--link Class to ClassDayOfTheWeek--><g id="link_Class_ClassDayOfTheWeek"><path codeLine="57" d="M1389.99,329.3256 C1415.54,361.7196 1453.58,409.9386 1478.33,441.3266 " fill="none" id="Class-to-ClassDayOfTheWeek" style="stroke:#181818;stroke-width:1.0;"/><polygon fill="#181818" points="1481.58,445.4496,1479.1514,435.9048,1478.4853,441.5223,1472.8678,440.8563,1481.58,445.4496" style="stroke:#181818;stroke-width:1.0;"/></g><!--link Class to ClassStartTime--><g id="link_Class_ClassStartTime"><path codeLine="58" d="M1401.65,306.4736 C1451.89,322.2076 1541.32,353.5086 1610,395.6016 C1631.04,408.4946 1652.03,426.3596 1668.34,441.6356 " fill="none" id="Class-to-ClassStartTime" style="stroke:#181818;stroke-width:1.0;"/><polygon fill="#181818" points="1672.39,445.4586,1668.609,436.3644,1668.7608,442.0192,1663.106,442.1711,1672.39,445.4586" style="stroke:#181818;stroke-width:1.0;"/></g><!--link Class to Teacher--><g id="link_Class_Teacher"><path codeLine="59" d="M1401.59,306.9696 C1466.52,326.5166 1601.97,365.5156 1719,387.6016 C1748.47,393.1626 1758.5,383.6326 1786,395.6016 C1806.82,404.6626 1826.5,420.0986 1842.21,434.7806 " fill="none" id="Class-to-Teacher" style="stroke:#181818;stroke-width:1.0;"/><polygon fill="#181818" points="1846.11,438.4926,1842.3415,429.3932,1842.4856,435.0482,1836.8306,435.1923,1846.11,438.4926" style="stroke:#181818;stroke-width:1.0;"/><polygon fill="#000000" points="1728.8021,380.5609,1720.9338,375.2185,1719.2963,380.8636,1728.8021,380.5609" style="stroke:#000000;stroke-width:1.0;"/><text fill="#000000" font-family="sans-serif" font-size="13" lengthAdjust="spacing" textLength="77" x="1733" y="383.6685">schedule by</text><text fill="#000000" font-family="sans-serif" font-size="13" lengthAdjust="spacing" textLength="23" x="1409.5731" y="304.8839">1..*</text><text fill="#000000" font-family="sans-serif" font-size="13" lengthAdjust="spacing" textLength="8" x="1831.4591" y="427.4274">1</text></g><!--SRC=[bLFBhjCm4DtxAqPXmKFqqYAG4B8iGKjNI2nQOEqcGsfQsv4VG47z9Bw27xjsukQ6NbUzoSAHvyoP6P-PSRe1fs6ZdTCIAc6mT48hGknEg8ORBi49jyUbLcubVYEyV4rQ0r3FvdjkBLge41PQ_lkhX8R80GwVLp2RpgRqXMU4F9vhRooIXfSxNYCKbFAwDbXpXun1XnRmXq3uK8NuXsG4IhjxSAFKQEqOQxtAc3evhRjww9Clp-7HSldc_QlfK_Z1znv1Rxw71sKuSrsDfIpGbaOqKPwHp9NZpjkHf0_AwBqCh_yef71Ns4cx-4cXXFIofzixXF_A8CVx3mrjUN0wwxXnaT5RK5Nz_KYE9FO_Hh_O_WYUTxyjvqhpupcoz_5SUCF7DR5bySEdR-ijVaNSZMEkea9h8HzIPglM6dcvHND9hmIVAPQiLpHxLngj3l9A9R6AKxn9fN-g2Jin0v8symGCTZ0FnLNB8uEDoZjqYvF7plRZGeOuY0afPWLC0bBCRcwU5Md4tiAMMs3tVOfUqSx5e6sqic8JnctWteOQHBqZ2GkE-thhWdiGhStM5zUFRWuu3MWM6unX3k-7BO7_LJWipuP_vSDZDWTWjm00]--></g></svg>