<?xml version="1.0" encoding="us-ascii" standalone="no"?><svg xmlns="http://www.w3.org/2000/svg" xmlns:xlink="http://www.w3.org/1999/xlink" contentStyleType="text/css" height="1109px" preserveAspectRatio="none" style="width:1804px;height:1109px;background:#FFFFFF;" version="1.1" viewBox="0 0 1804 1109" width="1804px" zoomAndPan="magnify"><defs/><g><text fill="#000000" font-family="sans-serif" font-size="14" font-weight="bold" lengthAdjust="spacing" textLength="233" x="787.25" y="30.1074">Sequence Diagram (SD) - US 1010</text><rect fill="#FFFFFF" height="854.8574" style="stroke:#181818;stroke-width:1.0;" width="10" x="33.5" y="137.8633"/><rect fill="#FFFFFF" height="831.5664" style="stroke:#181818;stroke-width:1.0;" width="10" x="506.5" y="161.1543"/><rect fill="#FFFFFF" height="156.4551" style="stroke:#181818;stroke-width:1.0;" width="10" x="926.5" y="255.0273"/><rect fill="#FFFFFF" height="358.9102" style="stroke:#181818;stroke-width:1.0;" width="10" x="926.5" y="602.5195"/><rect fill="#FFFFFF" height="111.1641" style="stroke:#181818;stroke-width:1.0;" width="10" x="1118" y="665.1016"/><rect fill="#FFFFFF" height="93.873" style="stroke:#181818;stroke-width:1.0;" width="10" x="1270" y="286.3184"/><rect fill="#FFFFFF" height="30" style="stroke:#181818;stroke-width:1.0;" width="10" x="1398" y="807.5566"/><rect fill="#FFFFFF" height="30" style="stroke:#181818;stroke-width:1.0;" width="10" x="1398" y="868.8477"/><rect fill="#FFFFFF" height="31.291" style="stroke:#181818;stroke-width:1.0;" width="10" x="1565" y="713.6836"/><rect fill="#FFFFFF" height="31.291" style="stroke:#181818;stroke-width:1.0;" width="10" x="1738.5" y="317.6094"/><line style="stroke:#181818;stroke-width:0.5;stroke-dasharray:5.0,5.0;" x1="38" x2="38" y1="127.8633" y2="1010.7207"/><line style="stroke:#181818;stroke-width:0.5;stroke-dasharray:5.0,5.0;" x1="511.5" x2="511.5" y1="127.8633" y2="1010.7207"/><line style="stroke:#181818;stroke-width:0.5;stroke-dasharray:5.0,5.0;" x1="931.5" x2="931.5" y1="127.8633" y2="1010.7207"/><line style="stroke:#181818;stroke-width:0.5;stroke-dasharray:5.0,5.0;" x1="1122.5" x2="1122.5" y1="127.8633" y2="1010.7207"/><line style="stroke:#181818;stroke-width:0.5;stroke-dasharray:5.0,5.0;" x1="1274.5" x2="1274.5" y1="127.8633" y2="1010.7207"/><line style="stroke:#181818;stroke-width:0.5;stroke-dasharray:5.0,5.0;" x1="1402.5" x2="1402.5" y1="127.8633" y2="1010.7207"/><line style="stroke:#181818;stroke-width:0.5;stroke-dasharray:5.0,5.0;" x1="1569.5" x2="1569.5" y1="127.8633" y2="1010.7207"/><line style="stroke:#181818;stroke-width:0.5;stroke-dasharray:5.0,5.0;" x1="1743.5" x2="1743.5" y1="127.8633" y2="1010.7207"/><text fill="#000000" font-family="sans-serif" font-size="14" lengthAdjust="spacing" textLength="61" x="5" y="124.3496">Professor</text><ellipse cx="38.5" cy="57.7422" fill="#E3E3E3" rx="8" ry="8" style="stroke:#181818;stroke-width:0.5;"/><path d="M38.5,65.7422 L38.5,92.7422 M25.5,73.7422 L51.5,73.7422 M38.5,92.7422 L25.5,107.7422 M38.5,92.7422 L51.5,107.7422 " fill="none" style="stroke:#181818;stroke-width:0.5;"/><text fill="#000000" font-family="sans-serif" font-size="14" lengthAdjust="spacing" textLength="61" x="5" y="1024.8281">Professor</text><ellipse cx="38.5" cy="1036.8418" fill="#E3E3E3" rx="8" ry="8" style="stroke:#181818;stroke-width:0.5;"/><path d="M38.5,1044.8418 L38.5,1071.8418 M25.5,1052.8418 L51.5,1052.8418 M38.5,1071.8418 L25.5,1086.8418 M38.5,1071.8418 L51.5,1086.8418 " fill="none" style="stroke:#181818;stroke-width:0.5;"/><rect fill="#E3E3E3" height="51.2422" rx="2.5" ry="2.5" style="stroke:#181818;stroke-width:0.5;" width="166" x="428.5" y="75.6211"/><text fill="#000000" font-family="sans-serif" font-size="14" font-style="italic" lengthAdjust="spacing" textLength="95" x="464" y="97.7285">&#171;presentation&#187;</text><text fill="#000000" font-family="sans-serif" font-size="14" lengthAdjust="spacing" textLength="152" x="435.5" y="116.3496">CreateRecurringClassUI</text><rect fill="#E3E3E3" height="51.2422" rx="2.5" ry="2.5" style="stroke:#181818;stroke-width:0.5;" width="166" x="428.5" y="1009.7207"/><text fill="#000000" font-family="sans-serif" font-size="14" font-style="italic" lengthAdjust="spacing" textLength="95" x="464" y="1031.8281">&#171;presentation&#187;</text><text fill="#000000" font-family="sans-serif" font-size="14" lengthAdjust="spacing" textLength="152" x="435.5" y="1050.4492">CreateRecurringClassUI</text><text fill="#000000" font-family="sans-serif" font-size="14" font-style="italic" lengthAdjust="spacing" textLength="84" x="886.5" y="105.7285">&#171;application&#187;</text><text fill="#000000" font-family="sans-serif" font-size="14" lengthAdjust="spacing" textLength="202" x="827.5" y="124.3496">CreateRecurringClassController</text><ellipse cx="931.5" cy="74.6211" fill="#E3E3E3" rx="12" ry="12" style="stroke:#181818;stroke-width:0.5;"/><polygon fill="#181818" points="927.5,62.6211,933.5,57.6211,931.5,62.6211,933.5,67.6211,927.5,62.6211" style="stroke:#181818;stroke-width:1.0;"/><text fill="#000000" font-family="sans-serif" font-size="14" font-style="italic" lengthAdjust="spacing" textLength="84" x="886.5" y="1024.8281">&#171;application&#187;</text><text fill="#000000" font-family="sans-serif" font-size="14" lengthAdjust="spacing" textLength="202" x="827.5" y="1043.4492">CreateRecurringClassController</text><ellipse cx="931.5" cy="1062.9629" fill="#E3E3E3" rx="12" ry="12" style="stroke:#181818;stroke-width:0.5;"/><polygon fill="#181818" points="927.5,1050.9629,933.5,1045.9629,931.5,1050.9629,933.5,1055.9629,927.5,1050.9629" style="stroke:#181818;stroke-width:1.0;"/><rect fill="#E3E3E3" height="51.2422" rx="2.5" ry="2.5" style="stroke:#181818;stroke-width:0.5;" width="155" x="1045.5" y="75.6211"/><text fill="#000000" font-family="sans-serif" font-size="14" font-style="italic" lengthAdjust="spacing" textLength="59" x="1093.5" y="97.7285">&#171;builder&#187;</text><text fill="#000000" font-family="sans-serif" font-size="14" lengthAdjust="spacing" textLength="141" x="1052.5" y="116.3496">RecurringClassBuilder</text><rect fill="#E3E3E3" height="51.2422" rx="2.5" ry="2.5" style="stroke:#181818;stroke-width:0.5;" width="155" x="1045.5" y="1009.7207"/><text fill="#000000" font-family="sans-serif" font-size="14" font-style="italic" lengthAdjust="spacing" textLength="59" x="1093.5" y="1031.8281">&#171;builder&#187;</text><text fill="#000000" font-family="sans-serif" font-size="14" lengthAdjust="spacing" textLength="141" x="1052.5" y="1050.4492">RecurringClassBuilder</text><rect fill="#E3E3E3" height="51.2422" rx="2.5" ry="2.5" style="stroke:#181818;stroke-width:0.5;" width="129" x="1210.5" y="75.6211"/><text fill="#000000" font-family="sans-serif" font-size="14" font-style="italic" lengthAdjust="spacing" textLength="84" x="1233" y="97.7285">&#171;application&#187;</text><text fill="#000000" font-family="sans-serif" font-size="14" lengthAdjust="spacing" textLength="115" x="1217.5" y="116.3496">ListCourseService</text><rect fill="#E3E3E3" height="51.2422" rx="2.5" ry="2.5" style="stroke:#181818;stroke-width:0.5;" width="129" x="1210.5" y="1009.7207"/><text fill="#000000" font-family="sans-serif" font-size="14" font-style="italic" lengthAdjust="spacing" textLength="84" x="1233" y="1031.8281">&#171;application&#187;</text><text fill="#000000" font-family="sans-serif" font-size="14" lengthAdjust="spacing" textLength="115" x="1217.5" y="1050.4492">ListCourseService</text><rect fill="#E3E3E3" height="51.2422" rx="2.5" ry="2.5" style="stroke:#181818;stroke-width:0.5;" width="107" x="1349.5" y="75.6211"/><text fill="#000000" font-family="sans-serif" font-size="14" font-style="italic" lengthAdjust="spacing" textLength="62" x="1372" y="97.7285">&#171;domain&#187;</text><text fill="#000000" font-family="sans-serif" font-size="14" lengthAdjust="spacing" textLength="93" x="1356.5" y="116.3496">course:Course</text><rect fill="#E3E3E3" height="51.2422" rx="2.5" ry="2.5" style="stroke:#181818;stroke-width:0.5;" width="107" x="1349.5" y="1009.7207"/><text fill="#000000" font-family="sans-serif" font-size="14" font-style="italic" lengthAdjust="spacing" textLength="62" x="1372" y="1031.8281">&#171;domain&#187;</text><text fill="#000000" font-family="sans-serif" font-size="14" lengthAdjust="spacing" textLength="93" x="1356.5" y="1050.4492">course:Course</text><rect fill="#E3E3E3" height="51.2422" rx="2.5" ry="2.5" style="stroke:#181818;stroke-width:0.5;" width="207" x="1466.5" y="75.6211"/><text fill="#000000" font-family="sans-serif" font-size="14" font-style="italic" lengthAdjust="spacing" textLength="62" x="1539" y="97.7285">&#171;domain&#187;</text><text fill="#000000" font-family="sans-serif" font-size="14" lengthAdjust="spacing" textLength="193" x="1473.5" y="116.3496">recurringClass:RecurringClass</text><rect fill="#E3E3E3" height="51.2422" rx="2.5" ry="2.5" style="stroke:#181818;stroke-width:0.5;" width="207" x="1466.5" y="1009.7207"/><text fill="#000000" font-family="sans-serif" font-size="14" font-style="italic" lengthAdjust="spacing" textLength="62" x="1539" y="1031.8281">&#171;domain&#187;</text><text fill="#000000" font-family="sans-serif" font-size="14" lengthAdjust="spacing" textLength="193" x="1473.5" y="1050.4492">recurringClass:RecurringClass</text><text fill="#000000" font-family="sans-serif" font-size="14" font-style="italic" lengthAdjust="spacing" textLength="79" x="1701" y="105.7285">&#171;repository&#187;</text><text fill="#000000" font-family="sans-serif" font-size="14" lengthAdjust="spacing" textLength="114" x="1683.5" y="124.3496">CourseRepository</text><path d="M1725.5,54.6211 C1725.5,44.6211 1743.5,44.6211 1743.5,44.6211 C1743.5,44.6211 1761.5,44.6211 1761.5,54.6211 L1761.5,80.6211 C1761.5,90.6211 1743.5,90.6211 1743.5,90.6211 C1743.5,90.6211 1725.5,90.6211 1725.5,80.6211 L1725.5,54.6211 " fill="#E3E3E3" style="stroke:#181818;stroke-width:1.5;"/><path d="M1725.5,54.6211 C1725.5,64.6211 1743.5,64.6211 1743.5,64.6211 C1743.5,64.6211 1761.5,64.6211 1761.5,54.6211 " fill="none" style="stroke:#181818;stroke-width:1.5;"/><text fill="#000000" font-family="sans-serif" font-size="14" font-style="italic" lengthAdjust="spacing" textLength="79" x="1701" y="1024.8281">&#171;repository&#187;</text><text fill="#000000" font-family="sans-serif" font-size="14" lengthAdjust="spacing" textLength="114" x="1683.5" y="1043.4492">CourseRepository</text><path d="M1725.5,1056.9629 C1725.5,1046.9629 1743.5,1046.9629 1743.5,1046.9629 C1743.5,1046.9629 1761.5,1046.9629 1761.5,1056.9629 L1761.5,1082.9629 C1761.5,1092.9629 1743.5,1092.9629 1743.5,1092.9629 C1743.5,1092.9629 1725.5,1092.9629 1725.5,1082.9629 L1725.5,1056.9629 " fill="#E3E3E3" style="stroke:#181818;stroke-width:1.5;"/><path d="M1725.5,1056.9629 C1725.5,1066.9629 1743.5,1066.9629 1743.5,1066.9629 C1743.5,1066.9629 1761.5,1066.9629 1761.5,1056.9629 " fill="none" style="stroke:#181818;stroke-width:1.5;"/><rect fill="#FFFFFF" height="854.8574" style="stroke:#181818;stroke-width:1.0;" width="10" x="33.5" y="137.8633"/><rect fill="#FFFFFF" height="831.5664" style="stroke:#181818;stroke-width:1.0;" width="10" x="506.5" y="161.1543"/><rect fill="#FFFFFF" height="156.4551" style="stroke:#181818;stroke-width:1.0;" width="10" x="926.5" y="255.0273"/><rect fill="#FFFFFF" height="358.9102" style="stroke:#181818;stroke-width:1.0;" width="10" x="926.5" y="602.5195"/><rect fill="#FFFFFF" height="111.1641" style="stroke:#181818;stroke-width:1.0;" width="10" x="1118" y="665.1016"/><rect fill="#FFFFFF" height="93.873" style="stroke:#181818;stroke-width:1.0;" width="10" x="1270" y="286.3184"/><rect fill="#FFFFFF" height="30" style="stroke:#181818;stroke-width:1.0;" width="10" x="1398" y="807.5566"/><rect fill="#FFFFFF" height="30" style="stroke:#181818;stroke-width:1.0;" width="10" x="1398" y="868.8477"/><rect fill="#FFFFFF" height="31.291" style="stroke:#181818;stroke-width:1.0;" width="10" x="1565" y="713.6836"/><rect fill="#FFFFFF" height="31.291" style="stroke:#181818;stroke-width:1.0;" width="10" x="1738.5" y="317.6094"/><polygon fill="#181818" points="494.5,157.1543,504.5,161.1543,494.5,165.1543,498.5,161.1543" style="stroke:#181818;stroke-width:1.0;"/><line style="stroke:#181818;stroke-width:1.0;" x1="43.5" x2="500.5" y1="161.1543" y2="161.1543"/><text fill="#000000" font-family="sans-serif" font-size="13" font-weight="bold" lengthAdjust="spacing" textLength="7" x="50.5" y="155.8916">1</text><text fill="#000000" font-family="sans-serif" font-size="13" lengthAdjust="spacing" textLength="166" x="61.5" y="155.8916">Pede para agendar uma aula</text><polygon fill="#181818" points="919.5,188.4453,929.5,192.4453,919.5,196.4453,923.5,192.4453" style="stroke:#181818;stroke-width:1.0;"/><line style="stroke:#181818;stroke-width:1.0;" x1="516.5" x2="925.5" y1="192.4453" y2="192.4453"/><text fill="#000000" font-family="sans-serif" font-size="13" font-weight="bold" lengthAdjust="spacing" textLength="7" x="523.5" y="187.1826">2</text><text fill="#000000" font-family="sans-serif" font-size="13" lengthAdjust="spacing" textLength="36" x="534.5" y="187.1826">create</text><polygon fill="#181818" points="1263,219.7363,1273,223.7363,1263,227.7363,1267,223.7363" style="stroke:#181818;stroke-width:1.0;"/><line style="stroke:#181818;stroke-width:1.0;" x1="931.5" x2="1269" y1="223.7363" y2="223.7363"/><text fill="#000000" font-family="sans-serif" font-size="13" font-weight="bold" lengthAdjust="spacing" textLength="7" x="938.5" y="218.4736">3</text><text fill="#000000" font-family="sans-serif" font-size="13" lengthAdjust="spacing" textLength="36" x="949.5" y="218.4736">create</text><polygon fill="#181818" points="914.5,251.0273,924.5,255.0273,914.5,259.0273,918.5,255.0273" style="stroke:#181818;stroke-width:1.0;"/><line style="stroke:#181818;stroke-width:1.0;" x1="516.5" x2="920.5" y1="255.0273" y2="255.0273"/><text fill="#000000" font-family="sans-serif" font-size="13" font-weight="bold" lengthAdjust="spacing" textLength="7" x="523.5" y="249.7646">4</text><text fill="#000000" font-family="sans-serif" font-size="13" lengthAdjust="spacing" textLength="194" x="534.5" y="249.7646">listAllTeacherCoursesNotClosed()</text><polygon fill="#181818" points="1258,282.3184,1268,286.3184,1258,290.3184,1262,286.3184" style="stroke:#181818;stroke-width:1.0;"/><line style="stroke:#181818;stroke-width:1.0;" x1="936.5" x2="1264" y1="286.3184" y2="286.3184"/><text fill="#000000" font-family="sans-serif" font-size="13" font-weight="bold" lengthAdjust="spacing" textLength="7" x="943.5" y="281.0557">5</text><text fill="#000000" font-family="sans-serif" font-size="13" lengthAdjust="spacing" textLength="218" x="954.5" y="281.0557">allTeacherCoursesNotClosed(teacher)</text><polygon fill="#181818" points="1726.5,313.6094,1736.5,317.6094,1726.5,321.6094,1730.5,317.6094" style="stroke:#181818;stroke-width:1.0;"/><line style="stroke:#181818;stroke-width:1.0;" x1="1280" x2="1732.5" y1="317.6094" y2="317.6094"/><text fill="#000000" font-family="sans-serif" font-size="13" font-weight="bold" lengthAdjust="spacing" textLength="7" x="1287" y="312.3467">6</text><text fill="#000000" font-family="sans-serif" font-size="13" lengthAdjust="spacing" textLength="273" x="1298" y="312.3467">list = findAllTeacherCoursesNotClosed(teacher)</text><polygon fill="#181818" points="1291,344.9004,1281,348.9004,1291,352.9004,1287,348.9004" style="stroke:#181818;stroke-width:1.0;"/><line style="stroke:#181818;stroke-width:1.0;stroke-dasharray:2.0,2.0;" x1="1285" x2="1742.5" y1="348.9004" y2="348.9004"/><text fill="#000000" font-family="sans-serif" font-size="13" font-weight="bold" lengthAdjust="spacing" textLength="7" x="1297" y="343.6377">7</text><text fill="#000000" font-family="sans-serif" font-size="13" lengthAdjust="spacing" textLength="4" x="1308" y="343.6377">&#160;</text><polygon fill="#181818" points="947.5,376.1914,937.5,380.1914,947.5,384.1914,943.5,380.1914" style="stroke:#181818;stroke-width:1.0;"/><line style="stroke:#181818;stroke-width:1.0;stroke-dasharray:2.0,2.0;" x1="941.5" x2="1274" y1="380.1914" y2="380.1914"/><text fill="#000000" font-family="sans-serif" font-size="13" font-weight="bold" lengthAdjust="spacing" textLength="7" x="953.5" y="374.9287">8</text><text fill="#000000" font-family="sans-serif" font-size="13" lengthAdjust="spacing" textLength="17" x="964.5" y="374.9287">list</text><polygon fill="#181818" points="527.5,407.4824,517.5,411.4824,527.5,415.4824,523.5,411.4824" style="stroke:#181818;stroke-width:1.0;"/><line style="stroke:#181818;stroke-width:1.0;stroke-dasharray:2.0,2.0;" x1="521.5" x2="930.5" y1="411.4824" y2="411.4824"/><text fill="#000000" font-family="sans-serif" font-size="13" font-weight="bold" lengthAdjust="spacing" textLength="7" x="533.5" y="406.2197">9</text><text fill="#000000" font-family="sans-serif" font-size="13" lengthAdjust="spacing" textLength="17" x="544.5" y="406.2197">list</text><polygon fill="#181818" points="54.5,438.7734,44.5,442.7734,54.5,446.7734,50.5,442.7734" style="stroke:#181818;stroke-width:1.0;"/><line style="stroke:#181818;stroke-width:1.0;stroke-dasharray:2.0,2.0;" x1="48.5" x2="505.5" y1="442.7734" y2="442.7734"/><text fill="#000000" font-family="sans-serif" font-size="13" font-weight="bold" lengthAdjust="spacing" textLength="14" x="60.5" y="437.5107">10</text><text fill="#000000" font-family="sans-serif" font-size="13" lengthAdjust="spacing" textLength="421" x="78.5" y="437.5107">Mostra a lista de disciplinas que leciona que n&#227;o se encontram fechadas</text><polygon fill="#181818" points="494.5,470.0645,504.5,474.0645,494.5,478.0645,498.5,474.0645" style="stroke:#181818;stroke-width:1.0;"/><line style="stroke:#181818;stroke-width:1.0;" x1="43.5" x2="500.5" y1="474.0645" y2="474.0645"/><text fill="#000000" font-family="sans-serif" font-size="13" font-weight="bold" lengthAdjust="spacing" textLength="14" x="50.5" y="468.8018">11</text><text fill="#000000" font-family="sans-serif" font-size="13" lengthAdjust="spacing" textLength="104" x="68.5" y="468.8018">Seleciona o curso</text><polygon fill="#181818" points="54.5,501.3555,44.5,505.3555,54.5,509.3555,50.5,505.3555" style="stroke:#181818;stroke-width:1.0;"/><line style="stroke:#181818;stroke-width:1.0;stroke-dasharray:2.0,2.0;" x1="48.5" x2="505.5" y1="505.3555" y2="505.3555"/><text fill="#000000" font-family="sans-serif" font-size="13" font-weight="bold" lengthAdjust="spacing" textLength="14" x="60.5" y="500.0928">12</text><text fill="#000000" font-family="sans-serif" font-size="13" lengthAdjust="spacing" textLength="108" x="78.5" y="500.0928">Pede a informa&#231;&#227;o</text><polygon fill="#181818" points="494.5,549.9375,504.5,553.9375,494.5,557.9375,498.5,553.9375" style="stroke:#181818;stroke-width:1.0;"/><line style="stroke:#181818;stroke-width:1.0;" x1="43.5" x2="500.5" y1="553.9375" y2="553.9375"/><text fill="#000000" font-family="sans-serif" font-size="13" font-weight="bold" lengthAdjust="spacing" textLength="14" x="50.5" y="540.0293">13</text><text fill="#000000" font-family="sans-serif" font-size="13" lengthAdjust="spacing" textLength="311" x="68.5" y="531.3838">Escreve a informa&#231;&#227;o da aula (t&#237;tulo, hora de come&#231;o,</text><text fill="#000000" font-family="sans-serif" font-size="13" lengthAdjust="spacing" textLength="150" x="72.5" y="548.6748">dura&#231;&#227;o e dia da semana)</text><polygon fill="#181818" points="914.5,598.5195,924.5,602.5195,914.5,606.5195,918.5,602.5195" style="stroke:#181818;stroke-width:1.0;"/><line style="stroke:#181818;stroke-width:1.0;" x1="516.5" x2="920.5" y1="602.5195" y2="602.5195"/><text fill="#000000" font-family="sans-serif" font-size="13" font-weight="bold" lengthAdjust="spacing" textLength="14" x="523.5" y="588.6113">14</text><text fill="#000000" font-family="sans-serif" font-size="13" lengthAdjust="spacing" textLength="369" x="541.5" y="579.9658">addRecurringClassToCourse(course, classTitle, classStartTime,</text><text fill="#000000" font-family="sans-serif" font-size="13" lengthAdjust="spacing" textLength="220" x="545.5" y="597.2568">classDuration e classDayOfTheWeek)</text><polygon fill="#181818" points="1111,629.8105,1121,633.8105,1111,637.8105,1115,633.8105" style="stroke:#181818;stroke-width:1.0;"/><line style="stroke:#181818;stroke-width:1.0;" x1="936.5" x2="1117" y1="633.8105" y2="633.8105"/><text fill="#000000" font-family="sans-serif" font-size="13" font-weight="bold" lengthAdjust="spacing" textLength="14" x="943.5" y="628.5479">15</text><text fill="#000000" font-family="sans-serif" font-size="13" lengthAdjust="spacing" textLength="36" x="961.5" y="628.5479">create</text><polygon fill="#181818" points="1106,661.1016,1116,665.1016,1106,669.1016,1110,665.1016" style="stroke:#181818;stroke-width:1.0;"/><line style="stroke:#181818;stroke-width:1.0;" x1="936.5" x2="1112" y1="665.1016" y2="665.1016"/><text fill="#000000" font-family="sans-serif" font-size="13" font-weight="bold" lengthAdjust="spacing" textLength="14" x="943.5" y="659.8389">16</text><text fill="#000000" font-family="sans-serif" font-size="13" lengthAdjust="spacing" textLength="132" x="961.5" y="659.8389">createRecurringClass()</text><polygon fill="#181818" points="1553,709.6836,1563,713.6836,1553,717.6836,1557,713.6836" style="stroke:#181818;stroke-width:1.0;"/><line style="stroke:#181818;stroke-width:1.0;" x1="1128" x2="1559" y1="713.6836" y2="713.6836"/><text fill="#000000" font-family="sans-serif" font-size="13" font-weight="bold" lengthAdjust="spacing" textLength="14" x="1135" y="699.7754">17</text><text fill="#000000" font-family="sans-serif" font-size="13" lengthAdjust="spacing" textLength="354" x="1153" y="691.1299">createRecurringClass(durationOfClass, classDayOfTheWeek,</text><text fill="#000000" font-family="sans-serif" font-size="13" lengthAdjust="spacing" textLength="205" x="1157" y="708.4209">classStartTime, classTitle, teacher)</text><polygon fill="#181818" points="1139,740.9746,1129,744.9746,1139,748.9746,1135,744.9746" style="stroke:#181818;stroke-width:1.0;"/><line style="stroke:#181818;stroke-width:1.0;stroke-dasharray:2.0,2.0;" x1="1133" x2="1569" y1="744.9746" y2="744.9746"/><text fill="#000000" font-family="sans-serif" font-size="13" font-weight="bold" lengthAdjust="spacing" textLength="14" x="1145" y="739.7119">18</text><text fill="#000000" font-family="sans-serif" font-size="13" lengthAdjust="spacing" textLength="83" x="1163" y="739.7119">recurringClass</text><polygon fill="#181818" points="947.5,772.2656,937.5,776.2656,947.5,780.2656,943.5,776.2656" style="stroke:#181818;stroke-width:1.0;"/><line style="stroke:#181818;stroke-width:1.0;" x1="941.5" x2="1122" y1="776.2656" y2="776.2656"/><text fill="#000000" font-family="sans-serif" font-size="13" font-weight="bold" lengthAdjust="spacing" textLength="14" x="953.5" y="771.0029">19</text><text fill="#000000" font-family="sans-serif" font-size="13" lengthAdjust="spacing" textLength="83" x="971.5" y="771.0029">recurringClass</text><polygon fill="#181818" points="1386,803.5566,1396,807.5566,1386,811.5566,1390,807.5566" style="stroke:#181818;stroke-width:1.0;"/><line style="stroke:#181818;stroke-width:1.0;" x1="936.5" x2="1392" y1="807.5566" y2="807.5566"/><text fill="#000000" font-family="sans-serif" font-size="13" font-weight="bold" lengthAdjust="spacing" textLength="14" x="943.5" y="802.2939">20</text><text fill="#000000" font-family="sans-serif" font-size="13" lengthAdjust="spacing" textLength="145" x="961.5" y="802.2939">checkCourseAvailability()</text><polygon fill="#181818" points="1386,864.8477,1396,868.8477,1386,872.8477,1390,868.8477" style="stroke:#181818;stroke-width:1.0;"/><line style="stroke:#181818;stroke-width:1.0;" x1="936.5" x2="1392" y1="868.8477" y2="868.8477"/><text fill="#000000" font-family="sans-serif" font-size="13" font-weight="bold" lengthAdjust="spacing" textLength="14" x="943.5" y="863.585">21</text><text fill="#000000" font-family="sans-serif" font-size="13" lengthAdjust="spacing" textLength="200" x="961.5" y="863.585">addRecurringClass(recurringClass)</text><polygon fill="#181818" points="1731.5,926.1387,1741.5,930.1387,1731.5,934.1387,1735.5,930.1387" style="stroke:#181818;stroke-width:1.0;"/><line style="stroke:#181818;stroke-width:1.0;" x1="936.5" x2="1737.5" y1="930.1387" y2="930.1387"/><text fill="#000000" font-family="sans-serif" font-size="13" font-weight="bold" lengthAdjust="spacing" textLength="14" x="943.5" y="924.876">22</text><text fill="#000000" font-family="sans-serif" font-size="13" lengthAdjust="spacing" textLength="73" x="961.5" y="924.876">save(course)</text><polygon fill="#181818" points="527.5,957.4297,517.5,961.4297,527.5,965.4297,523.5,961.4297" style="stroke:#181818;stroke-width:1.0;"/><line style="stroke:#181818;stroke-width:1.0;stroke-dasharray:2.0,2.0;" x1="521.5" x2="930.5" y1="961.4297" y2="961.4297"/><text fill="#000000" font-family="sans-serif" font-size="13" font-weight="bold" lengthAdjust="spacing" textLength="14" x="533.5" y="956.167">23</text><text fill="#000000" font-family="sans-serif" font-size="13" lengthAdjust="spacing" textLength="39" x="551.5" y="956.167">course</text><polygon fill="#181818" points="49.5,988.7207,39.5,992.7207,49.5,996.7207,45.5,992.7207" style="stroke:#181818;stroke-width:1.0;"/><line style="stroke:#181818;stroke-width:1.0;stroke-dasharray:2.0,2.0;" x1="43.5" x2="510.5" y1="992.7207" y2="992.7207"/><text fill="#000000" font-family="sans-serif" font-size="13" font-weight="bold" lengthAdjust="spacing" textLength="14" x="55.5" y="987.458">24</text><text fill="#000000" font-family="sans-serif" font-size="13" lengthAdjust="spacing" textLength="181" x="73.5" y="987.458">Informa o sucesso da opera&#231;&#227;o</text><!--SRC=[jLRDRXen4BxlKrWzWHIav8gsaIZq4Abjea3KIo-3Tm0BhxsrlLGyJmyvzIbuiOvjzWyM6aKgXsXippV_ystiLgW23EGirqhpZT4vCcTAJ6pzKW3VmXhdRY-H6UGEr5gs5Um6ClrBg3LRWRIO94uuKftZpn8LHpOJiFPwW_bio4RiPSxkRkzk4oYTLcM-H9Cam9qsxCde5LfB4bWsyLS9UN22YmAKOrE3uF0PUMaCUPjAiFRbmUlItpGj35fK3fpGwlu-uLevesKlQXhV90PFhLEQGb58mIiZRVTT4vzA8RE8hyGqNKRf1FX5M3VLfR4uHxCJL142LU8rZnzuG8qZ-4ECrOipdODGXCs2S0epdKZ7tS23cUxLkRaC72p1uj7VCnRQ2kh7FeBhKvgQ-a0mtqUnet8VkyVe5oGsklTD6hCdp93viM4qKYe3mygSv592KAxnBm_Xx7-48tIhIMF6GqzhZTORQLQLFLFhCIIfDHCf5mXyWoOcQxzfDvNQOZOOrjWwi0QU_DC_NBRiudsFWoEyiLxP8zEjoiVOsKUs4YgRlCTHOwpnrN8mQgTIAsJOXpyBjQ_EVJQgPFigMOtC9MnV9toB2HTdRio-Qklyg0KRG62M2KjR8eMYEIPwOX8vxHq4MHr-QqOpJwJbJHDZhP0Jju5j77IdUOuLNZDQAAilHXBc7fXGAsroEBoIgqj6FrkQszsfDilYch21E_nnfTGtRADDo8aJQHzUwUA7ObbfZle-L_0eYpae62RNzW2oh4i92nqdQH0fw8RnSEk9_IZF7L7EGkGO_8Qh6JdtD4Q-undsZwl51hyZRg-lKlycLSHQR_8RzRgf35gfrxwFaEQbiX6sh8SSBndFZZa_hiBvvZppfZwjahNBUMr5poDfBsjFdADMFIZcxgSWwT_ZQqvQTUbCp8dX7hjd9UushVCbe-9ka6_ZtMG7Gi9IIE7s_HJS8Fk9eVN-Dkzdyp_evlUVekZmkOLTjMx3guGOTP9tSk9391LYB5jo_z-MvmXTeAbOgMMEliATS_og_mK0]--></g></svg>