<?xml version="1.0" encoding="us-ascii" standalone="no"?><svg xmlns="http://www.w3.org/2000/svg" xmlns:xlink="http://www.w3.org/1999/xlink" contentStyleType="text/css" height="424px" preserveAspectRatio="none" style="width:480px;height:424px;background:#FFFFFF;" version="1.1" viewBox="0 0 480 424" width="480px" zoomAndPan="magnify"><defs/><g><text fill="#000000" font-family="sans-serif" font-size="14" font-weight="bold" lengthAdjust="spacing" textLength="345" x="66.75" y="27.9951">System Sequence Diagram (SSD) - US 1010</text><rect fill="#FFFFFF" height="197.0625" style="stroke:#181818;stroke-width:1.0;" width="10" x="37" y="128.5938"/><rect fill="#FFFFFF" height="44.2656" style="stroke:#181818;stroke-width:1.0;" width="10" x="431" y="149.7266"/><rect fill="#FFFFFF" height="29.1328" style="stroke:#181818;stroke-width:1.0;" width="10" x="431" y="223.125"/><rect fill="#FFFFFF" height="29.1328" style="stroke:#181818;stroke-width:1.0;" width="10" x="431" y="296.5234"/><line style="stroke:#181818;stroke-width:0.5;stroke-dasharray:5.0,5.0;" x1="42" x2="42" y1="118.5938" y2="343.6563"/><line style="stroke:#181818;stroke-width:0.5;stroke-dasharray:5.0,5.0;" x1="435.5" x2="435.5" y1="118.5938" y2="343.6563"/><text fill="#000000" font-family="sans-serif" font-size="14" lengthAdjust="spacing" textLength="68" x="5" y="115.292">Professor</text><ellipse cx="42" cy="50.7969" fill="#E3E3E3" rx="8" ry="8" style="stroke:#181818;stroke-width:0.5;"/><path d="M42,58.7969 L42,85.7969 M29,66.7969 L55,66.7969 M42,85.7969 L29,100.7969 M42,85.7969 L55,100.7969 " fill="none" style="stroke:#181818;stroke-width:0.5;"/><text fill="#000000" font-family="sans-serif" font-size="14" lengthAdjust="spacing" textLength="68" x="5" y="355.6514">Professor</text><ellipse cx="42" cy="367.4531" fill="#E3E3E3" rx="8" ry="8" style="stroke:#181818;stroke-width:0.5;"/><path d="M42,375.4531 L42,402.4531 M29,383.4531 L55,383.4531 M42,402.4531 L29,417.4531 M42,402.4531 L55,417.4531 " fill="none" style="stroke:#181818;stroke-width:0.5;"/><rect fill="#E3E3E3" height="30.2969" rx="2.5" ry="2.5" style="stroke:#181818;stroke-width:0.5;" width="77" x="397.5" y="87.2969"/><text fill="#000000" font-family="sans-serif" font-size="14" lengthAdjust="spacing" textLength="63" x="404.5" y="107.292">:Sistema</text><rect fill="#E3E3E3" height="30.2969" rx="2.5" ry="2.5" style="stroke:#181818;stroke-width:0.5;" width="77" x="397.5" y="342.6563"/><text fill="#000000" font-family="sans-serif" font-size="14" lengthAdjust="spacing" textLength="63" x="404.5" y="362.6514">:Sistema</text><rect fill="#FFFFFF" height="197.0625" style="stroke:#181818;stroke-width:1.0;" width="10" x="37" y="128.5938"/><rect fill="#FFFFFF" height="44.2656" style="stroke:#181818;stroke-width:1.0;" width="10" x="431" y="149.7266"/><rect fill="#FFFFFF" height="29.1328" style="stroke:#181818;stroke-width:1.0;" width="10" x="431" y="223.125"/><rect fill="#FFFFFF" height="29.1328" style="stroke:#181818;stroke-width:1.0;" width="10" x="431" y="296.5234"/><polygon fill="#181818" points="419,145.7266,429,149.7266,419,153.7266,423,149.7266" style="stroke:#181818;stroke-width:1.0;"/><line style="stroke:#181818;stroke-width:1.0;" x1="47" x2="425" y1="149.7266" y2="149.7266"/><text fill="#000000" font-family="sans-serif" font-size="13" font-weight="bold" lengthAdjust="spacing" textLength="9" x="54" y="144.6606">1</text><text fill="#000000" font-family="sans-serif" font-size="13" lengthAdjust="spacing" textLength="186" x="67" y="144.6606">Pede para agendar uma aula</text><polygon fill="#181818" points="58,189.9922,48,193.9922,58,197.9922,54,193.9922" style="stroke:#181818;stroke-width:1.0;"/><line style="stroke:#181818;stroke-width:1.0;stroke-dasharray:2.0,2.0;" x1="52" x2="435" y1="193.9922" y2="193.9922"/><text fill="#000000" font-family="sans-serif" font-size="13" font-weight="bold" lengthAdjust="spacing" textLength="9" x="64" y="181.3599">2</text><text fill="#000000" font-family="sans-serif" font-size="13" lengthAdjust="spacing" textLength="202" x="77" y="173.7935">Mostra a lista de disciplinas que</text><text fill="#000000" font-family="sans-serif" font-size="13" lengthAdjust="spacing" textLength="257" x="81" y="188.9263">leciona que n&#227;o se encontram fechadas</text><polygon fill="#181818" points="419,219.125,429,223.125,419,227.125,423,223.125" style="stroke:#181818;stroke-width:1.0;"/><line style="stroke:#181818;stroke-width:1.0;" x1="47" x2="425" y1="223.125" y2="223.125"/><text fill="#000000" font-family="sans-serif" font-size="13" font-weight="bold" lengthAdjust="spacing" textLength="8" x="54" y="218.0591">3</text><text fill="#000000" font-family="sans-serif" font-size="13" lengthAdjust="spacing" textLength="112" x="66" y="218.0591">Seleciona o curso</text><polygon fill="#181818" points="58,248.2578,48,252.2578,58,256.2578,54,252.2578" style="stroke:#181818;stroke-width:1.0;"/><line style="stroke:#181818;stroke-width:1.0;stroke-dasharray:2.0,2.0;" x1="52" x2="435" y1="252.2578" y2="252.2578"/><text fill="#000000" font-family="sans-serif" font-size="13" font-weight="bold" lengthAdjust="spacing" textLength="9" x="64" y="247.1919">4</text><text fill="#000000" font-family="sans-serif" font-size="13" lengthAdjust="spacing" textLength="121" x="77" y="247.1919">Pede a informa&#231;&#227;o</text><polygon fill="#181818" points="419,292.5234,429,296.5234,419,300.5234,423,296.5234" style="stroke:#181818;stroke-width:1.0;"/><line style="stroke:#181818;stroke-width:1.0;" x1="47" x2="425" y1="296.5234" y2="296.5234"/><text fill="#000000" font-family="sans-serif" font-size="13" font-weight="bold" lengthAdjust="spacing" textLength="9" x="54" y="283.8911">5</text><text fill="#000000" font-family="sans-serif" font-size="13" lengthAdjust="spacing" textLength="348" x="67" y="276.3247">Escreve a informa&#231;&#227;o da aula (t&#237;tulo, hora de come&#231;o,</text><text fill="#000000" font-family="sans-serif" font-size="13" lengthAdjust="spacing" textLength="168" x="71" y="291.4575">dura&#231;&#227;o e dia da semana)</text><polygon fill="#181818" points="53,321.6563,43,325.6563,53,329.6563,49,325.6563" style="stroke:#181818;stroke-width:1.0;"/><line style="stroke:#181818;stroke-width:1.0;stroke-dasharray:2.0,2.0;" x1="47" x2="435" y1="325.6563" y2="325.6563"/><text fill="#000000" font-family="sans-serif" font-size="13" font-weight="bold" lengthAdjust="spacing" textLength="9" x="59" y="320.5903">6</text><text fill="#000000" font-family="sans-serif" font-size="13" lengthAdjust="spacing" textLength="202" x="72" y="320.5903">Informa o sucesso da opera&#231;&#227;o</text><!--SRC=[ZLAzQiCm4Dxr54Uc11f8rWo5GZfqA0H4jovN-Uo8o3fNFobvdWwP-XH-iPuSfmsXXKoIJlVzdHHtrdSOi8MMFPjju9OWXKmg_jnqQ7ROa4u7Hn389FIDkso8Mwpum_e6QdIHb4esIQi-n4GjQ7hFv0t1sc9JsgTQhsSmXnSDoyLoeJ0dzhbzew0KciG19fl0DSN8OG8OuQ4KbMWbQso7Fi5afMqXn-7-93I0xHuJZG0rB32_FpjPmOOgWc8Q992lC41kPPyT_e97jX4p5_Y9PmNF75E1WXDn1A6gR1H7pdfn8IdXrOCZOzdZSFJz9qCaaFZiKybUav5XOLGLNGl-OLVJcOt1v13v5fT3HWJhQmujzaVnS9lQOpI1zjTOg4u3Wcdglr9sV0TR3aDw8v-bFqf1ObSvZFrbAbXGKTx7u-mMpqydGOaPioaFN_3SKVZV_qLfOFa6]--></g></svg>