<?xml version="1.0" encoding="us-ascii" standalone="no"?><svg xmlns="http://www.w3.org/2000/svg" xmlns:xlink="http://www.w3.org/1999/xlink" contentStyleType="text/css" height="736px" preserveAspectRatio="none" style="width:1325px;height:736px;background:#FFFFFF;" version="1.1" viewBox="0 0 1325 736" width="1325px" zoomAndPan="magnify"><defs/><g><!--cluster <<aggregate>> Person--><g id="cluster_&lt;&lt;aggregate&gt;&gt; Person"><path d="M760.5,185.0137 L903.5,185.0137 A3.75,3.75 0 0 1 906,187.5137 L913,209.6348 L1073.5,209.6348 A2.5,2.5 0 0 1 1076,212.1348 L1076,522.5137 A2.5,2.5 0 0 1 1073.5,525.0137 L760.5,525.0137 A2.5,2.5 0 0 1 758,522.5137 L758,187.5137 A2.5,2.5 0 0 1 760.5,185.0137 " fill="none" style="stroke:#000000;stroke-width:1.5;"/><line style="stroke:#000000;stroke-width:1.5;" x1="758" x2="913" y1="209.6348" y2="209.6348"/><text fill="#000000" font-family="sans-serif" font-size="14" font-weight="bold" lengthAdjust="spacing" textLength="142" x="762" y="202.1211">&#171;aggregate&#187; Person</text></g><!--cluster <<aggregate>> Teacher--><g id="cluster_&lt;&lt;aggregate&gt;&gt; Teacher"><path d="M571.5,6.0137 L721.5,6.0137 A3.75,3.75 0 0 1 724,8.5137 L731,30.6348 L731.5,30.6348 A2.5,2.5 0 0 1 734,33.1348 L734,304.5137 A2.5,2.5 0 0 1 731.5,307.0137 L571.5,307.0137 A2.5,2.5 0 0 1 569,304.5137 L569,8.5137 A2.5,2.5 0 0 1 571.5,6.0137 " fill="none" style="stroke:#000000;stroke-width:1.5;"/><line style="stroke:#000000;stroke-width:1.5;" x1="569" x2="731" y1="30.6348" y2="30.6348"/><text fill="#000000" font-family="sans-serif" font-size="14" font-weight="bold" lengthAdjust="spacing" textLength="149" x="573" y="23.1211">&#171;aggregate&#187; Teacher</text></g><!--cluster <<aggregate>> Student--><g id="cluster_&lt;&lt;aggregate&gt;&gt; Student"><path d="M1102.5,6.0137 L1250.5,6.0137 A3.75,3.75 0 0 1 1253,8.5137 L1260,30.6348 L1315.5,30.6348 A2.5,2.5 0 0 1 1318,33.1348 L1318,304.5137 A2.5,2.5 0 0 1 1315.5,307.0137 L1102.5,307.0137 A2.5,2.5 0 0 1 1100,304.5137 L1100,8.5137 A2.5,2.5 0 0 1 1102.5,6.0137 " fill="none" style="stroke:#000000;stroke-width:1.5;"/><line style="stroke:#000000;stroke-width:1.5;" x1="1100" x2="1260" y1="30.6348" y2="30.6348"/><text fill="#000000" font-family="sans-serif" font-size="14" font-weight="bold" lengthAdjust="spacing" textLength="147" x="1104" y="23.1211">&#171;aggregate&#187; Student</text></g><!--cluster <<aggregate>> Manager--><g id="cluster_&lt;&lt;aggregate&gt;&gt; Manager"><path d="M349.5,185.0137 L504.5,185.0137 A3.75,3.75 0 0 1 507,187.5137 L514,209.6348 L514.5,209.6348 A2.5,2.5 0 0 1 517,212.1348 L517,312.5137 A2.5,2.5 0 0 1 514.5,315.0137 L349.5,315.0137 A2.5,2.5 0 0 1 347,312.5137 L347,187.5137 A2.5,2.5 0 0 1 349.5,185.0137 " fill="none" style="stroke:#000000;stroke-width:1.5;"/><line style="stroke:#000000;stroke-width:1.5;" x1="347" x2="514" y1="209.6348" y2="209.6348"/><text fill="#000000" font-family="sans-serif" font-size="14" font-weight="bold" lengthAdjust="spacing" textLength="154" x="351" y="202.1211">&#171;aggregate&#187; Manager</text></g><!--cluster <<aggregate>> SystemUser--><g id="cluster_&lt;&lt;aggregate&gt;&gt; SystemUser"><path d="M8.5,366.0137 L184.5,366.0137 A3.75,3.75 0 0 1 187,368.5137 L194,390.6348 L731.5,390.6348 A2.5,2.5 0 0 1 734,393.1348 L734,726.5137 A2.5,2.5 0 0 1 731.5,729.0137 L8.5,729.0137 A2.5,2.5 0 0 1 6,726.5137 L6,368.5137 A2.5,2.5 0 0 1 8.5,366.0137 " fill="none" style="stroke:#000000;stroke-width:1.5;"/><line style="stroke:#000000;stroke-width:1.5;" x1="6" x2="194" y1="390.6348" y2="390.6348"/><text fill="#000000" font-family="sans-serif" font-size="14" font-weight="bold" lengthAdjust="spacing" textLength="175" x="10" y="383.1211">&#171;aggregate&#187; SystemUser</text></g><!--class Person--><g id="elem_Person"><rect codeLine="6" fill="#F1F1F1" height="76.543" id="Person" rx="2.5" ry="2.5" style="stroke:#181818;stroke-width:0.5;" width="77" x="806.5" y="222.0137"/><ellipse cx="821.5" cy="252.2852" fill="#ADD1B2" rx="11" ry="11" style="stroke:#181818;stroke-width:1.0;"/><path d="M820.3594,253.082 L820.3594,255.582 L824.6875,255.582 L824.6875,254.6602 Q824.6875,254.0508 824.9219,253.7852 Q825.1719,253.5195 825.5469,253.5195 Q825.9219,253.5195 826.1563,253.7852 Q826.3906,254.0508 826.3906,254.6602 L826.3906,257.2852 L818.3906,257.2852 Q817.7656,257.2852 817.5,257.0508 Q817.25,256.8164 817.25,256.4258 Q817.25,256.0508 817.5156,255.8164 Q817.7813,255.582 818.3906,255.582 L818.6563,255.582 L818.6563,248.9258 L818.3906,248.9258 Q817.7656,248.9258 817.5,248.6914 Q817.25,248.457 817.25,248.0664 Q817.25,247.6914 817.5,247.457 Q817.7656,247.2227 818.3906,247.2227 L826.0156,247.2227 L826.0156,249.8164 Q826.0156,250.4258 825.7813,250.6914 Q825.5625,250.9414 825.1719,250.9414 Q824.7969,250.9414 824.5625,250.6914 Q824.3281,250.4258 824.3281,249.8164 L824.3281,248.9258 L820.3594,248.9258 L820.3594,251.3789 L821.8438,251.3789 Q821.8438,250.7227 821.9688,250.5352 Q822.2344,250.1289 822.7031,250.1289 Q823.0781,250.1289 823.3125,250.3945 Q823.5469,250.6445 823.5469,251.2539 L823.5469,253.2227 Q823.5469,253.7695 823.4219,253.957 Q823.1563,254.3477 822.7031,254.3477 Q822.2344,254.3477 821.9688,253.9414 Q821.8438,253.7539 821.8438,253.082 L820.3594,253.082 Z " fill="#000000"/><text fill="#000000" font-family="sans-serif" font-size="12" font-style="italic" lengthAdjust="spacing" textLength="43" x="836.5" y="239.9629">&#171;entity&#187;</text><text fill="#000000" font-family="sans-serif" font-size="12" font-style="italic" lengthAdjust="spacing" textLength="35" x="840.5" y="255.9238">&#171;root&#187;</text><text fill="#000000" font-family="sans-serif" font-size="14" lengthAdjust="spacing" textLength="45" x="835.5" y="274.043">Person</text><line style="stroke:#181818;stroke-width:0.5;" x1="807.5" x2="882.5" y1="282.5566" y2="282.5566"/><line style="stroke:#181818;stroke-width:0.5;" x1="807.5" x2="882.5" y1="290.5566" y2="290.5566"/></g><!--class TaxPayerNumber--><g id="elem_TaxPayerNumber"><rect codeLine="7" fill="#F1F1F1" height="60.582" id="TaxPayerNumber" rx="2.5" ry="2.5" style="stroke:#181818;stroke-width:0.5;" width="141" x="774.5" y="448.0137"/><ellipse cx="789.5" cy="470.3047" fill="#FF8B40" rx="11" ry="11" style="stroke:#181818;stroke-width:1.0;"/><path d="M790.0938,473.5703 L792.5625,467.6953 L792.1719,467.6953 Q791.5625,467.6953 791.2969,467.4609 Q791.0313,467.2266 791.0313,466.8359 Q791.0313,466.4609 791.2969,466.2266 Q791.5625,465.9922 792.1719,465.9922 L794.4531,465.9922 Q795.0625,465.9922 795.3281,466.2266 Q795.5938,466.4609 795.5938,466.8359 Q795.5938,467.3047 795.1875,467.5703 Q795,467.6953 794.4063,467.6953 L790.9219,476.0547 L789.2813,476.0547 L785.7969,467.6953 Q785.2031,467.6953 785.0156,467.5703 Q784.6094,467.3047 784.6094,466.8359 Q784.6094,466.4609 784.875,466.2266 Q785.1406,465.9922 785.75,465.9922 L788.0469,465.9922 Q788.6563,465.9922 788.9063,466.2266 Q789.1719,466.4609 789.1719,466.8359 Q789.1719,467.2266 788.9063,467.4609 Q788.6563,467.6953 788.0469,467.6953 L787.6406,467.6953 L790.0938,473.5703 Z " fill="#000000"/><text fill="#000000" font-family="sans-serif" font-size="12" font-style="italic" lengthAdjust="spacing" textLength="81" x="817.5" y="465.9629">&#171;value object&#187;</text><text fill="#000000" font-family="sans-serif" font-size="14" lengthAdjust="spacing" textLength="109" x="803.5" y="484.082">TaxPayerNumber</text><line style="stroke:#181818;stroke-width:0.5;" x1="775.5" x2="914.5" y1="492.5957" y2="492.5957"/><line style="stroke:#181818;stroke-width:0.5;" x1="775.5" x2="914.5" y1="500.5957" y2="500.5957"/></g><!--class DateBirth--><g id="elem_DateBirth"><rect codeLine="8" fill="#F1F1F1" height="60.582" id="DateBirth" rx="2.5" ry="2.5" style="stroke:#181818;stroke-width:0.5;" width="109" x="950.5" y="448.0137"/><ellipse cx="965.5" cy="470.3047" fill="#FF8B40" rx="11" ry="11" style="stroke:#181818;stroke-width:1.0;"/><path d="M966.0938,473.5703 L968.5625,467.6953 L968.1719,467.6953 Q967.5625,467.6953 967.2969,467.4609 Q967.0313,467.2266 967.0313,466.8359 Q967.0313,466.4609 967.2969,466.2266 Q967.5625,465.9922 968.1719,465.9922 L970.4531,465.9922 Q971.0625,465.9922 971.3281,466.2266 Q971.5938,466.4609 971.5938,466.8359 Q971.5938,467.3047 971.1875,467.5703 Q971,467.6953 970.4063,467.6953 L966.9219,476.0547 L965.2813,476.0547 L961.7969,467.6953 Q961.2031,467.6953 961.0156,467.5703 Q960.6094,467.3047 960.6094,466.8359 Q960.6094,466.4609 960.875,466.2266 Q961.1406,465.9922 961.75,465.9922 L964.0469,465.9922 Q964.6563,465.9922 964.9063,466.2266 Q965.1719,466.4609 965.1719,466.8359 Q965.1719,467.2266 964.9063,467.4609 Q964.6563,467.6953 964.0469,467.6953 L963.6406,467.6953 L966.0938,473.5703 Z " fill="#000000"/><text fill="#000000" font-family="sans-serif" font-size="12" font-style="italic" lengthAdjust="spacing" textLength="81" x="977.5" y="465.9629">&#171;value object&#187;</text><text fill="#000000" font-family="sans-serif" font-size="14" lengthAdjust="spacing" textLength="59" x="988.5" y="484.082">DateBirth</text><line style="stroke:#181818;stroke-width:0.5;" x1="951.5" x2="1058.5" y1="492.5957" y2="492.5957"/><line style="stroke:#181818;stroke-width:0.5;" x1="951.5" x2="1058.5" y1="500.5957" y2="500.5957"/></g><!--class Teacher--><g id="elem_Teacher"><rect codeLine="13" fill="#F1F1F1" height="76.543" id="Teacher" rx="2.5" ry="2.5" style="stroke:#181818;stroke-width:0.5;" width="85" x="626.5" y="43.0137"/><ellipse cx="641.5" cy="73.2852" fill="#ADD1B2" rx="11" ry="11" style="stroke:#181818;stroke-width:1.0;"/><path d="M640.3594,74.082 L640.3594,76.582 L644.6875,76.582 L644.6875,75.6602 Q644.6875,75.0508 644.9219,74.7852 Q645.1719,74.5195 645.5469,74.5195 Q645.9219,74.5195 646.1563,74.7852 Q646.3906,75.0508 646.3906,75.6602 L646.3906,78.2852 L638.3906,78.2852 Q637.7656,78.2852 637.5,78.0508 Q637.25,77.8164 637.25,77.4258 Q637.25,77.0508 637.5156,76.8164 Q637.7813,76.582 638.3906,76.582 L638.6563,76.582 L638.6563,69.9258 L638.3906,69.9258 Q637.7656,69.9258 637.5,69.6914 Q637.25,69.457 637.25,69.0664 Q637.25,68.6914 637.5,68.457 Q637.7656,68.2227 638.3906,68.2227 L646.0156,68.2227 L646.0156,70.8164 Q646.0156,71.4258 645.7813,71.6914 Q645.5625,71.9414 645.1719,71.9414 Q644.7969,71.9414 644.5625,71.6914 Q644.3281,71.4258 644.3281,70.8164 L644.3281,69.9258 L640.3594,69.9258 L640.3594,72.3789 L641.8438,72.3789 Q641.8438,71.7227 641.9688,71.5352 Q642.2344,71.1289 642.7031,71.1289 Q643.0781,71.1289 643.3125,71.3945 Q643.5469,71.6445 643.5469,72.2539 L643.5469,74.2227 Q643.5469,74.7695 643.4219,74.957 Q643.1563,75.3477 642.7031,75.3477 Q642.2344,75.3477 641.9688,74.9414 Q641.8438,74.7539 641.8438,74.082 L640.3594,74.082 Z " fill="#000000"/><text fill="#000000" font-family="sans-serif" font-size="12" font-style="italic" lengthAdjust="spacing" textLength="43" x="660.5" y="60.9629">&#171;entity&#187;</text><text fill="#000000" font-family="sans-serif" font-size="12" font-style="italic" lengthAdjust="spacing" textLength="35" x="664.5" y="76.9238">&#171;root&#187;</text><text fill="#000000" font-family="sans-serif" font-size="14" lengthAdjust="spacing" textLength="53" x="655.5" y="95.043">Teacher</text><line style="stroke:#181818;stroke-width:0.5;" x1="627.5" x2="710.5" y1="103.5566" y2="103.5566"/><line style="stroke:#181818;stroke-width:0.5;" x1="627.5" x2="710.5" y1="111.5566" y2="111.5566"/></g><!--class Acronym--><g id="elem_Acronym"><rect codeLine="14" fill="#F1F1F1" height="60.582" id="Acronym" rx="2.5" ry="2.5" style="stroke:#181818;stroke-width:0.5;" width="109" x="608.5" y="230.0137"/><ellipse cx="623.5" cy="252.3047" fill="#FF8B40" rx="11" ry="11" style="stroke:#181818;stroke-width:1.0;"/><path d="M624.0938,255.5703 L626.5625,249.6953 L626.1719,249.6953 Q625.5625,249.6953 625.2969,249.4609 Q625.0313,249.2266 625.0313,248.8359 Q625.0313,248.4609 625.2969,248.2266 Q625.5625,247.9922 626.1719,247.9922 L628.4531,247.9922 Q629.0625,247.9922 629.3281,248.2266 Q629.5938,248.4609 629.5938,248.8359 Q629.5938,249.3047 629.1875,249.5703 Q629,249.6953 628.4063,249.6953 L624.9219,258.0547 L623.2813,258.0547 L619.7969,249.6953 Q619.2031,249.6953 619.0156,249.5703 Q618.6094,249.3047 618.6094,248.8359 Q618.6094,248.4609 618.875,248.2266 Q619.1406,247.9922 619.75,247.9922 L622.0469,247.9922 Q622.6563,247.9922 622.9063,248.2266 Q623.1719,248.4609 623.1719,248.8359 Q623.1719,249.2266 622.9063,249.4609 Q622.6563,249.6953 622.0469,249.6953 L621.6406,249.6953 L624.0938,255.5703 Z " fill="#000000"/><text fill="#000000" font-family="sans-serif" font-size="12" font-style="italic" lengthAdjust="spacing" textLength="81" x="635.5" y="247.9629">&#171;value object&#187;</text><text fill="#000000" font-family="sans-serif" font-size="14" lengthAdjust="spacing" textLength="55" x="648.5" y="266.082">Acronym</text><line style="stroke:#181818;stroke-width:0.5;" x1="609.5" x2="716.5" y1="274.5957" y2="274.5957"/><line style="stroke:#181818;stroke-width:0.5;" x1="609.5" x2="716.5" y1="282.5957" y2="282.5957"/></g><!--class Student--><g id="elem_Student"><rect codeLine="19" fill="#F1F1F1" height="76.543" id="Student" rx="2.5" ry="2.5" style="stroke:#181818;stroke-width:0.5;" width="81" x="1142.5" y="43.0137"/><ellipse cx="1157.5" cy="73.2852" fill="#ADD1B2" rx="11" ry="11" style="stroke:#181818;stroke-width:1.0;"/><path d="M1156.3594,74.082 L1156.3594,76.582 L1160.6875,76.582 L1160.6875,75.6602 Q1160.6875,75.0508 1160.9219,74.7852 Q1161.1719,74.5195 1161.5469,74.5195 Q1161.9219,74.5195 1162.1563,74.7852 Q1162.3906,75.0508 1162.3906,75.6602 L1162.3906,78.2852 L1154.3906,78.2852 Q1153.7656,78.2852 1153.5,78.0508 Q1153.25,77.8164 1153.25,77.4258 Q1153.25,77.0508 1153.5156,76.8164 Q1153.7813,76.582 1154.3906,76.582 L1154.6563,76.582 L1154.6563,69.9258 L1154.3906,69.9258 Q1153.7656,69.9258 1153.5,69.6914 Q1153.25,69.457 1153.25,69.0664 Q1153.25,68.6914 1153.5,68.457 Q1153.7656,68.2227 1154.3906,68.2227 L1162.0156,68.2227 L1162.0156,70.8164 Q1162.0156,71.4258 1161.7813,71.6914 Q1161.5625,71.9414 1161.1719,71.9414 Q1160.7969,71.9414 1160.5625,71.6914 Q1160.3281,71.4258 1160.3281,70.8164 L1160.3281,69.9258 L1156.3594,69.9258 L1156.3594,72.3789 L1157.8438,72.3789 Q1157.8438,71.7227 1157.9688,71.5352 Q1158.2344,71.1289 1158.7031,71.1289 Q1159.0781,71.1289 1159.3125,71.3945 Q1159.5469,71.6445 1159.5469,72.2539 L1159.5469,74.2227 Q1159.5469,74.7695 1159.4219,74.957 Q1159.1563,75.3477 1158.7031,75.3477 Q1158.2344,75.3477 1157.9688,74.9414 Q1157.8438,74.7539 1157.8438,74.082 L1156.3594,74.082 Z " fill="#000000"/><text fill="#000000" font-family="sans-serif" font-size="12" font-style="italic" lengthAdjust="spacing" textLength="43" x="1174.5" y="60.9629">&#171;entity&#187;</text><text fill="#000000" font-family="sans-serif" font-size="12" font-style="italic" lengthAdjust="spacing" textLength="35" x="1178.5" y="76.9238">&#171;root&#187;</text><text fill="#000000" font-family="sans-serif" font-size="14" lengthAdjust="spacing" textLength="49" x="1171.5" y="95.043">Student</text><line style="stroke:#181818;stroke-width:0.5;" x1="1143.5" x2="1222.5" y1="103.5566" y2="103.5566"/><line style="stroke:#181818;stroke-width:0.5;" x1="1143.5" x2="1222.5" y1="111.5566" y2="111.5566"/></g><!--class MechanographicNumber--><g id="elem_MechanographicNumber"><rect codeLine="20" fill="#F1F1F1" height="60.582" id="MechanographicNumber" rx="2.5" ry="2.5" style="stroke:#181818;stroke-width:0.5;" width="186" x="1116" y="230.0137"/><ellipse cx="1131" cy="252.3047" fill="#FF8B40" rx="11" ry="11" style="stroke:#181818;stroke-width:1.0;"/><path d="M1131.5938,255.5703 L1134.0625,249.6953 L1133.6719,249.6953 Q1133.0625,249.6953 1132.7969,249.4609 Q1132.5313,249.2266 1132.5313,248.8359 Q1132.5313,248.4609 1132.7969,248.2266 Q1133.0625,247.9922 1133.6719,247.9922 L1135.9531,247.9922 Q1136.5625,247.9922 1136.8281,248.2266 Q1137.0938,248.4609 1137.0938,248.8359 Q1137.0938,249.3047 1136.6875,249.5703 Q1136.5,249.6953 1135.9063,249.6953 L1132.4219,258.0547 L1130.7813,258.0547 L1127.2969,249.6953 Q1126.7031,249.6953 1126.5156,249.5703 Q1126.1094,249.3047 1126.1094,248.8359 Q1126.1094,248.4609 1126.375,248.2266 Q1126.6406,247.9922 1127.25,247.9922 L1129.5469,247.9922 Q1130.1563,247.9922 1130.4063,248.2266 Q1130.6719,248.4609 1130.6719,248.8359 Q1130.6719,249.2266 1130.4063,249.4609 Q1130.1563,249.6953 1129.5469,249.6953 L1129.1406,249.6953 L1131.5938,255.5703 Z " fill="#000000"/><text fill="#000000" font-family="sans-serif" font-size="12" font-style="italic" lengthAdjust="spacing" textLength="81" x="1181.5" y="247.9629">&#171;value object&#187;</text><text fill="#000000" font-family="sans-serif" font-size="14" lengthAdjust="spacing" textLength="154" x="1145" y="266.082">MechanographicNumber</text><line style="stroke:#181818;stroke-width:0.5;" x1="1117" x2="1301" y1="274.5957" y2="274.5957"/><line style="stroke:#181818;stroke-width:0.5;" x1="1117" x2="1301" y1="282.5957" y2="282.5957"/></g><!--class Manager--><g id="elem_Manager"><rect codeLine="25" fill="#F1F1F1" height="76.543" id="Manager" rx="2.5" ry="2.5" style="stroke:#181818;stroke-width:0.5;" width="88" x="388" y="222.0137"/><ellipse cx="403" cy="252.2852" fill="#ADD1B2" rx="11" ry="11" style="stroke:#181818;stroke-width:1.0;"/><path d="M401.8594,253.082 L401.8594,255.582 L406.1875,255.582 L406.1875,254.6602 Q406.1875,254.0508 406.4219,253.7852 Q406.6719,253.5195 407.0469,253.5195 Q407.4219,253.5195 407.6563,253.7852 Q407.8906,254.0508 407.8906,254.6602 L407.8906,257.2852 L399.8906,257.2852 Q399.2656,257.2852 399,257.0508 Q398.75,256.8164 398.75,256.4258 Q398.75,256.0508 399.0156,255.8164 Q399.2813,255.582 399.8906,255.582 L400.1563,255.582 L400.1563,248.9258 L399.8906,248.9258 Q399.2656,248.9258 399,248.6914 Q398.75,248.457 398.75,248.0664 Q398.75,247.6914 399,247.457 Q399.2656,247.2227 399.8906,247.2227 L407.5156,247.2227 L407.5156,249.8164 Q407.5156,250.4258 407.2813,250.6914 Q407.0625,250.9414 406.6719,250.9414 Q406.2969,250.9414 406.0625,250.6914 Q405.8281,250.4258 405.8281,249.8164 L405.8281,248.9258 L401.8594,248.9258 L401.8594,251.3789 L403.3438,251.3789 Q403.3438,250.7227 403.4688,250.5352 Q403.7344,250.1289 404.2031,250.1289 Q404.5781,250.1289 404.8125,250.3945 Q405.0469,250.6445 405.0469,251.2539 L405.0469,253.2227 Q405.0469,253.7695 404.9219,253.957 Q404.6563,254.3477 404.2031,254.3477 Q403.7344,254.3477 403.4688,253.9414 Q403.3438,253.7539 403.3438,253.082 L401.8594,253.082 Z " fill="#000000"/><text fill="#000000" font-family="sans-serif" font-size="12" font-style="italic" lengthAdjust="spacing" textLength="43" x="423.5" y="239.9629">&#171;entity&#187;</text><text fill="#000000" font-family="sans-serif" font-size="12" font-style="italic" lengthAdjust="spacing" textLength="35" x="427.5" y="255.9238">&#171;root&#187;</text><text fill="#000000" font-family="sans-serif" font-size="14" lengthAdjust="spacing" textLength="56" x="417" y="274.043">Manager</text><line style="stroke:#181818;stroke-width:0.5;" x1="389" x2="475" y1="282.5566" y2="282.5566"/><line style="stroke:#181818;stroke-width:0.5;" x1="389" x2="475" y1="290.5566" y2="290.5566"/></g><!--class SystemUser--><g id="elem_SystemUser"><rect codeLine="30" fill="#F1F1F1" height="151.0273" id="SystemUser" rx="2.5" ry="2.5" style="stroke:#181818;stroke-width:0.5;" width="107" x="378.5" y="403.0137"/><ellipse cx="393.5" cy="433.2852" fill="#ADD1B2" rx="11" ry="11" style="stroke:#181818;stroke-width:1.0;"/><path d="M392.3594,434.082 L392.3594,436.582 L396.6875,436.582 L396.6875,435.6602 Q396.6875,435.0508 396.9219,434.7852 Q397.1719,434.5195 397.5469,434.5195 Q397.9219,434.5195 398.1563,434.7852 Q398.3906,435.0508 398.3906,435.6602 L398.3906,438.2852 L390.3906,438.2852 Q389.7656,438.2852 389.5,438.0508 Q389.25,437.8164 389.25,437.4258 Q389.25,437.0508 389.5156,436.8164 Q389.7813,436.582 390.3906,436.582 L390.6563,436.582 L390.6563,429.9258 L390.3906,429.9258 Q389.7656,429.9258 389.5,429.6914 Q389.25,429.457 389.25,429.0664 Q389.25,428.6914 389.5,428.457 Q389.7656,428.2227 390.3906,428.2227 L398.0156,428.2227 L398.0156,430.8164 Q398.0156,431.4258 397.7813,431.6914 Q397.5625,431.9414 397.1719,431.9414 Q396.7969,431.9414 396.5625,431.6914 Q396.3281,431.4258 396.3281,430.8164 L396.3281,429.9258 L392.3594,429.9258 L392.3594,432.3789 L393.8438,432.3789 Q393.8438,431.7227 393.9688,431.5352 Q394.2344,431.1289 394.7031,431.1289 Q395.0781,431.1289 395.3125,431.3945 Q395.5469,431.6445 395.5469,432.2539 L395.5469,434.2227 Q395.5469,434.7695 395.4219,434.957 Q395.1563,435.3477 394.7031,435.3477 Q394.2344,435.3477 393.9688,434.9414 Q393.8438,434.7539 393.8438,434.082 L392.3594,434.082 Z " fill="#000000"/><text fill="#000000" font-family="sans-serif" font-size="12" font-style="italic" lengthAdjust="spacing" textLength="43" x="423.5" y="420.9629">&#171;entity&#187;</text><text fill="#000000" font-family="sans-serif" font-size="12" font-style="italic" lengthAdjust="spacing" textLength="35" x="427.5" y="436.9238">&#171;root&#187;</text><text fill="#000000" font-family="sans-serif" font-size="14" lengthAdjust="spacing" textLength="75" x="407.5" y="455.043">SystemUser</text><line style="stroke:#181818;stroke-width:0.5;" x1="379.5" x2="484.5" y1="463.5566" y2="463.5566"/><text fill="#000000" font-family="sans-serif" font-size="14" lengthAdjust="spacing" textLength="67" x="384.5" y="482.6641">createdOn</text><text fill="#000000" font-family="sans-serif" font-size="14" lengthAdjust="spacing" textLength="37" x="384.5" y="501.2852">active</text><text fill="#000000" font-family="sans-serif" font-size="14" lengthAdjust="spacing" textLength="92" x="384.5" y="519.9063">deactivatedOn</text><text fill="#000000" font-family="sans-serif" font-size="14" lengthAdjust="spacing" textLength="72" x="384.5" y="538.5273">resetToken</text><line style="stroke:#181818;stroke-width:0.5;" x1="379.5" x2="484.5" y1="546.041" y2="546.041"/></g><!--class Name--><g id="elem_Name"><rect codeLine="36" fill="#F1F1F1" height="97.8242" id="Name" rx="2.5" ry="2.5" style="stroke:#181818;stroke-width:0.5;" width="109" x="22.5" y="615.0137"/><ellipse cx="37.5" cy="637.3047" fill="#FF8B40" rx="11" ry="11" style="stroke:#181818;stroke-width:1.0;"/><path d="M38.0938,640.5703 L40.5625,634.6953 L40.1719,634.6953 Q39.5625,634.6953 39.2969,634.4609 Q39.0313,634.2266 39.0313,633.8359 Q39.0313,633.4609 39.2969,633.2266 Q39.5625,632.9922 40.1719,632.9922 L42.4531,632.9922 Q43.0625,632.9922 43.3281,633.2266 Q43.5938,633.4609 43.5938,633.8359 Q43.5938,634.3047 43.1875,634.5703 Q43,634.6953 42.4063,634.6953 L38.9219,643.0547 L37.2813,643.0547 L33.7969,634.6953 Q33.2031,634.6953 33.0156,634.5703 Q32.6094,634.3047 32.6094,633.8359 Q32.6094,633.4609 32.875,633.2266 Q33.1406,632.9922 33.75,632.9922 L36.0469,632.9922 Q36.6563,632.9922 36.9063,633.2266 Q37.1719,633.4609 37.1719,633.8359 Q37.1719,634.2266 36.9063,634.4609 Q36.6563,634.6953 36.0469,634.6953 L35.6406,634.6953 L38.0938,640.5703 Z " fill="#000000"/><text fill="#000000" font-family="sans-serif" font-size="12" font-style="italic" lengthAdjust="spacing" textLength="81" x="49.5" y="632.9629">&#171;value object&#187;</text><text fill="#000000" font-family="sans-serif" font-size="14" lengthAdjust="spacing" textLength="36" x="72" y="651.082">Name</text><line style="stroke:#181818;stroke-width:0.5;" x1="23.5" x2="130.5" y1="659.5957" y2="659.5957"/><text fill="#000000" font-family="sans-serif" font-size="14" lengthAdjust="spacing" textLength="54" x="28.5" y="678.7031">fullName</text><text fill="#000000" font-family="sans-serif" font-size="14" lengthAdjust="spacing" textLength="68" x="28.5" y="697.3242">shortName</text><line style="stroke:#181818;stroke-width:0.5;" x1="23.5" x2="130.5" y1="704.8379" y2="704.8379"/></g><!--class Username--><g id="elem_Username"><rect codeLine="40" fill="#F1F1F1" height="60.582" id="Username" rx="2.5" ry="2.5" style="stroke:#181818;stroke-width:0.5;" width="109" x="166.5" y="633.5137"/><ellipse cx="181.5" cy="655.8047" fill="#FF8B40" rx="11" ry="11" style="stroke:#181818;stroke-width:1.0;"/><path d="M182.0938,659.0703 L184.5625,653.1953 L184.1719,653.1953 Q183.5625,653.1953 183.2969,652.9609 Q183.0313,652.7266 183.0313,652.3359 Q183.0313,651.9609 183.2969,651.7266 Q183.5625,651.4922 184.1719,651.4922 L186.4531,651.4922 Q187.0625,651.4922 187.3281,651.7266 Q187.5938,651.9609 187.5938,652.3359 Q187.5938,652.8047 187.1875,653.0703 Q187,653.1953 186.4063,653.1953 L182.9219,661.5547 L181.2813,661.5547 L177.7969,653.1953 Q177.2031,653.1953 177.0156,653.0703 Q176.6094,652.8047 176.6094,652.3359 Q176.6094,651.9609 176.875,651.7266 Q177.1406,651.4922 177.75,651.4922 L180.0469,651.4922 Q180.6563,651.4922 180.9063,651.7266 Q181.1719,651.9609 181.1719,652.3359 Q181.1719,652.7266 180.9063,652.9609 Q180.6563,653.1953 180.0469,653.1953 L179.6406,653.1953 L182.0938,659.0703 Z " fill="#000000"/><text fill="#000000" font-family="sans-serif" font-size="12" font-style="italic" lengthAdjust="spacing" textLength="81" x="193.5" y="651.4629">&#171;value object&#187;</text><text fill="#000000" font-family="sans-serif" font-size="14" lengthAdjust="spacing" textLength="64" x="202" y="669.582">Username</text><line style="stroke:#181818;stroke-width:0.5;" x1="167.5" x2="274.5" y1="678.0957" y2="678.0957"/><line style="stroke:#181818;stroke-width:0.5;" x1="167.5" x2="274.5" y1="686.0957" y2="686.0957"/></g><!--class EmailAddress--><g id="elem_EmailAddress"><rect codeLine="41" fill="#F1F1F1" height="60.582" id="EmailAddress" rx="2.5" ry="2.5" style="stroke:#181818;stroke-width:0.5;" width="118" x="311" y="633.5137"/><ellipse cx="326" cy="655.8047" fill="#FF8B40" rx="11" ry="11" style="stroke:#181818;stroke-width:1.0;"/><path d="M326.5938,659.0703 L329.0625,653.1953 L328.6719,653.1953 Q328.0625,653.1953 327.7969,652.9609 Q327.5313,652.7266 327.5313,652.3359 Q327.5313,651.9609 327.7969,651.7266 Q328.0625,651.4922 328.6719,651.4922 L330.9531,651.4922 Q331.5625,651.4922 331.8281,651.7266 Q332.0938,651.9609 332.0938,652.3359 Q332.0938,652.8047 331.6875,653.0703 Q331.5,653.1953 330.9063,653.1953 L327.4219,661.5547 L325.7813,661.5547 L322.2969,653.1953 Q321.7031,653.1953 321.5156,653.0703 Q321.1094,652.8047 321.1094,652.3359 Q321.1094,651.9609 321.375,651.7266 Q321.6406,651.4922 322.25,651.4922 L324.5469,651.4922 Q325.1563,651.4922 325.4063,651.7266 Q325.6719,651.9609 325.6719,652.3359 Q325.6719,652.7266 325.4063,652.9609 Q325.1563,653.1953 324.5469,653.1953 L324.1406,653.1953 L326.5938,659.0703 Z " fill="#000000"/><text fill="#000000" font-family="sans-serif" font-size="12" font-style="italic" lengthAdjust="spacing" textLength="81" x="342.5" y="651.4629">&#171;value object&#187;</text><text fill="#000000" font-family="sans-serif" font-size="14" lengthAdjust="spacing" textLength="86" x="340" y="669.582">EmailAddress</text><line style="stroke:#181818;stroke-width:0.5;" x1="312" x2="428" y1="678.0957" y2="678.0957"/><line style="stroke:#181818;stroke-width:0.5;" x1="312" x2="428" y1="686.0957" y2="686.0957"/></g><!--class Password--><g id="elem_Password"><rect codeLine="42" fill="#F1F1F1" height="60.582" id="Password" rx="2.5" ry="2.5" style="stroke:#181818;stroke-width:0.5;" width="109" x="464.5" y="633.5137"/><ellipse cx="479.5" cy="655.8047" fill="#FF8B40" rx="11" ry="11" style="stroke:#181818;stroke-width:1.0;"/><path d="M480.0938,659.0703 L482.5625,653.1953 L482.1719,653.1953 Q481.5625,653.1953 481.2969,652.9609 Q481.0313,652.7266 481.0313,652.3359 Q481.0313,651.9609 481.2969,651.7266 Q481.5625,651.4922 482.1719,651.4922 L484.4531,651.4922 Q485.0625,651.4922 485.3281,651.7266 Q485.5938,651.9609 485.5938,652.3359 Q485.5938,652.8047 485.1875,653.0703 Q485,653.1953 484.4063,653.1953 L480.9219,661.5547 L479.2813,661.5547 L475.7969,653.1953 Q475.2031,653.1953 475.0156,653.0703 Q474.6094,652.8047 474.6094,652.3359 Q474.6094,651.9609 474.875,651.7266 Q475.1406,651.4922 475.75,651.4922 L478.0469,651.4922 Q478.6563,651.4922 478.9063,651.7266 Q479.1719,651.9609 479.1719,652.3359 Q479.1719,652.7266 478.9063,652.9609 Q478.6563,653.1953 478.0469,653.1953 L477.6406,653.1953 L480.0938,659.0703 Z " fill="#000000"/><text fill="#000000" font-family="sans-serif" font-size="12" font-style="italic" lengthAdjust="spacing" textLength="81" x="491.5" y="651.4629">&#171;value object&#187;</text><text fill="#000000" font-family="sans-serif" font-size="14" lengthAdjust="spacing" textLength="61" x="501.5" y="669.582">Password</text><line style="stroke:#181818;stroke-width:0.5;" x1="465.5" x2="572.5" y1="678.0957" y2="678.0957"/><line style="stroke:#181818;stroke-width:0.5;" x1="465.5" x2="572.5" y1="686.0957" y2="686.0957"/></g><!--class RolesSet--><g id="elem_RolesSet"><rect codeLine="43" fill="#F1F1F1" height="60.582" id="RolesSet" rx="2.5" ry="2.5" style="stroke:#181818;stroke-width:0.5;" width="109" x="608.5" y="633.5137"/><ellipse cx="623.5" cy="655.8047" fill="#FF8B40" rx="11" ry="11" style="stroke:#181818;stroke-width:1.0;"/><path d="M624.0938,659.0703 L626.5625,653.1953 L626.1719,653.1953 Q625.5625,653.1953 625.2969,652.9609 Q625.0313,652.7266 625.0313,652.3359 Q625.0313,651.9609 625.2969,651.7266 Q625.5625,651.4922 626.1719,651.4922 L628.4531,651.4922 Q629.0625,651.4922 629.3281,651.7266 Q629.5938,651.9609 629.5938,652.3359 Q629.5938,652.8047 629.1875,653.0703 Q629,653.1953 628.4063,653.1953 L624.9219,661.5547 L623.2813,661.5547 L619.7969,653.1953 Q619.2031,653.1953 619.0156,653.0703 Q618.6094,652.8047 618.6094,652.3359 Q618.6094,651.9609 618.875,651.7266 Q619.1406,651.4922 619.75,651.4922 L622.0469,651.4922 Q622.6563,651.4922 622.9063,651.7266 Q623.1719,651.9609 623.1719,652.3359 Q623.1719,652.7266 622.9063,652.9609 Q622.6563,653.1953 622.0469,653.1953 L621.6406,653.1953 L624.0938,659.0703 Z " fill="#000000"/><text fill="#000000" font-family="sans-serif" font-size="12" font-style="italic" lengthAdjust="spacing" textLength="81" x="635.5" y="651.4629">&#171;value object&#187;</text><text fill="#000000" font-family="sans-serif" font-size="14" lengthAdjust="spacing" textLength="57" x="647.5" y="669.582">RolesSet</text><line style="stroke:#181818;stroke-width:0.5;" x1="609.5" x2="716.5" y1="678.0957" y2="678.0957"/><line style="stroke:#181818;stroke-width:0.5;" x1="609.5" x2="716.5" y1="686.0957" y2="686.0957"/></g><!--link Person to TaxPayerNumber--><g id="link_Person_TaxPayerNumber"><path codeLine="46" d="M845,299.1337 C845,339.6237 845,403.4837 845,442.8037 " fill="none" id="Person-to-TaxPayerNumber" style="stroke:#181818;stroke-width:1.0;"/><polygon fill="#181818" points="845,447.9437,849,438.9437,845,442.9437,841,438.9437,845,447.9437" style="stroke:#181818;stroke-width:1.0;"/></g><!--link Person to DateBirth--><g id="link_Person_DateBirth"><path codeLine="47" d="M882.8,299.4437 C899.08,316.6437 917.82,337.6537 933,358.0137 C953.45,385.4337 973.25,418.9637 986.89,443.5137 " fill="none" id="Person-to-DateBirth" style="stroke:#181818;stroke-width:1.0;"/><polygon fill="#181818" points="989.36,447.9937,988.5104,438.1815,986.9427,443.6168,981.5074,442.0492,989.36,447.9937" style="stroke:#181818;stroke-width:1.0;"/></g><!--link Person to SystemUser--><g id="link_Person_SystemUser"><path codeLine="48" d="M806.39,283.3137 C785.12,295.2237 758.21,310.1237 734,323.0137 C649.9,367.8037 551.49,417.6937 490.43,448.3437 " fill="none" id="Person-to-SystemUser" style="stroke:#181818;stroke-width:1.0;"/><polygon fill="#181818" points="485.74,450.6937,495.5781,450.2339,490.2093,448.4519,491.9913,443.0831,485.74,450.6937" style="stroke:#181818;stroke-width:1.0;"/><polygon fill="#000000" points="717.5681,342.974,726.9461,341.3914,724.2248,336.1814,717.5681,342.974" style="stroke:#000000;stroke-width:1.0;"/><text fill="#000000" font-family="sans-serif" font-size="13" lengthAdjust="spacing" textLength="10" x="731" y="346.042">is</text><text fill="#000000" font-family="sans-serif" font-size="13" lengthAdjust="spacing" textLength="7" x="791.626" y="283.0475">1</text><text fill="#000000" font-family="sans-serif" font-size="13" lengthAdjust="spacing" textLength="7" x="493.4316" y="442.8592">1</text></g><!--link Teacher to Acronym--><g id="link_Teacher_Acronym"><path codeLine="50" d="M667.73,120.0537 C666.68,151.0337 665.2,194.6637 664.18,224.8337 " fill="none" id="Teacher-to-Acronym" style="stroke:#181818;stroke-width:1.0;"/><polygon fill="#181818" points="664,229.9337,668.306,221.076,664.1713,224.9366,660.3107,220.8019,664,229.9337" style="stroke:#181818;stroke-width:1.0;"/></g><!--link Teacher to Person--><g id="link_Teacher_Person"><path codeLine="51" d="M706.33,120.0537 C734.93,148.8137 774.37,188.4837 803.88,218.1537 " fill="none" id="Teacher-to-Person" style="stroke:#181818;stroke-width:1.0;"/><polygon fill="#181818" points="807.43,221.7237,803.913,212.5242,803.9016,218.181,798.2448,218.1696,807.43,221.7237" style="stroke:#181818;stroke-width:1.0;"/><polygon fill="#000000" points="759.5256,163.2046,755.2317,154.7186,751.0638,158.8631,759.5256,163.2046" style="stroke:#000000;stroke-width:1.0;"/><text fill="#000000" font-family="sans-serif" font-size="13" lengthAdjust="spacing" textLength="10" x="765" y="165.042">is</text><text fill="#000000" font-family="sans-serif" font-size="13" lengthAdjust="spacing" textLength="7" x="704.7217" y="141.6386">1</text><text fill="#000000" font-family="sans-serif" font-size="13" lengthAdjust="spacing" textLength="7" x="793.3711" y="210.6883">1</text></g><!--link Student to MechanographicNumber--><g id="link_Student_MechanographicNumber"><path codeLine="53" d="M1188.51,120.0537 C1193.07,151.0337 1199.47,194.6637 1203.91,224.8337 " fill="none" id="Student-to-MechanographicNumber" style="stroke:#181818;stroke-width:1.0;"/><polygon fill="#181818" points="1204.65,229.9337,1207.2948,220.4466,1203.9209,224.9871,1199.3803,221.6132,1204.65,229.9337" style="stroke:#181818;stroke-width:1.0;"/></g><!--link Student to Person--><g id="link_Student_Person"><path codeLine="54" d="M1142.23,103.8637 C1078.02,137.4937 953.88,202.4937 888.2,236.8937 " fill="none" id="Student-to-Person" style="stroke:#181818;stroke-width:1.0;"/><polygon fill="#181818" points="883.57,239.3137,893.3991,238.6904,888.0014,236.9979,889.6939,231.6002,883.57,239.3137" style="stroke:#181818;stroke-width:1.0;"/><polygon fill="#000000" points="1044.5706,161.9788,1053.9469,160.3861,1051.22,155.1791,1044.5706,161.9788" style="stroke:#000000;stroke-width:1.0;"/><text fill="#000000" font-family="sans-serif" font-size="13" lengthAdjust="spacing" textLength="10" x="1058" y="165.042">is</text><text fill="#000000" font-family="sans-serif" font-size="13" lengthAdjust="spacing" textLength="7" x="1127.6211" y="103.3367">1</text><text fill="#000000" font-family="sans-serif" font-size="13" lengthAdjust="spacing" textLength="7" x="891.5896" y="230.7517">1</text></g><!--link Manager to SystemUser--><g id="link_Manager_SystemUser"><path codeLine="56" d="M432,299.1337 C432,326.2137 432,363.7437 432,397.3937 " fill="none" id="Manager-to-SystemUser" style="stroke:#181818;stroke-width:1.0;"/><polygon fill="#181818" points="432,402.7637,436,393.7637,432,397.7637,428,393.7637,432,402.7637" style="stroke:#181818;stroke-width:1.0;"/><polygon fill="#000000" points="437,345.6592,439.9389,336.6141,434.0611,336.6141,437,345.6592" style="stroke:#000000;stroke-width:1.0;"/><text fill="#000000" font-family="sans-serif" font-size="13" lengthAdjust="spacing" textLength="10" x="446" y="346.042">is</text><text fill="#000000" font-family="sans-serif" font-size="13" lengthAdjust="spacing" textLength="7" x="424.4422" y="320.7314">1</text><text fill="#000000" font-family="sans-serif" font-size="13" lengthAdjust="spacing" textLength="7" x="424.6664" y="391.7745">1</text></g><!--link SystemUser to Name--><g id="link_SystemUser_Name"><path codeLine="58" d="M378.44,502.4337 C320.67,527.7837 226.53,570.9037 149,615.0137 C144.69,617.4637 140.3,620.0837 135.91,622.7837 " fill="none" id="SystemUser-to-Name" style="stroke:#181818;stroke-width:1.0;"/><polygon fill="#181818" points="131.53,625.5037,141.2841,624.1404,135.774,622.8601,137.0543,617.35,131.53,625.5037" style="stroke:#181818;stroke-width:1.0;"/></g><!--link SystemUser to Username--><g id="link_SystemUser_Username"><path codeLine="59" d="M378.48,526.0537 C341.17,558.5037 292.3,601.0037 258.96,630.0037 " fill="none" id="SystemUser-to-Username" style="stroke:#181818;stroke-width:1.0;"/><polygon fill="#181818" points="254.97,633.4637,264.3897,630.588,258.747,630.1874,259.1476,624.5447,254.97,633.4637" style="stroke:#181818;stroke-width:1.0;"/></g><!--link SystemUser to EmailAddress--><g id="link_SystemUser_EmailAddress"><path codeLine="60" d="M406.78,554.1537 C398.09,579.8737 388.77,607.4537 381.69,628.4137 " fill="none" id="SystemUser-to-EmailAddress" style="stroke:#181818;stroke-width:1.0;"/><polygon fill="#181818" points="380.03,633.3237,386.697,626.0745,381.6283,628.586,379.1167,623.5173,380.03,633.3237" style="stroke:#181818;stroke-width:1.0;"/></g><!--link SystemUser to Password--><g id="link_SystemUser_Password"><path codeLine="61" d="M467.39,554.1537 C479.63,579.9837 492.77,607.6837 502.72,628.6837 " fill="none" id="SystemUser-to-Password" style="stroke:#181818;stroke-width:1.0;"/><polygon fill="#181818" points="504.93,633.3237,504.6841,623.4779,502.7859,628.8067,497.457,626.9085,504.93,633.3237" style="stroke:#181818;stroke-width:1.0;"/></g><!--link SystemUser to RolesSet--><g id="link_SystemUser_RolesSet"><path codeLine="62" d="M485.58,522.0737 C526.98,554.9637 583.47,599.8337 621.48,630.0337 " fill="none" id="SystemUser-to-RolesSet" style="stroke:#181818;stroke-width:1.0;"/><polygon fill="#181818" points="625.56,633.2737,621.0076,624.5401,621.6473,630.1607,616.0267,630.8004,625.56,633.2737" style="stroke:#181818;stroke-width:1.0;"/></g><!--SRC=[ZLFHJeCm57tdAnfyK1ENQEA3COHaY-vjSt7JzuvU0GVjqfPDOlnt2sjhRM300z1pxhazjxTNiZsI36sPbAn49EUGo9pH8BXS0HVgPu-J7Ku1XL64qvH3YYN4CJgn8VeEa7g0obpM6aHHT5ghi2ZYZCauRgEI0Wk1DlXhXMlWowhS0bSHL-ytw68-VvZTtrwZ0ougG6pxgNpyapsfVMSvbzc0uaTPtm1ECk1ztZNjcTVeWFjfmXcjon4crh8YAbEV2Krx9ZGwO681IOOfIpdUPtaowY0RHmjCbP7UOz6qvqYZdOxQCciXeNmJ_Nd_8lnYBT6LNSUsLNDGgSWBjGXMj_G0TacW1RmW3WBaXktW1Fqu9xZ49Pm_CMVxZwee6e45HCQuj8YRjoc63kPs1Cybpeif8Sgh62rQgTUHSJ9QyCeA46kGmvT4Z_24i2ETnDwm-goTIKE4To6QAABvEjrzHBb0SH2O4JDwFKmMT-Kwev6QmJ3IhX6mGMVocEiyuDI1p8vjlpjmq_8kpkrk5syQsSMPdWM_]--></g></svg>