<?xml version="1.0" encoding="us-ascii" standalone="no"?><svg xmlns="http://www.w3.org/2000/svg" xmlns:xlink="http://www.w3.org/1999/xlink" contentStyleType="text/css" height="933px" preserveAspectRatio="none" style="width:1079px;height:933px;background:#FFFFFF;" version="1.1" viewBox="0 0 1079 933" width="1079px" zoomAndPan="magnify"><defs/><g><text fill="#000000" font-family="sans-serif" font-size="14" font-weight="bold" lengthAdjust="spacing" textLength="201" x="432.49" y="25.1074">Class Diagram (CD) - US 3004</text><!--class ShareBoardUI--><g id="elem_ShareBoardUI"><rect codeLine="5" fill="#F1F1F1" height="79.2031" id="ShareBoardUI" rx="2.5" ry="2.5" style="stroke:#181818;stroke-width:0.5;" width="141" x="360.98" y="46.6211"/><ellipse cx="385.43" cy="68.9121" fill="#ADD1B2" rx="11" ry="11" style="stroke:#181818;stroke-width:1.0;"/><path d="M388.1956,64.7871 Q388.3519,64.5684 388.5394,64.459 Q388.7269,64.3496 388.9456,64.3496 Q389.3206,64.3496 389.555,64.6152 Q389.7894,64.8652 389.7894,65.4746 L389.7894,66.9277 Q389.7894,67.5371 389.555,67.8027 Q389.3206,68.0684 388.9456,68.0684 Q388.6019,68.0684 388.3988,67.8652 Q388.1956,67.6777 388.0863,67.1621 Q388.0394,66.8027 387.8519,66.6152 Q387.5238,66.2402 386.9144,66.0215 Q386.305,65.8027 385.68,65.8027 Q384.9144,65.8027 384.2738,66.1309 Q383.6488,66.459 383.1488,67.209 Q382.6644,67.959 382.6644,68.9902 L382.6644,70.084 Q382.6644,71.3184 383.555,72.1465 Q384.4456,72.959 386.0394,72.959 Q386.9769,72.959 387.6331,72.709 Q388.0238,72.5527 388.4456,72.1152 Q388.7113,71.8496 388.8519,71.7715 Q389.0081,71.6934 389.2113,71.6934 Q389.5394,71.6934 389.7894,71.959 Q390.055,72.209 390.055,72.5527 Q390.055,72.8965 389.7113,73.3027 Q389.2113,73.8809 388.4144,74.209 Q387.3363,74.6621 386.0394,74.6621 Q384.5238,74.6621 383.3206,74.0371 Q382.3363,73.5371 381.6488,72.4746 Q380.9613,71.3965 380.9613,70.1152 L380.9613,68.959 Q380.9613,67.6309 381.5706,66.4902 Q382.1956,65.334 383.2894,64.7246 Q384.3831,64.0996 385.6175,64.0996 Q386.3519,64.0996 386.9925,64.2715 Q387.6488,64.4277 388.1956,64.7871 Z " fill="#000000"/><text fill="#000000" font-family="sans-serif" font-size="12" font-style="italic" lengthAdjust="spacing" textLength="82" x="404.53" y="64.5703">&#171;presentation&#187;</text><text fill="#000000" font-family="sans-serif" font-size="14" lengthAdjust="spacing" textLength="88" x="401.53" y="82.6895">ShareBoardUI</text><line style="stroke:#181818;stroke-width:0.5;" x1="361.98" x2="500.98" y1="91.2031" y2="91.2031"/><line style="stroke:#181818;stroke-width:0.5;" x1="361.98" x2="500.98" y1="99.2031" y2="99.2031"/><polygon fill="#FFFF44" points="371.98,109.0137,375.98,113.0137,371.98,117.0137,367.98,113.0137" style="stroke:#B38D22;stroke-width:1.0;"/><text fill="#000000" font-family="sans-serif" font-size="14" lengthAdjust="spacing" textLength="115" x="380.98" y="118.3105">boolean doShow()</text></g><!--class ShareBoardController--><g id="elem_ShareBoardController"><rect codeLine="9" fill="#F1F1F1" height="116.4453" id="ShareBoardController" rx="2.5" ry="2.5" style="stroke:#181818;stroke-width:0.5;" width="558" x="152.48" y="204.6211"/><ellipse cx="358.23" cy="226.9121" fill="#ADD1B2" rx="11" ry="11" style="stroke:#181818;stroke-width:1.0;"/><path d="M360.9956,222.7871 Q361.1519,222.5684 361.3394,222.459 Q361.5269,222.3496 361.7456,222.3496 Q362.1206,222.3496 362.355,222.6152 Q362.5894,222.8652 362.5894,223.4746 L362.5894,224.9277 Q362.5894,225.5371 362.355,225.8027 Q362.1206,226.0684 361.7456,226.0684 Q361.4019,226.0684 361.1988,225.8652 Q360.9956,225.6777 360.8863,225.1621 Q360.8394,224.8027 360.6519,224.6152 Q360.3238,224.2402 359.7144,224.0215 Q359.105,223.8027 358.48,223.8027 Q357.7144,223.8027 357.0738,224.1309 Q356.4488,224.459 355.9488,225.209 Q355.4644,225.959 355.4644,226.9902 L355.4644,228.084 Q355.4644,229.3184 356.355,230.1465 Q357.2456,230.959 358.8394,230.959 Q359.7769,230.959 360.4331,230.709 Q360.8238,230.5527 361.2456,230.1152 Q361.5113,229.8496 361.6519,229.7715 Q361.8081,229.6934 362.0113,229.6934 Q362.3394,229.6934 362.5894,229.959 Q362.855,230.209 362.855,230.5527 Q362.855,230.8965 362.5113,231.3027 Q362.0113,231.8809 361.2144,232.209 Q360.1363,232.6621 358.8394,232.6621 Q357.3238,232.6621 356.1206,232.0371 Q355.1363,231.5371 354.4488,230.4746 Q353.7613,229.3965 353.7613,228.1152 L353.7613,226.959 Q353.7613,225.6309 354.3706,224.4902 Q354.9956,223.334 356.0894,222.7246 Q357.1831,222.0996 358.4175,222.0996 Q359.1519,222.0996 359.7925,222.2715 Q360.4488,222.4277 360.9956,222.7871 Z " fill="#000000"/><text fill="#000000" font-family="sans-serif" font-size="12" font-style="italic" lengthAdjust="spacing" textLength="74" x="410.73" y="222.5703">&#171;application&#187;</text><text fill="#000000" font-family="sans-serif" font-size="14" lengthAdjust="spacing" textLength="138" x="378.73" y="240.6895">ShareBoardController</text><line style="stroke:#181818;stroke-width:0.5;" x1="153.48" x2="709.48" y1="249.2031" y2="249.2031"/><line style="stroke:#181818;stroke-width:0.5;" x1="153.48" x2="709.48" y1="257.2031" y2="257.2031"/><ellipse cx="163.48" cy="272.0137" fill="#84BE84" rx="3" ry="3" style="stroke:#038048;stroke-width:1.0;"/><text fill="#000000" font-family="sans-serif" font-size="14" lengthAdjust="spacing" textLength="131" x="172.48" y="276.3105">listAllBoardsOwned()</text><ellipse cx="163.48" cy="290.6348" fill="#84BE84" rx="3" ry="3" style="stroke:#038048;stroke-width:1.0;"/><text fill="#000000" font-family="sans-serif" font-size="14" lengthAdjust="spacing" textLength="290" x="172.48" y="294.9316">listAllUsersAvailableToShare(Board theBoard)</text><ellipse cx="163.48" cy="309.2559" fill="#84BE84" rx="3" ry="3" style="stroke:#038048;stroke-width:1.0;"/><text fill="#000000" font-family="sans-serif" font-size="14" lengthAdjust="spacing" textLength="532" x="172.48" y="313.5527">shareBoard(Board theBoard, Iterable&lt;Pair&lt;SystemUser, AccessPermission&gt;&gt; users)</text></g><!--class Board--><g id="elem_Board"><rect codeLine="15" fill="#F1F1F1" height="228.1719" id="Board" rx="2.5" ry="2.5" style="stroke:#181818;stroke-width:0.5;" width="369" x="703.98" y="399.6211"/><ellipse cx="858.23" cy="421.9121" fill="#ADD1B2" rx="11" ry="11" style="stroke:#181818;stroke-width:1.0;"/><path d="M860.9956,417.7871 Q861.1519,417.5684 861.3394,417.459 Q861.5269,417.3496 861.7456,417.3496 Q862.1206,417.3496 862.355,417.6152 Q862.5894,417.8652 862.5894,418.4746 L862.5894,419.9277 Q862.5894,420.5371 862.355,420.8027 Q862.1206,421.0684 861.7456,421.0684 Q861.4019,421.0684 861.1988,420.8652 Q860.9956,420.6777 860.8863,420.1621 Q860.8394,419.8027 860.6519,419.6152 Q860.3238,419.2402 859.7144,419.0215 Q859.105,418.8027 858.48,418.8027 Q857.7144,418.8027 857.0738,419.1309 Q856.4488,419.459 855.9488,420.209 Q855.4644,420.959 855.4644,421.9902 L855.4644,423.084 Q855.4644,424.3184 856.355,425.1465 Q857.2456,425.959 858.8394,425.959 Q859.7769,425.959 860.4331,425.709 Q860.8238,425.5527 861.2456,425.1152 Q861.5113,424.8496 861.6519,424.7715 Q861.8081,424.6934 862.0113,424.6934 Q862.3394,424.6934 862.5894,424.959 Q862.855,425.209 862.855,425.5527 Q862.855,425.8965 862.5113,426.3027 Q862.0113,426.8809 861.2144,427.209 Q860.1363,427.6621 858.8394,427.6621 Q857.3238,427.6621 856.1206,427.0371 Q855.1363,426.5371 854.4488,425.4746 Q853.7613,424.3965 853.7613,423.1152 L853.7613,421.959 Q853.7613,420.6309 854.3706,419.4902 Q854.9956,418.334 856.0894,417.7246 Q857.1831,417.0996 858.4175,417.0996 Q859.1519,417.0996 859.7925,417.2715 Q860.4488,417.4277 860.9956,417.7871 Z " fill="#000000"/><text fill="#000000" font-family="sans-serif" font-size="12" font-style="italic" lengthAdjust="spacing" textLength="56" x="876.73" y="417.5703">&#171;domain&#187;</text><text fill="#000000" font-family="sans-serif" font-size="14" lengthAdjust="spacing" textLength="38" x="885.73" y="435.6895">Board</text><line style="stroke:#181818;stroke-width:0.5;" x1="704.98" x2="1071.98" y1="444.2031" y2="444.2031"/><rect fill="none" height="6" style="stroke:#C82930;stroke-width:1.0;" width="6" x="711.98" y="456.0137"/><text fill="#000000" font-family="sans-serif" font-size="14" lengthAdjust="spacing" textLength="71" x="723.98" y="463.3105">title : String</text><rect fill="none" height="6" style="stroke:#C82930;stroke-width:1.0;" width="6" x="711.98" y="474.6348"/><text fill="#000000" font-family="sans-serif" font-size="14" lengthAdjust="spacing" textLength="301" x="723.98" y="481.9316">boardElementLineSet : Set&lt;BoardElementLine&gt;</text><rect fill="none" height="6" style="stroke:#C82930;stroke-width:1.0;" width="6" x="711.98" y="493.2559"/><text fill="#000000" font-family="sans-serif" font-size="14" lengthAdjust="spacing" textLength="343" x="723.98" y="500.5527">boardElementColumnSet : Set&lt;BoardElementColumn&gt;</text><rect fill="none" height="6" style="stroke:#C82930;stroke-width:1.0;" width="6" x="711.98" y="511.877"/><text fill="#000000" font-family="sans-serif" font-size="14" lengthAdjust="spacing" textLength="118" x="723.98" y="519.1738">List&lt;PostIt&gt; postIts</text><line style="stroke:#181818;stroke-width:0.5;" x1="704.98" x2="1071.98" y1="526.6875" y2="526.6875"/><ellipse cx="714.98" cy="541.498" fill="#84BE84" rx="3" ry="3" style="stroke:#038048;stroke-width:1.0;"/><text fill="#000000" font-family="sans-serif" font-size="14" lengthAdjust="spacing" textLength="297" x="723.98" y="545.7949">changePostIt(oldPostIt : PostIt, content : String)</text><ellipse cx="714.98" cy="560.1191" fill="#84BE84" rx="3" ry="3" style="stroke:#038048;stroke-width:1.0;"/><text fill="#000000" font-family="sans-serif" font-size="14" lengthAdjust="spacing" textLength="330" x="723.98" y="564.416">changePostIt(oldPostIt : PostIt, line : int, column : int)</text><rect fill="#F24D5C" height="6" style="stroke:#C82930;stroke-width:1.0;" width="6" x="711.98" y="575.7402"/><text fill="#000000" font-family="sans-serif" font-size="14" lengthAdjust="spacing" textLength="308" x="723.98" y="583.0371">changePostIt(oldPostIt : PostIt, newPostIt : PostIt)</text><ellipse cx="714.98" cy="597.3613" fill="#84BE84" rx="3" ry="3" style="stroke:#038048;stroke-width:1.0;"/><text fill="#000000" font-family="sans-serif" font-size="14" lengthAdjust="spacing" textLength="282" x="723.98" y="601.6582">Set&lt;BoardElementLine&gt; boardElementLine()</text><ellipse cx="714.98" cy="615.9824" fill="#84BE84" rx="3" ry="3" style="stroke:#038048;stroke-width:1.0;"/><text fill="#000000" font-family="sans-serif" font-size="14" lengthAdjust="spacing" textLength="324" x="723.98" y="620.2793">Set&lt;BoardElementColumn&gt; boardElementColumn()</text></g><!--class BoardRepository--><g id="elem_BoardRepository"><rect codeLine="27" fill="#F1F1F1" height="97.8242" id="BoardRepository" rx="2.5" ry="2.5" style="stroke:#181818;stroke-width:0.5;" width="444" x="209.48" y="706.6211"/><ellipse cx="374.23" cy="728.9121" fill="#B4A7E5" rx="11" ry="11" style="stroke:#181818;stroke-width:1.0;"/><path d="M375.1831,725.5527 L375.1831,732.209 L376.9019,732.209 Q377.5113,732.209 377.7769,732.4434 Q378.0425,732.6777 378.0425,733.0684 Q378.0425,733.4434 377.7769,733.6777 Q377.5113,733.9121 376.9019,733.9121 L371.7613,733.9121 Q371.1519,733.9121 370.8863,733.6777 Q370.6206,733.4434 370.6206,733.0527 Q370.6206,732.6777 370.8863,732.4434 Q371.1519,732.209 371.7613,732.209 L373.48,732.209 L373.48,725.5527 L371.7613,725.5527 Q371.1519,725.5527 370.8863,725.3184 Q370.6206,725.084 370.6206,724.6934 Q370.6206,724.3184 370.8863,724.084 Q371.1519,723.8496 371.7613,723.8496 L376.9019,723.8496 Q377.5113,723.8496 377.7769,724.084 Q378.0425,724.3184 378.0425,724.6934 Q378.0425,725.084 377.7769,725.3184 Q377.5113,725.5527 376.9019,725.5527 L375.1831,725.5527 Z " fill="#000000"/><text fill="#000000" font-family="sans-serif" font-size="12" font-style="italic" lengthAdjust="spacing" textLength="78" x="408.73" y="724.5703">&#171;repositories&#187;</text><text fill="#000000" font-family="sans-serif" font-size="14" font-style="italic" lengthAdjust="spacing" textLength="106" x="394.73" y="742.6895">BoardRepository</text><line style="stroke:#181818;stroke-width:0.5;" x1="210.48" x2="652.48" y1="751.2031" y2="751.2031"/><line style="stroke:#181818;stroke-width:0.5;" x1="210.48" x2="652.48" y1="759.2031" y2="759.2031"/><ellipse cx="220.48" cy="774.0137" fill="#84BE84" rx="3" ry="3" style="stroke:#038048;stroke-width:1.0;"/><text fill="#000000" font-family="sans-serif" font-size="14" lengthAdjust="spacing" textLength="418" x="229.48" y="778.3105">Iterable&lt;Board&gt; findAllUsersAvailableToShare(boardTitle : String);</text><ellipse cx="220.48" cy="792.6348" fill="#84BE84" rx="3" ry="3" style="stroke:#038048;stroke-width:1.0;"/><text fill="#000000" font-family="sans-serif" font-size="14" lengthAdjust="spacing" textLength="190" x="229.48" y="796.9316">Board save(theBoard : Board)</text></g><!--class JpaBoardRepository--><g id="elem_JpaBoardRepository"><rect codeLine="32" fill="#F1F1F1" height="60.582" id="JpaBoardRepository" rx="2.5" ry="2.5" style="stroke:#181818;stroke-width:0.5;" width="160" x="243.48" y="865.6211"/><ellipse cx="258.48" cy="887.9121" fill="#ADD1B2" rx="11" ry="11" style="stroke:#181818;stroke-width:1.0;"/><path d="M261.2456,883.7871 Q261.4019,883.5684 261.5894,883.459 Q261.7769,883.3496 261.9956,883.3496 Q262.3706,883.3496 262.605,883.6152 Q262.8394,883.8652 262.8394,884.4746 L262.8394,885.9277 Q262.8394,886.5371 262.605,886.8027 Q262.3706,887.0684 261.9956,887.0684 Q261.6519,887.0684 261.4488,886.8652 Q261.2456,886.6777 261.1363,886.1621 Q261.0894,885.8027 260.9019,885.6152 Q260.5738,885.2402 259.9644,885.0215 Q259.355,884.8027 258.73,884.8027 Q257.9644,884.8027 257.3238,885.1309 Q256.6988,885.459 256.1988,886.209 Q255.7144,886.959 255.7144,887.9902 L255.7144,889.084 Q255.7144,890.3184 256.605,891.1465 Q257.4956,891.959 259.0894,891.959 Q260.0269,891.959 260.6831,891.709 Q261.0738,891.5527 261.4956,891.1152 Q261.7613,890.8496 261.9019,890.7715 Q262.0581,890.6934 262.2613,890.6934 Q262.5894,890.6934 262.8394,890.959 Q263.105,891.209 263.105,891.5527 Q263.105,891.8965 262.7613,892.3027 Q262.2613,892.8809 261.4644,893.209 Q260.3863,893.6621 259.0894,893.6621 Q257.5738,893.6621 256.3706,893.0371 Q255.3863,892.5371 254.6988,891.4746 Q254.0113,890.3965 254.0113,889.1152 L254.0113,887.959 Q254.0113,886.6309 254.6206,885.4902 Q255.2456,884.334 256.3394,883.7246 Q257.4331,883.0996 258.6675,883.0996 Q259.4019,883.0996 260.0425,883.2715 Q260.6988,883.4277 261.2456,883.7871 Z " fill="#000000"/><text fill="#000000" font-family="sans-serif" font-size="12" font-style="italic" lengthAdjust="spacing" textLength="77" x="297.98" y="883.5703">&#171;persistence&#187;</text><text fill="#000000" font-family="sans-serif" font-size="14" lengthAdjust="spacing" textLength="128" x="272.48" y="901.6895">JpaBoardRepository</text><line style="stroke:#181818;stroke-width:0.5;" x1="244.48" x2="402.48" y1="910.2031" y2="910.2031"/><line style="stroke:#181818;stroke-width:0.5;" x1="244.48" x2="402.48" y1="918.2031" y2="918.2031"/></g><!--class InMemoryBoardRepository--><g id="elem_InMemoryBoardRepository"><rect codeLine="34" fill="#F1F1F1" height="60.582" id="InMemoryBoardRepository" rx="2.5" ry="2.5" style="stroke:#181818;stroke-width:0.5;" width="199" x="438.98" y="865.6211"/><ellipse cx="453.98" cy="887.9121" fill="#ADD1B2" rx="11" ry="11" style="stroke:#181818;stroke-width:1.0;"/><path d="M456.7456,883.7871 Q456.9019,883.5684 457.0894,883.459 Q457.2769,883.3496 457.4956,883.3496 Q457.8706,883.3496 458.105,883.6152 Q458.3394,883.8652 458.3394,884.4746 L458.3394,885.9277 Q458.3394,886.5371 458.105,886.8027 Q457.8706,887.0684 457.4956,887.0684 Q457.1519,887.0684 456.9488,886.8652 Q456.7456,886.6777 456.6363,886.1621 Q456.5894,885.8027 456.4019,885.6152 Q456.0738,885.2402 455.4644,885.0215 Q454.855,884.8027 454.23,884.8027 Q453.4644,884.8027 452.8238,885.1309 Q452.1988,885.459 451.6988,886.209 Q451.2144,886.959 451.2144,887.9902 L451.2144,889.084 Q451.2144,890.3184 452.105,891.1465 Q452.9956,891.959 454.5894,891.959 Q455.5269,891.959 456.1831,891.709 Q456.5738,891.5527 456.9956,891.1152 Q457.2613,890.8496 457.4019,890.7715 Q457.5581,890.6934 457.7613,890.6934 Q458.0894,890.6934 458.3394,890.959 Q458.605,891.209 458.605,891.5527 Q458.605,891.8965 458.2613,892.3027 Q457.7613,892.8809 456.9644,893.209 Q455.8863,893.6621 454.5894,893.6621 Q453.0738,893.6621 451.8706,893.0371 Q450.8863,892.5371 450.1988,891.4746 Q449.5113,890.3965 449.5113,889.1152 L449.5113,887.959 Q449.5113,886.6309 450.1206,885.4902 Q450.7456,884.334 451.8394,883.7246 Q452.9331,883.0996 454.1675,883.0996 Q454.9019,883.0996 455.5425,883.2715 Q456.1988,883.4277 456.7456,883.7871 Z " fill="#000000"/><text fill="#000000" font-family="sans-serif" font-size="12" font-style="italic" lengthAdjust="spacing" textLength="77" x="512.98" y="883.5703">&#171;persistence&#187;</text><text fill="#000000" font-family="sans-serif" font-size="14" lengthAdjust="spacing" textLength="167" x="467.98" y="901.6895">InMemoryBoardRepository</text><line style="stroke:#181818;stroke-width:0.5;" x1="439.98" x2="636.98" y1="910.2031" y2="910.2031"/><line style="stroke:#181818;stroke-width:0.5;" x1="439.98" x2="636.98" y1="918.2031" y2="918.2031"/></g><!--class SystemUser--><g id="elem_SystemUser"><rect codeLine="36" fill="#F1F1F1" height="60.582" id="SystemUser" rx="2.5" ry="2.5" style="stroke:#181818;stroke-width:0.5;" width="107" x="66.98" y="725.1211"/><ellipse cx="81.98" cy="747.4121" fill="#ADD1B2" rx="11" ry="11" style="stroke:#181818;stroke-width:1.0;"/><path d="M84.7456,743.2871 Q84.9019,743.0684 85.0894,742.959 Q85.2769,742.8496 85.4956,742.8496 Q85.8706,742.8496 86.105,743.1152 Q86.3394,743.3652 86.3394,743.9746 L86.3394,745.4277 Q86.3394,746.0371 86.105,746.3027 Q85.8706,746.5684 85.4956,746.5684 Q85.1519,746.5684 84.9488,746.3652 Q84.7456,746.1777 84.6363,745.6621 Q84.5894,745.3027 84.4019,745.1152 Q84.0738,744.7402 83.4644,744.5215 Q82.855,744.3027 82.23,744.3027 Q81.4644,744.3027 80.8238,744.6309 Q80.1988,744.959 79.6988,745.709 Q79.2144,746.459 79.2144,747.4902 L79.2144,748.584 Q79.2144,749.8184 80.105,750.6465 Q80.9956,751.459 82.5894,751.459 Q83.5269,751.459 84.1831,751.209 Q84.5738,751.0527 84.9956,750.6152 Q85.2613,750.3496 85.4019,750.2715 Q85.5581,750.1934 85.7613,750.1934 Q86.0894,750.1934 86.3394,750.459 Q86.605,750.709 86.605,751.0527 Q86.605,751.3965 86.2613,751.8027 Q85.7613,752.3809 84.9644,752.709 Q83.8863,753.1621 82.5894,753.1621 Q81.0738,753.1621 79.8706,752.5371 Q78.8863,752.0371 78.1988,750.9746 Q77.5113,749.8965 77.5113,748.6152 L77.5113,747.459 Q77.5113,746.1309 78.1206,744.9902 Q78.7456,743.834 79.8394,743.2246 Q80.9331,742.5996 82.1675,742.5996 Q82.9019,742.5996 83.5425,742.7715 Q84.1988,742.9277 84.7456,743.2871 Z " fill="#000000"/><text fill="#000000" font-family="sans-serif" font-size="12" font-style="italic" lengthAdjust="spacing" textLength="56" x="105.48" y="743.0703">&#171;domain&#187;</text><text fill="#000000" font-family="sans-serif" font-size="14" lengthAdjust="spacing" textLength="75" x="95.98" y="761.1895">SystemUser</text><line style="stroke:#181818;stroke-width:0.5;" x1="67.98" x2="172.98" y1="769.7031" y2="769.7031"/><line style="stroke:#181818;stroke-width:0.5;" x1="67.98" x2="172.98" y1="777.7031" y2="777.7031"/></g><!--class Username--><g id="elem_Username"><rect codeLine="38" fill="#F1F1F1" height="60.582" id="Username" rx="2.5" ry="2.5" style="stroke:#181818;stroke-width:0.5;" width="109" x="688.98" y="725.1211"/><ellipse cx="703.98" cy="747.4121" fill="#FF8B40" rx="11" ry="11" style="stroke:#181818;stroke-width:1.0;"/><path d="M704.5738,750.6777 L707.0425,744.8027 L706.6519,744.8027 Q706.0425,744.8027 705.7769,744.5684 Q705.5113,744.334 705.5113,743.9434 Q705.5113,743.5684 705.7769,743.334 Q706.0425,743.0996 706.6519,743.0996 L708.9331,743.0996 Q709.5425,743.0996 709.8081,743.334 Q710.0738,743.5684 710.0738,743.9434 Q710.0738,744.4121 709.6675,744.6777 Q709.48,744.8027 708.8863,744.8027 L705.4019,753.1621 L703.7613,753.1621 L700.2769,744.8027 Q699.6831,744.8027 699.4956,744.6777 Q699.0894,744.4121 699.0894,743.9434 Q699.0894,743.5684 699.355,743.334 Q699.6206,743.0996 700.23,743.0996 L702.5269,743.0996 Q703.1363,743.0996 703.3863,743.334 Q703.6519,743.5684 703.6519,743.9434 Q703.6519,744.334 703.3863,744.5684 Q703.1363,744.8027 702.5269,744.8027 L702.1206,744.8027 L704.5738,750.6777 Z " fill="#000000"/><text fill="#000000" font-family="sans-serif" font-size="12" font-style="italic" lengthAdjust="spacing" textLength="81" x="715.98" y="743.0703">&#171;value object&#187;</text><text fill="#000000" font-family="sans-serif" font-size="14" lengthAdjust="spacing" textLength="64" x="724.48" y="761.1895">Username</text><line style="stroke:#181818;stroke-width:0.5;" x1="689.98" x2="796.98" y1="769.7031" y2="769.7031"/><line style="stroke:#181818;stroke-width:0.5;" x1="689.98" x2="796.98" y1="777.7031" y2="777.7031"/></g><!--class CsvSharedBoardProtocolProxy--><g id="elem_CsvSharedBoardProtocolProxy"><rect codeLine="40" fill="#F1F1F1" height="116.4453" id="CsvSharedBoardProtocolProxy" rx="2.5" ry="2.5" style="stroke:#181818;stroke-width:0.5;" width="474" x="194.48" y="455.6211"/><ellipse cx="329.73" cy="477.9121" fill="#ADD1B2" rx="11" ry="11" style="stroke:#181818;stroke-width:1.0;"/><path d="M332.4956,473.7871 Q332.6519,473.5684 332.8394,473.459 Q333.0269,473.3496 333.2456,473.3496 Q333.6206,473.3496 333.855,473.6152 Q334.0894,473.8652 334.0894,474.4746 L334.0894,475.9277 Q334.0894,476.5371 333.855,476.8027 Q333.6206,477.0684 333.2456,477.0684 Q332.9019,477.0684 332.6988,476.8652 Q332.4956,476.6777 332.3863,476.1621 Q332.3394,475.8027 332.1519,475.6152 Q331.8238,475.2402 331.2144,475.0215 Q330.605,474.8027 329.98,474.8027 Q329.2144,474.8027 328.5738,475.1309 Q327.9488,475.459 327.4488,476.209 Q326.9644,476.959 326.9644,477.9902 L326.9644,479.084 Q326.9644,480.3184 327.855,481.1465 Q328.7456,481.959 330.3394,481.959 Q331.2769,481.959 331.9331,481.709 Q332.3238,481.5527 332.7456,481.1152 Q333.0113,480.8496 333.1519,480.7715 Q333.3081,480.6934 333.5113,480.6934 Q333.8394,480.6934 334.0894,480.959 Q334.355,481.209 334.355,481.5527 Q334.355,481.8965 334.0113,482.3027 Q333.5113,482.8809 332.7144,483.209 Q331.6363,483.6621 330.3394,483.6621 Q328.8238,483.6621 327.6206,483.0371 Q326.6363,482.5371 325.9488,481.4746 Q325.2613,480.3965 325.2613,479.1152 L325.2613,477.959 Q325.2613,476.6309 325.8706,475.4902 Q326.4956,474.334 327.5894,473.7246 Q328.6831,473.0996 329.9175,473.0996 Q330.6519,473.0996 331.2925,473.2715 Q331.9488,473.4277 332.4956,473.7871 Z " fill="#000000"/><text fill="#000000" font-family="sans-serif" font-size="12" font-style="italic" lengthAdjust="spacing" textLength="76" x="409.73" y="473.5703">&#171;csvprotocol&#187;</text><text fill="#000000" font-family="sans-serif" font-size="14" lengthAdjust="spacing" textLength="195" x="350.23" y="491.6895">CsvSharedBoardProtocolProxy</text><line style="stroke:#181818;stroke-width:0.5;" x1="195.48" x2="667.48" y1="500.2031" y2="500.2031"/><line style="stroke:#181818;stroke-width:0.5;" x1="195.48" x2="667.48" y1="508.2031" y2="508.2031"/><ellipse cx="205.48" cy="523.0137" fill="#84BE84" rx="3" ry="3" style="stroke:#038048;stroke-width:1.0;"/><text fill="#000000" font-family="sans-serif" font-size="14" lengthAdjust="spacing" textLength="239" x="214.48" y="527.3105">Iterable&lt;Board&gt; getAllBoardsOwned()</text><ellipse cx="205.48" cy="541.6348" fill="#84BE84" rx="3" ry="3" style="stroke:#038048;stroke-width:1.0;"/><text fill="#000000" font-family="sans-serif" font-size="14" lengthAdjust="spacing" textLength="448" x="214.48" y="545.9316">Iterable&lt;SystemUser&gt; getAllUsersAvailableToShare(boardTitle : String)</text><ellipse cx="205.48" cy="560.2559" fill="#84BE84" rx="3" ry="3" style="stroke:#038048;stroke-width:1.0;"/><text fill="#000000" font-family="sans-serif" font-size="14" lengthAdjust="spacing" textLength="228" x="214.48" y="564.5527">Board saveBoard(theBoard : Board)</text></g><!--link ShareBoardUI to ShareBoardController--><g id="link_ShareBoardUI_ShareBoardController"><path codeLine="47" d="M431.48,125.8511 C431.48,147.4111 431.48,174.7611 431.48,199.2611 " fill="none" id="ShareBoardUI-to-ShareBoardController" style="stroke:#181818;stroke-width:1.0;"/><polygon fill="#181818" points="431.48,204.4411,435.48,195.4411,431.48,199.4411,427.48,195.4411,431.48,204.4411" style="stroke:#181818;stroke-width:1.0;"/><text fill="#000000" font-family="sans-serif" font-size="13" lengthAdjust="spacing" textLength="73" x="432.48" y="170.6494">theController</text></g><!--link ShareBoardController to CsvSharedBoardProtocolProxy--><g id="link_ShareBoardController_CsvSharedBoardProtocolProxy"><path codeLine="48" d="M431.48,320.7511 C431.48,359.3611 431.48,410.3411 431.48,450.0511 " fill="none" id="ShareBoardController-to-CsvSharedBoardProtocolProxy" style="stroke:#181818;stroke-width:1.0;"/><polygon fill="#181818" points="431.48,455.3311,435.48,446.3311,431.48,450.3311,427.48,446.3311,431.48,455.3311" style="stroke:#181818;stroke-width:1.0;"/><text fill="#000000" font-family="sans-serif" font-size="13" lengthAdjust="spacing" textLength="32" x="432.48" y="365.6494">proxy</text></g><!--link ShareBoardController to Board--><g id="link_ShareBoardController_Board"><path codeLine="49" d="M539.68,320.7111 C585.13,344.8511 638.48,373.4011 686.48,399.6211 C690.78,401.9711 695.12,404.3511 699.5,406.7511 " fill="none" id="ShareBoardController-to-Board" style="stroke:#181818;stroke-width:1.0;"/><polygon fill="#181818" points="703.9,409.1711,697.9447,401.3267,699.5198,406.7599,694.0867,408.335,703.9,409.1711" style="stroke:#181818;stroke-width:1.0;"/><text fill="#000000" font-family="sans-serif" font-size="13" lengthAdjust="spacing" textLength="52" x="631.48" y="365.6494">theBoard</text></g><!--link ShareBoardController to SystemUser--><g id="link_ShareBoardController_SystemUser"><path codeLine="50" d="M243.23,320.6511 C206.75,340.0811 172.7,365.7811 149.48,399.6211 C81.61,498.5011 99.93,651.3211 112.8,719.5911 " fill="none" id="ShareBoardController-to-SystemUser" style="stroke:#181818;stroke-width:1.0;"/><polygon fill="#181818" points="113.8,724.7511,116.0325,715.1586,112.8579,719.8407,108.1758,716.666,113.8,724.7511" style="stroke:#181818;stroke-width:1.0;"/><text fill="#000000" font-family="sans-serif" font-size="13" lengthAdjust="spacing" textLength="25" x="150.48" y="519.1494">user</text></g><!--link CsvSharedBoardProtocolProxy to BoardRepository--><g id="link_CsvSharedBoardProtocolProxy_BoardRepository"><path codeLine="51" d="M431.48,571.8011 C431.48,611.0811 431.48,662.8611 431.48,701.2811 " fill="none" id="CsvSharedBoardProtocolProxy-to-BoardRepository" style="stroke:#181818;stroke-width:1.0;"/><polygon fill="#181818" points="431.48,706.3711,435.48,697.3711,431.48,701.3711,427.48,697.3711,431.48,706.3711" style="stroke:#181818;stroke-width:1.0;"/><text fill="#000000" font-family="sans-serif" font-size="13" lengthAdjust="spacing" textLength="62" x="432.48" y="672.6494">boardRepo</text></g><!--link BoardRepository to JpaBoardRepository--><g id="link_BoardRepository_JpaBoardRepository"><path codeLine="52" d="M394.01,804.6711 C379.52,823.2511 363.27,844.0911 350.03,861.0811 " fill="none" id="BoardRepository-to-JpaBoardRepository" style="stroke:#181818;stroke-width:1.0;"/><polygon fill="#181818" points="346.73,865.3111,355.4164,860.6692,349.8027,861.3666,349.1052,855.7529,346.73,865.3111" style="stroke:#181818;stroke-width:1.0;"/></g><!--link BoardRepository to InMemoryBoardRepository--><g id="link_BoardRepository_InMemoryBoardRepository"><path codeLine="53" d="M468.6,804.6711 C482.96,823.2511 499.06,844.0911 512.18,861.0811 " fill="none" id="BoardRepository-to-InMemoryBoardRepository" style="stroke:#181818;stroke-width:1.0;"/><polygon fill="#181818" points="515.45,865.3111,513.1131,855.7435,512.3932,861.3544,506.7823,860.6344,515.45,865.3111" style="stroke:#181818;stroke-width:1.0;"/></g><!--link SystemUser to Username--><g id="link_SystemUser_Username"><path codeLine="54" d="M141.21,724.7511 C157.04,704.1411 180.87,678.7611 208.98,667.1211 C300.34,629.2811 562.51,629.5311 653.98,667.1211 C680.29,677.9311 702.98,700.6211 718.93,720.3211 " fill="none" id="SystemUser-to-Username" style="stroke:#181818;stroke-width:1.0;"/><polygon fill="#181818" points="722.43,724.7411,719.9736,715.2035,719.3239,720.8229,713.7045,720.1732,722.43,724.7411" style="stroke:#181818;stroke-width:1.0;"/></g><!--link ShareBoardUI to Board--><g id="link_ShareBoardUI_Board"><path codeLine="57" d="M502.01,100.2211 C567.4,115.5111 664.06,146.4811 728.48,204.6211 C784.83,255.4811 824.46,330.8611 850.19,394.3211 " fill="none" id="ShareBoardUI-to-Board" style="stroke:#181818;stroke-width:1.0;stroke-dasharray:7.0,7.0;"/><polygon fill="#181818" points="852.17,399.2511,852.5414,389.4092,850.313,394.6087,845.1136,392.3804,852.17,399.2511" style="stroke:#181818;stroke-width:1.0;"/></g><!--link ShareBoardUI to SystemUser--><g id="link_ShareBoardUI_SystemUser"><path codeLine="58" d="M360.75,95.9211 C292.57,108.2311 191.58,137.2611 134.48,204.6211 C6,356.2011 77.08,624.6111 108.23,719.8911 " fill="none" id="ShareBoardUI-to-SystemUser" style="stroke:#181818;stroke-width:1.0;stroke-dasharray:7.0,7.0;"/><polygon fill="#181818" points="109.87,724.8311,110.863,715.0324,108.3103,720.0806,103.2622,717.5279,109.87,724.8311" style="stroke:#181818;stroke-width:1.0;"/></g><!--SRC=[ZLJBRjim4BphAmZa41cr0GFDeN050NuqW8kqDQeubw87MjhOB2XI86cbGT5_xvBKmvQbrBx8vCxiZeOZ6cOua2MdMfCLetj5Sn8kLoCo8Tk4l9zExuBWrfL11wc39GUgO26fohPh4aM50Wt2KCEaY6Fo9o3ukzb9oO4Aaida85_2KV0tkA0lfJ1ASWuAsz2Yu2mzx_AECstcd3kq_lOY8CDEfvMj1gNd9MMSxZWyIjSyT7XY3dvCnT3Dt4vzJDO6bEL76yfKbBng0xdjF2RpD0MjDw1ofhMNThGZJzx7DukYJEQKjTednZax8ubHJEpztivYFt78qR079Y01On5WeaMd4byIbf8VSz5FyRMAz83UH1kfpTh4f71FxJr83rJimPT2oJF_3_lvFsEIuf5WkqRsw4eUHycuPCBri5hyolCd_-KBUEdiLPDxlI5T7yC1T6KBkRJH9n8LWdgcAVXJ_0xe5ZDIlU9vgdh1GBU9RABY235vPY8RpA4R-tYMWz57tyUdHjCImZg7YAdoscJhSq4lXHKu2ayOH0fMLmDUYo-G8-HwHflqi_msTLiHD0UiXazZSdD__s5nDnsHal8Z4Bdx1Qc9ungzrALxxSm9s2Xf94O1dx-jXbINHRKrxEOU1Zxt1jXAhj7NMzzrtby6lVRVVgKbsxlRA3YxxoQJkFy6czdxf5q7lI3BVikc6IdiSvXSAwr53o6jolPmP-xI2jwQt3G_2SxCVpTs9-ZMBFuodRsmWLm69m8HLMSDlLz10IB3jEANrt7_HqRr0RAVjTgXyjdx1_y0]--></g></svg>