<?xml version="1.0" encoding="us-ascii" standalone="no"?><svg xmlns="http://www.w3.org/2000/svg" xmlns:xlink="http://www.w3.org/1999/xlink" contentStyleType="text/css" height="690px" preserveAspectRatio="none" style="width:1252px;height:690px;background:#FFFFFF;" version="1.1" viewBox="0 0 1252 690" width="1252px" zoomAndPan="magnify"><defs/><g><text fill="#000000" font-family="sans-serif" font-size="14" font-weight="bold" lengthAdjust="spacing" textLength="213" x="512.5" y="25.1074">Domain Classes (DC) - US 3004</text><!--cluster <<aggregate>> SystemUser--><g id="cluster_&lt;&lt;aggregate&gt;&gt; SystemUser"><path d="M1056.5,444.1348 L1232.5,444.1348 A3.75,3.75 0 0 1 1235,446.6348 L1242,468.7559 L1242.5,468.7559 A2.5,2.5 0 0 1 1245,471.2559 L1245,680.6348 A2.5,2.5 0 0 1 1242.5,683.1348 L1056.5,683.1348 A2.5,2.5 0 0 1 1054,680.6348 L1054,446.6348 A2.5,2.5 0 0 1 1056.5,444.1348 " fill="none" style="stroke:#000000;stroke-width:1.5;"/><line style="stroke:#000000;stroke-width:1.5;" x1="1054" x2="1242" y1="468.7559" y2="468.7559"/><text fill="#000000" font-family="sans-serif" font-size="14" font-weight="bold" lengthAdjust="spacing" textLength="175" x="1058" y="461.2422">&#171;aggregate&#187; SystemUser</text></g><!--cluster <<aggregate>> Board--><g id="cluster_&lt;&lt;aggregate&gt;&gt; Board"><path d="M8.5,45.6348 L143.5,45.6348 A3.75,3.75 0 0 1 146,48.1348 L153,70.2559 L787.5,70.2559 A2.5,2.5 0 0 1 790,72.7559 L790,564.6348 A2.5,2.5 0 0 1 787.5,567.1348 L8.5,567.1348 A2.5,2.5 0 0 1 6,564.6348 L6,48.1348 A2.5,2.5 0 0 1 8.5,45.6348 " fill="none" style="stroke:#000000;stroke-width:1.5;"/><line style="stroke:#000000;stroke-width:1.5;" x1="6" x2="153" y1="70.2559" y2="70.2559"/><text fill="#000000" font-family="sans-serif" font-size="14" font-weight="bold" lengthAdjust="spacing" textLength="134" x="10" y="62.7422">&#171;aggregate&#187; Board</text></g><!--cluster <<aggregate>> BoardMembers--><g id="cluster_&lt;&lt;aggregate&gt;&gt; BoardMembers"><path d="M816.5,253.6348 L1017.5,253.6348 A3.75,3.75 0 0 1 1020,256.1348 L1027,278.2559 L1027.5,278.2559 A2.5,2.5 0 0 1 1030,280.7559 L1030,555.6348 A2.5,2.5 0 0 1 1027.5,558.1348 L816.5,558.1348 A2.5,2.5 0 0 1 814,555.6348 L814,256.1348 A2.5,2.5 0 0 1 816.5,253.6348 " fill="none" style="stroke:#000000;stroke-width:1.5;"/><line style="stroke:#000000;stroke-width:1.5;" x1="814" x2="1027" y1="278.2559" y2="278.2559"/><text fill="#000000" font-family="sans-serif" font-size="14" font-weight="bold" lengthAdjust="spacing" textLength="200" x="818" y="270.7422">&#171;aggregate&#187; BoardMembers</text></g><!--class SystemUser--><g id="elem_SystemUser"><rect codeLine="10" fill="#F1F1F1" height="68.543" id="SystemUser" rx="2.5" ry="2.5" style="stroke:#181818;stroke-width:0.5;" width="107" x="1070.5" y="481.1348"/><ellipse cx="1085.5" cy="511.4063" fill="#ADD1B2" rx="11" ry="11" style="stroke:#181818;stroke-width:1.0;"/><path d="M1084.3594,512.2031 L1084.3594,514.7031 L1088.6875,514.7031 L1088.6875,513.7813 Q1088.6875,513.1719 1088.9219,512.9063 Q1089.1719,512.6406 1089.5469,512.6406 Q1089.9219,512.6406 1090.1563,512.9063 Q1090.3906,513.1719 1090.3906,513.7813 L1090.3906,516.4063 L1082.3906,516.4063 Q1081.7656,516.4063 1081.5,516.1719 Q1081.25,515.9375 1081.25,515.5469 Q1081.25,515.1719 1081.5156,514.9375 Q1081.7813,514.7031 1082.3906,514.7031 L1082.6563,514.7031 L1082.6563,508.0469 L1082.3906,508.0469 Q1081.7656,508.0469 1081.5,507.8125 Q1081.25,507.5781 1081.25,507.1875 Q1081.25,506.8125 1081.5,506.5781 Q1081.7656,506.3438 1082.3906,506.3438 L1090.0156,506.3438 L1090.0156,508.9375 Q1090.0156,509.5469 1089.7813,509.8125 Q1089.5625,510.0625 1089.1719,510.0625 Q1088.7969,510.0625 1088.5625,509.8125 Q1088.3281,509.5469 1088.3281,508.9375 L1088.3281,508.0469 L1084.3594,508.0469 L1084.3594,510.5 L1085.8438,510.5 Q1085.8438,509.8438 1085.9688,509.6563 Q1086.2344,509.25 1086.7031,509.25 Q1087.0781,509.25 1087.3125,509.5156 Q1087.5469,509.7656 1087.5469,510.375 L1087.5469,512.3438 Q1087.5469,512.8906 1087.4219,513.0781 Q1087.1563,513.4688 1086.7031,513.4688 Q1086.2344,513.4688 1085.9688,513.0625 Q1085.8438,512.875 1085.8438,512.2031 L1084.3594,512.2031 Z " fill="#000000"/><text fill="#000000" font-family="sans-serif" font-size="12" font-style="italic" lengthAdjust="spacing" textLength="43" x="1115.5" y="499.084">&#171;entity&#187;</text><text fill="#000000" font-family="sans-serif" font-size="12" font-style="italic" lengthAdjust="spacing" textLength="35" x="1119.5" y="515.0449">&#171;root&#187;</text><text fill="#000000" font-family="sans-serif" font-size="14" lengthAdjust="spacing" textLength="75" x="1099.5" y="533.1641">SystemUser</text><line style="stroke:#181818;stroke-width:0.5;" x1="1071.5" x2="1176.5" y1="541.6777" y2="541.6777"/></g><!--class Username--><g id="elem_Username"><rect codeLine="11" fill="#F1F1F1" height="52.582" id="Username" rx="2.5" ry="2.5" style="stroke:#181818;stroke-width:0.5;" width="109" x="1070.5" y="614.1348"/><ellipse cx="1085.5" cy="636.4258" fill="#FF8B40" rx="11" ry="11" style="stroke:#181818;stroke-width:1.0;"/><path d="M1086.0938,639.6914 L1088.5625,633.8164 L1088.1719,633.8164 Q1087.5625,633.8164 1087.2969,633.582 Q1087.0313,633.3477 1087.0313,632.957 Q1087.0313,632.582 1087.2969,632.3477 Q1087.5625,632.1133 1088.1719,632.1133 L1090.4531,632.1133 Q1091.0625,632.1133 1091.3281,632.3477 Q1091.5938,632.582 1091.5938,632.957 Q1091.5938,633.4258 1091.1875,633.6914 Q1091,633.8164 1090.4063,633.8164 L1086.9219,642.1758 L1085.2813,642.1758 L1081.7969,633.8164 Q1081.2031,633.8164 1081.0156,633.6914 Q1080.6094,633.4258 1080.6094,632.957 Q1080.6094,632.582 1080.875,632.3477 Q1081.1406,632.1133 1081.75,632.1133 L1084.0469,632.1133 Q1084.6563,632.1133 1084.9063,632.3477 Q1085.1719,632.582 1085.1719,632.957 Q1085.1719,633.3477 1084.9063,633.582 Q1084.6563,633.8164 1084.0469,633.8164 L1083.6406,633.8164 L1086.0938,639.6914 Z " fill="#000000"/><text fill="#000000" font-family="sans-serif" font-size="12" font-style="italic" lengthAdjust="spacing" textLength="81" x="1097.5" y="632.084">&#171;value object&#187;</text><text fill="#000000" font-family="sans-serif" font-size="14" lengthAdjust="spacing" textLength="64" x="1106" y="650.2031">Username</text><line style="stroke:#181818;stroke-width:0.5;" x1="1071.5" x2="1178.5" y1="658.7168" y2="658.7168"/></g><!--class Board--><g id="elem_Board"><rect codeLine="16" fill="#F1F1F1" height="105.7852" id="Board" rx="2.5" ry="2.5" style="stroke:#181818;stroke-width:0.5;" width="71" x="541.5" y="82.6348"/><ellipse cx="556.5" cy="112.9063" fill="#ADD1B2" rx="11" ry="11" style="stroke:#181818;stroke-width:1.0;"/><path d="M555.3594,113.7031 L555.3594,116.2031 L559.6875,116.2031 L559.6875,115.2813 Q559.6875,114.6719 559.9219,114.4063 Q560.1719,114.1406 560.5469,114.1406 Q560.9219,114.1406 561.1563,114.4063 Q561.3906,114.6719 561.3906,115.2813 L561.3906,117.9063 L553.3906,117.9063 Q552.7656,117.9063 552.5,117.6719 Q552.25,117.4375 552.25,117.0469 Q552.25,116.6719 552.5156,116.4375 Q552.7813,116.2031 553.3906,116.2031 L553.6563,116.2031 L553.6563,109.5469 L553.3906,109.5469 Q552.7656,109.5469 552.5,109.3125 Q552.25,109.0781 552.25,108.6875 Q552.25,108.3125 552.5,108.0781 Q552.7656,107.8438 553.3906,107.8438 L561.0156,107.8438 L561.0156,110.4375 Q561.0156,111.0469 560.7813,111.3125 Q560.5625,111.5625 560.1719,111.5625 Q559.7969,111.5625 559.5625,111.3125 Q559.3281,111.0469 559.3281,110.4375 L559.3281,109.5469 L555.3594,109.5469 L555.3594,112 L556.8438,112 Q556.8438,111.3438 556.9688,111.1563 Q557.2344,110.75 557.7031,110.75 Q558.0781,110.75 558.3125,111.0156 Q558.5469,111.2656 558.5469,111.875 L558.5469,113.8438 Q558.5469,114.3906 558.4219,114.5781 Q558.1563,114.9688 557.7031,114.9688 Q557.2344,114.9688 556.9688,114.5625 Q556.8438,114.375 556.8438,113.7031 L555.3594,113.7031 Z " fill="#000000"/><text fill="#000000" font-family="sans-serif" font-size="12" font-style="italic" lengthAdjust="spacing" textLength="43" x="568.5" y="100.584">&#171;entity&#187;</text><text fill="#000000" font-family="sans-serif" font-size="12" font-style="italic" lengthAdjust="spacing" textLength="35" x="572.5" y="116.5449">&#171;root&#187;</text><text fill="#000000" font-family="sans-serif" font-size="14" lengthAdjust="spacing" textLength="38" x="571" y="134.6641">Board</text><line style="stroke:#181818;stroke-width:0.5;" x1="542.5" x2="611.5" y1="143.1777" y2="143.1777"/><text fill="#000000" font-family="sans-serif" font-size="14" lengthAdjust="spacing" textLength="22" x="547.5" y="162.2852">title</text><text fill="#000000" font-family="sans-serif" font-size="14" lengthAdjust="spacing" textLength="54" x="547.5" y="180.9063">archived</text></g><!--class BoardCreationDateTime--><g id="elem_BoardCreationDateTime"><rect codeLine="21" fill="#F1F1F1" height="71.2031" id="BoardCreationDateTime" rx="2.5" ry="2.5" style="stroke:#181818;stroke-width:0.5;" width="185" x="22.5" y="298.6348"/><ellipse cx="37.5" cy="320.9258" fill="#FF8B40" rx="11" ry="11" style="stroke:#181818;stroke-width:1.0;"/><path d="M38.0938,324.1914 L40.5625,318.3164 L40.1719,318.3164 Q39.5625,318.3164 39.2969,318.082 Q39.0313,317.8477 39.0313,317.457 Q39.0313,317.082 39.2969,316.8477 Q39.5625,316.6133 40.1719,316.6133 L42.4531,316.6133 Q43.0625,316.6133 43.3281,316.8477 Q43.5938,317.082 43.5938,317.457 Q43.5938,317.9258 43.1875,318.1914 Q43,318.3164 42.4063,318.3164 L38.9219,326.6758 L37.2813,326.6758 L33.7969,318.3164 Q33.2031,318.3164 33.0156,318.1914 Q32.6094,317.9258 32.6094,317.457 Q32.6094,317.082 32.875,316.8477 Q33.1406,316.6133 33.75,316.6133 L36.0469,316.6133 Q36.6563,316.6133 36.9063,316.8477 Q37.1719,317.082 37.1719,317.457 Q37.1719,317.8477 36.9063,318.082 Q36.6563,318.3164 36.0469,318.3164 L35.6406,318.3164 L38.0938,324.1914 Z " fill="#000000"/><text fill="#000000" font-family="sans-serif" font-size="12" font-style="italic" lengthAdjust="spacing" textLength="81" x="87.5" y="316.584">&#171;value object&#187;</text><text fill="#000000" font-family="sans-serif" font-size="14" lengthAdjust="spacing" textLength="153" x="51.5" y="334.7031">BoardCreationDateTime</text><line style="stroke:#181818;stroke-width:0.5;" x1="23.5" x2="206.5" y1="343.2168" y2="343.2168"/><text fill="#000000" font-family="sans-serif" font-size="14" lengthAdjust="spacing" textLength="59" x="28.5" y="362.3242">dateTime</text></g><!--class BoardDimensions--><g id="elem_BoardDimensions"><rect codeLine="25" fill="#F1F1F1" height="89.8242" id="BoardDimensions" rx="2.5" ry="2.5" style="stroke:#181818;stroke-width:0.5;" width="143" x="242.5" y="289.1348"/><ellipse cx="257.5" cy="311.4258" fill="#FF8B40" rx="11" ry="11" style="stroke:#181818;stroke-width:1.0;"/><path d="M258.0938,314.6914 L260.5625,308.8164 L260.1719,308.8164 Q259.5625,308.8164 259.2969,308.582 Q259.0313,308.3477 259.0313,307.957 Q259.0313,307.582 259.2969,307.3477 Q259.5625,307.1133 260.1719,307.1133 L262.4531,307.1133 Q263.0625,307.1133 263.3281,307.3477 Q263.5938,307.582 263.5938,307.957 Q263.5938,308.4258 263.1875,308.6914 Q263,308.8164 262.4063,308.8164 L258.9219,317.1758 L257.2813,317.1758 L253.7969,308.8164 Q253.2031,308.8164 253.0156,308.6914 Q252.6094,308.4258 252.6094,307.957 Q252.6094,307.582 252.875,307.3477 Q253.1406,307.1133 253.75,307.1133 L256.0469,307.1133 Q256.6563,307.1133 256.9063,307.3477 Q257.1719,307.582 257.1719,307.957 Q257.1719,308.3477 256.9063,308.582 Q256.6563,308.8164 256.0469,308.8164 L255.6406,308.8164 L258.0938,314.6914 Z " fill="#000000"/><text fill="#000000" font-family="sans-serif" font-size="12" font-style="italic" lengthAdjust="spacing" textLength="81" x="286.5" y="307.084">&#171;value object&#187;</text><text fill="#000000" font-family="sans-serif" font-size="14" lengthAdjust="spacing" textLength="111" x="271.5" y="325.2031">BoardDimensions</text><line style="stroke:#181818;stroke-width:0.5;" x1="243.5" x2="384.5" y1="333.7168" y2="333.7168"/><text fill="#000000" font-family="sans-serif" font-size="14" lengthAdjust="spacing" textLength="82" x="248.5" y="352.8242">numColumns</text><text fill="#000000" font-family="sans-serif" font-size="14" lengthAdjust="spacing" textLength="61" x="248.5" y="371.4453">numLines</text></g><!--class BoardElement--><g id="elem_BoardElement"><rect codeLine="31" fill="#F1F1F1" height="71.2031" id="BoardElement" rx="2.5" ry="2.5" style="stroke:#181818;stroke-width:0.5;" width="121" x="531.5" y="480.1348"/><ellipse cx="546.5" cy="502.4258" fill="#A9DCDF" rx="11" ry="11" style="stroke:#181818;stroke-width:1.0;"/><path d="M548.6875,504.1914 L544.5469,504.1914 L544.125,505.2227 L544.5469,505.2227 Q545.1563,505.2227 545.4219,505.457 Q545.6875,505.6914 545.6875,506.082 Q545.6875,506.457 545.4219,506.6914 Q545.1563,506.9258 544.5469,506.9258 L542.25,506.9258 Q541.6406,506.9258 541.3906,506.6914 Q541.125,506.457 541.125,506.0664 Q541.125,505.6914 541.4063,505.457 Q541.6719,505.207 542.2969,505.2227 L544.9688,498.5664 L543.8594,498.5664 Q543.25,498.5664 542.9844,498.332 Q542.7188,498.0977 542.7188,497.707 Q542.7188,497.332 542.9844,497.0977 Q543.25,496.8633 543.8594,496.8633 L547.5313,496.8633 L550.9219,505.2227 Q551.5156,505.2227 551.7031,505.3633 Q552.0938,505.6289 552.0938,506.082 Q552.0938,506.457 551.8281,506.6914 Q551.5781,506.9258 550.9688,506.9258 L548.6719,506.9258 Q548.0625,506.9258 547.7969,506.6914 Q547.5313,506.457 547.5313,506.0664 Q547.5313,505.6914 547.7969,505.457 Q548.0625,505.2227 548.6719,505.2227 L549.0938,505.2227 L548.6875,504.1914 Z M547.9688,502.4883 L546.6094,499.1133 L545.2344,502.4883 L547.9688,502.4883 Z " fill="#000000"/><text fill="#000000" font-family="sans-serif" font-size="12" font-style="italic" lengthAdjust="spacing" textLength="58" x="576" y="498.084">&#171;abstract&#187;</text><text fill="#000000" font-family="sans-serif" font-size="14" font-style="italic" lengthAdjust="spacing" textLength="89" x="560.5" y="516.2031">BoardElement</text><line style="stroke:#181818;stroke-width:0.5;" x1="532.5" x2="651.5" y1="524.7168" y2="524.7168"/><text fill="#000000" font-family="sans-serif" font-size="14" lengthAdjust="spacing" textLength="22" x="537.5" y="543.8242">title</text></g><!--class BoardElementLine--><g id="elem_BoardElementLine"><rect codeLine="35" fill="#F1F1F1" height="52.582" id="BoardElementLine" rx="2.5" ry="2.5" style="stroke:#181818;stroke-width:0.5;" width="148" x="421" y="307.6348"/><ellipse cx="436" cy="329.9258" fill="#ADD1B2" rx="11" ry="11" style="stroke:#181818;stroke-width:1.0;"/><path d="M434.8594,330.7227 L434.8594,333.2227 L439.1875,333.2227 L439.1875,332.3008 Q439.1875,331.6914 439.4219,331.4258 Q439.6719,331.1602 440.0469,331.1602 Q440.4219,331.1602 440.6563,331.4258 Q440.8906,331.6914 440.8906,332.3008 L440.8906,334.9258 L432.8906,334.9258 Q432.2656,334.9258 432,334.6914 Q431.75,334.457 431.75,334.0664 Q431.75,333.6914 432.0156,333.457 Q432.2813,333.2227 432.8906,333.2227 L433.1563,333.2227 L433.1563,326.5664 L432.8906,326.5664 Q432.2656,326.5664 432,326.332 Q431.75,326.0977 431.75,325.707 Q431.75,325.332 432,325.0977 Q432.2656,324.8633 432.8906,324.8633 L440.5156,324.8633 L440.5156,327.457 Q440.5156,328.0664 440.2813,328.332 Q440.0625,328.582 439.6719,328.582 Q439.2969,328.582 439.0625,328.332 Q438.8281,328.0664 438.8281,327.457 L438.8281,326.5664 L434.8594,326.5664 L434.8594,329.0195 L436.3438,329.0195 Q436.3438,328.3633 436.4688,328.1758 Q436.7344,327.7695 437.2031,327.7695 Q437.5781,327.7695 437.8125,328.0352 Q438.0469,328.2852 438.0469,328.8945 L438.0469,330.8633 Q438.0469,331.4102 437.9219,331.5977 Q437.6563,331.9883 437.2031,331.9883 Q436.7344,331.9883 436.4688,331.582 Q436.3438,331.3945 436.3438,330.7227 L434.8594,330.7227 Z " fill="#000000"/><text fill="#000000" font-family="sans-serif" font-size="12" font-style="italic" lengthAdjust="spacing" textLength="43" x="486.5" y="325.584">&#171;entity&#187;</text><text fill="#000000" font-family="sans-serif" font-size="14" lengthAdjust="spacing" textLength="116" x="450" y="343.7031">BoardElementLine</text><line style="stroke:#181818;stroke-width:0.5;" x1="422" x2="568" y1="352.2168" y2="352.2168"/></g><!--class BoardElementColumn--><g id="elem_BoardElementColumn"><rect codeLine="36" fill="#F1F1F1" height="52.582" id="BoardElementColumn" rx="2.5" ry="2.5" style="stroke:#181818;stroke-width:0.5;" width="169" x="604.5" y="307.6348"/><ellipse cx="619.5" cy="329.9258" fill="#ADD1B2" rx="11" ry="11" style="stroke:#181818;stroke-width:1.0;"/><path d="M618.3594,330.7227 L618.3594,333.2227 L622.6875,333.2227 L622.6875,332.3008 Q622.6875,331.6914 622.9219,331.4258 Q623.1719,331.1602 623.5469,331.1602 Q623.9219,331.1602 624.1563,331.4258 Q624.3906,331.6914 624.3906,332.3008 L624.3906,334.9258 L616.3906,334.9258 Q615.7656,334.9258 615.5,334.6914 Q615.25,334.457 615.25,334.0664 Q615.25,333.6914 615.5156,333.457 Q615.7813,333.2227 616.3906,333.2227 L616.6563,333.2227 L616.6563,326.5664 L616.3906,326.5664 Q615.7656,326.5664 615.5,326.332 Q615.25,326.0977 615.25,325.707 Q615.25,325.332 615.5,325.0977 Q615.7656,324.8633 616.3906,324.8633 L624.0156,324.8633 L624.0156,327.457 Q624.0156,328.0664 623.7813,328.332 Q623.5625,328.582 623.1719,328.582 Q622.7969,328.582 622.5625,328.332 Q622.3281,328.0664 622.3281,327.457 L622.3281,326.5664 L618.3594,326.5664 L618.3594,329.0195 L619.8438,329.0195 Q619.8438,328.3633 619.9688,328.1758 Q620.2344,327.7695 620.7031,327.7695 Q621.0781,327.7695 621.3125,328.0352 Q621.5469,328.2852 621.5469,328.8945 L621.5469,330.8633 Q621.5469,331.4102 621.4219,331.5977 Q621.1563,331.9883 620.7031,331.9883 Q620.2344,331.9883 619.9688,331.582 Q619.8438,331.3945 619.8438,330.7227 L618.3594,330.7227 Z " fill="#000000"/><text fill="#000000" font-family="sans-serif" font-size="12" font-style="italic" lengthAdjust="spacing" textLength="43" x="680.5" y="325.584">&#171;entity&#187;</text><text fill="#000000" font-family="sans-serif" font-size="14" lengthAdjust="spacing" textLength="137" x="633.5" y="343.7031">BoardElementColumn</text><line style="stroke:#181818;stroke-width:0.5;" x1="605.5" x2="772.5" y1="352.2168" y2="352.2168"/></g><!--class BoardMembers--><g id="elem_BoardMembers"><rect codeLine="41" fill="#F1F1F1" height="87.1641" id="BoardMembers" rx="2.5" ry="2.5" style="stroke:#181818;stroke-width:0.5;" width="128" x="858" y="290.6348"/><ellipse cx="873" cy="320.9063" fill="#ADD1B2" rx="11" ry="11" style="stroke:#181818;stroke-width:1.0;"/><path d="M871.8594,321.7031 L871.8594,324.2031 L876.1875,324.2031 L876.1875,323.2813 Q876.1875,322.6719 876.4219,322.4063 Q876.6719,322.1406 877.0469,322.1406 Q877.4219,322.1406 877.6563,322.4063 Q877.8906,322.6719 877.8906,323.2813 L877.8906,325.9063 L869.8906,325.9063 Q869.2656,325.9063 869,325.6719 Q868.75,325.4375 868.75,325.0469 Q868.75,324.6719 869.0156,324.4375 Q869.2813,324.2031 869.8906,324.2031 L870.1563,324.2031 L870.1563,317.5469 L869.8906,317.5469 Q869.2656,317.5469 869,317.3125 Q868.75,317.0781 868.75,316.6875 Q868.75,316.3125 869,316.0781 Q869.2656,315.8438 869.8906,315.8438 L877.5156,315.8438 L877.5156,318.4375 Q877.5156,319.0469 877.2813,319.3125 Q877.0625,319.5625 876.6719,319.5625 Q876.2969,319.5625 876.0625,319.3125 Q875.8281,319.0469 875.8281,318.4375 L875.8281,317.5469 L871.8594,317.5469 L871.8594,320 L873.3438,320 Q873.3438,319.3438 873.4688,319.1563 Q873.7344,318.75 874.2031,318.75 Q874.5781,318.75 874.8125,319.0156 Q875.0469,319.2656 875.0469,319.875 L875.0469,321.8438 Q875.0469,322.3906 874.9219,322.5781 Q874.6563,322.9688 874.2031,322.9688 Q873.7344,322.9688 873.4688,322.5625 Q873.3438,322.375 873.3438,321.7031 L871.8594,321.7031 Z " fill="#000000"/><text fill="#000000" font-family="sans-serif" font-size="12" font-style="italic" lengthAdjust="spacing" textLength="43" x="913.5" y="308.584">&#171;entity&#187;</text><text fill="#000000" font-family="sans-serif" font-size="12" font-style="italic" lengthAdjust="spacing" textLength="35" x="917.5" y="324.5449">&#171;root&#187;</text><text fill="#000000" font-family="sans-serif" font-size="14" lengthAdjust="spacing" textLength="96" x="887" y="342.6641">BoardMembers</text><line style="stroke:#181818;stroke-width:0.5;" x1="859" x2="985" y1="351.1777" y2="351.1777"/><text fill="#000000" font-family="sans-serif" font-size="14" lengthAdjust="spacing" textLength="68" x="864" y="370.2852">joinedDate</text></g><!--class AccessPermission--><g id="elem_AccessPermission"><rect codeLine="45" fill="#F1F1F1" height="52.582" id="AccessPermission" rx="2.5" ry="2.5" style="stroke:#181818;stroke-width:0.5;" width="146" x="849" y="489.1348"/><ellipse cx="864" cy="511.4258" fill="#FF8B40" rx="11" ry="11" style="stroke:#181818;stroke-width:1.0;"/><path d="M864.5938,514.6914 L867.0625,508.8164 L866.6719,508.8164 Q866.0625,508.8164 865.7969,508.582 Q865.5313,508.3477 865.5313,507.957 Q865.5313,507.582 865.7969,507.3477 Q866.0625,507.1133 866.6719,507.1133 L868.9531,507.1133 Q869.5625,507.1133 869.8281,507.3477 Q870.0938,507.582 870.0938,507.957 Q870.0938,508.4258 869.6875,508.6914 Q869.5,508.8164 868.9063,508.8164 L865.4219,517.1758 L863.7813,517.1758 L860.2969,508.8164 Q859.7031,508.8164 859.5156,508.6914 Q859.1094,508.4258 859.1094,507.957 Q859.1094,507.582 859.375,507.3477 Q859.6406,507.1133 860.25,507.1133 L862.5469,507.1133 Q863.1563,507.1133 863.4063,507.3477 Q863.6719,507.582 863.6719,507.957 Q863.6719,508.3477 863.4063,508.582 Q863.1563,508.8164 862.5469,508.8164 L862.1406,508.8164 L864.5938,514.6914 Z " fill="#000000"/><text fill="#000000" font-family="sans-serif" font-size="12" font-style="italic" lengthAdjust="spacing" textLength="81" x="894.5" y="507.084">&#171;value object&#187;</text><text fill="#000000" font-family="sans-serif" font-size="14" lengthAdjust="spacing" textLength="114" x="878" y="525.2031">AccessPermission</text><line style="stroke:#181818;stroke-width:0.5;" x1="850" x2="994" y1="533.7168" y2="533.7168"/></g><!--link Board to BoardDimensions--><g id="link_Board_BoardDimensions"><path codeLine="48" d="M541.17,156.0248 C504.9,176.3448 447.91,210.1848 403,245.6348 C387.92,257.5348 372.61,271.6948 359.04,285.1148 " fill="none" id="Board-to-BoardDimensions" style="stroke:#181818;stroke-width:1.0;"/><polygon fill="#181818" points="355.26,288.8748,364.4595,285.3578,358.8027,285.3464,358.8141,279.6895,355.26,288.8748" style="stroke:#181818;stroke-width:1.0;"/></g><!--link Board to BoardCreationDateTime--><g id="link_Board_BoardCreationDateTime"><path codeLine="49" d="M541.34,143.1048 C475.8,155.9648 333.03,188.5448 225,245.6348 C199.92,258.8848 174.93,278.1448 155.13,295.2248 " fill="none" id="Board-to-BoardCreationDateTime" style="stroke:#181818;stroke-width:1.0;"/><polygon fill="#181818" points="151.24,298.6148,160.6535,295.7188,155.01,295.3303,155.3984,289.6868,151.24,298.6148" style="stroke:#181818;stroke-width:1.0;"/></g><!--link Board to BoardElementLine--><g id="link_Board_BoardElementLine"><path codeLine="50" d="M555.24,188.7748 C540.06,225.1448 520.34,272.4248 507.67,302.7748 " fill="none" id="Board-to-BoardElementLine" style="stroke:#181818;stroke-width:1.0;"/><polygon fill="#181818" points="505.7,307.4948,512.8434,300.7145,507.616,302.8764,505.4541,297.649,505.7,307.4948" style="stroke:#181818;stroke-width:1.0;"/><polygon fill="#000000" points="544.0745,232.8947,550.27,225.6789,544.8455,223.4154,544.0745,232.8947" style="stroke:#000000;stroke-width:1.0;"/><text fill="#000000" font-family="sans-serif" font-size="13" lengthAdjust="spacing" textLength="21" x="555" y="233.6631">has</text><text fill="#000000" font-family="sans-serif" font-size="13" lengthAdjust="spacing" textLength="7" x="545.1614" y="210.3463">1</text><text fill="#000000" font-family="sans-serif" font-size="13" lengthAdjust="spacing" textLength="20" x="485.8619" y="296.4789">1..*</text></g><!--link Board to BoardElementColumn--><g id="link_Board_BoardElementColumn"><path codeLine="51" d="M606.72,188.7748 C627.54,225.2948 654.62,272.8148 671.91,303.1548 " fill="none" id="Board-to-BoardElementColumn" style="stroke:#181818;stroke-width:1.0;"/><polygon fill="#181818" points="674.39,307.4948,673.3908,297.6967,671.9062,303.1553,666.4477,301.6708,674.39,307.4948" style="stroke:#181818;stroke-width:1.0;"/><polygon fill="#000000" points="640.4758,232.6243,638.5504,223.3107,633.4437,226.2212,640.4758,232.6243" style="stroke:#000000;stroke-width:1.0;"/><text fill="#000000" font-family="sans-serif" font-size="13" lengthAdjust="spacing" textLength="21" x="647" y="233.6631">has</text><text fill="#000000" font-family="sans-serif" font-size="13" lengthAdjust="spacing" textLength="7" x="602.9156" y="210.3463">1</text><text fill="#000000" font-family="sans-serif" font-size="13" lengthAdjust="spacing" textLength="20" x="648.6989" y="296.4789">1..*</text></g><!--link Board to BoardMembers--><g id="link_Board_BoardMembers"><path codeLine="52" d="M612.7,153.3848 C655.55,173.8248 729.22,210.0848 790,245.6348 C812.14,258.5848 835.67,273.7148 856.64,287.7148 " fill="none" id="Board-to-BoardMembers" style="stroke:#181818;stroke-width:1.0;"/><polygon fill="#181818" points="860.8,290.4948,855.5501,282.1618,856.6463,287.7114,851.0967,288.8076,860.8,290.4948" style="stroke:#181818;stroke-width:1.0;"/><polygon fill="#000000" points="783.3798,230.6921,776.8743,223.7546,774.039,228.9035,783.3798,230.6921" style="stroke:#000000;stroke-width:1.0;"/><text fill="#000000" font-family="sans-serif" font-size="13" lengthAdjust="spacing" textLength="21" x="788" y="233.6631">has</text><text fill="#000000" font-family="sans-serif" font-size="13" lengthAdjust="spacing" textLength="7" x="620.4175" y="172.6309">1</text><text fill="#000000" font-family="sans-serif" font-size="13" lengthAdjust="spacing" textLength="20" x="829.8975" y="279.5489">1..*</text></g><!--link Board to SystemUser--><g id="link_Board_SystemUser"><path codeLine="53" d="M612.58,141.4248 C705.08,154.5048 950.15,193.3748 1011,245.6348 C1081.13,305.8648 1108.7,416.9148 1118.75,475.7348 " fill="none" id="Board-to-SystemUser" style="stroke:#181818;stroke-width:1.0;"/><polygon fill="#181818" points="1119.61,480.9148,1122.0894,471.3831,1118.795,475.9816,1114.1964,472.6872,1119.61,480.9148" style="stroke:#181818;stroke-width:1.0;"/><polygon fill="#000000" points="1102.1721,337.0358,1096.2444,329.5986,1093.005,334.5033,1102.1721,337.0358" style="stroke:#000000;stroke-width:1.0;"/><text fill="#000000" font-family="sans-serif" font-size="13" lengthAdjust="spacing" textLength="61" x="1107" y="339.6631">created by</text><text fill="#000000" font-family="sans-serif" font-size="13" lengthAdjust="spacing" textLength="20" x="620.4141" y="138.0308">0..*</text><text fill="#000000" font-family="sans-serif" font-size="13" lengthAdjust="spacing" textLength="7" x="1111.106" y="469.7756">1</text></g><!--link SystemUser to Username--><g id="link_SystemUser_Username"><path codeLine="55" d="M1124.27,550.2448 C1124.42,568.4248 1124.6,590.7248 1124.75,608.5048 " fill="none" id="SystemUser-to-Username" style="stroke:#181818;stroke-width:1.0;"/><polygon fill="#181818" points="1124.79,613.8648,1128.7127,604.8308,1124.7471,608.8649,1120.713,604.8994,1124.79,613.8648" style="stroke:#181818;stroke-width:1.0;"/></g><!--link BoardElementLine to BoardElement--><g id="link_BoardElementLine_BoardElement"><path codeLine="57" d="M508.9,360.8548 C523.11,387.1448 545.59,428.7448 563.59,462.0548 " fill="none" id="BoardElementLine-to-BoardElement" style="stroke:#181818;stroke-width:1.0;"/><polygon fill="none" points="569.96,459.1148,573.31,480.0448,557.64,465.7748,569.96,459.1148" style="stroke:#181818;stroke-width:1.0;"/></g><!--link BoardElementColumn to BoardElement--><g id="link_BoardElementColumn_BoardElement"><path codeLine="58" d="M675.1,360.8548 C660.89,387.1448 638.41,428.7448 620.41,462.0548 " fill="none" id="BoardElementColumn-to-BoardElement" style="stroke:#181818;stroke-width:1.0;"/><polygon fill="none" points="626.36,465.7748,610.69,480.0448,614.04,459.1148,626.36,465.7748" style="stroke:#181818;stroke-width:1.0;"/></g><!--link BoardMembers to AccessPermission--><g id="link_BoardMembers_AccessPermission"><path codeLine="60" d="M922,377.6748 C922,410.2748 922,454.4848 922,483.7548 " fill="none" id="BoardMembers-to-AccessPermission" style="stroke:#181818;stroke-width:1.0;"/><polygon fill="#181818" points="922,489.0348,926,480.0348,922,484.0348,918,480.0348,922,489.0348" style="stroke:#181818;stroke-width:1.0;"/></g><!--link BoardMembers to SystemUser--><g id="link_BoardMembers_SystemUser"><path codeLine="61" d="M969.87,377.6748 C1004.06,408.0548 1049.62,448.5348 1082.32,477.5948 " fill="none" id="BoardMembers-to-SystemUser" style="stroke:#181818;stroke-width:1.0;"/><polygon fill="#181818" points="1086.24,481.0848,1082.1899,472.1072,1082.5101,477.755,1076.8623,478.0751,1086.24,481.0848" style="stroke:#181818;stroke-width:1.0;"/><polygon fill="#000000" points="1031.7376,422.1014,1026.9283,413.8965,1023.0241,418.2903,1031.7376,422.1014" style="stroke:#000000;stroke-width:1.0;"/><text fill="#000000" font-family="sans-serif" font-size="13" lengthAdjust="spacing" textLength="21" x="1037" y="424.1631">has</text><text fill="#000000" font-family="sans-serif" font-size="13" lengthAdjust="spacing" textLength="20" x="955.6688" y="399.6814">0..*</text><text fill="#000000" font-family="sans-serif" font-size="13" lengthAdjust="spacing" textLength="20" x="1057.1358" y="469.978">1..*</text></g><!--SRC=[ZPDDJ-Cm48Rl_XMZSE1350Kj1uIYID22j198AtNXxjYZrX3RbUsoAX__VMqd1IUaX9oScISpxxpZEBq2fw7Ipca9N1XaJcX5Y1EkHfXfIOM2QKsjHGi7i-aXJE1-3h_o_8oGfU084jrISqliar0hQgW45l1BvuoerWv_CwtcuWKX9sH_lh4EvRr5GrQKFT45GbOKTB4mkA0Eon8-YGnU2VW7bHUpIH9G54tCuqLXj7R-yFeUuTWR0gMeH9y-U3Y6lPkRywkp_12UQRr6qDMZ7xCioRjNTAMfuRl4n6HFHumDIuXOUA9x7s_KiALuHXu3lkUdpbXhQf06qsU-vryn9ZhfmjiFTjIT-PIolh3zSKMrbbDThwMoQUXMABHfayQqwnfz0nSZjBBEKEOWpVYss_WETzfwgRFjjw5dOl8kh56RWXyxlKDPeR7VhhPbXZRSfaOM_QYzJXusztK9buoXjN_GI6736iOlOtEr9bp_KvEolyIXRF_gj4nsci74CzdfoSbHzjNN2rXI2-KutTexpc_Twf5v91euI__W2s11EdAeDXudIIhGs_-tjIJLtip_LdPqaW7Hmo3foDsQsLzLb-gC4O-TIPg9_mC0]--></g></svg>