<?xml version="1.0" encoding="us-ascii" standalone="no"?><svg xmlns="http://www.w3.org/2000/svg" xmlns:xlink="http://www.w3.org/1999/xlink" contentStyleType="text/css" height="1039px" preserveAspectRatio="none" style="width:1369px;height:1039px;background:#FFFFFF;" version="1.1" viewBox="0 0 1369 1039" width="1369px" zoomAndPan="magnify"><defs/><g><text fill="#000000" font-family="sans-serif" font-size="14" font-weight="bold" lengthAdjust="spacing" textLength="233" x="569.5" y="30.1074">Sequence Diagram (SD) - US 3004</text><rect fill="#FFFFFF" height="783.9844" style="stroke:#181818;stroke-width:1.0;" width="10" x="46.5" y="137.8633"/><rect fill="#FFFFFF" height="760.6934" style="stroke:#181818;stroke-width:1.0;" width="10" x="403.5" y="161.1543"/><rect fill="#FFFFFF" height="707.1113" style="stroke:#181818;stroke-width:1.0;" width="10" x="770.5" y="223.7363"/><rect fill="#FFFFFF" height="31.291" style="stroke:#181818;stroke-width:1.0;" width="10" x="770.5" y="223.7363"/><rect fill="#FFFFFF" height="31.291" style="stroke:#181818;stroke-width:1.0;" width="10" x="770.5" y="424.4824"/><rect fill="#FFFFFF" height="93.873" style="stroke:#181818;stroke-width:1.0;" width="10" x="770.5" y="796.6836"/><rect fill="#FFFFFF" height="31.291" style="stroke:#181818;stroke-width:1.0;" width="10" x="1012.5" y="255.0273"/><rect fill="#FFFFFF" height="31.291" style="stroke:#181818;stroke-width:1.0;" width="10" x="1012.5" y="455.7734"/><rect fill="#FFFFFF" height="31.291" style="stroke:#181818;stroke-width:1.0;" width="10" x="1012.5" y="859.2656"/><rect fill="none" height="81.873" style="stroke:#000000;stroke-width:1.5;" width="463" x="10" y="577.6465"/><line style="stroke:#181818;stroke-width:0.5;stroke-dasharray:5.0,5.0;" x1="51" x2="51" y1="127.8633" y2="939.8477"/><line style="stroke:#181818;stroke-width:0.5;stroke-dasharray:5.0,5.0;" x1="408" x2="408" y1="127.8633" y2="939.8477"/><line style="stroke:#181818;stroke-width:0.5;stroke-dasharray:5.0,5.0;" x1="770.5" x2="770.5" y1="127.8633" y2="939.8477"/><line style="stroke:#181818;stroke-width:0.5;stroke-dasharray:5.0,5.0;" x1="1017" x2="1017" y1="127.8633" y2="939.8477"/><line style="stroke:#181818;stroke-width:0.5;stroke-dasharray:5.0,5.0;" x1="1189" x2="1189" y1="127.8633" y2="939.8477"/><line style="stroke:#181818;stroke-width:0.5;stroke-dasharray:5.0,5.0;" x1="1312" x2="1312" y1="127.8633" y2="939.8477"/><text fill="#000000" font-family="sans-serif" font-size="14" lengthAdjust="spacing" textLength="57" x="20" y="124.3496">Utilizador</text><ellipse cx="51.5" cy="57.7422" fill="#E3E3E3" rx="8" ry="8" style="stroke:#181818;stroke-width:0.5;"/><path d="M51.5,65.7422 L51.5,92.7422 M38.5,73.7422 L64.5,73.7422 M51.5,92.7422 L38.5,107.7422 M51.5,92.7422 L64.5,107.7422 " fill="none" style="stroke:#181818;stroke-width:0.5;"/><text fill="#000000" font-family="sans-serif" font-size="14" lengthAdjust="spacing" textLength="57" x="20" y="953.9551">Utilizador</text><ellipse cx="51.5" cy="965.9688" fill="#E3E3E3" rx="8" ry="8" style="stroke:#181818;stroke-width:0.5;"/><path d="M51.5,973.9688 L51.5,1000.9688 M38.5,981.9688 L64.5,981.9688 M51.5,1000.9688 L38.5,1015.9688 M51.5,1000.9688 L64.5,1015.9688 " fill="none" style="stroke:#181818;stroke-width:0.5;"/><rect fill="#E3E3E3" height="51.2422" rx="2.5" ry="2.5" style="stroke:#181818;stroke-width:0.5;" width="109" x="354" y="75.6211"/><text fill="#000000" font-family="sans-serif" font-size="14" font-style="italic" lengthAdjust="spacing" textLength="95" x="361" y="97.7285">&#171;presentation&#187;</text><text fill="#000000" font-family="sans-serif" font-size="14" lengthAdjust="spacing" textLength="88" x="364.5" y="116.3496">ShareBoardUI</text><rect fill="#E3E3E3" height="51.2422" rx="2.5" ry="2.5" style="stroke:#181818;stroke-width:0.5;" width="109" x="354" y="938.8477"/><text fill="#000000" font-family="sans-serif" font-size="14" font-style="italic" lengthAdjust="spacing" textLength="95" x="361" y="960.9551">&#171;presentation&#187;</text><text fill="#000000" font-family="sans-serif" font-size="14" lengthAdjust="spacing" textLength="88" x="364.5" y="979.5762">ShareBoardUI</text><text fill="#000000" font-family="sans-serif" font-size="14" font-style="italic" lengthAdjust="spacing" textLength="84" x="725.5" y="105.7285">&#171;application&#187;</text><text fill="#000000" font-family="sans-serif" font-size="14" lengthAdjust="spacing" textLength="138" x="698.5" y="124.3496">ShareBoardController</text><ellipse cx="770.5" cy="74.6211" fill="#E3E3E3" rx="12" ry="12" style="stroke:#181818;stroke-width:0.5;"/><polygon fill="#181818" points="766.5,62.6211,772.5,57.6211,770.5,62.6211,772.5,67.6211,766.5,62.6211" style="stroke:#181818;stroke-width:1.0;"/><text fill="#000000" font-family="sans-serif" font-size="14" font-style="italic" lengthAdjust="spacing" textLength="84" x="725.5" y="953.9551">&#171;application&#187;</text><text fill="#000000" font-family="sans-serif" font-size="14" lengthAdjust="spacing" textLength="138" x="698.5" y="972.5762">ShareBoardController</text><ellipse cx="770.5" cy="992.0898" fill="#E3E3E3" rx="12" ry="12" style="stroke:#181818;stroke-width:0.5;"/><polygon fill="#181818" points="766.5,980.0898,772.5,975.0898,770.5,980.0898,772.5,985.0898,766.5,980.0898" style="stroke:#181818;stroke-width:1.0;"/><rect fill="#E3E3E3" height="51.2422" rx="2.5" ry="2.5" style="stroke:#181818;stroke-width:0.5;" width="209" x="913" y="75.6211"/><text fill="#000000" font-family="sans-serif" font-size="14" font-style="italic" lengthAdjust="spacing" textLength="87" x="974" y="97.7285">&#171;csvprotocol&#187;</text><text fill="#000000" font-family="sans-serif" font-size="14" lengthAdjust="spacing" textLength="195" x="920" y="116.3496">CsvSharedBoardProtocolProxy</text><rect fill="#E3E3E3" height="51.2422" rx="2.5" ry="2.5" style="stroke:#181818;stroke-width:0.5;" width="209" x="913" y="938.8477"/><text fill="#000000" font-family="sans-serif" font-size="14" font-style="italic" lengthAdjust="spacing" textLength="87" x="974" y="960.9551">&#171;csvprotocol&#187;</text><text fill="#000000" font-family="sans-serif" font-size="14" lengthAdjust="spacing" textLength="195" x="920" y="979.5762">CsvSharedBoardProtocolProxy</text><rect fill="#E3E3E3" height="51.2422" rx="2.5" ry="2.5" style="stroke:#181818;stroke-width:0.5;" width="114" x="1132" y="75.6211"/><text fill="#000000" font-family="sans-serif" font-size="14" font-style="italic" lengthAdjust="spacing" textLength="62" x="1158" y="97.7285">&#171;domain&#187;</text><text fill="#000000" font-family="sans-serif" font-size="14" lengthAdjust="spacing" textLength="100" x="1139" y="116.3496">theBoard:Board</text><rect fill="#E3E3E3" height="51.2422" rx="2.5" ry="2.5" style="stroke:#181818;stroke-width:0.5;" width="114" x="1132" y="938.8477"/><text fill="#000000" font-family="sans-serif" font-size="14" font-style="italic" lengthAdjust="spacing" textLength="62" x="1158" y="960.9551">&#171;domain&#187;</text><text fill="#000000" font-family="sans-serif" font-size="14" lengthAdjust="spacing" textLength="100" x="1139" y="979.5762">theBoard:Board</text><text fill="#000000" font-family="sans-serif" font-size="14" font-style="italic" lengthAdjust="spacing" textLength="79" x="1269.5" y="105.7285">&#171;repository&#187;</text><text fill="#000000" font-family="sans-serif" font-size="14" lengthAdjust="spacing" textLength="106" x="1256" y="124.3496">BoardRepository</text><path d="M1294,54.6211 C1294,44.6211 1312,44.6211 1312,44.6211 C1312,44.6211 1330,44.6211 1330,54.6211 L1330,80.6211 C1330,90.6211 1312,90.6211 1312,90.6211 C1312,90.6211 1294,90.6211 1294,80.6211 L1294,54.6211 " fill="#E3E3E3" style="stroke:#181818;stroke-width:1.5;"/><path d="M1294,54.6211 C1294,64.6211 1312,64.6211 1312,64.6211 C1312,64.6211 1330,64.6211 1330,54.6211 " fill="none" style="stroke:#181818;stroke-width:1.5;"/><text fill="#000000" font-family="sans-serif" font-size="14" font-style="italic" lengthAdjust="spacing" textLength="79" x="1269.5" y="953.9551">&#171;repository&#187;</text><text fill="#000000" font-family="sans-serif" font-size="14" lengthAdjust="spacing" textLength="106" x="1256" y="972.5762">BoardRepository</text><path d="M1294,986.0898 C1294,976.0898 1312,976.0898 1312,976.0898 C1312,976.0898 1330,976.0898 1330,986.0898 L1330,1012.0898 C1330,1022.0898 1312,1022.0898 1312,1022.0898 C1312,1022.0898 1294,1022.0898 1294,1012.0898 L1294,986.0898 " fill="#E3E3E3" style="stroke:#181818;stroke-width:1.5;"/><path d="M1294,986.0898 C1294,996.0898 1312,996.0898 1312,996.0898 C1312,996.0898 1330,996.0898 1330,986.0898 " fill="none" style="stroke:#181818;stroke-width:1.5;"/><rect fill="#FFFFFF" height="783.9844" style="stroke:#181818;stroke-width:1.0;" width="10" x="46.5" y="137.8633"/><rect fill="#FFFFFF" height="760.6934" style="stroke:#181818;stroke-width:1.0;" width="10" x="403.5" y="161.1543"/><rect fill="#FFFFFF" height="707.1113" style="stroke:#181818;stroke-width:1.0;" width="10" x="770.5" y="223.7363"/><rect fill="#FFFFFF" height="31.291" style="stroke:#181818;stroke-width:1.0;" width="10" x="770.5" y="223.7363"/><rect fill="#FFFFFF" height="31.291" style="stroke:#181818;stroke-width:1.0;" width="10" x="770.5" y="424.4824"/><rect fill="#FFFFFF" height="93.873" style="stroke:#181818;stroke-width:1.0;" width="10" x="770.5" y="796.6836"/><rect fill="#FFFFFF" height="31.291" style="stroke:#181818;stroke-width:1.0;" width="10" x="1012.5" y="255.0273"/><rect fill="#FFFFFF" height="31.291" style="stroke:#181818;stroke-width:1.0;" width="10" x="1012.5" y="455.7734"/><rect fill="#FFFFFF" height="31.291" style="stroke:#181818;stroke-width:1.0;" width="10" x="1012.5" y="859.2656"/><polygon fill="#181818" points="391.5,157.1543,401.5,161.1543,391.5,165.1543,395.5,161.1543" style="stroke:#181818;stroke-width:1.0;"/><line style="stroke:#181818;stroke-width:1.0;" x1="56.5" x2="397.5" y1="161.1543" y2="161.1543"/><text fill="#000000" font-family="sans-serif" font-size="13" font-weight="bold" lengthAdjust="spacing" textLength="7" x="63.5" y="155.8916">1</text><text fill="#000000" font-family="sans-serif" font-size="13" lengthAdjust="spacing" textLength="174" x="74.5" y="155.8916">Pede para partilhar uma board</text><polygon fill="#181818" points="758.5,188.4453,768.5,192.4453,758.5,196.4453,762.5,192.4453" style="stroke:#181818;stroke-width:1.0;"/><line style="stroke:#181818;stroke-width:1.0;" x1="413.5" x2="764.5" y1="192.4453" y2="192.4453"/><text fill="#000000" font-family="sans-serif" font-size="13" font-weight="bold" lengthAdjust="spacing" textLength="7" x="420.5" y="187.1826">2</text><text fill="#000000" font-family="sans-serif" font-size="13" lengthAdjust="spacing" textLength="36" x="431.5" y="187.1826">create</text><polygon fill="#181818" points="758.5,219.7363,768.5,223.7363,758.5,227.7363,762.5,223.7363" style="stroke:#181818;stroke-width:1.0;"/><line style="stroke:#181818;stroke-width:1.0;" x1="413.5" x2="764.5" y1="223.7363" y2="223.7363"/><text fill="#000000" font-family="sans-serif" font-size="13" font-weight="bold" lengthAdjust="spacing" textLength="7" x="420.5" y="218.4736">3</text><text fill="#000000" font-family="sans-serif" font-size="13" lengthAdjust="spacing" textLength="121" x="431.5" y="218.4736">listAllBoardsOwned()</text><polygon fill="#181818" points="1000.5,251.0273,1010.5,255.0273,1000.5,259.0273,1004.5,255.0273" style="stroke:#181818;stroke-width:1.0;"/><line style="stroke:#181818;stroke-width:1.0;" x1="775.5" x2="1006.5" y1="255.0273" y2="255.0273"/><text fill="#000000" font-family="sans-serif" font-size="13" font-weight="bold" lengthAdjust="spacing" textLength="7" x="782.5" y="249.7646">4</text><text fill="#000000" font-family="sans-serif" font-size="13" lengthAdjust="spacing" textLength="122" x="793.5" y="249.7646">getAllBoardsOwned()</text><polygon fill="#181818" points="1300,282.3184,1310,286.3184,1300,290.3184,1304,286.3184" style="stroke:#181818;stroke-width:1.0;"/><line style="stroke:#181818;stroke-width:1.0;" x1="1017.5" x2="1306" y1="286.3184" y2="286.3184"/><text fill="#000000" font-family="sans-serif" font-size="13" font-weight="bold" lengthAdjust="spacing" textLength="7" x="1024.5" y="281.0557">5</text><text fill="#000000" font-family="sans-serif" font-size="13" lengthAdjust="spacing" textLength="149" x="1035.5" y="281.0557">findAllBoardsOwned(user)</text><line style="stroke:#181818;stroke-width:1.0;stroke-dasharray:2.0,2.0;" x1="413.5" x2="455.5" y1="317.6094" y2="317.6094"/><line style="stroke:#181818;stroke-width:1.0;stroke-dasharray:2.0,2.0;" x1="455.5" x2="455.5" y1="317.6094" y2="330.6094"/><line style="stroke:#181818;stroke-width:1.0;stroke-dasharray:2.0,2.0;" x1="414.5" x2="455.5" y1="330.6094" y2="330.6094"/><polygon fill="#181818" points="424.5,326.6094,414.5,330.6094,424.5,334.6094,420.5,330.6094" style="stroke:#181818;stroke-width:1.0;"/><text fill="#000000" font-family="sans-serif" font-size="13" font-weight="bold" lengthAdjust="spacing" textLength="7" x="420.5" y="312.3467">6</text><text fill="#000000" font-family="sans-serif" font-size="13" lengthAdjust="spacing" textLength="327" x="431.5" y="312.3467">Mostra a lista de board ativas em que o utilizador &#233; dono</text><polygon fill="#181818" points="67.5,357.9004,57.5,361.9004,67.5,365.9004,63.5,361.9004" style="stroke:#181818;stroke-width:1.0;"/><line style="stroke:#181818;stroke-width:1.0;stroke-dasharray:2.0,2.0;" x1="61.5" x2="402.5" y1="361.9004" y2="361.9004"/><text fill="#000000" font-family="sans-serif" font-size="13" font-weight="bold" lengthAdjust="spacing" textLength="7" x="73.5" y="356.6377">7</text><text fill="#000000" font-family="sans-serif" font-size="13" lengthAdjust="spacing" textLength="220" x="84.5" y="356.6377">Pede para escolher a board a partilhar</text><polygon fill="#181818" points="391.5,389.1914,401.5,393.1914,391.5,397.1914,395.5,393.1914" style="stroke:#181818;stroke-width:1.0;"/><line style="stroke:#181818;stroke-width:1.0;" x1="56.5" x2="397.5" y1="393.1914" y2="393.1914"/><text fill="#000000" font-family="sans-serif" font-size="13" font-weight="bold" lengthAdjust="spacing" textLength="7" x="63.5" y="387.9287">8</text><text fill="#000000" font-family="sans-serif" font-size="13" lengthAdjust="spacing" textLength="155" x="74.5" y="387.9287">Escolhe a board a partilhar</text><polygon fill="#181818" points="758.5,420.4824,768.5,424.4824,758.5,428.4824,762.5,424.4824" style="stroke:#181818;stroke-width:1.0;"/><line style="stroke:#181818;stroke-width:1.0;" x1="413.5" x2="764.5" y1="424.4824" y2="424.4824"/><text fill="#000000" font-family="sans-serif" font-size="13" font-weight="bold" lengthAdjust="spacing" textLength="7" x="420.5" y="419.2197">9</text><text fill="#000000" font-family="sans-serif" font-size="13" lengthAdjust="spacing" textLength="225" x="431.5" y="419.2197">listAllUsersAvailableToShare(theBoard)</text><polygon fill="#181818" points="1000.5,451.7734,1010.5,455.7734,1000.5,459.7734,1004.5,455.7734" style="stroke:#181818;stroke-width:1.0;"/><line style="stroke:#181818;stroke-width:1.0;" x1="775.5" x2="1006.5" y1="455.7734" y2="455.7734"/><text fill="#000000" font-family="sans-serif" font-size="13" font-weight="bold" lengthAdjust="spacing" textLength="14" x="782.5" y="450.5107">10</text><text fill="#000000" font-family="sans-serif" font-size="13" lengthAdjust="spacing" textLength="195" x="800.5" y="450.5107">getAllUsersAvailableToShare(title)</text><polygon fill="#181818" points="1300,483.0645,1310,487.0645,1300,491.0645,1304,487.0645" style="stroke:#181818;stroke-width:1.0;"/><line style="stroke:#181818;stroke-width:1.0;" x1="1017.5" x2="1306" y1="487.0645" y2="487.0645"/><text fill="#000000" font-family="sans-serif" font-size="13" font-weight="bold" lengthAdjust="spacing" textLength="14" x="1024.5" y="481.8018">11</text><text fill="#000000" font-family="sans-serif" font-size="13" lengthAdjust="spacing" textLength="197" x="1042.5" y="481.8018">findAllUsersAvailableToShare(title)</text><line style="stroke:#181818;stroke-width:1.0;stroke-dasharray:2.0,2.0;" x1="413.5" x2="455.5" y1="518.3555" y2="518.3555"/><line style="stroke:#181818;stroke-width:1.0;stroke-dasharray:2.0,2.0;" x1="455.5" x2="455.5" y1="518.3555" y2="531.3555"/><line style="stroke:#181818;stroke-width:1.0;stroke-dasharray:2.0,2.0;" x1="414.5" x2="455.5" y1="531.3555" y2="531.3555"/><polygon fill="#181818" points="424.5,527.3555,414.5,531.3555,424.5,535.3555,420.5,531.3555" style="stroke:#181818;stroke-width:1.0;"/><text fill="#000000" font-family="sans-serif" font-size="13" font-weight="bold" lengthAdjust="spacing" textLength="14" x="420.5" y="513.0928">12</text><text fill="#000000" font-family="sans-serif" font-size="13" lengthAdjust="spacing" textLength="252" x="438.5" y="513.0928">Mostra os utilizadores disponiveis &#224; partilha</text><polygon fill="#181818" points="391.5,558.6465,401.5,562.6465,391.5,566.6465,395.5,562.6465" style="stroke:#181818;stroke-width:1.0;"/><line style="stroke:#181818;stroke-width:1.0;" x1="56.5" x2="397.5" y1="562.6465" y2="562.6465"/><text fill="#000000" font-family="sans-serif" font-size="13" font-weight="bold" lengthAdjust="spacing" textLength="14" x="63.5" y="557.3838">13</text><text fill="#000000" font-family="sans-serif" font-size="13" lengthAdjust="spacing" textLength="135" x="81.5" y="557.3838">Escolhe os utilizadores</text><path d="M10,577.6465 L83,577.6465 L83,586.9375 L73,596.9375 L10,596.9375 L10,577.6465 " fill="#EEEEEE" style="stroke:#000000;stroke-width:1.5;"/><rect fill="none" height="81.873" style="stroke:#000000;stroke-width:1.5;" width="463" x="10" y="577.6465"/><text fill="#000000" font-family="sans-serif" font-size="13" font-weight="bold" lengthAdjust="spacing" textLength="28" x="25" y="592.6748">loop</text><text fill="#000000" font-family="sans-serif" font-size="11" font-weight="bold" lengthAdjust="spacing" textLength="171" x="98" y="591.5166">[Para cada utilizador escolhido]</text><polygon fill="#181818" points="67.5,616.2285,57.5,620.2285,67.5,624.2285,63.5,620.2285" style="stroke:#181818;stroke-width:1.0;"/><line style="stroke:#181818;stroke-width:1.0;stroke-dasharray:2.0,2.0;" x1="61.5" x2="402.5" y1="620.2285" y2="620.2285"/><text fill="#000000" font-family="sans-serif" font-size="13" font-weight="bold" lengthAdjust="spacing" textLength="14" x="73.5" y="614.9658">14</text><text fill="#000000" font-family="sans-serif" font-size="13" lengthAdjust="spacing" textLength="305" x="91.5" y="614.9658">Pede para escolher a permiss&#227;o de escrita ou leitura</text><polygon fill="#181818" points="391.5,647.5195,401.5,651.5195,391.5,655.5195,395.5,651.5195" style="stroke:#181818;stroke-width:1.0;"/><line style="stroke:#181818;stroke-width:1.0;" x1="56.5" x2="397.5" y1="651.5195" y2="651.5195"/><text fill="#000000" font-family="sans-serif" font-size="13" font-weight="bold" lengthAdjust="spacing" textLength="14" x="63.5" y="646.2568">15</text><text fill="#000000" font-family="sans-serif" font-size="13" lengthAdjust="spacing" textLength="196" x="81.5" y="646.2568">Escolhe a permiss&#227;o do utilizador</text><line style="stroke:#181818;stroke-width:1.0;stroke-dasharray:2.0,2.0;" x1="413.5" x2="455.5" y1="689.8105" y2="689.8105"/><line style="stroke:#181818;stroke-width:1.0;stroke-dasharray:2.0,2.0;" x1="455.5" x2="455.5" y1="689.8105" y2="702.8105"/><line style="stroke:#181818;stroke-width:1.0;stroke-dasharray:2.0,2.0;" x1="414.5" x2="455.5" y1="702.8105" y2="702.8105"/><polygon fill="#181818" points="424.5,698.8105,414.5,702.8105,424.5,706.8105,420.5,702.8105" style="stroke:#181818;stroke-width:1.0;"/><text fill="#000000" font-family="sans-serif" font-size="13" font-weight="bold" lengthAdjust="spacing" textLength="14" x="420.5" y="684.5479">16</text><text fill="#000000" font-family="sans-serif" font-size="13" lengthAdjust="spacing" textLength="182" x="438.5" y="684.5479">Mostra os utilizador convidados</text><polygon fill="#181818" points="67.5,730.1016,57.5,734.1016,67.5,738.1016,63.5,734.1016" style="stroke:#181818;stroke-width:1.0;"/><line style="stroke:#181818;stroke-width:1.0;stroke-dasharray:2.0,2.0;" x1="61.5" x2="402.5" y1="734.1016" y2="734.1016"/><text fill="#000000" font-family="sans-serif" font-size="13" font-weight="bold" lengthAdjust="spacing" textLength="14" x="73.5" y="728.8389">17</text><text fill="#000000" font-family="sans-serif" font-size="13" lengthAdjust="spacing" textLength="179" x="91.5" y="728.8389">Pede confirma&#231;&#227;o da opera&#231;&#227;o</text><polygon fill="#181818" points="391.5,761.3926,401.5,765.3926,391.5,769.3926,395.5,765.3926" style="stroke:#181818;stroke-width:1.0;"/><line style="stroke:#181818;stroke-width:1.0;" x1="56.5" x2="397.5" y1="765.3926" y2="765.3926"/><text fill="#000000" font-family="sans-serif" font-size="13" font-weight="bold" lengthAdjust="spacing" textLength="14" x="63.5" y="760.1299">18</text><text fill="#000000" font-family="sans-serif" font-size="13" lengthAdjust="spacing" textLength="119" x="81.5" y="760.1299">Confirma a opera&#231;&#227;o</text><polygon fill="#181818" points="758.5,792.6836,768.5,796.6836,758.5,800.6836,762.5,796.6836" style="stroke:#181818;stroke-width:1.0;"/><line style="stroke:#181818;stroke-width:1.0;" x1="413.5" x2="764.5" y1="796.6836" y2="796.6836"/><text fill="#000000" font-family="sans-serif" font-size="13" font-weight="bold" lengthAdjust="spacing" textLength="14" x="420.5" y="791.4209">19</text><text fill="#000000" font-family="sans-serif" font-size="13" lengthAdjust="spacing" textLength="166" x="438.5" y="791.4209">shareBoard(theBoard, users)</text><polygon fill="#181818" points="1177,823.9746,1187,827.9746,1177,831.9746,1181,827.9746" style="stroke:#181818;stroke-width:1.0;"/><line style="stroke:#181818;stroke-width:1.0;" x1="780.5" x2="1183" y1="827.9746" y2="827.9746"/><text fill="#000000" font-family="sans-serif" font-size="13" font-weight="bold" lengthAdjust="spacing" textLength="14" x="787.5" y="822.7119">20</text><text fill="#000000" font-family="sans-serif" font-size="13" lengthAdjust="spacing" textLength="136" x="805.5" y="822.7119">addListMembers(users)</text><polygon fill="#181818" points="1000.5,855.2656,1010.5,859.2656,1000.5,863.2656,1004.5,859.2656" style="stroke:#181818;stroke-width:1.0;"/><line style="stroke:#181818;stroke-width:1.0;" x1="780.5" x2="1006.5" y1="859.2656" y2="859.2656"/><text fill="#000000" font-family="sans-serif" font-size="13" font-weight="bold" lengthAdjust="spacing" textLength="14" x="787.5" y="854.0029">21</text><text fill="#000000" font-family="sans-serif" font-size="13" lengthAdjust="spacing" textLength="120" x="805.5" y="854.0029">saveBoard(theBoard)</text><polygon fill="#181818" points="1300,886.5566,1310,890.5566,1300,894.5566,1304,890.5566" style="stroke:#181818;stroke-width:1.0;"/><line style="stroke:#181818;stroke-width:1.0;" x1="1017.5" x2="1306" y1="890.5566" y2="890.5566"/><text fill="#000000" font-family="sans-serif" font-size="13" font-weight="bold" lengthAdjust="spacing" textLength="14" x="1024.5" y="885.2939">22</text><text fill="#000000" font-family="sans-serif" font-size="13" lengthAdjust="spacing" textLength="86" x="1042.5" y="885.2939">save(theBoard)</text><polygon fill="#181818" points="62.5,917.8477,52.5,921.8477,62.5,925.8477,58.5,921.8477" style="stroke:#181818;stroke-width:1.0;"/><line style="stroke:#181818;stroke-width:1.0;stroke-dasharray:2.0,2.0;" x1="56.5" x2="407.5" y1="921.8477" y2="921.8477"/><text fill="#000000" font-family="sans-serif" font-size="13" font-weight="bold" lengthAdjust="spacing" textLength="14" x="68.5" y="916.585">23</text><text fill="#000000" font-family="sans-serif" font-size="13" lengthAdjust="spacing" textLength="181" x="86.5" y="916.585">Informa o sucesso da opera&#231;&#227;o</text><!--SRC=[fLHDQnin4BthLmmvET10e3qP4qYT7W89CN4CxN6y6jiYMcchqMwQ_ff23wM_mt-i8wq_rfkO1Bg7tPKqxutqvcduqRWA0vPGUkUBLV0bGGmrATwjL5WyufAcyTaI12eYkgNj1l0AjNyoRWaBj4nAHHCbT4hVQt85mPN1POeRJAzEuGncK_XuVlv9OHszgyiv1QMmY3x0B1fhVWfP06IuJ7DAKaHJc0fTXEaA0tts6FJiEaN8UpIg0Z6vYD5uTt6X2kzYyBOJEsvdB6NMySFzZQ2mggmfjg1kaZ4t6QipU19yz8MtyltndF2J-xkltuIWuARQhFK8JkAgJJpCxvE4od-2qhv4ap9gZ3X7fdRbdYhFHewRKtH6er7O3GILT38DHjg8e_87pYwI54EOa2P8DO6y7ol7WBf4cASSU-piMYc95rGMOmX589a_dBE6uwMrUNjyz-H83qxt52b8zOOWJmOBIQlI49RqaaJJ8Mutog1CqyA5foF541R6wHvRpHGE65kEV9IjAhUUeqY2-KW88b7M0p116AW4yIbugFVkM_y5BVTXIzEgtDMNMEg-IexQakqbxrVbInlxUkXhci_aK7pPeB4uj_JWinq7MrUTlb_t8qJfTlv_6TvBVhmYdZkQ4uCsN7bd6Z8CwryxbOxfsOChPRslO9BAKw36RZtRSXdjrRjAMb4e3VFwjqzkaOLWn3Y-1aicrW6FLxYBx3fAANBwRH50kbTZjFpowpkLzOK99Qx_v1G2bupjgB-fyIOK3eCE3CUx9hcprmT8TufVtFMjmzfEDWJK-aRiUakfWVDW0r9z8p8slGHT_xvbjOJk05-ugk_XlcRNRk6J11wuBeYvBra7dvfYPzZsrty0]--></g></svg>