<?xml version="1.0" encoding="us-ascii" standalone="no"?><svg xmlns="http://www.w3.org/2000/svg" xmlns:xlink="http://www.w3.org/1999/xlink" contentStyleType="text/css" height="635px" preserveAspectRatio="none" style="width:473px;height:635px;background:#FFFFFF;" version="1.1" viewBox="0 0 473 635" width="473px" zoomAndPan="magnify"><defs/><g><text fill="#000000" font-family="sans-serif" font-size="14" font-weight="bold" lengthAdjust="spacing" textLength="296" x="90.25" y="30.1074">System Sequence Diagram (SSD) - US 3004</text><rect fill="#FFFFFF" height="400.7832" style="stroke:#181818;stroke-width:1.0;" width="10" x="46.5" y="133.2422"/><rect fill="#FFFFFF" height="62.582" style="stroke:#181818;stroke-width:1.0;" width="10" x="418.5" y="156.5332"/><rect fill="#FFFFFF" height="31.291" style="stroke:#181818;stroke-width:1.0;" width="10" x="418.5" y="250.4063"/><rect fill="#FFFFFF" height="57.582" style="stroke:#181818;stroke-width:1.0;" width="10" x="418.5" y="312.9883"/><rect fill="#FFFFFF" height="69.582" style="stroke:#181818;stroke-width:1.0;" width="10" x="418.5" y="401.8613"/><rect fill="#FFFFFF" height="31.291" style="stroke:#181818;stroke-width:1.0;" width="10" x="418.5" y="502.7344"/><rect fill="none" height="81.873" style="stroke:#000000;stroke-width:1.5;" width="457.5" x="10" y="327.9883"/><line style="stroke:#181818;stroke-width:0.5;stroke-dasharray:5.0,5.0;" x1="51" x2="51" y1="123.2422" y2="552.0254"/><line style="stroke:#181818;stroke-width:0.5;stroke-dasharray:5.0,5.0;" x1="423.5" x2="423.5" y1="123.2422" y2="552.0254"/><text fill="#000000" font-family="sans-serif" font-size="14" lengthAdjust="spacing" textLength="57" x="20" y="119.7285">Utilizador</text><ellipse cx="51.5" cy="53.1211" fill="#E3E3E3" rx="8" ry="8" style="stroke:#181818;stroke-width:0.5;"/><path d="M51.5,61.1211 L51.5,88.1211 M38.5,69.1211 L64.5,69.1211 M51.5,88.1211 L38.5,103.1211 M51.5,88.1211 L64.5,103.1211 " fill="none" style="stroke:#181818;stroke-width:0.5;"/><text fill="#000000" font-family="sans-serif" font-size="14" lengthAdjust="spacing" textLength="57" x="20" y="566.1328">Utilizador</text><ellipse cx="51.5" cy="578.1465" fill="#E3E3E3" rx="8" ry="8" style="stroke:#181818;stroke-width:0.5;"/><path d="M51.5,586.1465 L51.5,613.1465 M38.5,594.1465 L64.5,594.1465 M51.5,613.1465 L38.5,628.1465 M51.5,613.1465 L64.5,628.1465 " fill="none" style="stroke:#181818;stroke-width:0.5;"/><rect fill="#E3E3E3" height="32.6211" rx="2.5" ry="2.5" style="stroke:#181818;stroke-width:0.5;" width="68" x="389.5" y="89.6211"/><text fill="#000000" font-family="sans-serif" font-size="14" lengthAdjust="spacing" textLength="54" x="396.5" y="111.7285">:Sistema</text><rect fill="#E3E3E3" height="32.6211" rx="2.5" ry="2.5" style="stroke:#181818;stroke-width:0.5;" width="68" x="389.5" y="551.0254"/><text fill="#000000" font-family="sans-serif" font-size="14" lengthAdjust="spacing" textLength="54" x="396.5" y="573.1328">:Sistema</text><rect fill="#FFFFFF" height="400.7832" style="stroke:#181818;stroke-width:1.0;" width="10" x="46.5" y="133.2422"/><rect fill="#FFFFFF" height="62.582" style="stroke:#181818;stroke-width:1.0;" width="10" x="418.5" y="156.5332"/><rect fill="#FFFFFF" height="31.291" style="stroke:#181818;stroke-width:1.0;" width="10" x="418.5" y="250.4063"/><rect fill="#FFFFFF" height="57.582" style="stroke:#181818;stroke-width:1.0;" width="10" x="418.5" y="312.9883"/><rect fill="#FFFFFF" height="69.582" style="stroke:#181818;stroke-width:1.0;" width="10" x="418.5" y="401.8613"/><rect fill="#FFFFFF" height="31.291" style="stroke:#181818;stroke-width:1.0;" width="10" x="418.5" y="502.7344"/><polygon fill="#181818" points="406.5,152.5332,416.5,156.5332,406.5,160.5332,410.5,156.5332" style="stroke:#181818;stroke-width:1.0;"/><line style="stroke:#181818;stroke-width:1.0;" x1="56.5" x2="412.5" y1="156.5332" y2="156.5332"/><text fill="#000000" font-family="sans-serif" font-size="13" font-weight="bold" lengthAdjust="spacing" textLength="7" x="63.5" y="151.2705">1</text><text fill="#000000" font-family="sans-serif" font-size="13" lengthAdjust="spacing" textLength="174" x="74.5" y="151.2705">Pede para partilhar uma board</text><polygon fill="#181818" points="67.5,183.8242,57.5,187.8242,67.5,191.8242,63.5,187.8242" style="stroke:#181818;stroke-width:1.0;"/><line style="stroke:#181818;stroke-width:1.0;stroke-dasharray:2.0,2.0;" x1="61.5" x2="417.5" y1="187.8242" y2="187.8242"/><text fill="#000000" font-family="sans-serif" font-size="13" font-weight="bold" lengthAdjust="spacing" textLength="7" x="73.5" y="182.5615">2</text><text fill="#000000" font-family="sans-serif" font-size="13" lengthAdjust="spacing" textLength="327" x="84.5" y="182.5615">Mostra a lista de board ativas em que o utilizador &#233; dono</text><polygon fill="#181818" points="67.5,215.1152,57.5,219.1152,67.5,223.1152,63.5,219.1152" style="stroke:#181818;stroke-width:1.0;"/><line style="stroke:#181818;stroke-width:1.0;stroke-dasharray:2.0,2.0;" x1="61.5" x2="422.5" y1="219.1152" y2="219.1152"/><text fill="#000000" font-family="sans-serif" font-size="13" font-weight="bold" lengthAdjust="spacing" textLength="7" x="73.5" y="213.8525">3</text><text fill="#000000" font-family="sans-serif" font-size="13" lengthAdjust="spacing" textLength="220" x="84.5" y="213.8525">Pede para escolher a board a partilhar</text><polygon fill="#181818" points="406.5,246.4063,416.5,250.4063,406.5,254.4063,410.5,250.4063" style="stroke:#181818;stroke-width:1.0;"/><line style="stroke:#181818;stroke-width:1.0;" x1="56.5" x2="412.5" y1="250.4063" y2="250.4063"/><text fill="#000000" font-family="sans-serif" font-size="13" font-weight="bold" lengthAdjust="spacing" textLength="7" x="63.5" y="245.1436">4</text><text fill="#000000" font-family="sans-serif" font-size="13" lengthAdjust="spacing" textLength="155" x="74.5" y="245.1436">Escolhe a board a partilhar</text><polygon fill="#181818" points="67.5,277.6973,57.5,281.6973,67.5,285.6973,63.5,281.6973" style="stroke:#181818;stroke-width:1.0;"/><line style="stroke:#181818;stroke-width:1.0;stroke-dasharray:2.0,2.0;" x1="61.5" x2="422.5" y1="281.6973" y2="281.6973"/><text fill="#000000" font-family="sans-serif" font-size="13" font-weight="bold" lengthAdjust="spacing" textLength="7" x="73.5" y="276.4346">5</text><text fill="#000000" font-family="sans-serif" font-size="13" lengthAdjust="spacing" textLength="252" x="84.5" y="276.4346">Mostra os utilizadores disponiveis &#224; partilha</text><polygon fill="#181818" points="406.5,308.9883,416.5,312.9883,406.5,316.9883,410.5,312.9883" style="stroke:#181818;stroke-width:1.0;"/><line style="stroke:#181818;stroke-width:1.0;" x1="56.5" x2="412.5" y1="312.9883" y2="312.9883"/><text fill="#000000" font-family="sans-serif" font-size="13" font-weight="bold" lengthAdjust="spacing" textLength="7" x="63.5" y="307.7256">6</text><text fill="#000000" font-family="sans-serif" font-size="13" lengthAdjust="spacing" textLength="135" x="74.5" y="307.7256">Escolhe os utilizadores</text><path d="M10,327.9883 L83,327.9883 L83,337.2793 L73,347.2793 L10,347.2793 L10,327.9883 " fill="#EEEEEE" style="stroke:#000000;stroke-width:1.5;"/><rect fill="none" height="81.873" style="stroke:#000000;stroke-width:1.5;" width="457.5" x="10" y="327.9883"/><text fill="#000000" font-family="sans-serif" font-size="13" font-weight="bold" lengthAdjust="spacing" textLength="28" x="25" y="343.0166">loop</text><text fill="#000000" font-family="sans-serif" font-size="11" font-weight="bold" lengthAdjust="spacing" textLength="171" x="98" y="341.8584">[Para cada utilizador escolhido]</text><polygon fill="#181818" points="67.5,366.5703,57.5,370.5703,67.5,374.5703,63.5,370.5703" style="stroke:#181818;stroke-width:1.0;"/><line style="stroke:#181818;stroke-width:1.0;stroke-dasharray:2.0,2.0;" x1="61.5" x2="422.5" y1="370.5703" y2="370.5703"/><text fill="#000000" font-family="sans-serif" font-size="13" font-weight="bold" lengthAdjust="spacing" textLength="7" x="73.5" y="365.3076">7</text><text fill="#000000" font-family="sans-serif" font-size="13" lengthAdjust="spacing" textLength="305" x="84.5" y="365.3076">Pede para escolher a permiss&#227;o de escrita ou leitura</text><polygon fill="#181818" points="406.5,397.8613,416.5,401.8613,406.5,405.8613,410.5,401.8613" style="stroke:#181818;stroke-width:1.0;"/><line style="stroke:#181818;stroke-width:1.0;" x1="56.5" x2="412.5" y1="401.8613" y2="401.8613"/><text fill="#000000" font-family="sans-serif" font-size="13" font-weight="bold" lengthAdjust="spacing" textLength="7" x="63.5" y="396.5986">8</text><text fill="#000000" font-family="sans-serif" font-size="13" lengthAdjust="spacing" textLength="196" x="74.5" y="396.5986">Escolhe a permiss&#227;o do utilizador</text><polygon fill="#181818" points="67.5,436.1523,57.5,440.1523,67.5,444.1523,63.5,440.1523" style="stroke:#181818;stroke-width:1.0;"/><line style="stroke:#181818;stroke-width:1.0;stroke-dasharray:2.0,2.0;" x1="61.5" x2="417.5" y1="440.1523" y2="440.1523"/><text fill="#000000" font-family="sans-serif" font-size="13" font-weight="bold" lengthAdjust="spacing" textLength="7" x="73.5" y="434.8896">9</text><text fill="#000000" font-family="sans-serif" font-size="13" lengthAdjust="spacing" textLength="182" x="84.5" y="434.8896">Mostra os utilizador convidados</text><polygon fill="#181818" points="67.5,467.4434,57.5,471.4434,67.5,475.4434,63.5,471.4434" style="stroke:#181818;stroke-width:1.0;"/><line style="stroke:#181818;stroke-width:1.0;stroke-dasharray:2.0,2.0;" x1="61.5" x2="422.5" y1="471.4434" y2="471.4434"/><text fill="#000000" font-family="sans-serif" font-size="13" font-weight="bold" lengthAdjust="spacing" textLength="14" x="73.5" y="466.1807">10</text><text fill="#000000" font-family="sans-serif" font-size="13" lengthAdjust="spacing" textLength="179" x="91.5" y="466.1807">Pede confirma&#231;&#227;o da opera&#231;&#227;o</text><polygon fill="#181818" points="406.5,498.7344,416.5,502.7344,406.5,506.7344,410.5,502.7344" style="stroke:#181818;stroke-width:1.0;"/><line style="stroke:#181818;stroke-width:1.0;" x1="56.5" x2="412.5" y1="502.7344" y2="502.7344"/><text fill="#000000" font-family="sans-serif" font-size="13" font-weight="bold" lengthAdjust="spacing" textLength="14" x="63.5" y="497.4717">11</text><text fill="#000000" font-family="sans-serif" font-size="13" lengthAdjust="spacing" textLength="119" x="81.5" y="497.4717">Confirma a opera&#231;&#227;o</text><polygon fill="#181818" points="62.5,530.0254,52.5,534.0254,62.5,538.0254,58.5,534.0254" style="stroke:#181818;stroke-width:1.0;"/><line style="stroke:#181818;stroke-width:1.0;stroke-dasharray:2.0,2.0;" x1="56.5" x2="422.5" y1="534.0254" y2="534.0254"/><text fill="#000000" font-family="sans-serif" font-size="13" font-weight="bold" lengthAdjust="spacing" textLength="14" x="68.5" y="528.7627">12</text><text fill="#000000" font-family="sans-serif" font-size="13" lengthAdjust="spacing" textLength="181" x="86.5" y="528.7627">Informa o sucesso da opera&#231;&#227;o</text><!--SRC=[bPDDRjim48NtFCM3L-d2G81cvKM1ekcYYm81X1nWGexjGIIEog5SfASfq4NHS_XYfIJ_g7K2o2jHvBnltXjAzYonfKGD6etgjqaRHauTEpkTjEIVQSDLVgaPYNsckAcd1RQbeDybRh2csjYvBBcKLY-MkK75tpgEdd4ljEdBRwhg_XsMUApm_lRspb6NDNRD4oVdo6TDM3ncgUL7eQO5oF2nttMbMHOlBSMCnQgIdax3-TXfKCkECXy4RdXW-U5ePOK73epUDGPQlQM4hY4yAQLmrX-11zso84RM2b_LSf4JwcA0K7235jHB3QMwn8MYEqN0_Wz2cUvhjBCVDg_rbXFe23nRT84lh5rc-pmINWLSaKnjufqDGQpLA3iMm_xdYNcTf_-WbtvgrHOF_I0y1PfERnoC17Mp1zXoQiHi_qlx-oa7ISfLQOUQ9NU9hftdb3UzsSiO7CFisS9ht4aeItixMgbPIsfe_tleNX35pFWsByMd0m3_IETy3r_YMdkXmZhFPZFQJxR6N_0l]--></g></svg>