<?xml version="1.0" encoding="us-ascii" standalone="no"?><svg xmlns="http://www.w3.org/2000/svg" xmlns:xlink="http://www.w3.org/1999/xlink" contentStyleType="text/css" height="612.9px" preserveAspectRatio="none" style="width:2046px;height:612px;background:#FFFFFF;" version="1.1" viewBox="0 0 2046 612" width="2046.6px" zoomAndPan="magnify"><defs/><g><text fill="#000000" font-family="sans-serif" font-size="12.6" font-weight="bold" lengthAdjust="spacing" textLength="180.9" x="926.775" y="22.5967">Class Diagram (CD) - US 1011</text><!--class CreateExtraClassUI--><g id="elem_CreateExtraClassUI"><rect codeLine="5" fill="#F1F1F1" height="71.2828" id="CreateExtraClassUI" rx="2.25" ry="2.25" style="stroke:#181818;stroke-width:0.45;" width="138.6" x="1196.1" y="41.959"/><ellipse cx="1209.6" cy="62.0209" fill="#ADD1B2" rx="9.9" ry="9.9" style="stroke:#181818;stroke-width:0.9;"/><path d="M1212.0891,58.3084 Q1212.2297,58.1115 1212.3984,58.0131 Q1212.5672,57.9146 1212.7641,57.9146 Q1213.1016,57.9146 1213.3125,58.1537 Q1213.5234,58.3787 1213.5234,58.9271 L1213.5234,60.235 Q1213.5234,60.7834 1213.3125,61.0225 Q1213.1016,61.2615 1212.7641,61.2615 Q1212.4547,61.2615 1212.2719,61.0787 Q1212.0891,60.91 1211.9906,60.4459 Q1211.9484,60.1225 1211.7797,59.9537 Q1211.4844,59.6162 1210.9359,59.4193 Q1210.3875,59.2225 1209.825,59.2225 Q1209.1359,59.2225 1208.5594,59.5178 Q1207.9969,59.8131 1207.5469,60.4881 Q1207.1109,61.1631 1207.1109,62.0912 L1207.1109,63.0756 Q1207.1109,64.1865 1207.9125,64.9318 Q1208.7141,65.6631 1210.1484,65.6631 Q1210.9922,65.6631 1211.5828,65.4381 Q1211.9344,65.2975 1212.3141,64.9037 Q1212.5531,64.6646 1212.6797,64.5943 Q1212.8203,64.524 1213.0031,64.524 Q1213.2984,64.524 1213.5234,64.7631 Q1213.7625,64.9881 1213.7625,65.2975 Q1213.7625,65.6068 1213.4531,65.9725 Q1213.0031,66.4928 1212.2859,66.7881 Q1211.3156,67.1959 1210.1484,67.1959 Q1208.7844,67.1959 1207.7016,66.6334 Q1206.8156,66.1834 1206.1969,65.2271 Q1205.5781,64.2568 1205.5781,63.1037 L1205.5781,62.0631 Q1205.5781,60.8678 1206.1266,59.8412 Q1206.6891,58.8006 1207.6734,58.2521 Q1208.6578,57.6896 1209.7688,57.6896 Q1210.4297,57.6896 1211.0063,57.8443 Q1211.5969,57.985 1212.0891,58.3084 Z " fill="#000000"/><text fill="#000000" font-family="sans-serif" font-size="10.8" font-style="italic" lengthAdjust="spacing" textLength="73.8" x="1240.2" y="58.1133">&#171;presentation&#187;</text><text fill="#000000" font-family="sans-serif" font-size="12.6" lengthAdjust="spacing" textLength="109.8" x="1222.2" y="74.4205">CreateExtraClassUI</text><line style="stroke:#181818;stroke-width:0.45;" x1="1197" x2="1333.8" y1="82.0828" y2="82.0828"/><line style="stroke:#181818;stroke-width:0.45;" x1="1197" x2="1333.8" y1="89.2828" y2="89.2828"/><text fill="#000000" font-family="sans-serif" font-size="12.6" lengthAdjust="spacing" textLength="54" x="1201.5" y="106.4795">doShow()</text></g><!--class JpaCourseRepository--><g id="elem_JpaCourseRepository"><rect codeLine="9" fill="#F1F1F1" height="54.5238" id="JpaCourseRepository" rx="2.25" ry="2.25" style="stroke:#181818;stroke-width:0.45;" width="151.2" x="1034.1" y="535.609"/><ellipse cx="1047.6" cy="555.6709" fill="#ADD1B2" rx="9.9" ry="9.9" style="stroke:#181818;stroke-width:0.9;"/><path d="M1050.0891,551.9584 Q1050.2297,551.7615 1050.3984,551.6631 Q1050.5672,551.5646 1050.7641,551.5646 Q1051.1016,551.5646 1051.3125,551.8037 Q1051.5234,552.0287 1051.5234,552.5771 L1051.5234,553.885 Q1051.5234,554.4334 1051.3125,554.6725 Q1051.1016,554.9115 1050.7641,554.9115 Q1050.4547,554.9115 1050.2719,554.7287 Q1050.0891,554.56 1049.9906,554.0959 Q1049.9484,553.7725 1049.7797,553.6037 Q1049.4844,553.2662 1048.9359,553.0693 Q1048.3875,552.8725 1047.825,552.8725 Q1047.1359,552.8725 1046.5594,553.1678 Q1045.9969,553.4631 1045.5469,554.1381 Q1045.1109,554.8131 1045.1109,555.7412 L1045.1109,556.7256 Q1045.1109,557.8365 1045.9125,558.5818 Q1046.7141,559.3131 1048.1484,559.3131 Q1048.9922,559.3131 1049.5828,559.0881 Q1049.9344,558.9475 1050.3141,558.5537 Q1050.5531,558.3146 1050.6797,558.2443 Q1050.8203,558.174 1051.0031,558.174 Q1051.2984,558.174 1051.5234,558.4131 Q1051.7625,558.6381 1051.7625,558.9475 Q1051.7625,559.2568 1051.4531,559.6225 Q1051.0031,560.1428 1050.2859,560.4381 Q1049.3156,560.8459 1048.1484,560.8459 Q1046.7844,560.8459 1045.7016,560.2834 Q1044.8156,559.8334 1044.1969,558.8771 Q1043.5781,557.9068 1043.5781,556.7537 L1043.5781,555.7131 Q1043.5781,554.5178 1044.1266,553.4912 Q1044.6891,552.4506 1045.6734,551.9021 Q1046.6578,551.3396 1047.7688,551.3396 Q1048.4297,551.3396 1049.0063,551.4943 Q1049.5969,551.635 1050.0891,551.9584 Z " fill="#000000"/><text fill="#000000" font-family="sans-serif" font-size="10.8" font-style="italic" lengthAdjust="spacing" textLength="69.3" x="1086.75" y="551.7633">&#171;persistence&#187;</text><text fill="#000000" font-family="sans-serif" font-size="12.6" lengthAdjust="spacing" textLength="122.4" x="1060.2" y="568.0705">JpaCourseRepository</text><line style="stroke:#181818;stroke-width:0.45;" x1="1035" x2="1184.4" y1="575.7328" y2="575.7328"/><line style="stroke:#181818;stroke-width:0.45;" x1="1035" x2="1184.4" y1="582.9328" y2="582.9328"/></g><!--class InMemoryCourseRepository--><g id="elem_InMemoryCourseRepository"><rect codeLine="10" fill="#F1F1F1" height="54.5238" id="InMemoryCourseRepository" rx="2.25" ry="2.25" style="stroke:#181818;stroke-width:0.45;" width="186.3" x="1217.25" y="535.609"/><ellipse cx="1230.75" cy="555.6709" fill="#ADD1B2" rx="9.9" ry="9.9" style="stroke:#181818;stroke-width:0.9;"/><path d="M1233.2391,551.9584 Q1233.3797,551.7615 1233.5484,551.6631 Q1233.7172,551.5646 1233.9141,551.5646 Q1234.2516,551.5646 1234.4625,551.8037 Q1234.6734,552.0287 1234.6734,552.5771 L1234.6734,553.885 Q1234.6734,554.4334 1234.4625,554.6725 Q1234.2516,554.9115 1233.9141,554.9115 Q1233.6047,554.9115 1233.4219,554.7287 Q1233.2391,554.56 1233.1406,554.0959 Q1233.0984,553.7725 1232.9297,553.6037 Q1232.6344,553.2662 1232.0859,553.0693 Q1231.5375,552.8725 1230.975,552.8725 Q1230.2859,552.8725 1229.7094,553.1678 Q1229.1469,553.4631 1228.6969,554.1381 Q1228.2609,554.8131 1228.2609,555.7412 L1228.2609,556.7256 Q1228.2609,557.8365 1229.0625,558.5818 Q1229.8641,559.3131 1231.2984,559.3131 Q1232.1422,559.3131 1232.7328,559.0881 Q1233.0844,558.9475 1233.4641,558.5537 Q1233.7031,558.3146 1233.8297,558.2443 Q1233.9703,558.174 1234.1531,558.174 Q1234.4484,558.174 1234.6734,558.4131 Q1234.9125,558.6381 1234.9125,558.9475 Q1234.9125,559.2568 1234.6031,559.6225 Q1234.1531,560.1428 1233.4359,560.4381 Q1232.4656,560.8459 1231.2984,560.8459 Q1229.9344,560.8459 1228.8516,560.2834 Q1227.9656,559.8334 1227.3469,558.8771 Q1226.7281,557.9068 1226.7281,556.7537 L1226.7281,555.7131 Q1226.7281,554.5178 1227.2766,553.4912 Q1227.8391,552.4506 1228.8234,551.9021 Q1229.8078,551.3396 1230.9188,551.3396 Q1231.5797,551.3396 1232.1563,551.4943 Q1232.7469,551.635 1233.2391,551.9584 Z " fill="#000000"/><text fill="#000000" font-family="sans-serif" font-size="10.8" font-style="italic" lengthAdjust="spacing" textLength="69.3" x="1287.45" y="551.7633">&#171;persistence&#187;</text><text fill="#000000" font-family="sans-serif" font-size="12.6" lengthAdjust="spacing" textLength="157.5" x="1243.35" y="568.0705">InMemoryCourseRepository</text><line style="stroke:#181818;stroke-width:0.45;" x1="1218.15" x2="1402.65" y1="575.7328" y2="575.7328"/><line style="stroke:#181818;stroke-width:0.45;" x1="1218.15" x2="1402.65" y1="582.9328" y2="582.9328"/></g><!--class JpaStudentRepository--><g id="elem_JpaStudentRepository"><rect codeLine="11" fill="#F1F1F1" height="54.5238" id="JpaStudentRepository" rx="2.25" ry="2.25" style="stroke:#181818;stroke-width:0.45;" width="153.9" x="359.55" y="535.609"/><ellipse cx="373.05" cy="555.6709" fill="#ADD1B2" rx="9.9" ry="9.9" style="stroke:#181818;stroke-width:0.9;"/><path d="M375.5391,551.9584 Q375.6797,551.7615 375.8484,551.6631 Q376.0172,551.5646 376.2141,551.5646 Q376.5516,551.5646 376.7625,551.8037 Q376.9734,552.0287 376.9734,552.5771 L376.9734,553.885 Q376.9734,554.4334 376.7625,554.6725 Q376.5516,554.9115 376.2141,554.9115 Q375.9047,554.9115 375.7219,554.7287 Q375.5391,554.56 375.4406,554.0959 Q375.3984,553.7725 375.2297,553.6037 Q374.9344,553.2662 374.3859,553.0693 Q373.8375,552.8725 373.275,552.8725 Q372.5859,552.8725 372.0094,553.1678 Q371.4469,553.4631 370.9969,554.1381 Q370.5609,554.8131 370.5609,555.7412 L370.5609,556.7256 Q370.5609,557.8365 371.3625,558.5818 Q372.1641,559.3131 373.5984,559.3131 Q374.4422,559.3131 375.0328,559.0881 Q375.3844,558.9475 375.7641,558.5537 Q376.0031,558.3146 376.1297,558.2443 Q376.2703,558.174 376.4531,558.174 Q376.7484,558.174 376.9734,558.4131 Q377.2125,558.6381 377.2125,558.9475 Q377.2125,559.2568 376.9031,559.6225 Q376.4531,560.1428 375.7359,560.4381 Q374.7656,560.8459 373.5984,560.8459 Q372.2344,560.8459 371.1516,560.2834 Q370.2656,559.8334 369.6469,558.8771 Q369.0281,557.9068 369.0281,556.7537 L369.0281,555.7131 Q369.0281,554.5178 369.5766,553.4912 Q370.1391,552.4506 371.1234,551.9021 Q372.1078,551.3396 373.2188,551.3396 Q373.8797,551.3396 374.4563,551.4943 Q375.0469,551.635 375.5391,551.9584 Z " fill="#000000"/><text fill="#000000" font-family="sans-serif" font-size="10.8" font-style="italic" lengthAdjust="spacing" textLength="69.3" x="413.55" y="551.7633">&#171;persistence&#187;</text><text fill="#000000" font-family="sans-serif" font-size="12.6" lengthAdjust="spacing" textLength="125.1" x="385.65" y="568.0705">JpaStudentRepository</text><line style="stroke:#181818;stroke-width:0.45;" x1="360.45" x2="512.55" y1="575.7328" y2="575.7328"/><line style="stroke:#181818;stroke-width:0.45;" x1="360.45" x2="512.55" y1="582.9328" y2="582.9328"/></g><!--class InMemoryStudentRepository--><g id="elem_InMemoryStudentRepository"><rect codeLine="12" fill="#F1F1F1" height="54.5238" id="InMemoryStudentRepository" rx="2.25" ry="2.25" style="stroke:#181818;stroke-width:0.45;" width="189" x="138.6" y="535.609"/><ellipse cx="152.1" cy="555.6709" fill="#ADD1B2" rx="9.9" ry="9.9" style="stroke:#181818;stroke-width:0.9;"/><path d="M154.5891,551.9584 Q154.7297,551.7615 154.8984,551.6631 Q155.0672,551.5646 155.2641,551.5646 Q155.6016,551.5646 155.8125,551.8037 Q156.0234,552.0287 156.0234,552.5771 L156.0234,553.885 Q156.0234,554.4334 155.8125,554.6725 Q155.6016,554.9115 155.2641,554.9115 Q154.9547,554.9115 154.7719,554.7287 Q154.5891,554.56 154.4906,554.0959 Q154.4484,553.7725 154.2797,553.6037 Q153.9844,553.2662 153.4359,553.0693 Q152.8875,552.8725 152.325,552.8725 Q151.6359,552.8725 151.0594,553.1678 Q150.4969,553.4631 150.0469,554.1381 Q149.6109,554.8131 149.6109,555.7412 L149.6109,556.7256 Q149.6109,557.8365 150.4125,558.5818 Q151.2141,559.3131 152.6484,559.3131 Q153.4922,559.3131 154.0828,559.0881 Q154.4344,558.9475 154.8141,558.5537 Q155.0531,558.3146 155.1797,558.2443 Q155.3203,558.174 155.5031,558.174 Q155.7984,558.174 156.0234,558.4131 Q156.2625,558.6381 156.2625,558.9475 Q156.2625,559.2568 155.9531,559.6225 Q155.5031,560.1428 154.7859,560.4381 Q153.8156,560.8459 152.6484,560.8459 Q151.2844,560.8459 150.2016,560.2834 Q149.3156,559.8334 148.6969,558.8771 Q148.0781,557.9068 148.0781,556.7537 L148.0781,555.7131 Q148.0781,554.5178 148.6266,553.4912 Q149.1891,552.4506 150.1734,551.9021 Q151.1578,551.3396 152.2688,551.3396 Q152.9297,551.3396 153.5063,551.4943 Q154.0969,551.635 154.5891,551.9584 Z " fill="#000000"/><text fill="#000000" font-family="sans-serif" font-size="10.8" font-style="italic" lengthAdjust="spacing" textLength="69.3" x="210.15" y="551.7633">&#171;persistence&#187;</text><text fill="#000000" font-family="sans-serif" font-size="12.6" lengthAdjust="spacing" textLength="160.2" x="164.7" y="568.0705">InMemoryStudentRepository</text><line style="stroke:#181818;stroke-width:0.45;" x1="139.5" x2="326.7" y1="575.7328" y2="575.7328"/><line style="stroke:#181818;stroke-width:0.45;" x1="139.5" x2="326.7" y1="582.9328" y2="582.9328"/></g><!--class Course--><g id="elem_Course"><rect codeLine="14" fill="#F1F1F1" height="88.0418" id="Course" rx="2.25" ry="2.25" style="stroke:#181818;stroke-width:0.45;" width="419.4" x="182.7" y="359.659"/><ellipse cx="365.175" cy="379.7209" fill="#ADD1B2" rx="9.9" ry="9.9" style="stroke:#181818;stroke-width:0.9;"/><path d="M367.6641,376.0084 Q367.8047,375.8115 367.9734,375.7131 Q368.1422,375.6146 368.3391,375.6146 Q368.6766,375.6146 368.8875,375.8537 Q369.0984,376.0787 369.0984,376.6271 L369.0984,377.935 Q369.0984,378.4834 368.8875,378.7225 Q368.6766,378.9615 368.3391,378.9615 Q368.0297,378.9615 367.8469,378.7787 Q367.6641,378.61 367.5656,378.1459 Q367.5234,377.8225 367.3547,377.6537 Q367.0594,377.3162 366.5109,377.1193 Q365.9625,376.9225 365.4,376.9225 Q364.7109,376.9225 364.1344,377.2178 Q363.5719,377.5131 363.1219,378.1881 Q362.6859,378.8631 362.6859,379.7912 L362.6859,380.7756 Q362.6859,381.8865 363.4875,382.6318 Q364.2891,383.3631 365.7234,383.3631 Q366.5672,383.3631 367.1578,383.1381 Q367.5094,382.9975 367.8891,382.6037 Q368.1281,382.3646 368.2547,382.2943 Q368.3953,382.224 368.5781,382.224 Q368.8734,382.224 369.0984,382.4631 Q369.3375,382.6881 369.3375,382.9975 Q369.3375,383.3068 369.0281,383.6725 Q368.5781,384.1928 367.8609,384.4881 Q366.8906,384.8959 365.7234,384.8959 Q364.3594,384.8959 363.2766,384.3334 Q362.3906,383.8834 361.7719,382.9271 Q361.1531,381.9568 361.1531,380.8037 L361.1531,379.7631 Q361.1531,378.5678 361.7016,377.5412 Q362.2641,376.5006 363.2484,375.9521 Q364.2328,375.3896 365.3438,375.3896 Q366.0047,375.3896 366.5813,375.5443 Q367.1719,375.685 367.6641,376.0084 Z " fill="#000000"/><text fill="#000000" font-family="sans-serif" font-size="10.8" font-style="italic" lengthAdjust="spacing" textLength="50.4" x="381.825" y="375.8133">&#171;domain&#187;</text><text fill="#000000" font-family="sans-serif" font-size="12.6" lengthAdjust="spacing" textLength="41.4" x="386.325" y="392.1205">Course</text><line style="stroke:#181818;stroke-width:0.45;" x1="183.6" x2="601.2" y1="399.7828" y2="399.7828"/><line style="stroke:#181818;stroke-width:0.45;" x1="183.6" x2="601.2" y1="406.9828" y2="406.9828"/><ellipse cx="192.6" cy="420.3123" fill="#84BE84" rx="2.7" ry="2.7" style="stroke:#038048;stroke-width:0.9;"/><text fill="#000000" font-family="sans-serif" font-size="12.6" lengthAdjust="spacing" textLength="396" x="200.7" y="424.1795">checkStudentsAvailability(Course course, Iterable&lt;Student&gt; students)</text><ellipse cx="192.6" cy="437.0713" fill="#84BE84" rx="2.7" ry="2.7" style="stroke:#038048;stroke-width:0.9;"/><text fill="#000000" font-family="sans-serif" font-size="12.6" lengthAdjust="spacing" textLength="214.2" x="200.7" y="440.9385">addExtraClass(ExtraClass extraClass)</text></g><!--class CourseCode--><g id="elem_CourseCode"><rect codeLine="18" fill="#F1F1F1" height="54.5238" id="CourseCode" rx="2.25" ry="2.25" style="stroke:#181818;stroke-width:0.45;" width="100.8" x="6.3" y="535.609"/><ellipse cx="19.8" cy="555.6709" fill="#FF8B40" rx="9.9" ry="9.9" style="stroke:#181818;stroke-width:0.9;"/><path d="M20.3344,558.61 L22.5563,553.3225 L22.2047,553.3225 Q21.6563,553.3225 21.4172,553.1115 Q21.1781,552.9006 21.1781,552.549 Q21.1781,552.2115 21.4172,552.0006 Q21.6563,551.7896 22.2047,551.7896 L24.2578,551.7896 Q24.8063,551.7896 25.0453,552.0006 Q25.2844,552.2115 25.2844,552.549 Q25.2844,552.9709 24.9188,553.21 Q24.75,553.3225 24.2156,553.3225 L21.0797,560.8459 L19.6031,560.8459 L16.4672,553.3225 Q15.9328,553.3225 15.7641,553.21 Q15.3984,552.9709 15.3984,552.549 Q15.3984,552.2115 15.6375,552.0006 Q15.8766,551.7896 16.425,551.7896 L18.4922,551.7896 Q19.0406,551.7896 19.2656,552.0006 Q19.5047,552.2115 19.5047,552.549 Q19.5047,552.9006 19.2656,553.1115 Q19.0406,553.3225 18.4922,553.3225 L18.1266,553.3225 L20.3344,558.61 Z " fill="#000000"/><text fill="#000000" font-family="sans-serif" font-size="10.8" font-style="italic" lengthAdjust="spacing" textLength="72.9" x="31.95" y="551.7633">&#171;value object&#187;</text><text fill="#000000" font-family="sans-serif" font-size="12.6" lengthAdjust="spacing" textLength="72" x="32.4" y="568.0705">CourseCode</text><line style="stroke:#181818;stroke-width:0.45;" x1="7.2" x2="106.2" y1="575.7328" y2="575.7328"/><line style="stroke:#181818;stroke-width:0.45;" x1="7.2" x2="106.2" y1="582.9328" y2="582.9328"/></g><!--class Teacher--><g id="elem_Teacher"><rect codeLine="19" fill="#F1F1F1" height="54.5238" id="Teacher" rx="2.25" ry="2.25" style="stroke:#181818;stroke-width:0.45;" width="76.5" x="634.05" y="376.309"/><ellipse cx="647.55" cy="396.3709" fill="#ADD1B2" rx="9.9" ry="9.9" style="stroke:#181818;stroke-width:0.9;"/><path d="M650.0391,392.6584 Q650.1797,392.4615 650.3484,392.3631 Q650.5172,392.2646 650.7141,392.2646 Q651.0516,392.2646 651.2625,392.5037 Q651.4734,392.7287 651.4734,393.2771 L651.4734,394.585 Q651.4734,395.1334 651.2625,395.3725 Q651.0516,395.6115 650.7141,395.6115 Q650.4047,395.6115 650.2219,395.4287 Q650.0391,395.26 649.9406,394.7959 Q649.8984,394.4725 649.7297,394.3037 Q649.4344,393.9662 648.8859,393.7693 Q648.3375,393.5725 647.775,393.5725 Q647.0859,393.5725 646.5094,393.8678 Q645.9469,394.1631 645.4969,394.8381 Q645.0609,395.5131 645.0609,396.4412 L645.0609,397.4256 Q645.0609,398.5365 645.8625,399.2818 Q646.6641,400.0131 648.0984,400.0131 Q648.9422,400.0131 649.5328,399.7881 Q649.8844,399.6475 650.2641,399.2537 Q650.5031,399.0146 650.6297,398.9443 Q650.7703,398.874 650.9531,398.874 Q651.2484,398.874 651.4734,399.1131 Q651.7125,399.3381 651.7125,399.6475 Q651.7125,399.9568 651.4031,400.3225 Q650.9531,400.8428 650.2359,401.1381 Q649.2656,401.5459 648.0984,401.5459 Q646.7344,401.5459 645.6516,400.9834 Q644.7656,400.5334 644.1469,399.5771 Q643.5281,398.6068 643.5281,397.4537 L643.5281,396.4131 Q643.5281,395.2178 644.0766,394.1912 Q644.6391,393.1506 645.6234,392.6021 Q646.6078,392.0396 647.7188,392.0396 Q648.3797,392.0396 648.9563,392.1943 Q649.5469,392.335 650.0391,392.6584 Z " fill="#000000"/><text fill="#000000" font-family="sans-serif" font-size="10.8" font-style="italic" lengthAdjust="spacing" textLength="50.4" x="658.8" y="392.4633">&#171;domain&#187;</text><text fill="#000000" font-family="sans-serif" font-size="12.6" lengthAdjust="spacing" textLength="47.7" x="660.15" y="408.7705">Teacher</text><line style="stroke:#181818;stroke-width:0.45;" x1="634.95" x2="709.65" y1="416.4328" y2="416.4328"/><line style="stroke:#181818;stroke-width:0.45;" x1="634.95" x2="709.65" y1="423.6328" y2="423.6328"/></g><!--class Student--><g id="elem_Student"><rect codeLine="20" fill="#F1F1F1" height="54.5238" id="Student" rx="2.25" ry="2.25" style="stroke:#181818;stroke-width:0.45;" width="75.6" x="1844.1" y="376.309"/><ellipse cx="1857.6" cy="396.3709" fill="#ADD1B2" rx="9.9" ry="9.9" style="stroke:#181818;stroke-width:0.9;"/><path d="M1860.0891,392.6584 Q1860.2297,392.4615 1860.3984,392.3631 Q1860.5672,392.2646 1860.7641,392.2646 Q1861.1016,392.2646 1861.3125,392.5037 Q1861.5234,392.7287 1861.5234,393.2771 L1861.5234,394.585 Q1861.5234,395.1334 1861.3125,395.3725 Q1861.1016,395.6115 1860.7641,395.6115 Q1860.4547,395.6115 1860.2719,395.4287 Q1860.0891,395.26 1859.9906,394.7959 Q1859.9484,394.4725 1859.7797,394.3037 Q1859.4844,393.9662 1858.9359,393.7693 Q1858.3875,393.5725 1857.825,393.5725 Q1857.1359,393.5725 1856.5594,393.8678 Q1855.9969,394.1631 1855.5469,394.8381 Q1855.1109,395.5131 1855.1109,396.4412 L1855.1109,397.4256 Q1855.1109,398.5365 1855.9125,399.2818 Q1856.7141,400.0131 1858.1484,400.0131 Q1858.9922,400.0131 1859.5828,399.7881 Q1859.9344,399.6475 1860.3141,399.2537 Q1860.5531,399.0146 1860.6797,398.9443 Q1860.8203,398.874 1861.0031,398.874 Q1861.2984,398.874 1861.5234,399.1131 Q1861.7625,399.3381 1861.7625,399.6475 Q1861.7625,399.9568 1861.4531,400.3225 Q1861.0031,400.8428 1860.2859,401.1381 Q1859.3156,401.5459 1858.1484,401.5459 Q1856.7844,401.5459 1855.7016,400.9834 Q1854.8156,400.5334 1854.1969,399.5771 Q1853.5781,398.6068 1853.5781,397.4537 L1853.5781,396.4131 Q1853.5781,395.2178 1854.1266,394.1912 Q1854.6891,393.1506 1855.6734,392.6021 Q1856.6578,392.0396 1857.7688,392.0396 Q1858.4297,392.0396 1859.0063,392.1943 Q1859.5969,392.335 1860.0891,392.6584 Z " fill="#000000"/><text fill="#000000" font-family="sans-serif" font-size="10.8" font-style="italic" lengthAdjust="spacing" textLength="50.4" x="1868.4" y="392.4633">&#171;domain&#187;</text><text fill="#000000" font-family="sans-serif" font-size="12.6" lengthAdjust="spacing" textLength="44.1" x="1871.55" y="408.7705">Student</text><line style="stroke:#181818;stroke-width:0.45;" x1="1845" x2="1918.8" y1="416.4328" y2="416.4328"/><line style="stroke:#181818;stroke-width:0.45;" x1="1845" x2="1918.8" y1="423.6328" y2="423.6328"/></g><!--class ExtraClass--><g id="elem_ExtraClass"><rect codeLine="21" fill="#F1F1F1" height="54.5238" id="ExtraClass" rx="2.25" ry="2.25" style="stroke:#181818;stroke-width:0.45;" width="89.1" x="1951.65" y="376.309"/><ellipse cx="1965.15" cy="396.3709" fill="#ADD1B2" rx="9.9" ry="9.9" style="stroke:#181818;stroke-width:0.9;"/><path d="M1967.6391,392.6584 Q1967.7797,392.4615 1967.9484,392.3631 Q1968.1172,392.2646 1968.3141,392.2646 Q1968.6516,392.2646 1968.8625,392.5037 Q1969.0734,392.7287 1969.0734,393.2771 L1969.0734,394.585 Q1969.0734,395.1334 1968.8625,395.3725 Q1968.6516,395.6115 1968.3141,395.6115 Q1968.0047,395.6115 1967.8219,395.4287 Q1967.6391,395.26 1967.5406,394.7959 Q1967.4984,394.4725 1967.3297,394.3037 Q1967.0344,393.9662 1966.4859,393.7693 Q1965.9375,393.5725 1965.375,393.5725 Q1964.6859,393.5725 1964.1094,393.8678 Q1963.5469,394.1631 1963.0969,394.8381 Q1962.6609,395.5131 1962.6609,396.4412 L1962.6609,397.4256 Q1962.6609,398.5365 1963.4625,399.2818 Q1964.2641,400.0131 1965.6984,400.0131 Q1966.5422,400.0131 1967.1328,399.7881 Q1967.4844,399.6475 1967.8641,399.2537 Q1968.1031,399.0146 1968.2297,398.9443 Q1968.3703,398.874 1968.5531,398.874 Q1968.8484,398.874 1969.0734,399.1131 Q1969.3125,399.3381 1969.3125,399.6475 Q1969.3125,399.9568 1969.0031,400.3225 Q1968.5531,400.8428 1967.8359,401.1381 Q1966.8656,401.5459 1965.6984,401.5459 Q1964.3344,401.5459 1963.2516,400.9834 Q1962.3656,400.5334 1961.7469,399.5771 Q1961.1281,398.6068 1961.1281,397.4537 L1961.1281,396.4131 Q1961.1281,395.2178 1961.6766,394.1912 Q1962.2391,393.1506 1963.2234,392.6021 Q1964.2078,392.0396 1965.3188,392.0396 Q1965.9797,392.0396 1966.5563,392.1943 Q1967.1469,392.335 1967.6391,392.6584 Z " fill="#000000"/><text fill="#000000" font-family="sans-serif" font-size="10.8" font-style="italic" lengthAdjust="spacing" textLength="50.4" x="1982.7" y="392.4633">&#171;domain&#187;</text><text fill="#000000" font-family="sans-serif" font-size="12.6" lengthAdjust="spacing" textLength="60.3" x="1977.75" y="408.7705">ExtraClass</text><line style="stroke:#181818;stroke-width:0.45;" x1="1952.55" x2="2039.85" y1="416.4328" y2="416.4328"/><line style="stroke:#181818;stroke-width:0.45;" x1="1952.55" x2="2039.85" y1="423.6328" y2="423.6328"/></g><!--class CreateExtraClassController--><g id="elem_CreateExtraClassController"><rect codeLine="23" fill="#F1F1F1" height="104.8008" id="CreateExtraClassController" rx="2.25" ry="2.25" style="stroke:#181818;stroke-width:0.45;" width="619.2" x="955.8" y="184.159"/><ellipse cx="1184.175" cy="204.2209" fill="#ADD1B2" rx="9.9" ry="9.9" style="stroke:#181818;stroke-width:0.9;"/><path d="M1186.6641,200.5084 Q1186.8047,200.3115 1186.9734,200.2131 Q1187.1422,200.1146 1187.3391,200.1146 Q1187.6766,200.1146 1187.8875,200.3537 Q1188.0984,200.5787 1188.0984,201.1271 L1188.0984,202.435 Q1188.0984,202.9834 1187.8875,203.2225 Q1187.6766,203.4615 1187.3391,203.4615 Q1187.0297,203.4615 1186.8469,203.2787 Q1186.6641,203.11 1186.5656,202.6459 Q1186.5234,202.3225 1186.3547,202.1537 Q1186.0594,201.8162 1185.5109,201.6193 Q1184.9625,201.4225 1184.4,201.4225 Q1183.7109,201.4225 1183.1344,201.7178 Q1182.5719,202.0131 1182.1219,202.6881 Q1181.6859,203.3631 1181.6859,204.2912 L1181.6859,205.2756 Q1181.6859,206.3865 1182.4875,207.1318 Q1183.2891,207.8631 1184.7234,207.8631 Q1185.5672,207.8631 1186.1578,207.6381 Q1186.5094,207.4975 1186.8891,207.1037 Q1187.1281,206.8646 1187.2547,206.7943 Q1187.3953,206.724 1187.5781,206.724 Q1187.8734,206.724 1188.0984,206.9631 Q1188.3375,207.1881 1188.3375,207.4975 Q1188.3375,207.8068 1188.0281,208.1725 Q1187.5781,208.6928 1186.8609,208.9881 Q1185.8906,209.3959 1184.7234,209.3959 Q1183.3594,209.3959 1182.2766,208.8334 Q1181.3906,208.3834 1180.7719,207.4271 Q1180.1531,206.4568 1180.1531,205.3037 L1180.1531,204.2631 Q1180.1531,203.0678 1180.7016,202.0412 Q1181.2641,201.0006 1182.2484,200.4521 Q1183.2328,199.8896 1184.3438,199.8896 Q1185.0047,199.8896 1185.5813,200.0443 Q1186.1719,200.185 1186.6641,200.5084 Z " fill="#000000"/><text fill="#000000" font-family="sans-serif" font-size="10.8" font-style="italic" lengthAdjust="spacing" textLength="66.6" x="1246.725" y="200.3133">&#171;application&#187;</text><text fill="#000000" font-family="sans-serif" font-size="12.6" lengthAdjust="spacing" textLength="154.8" x="1202.625" y="216.6205">CreateExtraClassController</text><line style="stroke:#181818;stroke-width:0.45;" x1="956.7" x2="1574.1" y1="224.2828" y2="224.2828"/><line style="stroke:#181818;stroke-width:0.45;" x1="956.7" x2="1574.1" y1="231.4828" y2="231.4828"/><ellipse cx="965.7" cy="244.8123" fill="#84BE84" rx="2.7" ry="2.7" style="stroke:#038048;stroke-width:0.9;"/><text fill="#000000" font-family="sans-serif" font-size="12.6" lengthAdjust="spacing" textLength="296.1" x="973.8" y="248.6795">Iterable&lt;Course&gt; listAllTeacherCoursesInProgress()</text><ellipse cx="965.7" cy="261.5713" fill="#84BE84" rx="2.7" ry="2.7" style="stroke:#038048;stroke-width:0.9;"/><text fill="#000000" font-family="sans-serif" font-size="12.6" lengthAdjust="spacing" textLength="383.4" x="973.8" y="265.4385">Iterable&lt;Student&gt; listAllApprovedEnrollmentsStudents(courseCode)</text><ellipse cx="965.7" cy="278.3303" fill="#84BE84" rx="2.7" ry="2.7" style="stroke:#038048;stroke-width:0.9;"/><text fill="#000000" font-family="sans-serif" font-size="12.6" lengthAdjust="spacing" textLength="595.8" x="973.8" y="282.1975">Course addExtraClassToCourse(Course course, Calendar date, int duration, Iterable&lt;Student&gt; students)</text></g><!--class ListCourseService--><g id="elem_ListCourseService"><rect codeLine="29" fill="#F1F1F1" height="71.2828" id="ListCourseService" rx="2.25" ry="2.25" style="stroke:#181818;stroke-width:0.45;" width="397.8" x="1414.8" y="368.209"/><ellipse cx="1558.125" cy="388.2709" fill="#ADD1B2" rx="9.9" ry="9.9" style="stroke:#181818;stroke-width:0.9;"/><path d="M1560.6141,384.5584 Q1560.7547,384.3615 1560.9234,384.2631 Q1561.0922,384.1646 1561.2891,384.1646 Q1561.6266,384.1646 1561.8375,384.4037 Q1562.0484,384.6287 1562.0484,385.1771 L1562.0484,386.485 Q1562.0484,387.0334 1561.8375,387.2725 Q1561.6266,387.5115 1561.2891,387.5115 Q1560.9797,387.5115 1560.7969,387.3287 Q1560.6141,387.16 1560.5156,386.6959 Q1560.4734,386.3725 1560.3047,386.2037 Q1560.0094,385.8662 1559.4609,385.6693 Q1558.9125,385.4725 1558.35,385.4725 Q1557.6609,385.4725 1557.0844,385.7678 Q1556.5219,386.0631 1556.0719,386.7381 Q1555.6359,387.4131 1555.6359,388.3412 L1555.6359,389.3256 Q1555.6359,390.4365 1556.4375,391.1818 Q1557.2391,391.9131 1558.6734,391.9131 Q1559.5172,391.9131 1560.1078,391.6881 Q1560.4594,391.5475 1560.8391,391.1537 Q1561.0781,390.9146 1561.2047,390.8443 Q1561.3453,390.774 1561.5281,390.774 Q1561.8234,390.774 1562.0484,391.0131 Q1562.2875,391.2381 1562.2875,391.5475 Q1562.2875,391.8568 1561.9781,392.2225 Q1561.5281,392.7428 1560.8109,393.0381 Q1559.8406,393.4459 1558.6734,393.4459 Q1557.3094,393.4459 1556.2266,392.8834 Q1555.3406,392.4334 1554.7219,391.4771 Q1554.1031,390.5068 1554.1031,389.3537 L1554.1031,388.3131 Q1554.1031,387.1178 1554.6516,386.0912 Q1555.2141,385.0506 1556.1984,384.5021 Q1557.1828,383.9396 1558.2938,383.9396 Q1558.9547,383.9396 1559.5313,384.0943 Q1560.1219,384.235 1560.6141,384.5584 Z " fill="#000000"/><text fill="#000000" font-family="sans-serif" font-size="10.8" font-style="italic" lengthAdjust="spacing" textLength="66.6" x="1595.025" y="384.3633">&#171;application&#187;</text><text fill="#000000" font-family="sans-serif" font-size="12.6" lengthAdjust="spacing" textLength="103.5" x="1576.575" y="400.6705">ListCourseService</text><line style="stroke:#181818;stroke-width:0.45;" x1="1415.7" x2="1811.7" y1="408.3328" y2="408.3328"/><line style="stroke:#181818;stroke-width:0.45;" x1="1415.7" x2="1811.7" y1="415.5328" y2="415.5328"/><ellipse cx="1424.7" cy="428.8623" fill="#84BE84" rx="2.7" ry="2.7" style="stroke:#038048;stroke-width:0.9;"/><text fill="#000000" font-family="sans-serif" font-size="12.6" lengthAdjust="spacing" textLength="374.4" x="1432.8" y="432.7295">Iterable&lt;Course&gt; allTeacherCoursesInProgress(Teacher teacher)</text></g><!--class ListStudentService--><g id="elem_ListStudentService"><rect codeLine="32" fill="#F1F1F1" height="71.2828" id="ListStudentService" rx="2.25" ry="2.25" style="stroke:#181818;stroke-width:0.45;" width="466.2" x="829.8" y="368.209"/><ellipse cx="1005.975" cy="388.2709" fill="#ADD1B2" rx="9.9" ry="9.9" style="stroke:#181818;stroke-width:0.9;"/><path d="M1008.4641,384.5584 Q1008.6047,384.3615 1008.7734,384.2631 Q1008.9422,384.1646 1009.1391,384.1646 Q1009.4766,384.1646 1009.6875,384.4037 Q1009.8984,384.6287 1009.8984,385.1771 L1009.8984,386.485 Q1009.8984,387.0334 1009.6875,387.2725 Q1009.4766,387.5115 1009.1391,387.5115 Q1008.8297,387.5115 1008.6469,387.3287 Q1008.4641,387.16 1008.3656,386.6959 Q1008.3234,386.3725 1008.1547,386.2037 Q1007.8594,385.8662 1007.3109,385.6693 Q1006.7625,385.4725 1006.2,385.4725 Q1005.5109,385.4725 1004.9344,385.7678 Q1004.3719,386.0631 1003.9219,386.7381 Q1003.4859,387.4131 1003.4859,388.3412 L1003.4859,389.3256 Q1003.4859,390.4365 1004.2875,391.1818 Q1005.0891,391.9131 1006.5234,391.9131 Q1007.3672,391.9131 1007.9578,391.6881 Q1008.3094,391.5475 1008.6891,391.1537 Q1008.9281,390.9146 1009.0547,390.8443 Q1009.1953,390.774 1009.3781,390.774 Q1009.6734,390.774 1009.8984,391.0131 Q1010.1375,391.2381 1010.1375,391.5475 Q1010.1375,391.8568 1009.8281,392.2225 Q1009.3781,392.7428 1008.6609,393.0381 Q1007.6906,393.4459 1006.5234,393.4459 Q1005.1594,393.4459 1004.0766,392.8834 Q1003.1906,392.4334 1002.5719,391.4771 Q1001.9531,390.5068 1001.9531,389.3537 L1001.9531,388.3131 Q1001.9531,387.1178 1002.5016,386.0912 Q1003.0641,385.0506 1004.0484,384.5021 Q1005.0328,383.9396 1006.1438,383.9396 Q1006.8047,383.9396 1007.3813,384.0943 Q1007.9719,384.235 1008.4641,384.5584 Z " fill="#000000"/><text fill="#000000" font-family="sans-serif" font-size="10.8" font-style="italic" lengthAdjust="spacing" textLength="66.6" x="1044.225" y="384.3633">&#171;application&#187;</text><text fill="#000000" font-family="sans-serif" font-size="12.6" lengthAdjust="spacing" textLength="106.2" x="1024.425" y="400.6705">ListStudentService</text><line style="stroke:#181818;stroke-width:0.45;" x1="830.7" x2="1295.1" y1="408.3328" y2="408.3328"/><line style="stroke:#181818;stroke-width:0.45;" x1="830.7" x2="1295.1" y1="415.5328" y2="415.5328"/><ellipse cx="839.7" cy="428.8623" fill="#84BE84" rx="2.7" ry="2.7" style="stroke:#038048;stroke-width:0.9;"/><text fill="#000000" font-family="sans-serif" font-size="12.6" lengthAdjust="spacing" textLength="442.8" x="847.8" y="432.7295">Iterable&lt;Student&gt; allApprovedEnrollmentsStudents(CourseCode courseCode)</text></g><!--class CourseRepository--><g id="elem_CourseRepository"><rect codeLine="36" fill="#F1F1F1" height="88.0418" id="CourseRepository" rx="2.25" ry="2.25" style="stroke:#181818;stroke-width:0.45;" width="419.4" x="1435.5" y="518.959"/><ellipse cx="1590.075" cy="539.0209" fill="#B4A7E5" rx="9.9" ry="9.9" style="stroke:#181818;stroke-width:0.9;"/><path d="M1590.9328,535.9975 L1590.9328,541.9881 L1592.4797,541.9881 Q1593.0281,541.9881 1593.2672,542.199 Q1593.5063,542.41 1593.5063,542.7615 Q1593.5063,543.099 1593.2672,543.31 Q1593.0281,543.5209 1592.4797,543.5209 L1587.8531,543.5209 Q1587.3047,543.5209 1587.0656,543.31 Q1586.8266,543.099 1586.8266,542.7475 Q1586.8266,542.41 1587.0656,542.199 Q1587.3047,541.9881 1587.8531,541.9881 L1589.4,541.9881 L1589.4,535.9975 L1587.8531,535.9975 Q1587.3047,535.9975 1587.0656,535.7865 Q1586.8266,535.5756 1586.8266,535.224 Q1586.8266,534.8865 1587.0656,534.6756 Q1587.3047,534.4646 1587.8531,534.4646 L1592.4797,534.4646 Q1593.0281,534.4646 1593.2672,534.6756 Q1593.5063,534.8865 1593.5063,535.224 Q1593.5063,535.5756 1593.2672,535.7865 Q1593.0281,535.9975 1592.4797,535.9975 L1590.9328,535.9975 Z " fill="#000000"/><text fill="#000000" font-family="sans-serif" font-size="10.8" font-style="italic" lengthAdjust="spacing" textLength="70.2" x="1624.725" y="535.1133">&#171;repositories&#187;</text><text fill="#000000" font-family="sans-serif" font-size="12.6" font-style="italic" lengthAdjust="spacing" textLength="102.6" x="1608.525" y="551.4205">CourseRepository</text><line style="stroke:#181818;stroke-width:0.45;" x1="1436.4" x2="1854" y1="559.0828" y2="559.0828"/><line style="stroke:#181818;stroke-width:0.45;" x1="1436.4" x2="1854" y1="566.2828" y2="566.2828"/><ellipse cx="1445.4" cy="579.6123" fill="#84BE84" rx="2.7" ry="2.7" style="stroke:#038048;stroke-width:0.9;"/><text fill="#000000" font-family="sans-serif" font-size="12.6" lengthAdjust="spacing" textLength="396" x="1453.5" y="583.4795">Iterable&lt;Course&gt; findAllTeacherCoursesInProgress(Teacher teacher)</text><ellipse cx="1445.4" cy="596.3713" fill="#84BE84" rx="2.7" ry="2.7" style="stroke:#038048;stroke-width:0.9;"/><text fill="#000000" font-family="sans-serif" font-size="12.6" lengthAdjust="spacing" textLength="164.7" x="1453.5" y="600.2385">Course save(Course course)</text></g><!--class StudentRepository--><g id="elem_StudentRepository"><rect codeLine="40" fill="#F1F1F1" height="71.2828" id="StudentRepository" rx="2.25" ry="2.25" style="stroke:#181818;stroke-width:0.45;" width="457.2" x="545.4" y="527.509"/><ellipse cx="717.525" cy="547.5709" fill="#B4A7E5" rx="9.9" ry="9.9" style="stroke:#181818;stroke-width:0.9;"/><path d="M718.3828,544.5475 L718.3828,550.5381 L719.9297,550.5381 Q720.4781,550.5381 720.7172,550.749 Q720.9563,550.96 720.9563,551.3115 Q720.9563,551.649 720.7172,551.86 Q720.4781,552.0709 719.9297,552.0709 L715.3031,552.0709 Q714.7547,552.0709 714.5156,551.86 Q714.2766,551.649 714.2766,551.2975 Q714.2766,550.96 714.5156,550.749 Q714.7547,550.5381 715.3031,550.5381 L716.85,550.5381 L716.85,544.5475 L715.3031,544.5475 Q714.7547,544.5475 714.5156,544.3365 Q714.2766,544.1256 714.2766,543.774 Q714.2766,543.4365 714.5156,543.2256 Q714.7547,543.0146 715.3031,543.0146 L719.9297,543.0146 Q720.4781,543.0146 720.7172,543.2256 Q720.9563,543.4365 720.9563,543.774 Q720.9563,544.1256 720.7172,544.3365 Q720.4781,544.5475 719.9297,544.5475 L718.3828,544.5475 Z " fill="#000000"/><text fill="#000000" font-family="sans-serif" font-size="10.8" font-style="italic" lengthAdjust="spacing" textLength="70.2" x="753.525" y="543.6633">&#171;repositories&#187;</text><text fill="#000000" font-family="sans-serif" font-size="12.6" font-style="italic" lengthAdjust="spacing" textLength="105.3" x="735.975" y="559.9705">StudentRepository</text><line style="stroke:#181818;stroke-width:0.45;" x1="546.3" x2="1001.7" y1="567.6328" y2="567.6328"/><line style="stroke:#181818;stroke-width:0.45;" x1="546.3" x2="1001.7" y1="574.8328" y2="574.8328"/><ellipse cx="555.3" cy="588.1623" fill="#84BE84" rx="2.7" ry="2.7" style="stroke:#038048;stroke-width:0.9;"/><text fill="#000000" font-family="sans-serif" font-size="12.6" lengthAdjust="spacing" textLength="433.8" x="563.4" y="592.0295">Iterable&lt;Student&gt; findAllApprovedEnrollmentsStudents(Course courseCode)</text></g><!--link CreateExtraClassUI to CreateExtraClassController--><g id="link_CreateExtraClassUI_CreateExtraClassController"><path codeLine="45" d="M1265.4,113.266 C1265.4,132.67 1265.4,157.285 1265.4,179.335 " fill="none" id="CreateExtraClassUI-to-CreateExtraClassController" style="stroke:#181818;stroke-width:0.9;"/><polygon fill="#181818" points="1265.4,183.997,1269,175.897,1265.4,179.497,1261.8,175.897,1265.4,183.997" style="stroke:#181818;stroke-width:0.9;"/><text fill="#000000" font-family="sans-serif" font-size="11.7" lengthAdjust="spacing" textLength="65.7" x="1266.3" y="153.5845">theController</text></g><!--link CreateExtraClassController to CourseRepository--><g id="link_CreateExtraClassController_CourseRepository"><path codeLine="46" d="M1287.126,288.694 C1310.994,343.243 1349.253,424.693 1374.3,447.859 C1406.385,477.541 1447.317,500.149 1487.592,517.105 " fill="none" id="CreateExtraClassController-to-CourseRepository" style="stroke:#181818;stroke-width:0.9;"/><polygon fill="#181818" points="1491.984,518.932,1485.8818,512.5029,1487.8275,517.2076,1483.1228,519.1533,1491.984,518.932" style="stroke:#181818;stroke-width:0.9;"/><text fill="#000000" font-family="sans-serif" font-size="11.7" lengthAdjust="spacing" textLength="22.5" x="1375.2" y="408.7345">repo</text></g><!--link CreateExtraClassController to StudentRepository--><g id="link_CreateExtraClassController_StudentRepository"><path codeLine="47" d="M955.566,287.776 C880.128,306.352 813.96,330.22 789.3,359.659 C751.329,404.992 756.549,477.856 764.658,522.712 " fill="none" id="CreateExtraClassController-to-StudentRepository" style="stroke:#181818;stroke-width:0.9;"/><polygon fill="#181818" points="765.504,527.23,767.5617,518.6082,764.6809,522.8059,760.4832,519.9251,765.504,527.23" style="stroke:#181818;stroke-width:0.9;"/><text fill="#000000" font-family="sans-serif" font-size="11.7" lengthAdjust="spacing" textLength="22.5" x="790.2" y="408.7345">repo</text></g><!--link CreateExtraClassController to ListCourseService--><g id="link_CreateExtraClassController_ListCourseService"><path codeLine="48" d="M1373.454,288.631 C1426.194,313.705 1488.429,343.297 1536.336,366.076 " fill="none" id="CreateExtraClassController-to-ListCourseService" style="stroke:#181818;stroke-width:0.9;"/><polygon fill="#181818" points="1540.638,368.119,1534.8817,361.3784,1536.5777,366.1788,1531.7774,367.8749,1540.638,368.119" style="stroke:#181818;stroke-width:0.9;"/><text fill="#000000" font-family="sans-serif" font-size="11.7" lengthAdjust="spacing" textLength="36" x="1461.6" y="329.0845">service</text></g><!--link CreateExtraClassController to ListStudentService--><g id="link_CreateExtraClassController_ListStudentService"><path codeLine="49" d="M1202.436,288.748 C1172.214,313.462 1136.655,342.541 1108.998,365.167 " fill="none" id="CreateExtraClassController-to-ListStudentService" style="stroke:#181818;stroke-width:0.9;"/><polygon fill="#181818" points="1105.317,368.173,1113.8695,365.8438,1108.8044,365.329,1109.3191,360.2639,1105.317,368.173" style="stroke:#181818;stroke-width:0.9;"/><text fill="#000000" font-family="sans-serif" font-size="11.7" lengthAdjust="spacing" textLength="36" x="1165.5" y="329.0845">service</text></g><!--link CreateExtraClassController to Course--><g id="link_CreateExtraClassController_Course"><path codeLine="50" d="M955.683,264.52 C857.43,276.418 748.854,292.96 650.7,315.559 C603.54,326.422 552.852,342.532 508.968,357.958 " fill="none" id="CreateExtraClassController-to-Course" style="stroke:#181818;stroke-width:0.9;"/><polygon fill="#181818" points="504.477,359.551,513.3144,360.2373,508.7183,358.0472,510.9084,353.4512,504.477,359.551" style="stroke:#181818;stroke-width:0.9;"/><text fill="#000000" font-family="sans-serif" font-size="11.7" lengthAdjust="spacing" textLength="35.1" x="651.6" y="329.0845">course</text></g><!--link CreateExtraClassController to Student--><g id="link_CreateExtraClassController_Student"><path codeLine="51" d="M1486.836,288.595 C1551.708,303.256 1622.817,318.961 1688.4,332.659 C1750.599,345.655 1771.218,332.794 1828.8,359.659 C1836.432,363.223 1843.911,368.119 1850.733,373.348 " fill="none" id="CreateExtraClassController-to-Student" style="stroke:#181818;stroke-width:0.9;"/><polygon fill="#181818" points="1854.45,376.273,1850.3213,368.4293,1850.9174,373.4854,1845.8612,374.0815,1854.45,376.273" style="stroke:#181818;stroke-width:0.9;"/><text fill="#000000" font-family="sans-serif" font-size="11.7" lengthAdjust="spacing" textLength="38.7" x="1689.3" y="329.0845">student</text></g><!--link CreateExtraClassController to Teacher--><g id="link_CreateExtraClassController_Teacher"><path codeLine="52" d="M955.782,254.557 C851.238,265.888 750.708,284.617 710.1,315.559 C692.469,328.996 682.929,352.342 677.853,371.521 " fill="none" id="CreateExtraClassController-to-Teacher" style="stroke:#181818;stroke-width:0.9;"/><polygon fill="#181818" points="676.71,376.039,682.1719,369.0577,677.8044,371.6741,675.1881,367.3066,676.71,376.039" style="stroke:#181818;stroke-width:0.9;"/><text fill="#000000" font-family="sans-serif" font-size="11.7" lengthAdjust="spacing" textLength="38.7" x="711" y="329.0845">teacher</text></g><!--link CreateExtraClassController to ExtraClass--><g id="link_CreateExtraClassController_ExtraClass"><path codeLine="53" d="M1575.288,262.747 C1691.982,280.261 1823.544,309.808 1935.9,359.659 C1944.297,363.385 1952.694,368.389 1960.443,373.663 " fill="none" id="CreateExtraClassController-to-ExtraClass" style="stroke:#181818;stroke-width:0.9;"/><polygon fill="#181818" points="1964.187,376.273,1959.5997,368.6884,1960.495,373.7002,1955.4832,374.5955,1964.187,376.273" style="stroke:#181818;stroke-width:0.9;"/><text fill="#000000" font-family="sans-serif" font-size="11.7" lengthAdjust="spacing" textLength="55.8" x="1867.5" y="329.0845">extraClass</text></g><!--link Course to CourseCode--><g id="link_Course_CourseCode"><path codeLine="54" d="M277.623,447.886 C228.825,467.623 171.891,492.499 122.4,518.959 C114.435,523.216 106.2,528.166 98.361,533.152 " fill="none" id="Course-to-CourseCode" style="stroke:#181818;stroke-width:0.9;"/><polygon fill="#181818" points="94.545,535.6,103.302,534.227,98.3244,533.1575,99.394,528.1799,94.545,535.6" style="stroke:#181818;stroke-width:0.9;"/><text fill="#000000" font-family="sans-serif" font-size="11.7" lengthAdjust="spacing" textLength="62.1" x="210.6" y="488.3845">courseCode</text></g><!--link JpaCourseRepository to CourseRepository--><g id="link_JpaCourseRepository_CourseRepository"><path codeLine="55" d="M1136.475,535.492 C1156.671,516.799 1186.137,493.678 1217.25,483.409 C1326.996,447.193 1458.324,482.662 1546.299,517.105 " fill="none" id="JpaCourseRepository-to-CourseRepository" style="stroke:#181818;stroke-width:0.9;"/><polygon fill="#181818" points="1550.718,518.842,1544.4941,512.5307,1546.5293,517.1973,1541.8626,519.2326,1550.718,518.842" style="stroke:#181818;stroke-width:0.9;"/></g><!--link InMemoryCourseRepository to CourseRepository--><g id="link_InMemoryCourseRepository_CourseRepository"><path codeLine="56" d="M1403.586,563.059 C1412.622,563.059 1421.667,563.059 1430.703,563.059 " fill="none" id="InMemoryCourseRepository-to-CourseRepository" style="stroke:#181818;stroke-width:0.9;"/><polygon fill="#181818" points="1435.437,563.059,1427.337,559.459,1430.937,563.059,1427.337,566.659,1435.437,563.059" style="stroke:#181818;stroke-width:0.9;"/></g><!--link JpaStudentRepository to StudentRepository--><g id="link_JpaStudentRepository_StudentRepository"><path codeLine="57" d="M513.621,563.059 C522.576,563.059 531.522,563.059 540.477,563.059 " fill="none" id="JpaStudentRepository-to-StudentRepository" style="stroke:#181818;stroke-width:0.9;"/><polygon fill="#181818" points="545.157,563.059,537.057,559.459,540.657,563.059,537.057,566.659,545.157,563.059" style="stroke:#181818;stroke-width:0.9;"/></g><!--link InMemoryStudentRepository to StudentRepository--><g id="link_InMemoryStudentRepository_StudentRepository"><path codeLine="58" d="M265.446,535.42 C289.611,516.691 324.405,493.552 359.55,483.409 C473.949,450.379 610.11,491.383 694.314,525.736 " fill="none" id="InMemoryStudentRepository-to-StudentRepository" style="stroke:#181818;stroke-width:0.9;"/><polygon fill="#181818" points="698.535,527.464,692.4088,521.0577,694.3721,525.7551,689.6747,527.7184,698.535,527.464" style="stroke:#181818;stroke-width:0.9;"/></g><!--link CreateExtraClassUI to Course--><g id="link_CreateExtraClassUI_Course"><path codeLine="61" d="M1196.037,84.169 C1051.515,97.075 723.456,131.392 625.5,184.159 C545.112,227.458 471.753,305.452 429.606,355.654 " fill="none" id="CreateExtraClassUI-to-Course" style="stroke:#181818;stroke-width:0.9;stroke-dasharray:7.0,7.0;"/><polygon fill="#181818" points="426.627,359.218,434.5838,355.3117,429.5129,355.7652,429.0594,350.6943,426.627,359.218" style="stroke:#181818;stroke-width:0.9;"/></g><!--link CreateExtraClassUI to Student--><g id="link_CreateExtraClassUI_Student"><path codeLine="62" d="M1334.799,87.805 C1455.39,107.767 1704.096,165.529 1844.1,315.559 C1858.743,331.255 1868.265,353.521 1874.088,371.638 " fill="none" id="CreateExtraClassUI-to-Student" style="stroke:#181818;stroke-width:0.9;stroke-dasharray:7.0,7.0;"/><polygon fill="#181818" points="1875.492,376.147,1876.5211,367.343,1874.1542,371.8505,1869.6467,369.4835,1875.492,376.147" style="stroke:#181818;stroke-width:0.9;"/></g><!--link CreateExtraClassUI to Teacher--><g id="link_CreateExtraClassUI_Teacher"><path codeLine="63" d="M1195.965,78.949 C1055.862,84.295 741.285,118.756 607.5,315.559 C603.225,321.841 604.737,325.585 607.5,332.659 C613.359,347.635 624.078,361.342 635.13,372.583 " fill="none" id="CreateExtraClassUI-to-Teacher" style="stroke:#181818;stroke-width:0.9;stroke-dasharray:7.0,7.0;"/><polygon fill="#181818" points="638.568,375.994,635.3526,367.7338,635.3732,372.8249,630.282,372.8455,638.568,375.994" style="stroke:#181818;stroke-width:0.9;"/></g><!--link CreateExtraClassUI to ExtraClass--><g id="link_CreateExtraClassUI_ExtraClass"><path codeLine="64" d="M1334.736,80.803 C1434.357,86.896 1621.107,108.424 1758.6,184.159 C1849.059,233.983 1932.354,325.333 1971.963,372.655 " fill="none" id="CreateExtraClassUI-to-ExtraClass" style="stroke:#181818;stroke-width:0.9;stroke-dasharray:7.0,7.0;"/><polygon fill="#181818" points="1974.969,376.264,1972.5522,367.7358,1972.0894,372.8059,1967.0193,372.3431,1974.969,376.264" style="stroke:#181818;stroke-width:0.9;"/></g><!--link ListCourseService to CourseRepository--><g id="link_ListCourseService_CourseRepository"><path codeLine="65" d="M1620.693,439.615 C1625.094,461.629 1630.836,490.33 1635.651,514.423 " fill="none" id="ListCourseService-to-CourseRepository" style="stroke:#181818;stroke-width:0.9;stroke-dasharray:7.0,7.0;"/><polygon fill="#181818" points="1636.542,518.869,1638.4787,510.2192,1635.657,514.4569,1631.4193,511.6352,1636.542,518.869" style="stroke:#181818;stroke-width:0.9;"/></g><!--link ListStudentService to StudentRepository--><g id="link_ListStudentService_StudentRepository"><path codeLine="66" d="M999.144,439.417 C952.434,464.887 889.146,499.384 841.572,525.322 " fill="none" id="ListStudentService-to-StudentRepository" style="stroke:#181818;stroke-width:0.9;stroke-dasharray:7.0,7.0;"/><polygon fill="#181818" points="837.594,527.491,846.4278,526.7606,841.5416,525.3307,842.9714,520.4445,837.594,527.491" style="stroke:#181818;stroke-width:0.9;"/></g><!--SRC=[bLLTQzim57tNhn3i8GvDe84z31CCgTD2nZR6alPbx46nRXDrYcKanLiP_U-JRVaZZlnHlrYsxhawzzmZIJFD0OUSA8NNZ1maEM4lN4_n73zkyU9siK1eaa-3Gb4U5aeW6kx_QadoYSSDNYuJ2GfYJJGJSH3WVmYRXuhjKVpnfkWDMUpdX8JYB1NyW4GefeLypS0W5LCQuWWox9iDtiHVuMGYnYDC-gq-KqFaFVb7GShYSoucW8eJONMfDz4HejysargbX76oPvpfLyz2elmrmniDakmvB6rmW9L5JOjCXD9QNAyUOgY6cQ9DFg6W6IVlQOO_F3nykljuEyKfuMV0Oly2aGu26xu3OeZA2_vbAil7ETTWSJdTuObGn5eAplEbI99m5brQuwQIeQWWmDp8lUBSCYp-gatyNOg3yPRofYrS9Py5hf94YXJeVPmjVCe4BTlXHPLADeljoONKEr7yRJSi91nYIYIcfiGPPaOYUfPvEVtThDJvOXWMIRSWKnP1MvGkJKYF7cKhTV6kBP6jPjcCNAxYJlfbR9YjgQYfquW2yfcOfHoRLPOV35IF0PvPJ5VlARZPIKNILkCoNZKjrnuVu5MfOeaDAzDMPVADfEoGYuuSf-Py7lHj71_h8zJVg2SqpzGMtiTPWKEmQs76uQuzxMDLZCP0MmOTZRL2-rRgaTLb-OlH4A0qcL_QR0ZGE1dznWcDBD6QSxvj_8P5aEioT3GITTw3hc3d5UZgC-g-_fpXQBA6n1o4vaeq-yNfvv-Kg2FGNnMleQXjHrDQORkELhJ2wWbqxSvhSetQ78vqq6m0_WC0]--></g></svg>