<?xml version="1.0" encoding="us-ascii" standalone="no"?><svg xmlns="http://www.w3.org/2000/svg" xmlns:xlink="http://www.w3.org/1999/xlink" contentStyleType="text/css" height="675px" preserveAspectRatio="none" style="width:1805px;height:675px;background:#FFFFFF;" version="1.1" viewBox="0 0 1805 675" width="1805px" zoomAndPan="magnify"><defs/><g><text fill="#000000" font-family="sans-serif" font-size="14" font-weight="bold" lengthAdjust="spacing" textLength="213" x="789.25" y="25.1074">Domain Classes (DC) - US 1011</text><!--cluster <<aggregate>> Student--><g id="cluster_&lt;&lt;aggregate&gt;&gt; Student"><path d="M1297.5,416.1348 L1445.5,416.1348 A3.75,3.75 0 0 1 1448,418.6348 L1455,440.7559 L1510.5,440.7559 A2.5,2.5 0 0 1 1513,443.2559 L1513,665.6348 A2.5,2.5 0 0 1 1510.5,668.1348 L1297.5,668.1348 A2.5,2.5 0 0 1 1295,665.6348 L1295,418.6348 A2.5,2.5 0 0 1 1297.5,416.1348 " fill="none" style="stroke:#000000;stroke-width:1.5;"/><line style="stroke:#000000;stroke-width:1.5;" x1="1295" x2="1455" y1="440.7559" y2="440.7559"/><text fill="#000000" font-family="sans-serif" font-size="14" font-weight="bold" lengthAdjust="spacing" textLength="147" x="1299" y="433.2422">&#171;aggregate&#187; Student</text></g><!--cluster <<aggregate>> Teacher--><g id="cluster_&lt;&lt;aggregate&gt;&gt; Teacher"><path d="M1108.5,416.1348 L1258.5,416.1348 A3.75,3.75 0 0 1 1261,418.6348 L1268,440.7559 L1268.5,440.7559 A2.5,2.5 0 0 1 1271,443.2559 L1271,665.6348 A2.5,2.5 0 0 1 1268.5,668.1348 L1108.5,668.1348 A2.5,2.5 0 0 1 1106,665.6348 L1106,418.6348 A2.5,2.5 0 0 1 1108.5,416.1348 " fill="none" style="stroke:#000000;stroke-width:1.5;"/><line style="stroke:#000000;stroke-width:1.5;" x1="1106" x2="1268" y1="440.7559" y2="440.7559"/><text fill="#000000" font-family="sans-serif" font-size="14" font-weight="bold" lengthAdjust="spacing" textLength="149" x="1110" y="433.2422">&#171;aggregate&#187; Teacher</text></g><!--cluster <<aggregate>> Course--><g id="cluster_&lt;&lt;aggregate&gt;&gt; Course"><path d="M8.5,45.6348 L152.5,45.6348 A3.75,3.75 0 0 1 155,48.1348 L162,70.2559 L988.5,70.2559 A2.5,2.5 0 0 1 991,72.7559 L991,362.6348 A2.5,2.5 0 0 1 988.5,365.1348 L8.5,365.1348 A2.5,2.5 0 0 1 6,362.6348 L6,48.1348 A2.5,2.5 0 0 1 8.5,45.6348 " fill="none" style="stroke:#000000;stroke-width:1.5;"/><line style="stroke:#000000;stroke-width:1.5;" x1="6" x2="162" y1="70.2559" y2="70.2559"/><text fill="#000000" font-family="sans-serif" font-size="14" font-weight="bold" lengthAdjust="spacing" textLength="143" x="10" y="62.7422">&#171;aggregate&#187; Course</text></g><!--cluster <<aggregate>> ExtraClass--><g id="cluster_&lt;&lt;aggregate&gt;&gt; ExtraClass"><path d="M1335.5,224.6348 L1502.5,224.6348 A3.75,3.75 0 0 1 1505,227.1348 L1512,249.2559 L1512.5,249.2559 A2.5,2.5 0 0 1 1515,251.7559 L1515,352.1348 A2.5,2.5 0 0 1 1512.5,354.6348 L1335.5,354.6348 A2.5,2.5 0 0 1 1333,352.1348 L1333,227.1348 A2.5,2.5 0 0 1 1335.5,224.6348 " fill="none" style="stroke:#000000;stroke-width:1.5;"/><line style="stroke:#000000;stroke-width:1.5;" x1="1333" x2="1512" y1="249.2559" y2="249.2559"/><text fill="#000000" font-family="sans-serif" font-size="14" font-weight="bold" lengthAdjust="spacing" textLength="166" x="1337" y="241.7422">&#171;aggregate&#187; ExtraClass</text></g><!--class Student--><g id="elem_Student"><rect codeLine="7" fill="#F1F1F1" height="76.543" id="Student" rx="2.5" ry="2.5" style="stroke:#181818;stroke-width:0.5;" width="81" x="1363.5" y="453.1348"/><ellipse cx="1378.5" cy="483.4063" fill="#ADD1B2" rx="11" ry="11" style="stroke:#181818;stroke-width:1.0;"/><path d="M1377.3594,484.2031 L1377.3594,486.7031 L1381.6875,486.7031 L1381.6875,485.7813 Q1381.6875,485.1719 1381.9219,484.9063 Q1382.1719,484.6406 1382.5469,484.6406 Q1382.9219,484.6406 1383.1563,484.9063 Q1383.3906,485.1719 1383.3906,485.7813 L1383.3906,488.4063 L1375.3906,488.4063 Q1374.7656,488.4063 1374.5,488.1719 Q1374.25,487.9375 1374.25,487.5469 Q1374.25,487.1719 1374.5156,486.9375 Q1374.7813,486.7031 1375.3906,486.7031 L1375.6563,486.7031 L1375.6563,480.0469 L1375.3906,480.0469 Q1374.7656,480.0469 1374.5,479.8125 Q1374.25,479.5781 1374.25,479.1875 Q1374.25,478.8125 1374.5,478.5781 Q1374.7656,478.3438 1375.3906,478.3438 L1383.0156,478.3438 L1383.0156,480.9375 Q1383.0156,481.5469 1382.7813,481.8125 Q1382.5625,482.0625 1382.1719,482.0625 Q1381.7969,482.0625 1381.5625,481.8125 Q1381.3281,481.5469 1381.3281,480.9375 L1381.3281,480.0469 L1377.3594,480.0469 L1377.3594,482.5 L1378.8438,482.5 Q1378.8438,481.8438 1378.9688,481.6563 Q1379.2344,481.25 1379.7031,481.25 Q1380.0781,481.25 1380.3125,481.5156 Q1380.5469,481.7656 1380.5469,482.375 L1380.5469,484.3438 Q1380.5469,484.8906 1380.4219,485.0781 Q1380.1563,485.4688 1379.7031,485.4688 Q1379.2344,485.4688 1378.9688,485.0625 Q1378.8438,484.875 1378.8438,484.2031 L1377.3594,484.2031 Z " fill="#000000"/><text fill="#000000" font-family="sans-serif" font-size="12" font-style="italic" lengthAdjust="spacing" textLength="43" x="1395.5" y="471.084">&#171;entity&#187;</text><text fill="#000000" font-family="sans-serif" font-size="12" font-style="italic" lengthAdjust="spacing" textLength="35" x="1399.5" y="487.0449">&#171;root&#187;</text><text fill="#000000" font-family="sans-serif" font-size="14" lengthAdjust="spacing" textLength="49" x="1392.5" y="505.1641">Student</text><line style="stroke:#181818;stroke-width:0.5;" x1="1364.5" x2="1443.5" y1="513.6777" y2="513.6777"/><line style="stroke:#181818;stroke-width:0.5;" x1="1364.5" x2="1443.5" y1="521.6777" y2="521.6777"/></g><!--class MechanographicNumber--><g id="elem_MechanographicNumber"><rect codeLine="8" fill="#F1F1F1" height="60.582" id="MechanographicNumber" rx="2.5" ry="2.5" style="stroke:#181818;stroke-width:0.5;" width="186" x="1311" y="591.1348"/><ellipse cx="1326" cy="613.4258" fill="#FF8B40" rx="11" ry="11" style="stroke:#181818;stroke-width:1.0;"/><path d="M1326.5938,616.6914 L1329.0625,610.8164 L1328.6719,610.8164 Q1328.0625,610.8164 1327.7969,610.582 Q1327.5313,610.3477 1327.5313,609.957 Q1327.5313,609.582 1327.7969,609.3477 Q1328.0625,609.1133 1328.6719,609.1133 L1330.9531,609.1133 Q1331.5625,609.1133 1331.8281,609.3477 Q1332.0938,609.582 1332.0938,609.957 Q1332.0938,610.4258 1331.6875,610.6914 Q1331.5,610.8164 1330.9063,610.8164 L1327.4219,619.1758 L1325.7813,619.1758 L1322.2969,610.8164 Q1321.7031,610.8164 1321.5156,610.6914 Q1321.1094,610.4258 1321.1094,609.957 Q1321.1094,609.582 1321.375,609.3477 Q1321.6406,609.1133 1322.25,609.1133 L1324.5469,609.1133 Q1325.1563,609.1133 1325.4063,609.3477 Q1325.6719,609.582 1325.6719,609.957 Q1325.6719,610.3477 1325.4063,610.582 Q1325.1563,610.8164 1324.5469,610.8164 L1324.1406,610.8164 L1326.5938,616.6914 Z " fill="#000000"/><text fill="#000000" font-family="sans-serif" font-size="12" font-style="italic" lengthAdjust="spacing" textLength="81" x="1376.5" y="609.084">&#171;value object&#187;</text><text fill="#000000" font-family="sans-serif" font-size="14" lengthAdjust="spacing" textLength="154" x="1340" y="627.2031">MechanographicNumber</text><line style="stroke:#181818;stroke-width:0.5;" x1="1312" x2="1496" y1="635.7168" y2="635.7168"/><line style="stroke:#181818;stroke-width:0.5;" x1="1312" x2="1496" y1="643.7168" y2="643.7168"/></g><!--class Teacher--><g id="elem_Teacher"><rect codeLine="13" fill="#F1F1F1" height="76.543" id="Teacher" rx="2.5" ry="2.5" style="stroke:#181818;stroke-width:0.5;" width="85" x="1166.5" y="453.1348"/><ellipse cx="1181.5" cy="483.4063" fill="#ADD1B2" rx="11" ry="11" style="stroke:#181818;stroke-width:1.0;"/><path d="M1180.3594,484.2031 L1180.3594,486.7031 L1184.6875,486.7031 L1184.6875,485.7813 Q1184.6875,485.1719 1184.9219,484.9063 Q1185.1719,484.6406 1185.5469,484.6406 Q1185.9219,484.6406 1186.1563,484.9063 Q1186.3906,485.1719 1186.3906,485.7813 L1186.3906,488.4063 L1178.3906,488.4063 Q1177.7656,488.4063 1177.5,488.1719 Q1177.25,487.9375 1177.25,487.5469 Q1177.25,487.1719 1177.5156,486.9375 Q1177.7813,486.7031 1178.3906,486.7031 L1178.6563,486.7031 L1178.6563,480.0469 L1178.3906,480.0469 Q1177.7656,480.0469 1177.5,479.8125 Q1177.25,479.5781 1177.25,479.1875 Q1177.25,478.8125 1177.5,478.5781 Q1177.7656,478.3438 1178.3906,478.3438 L1186.0156,478.3438 L1186.0156,480.9375 Q1186.0156,481.5469 1185.7813,481.8125 Q1185.5625,482.0625 1185.1719,482.0625 Q1184.7969,482.0625 1184.5625,481.8125 Q1184.3281,481.5469 1184.3281,480.9375 L1184.3281,480.0469 L1180.3594,480.0469 L1180.3594,482.5 L1181.8438,482.5 Q1181.8438,481.8438 1181.9688,481.6563 Q1182.2344,481.25 1182.7031,481.25 Q1183.0781,481.25 1183.3125,481.5156 Q1183.5469,481.7656 1183.5469,482.375 L1183.5469,484.3438 Q1183.5469,484.8906 1183.4219,485.0781 Q1183.1563,485.4688 1182.7031,485.4688 Q1182.2344,485.4688 1181.9688,485.0625 Q1181.8438,484.875 1181.8438,484.2031 L1180.3594,484.2031 Z " fill="#000000"/><text fill="#000000" font-family="sans-serif" font-size="12" font-style="italic" lengthAdjust="spacing" textLength="43" x="1200.5" y="471.084">&#171;entity&#187;</text><text fill="#000000" font-family="sans-serif" font-size="12" font-style="italic" lengthAdjust="spacing" textLength="35" x="1204.5" y="487.0449">&#171;root&#187;</text><text fill="#000000" font-family="sans-serif" font-size="14" lengthAdjust="spacing" textLength="53" x="1195.5" y="505.1641">Teacher</text><line style="stroke:#181818;stroke-width:0.5;" x1="1167.5" x2="1250.5" y1="513.6777" y2="513.6777"/><line style="stroke:#181818;stroke-width:0.5;" x1="1167.5" x2="1250.5" y1="521.6777" y2="521.6777"/></g><!--class Acronym--><g id="elem_Acronym"><rect codeLine="14" fill="#F1F1F1" height="60.582" id="Acronym" rx="2.5" ry="2.5" style="stroke:#181818;stroke-width:0.5;" width="109" x="1145.5" y="591.1348"/><ellipse cx="1160.5" cy="613.4258" fill="#FF8B40" rx="11" ry="11" style="stroke:#181818;stroke-width:1.0;"/><path d="M1161.0938,616.6914 L1163.5625,610.8164 L1163.1719,610.8164 Q1162.5625,610.8164 1162.2969,610.582 Q1162.0313,610.3477 1162.0313,609.957 Q1162.0313,609.582 1162.2969,609.3477 Q1162.5625,609.1133 1163.1719,609.1133 L1165.4531,609.1133 Q1166.0625,609.1133 1166.3281,609.3477 Q1166.5938,609.582 1166.5938,609.957 Q1166.5938,610.4258 1166.1875,610.6914 Q1166,610.8164 1165.4063,610.8164 L1161.9219,619.1758 L1160.2813,619.1758 L1156.7969,610.8164 Q1156.2031,610.8164 1156.0156,610.6914 Q1155.6094,610.4258 1155.6094,609.957 Q1155.6094,609.582 1155.875,609.3477 Q1156.1406,609.1133 1156.75,609.1133 L1159.0469,609.1133 Q1159.6563,609.1133 1159.9063,609.3477 Q1160.1719,609.582 1160.1719,609.957 Q1160.1719,610.3477 1159.9063,610.582 Q1159.6563,610.8164 1159.0469,610.8164 L1158.6406,610.8164 L1161.0938,616.6914 Z " fill="#000000"/><text fill="#000000" font-family="sans-serif" font-size="12" font-style="italic" lengthAdjust="spacing" textLength="81" x="1172.5" y="609.084">&#171;value object&#187;</text><text fill="#000000" font-family="sans-serif" font-size="14" lengthAdjust="spacing" textLength="55" x="1185.5" y="627.2031">Acronym</text><line style="stroke:#181818;stroke-width:0.5;" x1="1146.5" x2="1253.5" y1="635.7168" y2="635.7168"/><line style="stroke:#181818;stroke-width:0.5;" x1="1146.5" x2="1253.5" y1="643.7168" y2="643.7168"/></g><!--class Course--><g id="elem_Course"><rect codeLine="19" fill="#F1F1F1" height="76.543" id="Course" rx="2.5" ry="2.5" style="stroke:#181818;stroke-width:0.5;" width="78" x="702" y="82.6348"/><ellipse cx="717" cy="112.9063" fill="#ADD1B2" rx="11" ry="11" style="stroke:#181818;stroke-width:1.0;"/><path d="M715.8594,113.7031 L715.8594,116.2031 L720.1875,116.2031 L720.1875,115.2813 Q720.1875,114.6719 720.4219,114.4063 Q720.6719,114.1406 721.0469,114.1406 Q721.4219,114.1406 721.6563,114.4063 Q721.8906,114.6719 721.8906,115.2813 L721.8906,117.9063 L713.8906,117.9063 Q713.2656,117.9063 713,117.6719 Q712.75,117.4375 712.75,117.0469 Q712.75,116.6719 713.0156,116.4375 Q713.2813,116.2031 713.8906,116.2031 L714.1563,116.2031 L714.1563,109.5469 L713.8906,109.5469 Q713.2656,109.5469 713,109.3125 Q712.75,109.0781 712.75,108.6875 Q712.75,108.3125 713,108.0781 Q713.2656,107.8438 713.8906,107.8438 L721.5156,107.8438 L721.5156,110.4375 Q721.5156,111.0469 721.2813,111.3125 Q721.0625,111.5625 720.6719,111.5625 Q720.2969,111.5625 720.0625,111.3125 Q719.8281,111.0469 719.8281,110.4375 L719.8281,109.5469 L715.8594,109.5469 L715.8594,112 L717.3438,112 Q717.3438,111.3438 717.4688,111.1563 Q717.7344,110.75 718.2031,110.75 Q718.5781,110.75 718.8125,111.0156 Q719.0469,111.2656 719.0469,111.875 L719.0469,113.8438 Q719.0469,114.3906 718.9219,114.5781 Q718.6563,114.9688 718.2031,114.9688 Q717.7344,114.9688 717.4688,114.5625 Q717.3438,114.375 717.3438,113.7031 L715.8594,113.7031 Z " fill="#000000"/><text fill="#000000" font-family="sans-serif" font-size="12" font-style="italic" lengthAdjust="spacing" textLength="43" x="732.5" y="100.584">&#171;entity&#187;</text><text fill="#000000" font-family="sans-serif" font-size="12" font-style="italic" lengthAdjust="spacing" textLength="35" x="736.5" y="116.5449">&#171;root&#187;</text><text fill="#000000" font-family="sans-serif" font-size="14" lengthAdjust="spacing" textLength="46" x="731" y="134.6641">Course</text><line style="stroke:#181818;stroke-width:0.5;" x1="703" x2="779" y1="143.1777" y2="143.1777"/><line style="stroke:#181818;stroke-width:0.5;" x1="703" x2="779" y1="151.1777" y2="151.1777"/></g><!--class CourseTitle--><g id="elem_CourseTitle"><rect codeLine="20" fill="#F1F1F1" height="60.582" id="CourseTitle" rx="2.5" ry="2.5" style="stroke:#181818;stroke-width:0.5;" width="109" x="22.5" y="269.6348"/><ellipse cx="37.5" cy="291.9258" fill="#FF8B40" rx="11" ry="11" style="stroke:#181818;stroke-width:1.0;"/><path d="M38.0938,295.1914 L40.5625,289.3164 L40.1719,289.3164 Q39.5625,289.3164 39.2969,289.082 Q39.0313,288.8477 39.0313,288.457 Q39.0313,288.082 39.2969,287.8477 Q39.5625,287.6133 40.1719,287.6133 L42.4531,287.6133 Q43.0625,287.6133 43.3281,287.8477 Q43.5938,288.082 43.5938,288.457 Q43.5938,288.9258 43.1875,289.1914 Q43,289.3164 42.4063,289.3164 L38.9219,297.6758 L37.2813,297.6758 L33.7969,289.3164 Q33.2031,289.3164 33.0156,289.1914 Q32.6094,288.9258 32.6094,288.457 Q32.6094,288.082 32.875,287.8477 Q33.1406,287.6133 33.75,287.6133 L36.0469,287.6133 Q36.6563,287.6133 36.9063,287.8477 Q37.1719,288.082 37.1719,288.457 Q37.1719,288.8477 36.9063,289.082 Q36.6563,289.3164 36.0469,289.3164 L35.6406,289.3164 L38.0938,295.1914 Z " fill="#000000"/><text fill="#000000" font-family="sans-serif" font-size="12" font-style="italic" lengthAdjust="spacing" textLength="81" x="49.5" y="287.584">&#171;value object&#187;</text><text fill="#000000" font-family="sans-serif" font-size="14" lengthAdjust="spacing" textLength="73" x="53.5" y="305.7031">CourseTitle</text><line style="stroke:#181818;stroke-width:0.5;" x1="23.5" x2="130.5" y1="314.2168" y2="314.2168"/><line style="stroke:#181818;stroke-width:0.5;" x1="23.5" x2="130.5" y1="322.2168" y2="322.2168"/></g><!--class CourseCode--><g id="elem_CourseCode"><rect codeLine="21" fill="#F1F1F1" height="60.582" id="CourseCode" rx="2.5" ry="2.5" style="stroke:#181818;stroke-width:0.5;" width="112" x="167" y="269.6348"/><ellipse cx="182" cy="291.9258" fill="#FF8B40" rx="11" ry="11" style="stroke:#181818;stroke-width:1.0;"/><path d="M182.5938,295.1914 L185.0625,289.3164 L184.6719,289.3164 Q184.0625,289.3164 183.7969,289.082 Q183.5313,288.8477 183.5313,288.457 Q183.5313,288.082 183.7969,287.8477 Q184.0625,287.6133 184.6719,287.6133 L186.9531,287.6133 Q187.5625,287.6133 187.8281,287.8477 Q188.0938,288.082 188.0938,288.457 Q188.0938,288.9258 187.6875,289.1914 Q187.5,289.3164 186.9063,289.3164 L183.4219,297.6758 L181.7813,297.6758 L178.2969,289.3164 Q177.7031,289.3164 177.5156,289.1914 Q177.1094,288.9258 177.1094,288.457 Q177.1094,288.082 177.375,287.8477 Q177.6406,287.6133 178.25,287.6133 L180.5469,287.6133 Q181.1563,287.6133 181.4063,287.8477 Q181.6719,288.082 181.6719,288.457 Q181.6719,288.8477 181.4063,289.082 Q181.1563,289.3164 180.5469,289.3164 L180.1406,289.3164 L182.5938,295.1914 Z " fill="#000000"/><text fill="#000000" font-family="sans-serif" font-size="12" font-style="italic" lengthAdjust="spacing" textLength="81" x="195.5" y="287.584">&#171;value object&#187;</text><text fill="#000000" font-family="sans-serif" font-size="14" lengthAdjust="spacing" textLength="80" x="196" y="305.7031">CourseCode</text><line style="stroke:#181818;stroke-width:0.5;" x1="168" x2="278" y1="314.2168" y2="314.2168"/><line style="stroke:#181818;stroke-width:0.5;" x1="168" x2="278" y1="322.2168" y2="322.2168"/></g><!--class CourseDescription--><g id="elem_CourseDescription"><rect codeLine="22" fill="#F1F1F1" height="60.582" id="CourseDescription" rx="2.5" ry="2.5" style="stroke:#181818;stroke-width:0.5;" width="149" x="314.5" y="269.6348"/><ellipse cx="329.5" cy="291.9258" fill="#FF8B40" rx="11" ry="11" style="stroke:#181818;stroke-width:1.0;"/><path d="M330.0938,295.1914 L332.5625,289.3164 L332.1719,289.3164 Q331.5625,289.3164 331.2969,289.082 Q331.0313,288.8477 331.0313,288.457 Q331.0313,288.082 331.2969,287.8477 Q331.5625,287.6133 332.1719,287.6133 L334.4531,287.6133 Q335.0625,287.6133 335.3281,287.8477 Q335.5938,288.082 335.5938,288.457 Q335.5938,288.9258 335.1875,289.1914 Q335,289.3164 334.4063,289.3164 L330.9219,297.6758 L329.2813,297.6758 L325.7969,289.3164 Q325.2031,289.3164 325.0156,289.1914 Q324.6094,288.9258 324.6094,288.457 Q324.6094,288.082 324.875,287.8477 Q325.1406,287.6133 325.75,287.6133 L328.0469,287.6133 Q328.6563,287.6133 328.9063,287.8477 Q329.1719,288.082 329.1719,288.457 Q329.1719,288.8477 328.9063,289.082 Q328.6563,289.3164 328.0469,289.3164 L327.6406,289.3164 L330.0938,295.1914 Z " fill="#000000"/><text fill="#000000" font-family="sans-serif" font-size="12" font-style="italic" lengthAdjust="spacing" textLength="81" x="361.5" y="287.584">&#171;value object&#187;</text><text fill="#000000" font-family="sans-serif" font-size="14" lengthAdjust="spacing" textLength="117" x="343.5" y="305.7031">CourseDescription</text><line style="stroke:#181818;stroke-width:0.5;" x1="315.5" x2="462.5" y1="314.2168" y2="314.2168"/><line style="stroke:#181818;stroke-width:0.5;" x1="315.5" x2="462.5" y1="322.2168" y2="322.2168"/></g><!--class CourseStatus--><g id="elem_CourseStatus"><rect codeLine="23" fill="#F1F1F1" height="60.582" id="CourseStatus" rx="2.5" ry="2.5" style="stroke:#181818;stroke-width:0.5;" width="118" x="499" y="269.6348"/><ellipse cx="514" cy="291.9258" fill="#FF8B40" rx="11" ry="11" style="stroke:#181818;stroke-width:1.0;"/><path d="M514.5938,295.1914 L517.0625,289.3164 L516.6719,289.3164 Q516.0625,289.3164 515.7969,289.082 Q515.5313,288.8477 515.5313,288.457 Q515.5313,288.082 515.7969,287.8477 Q516.0625,287.6133 516.6719,287.6133 L518.9531,287.6133 Q519.5625,287.6133 519.8281,287.8477 Q520.0938,288.082 520.0938,288.457 Q520.0938,288.9258 519.6875,289.1914 Q519.5,289.3164 518.9063,289.3164 L515.4219,297.6758 L513.7813,297.6758 L510.2969,289.3164 Q509.7031,289.3164 509.5156,289.1914 Q509.1094,288.9258 509.1094,288.457 Q509.1094,288.082 509.375,287.8477 Q509.6406,287.6133 510.25,287.6133 L512.5469,287.6133 Q513.1563,287.6133 513.4063,287.8477 Q513.6719,288.082 513.6719,288.457 Q513.6719,288.8477 513.4063,289.082 Q513.1563,289.3164 512.5469,289.3164 L512.1406,289.3164 L514.5938,295.1914 Z " fill="#000000"/><text fill="#000000" font-family="sans-serif" font-size="12" font-style="italic" lengthAdjust="spacing" textLength="81" x="530.5" y="287.584">&#171;value object&#187;</text><text fill="#000000" font-family="sans-serif" font-size="14" lengthAdjust="spacing" textLength="86" x="528" y="305.7031">CourseStatus</text><line style="stroke:#181818;stroke-width:0.5;" x1="500" x2="616" y1="314.2168" y2="314.2168"/><line style="stroke:#181818;stroke-width:0.5;" x1="500" x2="616" y1="322.2168" y2="322.2168"/></g><!--class CourseEnrolmentLimits--><g id="elem_CourseEnrolmentLimits"><rect codeLine="24" fill="#F1F1F1" height="97.8242" id="CourseEnrolmentLimits" rx="2.5" ry="2.5" style="stroke:#181818;stroke-width:0.5;" width="178" x="652" y="251.1348"/><ellipse cx="667" cy="273.4258" fill="#FF8B40" rx="11" ry="11" style="stroke:#181818;stroke-width:1.0;"/><path d="M667.5938,276.6914 L670.0625,270.8164 L669.6719,270.8164 Q669.0625,270.8164 668.7969,270.582 Q668.5313,270.3477 668.5313,269.957 Q668.5313,269.582 668.7969,269.3477 Q669.0625,269.1133 669.6719,269.1133 L671.9531,269.1133 Q672.5625,269.1133 672.8281,269.3477 Q673.0938,269.582 673.0938,269.957 Q673.0938,270.4258 672.6875,270.6914 Q672.5,270.8164 671.9063,270.8164 L668.4219,279.1758 L666.7813,279.1758 L663.2969,270.8164 Q662.7031,270.8164 662.5156,270.6914 Q662.1094,270.4258 662.1094,269.957 Q662.1094,269.582 662.375,269.3477 Q662.6406,269.1133 663.25,269.1133 L665.5469,269.1133 Q666.1563,269.1133 666.4063,269.3477 Q666.6719,269.582 666.6719,269.957 Q666.6719,270.3477 666.4063,270.582 Q666.1563,270.8164 665.5469,270.8164 L665.1406,270.8164 L667.5938,276.6914 Z " fill="#000000"/><text fill="#000000" font-family="sans-serif" font-size="12" font-style="italic" lengthAdjust="spacing" textLength="81" x="713.5" y="269.084">&#171;value object&#187;</text><text fill="#000000" font-family="sans-serif" font-size="14" lengthAdjust="spacing" textLength="146" x="681" y="287.2031">CourseEnrolmentLimits</text><line style="stroke:#181818;stroke-width:0.5;" x1="653" x2="829" y1="295.7168" y2="295.7168"/><text fill="#000000" font-family="sans-serif" font-size="14" lengthAdjust="spacing" textLength="126" x="658" y="314.8242">minimumEnrolments</text><text fill="#000000" font-family="sans-serif" font-size="14" lengthAdjust="spacing" textLength="129" x="658" y="333.4453">maximumEnrolments</text><line style="stroke:#181818;stroke-width:0.5;" x1="653" x2="829" y1="340.959" y2="340.959"/></g><!--class CourseDate--><g id="elem_CourseDate"><rect codeLine="28" fill="#F1F1F1" height="97.8242" id="CourseDate" rx="2.5" ry="2.5" style="stroke:#181818;stroke-width:0.5;" width="109" x="865.5" y="251.1348"/><ellipse cx="880.5" cy="273.4258" fill="#FF8B40" rx="11" ry="11" style="stroke:#181818;stroke-width:1.0;"/><path d="M881.0938,276.6914 L883.5625,270.8164 L883.1719,270.8164 Q882.5625,270.8164 882.2969,270.582 Q882.0313,270.3477 882.0313,269.957 Q882.0313,269.582 882.2969,269.3477 Q882.5625,269.1133 883.1719,269.1133 L885.4531,269.1133 Q886.0625,269.1133 886.3281,269.3477 Q886.5938,269.582 886.5938,269.957 Q886.5938,270.4258 886.1875,270.6914 Q886,270.8164 885.4063,270.8164 L881.9219,279.1758 L880.2813,279.1758 L876.7969,270.8164 Q876.2031,270.8164 876.0156,270.6914 Q875.6094,270.4258 875.6094,269.957 Q875.6094,269.582 875.875,269.3477 Q876.1406,269.1133 876.75,269.1133 L879.0469,269.1133 Q879.6563,269.1133 879.9063,269.3477 Q880.1719,269.582 880.1719,269.957 Q880.1719,270.3477 879.9063,270.582 Q879.6563,270.8164 879.0469,270.8164 L878.6406,270.8164 L881.0938,276.6914 Z " fill="#000000"/><text fill="#000000" font-family="sans-serif" font-size="12" font-style="italic" lengthAdjust="spacing" textLength="81" x="892.5" y="269.084">&#171;value object&#187;</text><text fill="#000000" font-family="sans-serif" font-size="14" lengthAdjust="spacing" textLength="76" x="895" y="287.2031">CourseDate</text><line style="stroke:#181818;stroke-width:0.5;" x1="866.5" x2="973.5" y1="295.7168" y2="295.7168"/><text fill="#000000" font-family="sans-serif" font-size="14" lengthAdjust="spacing" textLength="58" x="871.5" y="314.8242">startDate</text><text fill="#000000" font-family="sans-serif" font-size="14" lengthAdjust="spacing" textLength="54" x="871.5" y="333.4453">endDate</text><line style="stroke:#181818;stroke-width:0.5;" x1="866.5" x2="973.5" y1="340.959" y2="340.959"/></g><!--class ExtraClass--><g id="elem_ExtraClass"><rect codeLine="36" fill="#F1F1F1" height="76.543" id="ExtraClass" rx="2.5" ry="2.5" style="stroke:#181818;stroke-width:0.5;" width="99" x="1352.5" y="261.6348"/><ellipse cx="1367.5" cy="291.9063" fill="#ADD1B2" rx="11" ry="11" style="stroke:#181818;stroke-width:1.0;"/><path d="M1366.3594,292.7031 L1366.3594,295.2031 L1370.6875,295.2031 L1370.6875,294.2813 Q1370.6875,293.6719 1370.9219,293.4063 Q1371.1719,293.1406 1371.5469,293.1406 Q1371.9219,293.1406 1372.1563,293.4063 Q1372.3906,293.6719 1372.3906,294.2813 L1372.3906,296.9063 L1364.3906,296.9063 Q1363.7656,296.9063 1363.5,296.6719 Q1363.25,296.4375 1363.25,296.0469 Q1363.25,295.6719 1363.5156,295.4375 Q1363.7813,295.2031 1364.3906,295.2031 L1364.6563,295.2031 L1364.6563,288.5469 L1364.3906,288.5469 Q1363.7656,288.5469 1363.5,288.3125 Q1363.25,288.0781 1363.25,287.6875 Q1363.25,287.3125 1363.5,287.0781 Q1363.7656,286.8438 1364.3906,286.8438 L1372.0156,286.8438 L1372.0156,289.4375 Q1372.0156,290.0469 1371.7813,290.3125 Q1371.5625,290.5625 1371.1719,290.5625 Q1370.7969,290.5625 1370.5625,290.3125 Q1370.3281,290.0469 1370.3281,289.4375 L1370.3281,288.5469 L1366.3594,288.5469 L1366.3594,291 L1367.8438,291 Q1367.8438,290.3438 1367.9688,290.1563 Q1368.2344,289.75 1368.7031,289.75 Q1369.0781,289.75 1369.3125,290.0156 Q1369.5469,290.2656 1369.5469,290.875 L1369.5469,292.8438 Q1369.5469,293.3906 1369.4219,293.5781 Q1369.1563,293.9688 1368.7031,293.9688 Q1368.2344,293.9688 1367.9688,293.5625 Q1367.8438,293.375 1367.8438,292.7031 L1366.3594,292.7031 Z " fill="#000000"/><text fill="#000000" font-family="sans-serif" font-size="12" font-style="italic" lengthAdjust="spacing" textLength="43" x="1393.5" y="279.584">&#171;entity&#187;</text><text fill="#000000" font-family="sans-serif" font-size="12" font-style="italic" lengthAdjust="spacing" textLength="35" x="1397.5" y="295.5449">&#171;root&#187;</text><text fill="#000000" font-family="sans-serif" font-size="14" lengthAdjust="spacing" textLength="67" x="1381.5" y="313.6641">ExtraClass</text><line style="stroke:#181818;stroke-width:0.5;" x1="1353.5" x2="1450.5" y1="322.1777" y2="322.1777"/><line style="stroke:#181818;stroke-width:0.5;" x1="1353.5" x2="1450.5" y1="330.1777" y2="330.1777"/></g><!--class Event--><g id="elem_Event"><rect codeLine="40" fill="#F1F1F1" height="60.582" id="Event" rx="2.5" ry="2.5" style="stroke:#181818;stroke-width:0.5;" width="86" x="1550" y="461.1348"/><ellipse cx="1565" cy="483.4258" fill="#A9DCDF" rx="11" ry="11" style="stroke:#181818;stroke-width:1.0;"/><path d="M1567.1875,485.1914 L1563.0469,485.1914 L1562.625,486.2227 L1563.0469,486.2227 Q1563.6563,486.2227 1563.9219,486.457 Q1564.1875,486.6914 1564.1875,487.082 Q1564.1875,487.457 1563.9219,487.6914 Q1563.6563,487.9258 1563.0469,487.9258 L1560.75,487.9258 Q1560.1406,487.9258 1559.8906,487.6914 Q1559.625,487.457 1559.625,487.0664 Q1559.625,486.6914 1559.9063,486.457 Q1560.1719,486.207 1560.7969,486.2227 L1563.4688,479.5664 L1562.3594,479.5664 Q1561.75,479.5664 1561.4844,479.332 Q1561.2188,479.0977 1561.2188,478.707 Q1561.2188,478.332 1561.4844,478.0977 Q1561.75,477.8633 1562.3594,477.8633 L1566.0313,477.8633 L1569.4219,486.2227 Q1570.0156,486.2227 1570.2031,486.3633 Q1570.5938,486.6289 1570.5938,487.082 Q1570.5938,487.457 1570.3281,487.6914 Q1570.0781,487.9258 1569.4688,487.9258 L1567.1719,487.9258 Q1566.5625,487.9258 1566.2969,487.6914 Q1566.0313,487.457 1566.0313,487.0664 Q1566.0313,486.6914 1566.2969,486.457 Q1566.5625,486.2227 1567.1719,486.2227 L1567.5938,486.2227 L1567.1875,485.1914 Z M1566.4688,483.4883 L1565.1094,480.1133 L1563.7344,483.4883 L1566.4688,483.4883 Z " fill="#000000"/><text fill="#000000" font-family="sans-serif" font-size="12" font-style="italic" lengthAdjust="spacing" textLength="58" x="1577" y="479.084">&#171;abstract&#187;</text><text fill="#000000" font-family="sans-serif" font-size="14" font-style="italic" lengthAdjust="spacing" textLength="35" x="1588.5" y="497.2031">Event</text><line style="stroke:#181818;stroke-width:0.5;" x1="1551" x2="1635" y1="505.7168" y2="505.7168"/><line style="stroke:#181818;stroke-width:0.5;" x1="1551" x2="1635" y1="513.7168" y2="513.7168"/></g><!--class EventDuration--><g id="elem_EventDuration"><rect codeLine="41" fill="#F1F1F1" height="60.582" id="EventDuration" rx="2.5" ry="2.5" style="stroke:#181818;stroke-width:0.5;" width="122" x="1532" y="591.1348"/><ellipse cx="1547" cy="613.4258" fill="#FF8B40" rx="11" ry="11" style="stroke:#181818;stroke-width:1.0;"/><path d="M1547.5938,616.6914 L1550.0625,610.8164 L1549.6719,610.8164 Q1549.0625,610.8164 1548.7969,610.582 Q1548.5313,610.3477 1548.5313,609.957 Q1548.5313,609.582 1548.7969,609.3477 Q1549.0625,609.1133 1549.6719,609.1133 L1551.9531,609.1133 Q1552.5625,609.1133 1552.8281,609.3477 Q1553.0938,609.582 1553.0938,609.957 Q1553.0938,610.4258 1552.6875,610.6914 Q1552.5,610.8164 1551.9063,610.8164 L1548.4219,619.1758 L1546.7813,619.1758 L1543.2969,610.8164 Q1542.7031,610.8164 1542.5156,610.6914 Q1542.1094,610.4258 1542.1094,609.957 Q1542.1094,609.582 1542.375,609.3477 Q1542.6406,609.1133 1543.25,609.1133 L1545.5469,609.1133 Q1546.1563,609.1133 1546.4063,609.3477 Q1546.6719,609.582 1546.6719,609.957 Q1546.6719,610.3477 1546.4063,610.582 Q1546.1563,610.8164 1545.5469,610.8164 L1545.1406,610.8164 L1547.5938,616.6914 Z " fill="#000000"/><text fill="#000000" font-family="sans-serif" font-size="12" font-style="italic" lengthAdjust="spacing" textLength="81" x="1565.5" y="609.084">&#171;value object&#187;</text><text fill="#000000" font-family="sans-serif" font-size="14" lengthAdjust="spacing" textLength="90" x="1561" y="627.2031">EventDuration</text><line style="stroke:#181818;stroke-width:0.5;" x1="1533" x2="1653" y1="635.7168" y2="635.7168"/><line style="stroke:#181818;stroke-width:0.5;" x1="1533" x2="1653" y1="643.7168" y2="643.7168"/></g><!--class EventDate--><g id="elem_EventDate"><rect codeLine="42" fill="#F1F1F1" height="60.582" id="EventDate" rx="2.5" ry="2.5" style="stroke:#181818;stroke-width:0.5;" width="109" x="1689.5" y="591.1348"/><ellipse cx="1704.5" cy="613.4258" fill="#FF8B40" rx="11" ry="11" style="stroke:#181818;stroke-width:1.0;"/><path d="M1705.0938,616.6914 L1707.5625,610.8164 L1707.1719,610.8164 Q1706.5625,610.8164 1706.2969,610.582 Q1706.0313,610.3477 1706.0313,609.957 Q1706.0313,609.582 1706.2969,609.3477 Q1706.5625,609.1133 1707.1719,609.1133 L1709.4531,609.1133 Q1710.0625,609.1133 1710.3281,609.3477 Q1710.5938,609.582 1710.5938,609.957 Q1710.5938,610.4258 1710.1875,610.6914 Q1710,610.8164 1709.4063,610.8164 L1705.9219,619.1758 L1704.2813,619.1758 L1700.7969,610.8164 Q1700.2031,610.8164 1700.0156,610.6914 Q1699.6094,610.4258 1699.6094,609.957 Q1699.6094,609.582 1699.875,609.3477 Q1700.1406,609.1133 1700.75,609.1133 L1703.0469,609.1133 Q1703.6563,609.1133 1703.9063,609.3477 Q1704.1719,609.582 1704.1719,609.957 Q1704.1719,610.3477 1703.9063,610.582 Q1703.6563,610.8164 1703.0469,610.8164 L1702.6406,610.8164 L1705.0938,616.6914 Z " fill="#000000"/><text fill="#000000" font-family="sans-serif" font-size="12" font-style="italic" lengthAdjust="spacing" textLength="81" x="1716.5" y="609.084">&#171;value object&#187;</text><text fill="#000000" font-family="sans-serif" font-size="14" lengthAdjust="spacing" textLength="66" x="1724" y="627.2031">EventDate</text><line style="stroke:#181818;stroke-width:0.5;" x1="1690.5" x2="1797.5" y1="635.7168" y2="635.7168"/><line style="stroke:#181818;stroke-width:0.5;" x1="1690.5" x2="1797.5" y1="643.7168" y2="643.7168"/></g><!--link Teacher to Acronym--><g id="link_Teacher_Acronym"><path codeLine="44" d="M1206.35,530.3448 C1205.12,547.8548 1203.66,568.5448 1202.46,585.6948 " fill="none" id="Teacher-to-Acronym" style="stroke:#181818;stroke-width:1.0;"/><polygon fill="#181818" points="1202.09,590.8948,1206.7228,582.2036,1202.4473,585.9075,1198.7433,581.632,1202.09,590.8948" style="stroke:#181818;stroke-width:1.0;"/></g><!--link Student to MechanographicNumber--><g id="link_Student_MechanographicNumber"><path codeLine="46" d="M1404,530.3448 C1404,547.8548 1404,568.5448 1404,585.6948 " fill="none" id="Student-to-MechanographicNumber" style="stroke:#181818;stroke-width:1.0;"/><polygon fill="#181818" points="1404,590.8948,1408,581.8948,1404,585.8948,1400,581.8948,1404,590.8948" style="stroke:#181818;stroke-width:1.0;"/></g><!--link Course to CourseTitle--><g id="link_Course_CourseTitle"><path codeLine="48" d="M701.85,124.8748 C585.67,133.5348 244.96,162.9948 149,216.6348 C128.5,228.0948 111.02,247.7048 98.42,264.9248 " fill="none" id="Course-to-CourseTitle" style="stroke:#181818;stroke-width:1.0;"/><polygon fill="#181818" points="95.32,269.2548,103.811,264.2646,98.2302,265.189,97.3058,259.6082,95.32,269.2548" style="stroke:#181818;stroke-width:1.0;"/></g><!--link Course to CourseCode--><g id="link_Course_CourseCode"><path codeLine="49" d="M701.92,122.5048 C620.9,124.8948 431.03,139.0548 297,216.6348 C276.43,228.5448 258.48,248.1648 245.41,265.2848 " fill="none" id="Course-to-CourseCode" style="stroke:#181818;stroke-width:1.0;"/><polygon fill="#181818" points="242.2,269.5848,250.7918,264.7701,245.1932,265.5796,244.3836,259.981,242.2,269.5848" style="stroke:#181818;stroke-width:1.0;"/></g><!--link Course to CourseDescription--><g id="link_Course_CourseDescription"><path codeLine="50" d="M701.68,131.5248 C649.1,145.1648 554.15,173.6048 482,216.6348 C459.6,229.9948 437.62,249.1248 420.66,265.6048 " fill="none" id="Course-to-CourseDescription" style="stroke:#181818;stroke-width:1.0;"/><polygon fill="#181818" points="416.9,269.2948,426.1276,265.8523,420.4711,265.7951,420.5282,260.1386,416.9,269.2948" style="stroke:#181818;stroke-width:1.0;"/></g><!--link Course to CourseStatus--><g id="link_Course_CourseStatus"><path codeLine="51" d="M701.96,155.4248 C681.59,173.1648 656.51,195.6148 635,216.6348 C618.98,232.2848 601.92,250.4148 587.93,265.6848 " fill="none" id="Course-to-CourseStatus" style="stroke:#181818;stroke-width:1.0;"/><polygon fill="#181818" points="584.45,269.4948,593.476,265.5538,587.8247,265.8054,587.5731,260.1542,584.45,269.4948" style="stroke:#181818;stroke-width:1.0;"/></g><!--link Course to CourseEnrolmentLimits--><g id="link_Course_CourseEnrolmentLimits"><path codeLine="52" d="M741,159.6748 C741,184.7048 741,217.9848 741,245.7548 " fill="none" id="Course-to-CourseEnrolmentLimits" style="stroke:#181818;stroke-width:1.0;"/><polygon fill="#181818" points="741,250.8748,745,241.8748,741,245.8748,737,241.8748,741,250.8748" style="stroke:#181818;stroke-width:1.0;"/></g><!--link Course to CourseDate--><g id="link_Course_CourseDate"><path codeLine="53" d="M780.23,154.6448 C800.97,172.3548 826.51,195.0148 848,216.6348 C857.55,226.2448 867.36,236.8948 876.55,247.2548 " fill="none" id="Course-to-CourseDate" style="stroke:#181818;stroke-width:1.0;"/><polygon fill="#181818" points="879.9,251.0648,876.9459,241.6694,876.5924,247.3152,870.9466,246.9616,879.9,251.0648" style="stroke:#181818;stroke-width:1.0;"/></g><!--link Course to Teacher--><g id="link_Course_Teacher"><path codeLine="54" d="M780.4,127.8948 C834.08,137.5748 930.54,161.7248 992,216.6348 C1050.25,268.6748 1023.66,311.7748 1072,373.1348 C1097.69,405.7448 1133.48,436.0748 1162.04,457.7448 " fill="none" id="Course-to-Teacher" style="stroke:#181818;stroke-width:1.0;"/><polygon fill="#181818" points="1166.2,460.8748,1161.4345,452.2556,1162.212,457.8588,1156.6089,458.6364,1166.2,460.8748" style="stroke:#181818;stroke-width:1.0;"/><polygon fill="#000000" points="1080.7829,303.5498,1075.8614,295.4116,1072.0178,299.8587,1080.7829,303.5498" style="stroke:#000000;stroke-width:1.0;"/><text fill="#000000" font-family="sans-serif" font-size="13" lengthAdjust="spacing" textLength="91" x="1086" y="305.6631">has responsible</text><text fill="#000000" font-family="sans-serif" font-size="13" lengthAdjust="spacing" textLength="7" x="788.0416" y="124.6798">1</text><text fill="#000000" font-family="sans-serif" font-size="13" lengthAdjust="spacing" textLength="7" x="1151.5316" y="451.4626">1</text></g><!--link Course to Teacher--><g id="link_Course_Teacher"><path codeLine="55" d="M780.17,124.7648 C877.91,132.1848 1128.54,156.7748 1182,216.6348 C1238.71,280.1448 1229.58,387.9248 1218.77,447.6248 " fill="none" id="Course-to-Teacher-1" style="stroke:#181818;stroke-width:1.0;"/><polygon fill="#181818" points="1217.79,452.8948,1223.3687,444.7782,1218.7045,447.9791,1215.5037,443.315,1217.79,452.8948" style="stroke:#181818;stroke-width:1.0;"/><polygon fill="#000000" points="1235.0267,303.2444,1229.4846,295.5154,1226.0001,300.2491,1235.0267,303.2444" style="stroke:#000000;stroke-width:1.0;"/><text fill="#000000" font-family="sans-serif" font-size="13" lengthAdjust="spacing" textLength="50" x="1240" y="305.6631">is taught</text><text fill="#000000" font-family="sans-serif" font-size="13" lengthAdjust="spacing" textLength="20" x="788.0065" y="140.7859">1..*</text><text fill="#000000" font-family="sans-serif" font-size="13" lengthAdjust="spacing" textLength="20" x="1197.582" y="441.868">1..*</text></g><!--link Course to ExtraClass--><g id="link_Course_ExtraClass"><path codeLine="56" d="M780.25,122.2548 C866.87,123.6148 1079.98,132.9848 1247,189.6348 C1288.95,203.8648 1329.6,233.3548 1358.73,258.1548 " fill="none" id="Course-to-ExtraClass" style="stroke:#181818;stroke-width:1.0;"/><polygon fill="#181818" points="1362.59,261.4648,1358.3599,252.5706,1358.7937,258.2108,1353.1535,258.6447,1362.59,261.4648" style="stroke:#181818;stroke-width:1.0;"/><polygon fill="#000000" points="1293.8675,200.4238,1285.7343,195.4941,1284.39,201.2162,1293.8675,200.4238" style="stroke:#000000;stroke-width:1.0;"/><text fill="#000000" font-family="sans-serif" font-size="13" lengthAdjust="spacing" textLength="21" x="1298" y="204.6631">has</text><text fill="#000000" font-family="sans-serif" font-size="13" lengthAdjust="spacing" textLength="7" x="788.132" y="117.9914">1</text><text fill="#000000" font-family="sans-serif" font-size="13" lengthAdjust="spacing" textLength="20" x="1334.0977" y="250.45">0..*</text></g><!--link ExtraClass to Event--><g id="link_ExtraClass_Event"><path codeLine="58" d="M1441.61,338.6948 C1462.93,359.0748 1489.59,384.7948 1513,408.1348 C1525.35,420.4548 1538.6,433.9848 1550.69,446.4548 " fill="none" id="ExtraClass-to-Event" style="stroke:#181818;stroke-width:1.0;"/><polygon fill="none" points="1555.88,441.7448,1564.73,460.9948,1545.8,451.4648,1555.88,441.7448" style="stroke:#181818;stroke-width:1.0;"/></g><!--link ExtraClass to Student--><g id="link_ExtraClass_Student"><path codeLine="59" d="M1402.4,339.0248 C1402.73,370.5048 1403.2,415.2648 1403.55,447.9848 " fill="none" id="ExtraClass-to-Student" style="stroke:#181818;stroke-width:1.0;"/><polygon fill="#181818" points="1403.6,453.1348,1407.4969,444.0896,1403.5429,448.1351,1399.4974,444.1811,1403.6,453.1348" style="stroke:#181818;stroke-width:1.0;"/><polygon fill="#000000" points="1408.0528,395.78,1410.8961,386.7044,1405.0185,386.7664,1408.0528,395.78" style="stroke:#000000;stroke-width:1.0;"/><text fill="#000000" font-family="sans-serif" font-size="13" lengthAdjust="spacing" textLength="21" x="1417" y="396.1631">has</text><text fill="#000000" font-family="sans-serif" font-size="13" lengthAdjust="spacing" textLength="20" x="1380.99" y="360.0684">0..*</text><text fill="#000000" font-family="sans-serif" font-size="13" lengthAdjust="spacing" textLength="20" x="1381.7475" y="441.8578">1..*</text></g><!--link ExtraClass to Teacher--><g id="link_ExtraClass_Teacher"><path codeLine="60" d="M1356.09,338.7248 C1340.77,351.7748 1323.82,366.7448 1309,381.1348 C1286.74,402.7448 1263.28,428.2748 1244.68,449.2348 " fill="none" id="ExtraClass-to-Teacher" style="stroke:#181818;stroke-width:1.0;"/><polygon fill="#181818" points="1241.27,453.0948,1250.2312,449.0085,1244.5847,449.3514,1244.2418,443.705,1241.27,453.0948" style="stroke:#181818;stroke-width:1.0;"/><polygon fill="#000000" points="1310.4502,394.3014,1318.9416,390.0181,1314.8022,385.845,1310.4502,394.3014" style="stroke:#000000;stroke-width:1.0;"/><text fill="#000000" font-family="sans-serif" font-size="13" lengthAdjust="spacing" textLength="70" x="1323" y="396.1631">schedule by</text><text fill="#000000" font-family="sans-serif" font-size="13" lengthAdjust="spacing" textLength="20" x="1327.1793" y="360.3177">0..*</text><text fill="#000000" font-family="sans-serif" font-size="13" lengthAdjust="spacing" textLength="7" x="1239.3947" y="441.8107">1</text></g><!--link Event to EventDuration--><g id="link_Event_EventDuration"><path codeLine="62" d="M1593,522.3248 C1593,541.3048 1593,566.0048 1593,585.8948 " fill="none" id="Event-to-EventDuration" style="stroke:#181818;stroke-width:1.0;"/><polygon fill="#181818" points="1593,591.1048,1597,582.1048,1593,586.1048,1589,582.1048,1593,591.1048" style="stroke:#181818;stroke-width:1.0;"/></g><!--link Event to EventDate--><g id="link_Event_EventDate"><path codeLine="63" d="M1628.02,522.3248 C1651.08,541.8748 1681.3,567.4848 1705.1,587.6648 " fill="none" id="Event-to-EventDate" style="stroke:#181818;stroke-width:1.0;"/><polygon fill="#181818" points="1709.17,591.1048,1704.9041,582.2277,1705.3607,587.8661,1699.7223,588.3227,1709.17,591.1048" style="stroke:#181818;stroke-width:1.0;"/></g><!--SRC=[bLF1Zfim4BtxAqRfeRlLiaga7geLGjeckwUsbsnxDs21szX6zf1krERVQniSN0fDmWMOzvvdFFC6LGEe85U8Ia39DIkGAqcGuux1HWdA9Qntr1Xcu6QpleK4lcvXjLoj27cxnRPa4ab3Yn-qOh18KrfLcbKKMPP13o_W5m7xs4-EXn25DEq2bfYcMYdCCayhN3Rup8gQIbLfsjIy-DAAd6dBk_bs1s-UdpzyVB-yXJtTjGnK_jqMRSL7Mz4BeqNDz5n5FJogg8-UgUYnq4eUn0L5h5Mh3PkheKD79NJ1CnLqf1S_clzNCTQiLNcjPCDCeNdZt72bSeiKMtEbw4bgjHFszf-uu7X6tVVEFO9BBbfnafi1eQyJoF7VYzgnN9pE8DNe5AS8a-Nf_-Z7__IAclgTcRF0m1ZPO00chU1FtxkDexcnp0B1_rf625XMTpaFR5fDBvXWh3ZR3KB2lYIb-YcJB6m68M6r0p2rn8JqNW-aoDNJa3FlD19vT9hGMN4Q6pbk9eCRROyiLWj8BEBUeGKFK5C3cfb6ISDpkvZPGB-_VnSK_dCGSGD8swh6cDvpbvuREQ7BOViUnPBaTzODB8xssYXbc4WuOuuS5sVikspjLVA3pxgFH_gNhIOnrx4_]--></g></svg>