<?xml version="1.0" encoding="us-ascii" standalone="no"?><svg xmlns="http://www.w3.org/2000/svg" xmlns:xlink="http://www.w3.org/1999/xlink" contentStyleType="text/css" height="612.8px" preserveAspectRatio="none" style="width:824px;height:612px;background:#FFFFFF;" version="1.1" viewBox="0 0 824 612" width="824px" zoomAndPan="magnify"><defs/><g><text fill="#000000" font-family="sans-serif" font-size="5.6" font-weight="bold" lengthAdjust="spacing" textLength="93.2" x="366" y="12.043">Sequence Diagram (SD) - US 1011</text><rect fill="#FFFFFF" height="511.0563" style="stroke:#181818;stroke-width:0.4000000000000001;" width="4" x="13.4" y="55.1453"/><rect fill="#FFFFFF" height="501.7398" style="stroke:#181818;stroke-width:0.4000000000000001;" width="4" x="160.2" y="64.4617"/><rect fill="#FFFFFF" height="62.582" style="stroke:#181818;stroke-width:0.4000000000000001;" width="4" x="311.8" y="102.0109"/><rect fill="#FFFFFF" height="62.582" style="stroke:#181818;stroke-width:0.4000000000000001;" width="4" x="311.8" y="227.175"/><rect fill="#FFFFFF" height="60.582" style="stroke:#181818;stroke-width:0.4000000000000001;" width="4" x="311.8" y="337.8227"/><rect fill="#FFFFFF" height="112.1313" style="stroke:#181818;stroke-width:0.4000000000000001;" width="4" x="311.8" y="441.5539"/><rect fill="#FFFFFF" height="37.5492" style="stroke:#181818;stroke-width:0.4000000000000001;" width="4" x="419" y="114.5273"/><rect fill="#FFFFFF" height="25.0328" style="stroke:#181818;stroke-width:0.4000000000000001;" width="4" x="419" y="350.3391"/><rect fill="#FFFFFF" height="37.5492" style="stroke:#181818;stroke-width:0.4000000000000001;" width="4" x="475.2" y="239.6914"/><rect fill="#FFFFFF" height="37.5492" style="stroke:#181818;stroke-width:0.4000000000000001;" width="4" x="530.6" y="466.5867"/><rect fill="#FFFFFF" height="6" style="stroke:#181818;stroke-width:0.4000000000000001;" width="4" x="581" y="398.4047"/><rect fill="#FFFFFF" height="12" style="stroke:#181818;stroke-width:0.4000000000000001;" width="4" x="581" y="516.6523"/><rect fill="#FFFFFF" height="12.5164" style="stroke:#181818;stroke-width:0.4000000000000001;" width="4" x="686.2" y="479.1031"/><rect fill="#FFFFFF" height="12.5164" style="stroke:#181818;stroke-width:0.4000000000000001;" width="4" x="744.4" y="127.0438"/><rect fill="#FFFFFF" height="12.5164" style="stroke:#181818;stroke-width:0.4000000000000001;" width="4" x="797" y="252.2078"/><rect fill="none" height="83.6148" style="stroke:#000000;stroke-width:0.6000000000000001;" width="643.4" x="131" y="320.7898"/><rect fill="none" height="20.2328" style="stroke:#000000;stroke-width:0.6000000000000001;" width="334.2" x="274.2" y="381.3719"/><line style="stroke:#181818;stroke-width:0.20000000000000004;stroke-dasharray:5.0,5.0;" x1="15.2" x2="15.2" y1="51.1453" y2="573.4016"/><line style="stroke:#181818;stroke-width:0.20000000000000004;stroke-dasharray:5.0,5.0;" x1="162.2" x2="162.2" y1="51.1453" y2="573.4016"/><line style="stroke:#181818;stroke-width:0.20000000000000004;stroke-dasharray:5.0,5.0;" x1="313.8" x2="313.8" y1="51.1453" y2="573.4016"/><line style="stroke:#181818;stroke-width:0.20000000000000004;stroke-dasharray:5.0,5.0;" x1="420.8" x2="420.8" y1="51.1453" y2="573.4016"/><line style="stroke:#181818;stroke-width:0.20000000000000004;stroke-dasharray:5.0,5.0;" x1="477.2" x2="477.2" y1="51.1453" y2="573.4016"/><line style="stroke:#181818;stroke-width:0.20000000000000004;stroke-dasharray:5.0,5.0;" x1="532.4" x2="532.4" y1="51.1453" y2="573.4016"/><line style="stroke:#181818;stroke-width:0.20000000000000004;stroke-dasharray:5.0,5.0;" x1="582.8" x2="582.8" y1="51.1453" y2="573.4016"/><line style="stroke:#181818;stroke-width:0.20000000000000004;stroke-dasharray:5.0,5.0;" x1="631.2" x2="631.2" y1="51.1453" y2="573.4016"/><line style="stroke:#181818;stroke-width:0.20000000000000004;stroke-dasharray:5.0,5.0;" x1="688" x2="688" y1="51.1453" y2="573.4016"/><line style="stroke:#181818;stroke-width:0.20000000000000004;stroke-dasharray:5.0,5.0;" x1="746.4" x2="746.4" y1="51.1453" y2="573.4016"/><line style="stroke:#181818;stroke-width:0.20000000000000004;stroke-dasharray:5.0,5.0;" x1="798.8" x2="798.8" y1="51.1453" y2="573.4016"/><text fill="#000000" font-family="sans-serif" font-size="5.6" lengthAdjust="spacing" textLength="24.4" x="2" y="49.7398">Professor</text><ellipse cx="15.4" cy="23.0969" fill="#E3E3E3" rx="3.2" ry="3.2" style="stroke:#181818;stroke-width:0.20000000000000004;"/><path d="M15.4,26.2969 L15.4,37.0969 M10.2,29.4969 L20.6,29.4969 M15.4,37.0969 L10.2,43.0969 M15.4,37.0969 L20.6,43.0969 " fill="none" style="stroke:#181818;stroke-width:0.20000000000000004;"/><text fill="#000000" font-family="sans-serif" font-size="5.6" lengthAdjust="spacing" textLength="24.4" x="2" y="579.0445">Professor</text><ellipse cx="15.4" cy="583.85" fill="#E3E3E3" rx="3.2" ry="3.2" style="stroke:#181818;stroke-width:0.20000000000000004;"/><path d="M15.4,587.05 L15.4,597.85 M10.2,590.25 L20.6,590.25 M15.4,597.85 L10.2,603.85 M15.4,597.85 L20.6,603.85 " fill="none" style="stroke:#181818;stroke-width:0.20000000000000004;"/><rect fill="#E3E3E3" height="20.4969" rx="1" ry="1" style="stroke:#181818;stroke-width:0.20000000000000004;" width="54.4" x="135" y="30.2484"/><text fill="#000000" font-family="sans-serif" font-size="5.6" font-style="italic" lengthAdjust="spacing" textLength="38" x="143.2" y="39.0914">&#171;presentation&#187;</text><text fill="#000000" font-family="sans-serif" font-size="5.6" lengthAdjust="spacing" textLength="48.8" x="137.8" y="46.5398">CreateExtraClassUI</text><rect fill="#E3E3E3" height="20.4969" rx="1" ry="1" style="stroke:#181818;stroke-width:0.20000000000000004;" width="54.4" x="135" y="573.0016"/><text fill="#000000" font-family="sans-serif" font-size="5.6" font-style="italic" lengthAdjust="spacing" textLength="38" x="143.2" y="581.8445">&#171;presentation&#187;</text><text fill="#000000" font-family="sans-serif" font-size="5.6" lengthAdjust="spacing" textLength="48.8" x="137.8" y="589.293">CreateExtraClassUI</text><text fill="#000000" font-family="sans-serif" font-size="5.6" font-style="italic" lengthAdjust="spacing" textLength="33.6" x="295.8" y="42.2914">&#171;application&#187;</text><text fill="#000000" font-family="sans-serif" font-size="5.6" lengthAdjust="spacing" textLength="68.8" x="278.2" y="49.7398">CreateExtraClassController</text><ellipse cx="313.8" cy="29.8484" fill="#E3E3E3" rx="4.8" ry="4.8" style="stroke:#181818;stroke-width:0.20000000000000004;"/><polygon fill="#181818" points="312.2,25.0484,314.6,23.0484,313.8,25.0484,314.6,27.0484,312.2,25.0484" style="stroke:#181818;stroke-width:0.4000000000000001;"/><text fill="#000000" font-family="sans-serif" font-size="5.6" font-style="italic" lengthAdjust="spacing" textLength="33.6" x="295.8" y="579.0445">&#171;application&#187;</text><text fill="#000000" font-family="sans-serif" font-size="5.6" lengthAdjust="spacing" textLength="68.8" x="278.2" y="586.493">CreateExtraClassController</text><ellipse cx="313.8" cy="594.2984" fill="#E3E3E3" rx="4.8" ry="4.8" style="stroke:#181818;stroke-width:0.20000000000000004;"/><polygon fill="#181818" points="312.2,589.4984,314.6,587.4984,313.8,589.4984,314.6,591.4984,312.2,589.4984" style="stroke:#181818;stroke-width:0.4000000000000001;"/><rect fill="#E3E3E3" height="20.4969" rx="1" ry="1" style="stroke:#181818;stroke-width:0.20000000000000004;" width="51.6" x="395.2" y="30.2484"/><text fill="#000000" font-family="sans-serif" font-size="5.6" font-style="italic" lengthAdjust="spacing" textLength="33.6" x="404.2" y="39.0914">&#171;application&#187;</text><text fill="#000000" font-family="sans-serif" font-size="5.6" lengthAdjust="spacing" textLength="46" x="398" y="46.5398">ListCourseService</text><rect fill="#E3E3E3" height="20.4969" rx="1" ry="1" style="stroke:#181818;stroke-width:0.20000000000000004;" width="51.6" x="395.2" y="573.0016"/><text fill="#000000" font-family="sans-serif" font-size="5.6" font-style="italic" lengthAdjust="spacing" textLength="33.6" x="404.2" y="581.8445">&#171;application&#187;</text><text fill="#000000" font-family="sans-serif" font-size="5.6" lengthAdjust="spacing" textLength="46" x="398" y="589.293">ListCourseService</text><rect fill="#E3E3E3" height="20.4969" rx="1" ry="1" style="stroke:#181818;stroke-width:0.20000000000000004;" width="52.8" x="450.8" y="30.2484"/><text fill="#000000" font-family="sans-serif" font-size="5.6" font-style="italic" lengthAdjust="spacing" textLength="33.6" x="460.4" y="39.0914">&#171;application&#187;</text><text fill="#000000" font-family="sans-serif" font-size="5.6" lengthAdjust="spacing" textLength="47.2" x="453.6" y="46.5398">ListStudentService</text><rect fill="#E3E3E3" height="20.4969" rx="1" ry="1" style="stroke:#181818;stroke-width:0.20000000000000004;" width="52.8" x="450.8" y="573.0016"/><text fill="#000000" font-family="sans-serif" font-size="5.6" font-style="italic" lengthAdjust="spacing" textLength="33.6" x="460.4" y="581.8445">&#171;application&#187;</text><text fill="#000000" font-family="sans-serif" font-size="5.6" lengthAdjust="spacing" textLength="47.2" x="453.6" y="589.293">ListStudentService</text><rect fill="#E3E3E3" height="20.4969" rx="1" ry="1" style="stroke:#181818;stroke-width:0.20000000000000004;" width="50" x="507.6" y="30.2484"/><text fill="#000000" font-family="sans-serif" font-size="5.6" font-style="italic" lengthAdjust="spacing" textLength="23.6" x="520.8" y="39.0914">&#171;builder&#187;</text><text fill="#000000" font-family="sans-serif" font-size="5.6" lengthAdjust="spacing" textLength="44.4" x="510.4" y="46.5398">ExtraClassBuilder</text><rect fill="#E3E3E3" height="20.4969" rx="1" ry="1" style="stroke:#181818;stroke-width:0.20000000000000004;" width="50" x="507.6" y="573.0016"/><text fill="#000000" font-family="sans-serif" font-size="5.6" font-style="italic" lengthAdjust="spacing" textLength="23.6" x="520.8" y="581.8445">&#171;builder&#187;</text><text fill="#000000" font-family="sans-serif" font-size="5.6" lengthAdjust="spacing" textLength="44.4" x="510.4" y="589.293">ExtraClassBuilder</text><rect fill="#E3E3E3" height="20.4969" rx="1" ry="1" style="stroke:#181818;stroke-width:0.20000000000000004;" width="42.8" x="561.6" y="30.2484"/><text fill="#000000" font-family="sans-serif" font-size="5.6" font-style="italic" lengthAdjust="spacing" textLength="24.8" x="570.6" y="39.0914">&#171;domain&#187;</text><text fill="#000000" font-family="sans-serif" font-size="5.6" lengthAdjust="spacing" textLength="37.2" x="564.4" y="46.5398">course:Course</text><rect fill="#E3E3E3" height="20.4969" rx="1" ry="1" style="stroke:#181818;stroke-width:0.20000000000000004;" width="42.8" x="561.6" y="573.0016"/><text fill="#000000" font-family="sans-serif" font-size="5.6" font-style="italic" lengthAdjust="spacing" textLength="24.8" x="570.6" y="581.8445">&#171;domain&#187;</text><text fill="#000000" font-family="sans-serif" font-size="5.6" lengthAdjust="spacing" textLength="37.2" x="564.4" y="589.293">course:Course</text><rect fill="#E3E3E3" height="20.4969" rx="1" ry="1" style="stroke:#181818;stroke-width:0.20000000000000004;" width="45.6" x="608.4" y="30.2484"/><text fill="#000000" font-family="sans-serif" font-size="5.6" font-style="italic" lengthAdjust="spacing" textLength="24.8" x="618.8" y="39.0914">&#171;domain&#187;</text><text fill="#000000" font-family="sans-serif" font-size="5.6" lengthAdjust="spacing" textLength="40" x="611.2" y="46.5398">student:Student</text><rect fill="#E3E3E3" height="20.4969" rx="1" ry="1" style="stroke:#181818;stroke-width:0.20000000000000004;" width="45.6" x="608.4" y="573.0016"/><text fill="#000000" font-family="sans-serif" font-size="5.6" font-style="italic" lengthAdjust="spacing" textLength="24.8" x="618.8" y="581.8445">&#171;domain&#187;</text><text fill="#000000" font-family="sans-serif" font-size="5.6" lengthAdjust="spacing" textLength="40" x="611.2" y="589.293">student:Student</text><rect fill="#E3E3E3" height="20.4969" rx="1" ry="1" style="stroke:#181818;stroke-width:0.20000000000000004;" width="60.4" x="658" y="30.2484"/><text fill="#000000" font-family="sans-serif" font-size="5.6" font-style="italic" lengthAdjust="spacing" textLength="24.8" x="675.8" y="39.0914">&#171;domain&#187;</text><text fill="#000000" font-family="sans-serif" font-size="5.6" lengthAdjust="spacing" textLength="54.8" x="660.8" y="46.5398">extraClass:ExtraClass</text><rect fill="#E3E3E3" height="20.4969" rx="1" ry="1" style="stroke:#181818;stroke-width:0.20000000000000004;" width="60.4" x="658" y="573.0016"/><text fill="#000000" font-family="sans-serif" font-size="5.6" font-style="italic" lengthAdjust="spacing" textLength="24.8" x="675.8" y="581.8445">&#171;domain&#187;</text><text fill="#000000" font-family="sans-serif" font-size="5.6" lengthAdjust="spacing" textLength="54.8" x="660.8" y="589.293">extraClass:ExtraClass</text><text fill="#000000" font-family="sans-serif" font-size="5.6" font-style="italic" lengthAdjust="spacing" textLength="31.6" x="729.4" y="42.2914">&#171;repository&#187;</text><text fill="#000000" font-family="sans-serif" font-size="5.6" lengthAdjust="spacing" textLength="45.6" x="722.4" y="49.7398">CourseRepository</text><path d="M739.2,21.8484 C739.2,17.8484 746.4,17.8484 746.4,17.8484 C746.4,17.8484 753.6,17.8484 753.6,21.8484 L753.6,32.2484 C753.6,36.2484 746.4,36.2484 746.4,36.2484 C746.4,36.2484 739.2,36.2484 739.2,32.2484 L739.2,21.8484 " fill="#E3E3E3" style="stroke:#181818;stroke-width:0.6000000000000001;"/><path d="M739.2,21.8484 C739.2,25.8484 746.4,25.8484 746.4,25.8484 C746.4,25.8484 753.6,25.8484 753.6,21.8484 " fill="none" style="stroke:#181818;stroke-width:0.6000000000000001;"/><text fill="#000000" font-family="sans-serif" font-size="5.6" font-style="italic" lengthAdjust="spacing" textLength="31.6" x="729.4" y="579.0445">&#171;repository&#187;</text><text fill="#000000" font-family="sans-serif" font-size="5.6" lengthAdjust="spacing" textLength="45.6" x="722.4" y="586.493">CourseRepository</text><path d="M739.2,591.8984 C739.2,587.8984 746.4,587.8984 746.4,587.8984 C746.4,587.8984 753.6,587.8984 753.6,591.8984 L753.6,602.2984 C753.6,606.2984 746.4,606.2984 746.4,606.2984 C746.4,606.2984 739.2,606.2984 739.2,602.2984 L739.2,591.8984 " fill="#E3E3E3" style="stroke:#181818;stroke-width:0.6000000000000001;"/><path d="M739.2,591.8984 C739.2,595.8984 746.4,595.8984 746.4,595.8984 C746.4,595.8984 753.6,595.8984 753.6,591.8984 " fill="none" style="stroke:#181818;stroke-width:0.6000000000000001;"/><text fill="#000000" font-family="sans-serif" font-size="5.6" font-style="italic" lengthAdjust="spacing" textLength="31.6" x="782" y="42.2914">&#171;repository&#187;</text><text fill="#000000" font-family="sans-serif" font-size="5.6" lengthAdjust="spacing" textLength="46.8" x="774.4" y="49.7398">StudentRepository</text><path d="M791.8,21.8484 C791.8,17.8484 799,17.8484 799,17.8484 C799,17.8484 806.2,17.8484 806.2,21.8484 L806.2,32.2484 C806.2,36.2484 799,36.2484 799,36.2484 C799,36.2484 791.8,36.2484 791.8,32.2484 L791.8,21.8484 " fill="#E3E3E3" style="stroke:#181818;stroke-width:0.6000000000000001;"/><path d="M791.8,21.8484 C791.8,25.8484 799,25.8484 799,25.8484 C799,25.8484 806.2,25.8484 806.2,21.8484 " fill="none" style="stroke:#181818;stroke-width:0.6000000000000001;"/><text fill="#000000" font-family="sans-serif" font-size="5.6" font-style="italic" lengthAdjust="spacing" textLength="31.6" x="782" y="579.0445">&#171;repository&#187;</text><text fill="#000000" font-family="sans-serif" font-size="5.6" lengthAdjust="spacing" textLength="46.8" x="774.4" y="586.493">StudentRepository</text><path d="M791.8,591.8984 C791.8,587.8984 799,587.8984 799,587.8984 C799,587.8984 806.2,587.8984 806.2,591.8984 L806.2,602.2984 C806.2,606.2984 799,606.2984 799,606.2984 C799,606.2984 791.8,606.2984 791.8,602.2984 L791.8,591.8984 " fill="#E3E3E3" style="stroke:#181818;stroke-width:0.6000000000000001;"/><path d="M791.8,591.8984 C791.8,595.8984 799,595.8984 799,595.8984 C799,595.8984 806.2,595.8984 806.2,591.8984 " fill="none" style="stroke:#181818;stroke-width:0.6000000000000001;"/><rect fill="#FFFFFF" height="511.0563" style="stroke:#181818;stroke-width:0.4000000000000001;" width="4" x="13.4" y="55.1453"/><rect fill="#FFFFFF" height="501.7398" style="stroke:#181818;stroke-width:0.4000000000000001;" width="4" x="160.2" y="64.4617"/><rect fill="#FFFFFF" height="62.582" style="stroke:#181818;stroke-width:0.4000000000000001;" width="4" x="311.8" y="102.0109"/><rect fill="#FFFFFF" height="62.582" style="stroke:#181818;stroke-width:0.4000000000000001;" width="4" x="311.8" y="227.175"/><rect fill="#FFFFFF" height="60.582" style="stroke:#181818;stroke-width:0.4000000000000001;" width="4" x="311.8" y="337.8227"/><rect fill="#FFFFFF" height="112.1313" style="stroke:#181818;stroke-width:0.4000000000000001;" width="4" x="311.8" y="441.5539"/><rect fill="#FFFFFF" height="37.5492" style="stroke:#181818;stroke-width:0.4000000000000001;" width="4" x="419" y="114.5273"/><rect fill="#FFFFFF" height="25.0328" style="stroke:#181818;stroke-width:0.4000000000000001;" width="4" x="419" y="350.3391"/><rect fill="#FFFFFF" height="37.5492" style="stroke:#181818;stroke-width:0.4000000000000001;" width="4" x="475.2" y="239.6914"/><rect fill="#FFFFFF" height="37.5492" style="stroke:#181818;stroke-width:0.4000000000000001;" width="4" x="530.6" y="466.5867"/><rect fill="#FFFFFF" height="6" style="stroke:#181818;stroke-width:0.4000000000000001;" width="4" x="581" y="398.4047"/><rect fill="#FFFFFF" height="12" style="stroke:#181818;stroke-width:0.4000000000000001;" width="4" x="581" y="516.6523"/><rect fill="#FFFFFF" height="12.5164" style="stroke:#181818;stroke-width:0.4000000000000001;" width="4" x="686.2" y="479.1031"/><rect fill="#FFFFFF" height="12.5164" style="stroke:#181818;stroke-width:0.4000000000000001;" width="4" x="744.4" y="127.0438"/><rect fill="#FFFFFF" height="12.5164" style="stroke:#181818;stroke-width:0.4000000000000001;" width="4" x="797" y="252.2078"/><polygon fill="#181818" points="155.4,62.8617,159.4,64.4617,155.4,66.0617,157,64.4617" style="stroke:#181818;stroke-width:0.4000000000000001;"/><line style="stroke:#181818;stroke-width:0.4000000000000001;" x1="17.4" x2="157.8" y1="64.4617" y2="64.4617"/><text fill="#000000" font-family="sans-serif" font-size="5.2" font-weight="bold" lengthAdjust="spacing" textLength="2.8" x="20.2" y="62.3566">1</text><text fill="#000000" font-family="sans-serif" font-size="5.2" lengthAdjust="spacing" textLength="79.6" x="24.6" y="62.3566">Pede para agendar uma aula extra</text><polygon fill="#181818" points="309,75.3781,313,76.9781,309,78.5781,310.6,76.9781" style="stroke:#181818;stroke-width:0.4000000000000001;"/><line style="stroke:#181818;stroke-width:0.4000000000000001;" x1="164.2" x2="311.4" y1="76.9781" y2="76.9781"/><text fill="#000000" font-family="sans-serif" font-size="5.2" font-weight="bold" lengthAdjust="spacing" textLength="2.8" x="167" y="74.873">2</text><text fill="#000000" font-family="sans-serif" font-size="5.2" lengthAdjust="spacing" textLength="14.4" x="171.4" y="74.873">create</text><polygon fill="#181818" points="416.2,87.8945,420.2,89.4945,416.2,91.0945,417.8,89.4945" style="stroke:#181818;stroke-width:0.4000000000000001;"/><line style="stroke:#181818;stroke-width:0.4000000000000001;" x1="313.8" x2="418.6" y1="89.4945" y2="89.4945"/><text fill="#000000" font-family="sans-serif" font-size="5.2" font-weight="bold" lengthAdjust="spacing" textLength="2.8" x="316.6" y="87.3895">3</text><text fill="#000000" font-family="sans-serif" font-size="5.2" lengthAdjust="spacing" textLength="14.4" x="321" y="87.3895">create</text><polygon fill="#181818" points="307,100.4109,311,102.0109,307,103.6109,308.6,102.0109" style="stroke:#181818;stroke-width:0.4000000000000001;"/><line style="stroke:#181818;stroke-width:0.4000000000000001;" x1="164.2" x2="309.4" y1="102.0109" y2="102.0109"/><text fill="#000000" font-family="sans-serif" font-size="5.2" font-weight="bold" lengthAdjust="spacing" textLength="2.8" x="167" y="99.9059">4</text><text fill="#000000" font-family="sans-serif" font-size="5.2" lengthAdjust="spacing" textLength="78.4" x="171.4" y="99.9059">listAllTeacherCoursesInProgress()</text><polygon fill="#181818" points="414.2,112.9273,418.2,114.5273,414.2,116.1273,415.8,114.5273" style="stroke:#181818;stroke-width:0.4000000000000001;"/><line style="stroke:#181818;stroke-width:0.4000000000000001;" x1="315.8" x2="416.6" y1="114.5273" y2="114.5273"/><text fill="#000000" font-family="sans-serif" font-size="5.2" font-weight="bold" lengthAdjust="spacing" textLength="2.8" x="318.6" y="112.4223">5</text><text fill="#000000" font-family="sans-serif" font-size="5.2" lengthAdjust="spacing" textLength="88" x="323" y="112.4223">allTeacherCoursesInProgress(teacher)</text><polygon fill="#181818" points="739.6,125.4438,743.6,127.0438,739.6,128.6438,741.2,127.0438" style="stroke:#181818;stroke-width:0.4000000000000001;"/><line style="stroke:#181818;stroke-width:0.4000000000000001;" x1="423" x2="742" y1="127.0438" y2="127.0438"/><text fill="#000000" font-family="sans-serif" font-size="5.2" font-weight="bold" lengthAdjust="spacing" textLength="2.8" x="425.8" y="124.9387">6</text><text fill="#000000" font-family="sans-serif" font-size="5.2" lengthAdjust="spacing" textLength="110" x="430.2" y="124.9387">list = findAllTeacherCoursesInProgress(teacher)</text><polygon fill="#181818" points="427.4,137.9602,423.4,139.5602,427.4,141.1602,425.8,139.5602" style="stroke:#181818;stroke-width:0.4000000000000001;"/><line style="stroke:#181818;stroke-width:0.4000000000000001;stroke-dasharray:2.0,2.0;" x1="425" x2="746" y1="139.5602" y2="139.5602"/><text fill="#000000" font-family="sans-serif" font-size="5.2" font-weight="bold" lengthAdjust="spacing" textLength="2.8" x="429.8" y="137.4551">7</text><text fill="#000000" font-family="sans-serif" font-size="5.2" lengthAdjust="spacing" textLength="1.6" x="434.2" y="137.4551">&#160;</text><polygon fill="#181818" points="320.2,150.4766,316.2,152.0766,320.2,153.6766,318.6,152.0766" style="stroke:#181818;stroke-width:0.4000000000000001;"/><line style="stroke:#181818;stroke-width:0.4000000000000001;stroke-dasharray:2.0,2.0;" x1="317.8" x2="420.6" y1="152.0766" y2="152.0766"/><text fill="#000000" font-family="sans-serif" font-size="5.2" font-weight="bold" lengthAdjust="spacing" textLength="2.8" x="322.6" y="149.9715">8</text><text fill="#000000" font-family="sans-serif" font-size="5.2" lengthAdjust="spacing" textLength="6.8" x="327" y="149.9715">list</text><polygon fill="#181818" points="168.6,162.993,164.6,164.593,168.6,166.193,167,164.593" style="stroke:#181818;stroke-width:0.4000000000000001;"/><line style="stroke:#181818;stroke-width:0.4000000000000001;stroke-dasharray:2.0,2.0;" x1="166.2" x2="313.4" y1="164.593" y2="164.593"/><text fill="#000000" font-family="sans-serif" font-size="5.2" font-weight="bold" lengthAdjust="spacing" textLength="2.8" x="171" y="162.4879">9</text><text fill="#000000" font-family="sans-serif" font-size="5.2" lengthAdjust="spacing" textLength="6.8" x="175.4" y="162.4879">list</text><polygon fill="#181818" points="21.8,175.5094,17.8,177.1094,21.8,178.7094,20.2,177.1094" style="stroke:#181818;stroke-width:0.4000000000000001;"/><line style="stroke:#181818;stroke-width:0.4000000000000001;stroke-dasharray:2.0,2.0;" x1="19.4" x2="159.8" y1="177.1094" y2="177.1094"/><text fill="#000000" font-family="sans-serif" font-size="5.2" font-weight="bold" lengthAdjust="spacing" textLength="5.6" x="24.2" y="175.0043">10</text><text fill="#000000" font-family="sans-serif" font-size="5.2" lengthAdjust="spacing" textLength="126" x="31.4" y="175.0043">Mostra a lista de disciplinas em progresso que leciona</text><polygon fill="#181818" points="155.4,188.0258,159.4,189.6258,155.4,191.2258,157,189.6258" style="stroke:#181818;stroke-width:0.4000000000000001;"/><line style="stroke:#181818;stroke-width:0.4000000000000001;" x1="17.4" x2="157.8" y1="189.6258" y2="189.6258"/><text fill="#000000" font-family="sans-serif" font-size="5.2" font-weight="bold" lengthAdjust="spacing" textLength="5.6" x="20.2" y="187.5207">11</text><text fill="#000000" font-family="sans-serif" font-size="5.2" lengthAdjust="spacing" textLength="50.4" x="27.4" y="187.5207">Seleciona a disciplina</text><polygon fill="#181818" points="21.8,200.5422,17.8,202.1422,21.8,203.7422,20.2,202.1422" style="stroke:#181818;stroke-width:0.4000000000000001;"/><line style="stroke:#181818;stroke-width:0.4000000000000001;stroke-dasharray:2.0,2.0;" x1="19.4" x2="159.8" y1="202.1422" y2="202.1422"/><text fill="#000000" font-family="sans-serif" font-size="5.2" font-weight="bold" lengthAdjust="spacing" textLength="5.6" x="24.2" y="200.0371">12</text><text fill="#000000" font-family="sans-serif" font-size="5.2" lengthAdjust="spacing" textLength="70.4" x="31.4" y="200.0371">Pede informa&#231;&#227;o da aula extra</text><polygon fill="#181818" points="155.4,213.0586,159.4,214.6586,155.4,216.2586,157,214.6586" style="stroke:#181818;stroke-width:0.4000000000000001;"/><line style="stroke:#181818;stroke-width:0.4000000000000001;" x1="17.4" x2="157.8" y1="214.6586" y2="214.6586"/><text fill="#000000" font-family="sans-serif" font-size="5.2" font-weight="bold" lengthAdjust="spacing" textLength="5.6" x="20.2" y="212.5535">13</text><text fill="#000000" font-family="sans-serif" font-size="5.2" lengthAdjust="spacing" textLength="120.4" x="27.4" y="212.5535">Escreve a informa&#231;&#227;o da aula extra (data e dura&#231;&#227;o)</text><polygon fill="#181818" points="307,225.575,311,227.175,307,228.775,308.6,227.175" style="stroke:#181818;stroke-width:0.4000000000000001;"/><line style="stroke:#181818;stroke-width:0.4000000000000001;" x1="164.2" x2="309.4" y1="227.175" y2="227.175"/><text fill="#000000" font-family="sans-serif" font-size="5.2" font-weight="bold" lengthAdjust="spacing" textLength="5.6" x="167" y="225.0699">14</text><text fill="#000000" font-family="sans-serif" font-size="5.2" lengthAdjust="spacing" textLength="113.2" x="174.2" y="225.0699">listAllApprovedEnrollmentsStudents(courseCode)</text><polygon fill="#181818" points="470.4,238.0914,474.4,239.6914,470.4,241.2914,472,239.6914" style="stroke:#181818;stroke-width:0.4000000000000001;"/><line style="stroke:#181818;stroke-width:0.4000000000000001;" x1="315.8" x2="472.8" y1="239.6914" y2="239.6914"/><text fill="#000000" font-family="sans-serif" font-size="5.2" font-weight="bold" lengthAdjust="spacing" textLength="5.6" x="318.6" y="237.5863">15</text><text fill="#000000" font-family="sans-serif" font-size="5.2" lengthAdjust="spacing" textLength="105.6" x="325.8" y="237.5863">allApprovedEnrollmentsStudents(courseCode)</text><polygon fill="#181818" points="792.2,250.6078,796.2,252.2078,792.2,253.8078,793.8,252.2078" style="stroke:#181818;stroke-width:0.4000000000000001;"/><line style="stroke:#181818;stroke-width:0.4000000000000001;" x1="479.2" x2="794.6" y1="252.2078" y2="252.2078"/><text fill="#000000" font-family="sans-serif" font-size="5.2" font-weight="bold" lengthAdjust="spacing" textLength="5.6" x="482" y="250.1027">16</text><text fill="#000000" font-family="sans-serif" font-size="5.2" lengthAdjust="spacing" textLength="127.6" x="489.2" y="250.1027">list = findAllApprovedEnrollmentsStudents(courseCode)</text><polygon fill="#181818" points="483.6,263.1242,479.6,264.7242,483.6,266.3242,482,264.7242" style="stroke:#181818;stroke-width:0.4000000000000001;"/><line style="stroke:#181818;stroke-width:0.4000000000000001;stroke-dasharray:2.0,2.0;" x1="481.2" x2="798.6" y1="264.7242" y2="264.7242"/><text fill="#000000" font-family="sans-serif" font-size="5.2" font-weight="bold" lengthAdjust="spacing" textLength="5.6" x="486" y="262.6191">17</text><text fill="#000000" font-family="sans-serif" font-size="5.2" lengthAdjust="spacing" textLength="1.6" x="493.2" y="262.6191">&#160;</text><polygon fill="#181818" points="320.2,275.6406,316.2,277.2406,320.2,278.8406,318.6,277.2406" style="stroke:#181818;stroke-width:0.4000000000000001;"/><line style="stroke:#181818;stroke-width:0.4000000000000001;stroke-dasharray:2.0,2.0;" x1="317.8" x2="476.8" y1="277.2406" y2="277.2406"/><text fill="#000000" font-family="sans-serif" font-size="5.2" font-weight="bold" lengthAdjust="spacing" textLength="5.6" x="322.6" y="275.1355">18</text><text fill="#000000" font-family="sans-serif" font-size="5.2" lengthAdjust="spacing" textLength="6.8" x="329.8" y="275.1355">list</text><polygon fill="#181818" points="168.6,288.157,164.6,289.757,168.6,291.357,167,289.757" style="stroke:#181818;stroke-width:0.4000000000000001;"/><line style="stroke:#181818;stroke-width:0.4000000000000001;stroke-dasharray:2.0,2.0;" x1="166.2" x2="313.4" y1="289.757" y2="289.757"/><text fill="#000000" font-family="sans-serif" font-size="5.2" font-weight="bold" lengthAdjust="spacing" textLength="5.6" x="171" y="287.652">19</text><text fill="#000000" font-family="sans-serif" font-size="5.2" lengthAdjust="spacing" textLength="6.8" x="178.2" y="287.652">list</text><polygon fill="#181818" points="21.8,300.6734,17.8,302.2734,21.8,303.8734,20.2,302.2734" style="stroke:#181818;stroke-width:0.4000000000000001;"/><line style="stroke:#181818;stroke-width:0.4000000000000001;stroke-dasharray:2.0,2.0;" x1="19.4" x2="159.8" y1="302.2734" y2="302.2734"/><text fill="#000000" font-family="sans-serif" font-size="5.2" font-weight="bold" lengthAdjust="spacing" textLength="5.6" x="24.2" y="300.1684">20</text><text fill="#000000" font-family="sans-serif" font-size="5.2" lengthAdjust="spacing" textLength="110" x="31.4" y="300.1684">Mostra a lista dos alunos inscritos na disciplina</text><polygon fill="#181818" points="155.4,313.1898,159.4,314.7898,155.4,316.3898,157,314.7898" style="stroke:#181818;stroke-width:0.4000000000000001;"/><line style="stroke:#181818;stroke-width:0.4000000000000001;" x1="17.4" x2="157.8" y1="314.7898" y2="314.7898"/><text fill="#000000" font-family="sans-serif" font-size="5.2" font-weight="bold" lengthAdjust="spacing" textLength="5.6" x="20.2" y="312.6848">21</text><text fill="#000000" font-family="sans-serif" font-size="5.2" lengthAdjust="spacing" textLength="46.8" x="27.4" y="312.6848">Seleciona os alunos</text><path d="M131,320.7898 L160.2,320.7898 L160.2,324.5063 L156.2,328.5063 L131,328.5063 L131,320.7898 " fill="#EEEEEE" style="stroke:#000000;stroke-width:0.6000000000000001;"/><rect fill="none" height="83.6148" style="stroke:#000000;stroke-width:0.6000000000000001;" width="643.4" x="131" y="320.7898"/><text fill="#000000" font-family="sans-serif" font-size="5.2" font-weight="bold" lengthAdjust="spacing" textLength="11.2" x="137" y="326.8012">loop</text><text fill="#000000" font-family="sans-serif" font-size="4.4" font-weight="bold" lengthAdjust="spacing" textLength="47.6" x="166.2" y="326.3379">[Para cada estudante]</text><polygon fill="#181818" points="307,336.2227,311,337.8227,307,339.4227,308.6,337.8227" style="stroke:#181818;stroke-width:0.4000000000000001;"/><line style="stroke:#181818;stroke-width:0.4000000000000001;" x1="164.2" x2="309.4" y1="337.8227" y2="337.8227"/><text fill="#000000" font-family="sans-serif" font-size="5.2" font-weight="bold" lengthAdjust="spacing" textLength="5.6" x="167" y="335.7176">22</text><text fill="#000000" font-family="sans-serif" font-size="5.2" lengthAdjust="spacing" textLength="129.2" x="174.2" y="335.7176">checkStudentsAvailability(startDate, endDate, students)</text><polygon fill="#181818" points="414.2,348.7391,418.2,350.3391,414.2,351.9391,415.8,350.3391" style="stroke:#181818;stroke-width:0.4000000000000001;"/><line style="stroke:#181818;stroke-width:0.4000000000000001;" x1="315.8" x2="416.6" y1="350.3391" y2="350.3391"/><text fill="#000000" font-family="sans-serif" font-size="5.2" font-weight="bold" lengthAdjust="spacing" textLength="5.6" x="318.6" y="348.234">23</text><text fill="#000000" font-family="sans-serif" font-size="5.2" lengthAdjust="spacing" textLength="88.4" x="325.8" y="348.234">allApprovedStudentCoursesInProgress</text><polygon fill="#181818" points="741.6,361.2555,745.6,362.8555,741.6,364.4555,743.2,362.8555" style="stroke:#181818;stroke-width:0.4000000000000001;"/><line style="stroke:#181818;stroke-width:0.4000000000000001;" x1="423" x2="744" y1="362.8555" y2="362.8555"/><text fill="#000000" font-family="sans-serif" font-size="5.2" font-weight="bold" lengthAdjust="spacing" textLength="5.6" x="425.8" y="360.7504">24</text><text fill="#000000" font-family="sans-serif" font-size="5.2" lengthAdjust="spacing" textLength="130.8" x="433" y="360.7504">list = findAllApprovedStudentCoursesInProgress(student)</text><polygon fill="#181818" points="425.4,373.7719,421.4,375.3719,425.4,376.9719,423.8,375.3719" style="stroke:#181818;stroke-width:0.4000000000000001;"/><line style="stroke:#181818;stroke-width:0.4000000000000001;" x1="423" x2="746" y1="375.3719" y2="375.3719"/><text fill="#000000" font-family="sans-serif" font-size="5.2" font-weight="bold" lengthAdjust="spacing" textLength="5.6" x="427.8" y="373.2668">25</text><text fill="#000000" font-family="sans-serif" font-size="5.2" lengthAdjust="spacing" textLength="1.6" x="435" y="373.2668">&#160;</text><path d="M274.2,381.3719 L303.4,381.3719 L303.4,385.0883 L299.4,389.0883 L274.2,389.0883 L274.2,381.3719 " fill="#EEEEEE" style="stroke:#000000;stroke-width:0.6000000000000001;"/><rect fill="none" height="20.2328" style="stroke:#000000;stroke-width:0.6000000000000001;" width="334.2" x="274.2" y="381.3719"/><text fill="#000000" font-family="sans-serif" font-size="5.2" font-weight="bold" lengthAdjust="spacing" textLength="11.2" x="280.2" y="387.3832">loop</text><text fill="#000000" font-family="sans-serif" font-size="4.4" font-weight="bold" lengthAdjust="spacing" textLength="68.4" x="309.4" y="386.9199">[Para cada curso do estudante]</text><polygon fill="#181818" points="576.2,396.8047,580.2,398.4047,576.2,400.0047,577.8,398.4047" style="stroke:#181818;stroke-width:0.4000000000000001;"/><line style="stroke:#181818;stroke-width:0.4000000000000001;" x1="313.8" x2="578.6" y1="398.4047" y2="398.4047"/><text fill="#000000" font-family="sans-serif" font-size="5.2" font-weight="bold" lengthAdjust="spacing" textLength="5.6" x="316.6" y="396.2996">26</text><text fill="#000000" font-family="sans-serif" font-size="5.2" lengthAdjust="spacing" textLength="126.4" x="323.8" y="396.2996">checkStudentsAvailability(startDate, endDate, student)</text><polygon fill="#181818" points="21.8,414.9211,17.8,416.5211,21.8,418.1211,20.2,416.5211" style="stroke:#181818;stroke-width:0.4000000000000001;"/><line style="stroke:#181818;stroke-width:0.4000000000000001;stroke-dasharray:2.0,2.0;" x1="19.4" x2="159.8" y1="416.5211" y2="416.5211"/><text fill="#000000" font-family="sans-serif" font-size="5.2" font-weight="bold" lengthAdjust="spacing" textLength="5.6" x="24.2" y="414.416">27</text><text fill="#000000" font-family="sans-serif" font-size="5.2" lengthAdjust="spacing" textLength="107.2" x="31.4" y="414.416">Mostra os alunos dispon&#237;veis para a aula extra</text><polygon fill="#181818" points="155.4,427.4375,159.4,429.0375,155.4,430.6375,157,429.0375" style="stroke:#181818;stroke-width:0.4000000000000001;"/><line style="stroke:#181818;stroke-width:0.4000000000000001;" x1="17.4" x2="157.8" y1="429.0375" y2="429.0375"/><text fill="#000000" font-family="sans-serif" font-size="5.2" font-weight="bold" lengthAdjust="spacing" textLength="5.6" x="20.2" y="426.9324">28</text><text fill="#000000" font-family="sans-serif" font-size="5.2" lengthAdjust="spacing" textLength="47.6" x="27.4" y="426.9324">Confirma a opera&#231;&#227;o</text><polygon fill="#181818" points="307,439.9539,311,441.5539,307,443.1539,308.6,441.5539" style="stroke:#181818;stroke-width:0.4000000000000001;"/><line style="stroke:#181818;stroke-width:0.4000000000000001;" x1="164.2" x2="309.4" y1="441.5539" y2="441.5539"/><text fill="#000000" font-family="sans-serif" font-size="5.2" font-weight="bold" lengthAdjust="spacing" textLength="5.6" x="167" y="439.4488">29</text><text fill="#000000" font-family="sans-serif" font-size="5.2" lengthAdjust="spacing" textLength="132.8" x="174.2" y="439.4488">addExtraClassToCourse(course, date, duration, students)</text><polygon fill="#181818" points="527.8,452.4703,531.8,454.0703,527.8,455.6703,529.4,454.0703" style="stroke:#181818;stroke-width:0.4000000000000001;"/><line style="stroke:#181818;stroke-width:0.4000000000000001;" x1="315.8" x2="530.2" y1="454.0703" y2="454.0703"/><text fill="#000000" font-family="sans-serif" font-size="5.2" font-weight="bold" lengthAdjust="spacing" textLength="5.6" x="318.6" y="451.9652">30</text><text fill="#000000" font-family="sans-serif" font-size="5.2" lengthAdjust="spacing" textLength="14.4" x="325.8" y="451.9652">create</text><polygon fill="#181818" points="525.8,464.9867,529.8,466.5867,525.8,468.1867,527.4,466.5867" style="stroke:#181818;stroke-width:0.4000000000000001;"/><line style="stroke:#181818;stroke-width:0.4000000000000001;" x1="315.8" x2="528.2" y1="466.5867" y2="466.5867"/><text fill="#000000" font-family="sans-serif" font-size="5.2" font-weight="bold" lengthAdjust="spacing" textLength="5.6" x="318.6" y="464.4816">31</text><text fill="#000000" font-family="sans-serif" font-size="5.2" lengthAdjust="spacing" textLength="43.2" x="325.8" y="464.4816">createExtraClass()</text><polygon fill="#181818" points="681.4,477.5031,685.4,479.1031,681.4,480.7031,683,479.1031" style="stroke:#181818;stroke-width:0.4000000000000001;"/><line style="stroke:#181818;stroke-width:0.4000000000000001;" x1="534.6" x2="683.8" y1="479.1031" y2="479.1031"/><text fill="#000000" font-family="sans-serif" font-size="5.2" font-weight="bold" lengthAdjust="spacing" textLength="5.6" x="537.4" y="476.998">32</text><text fill="#000000" font-family="sans-serif" font-size="5.2" lengthAdjust="spacing" textLength="92.8" x="544.6" y="476.998">create(date, duration, teacher, students)</text><polygon fill="#181818" points="539,490.0195,535,491.6195,539,493.2195,537.4,491.6195" style="stroke:#181818;stroke-width:0.4000000000000001;"/><line style="stroke:#181818;stroke-width:0.4000000000000001;" x1="536.6" x2="687.8" y1="491.6195" y2="491.6195"/><text fill="#000000" font-family="sans-serif" font-size="5.2" font-weight="bold" lengthAdjust="spacing" textLength="5.6" x="541.4" y="489.5145">33</text><text fill="#000000" font-family="sans-serif" font-size="5.2" lengthAdjust="spacing" textLength="24.8" x="548.6" y="489.5145">extraClass</text><polygon fill="#181818" points="320.2,502.5359,316.2,504.1359,320.2,505.7359,318.6,504.1359" style="stroke:#181818;stroke-width:0.4000000000000001;"/><line style="stroke:#181818;stroke-width:0.4000000000000001;" x1="317.8" x2="532.2" y1="504.1359" y2="504.1359"/><text fill="#000000" font-family="sans-serif" font-size="5.2" font-weight="bold" lengthAdjust="spacing" textLength="5.6" x="322.6" y="502.0309">34</text><text fill="#000000" font-family="sans-serif" font-size="5.2" lengthAdjust="spacing" textLength="24.8" x="329.8" y="502.0309">extraClass</text><polygon fill="#181818" points="576.2,515.0523,580.2,516.6523,576.2,518.2523,577.8,516.6523" style="stroke:#181818;stroke-width:0.4000000000000001;"/><line style="stroke:#181818;stroke-width:0.4000000000000001;" x1="315.8" x2="578.6" y1="516.6523" y2="516.6523"/><text fill="#000000" font-family="sans-serif" font-size="5.2" font-weight="bold" lengthAdjust="spacing" textLength="5.6" x="318.6" y="514.5473">35</text><text fill="#000000" font-family="sans-serif" font-size="5.2" lengthAdjust="spacing" textLength="62" x="325.8" y="514.5473">addExtraClass(extraClass)</text><polygon fill="#181818" points="741.6,539.5688,745.6,541.1688,741.6,542.7688,743.2,541.1688" style="stroke:#181818;stroke-width:0.4000000000000001;"/><line style="stroke:#181818;stroke-width:0.4000000000000001;" x1="315.8" x2="744" y1="541.1688" y2="541.1688"/><text fill="#000000" font-family="sans-serif" font-size="5.2" font-weight="bold" lengthAdjust="spacing" textLength="5.6" x="318.6" y="539.0637">36</text><text fill="#000000" font-family="sans-serif" font-size="5.2" lengthAdjust="spacing" textLength="29.2" x="325.8" y="539.0637">save(course)</text><polygon fill="#181818" points="168.6,552.0852,164.6,553.6852,168.6,555.2852,167,553.6852" style="stroke:#181818;stroke-width:0.4000000000000001;"/><line style="stroke:#181818;stroke-width:0.4000000000000001;stroke-dasharray:2.0,2.0;" x1="166.2" x2="313.4" y1="553.6852" y2="553.6852"/><text fill="#000000" font-family="sans-serif" font-size="5.2" font-weight="bold" lengthAdjust="spacing" textLength="5.6" x="171" y="551.5801">37</text><text fill="#000000" font-family="sans-serif" font-size="5.2" lengthAdjust="spacing" textLength="15.6" x="178.2" y="551.5801">course</text><polygon fill="#181818" points="19.8,564.6016,15.8,566.2016,19.8,567.8016,18.2,566.2016" style="stroke:#181818;stroke-width:0.4000000000000001;"/><line style="stroke:#181818;stroke-width:0.4000000000000001;stroke-dasharray:2.0,2.0;" x1="17.4" x2="161.8" y1="566.2016" y2="566.2016"/><text fill="#000000" font-family="sans-serif" font-size="5.2" font-weight="bold" lengthAdjust="spacing" textLength="5.6" x="22.2" y="564.0965">38</text><text fill="#000000" font-family="sans-serif" font-size="5.2" lengthAdjust="spacing" textLength="72.4" x="29.4" y="564.0965">Informa o sucesso da opera&#231;&#227;o</text><!--SRC=[lLVDRjim3BxxAOYU4c05rckG5SZI7WfiGB6q3w3QJ2fKaJn9pjRdsM6dFKLVR9HbM_9lWXHR3eaianz9YH_9c1SkSwRP7lPAglHPgps2rGKcfdcJi_I5xN1ZNmM2njGokHEnW7bccVh1vGwsJ1XC4iijYMxmUu4oHRZXREVaPfkRELp2umQkFbvT9QomIXRx9zH9mbAhDDnhjKLZQCKChDnMGXOiJtdEf8MrHcRnzgVLR2sOCOztJew-byjSeq5fcULANbydgP9MAz7JMFjzWQM5w6cvP7akU5e3n6Q_S6FNgj06DwWFd08gTUEDO-eRMsJaNgJVsPa22Ev_BhZ8lE_rShbyygkEqaLQEhZmVbu4bs_Kdd59UbcvwAePxzUYykyYylM89ZPkBeB7fNvux4DapB8dPh3oxXlcod2w-DVWSRItNEhc8LQkF6nhzpSxwYxh-84IfCere4-vWijhbrOBkCSCmIKv405anZGKUreNWa4PRgdIe3pUbS_kGzg44INO0j8o5nk9w5qf6QTJJtW0Jb1QhOHuG9O-e_RwvauIXNR41JERDygDVq4_ET4DDc70-XU3TYAKs5GCtbYBxiT71PzWosMsUeVjWDar7rcxx0VS26SuZZWIpz05ZUFLfpDq3tNsZIFqxz5b2Edvz5t0LsMiozeIWv4oPDmGKmMNn0oaebuTfG8gqY0mfRh30boR1Xki10Wmu8mQBrd3vLRfFNlx_VPBGTOYpOYLMqDPVw3gEA4BCyTve70AxT_FanDOiieftWDcjzAzsLDLC5LrC3DVADSgmxCeqoda9MVEDjS62oOxHeBP2VAyruaX3lMjNWuSmL3Eza77OZkLHvsp-az4KeOkk93qmoNbAuLYG0wpOen33KGG5KhbSE_wJCeetz5rOMggams02c3wKj_ewi2uO4zSSFiw8qUrlQ40Fm0rBR-e-hg9wFA-lb2dL-L1hqR_mxPmpFIi2dO-KVlxfVzuhHwxhfI4g4wfWNiREiPg23hp1kT74ddasBtHvYsXbb6C1trCOPWdWHx4Y5p9jpy7vAOQeKxe0HJ8bcitOu7AiIhnanMUPLcOBn-KTxugS1-eURYZSyt23TOn3SvWGJrp7vdbkcB1lQ6Xh98EDcjrGkeDpZNah1jNDH1D1jX5QoHwPbf1XBb-A5bwe4Dnj2vi6gzt79CCQbt-B23FJwJ1MDPFMczL9iCETRRD9tkGbpcp2ztvWGWKc28jfxQiHP0E8lqHYPxydvk_]--></g></svg>