<?xml version="1.0" encoding="us-ascii" standalone="no"?><svg xmlns="http://www.w3.org/2000/svg" xmlns:xlink="http://www.w3.org/1999/xlink" contentStyleType="text/css" height="534px" preserveAspectRatio="none" style="width:1273px;height:534px;background:#FFFFFF;" version="1.1" viewBox="0 0 1273 534" width="1273px" zoomAndPan="magnify"><defs/><g><text fill="#000000" font-family="sans-serif" font-size="14" font-weight="bold" lengthAdjust="spacing" textLength="209" x="525.25" y="25.1074">Class Diagram (SSD) - US 4001</text><!--class CreateMeetingUI--><g id="elem_CreateMeetingUI"><rect codeLine="5" fill="#F1F1F1" height="79.2031" id="CreateMeetingUI" rx="2.5" ry="2.5" style="stroke:#181818;stroke-width:0.5;" width="137" x="778" y="46.6211"/><ellipse cx="793" cy="68.9121" fill="#ADD1B2" rx="11" ry="11" style="stroke:#181818;stroke-width:1.0;"/><path d="M795.7656,64.7871 Q795.9219,64.5684 796.1094,64.459 Q796.2969,64.3496 796.5156,64.3496 Q796.8906,64.3496 797.125,64.6152 Q797.3594,64.8652 797.3594,65.4746 L797.3594,66.9277 Q797.3594,67.5371 797.125,67.8027 Q796.8906,68.0684 796.5156,68.0684 Q796.1719,68.0684 795.9688,67.8652 Q795.7656,67.6777 795.6563,67.1621 Q795.6094,66.8027 795.4219,66.6152 Q795.0938,66.2402 794.4844,66.0215 Q793.875,65.8027 793.25,65.8027 Q792.4844,65.8027 791.8438,66.1309 Q791.2188,66.459 790.7188,67.209 Q790.2344,67.959 790.2344,68.9902 L790.2344,70.084 Q790.2344,71.3184 791.125,72.1465 Q792.0156,72.959 793.6094,72.959 Q794.5469,72.959 795.2031,72.709 Q795.5938,72.5527 796.0156,72.1152 Q796.2813,71.8496 796.4219,71.7715 Q796.5781,71.6934 796.7813,71.6934 Q797.1094,71.6934 797.3594,71.959 Q797.625,72.209 797.625,72.5527 Q797.625,72.8965 797.2813,73.3027 Q796.7813,73.8809 795.9844,74.209 Q794.9063,74.6621 793.6094,74.6621 Q792.0938,74.6621 790.8906,74.0371 Q789.9063,73.5371 789.2188,72.4746 Q788.5313,71.3965 788.5313,70.1152 L788.5313,68.959 Q788.5313,67.6309 789.1406,66.4902 Q789.7656,65.334 790.8594,64.7246 Q791.9531,64.0996 793.1875,64.0996 Q793.9219,64.0996 794.5625,64.2715 Q795.2188,64.4277 795.7656,64.7871 Z " fill="#000000"/><text fill="#000000" font-family="sans-serif" font-size="12" font-style="italic" lengthAdjust="spacing" textLength="82" x="818.5" y="64.5703">&#171;presentation&#187;</text><text fill="#000000" font-family="sans-serif" font-size="14" lengthAdjust="spacing" textLength="105" x="807" y="82.6895">CreateMeetingUI</text><line style="stroke:#181818;stroke-width:0.5;" x1="779" x2="914" y1="91.2031" y2="91.2031"/><line style="stroke:#181818;stroke-width:0.5;" x1="779" x2="914" y1="99.2031" y2="99.2031"/><text fill="#000000" font-family="sans-serif" font-size="14" lengthAdjust="spacing" textLength="60" x="784" y="118.3105">doShow()</text></g><!--class JpaMeetingRepository--><g id="elem_JpaMeetingRepository"><rect codeLine="9" fill="#F1F1F1" height="60.582" id="JpaMeetingRepository" rx="2.5" ry="2.5" style="stroke:#181818;stroke-width:0.5;" width="172" x="253.5" y="466.6211"/><ellipse cx="268.5" cy="488.9121" fill="#ADD1B2" rx="11" ry="11" style="stroke:#181818;stroke-width:1.0;"/><path d="M271.2656,484.7871 Q271.4219,484.5684 271.6094,484.459 Q271.7969,484.3496 272.0156,484.3496 Q272.3906,484.3496 272.625,484.6152 Q272.8594,484.8652 272.8594,485.4746 L272.8594,486.9277 Q272.8594,487.5371 272.625,487.8027 Q272.3906,488.0684 272.0156,488.0684 Q271.6719,488.0684 271.4688,487.8652 Q271.2656,487.6777 271.1563,487.1621 Q271.1094,486.8027 270.9219,486.6152 Q270.5938,486.2402 269.9844,486.0215 Q269.375,485.8027 268.75,485.8027 Q267.9844,485.8027 267.3438,486.1309 Q266.7188,486.459 266.2188,487.209 Q265.7344,487.959 265.7344,488.9902 L265.7344,490.084 Q265.7344,491.3184 266.625,492.1465 Q267.5156,492.959 269.1094,492.959 Q270.0469,492.959 270.7031,492.709 Q271.0938,492.5527 271.5156,492.1152 Q271.7813,491.8496 271.9219,491.7715 Q272.0781,491.6934 272.2813,491.6934 Q272.6094,491.6934 272.8594,491.959 Q273.125,492.209 273.125,492.5527 Q273.125,492.8965 272.7813,493.3027 Q272.2813,493.8809 271.4844,494.209 Q270.4063,494.6621 269.1094,494.6621 Q267.5938,494.6621 266.3906,494.0371 Q265.4063,493.5371 264.7188,492.4746 Q264.0313,491.3965 264.0313,490.1152 L264.0313,488.959 Q264.0313,487.6309 264.6406,486.4902 Q265.2656,485.334 266.3594,484.7246 Q267.4531,484.0996 268.6875,484.0996 Q269.4219,484.0996 270.0625,484.2715 Q270.7188,484.4277 271.2656,484.7871 Z " fill="#000000"/><text fill="#000000" font-family="sans-serif" font-size="12" font-style="italic" lengthAdjust="spacing" textLength="77" x="314" y="484.5703">&#171;persistence&#187;</text><text fill="#000000" font-family="sans-serif" font-size="14" lengthAdjust="spacing" textLength="140" x="282.5" y="502.6895">JpaMeetingRepository</text><line style="stroke:#181818;stroke-width:0.5;" x1="254.5" x2="424.5" y1="511.2031" y2="511.2031"/><line style="stroke:#181818;stroke-width:0.5;" x1="254.5" x2="424.5" y1="519.2031" y2="519.2031"/></g><!--class InMemoryMeetingRepository--><g id="elem_InMemoryMeetingRepository"><rect codeLine="10" fill="#F1F1F1" height="60.582" id="InMemoryMeetingRepository" rx="2.5" ry="2.5" style="stroke:#181818;stroke-width:0.5;" width="211" x="7" y="466.6211"/><ellipse cx="22" cy="488.9121" fill="#ADD1B2" rx="11" ry="11" style="stroke:#181818;stroke-width:1.0;"/><path d="M24.7656,484.7871 Q24.9219,484.5684 25.1094,484.459 Q25.2969,484.3496 25.5156,484.3496 Q25.8906,484.3496 26.125,484.6152 Q26.3594,484.8652 26.3594,485.4746 L26.3594,486.9277 Q26.3594,487.5371 26.125,487.8027 Q25.8906,488.0684 25.5156,488.0684 Q25.1719,488.0684 24.9688,487.8652 Q24.7656,487.6777 24.6563,487.1621 Q24.6094,486.8027 24.4219,486.6152 Q24.0938,486.2402 23.4844,486.0215 Q22.875,485.8027 22.25,485.8027 Q21.4844,485.8027 20.8438,486.1309 Q20.2188,486.459 19.7188,487.209 Q19.2344,487.959 19.2344,488.9902 L19.2344,490.084 Q19.2344,491.3184 20.125,492.1465 Q21.0156,492.959 22.6094,492.959 Q23.5469,492.959 24.2031,492.709 Q24.5938,492.5527 25.0156,492.1152 Q25.2813,491.8496 25.4219,491.7715 Q25.5781,491.6934 25.7813,491.6934 Q26.1094,491.6934 26.3594,491.959 Q26.625,492.209 26.625,492.5527 Q26.625,492.8965 26.2813,493.3027 Q25.7813,493.8809 24.9844,494.209 Q23.9063,494.6621 22.6094,494.6621 Q21.0938,494.6621 19.8906,494.0371 Q18.9063,493.5371 18.2188,492.4746 Q17.5313,491.3965 17.5313,490.1152 L17.5313,488.959 Q17.5313,487.6309 18.1406,486.4902 Q18.7656,485.334 19.8594,484.7246 Q20.9531,484.0996 22.1875,484.0996 Q22.9219,484.0996 23.5625,484.2715 Q24.2188,484.4277 24.7656,484.7871 Z " fill="#000000"/><text fill="#000000" font-family="sans-serif" font-size="12" font-style="italic" lengthAdjust="spacing" textLength="77" x="87" y="484.5703">&#171;persistence&#187;</text><text fill="#000000" font-family="sans-serif" font-size="14" lengthAdjust="spacing" textLength="179" x="36" y="502.6895">InMemoryMeetingRepository</text><line style="stroke:#181818;stroke-width:0.5;" x1="8" x2="217" y1="511.2031" y2="511.2031"/><line style="stroke:#181818;stroke-width:0.5;" x1="8" x2="217" y1="519.2031" y2="519.2031"/></g><!--class JpaUserRepository--><g id="elem_JpaUserRepository"><rect codeLine="12" fill="#F1F1F1" height="60.582" id="JpaUserRepository" rx="2.5" ry="2.5" style="stroke:#181818;stroke-width:0.5;" width="151" x="647" y="466.6211"/><ellipse cx="662" cy="488.9121" fill="#ADD1B2" rx="11" ry="11" style="stroke:#181818;stroke-width:1.0;"/><path d="M664.7656,484.7871 Q664.9219,484.5684 665.1094,484.459 Q665.2969,484.3496 665.5156,484.3496 Q665.8906,484.3496 666.125,484.6152 Q666.3594,484.8652 666.3594,485.4746 L666.3594,486.9277 Q666.3594,487.5371 666.125,487.8027 Q665.8906,488.0684 665.5156,488.0684 Q665.1719,488.0684 664.9688,487.8652 Q664.7656,487.6777 664.6563,487.1621 Q664.6094,486.8027 664.4219,486.6152 Q664.0938,486.2402 663.4844,486.0215 Q662.875,485.8027 662.25,485.8027 Q661.4844,485.8027 660.8438,486.1309 Q660.2188,486.459 659.7188,487.209 Q659.2344,487.959 659.2344,488.9902 L659.2344,490.084 Q659.2344,491.3184 660.125,492.1465 Q661.0156,492.959 662.6094,492.959 Q663.5469,492.959 664.2031,492.709 Q664.5938,492.5527 665.0156,492.1152 Q665.2813,491.8496 665.4219,491.7715 Q665.5781,491.6934 665.7813,491.6934 Q666.1094,491.6934 666.3594,491.959 Q666.625,492.209 666.625,492.5527 Q666.625,492.8965 666.2813,493.3027 Q665.7813,493.8809 664.9844,494.209 Q663.9063,494.6621 662.6094,494.6621 Q661.0938,494.6621 659.8906,494.0371 Q658.9063,493.5371 658.2188,492.4746 Q657.5313,491.3965 657.5313,490.1152 L657.5313,488.959 Q657.5313,487.6309 658.1406,486.4902 Q658.7656,485.334 659.8594,484.7246 Q660.9531,484.0996 662.1875,484.0996 Q662.9219,484.0996 663.5625,484.2715 Q664.2188,484.4277 664.7656,484.7871 Z " fill="#000000"/><text fill="#000000" font-family="sans-serif" font-size="12" font-style="italic" lengthAdjust="spacing" textLength="77" x="697" y="484.5703">&#171;persistence&#187;</text><text fill="#000000" font-family="sans-serif" font-size="14" lengthAdjust="spacing" textLength="119" x="676" y="502.6895">JpaUserRepository</text><line style="stroke:#181818;stroke-width:0.5;" x1="648" x2="797" y1="511.2031" y2="511.2031"/><line style="stroke:#181818;stroke-width:0.5;" x1="648" x2="797" y1="519.2031" y2="519.2031"/></g><!--class InMemoryUserRepository--><g id="elem_InMemoryUserRepository"><rect codeLine="13" fill="#F1F1F1" height="60.582" id="InMemoryUserRepository" rx="2.5" ry="2.5" style="stroke:#181818;stroke-width:0.5;" width="190" x="833.5" y="466.6211"/><ellipse cx="848.5" cy="488.9121" fill="#ADD1B2" rx="11" ry="11" style="stroke:#181818;stroke-width:1.0;"/><path d="M851.2656,484.7871 Q851.4219,484.5684 851.6094,484.459 Q851.7969,484.3496 852.0156,484.3496 Q852.3906,484.3496 852.625,484.6152 Q852.8594,484.8652 852.8594,485.4746 L852.8594,486.9277 Q852.8594,487.5371 852.625,487.8027 Q852.3906,488.0684 852.0156,488.0684 Q851.6719,488.0684 851.4688,487.8652 Q851.2656,487.6777 851.1563,487.1621 Q851.1094,486.8027 850.9219,486.6152 Q850.5938,486.2402 849.9844,486.0215 Q849.375,485.8027 848.75,485.8027 Q847.9844,485.8027 847.3438,486.1309 Q846.7188,486.459 846.2188,487.209 Q845.7344,487.959 845.7344,488.9902 L845.7344,490.084 Q845.7344,491.3184 846.625,492.1465 Q847.5156,492.959 849.1094,492.959 Q850.0469,492.959 850.7031,492.709 Q851.0938,492.5527 851.5156,492.1152 Q851.7813,491.8496 851.9219,491.7715 Q852.0781,491.6934 852.2813,491.6934 Q852.6094,491.6934 852.8594,491.959 Q853.125,492.209 853.125,492.5527 Q853.125,492.8965 852.7813,493.3027 Q852.2813,493.8809 851.4844,494.209 Q850.4063,494.6621 849.1094,494.6621 Q847.5938,494.6621 846.3906,494.0371 Q845.4063,493.5371 844.7188,492.4746 Q844.0313,491.3965 844.0313,490.1152 L844.0313,488.959 Q844.0313,487.6309 844.6406,486.4902 Q845.2656,485.334 846.3594,484.7246 Q847.4531,484.0996 848.6875,484.0996 Q849.4219,484.0996 850.0625,484.2715 Q850.7188,484.4277 851.2656,484.7871 Z " fill="#000000"/><text fill="#000000" font-family="sans-serif" font-size="12" font-style="italic" lengthAdjust="spacing" textLength="77" x="903" y="484.5703">&#171;persistence&#187;</text><text fill="#000000" font-family="sans-serif" font-size="14" lengthAdjust="spacing" textLength="158" x="862.5" y="502.6895">InMemoryUserRepository</text><line style="stroke:#181818;stroke-width:0.5;" x1="834.5" x2="1022.5" y1="511.2031" y2="511.2031"/><line style="stroke:#181818;stroke-width:0.5;" x1="834.5" x2="1022.5" y1="519.2031" y2="519.2031"/></g><!--class User--><g id="elem_User"><rect codeLine="15" fill="#F1F1F1" height="60.582" id="User" rx="2.5" ry="2.5" style="stroke:#181818;stroke-width:0.5;" width="84" x="457.5" y="344.6211"/><ellipse cx="472.5" cy="366.9121" fill="#ADD1B2" rx="11" ry="11" style="stroke:#181818;stroke-width:1.0;"/><path d="M475.2656,362.7871 Q475.4219,362.5684 475.6094,362.459 Q475.7969,362.3496 476.0156,362.3496 Q476.3906,362.3496 476.625,362.6152 Q476.8594,362.8652 476.8594,363.4746 L476.8594,364.9277 Q476.8594,365.5371 476.625,365.8027 Q476.3906,366.0684 476.0156,366.0684 Q475.6719,366.0684 475.4688,365.8652 Q475.2656,365.6777 475.1563,365.1621 Q475.1094,364.8027 474.9219,364.6152 Q474.5938,364.2402 473.9844,364.0215 Q473.375,363.8027 472.75,363.8027 Q471.9844,363.8027 471.3438,364.1309 Q470.7188,364.459 470.2188,365.209 Q469.7344,365.959 469.7344,366.9902 L469.7344,368.084 Q469.7344,369.3184 470.625,370.1465 Q471.5156,370.959 473.1094,370.959 Q474.0469,370.959 474.7031,370.709 Q475.0938,370.5527 475.5156,370.1152 Q475.7813,369.8496 475.9219,369.7715 Q476.0781,369.6934 476.2813,369.6934 Q476.6094,369.6934 476.8594,369.959 Q477.125,370.209 477.125,370.5527 Q477.125,370.8965 476.7813,371.3027 Q476.2813,371.8809 475.4844,372.209 Q474.4063,372.6621 473.1094,372.6621 Q471.5938,372.6621 470.3906,372.0371 Q469.4063,371.5371 468.7188,370.4746 Q468.0313,369.3965 468.0313,368.1152 L468.0313,366.959 Q468.0313,365.6309 468.6406,364.4902 Q469.2656,363.334 470.3594,362.7246 Q471.4531,362.0996 472.6875,362.0996 Q473.4219,362.0996 474.0625,362.2715 Q474.7188,362.4277 475.2656,362.7871 Z " fill="#000000"/><text fill="#000000" font-family="sans-serif" font-size="12" font-style="italic" lengthAdjust="spacing" textLength="56" x="484.5" y="362.5703">&#171;domain&#187;</text><text fill="#000000" font-family="sans-serif" font-size="14" lengthAdjust="spacing" textLength="29" x="498" y="380.6895">User</text><line style="stroke:#181818;stroke-width:0.5;" x1="458.5" x2="540.5" y1="389.2031" y2="389.2031"/><line style="stroke:#181818;stroke-width:0.5;" x1="458.5" x2="540.5" y1="397.2031" y2="397.2031"/></g><!--class Meeting--><g id="elem_Meeting"><rect codeLine="16" fill="#F1F1F1" height="60.582" id="Meeting" rx="2.5" ry="2.5" style="stroke:#181818;stroke-width:0.5;" width="84" x="1182.5" y="344.6211"/><ellipse cx="1197.5" cy="366.9121" fill="#ADD1B2" rx="11" ry="11" style="stroke:#181818;stroke-width:1.0;"/><path d="M1200.2656,362.7871 Q1200.4219,362.5684 1200.6094,362.459 Q1200.7969,362.3496 1201.0156,362.3496 Q1201.3906,362.3496 1201.625,362.6152 Q1201.8594,362.8652 1201.8594,363.4746 L1201.8594,364.9277 Q1201.8594,365.5371 1201.625,365.8027 Q1201.3906,366.0684 1201.0156,366.0684 Q1200.6719,366.0684 1200.4688,365.8652 Q1200.2656,365.6777 1200.1563,365.1621 Q1200.1094,364.8027 1199.9219,364.6152 Q1199.5938,364.2402 1198.9844,364.0215 Q1198.375,363.8027 1197.75,363.8027 Q1196.9844,363.8027 1196.3438,364.1309 Q1195.7188,364.459 1195.2188,365.209 Q1194.7344,365.959 1194.7344,366.9902 L1194.7344,368.084 Q1194.7344,369.3184 1195.625,370.1465 Q1196.5156,370.959 1198.1094,370.959 Q1199.0469,370.959 1199.7031,370.709 Q1200.0938,370.5527 1200.5156,370.1152 Q1200.7813,369.8496 1200.9219,369.7715 Q1201.0781,369.6934 1201.2813,369.6934 Q1201.6094,369.6934 1201.8594,369.959 Q1202.125,370.209 1202.125,370.5527 Q1202.125,370.8965 1201.7813,371.3027 Q1201.2813,371.8809 1200.4844,372.209 Q1199.4063,372.6621 1198.1094,372.6621 Q1196.5938,372.6621 1195.3906,372.0371 Q1194.4063,371.5371 1193.7188,370.4746 Q1193.0313,369.3965 1193.0313,368.1152 L1193.0313,366.959 Q1193.0313,365.6309 1193.6406,364.4902 Q1194.2656,363.334 1195.3594,362.7246 Q1196.4531,362.0996 1197.6875,362.0996 Q1198.4219,362.0996 1199.0625,362.2715 Q1199.7188,362.4277 1200.2656,362.7871 Z " fill="#000000"/><text fill="#000000" font-family="sans-serif" font-size="12" font-style="italic" lengthAdjust="spacing" textLength="56" x="1209.5" y="362.5703">&#171;domain&#187;</text><text fill="#000000" font-family="sans-serif" font-size="14" lengthAdjust="spacing" textLength="50" x="1212.5" y="380.6895">Meeting</text><line style="stroke:#181818;stroke-width:0.5;" x1="1183.5" x2="1265.5" y1="389.2031" y2="389.2031"/><line style="stroke:#181818;stroke-width:0.5;" x1="1183.5" x2="1265.5" y1="397.2031" y2="397.2031"/></g><!--class CreateMeetingController--><g id="elem_CreateMeetingController"><rect codeLine="18" fill="#F1F1F1" height="60.582" id="CreateMeetingController" rx="2.5" ry="2.5" style="stroke:#181818;stroke-width:0.5;" width="187" x="753" y="204.6211"/><ellipse cx="768" cy="226.9121" fill="#ADD1B2" rx="11" ry="11" style="stroke:#181818;stroke-width:1.0;"/><path d="M770.7656,222.7871 Q770.9219,222.5684 771.1094,222.459 Q771.2969,222.3496 771.5156,222.3496 Q771.8906,222.3496 772.125,222.6152 Q772.3594,222.8652 772.3594,223.4746 L772.3594,224.9277 Q772.3594,225.5371 772.125,225.8027 Q771.8906,226.0684 771.5156,226.0684 Q771.1719,226.0684 770.9688,225.8652 Q770.7656,225.6777 770.6563,225.1621 Q770.6094,224.8027 770.4219,224.6152 Q770.0938,224.2402 769.4844,224.0215 Q768.875,223.8027 768.25,223.8027 Q767.4844,223.8027 766.8438,224.1309 Q766.2188,224.459 765.7188,225.209 Q765.2344,225.959 765.2344,226.9902 L765.2344,228.084 Q765.2344,229.3184 766.125,230.1465 Q767.0156,230.959 768.6094,230.959 Q769.5469,230.959 770.2031,230.709 Q770.5938,230.5527 771.0156,230.1152 Q771.2813,229.8496 771.4219,229.7715 Q771.5781,229.6934 771.7813,229.6934 Q772.1094,229.6934 772.3594,229.959 Q772.625,230.209 772.625,230.5527 Q772.625,230.8965 772.2813,231.3027 Q771.7813,231.8809 770.9844,232.209 Q769.9063,232.6621 768.6094,232.6621 Q767.0938,232.6621 765.8906,232.0371 Q764.9063,231.5371 764.2188,230.4746 Q763.5313,229.3965 763.5313,228.1152 L763.5313,226.959 Q763.5313,225.6309 764.1406,224.4902 Q764.7656,223.334 765.8594,222.7246 Q766.9531,222.0996 768.1875,222.0996 Q768.9219,222.0996 769.5625,222.2715 Q770.2188,222.4277 770.7656,222.7871 Z " fill="#000000"/><text fill="#000000" font-family="sans-serif" font-size="12" font-style="italic" lengthAdjust="spacing" textLength="74" x="822.5" y="222.5703">&#171;application&#187;</text><text fill="#000000" font-family="sans-serif" font-size="14" lengthAdjust="spacing" textLength="155" x="782" y="240.6895">CreateMeetingController</text><line style="stroke:#181818;stroke-width:0.5;" x1="754" x2="939" y1="249.2031" y2="249.2031"/><line style="stroke:#181818;stroke-width:0.5;" x1="754" x2="939" y1="257.2031" y2="257.2031"/></g><!--class ListMeetingService--><g id="elem_ListMeetingService"><rect codeLine="19" fill="#F1F1F1" height="60.582" id="ListMeetingService" rx="2.5" ry="2.5" style="stroke:#181818;stroke-width:0.5;" width="151" x="577" y="344.6211"/><ellipse cx="592" cy="366.9121" fill="#ADD1B2" rx="11" ry="11" style="stroke:#181818;stroke-width:1.0;"/><path d="M594.7656,362.7871 Q594.9219,362.5684 595.1094,362.459 Q595.2969,362.3496 595.5156,362.3496 Q595.8906,362.3496 596.125,362.6152 Q596.3594,362.8652 596.3594,363.4746 L596.3594,364.9277 Q596.3594,365.5371 596.125,365.8027 Q595.8906,366.0684 595.5156,366.0684 Q595.1719,366.0684 594.9688,365.8652 Q594.7656,365.6777 594.6563,365.1621 Q594.6094,364.8027 594.4219,364.6152 Q594.0938,364.2402 593.4844,364.0215 Q592.875,363.8027 592.25,363.8027 Q591.4844,363.8027 590.8438,364.1309 Q590.2188,364.459 589.7188,365.209 Q589.2344,365.959 589.2344,366.9902 L589.2344,368.084 Q589.2344,369.3184 590.125,370.1465 Q591.0156,370.959 592.6094,370.959 Q593.5469,370.959 594.2031,370.709 Q594.5938,370.5527 595.0156,370.1152 Q595.2813,369.8496 595.4219,369.7715 Q595.5781,369.6934 595.7813,369.6934 Q596.1094,369.6934 596.3594,369.959 Q596.625,370.209 596.625,370.5527 Q596.625,370.8965 596.2813,371.3027 Q595.7813,371.8809 594.9844,372.209 Q593.9063,372.6621 592.6094,372.6621 Q591.0938,372.6621 589.8906,372.0371 Q588.9063,371.5371 588.2188,370.4746 Q587.5313,369.3965 587.5313,368.1152 L587.5313,366.959 Q587.5313,365.6309 588.1406,364.4902 Q588.7656,363.334 589.8594,362.7246 Q590.9531,362.0996 592.1875,362.0996 Q592.9219,362.0996 593.5625,362.2715 Q594.2188,362.4277 594.7656,362.7871 Z " fill="#000000"/><text fill="#000000" font-family="sans-serif" font-size="12" font-style="italic" lengthAdjust="spacing" textLength="74" x="628.5" y="362.5703">&#171;application&#187;</text><text fill="#000000" font-family="sans-serif" font-size="14" lengthAdjust="spacing" textLength="119" x="606" y="380.6895">ListMeetingService</text><line style="stroke:#181818;stroke-width:0.5;" x1="578" x2="727" y1="389.2031" y2="389.2031"/><line style="stroke:#181818;stroke-width:0.5;" x1="578" x2="727" y1="397.2031" y2="397.2031"/></g><!--class UserManagementService--><g id="elem_UserManagementService"><rect codeLine="20" fill="#F1F1F1" height="60.582" id="UserManagementService" rx="2.5" ry="2.5" style="stroke:#181818;stroke-width:0.5;" width="190" x="957.5" y="344.6211"/><ellipse cx="972.5" cy="366.9121" fill="#ADD1B2" rx="11" ry="11" style="stroke:#181818;stroke-width:1.0;"/><path d="M975.2656,362.7871 Q975.4219,362.5684 975.6094,362.459 Q975.7969,362.3496 976.0156,362.3496 Q976.3906,362.3496 976.625,362.6152 Q976.8594,362.8652 976.8594,363.4746 L976.8594,364.9277 Q976.8594,365.5371 976.625,365.8027 Q976.3906,366.0684 976.0156,366.0684 Q975.6719,366.0684 975.4688,365.8652 Q975.2656,365.6777 975.1563,365.1621 Q975.1094,364.8027 974.9219,364.6152 Q974.5938,364.2402 973.9844,364.0215 Q973.375,363.8027 972.75,363.8027 Q971.9844,363.8027 971.3438,364.1309 Q970.7188,364.459 970.2188,365.209 Q969.7344,365.959 969.7344,366.9902 L969.7344,368.084 Q969.7344,369.3184 970.625,370.1465 Q971.5156,370.959 973.1094,370.959 Q974.0469,370.959 974.7031,370.709 Q975.0938,370.5527 975.5156,370.1152 Q975.7813,369.8496 975.9219,369.7715 Q976.0781,369.6934 976.2813,369.6934 Q976.6094,369.6934 976.8594,369.959 Q977.125,370.209 977.125,370.5527 Q977.125,370.8965 976.7813,371.3027 Q976.2813,371.8809 975.4844,372.209 Q974.4063,372.6621 973.1094,372.6621 Q971.5938,372.6621 970.3906,372.0371 Q969.4063,371.5371 968.7188,370.4746 Q968.0313,369.3965 968.0313,368.1152 L968.0313,366.959 Q968.0313,365.6309 968.6406,364.4902 Q969.2656,363.334 970.3594,362.7246 Q971.4531,362.0996 972.6875,362.0996 Q973.4219,362.0996 974.0625,362.2715 Q974.7188,362.4277 975.2656,362.7871 Z " fill="#000000"/><text fill="#000000" font-family="sans-serif" font-size="12" font-style="italic" lengthAdjust="spacing" textLength="74" x="1028.5" y="362.5703">&#171;application&#187;</text><text fill="#000000" font-family="sans-serif" font-size="14" lengthAdjust="spacing" textLength="158" x="986.5" y="380.6895">UserManagementService</text><line style="stroke:#181818;stroke-width:0.5;" x1="958.5" x2="1146.5" y1="389.2031" y2="389.2031"/><line style="stroke:#181818;stroke-width:0.5;" x1="958.5" x2="1146.5" y1="397.2031" y2="397.2031"/></g><!--class MeetingRepository--><g id="elem_MeetingRepository"><rect codeLine="23" fill="#F1F1F1" height="60.582" id="MeetingRepository" rx="2.5" ry="2.5" style="stroke:#181818;stroke-width:0.5;" width="151" x="461" y="466.6211"/><ellipse cx="476" cy="488.9121" fill="#B4A7E5" rx="11" ry="11" style="stroke:#181818;stroke-width:1.0;"/><path d="M476.9531,485.5527 L476.9531,492.209 L478.6719,492.209 Q479.2813,492.209 479.5469,492.4434 Q479.8125,492.6777 479.8125,493.0684 Q479.8125,493.4434 479.5469,493.6777 Q479.2813,493.9121 478.6719,493.9121 L473.5313,493.9121 Q472.9219,493.9121 472.6563,493.6777 Q472.3906,493.4434 472.3906,493.0527 Q472.3906,492.6777 472.6563,492.4434 Q472.9219,492.209 473.5313,492.209 L475.25,492.209 L475.25,485.5527 L473.5313,485.5527 Q472.9219,485.5527 472.6563,485.3184 Q472.3906,485.084 472.3906,484.6934 Q472.3906,484.3184 472.6563,484.084 Q472.9219,483.8496 473.5313,483.8496 L478.6719,483.8496 Q479.2813,483.8496 479.5469,484.084 Q479.8125,484.3184 479.8125,484.6934 Q479.8125,485.084 479.5469,485.3184 Q479.2813,485.5527 478.6719,485.5527 L476.9531,485.5527 Z " fill="#000000"/><text fill="#000000" font-family="sans-serif" font-size="12" font-style="italic" lengthAdjust="spacing" textLength="78" x="510.5" y="484.5703">&#171;repositories&#187;</text><text fill="#000000" font-family="sans-serif" font-size="14" font-style="italic" lengthAdjust="spacing" textLength="119" x="490" y="502.6895">MeetingRepository</text><line style="stroke:#181818;stroke-width:0.5;" x1="462" x2="611" y1="511.2031" y2="511.2031"/><line style="stroke:#181818;stroke-width:0.5;" x1="462" x2="611" y1="519.2031" y2="519.2031"/></g><!--class UserRepository--><g id="elem_UserRepository"><rect codeLine="24" fill="#F1F1F1" height="60.582" id="UserRepository" rx="2.5" ry="2.5" style="stroke:#181818;stroke-width:0.5;" width="130" x="1058.5" y="466.6211"/><ellipse cx="1073.5" cy="488.9121" fill="#B4A7E5" rx="11" ry="11" style="stroke:#181818;stroke-width:1.0;"/><path d="M1074.4531,485.5527 L1074.4531,492.209 L1076.1719,492.209 Q1076.7813,492.209 1077.0469,492.4434 Q1077.3125,492.6777 1077.3125,493.0684 Q1077.3125,493.4434 1077.0469,493.6777 Q1076.7813,493.9121 1076.1719,493.9121 L1071.0313,493.9121 Q1070.4219,493.9121 1070.1563,493.6777 Q1069.8906,493.4434 1069.8906,493.0527 Q1069.8906,492.6777 1070.1563,492.4434 Q1070.4219,492.209 1071.0313,492.209 L1072.75,492.209 L1072.75,485.5527 L1071.0313,485.5527 Q1070.4219,485.5527 1070.1563,485.3184 Q1069.8906,485.084 1069.8906,484.6934 Q1069.8906,484.3184 1070.1563,484.084 Q1070.4219,483.8496 1071.0313,483.8496 L1076.1719,483.8496 Q1076.7813,483.8496 1077.0469,484.084 Q1077.3125,484.3184 1077.3125,484.6934 Q1077.3125,485.084 1077.0469,485.3184 Q1076.7813,485.5527 1076.1719,485.5527 L1074.4531,485.5527 Z " fill="#000000"/><text fill="#000000" font-family="sans-serif" font-size="12" font-style="italic" lengthAdjust="spacing" textLength="78" x="1097.5" y="484.5703">&#171;repositories&#187;</text><text fill="#000000" font-family="sans-serif" font-size="14" font-style="italic" lengthAdjust="spacing" textLength="98" x="1087.5" y="502.6895">UserRepository</text><line style="stroke:#181818;stroke-width:0.5;" x1="1059.5" x2="1187.5" y1="511.2031" y2="511.2031"/><line style="stroke:#181818;stroke-width:0.5;" x1="1059.5" x2="1187.5" y1="519.2031" y2="519.2031"/></g><!--link CreateMeetingUI to CreateMeetingController--><g id="link_CreateMeetingUI_CreateMeetingController"><path codeLine="27" d="M846.5,125.7411 C846.5,148.5811 846.5,177.2711 846.5,199.3911 " fill="none" id="CreateMeetingUI-to-CreateMeetingController" style="stroke:#181818;stroke-width:1.0;"/><polygon fill="#181818" points="846.5,204.5811,850.5,195.5811,846.5,199.5811,842.5,195.5811,846.5,204.5811" style="stroke:#181818;stroke-width:1.0;"/><text fill="#000000" font-family="sans-serif" font-size="13" lengthAdjust="spacing" textLength="73" x="847.5" y="170.6494">theController</text></g><!--link CreateMeetingController to MeetingRepository--><g id="link_CreateMeetingController_MeetingRepository"><path codeLine="28" d="M835.57,265.6811 C820.49,302.8411 790.01,366.5011 745.5,405.6211 C725.18,423.4811 666.87,448.1011 616.99,467.1611 " fill="none" id="CreateMeetingController-to-MeetingRepository" style="stroke:#181818;stroke-width:1.0;"/><polygon fill="#181818" points="612.19,468.9811,622.0235,469.5301,616.8652,467.2083,619.187,462.0499,612.19,468.9811" style="stroke:#181818;stroke-width:1.0;"/><text fill="#000000" font-family="sans-serif" font-size="13" lengthAdjust="spacing" textLength="25" x="795.5" y="380.6494">repo</text></g><!--link CreateMeetingController to UserRepository--><g id="link_CreateMeetingController_UserRepository"><path codeLine="29" d="M851.04,265.6311 C858.19,302.7311 875.39,366.3311 913.5,405.6211 C924.05,416.5011 996.74,446.6011 1053.68,469.1211 " fill="none" id="CreateMeetingController-to-UserRepository" style="stroke:#181818;stroke-width:1.0;"/><polygon fill="#181818" points="1058.44,471.0011,1051.5319,463.9813,1053.7878,469.1688,1048.6003,471.4248,1058.44,471.0011" style="stroke:#181818;stroke-width:1.0;"/><text fill="#000000" font-family="sans-serif" font-size="13" lengthAdjust="spacing" textLength="25" x="914.5" y="380.6494">repo</text></g><!--link CreateMeetingController to ListMeetingService--><g id="link_CreateMeetingController_ListMeetingService"><path codeLine="30" d="M779.95,265.7211 C763.19,274.3811 745.67,284.5311 730.5,295.6211 C712.77,308.5811 695.32,325.6211 681.44,340.5111 " fill="none" id="CreateMeetingController-to-ListMeetingService" style="stroke:#181818;stroke-width:1.0;"/><polygon fill="#181818" points="677.99,344.2411,687.04,340.3556,681.3873,340.5726,681.1704,334.9199,677.99,344.2411" style="stroke:#181818;stroke-width:1.0;"/><text fill="#000000" font-family="sans-serif" font-size="13" lengthAdjust="spacing" textLength="40" x="731.5" y="310.6494">service</text></g><!--link CreateMeetingController to UserManagementService--><g id="link_CreateMeetingController_UserManagementService"><path codeLine="31" d="M890.69,265.7211 C923.96,288.0111 969.53,318.5411 1003.83,341.5211 " fill="none" id="CreateMeetingController-to-UserManagementService" style="stroke:#181818;stroke-width:1.0;"/><polygon fill="#181818" points="1008.38,344.5611,1003.1301,336.2281,1004.2263,341.7777,998.6767,342.8739,1008.38,344.5611" style="stroke:#181818;stroke-width:1.0;"/><text fill="#000000" font-family="sans-serif" font-size="13" lengthAdjust="spacing" textLength="40" x="962.5" y="310.6494">service</text></g><!--link CreateMeetingController to User--><g id="link_CreateMeetingController_User"><path codeLine="33" d="M752.8,262.9611 C722.68,272.3811 689.38,283.6211 659.5,295.6211 C613.57,314.0611 603.93,322.8111 559.5,344.6211 C555.29,346.6911 550.92,348.8311 546.53,350.9911 " fill="none" id="CreateMeetingController-to-User" style="stroke:#181818;stroke-width:1.0;"/><polygon fill="#181818" points="541.78,353.3211,551.6218,352.9494,546.2692,351.1194,548.0991,345.7667,541.78,353.3211" style="stroke:#181818;stroke-width:1.0;"/><text fill="#000000" font-family="sans-serif" font-size="13" lengthAdjust="spacing" textLength="39" x="660.5" y="310.6494">course</text></g><!--link CreateMeetingController to Meeting--><g id="link_CreateMeetingController_Meeting"><path codeLine="34" d="M940.22,264.3011 C1004.45,284.5111 1091.15,313.5611 1165.5,344.6211 C1169.45,346.2711 1173.5,348.0711 1177.55,349.9311 " fill="none" id="CreateMeetingController-to-Meeting" style="stroke:#181818;stroke-width:1.0;"/><polygon fill="#181818" points="1182.28,352.1511,1175.8455,344.6947,1177.7575,350.0187,1172.4336,351.9307,1182.28,352.1511" style="stroke:#181818;stroke-width:1.0;"/><text fill="#000000" font-family="sans-serif" font-size="13" lengthAdjust="spacing" textLength="46" x="1088.5" y="310.6494">meeting</text></g><!--link JpaMeetingRepository to MeetingRepository--><g id="link_JpaMeetingRepository_MeetingRepository"><path codeLine="35" d="M425.69,497.1211 C435.64,497.1211 445.59,497.1211 455.54,497.1211 " fill="none" id="JpaMeetingRepository-to-MeetingRepository" style="stroke:#181818;stroke-width:1.0;"/><polygon fill="#181818" points="460.75,497.1211,451.75,493.1211,455.75,497.1211,451.75,501.1211,460.75,497.1211" style="stroke:#181818;stroke-width:1.0;"/></g><!--link InMemoryMeetingRepository to MeetingRepository--><g id="link_InMemoryMeetingRepository_MeetingRepository"><path codeLine="36" d="M168.51,466.5211 C193.57,454.5011 223.97,442.1511 253,436.1211 C327.85,420.5711 350.94,417.1911 425,436.1211 C446.97,441.7411 469.28,452.6811 488.1,463.7611 " fill="none" id="InMemoryMeetingRepository-to-MeetingRepository" style="stroke:#181818;stroke-width:1.0;"/><polygon fill="#181818" points="492.81,466.5811,487.1505,458.5207,488.5225,464.0086,483.0346,465.3806,492.81,466.5811" style="stroke:#181818;stroke-width:1.0;"/></g><!--link JpaUserRepository to UserRepository--><g id="link_JpaUserRepository_UserRepository"><path codeLine="37" d="M766.19,466.5811 C785.94,454.5711 810.16,442.2111 834,436.1211 C915.81,415.2011 942.73,413.1911 1024,436.1211 C1043.95,441.7511 1063.85,452.6311 1080.56,463.6511 " fill="none" id="JpaUserRepository-to-UserRepository" style="stroke:#181818;stroke-width:1.0;"/><polygon fill="#181818" points="1084.73,466.4611,1079.5132,458.1074,1080.5874,463.6613,1075.0335,464.7355,1084.73,466.4611" style="stroke:#181818;stroke-width:1.0;"/></g><!--link InMemoryUserRepository to UserRepository--><g id="link_InMemoryUserRepository_UserRepository"><path codeLine="38" d="M1023.71,497.1211 C1033.56,497.1211 1043.41,497.1211 1053.26,497.1211 " fill="none" id="InMemoryUserRepository-to-UserRepository" style="stroke:#181818;stroke-width:1.0;"/><polygon fill="#181818" points="1058.41,497.1211,1049.41,493.1211,1053.41,497.1211,1049.41,501.1211,1058.41,497.1211" style="stroke:#181818;stroke-width:1.0;"/></g><!--link CreateMeetingUI to User--><g id="link_CreateMeetingUI_User"><path codeLine="41" d="M799.7,125.8311 C731.01,182.6411 604.04,287.6611 539.47,341.0611 " fill="none" id="CreateMeetingUI-to-User" style="stroke:#181818;stroke-width:1.0;stroke-dasharray:7.0,7.0;"/><polygon fill="#181818" points="535.3,344.5111,544.7864,341.8639,539.1551,341.3271,539.692,335.6957,535.3,344.5111" style="stroke:#181818;stroke-width:1.0;"/></g><!--link CreateMeetingUI to Meeting--><g id="link_CreateMeetingUI_Meeting"><path codeLine="42" d="M907.41,125.8111 C968.92,165.8011 1065.7,231.2911 1143.5,295.6211 C1160.33,309.5411 1177.88,326.2311 1192.31,340.6411 " fill="none" id="CreateMeetingUI-to-Meeting" style="stroke:#181818;stroke-width:1.0;stroke-dasharray:7.0,7.0;"/><polygon fill="#181818" points="1195.92,344.2511,1192.3659,335.0659,1192.3773,340.7227,1186.7205,340.7341,1195.92,344.2511" style="stroke:#181818;stroke-width:1.0;"/></g><!--link ListMeetingService to MeetingRepository--><g id="link_ListMeetingService_MeetingRepository"><path codeLine="43" d="M623.83,405.7811 C607.23,422.9511 586.3,444.6011 569.08,462.4111 " fill="none" id="ListMeetingService-to-MeetingRepository" style="stroke:#181818;stroke-width:1.0;stroke-dasharray:7.0,7.0;"/><polygon fill="#181818" points="565.25,466.3811,574.3766,462.679,568.7207,462.7819,568.6178,457.126,565.25,466.3811" style="stroke:#181818;stroke-width:1.0;"/></g><!--link UserManagementService to UserRepository--><g id="link_UserManagementService_UserRepository"><path codeLine="44" d="M1070.05,405.7811 C1080.12,422.8011 1092.81,444.2411 1103.29,461.9611 " fill="none" id="UserManagementService-to-UserRepository" style="stroke:#181818;stroke-width:1.0;stroke-dasharray:7.0,7.0;"/><polygon fill="#181818" points="1105.91,466.3811,1104.7861,456.5966,1103.3712,462.0736,1097.8941,460.6587,1105.91,466.3811" style="stroke:#181818;stroke-width:1.0;"/></g><!--SRC=[bPCzQyCm48Rt-nNQaWo653g5a2LPKkeEDPbAXyE-EW9R4fAQKah-UsLRYOCbvyEJv7lUk-CzdUMs8hQkq1YsuLXghDaqopOpbh1TnfxdyoU0IHid0tdBhJMXfPJ8Sb7kjcovL9eC2OkMIx5QiJzWxYjajfS_qnaSmGjV57hLEobfk9Nwjr6JDjnO4ZarugEdjoAbsX5tIVeAEqFwaVItUIzeG1SkP8rSN6Ro3GvYCRFMKbWjgwfDX4fLF3zxTihswcfxF2Dzu3aDsJFQT9IYm99gv_uu3S259Vs5BXfpKvykd4pNIiy7zeGmJDxmmCks7WmVHvAiHZrOCBkd_WvZN9CZx7l1cbQkYWRDtw68kBzWfZlTB1NEejVU53isbz_Qq3qsEBZkJX1TgfXXCBvGKJpSfS1H65cY48J9XXI9mcsLUpVXA_aeqEof-FJAgu3_2v5PHR2B9k8p6jRk1Vy0]--></g></svg>