<?xml version="1.0" encoding="us-ascii" standalone="no"?><svg xmlns="http://www.w3.org/2000/svg" xmlns:xlink="http://www.w3.org/1999/xlink" contentStyleType="text/css" height="586px" preserveAspectRatio="none" style="width:1338px;height:586px;background:#FFFFFF;" version="1.1" viewBox="0 0 1338 586" width="1338px" zoomAndPan="magnify"><defs/><g><!--class SetCourseResponsibleTeacherUI--><g id="elem_SetCourseResponsibleTeacherUI"><rect codeLine="3" fill="#F1F1F1" height="79.2031" id="SetCourseResponsibleTeacherUI" rx="2.5" ry="2.5" style="stroke:#181818;stroke-width:0.5;" width="242" x="686" y="7"/><ellipse cx="701" cy="29.291" fill="#ADD1B2" rx="11" ry="11" style="stroke:#181818;stroke-width:1.0;"/><path d="M703.7656,25.166 Q703.9219,24.9473 704.1094,24.8379 Q704.2969,24.7285 704.5156,24.7285 Q704.8906,24.7285 705.125,24.9941 Q705.3594,25.2441 705.3594,25.8535 L705.3594,27.3066 Q705.3594,27.916 705.125,28.1816 Q704.8906,28.4473 704.5156,28.4473 Q704.1719,28.4473 703.9688,28.2441 Q703.7656,28.0566 703.6563,27.541 Q703.6094,27.1816 703.4219,26.9941 Q703.0938,26.6191 702.4844,26.4004 Q701.875,26.1816 701.25,26.1816 Q700.4844,26.1816 699.8438,26.5098 Q699.2188,26.8379 698.7188,27.5879 Q698.2344,28.3379 698.2344,29.3691 L698.2344,30.4629 Q698.2344,31.6973 699.125,32.5254 Q700.0156,33.3379 701.6094,33.3379 Q702.5469,33.3379 703.2031,33.0879 Q703.5938,32.9316 704.0156,32.4941 Q704.2813,32.2285 704.4219,32.1504 Q704.5781,32.0723 704.7813,32.0723 Q705.1094,32.0723 705.3594,32.3379 Q705.625,32.5879 705.625,32.9316 Q705.625,33.2754 705.2813,33.6816 Q704.7813,34.2598 703.9844,34.5879 Q702.9063,35.041 701.6094,35.041 Q700.0938,35.041 698.8906,34.416 Q697.9063,33.916 697.2188,32.8535 Q696.5313,31.7754 696.5313,30.4941 L696.5313,29.3379 Q696.5313,28.0098 697.1406,26.8691 Q697.7656,25.7129 698.8594,25.1035 Q699.9531,24.4785 701.1875,24.4785 Q701.9219,24.4785 702.5625,24.6504 Q703.2188,24.8066 703.7656,25.166 Z " fill="#000000"/><text fill="#000000" font-family="sans-serif" font-size="12" font-style="italic" lengthAdjust="spacing" textLength="82" x="779" y="24.9492">&#171;presentation&#187;</text><text fill="#000000" font-family="sans-serif" font-size="14" lengthAdjust="spacing" textLength="210" x="715" y="43.0684">SetCourseResponsibleTeacherUI</text><line style="stroke:#181818;stroke-width:0.5;" x1="687" x2="927" y1="51.582" y2="51.582"/><line style="stroke:#181818;stroke-width:0.5;" x1="687" x2="927" y1="59.582" y2="59.582"/><text fill="#000000" font-family="sans-serif" font-size="14" lengthAdjust="spacing" textLength="60" x="692" y="78.6895">doShow()</text></g><!--class Course--><g id="elem_Course"><rect codeLine="7" fill="#F1F1F1" height="79.2031" id="Course" rx="2.5" ry="2.5" style="stroke:#181818;stroke-width:0.5;" width="346" x="7" y="360"/><ellipse cx="148.75" cy="382.291" fill="#ADD1B2" rx="11" ry="11" style="stroke:#181818;stroke-width:1.0;"/><path d="M151.5156,378.166 Q151.6719,377.9473 151.8594,377.8379 Q152.0469,377.7285 152.2656,377.7285 Q152.6406,377.7285 152.875,377.9941 Q153.1094,378.2441 153.1094,378.8535 L153.1094,380.3066 Q153.1094,380.916 152.875,381.1816 Q152.6406,381.4473 152.2656,381.4473 Q151.9219,381.4473 151.7188,381.2441 Q151.5156,381.0566 151.4063,380.541 Q151.3594,380.1816 151.1719,379.9941 Q150.8438,379.6191 150.2344,379.4004 Q149.625,379.1816 149,379.1816 Q148.2344,379.1816 147.5938,379.5098 Q146.9688,379.8379 146.4688,380.5879 Q145.9844,381.3379 145.9844,382.3691 L145.9844,383.4629 Q145.9844,384.6973 146.875,385.5254 Q147.7656,386.3379 149.3594,386.3379 Q150.2969,386.3379 150.9531,386.0879 Q151.3438,385.9316 151.7656,385.4941 Q152.0313,385.2285 152.1719,385.1504 Q152.3281,385.0723 152.5313,385.0723 Q152.8594,385.0723 153.1094,385.3379 Q153.375,385.5879 153.375,385.9316 Q153.375,386.2754 153.0313,386.6816 Q152.5313,387.2598 151.7344,387.5879 Q150.6563,388.041 149.3594,388.041 Q147.8438,388.041 146.6406,387.416 Q145.6563,386.916 144.9688,385.8535 Q144.2813,384.7754 144.2813,383.4941 L144.2813,382.3379 Q144.2813,381.0098 144.8906,379.8691 Q145.5156,378.7129 146.6094,378.1035 Q147.7031,377.4785 148.9375,377.4785 Q149.6719,377.4785 150.3125,377.6504 Q150.9688,377.8066 151.5156,378.166 Z " fill="#000000"/><text fill="#000000" font-family="sans-serif" font-size="12" font-style="italic" lengthAdjust="spacing" textLength="58" x="167.25" y="377.9492">&#171;Domain&#187;</text><text fill="#000000" font-family="sans-serif" font-size="14" lengthAdjust="spacing" textLength="46" x="173.25" y="396.0684">Course</text><line style="stroke:#181818;stroke-width:0.5;" x1="8" x2="352" y1="404.582" y2="404.582"/><line style="stroke:#181818;stroke-width:0.5;" x1="8" x2="352" y1="412.582" y2="412.582"/><ellipse cx="18" cy="427.3926" fill="#84BE84" rx="3" ry="3" style="stroke:#038048;stroke-width:1.0;"/><text fill="#000000" font-family="sans-serif" font-size="14" lengthAdjust="spacing" textLength="320" x="27" y="431.6895">void setResponsibleTeacher(Teacher theTeacher)</text></g><!--class Teacher--><g id="elem_Teacher"><rect codeLine="11" fill="#F1F1F1" height="60.582" id="Teacher" rx="2.5" ry="2.5" style="stroke:#181818;stroke-width:0.5;" width="86" x="1245" y="369"/><ellipse cx="1260" cy="391.291" fill="#ADD1B2" rx="11" ry="11" style="stroke:#181818;stroke-width:1.0;"/><path d="M1262.7656,387.166 Q1262.9219,386.9473 1263.1094,386.8379 Q1263.2969,386.7285 1263.5156,386.7285 Q1263.8906,386.7285 1264.125,386.9941 Q1264.3594,387.2441 1264.3594,387.8535 L1264.3594,389.3066 Q1264.3594,389.916 1264.125,390.1816 Q1263.8906,390.4473 1263.5156,390.4473 Q1263.1719,390.4473 1262.9688,390.2441 Q1262.7656,390.0566 1262.6563,389.541 Q1262.6094,389.1816 1262.4219,388.9941 Q1262.0938,388.6191 1261.4844,388.4004 Q1260.875,388.1816 1260.25,388.1816 Q1259.4844,388.1816 1258.8438,388.5098 Q1258.2188,388.8379 1257.7188,389.5879 Q1257.2344,390.3379 1257.2344,391.3691 L1257.2344,392.4629 Q1257.2344,393.6973 1258.125,394.5254 Q1259.0156,395.3379 1260.6094,395.3379 Q1261.5469,395.3379 1262.2031,395.0879 Q1262.5938,394.9316 1263.0156,394.4941 Q1263.2813,394.2285 1263.4219,394.1504 Q1263.5781,394.0723 1263.7813,394.0723 Q1264.1094,394.0723 1264.3594,394.3379 Q1264.625,394.5879 1264.625,394.9316 Q1264.625,395.2754 1264.2813,395.6816 Q1263.7813,396.2598 1262.9844,396.5879 Q1261.9063,397.041 1260.6094,397.041 Q1259.0938,397.041 1257.8906,396.416 Q1256.9063,395.916 1256.2188,394.8535 Q1255.5313,393.7754 1255.5313,392.4941 L1255.5313,391.3379 Q1255.5313,390.0098 1256.1406,388.8691 Q1256.7656,387.7129 1257.8594,387.1035 Q1258.9531,386.4785 1260.1875,386.4785 Q1260.9219,386.4785 1261.5625,386.6504 Q1262.2188,386.8066 1262.7656,387.166 Z " fill="#000000"/><text fill="#000000" font-family="sans-serif" font-size="12" font-style="italic" lengthAdjust="spacing" textLength="58" x="1272" y="386.9492">&#171;Domain&#187;</text><text fill="#000000" font-family="sans-serif" font-size="14" lengthAdjust="spacing" textLength="53" x="1274.5" y="405.0684">Teacher</text><line style="stroke:#181818;stroke-width:0.5;" x1="1246" x2="1330" y1="413.582" y2="413.582"/><line style="stroke:#181818;stroke-width:0.5;" x1="1246" x2="1330" y1="421.582" y2="421.582"/></g><!--class SetCourseResponsibleTeacherController--><g id="elem_SetCourseResponsibleTeacherController"><rect codeLine="14" fill="#F1F1F1" height="116.4453" id="SetCourseResponsibleTeacherController" rx="2.5" ry="2.5" style="stroke:#181818;stroke-width:0.5;" width="490" x="562" y="165"/><ellipse cx="672.75" cy="187.291" fill="#ADD1B2" rx="11" ry="11" style="stroke:#181818;stroke-width:1.0;"/><path d="M675.5156,183.166 Q675.6719,182.9473 675.8594,182.8379 Q676.0469,182.7285 676.2656,182.7285 Q676.6406,182.7285 676.875,182.9941 Q677.1094,183.2441 677.1094,183.8535 L677.1094,185.3066 Q677.1094,185.916 676.875,186.1816 Q676.6406,186.4473 676.2656,186.4473 Q675.9219,186.4473 675.7188,186.2441 Q675.5156,186.0566 675.4063,185.541 Q675.3594,185.1816 675.1719,184.9941 Q674.8438,184.6191 674.2344,184.4004 Q673.625,184.1816 673,184.1816 Q672.2344,184.1816 671.5938,184.5098 Q670.9688,184.8379 670.4688,185.5879 Q669.9844,186.3379 669.9844,187.3691 L669.9844,188.4629 Q669.9844,189.6973 670.875,190.5254 Q671.7656,191.3379 673.3594,191.3379 Q674.2969,191.3379 674.9531,191.0879 Q675.3438,190.9316 675.7656,190.4941 Q676.0313,190.2285 676.1719,190.1504 Q676.3281,190.0723 676.5313,190.0723 Q676.8594,190.0723 677.1094,190.3379 Q677.375,190.5879 677.375,190.9316 Q677.375,191.2754 677.0313,191.6816 Q676.5313,192.2598 675.7344,192.5879 Q674.6563,193.041 673.3594,193.041 Q671.8438,193.041 670.6406,192.416 Q669.6563,191.916 668.9688,190.8535 Q668.2813,189.7754 668.2813,188.4941 L668.2813,187.3379 Q668.2813,186.0098 668.8906,184.8691 Q669.5156,183.7129 670.6094,183.1035 Q671.7031,182.4785 672.9375,182.4785 Q673.6719,182.4785 674.3125,182.6504 Q674.9688,182.8066 675.5156,183.166 Z " fill="#000000"/><text fill="#000000" font-family="sans-serif" font-size="12" font-style="italic" lengthAdjust="spacing" textLength="75" x="785.75" y="182.9492">&#171;Application&#187;</text><text fill="#000000" font-family="sans-serif" font-size="14" lengthAdjust="spacing" textLength="260" x="693.25" y="201.0684">SetCourseResponsibleTeacherController</text><line style="stroke:#181818;stroke-width:0.5;" x1="563" x2="1051" y1="209.582" y2="209.582"/><line style="stroke:#181818;stroke-width:0.5;" x1="563" x2="1051" y1="217.582" y2="217.582"/><ellipse cx="573" cy="232.3926" fill="#84BE84" rx="3" ry="3" style="stroke:#038048;stroke-width:1.0;"/><text fill="#000000" font-family="sans-serif" font-size="14" lengthAdjust="spacing" textLength="316" x="582" y="236.6895">Iterable&lt;Course&gt; allCoursesWithoutResponsible()</text><ellipse cx="573" cy="251.0137" fill="#84BE84" rx="3" ry="3" style="stroke:#038048;stroke-width:1.0;"/><text fill="#000000" font-family="sans-serif" font-size="14" lengthAdjust="spacing" textLength="204" x="582" y="255.3105">Iterable&lt;Teacher&gt; allTeachers()</text><ellipse cx="573" cy="269.6348" fill="#84BE84" rx="3" ry="3" style="stroke:#038048;stroke-width:1.0;"/><text fill="#000000" font-family="sans-serif" font-size="14" lengthAdjust="spacing" textLength="464" x="582" y="273.9316">Course setResponsibleTeacher(Course theCourse, Teacher theTeacher)</text></g><!--class ListCourseService--><g id="elem_ListCourseService"><rect codeLine="20" fill="#F1F1F1" height="79.2031" id="ListCourseService" rx="2.5" ry="2.5" style="stroke:#181818;stroke-width:0.5;" width="342" x="485" y="360"/><ellipse cx="594.25" cy="382.291" fill="#ADD1B2" rx="11" ry="11" style="stroke:#181818;stroke-width:1.0;"/><path d="M597.0156,378.166 Q597.1719,377.9473 597.3594,377.8379 Q597.5469,377.7285 597.7656,377.7285 Q598.1406,377.7285 598.375,377.9941 Q598.6094,378.2441 598.6094,378.8535 L598.6094,380.3066 Q598.6094,380.916 598.375,381.1816 Q598.1406,381.4473 597.7656,381.4473 Q597.4219,381.4473 597.2188,381.2441 Q597.0156,381.0566 596.9063,380.541 Q596.8594,380.1816 596.6719,379.9941 Q596.3438,379.6191 595.7344,379.4004 Q595.125,379.1816 594.5,379.1816 Q593.7344,379.1816 593.0938,379.5098 Q592.4688,379.8379 591.9688,380.5879 Q591.4844,381.3379 591.4844,382.3691 L591.4844,383.4629 Q591.4844,384.6973 592.375,385.5254 Q593.2656,386.3379 594.8594,386.3379 Q595.7969,386.3379 596.4531,386.0879 Q596.8438,385.9316 597.2656,385.4941 Q597.5313,385.2285 597.6719,385.1504 Q597.8281,385.0723 598.0313,385.0723 Q598.3594,385.0723 598.6094,385.3379 Q598.875,385.5879 598.875,385.9316 Q598.875,386.2754 598.5313,386.6816 Q598.0313,387.2598 597.2344,387.5879 Q596.1563,388.041 594.8594,388.041 Q593.3438,388.041 592.1406,387.416 Q591.1563,386.916 590.4688,385.8535 Q589.7813,384.7754 589.7813,383.4941 L589.7813,382.3379 Q589.7813,381.0098 590.3906,379.8691 Q591.0156,378.7129 592.1094,378.1035 Q593.2031,377.4785 594.4375,377.4785 Q595.1719,377.4785 595.8125,377.6504 Q596.4688,377.8066 597.0156,378.166 Z " fill="#000000"/><text fill="#000000" font-family="sans-serif" font-size="12" font-style="italic" lengthAdjust="spacing" textLength="75" x="634.75" y="377.9492">&#171;Application&#187;</text><text fill="#000000" font-family="sans-serif" font-size="14" lengthAdjust="spacing" textLength="115" x="614.75" y="396.0684">ListCourseService</text><line style="stroke:#181818;stroke-width:0.5;" x1="486" x2="826" y1="404.582" y2="404.582"/><line style="stroke:#181818;stroke-width:0.5;" x1="486" x2="826" y1="412.582" y2="412.582"/><ellipse cx="496" cy="427.3926" fill="#84BE84" rx="3" ry="3" style="stroke:#038048;stroke-width:1.0;"/><text fill="#000000" font-family="sans-serif" font-size="14" lengthAdjust="spacing" textLength="316" x="505" y="431.6895">Iterable&lt;Course&gt; allCoursesWithoutResponsible()</text></g><!--class ListTeacherService--><g id="elem_ListTeacherService"><rect codeLine="24" fill="#F1F1F1" height="79.2031" id="ListTeacherService" rx="2.5" ry="2.5" style="stroke:#181818;stroke-width:0.5;" width="230" x="862" y="360"/><ellipse cx="911.75" cy="382.291" fill="#ADD1B2" rx="11" ry="11" style="stroke:#181818;stroke-width:1.0;"/><path d="M914.5156,378.166 Q914.6719,377.9473 914.8594,377.8379 Q915.0469,377.7285 915.2656,377.7285 Q915.6406,377.7285 915.875,377.9941 Q916.1094,378.2441 916.1094,378.8535 L916.1094,380.3066 Q916.1094,380.916 915.875,381.1816 Q915.6406,381.4473 915.2656,381.4473 Q914.9219,381.4473 914.7188,381.2441 Q914.5156,381.0566 914.4063,380.541 Q914.3594,380.1816 914.1719,379.9941 Q913.8438,379.6191 913.2344,379.4004 Q912.625,379.1816 912,379.1816 Q911.2344,379.1816 910.5938,379.5098 Q909.9688,379.8379 909.4688,380.5879 Q908.9844,381.3379 908.9844,382.3691 L908.9844,383.4629 Q908.9844,384.6973 909.875,385.5254 Q910.7656,386.3379 912.3594,386.3379 Q913.2969,386.3379 913.9531,386.0879 Q914.3438,385.9316 914.7656,385.4941 Q915.0313,385.2285 915.1719,385.1504 Q915.3281,385.0723 915.5313,385.0723 Q915.8594,385.0723 916.1094,385.3379 Q916.375,385.5879 916.375,385.9316 Q916.375,386.2754 916.0313,386.6816 Q915.5313,387.2598 914.7344,387.5879 Q913.6563,388.041 912.3594,388.041 Q910.8438,388.041 909.6406,387.416 Q908.6563,386.916 907.9688,385.8535 Q907.2813,384.7754 907.2813,383.4941 L907.2813,382.3379 Q907.2813,381.0098 907.8906,379.8691 Q908.5156,378.7129 909.6094,378.1035 Q910.7031,377.4785 911.9375,377.4785 Q912.6719,377.4785 913.3125,377.6504 Q913.9688,377.8066 914.5156,378.166 Z " fill="#000000"/><text fill="#000000" font-family="sans-serif" font-size="12" font-style="italic" lengthAdjust="spacing" textLength="75" x="955.75" y="377.9492">&#171;Application&#187;</text><text fill="#000000" font-family="sans-serif" font-size="14" lengthAdjust="spacing" textLength="122" x="932.25" y="396.0684">ListTeacherService</text><line style="stroke:#181818;stroke-width:0.5;" x1="863" x2="1091" y1="404.582" y2="404.582"/><line style="stroke:#181818;stroke-width:0.5;" x1="863" x2="1091" y1="412.582" y2="412.582"/><ellipse cx="873" cy="427.3926" fill="#84BE84" rx="3" ry="3" style="stroke:#038048;stroke-width:1.0;"/><text fill="#000000" font-family="sans-serif" font-size="14" lengthAdjust="spacing" textLength="204" x="882" y="431.6895">Iterable&lt;Teacher&gt; allTeachers()</text></g><!--class CourseRepository--><g id="elem_CourseRepository"><rect codeLine="28" fill="#F1F1F1" height="79.2031" id="CourseRepository" rx="2.5" ry="2.5" style="stroke:#181818;stroke-width:0.5;" width="232" x="376" y="500"/><ellipse cx="430.75" cy="522.291" fill="#ADD1B2" rx="11" ry="11" style="stroke:#181818;stroke-width:1.0;"/><path d="M433.5156,518.166 Q433.6719,517.9473 433.8594,517.8379 Q434.0469,517.7285 434.2656,517.7285 Q434.6406,517.7285 434.875,517.9941 Q435.1094,518.2441 435.1094,518.8535 L435.1094,520.3066 Q435.1094,520.916 434.875,521.1816 Q434.6406,521.4473 434.2656,521.4473 Q433.9219,521.4473 433.7188,521.2441 Q433.5156,521.0566 433.4063,520.541 Q433.3594,520.1816 433.1719,519.9941 Q432.8438,519.6191 432.2344,519.4004 Q431.625,519.1816 431,519.1816 Q430.2344,519.1816 429.5938,519.5098 Q428.9688,519.8379 428.4688,520.5879 Q427.9844,521.3379 427.9844,522.3691 L427.9844,523.4629 Q427.9844,524.6973 428.875,525.5254 Q429.7656,526.3379 431.3594,526.3379 Q432.2969,526.3379 432.9531,526.0879 Q433.3438,525.9316 433.7656,525.4941 Q434.0313,525.2285 434.1719,525.1504 Q434.3281,525.0723 434.5313,525.0723 Q434.8594,525.0723 435.1094,525.3379 Q435.375,525.5879 435.375,525.9316 Q435.375,526.2754 435.0313,526.6816 Q434.5313,527.2598 433.7344,527.5879 Q432.6563,528.041 431.3594,528.041 Q429.8438,528.041 428.6406,527.416 Q427.6563,526.916 426.9688,525.8535 Q426.2813,524.7754 426.2813,523.4941 L426.2813,522.3379 Q426.2813,521.0098 426.8906,519.8691 Q427.5156,518.7129 428.6094,518.1035 Q429.7031,517.4785 430.9375,517.4785 Q431.6719,517.4785 432.3125,517.6504 Q432.9688,517.8066 433.5156,518.166 Z " fill="#000000"/><text fill="#000000" font-family="sans-serif" font-size="12" font-style="italic" lengthAdjust="spacing" textLength="83" x="466.75" y="517.9492">&#171;Repositories&#187;</text><text fill="#000000" font-family="sans-serif" font-size="14" lengthAdjust="spacing" textLength="114" x="451.25" y="536.0684">CourseRepository</text><line style="stroke:#181818;stroke-width:0.5;" x1="377" x2="607" y1="544.582" y2="544.582"/><line style="stroke:#181818;stroke-width:0.5;" x1="377" x2="607" y1="552.582" y2="552.582"/><ellipse cx="387" cy="567.3926" fill="#84BE84" rx="3" ry="3" style="stroke:#038048;stroke-width:1.0;"/><text fill="#000000" font-family="sans-serif" font-size="14" lengthAdjust="spacing" textLength="206" x="396" y="571.6895">Course save(Course theCourse)</text></g><!--class TeacherRepository--><g id="elem_TeacherRepository"><rect codeLine="32" fill="#F1F1F1" height="60.582" id="TeacherRepository" rx="2.5" ry="2.5" style="stroke:#181818;stroke-width:0.5;" width="153" x="1029.5" y="509"/><ellipse cx="1044.5" cy="531.291" fill="#ADD1B2" rx="11" ry="11" style="stroke:#181818;stroke-width:1.0;"/><path d="M1047.2656,527.166 Q1047.4219,526.9473 1047.6094,526.8379 Q1047.7969,526.7285 1048.0156,526.7285 Q1048.3906,526.7285 1048.625,526.9941 Q1048.8594,527.2441 1048.8594,527.8535 L1048.8594,529.3066 Q1048.8594,529.916 1048.625,530.1816 Q1048.3906,530.4473 1048.0156,530.4473 Q1047.6719,530.4473 1047.4688,530.2441 Q1047.2656,530.0566 1047.1563,529.541 Q1047.1094,529.1816 1046.9219,528.9941 Q1046.5938,528.6191 1045.9844,528.4004 Q1045.375,528.1816 1044.75,528.1816 Q1043.9844,528.1816 1043.3438,528.5098 Q1042.7188,528.8379 1042.2188,529.5879 Q1041.7344,530.3379 1041.7344,531.3691 L1041.7344,532.4629 Q1041.7344,533.6973 1042.625,534.5254 Q1043.5156,535.3379 1045.1094,535.3379 Q1046.0469,535.3379 1046.7031,535.0879 Q1047.0938,534.9316 1047.5156,534.4941 Q1047.7813,534.2285 1047.9219,534.1504 Q1048.0781,534.0723 1048.2813,534.0723 Q1048.6094,534.0723 1048.8594,534.3379 Q1049.125,534.5879 1049.125,534.9316 Q1049.125,535.2754 1048.7813,535.6816 Q1048.2813,536.2598 1047.4844,536.5879 Q1046.4063,537.041 1045.1094,537.041 Q1043.5938,537.041 1042.3906,536.416 Q1041.4063,535.916 1040.7188,534.8535 Q1040.0313,533.7754 1040.0313,532.4941 L1040.0313,531.3379 Q1040.0313,530.0098 1040.6406,528.8691 Q1041.2656,527.7129 1042.3594,527.1035 Q1043.4531,526.4785 1044.6875,526.4785 Q1045.4219,526.4785 1046.0625,526.6504 Q1046.7188,526.8066 1047.2656,527.166 Z " fill="#000000"/><text fill="#000000" font-family="sans-serif" font-size="12" font-style="italic" lengthAdjust="spacing" textLength="83" x="1077.5" y="526.9492">&#171;Repositories&#187;</text><text fill="#000000" font-family="sans-serif" font-size="14" lengthAdjust="spacing" textLength="121" x="1058.5" y="545.0684">TeacherRepository</text><line style="stroke:#181818;stroke-width:0.5;" x1="1030.5" x2="1181.5" y1="553.582" y2="553.582"/><line style="stroke:#181818;stroke-width:0.5;" x1="1030.5" x2="1181.5" y1="561.582" y2="561.582"/></g><!--link SetCourseResponsibleTeacherUI to Course--><g id="link_SetCourseResponsibleTeacherUI_Course"><path codeLine="36" d="M713.43,86.16 C606.27,132.4 427.53,215.62 288,311 C267.72,324.86 246.49,341.54 228.27,356.59 " fill="none" id="SetCourseResponsibleTeacherUI-to-Course" style="stroke:#181818;stroke-width:1.0;stroke-dasharray:7.0,7.0;"/><polygon fill="#181818" points="224.19,359.98,233.6657,357.2947,228.0323,356.7805,228.5465,351.147,224.19,359.98" style="stroke:#181818;stroke-width:1.0;"/></g><!--link ListCourseService to CourseRepository--><g id="link_ListCourseService_CourseRepository"><path codeLine="37" d="M609.88,439.31 C588.65,457.17 563.43,478.39 541.77,496.62 " fill="none" id="ListCourseService-to-CourseRepository" style="stroke:#181818;stroke-width:1.0;stroke-dasharray:7.0,7.0;"/><polygon fill="#181818" points="537.77,499.98,547.2238,497.2185,541.5864,496.7496,542.0552,491.1123,537.77,499.98" style="stroke:#181818;stroke-width:1.0;"/></g><!--link SetCourseResponsibleTeacherUI to Teacher--><g id="link_SetCourseResponsibleTeacherUI_Teacher"><path codeLine="38" d="M928.11,75.54 C1043.56,109.53 1210.4,179.4 1284,311 C1292.81,326.76 1294.31,346.72 1293.39,363.59 " fill="none" id="SetCourseResponsibleTeacherUI-to-Teacher" style="stroke:#181818;stroke-width:1.0;stroke-dasharray:7.0,7.0;"/><polygon fill="#181818" points="1293.03,368.72,1297.6628,360.0288,1293.3873,363.7328,1289.6833,359.4572,1293.03,368.72" style="stroke:#181818;stroke-width:1.0;"/></g><!--link ListTeacherService to TeacherRepository--><g id="link_ListTeacherService_TeacherRepository"><path codeLine="39" d="M1013.28,439.31 C1032.56,459.94 1056.03,485.05 1074.54,504.84 " fill="none" id="ListTeacherService-to-TeacherRepository" style="stroke:#181818;stroke-width:1.0;stroke-dasharray:7.0,7.0;"/><polygon fill="#181818" points="1078.17,508.73,1074.9339,499.428,1074.7508,505.0819,1069.0969,504.8987,1078.17,508.73" style="stroke:#181818;stroke-width:1.0;"/></g><!--link SetCourseResponsibleTeacherUI to SetCourseResponsibleTeacherController--><g id="link_SetCourseResponsibleTeacherUI_SetCourseResponsibleTeacherController"><path codeLine="43" d="M807,86.23 C807,107.79 807,135.14 807,159.64 " fill="none" id="SetCourseResponsibleTeacherUI-to-SetCourseResponsibleTeacherController" style="stroke:#181818;stroke-width:1.0;"/><polygon fill="#181818" points="807,164.82,811,155.82,807,159.82,803,155.82,807,164.82" style="stroke:#181818;stroke-width:1.0;"/><text fill="#000000" font-family="sans-serif" font-size="13" lengthAdjust="spacing" textLength="73" x="808" y="131.0283">theController</text></g><!--link SetCourseResponsibleTeacherController to CourseRepository--><g id="link_SetCourseResponsibleTeacherController_CourseRepository"><path codeLine="44" d="M561.58,268.29 C513.83,288.41 469.5,317.61 440,360 C411.65,400.73 436.11,456.93 460.17,495.31 " fill="none" id="SetCourseResponsibleTeacherController-to-CourseRepository" style="stroke:#181818;stroke-width:1.0;"/><polygon fill="#181818" points="463.1,499.91,461.6364,490.1705,460.4128,495.6935,454.8899,494.4699,463.1,499.91" style="stroke:#181818;stroke-width:1.0;"/><text fill="#000000" font-family="sans-serif" font-size="13" lengthAdjust="spacing" textLength="25" x="441" y="405.0283">repo</text></g><!--link SetCourseResponsibleTeacherController to TeacherRepository--><g id="link_SetCourseResponsibleTeacherController_TeacherRepository"><path codeLine="45" d="M1019.31,281.19 C1055.24,300.41 1087.99,326 1110,360 C1137.97,403.21 1127.97,465.46 1117.49,503.87 " fill="none" id="SetCourseResponsibleTeacherController-to-TeacherRepository" style="stroke:#181818;stroke-width:1.0;"/><polygon fill="#181818" points="1116.08,508.9,1122.3719,501.3229,1117.4366,504.0876,1114.672,499.1523,1116.08,508.9" style="stroke:#181818;stroke-width:1.0;"/><text fill="#000000" font-family="sans-serif" font-size="13" lengthAdjust="spacing" textLength="25" x="1129" y="405.0283">repo</text></g><!--link SetCourseResponsibleTeacherController to ListCourseService--><g id="link_SetCourseResponsibleTeacherController_ListCourseService"><path codeLine="46" d="M757.56,281.14 C736.42,305.57 712.17,333.59 692.67,356.12 " fill="none" id="SetCourseResponsibleTeacherController-to-ListCourseService" style="stroke:#181818;stroke-width:1.0;"/><polygon fill="#181818" points="689.34,359.98,698.2511,355.7857,692.6092,356.1968,692.1981,350.555,689.34,359.98" style="stroke:#181818;stroke-width:1.0;"/><text fill="#000000" font-family="sans-serif" font-size="13" lengthAdjust="spacing" textLength="40" x="733" y="326.0283">service</text></g><!--link SetCourseResponsibleTeacherController to ListTeacherService--><g id="link_SetCourseResponsibleTeacherController_ListTeacherService"><path codeLine="47" d="M862.66,281.14 C886.46,305.57 913.76,333.59 935.71,356.12 " fill="none" id="SetCourseResponsibleTeacherController-to-ListTeacherService" style="stroke:#181818;stroke-width:1.0;"/><polygon fill="#181818" points="939.47,359.98,936.0275,350.7524,935.9704,356.4089,930.3138,356.3518,939.47,359.98" style="stroke:#181818;stroke-width:1.0;"/><text fill="#000000" font-family="sans-serif" font-size="13" lengthAdjust="spacing" textLength="40" x="909" y="326.0283">service</text></g><!--link SetCourseResponsibleTeacherController to Course--><g id="link_SetCourseResponsibleTeacherController_Course"><path codeLine="48" d="M561.83,253.61 C487.91,266.69 407.46,285.17 336,311 C303.71,322.68 270.2,340.59 242.56,357.18 " fill="none" id="SetCourseResponsibleTeacherController-to-Course" style="stroke:#181818;stroke-width:1.0;"/><polygon fill="#181818" points="238.18,359.83,247.9525,358.6056,242.4612,357.247,243.8197,351.7557,238.18,359.83" style="stroke:#181818;stroke-width:1.0;"/><text fill="#000000" font-family="sans-serif" font-size="13" lengthAdjust="spacing" textLength="59" x="337" y="326.0283">theCourse</text></g><!--link SetCourseResponsibleTeacherController to Teacher--><g id="link_SetCourseResponsibleTeacherController_Teacher"><path codeLine="49" d="M1052.02,264.01 C1096.2,275.94 1140.92,291.29 1181,311 C1208.66,324.6 1235.5,346.58 1255.38,365.1 " fill="none" id="SetCourseResponsibleTeacherController-to-Teacher" style="stroke:#181818;stroke-width:1.0;"/><polygon fill="#181818" points="1259.26,368.76,1255.4477,359.6789,1255.619,365.3332,1249.9647,365.5045,1259.26,368.76" style="stroke:#181818;stroke-width:1.0;"/><text fill="#000000" font-family="sans-serif" font-size="13" lengthAdjust="spacing" textLength="64" x="1211" y="326.0283">theTeacher</text></g><!--SRC=[hPF1JeGm48RlVOhUTitA2n12OjZB9iR3el5WF5IOI9DAIQUBCSPtTuIoB5j4CCk5QJlppSpVwIfH0X6GPJz_de9DzC4Wx04hNQ9yKN0F8Yl0FEnu55K644ehhDHb7FDFnkdBTLhez_KL-s8EqpB8VwlVXEmzDxMMEKUmFdxj_jmMtTO9i3iS48-d4rKdkhH6AzN4tbILajcm-CtEWX4K4BM8c0kbMXCVfItquRHOQd8OvD8qKSx6picfCDwkEwHkM-kQJmfmAz7rc8AfPGQNQcUGmUMTc-ANvi_6O0-LHccr-I3WSI41UsAdbAZ14yQVWcaWUQ-sK46PGvdH9fkUwU0f5rX0_Xp4hbxcQ-qxzJKiuBjTDYBrYDj92chfJjJojRc8ln8IOTw325kHkpMR5nMCQ40eGui51Fyg5oFyQmhfhJNMGihPNVm7uwOsxETskHXjT3Satm00]--></g></svg>