<?xml version="1.0" encoding="us-ascii" standalone="no"?><svg xmlns="http://www.w3.org/2000/svg" xmlns:xlink="http://www.w3.org/1999/xlink" contentStyleType="text/css" height="586px" preserveAspectRatio="none" style="width:1565px;height:586px;background:#FFFFFF;" version="1.1" viewBox="0 0 1565 586" width="1565px" zoomAndPan="magnify"><defs/><g><!--class SetCourseTeacherUI--><g id="elem_SetCourseTeacherUI"><rect codeLine="3" fill="#F1F1F1" height="79.2031" id="SetCourseTeacherUI" rx="2.5" ry="2.5" style="stroke:#181818;stroke-width:0.5;" width="164" x="729" y="7"/><ellipse cx="744" cy="29.291" fill="#ADD1B2" rx="11" ry="11" style="stroke:#181818;stroke-width:1.0;"/><path d="M746.7656,25.166 Q746.9219,24.9473 747.1094,24.8379 Q747.2969,24.7285 747.5156,24.7285 Q747.8906,24.7285 748.125,24.9941 Q748.3594,25.2441 748.3594,25.8535 L748.3594,27.3066 Q748.3594,27.916 748.125,28.1816 Q747.8906,28.4473 747.5156,28.4473 Q747.1719,28.4473 746.9688,28.2441 Q746.7656,28.0566 746.6563,27.541 Q746.6094,27.1816 746.4219,26.9941 Q746.0938,26.6191 745.4844,26.4004 Q744.875,26.1816 744.25,26.1816 Q743.4844,26.1816 742.8438,26.5098 Q742.2188,26.8379 741.7188,27.5879 Q741.2344,28.3379 741.2344,29.3691 L741.2344,30.4629 Q741.2344,31.6973 742.125,32.5254 Q743.0156,33.3379 744.6094,33.3379 Q745.5469,33.3379 746.2031,33.0879 Q746.5938,32.9316 747.0156,32.4941 Q747.2813,32.2285 747.4219,32.1504 Q747.5781,32.0723 747.7813,32.0723 Q748.1094,32.0723 748.3594,32.3379 Q748.625,32.5879 748.625,32.9316 Q748.625,33.2754 748.2813,33.6816 Q747.7813,34.2598 746.9844,34.5879 Q745.9063,35.041 744.6094,35.041 Q743.0938,35.041 741.8906,34.416 Q740.9063,33.916 740.2188,32.8535 Q739.5313,31.7754 739.5313,30.4941 L739.5313,29.3379 Q739.5313,28.0098 740.1406,26.8691 Q740.7656,25.7129 741.8594,25.1035 Q742.9531,24.4785 744.1875,24.4785 Q744.9219,24.4785 745.5625,24.6504 Q746.2188,24.8066 746.7656,25.166 Z " fill="#000000"/><text fill="#000000" font-family="sans-serif" font-size="12" font-style="italic" lengthAdjust="spacing" textLength="82" x="783" y="24.9492">&#171;presentation&#187;</text><text fill="#000000" font-family="sans-serif" font-size="14" lengthAdjust="spacing" textLength="132" x="758" y="43.0684">SetCourseTeacherUI</text><line style="stroke:#181818;stroke-width:0.5;" x1="730" x2="892" y1="51.582" y2="51.582"/><line style="stroke:#181818;stroke-width:0.5;" x1="730" x2="892" y1="59.582" y2="59.582"/><text fill="#000000" font-family="sans-serif" font-size="14" lengthAdjust="spacing" textLength="60" x="735" y="78.6895">doShow()</text></g><!--class Course--><g id="elem_Course"><rect codeLine="7" fill="#F1F1F1" height="79.2031" id="Course" rx="2.5" ry="2.5" style="stroke:#181818;stroke-width:0.5;" width="336" x="7" y="360"/><ellipse cx="143.75" cy="382.291" fill="#ADD1B2" rx="11" ry="11" style="stroke:#181818;stroke-width:1.0;"/><path d="M146.5156,378.166 Q146.6719,377.9473 146.8594,377.8379 Q147.0469,377.7285 147.2656,377.7285 Q147.6406,377.7285 147.875,377.9941 Q148.1094,378.2441 148.1094,378.8535 L148.1094,380.3066 Q148.1094,380.916 147.875,381.1816 Q147.6406,381.4473 147.2656,381.4473 Q146.9219,381.4473 146.7188,381.2441 Q146.5156,381.0566 146.4063,380.541 Q146.3594,380.1816 146.1719,379.9941 Q145.8438,379.6191 145.2344,379.4004 Q144.625,379.1816 144,379.1816 Q143.2344,379.1816 142.5938,379.5098 Q141.9688,379.8379 141.4688,380.5879 Q140.9844,381.3379 140.9844,382.3691 L140.9844,383.4629 Q140.9844,384.6973 141.875,385.5254 Q142.7656,386.3379 144.3594,386.3379 Q145.2969,386.3379 145.9531,386.0879 Q146.3438,385.9316 146.7656,385.4941 Q147.0313,385.2285 147.1719,385.1504 Q147.3281,385.0723 147.5313,385.0723 Q147.8594,385.0723 148.1094,385.3379 Q148.375,385.5879 148.375,385.9316 Q148.375,386.2754 148.0313,386.6816 Q147.5313,387.2598 146.7344,387.5879 Q145.6563,388.041 144.3594,388.041 Q142.8438,388.041 141.6406,387.416 Q140.6563,386.916 139.9688,385.8535 Q139.2813,384.7754 139.2813,383.4941 L139.2813,382.3379 Q139.2813,381.0098 139.8906,379.8691 Q140.5156,378.7129 141.6094,378.1035 Q142.7031,377.4785 143.9375,377.4785 Q144.6719,377.4785 145.3125,377.6504 Q145.9688,377.8066 146.5156,378.166 Z " fill="#000000"/><text fill="#000000" font-family="sans-serif" font-size="12" font-style="italic" lengthAdjust="spacing" textLength="58" x="162.25" y="377.9492">&#171;Domain&#187;</text><text fill="#000000" font-family="sans-serif" font-size="14" lengthAdjust="spacing" textLength="46" x="168.25" y="396.0684">Course</text><line style="stroke:#181818;stroke-width:0.5;" x1="8" x2="342" y1="404.582" y2="404.582"/><line style="stroke:#181818;stroke-width:0.5;" x1="8" x2="342" y1="412.582" y2="412.582"/><ellipse cx="18" cy="427.3926" fill="#84BE84" rx="3" ry="3" style="stroke:#038048;stroke-width:1.0;"/><text fill="#000000" font-family="sans-serif" font-size="14" lengthAdjust="spacing" textLength="310" x="27" y="431.6895">void addTeacherToCourse(Teacher theTeacher)</text></g><!--class Teacher--><g id="elem_Teacher"><rect codeLine="11" fill="#F1F1F1" height="60.582" id="Teacher" rx="2.5" ry="2.5" style="stroke:#181818;stroke-width:0.5;" width="86" x="1472" y="369"/><ellipse cx="1487" cy="391.291" fill="#ADD1B2" rx="11" ry="11" style="stroke:#181818;stroke-width:1.0;"/><path d="M1489.7656,387.166 Q1489.9219,386.9473 1490.1094,386.8379 Q1490.2969,386.7285 1490.5156,386.7285 Q1490.8906,386.7285 1491.125,386.9941 Q1491.3594,387.2441 1491.3594,387.8535 L1491.3594,389.3066 Q1491.3594,389.916 1491.125,390.1816 Q1490.8906,390.4473 1490.5156,390.4473 Q1490.1719,390.4473 1489.9688,390.2441 Q1489.7656,390.0566 1489.6563,389.541 Q1489.6094,389.1816 1489.4219,388.9941 Q1489.0938,388.6191 1488.4844,388.4004 Q1487.875,388.1816 1487.25,388.1816 Q1486.4844,388.1816 1485.8438,388.5098 Q1485.2188,388.8379 1484.7188,389.5879 Q1484.2344,390.3379 1484.2344,391.3691 L1484.2344,392.4629 Q1484.2344,393.6973 1485.125,394.5254 Q1486.0156,395.3379 1487.6094,395.3379 Q1488.5469,395.3379 1489.2031,395.0879 Q1489.5938,394.9316 1490.0156,394.4941 Q1490.2813,394.2285 1490.4219,394.1504 Q1490.5781,394.0723 1490.7813,394.0723 Q1491.1094,394.0723 1491.3594,394.3379 Q1491.625,394.5879 1491.625,394.9316 Q1491.625,395.2754 1491.2813,395.6816 Q1490.7813,396.2598 1489.9844,396.5879 Q1488.9063,397.041 1487.6094,397.041 Q1486.0938,397.041 1484.8906,396.416 Q1483.9063,395.916 1483.2188,394.8535 Q1482.5313,393.7754 1482.5313,392.4941 L1482.5313,391.3379 Q1482.5313,390.0098 1483.1406,388.8691 Q1483.7656,387.7129 1484.8594,387.1035 Q1485.9531,386.4785 1487.1875,386.4785 Q1487.9219,386.4785 1488.5625,386.6504 Q1489.2188,386.8066 1489.7656,387.166 Z " fill="#000000"/><text fill="#000000" font-family="sans-serif" font-size="12" font-style="italic" lengthAdjust="spacing" textLength="58" x="1499" y="386.9492">&#171;Domain&#187;</text><text fill="#000000" font-family="sans-serif" font-size="14" lengthAdjust="spacing" textLength="53" x="1501.5" y="405.0684">Teacher</text><line style="stroke:#181818;stroke-width:0.5;" x1="1473" x2="1557" y1="413.582" y2="413.582"/><line style="stroke:#181818;stroke-width:0.5;" x1="1473" x2="1557" y1="421.582" y2="421.582"/></g><!--class SetCourseTeacherController--><g id="elem_SetCourseTeacherController"><rect codeLine="14" fill="#F1F1F1" height="116.4453" id="SetCourseTeacherController" rx="2.5" ry="2.5" style="stroke:#181818;stroke-width:0.5;" width="527" x="547.5" y="165"/><ellipse cx="715.75" cy="187.291" fill="#ADD1B2" rx="11" ry="11" style="stroke:#181818;stroke-width:1.0;"/><path d="M718.5156,183.166 Q718.6719,182.9473 718.8594,182.8379 Q719.0469,182.7285 719.2656,182.7285 Q719.6406,182.7285 719.875,182.9941 Q720.1094,183.2441 720.1094,183.8535 L720.1094,185.3066 Q720.1094,185.916 719.875,186.1816 Q719.6406,186.4473 719.2656,186.4473 Q718.9219,186.4473 718.7188,186.2441 Q718.5156,186.0566 718.4063,185.541 Q718.3594,185.1816 718.1719,184.9941 Q717.8438,184.6191 717.2344,184.4004 Q716.625,184.1816 716,184.1816 Q715.2344,184.1816 714.5938,184.5098 Q713.9688,184.8379 713.4688,185.5879 Q712.9844,186.3379 712.9844,187.3691 L712.9844,188.4629 Q712.9844,189.6973 713.875,190.5254 Q714.7656,191.3379 716.3594,191.3379 Q717.2969,191.3379 717.9531,191.0879 Q718.3438,190.9316 718.7656,190.4941 Q719.0313,190.2285 719.1719,190.1504 Q719.3281,190.0723 719.5313,190.0723 Q719.8594,190.0723 720.1094,190.3379 Q720.375,190.5879 720.375,190.9316 Q720.375,191.2754 720.0313,191.6816 Q719.5313,192.2598 718.7344,192.5879 Q717.6563,193.041 716.3594,193.041 Q714.8438,193.041 713.6406,192.416 Q712.6563,191.916 711.9688,190.8535 Q711.2813,189.7754 711.2813,188.4941 L711.2813,187.3379 Q711.2813,186.0098 711.8906,184.8691 Q712.5156,183.7129 713.6094,183.1035 Q714.7031,182.4785 715.9375,182.4785 Q716.6719,182.4785 717.3125,182.6504 Q717.9688,182.8066 718.5156,183.166 Z " fill="#000000"/><text fill="#000000" font-family="sans-serif" font-size="12" font-style="italic" lengthAdjust="spacing" textLength="75" x="789.75" y="182.9492">&#171;Application&#187;</text><text fill="#000000" font-family="sans-serif" font-size="14" lengthAdjust="spacing" textLength="182" x="736.25" y="201.0684">SetCourseTeacherController</text><line style="stroke:#181818;stroke-width:0.5;" x1="548.5" x2="1073.5" y1="209.582" y2="209.582"/><line style="stroke:#181818;stroke-width:0.5;" x1="548.5" x2="1073.5" y1="217.582" y2="217.582"/><ellipse cx="558.5" cy="232.3926" fill="#84BE84" rx="3" ry="3" style="stroke:#038048;stroke-width:1.0;"/><text fill="#000000" font-family="sans-serif" font-size="14" lengthAdjust="spacing" textLength="255" x="567.5" y="236.6895">Iterable&lt;Course&gt; allCoursesNotClosed()</text><ellipse cx="558.5" cy="251.0137" fill="#84BE84" rx="3" ry="3" style="stroke:#038048;stroke-width:1.0;"/><text fill="#000000" font-family="sans-serif" font-size="14" lengthAdjust="spacing" textLength="501" x="567.5" y="255.3105">Iterable&lt;Teacher&gt; allTeachersWhoDoNotTeachThisCourse(Course theCourse)</text><ellipse cx="558.5" cy="269.6348" fill="#84BE84" rx="3" ry="3" style="stroke:#038048;stroke-width:1.0;"/><text fill="#000000" font-family="sans-serif" font-size="14" lengthAdjust="spacing" textLength="432" x="567.5" y="273.9316">Course setCourseTeacher(Course theCourse, Teacher theTeacher)</text></g><!--class ListCourseService--><g id="elem_ListCourseService"><rect codeLine="20" fill="#F1F1F1" height="79.2031" id="ListCourseService" rx="2.5" ry="2.5" style="stroke:#181818;stroke-width:0.5;" width="281" x="475.5" y="360"/><ellipse cx="554.25" cy="382.291" fill="#ADD1B2" rx="11" ry="11" style="stroke:#181818;stroke-width:1.0;"/><path d="M557.0156,378.166 Q557.1719,377.9473 557.3594,377.8379 Q557.5469,377.7285 557.7656,377.7285 Q558.1406,377.7285 558.375,377.9941 Q558.6094,378.2441 558.6094,378.8535 L558.6094,380.3066 Q558.6094,380.916 558.375,381.1816 Q558.1406,381.4473 557.7656,381.4473 Q557.4219,381.4473 557.2188,381.2441 Q557.0156,381.0566 556.9063,380.541 Q556.8594,380.1816 556.6719,379.9941 Q556.3438,379.6191 555.7344,379.4004 Q555.125,379.1816 554.5,379.1816 Q553.7344,379.1816 553.0938,379.5098 Q552.4688,379.8379 551.9688,380.5879 Q551.4844,381.3379 551.4844,382.3691 L551.4844,383.4629 Q551.4844,384.6973 552.375,385.5254 Q553.2656,386.3379 554.8594,386.3379 Q555.7969,386.3379 556.4531,386.0879 Q556.8438,385.9316 557.2656,385.4941 Q557.5313,385.2285 557.6719,385.1504 Q557.8281,385.0723 558.0313,385.0723 Q558.3594,385.0723 558.6094,385.3379 Q558.875,385.5879 558.875,385.9316 Q558.875,386.2754 558.5313,386.6816 Q558.0313,387.2598 557.2344,387.5879 Q556.1563,388.041 554.8594,388.041 Q553.3438,388.041 552.1406,387.416 Q551.1563,386.916 550.4688,385.8535 Q549.7813,384.7754 549.7813,383.4941 L549.7813,382.3379 Q549.7813,381.0098 550.3906,379.8691 Q551.0156,378.7129 552.1094,378.1035 Q553.2031,377.4785 554.4375,377.4785 Q555.1719,377.4785 555.8125,377.6504 Q556.4688,377.8066 557.0156,378.166 Z " fill="#000000"/><text fill="#000000" font-family="sans-serif" font-size="12" font-style="italic" lengthAdjust="spacing" textLength="75" x="594.75" y="377.9492">&#171;Application&#187;</text><text fill="#000000" font-family="sans-serif" font-size="14" lengthAdjust="spacing" textLength="115" x="574.75" y="396.0684">ListCourseService</text><line style="stroke:#181818;stroke-width:0.5;" x1="476.5" x2="755.5" y1="404.582" y2="404.582"/><line style="stroke:#181818;stroke-width:0.5;" x1="476.5" x2="755.5" y1="412.582" y2="412.582"/><ellipse cx="486.5" cy="427.3926" fill="#84BE84" rx="3" ry="3" style="stroke:#038048;stroke-width:1.0;"/><text fill="#000000" font-family="sans-serif" font-size="14" lengthAdjust="spacing" textLength="255" x="495.5" y="431.6895">Iterable&lt;Course&gt; allCoursesNotClosed()</text></g><!--class ListTeacherService--><g id="elem_ListTeacherService"><rect codeLine="24" fill="#F1F1F1" height="79.2031" id="ListTeacherService" rx="2.5" ry="2.5" style="stroke:#181818;stroke-width:0.5;" width="527" x="791.5" y="360"/><ellipse cx="989.75" cy="382.291" fill="#ADD1B2" rx="11" ry="11" style="stroke:#181818;stroke-width:1.0;"/><path d="M992.5156,378.166 Q992.6719,377.9473 992.8594,377.8379 Q993.0469,377.7285 993.2656,377.7285 Q993.6406,377.7285 993.875,377.9941 Q994.1094,378.2441 994.1094,378.8535 L994.1094,380.3066 Q994.1094,380.916 993.875,381.1816 Q993.6406,381.4473 993.2656,381.4473 Q992.9219,381.4473 992.7188,381.2441 Q992.5156,381.0566 992.4063,380.541 Q992.3594,380.1816 992.1719,379.9941 Q991.8438,379.6191 991.2344,379.4004 Q990.625,379.1816 990,379.1816 Q989.2344,379.1816 988.5938,379.5098 Q987.9688,379.8379 987.4688,380.5879 Q986.9844,381.3379 986.9844,382.3691 L986.9844,383.4629 Q986.9844,384.6973 987.875,385.5254 Q988.7656,386.3379 990.3594,386.3379 Q991.2969,386.3379 991.9531,386.0879 Q992.3438,385.9316 992.7656,385.4941 Q993.0313,385.2285 993.1719,385.1504 Q993.3281,385.0723 993.5313,385.0723 Q993.8594,385.0723 994.1094,385.3379 Q994.375,385.5879 994.375,385.9316 Q994.375,386.2754 994.0313,386.6816 Q993.5313,387.2598 992.7344,387.5879 Q991.6563,388.041 990.3594,388.041 Q988.8438,388.041 987.6406,387.416 Q986.6563,386.916 985.9688,385.8535 Q985.2813,384.7754 985.2813,383.4941 L985.2813,382.3379 Q985.2813,381.0098 985.8906,379.8691 Q986.5156,378.7129 987.6094,378.1035 Q988.7031,377.4785 989.9375,377.4785 Q990.6719,377.4785 991.3125,377.6504 Q991.9688,377.8066 992.5156,378.166 Z " fill="#000000"/><text fill="#000000" font-family="sans-serif" font-size="12" font-style="italic" lengthAdjust="spacing" textLength="75" x="1033.75" y="377.9492">&#171;Application&#187;</text><text fill="#000000" font-family="sans-serif" font-size="14" lengthAdjust="spacing" textLength="122" x="1010.25" y="396.0684">ListTeacherService</text><line style="stroke:#181818;stroke-width:0.5;" x1="792.5" x2="1317.5" y1="404.582" y2="404.582"/><line style="stroke:#181818;stroke-width:0.5;" x1="792.5" x2="1317.5" y1="412.582" y2="412.582"/><ellipse cx="802.5" cy="427.3926" fill="#84BE84" rx="3" ry="3" style="stroke:#038048;stroke-width:1.0;"/><text fill="#000000" font-family="sans-serif" font-size="14" lengthAdjust="spacing" textLength="501" x="811.5" y="431.6895">Iterable&lt;Teacher&gt; allTeachersWhoDoNotTeachThisCourse(Course theCourse)</text></g><!--class CourseRepository--><g id="elem_CourseRepository"><rect codeLine="28" fill="#F1F1F1" height="79.2031" id="CourseRepository" rx="2.5" ry="2.5" style="stroke:#181818;stroke-width:0.5;" width="232" x="358" y="500"/><ellipse cx="412.75" cy="522.291" fill="#ADD1B2" rx="11" ry="11" style="stroke:#181818;stroke-width:1.0;"/><path d="M415.5156,518.166 Q415.6719,517.9473 415.8594,517.8379 Q416.0469,517.7285 416.2656,517.7285 Q416.6406,517.7285 416.875,517.9941 Q417.1094,518.2441 417.1094,518.8535 L417.1094,520.3066 Q417.1094,520.916 416.875,521.1816 Q416.6406,521.4473 416.2656,521.4473 Q415.9219,521.4473 415.7188,521.2441 Q415.5156,521.0566 415.4063,520.541 Q415.3594,520.1816 415.1719,519.9941 Q414.8438,519.6191 414.2344,519.4004 Q413.625,519.1816 413,519.1816 Q412.2344,519.1816 411.5938,519.5098 Q410.9688,519.8379 410.4688,520.5879 Q409.9844,521.3379 409.9844,522.3691 L409.9844,523.4629 Q409.9844,524.6973 410.875,525.5254 Q411.7656,526.3379 413.3594,526.3379 Q414.2969,526.3379 414.9531,526.0879 Q415.3438,525.9316 415.7656,525.4941 Q416.0313,525.2285 416.1719,525.1504 Q416.3281,525.0723 416.5313,525.0723 Q416.8594,525.0723 417.1094,525.3379 Q417.375,525.5879 417.375,525.9316 Q417.375,526.2754 417.0313,526.6816 Q416.5313,527.2598 415.7344,527.5879 Q414.6563,528.041 413.3594,528.041 Q411.8438,528.041 410.6406,527.416 Q409.6563,526.916 408.9688,525.8535 Q408.2813,524.7754 408.2813,523.4941 L408.2813,522.3379 Q408.2813,521.0098 408.8906,519.8691 Q409.5156,518.7129 410.6094,518.1035 Q411.7031,517.4785 412.9375,517.4785 Q413.6719,517.4785 414.3125,517.6504 Q414.9688,517.8066 415.5156,518.166 Z " fill="#000000"/><text fill="#000000" font-family="sans-serif" font-size="12" font-style="italic" lengthAdjust="spacing" textLength="83" x="448.75" y="517.9492">&#171;Repositories&#187;</text><text fill="#000000" font-family="sans-serif" font-size="14" lengthAdjust="spacing" textLength="114" x="433.25" y="536.0684">CourseRepository</text><line style="stroke:#181818;stroke-width:0.5;" x1="359" x2="589" y1="544.582" y2="544.582"/><line style="stroke:#181818;stroke-width:0.5;" x1="359" x2="589" y1="552.582" y2="552.582"/><ellipse cx="369" cy="567.3926" fill="#84BE84" rx="3" ry="3" style="stroke:#038048;stroke-width:1.0;"/><text fill="#000000" font-family="sans-serif" font-size="14" lengthAdjust="spacing" textLength="206" x="378" y="571.6895">Course save(Course theCourse)</text></g><!--class TeacherRepository--><g id="elem_TeacherRepository"><rect codeLine="32" fill="#F1F1F1" height="60.582" id="TeacherRepository" rx="2.5" ry="2.5" style="stroke:#181818;stroke-width:0.5;" width="153" x="1218.5" y="509"/><ellipse cx="1233.5" cy="531.291" fill="#ADD1B2" rx="11" ry="11" style="stroke:#181818;stroke-width:1.0;"/><path d="M1236.2656,527.166 Q1236.4219,526.9473 1236.6094,526.8379 Q1236.7969,526.7285 1237.0156,526.7285 Q1237.3906,526.7285 1237.625,526.9941 Q1237.8594,527.2441 1237.8594,527.8535 L1237.8594,529.3066 Q1237.8594,529.916 1237.625,530.1816 Q1237.3906,530.4473 1237.0156,530.4473 Q1236.6719,530.4473 1236.4688,530.2441 Q1236.2656,530.0566 1236.1563,529.541 Q1236.1094,529.1816 1235.9219,528.9941 Q1235.5938,528.6191 1234.9844,528.4004 Q1234.375,528.1816 1233.75,528.1816 Q1232.9844,528.1816 1232.3438,528.5098 Q1231.7188,528.8379 1231.2188,529.5879 Q1230.7344,530.3379 1230.7344,531.3691 L1230.7344,532.4629 Q1230.7344,533.6973 1231.625,534.5254 Q1232.5156,535.3379 1234.1094,535.3379 Q1235.0469,535.3379 1235.7031,535.0879 Q1236.0938,534.9316 1236.5156,534.4941 Q1236.7813,534.2285 1236.9219,534.1504 Q1237.0781,534.0723 1237.2813,534.0723 Q1237.6094,534.0723 1237.8594,534.3379 Q1238.125,534.5879 1238.125,534.9316 Q1238.125,535.2754 1237.7813,535.6816 Q1237.2813,536.2598 1236.4844,536.5879 Q1235.4063,537.041 1234.1094,537.041 Q1232.5938,537.041 1231.3906,536.416 Q1230.4063,535.916 1229.7188,534.8535 Q1229.0313,533.7754 1229.0313,532.4941 L1229.0313,531.3379 Q1229.0313,530.0098 1229.6406,528.8691 Q1230.2656,527.7129 1231.3594,527.1035 Q1232.4531,526.4785 1233.6875,526.4785 Q1234.4219,526.4785 1235.0625,526.6504 Q1235.7188,526.8066 1236.2656,527.166 Z " fill="#000000"/><text fill="#000000" font-family="sans-serif" font-size="12" font-style="italic" lengthAdjust="spacing" textLength="83" x="1266.5" y="526.9492">&#171;Repositories&#187;</text><text fill="#000000" font-family="sans-serif" font-size="14" lengthAdjust="spacing" textLength="121" x="1247.5" y="545.0684">TeacherRepository</text><line style="stroke:#181818;stroke-width:0.5;" x1="1219.5" x2="1370.5" y1="553.582" y2="553.582"/><line style="stroke:#181818;stroke-width:0.5;" x1="1219.5" x2="1370.5" y1="561.582" y2="561.582"/></g><!--link SetCourseTeacherUI to Course--><g id="link_SetCourseTeacherUI_Course"><path codeLine="35" d="M728.89,78.55 C672.17,100.79 595.46,132.45 530,165 C414.44,222.46 384.55,236.74 279,311 C259.35,324.82 238.89,341.49 221.36,356.55 " fill="none" id="SetCourseTeacherUI-to-Course" style="stroke:#181818;stroke-width:1.0;stroke-dasharray:7.0,7.0;"/><polygon fill="#181818" points="217.43,359.94,226.8612,357.1023,221.2202,356.679,221.6436,351.038,217.43,359.94" style="stroke:#181818;stroke-width:1.0;"/></g><!--link ListCourseService to CourseRepository--><g id="link_ListCourseService_CourseRepository"><path codeLine="36" d="M576.07,439.31 C557.76,457.1 536.03,478.22 517.33,496.39 " fill="none" id="ListCourseService-to-CourseRepository" style="stroke:#181818;stroke-width:1.0;stroke-dasharray:7.0,7.0;"/><polygon fill="#181818" points="513.63,499.98,522.8715,496.5748,517.2152,496.4948,517.2952,490.8385,513.63,499.98" style="stroke:#181818;stroke-width:1.0;"/></g><!--link SetCourseTeacherUI to Teacher--><g id="link_SetCourseTeacherUI_Teacher"><path codeLine="37" d="M893,50.2 C1045.43,60.17 1369.99,105.74 1514,311 C1524.52,325.99 1525.35,346.26 1523.29,363.52 " fill="none" id="SetCourseTeacherUI-to-Teacher" style="stroke:#181818;stroke-width:1.0;stroke-dasharray:7.0,7.0;"/><polygon fill="#181818" points="1522.57,368.77,1527.7688,360.405,1523.2571,363.8174,1519.8447,359.3057,1522.57,368.77" style="stroke:#181818;stroke-width:1.0;"/></g><!--link ListTeacherService to TeacherRepository--><g id="link_ListTeacherService_TeacherRepository"><path codeLine="38" d="M1122.17,439.12 C1158.93,460.26 1203.96,486.15 1238.84,506.21 " fill="none" id="ListTeacherService-to-TeacherRepository" style="stroke:#181818;stroke-width:1.0;stroke-dasharray:7.0,7.0;"/><polygon fill="#181818" points="1243.47,508.87,1237.646,500.9277,1239.1305,506.3862,1233.672,507.8708,1243.47,508.87" style="stroke:#181818;stroke-width:1.0;"/></g><!--link SetCourseTeacherUI to SetCourseTeacherController--><g id="link_SetCourseTeacherUI_SetCourseTeacherController"><path codeLine="42" d="M811,86.23 C811,107.79 811,135.14 811,159.64 " fill="none" id="SetCourseTeacherUI-to-SetCourseTeacherController" style="stroke:#181818;stroke-width:1.0;"/><polygon fill="#181818" points="811,164.82,815,155.82,811,159.82,807,155.82,811,164.82" style="stroke:#181818;stroke-width:1.0;"/><text fill="#000000" font-family="sans-serif" font-size="13" lengthAdjust="spacing" textLength="73" x="812" y="131.0283">theController</text></g><!--link SetCourseTeacherController to CourseRepository--><g id="link_SetCourseTeacherController_CourseRepository"><path codeLine="43" d="M547.35,270.69 C501.63,290.75 459.64,319.32 431,360 C402.69,400.2 424.1,456.75 445.6,495.36 " fill="none" id="SetCourseTeacherController-to-CourseRepository" style="stroke:#181818;stroke-width:1.0;"/><polygon fill="#181818" points="448.21,499.97,447.2351,490.1695,445.737,495.6244,440.2821,494.1263,448.21,499.97" style="stroke:#181818;stroke-width:1.0;"/><text fill="#000000" font-family="sans-serif" font-size="13" lengthAdjust="spacing" textLength="25" x="432" y="405.0283">repo</text></g><!--link SetCourseTeacherController to TeacherRepository--><g id="link_SetCourseTeacherController_TeacherRepository"><path codeLine="44" d="M1074.56,261.66 C1187.8,283.74 1302,316.07 1336,360 C1368.54,402.04 1341.08,465.31 1318.12,504.15 " fill="none" id="SetCourseTeacherController-to-TeacherRepository" style="stroke:#181818;stroke-width:1.0;"/><polygon fill="#181818" points="1315.35,508.76,1323.4188,503.1124,1317.9288,504.4763,1316.5649,498.9864,1315.35,508.76" style="stroke:#181818;stroke-width:1.0;"/><text fill="#000000" font-family="sans-serif" font-size="13" lengthAdjust="spacing" textLength="25" x="1351" y="405.0283">repo</text></g><!--link SetCourseTeacherController to ListCourseService--><g id="link_SetCourseTeacherController_ListCourseService"><path codeLine="45" d="M747.15,281.14 C719.74,305.67 688.28,333.82 663.04,356.4 " fill="none" id="SetCourseTeacherController-to-ListCourseService" style="stroke:#181818;stroke-width:1.0;"/><polygon fill="#181818" points="659.05,359.98,668.4277,356.9703,662.7799,356.6502,663.1001,351.0024,659.05,359.98" style="stroke:#181818;stroke-width:1.0;"/><text fill="#000000" font-family="sans-serif" font-size="13" lengthAdjust="spacing" textLength="40" x="715" y="326.0283">service</text></g><!--link SetCourseTeacherController to ListTeacherService--><g id="link_SetCourseTeacherController_ListTeacherService"><path codeLine="46" d="M890.89,281.14 C925.48,305.87 965.21,334.28 996.91,356.96 " fill="none" id="SetCourseTeacherController-to-ListTeacherService" style="stroke:#181818;stroke-width:1.0;"/><polygon fill="#181818" points="1001.13,359.98,996.1201,351.5006,997.0575,357.0792,991.4788,358.0166,1001.13,359.98" style="stroke:#181818;stroke-width:1.0;"/><text fill="#000000" font-family="sans-serif" font-size="13" lengthAdjust="spacing" textLength="40" x="956" y="326.0283">service</text></g><!--link SetCourseTeacherController to Course--><g id="link_SetCourseTeacherController_Course"><path codeLine="47" d="M547.33,254.2 C474.28,267.13 395.88,285.39 326,311 C294.41,322.58 261.81,340.58 235.02,357.25 " fill="none" id="SetCourseTeacherController-to-Course" style="stroke:#181818;stroke-width:1.0;"/><polygon fill="#181818" points="230.77,359.91,240.5186,358.5084,235.0036,357.2497,236.2622,351.7347,230.77,359.91" style="stroke:#181818;stroke-width:1.0;"/><text fill="#000000" font-family="sans-serif" font-size="13" lengthAdjust="spacing" textLength="59" x="327" y="326.0283">theCourse</text></g><!--link SetCourseTeacherController to Teacher--><g id="link_SetCourseTeacherController_Teacher"><path codeLine="48" d="M1074.51,248.47 C1205.5,263.41 1348.34,284.71 1408,311 C1436.62,323.61 1463.82,346.06 1483.64,365.05 " fill="none" id="SetCourseTeacherController-to-Teacher" style="stroke:#181818;stroke-width:1.0;"/><polygon fill="#181818" points="1487.51,368.8,1483.8448,359.6585,1483.9248,365.3148,1478.2685,365.3948,1487.51,368.8" style="stroke:#181818;stroke-width:1.0;"/><text fill="#000000" font-family="sans-serif" font-size="13" lengthAdjust="spacing" textLength="64" x="1441" y="326.0283">theTeacher</text></g><!--SRC=[fLDDQyCm3BtxL_YsZgv_e9J0I2-5qSFQiSFOmOl5Ol2YO7aPO-o_pukLflaW3JINMFPxJzApV9DQHGGail-_F81FyTCH745bERYddTniIWS4XLVUO94ayaV8y6ayvFYrk1M_WhcH6F1R_52cHIuhD5eghLdpY16vu5Zwl4btfjOSTkHEf_qwKooyGsjhmdrPMfDrortkF3ZrPc4JUObKriObxT6d5WbqwAQBPVKQp6jwpd6BWLB7nzmGTyFjXsRYYhLucte53-1tSjAE1qCiS01NcGokxBCZpEdcAb_dIczU7g54CXxTTyXx2WnGcxYnK5MJUbpAf600tsoXX493aOKzCJBmgnUjA0VzkaguHZ5qVmXgyruIvLqnOlq8x4mt5BzNbNclBsOqIw1DF8rrzAs9nGHqDT9NuBiGNA8Dxs4URsZoEZoRUZM7sdDoDfSdQjtErCm68wMvp3y0]--></g></svg>