<?xml version="1.0" encoding="us-ascii" standalone="no"?><svg xmlns="http://www.w3.org/2000/svg" xmlns:xlink="http://www.w3.org/1999/xlink" contentStyleType="text/css" height="486px" preserveAspectRatio="none" style="width:1042px;height:486px;background:#FFFFFF;" version="1.1" viewBox="0 0 1042 486" width="1042px" zoomAndPan="magnify"><defs/><g><text fill="#000000" font-family="sans-serif" font-size="25" font-weight="bold" lengthAdjust="spacing" text-decoration="underline" textLength="422" x="303" y="36.9775">Classes de Dom&#237;nio para a US 1005</text><!--cluster <<aggregate>> Course--><g id="cluster_&lt;&lt;aggregate&gt;&gt; Course"><path d="M8.5,60.2656 L152.5,60.2656 A3.75,3.75 0 0 1 155,62.7656 L162,84.8867 L843.5,84.8867 A2.5,2.5 0 0 1 846,87.3867 L846,361.2656 A2.5,2.5 0 0 1 843.5,363.7656 L8.5,363.7656 A2.5,2.5 0 0 1 6,361.2656 L6,62.7656 A2.5,2.5 0 0 1 8.5,60.2656 " fill="none" style="stroke:#000000;stroke-width:1.5;"/><line style="stroke:#000000;stroke-width:1.5;" x1="6" x2="162" y1="84.8867" y2="84.8867"/><text fill="#000000" font-family="sans-serif" font-size="14" font-weight="bold" lengthAdjust="spacing" textLength="143" x="10" y="77.373">&#171;aggregate&#187; Course</text></g><!--cluster <<aggregate>> Teacher--><g id="cluster_&lt;&lt;aggregate&gt;&gt; Teacher"><path d="M872.5,231.2656 L1022.5,231.2656 A3.75,3.75 0 0 1 1025,233.7656 L1032,255.8867 L1032.5,255.8867 A2.5,2.5 0 0 1 1035,258.3867 L1035,477.2656 A2.5,2.5 0 0 1 1032.5,479.7656 L872.5,479.7656 A2.5,2.5 0 0 1 870,477.2656 L870,233.7656 A2.5,2.5 0 0 1 872.5,231.2656 " fill="none" style="stroke:#000000;stroke-width:1.5;"/><line style="stroke:#000000;stroke-width:1.5;" x1="870" x2="1032" y1="255.8867" y2="255.8867"/><text fill="#000000" font-family="sans-serif" font-size="14" font-weight="bold" lengthAdjust="spacing" textLength="149" x="874" y="248.373">&#171;aggregate&#187; Teacher</text></g><!--class Course--><g id="elem_Course"><rect codeLine="12" fill="#F1F1F1" height="68.543" id="Course" rx="2.5" ry="2.5" style="stroke:#181818;stroke-width:0.5;" width="78" x="519" y="97.2656"/><ellipse cx="534" cy="127.5371" fill="#ADD1B2" rx="11" ry="11" style="stroke:#181818;stroke-width:1.0;"/><path d="M532.8594,128.334 L532.8594,130.834 L537.1875,130.834 L537.1875,129.9121 Q537.1875,129.3027 537.4219,129.0371 Q537.6719,128.7715 538.0469,128.7715 Q538.4219,128.7715 538.6563,129.0371 Q538.8906,129.3027 538.8906,129.9121 L538.8906,132.5371 L530.8906,132.5371 Q530.2656,132.5371 530,132.3027 Q529.75,132.0684 529.75,131.6777 Q529.75,131.3027 530.0156,131.0684 Q530.2813,130.834 530.8906,130.834 L531.1563,130.834 L531.1563,124.1777 L530.8906,124.1777 Q530.2656,124.1777 530,123.9434 Q529.75,123.709 529.75,123.3184 Q529.75,122.9434 530,122.709 Q530.2656,122.4746 530.8906,122.4746 L538.5156,122.4746 L538.5156,125.0684 Q538.5156,125.6777 538.2813,125.9434 Q538.0625,126.1934 537.6719,126.1934 Q537.2969,126.1934 537.0625,125.9434 Q536.8281,125.6777 536.8281,125.0684 L536.8281,124.1777 L532.8594,124.1777 L532.8594,126.6309 L534.3438,126.6309 Q534.3438,125.9746 534.4688,125.7871 Q534.7344,125.3809 535.2031,125.3809 Q535.5781,125.3809 535.8125,125.6465 Q536.0469,125.8965 536.0469,126.5059 L536.0469,128.4746 Q536.0469,129.0215 535.9219,129.209 Q535.6563,129.5996 535.2031,129.5996 Q534.7344,129.5996 534.4688,129.1934 Q534.3438,129.0059 534.3438,128.334 L532.8594,128.334 Z " fill="#000000"/><text fill="#000000" font-family="sans-serif" font-size="12" font-style="italic" lengthAdjust="spacing" textLength="43" x="549.5" y="115.2148">&#171;entity&#187;</text><text fill="#000000" font-family="sans-serif" font-size="12" font-style="italic" lengthAdjust="spacing" textLength="35" x="553.5" y="131.1758">&#171;root&#187;</text><text fill="#000000" font-family="sans-serif" font-size="14" lengthAdjust="spacing" textLength="46" x="548" y="149.2949">Course</text><line style="stroke:#181818;stroke-width:0.5;" x1="520" x2="596" y1="157.8086" y2="157.8086"/></g><!--class CourseTitle--><g id="elem_CourseTitle"><rect codeLine="13" fill="#F1F1F1" height="52.582" id="CourseTitle" rx="2.5" ry="2.5" style="stroke:#181818;stroke-width:0.5;" width="109" x="22.5" y="276.2656"/><ellipse cx="37.5" cy="298.5566" fill="#FF8B40" rx="11" ry="11" style="stroke:#181818;stroke-width:1.0;"/><path d="M38.0938,301.8223 L40.5625,295.9473 L40.1719,295.9473 Q39.5625,295.9473 39.2969,295.7129 Q39.0313,295.4785 39.0313,295.0879 Q39.0313,294.7129 39.2969,294.4785 Q39.5625,294.2441 40.1719,294.2441 L42.4531,294.2441 Q43.0625,294.2441 43.3281,294.4785 Q43.5938,294.7129 43.5938,295.0879 Q43.5938,295.5566 43.1875,295.8223 Q43,295.9473 42.4063,295.9473 L38.9219,304.3066 L37.2813,304.3066 L33.7969,295.9473 Q33.2031,295.9473 33.0156,295.8223 Q32.6094,295.5566 32.6094,295.0879 Q32.6094,294.7129 32.875,294.4785 Q33.1406,294.2441 33.75,294.2441 L36.0469,294.2441 Q36.6563,294.2441 36.9063,294.4785 Q37.1719,294.7129 37.1719,295.0879 Q37.1719,295.4785 36.9063,295.7129 Q36.6563,295.9473 36.0469,295.9473 L35.6406,295.9473 L38.0938,301.8223 Z " fill="#000000"/><text fill="#000000" font-family="sans-serif" font-size="12" font-style="italic" lengthAdjust="spacing" textLength="81" x="49.5" y="294.2148">&#171;value object&#187;</text><text fill="#000000" font-family="sans-serif" font-size="14" lengthAdjust="spacing" textLength="73" x="53.5" y="312.334">CourseTitle</text><line style="stroke:#181818;stroke-width:0.5;" x1="23.5" x2="130.5" y1="320.8477" y2="320.8477"/></g><!--class CourseCode--><g id="elem_CourseCode"><rect codeLine="14" fill="#F1F1F1" height="52.582" id="CourseCode" rx="2.5" ry="2.5" style="stroke:#181818;stroke-width:0.5;" width="112" x="167" y="276.2656"/><ellipse cx="182" cy="298.5566" fill="#FF8B40" rx="11" ry="11" style="stroke:#181818;stroke-width:1.0;"/><path d="M182.5938,301.8223 L185.0625,295.9473 L184.6719,295.9473 Q184.0625,295.9473 183.7969,295.7129 Q183.5313,295.4785 183.5313,295.0879 Q183.5313,294.7129 183.7969,294.4785 Q184.0625,294.2441 184.6719,294.2441 L186.9531,294.2441 Q187.5625,294.2441 187.8281,294.4785 Q188.0938,294.7129 188.0938,295.0879 Q188.0938,295.5566 187.6875,295.8223 Q187.5,295.9473 186.9063,295.9473 L183.4219,304.3066 L181.7813,304.3066 L178.2969,295.9473 Q177.7031,295.9473 177.5156,295.8223 Q177.1094,295.5566 177.1094,295.0879 Q177.1094,294.7129 177.375,294.4785 Q177.6406,294.2441 178.25,294.2441 L180.5469,294.2441 Q181.1563,294.2441 181.4063,294.4785 Q181.6719,294.7129 181.6719,295.0879 Q181.6719,295.4785 181.4063,295.7129 Q181.1563,295.9473 180.5469,295.9473 L180.1406,295.9473 L182.5938,301.8223 Z " fill="#000000"/><text fill="#000000" font-family="sans-serif" font-size="12" font-style="italic" lengthAdjust="spacing" textLength="81" x="195.5" y="294.2148">&#171;value object&#187;</text><text fill="#000000" font-family="sans-serif" font-size="14" lengthAdjust="spacing" textLength="80" x="196" y="312.334">CourseCode</text><line style="stroke:#181818;stroke-width:0.5;" x1="168" x2="278" y1="320.8477" y2="320.8477"/></g><!--class CourseDescription--><g id="elem_CourseDescription"><rect codeLine="15" fill="#F1F1F1" height="52.582" id="CourseDescription" rx="2.5" ry="2.5" style="stroke:#181818;stroke-width:0.5;" width="149" x="314.5" y="276.2656"/><ellipse cx="329.5" cy="298.5566" fill="#FF8B40" rx="11" ry="11" style="stroke:#181818;stroke-width:1.0;"/><path d="M330.0938,301.8223 L332.5625,295.9473 L332.1719,295.9473 Q331.5625,295.9473 331.2969,295.7129 Q331.0313,295.4785 331.0313,295.0879 Q331.0313,294.7129 331.2969,294.4785 Q331.5625,294.2441 332.1719,294.2441 L334.4531,294.2441 Q335.0625,294.2441 335.3281,294.4785 Q335.5938,294.7129 335.5938,295.0879 Q335.5938,295.5566 335.1875,295.8223 Q335,295.9473 334.4063,295.9473 L330.9219,304.3066 L329.2813,304.3066 L325.7969,295.9473 Q325.2031,295.9473 325.0156,295.8223 Q324.6094,295.5566 324.6094,295.0879 Q324.6094,294.7129 324.875,294.4785 Q325.1406,294.2441 325.75,294.2441 L328.0469,294.2441 Q328.6563,294.2441 328.9063,294.4785 Q329.1719,294.7129 329.1719,295.0879 Q329.1719,295.4785 328.9063,295.7129 Q328.6563,295.9473 328.0469,295.9473 L327.6406,295.9473 L330.0938,301.8223 Z " fill="#000000"/><text fill="#000000" font-family="sans-serif" font-size="12" font-style="italic" lengthAdjust="spacing" textLength="81" x="361.5" y="294.2148">&#171;value object&#187;</text><text fill="#000000" font-family="sans-serif" font-size="14" lengthAdjust="spacing" textLength="117" x="343.5" y="312.334">CourseDescription</text><line style="stroke:#181818;stroke-width:0.5;" x1="315.5" x2="462.5" y1="320.8477" y2="320.8477"/></g><!--class CourseStatus--><g id="elem_CourseStatus"><rect codeLine="16" fill="#F1F1F1" height="52.582" id="CourseStatus" rx="2.5" ry="2.5" style="stroke:#181818;stroke-width:0.5;" width="118" x="499" y="276.2656"/><ellipse cx="514" cy="298.5566" fill="#FF8B40" rx="11" ry="11" style="stroke:#181818;stroke-width:1.0;"/><path d="M514.5938,301.8223 L517.0625,295.9473 L516.6719,295.9473 Q516.0625,295.9473 515.7969,295.7129 Q515.5313,295.4785 515.5313,295.0879 Q515.5313,294.7129 515.7969,294.4785 Q516.0625,294.2441 516.6719,294.2441 L518.9531,294.2441 Q519.5625,294.2441 519.8281,294.4785 Q520.0938,294.7129 520.0938,295.0879 Q520.0938,295.5566 519.6875,295.8223 Q519.5,295.9473 518.9063,295.9473 L515.4219,304.3066 L513.7813,304.3066 L510.2969,295.9473 Q509.7031,295.9473 509.5156,295.8223 Q509.1094,295.5566 509.1094,295.0879 Q509.1094,294.7129 509.375,294.4785 Q509.6406,294.2441 510.25,294.2441 L512.5469,294.2441 Q513.1563,294.2441 513.4063,294.4785 Q513.6719,294.7129 513.6719,295.0879 Q513.6719,295.4785 513.4063,295.7129 Q513.1563,295.9473 512.5469,295.9473 L512.1406,295.9473 L514.5938,301.8223 Z " fill="#000000"/><text fill="#000000" font-family="sans-serif" font-size="12" font-style="italic" lengthAdjust="spacing" textLength="81" x="530.5" y="294.2148">&#171;value object&#187;</text><text fill="#000000" font-family="sans-serif" font-size="14" lengthAdjust="spacing" textLength="86" x="528" y="312.334">CourseStatus</text><line style="stroke:#181818;stroke-width:0.5;" x1="500" x2="616" y1="320.8477" y2="320.8477"/></g><!--class CourseEnrolmentLimits--><g id="elem_CourseEnrolmentLimits"><rect codeLine="17" fill="#F1F1F1" height="89.8242" id="CourseEnrolmentLimits" rx="2.5" ry="2.5" style="stroke:#181818;stroke-width:0.5;" width="178" x="652" y="257.7656"/><ellipse cx="667" cy="280.0566" fill="#FF8B40" rx="11" ry="11" style="stroke:#181818;stroke-width:1.0;"/><path d="M667.5938,283.3223 L670.0625,277.4473 L669.6719,277.4473 Q669.0625,277.4473 668.7969,277.2129 Q668.5313,276.9785 668.5313,276.5879 Q668.5313,276.2129 668.7969,275.9785 Q669.0625,275.7441 669.6719,275.7441 L671.9531,275.7441 Q672.5625,275.7441 672.8281,275.9785 Q673.0938,276.2129 673.0938,276.5879 Q673.0938,277.0566 672.6875,277.3223 Q672.5,277.4473 671.9063,277.4473 L668.4219,285.8066 L666.7813,285.8066 L663.2969,277.4473 Q662.7031,277.4473 662.5156,277.3223 Q662.1094,277.0566 662.1094,276.5879 Q662.1094,276.2129 662.375,275.9785 Q662.6406,275.7441 663.25,275.7441 L665.5469,275.7441 Q666.1563,275.7441 666.4063,275.9785 Q666.6719,276.2129 666.6719,276.5879 Q666.6719,276.9785 666.4063,277.2129 Q666.1563,277.4473 665.5469,277.4473 L665.1406,277.4473 L667.5938,283.3223 Z " fill="#000000"/><text fill="#000000" font-family="sans-serif" font-size="12" font-style="italic" lengthAdjust="spacing" textLength="81" x="713.5" y="275.7148">&#171;value object&#187;</text><text fill="#000000" font-family="sans-serif" font-size="14" lengthAdjust="spacing" textLength="146" x="681" y="293.834">CourseEnrolmentLimits</text><line style="stroke:#181818;stroke-width:0.5;" x1="653" x2="829" y1="302.3477" y2="302.3477"/><text fill="#000000" font-family="sans-serif" font-size="14" lengthAdjust="spacing" textLength="119" x="658" y="321.4551">minimumEnrolment</text><text fill="#000000" font-family="sans-serif" font-size="14" lengthAdjust="spacing" textLength="122" x="658" y="340.0762">maximumEnrolment</text></g><!--class Teacher--><g id="elem_Teacher"><rect codeLine="25" fill="#F1F1F1" height="68.543" id="Teacher" rx="2.5" ry="2.5" style="stroke:#181818;stroke-width:0.5;" width="85" x="886.5" y="268.2656"/><ellipse cx="901.5" cy="298.5371" fill="#ADD1B2" rx="11" ry="11" style="stroke:#181818;stroke-width:1.0;"/><path d="M900.3594,299.334 L900.3594,301.834 L904.6875,301.834 L904.6875,300.9121 Q904.6875,300.3027 904.9219,300.0371 Q905.1719,299.7715 905.5469,299.7715 Q905.9219,299.7715 906.1563,300.0371 Q906.3906,300.3027 906.3906,300.9121 L906.3906,303.5371 L898.3906,303.5371 Q897.7656,303.5371 897.5,303.3027 Q897.25,303.0684 897.25,302.6777 Q897.25,302.3027 897.5156,302.0684 Q897.7813,301.834 898.3906,301.834 L898.6563,301.834 L898.6563,295.1777 L898.3906,295.1777 Q897.7656,295.1777 897.5,294.9434 Q897.25,294.709 897.25,294.3184 Q897.25,293.9434 897.5,293.709 Q897.7656,293.4746 898.3906,293.4746 L906.0156,293.4746 L906.0156,296.0684 Q906.0156,296.6777 905.7813,296.9434 Q905.5625,297.1934 905.1719,297.1934 Q904.7969,297.1934 904.5625,296.9434 Q904.3281,296.6777 904.3281,296.0684 L904.3281,295.1777 L900.3594,295.1777 L900.3594,297.6309 L901.8438,297.6309 Q901.8438,296.9746 901.9688,296.7871 Q902.2344,296.3809 902.7031,296.3809 Q903.0781,296.3809 903.3125,296.6465 Q903.5469,296.8965 903.5469,297.5059 L903.5469,299.4746 Q903.5469,300.0215 903.4219,300.209 Q903.1563,300.5996 902.7031,300.5996 Q902.2344,300.5996 901.9688,300.1934 Q901.8438,300.0059 901.8438,299.334 L900.3594,299.334 Z " fill="#000000"/><text fill="#000000" font-family="sans-serif" font-size="12" font-style="italic" lengthAdjust="spacing" textLength="43" x="920.5" y="286.2148">&#171;entity&#187;</text><text fill="#000000" font-family="sans-serif" font-size="12" font-style="italic" lengthAdjust="spacing" textLength="35" x="924.5" y="302.1758">&#171;root&#187;</text><text fill="#000000" font-family="sans-serif" font-size="14" lengthAdjust="spacing" textLength="53" x="915.5" y="320.2949">Teacher</text><line style="stroke:#181818;stroke-width:0.5;" x1="887.5" x2="970.5" y1="328.8086" y2="328.8086"/></g><!--class Acronym--><g id="elem_Acronym"><rect codeLine="26" fill="#F1F1F1" height="52.582" id="Acronym" rx="2.5" ry="2.5" style="stroke:#181818;stroke-width:0.5;" width="109" x="886.5" y="410.7656"/><ellipse cx="901.5" cy="433.0566" fill="#FF8B40" rx="11" ry="11" style="stroke:#181818;stroke-width:1.0;"/><path d="M902.0938,436.3223 L904.5625,430.4473 L904.1719,430.4473 Q903.5625,430.4473 903.2969,430.2129 Q903.0313,429.9785 903.0313,429.5879 Q903.0313,429.2129 903.2969,428.9785 Q903.5625,428.7441 904.1719,428.7441 L906.4531,428.7441 Q907.0625,428.7441 907.3281,428.9785 Q907.5938,429.2129 907.5938,429.5879 Q907.5938,430.0566 907.1875,430.3223 Q907,430.4473 906.4063,430.4473 L902.9219,438.8066 L901.2813,438.8066 L897.7969,430.4473 Q897.2031,430.4473 897.0156,430.3223 Q896.6094,430.0566 896.6094,429.5879 Q896.6094,429.2129 896.875,428.9785 Q897.1406,428.7441 897.75,428.7441 L900.0469,428.7441 Q900.6563,428.7441 900.9063,428.9785 Q901.1719,429.2129 901.1719,429.5879 Q901.1719,429.9785 900.9063,430.2129 Q900.6563,430.4473 900.0469,430.4473 L899.6406,430.4473 L902.0938,436.3223 Z " fill="#000000"/><text fill="#000000" font-family="sans-serif" font-size="12" font-style="italic" lengthAdjust="spacing" textLength="81" x="913.5" y="428.7148">&#171;value object&#187;</text><text fill="#000000" font-family="sans-serif" font-size="14" lengthAdjust="spacing" textLength="55" x="926.5" y="446.834">Acronym</text><line style="stroke:#181818;stroke-width:0.5;" x1="887.5" x2="994.5" y1="455.3477" y2="455.3477"/></g><!--link Teacher to Acronym--><g id="link_Teacher_Acronym"><path codeLine="29" d="M932.06,337.5456 C933.95,358.4656 936.37,385.1256 938.21,405.4656 " fill="none" id="Teacher-to-Acronym" style="stroke:#181818;stroke-width:1.0;"/><polygon fill="#181818" points="938.67,410.4956,941.8315,401.168,938.2135,405.5165,933.8649,401.8985,938.67,410.4956" style="stroke:#181818;stroke-width:1.0;"/></g><!--link Course to CourseTitle--><g id="link_Course_CourseTitle"><path codeLine="31" d="M518.86,133.7256 C442.64,137.1856 271.06,152.8656 149,223.2656 C128.33,235.1856 110.2,255.0456 97.3,271.7956 " fill="none" id="Course-to-CourseTitle" style="stroke:#181818;stroke-width:1.0;"/><polygon fill="#181818" points="94.14,275.9856,102.7591,271.2201,97.156,271.9977,96.3784,266.3945,94.14,275.9856" style="stroke:#181818;stroke-width:1.0;"/></g><!--link Course to CourseCode--><g id="link_Course_CourseCode"><path codeLine="32" d="M518.68,140.2256 C465.2,151.6856 368.07,177.2756 297,223.2656 C277,236.2056 258.6,255.6756 245.15,271.9856 " fill="none" id="Course-to-CourseCode" style="stroke:#181818;stroke-width:1.0;"/><polygon fill="#181818" points="241.84,276.0556,250.6179,271.5893,244.9913,272.1737,244.4069,266.5472,241.84,276.0556" style="stroke:#181818;stroke-width:1.0;"/></g><!--link Course to CourseDescription--><g id="link_Course_CourseDescription"><path codeLine="33" d="M524.21,166.5556 C493.32,197.4456 448.1,242.6656 418.61,272.1556 " fill="none" id="Course-to-CourseDescription" style="stroke:#181818;stroke-width:1.0;"/><polygon fill="#181818" points="414.73,276.0356,423.9224,272.5001,418.2655,272.5001,418.2655,266.8432,414.73,276.0356" style="stroke:#181818;stroke-width:1.0;"/></g><!--link Course to CourseStatus--><g id="link_Course_CourseStatus"><path codeLine="34" d="M558,166.5556 C558,196.9356 558,241.1856 558,270.6956 " fill="none" id="Course-to-CourseStatus" style="stroke:#181818;stroke-width:1.0;"/><polygon fill="#181818" points="558,276.0356,562,267.0356,558,271.0356,554,267.0356,558,276.0356" style="stroke:#181818;stroke-width:1.0;"/></g><!--link Course to CourseEnrolmentLimits--><g id="link_Course_CourseEnrolmentLimits"><path codeLine="35" d="M594.59,166.5556 C621.74,191.6356 659.13,226.1656 689.33,254.0456 " fill="none" id="Course-to-CourseEnrolmentLimits" style="stroke:#181818;stroke-width:1.0;"/><polygon fill="#181818" points="693.35,257.7656,689.4645,248.7156,689.6815,254.3683,684.0288,254.5853,693.35,257.7656" style="stroke:#181818;stroke-width:1.0;"/></g><!--link Course to Teacher--><g id="link_Course_Teacher"><path codeLine="36" d="M597.19,153.2056 C636.48,172.6756 699.26,201.0556 757,215.2656 C795.56,224.7556 809.8,206.9456 846,223.2656 C866.34,232.4356 884.82,248.6956 899.16,264.0556 " fill="none" id="Course-to-Teacher" style="stroke:#181818;stroke-width:1.0;"/><polygon fill="#181818" points="902.72,267.9356,899.5969,258.595,899.3453,264.2463,893.694,263.9946,902.72,267.9356" style="stroke:#181818;stroke-width:1.0;"/><polygon fill="#000000" points="766.6937,207.6342,759.2155,201.7583,757.1899,207.2761,766.6937,207.6342" style="stroke:#000000;stroke-width:1.0;"/><text fill="#000000" font-family="sans-serif" font-size="13" lengthAdjust="spacing" textLength="91" x="771" y="211.2939">has responsible</text><text fill="#000000" font-family="sans-serif" font-size="13" lengthAdjust="spacing" textLength="7" x="605.061" y="152.6887">1</text><text fill="#000000" font-family="sans-serif" font-size="13" lengthAdjust="spacing" textLength="7" x="890.2293" y="257.0439">1</text></g><!--link Course to Teacher--><g id="link_Course_Teacher"><path codeLine="37" d="M597.12,136.8256 C670.22,145.0356 824.02,165.5156 867,196.2656 C889.9,212.6556 905.71,240.3656 915.63,263.2656 " fill="none" id="Course-to-Teacher-1" style="stroke:#181818;stroke-width:1.0;"/><polygon fill="#181818" points="917.66,268.0756,917.8431,258.2285,915.7146,263.4696,910.4735,261.3411,917.66,268.0756" style="stroke:#181818;stroke-width:1.0;"/><polygon fill="#000000" points="895.6472,207.756,888.3247,201.6871,886.156,207.1502,895.6472,207.756" style="stroke:#000000;stroke-width:1.0;"/><text fill="#000000" font-family="sans-serif" font-size="13" lengthAdjust="spacing" textLength="50" x="900" y="211.2939">is taught</text><text fill="#000000" font-family="sans-serif" font-size="13" lengthAdjust="spacing" textLength="20" x="604.9485" y="133.3653">1..*</text><text fill="#000000" font-family="sans-serif" font-size="13" lengthAdjust="spacing" textLength="20" x="917.4046" y="256.9421">1..*</text></g><!--SRC=[bP9DJiCm48NtFiMeBFWHBGLH2I4hKccfXCIkmDvDHebfxOdi2L0GH-8KN0mdJMXLWgfwatZU-soFdvboO88PCPE1H3kCMPCLmi-rpPLJ1bZp0YTaUQhV4Iu6eYg0BABHGdcF7XA4CPdlBwi9IWOKF4xXlDyVoBCY4YBJmM6GCqhyni9nYG-PdPuLZ7SnsMg7lX278ogSHv6hUAvIX8wKAaqTfeenYc2bTk13G1Xemu6MTH6aNCs3JKf7n55KkQhDQjF3gW5vz7GA1vF9rSrb_nXUrA90eDbpk84MPaJ9liWOVUnqNjxddkIK5HT-J-ZMEbgOqFszDfftqFNTbSDegqrXVl6reDx-2f_YC-JpW2hEqFqNK2rl9LHNTqGqZ1tPfTdHV3X4irmteLVRZHfGYFebDFMDpDkbCjfsPIF1TiCgg7PjAu_6r3dlG3UOoc_JmZLaoeD3dvFrUXOUPxIszted3L7zhY7jWLMHPXpiFm00]--></g></svg>