<?xml version="1.0" encoding="us-ascii" standalone="no"?><svg xmlns="http://www.w3.org/2000/svg" xmlns:xlink="http://www.w3.org/1999/xlink" contentStyleType="text/css" height="1004px" preserveAspectRatio="none" style="width:1853px;height:1004px;background:#FFFFFF;" version="1.1" viewBox="0 0 1853 1004" width="1853px" zoomAndPan="magnify"><defs/><g><text fill="#000000" font-family="sans-serif" font-size="14" font-weight="bold" lengthAdjust="spacing" textLength="539" x="658.75" y="30.1074">Sequence Diagram 1 (SSD) - US 1005 - Set Responsible Teacher For A Course</text><rect fill="#FFFFFF" height="749.4023" style="stroke:#181818;stroke-width:1.0;" width="10" x="29" y="137.8633"/><rect fill="#FFFFFF" height="726.1113" style="stroke:#181818;stroke-width:1.0;" width="10" x="411" y="161.1543"/><rect fill="#FFFFFF" height="31.291" style="stroke:#181818;stroke-width:1.0;" width="10" x="829" y="286.3184"/><rect fill="#FFFFFF" height="31.291" style="stroke:#181818;stroke-width:1.0;" width="10" x="829" y="455.7734"/><rect fill="#FFFFFF" height="123.873" style="stroke:#181818;stroke-width:1.0;" width="10" x="829" y="732.1016"/><rect fill="#FFFFFF" height="30" style="stroke:#181818;stroke-width:1.0;" width="10" x="1347.5" y="763.3926"/><line style="stroke:#181818;stroke-width:0.5;stroke-dasharray:5.0,5.0;" x1="34" x2="34" y1="127.8633" y2="905.2656"/><line style="stroke:#181818;stroke-width:0.5;stroke-dasharray:5.0,5.0;" x1="416" x2="416" y1="127.8633" y2="905.2656"/><line style="stroke:#181818;stroke-width:0.5;stroke-dasharray:5.0,5.0;" x1="834" x2="834" y1="127.8633" y2="905.2656"/><line style="stroke:#181818;stroke-width:0.5;stroke-dasharray:5.0,5.0;" x1="1058.5" x2="1058.5" y1="127.8633" y2="905.2656"/><line style="stroke:#181818;stroke-width:0.5;stroke-dasharray:5.0,5.0;" x1="1205.5" x2="1205.5" y1="127.8633" y2="905.2656"/><line style="stroke:#181818;stroke-width:0.5;stroke-dasharray:5.0,5.0;" x1="1352.5" x2="1352.5" y1="127.8633" y2="905.2656"/><line style="stroke:#181818;stroke-width:0.5;stroke-dasharray:5.0,5.0;" x1="1503.5" x2="1503.5" y1="127.8633" y2="905.2656"/><line style="stroke:#181818;stroke-width:0.5;stroke-dasharray:5.0,5.0;" x1="1649.5" x2="1649.5" y1="127.8633" y2="905.2656"/><line style="stroke:#181818;stroke-width:0.5;stroke-dasharray:5.0,5.0;" x1="1786.5" x2="1786.5" y1="127.8633" y2="905.2656"/><text fill="#000000" font-family="sans-serif" font-size="14" lengthAdjust="spacing" textLength="52" x="5" y="124.3496">Gerente</text><ellipse cx="34" cy="57.7422" fill="#E3E3E3" rx="8" ry="8" style="stroke:#181818;stroke-width:0.5;"/><path d="M34,65.7422 L34,92.7422 M21,73.7422 L47,73.7422 M34,92.7422 L21,107.7422 M34,92.7422 L47,107.7422 " fill="none" style="stroke:#181818;stroke-width:0.5;"/><text fill="#000000" font-family="sans-serif" font-size="14" lengthAdjust="spacing" textLength="52" x="5" y="919.373">Gerente</text><ellipse cx="34" cy="931.3867" fill="#E3E3E3" rx="8" ry="8" style="stroke:#181818;stroke-width:0.5;"/><path d="M34,939.3867 L34,966.3867 M21,947.3867 L47,947.3867 M34,966.3867 L21,981.3867 M34,966.3867 L47,981.3867 " fill="none" style="stroke:#181818;stroke-width:0.5;"/><rect fill="#E3E3E3" height="51.2422" rx="2.5" ry="2.5" style="stroke:#181818;stroke-width:0.5;" width="228" x="302" y="75.6211"/><text fill="#000000" font-family="sans-serif" font-size="14" lengthAdjust="spacing" textLength="95" x="366.5" y="97.7285">&#171;presentation&#187;</text><text fill="#000000" font-family="sans-serif" font-size="14" lengthAdjust="spacing" textLength="210" x="313" y="116.3496">SetCourseResponsibleTeacherUI</text><rect fill="#E3E3E3" height="51.2422" rx="2.5" ry="2.5" style="stroke:#181818;stroke-width:0.5;" width="228" x="302" y="904.2656"/><text fill="#000000" font-family="sans-serif" font-size="14" lengthAdjust="spacing" textLength="95" x="366.5" y="926.373">&#171;presentation&#187;</text><text fill="#000000" font-family="sans-serif" font-size="14" lengthAdjust="spacing" textLength="210" x="313" y="944.9941">SetCourseResponsibleTeacherUI</text><text fill="#000000" font-family="sans-serif" font-size="14" lengthAdjust="spacing" textLength="84" x="787" y="105.7285">&#171;application&#187;</text><text fill="#000000" font-family="sans-serif" font-size="14" lengthAdjust="spacing" textLength="260" x="703" y="124.3496">SetCourseResponsibleTeacherController</text><ellipse cx="834" cy="74.6211" fill="#E3E3E3" rx="12" ry="12" style="stroke:#181818;stroke-width:0.5;"/><polygon fill="#181818" points="830,62.6211,836,57.6211,834,62.6211,836,67.6211,830,62.6211" style="stroke:#181818;stroke-width:1.0;"/><text fill="#000000" font-family="sans-serif" font-size="14" lengthAdjust="spacing" textLength="84" x="787" y="919.373">&#171;application&#187;</text><text fill="#000000" font-family="sans-serif" font-size="14" lengthAdjust="spacing" textLength="260" x="703" y="937.9941">SetCourseResponsibleTeacherController</text><ellipse cx="834" cy="957.5078" fill="#E3E3E3" rx="12" ry="12" style="stroke:#181818;stroke-width:0.5;"/><polygon fill="#181818" points="830,945.5078,836,940.5078,834,945.5078,836,950.5078,830,945.5078" style="stroke:#181818;stroke-width:1.0;"/><rect fill="#E3E3E3" height="51.2422" rx="2.5" ry="2.5" style="stroke:#181818;stroke-width:0.5;" width="133" x="992.5" y="75.6211"/><text fill="#000000" font-family="sans-serif" font-size="14" lengthAdjust="spacing" textLength="84" x="1015" y="97.7285">&#171;application&#187;</text><text fill="#000000" font-family="sans-serif" font-size="14" lengthAdjust="spacing" textLength="115" x="1003.5" y="116.3496">ListCourseService</text><rect fill="#E3E3E3" height="51.2422" rx="2.5" ry="2.5" style="stroke:#181818;stroke-width:0.5;" width="133" x="992.5" y="904.2656"/><text fill="#000000" font-family="sans-serif" font-size="14" lengthAdjust="spacing" textLength="84" x="1015" y="926.373">&#171;application&#187;</text><text fill="#000000" font-family="sans-serif" font-size="14" lengthAdjust="spacing" textLength="115" x="1003.5" y="944.9941">ListCourseService</text><rect fill="#E3E3E3" height="51.2422" rx="2.5" ry="2.5" style="stroke:#181818;stroke-width:0.5;" width="140" x="1135.5" y="75.6211"/><text fill="#000000" font-family="sans-serif" font-size="14" lengthAdjust="spacing" textLength="84" x="1161.5" y="97.7285">&#171;application&#187;</text><text fill="#000000" font-family="sans-serif" font-size="14" lengthAdjust="spacing" textLength="122" x="1146.5" y="116.3496">ListTeacherService</text><rect fill="#E3E3E3" height="51.2422" rx="2.5" ry="2.5" style="stroke:#181818;stroke-width:0.5;" width="140" x="1135.5" y="904.2656"/><text fill="#000000" font-family="sans-serif" font-size="14" lengthAdjust="spacing" textLength="84" x="1161.5" y="926.373">&#171;application&#187;</text><text fill="#000000" font-family="sans-serif" font-size="14" lengthAdjust="spacing" textLength="122" x="1146.5" y="944.9941">ListTeacherService</text><rect fill="#E3E3E3" height="51.2422" rx="2.5" ry="2.5" style="stroke:#181818;stroke-width:0.5;" width="134" x="1285.5" y="75.6211"/><text fill="#000000" font-family="sans-serif" font-size="14" lengthAdjust="spacing" textLength="62" x="1319.5" y="97.7285">&#171;domain&#187;</text><text fill="#000000" font-family="sans-serif" font-size="14" lengthAdjust="spacing" textLength="116" x="1296.5" y="116.3496">theCourse:Course</text><rect fill="#E3E3E3" height="51.2422" rx="2.5" ry="2.5" style="stroke:#181818;stroke-width:0.5;" width="134" x="1285.5" y="904.2656"/><text fill="#000000" font-family="sans-serif" font-size="14" lengthAdjust="spacing" textLength="62" x="1319.5" y="926.373">&#171;domain&#187;</text><text fill="#000000" font-family="sans-serif" font-size="14" lengthAdjust="spacing" textLength="116" x="1296.5" y="944.9941">theCourse:Course</text><rect fill="#E3E3E3" height="51.2422" rx="2.5" ry="2.5" style="stroke:#181818;stroke-width:0.5;" width="148" x="1429.5" y="75.6211"/><text fill="#000000" font-family="sans-serif" font-size="14" lengthAdjust="spacing" textLength="62" x="1470.5" y="97.7285">&#171;domain&#187;</text><text fill="#000000" font-family="sans-serif" font-size="14" lengthAdjust="spacing" textLength="130" x="1440.5" y="116.3496">theTeacher:Teacher</text><rect fill="#E3E3E3" height="51.2422" rx="2.5" ry="2.5" style="stroke:#181818;stroke-width:0.5;" width="148" x="1429.5" y="904.2656"/><text fill="#000000" font-family="sans-serif" font-size="14" lengthAdjust="spacing" textLength="62" x="1470.5" y="926.373">&#171;domain&#187;</text><text fill="#000000" font-family="sans-serif" font-size="14" lengthAdjust="spacing" textLength="130" x="1440.5" y="944.9941">theTeacher:Teacher</text><text fill="#000000" font-family="sans-serif" font-size="14" lengthAdjust="spacing" textLength="79" x="1605" y="105.7285">&#171;repository&#187;</text><text fill="#000000" font-family="sans-serif" font-size="14" lengthAdjust="spacing" textLength="114" x="1591.5" y="124.3496">CourseRepository</text><path d="M1631.5,54.6211 C1631.5,44.6211 1649.5,44.6211 1649.5,44.6211 C1649.5,44.6211 1667.5,44.6211 1667.5,54.6211 L1667.5,80.6211 C1667.5,90.6211 1649.5,90.6211 1649.5,90.6211 C1649.5,90.6211 1631.5,90.6211 1631.5,80.6211 L1631.5,54.6211 " fill="#E3E3E3" style="stroke:#181818;stroke-width:1.5;"/><path d="M1631.5,54.6211 C1631.5,64.6211 1649.5,64.6211 1649.5,64.6211 C1649.5,64.6211 1667.5,64.6211 1667.5,54.6211 " fill="none" style="stroke:#181818;stroke-width:1.5;"/><text fill="#000000" font-family="sans-serif" font-size="14" lengthAdjust="spacing" textLength="79" x="1605" y="919.373">&#171;repository&#187;</text><text fill="#000000" font-family="sans-serif" font-size="14" lengthAdjust="spacing" textLength="114" x="1591.5" y="937.9941">CourseRepository</text><path d="M1631.5,951.5078 C1631.5,941.5078 1649.5,941.5078 1649.5,941.5078 C1649.5,941.5078 1667.5,941.5078 1667.5,951.5078 L1667.5,977.5078 C1667.5,987.5078 1649.5,987.5078 1649.5,987.5078 C1649.5,987.5078 1631.5,987.5078 1631.5,977.5078 L1631.5,951.5078 " fill="#E3E3E3" style="stroke:#181818;stroke-width:1.5;"/><path d="M1631.5,951.5078 C1631.5,961.5078 1649.5,961.5078 1649.5,961.5078 C1649.5,961.5078 1667.5,961.5078 1667.5,951.5078 " fill="none" style="stroke:#181818;stroke-width:1.5;"/><text fill="#000000" font-family="sans-serif" font-size="14" lengthAdjust="spacing" textLength="79" x="1742.5" y="105.7285">&#171;repository&#187;</text><text fill="#000000" font-family="sans-serif" font-size="14" lengthAdjust="spacing" textLength="121" x="1725.5" y="124.3496">TeacherRepository</text><path d="M1769,54.6211 C1769,44.6211 1787,44.6211 1787,44.6211 C1787,44.6211 1805,44.6211 1805,54.6211 L1805,80.6211 C1805,90.6211 1787,90.6211 1787,90.6211 C1787,90.6211 1769,90.6211 1769,80.6211 L1769,54.6211 " fill="#E3E3E3" style="stroke:#181818;stroke-width:1.5;"/><path d="M1769,54.6211 C1769,64.6211 1787,64.6211 1787,64.6211 C1787,64.6211 1805,64.6211 1805,54.6211 " fill="none" style="stroke:#181818;stroke-width:1.5;"/><text fill="#000000" font-family="sans-serif" font-size="14" lengthAdjust="spacing" textLength="79" x="1742.5" y="919.373">&#171;repository&#187;</text><text fill="#000000" font-family="sans-serif" font-size="14" lengthAdjust="spacing" textLength="121" x="1725.5" y="937.9941">TeacherRepository</text><path d="M1769,951.5078 C1769,941.5078 1787,941.5078 1787,941.5078 C1787,941.5078 1805,941.5078 1805,951.5078 L1805,977.5078 C1805,987.5078 1787,987.5078 1787,987.5078 C1787,987.5078 1769,987.5078 1769,977.5078 L1769,951.5078 " fill="#E3E3E3" style="stroke:#181818;stroke-width:1.5;"/><path d="M1769,951.5078 C1769,961.5078 1787,961.5078 1787,961.5078 C1787,961.5078 1805,961.5078 1805,951.5078 " fill="none" style="stroke:#181818;stroke-width:1.5;"/><rect fill="#FFFFFF" height="749.4023" style="stroke:#181818;stroke-width:1.0;" width="10" x="29" y="137.8633"/><rect fill="#FFFFFF" height="726.1113" style="stroke:#181818;stroke-width:1.0;" width="10" x="411" y="161.1543"/><rect fill="#FFFFFF" height="31.291" style="stroke:#181818;stroke-width:1.0;" width="10" x="829" y="286.3184"/><rect fill="#FFFFFF" height="31.291" style="stroke:#181818;stroke-width:1.0;" width="10" x="829" y="455.7734"/><rect fill="#FFFFFF" height="123.873" style="stroke:#181818;stroke-width:1.0;" width="10" x="829" y="732.1016"/><rect fill="#FFFFFF" height="30" style="stroke:#181818;stroke-width:1.0;" width="10" x="1347.5" y="763.3926"/><polygon fill="#181818" points="399,157.1543,409,161.1543,399,165.1543,403,161.1543" style="stroke:#181818;stroke-width:1.0;"/><line style="stroke:#181818;stroke-width:1.0;" x1="39" x2="405" y1="161.1543" y2="161.1543"/><text fill="#000000" font-family="sans-serif" font-size="13" font-weight="bold" lengthAdjust="spacing" textLength="7" x="46" y="155.8916">1</text><text fill="#000000" font-family="sans-serif" font-size="13" lengthAdjust="spacing" textLength="342" x="57" y="155.8916">Pede para definir professor respons&#225;vel para uma disciplina</text><polygon fill="#181818" points="822,188.4453,832,192.4453,822,196.4453,826,192.4453" style="stroke:#181818;stroke-width:1.0;"/><line style="stroke:#181818;stroke-width:1.0;" x1="421" x2="828" y1="192.4453" y2="192.4453"/><text fill="#000000" font-family="sans-serif" font-size="13" font-weight="bold" lengthAdjust="spacing" textLength="7" x="428" y="187.1826">2</text><text fill="#000000" font-family="sans-serif" font-size="13" lengthAdjust="spacing" textLength="36" x="439" y="187.1826">create</text><polygon fill="#181818" points="1047,219.7363,1057,223.7363,1047,227.7363,1051,223.7363" style="stroke:#181818;stroke-width:1.0;"/><line style="stroke:#181818;stroke-width:1.0;" x1="834" x2="1053" y1="223.7363" y2="223.7363"/><text fill="#000000" font-family="sans-serif" font-size="13" font-weight="bold" lengthAdjust="spacing" textLength="7" x="841" y="218.4736">3</text><text fill="#000000" font-family="sans-serif" font-size="13" lengthAdjust="spacing" textLength="36" x="852" y="218.4736">create</text><polygon fill="#181818" points="1193.5,251.0273,1203.5,255.0273,1193.5,259.0273,1197.5,255.0273" style="stroke:#181818;stroke-width:1.0;"/><line style="stroke:#181818;stroke-width:1.0;" x1="834" x2="1199.5" y1="255.0273" y2="255.0273"/><text fill="#000000" font-family="sans-serif" font-size="13" font-weight="bold" lengthAdjust="spacing" textLength="7" x="841" y="249.7646">4</text><text fill="#000000" font-family="sans-serif" font-size="13" lengthAdjust="spacing" textLength="36" x="852" y="249.7646">create</text><polygon fill="#181818" points="817,282.3184,827,286.3184,817,290.3184,821,286.3184" style="stroke:#181818;stroke-width:1.0;"/><line style="stroke:#181818;stroke-width:1.0;" x1="421" x2="823" y1="286.3184" y2="286.3184"/><text fill="#000000" font-family="sans-serif" font-size="13" font-weight="bold" lengthAdjust="spacing" textLength="7" x="428" y="281.0557">5</text><text fill="#000000" font-family="sans-serif" font-size="13" lengthAdjust="spacing" textLength="378" x="439" y="281.0557">allCoursesWithoutResponsible = allCoursesWithoutResponsible()</text><polygon fill="#181818" points="1047,313.6094,1057,317.6094,1047,321.6094,1051,317.6094" style="stroke:#181818;stroke-width:1.0;"/><line style="stroke:#181818;stroke-width:1.0;" x1="834" x2="1053" y1="317.6094" y2="317.6094"/><text fill="#000000" font-family="sans-serif" font-size="13" font-weight="bold" lengthAdjust="spacing" textLength="7" x="841" y="312.3467">6</text><text fill="#000000" font-family="sans-serif" font-size="13" lengthAdjust="spacing" textLength="185" x="852" y="312.3467">allCoursesWithoutResponsible()</text><line style="stroke:#181818;stroke-width:1.0;" x1="421" x2="463" y1="348.9004" y2="348.9004"/><line style="stroke:#181818;stroke-width:1.0;" x1="463" x2="463" y1="348.9004" y2="361.9004"/><line style="stroke:#181818;stroke-width:1.0;" x1="422" x2="463" y1="361.9004" y2="361.9004"/><polygon fill="#181818" points="432,357.9004,422,361.9004,432,365.9004,428,361.9004" style="stroke:#181818;stroke-width:1.0;"/><text fill="#000000" font-family="sans-serif" font-size="13" font-weight="bold" lengthAdjust="spacing" textLength="7" x="428" y="343.6377">7</text><text fill="#000000" font-family="sans-serif" font-size="13" lengthAdjust="spacing" textLength="317" x="439" y="343.6377">Mostra todas as disciplinas sem professor respons&#225;vel</text><polygon fill="#181818" points="50,389.1914,40,393.1914,50,397.1914,46,393.1914" style="stroke:#181818;stroke-width:1.0;"/><line style="stroke:#181818;stroke-width:1.0;stroke-dasharray:2.0,2.0;" x1="44" x2="410" y1="393.1914" y2="393.1914"/><text fill="#000000" font-family="sans-serif" font-size="13" font-weight="bold" lengthAdjust="spacing" textLength="7" x="56" y="387.9287">8</text><text fill="#000000" font-family="sans-serif" font-size="13" lengthAdjust="spacing" textLength="199" x="67" y="387.9287">Pede para escolher uma disciplina</text><polygon fill="#181818" points="399,420.4824,409,424.4824,399,428.4824,403,424.4824" style="stroke:#181818;stroke-width:1.0;"/><line style="stroke:#181818;stroke-width:1.0;" x1="39" x2="405" y1="424.4824" y2="424.4824"/><text fill="#000000" font-family="sans-serif" font-size="13" font-weight="bold" lengthAdjust="spacing" textLength="7" x="46" y="419.2197">9</text><text fill="#000000" font-family="sans-serif" font-size="13" lengthAdjust="spacing" textLength="116" x="57" y="419.2197">Escolhe a disciplina</text><polygon fill="#181818" points="817,451.7734,827,455.7734,817,459.7734,821,455.7734" style="stroke:#181818;stroke-width:1.0;"/><line style="stroke:#181818;stroke-width:1.0;" x1="421" x2="823" y1="455.7734" y2="455.7734"/><text fill="#000000" font-family="sans-serif" font-size="13" font-weight="bold" lengthAdjust="spacing" textLength="14" x="428" y="450.5107">10</text><text fill="#000000" font-family="sans-serif" font-size="13" lengthAdjust="spacing" textLength="156" x="446" y="450.5107">allTeachers = allTeachers()</text><polygon fill="#181818" points="1193.5,483.0645,1203.5,487.0645,1193.5,491.0645,1197.5,487.0645" style="stroke:#181818;stroke-width:1.0;"/><line style="stroke:#181818;stroke-width:1.0;" x1="834" x2="1199.5" y1="487.0645" y2="487.0645"/><text fill="#000000" font-family="sans-serif" font-size="13" font-weight="bold" lengthAdjust="spacing" textLength="14" x="841" y="481.8018">11</text><text fill="#000000" font-family="sans-serif" font-size="13" lengthAdjust="spacing" textLength="74" x="859" y="481.8018">allTeachers()</text><line style="stroke:#181818;stroke-width:1.0;" x1="421" x2="463" y1="518.3555" y2="518.3555"/><line style="stroke:#181818;stroke-width:1.0;" x1="463" x2="463" y1="518.3555" y2="531.3555"/><line style="stroke:#181818;stroke-width:1.0;" x1="422" x2="463" y1="531.3555" y2="531.3555"/><polygon fill="#181818" points="432,527.3555,422,531.3555,432,535.3555,428,531.3555" style="stroke:#181818;stroke-width:1.0;"/><text fill="#000000" font-family="sans-serif" font-size="13" font-weight="bold" lengthAdjust="spacing" textLength="14" x="428" y="513.0928">12</text><text fill="#000000" font-family="sans-serif" font-size="13" lengthAdjust="spacing" textLength="168" x="446" y="513.0928">Mostra a lista de professores</text><polygon fill="#181818" points="50,558.6465,40,562.6465,50,566.6465,46,562.6465" style="stroke:#181818;stroke-width:1.0;"/><line style="stroke:#181818;stroke-width:1.0;stroke-dasharray:2.0,2.0;" x1="44" x2="410" y1="562.6465" y2="562.6465"/><text fill="#000000" font-family="sans-serif" font-size="13" font-weight="bold" lengthAdjust="spacing" textLength="14" x="56" y="557.3838">13</text><text fill="#000000" font-family="sans-serif" font-size="13" lengthAdjust="spacing" textLength="191" x="74" y="557.3838">Pede para escolher um professor</text><polygon fill="#181818" points="399,589.9375,409,593.9375,399,597.9375,403,593.9375" style="stroke:#181818;stroke-width:1.0;"/><line style="stroke:#181818;stroke-width:1.0;" x1="39" x2="405" y1="593.9375" y2="593.9375"/><text fill="#000000" font-family="sans-serif" font-size="13" font-weight="bold" lengthAdjust="spacing" textLength="14" x="46" y="588.6748">14</text><text fill="#000000" font-family="sans-serif" font-size="13" lengthAdjust="spacing" textLength="126" x="64" y="588.6748">Escolhe um professor</text><line style="stroke:#181818;stroke-width:1.0;" x1="421" x2="463" y1="625.2285" y2="625.2285"/><line style="stroke:#181818;stroke-width:1.0;" x1="463" x2="463" y1="625.2285" y2="638.2285"/><line style="stroke:#181818;stroke-width:1.0;" x1="422" x2="463" y1="638.2285" y2="638.2285"/><polygon fill="#181818" points="432,634.2285,422,638.2285,432,642.2285,428,638.2285" style="stroke:#181818;stroke-width:1.0;"/><text fill="#000000" font-family="sans-serif" font-size="13" font-weight="bold" lengthAdjust="spacing" textLength="14" x="428" y="619.9658">15</text><text fill="#000000" font-family="sans-serif" font-size="13" lengthAdjust="spacing" textLength="195" x="446" y="619.9658">Mostra a informa&#231;&#227;o a ser tratada</text><polygon fill="#181818" points="50,665.5195,40,669.5195,50,673.5195,46,669.5195" style="stroke:#181818;stroke-width:1.0;"/><line style="stroke:#181818;stroke-width:1.0;stroke-dasharray:2.0,2.0;" x1="44" x2="410" y1="669.5195" y2="669.5195"/><text fill="#000000" font-family="sans-serif" font-size="13" font-weight="bold" lengthAdjust="spacing" textLength="14" x="56" y="664.2568">16</text><text fill="#000000" font-family="sans-serif" font-size="13" lengthAdjust="spacing" textLength="104" x="74" y="664.2568">Pede confirma&#231;&#227;o</text><polygon fill="#181818" points="399,696.8105,409,700.8105,399,704.8105,403,700.8105" style="stroke:#181818;stroke-width:1.0;"/><line style="stroke:#181818;stroke-width:1.0;" x1="39" x2="405" y1="700.8105" y2="700.8105"/><text fill="#000000" font-family="sans-serif" font-size="13" font-weight="bold" lengthAdjust="spacing" textLength="14" x="46" y="695.5479">17</text><text fill="#000000" font-family="sans-serif" font-size="13" lengthAdjust="spacing" textLength="119" x="64" y="695.5479">Confirma a opera&#231;&#227;o</text><polygon fill="#181818" points="817,728.1016,827,732.1016,817,736.1016,821,732.1016" style="stroke:#181818;stroke-width:1.0;"/><line style="stroke:#181818;stroke-width:1.0;" x1="421" x2="823" y1="732.1016" y2="732.1016"/><text fill="#000000" font-family="sans-serif" font-size="13" font-weight="bold" lengthAdjust="spacing" textLength="14" x="428" y="726.8389">18</text><text fill="#000000" font-family="sans-serif" font-size="13" lengthAdjust="spacing" textLength="274" x="446" y="726.8389">setResponsibleTeacher(theCourse, theTeacher)</text><polygon fill="#181818" points="1335.5,759.3926,1345.5,763.3926,1335.5,767.3926,1339.5,763.3926" style="stroke:#181818;stroke-width:1.0;"/><line style="stroke:#181818;stroke-width:1.0;" x1="839" x2="1341.5" y1="763.3926" y2="763.3926"/><text fill="#000000" font-family="sans-serif" font-size="13" font-weight="bold" lengthAdjust="spacing" textLength="14" x="846" y="758.1299">19</text><text fill="#000000" font-family="sans-serif" font-size="13" lengthAdjust="spacing" textLength="207" x="864" y="758.1299">setResponsibleTeacher(theTeacher)</text><polygon fill="#181818" points="1637.5,820.6836,1647.5,824.6836,1637.5,828.6836,1641.5,824.6836" style="stroke:#181818;stroke-width:1.0;"/><line style="stroke:#181818;stroke-width:1.0;" x1="839" x2="1643.5" y1="824.6836" y2="824.6836"/><text fill="#000000" font-family="sans-serif" font-size="13" font-weight="bold" lengthAdjust="spacing" textLength="14" x="846" y="819.4209">20</text><text fill="#000000" font-family="sans-serif" font-size="13" lengthAdjust="spacing" textLength="93" x="864" y="819.4209">save(theCourse)</text><polygon fill="#181818" points="432,851.9746,422,855.9746,432,859.9746,428,855.9746" style="stroke:#181818;stroke-width:1.0;"/><line style="stroke:#181818;stroke-width:1.0;stroke-dasharray:2.0,2.0;" x1="426" x2="833" y1="855.9746" y2="855.9746"/><text fill="#000000" font-family="sans-serif" font-size="13" font-weight="bold" lengthAdjust="spacing" textLength="14" x="438" y="850.7119">21</text><text fill="#000000" font-family="sans-serif" font-size="13" lengthAdjust="spacing" textLength="59" x="456" y="850.7119">theCourse</text><polygon fill="#181818" points="45,883.2656,35,887.2656,45,891.2656,41,887.2656" style="stroke:#181818;stroke-width:1.0;"/><line style="stroke:#181818;stroke-width:1.0;stroke-dasharray:2.0,2.0;" x1="39" x2="415" y1="887.2656" y2="887.2656"/><text fill="#000000" font-family="sans-serif" font-size="13" font-weight="bold" lengthAdjust="spacing" textLength="14" x="51" y="882.0029">22</text><text fill="#000000" font-family="sans-serif" font-size="13" lengthAdjust="spacing" textLength="181" x="69" y="882.0029">Informa o sucesso da opera&#231;&#227;o</text><!--SRC=[fLNDQjmm4BxxAOQS4cWWEVGIqa3Pj2NGGgaRUkbbLfxT5P4bLvAtv75A3tsGl5Z7blodtNKshJ1OFpFVDvflF7OFKbTeiOJIQ2CsrfG4tjQKkVwaGl60QyhzeoAm93pgjHeRk0qMvgVKQrYXSfHbNdespUb7JLeGt4fSDtQNS9hdjsTm3lSvN5vSlEPPJXw-aAkCTdB9Jby9nOOil3SMtiB2r9O1iVP6r-MIR9QXy7nqye4iQKydW0xYFEDel1IoGktXvFgwikHu7xqq-kO6lkk6B22E62FX_LqBLSjC6EsjKGq2LfMIuZY0HN1JP5iWqI_Ji7P0FqeNKNEoMod2fLIoUHHCZ2N1cUwcG8KfKKOClw50UXLUyIgj2FDkaUCglbj77-PPWHwNwAXnirGP9rd2n-3QfRFR3Op3UjOvaYNUVkJTb8lSegU-I817dCFv3GiEL_2P2eAcbg6WbTJIGcNDYfpZIhD1wQTVMrB1fYxPJZfEXP8QMy2UXUi7uc1anX_gW7c49OmXD6DqnfQfu4VOJuKT7EPYGAK2ZVic_SRKVlprlPazFZthWViBZ-eSHkFPgnt9Kz0-fkH-hOQVZFCiZZS5bm0_Wq8E79K759r2CLPN6kEY82UCQffIedplczRJk-00-wttYnArT463RlK_AT-fZlsuBqunWk9MqtmhGrB9lJ2HW-kpMPmOpyObzShO4f_-FFqsl7JCn0SU2tmcEhxuIdQUXtLTH3F6DXNPr7oFi8xyxg_Yj6-phqQjyr-L3krvZck7825fs_luR58IEwS9_T1jcnXmIyFrpWxwTHdjJLzIZXFzxeBcOC3LegaHA2Rg99ZSeBFHilih_0K0]--></g></svg>