<?xml version="1.0" encoding="us-ascii" standalone="no"?><svg xmlns="http://www.w3.org/2000/svg" xmlns:xlink="http://www.w3.org/1999/xlink" contentStyleType="text/css" height="1021px" preserveAspectRatio="none" style="width:1898px;height:1021px;background:#FFFFFF;" version="1.1" viewBox="0 0 1898 1021" width="1898px" zoomAndPan="magnify"><defs/><g><text fill="#000000" font-family="sans-serif" font-size="14" font-weight="bold" lengthAdjust="spacing" textLength="460" x="720.5" y="30.1074">System Sequence Diagram 2 (SSD) - US 1005 - Set Course Teacher</text><rect fill="#FFFFFF" height="766.6934" style="stroke:#181818;stroke-width:1.0;" width="10" x="29" y="137.8633"/><rect fill="#FFFFFF" height="743.4023" style="stroke:#181818;stroke-width:1.0;" width="10" x="361" y="161.1543"/><rect fill="#FFFFFF" height="31.291" style="stroke:#181818;stroke-width:1.0;" width="10" x="902" y="286.3184"/><rect fill="#FFFFFF" height="31.291" style="stroke:#181818;stroke-width:1.0;" width="10" x="902" y="455.7734"/><rect fill="#FFFFFF" height="123.873" style="stroke:#181818;stroke-width:1.0;" width="10" x="902" y="749.3926"/><rect fill="#FFFFFF" height="30" style="stroke:#181818;stroke-width:1.0;" width="10" x="1392" y="780.6836"/><line style="stroke:#181818;stroke-width:0.5;stroke-dasharray:5.0,5.0;" x1="34" x2="34" y1="127.8633" y2="922.5566"/><line style="stroke:#181818;stroke-width:0.5;stroke-dasharray:5.0,5.0;" x1="366" x2="366" y1="127.8633" y2="922.5566"/><line style="stroke:#181818;stroke-width:0.5;stroke-dasharray:5.0,5.0;" x1="907" x2="907" y1="127.8633" y2="922.5566"/><line style="stroke:#181818;stroke-width:0.5;stroke-dasharray:5.0,5.0;" x1="1079" x2="1079" y1="127.8633" y2="922.5566"/><line style="stroke:#181818;stroke-width:0.5;stroke-dasharray:5.0,5.0;" x1="1250" x2="1250" y1="127.8633" y2="922.5566"/><line style="stroke:#181818;stroke-width:0.5;stroke-dasharray:5.0,5.0;" x1="1397" x2="1397" y1="127.8633" y2="922.5566"/><line style="stroke:#181818;stroke-width:0.5;stroke-dasharray:5.0,5.0;" x1="1548" x2="1548" y1="127.8633" y2="922.5566"/><line style="stroke:#181818;stroke-width:0.5;stroke-dasharray:5.0,5.0;" x1="1694" x2="1694" y1="127.8633" y2="922.5566"/><line style="stroke:#181818;stroke-width:0.5;stroke-dasharray:5.0,5.0;" x1="1831" x2="1831" y1="127.8633" y2="922.5566"/><text fill="#000000" font-family="sans-serif" font-size="14" lengthAdjust="spacing" textLength="52" x="5" y="124.3496">Gerente</text><ellipse cx="34" cy="57.7422" fill="#E3E3E3" rx="8" ry="8" style="stroke:#181818;stroke-width:0.5;"/><path d="M34,65.7422 L34,92.7422 M21,73.7422 L47,73.7422 M34,92.7422 L21,107.7422 M34,92.7422 L47,107.7422 " fill="none" style="stroke:#181818;stroke-width:0.5;"/><text fill="#000000" font-family="sans-serif" font-size="14" lengthAdjust="spacing" textLength="52" x="5" y="936.6641">Gerente</text><ellipse cx="34" cy="948.6777" fill="#E3E3E3" rx="8" ry="8" style="stroke:#181818;stroke-width:0.5;"/><path d="M34,956.6777 L34,983.6777 M21,964.6777 L47,964.6777 M34,983.6777 L21,998.6777 M34,983.6777 L47,998.6777 " fill="none" style="stroke:#181818;stroke-width:0.5;"/><rect fill="#E3E3E3" height="51.2422" rx="2.5" ry="2.5" style="stroke:#181818;stroke-width:0.5;" width="150" x="291" y="75.6211"/><text fill="#000000" font-family="sans-serif" font-size="14" lengthAdjust="spacing" textLength="95" x="316.5" y="97.7285">&#171;presentation&#187;</text><text fill="#000000" font-family="sans-serif" font-size="14" lengthAdjust="spacing" textLength="132" x="302" y="116.3496">SetCourseTeacherUI</text><rect fill="#E3E3E3" height="51.2422" rx="2.5" ry="2.5" style="stroke:#181818;stroke-width:0.5;" width="150" x="291" y="921.5566"/><text fill="#000000" font-family="sans-serif" font-size="14" lengthAdjust="spacing" textLength="95" x="316.5" y="943.6641">&#171;presentation&#187;</text><text fill="#000000" font-family="sans-serif" font-size="14" lengthAdjust="spacing" textLength="132" x="302" y="962.2852">SetCourseTeacherUI</text><text fill="#000000" font-family="sans-serif" font-size="14" lengthAdjust="spacing" textLength="84" x="860" y="105.7285">&#171;application&#187;</text><text fill="#000000" font-family="sans-serif" font-size="14" lengthAdjust="spacing" textLength="182" x="815" y="124.3496">SetCourseTeacherController</text><ellipse cx="907" cy="74.6211" fill="#E3E3E3" rx="12" ry="12" style="stroke:#181818;stroke-width:0.5;"/><polygon fill="#181818" points="903,62.6211,909,57.6211,907,62.6211,909,67.6211,903,62.6211" style="stroke:#181818;stroke-width:1.0;"/><text fill="#000000" font-family="sans-serif" font-size="14" lengthAdjust="spacing" textLength="84" x="860" y="936.6641">&#171;application&#187;</text><text fill="#000000" font-family="sans-serif" font-size="14" lengthAdjust="spacing" textLength="182" x="815" y="955.2852">SetCourseTeacherController</text><ellipse cx="907" cy="974.7988" fill="#E3E3E3" rx="12" ry="12" style="stroke:#181818;stroke-width:0.5;"/><polygon fill="#181818" points="903,962.7988,909,957.7988,907,962.7988,909,967.7988,903,962.7988" style="stroke:#181818;stroke-width:1.0;"/><rect fill="#E3E3E3" height="51.2422" rx="2.5" ry="2.5" style="stroke:#181818;stroke-width:0.5;" width="133" x="1013" y="75.6211"/><text fill="#000000" font-family="sans-serif" font-size="14" lengthAdjust="spacing" textLength="84" x="1035.5" y="97.7285">&#171;application&#187;</text><text fill="#000000" font-family="sans-serif" font-size="14" lengthAdjust="spacing" textLength="115" x="1024" y="116.3496">ListCourseService</text><rect fill="#E3E3E3" height="51.2422" rx="2.5" ry="2.5" style="stroke:#181818;stroke-width:0.5;" width="133" x="1013" y="921.5566"/><text fill="#000000" font-family="sans-serif" font-size="14" lengthAdjust="spacing" textLength="84" x="1035.5" y="943.6641">&#171;application&#187;</text><text fill="#000000" font-family="sans-serif" font-size="14" lengthAdjust="spacing" textLength="115" x="1024" y="962.2852">ListCourseService</text><rect fill="#E3E3E3" height="51.2422" rx="2.5" ry="2.5" style="stroke:#181818;stroke-width:0.5;" width="140" x="1180" y="75.6211"/><text fill="#000000" font-family="sans-serif" font-size="14" lengthAdjust="spacing" textLength="84" x="1206" y="97.7285">&#171;application&#187;</text><text fill="#000000" font-family="sans-serif" font-size="14" lengthAdjust="spacing" textLength="122" x="1191" y="116.3496">ListTeacherService</text><rect fill="#E3E3E3" height="51.2422" rx="2.5" ry="2.5" style="stroke:#181818;stroke-width:0.5;" width="140" x="1180" y="921.5566"/><text fill="#000000" font-family="sans-serif" font-size="14" lengthAdjust="spacing" textLength="84" x="1206" y="943.6641">&#171;application&#187;</text><text fill="#000000" font-family="sans-serif" font-size="14" lengthAdjust="spacing" textLength="122" x="1191" y="962.2852">ListTeacherService</text><rect fill="#E3E3E3" height="51.2422" rx="2.5" ry="2.5" style="stroke:#181818;stroke-width:0.5;" width="134" x="1330" y="75.6211"/><text fill="#000000" font-family="sans-serif" font-size="14" lengthAdjust="spacing" textLength="62" x="1364" y="97.7285">&#171;domain&#187;</text><text fill="#000000" font-family="sans-serif" font-size="14" lengthAdjust="spacing" textLength="116" x="1341" y="116.3496">theCourse:Course</text><rect fill="#E3E3E3" height="51.2422" rx="2.5" ry="2.5" style="stroke:#181818;stroke-width:0.5;" width="134" x="1330" y="921.5566"/><text fill="#000000" font-family="sans-serif" font-size="14" lengthAdjust="spacing" textLength="62" x="1364" y="943.6641">&#171;domain&#187;</text><text fill="#000000" font-family="sans-serif" font-size="14" lengthAdjust="spacing" textLength="116" x="1341" y="962.2852">theCourse:Course</text><rect fill="#E3E3E3" height="51.2422" rx="2.5" ry="2.5" style="stroke:#181818;stroke-width:0.5;" width="148" x="1474" y="75.6211"/><text fill="#000000" font-family="sans-serif" font-size="14" lengthAdjust="spacing" textLength="62" x="1515" y="97.7285">&#171;domain&#187;</text><text fill="#000000" font-family="sans-serif" font-size="14" lengthAdjust="spacing" textLength="130" x="1485" y="116.3496">theTeacher:Teacher</text><rect fill="#E3E3E3" height="51.2422" rx="2.5" ry="2.5" style="stroke:#181818;stroke-width:0.5;" width="148" x="1474" y="921.5566"/><text fill="#000000" font-family="sans-serif" font-size="14" lengthAdjust="spacing" textLength="62" x="1515" y="943.6641">&#171;domain&#187;</text><text fill="#000000" font-family="sans-serif" font-size="14" lengthAdjust="spacing" textLength="130" x="1485" y="962.2852">theTeacher:Teacher</text><text fill="#000000" font-family="sans-serif" font-size="14" lengthAdjust="spacing" textLength="79" x="1649.5" y="105.7285">&#171;repository&#187;</text><text fill="#000000" font-family="sans-serif" font-size="14" lengthAdjust="spacing" textLength="114" x="1636" y="124.3496">CourseRepository</text><path d="M1676,54.6211 C1676,44.6211 1694,44.6211 1694,44.6211 C1694,44.6211 1712,44.6211 1712,54.6211 L1712,80.6211 C1712,90.6211 1694,90.6211 1694,90.6211 C1694,90.6211 1676,90.6211 1676,80.6211 L1676,54.6211 " fill="#E3E3E3" style="stroke:#181818;stroke-width:1.5;"/><path d="M1676,54.6211 C1676,64.6211 1694,64.6211 1694,64.6211 C1694,64.6211 1712,64.6211 1712,54.6211 " fill="none" style="stroke:#181818;stroke-width:1.5;"/><text fill="#000000" font-family="sans-serif" font-size="14" lengthAdjust="spacing" textLength="79" x="1649.5" y="936.6641">&#171;repository&#187;</text><text fill="#000000" font-family="sans-serif" font-size="14" lengthAdjust="spacing" textLength="114" x="1636" y="955.2852">CourseRepository</text><path d="M1676,968.7988 C1676,958.7988 1694,958.7988 1694,958.7988 C1694,958.7988 1712,958.7988 1712,968.7988 L1712,994.7988 C1712,1004.7988 1694,1004.7988 1694,1004.7988 C1694,1004.7988 1676,1004.7988 1676,994.7988 L1676,968.7988 " fill="#E3E3E3" style="stroke:#181818;stroke-width:1.5;"/><path d="M1676,968.7988 C1676,978.7988 1694,978.7988 1694,978.7988 C1694,978.7988 1712,978.7988 1712,968.7988 " fill="none" style="stroke:#181818;stroke-width:1.5;"/><text fill="#000000" font-family="sans-serif" font-size="14" lengthAdjust="spacing" textLength="79" x="1787" y="105.7285">&#171;repository&#187;</text><text fill="#000000" font-family="sans-serif" font-size="14" lengthAdjust="spacing" textLength="121" x="1770" y="124.3496">TeacherRepository</text><path d="M1813.5,54.6211 C1813.5,44.6211 1831.5,44.6211 1831.5,44.6211 C1831.5,44.6211 1849.5,44.6211 1849.5,54.6211 L1849.5,80.6211 C1849.5,90.6211 1831.5,90.6211 1831.5,90.6211 C1831.5,90.6211 1813.5,90.6211 1813.5,80.6211 L1813.5,54.6211 " fill="#E3E3E3" style="stroke:#181818;stroke-width:1.5;"/><path d="M1813.5,54.6211 C1813.5,64.6211 1831.5,64.6211 1831.5,64.6211 C1831.5,64.6211 1849.5,64.6211 1849.5,54.6211 " fill="none" style="stroke:#181818;stroke-width:1.5;"/><text fill="#000000" font-family="sans-serif" font-size="14" lengthAdjust="spacing" textLength="79" x="1787" y="936.6641">&#171;repository&#187;</text><text fill="#000000" font-family="sans-serif" font-size="14" lengthAdjust="spacing" textLength="121" x="1770" y="955.2852">TeacherRepository</text><path d="M1813.5,968.7988 C1813.5,958.7988 1831.5,958.7988 1831.5,958.7988 C1831.5,958.7988 1849.5,958.7988 1849.5,968.7988 L1849.5,994.7988 C1849.5,1004.7988 1831.5,1004.7988 1831.5,1004.7988 C1831.5,1004.7988 1813.5,1004.7988 1813.5,994.7988 L1813.5,968.7988 " fill="#E3E3E3" style="stroke:#181818;stroke-width:1.5;"/><path d="M1813.5,968.7988 C1813.5,978.7988 1831.5,978.7988 1831.5,978.7988 C1831.5,978.7988 1849.5,978.7988 1849.5,968.7988 " fill="none" style="stroke:#181818;stroke-width:1.5;"/><rect fill="#FFFFFF" height="766.6934" style="stroke:#181818;stroke-width:1.0;" width="10" x="29" y="137.8633"/><rect fill="#FFFFFF" height="743.4023" style="stroke:#181818;stroke-width:1.0;" width="10" x="361" y="161.1543"/><rect fill="#FFFFFF" height="31.291" style="stroke:#181818;stroke-width:1.0;" width="10" x="902" y="286.3184"/><rect fill="#FFFFFF" height="31.291" style="stroke:#181818;stroke-width:1.0;" width="10" x="902" y="455.7734"/><rect fill="#FFFFFF" height="123.873" style="stroke:#181818;stroke-width:1.0;" width="10" x="902" y="749.3926"/><rect fill="#FFFFFF" height="30" style="stroke:#181818;stroke-width:1.0;" width="10" x="1392" y="780.6836"/><polygon fill="#181818" points="349,157.1543,359,161.1543,349,165.1543,353,161.1543" style="stroke:#181818;stroke-width:1.0;"/><line style="stroke:#181818;stroke-width:1.0;" x1="39" x2="355" y1="161.1543" y2="161.1543"/><text fill="#000000" font-family="sans-serif" font-size="13" font-weight="bold" lengthAdjust="spacing" textLength="7" x="46" y="155.8916">1</text><text fill="#000000" font-family="sans-serif" font-size="13" lengthAdjust="spacing" textLength="292" x="57" y="155.8916">Pede para adicionar um professor a uma disciplina</text><polygon fill="#181818" points="895,188.4453,905,192.4453,895,196.4453,899,192.4453" style="stroke:#181818;stroke-width:1.0;"/><line style="stroke:#181818;stroke-width:1.0;" x1="371" x2="901" y1="192.4453" y2="192.4453"/><text fill="#000000" font-family="sans-serif" font-size="13" font-weight="bold" lengthAdjust="spacing" textLength="7" x="378" y="187.1826">2</text><text fill="#000000" font-family="sans-serif" font-size="13" lengthAdjust="spacing" textLength="36" x="389" y="187.1826">create</text><polygon fill="#181818" points="1067.5,219.7363,1077.5,223.7363,1067.5,227.7363,1071.5,223.7363" style="stroke:#181818;stroke-width:1.0;"/><line style="stroke:#181818;stroke-width:1.0;" x1="907" x2="1073.5" y1="223.7363" y2="223.7363"/><text fill="#000000" font-family="sans-serif" font-size="13" font-weight="bold" lengthAdjust="spacing" textLength="7" x="914" y="218.4736">3</text><text fill="#000000" font-family="sans-serif" font-size="13" lengthAdjust="spacing" textLength="36" x="925" y="218.4736">create</text><polygon fill="#181818" points="1238,251.0273,1248,255.0273,1238,259.0273,1242,255.0273" style="stroke:#181818;stroke-width:1.0;"/><line style="stroke:#181818;stroke-width:1.0;" x1="907" x2="1244" y1="255.0273" y2="255.0273"/><text fill="#000000" font-family="sans-serif" font-size="13" font-weight="bold" lengthAdjust="spacing" textLength="7" x="914" y="249.7646">4</text><text fill="#000000" font-family="sans-serif" font-size="13" lengthAdjust="spacing" textLength="36" x="925" y="249.7646">create</text><polygon fill="#181818" points="890,282.3184,900,286.3184,890,290.3184,894,286.3184" style="stroke:#181818;stroke-width:1.0;"/><line style="stroke:#181818;stroke-width:1.0;" x1="371" x2="896" y1="286.3184" y2="286.3184"/><text fill="#000000" font-family="sans-serif" font-size="13" font-weight="bold" lengthAdjust="spacing" textLength="7" x="378" y="281.0557">5</text><text fill="#000000" font-family="sans-serif" font-size="13" lengthAdjust="spacing" textLength="266" x="389" y="281.0557">allCoursesNotClosed = allCoursesNotClosed()</text><polygon fill="#181818" points="1067.5,313.6094,1077.5,317.6094,1067.5,321.6094,1071.5,317.6094" style="stroke:#181818;stroke-width:1.0;"/><line style="stroke:#181818;stroke-width:1.0;" x1="907" x2="1073.5" y1="317.6094" y2="317.6094"/><text fill="#000000" font-family="sans-serif" font-size="13" font-weight="bold" lengthAdjust="spacing" textLength="7" x="914" y="312.3467">6</text><text fill="#000000" font-family="sans-serif" font-size="13" lengthAdjust="spacing" textLength="129" x="925" y="312.3467">allCoursesNotClosed()</text><line style="stroke:#181818;stroke-width:1.0;" x1="371" x2="413" y1="348.9004" y2="348.9004"/><line style="stroke:#181818;stroke-width:1.0;" x1="413" x2="413" y1="348.9004" y2="361.9004"/><line style="stroke:#181818;stroke-width:1.0;" x1="372" x2="413" y1="361.9004" y2="361.9004"/><polygon fill="#181818" points="382,357.9004,372,361.9004,382,365.9004,378,361.9004" style="stroke:#181818;stroke-width:1.0;"/><text fill="#000000" font-family="sans-serif" font-size="13" font-weight="bold" lengthAdjust="spacing" textLength="7" x="378" y="343.6377">7</text><text fill="#000000" font-family="sans-serif" font-size="13" lengthAdjust="spacing" textLength="162" x="389" y="343.6377">Mostra a lista de disciplinas</text><polygon fill="#181818" points="50,389.1914,40,393.1914,50,397.1914,46,393.1914" style="stroke:#181818;stroke-width:1.0;"/><line style="stroke:#181818;stroke-width:1.0;stroke-dasharray:2.0,2.0;" x1="44" x2="360" y1="393.1914" y2="393.1914"/><text fill="#000000" font-family="sans-serif" font-size="13" font-weight="bold" lengthAdjust="spacing" textLength="7" x="56" y="387.9287">8</text><text fill="#000000" font-family="sans-serif" font-size="13" lengthAdjust="spacing" textLength="209" x="67" y="387.9287">Pede para selecionar uma disciplina</text><polygon fill="#181818" points="349,420.4824,359,424.4824,349,428.4824,353,424.4824" style="stroke:#181818;stroke-width:1.0;"/><line style="stroke:#181818;stroke-width:1.0;" x1="39" x2="355" y1="424.4824" y2="424.4824"/><text fill="#000000" font-family="sans-serif" font-size="13" font-weight="bold" lengthAdjust="spacing" textLength="7" x="46" y="419.2197">9</text><text fill="#000000" font-family="sans-serif" font-size="13" lengthAdjust="spacing" textLength="144" x="57" y="419.2197">Seleciona uma disciplina</text><polygon fill="#181818" points="890,451.7734,900,455.7734,890,459.7734,894,455.7734" style="stroke:#181818;stroke-width:1.0;"/><line style="stroke:#181818;stroke-width:1.0;" x1="371" x2="896" y1="455.7734" y2="455.7734"/><text fill="#000000" font-family="sans-serif" font-size="13" font-weight="bold" lengthAdjust="spacing" textLength="14" x="378" y="450.5107">10</text><text fill="#000000" font-family="sans-serif" font-size="13" lengthAdjust="spacing" textLength="494" x="396" y="450.5107">possibleTeachersForTheCourse = allTeachersWhoDoNotTeachThisCourse(theCourse)</text><polygon fill="#181818" points="1238,483.0645,1248,487.0645,1238,491.0645,1242,487.0645" style="stroke:#181818;stroke-width:1.0;"/><line style="stroke:#181818;stroke-width:1.0;" x1="907" x2="1244" y1="487.0645" y2="487.0645"/><text fill="#000000" font-family="sans-serif" font-size="13" font-weight="bold" lengthAdjust="spacing" textLength="14" x="914" y="481.8018">11</text><text fill="#000000" font-family="sans-serif" font-size="13" lengthAdjust="spacing" textLength="296" x="932" y="481.8018">allTeachersWhoDoNotTeachThisCourse(theCourse)</text><line style="stroke:#181818;stroke-width:1.0;" x1="371" x2="413" y1="535.6465" y2="535.6465"/><line style="stroke:#181818;stroke-width:1.0;" x1="413" x2="413" y1="535.6465" y2="548.6465"/><line style="stroke:#181818;stroke-width:1.0;" x1="372" x2="413" y1="548.6465" y2="548.6465"/><polygon fill="#181818" points="382,544.6465,372,548.6465,382,552.6465,378,548.6465" style="stroke:#181818;stroke-width:1.0;"/><text fill="#000000" font-family="sans-serif" font-size="13" font-weight="bold" lengthAdjust="spacing" textLength="14" x="378" y="521.7383">12</text><text fill="#000000" font-family="sans-serif" font-size="13" lengthAdjust="spacing" textLength="257" x="396" y="513.0928">Mostra a lista de professores com excess&#227;o</text><text fill="#000000" font-family="sans-serif" font-size="13" lengthAdjust="spacing" textLength="274" x="396" y="530.3838">dos professores que j&#225; lecionam esta disciplina</text><polygon fill="#181818" points="50,575.9375,40,579.9375,50,583.9375,46,579.9375" style="stroke:#181818;stroke-width:1.0;"/><line style="stroke:#181818;stroke-width:1.0;stroke-dasharray:2.0,2.0;" x1="44" x2="360" y1="579.9375" y2="579.9375"/><text fill="#000000" font-family="sans-serif" font-size="13" font-weight="bold" lengthAdjust="spacing" textLength="14" x="56" y="574.6748">13</text><text fill="#000000" font-family="sans-serif" font-size="13" lengthAdjust="spacing" textLength="201" x="74" y="574.6748">Pede para selecionar um professor</text><polygon fill="#181818" points="349,607.2285,359,611.2285,349,615.2285,353,611.2285" style="stroke:#181818;stroke-width:1.0;"/><line style="stroke:#181818;stroke-width:1.0;" x1="39" x2="355" y1="611.2285" y2="611.2285"/><text fill="#000000" font-family="sans-serif" font-size="13" font-weight="bold" lengthAdjust="spacing" textLength="14" x="46" y="605.9658">14</text><text fill="#000000" font-family="sans-serif" font-size="13" lengthAdjust="spacing" textLength="136" x="64" y="605.9658">Seleciona um professor</text><line style="stroke:#181818;stroke-width:1.0;" x1="371" x2="413" y1="642.5195" y2="642.5195"/><line style="stroke:#181818;stroke-width:1.0;" x1="413" x2="413" y1="642.5195" y2="655.5195"/><line style="stroke:#181818;stroke-width:1.0;" x1="372" x2="413" y1="655.5195" y2="655.5195"/><polygon fill="#181818" points="382,651.5195,372,655.5195,382,659.5195,378,655.5195" style="stroke:#181818;stroke-width:1.0;"/><text fill="#000000" font-family="sans-serif" font-size="13" font-weight="bold" lengthAdjust="spacing" textLength="14" x="378" y="637.2568">15</text><text fill="#000000" font-family="sans-serif" font-size="13" lengthAdjust="spacing" textLength="195" x="396" y="637.2568">Mostra a informa&#231;&#227;o a ser tratada</text><polygon fill="#181818" points="50,682.8105,40,686.8105,50,690.8105,46,686.8105" style="stroke:#181818;stroke-width:1.0;"/><line style="stroke:#181818;stroke-width:1.0;stroke-dasharray:2.0,2.0;" x1="44" x2="360" y1="686.8105" y2="686.8105"/><text fill="#000000" font-family="sans-serif" font-size="13" font-weight="bold" lengthAdjust="spacing" textLength="14" x="56" y="681.5479">16</text><text fill="#000000" font-family="sans-serif" font-size="13" lengthAdjust="spacing" textLength="179" x="74" y="681.5479">Pede confirma&#231;&#227;o da opera&#231;&#227;o</text><polygon fill="#181818" points="349,714.1016,359,718.1016,349,722.1016,353,718.1016" style="stroke:#181818;stroke-width:1.0;"/><line style="stroke:#181818;stroke-width:1.0;" x1="39" x2="355" y1="718.1016" y2="718.1016"/><text fill="#000000" font-family="sans-serif" font-size="13" font-weight="bold" lengthAdjust="spacing" textLength="14" x="46" y="712.8389">17</text><text fill="#000000" font-family="sans-serif" font-size="13" lengthAdjust="spacing" textLength="119" x="64" y="712.8389">Confirma a opera&#231;&#227;o</text><polygon fill="#181818" points="890,745.3926,900,749.3926,890,753.3926,894,749.3926" style="stroke:#181818;stroke-width:1.0;"/><line style="stroke:#181818;stroke-width:1.0;" x1="371" x2="896" y1="749.3926" y2="749.3926"/><text fill="#000000" font-family="sans-serif" font-size="13" font-weight="bold" lengthAdjust="spacing" textLength="14" x="378" y="744.1299">18</text><text fill="#000000" font-family="sans-serif" font-size="13" lengthAdjust="spacing" textLength="244" x="396" y="744.1299">setCourseTeacher(theCourse, theTeacher)</text><polygon fill="#181818" points="1380,776.6836,1390,780.6836,1380,784.6836,1384,780.6836" style="stroke:#181818;stroke-width:1.0;"/><line style="stroke:#181818;stroke-width:1.0;" x1="912" x2="1386" y1="780.6836" y2="780.6836"/><text fill="#000000" font-family="sans-serif" font-size="13" font-weight="bold" lengthAdjust="spacing" textLength="14" x="919" y="775.4209">19</text><text fill="#000000" font-family="sans-serif" font-size="13" lengthAdjust="spacing" textLength="194" x="937" y="775.4209">addTeacherToCourse(theTeacher)</text><polygon fill="#181818" points="1682,837.9746,1692,841.9746,1682,845.9746,1686,841.9746" style="stroke:#181818;stroke-width:1.0;"/><line style="stroke:#181818;stroke-width:1.0;" x1="912" x2="1688" y1="841.9746" y2="841.9746"/><text fill="#000000" font-family="sans-serif" font-size="13" font-weight="bold" lengthAdjust="spacing" textLength="14" x="919" y="836.7119">20</text><text fill="#000000" font-family="sans-serif" font-size="13" lengthAdjust="spacing" textLength="93" x="937" y="836.7119">save(theCourse)</text><polygon fill="#181818" points="382,869.2656,372,873.2656,382,877.2656,378,873.2656" style="stroke:#181818;stroke-width:1.0;"/><line style="stroke:#181818;stroke-width:1.0;stroke-dasharray:2.0,2.0;" x1="376" x2="906" y1="873.2656" y2="873.2656"/><text fill="#000000" font-family="sans-serif" font-size="13" font-weight="bold" lengthAdjust="spacing" textLength="14" x="388" y="868.0029">21</text><text fill="#000000" font-family="sans-serif" font-size="13" lengthAdjust="spacing" textLength="59" x="406" y="868.0029">theCourse</text><polygon fill="#181818" points="45,900.5566,35,904.5566,45,908.5566,41,904.5566" style="stroke:#181818;stroke-width:1.0;"/><line style="stroke:#181818;stroke-width:1.0;stroke-dasharray:2.0,2.0;" x1="39" x2="365" y1="904.5566" y2="904.5566"/><text fill="#000000" font-family="sans-serif" font-size="13" font-weight="bold" lengthAdjust="spacing" textLength="14" x="51" y="899.2939">22</text><text fill="#000000" font-family="sans-serif" font-size="13" lengthAdjust="spacing" textLength="181" x="69" y="899.2939">Informa o sucesso da opera&#231;&#227;o</text><!--SRC=[fLLDRzGm4BtdLunwQYKg5IGkLUbbAr0bG8XinONBR3AxQ-hOmNOA_Jc80p-aVunnx7WJxtRxbKlyCU-Dn-_PjjT2jMYmWKOhNQsDRWYSwQYmQQR5wXfNLBfRIM2eSgXMSXnWrrZhNqAjO8dIKb4uuJYqlBME6YZfPqUg8hWGkFBXR-2mB2-Eu1YkIdXzSlAMMoKvcEdEM88vORKcKs3djEgQ1JSBh9msSF2132b71u0MOhlW9JXHYHQLWuEpizQGvN5qGglpS_YkF7LWZiHNbps-4qMbbJDQUXYshHJL7jGin4eoFRfAtNm1MqmVXOrK9PaRKONbospmKJHnBHdFT3GdgdM38dAuDOMaf-4NI_7D1s0nnsdyzq0NXQhHuG9PEOOPQhKLBDPjW8OyNzDeoBZfxmN7P1dQZT3U6E867IKx5C1VxC3nESiCf_25QWBlLS2QQzGA3NHiRAENP2qx2xcBK0lB6o25mfubSRDL-W7_CH-pRkHdzieGHwM8qHn7vZe_8dwgvmQmRmqePKXZFsitazfI3UzsZHuU9PfKtyZCCFeUB6G_VKsx4cH5zF9yqjPvRK2onra66YbXfmY63EAEPRKaAUaw4JAXSq-K0-HUn8vjPkDPiP33SR3ljPaFPohizp3pRQqlD6zBtv-lXGr1X-a8la27BOCyB-zB14f7X_m5qW3zhhXxzrVpkQsrdSppzGy_xlv0t6yExaccX-qf0c_O7oVlA7vVSK8jjMdmxfylmwSq_1BozLG_j4BUlQL8o1f1jsH2x_u5pY88TeVlC9_DdgIDfgz6L_HpVHMU0M-ckevKSxqnpnPxbg5_GyPp4tTjpMQvDrUwhnDlTlernmqxcKAVuko9YfT1UT1WE-_ZNCICqxy7e-xmzFm7]--></g></svg>