<?xml version="1.0" encoding="us-ascii" standalone="no"?><svg xmlns="http://www.w3.org/2000/svg" xmlns:xlink="http://www.w3.org/1999/xlink" contentStyleType="text/css" height="476px" preserveAspectRatio="none" style="width:445px;height:476px;background:#FFFFFF;" version="1.1" viewBox="0 0 445 476" width="445px" zoomAndPan="magnify"><defs/><g><text fill="#000000" font-family="sans-serif" font-size="14" font-weight="bold" lengthAdjust="spacing" textLength="308" x="67.5" y="30.1074">System Sequence Diagram 2 (SSD) - US 1005</text><rect fill="#FFFFFF" height="242.3281" style="stroke:#181818;stroke-width:1.0;" width="10" x="29" y="133.2422"/><rect fill="#FFFFFF" height="31.291" style="stroke:#181818;stroke-width:1.0;" width="10" x="400" y="156.5332"/><rect fill="#FFFFFF" height="31.291" style="stroke:#181818;stroke-width:1.0;" width="10" x="400" y="219.1152"/><rect fill="#FFFFFF" height="31.291" style="stroke:#181818;stroke-width:1.0;" width="10" x="400" y="281.6973"/><rect fill="#FFFFFF" height="31.291" style="stroke:#181818;stroke-width:1.0;" width="10" x="400" y="344.2793"/><line style="stroke:#181818;stroke-width:0.5;stroke-dasharray:5.0,5.0;" x1="34" x2="34" y1="123.2422" y2="393.5703"/><line style="stroke:#181818;stroke-width:0.5;stroke-dasharray:5.0,5.0;" x1="405" x2="405" y1="123.2422" y2="393.5703"/><text fill="#000000" font-family="sans-serif" font-size="14" lengthAdjust="spacing" textLength="52" x="5" y="119.7285">Gerente</text><ellipse cx="34" cy="53.1211" fill="#E3E3E3" rx="8" ry="8" style="stroke:#181818;stroke-width:0.5;"/><path d="M34,61.1211 L34,88.1211 M21,69.1211 L47,69.1211 M34,88.1211 L21,103.1211 M34,88.1211 L47,103.1211 " fill="none" style="stroke:#181818;stroke-width:0.5;"/><text fill="#000000" font-family="sans-serif" font-size="14" lengthAdjust="spacing" textLength="52" x="5" y="407.6777">Gerente</text><ellipse cx="34" cy="419.6914" fill="#E3E3E3" rx="8" ry="8" style="stroke:#181818;stroke-width:0.5;"/><path d="M34,427.6914 L34,454.6914 M21,435.6914 L47,435.6914 M34,454.6914 L21,469.6914 M34,454.6914 L47,469.6914 " fill="none" style="stroke:#181818;stroke-width:0.5;"/><rect fill="#E3E3E3" height="32.6211" rx="2.5" ry="2.5" style="stroke:#181818;stroke-width:0.5;" width="68" x="371" y="89.6211"/><text fill="#000000" font-family="sans-serif" font-size="14" lengthAdjust="spacing" textLength="54" x="378" y="111.7285">:Sistema</text><rect fill="#E3E3E3" height="32.6211" rx="2.5" ry="2.5" style="stroke:#181818;stroke-width:0.5;" width="68" x="371" y="392.5703"/><text fill="#000000" font-family="sans-serif" font-size="14" lengthAdjust="spacing" textLength="54" x="378" y="414.6777">:Sistema</text><rect fill="#FFFFFF" height="242.3281" style="stroke:#181818;stroke-width:1.0;" width="10" x="29" y="133.2422"/><rect fill="#FFFFFF" height="31.291" style="stroke:#181818;stroke-width:1.0;" width="10" x="400" y="156.5332"/><rect fill="#FFFFFF" height="31.291" style="stroke:#181818;stroke-width:1.0;" width="10" x="400" y="219.1152"/><rect fill="#FFFFFF" height="31.291" style="stroke:#181818;stroke-width:1.0;" width="10" x="400" y="281.6973"/><rect fill="#FFFFFF" height="31.291" style="stroke:#181818;stroke-width:1.0;" width="10" x="400" y="344.2793"/><polygon fill="#181818" points="388,152.5332,398,156.5332,388,160.5332,392,156.5332" style="stroke:#181818;stroke-width:1.0;"/><line style="stroke:#181818;stroke-width:1.0;" x1="39" x2="394" y1="156.5332" y2="156.5332"/><text fill="#000000" font-family="sans-serif" font-size="13" font-weight="bold" lengthAdjust="spacing" textLength="7" x="46" y="151.2705">1</text><text fill="#000000" font-family="sans-serif" font-size="13" lengthAdjust="spacing" textLength="292" x="57" y="151.2705">Pede para adicionar um professor a uma disciplina</text><polygon fill="#181818" points="50,183.8242,40,187.8242,50,191.8242,46,187.8242" style="stroke:#181818;stroke-width:1.0;"/><line style="stroke:#181818;stroke-width:1.0;stroke-dasharray:2.0,2.0;" x1="44" x2="404" y1="187.8242" y2="187.8242"/><text fill="#000000" font-family="sans-serif" font-size="13" font-weight="bold" lengthAdjust="spacing" textLength="7" x="56" y="182.5615">2</text><text fill="#000000" font-family="sans-serif" font-size="13" lengthAdjust="spacing" textLength="326" x="67" y="182.5615">Mostra a lista de disciplinas e pede para selecionar uma</text><polygon fill="#181818" points="388,215.1152,398,219.1152,388,223.1152,392,219.1152" style="stroke:#181818;stroke-width:1.0;"/><line style="stroke:#181818;stroke-width:1.0;" x1="39" x2="394" y1="219.1152" y2="219.1152"/><text fill="#000000" font-family="sans-serif" font-size="13" font-weight="bold" lengthAdjust="spacing" textLength="7" x="46" y="213.8525">3</text><text fill="#000000" font-family="sans-serif" font-size="13" lengthAdjust="spacing" textLength="144" x="57" y="213.8525">Seleciona uma disciplina</text><polygon fill="#181818" points="50,246.4063,40,250.4063,50,254.4063,46,250.4063" style="stroke:#181818;stroke-width:1.0;"/><line style="stroke:#181818;stroke-width:1.0;stroke-dasharray:2.0,2.0;" x1="44" x2="404" y1="250.4063" y2="250.4063"/><text fill="#000000" font-family="sans-serif" font-size="13" font-weight="bold" lengthAdjust="spacing" textLength="7" x="56" y="245.1436">4</text><text fill="#000000" font-family="sans-serif" font-size="13" lengthAdjust="spacing" textLength="325" x="67" y="245.1436">Mostra a lista de professores e pede para selecionar um</text><polygon fill="#181818" points="388,277.6973,398,281.6973,388,285.6973,392,281.6973" style="stroke:#181818;stroke-width:1.0;"/><line style="stroke:#181818;stroke-width:1.0;" x1="39" x2="394" y1="281.6973" y2="281.6973"/><text fill="#000000" font-family="sans-serif" font-size="13" font-weight="bold" lengthAdjust="spacing" textLength="7" x="46" y="276.4346">5</text><text fill="#000000" font-family="sans-serif" font-size="13" lengthAdjust="spacing" textLength="136" x="57" y="276.4346">Seleciona um professor</text><polygon fill="#181818" points="50,308.9883,40,312.9883,50,316.9883,46,312.9883" style="stroke:#181818;stroke-width:1.0;"/><line style="stroke:#181818;stroke-width:1.0;stroke-dasharray:2.0,2.0;" x1="44" x2="404" y1="312.9883" y2="312.9883"/><text fill="#000000" font-family="sans-serif" font-size="13" font-weight="bold" lengthAdjust="spacing" textLength="7" x="56" y="307.7256">6</text><text fill="#000000" font-family="sans-serif" font-size="13" lengthAdjust="spacing" textLength="312" x="67" y="307.7256">Mostra a informa&#231;&#227;o a ser tratada e pede confirma&#231;&#227;o</text><polygon fill="#181818" points="388,340.2793,398,344.2793,388,348.2793,392,344.2793" style="stroke:#181818;stroke-width:1.0;"/><line style="stroke:#181818;stroke-width:1.0;" x1="39" x2="394" y1="344.2793" y2="344.2793"/><text fill="#000000" font-family="sans-serif" font-size="13" font-weight="bold" lengthAdjust="spacing" textLength="7" x="46" y="339.0166">7</text><text fill="#000000" font-family="sans-serif" font-size="13" lengthAdjust="spacing" textLength="119" x="57" y="339.0166">Confirma a opera&#231;&#227;o</text><polygon fill="#181818" points="45,371.5703,35,375.5703,45,379.5703,41,375.5703" style="stroke:#181818;stroke-width:1.0;"/><line style="stroke:#181818;stroke-width:1.0;stroke-dasharray:2.0,2.0;" x1="39" x2="404" y1="375.5703" y2="375.5703"/><text fill="#000000" font-family="sans-serif" font-size="13" font-weight="bold" lengthAdjust="spacing" textLength="7" x="51" y="370.3076">8</text><text fill="#000000" font-family="sans-serif" font-size="13" lengthAdjust="spacing" textLength="181" x="62" y="370.3076">Informa o sucesso da opera&#231;&#227;o</text><!--SRC=[jPB1IWCn48RlUOgVdlHGg8AN7hnO40-247o0CJkx3TrDrcHMwVDuy47wOcRRpRfG5Kenfqdop_z_4n8trhKKg47ZdJVhu1k6X8vL76zQCXkgMCksPWGsGgwgfuAufiA_MrUXf3goKc8bIVKs2ZVG_DgnCuoLfQgNN-D2wzKbvdZMk5eiRXHrubtNl71GYepuWDaz1tR2Cr34KAkK9jRObfnWjjIsjwUzOgZttVQDXCSUXRI63UQtMOabdhXWz0E0YkJg7GLqQThWIuunCL3Q4WeRKsHj7Usjne0SYM5butaAoNbBFFeeVGBgT9tCUE8NaV97YCWrZnG7suAFqduVH-V-Vw4UNuN_e3uF-ZlZB6JhIXyQsdtkFZnwm93-CmaLbC6DTwNDajEPxuRsPEvR3XER4v4V3gJmY9tf1qTnPFaJsUGi__8l]--></g></svg>