<?xml version="1.0" encoding="us-ascii" standalone="no"?><svg xmlns="http://www.w3.org/2000/svg" xmlns:xlink="http://www.w3.org/1999/xlink" contentStyleType="text/css" height="462px" preserveAspectRatio="none" style="width:747px;height:462px;background:#FFFFFF;" version="1.1" viewBox="0 0 747 462" width="747px" zoomAndPan="magnify"><defs/><g><!--cluster <<aggregate>> Meeting--><g id="cluster_&lt;&lt;aggregate&gt;&gt; Meeting"><path d="M295.5,6.0137 L446.5,6.0137 A3.75,3.75 0 0 1 449,8.5137 L456,30.6348 L522.5,30.6348 A2.5,2.5 0 0 1 525,33.1348 L525,444.5137 A2.5,2.5 0 0 1 522.5,447.0137 L295.5,447.0137 A2.5,2.5 0 0 1 293,444.5137 L293,8.5137 A2.5,2.5 0 0 1 295.5,6.0137 " fill="none" style="stroke:#000000;stroke-width:1.5;"/><line style="stroke:#000000;stroke-width:1.5;" x1="293" x2="456" y1="30.6348" y2="30.6348"/><text fill="#000000" font-family="sans-serif" font-size="14" font-weight="bold" lengthAdjust="spacing" textLength="150" x="297" y="23.1211">&#171;aggregate&#187; Meeting</text></g><!--cluster <<aggregate>> SystemUser--><g id="cluster_&lt;&lt;aggregate&gt;&gt; SystemUser"><path d="M551.5,325.0137 L727.5,325.0137 A3.75,3.75 0 0 1 730,327.5137 L737,349.6348 L737.5,349.6348 A2.5,2.5 0 0 1 740,352.1348 L740,452.5137 A2.5,2.5 0 0 1 737.5,455.0137 L551.5,455.0137 A2.5,2.5 0 0 1 549,452.5137 L549,327.5137 A2.5,2.5 0 0 1 551.5,325.0137 " fill="none" style="stroke:#000000;stroke-width:1.5;"/><line style="stroke:#000000;stroke-width:1.5;" x1="549" x2="737" y1="349.6348" y2="349.6348"/><text fill="#000000" font-family="sans-serif" font-size="14" font-weight="bold" lengthAdjust="spacing" textLength="175" x="553" y="342.1211">&#171;aggregate&#187; SystemUser</text></g><!--class Meeting--><g id="elem_Meeting"><rect codeLine="6" fill="#F1F1F1" height="76.543" id="Meeting" rx="2.5" ry="2.5" style="stroke:#181818;stroke-width:0.5;" width="82" x="383" y="43.0137"/><ellipse cx="398" cy="73.2852" fill="#ADD1B2" rx="11" ry="11" style="stroke:#181818;stroke-width:1.0;"/><path d="M396.8594,74.082 L396.8594,76.582 L401.1875,76.582 L401.1875,75.6602 Q401.1875,75.0508 401.4219,74.7852 Q401.6719,74.5195 402.0469,74.5195 Q402.4219,74.5195 402.6563,74.7852 Q402.8906,75.0508 402.8906,75.6602 L402.8906,78.2852 L394.8906,78.2852 Q394.2656,78.2852 394,78.0508 Q393.75,77.8164 393.75,77.4258 Q393.75,77.0508 394.0156,76.8164 Q394.2813,76.582 394.8906,76.582 L395.1563,76.582 L395.1563,69.9258 L394.8906,69.9258 Q394.2656,69.9258 394,69.6914 Q393.75,69.457 393.75,69.0664 Q393.75,68.6914 394,68.457 Q394.2656,68.2227 394.8906,68.2227 L402.5156,68.2227 L402.5156,70.8164 Q402.5156,71.4258 402.2813,71.6914 Q402.0625,71.9414 401.6719,71.9414 Q401.2969,71.9414 401.0625,71.6914 Q400.8281,71.4258 400.8281,70.8164 L400.8281,69.9258 L396.8594,69.9258 L396.8594,72.3789 L398.3438,72.3789 Q398.3438,71.7227 398.4688,71.5352 Q398.7344,71.1289 399.2031,71.1289 Q399.5781,71.1289 399.8125,71.3945 Q400.0469,71.6445 400.0469,72.2539 L400.0469,74.2227 Q400.0469,74.7695 399.9219,74.957 Q399.6563,75.3477 399.2031,75.3477 Q398.7344,75.3477 398.4688,74.9414 Q398.3438,74.7539 398.3438,74.082 L396.8594,74.082 Z " fill="#000000"/><text fill="#000000" font-family="sans-serif" font-size="12" font-style="italic" lengthAdjust="spacing" textLength="43" x="415.5" y="60.9629">&#171;entity&#187;</text><text fill="#000000" font-family="sans-serif" font-size="12" font-style="italic" lengthAdjust="spacing" textLength="35" x="419.5" y="76.9238">&#171;root&#187;</text><text fill="#000000" font-family="sans-serif" font-size="14" lengthAdjust="spacing" textLength="50" x="412" y="95.043">Meeting</text><line style="stroke:#181818;stroke-width:0.5;" x1="384" x2="464" y1="103.5566" y2="103.5566"/><line style="stroke:#181818;stroke-width:0.5;" x1="384" x2="464" y1="111.5566" y2="111.5566"/></g><!--class ParticipationMeeting--><g id="elem_ParticipationMeeting"><rect codeLine="7" fill="#F1F1F1" height="60.582" id="ParticipationMeeting" rx="2.5" ry="2.5" style="stroke:#181818;stroke-width:0.5;" width="160" x="344" y="199.0137"/><ellipse cx="359" cy="221.3047" fill="#ADD1B2" rx="11" ry="11" style="stroke:#181818;stroke-width:1.0;"/><path d="M357.8594,222.1016 L357.8594,224.6016 L362.1875,224.6016 L362.1875,223.6797 Q362.1875,223.0703 362.4219,222.8047 Q362.6719,222.5391 363.0469,222.5391 Q363.4219,222.5391 363.6563,222.8047 Q363.8906,223.0703 363.8906,223.6797 L363.8906,226.3047 L355.8906,226.3047 Q355.2656,226.3047 355,226.0703 Q354.75,225.8359 354.75,225.4453 Q354.75,225.0703 355.0156,224.8359 Q355.2813,224.6016 355.8906,224.6016 L356.1563,224.6016 L356.1563,217.9453 L355.8906,217.9453 Q355.2656,217.9453 355,217.7109 Q354.75,217.4766 354.75,217.0859 Q354.75,216.7109 355,216.4766 Q355.2656,216.2422 355.8906,216.2422 L363.5156,216.2422 L363.5156,218.8359 Q363.5156,219.4453 363.2813,219.7109 Q363.0625,219.9609 362.6719,219.9609 Q362.2969,219.9609 362.0625,219.7109 Q361.8281,219.4453 361.8281,218.8359 L361.8281,217.9453 L357.8594,217.9453 L357.8594,220.3984 L359.3438,220.3984 Q359.3438,219.7422 359.4688,219.5547 Q359.7344,219.1484 360.2031,219.1484 Q360.5781,219.1484 360.8125,219.4141 Q361.0469,219.6641 361.0469,220.2734 L361.0469,222.2422 Q361.0469,222.7891 360.9219,222.9766 Q360.6563,223.3672 360.2031,223.3672 Q359.7344,223.3672 359.4688,222.9609 Q359.3438,222.7734 359.3438,222.1016 L357.8594,222.1016 Z " fill="#000000"/><text fill="#000000" font-family="sans-serif" font-size="12" font-style="italic" lengthAdjust="spacing" textLength="43" x="415.5" y="216.9629">&#171;entity&#187;</text><text fill="#000000" font-family="sans-serif" font-size="14" lengthAdjust="spacing" textLength="128" x="373" y="235.082">ParticipationMeeting</text><line style="stroke:#181818;stroke-width:0.5;" x1="345" x2="503" y1="243.5957" y2="243.5957"/><line style="stroke:#181818;stroke-width:0.5;" x1="345" x2="503" y1="251.5957" y2="251.5957"/></g><!--class ParticipationMeetingStatus--><g id="elem_ParticipationMeetingStatus"><rect codeLine="8" fill="#F1F1F1" height="60.582" id="ParticipationMeetingStatus" rx="2.5" ry="2.5" style="stroke:#181818;stroke-width:0.5;" width="200" x="309" y="370.0137"/><ellipse cx="324" cy="392.3047" fill="#FF8B40" rx="11" ry="11" style="stroke:#181818;stroke-width:1.0;"/><path d="M324.5938,395.5703 L327.0625,389.6953 L326.6719,389.6953 Q326.0625,389.6953 325.7969,389.4609 Q325.5313,389.2266 325.5313,388.8359 Q325.5313,388.4609 325.7969,388.2266 Q326.0625,387.9922 326.6719,387.9922 L328.9531,387.9922 Q329.5625,387.9922 329.8281,388.2266 Q330.0938,388.4609 330.0938,388.8359 Q330.0938,389.3047 329.6875,389.5703 Q329.5,389.6953 328.9063,389.6953 L325.4219,398.0547 L323.7813,398.0547 L320.2969,389.6953 Q319.7031,389.6953 319.5156,389.5703 Q319.1094,389.3047 319.1094,388.8359 Q319.1094,388.4609 319.375,388.2266 Q319.6406,387.9922 320.25,387.9922 L322.5469,387.9922 Q323.1563,387.9922 323.4063,388.2266 Q323.6719,388.4609 323.6719,388.8359 Q323.6719,389.2266 323.4063,389.4609 Q323.1563,389.6953 322.5469,389.6953 L322.1406,389.6953 L324.5938,395.5703 Z " fill="#000000"/><text fill="#000000" font-family="sans-serif" font-size="12" font-style="italic" lengthAdjust="spacing" textLength="81" x="381.5" y="387.9629">&#171;value object&#187;</text><text fill="#000000" font-family="sans-serif" font-size="14" lengthAdjust="spacing" textLength="168" x="338" y="406.082">ParticipationMeetingStatus</text><line style="stroke:#181818;stroke-width:0.5;" x1="310" x2="508" y1="414.5957" y2="414.5957"/><line style="stroke:#181818;stroke-width:0.5;" x1="310" x2="508" y1="422.5957" y2="422.5957"/></g><!--class SystemUser--><g id="elem_SystemUser"><rect codeLine="19" fill="#F1F1F1" height="76.543" id="SystemUser" rx="2.5" ry="2.5" style="stroke:#181818;stroke-width:0.5;" width="107" x="565.5" y="362.0137"/><ellipse cx="580.5" cy="392.2852" fill="#ADD1B2" rx="11" ry="11" style="stroke:#181818;stroke-width:1.0;"/><path d="M579.3594,393.082 L579.3594,395.582 L583.6875,395.582 L583.6875,394.6602 Q583.6875,394.0508 583.9219,393.7852 Q584.1719,393.5195 584.5469,393.5195 Q584.9219,393.5195 585.1563,393.7852 Q585.3906,394.0508 585.3906,394.6602 L585.3906,397.2852 L577.3906,397.2852 Q576.7656,397.2852 576.5,397.0508 Q576.25,396.8164 576.25,396.4258 Q576.25,396.0508 576.5156,395.8164 Q576.7813,395.582 577.3906,395.582 L577.6563,395.582 L577.6563,388.9258 L577.3906,388.9258 Q576.7656,388.9258 576.5,388.6914 Q576.25,388.457 576.25,388.0664 Q576.25,387.6914 576.5,387.457 Q576.7656,387.2227 577.3906,387.2227 L585.0156,387.2227 L585.0156,389.8164 Q585.0156,390.4258 584.7813,390.6914 Q584.5625,390.9414 584.1719,390.9414 Q583.7969,390.9414 583.5625,390.6914 Q583.3281,390.4258 583.3281,389.8164 L583.3281,388.9258 L579.3594,388.9258 L579.3594,391.3789 L580.8438,391.3789 Q580.8438,390.7227 580.9688,390.5352 Q581.2344,390.1289 581.7031,390.1289 Q582.0781,390.1289 582.3125,390.3945 Q582.5469,390.6445 582.5469,391.2539 L582.5469,393.2227 Q582.5469,393.7695 582.4219,393.957 Q582.1563,394.3477 581.7031,394.3477 Q581.2344,394.3477 580.9688,393.9414 Q580.8438,393.7539 580.8438,393.082 L579.3594,393.082 Z " fill="#000000"/><text fill="#000000" font-family="sans-serif" font-size="12" font-style="italic" lengthAdjust="spacing" textLength="43" x="610.5" y="379.9629">&#171;entity&#187;</text><text fill="#000000" font-family="sans-serif" font-size="12" font-style="italic" lengthAdjust="spacing" textLength="35" x="614.5" y="395.9238">&#171;root&#187;</text><text fill="#000000" font-family="sans-serif" font-size="14" lengthAdjust="spacing" textLength="75" x="594.5" y="414.043">SystemUser</text><line style="stroke:#181818;stroke-width:0.5;" x1="566.5" x2="671.5" y1="422.5566" y2="422.5566"/><line style="stroke:#181818;stroke-width:0.5;" x1="566.5" x2="671.5" y1="430.5566" y2="430.5566"/></g><!--class Event--><g id="elem_Event"><rect codeLine="13" fill="#F1F1F1" height="60.582" id="Event" rx="2.5" ry="2.5" style="stroke:#181818;stroke-width:0.5;" width="86" x="176" y="199.0137"/><ellipse cx="191" cy="221.3047" fill="#A9DCDF" rx="11" ry="11" style="stroke:#181818;stroke-width:1.0;"/><path d="M193.1875,223.0703 L189.0469,223.0703 L188.625,224.1016 L189.0469,224.1016 Q189.6563,224.1016 189.9219,224.3359 Q190.1875,224.5703 190.1875,224.9609 Q190.1875,225.3359 189.9219,225.5703 Q189.6563,225.8047 189.0469,225.8047 L186.75,225.8047 Q186.1406,225.8047 185.8906,225.5703 Q185.625,225.3359 185.625,224.9453 Q185.625,224.5703 185.9063,224.3359 Q186.1719,224.0859 186.7969,224.1016 L189.4688,217.4453 L188.3594,217.4453 Q187.75,217.4453 187.4844,217.2109 Q187.2188,216.9766 187.2188,216.5859 Q187.2188,216.2109 187.4844,215.9766 Q187.75,215.7422 188.3594,215.7422 L192.0313,215.7422 L195.4219,224.1016 Q196.0156,224.1016 196.2031,224.2422 Q196.5938,224.5078 196.5938,224.9609 Q196.5938,225.3359 196.3281,225.5703 Q196.0781,225.8047 195.4688,225.8047 L193.1719,225.8047 Q192.5625,225.8047 192.2969,225.5703 Q192.0313,225.3359 192.0313,224.9453 Q192.0313,224.5703 192.2969,224.3359 Q192.5625,224.1016 193.1719,224.1016 L193.5938,224.1016 L193.1875,223.0703 Z M192.4688,221.3672 L191.1094,217.9922 L189.7344,221.3672 L192.4688,221.3672 Z " fill="#000000"/><text fill="#000000" font-family="sans-serif" font-size="12" font-style="italic" lengthAdjust="spacing" textLength="58" x="203" y="216.9629">&#171;abstract&#187;</text><text fill="#000000" font-family="sans-serif" font-size="14" font-style="italic" lengthAdjust="spacing" textLength="35" x="214.5" y="235.082">Event</text><line style="stroke:#181818;stroke-width:0.5;" x1="177" x2="261" y1="243.5957" y2="243.5957"/><line style="stroke:#181818;stroke-width:0.5;" x1="177" x2="261" y1="251.5957" y2="251.5957"/></g><!--class EventDuration--><g id="elem_EventDuration"><rect codeLine="14" fill="#F1F1F1" height="60.582" id="EventDuration" rx="2.5" ry="2.5" style="stroke:#181818;stroke-width:0.5;" width="122" x="7" y="370.0137"/><ellipse cx="22" cy="392.3047" fill="#FF8B40" rx="11" ry="11" style="stroke:#181818;stroke-width:1.0;"/><path d="M22.5938,395.5703 L25.0625,389.6953 L24.6719,389.6953 Q24.0625,389.6953 23.7969,389.4609 Q23.5313,389.2266 23.5313,388.8359 Q23.5313,388.4609 23.7969,388.2266 Q24.0625,387.9922 24.6719,387.9922 L26.9531,387.9922 Q27.5625,387.9922 27.8281,388.2266 Q28.0938,388.4609 28.0938,388.8359 Q28.0938,389.3047 27.6875,389.5703 Q27.5,389.6953 26.9063,389.6953 L23.4219,398.0547 L21.7813,398.0547 L18.2969,389.6953 Q17.7031,389.6953 17.5156,389.5703 Q17.1094,389.3047 17.1094,388.8359 Q17.1094,388.4609 17.375,388.2266 Q17.6406,387.9922 18.25,387.9922 L20.5469,387.9922 Q21.1563,387.9922 21.4063,388.2266 Q21.6719,388.4609 21.6719,388.8359 Q21.6719,389.2266 21.4063,389.4609 Q21.1563,389.6953 20.5469,389.6953 L20.1406,389.6953 L22.5938,395.5703 Z " fill="#000000"/><text fill="#000000" font-family="sans-serif" font-size="12" font-style="italic" lengthAdjust="spacing" textLength="81" x="40.5" y="387.9629">&#171;value object&#187;</text><text fill="#000000" font-family="sans-serif" font-size="14" lengthAdjust="spacing" textLength="90" x="36" y="406.082">EventDuration</text><line style="stroke:#181818;stroke-width:0.5;" x1="8" x2="128" y1="414.5957" y2="414.5957"/><line style="stroke:#181818;stroke-width:0.5;" x1="8" x2="128" y1="422.5957" y2="422.5957"/></g><!--class EventDate--><g id="elem_EventDate"><rect codeLine="15" fill="#F1F1F1" height="60.582" id="EventDate" rx="2.5" ry="2.5" style="stroke:#181818;stroke-width:0.5;" width="109" x="164.5" y="370.0137"/><ellipse cx="179.5" cy="392.3047" fill="#FF8B40" rx="11" ry="11" style="stroke:#181818;stroke-width:1.0;"/><path d="M180.0938,395.5703 L182.5625,389.6953 L182.1719,389.6953 Q181.5625,389.6953 181.2969,389.4609 Q181.0313,389.2266 181.0313,388.8359 Q181.0313,388.4609 181.2969,388.2266 Q181.5625,387.9922 182.1719,387.9922 L184.4531,387.9922 Q185.0625,387.9922 185.3281,388.2266 Q185.5938,388.4609 185.5938,388.8359 Q185.5938,389.3047 185.1875,389.5703 Q185,389.6953 184.4063,389.6953 L180.9219,398.0547 L179.2813,398.0547 L175.7969,389.6953 Q175.2031,389.6953 175.0156,389.5703 Q174.6094,389.3047 174.6094,388.8359 Q174.6094,388.4609 174.875,388.2266 Q175.1406,387.9922 175.75,387.9922 L178.0469,387.9922 Q178.6563,387.9922 178.9063,388.2266 Q179.1719,388.4609 179.1719,388.8359 Q179.1719,389.2266 178.9063,389.4609 Q178.6563,389.6953 178.0469,389.6953 L177.6406,389.6953 L180.0938,395.5703 Z " fill="#000000"/><text fill="#000000" font-family="sans-serif" font-size="12" font-style="italic" lengthAdjust="spacing" textLength="81" x="191.5" y="387.9629">&#171;value object&#187;</text><text fill="#000000" font-family="sans-serif" font-size="14" lengthAdjust="spacing" textLength="66" x="199" y="406.082">EventDate</text><line style="stroke:#181818;stroke-width:0.5;" x1="165.5" x2="272.5" y1="414.5957" y2="414.5957"/><line style="stroke:#181818;stroke-width:0.5;" x1="165.5" x2="272.5" y1="422.5957" y2="422.5957"/></g><!--link Meeting to Event--><g id="link_Meeting_Event"><path codeLine="24" d="M382.52,112.0637 C352.23,133.6337 310.77,163.1537 277.17,187.0837 " fill="none" id="Meeting-to-Event" style="stroke:#181818;stroke-width:1.0;"/><polygon fill="none" points="280.77,193.1137,260.42,199.0137,272.65,181.7037,280.77,193.1137" style="stroke:#181818;stroke-width:1.0;"/></g><!--link Meeting to ParticipationMeeting--><g id="link_Meeting_ParticipationMeeting"><path codeLine="25" d="M424,120.1137 C424,142.7937 424,171.4937 424,193.6637 " fill="none" id="Meeting-to-ParticipationMeeting" style="stroke:#181818;stroke-width:1.0;"/><polygon fill="#181818" points="424,198.8637,428,189.8637,424,193.8637,420,189.8637,424,198.8637" style="stroke:#181818;stroke-width:1.0;"/><polygon fill="#000000" points="429,164.6592,431.9389,155.6141,426.0611,155.6141,429,164.6592" style="stroke:#000000;stroke-width:1.0;"/><text fill="#000000" font-family="sans-serif" font-size="13" lengthAdjust="spacing" textLength="43" x="438" y="165.042">creates</text><text fill="#000000" font-family="sans-serif" font-size="13" lengthAdjust="spacing" textLength="7" x="416.4422" y="141.7082">1</text><text fill="#000000" font-family="sans-serif" font-size="13" lengthAdjust="spacing" textLength="20" x="401.9375" y="187.8904">1..*</text></g><!--link Meeting to SystemUser--><g id="link_Meeting_SystemUser"><path codeLine="26" d="M463.4,120.2137 C472.51,129.6237 481.9,139.9137 490,150.0137 C542.19,215.0337 582.21,304.5037 603.04,356.7537 " fill="none" id="Meeting-to-SystemUser" style="stroke:#181818;stroke-width:1.0;"/><polygon fill="#181818" points="604.99,361.6937,605.424,351.8544,603.1626,357.0396,597.9774,354.7782,604.99,361.6937" style="stroke:#181818;stroke-width:1.0;"/><polygon fill="#000000" points="565.5418,233.9649,563.4744,224.6817,558.4128,227.6699,565.5418,233.9649" style="stroke:#000000;stroke-width:1.0;"/><text fill="#000000" font-family="sans-serif" font-size="13" lengthAdjust="spacing" textLength="71" x="572" y="235.042">managed by</text><text fill="#000000" font-family="sans-serif" font-size="13" lengthAdjust="spacing" textLength="20" x="447.9019" y="141.5268">0..*</text><text fill="#000000" font-family="sans-serif" font-size="13" lengthAdjust="spacing" textLength="7" x="594.9805" y="350.6532">1</text></g><!--link ParticipationMeeting to ParticipationMeetingStatus--><g id="link_ParticipationMeeting_ParticipationMeetingStatus"><path codeLine="28" d="M421.35,260.3337 C418.76,289.5437 414.81,334.0137 412.08,364.7837 " fill="none" id="ParticipationMeeting-to-ParticipationMeetingStatus" style="stroke:#181818;stroke-width:1.0;"/><polygon fill="#181818" points="411.62,369.9837,416.4006,361.3729,412.0624,365.0033,408.432,360.6651,411.62,369.9837" style="stroke:#181818;stroke-width:1.0;"/></g><!--link ParticipationMeeting to SystemUser--><g id="link_ParticipationMeeting_SystemUser"><path codeLine="29" d="M458.68,260.0337 C478.21,276.7037 503.02,297.9537 525,317.0137 C540.43,330.3837 557.2,345.0637 572.26,358.2937 " fill="none" id="ParticipationMeeting-to-SystemUser" style="stroke:#181818;stroke-width:1.0;"/><polygon fill="#181818" points="576.04,361.6237,571.9176,352.6791,572.2833,358.3241,566.6383,358.6897,576.04,361.6237" style="stroke:#181818;stroke-width:1.0;"/><polygon fill="#000000" points="522.7813,302.9305,517.8637,294.79,514.018,299.2353,522.7813,302.9305" style="stroke:#000000;stroke-width:1.0;"/><text fill="#000000" font-family="sans-serif" font-size="13" lengthAdjust="spacing" textLength="21" x="528" y="305.042">has</text><text fill="#000000" font-family="sans-serif" font-size="13" lengthAdjust="spacing" textLength="20" x="443.3846" y="281.5678">0..*</text><text fill="#000000" font-family="sans-serif" font-size="13" lengthAdjust="spacing" textLength="20" x="547.2685" y="350.865">1..*</text></g><!--link Event to EventDuration--><g id="link_Event_EventDuration"><path codeLine="31" d="M192.35,260.3337 C165.94,289.9037 125.54,335.1137 98.01,365.9237 " fill="none" id="Event-to-EventDuration" style="stroke:#181818;stroke-width:1.0;"/><polygon fill="#181818" points="94.38,369.9837,103.3576,365.9336,97.7098,366.2537,97.3897,360.6059,94.38,369.9837" style="stroke:#181818;stroke-width:1.0;"/></g><!--link Event to EventDate--><g id="link_Event_EventDate"><path codeLine="32" d="M219,260.3337 C219,289.5437 219,334.0137 219,364.7837 " fill="none" id="Event-to-EventDate" style="stroke:#181818;stroke-width:1.0;"/><polygon fill="#181818" points="219,369.9837,223,360.9837,219,364.9837,215,360.9837,219,369.9837" style="stroke:#181818;stroke-width:1.0;"/></g><!--SRC=[XL71JeD04BtlLqpmK3NIrCI3QJPxCDgRYKcZzm4sY1QMx0urHFll3ei8w3Rb0ioyDs_U6p8ra87449aIiiBgb0fJ2R5ur9gAAXSrfk-OQuYan3otEaVIIi5FEu9F0VpeYWfgXof8sHSOAAKrXfIQmfxGKf4MDNPQ_paUckxGkI1oIqYDO_pvonMSRJQtTpUh2zZZhj5WaZTsm2F4WJqyx7camCIHnPJ0_p9lA32iL_6D-yPwbHE3fmoEujGQYsthI9VFJjjZKOw8FscEZL2WZFNWGsTr236ElrI_t6yfkewuhFYzN5v6uUpNa5hDspXG8s_byJqrcYwpXX8hDf91qZ9114V6cVcec7lyWc7UJDP_pfHViTjHzASSD6Rt2_ROc_W6]--></g></svg>