<?xml version="1.0" encoding="us-ascii" standalone="no"?><svg xmlns="http://www.w3.org/2000/svg" xmlns:xlink="http://www.w3.org/1999/xlink" contentStyleType="text/css" height="445px" preserveAspectRatio="none" style="width:474px;height:445px;background:#FFFFFF;" version="1.1" viewBox="0 0 474 445" width="474px" zoomAndPan="magnify"><defs/><g><text fill="#000000" font-family="sans-serif" font-size="14" font-weight="bold" lengthAdjust="spacing" textLength="296" x="88.25" y="30.1074">System Sequence Diagram (SSD) - US 4001</text><polygon fill="#FFFFFF" points="17.5,133.2422,17.5,133.3122,19.5,133.1041,21.5,133.3066,23.5,133.3754,25.5,133.0044,27.5,133.2422,27.4223,133.2422,27.0735,143.2916,27.1165,153.341,27.4318,163.3903,26.8086,173.4397,28.0536,183.4891,26.8697,193.5385,27.3022,203.5879,27.9319,213.6373,27.4142,223.6867,27.5682,233.736,27.4681,243.7854,27.6785,253.8348,27.7391,263.8842,28.0857,273.9336,28.1711,283.983,28.1793,294.0324,27.7546,304.0818,27.9636,314.1311,28.2022,324.1805,26.7788,334.2299,27.5,344.2793,27.5,344.5055,25.5,344.1805,23.5,344.4572,21.5,344.1143,19.5,344.2565,17.5,344.2793,18.2416,344.2793,17.4513,334.2299,17.6053,324.1805,17.8386,314.1311,17.9162,304.0818,17.4961,294.0324,17.7872,283.983,16.9276,273.9336,17.7844,263.8842,18.0482,253.8348,17.9445,243.7854,18.113,233.736,17.0169,223.6867,16.8478,213.6373,16.8786,203.5879,17.4411,193.5385,17.3035,183.4891,18.1814,173.4397,17.3253,163.3903,17.1569,153.341,17.7283,143.2916,17.5,133.2422" style="stroke:#181818;stroke-width:1.0;"/><polygon fill="#FFFFFF" points="429.5,156.5332,429.5,156.6033,431.5,156.3951,433.5,156.5976,435.5,156.6664,437.5,156.2954,439.5,156.5332,439.4741,156.5332,439.3578,162.7914,439.3722,169.0496,439.4773,175.3078,439.2695,181.566,439.5,187.8242,439.5,188.0088,437.5,187.6141,435.5,187.7583,433.5,187.9682,431.5,187.7956,429.5,187.8242,429.5227,187.8242,429.4894,181.566,429.5595,175.3078,429.5797,169.0496,429.6952,162.7914,429.5,156.5332" style="stroke:#181818;stroke-width:1.0;"/><polygon fill="#FFFFFF" points="429.5,219.1152,429.5,219.1853,431.5,218.9771,433.5,219.1797,435.5,219.2485,437.5,218.8774,439.5,219.1152,439.4223,219.1152,439.0735,229.5456,439.1165,239.9759,439.4318,250.4063,438.8086,260.8366,440.0536,271.2669,439.5,281.6973,439.5,281.4872,437.5,281.6313,435.5,281.8412,433.5,281.6687,431.5,281.72,429.5,281.6973,429.4681,281.6973,429.6785,271.2669,429.7391,260.8366,430.0857,250.4063,430.1711,239.9759,430.1793,229.5456,429.5,219.1152" style="stroke:#181818;stroke-width:1.0;"/><polygon fill="#FFFFFF" points="429.5,312.9883,429.5,313.0583,431.5,312.8502,433.5,313.0527,435.5,313.1215,437.5,312.7505,439.5,312.9883,439.4741,312.9883,439.3578,319.2465,439.3722,325.5047,439.4773,331.7629,439.2695,338.0211,439.5,344.2793,439.5,344.4638,437.5,344.0692,435.5,344.2134,433.5,344.4233,431.5,344.2507,429.5,344.2793,429.5227,344.2793,429.4894,338.0211,429.5595,331.7629,429.5797,325.5047,429.6952,319.2465,429.5,312.9883" style="stroke:#181818;stroke-width:1.0;"/><path d="M22,123.2422 L22.2802,123.2422 L21.4476,133.2021 L22.2577,143.1619 L22.5329,153.1218 L21.0488,163.0817 L21.8964,173.0416 L21.4313,183.0015 L21.4887,192.9613 L21.9091,202.9212 L21.0782,212.8811 L22.7382,222.841 L21.1596,232.8009 L21.7363,242.7607 L22.5759,252.7206 L21.8856,262.6805 L22.091,272.6404 L21.9574,282.6003 L22.238,292.5601 L22.3188,302.52 L22.7809,312.4799 L22.8947,322.4398 L22.9057,332.3997 L22.3395,342.3595 L22.6181,352.3194 L22,362.2793 " fill="none" style="stroke:#181818;stroke-width:0.5;stroke-dasharray:5.0,5.0;"/><path d="M434.5,123.2422 L434.7802,123.2422 L433.9476,133.2021 L434.7577,143.1619 L435.0329,153.1218 L433.5488,163.0817 L434.3964,173.0416 L433.9313,183.0015 L433.9887,192.9613 L434.4091,202.9212 L433.5782,212.8811 L435.2382,222.841 L433.6596,232.8009 L434.2363,242.7607 L435.0759,252.7206 L434.3856,262.6805 L434.591,272.6404 L434.4574,282.6003 L434.738,292.5601 L434.8188,302.52 L435.2809,312.4799 L435.3947,322.4398 L435.4057,332.3997 L434.8395,342.3595 L435.1181,352.3194 L434.5,362.2793 " fill="none" style="stroke:#181818;stroke-width:0.5;stroke-dasharray:5.0,5.0;"/><text fill="#000000" font-family="sans-serif" font-size="14" lengthAdjust="spacing" textLength="29" x="5" y="119.7285">User</text><polygon fill="#E3E3E3" points="30.5442,55.067,29.3715,56.6693,27.9845,59.0162,26.0008,60.5977,23.9163,61.4626,22.2542,61.5377,20.118,60.456,18.1023,59.7494,16.5724,58.3147,15.7699,56.6722,15.2939,55.3644,14.8277,53.6561,14.0709,52.1862,14.6525,50.7509,15.162,49.1787,17.074,47.9353,18.4192,46.3219,20.0843,45.7861,22.0637,45.3248,24.6021,45.5989,25.9924,46.2546,27.6089,46.5518,29.5743,48.5654,30.2595,50.6912,30.5571,52.1417,30.22,54.5319" style="stroke:#181818;stroke-width:0.5;"/><path d="M22.5,61.1211 L22.6868,61.1211 L22.1317,66.5211 L22.6718,71.9211 L22.8553,77.3211 L21.8659,82.7211 L22.5,88.1211 M9.5,69.1211 L9.5,69.052 L14.7,68.742 L19.9,68.7802 L25.1,69.0605 L30.3,68.5065 L35.5,69.1211 M22.5,88.1211 L22.8719,88.4434 L19.4766,90.7542 L17.1672,94.006 L14.9901,97.3726 L12.0424,100.0712 L9.5,103.1211 M22.5,88.1211 L22.5458,88.1608 L25.0785,91.1025 L27.8199,94.225 L30.4606,97.2603 L33.2934,100.4621 L35.5,103.1211 " fill="none" style="stroke:#181818;stroke-width:0.5;"/><text fill="#000000" font-family="sans-serif" font-size="14" lengthAdjust="spacing" textLength="29" x="5" y="376.3867">User</text><polygon fill="#E3E3E3" points="30.5442,390.3463,29.3715,391.9486,27.9845,394.2954,26.0008,395.877,23.9163,396.7419,22.2542,396.817,20.118,395.7353,18.1023,395.0287,16.5724,393.594,15.7699,391.9515,15.2939,390.6437,14.8277,388.9354,14.0709,387.4655,14.6525,386.0302,15.162,384.458,17.074,383.2146,18.4192,381.6012,20.0843,381.0654,22.0637,380.6041,24.6021,380.8782,25.9924,381.5339,27.6089,381.8311,29.5743,383.8447,30.2595,385.9705,30.5571,387.421,30.22,389.8112" style="stroke:#181818;stroke-width:0.5;"/><path d="M22.5,396.4004 L22.6868,396.4004 L22.1317,401.8004 L22.6718,407.2004 L22.8553,412.6004 L21.8659,418.0004 L22.5,423.4004 M9.5,404.4004 L9.5,404.3313 L14.7,404.0213 L19.9,404.0595 L25.1,404.3398 L30.3,403.7858 L35.5,404.4004 M22.5,423.4004 L22.8719,423.7227 L19.4766,426.0335 L17.1672,429.2853 L14.9901,432.6519 L12.0424,435.3505 L9.5,438.4004 M22.5,423.4004 L22.5458,423.4401 L25.0785,426.3818 L27.8199,429.5043 L30.4606,432.5396 L33.2934,435.7414 L35.5,438.4004 " fill="none" style="stroke:#181818;stroke-width:0.5;"/><polygon fill="#E3E3E3" points="403,89.6211,403,89.8313,413.5,89.2068,424,89.8144,434.5,90.0208,445,88.9077,455.5,89.5434,466,89.6211,465.9456,89.4898,466.3046,89.6494,466.6984,89.893,466.9725,89.8475,467.4848,90.3774,467.7678,90.3533,467.5737,90.2729,467.8533,90.6817,468.1937,91.1155,468.1807,91.403,468.3746,91.7762,468.5,92.1211,468.4894,92.1211,468.5595,97.6453,468.5797,103.1695,468.6952,108.6938,468.7237,114.218,468.5,119.7422,468.7092,119.8288,468.432,120.1282,468.3499,120.5084,468.2769,120.8924,467.6921,121.0644,467.7678,121.51,467.8543,121.7189,467.3764,121.5651,467.1288,121.9672,466.644,121.7968,466.3448,122.0746,466,122.2422,466,122.9838,455.5,122.1935,445,122.3475,434.5,122.5808,424,122.6584,413.5,122.2383,403,122.2422,403.0366,122.3306,402.5734,121.9195,402.3292,122.0369,402.0093,121.9717,401.6425,121.7933,401.2322,121.51,401.421,121.5882,400.937,121.0948,400.7385,120.7197,400.6015,120.37,400.6283,120.0882,400.5,119.7422,400.4345,119.7422,400.7271,114.218,400.4418,108.6938,400.3856,103.1695,400.5761,97.6453,400.5,92.1211,400.2946,92.036,400.4866,91.7013,400.9927,91.4968,401.0735,91.116,401.312,90.8006,401.2322,90.3533,401.1912,90.2542,401.6265,90.3052,402.0147,90.2423,402.2326,89.7685,402.6342,89.738,403,89.6211" style="stroke:#181818;stroke-width:0.5;"/><text fill="#000000" font-family="sans-serif" font-size="14" lengthAdjust="spacing" textLength="54" x="407.5" y="111.7285">:Sistema</text><polygon fill="#E3E3E3" points="403,361.2793,403,361.4895,413.5,360.865,424,361.4726,434.5,361.679,445,360.5659,455.5,361.2016,466,361.2793,465.9456,361.148,466.3046,361.3076,466.6984,361.5512,466.9725,361.5057,467.4848,362.0356,467.7678,362.0115,467.5737,361.9311,467.8533,362.3399,468.1937,362.7737,468.1807,363.0612,468.3746,363.4344,468.5,363.7793,468.4894,363.7793,468.5595,369.3035,468.5797,374.8277,468.6952,380.352,468.7237,385.8762,468.5,391.4004,468.7092,391.487,468.432,391.7864,468.3499,392.1666,468.2769,392.5506,467.6921,392.7226,467.7678,393.1682,467.8543,393.3771,467.3764,393.2233,467.1288,393.6254,466.644,393.4551,466.3448,393.7328,466,393.9004,466,394.642,455.5,393.8517,445,394.0057,434.5,394.239,424,394.3166,413.5,393.8965,403,393.9004,403.0366,393.9888,402.5734,393.5777,402.3292,393.6951,402.0093,393.6299,401.6425,393.4515,401.2322,393.1682,401.421,393.2464,400.937,392.753,400.7385,392.3779,400.6015,392.0282,400.6283,391.7464,400.5,391.4004,400.4345,391.4004,400.7271,385.8762,400.4418,380.352,400.3856,374.8277,400.5761,369.3035,400.5,363.7793,400.2946,363.6942,400.4866,363.3595,400.9927,363.155,401.0735,362.7742,401.312,362.4588,401.2322,362.0115,401.1912,361.9124,401.6265,361.9634,402.0147,361.9005,402.2326,361.4267,402.6342,361.3962,403,361.2793" style="stroke:#181818;stroke-width:0.5;"/><text fill="#000000" font-family="sans-serif" font-size="14" lengthAdjust="spacing" textLength="54" x="407.5" y="383.3867">:Sistema</text><polygon fill="#FFFFFF" points="17.5,133.2422,17.5,133.3122,19.5,133.1041,21.5,133.3066,23.5,133.3754,25.5,133.0044,27.5,133.2422,27.4223,133.2422,27.0735,143.2916,27.1165,153.341,27.4318,163.3903,26.8086,173.4397,28.0536,183.4891,26.8697,193.5385,27.3022,203.5879,27.9319,213.6373,27.4142,223.6867,27.5682,233.736,27.4681,243.7854,27.6785,253.8348,27.7391,263.8842,28.0857,273.9336,28.1711,283.983,28.1793,294.0324,27.7546,304.0818,27.9636,314.1311,28.2022,324.1805,26.7788,334.2299,27.5,344.2793,27.5,344.5055,25.5,344.1805,23.5,344.4572,21.5,344.1143,19.5,344.2565,17.5,344.2793,18.2416,344.2793,17.4513,334.2299,17.6053,324.1805,17.8386,314.1311,17.9162,304.0818,17.4961,294.0324,17.7872,283.983,16.9276,273.9336,17.7844,263.8842,18.0482,253.8348,17.9445,243.7854,18.113,233.736,17.0169,223.6867,16.8478,213.6373,16.8786,203.5879,17.4411,193.5385,17.3035,183.4891,18.1814,173.4397,17.3253,163.3903,17.1569,153.341,17.7283,143.2916,17.5,133.2422" style="stroke:#181818;stroke-width:1.0;"/><polygon fill="#FFFFFF" points="429.5,156.5332,429.5,156.6033,431.5,156.3951,433.5,156.5976,435.5,156.6664,437.5,156.2954,439.5,156.5332,439.4741,156.5332,439.3578,162.7914,439.3722,169.0496,439.4773,175.3078,439.2695,181.566,439.5,187.8242,439.5,188.0088,437.5,187.6141,435.5,187.7583,433.5,187.9682,431.5,187.7956,429.5,187.8242,429.5227,187.8242,429.4894,181.566,429.5595,175.3078,429.5797,169.0496,429.6952,162.7914,429.5,156.5332" style="stroke:#181818;stroke-width:1.0;"/><polygon fill="#FFFFFF" points="429.5,219.1152,429.5,219.1853,431.5,218.9771,433.5,219.1797,435.5,219.2485,437.5,218.8774,439.5,219.1152,439.4223,219.1152,439.0735,229.5456,439.1165,239.9759,439.4318,250.4063,438.8086,260.8366,440.0536,271.2669,439.5,281.6973,439.5,281.4872,437.5,281.6313,435.5,281.8412,433.5,281.6687,431.5,281.72,429.5,281.6973,429.4681,281.6973,429.6785,271.2669,429.7391,260.8366,430.0857,250.4063,430.1711,239.9759,430.1793,229.5456,429.5,219.1152" style="stroke:#181818;stroke-width:1.0;"/><polygon fill="#FFFFFF" points="429.5,312.9883,429.5,313.0583,431.5,312.8502,433.5,313.0527,435.5,313.1215,437.5,312.7505,439.5,312.9883,439.4741,312.9883,439.3578,319.2465,439.3722,325.5047,439.4773,331.7629,439.2695,338.0211,439.5,344.2793,439.5,344.4638,437.5,344.0692,435.5,344.2134,433.5,344.4233,431.5,344.2507,429.5,344.2793,429.5227,344.2793,429.4894,338.0211,429.5595,331.7629,429.5797,325.5047,429.6952,319.2465,429.5,312.9883" style="stroke:#181818;stroke-width:1.0;"/><polygon fill="#181818" points="417.5,152.5332,417.526,152.5983,419.4487,153.205,421.5239,154.193,423.5495,155.0569,425.4117,155.5124,427.5,156.5332,427.4904,156.5092,425.4472,157.2012,423.4525,158.0145,421.4916,158.9121,419.4144,159.5192,417.5,160.5332,417.6305,160.6637,418.1514,159.5846,419.0534,158.8866,420.0018,158.235,420.6798,157.313,421.5,156.5332,421.5161,156.5493,420.6925,155.7257,419.9421,154.9753,419.1564,154.1896,418.438,153.4713,417.5,152.5332" style="stroke:#181818;stroke-width:1.0;"/><path d="M27.5,156.5332 L27.5,156.8134 L37.4,155.9808 L47.3,156.7909 L57.2,157.0661 L67.1,155.582 L77,156.4296 L86.9,155.9645 L96.8,156.0219 L106.7,156.4423 L116.6,155.6114 L126.5,157.2714 L136.4,155.6928 L146.3,156.2695 L156.2,157.1091 L166.1,156.4188 L176,156.6242 L185.9,156.4906 L195.8,156.7712 L205.7,156.852 L215.6,157.3141 L225.5,157.4279 L235.4,157.4389 L245.3,156.8727 L255.2,157.1513 L265.1,157.4695 L275,155.5716 L284.9,157.4379 L294.8,156.1379 L304.7,157.245 L314.6,155.8732 L324.5,156.4419 L334.4,157.522 L344.3,156.4682 L354.2,156.6736 L364.1,156.9847 L374,157.0882 L383.9,156.528 L393.8,156.9162 L403.7,155.77 L413.6,156.9124 L423.5,156.5332 " fill="none" style="stroke:#181818;stroke-width:1.0;"/><text fill="#000000" font-family="sans-serif" font-size="13" font-weight="bold" lengthAdjust="spacing" textLength="7" x="34.5" y="151.2705">1</text><text fill="#000000" font-family="sans-serif" font-size="13" lengthAdjust="spacing" textLength="178" x="45.5" y="151.2705">Pede para marcar uma reuni&#227;o</text><polygon fill="#181818" points="38.5,183.8242,38.526,183.8893,36.4487,184.496,34.5239,185.484,32.5495,186.3479,30.4117,186.8034,28.5,187.8242,28.4904,187.8002,30.4472,188.4922,32.4525,189.3055,34.4916,190.2031,36.4144,190.8102,38.5,191.8242,38.6305,191.9547,37.5514,190.8757,36.8534,190.1776,36.2018,189.526,35.2798,188.604,34.5,187.8242,34.5161,187.8403,35.2925,187.0167,36.1421,186.2663,36.9564,185.4806,37.838,184.7623,38.5,183.8242" style="stroke:#181818;stroke-width:1.0;"/><path d="M32.5,187.8242 L32.5,188.1045 L42.525,187.2718 L52.55,188.0819 L62.575,188.3571 L72.6,186.873 L82.625,187.7206 L92.65,187.2556 L102.675,187.3129 L112.7,187.7333 L122.725,186.9024 L132.75,188.5624 L142.775,186.9838 L152.8,187.5605 L162.825,188.4001 L172.85,187.7098 L182.875,187.9152 L192.9,187.7816 L202.925,188.0623 L212.95,188.1431 L222.975,188.6051 L233,188.719 L243.025,188.7299 L253.05,188.1637 L263.075,188.4423 L273.1,188.7605 L283.125,186.8626 L293.15,188.7289 L303.175,187.4289 L313.2,188.536 L323.225,187.1642 L333.25,187.7329 L343.275,188.813 L353.3,187.7592 L363.325,187.9646 L373.35,188.2757 L383.375,188.3792 L393.4,187.819 L403.425,188.2072 L413.45,187.061 L423.475,188.2034 L433.5,187.8242 " fill="none" style="stroke:#181818;stroke-width:1.0;stroke-dasharray:2.0,2.0;"/><text fill="#000000" font-family="sans-serif" font-size="13" font-weight="bold" lengthAdjust="spacing" textLength="7" x="44.5" y="182.5615">2</text><text fill="#000000" font-family="sans-serif" font-size="13" lengthAdjust="spacing" textLength="201" x="55.5" y="182.5615">Pede a informa&#231;&#227;o sobre a reuni&#227;o</text><polygon fill="#181818" points="417.5,215.1152,417.526,215.1803,419.4487,215.787,421.5239,216.7751,423.5495,217.6389,425.4117,218.0944,427.5,219.1152,427.4904,219.0912,425.4472,219.7832,423.4525,220.5965,421.4916,221.4941,419.4144,222.1013,417.5,223.1152,417.6305,223.2457,418.1514,222.1667,419.0534,221.4686,420.0018,220.817,420.6798,219.895,421.5,219.1152,421.5161,219.1313,420.6925,218.3077,419.9421,217.5573,419.1564,216.7716,418.438,216.0533,417.5,215.1152" style="stroke:#181818;stroke-width:1.0;"/><path d="M27.5,219.1152 L27.5,219.3955 L37.4,218.5628 L47.3,219.3729 L57.2,219.6481 L67.1,218.164 L77,219.0116 L86.9,218.5466 L96.8,218.6039 L106.7,219.0244 L116.6,218.1934 L126.5,219.8534 L136.4,218.2749 L146.3,218.8515 L156.2,219.6912 L166.1,219.0009 L176,219.2062 L185.9,219.0726 L195.8,219.3533 L205.7,219.4341 L215.6,219.8962 L225.5,220.01 L235.4,220.0209 L245.3,219.4547 L255.2,219.7333 L265.1,220.0515 L275,218.1537 L284.9,220.0199 L294.8,218.7199 L304.7,219.827 L314.6,218.4552 L324.5,219.0239 L334.4,220.104 L344.3,219.0503 L354.2,219.2556 L364.1,219.5667 L374,219.6702 L383.9,219.11 L393.8,219.4982 L403.7,218.352 L413.6,219.4944 L423.5,219.1152 " fill="none" style="stroke:#181818;stroke-width:1.0;"/><text fill="#000000" font-family="sans-serif" font-size="13" font-weight="bold" lengthAdjust="spacing" textLength="7" x="34.5" y="213.8525">3</text><text fill="#000000" font-family="sans-serif" font-size="13" lengthAdjust="spacing" textLength="151" x="45.5" y="213.8525">T&#237;tulo, data, hora, dura&#231;&#227;o</text><polygon fill="#181818" points="38.5,246.4063,38.526,246.4713,36.4487,247.078,34.5239,248.0661,32.5495,248.9299,30.4117,249.3855,28.5,250.4063,28.4904,250.3822,30.4472,251.0743,32.4525,251.8876,34.4916,252.7852,36.4144,253.3923,38.5,254.4063,38.6305,254.5367,37.5514,253.4577,36.8534,252.7596,36.2018,252.1081,35.2798,251.186,34.5,250.4063,34.5161,250.4223,35.2925,249.5987,36.1421,248.8483,36.9564,248.0626,37.838,247.3443,38.5,246.4063" style="stroke:#181818;stroke-width:1.0;"/><path d="M32.5,250.4063 L32.5,250.6865 L42.4,249.8538 L52.3,250.664 L62.2,250.9392 L72.1,249.4551 L82,250.3026 L91.9,249.8376 L101.8,249.8949 L111.7,250.3154 L121.6,249.4844 L131.5,251.1444 L141.4,249.5659 L151.3,250.1426 L161.2,250.9822 L171.1,250.2919 L181,250.4972 L190.9,250.3637 L200.8,250.6443 L210.7,250.7251 L220.6,251.1872 L230.5,251.301 L240.4,251.3119 L250.3,250.7458 L260.2,251.0244 L270.1,251.3426 L280,249.4447 L289.9,251.3109 L299.8,250.0109 L309.7,251.118 L319.6,249.7462 L329.5,250.3149 L339.4,251.3951 L349.3,250.3413 L359.2,250.5467 L369.1,250.8578 L379,250.9612 L388.9,250.401 L398.8,250.7892 L408.7,249.643 L418.6,250.7854 L428.5,250.4063 " fill="none" style="stroke:#181818;stroke-width:1.0;stroke-dasharray:2.0,2.0;"/><text fill="#000000" font-family="sans-serif" font-size="13" font-weight="bold" lengthAdjust="spacing" textLength="7" x="44.5" y="245.1436">4</text><text fill="#000000" font-family="sans-serif" font-size="13" lengthAdjust="spacing" textLength="168" x="55.5" y="245.1436">Reuni&#227;o criada com sucesso</text><polygon fill="#181818" points="38.5,277.6973,38.526,277.7623,36.4487,278.369,34.5239,279.3571,32.5495,280.221,30.4117,280.6765,28.5,281.6973,28.4904,281.6732,30.4472,282.3653,32.4525,283.1786,34.4916,284.0762,36.4144,284.6833,38.5,285.6973,38.6305,285.8278,37.5514,284.7487,36.8534,284.0507,36.2018,283.3991,35.2798,282.477,34.5,281.6973,34.5161,281.7133,35.2925,280.8897,36.1421,280.1393,36.9564,279.3536,37.838,278.6353,38.5,277.6973" style="stroke:#181818;stroke-width:1.0;"/><path d="M32.5,281.6973 L32.5,281.9775 L42.525,281.1448 L52.55,281.955 L62.575,282.2302 L72.6,280.7461 L82.625,281.5936 L92.65,281.1286 L102.675,281.1859 L112.7,281.6064 L122.725,280.7754 L132.75,282.4355 L142.775,280.8569 L152.8,281.4336 L162.825,282.2732 L172.85,281.5829 L182.875,281.7883 L192.9,281.6547 L202.925,281.9353 L212.95,282.0161 L222.975,282.4782 L233,282.592 L243.025,282.6029 L253.05,282.0368 L263.075,282.3154 L273.1,282.6336 L283.125,280.7357 L293.15,282.6019 L303.175,281.3019 L313.2,282.409 L323.225,281.0372 L333.25,281.6059 L343.275,282.6861 L353.3,281.6323 L363.325,281.8377 L373.35,282.1488 L383.375,282.2522 L393.4,281.6921 L403.425,282.0802 L413.45,280.934 L423.475,282.0764 L433.5,281.6973 " fill="none" style="stroke:#181818;stroke-width:1.0;stroke-dasharray:2.0,2.0;"/><text fill="#000000" font-family="sans-serif" font-size="13" font-weight="bold" lengthAdjust="spacing" textLength="7" x="44.5" y="276.4346">5</text><text fill="#000000" font-family="sans-serif" font-size="13" lengthAdjust="spacing" textLength="180" x="55.5" y="276.4346">Lista os utilizadores existentes</text><polygon fill="#181818" points="417.5,308.9883,417.526,309.0533,419.4487,309.6601,421.5239,310.6481,423.5495,311.512,425.4117,311.9675,427.5,312.9883,427.4904,312.9642,425.4472,313.6563,423.4525,314.4696,421.4916,315.3672,419.4144,315.9743,417.5,316.9883,417.6305,317.1188,418.1514,316.0397,419.0534,315.3417,420.0018,314.6901,420.6798,313.7681,421.5,312.9883,421.5161,313.0044,420.6925,312.1808,419.9421,311.4304,419.1564,310.6446,418.438,309.9263,417.5,308.9883" style="stroke:#181818;stroke-width:1.0;"/><path d="M27.5,312.9883 L27.5,313.2685 L37.4,312.4359 L47.3,313.246 L57.2,313.5212 L67.1,312.0371 L77,312.8847 L86.9,312.4196 L96.8,312.4769 L106.7,312.8974 L116.6,312.0665 L126.5,313.7265 L136.4,312.1479 L146.3,312.7246 L156.2,313.5642 L166.1,312.8739 L176,313.0793 L185.9,312.9457 L195.8,313.2263 L205.7,313.3071 L215.6,313.7692 L225.5,313.883 L235.4,313.894 L245.3,313.3278 L255.2,313.6064 L265.1,313.9246 L275,312.0267 L284.9,313.893 L294.8,312.5929 L304.7,313.7 L314.6,312.3283 L324.5,312.8969 L334.4,313.9771 L344.3,312.9233 L354.2,313.1287 L364.1,313.4398 L374,313.5433 L383.9,312.9831 L393.8,313.3712 L403.7,312.2251 L413.6,313.3675 L423.5,312.9883 " fill="none" style="stroke:#181818;stroke-width:1.0;"/><text fill="#000000" font-family="sans-serif" font-size="13" font-weight="bold" lengthAdjust="spacing" textLength="7" x="34.5" y="307.7256">6</text><text fill="#000000" font-family="sans-serif" font-size="13" lengthAdjust="spacing" textLength="372" x="45.5" y="307.7256">Selecionar os utilizadores para serem convidados para a reuni&#227;o</text><polygon fill="#181818" points="33.5,340.2793,33.526,340.3443,31.4487,340.9511,29.5239,341.9391,27.5495,342.803,25.4117,343.2585,23.5,344.2793,23.4904,344.2552,25.4472,344.9473,27.4525,345.7606,29.4916,346.6582,31.4144,347.2653,33.5,348.2793,33.6305,348.4098,32.5514,347.3307,31.8534,346.6327,31.2018,345.9811,30.2798,345.0591,29.5,344.2793,29.5161,344.2954,30.2925,343.4718,31.1421,342.7214,31.9564,341.9357,32.838,341.2173,33.5,340.2793" style="stroke:#181818;stroke-width:1.0;"/><path d="M27.5,344.2793 L27.5,344.5595 L37.4024,343.7269 L47.3049,344.537 L57.2073,344.8122 L67.1098,343.3281 L77.0122,344.1757 L86.9146,343.7106 L96.8171,343.768 L106.7195,344.1884 L116.622,343.3575 L126.5244,345.0175 L136.4268,343.4389 L146.3293,344.0156 L156.2317,344.8552 L166.1341,344.1649 L176.0366,344.3703 L185.939,344.2367 L195.8415,344.5173 L205.7439,344.5981 L215.6463,345.0602 L225.5488,345.174 L235.4512,345.185 L245.3537,344.6188 L255.2561,344.8974 L265.1585,345.2156 L275.061,343.3177 L284.9634,345.184 L294.8659,343.884 L304.7683,344.991 L314.6707,343.6193 L324.5732,344.188 L334.4756,345.2681 L344.378,344.2143 L354.2805,344.4197 L364.1829,344.7308 L374.0854,344.8343 L383.9878,344.2741 L393.8902,344.6622 L403.7927,343.5161 L413.6951,344.6585 L423.5976,345.0102 L433.5,344.2793 " fill="none" style="stroke:#181818;stroke-width:1.0;stroke-dasharray:2.0,2.0;"/><text fill="#000000" font-family="sans-serif" font-size="13" font-weight="bold" lengthAdjust="spacing" textLength="7" x="39.5" y="339.0166">7</text><text fill="#000000" font-family="sans-serif" font-size="13" lengthAdjust="spacing" textLength="209" x="50.5" y="339.0166">Informa&#231;&#227;o de sucesso da opera&#231;&#227;o</text><!--SRC=[dP91QiCm44NtEiMGLGi9fD1L5eL2DeKkIjKSO29FR15BuqgZfEbrkkYgfyZ5AiTEC265K2ziDD9_y_N7SMrzWm4TEFPigi2EG48Y5Kyx3PerbgHbLnC4CeA-h8S7AlJ5DbWHykVQM671M-jBM64TIIcnaYbw5uKSQ7fFv0t1t6BP7h_HUduB4rXek9zExnGcOP_Sae9IQ8G3Z1QHmWWmmcExLhcDM6CRz0AZcROj5m_xNO-3pcvGg1UemmSc3qSJCtYXWg3r2mw3mG39ORveydR_nGD0JuJyzDf9ndIyde9W_Og3m_rtraBaPMYB9rX1vxGBVjxsFv9g7aE1WcEeEEHtaK87lThGQzyKJB1O81ZEyqY6OkI_9CyvFmIEaCJMzZFFBb04-cXZzKBnEl-QQZAMVKxo77L8EKymdpFiDxR8zRxwZyYVXbddzFlRvTo06phcTS7peDJz5Ry0]--></g></svg>