<?xml version="1.0" encoding="us-ascii" standalone="no"?><svg xmlns="http://www.w3.org/2000/svg" xmlns:xlink="http://www.w3.org/1999/xlink" contentStyleType="text/css" height="560px" preserveAspectRatio="none" style="width:1202px;height:560px;background:#FFFFFF;" version="1.1" viewBox="0 0 1202 560" width="1202px" zoomAndPan="magnify"><defs/><g><text fill="#000000" font-family="sans-serif" font-size="14" font-weight="bold" lengthAdjust="spacing" textLength="263" x="468.75" y="30.1074">Sequence Diagram (SD) da us_1006_3</text><rect fill="#FFFFFF" height="304.9102" style="stroke:#181818;stroke-width:1.0;" width="10" x="33.5" y="137.8633"/><rect fill="#FFFFFF" height="281.6191" style="stroke:#181818;stroke-width:1.0;" width="10" x="394.5" y="161.1543"/><rect fill="#FFFFFF" height="156.4551" style="stroke:#181818;stroke-width:1.0;" width="10" x="553.5" y="255.0273"/><rect fill="#FFFFFF" height="93.873" style="stroke:#181818;stroke-width:1.0;" width="10" x="751.5" y="286.3184"/><rect fill="#FFFFFF" height="31.291" style="stroke:#181818;stroke-width:1.0;" width="10" x="1004.5" y="317.6094"/><line style="stroke:#181818;stroke-width:0.5;stroke-dasharray:5.0,5.0;" x1="38" x2="38" y1="127.8633" y2="460.7734"/><line style="stroke:#181818;stroke-width:0.5;stroke-dasharray:5.0,5.0;" x1="399" x2="399" y1="127.8633" y2="460.7734"/><line style="stroke:#181818;stroke-width:0.5;stroke-dasharray:5.0,5.0;" x1="558.5" x2="558.5" y1="127.8633" y2="460.7734"/><line style="stroke:#181818;stroke-width:0.5;stroke-dasharray:5.0,5.0;" x1="756" x2="756" y1="127.8633" y2="460.7734"/><line style="stroke:#181818;stroke-width:0.5;stroke-dasharray:5.0,5.0;" x1="1009.5" x2="1009.5" y1="127.8633" y2="460.7734"/><line style="stroke:#181818;stroke-width:0.5;stroke-dasharray:5.0,5.0;" x1="1138.5" x2="1138.5" y1="127.8633" y2="460.7734"/><text fill="#000000" font-family="sans-serif" font-size="14" lengthAdjust="spacing" textLength="61" x="5" y="124.3496">Professor</text><ellipse cx="38.5" cy="57.7422" fill="#E2E2F0" rx="8" ry="8" style="stroke:#181818;stroke-width:0.5;"/><path d="M38.5,65.7422 L38.5,92.7422 M25.5,73.7422 L51.5,73.7422 M38.5,92.7422 L25.5,107.7422 M38.5,92.7422 L51.5,107.7422 " fill="none" style="stroke:#181818;stroke-width:0.5;"/><text fill="#000000" font-family="sans-serif" font-size="14" lengthAdjust="spacing" textLength="61" x="5" y="474.8809">Professor</text><ellipse cx="38.5" cy="486.8945" fill="#E2E2F0" rx="8" ry="8" style="stroke:#181818;stroke-width:0.5;"/><path d="M38.5,494.8945 L38.5,521.8945 M25.5,502.8945 L51.5,502.8945 M38.5,521.8945 L25.5,536.8945 M38.5,521.8945 L51.5,536.8945 " fill="none" style="stroke:#181818;stroke-width:0.5;"/><rect fill="#E2E2F0" height="51.2422" rx="2.5" ry="2.5" style="stroke:#181818;stroke-width:0.5;" width="113" x="343" y="75.6211"/><text fill="#000000" font-family="sans-serif" font-size="14" lengthAdjust="spacing" textLength="95" x="350" y="97.7285">&#171;presentation&#187;</text><text fill="#000000" font-family="sans-serif" font-size="14" lengthAdjust="spacing" textLength="80" x="361.5" y="116.3496">ListCourseUI</text><rect fill="#E2E2F0" height="51.2422" rx="2.5" ry="2.5" style="stroke:#181818;stroke-width:0.5;" width="113" x="343" y="459.7734"/><text fill="#000000" font-family="sans-serif" font-size="14" lengthAdjust="spacing" textLength="95" x="350" y="481.8809">&#171;presentation&#187;</text><text fill="#000000" font-family="sans-serif" font-size="14" lengthAdjust="spacing" textLength="80" x="361.5" y="500.502">ListCourseUI</text><text fill="#000000" font-family="sans-serif" font-size="14" lengthAdjust="spacing" textLength="84" x="511.5" y="105.7285">&#171;application&#187;</text><text fill="#000000" font-family="sans-serif" font-size="14" lengthAdjust="spacing" textLength="130" x="492.5" y="124.3496">ListCourseController</text><ellipse cx="558.5" cy="74.6211" fill="#E2E2F0" rx="12" ry="12" style="stroke:#181818;stroke-width:0.5;"/><polygon fill="#181818" points="554.5,62.6211,560.5,57.6211,558.5,62.6211,560.5,67.6211,554.5,62.6211" style="stroke:#181818;stroke-width:1.0;"/><text fill="#000000" font-family="sans-serif" font-size="14" lengthAdjust="spacing" textLength="84" x="511.5" y="474.8809">&#171;application&#187;</text><text fill="#000000" font-family="sans-serif" font-size="14" lengthAdjust="spacing" textLength="130" x="492.5" y="493.502">ListCourseController</text><ellipse cx="558.5" cy="513.0156" fill="#E2E2F0" rx="12" ry="12" style="stroke:#181818;stroke-width:0.5;"/><polygon fill="#181818" points="554.5,501.0156,560.5,496.0156,558.5,501.0156,560.5,506.0156,554.5,501.0156" style="stroke:#181818;stroke-width:1.0;"/><rect fill="#E2E2F0" height="51.2422" rx="2.5" ry="2.5" style="stroke:#181818;stroke-width:0.5;" width="133" x="690" y="75.6211"/><text fill="#000000" font-family="sans-serif" font-size="14" lengthAdjust="spacing" textLength="84" x="712.5" y="97.7285">&#171;application&#187;</text><text fill="#000000" font-family="sans-serif" font-size="14" lengthAdjust="spacing" textLength="115" x="701" y="116.3496">ListCourseService</text><rect fill="#E2E2F0" height="51.2422" rx="2.5" ry="2.5" style="stroke:#181818;stroke-width:0.5;" width="133" x="690" y="459.7734"/><text fill="#000000" font-family="sans-serif" font-size="14" lengthAdjust="spacing" textLength="84" x="712.5" y="481.8809">&#171;application&#187;</text><text fill="#000000" font-family="sans-serif" font-size="14" lengthAdjust="spacing" textLength="115" x="701" y="500.502">ListCourseService</text><text fill="#000000" font-family="sans-serif" font-size="14" lengthAdjust="spacing" textLength="79" x="965" y="105.7285">&#171;repository&#187;</text><text fill="#000000" font-family="sans-serif" font-size="14" lengthAdjust="spacing" textLength="114" x="951.5" y="124.3496">CourseRepository</text><path d="M991.5,54.6211 C991.5,44.6211 1009.5,44.6211 1009.5,44.6211 C1009.5,44.6211 1027.5,44.6211 1027.5,54.6211 L1027.5,80.6211 C1027.5,90.6211 1009.5,90.6211 1009.5,90.6211 C1009.5,90.6211 991.5,90.6211 991.5,80.6211 L991.5,54.6211 " fill="#E2E2F0" style="stroke:#181818;stroke-width:1.5;"/><path d="M991.5,54.6211 C991.5,64.6211 1009.5,64.6211 1009.5,64.6211 C1009.5,64.6211 1027.5,64.6211 1027.5,54.6211 " fill="none" style="stroke:#181818;stroke-width:1.5;"/><text fill="#000000" font-family="sans-serif" font-size="14" lengthAdjust="spacing" textLength="79" x="965" y="474.8809">&#171;repository&#187;</text><text fill="#000000" font-family="sans-serif" font-size="14" lengthAdjust="spacing" textLength="114" x="951.5" y="493.502">CourseRepository</text><path d="M991.5,507.0156 C991.5,497.0156 1009.5,497.0156 1009.5,497.0156 C1009.5,497.0156 1027.5,497.0156 1027.5,507.0156 L1027.5,533.0156 C1027.5,543.0156 1009.5,543.0156 1009.5,543.0156 C1009.5,543.0156 991.5,543.0156 991.5,533.0156 L991.5,507.0156 " fill="#E2E2F0" style="stroke:#181818;stroke-width:1.5;"/><path d="M991.5,507.0156 C991.5,517.0156 1009.5,517.0156 1009.5,517.0156 C1009.5,517.0156 1027.5,517.0156 1027.5,507.0156 " fill="none" style="stroke:#181818;stroke-width:1.5;"/><rect fill="#E2E2F0" height="51.2422" rx="2.5" ry="2.5" style="stroke:#181818;stroke-width:0.5;" width="115" x="1081.5" y="75.6211"/><text fill="#000000" font-family="sans-serif" font-size="14" lengthAdjust="spacing" textLength="62" x="1106" y="97.7285">&#171;domain&#187;</text><text fill="#000000" font-family="sans-serif" font-size="14" lengthAdjust="spacing" textLength="97" x="1092.5" y="116.3496">course: Course</text><rect fill="#E2E2F0" height="51.2422" rx="2.5" ry="2.5" style="stroke:#181818;stroke-width:0.5;" width="115" x="1081.5" y="459.7734"/><text fill="#000000" font-family="sans-serif" font-size="14" lengthAdjust="spacing" textLength="62" x="1106" y="481.8809">&#171;domain&#187;</text><text fill="#000000" font-family="sans-serif" font-size="14" lengthAdjust="spacing" textLength="97" x="1092.5" y="500.502">course: Course</text><rect fill="#FFFFFF" height="304.9102" style="stroke:#181818;stroke-width:1.0;" width="10" x="33.5" y="137.8633"/><rect fill="#FFFFFF" height="281.6191" style="stroke:#181818;stroke-width:1.0;" width="10" x="394.5" y="161.1543"/><rect fill="#FFFFFF" height="156.4551" style="stroke:#181818;stroke-width:1.0;" width="10" x="553.5" y="255.0273"/><rect fill="#FFFFFF" height="93.873" style="stroke:#181818;stroke-width:1.0;" width="10" x="751.5" y="286.3184"/><rect fill="#FFFFFF" height="31.291" style="stroke:#181818;stroke-width:1.0;" width="10" x="1004.5" y="317.6094"/><polygon fill="#181818" points="382.5,157.1543,392.5,161.1543,382.5,165.1543,386.5,161.1543" style="stroke:#181818;stroke-width:1.0;"/><line style="stroke:#181818;stroke-width:1.0;" x1="43.5" x2="388.5" y1="161.1543" y2="161.1543"/><text fill="#000000" font-family="sans-serif" font-size="13" font-weight="bold" lengthAdjust="spacing" textLength="7" x="50.5" y="155.8916">1</text><text fill="#000000" font-family="sans-serif" font-size="13" lengthAdjust="spacing" textLength="321" x="61.5" y="155.8916">pedido para listar todos os cursos disponiveis para mim</text><polygon fill="#181818" points="546.5,188.4453,556.5,192.4453,546.5,196.4453,550.5,192.4453" style="stroke:#181818;stroke-width:1.0;"/><line style="stroke:#181818;stroke-width:1.0;" x1="404.5" x2="552.5" y1="192.4453" y2="192.4453"/><text fill="#000000" font-family="sans-serif" font-size="13" font-weight="bold" lengthAdjust="spacing" textLength="7" x="411.5" y="187.1826">2</text><text fill="#000000" font-family="sans-serif" font-size="13" lengthAdjust="spacing" textLength="36" x="422.5" y="187.1826">create</text><polygon fill="#181818" points="744.5,219.7363,754.5,223.7363,744.5,227.7363,748.5,223.7363" style="stroke:#181818;stroke-width:1.0;"/><line style="stroke:#181818;stroke-width:1.0;" x1="558.5" x2="750.5" y1="223.7363" y2="223.7363"/><text fill="#000000" font-family="sans-serif" font-size="13" font-weight="bold" lengthAdjust="spacing" textLength="7" x="565.5" y="218.4736">3</text><text fill="#000000" font-family="sans-serif" font-size="13" lengthAdjust="spacing" textLength="36" x="576.5" y="218.4736">create</text><polygon fill="#181818" points="541.5,251.0273,551.5,255.0273,541.5,259.0273,545.5,255.0273" style="stroke:#181818;stroke-width:1.0;"/><line style="stroke:#181818;stroke-width:1.0;" x1="404.5" x2="547.5" y1="255.0273" y2="255.0273"/><text fill="#000000" font-family="sans-serif" font-size="13" font-weight="bold" lengthAdjust="spacing" textLength="7" x="411.5" y="249.7646">4</text><text fill="#000000" font-family="sans-serif" font-size="13" lengthAdjust="spacing" textLength="119" x="422.5" y="249.7646">listTeacherCourses()</text><polygon fill="#181818" points="739.5,282.3184,749.5,286.3184,739.5,290.3184,743.5,286.3184" style="stroke:#181818;stroke-width:1.0;"/><line style="stroke:#181818;stroke-width:1.0;" x1="563.5" x2="745.5" y1="286.3184" y2="286.3184"/><text fill="#000000" font-family="sans-serif" font-size="13" font-weight="bold" lengthAdjust="spacing" textLength="7" x="570.5" y="281.0557">5</text><text fill="#000000" font-family="sans-serif" font-size="13" lengthAdjust="spacing" textLength="158" x="581.5" y="281.0557">allTeacherCourses(teacher)</text><polygon fill="#181818" points="992.5,313.6094,1002.5,317.6094,992.5,321.6094,996.5,317.6094" style="stroke:#181818;stroke-width:1.0;"/><line style="stroke:#181818;stroke-width:1.0;" x1="761.5" x2="998.5" y1="317.6094" y2="317.6094"/><text fill="#000000" font-family="sans-serif" font-size="13" font-weight="bold" lengthAdjust="spacing" textLength="7" x="768.5" y="312.3467">6</text><text fill="#000000" font-family="sans-serif" font-size="13" lengthAdjust="spacing" textLength="213" x="779.5" y="312.3467">list = findAllTeacherCourses(teacher)</text><polygon fill="#181818" points="772.5,344.9004,762.5,348.9004,772.5,352.9004,768.5,348.9004" style="stroke:#181818;stroke-width:1.0;"/><line style="stroke:#181818;stroke-width:1.0;stroke-dasharray:2.0,2.0;" x1="766.5" x2="1008.5" y1="348.9004" y2="348.9004"/><text fill="#000000" font-family="sans-serif" font-size="13" font-weight="bold" lengthAdjust="spacing" textLength="7" x="778.5" y="343.6377">7</text><text fill="#000000" font-family="sans-serif" font-size="13" lengthAdjust="spacing" textLength="17" x="789.5" y="343.6377">list</text><polygon fill="#181818" points="574.5,376.1914,564.5,380.1914,574.5,384.1914,570.5,380.1914" style="stroke:#181818;stroke-width:1.0;"/><line style="stroke:#181818;stroke-width:1.0;stroke-dasharray:2.0,2.0;" x1="568.5" x2="755.5" y1="380.1914" y2="380.1914"/><text fill="#000000" font-family="sans-serif" font-size="13" font-weight="bold" lengthAdjust="spacing" textLength="7" x="580.5" y="374.9287">8</text><text fill="#000000" font-family="sans-serif" font-size="13" lengthAdjust="spacing" textLength="17" x="591.5" y="374.9287">list</text><polygon fill="#181818" points="415.5,407.4824,405.5,411.4824,415.5,415.4824,411.5,411.4824" style="stroke:#181818;stroke-width:1.0;"/><line style="stroke:#181818;stroke-width:1.0;stroke-dasharray:2.0,2.0;" x1="409.5" x2="557.5" y1="411.4824" y2="411.4824"/><text fill="#000000" font-family="sans-serif" font-size="13" font-weight="bold" lengthAdjust="spacing" textLength="7" x="421.5" y="406.2197">9</text><text fill="#000000" font-family="sans-serif" font-size="13" lengthAdjust="spacing" textLength="17" x="432.5" y="406.2197">list</text><polygon fill="#181818" points="49.5,438.7734,39.5,442.7734,49.5,446.7734,45.5,442.7734" style="stroke:#181818;stroke-width:1.0;"/><line style="stroke:#181818;stroke-width:1.0;stroke-dasharray:2.0,2.0;" x1="43.5" x2="398.5" y1="442.7734" y2="442.7734"/><text fill="#000000" font-family="sans-serif" font-size="13" font-weight="bold" lengthAdjust="spacing" textLength="14" x="55.5" y="437.5107">10</text><text fill="#000000" font-family="sans-serif" font-size="13" lengthAdjust="spacing" textLength="220" x="73.5" y="437.5107">lista os cursos que o professor ensina</text><!--SRC=[ZLDDQy904BtdLmoUz21O2Zs85Ofw48HAeZqLPDmTsu5aDztT2FtttOzODOJI4CZkpdjlPjva7RkIeA2lXfGWM39-6AnWM2n7814QUtYOJ9uEZrc6ZTEggOva_5euRM2mDVf4rcep0BImBrPvLgDnBBX6vM0mczM6B2c7ZhMQp-5TmOQjM-Z6MDgl4ssT2QsSqMKWO5sNB7hnYuGgAQLRxF9DDzqVx8BCcGL5gY_qBPFey8YM0izGhItxdhuJBL7otzF8obVRrsv2gIlaDfU8f6bBJZNcHJIBp-We6PI1Vy8AndFVEqoX9ibIWrT6A7szQC1fgItuLtWf_v5iQwtuJ6mJhk8g2bsrrwtoEkW6RxooCEHZAH2FV2ZqtWdTSK85EqBnIIOrOeUZ-rJH-3vDBCiEqwLjHo3Q7uyYqGi4QzlSy0mdLlBbdrfnAF4eQeolrGIn693KWqwPxzlkegzrfaOl0-l3Naq9RWPa6772uiqa_Jq3F-lBnG5IbXLsrS8qRxVXn_a1]--></g></svg>