<?xml version="1.0" encoding="us-ascii" standalone="no"?><svg xmlns="http://www.w3.org/2000/svg" xmlns:xlink="http://www.w3.org/1999/xlink" contentStyleType="text/css" height="560px" preserveAspectRatio="none" style="width:1166px;height:560px;background:#FFFFFF;" version="1.1" viewBox="0 0 1166 560" width="1166px" zoomAndPan="magnify"><defs/><g><text fill="#000000" font-family="sans-serif" font-size="14" font-weight="bold" lengthAdjust="spacing" textLength="263" x="450.75" y="30.1074">Sequence Diagram (SD) da us_1006_3</text><rect fill="#FFFFFF" height="304.9102" style="stroke:#181818;stroke-width:1.0;" width="10" x="33.5" y="137.8633"/><rect fill="#FFFFFF" height="281.6191" style="stroke:#181818;stroke-width:1.0;" width="10" x="394.5" y="161.1543"/><rect fill="#FFFFFF" height="156.4551" style="stroke:#181818;stroke-width:1.0;" width="10" x="578.5" y="255.0273"/><rect fill="#FFFFFF" height="93.873" style="stroke:#181818;stroke-width:1.0;" width="10" x="758.5" y="286.3184"/><rect fill="#FFFFFF" height="31.291" style="stroke:#181818;stroke-width:1.0;" width="10" x="968.5" y="317.6094"/><line style="stroke:#181818;stroke-width:0.5;stroke-dasharray:5.0,5.0;" x1="38" x2="38" y1="127.8633" y2="460.7734"/><line style="stroke:#181818;stroke-width:0.5;stroke-dasharray:5.0,5.0;" x1="399" x2="399" y1="127.8633" y2="460.7734"/><line style="stroke:#181818;stroke-width:0.5;stroke-dasharray:5.0,5.0;" x1="583.5" x2="583.5" y1="127.8633" y2="460.7734"/><line style="stroke:#181818;stroke-width:0.5;stroke-dasharray:5.0,5.0;" x1="763" x2="763" y1="127.8633" y2="460.7734"/><line style="stroke:#181818;stroke-width:0.5;stroke-dasharray:5.0,5.0;" x1="973.5" x2="973.5" y1="127.8633" y2="460.7734"/><line style="stroke:#181818;stroke-width:0.5;stroke-dasharray:5.0,5.0;" x1="1102.5" x2="1102.5" y1="127.8633" y2="460.7734"/><text fill="#000000" font-family="sans-serif" font-size="14" lengthAdjust="spacing" textLength="61" x="5" y="124.3496">Professor</text><ellipse cx="38.5" cy="57.7422" fill="#E2E2F0" rx="8" ry="8" style="stroke:#181818;stroke-width:0.5;"/><path d="M38.5,65.7422 L38.5,92.7422 M25.5,73.7422 L51.5,73.7422 M38.5,92.7422 L25.5,107.7422 M38.5,92.7422 L51.5,107.7422 " fill="none" style="stroke:#181818;stroke-width:0.5;"/><text fill="#000000" font-family="sans-serif" font-size="14" lengthAdjust="spacing" textLength="61" x="5" y="474.8809">Professor</text><ellipse cx="38.5" cy="486.8945" fill="#E2E2F0" rx="8" ry="8" style="stroke:#181818;stroke-width:0.5;"/><path d="M38.5,494.8945 L38.5,521.8945 M25.5,502.8945 L51.5,502.8945 M38.5,521.8945 L25.5,536.8945 M38.5,521.8945 L51.5,536.8945 " fill="none" style="stroke:#181818;stroke-width:0.5;"/><rect fill="#E2E2F0" height="51.2422" rx="2.5" ry="2.5" style="stroke:#181818;stroke-width:0.5;" width="113" x="343" y="75.6211"/><text fill="#000000" font-family="sans-serif" font-size="14" lengthAdjust="spacing" textLength="95" x="350" y="97.7285">&#171;presentation&#187;</text><text fill="#000000" font-family="sans-serif" font-size="14" lengthAdjust="spacing" textLength="80" x="361.5" y="116.3496">ListCourseUI</text><rect fill="#E2E2F0" height="51.2422" rx="2.5" ry="2.5" style="stroke:#181818;stroke-width:0.5;" width="113" x="343" y="459.7734"/><text fill="#000000" font-family="sans-serif" font-size="14" lengthAdjust="spacing" textLength="95" x="350" y="481.8809">&#171;presentation&#187;</text><text fill="#000000" font-family="sans-serif" font-size="14" lengthAdjust="spacing" textLength="80" x="361.5" y="500.502">ListCourseUI</text><text fill="#000000" font-family="sans-serif" font-size="14" lengthAdjust="spacing" textLength="84" x="536.5" y="105.7285">&#171;application&#187;</text><text fill="#000000" font-family="sans-serif" font-size="14" lengthAdjust="spacing" textLength="130" x="517.5" y="124.3496">ListCourseController</text><ellipse cx="583.5" cy="74.6211" fill="#E2E2F0" rx="12" ry="12" style="stroke:#181818;stroke-width:0.5;"/><polygon fill="#181818" points="579.5,62.6211,585.5,57.6211,583.5,62.6211,585.5,67.6211,579.5,62.6211" style="stroke:#181818;stroke-width:1.0;"/><text fill="#000000" font-family="sans-serif" font-size="14" lengthAdjust="spacing" textLength="84" x="536.5" y="474.8809">&#171;application&#187;</text><text fill="#000000" font-family="sans-serif" font-size="14" lengthAdjust="spacing" textLength="130" x="517.5" y="493.502">ListCourseController</text><ellipse cx="583.5" cy="513.0156" fill="#E2E2F0" rx="12" ry="12" style="stroke:#181818;stroke-width:0.5;"/><polygon fill="#181818" points="579.5,501.0156,585.5,496.0156,583.5,501.0156,585.5,506.0156,579.5,501.0156" style="stroke:#181818;stroke-width:1.0;"/><rect fill="#E2E2F0" height="51.2422" rx="2.5" ry="2.5" style="stroke:#181818;stroke-width:0.5;" width="133" x="697" y="75.6211"/><text fill="#000000" font-family="sans-serif" font-size="14" lengthAdjust="spacing" textLength="84" x="719.5" y="97.7285">&#171;application&#187;</text><text fill="#000000" font-family="sans-serif" font-size="14" lengthAdjust="spacing" textLength="115" x="708" y="116.3496">ListCourseService</text><rect fill="#E2E2F0" height="51.2422" rx="2.5" ry="2.5" style="stroke:#181818;stroke-width:0.5;" width="133" x="697" y="459.7734"/><text fill="#000000" font-family="sans-serif" font-size="14" lengthAdjust="spacing" textLength="84" x="719.5" y="481.8809">&#171;application&#187;</text><text fill="#000000" font-family="sans-serif" font-size="14" lengthAdjust="spacing" textLength="115" x="708" y="500.502">ListCourseService</text><text fill="#000000" font-family="sans-serif" font-size="14" lengthAdjust="spacing" textLength="79" x="929" y="105.7285">&#171;repository&#187;</text><text fill="#000000" font-family="sans-serif" font-size="14" lengthAdjust="spacing" textLength="114" x="915.5" y="124.3496">CourseRepository</text><path d="M955.5,54.6211 C955.5,44.6211 973.5,44.6211 973.5,44.6211 C973.5,44.6211 991.5,44.6211 991.5,54.6211 L991.5,80.6211 C991.5,90.6211 973.5,90.6211 973.5,90.6211 C973.5,90.6211 955.5,90.6211 955.5,80.6211 L955.5,54.6211 " fill="#E2E2F0" style="stroke:#181818;stroke-width:1.5;"/><path d="M955.5,54.6211 C955.5,64.6211 973.5,64.6211 973.5,64.6211 C973.5,64.6211 991.5,64.6211 991.5,54.6211 " fill="none" style="stroke:#181818;stroke-width:1.5;"/><text fill="#000000" font-family="sans-serif" font-size="14" lengthAdjust="spacing" textLength="79" x="929" y="474.8809">&#171;repository&#187;</text><text fill="#000000" font-family="sans-serif" font-size="14" lengthAdjust="spacing" textLength="114" x="915.5" y="493.502">CourseRepository</text><path d="M955.5,507.0156 C955.5,497.0156 973.5,497.0156 973.5,497.0156 C973.5,497.0156 991.5,497.0156 991.5,507.0156 L991.5,533.0156 C991.5,543.0156 973.5,543.0156 973.5,543.0156 C973.5,543.0156 955.5,543.0156 955.5,533.0156 L955.5,507.0156 " fill="#E2E2F0" style="stroke:#181818;stroke-width:1.5;"/><path d="M955.5,507.0156 C955.5,517.0156 973.5,517.0156 973.5,517.0156 C973.5,517.0156 991.5,517.0156 991.5,507.0156 " fill="none" style="stroke:#181818;stroke-width:1.5;"/><rect fill="#E2E2F0" height="51.2422" rx="2.5" ry="2.5" style="stroke:#181818;stroke-width:0.5;" width="115" x="1045.5" y="75.6211"/><text fill="#000000" font-family="sans-serif" font-size="14" lengthAdjust="spacing" textLength="62" x="1070" y="97.7285">&#171;domain&#187;</text><text fill="#000000" font-family="sans-serif" font-size="14" lengthAdjust="spacing" textLength="97" x="1056.5" y="116.3496">course: Course</text><rect fill="#E2E2F0" height="51.2422" rx="2.5" ry="2.5" style="stroke:#181818;stroke-width:0.5;" width="115" x="1045.5" y="459.7734"/><text fill="#000000" font-family="sans-serif" font-size="14" lengthAdjust="spacing" textLength="62" x="1070" y="481.8809">&#171;domain&#187;</text><text fill="#000000" font-family="sans-serif" font-size="14" lengthAdjust="spacing" textLength="97" x="1056.5" y="500.502">course: Course</text><rect fill="#FFFFFF" height="304.9102" style="stroke:#181818;stroke-width:1.0;" width="10" x="33.5" y="137.8633"/><rect fill="#FFFFFF" height="281.6191" style="stroke:#181818;stroke-width:1.0;" width="10" x="394.5" y="161.1543"/><rect fill="#FFFFFF" height="156.4551" style="stroke:#181818;stroke-width:1.0;" width="10" x="578.5" y="255.0273"/><rect fill="#FFFFFF" height="93.873" style="stroke:#181818;stroke-width:1.0;" width="10" x="758.5" y="286.3184"/><rect fill="#FFFFFF" height="31.291" style="stroke:#181818;stroke-width:1.0;" width="10" x="968.5" y="317.6094"/><polygon fill="#181818" points="382.5,157.1543,392.5,161.1543,382.5,165.1543,386.5,161.1543" style="stroke:#181818;stroke-width:1.0;"/><line style="stroke:#181818;stroke-width:1.0;" x1="43.5" x2="388.5" y1="161.1543" y2="161.1543"/><text fill="#000000" font-family="sans-serif" font-size="13" font-weight="bold" lengthAdjust="spacing" textLength="7" x="50.5" y="155.8916">1</text><text fill="#000000" font-family="sans-serif" font-size="13" lengthAdjust="spacing" textLength="321" x="61.5" y="155.8916">pedido para listar todos os cursos disponiveis para mim</text><polygon fill="#181818" points="571.5,188.4453,581.5,192.4453,571.5,196.4453,575.5,192.4453" style="stroke:#181818;stroke-width:1.0;"/><line style="stroke:#181818;stroke-width:1.0;" x1="404.5" x2="577.5" y1="192.4453" y2="192.4453"/><text fill="#000000" font-family="sans-serif" font-size="13" font-weight="bold" lengthAdjust="spacing" textLength="7" x="411.5" y="187.1826">2</text><text fill="#000000" font-family="sans-serif" font-size="13" lengthAdjust="spacing" textLength="36" x="422.5" y="187.1826">create</text><polygon fill="#181818" points="751.5,219.7363,761.5,223.7363,751.5,227.7363,755.5,223.7363" style="stroke:#181818;stroke-width:1.0;"/><line style="stroke:#181818;stroke-width:1.0;" x1="583.5" x2="757.5" y1="223.7363" y2="223.7363"/><text fill="#000000" font-family="sans-serif" font-size="13" font-weight="bold" lengthAdjust="spacing" textLength="7" x="590.5" y="218.4736">3</text><text fill="#000000" font-family="sans-serif" font-size="13" lengthAdjust="spacing" textLength="36" x="601.5" y="218.4736">create</text><polygon fill="#181818" points="566.5,251.0273,576.5,255.0273,566.5,259.0273,570.5,255.0273" style="stroke:#181818;stroke-width:1.0;"/><line style="stroke:#181818;stroke-width:1.0;" x1="404.5" x2="572.5" y1="255.0273" y2="255.0273"/><text fill="#000000" font-family="sans-serif" font-size="13" font-weight="bold" lengthAdjust="spacing" textLength="7" x="411.5" y="249.7646">4</text><text fill="#000000" font-family="sans-serif" font-size="13" lengthAdjust="spacing" textLength="144" x="422.5" y="249.7646">listTeacherCourses(user)</text><polygon fill="#181818" points="746.5,282.3184,756.5,286.3184,746.5,290.3184,750.5,286.3184" style="stroke:#181818;stroke-width:1.0;"/><line style="stroke:#181818;stroke-width:1.0;" x1="588.5" x2="752.5" y1="286.3184" y2="286.3184"/><text fill="#000000" font-family="sans-serif" font-size="13" font-weight="bold" lengthAdjust="spacing" textLength="7" x="595.5" y="281.0557">5</text><text fill="#000000" font-family="sans-serif" font-size="13" lengthAdjust="spacing" textLength="140" x="606.5" y="281.0557">allTeacherCourses(user)</text><polygon fill="#181818" points="956.5,313.6094,966.5,317.6094,956.5,321.6094,960.5,317.6094" style="stroke:#181818;stroke-width:1.0;"/><line style="stroke:#181818;stroke-width:1.0;" x1="768.5" x2="962.5" y1="317.6094" y2="317.6094"/><text fill="#000000" font-family="sans-serif" font-size="13" font-weight="bold" lengthAdjust="spacing" textLength="7" x="775.5" y="312.3467">6</text><text fill="#000000" font-family="sans-serif" font-size="13" lengthAdjust="spacing" textLength="170" x="786.5" y="312.3467">list = findAllTeacherCourses()</text><polygon fill="#181818" points="779.5,344.9004,769.5,348.9004,779.5,352.9004,775.5,348.9004" style="stroke:#181818;stroke-width:1.0;"/><line style="stroke:#181818;stroke-width:1.0;stroke-dasharray:2.0,2.0;" x1="773.5" x2="972.5" y1="348.9004" y2="348.9004"/><text fill="#000000" font-family="sans-serif" font-size="13" font-weight="bold" lengthAdjust="spacing" textLength="7" x="785.5" y="343.6377">7</text><text fill="#000000" font-family="sans-serif" font-size="13" lengthAdjust="spacing" textLength="17" x="796.5" y="343.6377">list</text><polygon fill="#181818" points="599.5,376.1914,589.5,380.1914,599.5,384.1914,595.5,380.1914" style="stroke:#181818;stroke-width:1.0;"/><line style="stroke:#181818;stroke-width:1.0;stroke-dasharray:2.0,2.0;" x1="593.5" x2="762.5" y1="380.1914" y2="380.1914"/><text fill="#000000" font-family="sans-serif" font-size="13" font-weight="bold" lengthAdjust="spacing" textLength="7" x="605.5" y="374.9287">8</text><text fill="#000000" font-family="sans-serif" font-size="13" lengthAdjust="spacing" textLength="17" x="616.5" y="374.9287">list</text><polygon fill="#181818" points="415.5,407.4824,405.5,411.4824,415.5,415.4824,411.5,411.4824" style="stroke:#181818;stroke-width:1.0;"/><line style="stroke:#181818;stroke-width:1.0;stroke-dasharray:2.0,2.0;" x1="409.5" x2="582.5" y1="411.4824" y2="411.4824"/><text fill="#000000" font-family="sans-serif" font-size="13" font-weight="bold" lengthAdjust="spacing" textLength="7" x="421.5" y="406.2197">9</text><text fill="#000000" font-family="sans-serif" font-size="13" lengthAdjust="spacing" textLength="17" x="432.5" y="406.2197">list</text><polygon fill="#181818" points="49.5,438.7734,39.5,442.7734,49.5,446.7734,45.5,442.7734" style="stroke:#181818;stroke-width:1.0;"/><line style="stroke:#181818;stroke-width:1.0;stroke-dasharray:2.0,2.0;" x1="43.5" x2="398.5" y1="442.7734" y2="442.7734"/><text fill="#000000" font-family="sans-serif" font-size="13" font-weight="bold" lengthAdjust="spacing" textLength="14" x="55.5" y="437.5107">10</text><text fill="#000000" font-family="sans-serif" font-size="13" lengthAdjust="spacing" textLength="220" x="73.5" y="437.5107">lista os cursos que o professor ensina</text><!--SRC=[XLDDQy904BtdLmoUz22q57eGAnJr80YLH7igoBWxjWF9Rhgx4Vhlkn-nQXhQ4CXcvhqtCsyInwuaAEYp8IK85epl1YiO5eiHI8J6xk_lxXxt3rc6ZTEggGva_5auRM2mCVf8rcep0BImAvPvLgDnBBX6vM0mdTQ6B2c7ZhMQpU1DmPgjc-l6MDgj4csL2QsSqMKWO5sNB7hnyuGgAPMRR_DrjzmVx8BCYGL5gc_qDPFey82M0izGhItxcRuIBL7odsXavSlDIxUWr1LoMqj4qgGbfnxp8fh59tIK3Ch0N-44uvcV7IPGasIfmIiZbBvVDE2qr1RyBRoKVqYsjLPy8hO9Lt4LXIxQgrPv5NI3DrvP6FAvb8WXdmgpTr8tdD31bb1ya4c3s65ZoOnkoqNp-tInBFzdH_zZAB8yEtZR5eSdEBAIpx-4EY9n7J4KoUDB3q4b9YJre5F9su6xw4k3QRppglgm5ok2Zm4PbfkmUBL3_uU1t_Bvbm5IbXLsrS8Uhr_39_CD]--></g></svg>