<?xml version="1.0" encoding="us-ascii" standalone="no"?><svg xmlns="http://www.w3.org/2000/svg" xmlns:xlink="http://www.w3.org/1999/xlink" contentStyleType="text/css" height="804px" preserveAspectRatio="none" style="width:2727px;height:804px;background:#FFFFFF;" version="1.1" viewBox="0 0 2727 804" width="2727px" zoomAndPan="magnify"><defs/><g><text fill="#000000" font-family="sans-serif" font-size="14" font-weight="bold" lengthAdjust="spacing" textLength="217" x="1248" y="25.1074">Class Diagram (CD) - US 1001_1</text><!--class AddUserUI--><g id="elem_AddUserUI"><rect codeLine="4" fill="#F1F1F1" height="79.2031" id="AddUserUI" rx="2.5" ry="2.5" style="stroke:#181818;stroke-width:0.5;" width="110" x="2102" y="46.6211"/><ellipse cx="2117" cy="68.9121" fill="#ADD1B2" rx="11" ry="11" style="stroke:#181818;stroke-width:1.0;"/><path d="M2119.7656,64.7871 Q2119.9219,64.5684 2120.1094,64.459 Q2120.2969,64.3496 2120.5156,64.3496 Q2120.8906,64.3496 2121.125,64.6152 Q2121.3594,64.8652 2121.3594,65.4746 L2121.3594,66.9277 Q2121.3594,67.5371 2121.125,67.8027 Q2120.8906,68.0684 2120.5156,68.0684 Q2120.1719,68.0684 2119.9688,67.8652 Q2119.7656,67.6777 2119.6563,67.1621 Q2119.6094,66.8027 2119.4219,66.6152 Q2119.0938,66.2402 2118.4844,66.0215 Q2117.875,65.8027 2117.25,65.8027 Q2116.4844,65.8027 2115.8438,66.1309 Q2115.2188,66.459 2114.7188,67.209 Q2114.2344,67.959 2114.2344,68.9902 L2114.2344,70.084 Q2114.2344,71.3184 2115.125,72.1465 Q2116.0156,72.959 2117.6094,72.959 Q2118.5469,72.959 2119.2031,72.709 Q2119.5938,72.5527 2120.0156,72.1152 Q2120.2813,71.8496 2120.4219,71.7715 Q2120.5781,71.6934 2120.7813,71.6934 Q2121.1094,71.6934 2121.3594,71.959 Q2121.625,72.209 2121.625,72.5527 Q2121.625,72.8965 2121.2813,73.3027 Q2120.7813,73.8809 2119.9844,74.209 Q2118.9063,74.6621 2117.6094,74.6621 Q2116.0938,74.6621 2114.8906,74.0371 Q2113.9063,73.5371 2113.2188,72.4746 Q2112.5313,71.3965 2112.5313,70.1152 L2112.5313,68.959 Q2112.5313,67.6309 2113.1406,66.4902 Q2113.7656,65.334 2114.8594,64.7246 Q2115.9531,64.0996 2117.1875,64.0996 Q2117.9219,64.0996 2118.5625,64.2715 Q2119.2188,64.4277 2119.7656,64.7871 Z " fill="#000000"/><text fill="#000000" font-family="sans-serif" font-size="12" font-style="italic" lengthAdjust="spacing" textLength="82" x="2129" y="64.5703">&#171;presentation&#187;</text><text fill="#000000" font-family="sans-serif" font-size="14" lengthAdjust="spacing" textLength="66" x="2137" y="82.6895">AddUserUI</text><line style="stroke:#181818;stroke-width:0.5;" x1="2103" x2="2211" y1="91.2031" y2="91.2031"/><line style="stroke:#181818;stroke-width:0.5;" x1="2103" x2="2211" y1="99.2031" y2="99.2031"/><text fill="#000000" font-family="sans-serif" font-size="14" lengthAdjust="spacing" textLength="60" x="2108" y="118.3105">doShow()</text></g><!--class RepositoryFactory--><g id="elem_RepositoryFactory"><rect codeLine="8" fill="#F1F1F1" height="60.582" id="RepositoryFactory" rx="2.5" ry="2.5" style="stroke:#181818;stroke-width:0.5;" width="148" x="1343" y="474.6211"/><ellipse cx="1358" cy="496.9121" fill="#B4A7E5" rx="11" ry="11" style="stroke:#181818;stroke-width:1.0;"/><path d="M1358.9531,493.5527 L1358.9531,500.209 L1360.6719,500.209 Q1361.2813,500.209 1361.5469,500.4434 Q1361.8125,500.6777 1361.8125,501.0684 Q1361.8125,501.4434 1361.5469,501.6777 Q1361.2813,501.9121 1360.6719,501.9121 L1355.5313,501.9121 Q1354.9219,501.9121 1354.6563,501.6777 Q1354.3906,501.4434 1354.3906,501.0527 Q1354.3906,500.6777 1354.6563,500.4434 Q1354.9219,500.209 1355.5313,500.209 L1357.25,500.209 L1357.25,493.5527 L1355.5313,493.5527 Q1354.9219,493.5527 1354.6563,493.3184 Q1354.3906,493.084 1354.3906,492.6934 Q1354.3906,492.3184 1354.6563,492.084 Q1354.9219,491.8496 1355.5313,491.8496 L1360.6719,491.8496 Q1361.2813,491.8496 1361.5469,492.084 Q1361.8125,492.3184 1361.8125,492.6934 Q1361.8125,493.084 1361.5469,493.3184 Q1361.2813,493.5527 1360.6719,493.5527 L1358.9531,493.5527 Z " fill="#000000"/><text fill="#000000" font-family="sans-serif" font-size="12" font-style="italic" lengthAdjust="spacing" textLength="50" x="1405" y="492.5703">&#171;factory&#187;</text><text fill="#000000" font-family="sans-serif" font-size="14" font-style="italic" lengthAdjust="spacing" textLength="116" x="1372" y="510.6895">RepositoryFactory</text><line style="stroke:#181818;stroke-width:0.5;" x1="1344" x2="1490" y1="519.2031" y2="519.2031"/><line style="stroke:#181818;stroke-width:0.5;" x1="1344" x2="1490" y1="527.2031" y2="527.2031"/></g><!--class PersistenceContext--><g id="elem_PersistenceContext"><rect codeLine="9" fill="#F1F1F1" height="60.582" id="PersistenceContext" rx="2.5" ry="2.5" style="stroke:#181818;stroke-width:0.5;" width="154" x="1340" y="736.6211"/><ellipse cx="1355" cy="758.9121" fill="#ADD1B2" rx="11" ry="11" style="stroke:#181818;stroke-width:1.0;"/><path d="M1357.7656,754.7871 Q1357.9219,754.5684 1358.1094,754.459 Q1358.2969,754.3496 1358.5156,754.3496 Q1358.8906,754.3496 1359.125,754.6152 Q1359.3594,754.8652 1359.3594,755.4746 L1359.3594,756.9277 Q1359.3594,757.5371 1359.125,757.8027 Q1358.8906,758.0684 1358.5156,758.0684 Q1358.1719,758.0684 1357.9688,757.8652 Q1357.7656,757.6777 1357.6563,757.1621 Q1357.6094,756.8027 1357.4219,756.6152 Q1357.0938,756.2402 1356.4844,756.0215 Q1355.875,755.8027 1355.25,755.8027 Q1354.4844,755.8027 1353.8438,756.1309 Q1353.2188,756.459 1352.7188,757.209 Q1352.2344,757.959 1352.2344,758.9902 L1352.2344,760.084 Q1352.2344,761.3184 1353.125,762.1465 Q1354.0156,762.959 1355.6094,762.959 Q1356.5469,762.959 1357.2031,762.709 Q1357.5938,762.5527 1358.0156,762.1152 Q1358.2813,761.8496 1358.4219,761.7715 Q1358.5781,761.6934 1358.7813,761.6934 Q1359.1094,761.6934 1359.3594,761.959 Q1359.625,762.209 1359.625,762.5527 Q1359.625,762.8965 1359.2813,763.3027 Q1358.7813,763.8809 1357.9844,764.209 Q1356.9063,764.6621 1355.6094,764.6621 Q1354.0938,764.6621 1352.8906,764.0371 Q1351.9063,763.5371 1351.2188,762.4746 Q1350.5313,761.3965 1350.5313,760.1152 L1350.5313,758.959 Q1350.5313,757.6309 1351.1406,756.4902 Q1351.7656,755.334 1352.8594,754.7246 Q1353.9531,754.0996 1355.1875,754.0996 Q1355.9219,754.0996 1356.5625,754.2715 Q1357.2188,754.4277 1357.7656,754.7871 Z " fill="#000000"/><text fill="#000000" font-family="sans-serif" font-size="12" font-style="italic" lengthAdjust="spacing" textLength="77" x="1391.5" y="754.5703">&#171;persistence&#187;</text><text fill="#000000" font-family="sans-serif" font-size="14" lengthAdjust="spacing" textLength="122" x="1369" y="772.6895">PersistenceContext</text><line style="stroke:#181818;stroke-width:0.5;" x1="1341" x2="1493" y1="781.2031" y2="781.2031"/><line style="stroke:#181818;stroke-width:0.5;" x1="1341" x2="1493" y1="789.2031" y2="789.2031"/></g><!--class JpaAutoTxUserRepository--><g id="elem_JpaAutoTxUserRepository"><rect codeLine="10" fill="#F1F1F1" height="60.582" id="JpaAutoTxUserRepository" rx="2.5" ry="2.5" style="stroke:#181818;stroke-width:0.5;" width="195" x="232.5" y="605.6211"/><ellipse cx="247.5" cy="627.9121" fill="#ADD1B2" rx="11" ry="11" style="stroke:#181818;stroke-width:1.0;"/><path d="M250.2656,623.7871 Q250.4219,623.5684 250.6094,623.459 Q250.7969,623.3496 251.0156,623.3496 Q251.3906,623.3496 251.625,623.6152 Q251.8594,623.8652 251.8594,624.4746 L251.8594,625.9277 Q251.8594,626.5371 251.625,626.8027 Q251.3906,627.0684 251.0156,627.0684 Q250.6719,627.0684 250.4688,626.8652 Q250.2656,626.6777 250.1563,626.1621 Q250.1094,625.8027 249.9219,625.6152 Q249.5938,625.2402 248.9844,625.0215 Q248.375,624.8027 247.75,624.8027 Q246.9844,624.8027 246.3438,625.1309 Q245.7188,625.459 245.2188,626.209 Q244.7344,626.959 244.7344,627.9902 L244.7344,629.084 Q244.7344,630.3184 245.625,631.1465 Q246.5156,631.959 248.1094,631.959 Q249.0469,631.959 249.7031,631.709 Q250.0938,631.5527 250.5156,631.1152 Q250.7813,630.8496 250.9219,630.7715 Q251.0781,630.6934 251.2813,630.6934 Q251.6094,630.6934 251.8594,630.959 Q252.125,631.209 252.125,631.5527 Q252.125,631.8965 251.7813,632.3027 Q251.2813,632.8809 250.4844,633.209 Q249.4063,633.6621 248.1094,633.6621 Q246.5938,633.6621 245.3906,633.0371 Q244.4063,632.5371 243.7188,631.4746 Q243.0313,630.3965 243.0313,629.1152 L243.0313,627.959 Q243.0313,626.6309 243.6406,625.4902 Q244.2656,624.334 245.3594,623.7246 Q246.4531,623.0996 247.6875,623.0996 Q248.4219,623.0996 249.0625,623.2715 Q249.7188,623.4277 250.2656,623.7871 Z " fill="#000000"/><text fill="#000000" font-family="sans-serif" font-size="12" font-style="italic" lengthAdjust="spacing" textLength="77" x="304.5" y="623.5703">&#171;persistence&#187;</text><text fill="#000000" font-family="sans-serif" font-size="14" lengthAdjust="spacing" textLength="163" x="261.5" y="641.6895">JpaAutoTxUserRepository</text><line style="stroke:#181818;stroke-width:0.5;" x1="233.5" x2="426.5" y1="650.2031" y2="650.2031"/><line style="stroke:#181818;stroke-width:0.5;" x1="233.5" x2="426.5" y1="658.2031" y2="658.2031"/></g><!--class InMemoryUserRepository--><g id="elem_InMemoryUserRepository"><rect codeLine="11" fill="#F1F1F1" height="60.582" id="InMemoryUserRepository" rx="2.5" ry="2.5" style="stroke:#181818;stroke-width:0.5;" width="190" x="7" y="605.6211"/><ellipse cx="22" cy="627.9121" fill="#ADD1B2" rx="11" ry="11" style="stroke:#181818;stroke-width:1.0;"/><path d="M24.7656,623.7871 Q24.9219,623.5684 25.1094,623.459 Q25.2969,623.3496 25.5156,623.3496 Q25.8906,623.3496 26.125,623.6152 Q26.3594,623.8652 26.3594,624.4746 L26.3594,625.9277 Q26.3594,626.5371 26.125,626.8027 Q25.8906,627.0684 25.5156,627.0684 Q25.1719,627.0684 24.9688,626.8652 Q24.7656,626.6777 24.6563,626.1621 Q24.6094,625.8027 24.4219,625.6152 Q24.0938,625.2402 23.4844,625.0215 Q22.875,624.8027 22.25,624.8027 Q21.4844,624.8027 20.8438,625.1309 Q20.2188,625.459 19.7188,626.209 Q19.2344,626.959 19.2344,627.9902 L19.2344,629.084 Q19.2344,630.3184 20.125,631.1465 Q21.0156,631.959 22.6094,631.959 Q23.5469,631.959 24.2031,631.709 Q24.5938,631.5527 25.0156,631.1152 Q25.2813,630.8496 25.4219,630.7715 Q25.5781,630.6934 25.7813,630.6934 Q26.1094,630.6934 26.3594,630.959 Q26.625,631.209 26.625,631.5527 Q26.625,631.8965 26.2813,632.3027 Q25.7813,632.8809 24.9844,633.209 Q23.9063,633.6621 22.6094,633.6621 Q21.0938,633.6621 19.8906,633.0371 Q18.9063,632.5371 18.2188,631.4746 Q17.5313,630.3965 17.5313,629.1152 L17.5313,627.959 Q17.5313,626.6309 18.1406,625.4902 Q18.7656,624.334 19.8594,623.7246 Q20.9531,623.0996 22.1875,623.0996 Q22.9219,623.0996 23.5625,623.2715 Q24.2188,623.4277 24.7656,623.7871 Z " fill="#000000"/><text fill="#000000" font-family="sans-serif" font-size="12" font-style="italic" lengthAdjust="spacing" textLength="77" x="76.5" y="623.5703">&#171;persistence&#187;</text><text fill="#000000" font-family="sans-serif" font-size="14" lengthAdjust="spacing" textLength="158" x="36" y="641.6895">InMemoryUserRepository</text><line style="stroke:#181818;stroke-width:0.5;" x1="8" x2="196" y1="650.2031" y2="650.2031"/><line style="stroke:#181818;stroke-width:0.5;" x1="8" x2="196" y1="658.2031" y2="658.2031"/></g><!--class JpaAutoTxTeacherRepository--><g id="elem_JpaAutoTxTeacherRepository"><rect codeLine="12" fill="#F1F1F1" height="60.582" id="JpaAutoTxTeacherRepository" rx="2.5" ry="2.5" style="stroke:#181818;stroke-width:0.5;" width="219" x="1801.5" y="605.6211"/><ellipse cx="1816.5" cy="627.9121" fill="#ADD1B2" rx="11" ry="11" style="stroke:#181818;stroke-width:1.0;"/><path d="M1819.2656,623.7871 Q1819.4219,623.5684 1819.6094,623.459 Q1819.7969,623.3496 1820.0156,623.3496 Q1820.3906,623.3496 1820.625,623.6152 Q1820.8594,623.8652 1820.8594,624.4746 L1820.8594,625.9277 Q1820.8594,626.5371 1820.625,626.8027 Q1820.3906,627.0684 1820.0156,627.0684 Q1819.6719,627.0684 1819.4688,626.8652 Q1819.2656,626.6777 1819.1563,626.1621 Q1819.1094,625.8027 1818.9219,625.6152 Q1818.5938,625.2402 1817.9844,625.0215 Q1817.375,624.8027 1816.75,624.8027 Q1815.9844,624.8027 1815.3438,625.1309 Q1814.7188,625.459 1814.2188,626.209 Q1813.7344,626.959 1813.7344,627.9902 L1813.7344,629.084 Q1813.7344,630.3184 1814.625,631.1465 Q1815.5156,631.959 1817.1094,631.959 Q1818.0469,631.959 1818.7031,631.709 Q1819.0938,631.5527 1819.5156,631.1152 Q1819.7813,630.8496 1819.9219,630.7715 Q1820.0781,630.6934 1820.2813,630.6934 Q1820.6094,630.6934 1820.8594,630.959 Q1821.125,631.209 1821.125,631.5527 Q1821.125,631.8965 1820.7813,632.3027 Q1820.2813,632.8809 1819.4844,633.209 Q1818.4063,633.6621 1817.1094,633.6621 Q1815.5938,633.6621 1814.3906,633.0371 Q1813.4063,632.5371 1812.7188,631.4746 Q1812.0313,630.3965 1812.0313,629.1152 L1812.0313,627.959 Q1812.0313,626.6309 1812.6406,625.4902 Q1813.2656,624.334 1814.3594,623.7246 Q1815.4531,623.0996 1816.6875,623.0996 Q1817.4219,623.0996 1818.0625,623.2715 Q1818.7188,623.4277 1819.2656,623.7871 Z " fill="#000000"/><text fill="#000000" font-family="sans-serif" font-size="12" font-style="italic" lengthAdjust="spacing" textLength="77" x="1885.5" y="623.5703">&#171;persistence&#187;</text><text fill="#000000" font-family="sans-serif" font-size="14" lengthAdjust="spacing" textLength="187" x="1830.5" y="641.6895">JpaAutoTxTeacherRepository</text><line style="stroke:#181818;stroke-width:0.5;" x1="1802.5" x2="2019.5" y1="650.2031" y2="650.2031"/><line style="stroke:#181818;stroke-width:0.5;" x1="1802.5" x2="2019.5" y1="658.2031" y2="658.2031"/></g><!--class InMemoryTeacherRepository--><g id="elem_InMemoryTeacherRepository"><rect codeLine="13" fill="#F1F1F1" height="60.582" id="InMemoryTeacherRepository" rx="2.5" ry="2.5" style="stroke:#181818;stroke-width:0.5;" width="214" x="1552" y="605.6211"/><ellipse cx="1567" cy="627.9121" fill="#ADD1B2" rx="11" ry="11" style="stroke:#181818;stroke-width:1.0;"/><path d="M1569.7656,623.7871 Q1569.9219,623.5684 1570.1094,623.459 Q1570.2969,623.3496 1570.5156,623.3496 Q1570.8906,623.3496 1571.125,623.6152 Q1571.3594,623.8652 1571.3594,624.4746 L1571.3594,625.9277 Q1571.3594,626.5371 1571.125,626.8027 Q1570.8906,627.0684 1570.5156,627.0684 Q1570.1719,627.0684 1569.9688,626.8652 Q1569.7656,626.6777 1569.6563,626.1621 Q1569.6094,625.8027 1569.4219,625.6152 Q1569.0938,625.2402 1568.4844,625.0215 Q1567.875,624.8027 1567.25,624.8027 Q1566.4844,624.8027 1565.8438,625.1309 Q1565.2188,625.459 1564.7188,626.209 Q1564.2344,626.959 1564.2344,627.9902 L1564.2344,629.084 Q1564.2344,630.3184 1565.125,631.1465 Q1566.0156,631.959 1567.6094,631.959 Q1568.5469,631.959 1569.2031,631.709 Q1569.5938,631.5527 1570.0156,631.1152 Q1570.2813,630.8496 1570.4219,630.7715 Q1570.5781,630.6934 1570.7813,630.6934 Q1571.1094,630.6934 1571.3594,630.959 Q1571.625,631.209 1571.625,631.5527 Q1571.625,631.8965 1571.2813,632.3027 Q1570.7813,632.8809 1569.9844,633.209 Q1568.9063,633.6621 1567.6094,633.6621 Q1566.0938,633.6621 1564.8906,633.0371 Q1563.9063,632.5371 1563.2188,631.4746 Q1562.5313,630.3965 1562.5313,629.1152 L1562.5313,627.959 Q1562.5313,626.6309 1563.1406,625.4902 Q1563.7656,624.334 1564.8594,623.7246 Q1565.9531,623.0996 1567.1875,623.0996 Q1567.9219,623.0996 1568.5625,623.2715 Q1569.2188,623.4277 1569.7656,623.7871 Z " fill="#000000"/><text fill="#000000" font-family="sans-serif" font-size="12" font-style="italic" lengthAdjust="spacing" textLength="77" x="1633.5" y="623.5703">&#171;persistence&#187;</text><text fill="#000000" font-family="sans-serif" font-size="14" lengthAdjust="spacing" textLength="182" x="1581" y="641.6895">InMemoryTeacherRepository</text><line style="stroke:#181818;stroke-width:0.5;" x1="1553" x2="1765" y1="650.2031" y2="650.2031"/><line style="stroke:#181818;stroke-width:0.5;" x1="1553" x2="1765" y1="658.2031" y2="658.2031"/></g><!--class JpaAutoTxStudentRepository--><g id="elem_JpaAutoTxStudentRepository"><rect codeLine="14" fill="#F1F1F1" height="60.582" id="JpaAutoTxStudentRepository" rx="2.5" ry="2.5" style="stroke:#181818;stroke-width:0.5;" width="215" x="1066.5" y="605.6211"/><ellipse cx="1081.5" cy="627.9121" fill="#ADD1B2" rx="11" ry="11" style="stroke:#181818;stroke-width:1.0;"/><path d="M1084.2656,623.7871 Q1084.4219,623.5684 1084.6094,623.459 Q1084.7969,623.3496 1085.0156,623.3496 Q1085.3906,623.3496 1085.625,623.6152 Q1085.8594,623.8652 1085.8594,624.4746 L1085.8594,625.9277 Q1085.8594,626.5371 1085.625,626.8027 Q1085.3906,627.0684 1085.0156,627.0684 Q1084.6719,627.0684 1084.4688,626.8652 Q1084.2656,626.6777 1084.1563,626.1621 Q1084.1094,625.8027 1083.9219,625.6152 Q1083.5938,625.2402 1082.9844,625.0215 Q1082.375,624.8027 1081.75,624.8027 Q1080.9844,624.8027 1080.3438,625.1309 Q1079.7188,625.459 1079.2188,626.209 Q1078.7344,626.959 1078.7344,627.9902 L1078.7344,629.084 Q1078.7344,630.3184 1079.625,631.1465 Q1080.5156,631.959 1082.1094,631.959 Q1083.0469,631.959 1083.7031,631.709 Q1084.0938,631.5527 1084.5156,631.1152 Q1084.7813,630.8496 1084.9219,630.7715 Q1085.0781,630.6934 1085.2813,630.6934 Q1085.6094,630.6934 1085.8594,630.959 Q1086.125,631.209 1086.125,631.5527 Q1086.125,631.8965 1085.7813,632.3027 Q1085.2813,632.8809 1084.4844,633.209 Q1083.4063,633.6621 1082.1094,633.6621 Q1080.5938,633.6621 1079.3906,633.0371 Q1078.4063,632.5371 1077.7188,631.4746 Q1077.0313,630.3965 1077.0313,629.1152 L1077.0313,627.959 Q1077.0313,626.6309 1077.6406,625.4902 Q1078.2656,624.334 1079.3594,623.7246 Q1080.4531,623.0996 1081.6875,623.0996 Q1082.4219,623.0996 1083.0625,623.2715 Q1083.7188,623.4277 1084.2656,623.7871 Z " fill="#000000"/><text fill="#000000" font-family="sans-serif" font-size="12" font-style="italic" lengthAdjust="spacing" textLength="77" x="1148.5" y="623.5703">&#171;persistence&#187;</text><text fill="#000000" font-family="sans-serif" font-size="14" lengthAdjust="spacing" textLength="183" x="1095.5" y="641.6895">JpaAutoTxStudentRepository</text><line style="stroke:#181818;stroke-width:0.5;" x1="1067.5" x2="1280.5" y1="650.2031" y2="650.2031"/><line style="stroke:#181818;stroke-width:0.5;" x1="1067.5" x2="1280.5" y1="658.2031" y2="658.2031"/></g><!--class InMemoryStudentRepository--><g id="elem_InMemoryStudentRepository"><rect codeLine="15" fill="#F1F1F1" height="60.582" id="InMemoryStudentRepository" rx="2.5" ry="2.5" style="stroke:#181818;stroke-width:0.5;" width="210" x="821" y="605.6211"/><ellipse cx="836" cy="627.9121" fill="#ADD1B2" rx="11" ry="11" style="stroke:#181818;stroke-width:1.0;"/><path d="M838.7656,623.7871 Q838.9219,623.5684 839.1094,623.459 Q839.2969,623.3496 839.5156,623.3496 Q839.8906,623.3496 840.125,623.6152 Q840.3594,623.8652 840.3594,624.4746 L840.3594,625.9277 Q840.3594,626.5371 840.125,626.8027 Q839.8906,627.0684 839.5156,627.0684 Q839.1719,627.0684 838.9688,626.8652 Q838.7656,626.6777 838.6563,626.1621 Q838.6094,625.8027 838.4219,625.6152 Q838.0938,625.2402 837.4844,625.0215 Q836.875,624.8027 836.25,624.8027 Q835.4844,624.8027 834.8438,625.1309 Q834.2188,625.459 833.7188,626.209 Q833.2344,626.959 833.2344,627.9902 L833.2344,629.084 Q833.2344,630.3184 834.125,631.1465 Q835.0156,631.959 836.6094,631.959 Q837.5469,631.959 838.2031,631.709 Q838.5938,631.5527 839.0156,631.1152 Q839.2813,630.8496 839.4219,630.7715 Q839.5781,630.6934 839.7813,630.6934 Q840.1094,630.6934 840.3594,630.959 Q840.625,631.209 840.625,631.5527 Q840.625,631.8965 840.2813,632.3027 Q839.7813,632.8809 838.9844,633.209 Q837.9063,633.6621 836.6094,633.6621 Q835.0938,633.6621 833.8906,633.0371 Q832.9063,632.5371 832.2188,631.4746 Q831.5313,630.3965 831.5313,629.1152 L831.5313,627.959 Q831.5313,626.6309 832.1406,625.4902 Q832.7656,624.334 833.8594,623.7246 Q834.9531,623.0996 836.1875,623.0996 Q836.9219,623.0996 837.5625,623.2715 Q838.2188,623.4277 838.7656,623.7871 Z " fill="#000000"/><text fill="#000000" font-family="sans-serif" font-size="12" font-style="italic" lengthAdjust="spacing" textLength="77" x="900.5" y="623.5703">&#171;persistence&#187;</text><text fill="#000000" font-family="sans-serif" font-size="14" lengthAdjust="spacing" textLength="178" x="850" y="641.6895">InMemoryStudentRepository</text><line style="stroke:#181818;stroke-width:0.5;" x1="822" x2="1030" y1="650.2031" y2="650.2031"/><line style="stroke:#181818;stroke-width:0.5;" x1="822" x2="1030" y1="658.2031" y2="658.2031"/></g><!--class SystemUser--><g id="elem_SystemUser"><rect codeLine="17" fill="#F1F1F1" height="60.582" id="SystemUser" rx="2.5" ry="2.5" style="stroke:#181818;stroke-width:0.5;" width="107" x="2370.5" y="474.6211"/><ellipse cx="2385.5" cy="496.9121" fill="#ADD1B2" rx="11" ry="11" style="stroke:#181818;stroke-width:1.0;"/><path d="M2388.2656,492.7871 Q2388.4219,492.5684 2388.6094,492.459 Q2388.7969,492.3496 2389.0156,492.3496 Q2389.3906,492.3496 2389.625,492.6152 Q2389.8594,492.8652 2389.8594,493.4746 L2389.8594,494.9277 Q2389.8594,495.5371 2389.625,495.8027 Q2389.3906,496.0684 2389.0156,496.0684 Q2388.6719,496.0684 2388.4688,495.8652 Q2388.2656,495.6777 2388.1563,495.1621 Q2388.1094,494.8027 2387.9219,494.6152 Q2387.5938,494.2402 2386.9844,494.0215 Q2386.375,493.8027 2385.75,493.8027 Q2384.9844,493.8027 2384.3438,494.1309 Q2383.7188,494.459 2383.2188,495.209 Q2382.7344,495.959 2382.7344,496.9902 L2382.7344,498.084 Q2382.7344,499.3184 2383.625,500.1465 Q2384.5156,500.959 2386.1094,500.959 Q2387.0469,500.959 2387.7031,500.709 Q2388.0938,500.5527 2388.5156,500.1152 Q2388.7813,499.8496 2388.9219,499.7715 Q2389.0781,499.6934 2389.2813,499.6934 Q2389.6094,499.6934 2389.8594,499.959 Q2390.125,500.209 2390.125,500.5527 Q2390.125,500.8965 2389.7813,501.3027 Q2389.2813,501.8809 2388.4844,502.209 Q2387.4063,502.6621 2386.1094,502.6621 Q2384.5938,502.6621 2383.3906,502.0371 Q2382.4063,501.5371 2381.7188,500.4746 Q2381.0313,499.3965 2381.0313,498.1152 L2381.0313,496.959 Q2381.0313,495.6309 2381.6406,494.4902 Q2382.2656,493.334 2383.3594,492.7246 Q2384.4531,492.0996 2385.6875,492.0996 Q2386.4219,492.0996 2387.0625,492.2715 Q2387.7188,492.4277 2388.2656,492.7871 Z " fill="#000000"/><text fill="#000000" font-family="sans-serif" font-size="12" font-style="italic" lengthAdjust="spacing" textLength="58" x="2408" y="492.5703">&#171;Domain&#187;</text><text fill="#000000" font-family="sans-serif" font-size="14" lengthAdjust="spacing" textLength="75" x="2399.5" y="510.6895">SystemUser</text><line style="stroke:#181818;stroke-width:0.5;" x1="2371.5" x2="2476.5" y1="519.2031" y2="519.2031"/><line style="stroke:#181818;stroke-width:0.5;" x1="2371.5" x2="2476.5" y1="527.2031" y2="527.2031"/></g><!--class Student--><g id="elem_Student"><rect codeLine="18" fill="#F1F1F1" height="60.582" id="Student" rx="2.5" ry="2.5" style="stroke:#181818;stroke-width:0.5;" width="86" x="2513" y="474.6211"/><ellipse cx="2528" cy="496.9121" fill="#ADD1B2" rx="11" ry="11" style="stroke:#181818;stroke-width:1.0;"/><path d="M2530.7656,492.7871 Q2530.9219,492.5684 2531.1094,492.459 Q2531.2969,492.3496 2531.5156,492.3496 Q2531.8906,492.3496 2532.125,492.6152 Q2532.3594,492.8652 2532.3594,493.4746 L2532.3594,494.9277 Q2532.3594,495.5371 2532.125,495.8027 Q2531.8906,496.0684 2531.5156,496.0684 Q2531.1719,496.0684 2530.9688,495.8652 Q2530.7656,495.6777 2530.6563,495.1621 Q2530.6094,494.8027 2530.4219,494.6152 Q2530.0938,494.2402 2529.4844,494.0215 Q2528.875,493.8027 2528.25,493.8027 Q2527.4844,493.8027 2526.8438,494.1309 Q2526.2188,494.459 2525.7188,495.209 Q2525.2344,495.959 2525.2344,496.9902 L2525.2344,498.084 Q2525.2344,499.3184 2526.125,500.1465 Q2527.0156,500.959 2528.6094,500.959 Q2529.5469,500.959 2530.2031,500.709 Q2530.5938,500.5527 2531.0156,500.1152 Q2531.2813,499.8496 2531.4219,499.7715 Q2531.5781,499.6934 2531.7813,499.6934 Q2532.1094,499.6934 2532.3594,499.959 Q2532.625,500.209 2532.625,500.5527 Q2532.625,500.8965 2532.2813,501.3027 Q2531.7813,501.8809 2530.9844,502.209 Q2529.9063,502.6621 2528.6094,502.6621 Q2527.0938,502.6621 2525.8906,502.0371 Q2524.9063,501.5371 2524.2188,500.4746 Q2523.5313,499.3965 2523.5313,498.1152 L2523.5313,496.959 Q2523.5313,495.6309 2524.1406,494.4902 Q2524.7656,493.334 2525.8594,492.7246 Q2526.9531,492.0996 2528.1875,492.0996 Q2528.9219,492.0996 2529.5625,492.2715 Q2530.2188,492.4277 2530.7656,492.7871 Z " fill="#000000"/><text fill="#000000" font-family="sans-serif" font-size="12" font-style="italic" lengthAdjust="spacing" textLength="58" x="2540" y="492.5703">&#171;Domain&#187;</text><text fill="#000000" font-family="sans-serif" font-size="14" lengthAdjust="spacing" textLength="49" x="2544.5" y="510.6895">Student</text><line style="stroke:#181818;stroke-width:0.5;" x1="2514" x2="2598" y1="519.2031" y2="519.2031"/><line style="stroke:#181818;stroke-width:0.5;" x1="2514" x2="2598" y1="527.2031" y2="527.2031"/></g><!--class Teacher--><g id="elem_Teacher"><rect codeLine="19" fill="#F1F1F1" height="60.582" id="Teacher" rx="2.5" ry="2.5" style="stroke:#181818;stroke-width:0.5;" width="86" x="2634" y="474.6211"/><ellipse cx="2649" cy="496.9121" fill="#ADD1B2" rx="11" ry="11" style="stroke:#181818;stroke-width:1.0;"/><path d="M2651.7656,492.7871 Q2651.9219,492.5684 2652.1094,492.459 Q2652.2969,492.3496 2652.5156,492.3496 Q2652.8906,492.3496 2653.125,492.6152 Q2653.3594,492.8652 2653.3594,493.4746 L2653.3594,494.9277 Q2653.3594,495.5371 2653.125,495.8027 Q2652.8906,496.0684 2652.5156,496.0684 Q2652.1719,496.0684 2651.9688,495.8652 Q2651.7656,495.6777 2651.6563,495.1621 Q2651.6094,494.8027 2651.4219,494.6152 Q2651.0938,494.2402 2650.4844,494.0215 Q2649.875,493.8027 2649.25,493.8027 Q2648.4844,493.8027 2647.8438,494.1309 Q2647.2188,494.459 2646.7188,495.209 Q2646.2344,495.959 2646.2344,496.9902 L2646.2344,498.084 Q2646.2344,499.3184 2647.125,500.1465 Q2648.0156,500.959 2649.6094,500.959 Q2650.5469,500.959 2651.2031,500.709 Q2651.5938,500.5527 2652.0156,500.1152 Q2652.2813,499.8496 2652.4219,499.7715 Q2652.5781,499.6934 2652.7813,499.6934 Q2653.1094,499.6934 2653.3594,499.959 Q2653.625,500.209 2653.625,500.5527 Q2653.625,500.8965 2653.2813,501.3027 Q2652.7813,501.8809 2651.9844,502.209 Q2650.9063,502.6621 2649.6094,502.6621 Q2648.0938,502.6621 2646.8906,502.0371 Q2645.9063,501.5371 2645.2188,500.4746 Q2644.5313,499.3965 2644.5313,498.1152 L2644.5313,496.959 Q2644.5313,495.6309 2645.1406,494.4902 Q2645.7656,493.334 2646.8594,492.7246 Q2647.9531,492.0996 2649.1875,492.0996 Q2649.9219,492.0996 2650.5625,492.2715 Q2651.2188,492.4277 2651.7656,492.7871 Z " fill="#000000"/><text fill="#000000" font-family="sans-serif" font-size="12" font-style="italic" lengthAdjust="spacing" textLength="58" x="2661" y="492.5703">&#171;Domain&#187;</text><text fill="#000000" font-family="sans-serif" font-size="14" lengthAdjust="spacing" textLength="53" x="2663.5" y="510.6895">Teacher</text><line style="stroke:#181818;stroke-width:0.5;" x1="2635" x2="2719" y1="519.2031" y2="519.2031"/><line style="stroke:#181818;stroke-width:0.5;" x1="2635" x2="2719" y1="527.2031" y2="527.2031"/></g><!--class AddUserController--><g id="elem_AddUserController"><rect codeLine="21" fill="#F1F1F1" height="190.9297" id="AddUserController" rx="2.5" ry="2.5" style="stroke:#181818;stroke-width:0.5;" width="182" x="2066" y="204.6211"/><ellipse cx="2096.3" cy="226.9121" fill="#ADD1B2" rx="11" ry="11" style="stroke:#181818;stroke-width:1.0;"/><path d="M2099.0656,222.7871 Q2099.2219,222.5684 2099.4094,222.459 Q2099.5969,222.3496 2099.8156,222.3496 Q2100.1906,222.3496 2100.425,222.6152 Q2100.6594,222.8652 2100.6594,223.4746 L2100.6594,224.9277 Q2100.6594,225.5371 2100.425,225.8027 Q2100.1906,226.0684 2099.8156,226.0684 Q2099.4719,226.0684 2099.2688,225.8652 Q2099.0656,225.6777 2098.9563,225.1621 Q2098.9094,224.8027 2098.7219,224.6152 Q2098.3938,224.2402 2097.7844,224.0215 Q2097.175,223.8027 2096.55,223.8027 Q2095.7844,223.8027 2095.1438,224.1309 Q2094.5188,224.459 2094.0188,225.209 Q2093.5344,225.959 2093.5344,226.9902 L2093.5344,228.084 Q2093.5344,229.3184 2094.425,230.1465 Q2095.3156,230.959 2096.9094,230.959 Q2097.8469,230.959 2098.5031,230.709 Q2098.8938,230.5527 2099.3156,230.1152 Q2099.5813,229.8496 2099.7219,229.7715 Q2099.8781,229.6934 2100.0813,229.6934 Q2100.4094,229.6934 2100.6594,229.959 Q2100.925,230.209 2100.925,230.5527 Q2100.925,230.8965 2100.5813,231.3027 Q2100.0813,231.8809 2099.2844,232.209 Q2098.2063,232.6621 2096.9094,232.6621 Q2095.3938,232.6621 2094.1906,232.0371 Q2093.2063,231.5371 2092.5188,230.4746 Q2091.8313,229.3965 2091.8313,228.1152 L2091.8313,226.959 Q2091.8313,225.6309 2092.4406,224.4902 Q2093.0656,223.334 2094.1594,222.7246 Q2095.2531,222.0996 2096.4875,222.0996 Q2097.2219,222.0996 2097.8625,222.2715 Q2098.5188,222.4277 2099.0656,222.7871 Z " fill="#000000"/><text fill="#000000" font-family="sans-serif" font-size="12" font-style="italic" lengthAdjust="spacing" textLength="75" x="2134.2" y="222.5703">&#171;Application&#187;</text><text fill="#000000" font-family="sans-serif" font-size="14" lengthAdjust="spacing" textLength="116" x="2113.7" y="240.6895">AddUserController</text><line style="stroke:#181818;stroke-width:0.5;" x1="2067" x2="2247" y1="249.2031" y2="249.2031"/><line style="stroke:#181818;stroke-width:0.5;" x1="2067" x2="2247" y1="257.2031" y2="257.2031"/><ellipse cx="2077" cy="272.0137" fill="#84BE84" rx="3" ry="3" style="stroke:#038048;stroke-width:1.0;"/><text fill="#000000" font-family="sans-serif" font-size="14" lengthAdjust="spacing" textLength="139" x="2086" y="276.3105">Role[] getRoleTypes()</text><ellipse cx="2077" cy="290.6348" fill="#84BE84" rx="3" ry="3" style="stroke:#038048;stroke-width:1.0;"/><text fill="#000000" font-family="sans-serif" font-size="14" lengthAdjust="spacing" textLength="154" x="2086" y="294.9316">SystemUser addUser(...)</text><rect fill="#F24D5C" height="6" style="stroke:#C82930;stroke-width:1.0;" width="6" x="2074" y="306.2559"/><text fill="#000000" font-family="sans-serif" font-size="14" lengthAdjust="spacing" textLength="140" x="2086" y="313.5527">Person addPerson(...)</text><ellipse cx="2077" cy="327.877" fill="#84BE84" rx="3" ry="3" style="stroke:#038048;stroke-width:1.0;"/><text fill="#000000" font-family="sans-serif" font-size="14" lengthAdjust="spacing" textLength="156" x="2086" y="332.1738">Teacher addTeacher(...)</text><rect fill="#F24D5C" height="6" style="stroke:#C82930;stroke-width:1.0;" width="6" x="2074" y="343.498"/><text fill="#000000" font-family="sans-serif" font-size="14" lengthAdjust="spacing" textLength="148" x="2086" y="350.7949">Teacher addPerson(...)</text><ellipse cx="2077" cy="365.1191" fill="#84BE84" rx="3" ry="3" style="stroke:#038048;stroke-width:1.0;"/><text fill="#000000" font-family="sans-serif" font-size="14" lengthAdjust="spacing" textLength="148" x="2086" y="369.416">Student addStudent(...)</text><rect fill="#F24D5C" height="6" style="stroke:#C82930;stroke-width:1.0;" width="6" x="2074" y="380.7402"/><text fill="#000000" font-family="sans-serif" font-size="14" lengthAdjust="spacing" textLength="144" x="2086" y="388.0371">Student addPerson(...)</text></g><!--class UserManagementService--><g id="elem_UserManagementService"><rect codeLine="31" fill="#F1F1F1" height="60.582" id="UserManagementService" rx="2.5" ry="2.5" style="stroke:#181818;stroke-width:0.5;" width="190" x="888" y="474.6211"/><ellipse cx="903" cy="496.9121" fill="#ADD1B2" rx="11" ry="11" style="stroke:#181818;stroke-width:1.0;"/><path d="M905.7656,492.7871 Q905.9219,492.5684 906.1094,492.459 Q906.2969,492.3496 906.5156,492.3496 Q906.8906,492.3496 907.125,492.6152 Q907.3594,492.8652 907.3594,493.4746 L907.3594,494.9277 Q907.3594,495.5371 907.125,495.8027 Q906.8906,496.0684 906.5156,496.0684 Q906.1719,496.0684 905.9688,495.8652 Q905.7656,495.6777 905.6563,495.1621 Q905.6094,494.8027 905.4219,494.6152 Q905.0938,494.2402 904.4844,494.0215 Q903.875,493.8027 903.25,493.8027 Q902.4844,493.8027 901.8438,494.1309 Q901.2188,494.459 900.7188,495.209 Q900.2344,495.959 900.2344,496.9902 L900.2344,498.084 Q900.2344,499.3184 901.125,500.1465 Q902.0156,500.959 903.6094,500.959 Q904.5469,500.959 905.2031,500.709 Q905.5938,500.5527 906.0156,500.1152 Q906.2813,499.8496 906.4219,499.7715 Q906.5781,499.6934 906.7813,499.6934 Q907.1094,499.6934 907.3594,499.959 Q907.625,500.209 907.625,500.5527 Q907.625,500.8965 907.2813,501.3027 Q906.7813,501.8809 905.9844,502.209 Q904.9063,502.6621 903.6094,502.6621 Q902.0938,502.6621 900.8906,502.0371 Q899.9063,501.5371 899.2188,500.4746 Q898.5313,499.3965 898.5313,498.1152 L898.5313,496.959 Q898.5313,495.6309 899.1406,494.4902 Q899.7656,493.334 900.8594,492.7246 Q901.9531,492.0996 903.1875,492.0996 Q903.9219,492.0996 904.5625,492.2715 Q905.2188,492.4277 905.7656,492.7871 Z " fill="#000000"/><text fill="#000000" font-family="sans-serif" font-size="12" font-style="italic" lengthAdjust="spacing" textLength="75" x="958.5" y="492.5703">&#171;Application&#187;</text><text fill="#000000" font-family="sans-serif" font-size="14" lengthAdjust="spacing" textLength="158" x="917" y="510.6895">UserManagementService</text><line style="stroke:#181818;stroke-width:0.5;" x1="889" x2="1077" y1="519.2031" y2="519.2031"/><line style="stroke:#181818;stroke-width:0.5;" x1="889" x2="1077" y1="527.2031" y2="527.2031"/></g><!--class TeacherManagementService--><g id="elem_TeacherManagementService"><rect codeLine="32" fill="#F1F1F1" height="60.582" id="TeacherManagementService" rx="2.5" ry="2.5" style="stroke:#181818;stroke-width:0.5;" width="214" x="2050" y="474.6211"/><ellipse cx="2065" cy="496.9121" fill="#ADD1B2" rx="11" ry="11" style="stroke:#181818;stroke-width:1.0;"/><path d="M2067.7656,492.7871 Q2067.9219,492.5684 2068.1094,492.459 Q2068.2969,492.3496 2068.5156,492.3496 Q2068.8906,492.3496 2069.125,492.6152 Q2069.3594,492.8652 2069.3594,493.4746 L2069.3594,494.9277 Q2069.3594,495.5371 2069.125,495.8027 Q2068.8906,496.0684 2068.5156,496.0684 Q2068.1719,496.0684 2067.9688,495.8652 Q2067.7656,495.6777 2067.6563,495.1621 Q2067.6094,494.8027 2067.4219,494.6152 Q2067.0938,494.2402 2066.4844,494.0215 Q2065.875,493.8027 2065.25,493.8027 Q2064.4844,493.8027 2063.8438,494.1309 Q2063.2188,494.459 2062.7188,495.209 Q2062.2344,495.959 2062.2344,496.9902 L2062.2344,498.084 Q2062.2344,499.3184 2063.125,500.1465 Q2064.0156,500.959 2065.6094,500.959 Q2066.5469,500.959 2067.2031,500.709 Q2067.5938,500.5527 2068.0156,500.1152 Q2068.2813,499.8496 2068.4219,499.7715 Q2068.5781,499.6934 2068.7813,499.6934 Q2069.1094,499.6934 2069.3594,499.959 Q2069.625,500.209 2069.625,500.5527 Q2069.625,500.8965 2069.2813,501.3027 Q2068.7813,501.8809 2067.9844,502.209 Q2066.9063,502.6621 2065.6094,502.6621 Q2064.0938,502.6621 2062.8906,502.0371 Q2061.9063,501.5371 2061.2188,500.4746 Q2060.5313,499.3965 2060.5313,498.1152 L2060.5313,496.959 Q2060.5313,495.6309 2061.1406,494.4902 Q2061.7656,493.334 2062.8594,492.7246 Q2063.9531,492.0996 2065.1875,492.0996 Q2065.9219,492.0996 2066.5625,492.2715 Q2067.2188,492.4277 2067.7656,492.7871 Z " fill="#000000"/><text fill="#000000" font-family="sans-serif" font-size="12" font-style="italic" lengthAdjust="spacing" textLength="75" x="2132.5" y="492.5703">&#171;Application&#187;</text><text fill="#000000" font-family="sans-serif" font-size="14" lengthAdjust="spacing" textLength="182" x="2079" y="510.6895">TeacherManagementService</text><line style="stroke:#181818;stroke-width:0.5;" x1="2051" x2="2263" y1="519.2031" y2="519.2031"/><line style="stroke:#181818;stroke-width:0.5;" x1="2051" x2="2263" y1="527.2031" y2="527.2031"/></g><!--class StudentManagementService--><g id="elem_StudentManagementService"><rect codeLine="33" fill="#F1F1F1" height="60.582" id="StudentManagementService" rx="2.5" ry="2.5" style="stroke:#181818;stroke-width:0.5;" width="210" x="1754" y="474.6211"/><ellipse cx="1769" cy="496.9121" fill="#ADD1B2" rx="11" ry="11" style="stroke:#181818;stroke-width:1.0;"/><path d="M1771.7656,492.7871 Q1771.9219,492.5684 1772.1094,492.459 Q1772.2969,492.3496 1772.5156,492.3496 Q1772.8906,492.3496 1773.125,492.6152 Q1773.3594,492.8652 1773.3594,493.4746 L1773.3594,494.9277 Q1773.3594,495.5371 1773.125,495.8027 Q1772.8906,496.0684 1772.5156,496.0684 Q1772.1719,496.0684 1771.9688,495.8652 Q1771.7656,495.6777 1771.6563,495.1621 Q1771.6094,494.8027 1771.4219,494.6152 Q1771.0938,494.2402 1770.4844,494.0215 Q1769.875,493.8027 1769.25,493.8027 Q1768.4844,493.8027 1767.8438,494.1309 Q1767.2188,494.459 1766.7188,495.209 Q1766.2344,495.959 1766.2344,496.9902 L1766.2344,498.084 Q1766.2344,499.3184 1767.125,500.1465 Q1768.0156,500.959 1769.6094,500.959 Q1770.5469,500.959 1771.2031,500.709 Q1771.5938,500.5527 1772.0156,500.1152 Q1772.2813,499.8496 1772.4219,499.7715 Q1772.5781,499.6934 1772.7813,499.6934 Q1773.1094,499.6934 1773.3594,499.959 Q1773.625,500.209 1773.625,500.5527 Q1773.625,500.8965 1773.2813,501.3027 Q1772.7813,501.8809 1771.9844,502.209 Q1770.9063,502.6621 1769.6094,502.6621 Q1768.0938,502.6621 1766.8906,502.0371 Q1765.9063,501.5371 1765.2188,500.4746 Q1764.5313,499.3965 1764.5313,498.1152 L1764.5313,496.959 Q1764.5313,495.6309 1765.1406,494.4902 Q1765.7656,493.334 1766.8594,492.7246 Q1767.9531,492.0996 1769.1875,492.0996 Q1769.9219,492.0996 1770.5625,492.2715 Q1771.2188,492.4277 1771.7656,492.7871 Z " fill="#000000"/><text fill="#000000" font-family="sans-serif" font-size="12" font-style="italic" lengthAdjust="spacing" textLength="75" x="1834.5" y="492.5703">&#171;Application&#187;</text><text fill="#000000" font-family="sans-serif" font-size="14" lengthAdjust="spacing" textLength="178" x="1783" y="510.6895">StudentManagementService</text><line style="stroke:#181818;stroke-width:0.5;" x1="1755" x2="1963" y1="519.2031" y2="519.2031"/><line style="stroke:#181818;stroke-width:0.5;" x1="1755" x2="1963" y1="527.2031" y2="527.2031"/></g><!--class UserRepository--><g id="elem_UserRepository"><rect codeLine="35" fill="#F1F1F1" height="79.2031" id="UserRepository" rx="2.5" ry="2.5" style="stroke:#181818;stroke-width:0.5;" width="252" x="463" y="596.6211"/><ellipse cx="535.75" cy="618.9121" fill="#B4A7E5" rx="11" ry="11" style="stroke:#181818;stroke-width:1.0;"/><path d="M536.7031,615.5527 L536.7031,622.209 L538.4219,622.209 Q539.0313,622.209 539.2969,622.4434 Q539.5625,622.6777 539.5625,623.0684 Q539.5625,623.4434 539.2969,623.6777 Q539.0313,623.9121 538.4219,623.9121 L533.2813,623.9121 Q532.6719,623.9121 532.4063,623.6777 Q532.1406,623.4434 532.1406,623.0527 Q532.1406,622.6777 532.4063,622.4434 Q532.6719,622.209 533.2813,622.209 L535,622.209 L535,615.5527 L533.2813,615.5527 Q532.6719,615.5527 532.4063,615.3184 Q532.1406,615.084 532.1406,614.6934 Q532.1406,614.3184 532.4063,614.084 Q532.6719,613.8496 533.2813,613.8496 L538.4219,613.8496 Q539.0313,613.8496 539.2969,614.084 Q539.5625,614.3184 539.5625,614.6934 Q539.5625,615.084 539.2969,615.3184 Q539.0313,615.5527 538.4219,615.5527 L536.7031,615.5527 Z " fill="#000000"/><text fill="#000000" font-family="sans-serif" font-size="12" font-style="italic" lengthAdjust="spacing" textLength="83" x="563.75" y="614.5703">&#171;Repositories&#187;</text><text fill="#000000" font-family="sans-serif" font-size="14" font-style="italic" lengthAdjust="spacing" textLength="98" x="556.25" y="632.6895">UserRepository</text><line style="stroke:#181818;stroke-width:0.5;" x1="464" x2="714" y1="641.2031" y2="641.2031"/><line style="stroke:#181818;stroke-width:0.5;" x1="464" x2="714" y1="649.2031" y2="649.2031"/><ellipse cx="474" cy="664.0137" fill="#84BE84" rx="3" ry="3" style="stroke:#038048;stroke-width:1.0;"/><text fill="#000000" font-family="sans-serif" font-size="14" lengthAdjust="spacing" textLength="226" x="483" y="668.3105">SystemUser save(SystemUser user)</text></g><!--class TeacherRepository--><g id="elem_TeacherRepository"><rect codeLine="38" fill="#F1F1F1" height="79.2031" id="TeacherRepository" rx="2.5" ry="2.5" style="stroke:#181818;stroke-width:0.5;" width="208" x="2056" y="596.6211"/><ellipse cx="2095.75" cy="618.9121" fill="#B4A7E5" rx="11" ry="11" style="stroke:#181818;stroke-width:1.0;"/><path d="M2096.7031,615.5527 L2096.7031,622.209 L2098.4219,622.209 Q2099.0313,622.209 2099.2969,622.4434 Q2099.5625,622.6777 2099.5625,623.0684 Q2099.5625,623.4434 2099.2969,623.6777 Q2099.0313,623.9121 2098.4219,623.9121 L2093.2813,623.9121 Q2092.6719,623.9121 2092.4063,623.6777 Q2092.1406,623.4434 2092.1406,623.0527 Q2092.1406,622.6777 2092.4063,622.4434 Q2092.6719,622.209 2093.2813,622.209 L2095,622.209 L2095,615.5527 L2093.2813,615.5527 Q2092.6719,615.5527 2092.4063,615.3184 Q2092.1406,615.084 2092.1406,614.6934 Q2092.1406,614.3184 2092.4063,614.084 Q2092.6719,613.8496 2093.2813,613.8496 L2098.4219,613.8496 Q2099.0313,613.8496 2099.2969,614.084 Q2099.5625,614.3184 2099.5625,614.6934 Q2099.5625,615.084 2099.2969,615.3184 Q2099.0313,615.5527 2098.4219,615.5527 L2096.7031,615.5527 Z " fill="#000000"/><text fill="#000000" font-family="sans-serif" font-size="12" font-style="italic" lengthAdjust="spacing" textLength="83" x="2134.25" y="614.5703">&#171;Repositories&#187;</text><text fill="#000000" font-family="sans-serif" font-size="14" font-style="italic" lengthAdjust="spacing" textLength="121" x="2115.25" y="632.6895">TeacherRepository</text><line style="stroke:#181818;stroke-width:0.5;" x1="2057" x2="2263" y1="641.2031" y2="641.2031"/><line style="stroke:#181818;stroke-width:0.5;" x1="2057" x2="2263" y1="649.2031" y2="649.2031"/><ellipse cx="2067" cy="664.0137" fill="#84BE84" rx="3" ry="3" style="stroke:#038048;stroke-width:1.0;"/><text fill="#000000" font-family="sans-serif" font-size="14" lengthAdjust="spacing" textLength="182" x="2076" y="668.3105">Teacher save(Teacher user)</text></g><!--class StudentRepository--><g id="elem_StudentRepository"><rect codeLine="41" fill="#F1F1F1" height="79.2031" id="StudentRepository" rx="2.5" ry="2.5" style="stroke:#181818;stroke-width:0.5;" width="200" x="1317" y="596.6211"/><ellipse cx="1354.95" cy="618.9121" fill="#B4A7E5" rx="11" ry="11" style="stroke:#181818;stroke-width:1.0;"/><path d="M1355.9031,615.5527 L1355.9031,622.209 L1357.6219,622.209 Q1358.2313,622.209 1358.4969,622.4434 Q1358.7625,622.6777 1358.7625,623.0684 Q1358.7625,623.4434 1358.4969,623.6777 Q1358.2313,623.9121 1357.6219,623.9121 L1352.4813,623.9121 Q1351.8719,623.9121 1351.6063,623.6777 Q1351.3406,623.4434 1351.3406,623.0527 Q1351.3406,622.6777 1351.6063,622.4434 Q1351.8719,622.209 1352.4813,622.209 L1354.2,622.209 L1354.2,615.5527 L1352.4813,615.5527 Q1351.8719,615.5527 1351.6063,615.3184 Q1351.3406,615.084 1351.3406,614.6934 Q1351.3406,614.3184 1351.6063,614.084 Q1351.8719,613.8496 1352.4813,613.8496 L1357.6219,613.8496 Q1358.2313,613.8496 1358.4969,614.084 Q1358.7625,614.3184 1358.7625,614.6934 Q1358.7625,615.084 1358.4969,615.3184 Q1358.2313,615.5527 1357.6219,615.5527 L1355.9031,615.5527 Z " fill="#000000"/><text fill="#000000" font-family="sans-serif" font-size="12" font-style="italic" lengthAdjust="spacing" textLength="83" x="1391.05" y="614.5703">&#171;Repositories&#187;</text><text fill="#000000" font-family="sans-serif" font-size="14" font-style="italic" lengthAdjust="spacing" textLength="117" x="1374.05" y="632.6895">StudentRepository</text><line style="stroke:#181818;stroke-width:0.5;" x1="1318" x2="1516" y1="641.2031" y2="641.2031"/><line style="stroke:#181818;stroke-width:0.5;" x1="1318" x2="1516" y1="649.2031" y2="649.2031"/><ellipse cx="1328" cy="664.0137" fill="#84BE84" rx="3" ry="3" style="stroke:#038048;stroke-width:1.0;"/><text fill="#000000" font-family="sans-serif" font-size="14" lengthAdjust="spacing" textLength="174" x="1337" y="668.3105">Student save(Student user)</text></g><!--link AddUserUI to AddUserController--><g id="link_AddUserUI_AddUserController"><path codeLine="46" d="M2157,126.0011 C2157,146.7411 2157,173.2911 2157,199.3411 " fill="none" id="AddUserUI-to-AddUserController" style="stroke:#181818;stroke-width:1.0;"/><polygon fill="#181818" points="2157,204.5411,2161,195.5411,2157,199.5411,2153,195.5411,2157,204.5411" style="stroke:#181818;stroke-width:1.0;"/><text fill="#000000" font-family="sans-serif" font-size="13" lengthAdjust="spacing" textLength="73" x="2158" y="170.6494">theController</text></g><!--link AddUserController to UserRepository--><g id="link_AddUserController_UserRepository"><path codeLine="47" d="M2065.81,301.0111 C1848.14,303.3211 1283.53,324.5711 843,474.6211 C765.68,500.9611 687.91,555.1311 639.17,593.2311 " fill="none" id="AddUserController-to-UserRepository" style="stroke:#181818;stroke-width:1.0;"/><polygon fill="#181818" points="635.13,596.4011,644.6785,593.9875,639.0621,593.3126,639.737,587.6962,635.13,596.4011" style="stroke:#181818;stroke-width:1.0;"/><text fill="#000000" font-family="sans-serif" font-size="13" lengthAdjust="spacing" textLength="25" x="844" y="510.6494">repo</text></g><!--link AddUserController to UserManagementService--><g id="link_AddUserController_UserManagementService"><path codeLine="48" d="M2065.86,316.8811 C1849.9,354.2211 1308.37,447.8611 1083.42,486.7611 " fill="none" id="AddUserController-to-UserManagementService" style="stroke:#181818;stroke-width:1.0;"/><polygon fill="#181818" points="1078.16,487.6611,1087.7123,490.0599,1083.0861,486.8044,1086.3415,482.1782,1078.16,487.6611" style="stroke:#181818;stroke-width:1.0;"/><text fill="#000000" font-family="sans-serif" font-size="13" lengthAdjust="spacing" textLength="40" x="1431" y="440.6494">service</text></g><!--link AddUserController to TeacherManagementService--><g id="link_AddUserController_TeacherManagementService"><path codeLine="49" d="M2157,395.7911 C2157,422.0911 2157,449.0011 2157,469.4211 " fill="none" id="AddUserController-to-TeacherManagementService" style="stroke:#181818;stroke-width:1.0;"/><polygon fill="#181818" points="2157,474.4711,2161,465.4711,2157,469.4711,2153,465.4711,2157,474.4711" style="stroke:#181818;stroke-width:1.0;"/><text fill="#000000" font-family="sans-serif" font-size="13" lengthAdjust="spacing" textLength="40" x="2158" y="440.6494">service</text></g><!--link AddUserController to StudentManagementService--><g id="link_AddUserController_StudentManagementService"><path codeLine="50" d="M2065.97,363.1311 C2013.51,398.8611 1949.7,442.3411 1906.92,471.4811 " fill="none" id="AddUserController-to-StudentManagementService" style="stroke:#181818;stroke-width:1.0;"/><polygon fill="#181818" points="1902.59,474.4311,1912.2796,472.667,1906.7214,471.6149,1907.7736,466.0567,1902.59,474.4311" style="stroke:#181818;stroke-width:1.0;"/><text fill="#000000" font-family="sans-serif" font-size="13" lengthAdjust="spacing" textLength="40" x="1973" y="440.6494">service</text></g><!--link AddUserController to SystemUser--><g id="link_AddUserController_SystemUser"><path codeLine="51" d="M2248.25,357.5011 C2279.19,377.8311 2313.38,401.6811 2343,425.6211 C2360.13,439.4711 2377.84,456.3011 2392.32,470.8211 " fill="none" id="AddUserController-to-SystemUser" style="stroke:#181818;stroke-width:1.0;"/><polygon fill="#181818" points="2395.93,474.4611,2392.4316,465.2545,2392.4088,470.9113,2386.7519,470.8885,2395.93,474.4611" style="stroke:#181818;stroke-width:1.0;"/><text fill="#000000" font-family="sans-serif" font-size="13" lengthAdjust="spacing" textLength="25" x="2365" y="440.6494">user</text></g><!--link AddUserController to Student--><g id="link_AddUserController_Student"><path codeLine="52" d="M2248.04,347.4411 C2329.01,388.6311 2444.23,447.2611 2508.32,479.8611 " fill="none" id="AddUserController-to-Student" style="stroke:#181818;stroke-width:1.0;"/><polygon fill="#181818" points="2512.84,482.1611,2506.6374,474.5107,2508.3851,479.8908,2503.005,481.6385,2512.84,482.1611" style="stroke:#181818;stroke-width:1.0;"/><text fill="#000000" font-family="sans-serif" font-size="13" lengthAdjust="spacing" textLength="43" x="2439" y="440.6494">student</text></g><!--link AddUserController to Teacher--><g id="link_AddUserController_Teacher"><path codeLine="53" d="M2248.05,332.2311 C2341.68,364.9811 2491.19,419.3511 2617,474.6211 C2621.06,476.4011 2625.24,478.3111 2629.42,480.2711 " fill="none" id="AddUserController-to-Teacher" style="stroke:#181818;stroke-width:1.0;"/><polygon fill="#181818" points="2633.95,482.4011,2627.5155,474.9447,2629.4275,480.2687,2624.1036,482.1807,2633.95,482.4011" style="stroke:#181818;stroke-width:1.0;"/><text fill="#000000" font-family="sans-serif" font-size="13" lengthAdjust="spacing" textLength="43" x="2543" y="440.6494">teacher</text></g><!--link JpaAutoTxUserRepository to UserRepository--><g id="link_JpaAutoTxUserRepository_UserRepository"><path codeLine="54" d="M427.63,636.1211 C437.65,636.1211 447.67,636.1211 457.69,636.1211 " fill="none" id="JpaAutoTxUserRepository-to-UserRepository" style="stroke:#181818;stroke-width:1.0;"/><polygon fill="#181818" points="462.93,636.1211,453.93,632.1211,457.93,636.1211,453.93,640.1211,462.93,636.1211" style="stroke:#181818;stroke-width:1.0;"/></g><!--link InMemoryUserRepository to UserRepository--><g id="link_InMemoryUserRepository_UserRepository"><path codeLine="55" d="M145.94,605.4911 C170.25,590.4211 201.71,573.8611 232.5,566.1211 C316.55,545.0011 342.64,548.5211 427.5,566.1211 C455.53,571.9311 484.67,582.8611 510.35,594.3911 " fill="none" id="InMemoryUserRepository-to-UserRepository" style="stroke:#181818;stroke-width:1.0;"/><polygon fill="#181818" points="515.11,596.5511,508.5806,589.1777,510.5606,594.4767,505.2616,596.4567,515.11,596.5511" style="stroke:#181818;stroke-width:1.0;"/></g><!--link JpaAutoTxTeacherRepository to TeacherRepository--><g id="link_JpaAutoTxTeacherRepository_TeacherRepository"><path codeLine="56" d="M2020.91,636.1211 C2030.86,636.1211 2040.8,636.1211 2050.75,636.1211 " fill="none" id="JpaAutoTxTeacherRepository-to-TeacherRepository" style="stroke:#181818;stroke-width:1.0;"/><polygon fill="#181818" points="2055.95,636.1211,2046.95,632.1211,2050.95,636.1211,2046.95,640.1211,2055.95,636.1211" style="stroke:#181818;stroke-width:1.0;"/></g><!--link InMemoryTeacherRepository to TeacherRepository--><g id="link_InMemoryTeacherRepository_TeacherRepository"><path codeLine="57" d="M1707.36,605.4711 C1734.01,590.3911 1768.34,573.8211 1801.5,566.1211 C1896.31,544.0911 1925.79,543.6911 2020.5,566.1211 C2044.99,571.9211 2070.08,582.7311 2092.1,594.1511 " fill="none" id="InMemoryTeacherRepository-to-TeacherRepository" style="stroke:#181818;stroke-width:1.0;"/><polygon fill="#181818" points="2096.75,596.5911,2090.6456,588.8621,2092.3245,594.2641,2086.9225,595.943,2096.75,596.5911" style="stroke:#181818;stroke-width:1.0;"/></g><!--link JpaAutoTxStudentRepository to StudentRepository--><g id="link_JpaAutoTxStudentRepository_StudentRepository"><path codeLine="58" d="M1281.74,636.1211 C1291.71,636.1211 1301.68,636.1211 1311.66,636.1211 " fill="none" id="JpaAutoTxStudentRepository-to-StudentRepository" style="stroke:#181818;stroke-width:1.0;"/><polygon fill="#181818" points="1316.87,636.1211,1307.87,632.1211,1311.87,636.1211,1307.87,640.1211,1316.87,636.1211" style="stroke:#181818;stroke-width:1.0;"/></g><!--link InMemoryStudentRepository to StudentRepository--><g id="link_InMemoryStudentRepository_StudentRepository"><path codeLine="59" d="M973.62,605.4711 C999.89,590.3911 1033.74,573.8311 1066.5,566.1211 C1159.51,544.2311 1188.65,543.5511 1281.5,566.1211 C1305.4,571.9311 1329.8,582.7411 1351.18,594.1611 " fill="none" id="InMemoryStudentRepository-to-StudentRepository" style="stroke:#181818;stroke-width:1.0;"/><polygon fill="#181818" points="1355.7,596.6011,1349.6752,588.81,1351.2986,594.2289,1345.8796,595.8523,1355.7,596.6011" style="stroke:#181818;stroke-width:1.0;"/></g><!--link AddUserController to RepositoryFactory--><g id="link_AddUserController_RepositoryFactory"><path codeLine="62" d="M2065.89,326.1111 C1919.47,366.2811 1634.26,444.5211 1495.96,482.4611 " fill="none" id="AddUserController-to-RepositoryFactory" style="stroke:#181818;stroke-width:1.0;stroke-dasharray:7.0,7.0;"/><polygon fill="#181818" points="1491.11,483.7911,1500.8446,485.287,1495.9345,482.4779,1498.7435,477.5678,1491.11,483.7911" style="stroke:#181818;stroke-width:1.0;"/></g><!--link AddUserController to PersistenceContext--><g id="link_AddUserController_PersistenceContext"><path codeLine="63" d="M2235.22,395.9611 C2293.64,478.7611 2352.31,597.5711 2282,675.6211 C2230.14,733.1911 1705.24,756.6311 1499.3,763.6511 " fill="none" id="AddUserController-to-PersistenceContext" style="stroke:#181818;stroke-width:1.0;stroke-dasharray:7.0,7.0;"/><polygon fill="#181818" points="1494.19,763.8211,1503.3218,767.5104,1499.1871,763.6498,1503.0477,759.5151,1494.19,763.8211" style="stroke:#181818;stroke-width:1.0;"/></g><!--link RepositoryFactory to UserRepository--><g id="link_RepositoryFactory_UserRepository"><path codeLine="64" d="M1342.74,513.0911 C1277.69,519.1711 1180.6,528.1511 1096,535.6211 C938.71,549.5111 894.77,525.7211 742,565.6211 C716.2,572.3611 689.32,583.1511 665.41,594.2311 " fill="none" id="RepositoryFactory-to-UserRepository" style="stroke:#181818;stroke-width:1.0;stroke-dasharray:7.0,7.0;"/><polygon fill="#181818" points="660.67,596.4511,670.5164,596.2307,665.1925,594.3187,667.1045,588.9947,660.67,596.4511" style="stroke:#181818;stroke-width:1.0;"/></g><!--link RepositoryFactory to TeacherRepository--><g id="link_RepositoryFactory_TeacherRepository"><path codeLine="65" d="M1491.32,513.0411 C1608.55,524.8411 1843.12,551.9811 2038,596.6211 C2042.2,597.5811 2046.47,598.6211 2050.76,599.7211 " fill="none" id="RepositoryFactory-to-TeacherRepository" style="stroke:#181818;stroke-width:1.0;stroke-dasharray:7.0,7.0;"/><polygon fill="#181818" points="2055.82,601.0311,2048.1138,594.8981,2050.9804,599.7748,2046.1037,602.6414,2055.82,601.0311" style="stroke:#181818;stroke-width:1.0;"/></g><!--link RepositoryFactory to StudentRepository--><g id="link_RepositoryFactory_StudentRepository"><path codeLine="66" d="M1417,535.7211 C1417,552.1711 1417,572.9611 1417,591.2711 " fill="none" id="RepositoryFactory-to-StudentRepository" style="stroke:#181818;stroke-width:1.0;stroke-dasharray:7.0,7.0;"/><polygon fill="#181818" points="1417,596.3611,1421,587.3611,1417,591.3611,1413,587.3611,1417,596.3611" style="stroke:#181818;stroke-width:1.0;"/></g><!--link RepositoryFactory to PersistenceContext--><g id="link_RepositoryFactory_PersistenceContext"><path codeLine="67" d="M1342.74,514.4611 C1183.18,532.7411 820.55,576.2911 803,596.6211 C780.05,623.2011 780.05,649.0411 803,675.6211 C870.72,754.0511 1183.29,765.7211 1334.55,766.6611 " fill="none" id="RepositoryFactory-to-PersistenceContext" style="stroke:#181818;stroke-width:1.0;stroke-dasharray:7.0,7.0;"/><polygon fill="#181818" points="1339.86,766.6911,1330.883,762.6397,1334.8601,766.6625,1330.8373,770.6396,1339.86,766.6911" style="stroke:#181818;stroke-width:1.0;"/></g><!--link UserRepository to PersistenceContext--><g id="link_UserRepository_PersistenceContext"><path codeLine="68" d="M660.69,675.7411 C685.74,687.5811 714.49,699.3911 742,706.6211 C851.77,735.4911 1179.56,754.6411 1334.34,762.3211 " fill="none" id="UserRepository-to-PersistenceContext" style="stroke:#181818;stroke-width:1.0;stroke-dasharray:7.0,7.0;"/><polygon fill="#181818" points="1339.77,762.5911,1330.9753,758.158,1334.7759,762.3478,1330.586,766.1485,1339.77,762.5911" style="stroke:#181818;stroke-width:1.0;"/></g><!--link TeacherRepository to PersistenceContext--><g id="link_TeacherRepository_PersistenceContext"><path codeLine="69" d="M2055.82,671.2111 C2049.81,672.8011 2043.85,674.2811 2038,675.6211 C1847.55,719.2511 1619.18,746.1611 1499.48,758.3711 " fill="none" id="TeacherRepository-to-PersistenceContext" style="stroke:#181818;stroke-width:1.0;stroke-dasharray:7.0,7.0;"/><polygon fill="#181818" points="1494.22,758.9111,1503.5751,761.9904,1499.1949,758.4107,1502.7745,754.0305,1494.22,758.9111" style="stroke:#181818;stroke-width:1.0;"/></g><!--link StudentRepository to PersistenceContext--><g id="link_StudentRepository_PersistenceContext"><path codeLine="70" d="M1417,675.8211 C1417,693.4511 1417,714.1411 1417,731.2711 " fill="none" id="StudentRepository-to-PersistenceContext" style="stroke:#181818;stroke-width:1.0;stroke-dasharray:7.0,7.0;"/><polygon fill="#181818" points="1417,736.4711,1421,727.4711,1417,731.4711,1413,727.4711,1417,736.4711" style="stroke:#181818;stroke-width:1.0;"/></g><!--link UserManagementService to UserRepository--><g id="link_UserManagementService_UserRepository"><path codeLine="71" d="M887.9,516.4011 C830.19,524.8911 755.97,539.8711 694,565.6211 C676.56,572.8711 658.94,583.1411 643.24,593.5611 " fill="none" id="UserManagementService-to-UserRepository" style="stroke:#181818;stroke-width:1.0;stroke-dasharray:7.0,7.0;"/><polygon fill="#181818" points="638.86,596.5111,648.5633,594.8239,643.0137,593.7277,644.1099,588.1781,638.86,596.5111" style="stroke:#181818;stroke-width:1.0;"/></g><!--link TeacherManagementService to TeacherRepository--><g id="link_TeacherManagementService_TeacherRepository"><path codeLine="72" d="M2157.69,535.7211 C2158.07,552.1711 2158.55,572.9611 2158.98,591.2711 " fill="none" id="TeacherManagementService-to-TeacherRepository" style="stroke:#181818;stroke-width:1.0;stroke-dasharray:7.0,7.0;"/><polygon fill="#181818" points="2159.1,596.3611,2162.8933,587.272,2158.9857,591.3624,2154.8954,587.4548,2159.1,596.3611" style="stroke:#181818;stroke-width:1.0;"/></g><!--link StudentManagementService to StudentRepository--><g id="link_StudentManagementService_StudentRepository"><path codeLine="73" d="M1753.97,534.2311 C1690.4,551.5411 1607.81,574.5811 1535,596.6211 C1530.68,597.9311 1526.28,599.2811 1521.84,600.6511 " fill="none" id="StudentManagementService-to-StudentRepository" style="stroke:#181818;stroke-width:1.0;stroke-dasharray:7.0,7.0;"/><polygon fill="#181818" points="1517.01,602.1611,1526.7953,603.2779,1521.7799,600.6616,1524.3961,595.6461,1517.01,602.1611" style="stroke:#181818;stroke-width:1.0;"/></g><!--SRC=[bLLDQ-Cm4BthL-ZMb9BGN4C9X8I5BdHPwkHKoYBiQIAmBICfsOQb_tqbMuvKwoDE3ix8yzvevir8bbIMWDSb4G9lADbpKk79UdEFftYNuVdZu_pF7A6yzQ-AOYU0xvxnqrF3GK0jYQIiNYxnFuJLhs3PWVsTtAClX6WjWN-G7F0hD4nGoVZv1ydrdw9_T9PcVfdelu4BAYJKEQoP8dzAlOrzwM9_DcHrb6pxgVEnyUE4v_e5AeKOYxzii0MI7sxRumRAPPjC7WibvotRZA8OJdPMBojTl09jM4LexOOqeO8-Kyt0ztqYTByuAyiMjcgQakRV1-FXbPNmzext8BMrFJSWr9YqBYStqeMRp6QppZdLGy5gxUWiwthe4rC-Opeyn-aH-sgLpvWEqN6wn4l5EhyNKfCzL0gM0JzHDU9UrGFrRc2O14Ond4Fc3VPbGK7OFZXY2tA2YRC-geSkrCOC3N8uR2zt6xDV-0538nl9qxIXIz8i-e3exXSvqNqh1BANqdIw30pa0ii3s3No4Peta6-1kLeai7vx5bXqLeGLdOHhnEX0N2NQtYvQxT8Rw7YTbQv0AzfPA7ODUuAYoFth0nCNhqqX47WaF77XMYK2uKV2qTq66gZLsroDSqZ7juA80nJlYkvz5w_W_GyayZ-jBc4WRHhiQvN6-yMdyO7iXyEGHWSwd2O4UdOz7_-O9HIDdkcqiD4JdTRtFm00]--></g></svg>