<?xml version="1.0" encoding="us-ascii" standalone="no"?><svg xmlns="http://www.w3.org/2000/svg" xmlns:xlink="http://www.w3.org/1999/xlink" contentStyleType="text/css" height="458.5px" preserveAspectRatio="none" style="width:715px;height:458px;background:#FFFFFF;" version="1.1" viewBox="0 0 715 458" width="715.5px" zoomAndPan="magnify"><defs/><g><text fill="#000000" font-family="sans-serif" font-size="7" font-weight="bold" lengthAdjust="spacing" textLength="59.5" x="328.75" y="15.0537">SD_Add_Teacher</text><rect fill="#FFFFFF" height="284.9102" style="stroke:#181818;stroke-width:0.5;" width="5" x="84" y="115.1592"/><rect fill="#FFFFFF" height="203.3916" style="stroke:#181818;stroke-width:0.5;" width="5" x="203" y="181.0322"/><rect fill="#FFFFFF" height="46.9365" style="stroke:#181818;stroke-width:0.5;" width="5" x="284.75" y="212.3232"/><rect fill="#FFFFFF" height="31.291" style="stroke:#181818;stroke-width:0.5;" width="5" x="540" y="274.9053"/><rect fill="#FFFFFF" height="31.291" style="stroke:#181818;stroke-width:0.5;" width="5" x="611.5" y="321.8418"/><line style="stroke:#181818;stroke-width:0.25;stroke-dasharray:5.0,5.0;" x1="86.5" x2="86.5" y1="63.9316" y2="409.0693"/><line style="stroke:#181818;stroke-width:0.25;stroke-dasharray:5.0,5.0;" x1="205.5" x2="205.5" y1="63.9316" y2="409.0693"/><line style="stroke:#181818;stroke-width:0.25;stroke-dasharray:5.0,5.0;" x1="287" x2="287" y1="63.9316" y2="409.0693"/><line style="stroke:#181818;stroke-width:0.25;stroke-dasharray:5.0,5.0;" x1="350" x2="350" y1="63.9316" y2="409.0693"/><line style="stroke:#181818;stroke-width:0.25;stroke-dasharray:5.0,5.0;" x1="412" x2="412" y1="63.9316" y2="409.0693"/><line style="stroke:#181818;stroke-width:0.25;stroke-dasharray:5.0,5.0;" x1="473.5" x2="473.5" y1="63.9316" y2="409.0693"/><line style="stroke:#181818;stroke-width:0.25;stroke-dasharray:5.0,5.0;" x1="542.5" x2="542.5" y1="63.9316" y2="409.0693"/><line style="stroke:#181818;stroke-width:0.25;stroke-dasharray:5.0,5.0;" x1="614" x2="614" y1="63.9316" y2="409.0693"/><line style="stroke:#181818;stroke-width:0.25;stroke-dasharray:5.0,5.0;" x1="683" x2="683" y1="63.9316" y2="409.0693"/><rect fill="#E3E3E3" height="25.6211" rx="1.25" ry="1.25" style="stroke:#181818;stroke-width:0.25;" width="65" x="54" y="37.8105"/><text fill="#000000" font-family="sans-serif" font-size="7" font-style="italic" lengthAdjust="spacing" textLength="42" x="65.5" y="48.8643">&#171;application&#187;</text><text fill="#000000" font-family="sans-serif" font-size="7" lengthAdjust="spacing" textLength="58" x="57.5" y="58.1748">AddUserController</text><rect fill="#E3E3E3" height="25.6211" rx="1.25" ry="1.25" style="stroke:#181818;stroke-width:0.25;" width="65" x="54" y="408.5693"/><text fill="#000000" font-family="sans-serif" font-size="7" font-style="italic" lengthAdjust="spacing" textLength="42" x="65.5" y="419.623">&#171;application&#187;</text><text fill="#000000" font-family="sans-serif" font-size="7" lengthAdjust="spacing" textLength="58" x="57.5" y="428.9336">AddUserController</text><rect fill="#E3E3E3" height="25.6211" rx="1.25" ry="1.25" style="stroke:#181818;stroke-width:0.25;" width="98" x="156.5" y="37.8105"/><text fill="#000000" font-family="sans-serif" font-size="7" font-style="italic" lengthAdjust="spacing" textLength="30" x="190.5" y="48.8643">&#171;service&#187;</text><text fill="#000000" font-family="sans-serif" font-size="7" lengthAdjust="spacing" textLength="91" x="160" y="58.1748">TeacherManagementService</text><rect fill="#E3E3E3" height="25.6211" rx="1.25" ry="1.25" style="stroke:#181818;stroke-width:0.25;" width="98" x="156.5" y="408.5693"/><text fill="#000000" font-family="sans-serif" font-size="7" font-style="italic" lengthAdjust="spacing" textLength="30" x="190.5" y="419.623">&#171;service&#187;</text><text fill="#000000" font-family="sans-serif" font-size="7" lengthAdjust="spacing" textLength="91" x="160" y="428.9336">TeacherManagementService</text><rect fill="#E3E3E3" height="25.6211" rx="1.25" ry="1.25" style="stroke:#181818;stroke-width:0.25;" width="55.5" x="259.5" y="37.8105"/><text fill="#000000" font-family="sans-serif" font-size="7" font-style="italic" lengthAdjust="spacing" textLength="29.5" x="272.5" y="48.8643">&#171;builder&#187;</text><text fill="#000000" font-family="sans-serif" font-size="7" lengthAdjust="spacing" textLength="48.5" x="263" y="58.1748">TeacherBuilder</text><rect fill="#E3E3E3" height="25.6211" rx="1.25" ry="1.25" style="stroke:#181818;stroke-width:0.25;" width="55.5" x="259.5" y="408.5693"/><text fill="#000000" font-family="sans-serif" font-size="7" font-style="italic" lengthAdjust="spacing" textLength="29.5" x="272.5" y="419.623">&#171;builder&#187;</text><text fill="#000000" font-family="sans-serif" font-size="7" lengthAdjust="spacing" textLength="48.5" x="263" y="428.9336">TeacherBuilder</text><rect fill="#E3E3E3" height="25.6211" rx="1.25" ry="1.25" style="stroke:#181818;stroke-width:0.25;" width="60.5" x="320" y="37.8105"/><text fill="#000000" font-family="sans-serif" font-size="7" font-style="italic" lengthAdjust="spacing" textLength="31" x="334.75" y="48.8643">&#171;domain&#187;</text><text fill="#000000" font-family="sans-serif" font-size="7" lengthAdjust="spacing" textLength="53.5" x="323.5" y="58.1748">user:SystemUser</text><rect fill="#E3E3E3" height="25.6211" rx="1.25" ry="1.25" style="stroke:#181818;stroke-width:0.25;" width="60.5" x="320" y="408.5693"/><text fill="#000000" font-family="sans-serif" font-size="7" font-style="italic" lengthAdjust="spacing" textLength="31" x="334.75" y="419.623">&#171;domain&#187;</text><text fill="#000000" font-family="sans-serif" font-size="7" lengthAdjust="spacing" textLength="53.5" x="323.5" y="428.9336">user:SystemUser</text><rect fill="#E3E3E3" height="25.6211" rx="1.25" ry="1.25" style="stroke:#181818;stroke-width:0.25;" width="53.5" x="385.5" y="37.8105"/><text fill="#000000" font-family="sans-serif" font-size="7" font-style="italic" lengthAdjust="spacing" textLength="31" x="396.75" y="48.8643">&#171;domain&#187;</text><text fill="#000000" font-family="sans-serif" font-size="7" lengthAdjust="spacing" textLength="46.5" x="389" y="58.1748">person:Person</text><rect fill="#E3E3E3" height="25.6211" rx="1.25" ry="1.25" style="stroke:#181818;stroke-width:0.25;" width="53.5" x="385.5" y="408.5693"/><text fill="#000000" font-family="sans-serif" font-size="7" font-style="italic" lengthAdjust="spacing" textLength="31" x="396.75" y="419.623">&#171;domain&#187;</text><text fill="#000000" font-family="sans-serif" font-size="7" lengthAdjust="spacing" textLength="46.5" x="389" y="428.9336">person:Person</text><rect fill="#E3E3E3" height="25.6211" rx="1.25" ry="1.25" style="stroke:#181818;stroke-width:0.25;" width="59.5" x="444" y="37.8105"/><text fill="#000000" font-family="sans-serif" font-size="7" font-style="italic" lengthAdjust="spacing" textLength="31" x="458.25" y="48.8643">&#171;domain&#187;</text><text fill="#000000" font-family="sans-serif" font-size="7" lengthAdjust="spacing" textLength="52.5" x="447.5" y="58.1748">teacher:Teacher</text><rect fill="#E3E3E3" height="25.6211" rx="1.25" ry="1.25" style="stroke:#181818;stroke-width:0.25;" width="59.5" x="444" y="408.5693"/><text fill="#000000" font-family="sans-serif" font-size="7" font-style="italic" lengthAdjust="spacing" textLength="31" x="458.25" y="419.623">&#171;domain&#187;</text><text fill="#000000" font-family="sans-serif" font-size="7" lengthAdjust="spacing" textLength="52.5" x="447.5" y="428.9336">teacher:Teacher</text><rect fill="#E3E3E3" height="25.6211" rx="1.25" ry="1.25" style="stroke:#181818;stroke-width:0.25;" width="68" x="508.5" y="37.8105"/><text fill="#000000" font-family="sans-serif" font-size="7" font-style="italic" lengthAdjust="spacing" textLength="44.5" x="520.25" y="48.8643">&#171;persistence&#187;</text><text fill="#000000" font-family="sans-serif" font-size="7" lengthAdjust="spacing" textLength="61" x="512" y="58.1748">PersistenceContext</text><rect fill="#E3E3E3" height="25.6211" rx="1.25" ry="1.25" style="stroke:#181818;stroke-width:0.25;" width="68" x="508.5" y="408.5693"/><text fill="#000000" font-family="sans-serif" font-size="7" font-style="italic" lengthAdjust="spacing" textLength="44.5" x="520.25" y="419.623">&#171;persistence&#187;</text><text fill="#000000" font-family="sans-serif" font-size="7" lengthAdjust="spacing" textLength="61" x="512" y="428.9336">PersistenceContext</text><rect fill="#E3E3E3" height="25.6211" rx="1.25" ry="1.25" style="stroke:#181818;stroke-width:0.25;" width="65" x="581.5" y="37.8105"/><text fill="#000000" font-family="sans-serif" font-size="7" font-style="italic" lengthAdjust="spacing" textLength="29.5" x="599.25" y="48.8643">&#171;factory&#187;</text><text fill="#000000" font-family="sans-serif" font-size="7" lengthAdjust="spacing" textLength="58" x="585" y="58.1748">RepositoryFactory</text><rect fill="#E3E3E3" height="25.6211" rx="1.25" ry="1.25" style="stroke:#181818;stroke-width:0.25;" width="65" x="581.5" y="408.5693"/><text fill="#000000" font-family="sans-serif" font-size="7" font-style="italic" lengthAdjust="spacing" textLength="29.5" x="599.25" y="419.623">&#171;factory&#187;</text><text fill="#000000" font-family="sans-serif" font-size="7" lengthAdjust="spacing" textLength="58" x="585" y="428.9336">RepositoryFactory</text><text fill="#000000" font-family="sans-serif" font-size="7" font-style="italic" lengthAdjust="spacing" textLength="39.5" x="662" y="52.8643">&#171;repository&#187;</text><text fill="#000000" font-family="sans-serif" font-size="7" lengthAdjust="spacing" textLength="60.5" x="651.5" y="62.1748">TeacherRepository</text><path d="M674.25,27.3105 C674.25,22.3105 683.25,22.3105 683.25,22.3105 C683.25,22.3105 692.25,22.3105 692.25,27.3105 L692.25,40.3105 C692.25,45.3105 683.25,45.3105 683.25,45.3105 C683.25,45.3105 674.25,45.3105 674.25,40.3105 L674.25,27.3105 " fill="#E3E3E3" style="stroke:#181818;stroke-width:0.75;"/><path d="M674.25,27.3105 C674.25,32.3105 683.25,32.3105 683.25,32.3105 C683.25,32.3105 692.25,32.3105 692.25,27.3105 " fill="none" style="stroke:#181818;stroke-width:0.75;"/><text fill="#000000" font-family="sans-serif" font-size="7" font-style="italic" lengthAdjust="spacing" textLength="39.5" x="662" y="416.123">&#171;repository&#187;</text><text fill="#000000" font-family="sans-serif" font-size="7" lengthAdjust="spacing" textLength="60.5" x="651.5" y="425.4336">TeacherRepository</text><path d="M674.25,432.1904 C674.25,427.1904 683.25,427.1904 683.25,427.1904 C683.25,427.1904 692.25,427.1904 692.25,432.1904 L692.25,445.1904 C692.25,450.1904 683.25,450.1904 683.25,450.1904 C683.25,450.1904 674.25,450.1904 674.25,445.1904 L674.25,432.1904 " fill="#E3E3E3" style="stroke:#181818;stroke-width:0.75;"/><path d="M674.25,432.1904 C674.25,437.1904 683.25,437.1904 683.25,437.1904 C683.25,437.1904 692.25,437.1904 692.25,432.1904 " fill="none" style="stroke:#181818;stroke-width:0.75;"/><rect fill="#FFFFFF" height="284.9102" style="stroke:#181818;stroke-width:0.5;" width="5" x="84" y="115.1592"/><rect fill="#FFFFFF" height="203.3916" style="stroke:#181818;stroke-width:0.5;" width="5" x="203" y="181.0322"/><rect fill="#FFFFFF" height="46.9365" style="stroke:#181818;stroke-width:0.5;" width="5" x="284.75" y="212.3232"/><rect fill="#FFFFFF" height="31.291" style="stroke:#181818;stroke-width:0.5;" width="5" x="540" y="274.9053"/><rect fill="#FFFFFF" height="31.291" style="stroke:#181818;stroke-width:0.5;" width="5" x="611.5" y="321.8418"/><ellipse cx="3.75" cy="114.7842" fill="none" rx="2" ry="2" style="stroke:#181818;stroke-width:0.75;"/><polygon fill="#181818" points="78,113.1592,83,115.1592,78,117.1592,80,115.1592" style="stroke:#181818;stroke-width:0.5;"/><line style="stroke:#181818;stroke-width:0.5;" x1="6" x2="81" y1="115.1592" y2="115.1592"/><text fill="#000000" font-family="sans-serif" font-size="6.5" lengthAdjust="spacing" textLength="66" x="7.5" y="77.9458">addTeacher(username,</text><text fill="#000000" font-family="sans-serif" font-size="6.5" lengthAdjust="spacing" textLength="61" x="7.5" y="86.5913">password, firstName,</text><text fill="#000000" font-family="sans-serif" font-size="6.5" lengthAdjust="spacing" textLength="49" x="7.5" y="95.2368">lastName, email,</text><text fill="#000000" font-family="sans-serif" font-size="6.5" lengthAdjust="spacing" textLength="68.5" x="7.5" y="103.8823">roles, taxPayerNumber,</text><text fill="#000000" font-family="sans-serif" font-size="6.5" lengthAdjust="spacing" textLength="57" x="7.5" y="112.5278">birthDate, acronym)</text><polygon fill="#181818" points="199.5,128.8047,204.5,130.8047,199.5,132.8047,201.5,130.8047" style="stroke:#181818;stroke-width:0.5;"/><line style="stroke:#181818;stroke-width:0.5;" x1="89" x2="202.5" y1="130.8047" y2="130.8047"/><text fill="#000000" font-family="sans-serif" font-size="6.5" lengthAdjust="spacing" textLength="18" x="92.5" y="128.1733">create</text><polygon fill="#181818" points="197,179.0322,202,181.0322,197,183.0322,199,181.0322" style="stroke:#181818;stroke-width:0.5;"/><line style="stroke:#181818;stroke-width:0.5;" x1="89" x2="200" y1="181.0322" y2="181.0322"/><text fill="#000000" font-family="sans-serif" font-size="6.5" lengthAdjust="spacing" textLength="89.5" x="92.5" y="143.8188">registerNewTeacher(username,</text><text fill="#000000" font-family="sans-serif" font-size="6.5" lengthAdjust="spacing" textLength="61" x="92.5" y="152.4644">password, firstName,</text><text fill="#000000" font-family="sans-serif" font-size="6.5" lengthAdjust="spacing" textLength="49" x="92.5" y="161.1099">lastName, email,</text><text fill="#000000" font-family="sans-serif" font-size="6.5" lengthAdjust="spacing" textLength="102.5" x="92.5" y="169.7554">roles, createdOn, taxPayerNumber,</text><text fill="#000000" font-family="sans-serif" font-size="6.5" lengthAdjust="spacing" textLength="57" x="92.5" y="178.4009">birthDate, acronym)</text><polygon fill="#181818" points="281.25,194.6777,286.25,196.6777,281.25,198.6777,283.25,196.6777" style="stroke:#181818;stroke-width:0.5;"/><line style="stroke:#181818;stroke-width:0.5;" x1="208" x2="284.25" y1="196.6777" y2="196.6777"/><text fill="#000000" font-family="sans-serif" font-size="6.5" lengthAdjust="spacing" textLength="18" x="211.5" y="194.0464">create</text><polygon fill="#181818" points="278.75,210.3232,283.75,212.3232,278.75,214.3232,280.75,212.3232" style="stroke:#181818;stroke-width:0.5;"/><line style="stroke:#181818;stroke-width:0.5;" x1="208" x2="281.75" y1="212.3232" y2="212.3232"/><text fill="#000000" font-family="sans-serif" font-size="6.5" lengthAdjust="spacing" textLength="45" x="211.5" y="209.6919">createTeacher()</text><polygon fill="#181818" points="467.75,225.9688,472.75,227.9688,467.75,229.9688,469.75,227.9688" style="stroke:#181818;stroke-width:0.5;"/><line style="stroke:#181818;stroke-width:0.5;" x1="289.75" x2="470.75" y1="227.9688" y2="227.9688"/><text fill="#000000" font-family="sans-serif" font-size="6.5" lengthAdjust="spacing" textLength="72.5" x="293.25" y="225.3374">create (person, acronym)</text><polygon fill="#181818" points="295.25,241.6143,290.25,243.6143,295.25,245.6143,293.25,243.6143" style="stroke:#181818;stroke-width:0.5;"/><line style="stroke:#181818;stroke-width:0.5;" x1="292.25" x2="473.25" y1="243.6143" y2="243.6143"/><text fill="#000000" font-family="sans-serif" font-size="6.5" lengthAdjust="spacing" textLength="21.5" x="298.25" y="240.9829">teacher</text><polygon fill="#181818" points="213.5,257.2598,208.5,259.2598,213.5,261.2598,211.5,259.2598" style="stroke:#181818;stroke-width:0.5;"/><line style="stroke:#181818;stroke-width:0.5;" x1="210.5" x2="286.75" y1="259.2598" y2="259.2598"/><text fill="#000000" font-family="sans-serif" font-size="6.5" lengthAdjust="spacing" textLength="21.5" x="216.5" y="256.6284">teacher</text><polygon fill="#181818" points="534,272.9053,539,274.9053,534,276.9053,536,274.9053" style="stroke:#181818;stroke-width:0.5;"/><line style="stroke:#181818;stroke-width:0.5;" x1="208" x2="537" y1="274.9053" y2="274.9053"/><text fill="#000000" font-family="sans-serif" font-size="6.5" lengthAdjust="spacing" textLength="37.5" x="211.5" y="272.2739">repositories()</text><polygon fill="#181818" points="608,288.5508,613,290.5508,608,292.5508,610,290.5508" style="stroke:#181818;stroke-width:0.5;"/><line style="stroke:#181818;stroke-width:0.5;" x1="545" x2="611" y1="290.5508" y2="290.5508"/><text fill="#000000" font-family="sans-serif" font-size="6.5" lengthAdjust="spacing" textLength="18" x="548.5" y="287.9194">create</text><polygon fill="#181818" points="213.5,304.1963,208.5,306.1963,213.5,308.1963,211.5,306.1963" style="stroke:#181818;stroke-width:0.5;"/><line style="stroke:#181818;stroke-width:0.5;" x1="210.5" x2="542" y1="306.1963" y2="306.1963"/><text fill="#000000" font-family="sans-serif" font-size="6.5" lengthAdjust="spacing" textLength="19.5" x="216.5" y="303.5649">factory</text><polygon fill="#181818" points="605.5,319.8418,610.5,321.8418,605.5,323.8418,607.5,321.8418" style="stroke:#181818;stroke-width:0.5;"/><line style="stroke:#181818;stroke-width:0.5;" x1="208" x2="608.5" y1="321.8418" y2="321.8418"/><text fill="#000000" font-family="sans-serif" font-size="6.5" lengthAdjust="spacing" textLength="29" x="211.5" y="319.2104">teachers()</text><polygon fill="#181818" points="677.25,335.4873,682.25,337.4873,677.25,339.4873,679.25,337.4873" style="stroke:#181818;stroke-width:0.5;"/><line style="stroke:#181818;stroke-width:0.5;" x1="616.5" x2="680.25" y1="337.4873" y2="337.4873"/><text fill="#000000" font-family="sans-serif" font-size="6.5" lengthAdjust="spacing" textLength="18" x="620" y="334.856">create</text><polygon fill="#181818" points="213.5,351.1328,208.5,353.1328,213.5,355.1328,211.5,353.1328" style="stroke:#181818;stroke-width:0.5;"/><line style="stroke:#181818;stroke-width:0.5;" x1="210.5" x2="613.5" y1="353.1328" y2="353.1328"/><text fill="#000000" font-family="sans-serif" font-size="6.5" lengthAdjust="spacing" textLength="52.5" x="216.5" y="350.5015">teacherRepository</text><polygon fill="#181818" points="677.25,366.7783,682.25,368.7783,677.25,370.7783,679.25,368.7783" style="stroke:#181818;stroke-width:0.5;"/><line style="stroke:#181818;stroke-width:0.5;" x1="208" x2="680.25" y1="368.7783" y2="368.7783"/><text fill="#000000" font-family="sans-serif" font-size="6.5" lengthAdjust="spacing" textLength="38.5" x="211.5" y="366.147">save(teacher)</text><polygon fill="#181818" points="94.5,382.4238,89.5,384.4238,94.5,386.4238,92.5,384.4238" style="stroke:#181818;stroke-width:0.5;"/><line style="stroke:#181818;stroke-width:0.5;" x1="91.5" x2="205" y1="384.4238" y2="384.4238"/><text fill="#000000" font-family="sans-serif" font-size="6.5" lengthAdjust="spacing" textLength="21.5" x="97.5" y="381.7925">teacher</text><polygon fill="#181818" points="5.5,398.0693,0.5,400.0693,5.5,402.0693,3.5,400.0693" style="stroke:#181818;stroke-width:0.5;"/><line style="stroke:#181818;stroke-width:0.5;stroke-dasharray:2.0,2.0;" x1="2.5" x2="86" y1="400.0693" y2="400.0693"/><text fill="#000000" font-family="sans-serif" font-size="6.5" lengthAdjust="spacing" textLength="21.5" x="8.5" y="397.438">teacher</text><!--SRC=[hLF1Rjim3BtxAuIUKY3vWK08i2teRLdHTASMA1Y9IOJQaY4fIVFtesp9aPMqss6wc2BV8nzbqhqhtOA5XZL66x6tfa7cxG4hDqHQ4E-mmxK_ryWi2WzwL-S0jmTfJahls1PgXrNbbIVeUldsJSgtPmInHrjL1FPAg1QqPnJuxT3-CDfRKzTe6JYMtJY7jgsL0A-CNYn6t9Zm9sXIrQ3sQxH79J2aI2RdhhTkSxyVL2txeidaVDDR1UFkG9dcwxFps0J9Tu4KZALfG6dYoSueQIrQP_JyiVjqfDxy2ytt0kTHQ4UCzjVCa5sHI2qml2D- -5GpUedONcu5-mbRuvGtzlm08dm2EPcSRtkBI18yRC1X4dKX1aPsuzmE5-9LBsQsoF_md36GCcQPX4VMqE2KlT9GENSoLaxPLbddLy7zgck89aFglWv0oeHkoZnyFC8PxUhGRD26m4PPlr-29p08Q_IvkQ-e0tKaLwQXOdGoIIGmpi-S2Oi4_WfXSHVUqgxmz3-ww0lAN_fV6mhIXgQYgghpfYKWjN6wH_tS2FVHr4QHEu8wPzeMuewcCXLWatxk2vqZx6mng8hJNgOUtZYFIxnILBQJJNluFt7y5BgofGpO1SB9LuLonU4VlTmDs20rhaWfDQzKoXrAn3QlP3vaESD92qdSowPTASnGvKDUMANEL2hNE5jaLHmSSHBJt9UTZFRwav-MHZIuN_XiTfkK4R95_GC0]--></g></svg>