<?xml version="1.0" encoding="us-ascii" standalone="no"?><svg xmlns="http://www.w3.org/2000/svg" xmlns:xlink="http://www.w3.org/1999/xlink" contentStyleType="text/css" height="1468px" preserveAspectRatio="none" style="width:1331px;height:1468px;background:#FFFFFF;" version="1.1" viewBox="0 0 1331 1468" width="1331px" zoomAndPan="magnify"><defs/><g><text fill="#000000" font-family="sans-serif" font-size="14" font-weight="bold" lengthAdjust="spacing" textLength="249" x="540.25" y="30.1074">Sequence Diagram (SD) - US 1001_1</text><rect fill="#FFFFFF" height="1210.6211" style="stroke:#181818;stroke-width:1.0;" width="10" x="44" y="156.5332"/><rect fill="#FFFFFF" height="1210.6211" style="stroke:#181818;stroke-width:1.0;" width="10" x="498" y="156.5332"/><rect fill="#FFFFFF" height="93.873" style="stroke:#181818;stroke-width:1.0;" width="10" x="742" y="281.6973"/><rect fill="#FFFFFF" height="129.543" style="stroke:#181818;stroke-width:1.0;" width="10" x="742" y="660.7715"/><rect fill="#FFFFFF" height="160.834" style="stroke:#181818;stroke-width:1.0;" width="10" x="742" y="938.6914"/><rect fill="#FFFFFF" height="129.543" style="stroke:#181818;stroke-width:1.0;" width="10" x="742" y="1199.3203"/><rect fill="#FFFFFF" height="31.291" style="stroke:#181818;stroke-width:1.0;" width="10" x="878" y="312.9883"/><rect fill="none" height="81.873" style="stroke:#000000;stroke-width:1.5;" width="557.5" x="10" y="390.5703"/><rect fill="none" height="850.4199" style="stroke:#000000;stroke-width:1.5;" width="865" x="10" y="486.4434"/><line style="stroke:#181818;stroke-width:0.5;stroke-dasharray:5.0,5.0;" x1="49" x2="49" y1="123.2422" y2="1385.1543"/><line style="stroke:#181818;stroke-width:0.5;stroke-dasharray:5.0,5.0;" x1="502.5" x2="502.5" y1="123.2422" y2="1385.1543"/><line style="stroke:#181818;stroke-width:0.5;stroke-dasharray:5.0,5.0;" x1="747" x2="747" y1="123.2422" y2="1385.1543"/><line style="stroke:#181818;stroke-width:0.5;stroke-dasharray:5.0,5.0;" x1="882.5" x2="882.5" y1="123.2422" y2="1385.1543"/><line style="stroke:#181818;stroke-width:0.5;stroke-dasharray:5.0,5.0;" x1="1011.5" x2="1011.5" y1="123.2422" y2="1385.1543"/><line style="stroke:#181818;stroke-width:0.5;stroke-dasharray:5.0,5.0;" x1="1141.5" x2="1141.5" y1="123.2422" y2="1385.1543"/><line style="stroke:#181818;stroke-width:0.5;stroke-dasharray:5.0,5.0;" x1="1268.5" x2="1268.5" y1="123.2422" y2="1385.1543"/><text fill="#000000" font-family="sans-serif" font-size="14" lengthAdjust="spacing" textLength="52" x="20" y="119.7285">Gerente</text><ellipse cx="49" cy="53.1211" fill="#E3E3E3" rx="8" ry="8" style="stroke:#181818;stroke-width:0.5;"/><path d="M49,61.1211 L49,88.1211 M36,69.1211 L62,69.1211 M49,88.1211 L36,103.1211 M49,88.1211 L62,103.1211 " fill="none" style="stroke:#181818;stroke-width:0.5;"/><text fill="#000000" font-family="sans-serif" font-size="14" lengthAdjust="spacing" textLength="52" x="20" y="1399.2617">Gerente</text><ellipse cx="49" cy="1411.2754" fill="#E3E3E3" rx="8" ry="8" style="stroke:#181818;stroke-width:0.5;"/><path d="M49,1419.2754 L49,1446.2754 M36,1427.2754 L62,1427.2754 M49,1446.2754 L36,1461.2754 M49,1446.2754 L62,1461.2754 " fill="none" style="stroke:#181818;stroke-width:0.5;"/><rect fill="#E3E3E3" height="51.2422" rx="2.5" ry="2.5" style="stroke:#181818;stroke-width:0.5;" width="109" x="448.5" y="71"/><text fill="#000000" font-family="sans-serif" font-size="14" font-style="italic" lengthAdjust="spacing" textLength="95" x="455.5" y="93.1074">&#171;presentation&#187;</text><text fill="#000000" font-family="sans-serif" font-size="14" lengthAdjust="spacing" textLength="66" x="470" y="111.7285">AddUserUI</text><rect fill="#E3E3E3" height="51.2422" rx="2.5" ry="2.5" style="stroke:#181818;stroke-width:0.5;" width="109" x="448.5" y="1384.1543"/><text fill="#000000" font-family="sans-serif" font-size="14" font-style="italic" lengthAdjust="spacing" textLength="95" x="455.5" y="1406.2617">&#171;presentation&#187;</text><text fill="#000000" font-family="sans-serif" font-size="14" lengthAdjust="spacing" textLength="66" x="470" y="1424.8828">AddUserUI</text><rect fill="#E3E3E3" height="51.2422" rx="2.5" ry="2.5" style="stroke:#181818;stroke-width:0.5;" width="130" x="682" y="71"/><text fill="#000000" font-family="sans-serif" font-size="14" font-style="italic" lengthAdjust="spacing" textLength="84" x="705" y="93.1074">&#171;application&#187;</text><text fill="#000000" font-family="sans-serif" font-size="14" lengthAdjust="spacing" textLength="116" x="689" y="111.7285">AddUserController</text><rect fill="#E3E3E3" height="51.2422" rx="2.5" ry="2.5" style="stroke:#181818;stroke-width:0.5;" width="130" x="682" y="1384.1543"/><text fill="#000000" font-family="sans-serif" font-size="14" font-style="italic" lengthAdjust="spacing" textLength="84" x="705" y="1406.2617">&#171;application&#187;</text><text fill="#000000" font-family="sans-serif" font-size="14" lengthAdjust="spacing" textLength="116" x="689" y="1424.8828">AddUserController</text><rect fill="#E3E3E3" height="51.2422" rx="2.5" ry="2.5" style="stroke:#181818;stroke-width:0.5;" width="117" x="824.5" y="71"/><text fill="#000000" font-family="sans-serif" font-size="14" font-style="italic" lengthAdjust="spacing" textLength="62" x="852" y="93.1074">&#171;domain&#187;</text><text fill="#000000" font-family="sans-serif" font-size="14" lengthAdjust="spacing" textLength="103" x="831.5" y="111.7285">roles:BaseRoles</text><rect fill="#E3E3E3" height="51.2422" rx="2.5" ry="2.5" style="stroke:#181818;stroke-width:0.5;" width="117" x="824.5" y="1384.1543"/><text fill="#000000" font-family="sans-serif" font-size="14" font-style="italic" lengthAdjust="spacing" textLength="62" x="852" y="1406.2617">&#171;domain&#187;</text><text fill="#000000" font-family="sans-serif" font-size="14" lengthAdjust="spacing" textLength="103" x="831.5" y="1424.8828">roles:BaseRoles</text><rect fill="#E3E3E3" height="51.2422" rx="2.5" ry="2.5" style="stroke:#181818;stroke-width:0.5;" width="121" x="951.5" y="71"/><text fill="#000000" font-family="sans-serif" font-size="14" font-style="italic" lengthAdjust="spacing" textLength="62" x="981" y="93.1074">&#171;domain&#187;</text><text fill="#000000" font-family="sans-serif" font-size="14" lengthAdjust="spacing" textLength="107" x="958.5" y="111.7285">user:SystemUser</text><rect fill="#E3E3E3" height="51.2422" rx="2.5" ry="2.5" style="stroke:#181818;stroke-width:0.5;" width="121" x="951.5" y="1384.1543"/><text fill="#000000" font-family="sans-serif" font-size="14" font-style="italic" lengthAdjust="spacing" textLength="62" x="981" y="1406.2617">&#171;domain&#187;</text><text fill="#000000" font-family="sans-serif" font-size="14" lengthAdjust="spacing" textLength="107" x="958.5" y="1424.8828">user:SystemUser</text><rect fill="#E3E3E3" height="51.2422" rx="2.5" ry="2.5" style="stroke:#181818;stroke-width:0.5;" width="119" x="1082.5" y="71"/><text fill="#000000" font-family="sans-serif" font-size="14" font-style="italic" lengthAdjust="spacing" textLength="62" x="1111" y="93.1074">&#171;domain&#187;</text><text fill="#000000" font-family="sans-serif" font-size="14" lengthAdjust="spacing" textLength="105" x="1089.5" y="111.7285">teacher:Teacher</text><rect fill="#E3E3E3" height="51.2422" rx="2.5" ry="2.5" style="stroke:#181818;stroke-width:0.5;" width="119" x="1082.5" y="1384.1543"/><text fill="#000000" font-family="sans-serif" font-size="14" font-style="italic" lengthAdjust="spacing" textLength="62" x="1111" y="1406.2617">&#171;domain&#187;</text><text fill="#000000" font-family="sans-serif" font-size="14" lengthAdjust="spacing" textLength="105" x="1089.5" y="1424.8828">teacher:Teacher</text><rect fill="#E3E3E3" height="51.2422" rx="2.5" ry="2.5" style="stroke:#181818;stroke-width:0.5;" width="114" x="1211.5" y="71"/><text fill="#000000" font-family="sans-serif" font-size="14" font-style="italic" lengthAdjust="spacing" textLength="62" x="1237.5" y="93.1074">&#171;domain&#187;</text><text fill="#000000" font-family="sans-serif" font-size="14" lengthAdjust="spacing" textLength="100" x="1218.5" y="111.7285">student:Student</text><rect fill="#E3E3E3" height="51.2422" rx="2.5" ry="2.5" style="stroke:#181818;stroke-width:0.5;" width="114" x="1211.5" y="1384.1543"/><text fill="#000000" font-family="sans-serif" font-size="14" font-style="italic" lengthAdjust="spacing" textLength="62" x="1237.5" y="1406.2617">&#171;domain&#187;</text><text fill="#000000" font-family="sans-serif" font-size="14" lengthAdjust="spacing" textLength="100" x="1218.5" y="1424.8828">student:Student</text><rect fill="#FFFFFF" height="1210.6211" style="stroke:#181818;stroke-width:1.0;" width="10" x="44" y="156.5332"/><rect fill="#FFFFFF" height="1210.6211" style="stroke:#181818;stroke-width:1.0;" width="10" x="498" y="156.5332"/><rect fill="#FFFFFF" height="93.873" style="stroke:#181818;stroke-width:1.0;" width="10" x="742" y="281.6973"/><rect fill="#FFFFFF" height="129.543" style="stroke:#181818;stroke-width:1.0;" width="10" x="742" y="660.7715"/><rect fill="#FFFFFF" height="160.834" style="stroke:#181818;stroke-width:1.0;" width="10" x="742" y="938.6914"/><rect fill="#FFFFFF" height="129.543" style="stroke:#181818;stroke-width:1.0;" width="10" x="742" y="1199.3203"/><rect fill="#FFFFFF" height="31.291" style="stroke:#181818;stroke-width:1.0;" width="10" x="878" y="312.9883"/><polygon fill="#181818" points="486,152.5332,496,156.5332,486,160.5332,490,156.5332" style="stroke:#181818;stroke-width:1.0;"/><line style="stroke:#181818;stroke-width:1.0;" x1="54" x2="492" y1="156.5332" y2="156.5332"/><text fill="#000000" font-family="sans-serif" font-size="13" font-weight="bold" lengthAdjust="spacing" textLength="7" x="61" y="151.2705">1</text><text fill="#000000" font-family="sans-serif" font-size="13" lengthAdjust="spacing" textLength="189" x="72" y="151.2705">Pede para adiciona um utilizador</text><polygon fill="#181818" points="735,183.8242,745,187.8242,735,191.8242,739,187.8242" style="stroke:#181818;stroke-width:1.0;"/><line style="stroke:#181818;stroke-width:1.0;" x1="508" x2="741" y1="187.8242" y2="187.8242"/><text fill="#000000" font-family="sans-serif" font-size="13" font-weight="bold" lengthAdjust="spacing" textLength="7" x="515" y="182.5615">2</text><text fill="#000000" font-family="sans-serif" font-size="13" lengthAdjust="spacing" textLength="36" x="526" y="182.5615">create</text><polygon fill="#181818" points="65,215.1152,55,219.1152,65,223.1152,61,219.1152" style="stroke:#181818;stroke-width:1.0;"/><line style="stroke:#181818;stroke-width:1.0;stroke-dasharray:2.0,2.0;" x1="59" x2="497" y1="219.1152" y2="219.1152"/><text fill="#000000" font-family="sans-serif" font-size="13" font-weight="bold" lengthAdjust="spacing" textLength="7" x="71" y="213.8525">3</text><text fill="#000000" font-family="sans-serif" font-size="13" lengthAdjust="spacing" textLength="171" x="82" y="213.8525">Pede informa&#231;&#227;o do utilizador</text><polygon fill="#181818" points="486,246.4063,496,250.4063,486,254.4063,490,250.4063" style="stroke:#181818;stroke-width:1.0;"/><line style="stroke:#181818;stroke-width:1.0;" x1="54" x2="492" y1="250.4063" y2="250.4063"/><text fill="#000000" font-family="sans-serif" font-size="13" font-weight="bold" lengthAdjust="spacing" textLength="7" x="61" y="245.1436">4</text><text fill="#000000" font-family="sans-serif" font-size="13" lengthAdjust="spacing" textLength="361" x="72" y="245.1436">Username, palavra-passe, primeiro nome, &#250;ltimo nome e email</text><polygon fill="#181818" points="730,277.6973,740,281.6973,730,285.6973,734,281.6973" style="stroke:#181818;stroke-width:1.0;"/><line style="stroke:#181818;stroke-width:1.0;" x1="508" x2="736" y1="281.6973" y2="281.6973"/><text fill="#000000" font-family="sans-serif" font-size="13" font-weight="bold" lengthAdjust="spacing" textLength="7" x="515" y="276.4346">5</text><text fill="#000000" font-family="sans-serif" font-size="13" lengthAdjust="spacing" textLength="87" x="526" y="276.4346">getRoleTypes()</text><polygon fill="#181818" points="866,308.9883,876,312.9883,866,316.9883,870,312.9883" style="stroke:#181818;stroke-width:1.0;"/><line style="stroke:#181818;stroke-width:1.0;" x1="752" x2="872" y1="312.9883" y2="312.9883"/><text fill="#000000" font-family="sans-serif" font-size="13" font-weight="bold" lengthAdjust="spacing" textLength="7" x="759" y="307.7256">6</text><text fill="#000000" font-family="sans-serif" font-size="13" lengthAdjust="spacing" textLength="96" x="770" y="307.7256">nonUserValues()</text><polygon fill="#181818" points="763,340.2793,753,344.2793,763,348.2793,759,344.2793" style="stroke:#181818;stroke-width:1.0;"/><line style="stroke:#181818;stroke-width:1.0;" x1="757" x2="882" y1="344.2793" y2="344.2793"/><text fill="#000000" font-family="sans-serif" font-size="13" font-weight="bold" lengthAdjust="spacing" textLength="7" x="769" y="339.0166">7</text><text fill="#000000" font-family="sans-serif" font-size="13" lengthAdjust="spacing" textLength="28" x="780" y="339.0166">roles</text><polygon fill="#181818" points="519,371.5703,509,375.5703,519,379.5703,515,375.5703" style="stroke:#181818;stroke-width:1.0;"/><line style="stroke:#181818;stroke-width:1.0;" x1="513" x2="746" y1="375.5703" y2="375.5703"/><text fill="#000000" font-family="sans-serif" font-size="13" font-weight="bold" lengthAdjust="spacing" textLength="7" x="525" y="370.3076">8</text><text fill="#000000" font-family="sans-serif" font-size="13" lengthAdjust="spacing" textLength="28" x="536" y="370.3076">roles</text><path d="M10,390.5703 L83,390.5703 L83,399.8613 L73,409.8613 L10,409.8613 L10,390.5703 " fill="#EEEEEE" style="stroke:#000000;stroke-width:1.5;"/><rect fill="none" height="81.873" style="stroke:#000000;stroke-width:1.5;" width="557.5" x="10" y="390.5703"/><text fill="#000000" font-family="sans-serif" font-size="13" font-weight="bold" lengthAdjust="spacing" textLength="28" x="25" y="405.5986">loop</text><text fill="#000000" font-family="sans-serif" font-size="11" font-weight="bold" lengthAdjust="spacing" textLength="62" x="98" y="404.4404">[op&#231;&#227;o != 0]</text><polygon fill="#181818" points="65,429.1523,55,433.1523,65,437.1523,61,433.1523" style="stroke:#181818;stroke-width:1.0;"/><line style="stroke:#181818;stroke-width:1.0;stroke-dasharray:2.0,2.0;" x1="59" x2="497" y1="433.1523" y2="433.1523"/><text fill="#000000" font-family="sans-serif" font-size="13" font-weight="bold" lengthAdjust="spacing" textLength="7" x="71" y="427.8896">9</text><text fill="#000000" font-family="sans-serif" font-size="13" lengthAdjust="spacing" textLength="172" x="82" y="427.8896">Mostra a lista do tipo de roles</text><polygon fill="#181818" points="486,460.4434,496,464.4434,486,468.4434,490,464.4434" style="stroke:#181818;stroke-width:1.0;"/><line style="stroke:#181818;stroke-width:1.0;" x1="54" x2="492" y1="464.4434" y2="464.4434"/><text fill="#000000" font-family="sans-serif" font-size="13" font-weight="bold" lengthAdjust="spacing" textLength="14" x="61" y="459.1807">10</text><text fill="#000000" font-family="sans-serif" font-size="13" lengthAdjust="spacing" textLength="67" x="79" y="459.1807">Tipo de role</text><path d="M10,486.4434 L71,486.4434 L71,495.7344 L61,505.7344 L10,505.7344 L10,486.4434 " fill="#EEEEEE" style="stroke:#000000;stroke-width:1.5;"/><rect fill="none" height="850.4199" style="stroke:#000000;stroke-width:1.5;" width="865" x="10" y="486.4434"/><text fill="#000000" font-family="sans-serif" font-size="13" font-weight="bold" lengthAdjust="spacing" textLength="16" x="25" y="501.4717">alt</text><text fill="#000000" font-family="sans-serif" font-size="11" font-weight="bold" lengthAdjust="spacing" textLength="100" x="86" y="500.3135">[Se for Professor]</text><polygon fill="#181818" points="65,525.0254,55,529.0254,65,533.0254,61,529.0254" style="stroke:#181818;stroke-width:1.0;"/><line style="stroke:#181818;stroke-width:1.0;stroke-dasharray:2.0,2.0;" x1="59" x2="497" y1="529.0254" y2="529.0254"/><text fill="#000000" font-family="sans-serif" font-size="13" font-weight="bold" lengthAdjust="spacing" textLength="14" x="71" y="523.7627">11</text><text fill="#000000" font-family="sans-serif" font-size="13" lengthAdjust="spacing" textLength="172" x="89" y="523.7627">Pede informa&#231;&#227;o do professor</text><polygon fill="#181818" points="486,556.3164,496,560.3164,486,564.3164,490,560.3164" style="stroke:#181818;stroke-width:1.0;"/><line style="stroke:#181818;stroke-width:1.0;" x1="54" x2="492" y1="560.3164" y2="560.3164"/><text fill="#000000" font-family="sans-serif" font-size="13" font-weight="bold" lengthAdjust="spacing" textLength="14" x="61" y="555.0537">12</text><text fill="#000000" font-family="sans-serif" font-size="13" lengthAdjust="spacing" textLength="324" x="79" y="555.0537">N&#250;mero de contribuinte, data de nascimento e acr&#243;nimo</text><polygon fill="#181818" points="730,656.7715,740,660.7715,730,664.7715,734,660.7715" style="stroke:#181818;stroke-width:1.0;"/><line style="stroke:#181818;stroke-width:1.0;" x1="508" x2="736" y1="660.7715" y2="660.7715"/><text fill="#000000" font-family="sans-serif" font-size="13" font-weight="bold" lengthAdjust="spacing" textLength="14" x="515" y="620.9268">13</text><text fill="#000000" font-family="sans-serif" font-size="13" lengthAdjust="spacing" textLength="132" x="533" y="586.3447">addTeacher(username,</text><text fill="#000000" font-family="sans-serif" font-size="13" lengthAdjust="spacing" textLength="122" x="533" y="603.6357">password, firstName,</text><text fill="#000000" font-family="sans-serif" font-size="13" lengthAdjust="spacing" textLength="98" x="533" y="620.9268">lastName, email,</text><text fill="#000000" font-family="sans-serif" font-size="13" lengthAdjust="spacing" textLength="137" x="533" y="638.2178">roles, taxPayerNumber,</text><text fill="#000000" font-family="sans-serif" font-size="13" lengthAdjust="spacing" textLength="114" x="533" y="655.5088">birthDate, acronym)</text><rect fill="none" height="43.252" style="stroke:#000000;stroke-width:1.5;" width="189" x="679" y="693.7715"/><path d="M679,693.7715 L741,693.7715 L741,702.7715 L731,712.7715 L679,712.7715 L679,693.7715 " fill="#EEEEEE" style="stroke:#000000;stroke-width:2.0;"/><text fill="#000000" font-family="sans-serif" font-size="13" font-weight="bold" lengthAdjust="spacing" textLength="17" x="692" y="709.7998">ref</text><text fill="#000000" font-family="sans-serif" font-size="12" lengthAdjust="spacing" textLength="181" x="683" y="729.7207">sequence-diagram_add_teacher</text><polygon fill="#181818" points="519,786.3145,509,790.3145,519,794.3145,515,790.3145" style="stroke:#181818;stroke-width:1.0;"/><line style="stroke:#181818;stroke-width:1.0;" x1="513" x2="746" y1="790.3145" y2="790.3145"/><text fill="#000000" font-family="sans-serif" font-size="13" font-weight="bold" lengthAdjust="spacing" textLength="14" x="525" y="785.0518">14</text><text fill="#000000" font-family="sans-serif" font-size="13" lengthAdjust="spacing" textLength="43" x="543" y="785.0518">teacher</text><line style="stroke:#000000;stroke-width:1.0;stroke-dasharray:2.0,2.0;" x1="10" x2="875" y1="799.3145" y2="799.3145"/><text fill="#000000" font-family="sans-serif" font-size="11" font-weight="bold" lengthAdjust="spacing" textLength="99" x="15" y="811.1846">[Se for Estudante]</text><polygon fill="#181818" points="65,834.2363,55,838.2363,65,842.2363,61,838.2363" style="stroke:#181818;stroke-width:1.0;"/><line style="stroke:#181818;stroke-width:1.0;stroke-dasharray:2.0,2.0;" x1="59" x2="497" y1="838.2363" y2="838.2363"/><text fill="#000000" font-family="sans-serif" font-size="13" font-weight="bold" lengthAdjust="spacing" textLength="14" x="71" y="832.9736">15</text><text fill="#000000" font-family="sans-serif" font-size="13" lengthAdjust="spacing" textLength="176" x="89" y="832.9736">Pede informa&#231;&#227;o do estudante</text><polygon fill="#181818" points="730,934.6914,740,938.6914,730,942.6914,734,938.6914" style="stroke:#181818;stroke-width:1.0;"/><line style="stroke:#181818;stroke-width:1.0;" x1="508" x2="736" y1="938.6914" y2="938.6914"/><text fill="#000000" font-family="sans-serif" font-size="13" font-weight="bold" lengthAdjust="spacing" textLength="14" x="515" y="898.8467">16</text><text fill="#000000" font-family="sans-serif" font-size="13" lengthAdjust="spacing" textLength="131" x="533" y="864.2646">addStudent(username,</text><text fill="#000000" font-family="sans-serif" font-size="13" lengthAdjust="spacing" textLength="122" x="533" y="881.5557">password, firstName,</text><text fill="#000000" font-family="sans-serif" font-size="13" lengthAdjust="spacing" textLength="98" x="533" y="898.8467">lastName, email,</text><text fill="#000000" font-family="sans-serif" font-size="13" lengthAdjust="spacing" textLength="137" x="533" y="916.1377">roles, taxPayerNumber,</text><text fill="#000000" font-family="sans-serif" font-size="13" lengthAdjust="spacing" textLength="197" x="533" y="933.4287">birthDate, mecanographicNumber)</text><rect fill="none" height="43.252" style="stroke:#000000;stroke-width:1.5;" width="189" x="679" y="971.6914"/><path d="M679,971.6914 L741,971.6914 L741,980.6914 L731,990.6914 L679,990.6914 L679,971.6914 " fill="#EEEEEE" style="stroke:#000000;stroke-width:2.0;"/><text fill="#000000" font-family="sans-serif" font-size="13" font-weight="bold" lengthAdjust="spacing" textLength="17" x="692" y="987.7197">ref</text><text fill="#000000" font-family="sans-serif" font-size="12" lengthAdjust="spacing" textLength="181" x="683" y="1007.6406">sequence-diagram_add_student</text><polygon fill="#181818" points="519,1064.2344,509,1068.2344,519,1072.2344,515,1068.2344" style="stroke:#181818;stroke-width:1.0;"/><line style="stroke:#181818;stroke-width:1.0;" x1="513" x2="741" y1="1068.2344" y2="1068.2344"/><text fill="#000000" font-family="sans-serif" font-size="13" font-weight="bold" lengthAdjust="spacing" textLength="14" x="525" y="1062.9717">17</text><text fill="#000000" font-family="sans-serif" font-size="13" lengthAdjust="spacing" textLength="43" x="543" y="1062.9717">student</text><polygon fill="#181818" points="486,1095.5254,496,1099.5254,486,1103.5254,490,1099.5254" style="stroke:#181818;stroke-width:1.0;"/><line style="stroke:#181818;stroke-width:1.0;" x1="54" x2="492" y1="1099.5254" y2="1099.5254"/><text fill="#000000" font-family="sans-serif" font-size="13" font-weight="bold" lengthAdjust="spacing" textLength="14" x="61" y="1094.2627">18</text><text fill="#000000" font-family="sans-serif" font-size="13" lengthAdjust="spacing" textLength="402" x="79" y="1094.2627">N&#250;mero de contribuinte, data de nascimento e n&#250;mero mecanogr&#225;fico</text><line style="stroke:#000000;stroke-width:1.0;stroke-dasharray:2.0,2.0;" x1="10" x2="875" y1="1108.5254" y2="1108.5254"/><text fill="#000000" font-family="sans-serif" font-size="11" font-weight="bold" lengthAdjust="spacing" textLength="103" x="15" y="1120.3955">[Sen&#227;o &#233; Manager]</text><polygon fill="#181818" points="730,1195.3203,740,1199.3203,730,1203.3203,734,1199.3203" style="stroke:#181818;stroke-width:1.0;"/><line style="stroke:#181818;stroke-width:1.0;" x1="508" x2="736" y1="1199.3203" y2="1199.3203"/><text fill="#000000" font-family="sans-serif" font-size="13" font-weight="bold" lengthAdjust="spacing" textLength="14" x="515" y="1168.1211">19</text><text fill="#000000" font-family="sans-serif" font-size="13" lengthAdjust="spacing" textLength="113" x="533" y="1142.1846">addUser(username,</text><text fill="#000000" font-family="sans-serif" font-size="13" lengthAdjust="spacing" textLength="122" x="533" y="1159.4756">password, firstName,</text><text fill="#000000" font-family="sans-serif" font-size="13" lengthAdjust="spacing" textLength="98" x="533" y="1176.7666">lastName, email,</text><text fill="#000000" font-family="sans-serif" font-size="13" lengthAdjust="spacing" textLength="32" x="533" y="1194.0576">roles)</text><rect fill="none" height="43.252" style="stroke:#000000;stroke-width:1.5;" width="173" x="679" y="1232.3203"/><path d="M679,1232.3203 L741,1232.3203 L741,1241.3203 L731,1251.3203 L679,1251.3203 L679,1232.3203 " fill="#EEEEEE" style="stroke:#000000;stroke-width:2.0;"/><text fill="#000000" font-family="sans-serif" font-size="13" font-weight="bold" lengthAdjust="spacing" textLength="17" x="692" y="1248.3486">ref</text><text fill="#000000" font-family="sans-serif" font-size="12" lengthAdjust="spacing" textLength="165" x="683" y="1268.2695">sequence-diagram_add_user</text><polygon fill="#181818" points="519,1324.8633,509,1328.8633,519,1332.8633,515,1328.8633" style="stroke:#181818;stroke-width:1.0;"/><line style="stroke:#181818;stroke-width:1.0;" x1="513" x2="746" y1="1328.8633" y2="1328.8633"/><text fill="#000000" font-family="sans-serif" font-size="13" font-weight="bold" lengthAdjust="spacing" textLength="14" x="525" y="1323.6006">20</text><text fill="#000000" font-family="sans-serif" font-size="13" lengthAdjust="spacing" textLength="25" x="543" y="1323.6006">user</text><polygon fill="#181818" points="60,1363.1543,50,1367.1543,60,1371.1543,56,1367.1543" style="stroke:#181818;stroke-width:1.0;"/><line style="stroke:#181818;stroke-width:1.0;stroke-dasharray:2.0,2.0;" x1="54" x2="502" y1="1367.1543" y2="1367.1543"/><text fill="#000000" font-family="sans-serif" font-size="13" font-weight="bold" lengthAdjust="spacing" textLength="14" x="66" y="1361.8916">21</text><text fill="#000000" font-family="sans-serif" font-size="13" lengthAdjust="spacing" textLength="181" x="84" y="1361.8916">Informa o sucesso da opera&#231;&#227;o</text><!--SRC=[nLPDJzj04BtxLqmvWKGak4PffBQfAWuWr92UaD2mdYGhx5rtTmrDnP-fUgXwxerh_bXdrYRO-Q8egd2aP3_UcvcTDpkElz6cG8SvvDPODNKs9mYkfCGlTWfKDpYXOPXb18vKG3F9cW0_nTJUQJE1CMQUaYJemD0XVIt9A8A1nedWzeU30-Z0Q0Z7HqV7LyS9bi6QChycboIeWdNmYHoPG80Utib2mXw2Lhf04-1TceuykT69RFDthrSuyep7eAtfzzU1FrWJdCqoSa9gp7ezB8fCgtNSFSQGxxv7Jvzbj2VSE1hO7BLXSXe7oxoIFNQ7Cnye5-UH9uDdQ85GJPbvKVr6MZr-Xkb3cN82kiFgDpBhyIepIM9EeTFdx7NXd582KH0mPOFM89Gvb45d-ZiBwaGIVOkiHYN5OZewIO0VLe0jFQMq2yeHxoUBNTwErDgNDcFhSfp_cl-qaDgcAs6qWfEi6Spfa2FCyDPXfq3lPUfqJjfPC5PsvmzPq7ar0_xmKRDaRNZGXGa5KV5YLf3VFuYenQ6UW76zmMChJUsxxCj8U5ymArVjDA1neqbTZYUMMKIbjD50En8-rGPUum1nAxEs05jKsNxp5exYwgeqfzO7gG78j0yekWHTi3xKSBCYpqK34X5aqiejPe5lFh3ISExicBolvVt7eYXMI0t7VFQp-KDEBZfNSc9zNMhk68UGeaHFOD0hBX4JBDS3AZV_OxX0abOCxRB5DArlstwvABjB8mLtPrrw26FjV3YJvKkJOJsiQas0CK-74F3RESx8dSME9XlNseNf02Kw3iIQMNwm26DJuJq-z_VthRcZCTXRBe8DU7bytN4xQTLnh_XaLtLpQO5PBJ6urU6JdqvV95-siwNqeWj-4pmMmaTfKzolw2M5G0lITkdgTlV_fCj9eR6SpsAgLOLu1HdhJh-pZCjsThbTfaO_PcZ-OwoLVM656D5x_XjEqV2_3BTTREcxEoZz2hf9i3kBrZAoFgsj9bpbZszOVS5Eghi55doffBkodlnk85TTjwHXab_kZLda_mK0]--></g></svg>