<?xml version="1.0" encoding="us-ascii" standalone="no"?><svg xmlns="http://www.w3.org/2000/svg" xmlns:xlink="http://www.w3.org/1999/xlink" contentStyleType="text/css" height="917px" preserveAspectRatio="none" style="width:1389px;height:917px;background:#FFFFFF;" version="1.1" viewBox="0 0 1389 917" width="1389px" zoomAndPan="magnify"><defs/><g><text fill="#000000" font-family="sans-serif" font-size="14" font-weight="bold" lengthAdjust="spacing" textLength="117" x="637.5" y="30.1074">SD_Add_Student</text><rect fill="#FFFFFF" height="569.8203" style="stroke:#181818;stroke-width:1.0;" width="10" x="168" y="230.3184"/><rect fill="#FFFFFF" height="406.7832" style="stroke:#181818;stroke-width:1.0;" width="10" x="379" y="362.0645"/><rect fill="#FFFFFF" height="93.873" style="stroke:#181818;stroke-width:1.0;" width="10" x="538.5" y="424.6465"/><rect fill="#FFFFFF" height="62.582" style="stroke:#181818;stroke-width:1.0;" width="10" x="1042" y="549.8105"/><rect fill="#FFFFFF" height="62.582" style="stroke:#181818;stroke-width:1.0;" width="10" x="1185" y="643.6836"/><line style="stroke:#181818;stroke-width:0.5;stroke-dasharray:5.0,5.0;" x1="173" x2="173" y1="127.8633" y2="818.1387"/><line style="stroke:#181818;stroke-width:0.5;stroke-dasharray:5.0,5.0;" x1="384" x2="384" y1="127.8633" y2="818.1387"/><line style="stroke:#181818;stroke-width:0.5;stroke-dasharray:5.0,5.0;" x1="543" x2="543" y1="127.8633" y2="818.1387"/><line style="stroke:#181818;stroke-width:0.5;stroke-dasharray:5.0,5.0;" x1="667" x2="667" y1="127.8633" y2="818.1387"/><line style="stroke:#181818;stroke-width:0.5;stroke-dasharray:5.0,5.0;" x1="791" x2="791" y1="127.8633" y2="818.1387"/><line style="stroke:#181818;stroke-width:0.5;stroke-dasharray:5.0,5.0;" x1="912" x2="912" y1="127.8633" y2="818.1387"/><line style="stroke:#181818;stroke-width:0.5;stroke-dasharray:5.0,5.0;" x1="1047" x2="1047" y1="127.8633" y2="818.1387"/><line style="stroke:#181818;stroke-width:0.5;stroke-dasharray:5.0,5.0;" x1="1190" x2="1190" y1="127.8633" y2="818.1387"/><line style="stroke:#181818;stroke-width:0.5;stroke-dasharray:5.0,5.0;" x1="1326" x2="1326" y1="127.8633" y2="818.1387"/><rect fill="#E3E3E3" height="51.2422" rx="2.5" ry="2.5" style="stroke:#181818;stroke-width:0.5;" width="130" x="108" y="75.6211"/><text fill="#000000" font-family="sans-serif" font-size="14" font-style="italic" lengthAdjust="spacing" textLength="84" x="131" y="97.7285">&#171;application&#187;</text><text fill="#000000" font-family="sans-serif" font-size="14" lengthAdjust="spacing" textLength="116" x="115" y="116.3496">AddUserController</text><rect fill="#E3E3E3" height="51.2422" rx="2.5" ry="2.5" style="stroke:#181818;stroke-width:0.5;" width="130" x="108" y="817.1387"/><text fill="#000000" font-family="sans-serif" font-size="14" font-style="italic" lengthAdjust="spacing" textLength="84" x="131" y="839.2461">&#171;application&#187;</text><text fill="#000000" font-family="sans-serif" font-size="14" lengthAdjust="spacing" textLength="116" x="115" y="857.8672">AddUserController</text><rect fill="#E3E3E3" height="51.2422" rx="2.5" ry="2.5" style="stroke:#181818;stroke-width:0.5;" width="192" x="288" y="75.6211"/><text fill="#000000" font-family="sans-serif" font-size="14" font-style="italic" lengthAdjust="spacing" textLength="60" x="354" y="97.7285">&#171;service&#187;</text><text fill="#000000" font-family="sans-serif" font-size="14" lengthAdjust="spacing" textLength="178" x="295" y="116.3496">StudentManagementService</text><rect fill="#E3E3E3" height="51.2422" rx="2.5" ry="2.5" style="stroke:#181818;stroke-width:0.5;" width="192" x="288" y="817.1387"/><text fill="#000000" font-family="sans-serif" font-size="14" font-style="italic" lengthAdjust="spacing" textLength="60" x="354" y="839.2461">&#171;service&#187;</text><text fill="#000000" font-family="sans-serif" font-size="14" lengthAdjust="spacing" textLength="178" x="295" y="857.8672">StudentManagementService</text><rect fill="#E3E3E3" height="51.2422" rx="2.5" ry="2.5" style="stroke:#181818;stroke-width:0.5;" width="107" x="490" y="75.6211"/><text fill="#000000" font-family="sans-serif" font-size="14" font-style="italic" lengthAdjust="spacing" textLength="59" x="514" y="97.7285">&#171;builder&#187;</text><text fill="#000000" font-family="sans-serif" font-size="14" lengthAdjust="spacing" textLength="93" x="497" y="116.3496">StudentBuilder</text><rect fill="#E3E3E3" height="51.2422" rx="2.5" ry="2.5" style="stroke:#181818;stroke-width:0.5;" width="107" x="490" y="817.1387"/><text fill="#000000" font-family="sans-serif" font-size="14" font-style="italic" lengthAdjust="spacing" textLength="59" x="514" y="839.2461">&#171;builder&#187;</text><text fill="#000000" font-family="sans-serif" font-size="14" lengthAdjust="spacing" textLength="93" x="497" y="857.8672">StudentBuilder</text><rect fill="#E3E3E3" height="51.2422" rx="2.5" ry="2.5" style="stroke:#181818;stroke-width:0.5;" width="121" x="607" y="75.6211"/><text fill="#000000" font-family="sans-serif" font-size="14" font-style="italic" lengthAdjust="spacing" textLength="62" x="636.5" y="97.7285">&#171;domain&#187;</text><text fill="#000000" font-family="sans-serif" font-size="14" lengthAdjust="spacing" textLength="107" x="614" y="116.3496">user:SystemUser</text><rect fill="#E3E3E3" height="51.2422" rx="2.5" ry="2.5" style="stroke:#181818;stroke-width:0.5;" width="121" x="607" y="817.1387"/><text fill="#000000" font-family="sans-serif" font-size="14" font-style="italic" lengthAdjust="spacing" textLength="62" x="636.5" y="839.2461">&#171;domain&#187;</text><text fill="#000000" font-family="sans-serif" font-size="14" lengthAdjust="spacing" textLength="107" x="614" y="857.8672">user:SystemUser</text><rect fill="#E3E3E3" height="51.2422" rx="2.5" ry="2.5" style="stroke:#181818;stroke-width:0.5;" width="107" x="738" y="75.6211"/><text fill="#000000" font-family="sans-serif" font-size="14" font-style="italic" lengthAdjust="spacing" textLength="62" x="760.5" y="97.7285">&#171;domain&#187;</text><text fill="#000000" font-family="sans-serif" font-size="14" lengthAdjust="spacing" textLength="93" x="745" y="116.3496">person:Person</text><rect fill="#E3E3E3" height="51.2422" rx="2.5" ry="2.5" style="stroke:#181818;stroke-width:0.5;" width="107" x="738" y="817.1387"/><text fill="#000000" font-family="sans-serif" font-size="14" font-style="italic" lengthAdjust="spacing" textLength="62" x="760.5" y="839.2461">&#171;domain&#187;</text><text fill="#000000" font-family="sans-serif" font-size="14" lengthAdjust="spacing" textLength="93" x="745" y="857.8672">person:Person</text><rect fill="#E3E3E3" height="51.2422" rx="2.5" ry="2.5" style="stroke:#181818;stroke-width:0.5;" width="114" x="855" y="75.6211"/><text fill="#000000" font-family="sans-serif" font-size="14" font-style="italic" lengthAdjust="spacing" textLength="62" x="881" y="97.7285">&#171;domain&#187;</text><text fill="#000000" font-family="sans-serif" font-size="14" lengthAdjust="spacing" textLength="100" x="862" y="116.3496">student:Student</text><rect fill="#E3E3E3" height="51.2422" rx="2.5" ry="2.5" style="stroke:#181818;stroke-width:0.5;" width="114" x="855" y="817.1387"/><text fill="#000000" font-family="sans-serif" font-size="14" font-style="italic" lengthAdjust="spacing" textLength="62" x="881" y="839.2461">&#171;domain&#187;</text><text fill="#000000" font-family="sans-serif" font-size="14" lengthAdjust="spacing" textLength="100" x="862" y="857.8672">student:Student</text><rect fill="#E3E3E3" height="51.2422" rx="2.5" ry="2.5" style="stroke:#181818;stroke-width:0.5;" width="136" x="979" y="75.6211"/><text fill="#000000" font-family="sans-serif" font-size="14" font-style="italic" lengthAdjust="spacing" textLength="89" x="1002.5" y="97.7285">&#171;persistence&#187;</text><text fill="#000000" font-family="sans-serif" font-size="14" lengthAdjust="spacing" textLength="122" x="986" y="116.3496">PersistenceContext</text><rect fill="#E3E3E3" height="51.2422" rx="2.5" ry="2.5" style="stroke:#181818;stroke-width:0.5;" width="136" x="979" y="817.1387"/><text fill="#000000" font-family="sans-serif" font-size="14" font-style="italic" lengthAdjust="spacing" textLength="89" x="1002.5" y="839.2461">&#171;persistence&#187;</text><text fill="#000000" font-family="sans-serif" font-size="14" lengthAdjust="spacing" textLength="122" x="986" y="857.8672">PersistenceContext</text><rect fill="#E3E3E3" height="51.2422" rx="2.5" ry="2.5" style="stroke:#181818;stroke-width:0.5;" width="130" x="1125" y="75.6211"/><text fill="#000000" font-family="sans-serif" font-size="14" font-style="italic" lengthAdjust="spacing" textLength="59" x="1160.5" y="97.7285">&#171;factory&#187;</text><text fill="#000000" font-family="sans-serif" font-size="14" lengthAdjust="spacing" textLength="116" x="1132" y="116.3496">RepositoryFactory</text><rect fill="#E3E3E3" height="51.2422" rx="2.5" ry="2.5" style="stroke:#181818;stroke-width:0.5;" width="130" x="1125" y="817.1387"/><text fill="#000000" font-family="sans-serif" font-size="14" font-style="italic" lengthAdjust="spacing" textLength="59" x="1160.5" y="839.2461">&#171;factory&#187;</text><text fill="#000000" font-family="sans-serif" font-size="14" lengthAdjust="spacing" textLength="116" x="1132" y="857.8672">RepositoryFactory</text><text fill="#000000" font-family="sans-serif" font-size="14" font-style="italic" lengthAdjust="spacing" textLength="79" x="1284" y="105.7285">&#171;repository&#187;</text><text fill="#000000" font-family="sans-serif" font-size="14" lengthAdjust="spacing" textLength="117" x="1265" y="124.3496">StudentRepository</text><path d="M1308.5,54.6211 C1308.5,44.6211 1326.5,44.6211 1326.5,44.6211 C1326.5,44.6211 1344.5,44.6211 1344.5,54.6211 L1344.5,80.6211 C1344.5,90.6211 1326.5,90.6211 1326.5,90.6211 C1326.5,90.6211 1308.5,90.6211 1308.5,80.6211 L1308.5,54.6211 " fill="#E3E3E3" style="stroke:#181818;stroke-width:1.5;"/><path d="M1308.5,54.6211 C1308.5,64.6211 1326.5,64.6211 1326.5,64.6211 C1326.5,64.6211 1344.5,64.6211 1344.5,54.6211 " fill="none" style="stroke:#181818;stroke-width:1.5;"/><text fill="#000000" font-family="sans-serif" font-size="14" font-style="italic" lengthAdjust="spacing" textLength="79" x="1284" y="832.2461">&#171;repository&#187;</text><text fill="#000000" font-family="sans-serif" font-size="14" lengthAdjust="spacing" textLength="117" x="1265" y="850.8672">StudentRepository</text><path d="M1308.5,864.3809 C1308.5,854.3809 1326.5,854.3809 1326.5,854.3809 C1326.5,854.3809 1344.5,854.3809 1344.5,864.3809 L1344.5,890.3809 C1344.5,900.3809 1326.5,900.3809 1326.5,900.3809 C1326.5,900.3809 1308.5,900.3809 1308.5,890.3809 L1308.5,864.3809 " fill="#E3E3E3" style="stroke:#181818;stroke-width:1.5;"/><path d="M1308.5,864.3809 C1308.5,874.3809 1326.5,874.3809 1326.5,874.3809 C1326.5,874.3809 1344.5,874.3809 1344.5,864.3809 " fill="none" style="stroke:#181818;stroke-width:1.5;"/><rect fill="#FFFFFF" height="569.8203" style="stroke:#181818;stroke-width:1.0;" width="10" x="168" y="230.3184"/><rect fill="#FFFFFF" height="406.7832" style="stroke:#181818;stroke-width:1.0;" width="10" x="379" y="362.0645"/><rect fill="#FFFFFF" height="93.873" style="stroke:#181818;stroke-width:1.0;" width="10" x="538.5" y="424.6465"/><rect fill="#FFFFFF" height="62.582" style="stroke:#181818;stroke-width:1.0;" width="10" x="1042" y="549.8105"/><rect fill="#FFFFFF" height="62.582" style="stroke:#181818;stroke-width:1.0;" width="10" x="1185" y="643.6836"/><ellipse cx="7.5" cy="229.5684" fill="none" rx="4" ry="4" style="stroke:#181818;stroke-width:1.5;"/><polygon fill="#181818" points="156,226.3184,166,230.3184,156,234.3184,160,230.3184" style="stroke:#181818;stroke-width:1.0;"/><line style="stroke:#181818;stroke-width:1.0;" x1="12" x2="162" y1="230.3184" y2="230.3184"/><text fill="#000000" font-family="sans-serif" font-size="13" lengthAdjust="spacing" textLength="131" x="15" y="155.8916">addStudent(username,</text><text fill="#000000" font-family="sans-serif" font-size="13" lengthAdjust="spacing" textLength="122" x="15" y="173.1826">password, firstName,</text><text fill="#000000" font-family="sans-serif" font-size="13" lengthAdjust="spacing" textLength="98" x="15" y="190.4736">lastName, email,</text><text fill="#000000" font-family="sans-serif" font-size="13" lengthAdjust="spacing" textLength="137" x="15" y="207.7646">roles, taxPayerNumber,</text><text fill="#000000" font-family="sans-serif" font-size="13" lengthAdjust="spacing" textLength="56" x="15" y="225.0557">birthDate)</text><polygon fill="#181818" points="372,257.6094,382,261.6094,372,265.6094,376,261.6094" style="stroke:#181818;stroke-width:1.0;"/><line style="stroke:#181818;stroke-width:1.0;" x1="178" x2="378" y1="261.6094" y2="261.6094"/><text fill="#000000" font-family="sans-serif" font-size="13" lengthAdjust="spacing" textLength="36" x="185" y="256.3467">create</text><polygon fill="#181818" points="367,358.0645,377,362.0645,367,366.0645,371,362.0645" style="stroke:#181818;stroke-width:1.0;"/><line style="stroke:#181818;stroke-width:1.0;" x1="178" x2="373" y1="362.0645" y2="362.0645"/><text fill="#000000" font-family="sans-serif" font-size="13" lengthAdjust="spacing" textLength="178" x="185" y="287.6377">registerNewStudent(username,</text><text fill="#000000" font-family="sans-serif" font-size="13" lengthAdjust="spacing" textLength="122" x="185" y="304.9287">password, firstName,</text><text fill="#000000" font-family="sans-serif" font-size="13" lengthAdjust="spacing" textLength="134" x="185" y="322.2197">lastName, email, roles,</text><text fill="#000000" font-family="sans-serif" font-size="13" lengthAdjust="spacing" textLength="169" x="185" y="339.5107">createdOn, taxPayerNumber,</text><text fill="#000000" font-family="sans-serif" font-size="13" lengthAdjust="spacing" textLength="56" x="185" y="356.8018">birthDate)</text><polygon fill="#181818" points="531.5,389.3555,541.5,393.3555,531.5,397.3555,535.5,393.3555" style="stroke:#181818;stroke-width:1.0;"/><line style="stroke:#181818;stroke-width:1.0;" x1="389" x2="537.5" y1="393.3555" y2="393.3555"/><text fill="#000000" font-family="sans-serif" font-size="13" lengthAdjust="spacing" textLength="36" x="396" y="388.0928">create</text><polygon fill="#181818" points="526.5,420.6465,536.5,424.6465,526.5,428.6465,530.5,424.6465" style="stroke:#181818;stroke-width:1.0;"/><line style="stroke:#181818;stroke-width:1.0;" x1="389" x2="532.5" y1="424.6465" y2="424.6465"/><text fill="#000000" font-family="sans-serif" font-size="13" lengthAdjust="spacing" textLength="89" x="396" y="419.3838">createStudent()</text><polygon fill="#181818" points="900,451.9375,910,455.9375,900,459.9375,904,455.9375" style="stroke:#181818;stroke-width:1.0;"/><line style="stroke:#181818;stroke-width:1.0;" x1="548.5" x2="906" y1="455.9375" y2="455.9375"/><text fill="#000000" font-family="sans-serif" font-size="13" lengthAdjust="spacing" textLength="87" x="555.5" y="450.6748">create (person)</text><polygon fill="#181818" points="559.5,483.2285,549.5,487.2285,559.5,491.2285,555.5,487.2285" style="stroke:#181818;stroke-width:1.0;"/><line style="stroke:#181818;stroke-width:1.0;" x1="553.5" x2="911" y1="487.2285" y2="487.2285"/><text fill="#000000" font-family="sans-serif" font-size="13" lengthAdjust="spacing" textLength="43" x="565.5" y="481.9658">student</text><polygon fill="#181818" points="400,514.5195,390,518.5195,400,522.5195,396,518.5195" style="stroke:#181818;stroke-width:1.0;"/><line style="stroke:#181818;stroke-width:1.0;" x1="394" x2="542.5" y1="518.5195" y2="518.5195"/><text fill="#000000" font-family="sans-serif" font-size="13" lengthAdjust="spacing" textLength="43" x="406" y="513.2568">student</text><polygon fill="#181818" points="1030,545.8105,1040,549.8105,1030,553.8105,1034,549.8105" style="stroke:#181818;stroke-width:1.0;"/><line style="stroke:#181818;stroke-width:1.0;" x1="389" x2="1036" y1="549.8105" y2="549.8105"/><text fill="#000000" font-family="sans-serif" font-size="13" lengthAdjust="spacing" textLength="75" x="396" y="544.5479">repositories()</text><polygon fill="#181818" points="1178,577.1016,1188,581.1016,1178,585.1016,1182,581.1016" style="stroke:#181818;stroke-width:1.0;"/><line style="stroke:#181818;stroke-width:1.0;" x1="1052" x2="1184" y1="581.1016" y2="581.1016"/><text fill="#000000" font-family="sans-serif" font-size="13" lengthAdjust="spacing" textLength="36" x="1059" y="575.8389">create</text><polygon fill="#181818" points="400,608.3926,390,612.3926,400,616.3926,396,612.3926" style="stroke:#181818;stroke-width:1.0;"/><line style="stroke:#181818;stroke-width:1.0;" x1="394" x2="1046" y1="612.3926" y2="612.3926"/><text fill="#000000" font-family="sans-serif" font-size="13" lengthAdjust="spacing" textLength="39" x="406" y="607.1299">factory</text><polygon fill="#181818" points="1173,639.6836,1183,643.6836,1173,647.6836,1177,643.6836" style="stroke:#181818;stroke-width:1.0;"/><line style="stroke:#181818;stroke-width:1.0;" x1="389" x2="1179" y1="643.6836" y2="643.6836"/><text fill="#000000" font-family="sans-serif" font-size="13" lengthAdjust="spacing" textLength="58" x="396" y="638.4209">students()</text><polygon fill="#181818" points="1314.5,670.9746,1324.5,674.9746,1314.5,678.9746,1318.5,674.9746" style="stroke:#181818;stroke-width:1.0;"/><line style="stroke:#181818;stroke-width:1.0;" x1="1195" x2="1320.5" y1="674.9746" y2="674.9746"/><text fill="#000000" font-family="sans-serif" font-size="13" lengthAdjust="spacing" textLength="36" x="1202" y="669.7119">create</text><polygon fill="#181818" points="400,702.2656,390,706.2656,400,710.2656,396,706.2656" style="stroke:#181818;stroke-width:1.0;"/><line style="stroke:#181818;stroke-width:1.0;" x1="394" x2="1189" y1="706.2656" y2="706.2656"/><text fill="#000000" font-family="sans-serif" font-size="13" lengthAdjust="spacing" textLength="105" x="406" y="701.0029">studentRepository</text><polygon fill="#181818" points="1314.5,733.5566,1324.5,737.5566,1314.5,741.5566,1318.5,737.5566" style="stroke:#181818;stroke-width:1.0;"/><line style="stroke:#181818;stroke-width:1.0;" x1="389" x2="1320.5" y1="737.5566" y2="737.5566"/><text fill="#000000" font-family="sans-serif" font-size="13" lengthAdjust="spacing" textLength="77" x="396" y="732.2939">save(student)</text><polygon fill="#181818" points="189,764.8477,179,768.8477,189,772.8477,185,768.8477" style="stroke:#181818;stroke-width:1.0;"/><line style="stroke:#181818;stroke-width:1.0;" x1="183" x2="383" y1="768.8477" y2="768.8477"/><text fill="#000000" font-family="sans-serif" font-size="13" lengthAdjust="spacing" textLength="43" x="195" y="763.585">student</text><polygon fill="#181818" points="11,796.1387,1,800.1387,11,804.1387,7,800.1387" style="stroke:#181818;stroke-width:1.0;"/><line style="stroke:#181818;stroke-width:1.0;stroke-dasharray:2.0,2.0;" x1="5" x2="172" y1="800.1387" y2="800.1387"/><text fill="#000000" font-family="sans-serif" font-size="13" lengthAdjust="spacing" textLength="43" x="17" y="794.876">student</text><!--SRC=[fLJ1Zjem4BtdAwmzWGG_W2oajcXlfQkYdXPfDSG3M9lOaMrW-VkEOpiuXkuUwakUFVDctjWpiUzITM2WPQrMkZuQtI9pveIL7ImTrEzmm8sxDiWCrWxKeSaTx164laXrO7jeB5QLauvSDwktRqAyRTn9e79LHSvErh83vHWP_bWqFxHoHZSD6WQMPJlEeUiQMOEJMYsN8suC-1CKgMe9RT2SPOq-H8ASsu0USx-VP2D2qWGvtmLKC9vE56cnkLg7hPVyv4aUh7GBKX5FzA2aTMYiLekN_jEJ0lo2PeF0HHJQ4oF-dEcZInAfQlJtY1ykvOodHEnkkuBz6pjjfTFc-Wor_tXoWfpl0oAI00Sxi9X4tOYUaUquDyE6UDMhdY_p5rum1aB4A1D_oGfQdB4jDPMr5st4ZEsbiMxjZxUgWGWPKlMDTwH8Q6VCmSSBND6iJ-qEZJVif7775JYSLYHSdWbbgIj6ArD2kcBRB5Xja9m_yp1uy5TerdZv3_51-bQ5VEAN-g8CBsWe9Mgf-jFKyQGnjlAeYWVcO4tYfzKuUFJg3zDi-Fhp7amPs2HqUT0tSfal1pKs_G3AaF5AazsR1Tu9ASl8Mjg_HkmnYNPIN5Fcs1lyokU1OiKE7ztO0xVXyUCSb5BpJANS8KKiyqxcSnRJhpHrnBsDqvt2p6jGPykHB7McLBd6-JBBOk6CanXcMbOo6jv_F5fgJN_yokVpnwICa8tbNm00]--></g></svg>