<?xml version="1.0" encoding="us-ascii" standalone="no"?><svg xmlns="http://www.w3.org/2000/svg" xmlns:xlink="http://www.w3.org/1999/xlink" contentStyleType="text/css" height="900px" preserveAspectRatio="none" style="width:1192px;height:900px;background:#FFFFFF;" version="1.1" viewBox="0 0 1192 900" width="1192px" zoomAndPan="magnify"><defs/><g><text fill="#000000" font-family="sans-serif" font-size="14" font-weight="bold" lengthAdjust="spacing" textLength="95" x="550" y="30.1074">SD_Add_User</text><rect fill="#FFFFFF" height="569.8203" style="stroke:#181818;stroke-width:1.0;" width="10" x="149" y="213.0273"/><rect fill="#FFFFFF" height="441.3652" style="stroke:#181818;stroke-width:1.0;" width="10" x="405" y="310.1914"/><rect fill="#FFFFFF" height="128.4551" style="stroke:#181818;stroke-width:1.0;" width="10" x="567.5" y="372.7734"/><rect fill="#FFFFFF" height="62.582" style="stroke:#181818;stroke-width:1.0;" width="10" x="865" y="532.5195"/><rect fill="#FFFFFF" height="62.582" style="stroke:#181818;stroke-width:1.0;" width="10" x="1008" y="626.3926"/><line style="stroke:#181818;stroke-width:0.5;stroke-dasharray:5.0,5.0;" x1="154" x2="154" y1="127.8633" y2="800.8477"/><line style="stroke:#181818;stroke-width:0.5;stroke-dasharray:5.0,5.0;" x1="410" x2="410" y1="127.8633" y2="800.8477"/><line style="stroke:#181818;stroke-width:0.5;stroke-dasharray:5.0,5.0;" x1="572" x2="572" y1="127.8633" y2="800.8477"/><line style="stroke:#181818;stroke-width:0.5;stroke-dasharray:5.0,5.0;" x1="731" x2="731" y1="127.8633" y2="800.8477"/><line style="stroke:#181818;stroke-width:0.5;stroke-dasharray:5.0,5.0;" x1="870" x2="870" y1="127.8633" y2="800.8477"/><line style="stroke:#181818;stroke-width:0.5;stroke-dasharray:5.0,5.0;" x1="1013" x2="1013" y1="127.8633" y2="800.8477"/><line style="stroke:#181818;stroke-width:0.5;stroke-dasharray:5.0,5.0;" x1="1139" x2="1139" y1="127.8633" y2="800.8477"/><rect fill="#E3E3E3" height="51.2422" rx="2.5" ry="2.5" style="stroke:#181818;stroke-width:0.5;" width="130" x="89" y="75.6211"/><text fill="#000000" font-family="sans-serif" font-size="14" font-style="italic" lengthAdjust="spacing" textLength="84" x="112" y="97.7285">&#171;application&#187;</text><text fill="#000000" font-family="sans-serif" font-size="14" lengthAdjust="spacing" textLength="116" x="96" y="116.3496">AddUserController</text><rect fill="#E3E3E3" height="51.2422" rx="2.5" ry="2.5" style="stroke:#181818;stroke-width:0.5;" width="130" x="89" y="799.8477"/><text fill="#000000" font-family="sans-serif" font-size="14" font-style="italic" lengthAdjust="spacing" textLength="84" x="112" y="821.9551">&#171;application&#187;</text><text fill="#000000" font-family="sans-serif" font-size="14" lengthAdjust="spacing" textLength="116" x="96" y="840.5762">AddUserController</text><rect fill="#E3E3E3" height="51.2422" rx="2.5" ry="2.5" style="stroke:#181818;stroke-width:0.5;" width="172" x="324" y="75.6211"/><text fill="#000000" font-family="sans-serif" font-size="14" font-style="italic" lengthAdjust="spacing" textLength="60" x="380" y="97.7285">&#171;service&#187;</text><text fill="#000000" font-family="sans-serif" font-size="14" lengthAdjust="spacing" textLength="158" x="331" y="116.3496">UserManagementService</text><rect fill="#E3E3E3" height="51.2422" rx="2.5" ry="2.5" style="stroke:#181818;stroke-width:0.5;" width="172" x="324" y="799.8477"/><text fill="#000000" font-family="sans-serif" font-size="14" font-style="italic" lengthAdjust="spacing" textLength="60" x="380" y="821.9551">&#171;service&#187;</text><text fill="#000000" font-family="sans-serif" font-size="14" lengthAdjust="spacing" textLength="158" x="331" y="840.5762">UserManagementService</text><rect fill="#E3E3E3" height="51.2422" rx="2.5" ry="2.5" style="stroke:#181818;stroke-width:0.5;" width="133" x="506" y="75.6211"/><text fill="#000000" font-family="sans-serif" font-size="14" font-style="italic" lengthAdjust="spacing" textLength="59" x="543" y="97.7285">&#171;builder&#187;</text><text fill="#000000" font-family="sans-serif" font-size="14" lengthAdjust="spacing" textLength="119" x="513" y="116.3496">SystemUserBuilder</text><rect fill="#E3E3E3" height="51.2422" rx="2.5" ry="2.5" style="stroke:#181818;stroke-width:0.5;" width="133" x="506" y="799.8477"/><text fill="#000000" font-family="sans-serif" font-size="14" font-style="italic" lengthAdjust="spacing" textLength="59" x="543" y="821.9551">&#171;builder&#187;</text><text fill="#000000" font-family="sans-serif" font-size="14" lengthAdjust="spacing" textLength="119" x="513" y="840.5762">SystemUserBuilder</text><rect fill="#E3E3E3" height="51.2422" rx="2.5" ry="2.5" style="stroke:#181818;stroke-width:0.5;" width="121" x="671" y="75.6211"/><text fill="#000000" font-family="sans-serif" font-size="14" font-style="italic" lengthAdjust="spacing" textLength="62" x="700.5" y="97.7285">&#171;domain&#187;</text><text fill="#000000" font-family="sans-serif" font-size="14" lengthAdjust="spacing" textLength="107" x="678" y="116.3496">user:SystemUser</text><rect fill="#E3E3E3" height="51.2422" rx="2.5" ry="2.5" style="stroke:#181818;stroke-width:0.5;" width="121" x="671" y="799.8477"/><text fill="#000000" font-family="sans-serif" font-size="14" font-style="italic" lengthAdjust="spacing" textLength="62" x="700.5" y="821.9551">&#171;domain&#187;</text><text fill="#000000" font-family="sans-serif" font-size="14" lengthAdjust="spacing" textLength="107" x="678" y="840.5762">user:SystemUser</text><rect fill="#E3E3E3" height="51.2422" rx="2.5" ry="2.5" style="stroke:#181818;stroke-width:0.5;" width="136" x="802" y="75.6211"/><text fill="#000000" font-family="sans-serif" font-size="14" font-style="italic" lengthAdjust="spacing" textLength="89" x="825.5" y="97.7285">&#171;persistence&#187;</text><text fill="#000000" font-family="sans-serif" font-size="14" lengthAdjust="spacing" textLength="122" x="809" y="116.3496">PersistenceContext</text><rect fill="#E3E3E3" height="51.2422" rx="2.5" ry="2.5" style="stroke:#181818;stroke-width:0.5;" width="136" x="802" y="799.8477"/><text fill="#000000" font-family="sans-serif" font-size="14" font-style="italic" lengthAdjust="spacing" textLength="89" x="825.5" y="821.9551">&#171;persistence&#187;</text><text fill="#000000" font-family="sans-serif" font-size="14" lengthAdjust="spacing" textLength="122" x="809" y="840.5762">PersistenceContext</text><rect fill="#E3E3E3" height="51.2422" rx="2.5" ry="2.5" style="stroke:#181818;stroke-width:0.5;" width="130" x="948" y="75.6211"/><text fill="#000000" font-family="sans-serif" font-size="14" font-style="italic" lengthAdjust="spacing" textLength="59" x="983.5" y="97.7285">&#171;factory&#187;</text><text fill="#000000" font-family="sans-serif" font-size="14" lengthAdjust="spacing" textLength="116" x="955" y="116.3496">RepositoryFactory</text><rect fill="#E3E3E3" height="51.2422" rx="2.5" ry="2.5" style="stroke:#181818;stroke-width:0.5;" width="130" x="948" y="799.8477"/><text fill="#000000" font-family="sans-serif" font-size="14" font-style="italic" lengthAdjust="spacing" textLength="59" x="983.5" y="821.9551">&#171;factory&#187;</text><text fill="#000000" font-family="sans-serif" font-size="14" lengthAdjust="spacing" textLength="116" x="955" y="840.5762">RepositoryFactory</text><text fill="#000000" font-family="sans-serif" font-size="14" font-style="italic" lengthAdjust="spacing" textLength="79" x="1097" y="105.7285">&#171;repository&#187;</text><text fill="#000000" font-family="sans-serif" font-size="14" lengthAdjust="spacing" textLength="97" x="1088" y="124.3496">UserRepository</text><path d="M1121.5,54.6211 C1121.5,44.6211 1139.5,44.6211 1139.5,44.6211 C1139.5,44.6211 1157.5,44.6211 1157.5,54.6211 L1157.5,80.6211 C1157.5,90.6211 1139.5,90.6211 1139.5,90.6211 C1139.5,90.6211 1121.5,90.6211 1121.5,80.6211 L1121.5,54.6211 " fill="#E3E3E3" style="stroke:#181818;stroke-width:1.5;"/><path d="M1121.5,54.6211 C1121.5,64.6211 1139.5,64.6211 1139.5,64.6211 C1139.5,64.6211 1157.5,64.6211 1157.5,54.6211 " fill="none" style="stroke:#181818;stroke-width:1.5;"/><text fill="#000000" font-family="sans-serif" font-size="14" font-style="italic" lengthAdjust="spacing" textLength="79" x="1097" y="814.9551">&#171;repository&#187;</text><text fill="#000000" font-family="sans-serif" font-size="14" lengthAdjust="spacing" textLength="97" x="1088" y="833.5762">UserRepository</text><path d="M1121.5,847.0898 C1121.5,837.0898 1139.5,837.0898 1139.5,837.0898 C1139.5,837.0898 1157.5,837.0898 1157.5,847.0898 L1157.5,873.0898 C1157.5,883.0898 1139.5,883.0898 1139.5,883.0898 C1139.5,883.0898 1121.5,883.0898 1121.5,873.0898 L1121.5,847.0898 " fill="#E3E3E3" style="stroke:#181818;stroke-width:1.5;"/><path d="M1121.5,847.0898 C1121.5,857.0898 1139.5,857.0898 1139.5,857.0898 C1139.5,857.0898 1157.5,857.0898 1157.5,847.0898 " fill="none" style="stroke:#181818;stroke-width:1.5;"/><rect fill="#FFFFFF" height="569.8203" style="stroke:#181818;stroke-width:1.0;" width="10" x="149" y="213.0273"/><rect fill="#FFFFFF" height="441.3652" style="stroke:#181818;stroke-width:1.0;" width="10" x="405" y="310.1914"/><rect fill="#FFFFFF" height="128.4551" style="stroke:#181818;stroke-width:1.0;" width="10" x="567.5" y="372.7734"/><rect fill="#FFFFFF" height="62.582" style="stroke:#181818;stroke-width:1.0;" width="10" x="865" y="532.5195"/><rect fill="#FFFFFF" height="62.582" style="stroke:#181818;stroke-width:1.0;" width="10" x="1008" y="626.3926"/><ellipse cx="7.5" cy="212.2773" fill="none" rx="4" ry="4" style="stroke:#181818;stroke-width:1.5;"/><polygon fill="#181818" points="137,209.0273,147,213.0273,137,217.0273,141,213.0273" style="stroke:#181818;stroke-width:1.0;"/><line style="stroke:#181818;stroke-width:1.0;" x1="12" x2="143" y1="213.0273" y2="213.0273"/><text fill="#000000" font-family="sans-serif" font-size="13" lengthAdjust="spacing" textLength="113" x="15" y="155.8916">addUser(username,</text><text fill="#000000" font-family="sans-serif" font-size="13" lengthAdjust="spacing" textLength="122" x="15" y="173.1826">password, firstName,</text><text fill="#000000" font-family="sans-serif" font-size="13" lengthAdjust="spacing" textLength="98" x="15" y="190.4736">lastName, email,</text><text fill="#000000" font-family="sans-serif" font-size="13" lengthAdjust="spacing" textLength="32" x="15" y="207.7646">roles)</text><polygon fill="#181818" points="398,240.3184,408,244.3184,398,248.3184,402,244.3184" style="stroke:#181818;stroke-width:1.0;"/><line style="stroke:#181818;stroke-width:1.0;" x1="159" x2="404" y1="244.3184" y2="244.3184"/><text fill="#000000" font-family="sans-serif" font-size="13" lengthAdjust="spacing" textLength="36" x="166" y="239.0557">create</text><polygon fill="#181818" points="393,306.1914,403,310.1914,393,314.1914,397,310.1914" style="stroke:#181818;stroke-width:1.0;"/><line style="stroke:#181818;stroke-width:1.0;" x1="159" x2="399" y1="310.1914" y2="310.1914"/><text fill="#000000" font-family="sans-serif" font-size="13" lengthAdjust="spacing" textLength="223" x="166" y="270.3467">registerNewUser(username, password,</text><text fill="#000000" font-family="sans-serif" font-size="13" lengthAdjust="spacing" textLength="161" x="166" y="287.6377">firstName, lastName, email,</text><text fill="#000000" font-family="sans-serif" font-size="13" lengthAdjust="spacing" textLength="100" x="166" y="304.9287">roles, createdOn)</text><polygon fill="#181818" points="560.5,337.4824,570.5,341.4824,560.5,345.4824,564.5,341.4824" style="stroke:#181818;stroke-width:1.0;"/><line style="stroke:#181818;stroke-width:1.0;" x1="415" x2="566.5" y1="341.4824" y2="341.4824"/><text fill="#000000" font-family="sans-serif" font-size="13" lengthAdjust="spacing" textLength="36" x="422" y="336.2197">create</text><polygon fill="#181818" points="555.5,368.7734,565.5,372.7734,555.5,376.7734,559.5,372.7734" style="stroke:#181818;stroke-width:1.0;"/><line style="stroke:#181818;stroke-width:1.0;" x1="415" x2="561.5" y1="372.7734" y2="372.7734"/><text fill="#000000" font-family="sans-serif" font-size="13" lengthAdjust="spacing" textLength="71" x="422" y="367.5107">createUser()</text><polygon fill="#181818" points="719.5,434.6465,729.5,438.6465,719.5,442.6465,723.5,438.6465" style="stroke:#181818;stroke-width:1.0;"/><line style="stroke:#181818;stroke-width:1.0;" x1="577.5" x2="725.5" y1="438.6465" y2="438.6465"/><text fill="#000000" font-family="sans-serif" font-size="13" lengthAdjust="spacing" textLength="105" x="584.5" y="398.8018">create (username,</text><text fill="#000000" font-family="sans-serif" font-size="13" lengthAdjust="spacing" textLength="122" x="584.5" y="416.0928">password, firstName,</text><text fill="#000000" font-family="sans-serif" font-size="13" lengthAdjust="spacing" textLength="130" x="584.5" y="433.3838">lastName,email, roles)</text><polygon fill="#181818" points="588.5,465.9375,578.5,469.9375,588.5,473.9375,584.5,469.9375" style="stroke:#181818;stroke-width:1.0;"/><line style="stroke:#181818;stroke-width:1.0;" x1="582.5" x2="730.5" y1="469.9375" y2="469.9375"/><text fill="#000000" font-family="sans-serif" font-size="13" lengthAdjust="spacing" textLength="25" x="594.5" y="464.6748">user</text><polygon fill="#181818" points="426,497.2285,416,501.2285,426,505.2285,422,501.2285" style="stroke:#181818;stroke-width:1.0;"/><line style="stroke:#181818;stroke-width:1.0;" x1="420" x2="571.5" y1="501.2285" y2="501.2285"/><text fill="#000000" font-family="sans-serif" font-size="13" lengthAdjust="spacing" textLength="25" x="432" y="495.9658">user</text><polygon fill="#181818" points="853,528.5195,863,532.5195,853,536.5195,857,532.5195" style="stroke:#181818;stroke-width:1.0;"/><line style="stroke:#181818;stroke-width:1.0;" x1="415" x2="859" y1="532.5195" y2="532.5195"/><text fill="#000000" font-family="sans-serif" font-size="13" lengthAdjust="spacing" textLength="75" x="422" y="527.2568">repositories()</text><polygon fill="#181818" points="1001,559.8105,1011,563.8105,1001,567.8105,1005,563.8105" style="stroke:#181818;stroke-width:1.0;"/><line style="stroke:#181818;stroke-width:1.0;" x1="875" x2="1007" y1="563.8105" y2="563.8105"/><text fill="#000000" font-family="sans-serif" font-size="13" lengthAdjust="spacing" textLength="36" x="882" y="558.5479">create</text><polygon fill="#181818" points="426,591.1016,416,595.1016,426,599.1016,422,595.1016" style="stroke:#181818;stroke-width:1.0;"/><line style="stroke:#181818;stroke-width:1.0;" x1="420" x2="869" y1="595.1016" y2="595.1016"/><text fill="#000000" font-family="sans-serif" font-size="13" lengthAdjust="spacing" textLength="39" x="432" y="589.8389">factory</text><polygon fill="#181818" points="996,622.3926,1006,626.3926,996,630.3926,1000,626.3926" style="stroke:#181818;stroke-width:1.0;"/><line style="stroke:#181818;stroke-width:1.0;" x1="415" x2="1002" y1="626.3926" y2="626.3926"/><text fill="#000000" font-family="sans-serif" font-size="13" lengthAdjust="spacing" textLength="40" x="422" y="621.1299">users()</text><polygon fill="#181818" points="1127.5,653.6836,1137.5,657.6836,1127.5,661.6836,1131.5,657.6836" style="stroke:#181818;stroke-width:1.0;"/><line style="stroke:#181818;stroke-width:1.0;" x1="1018" x2="1133.5" y1="657.6836" y2="657.6836"/><text fill="#000000" font-family="sans-serif" font-size="13" lengthAdjust="spacing" textLength="36" x="1025" y="652.4209">create</text><polygon fill="#181818" points="426,684.9746,416,688.9746,426,692.9746,422,688.9746" style="stroke:#181818;stroke-width:1.0;"/><line style="stroke:#181818;stroke-width:1.0;" x1="420" x2="1012" y1="688.9746" y2="688.9746"/><text fill="#000000" font-family="sans-serif" font-size="13" lengthAdjust="spacing" textLength="87" x="432" y="683.7119">userRepository</text><polygon fill="#181818" points="1127.5,716.2656,1137.5,720.2656,1127.5,724.2656,1131.5,720.2656" style="stroke:#181818;stroke-width:1.0;"/><line style="stroke:#181818;stroke-width:1.0;" x1="415" x2="1133.5" y1="720.2656" y2="720.2656"/><text fill="#000000" font-family="sans-serif" font-size="13" lengthAdjust="spacing" textLength="59" x="422" y="715.0029">save(user)</text><polygon fill="#181818" points="170,747.5566,160,751.5566,170,755.5566,166,751.5566" style="stroke:#181818;stroke-width:1.0;"/><line style="stroke:#181818;stroke-width:1.0;" x1="164" x2="409" y1="751.5566" y2="751.5566"/><text fill="#000000" font-family="sans-serif" font-size="13" lengthAdjust="spacing" textLength="25" x="176" y="746.2939">user</text><polygon fill="#181818" points="11,778.8477,1,782.8477,11,786.8477,7,782.8477" style="stroke:#181818;stroke-width:1.0;"/><line style="stroke:#181818;stroke-width:1.0;stroke-dasharray:2.0,2.0;" x1="5" x2="153" y1="782.8477" y2="782.8477"/><text fill="#000000" font-family="sans-serif" font-size="13" lengthAdjust="spacing" textLength="25" x="17" y="777.585">user</text><!--SRC=[XLDDRzim3BtxLmWzDK3y1mB1mBQYjtL3WvqQe61j9XLgIuQa9Ck_7sbBjgoadI-cgFV8nm-v3wLxiD29pcXJlrlJeV3sY8MRRdgeF-20MtzfKLYiFUX3cmBSEpJchFH1xA5rM1HUUO9k7rw_DSth7uUsA0ZfLQrwq5wGbvq_ZFRMj2rQ0Kua9ocXxrjLWrT6LzM2oyIVe4bFXzflqPvKZSoFffHkj3BYzk8yTap_VbHjCoQDffHlevMHxew4typKEoQnyM0wK9fupM1ajDzedIAEhf7Bmh-UUOcNYFryojZFs1kdlB6NHwZvn-HeIhaVBI8ruE4D70wAPXR3avEKTZeGgNWnPPLsUoC4Z0EvvserTBWMEngjSsTZcxNOA-ly4xjtkeLW2gIwMmPI67IhWbIf4tXCGXU2lYGJvGrJseZQ8e6_GbWyS7_i4vupSREqdPx5YS-qhKEovfTU3GadgI5NCNZZ0f66i1OBbPzV3-goo04oEEEI4NDUdKWMSrt_xNaeApISGy_nocfInG7pnB6hqrs3LrhpCfDzvMc47LBeyc8Ju731Nxhi52kixwAZDs3JyCEIvrBJJBdSAGNNUANnCGd8NtnFH9pVofMy13L9EouUMwumvadLbLMImi49XvclyW8MR_BMeEAwilj5bkKDHe9Etk4_]--></g></svg>