<?xml version="1.0" encoding="us-ascii" standalone="no"?><svg xmlns="http://www.w3.org/2000/svg" xmlns:xlink="http://www.w3.org/1999/xlink" contentStyleType="text/css" height="373.2px" preserveAspectRatio="none" style="width:330px;height:373px;background:#FFFFFF;" version="1.1" viewBox="0 0 330 373" width="330px" zoomAndPan="magnify"><defs/><g><text fill="#000000" font-family="sans-serif" font-size="8.4" font-weight="bold" lengthAdjust="spacing" textLength="187.2" x="72" y="18.0645">System Sequence Diagram (SSD) - US 1001_1</text><rect fill="#FFFFFF" height="232.8738" style="stroke:#181818;stroke-width:0.6;" width="6" x="26.4" y="79.9453"/><rect fill="#FFFFFF" height="18.7746" style="stroke:#181818;stroke-width:0.6;" width="6" x="296.4" y="93.9199"/><rect fill="#FFFFFF" height="34.5492" style="stroke:#181818;stroke-width:0.6;" width="6" x="296.4" y="131.4691"/><rect fill="#FFFFFF" height="128.0262" style="stroke:#181818;stroke-width:0.6;" width="6" x="296.4" y="184.793"/><rect fill="none" height="49.1238" style="stroke:#000000;stroke-width:0.8999999999999999;" width="319.8" x="6" y="140.4691"/><rect fill="none" height="96.6516" style="stroke:#000000;stroke-width:0.8999999999999999;" width="319.8" x="6" y="197.993"/><line style="stroke:#181818;stroke-width:0.3;stroke-dasharray:5.0,5.0;" x1="29.4" x2="29.4" y1="73.9453" y2="323.6191"/><line style="stroke:#181818;stroke-width:0.3;stroke-dasharray:5.0,5.0;" x1="299.4" x2="299.4" y1="73.9453" y2="323.6191"/><text fill="#000000" font-family="sans-serif" font-size="8.4" lengthAdjust="spacing" textLength="31.2" x="12" y="71.8371">Gerente</text><ellipse cx="29.4" cy="31.8727" fill="#E3E3E3" rx="4.8" ry="4.8" style="stroke:#181818;stroke-width:0.3;"/><path d="M29.4,36.6727 L29.4,52.8727 M21.6,41.4727 L37.2,41.4727 M29.4,52.8727 L21.6,61.8727 M29.4,52.8727 L37.2,61.8727 " fill="none" style="stroke:#181818;stroke-width:0.3;"/><text fill="#000000" font-family="sans-serif" font-size="8.4" lengthAdjust="spacing" textLength="31.2" x="12" y="332.0836">Gerente</text><ellipse cx="29.4" cy="339.2918" fill="#E3E3E3" rx="4.8" ry="4.8" style="stroke:#181818;stroke-width:0.3;"/><path d="M29.4,344.0918 L29.4,360.2918 M21.6,348.8918 L37.2,348.8918 M29.4,360.2918 L21.6,369.2918 M29.4,360.2918 L37.2,369.2918 " fill="none" style="stroke:#181818;stroke-width:0.3;"/><rect fill="#E3E3E3" height="19.5727" rx="1.5" ry="1.5" style="stroke:#181818;stroke-width:0.3;" width="40.8" x="279" y="53.7727"/><text fill="#000000" font-family="sans-serif" font-size="8.4" lengthAdjust="spacing" textLength="32.4" x="283.2" y="67.0371">:Sistema</text><rect fill="#E3E3E3" height="19.5727" rx="1.5" ry="1.5" style="stroke:#181818;stroke-width:0.3;" width="40.8" x="279" y="323.0191"/><text fill="#000000" font-family="sans-serif" font-size="8.4" lengthAdjust="spacing" textLength="32.4" x="283.2" y="336.2836">:Sistema</text><rect fill="#FFFFFF" height="232.8738" style="stroke:#181818;stroke-width:0.6;" width="6" x="26.4" y="79.9453"/><rect fill="#FFFFFF" height="18.7746" style="stroke:#181818;stroke-width:0.6;" width="6" x="296.4" y="93.9199"/><rect fill="#FFFFFF" height="34.5492" style="stroke:#181818;stroke-width:0.6;" width="6" x="296.4" y="131.4691"/><rect fill="#FFFFFF" height="128.0262" style="stroke:#181818;stroke-width:0.6;" width="6" x="296.4" y="184.793"/><polygon fill="#181818" points="289.2,91.5199,295.2,93.9199,289.2,96.3199,291.6,93.9199" style="stroke:#181818;stroke-width:0.6;"/><line style="stroke:#181818;stroke-width:0.6;" x1="32.4" x2="292.8" y1="93.9199" y2="93.9199"/><text fill="#000000" font-family="sans-serif" font-size="7.8" font-weight="bold" lengthAdjust="spacing" textLength="4.2" x="36.6" y="90.7623">1</text><text fill="#000000" font-family="sans-serif" font-size="7.8" lengthAdjust="spacing" textLength="115.8" x="43.2" y="90.7623">Pede para adicionar um utilizador</text><polygon fill="#181818" points="39,110.2945,33,112.6945,39,115.0945,36.6,112.6945" style="stroke:#181818;stroke-width:0.6;"/><line style="stroke:#181818;stroke-width:0.6;stroke-dasharray:2.0,2.0;" x1="35.4" x2="298.8" y1="112.6945" y2="112.6945"/><text fill="#000000" font-family="sans-serif" font-size="7.8" font-weight="bold" lengthAdjust="spacing" textLength="4.2" x="42.6" y="109.5369">2</text><text fill="#000000" font-family="sans-serif" font-size="7.8" lengthAdjust="spacing" textLength="102.6" x="49.2" y="109.5369">Pede informa&#231;&#227;o do utilizador</text><polygon fill="#181818" points="289.2,129.0691,295.2,131.4691,289.2,133.8691,291.6,131.4691" style="stroke:#181818;stroke-width:0.6;"/><line style="stroke:#181818;stroke-width:0.6;" x1="32.4" x2="292.8" y1="131.4691" y2="131.4691"/><text fill="#000000" font-family="sans-serif" font-size="7.8" font-weight="bold" lengthAdjust="spacing" textLength="4.2" x="36.6" y="128.3115">3</text><text fill="#000000" font-family="sans-serif" font-size="7.8" lengthAdjust="spacing" textLength="246" x="43.2" y="128.3115">Nome do utilizador, palavra-passe, primeiro nome, &#250;ltimo nome e email</text><path d="M6,140.4691 L49.8,140.4691 L49.8,146.0438 L43.8,152.0438 L6,152.0438 L6,140.4691 " fill="#EEEEEE" style="stroke:#000000;stroke-width:0.8999999999999999;"/><rect fill="none" height="49.1238" style="stroke:#000000;stroke-width:0.8999999999999999;" width="319.8" x="6" y="140.4691"/><text fill="#000000" font-family="sans-serif" font-size="7.8" font-weight="bold" lengthAdjust="spacing" textLength="16.8" x="15" y="149.4861">loop</text><text fill="#000000" font-family="sans-serif" font-size="6.6" font-weight="bold" lengthAdjust="spacing" textLength="37.2" x="58.8" y="148.7912">[op&#231;&#227;o != 0]</text><polygon fill="#181818" points="39,163.6184,33,166.0184,39,168.4184,36.6,166.0184" style="stroke:#181818;stroke-width:0.6;"/><line style="stroke:#181818;stroke-width:0.6;stroke-dasharray:2.0,2.0;" x1="35.4" x2="298.8" y1="166.0184" y2="166.0184"/><text fill="#000000" font-family="sans-serif" font-size="7.8" font-weight="bold" lengthAdjust="spacing" textLength="4.2" x="42.6" y="162.8607">4</text><text fill="#000000" font-family="sans-serif" font-size="7.8" lengthAdjust="spacing" textLength="103.2" x="49.2" y="162.8607">Mostra a lista do tipo de roles</text><polygon fill="#181818" points="289.2,182.393,295.2,184.793,289.2,187.193,291.6,184.793" style="stroke:#181818;stroke-width:0.6;"/><line style="stroke:#181818;stroke-width:0.6;" x1="32.4" x2="292.8" y1="184.793" y2="184.793"/><text fill="#000000" font-family="sans-serif" font-size="7.8" font-weight="bold" lengthAdjust="spacing" textLength="4.2" x="36.6" y="181.6354">5</text><text fill="#000000" font-family="sans-serif" font-size="7.8" lengthAdjust="spacing" textLength="40.2" x="43.2" y="181.6354">Tipo de role</text><path d="M6,197.993 L42.6,197.993 L42.6,203.5676 L36.6,209.5676 L6,209.5676 L6,197.993 " fill="#EEEEEE" style="stroke:#000000;stroke-width:0.8999999999999999;"/><rect fill="none" height="96.6516" style="stroke:#000000;stroke-width:0.8999999999999999;" width="319.8" x="6" y="197.993"/><text fill="#000000" font-family="sans-serif" font-size="7.8" font-weight="bold" lengthAdjust="spacing" textLength="9.6" x="15" y="207.01">alt</text><text fill="#000000" font-family="sans-serif" font-size="6.6" font-weight="bold" lengthAdjust="spacing" textLength="58.8" x="51.6" y="206.315">[role = Professor]</text><polygon fill="#181818" points="39,221.1422,33,223.5422,39,225.9422,36.6,223.5422" style="stroke:#181818;stroke-width:0.6;"/><line style="stroke:#181818;stroke-width:0.6;stroke-dasharray:2.0,2.0;" x1="35.4" x2="295.8" y1="223.5422" y2="223.5422"/><text fill="#000000" font-family="sans-serif" font-size="7.8" font-weight="bold" lengthAdjust="spacing" textLength="4.2" x="42.6" y="220.3846">6</text><text fill="#000000" font-family="sans-serif" font-size="7.8" lengthAdjust="spacing" textLength="103.2" x="49.2" y="220.3846">Pede informa&#231;&#227;o do professor</text><polygon fill="#181818" points="289.2,239.9168,295.2,242.3168,289.2,244.7168,291.6,242.3168" style="stroke:#181818;stroke-width:0.6;"/><line style="stroke:#181818;stroke-width:0.6;" x1="32.4" x2="292.8" y1="242.3168" y2="242.3168"/><text fill="#000000" font-family="sans-serif" font-size="7.8" font-weight="bold" lengthAdjust="spacing" textLength="4.2" x="36.6" y="239.1592">7</text><text fill="#000000" font-family="sans-serif" font-size="7.8" lengthAdjust="spacing" textLength="194.4" x="43.2" y="239.1592">N&#250;mero de contribuinte, data de nascimento e acr&#243;nimo</text><line style="stroke:#000000;stroke-width:0.6;stroke-dasharray:2.0,2.0;" x1="6" x2="325.8" y1="247.7168" y2="247.7168"/><text fill="#000000" font-family="sans-serif" font-size="6.6" font-weight="bold" lengthAdjust="spacing" textLength="58.2" x="9" y="254.8389">[role = Estudante]</text><polygon fill="#181818" points="39,268.6699,33,271.0699,39,273.4699,36.6,271.0699" style="stroke:#181818;stroke-width:0.6;"/><line style="stroke:#181818;stroke-width:0.6;stroke-dasharray:2.0,2.0;" x1="35.4" x2="295.8" y1="271.0699" y2="271.0699"/><text fill="#000000" font-family="sans-serif" font-size="7.8" font-weight="bold" lengthAdjust="spacing" textLength="4.2" x="42.6" y="267.9123">8</text><text fill="#000000" font-family="sans-serif" font-size="7.8" lengthAdjust="spacing" textLength="105.6" x="49.2" y="267.9123">Pede informa&#231;&#227;o do estudante</text><polygon fill="#181818" points="289.2,287.4445,295.2,289.8445,289.2,292.2445,291.6,289.8445" style="stroke:#181818;stroke-width:0.6;"/><line style="stroke:#181818;stroke-width:0.6;" x1="32.4" x2="292.8" y1="289.8445" y2="289.8445"/><text fill="#000000" font-family="sans-serif" font-size="7.8" font-weight="bold" lengthAdjust="spacing" textLength="4.2" x="36.6" y="286.6869">9</text><text fill="#000000" font-family="sans-serif" font-size="7.8" lengthAdjust="spacing" textLength="241.2" x="43.2" y="286.6869">N&#250;mero de contribuinte, data de nascimento e n&#250;mero mecanogr&#225;fico</text><polygon fill="#181818" points="36,310.4191,30,312.8191,36,315.2191,33.6,312.8191" style="stroke:#181818;stroke-width:0.6;"/><line style="stroke:#181818;stroke-width:0.6;stroke-dasharray:2.0,2.0;" x1="32.4" x2="298.8" y1="312.8191" y2="312.8191"/><text fill="#000000" font-family="sans-serif" font-size="7.8" font-weight="bold" lengthAdjust="spacing" textLength="8.4" x="39.6" y="309.6615">10</text><text fill="#000000" font-family="sans-serif" font-size="7.8" lengthAdjust="spacing" textLength="108.6" x="50.4" y="309.6615">Informa o sucesso da opera&#231;&#227;o</text><!--SRC=[fPF1RjH038RlUGgp9v1sfTrhfI8X5LKSG9K2P-HElEceC-FWSOhAso0EF02tNlDYU98KThlXW9f8aMRY_v_FVvnywrE7WX4Y9tOtmf50fQSg_tdJeRl5bcgz3mH2JZ6ruR0Wts33NtrgOOyXKrMfLokjxxDIX9g-z9GSmON7jfI_hEkBLx21JpNijjlTvrs5lNBgupL9LQ5J5bXTab1IMW5cU5EsAZjBlVCT9eNLMUsBEOxlfuD6gRz3fLamFc7p-X7a3Awe8IZCW8rPSKA1FaAlFlXlreFyjPWzP-d6N2QxsSIdFKl4uUVmWw7XGuk6dfgSWdmeCH_9riOLy4vmqs7EP4lnaRmm9AjTm_0GrCTf1NP7zE64DZ1tmDr4zU8SjXNOjT33UyvQKe1WCM8XKTzP8_PzEL0UPQTzbDtJNZuUACUIfp9A3HIo2eEELN0ELy9xojdYMYByHyZTaMWXrU4XaemmZfEAl-wzpT0Q6YnD4YJCpb9DoXOXEXb-9SjqT2CRt4UujrdxniQC_WUEZaJFXKjpTII7YLiPlk-zunBbqaY-crY08VUk96IcDWSa4zx2I1vkJN_BRm00]--></g></svg>