<?xml version="1.0" encoding="us-ascii" standalone="no"?><svg xmlns="http://www.w3.org/2000/svg" xmlns:xlink="http://www.w3.org/1999/xlink" contentStyleType="text/css" height="622px" preserveAspectRatio="none" style="width:1139px;height:622px;background:#FFFFFF;" version="1.1" viewBox="0 0 1139 622" width="1139px" zoomAndPan="magnify"><defs/><g><text fill="#000000" font-family="sans-serif" font-size="14" font-weight="bold" lengthAdjust="spacing" textLength="237" x="444" y="22.9951">Class Diagram (CD) - US 3009</text><!--class ViewBoardUpdatesHistoryUI--><g id="elem_ViewBoardUpdatesHistoryUI"><rect codeLine="4" fill="#F1F1F1" height="72.5625" id="ViewBoardUpdatesHistoryUI" rx="2.5" ry="2.5" style="stroke:#181818;stroke-width:0.5;" width="231" x="510" y="44.2969"/><ellipse cx="525" cy="64.4297" fill="#ADD1B2" rx="11" ry="11" style="stroke:#181818;stroke-width:1.0;"/><path d="M527.3438,60.1016 C526.4063,59.6641 525.8125,59.5234 524.9375,59.5234 C522.3125,59.5234 520.3125,61.6016 520.3125,64.3203 L520.3125,65.4453 C520.3125,68.0234 522.4219,69.9141 525.3125,69.9141 C526.5313,69.9141 527.6875,69.6172 528.4375,69.0703 C529.0156,68.6641 529.3438,68.2109 529.3438,67.8203 C529.3438,67.3672 528.9531,66.9766 528.4844,66.9766 C528.2656,66.9766 528.0625,67.0547 527.875,67.2422 C527.4219,67.7266 527.4219,67.7266 527.2344,67.8203 C526.8125,68.0859 526.125,68.2109 525.3594,68.2109 C523.3125,68.2109 522.0156,67.1172 522.0156,65.4141 L522.0156,64.3203 C522.0156,62.5391 523.2656,61.2266 525,61.2266 C525.5781,61.2266 526.1875,61.3828 526.6563,61.6328 C527.1406,61.9141 527.3125,62.1328 527.4063,62.5391 C527.4688,62.9453 527.5,63.0703 527.6406,63.1953 C527.7813,63.3359 528.0156,63.4453 528.2344,63.4453 C528.5,63.4453 528.7656,63.3047 528.9375,63.0859 C529.0469,62.9297 529.0781,62.7422 529.0781,62.3203 L529.0781,60.8984 C529.0781,60.4609 529.0625,60.3359 528.9688,60.1797 C528.8125,59.9141 528.5313,59.7734 528.2344,59.7734 C527.9375,59.7734 527.7344,59.8672 527.5156,60.1797 L527.3438,60.1016 Z " fill="#000000"/><text fill="#000000" font-family="sans-serif" font-size="12" font-style="italic" lengthAdjust="spacing" textLength="90" x="593.5" y="60.4355">&#171;presentation&#187;</text><text fill="#000000" font-family="sans-serif" font-size="14" lengthAdjust="spacing" textLength="199" x="539" y="76.2607">ViewBoardUpdatesHistoryUI</text><line style="stroke:#181818;stroke-width:0.5;" x1="511" x2="740" y1="84.5625" y2="84.5625"/><line style="stroke:#181818;stroke-width:0.5;" x1="511" x2="740" y1="92.5625" y2="92.5625"/><text fill="#000000" font-family="sans-serif" font-size="14" lengthAdjust="spacing" textLength="66" x="516" y="109.5576">doShow()</text></g><!--class JpaBoardRepository--><g id="elem_JpaBoardRepository"><rect codeLine="8" fill="#F1F1F1" height="56.2656" id="JpaBoardRepository" rx="2.5" ry="2.5" style="stroke:#181818;stroke-width:0.5;" width="175" x="7" y="542.7969"/><ellipse cx="22" cy="562.9297" fill="#ADD1B2" rx="11" ry="11" style="stroke:#181818;stroke-width:1.0;"/><path d="M24.3438,558.6016 C23.4063,558.1641 22.8125,558.0234 21.9375,558.0234 C19.3125,558.0234 17.3125,560.1016 17.3125,562.8203 L17.3125,563.9453 C17.3125,566.5234 19.4219,568.4141 22.3125,568.4141 C23.5313,568.4141 24.6875,568.1172 25.4375,567.5703 C26.0156,567.1641 26.3438,566.7109 26.3438,566.3203 C26.3438,565.8672 25.9531,565.4766 25.4844,565.4766 C25.2656,565.4766 25.0625,565.5547 24.875,565.7422 C24.4219,566.2266 24.4219,566.2266 24.2344,566.3203 C23.8125,566.5859 23.125,566.7109 22.3594,566.7109 C20.3125,566.7109 19.0156,565.6172 19.0156,563.9141 L19.0156,562.8203 C19.0156,561.0391 20.2656,559.7266 22,559.7266 C22.5781,559.7266 23.1875,559.8828 23.6563,560.1328 C24.1406,560.4141 24.3125,560.6328 24.4063,561.0391 C24.4688,561.4453 24.5,561.5703 24.6406,561.6953 C24.7813,561.8359 25.0156,561.9453 25.2344,561.9453 C25.5,561.9453 25.7656,561.8047 25.9375,561.5859 C26.0469,561.4297 26.0781,561.2422 26.0781,560.8203 L26.0781,559.3984 C26.0781,558.9609 26.0625,558.8359 25.9688,558.6797 C25.8125,558.4141 25.5313,558.2734 25.2344,558.2734 C24.9375,558.2734 24.7344,558.3672 24.5156,558.6797 L24.3438,558.6016 Z " fill="#000000"/><text fill="#000000" font-family="sans-serif" font-size="12" font-style="italic" lengthAdjust="spacing" textLength="83" x="66" y="558.9355">&#171;persistence&#187;</text><text fill="#000000" font-family="sans-serif" font-size="14" lengthAdjust="spacing" textLength="143" x="36" y="574.7607">JpaBoardRepository</text><line style="stroke:#181818;stroke-width:0.5;" x1="8" x2="181" y1="583.0625" y2="583.0625"/><line style="stroke:#181818;stroke-width:0.5;" x1="8" x2="181" y1="591.0625" y2="591.0625"/></g><!--class InMemoryBoardRepository--><g id="elem_InMemoryBoardRepository"><rect codeLine="9" fill="#F1F1F1" height="56.2656" id="InMemoryBoardRepository" rx="2.5" ry="2.5" style="stroke:#181818;stroke-width:0.5;" width="224" x="757.5" y="542.7969"/><ellipse cx="772.5" cy="562.9297" fill="#ADD1B2" rx="11" ry="11" style="stroke:#181818;stroke-width:1.0;"/><path d="M774.8438,558.6016 C773.9063,558.1641 773.3125,558.0234 772.4375,558.0234 C769.8125,558.0234 767.8125,560.1016 767.8125,562.8203 L767.8125,563.9453 C767.8125,566.5234 769.9219,568.4141 772.8125,568.4141 C774.0313,568.4141 775.1875,568.1172 775.9375,567.5703 C776.5156,567.1641 776.8438,566.7109 776.8438,566.3203 C776.8438,565.8672 776.4531,565.4766 775.9844,565.4766 C775.7656,565.4766 775.5625,565.5547 775.375,565.7422 C774.9219,566.2266 774.9219,566.2266 774.7344,566.3203 C774.3125,566.5859 773.625,566.7109 772.8594,566.7109 C770.8125,566.7109 769.5156,565.6172 769.5156,563.9141 L769.5156,562.8203 C769.5156,561.0391 770.7656,559.7266 772.5,559.7266 C773.0781,559.7266 773.6875,559.8828 774.1563,560.1328 C774.6406,560.4141 774.8125,560.6328 774.9063,561.0391 C774.9688,561.4453 775,561.5703 775.1406,561.6953 C775.2813,561.8359 775.5156,561.9453 775.7344,561.9453 C776,561.9453 776.2656,561.8047 776.4375,561.5859 C776.5469,561.4297 776.5781,561.2422 776.5781,560.8203 L776.5781,559.3984 C776.5781,558.9609 776.5625,558.8359 776.4688,558.6797 C776.3125,558.4141 776.0313,558.2734 775.7344,558.2734 C775.4375,558.2734 775.2344,558.3672 775.0156,558.6797 L774.8438,558.6016 Z " fill="#000000"/><text fill="#000000" font-family="sans-serif" font-size="12" font-style="italic" lengthAdjust="spacing" textLength="83" x="841" y="558.9355">&#171;persistence&#187;</text><text fill="#000000" font-family="sans-serif" font-size="14" lengthAdjust="spacing" textLength="192" x="786.5" y="574.7607">InMemoryBoardRepository</text><line style="stroke:#181818;stroke-width:0.5;" x1="758.5" x2="980.5" y1="583.0625" y2="583.0625"/><line style="stroke:#181818;stroke-width:0.5;" x1="758.5" x2="980.5" y1="591.0625" y2="591.0625"/></g><!--class Board--><g id="elem_Board"><rect codeLine="11" fill="#F1F1F1" height="56.2656" id="Board" rx="2.5" ry="2.5" style="stroke:#181818;stroke-width:0.5;" width="87" x="303" y="376.7969"/><ellipse cx="318" cy="396.9297" fill="#ADD1B2" rx="11" ry="11" style="stroke:#181818;stroke-width:1.0;"/><path d="M320.3438,392.6016 C319.4063,392.1641 318.8125,392.0234 317.9375,392.0234 C315.3125,392.0234 313.3125,394.1016 313.3125,396.8203 L313.3125,397.9453 C313.3125,400.5234 315.4219,402.4141 318.3125,402.4141 C319.5313,402.4141 320.6875,402.1172 321.4375,401.5703 C322.0156,401.1641 322.3438,400.7109 322.3438,400.3203 C322.3438,399.8672 321.9531,399.4766 321.4844,399.4766 C321.2656,399.4766 321.0625,399.5547 320.875,399.7422 C320.4219,400.2266 320.4219,400.2266 320.2344,400.3203 C319.8125,400.5859 319.125,400.7109 318.3594,400.7109 C316.3125,400.7109 315.0156,399.6172 315.0156,397.9141 L315.0156,396.8203 C315.0156,395.0391 316.2656,393.7266 318,393.7266 C318.5781,393.7266 319.1875,393.8828 319.6563,394.1328 C320.1406,394.4141 320.3125,394.6328 320.4063,395.0391 C320.4688,395.4453 320.5,395.5703 320.6406,395.6953 C320.7813,395.8359 321.0156,395.9453 321.2344,395.9453 C321.5,395.9453 321.7656,395.8047 321.9375,395.5859 C322.0469,395.4297 322.0781,395.2422 322.0781,394.8203 L322.0781,393.3984 C322.0781,392.9609 322.0625,392.8359 321.9688,392.6797 C321.8125,392.4141 321.5313,392.2734 321.2344,392.2734 C320.9375,392.2734 320.7344,392.3672 320.5156,392.6797 L320.3438,392.6016 Z " fill="#000000"/><text fill="#000000" font-family="sans-serif" font-size="12" font-style="italic" lengthAdjust="spacing" textLength="59" x="330" y="392.9355">&#171;domain&#187;</text><text fill="#000000" font-family="sans-serif" font-size="14" lengthAdjust="spacing" textLength="42" x="338.5" y="408.7607">Board</text><line style="stroke:#181818;stroke-width:0.5;" x1="304" x2="389" y1="417.0625" y2="417.0625"/><line style="stroke:#181818;stroke-width:0.5;" x1="304" x2="389" y1="425.0625" y2="425.0625"/></g><!--class SystemUser--><g id="elem_SystemUser"><rect codeLine="14" fill="#F1F1F1" height="56.2656" id="SystemUser" rx="2.5" ry="2.5" style="stroke:#181818;stroke-width:0.5;" width="117" x="861" y="376.7969"/><ellipse cx="876" cy="396.9297" fill="#ADD1B2" rx="11" ry="11" style="stroke:#181818;stroke-width:1.0;"/><path d="M878.3438,392.6016 C877.4063,392.1641 876.8125,392.0234 875.9375,392.0234 C873.3125,392.0234 871.3125,394.1016 871.3125,396.8203 L871.3125,397.9453 C871.3125,400.5234 873.4219,402.4141 876.3125,402.4141 C877.5313,402.4141 878.6875,402.1172 879.4375,401.5703 C880.0156,401.1641 880.3438,400.7109 880.3438,400.3203 C880.3438,399.8672 879.9531,399.4766 879.4844,399.4766 C879.2656,399.4766 879.0625,399.5547 878.875,399.7422 C878.4219,400.2266 878.4219,400.2266 878.2344,400.3203 C877.8125,400.5859 877.125,400.7109 876.3594,400.7109 C874.3125,400.7109 873.0156,399.6172 873.0156,397.9141 L873.0156,396.8203 C873.0156,395.0391 874.2656,393.7266 876,393.7266 C876.5781,393.7266 877.1875,393.8828 877.6563,394.1328 C878.1406,394.4141 878.3125,394.6328 878.4063,395.0391 C878.4688,395.4453 878.5,395.5703 878.6406,395.6953 C878.7813,395.8359 879.0156,395.9453 879.2344,395.9453 C879.5,395.9453 879.7656,395.8047 879.9375,395.5859 C880.0469,395.4297 880.0781,395.2422 880.0781,394.8203 L880.0781,393.3984 C880.0781,392.9609 880.0625,392.8359 879.9688,392.6797 C879.8125,392.4141 879.5313,392.2734 879.2344,392.2734 C878.9375,392.2734 878.7344,392.3672 878.5156,392.6797 L878.3438,392.6016 Z " fill="#000000"/><text fill="#000000" font-family="sans-serif" font-size="12" font-style="italic" lengthAdjust="spacing" textLength="59" x="903" y="392.9355">&#171;domain&#187;</text><text fill="#000000" font-family="sans-serif" font-size="14" lengthAdjust="spacing" textLength="85" x="890" y="408.7607">SystemUser</text><line style="stroke:#181818;stroke-width:0.5;" x1="862" x2="977" y1="417.0625" y2="417.0625"/><line style="stroke:#181818;stroke-width:0.5;" x1="862" x2="977" y1="425.0625" y2="425.0625"/></g><!--class Username--><g id="elem_Username"><rect codeLine="15" fill="#F1F1F1" height="56.2656" id="Username" rx="2.5" ry="2.5" style="stroke:#181818;stroke-width:0.5;" width="115" x="1017" y="542.7969"/><ellipse cx="1032" cy="562.9297" fill="#FF8B40" rx="11" ry="11" style="stroke:#181818;stroke-width:1.0;"/><path d="M1032.1563,566.4766 L1029.7031,560.7109 L1030.0313,560.7109 C1030.4375,560.7109 1030.5938,560.6797 1030.7344,560.6016 C1031,560.4453 1031.1406,560.1641 1031.1406,559.8672 C1031.1406,559.6016 1031.0156,559.3359 1030.8125,559.1641 C1030.6406,559.0547 1030.4688,559.0234 1030.0313,559.0234 L1027.7656,559.0234 C1027.3281,559.0234 1027.2031,559.0391 1027.0469,559.1328 C1026.7969,559.2891 1026.6406,559.5859 1026.6406,559.8672 C1026.6406,560.2109 1026.875,560.5547 1027.1719,560.6484 C1027.3281,560.6953 1027.4531,560.7109 1027.7969,560.7109 L1031.2344,568.9297 L1032.9219,568.9297 L1036.4063,560.7109 C1036.7656,560.7109 1036.875,560.6953 1037.0313,560.6484 C1037.3125,560.5547 1037.5625,560.2109 1037.5625,559.8672 C1037.5625,559.6016 1037.4219,559.3359 1037.2031,559.1641 C1037.0469,559.0547 1036.875,559.0234 1036.4375,559.0234 L1034.1875,559.0234 C1033.75,559.0234 1033.625,559.0391 1033.4844,559.1328 C1033.2188,559.2891 1033.0625,559.5859 1033.0625,559.8672 C1033.0625,560.1484 1033.2031,560.3984 1033.4063,560.5703 C1033.5938,560.6797 1033.7344,560.7109 1034.1875,560.7109 L1034.5938,560.7109 L1032.1563,566.4766 Z " fill="#000000"/><text fill="#000000" font-family="sans-serif" font-size="12" font-style="italic" lengthAdjust="spacing" textLength="87" x="1044" y="558.9355">&#171;value object&#187;</text><text fill="#000000" font-family="sans-serif" font-size="14" lengthAdjust="spacing" textLength="71" x="1052" y="574.7607">Username</text><line style="stroke:#181818;stroke-width:0.5;" x1="1018" x2="1131" y1="583.0625" y2="583.0625"/><line style="stroke:#181818;stroke-width:0.5;" x1="1018" x2="1131" y1="591.0625" y2="591.0625"/></g><!--class ViewBoardUpdatesHistoryController--><g id="elem_ViewBoardUpdatesHistoryController"><rect codeLine="17" fill="#F1F1F1" height="88.8594" id="ViewBoardUpdatesHistoryController" rx="2.5" ry="2.5" style="stroke:#181818;stroke-width:0.5;" width="291" x="480" y="194.2969"/><ellipse cx="495" cy="214.4297" fill="#ADD1B2" rx="11" ry="11" style="stroke:#181818;stroke-width:1.0;"/><path d="M497.3438,210.1016 C496.4063,209.6641 495.8125,209.5234 494.9375,209.5234 C492.3125,209.5234 490.3125,211.6016 490.3125,214.3203 L490.3125,215.4453 C490.3125,218.0234 492.4219,219.9141 495.3125,219.9141 C496.5313,219.9141 497.6875,219.6172 498.4375,219.0703 C499.0156,218.6641 499.3438,218.2109 499.3438,217.8203 C499.3438,217.3672 498.9531,216.9766 498.4844,216.9766 C498.2656,216.9766 498.0625,217.0547 497.875,217.2422 C497.4219,217.7266 497.4219,217.7266 497.2344,217.8203 C496.8125,218.0859 496.125,218.2109 495.3594,218.2109 C493.3125,218.2109 492.0156,217.1172 492.0156,215.4141 L492.0156,214.3203 C492.0156,212.5391 493.2656,211.2266 495,211.2266 C495.5781,211.2266 496.1875,211.3828 496.6563,211.6328 C497.1406,211.9141 497.3125,212.1328 497.4063,212.5391 C497.4688,212.9453 497.5,213.0703 497.6406,213.1953 C497.7813,213.3359 498.0156,213.4453 498.2344,213.4453 C498.5,213.4453 498.7656,213.3047 498.9375,213.0859 C499.0469,212.9297 499.0781,212.7422 499.0781,212.3203 L499.0781,210.8984 C499.0781,210.4609 499.0625,210.3359 498.9688,210.1797 C498.8125,209.9141 498.5313,209.7734 498.2344,209.7734 C497.9375,209.7734 497.7344,209.8672 497.5156,210.1797 L497.3438,210.1016 Z " fill="#000000"/><text fill="#000000" font-family="sans-serif" font-size="12" font-style="italic" lengthAdjust="spacing" textLength="80" x="598.5" y="210.4355">&#171;application&#187;</text><text fill="#000000" font-family="sans-serif" font-size="14" lengthAdjust="spacing" textLength="259" x="509" y="226.2607">ViewBoardUpdatesHistoryController</text><line style="stroke:#181818;stroke-width:0.5;" x1="481" x2="770" y1="234.5625" y2="234.5625"/><line style="stroke:#181818;stroke-width:0.5;" x1="481" x2="770" y1="242.5625" y2="242.5625"/><ellipse cx="491" cy="256.2109" fill="#84BE84" rx="3" ry="3" style="stroke:#038048;stroke-width:1.0;"/><text fill="#000000" font-family="sans-serif" font-size="14" lengthAdjust="spacing" textLength="229" x="500" y="259.5576">Iterable&lt;Board&gt; listAllBoards();</text><ellipse cx="491" cy="272.5078" fill="#84BE84" rx="3" ry="3" style="stroke:#038048;stroke-width:1.0;"/><text fill="#000000" font-family="sans-serif" font-size="14" lengthAdjust="spacing" textLength="236" x="500" y="275.8545">void viewBoard(theBoard :Board)</text></g><!--class BoardRepository--><g id="elem_BoardRepository"><rect codeLine="22" fill="#F1F1F1" height="88.8594" id="BoardRepository" rx="2.5" ry="2.5" style="stroke:#181818;stroke-width:0.5;" width="505" x="217" y="526.2969"/><ellipse cx="405.75" cy="546.4297" fill="#B4A7E5" rx="11" ry="11" style="stroke:#181818;stroke-width:1.0;"/><path d="M406.7031,543.2109 L408.4219,543.2109 C408.8125,543.2109 409,543.1797 409.125,543.1016 C409.3906,542.9453 409.5313,542.6641 409.5313,542.3672 C409.5313,542.1016 409.4219,541.8359 409.1875,541.6641 C409.0156,541.5547 408.875,541.5234 408.4219,541.5234 L403.2813,541.5234 C402.8438,541.5234 402.7188,541.5391 402.5625,541.6328 C402.3125,541.7891 402.1563,542.0859 402.1563,542.3672 C402.1563,542.6484 402.2969,542.8984 402.5156,543.0703 C402.6719,543.1797 402.8594,543.2109 403.2813,543.2109 L405,543.2109 L405,549.7266 L403.2813,549.7266 C402.8438,549.7266 402.7188,549.7422 402.5625,549.8516 C402.3125,550.0078 402.1563,550.2891 402.1563,550.5859 C402.1563,550.8359 402.2969,551.1016 402.5156,551.2578 C402.6719,551.3828 402.875,551.4297 403.2813,551.4297 L408.4219,551.4297 C409.1719,551.4297 409.5313,551.1484 409.5313,550.5859 C409.5313,550.3047 409.4219,550.0547 409.1875,549.8828 C409.0156,549.7578 408.875,549.7266 408.4219,549.7266 L406.7031,549.7266 L406.7031,543.2109 Z " fill="#000000"/><text fill="#000000" font-family="sans-serif" font-size="12" font-style="italic" lengthAdjust="spacing" textLength="83" x="444.25" y="542.4355">&#171;repositories&#187;</text><text fill="#000000" font-family="sans-serif" font-size="14" font-style="italic" lengthAdjust="spacing" textLength="119" x="426.25" y="558.2607">BoardRepository</text><line style="stroke:#181818;stroke-width:0.5;" x1="218" x2="721" y1="566.5625" y2="566.5625"/><line style="stroke:#181818;stroke-width:0.5;" x1="218" x2="721" y1="574.5625" y2="574.5625"/><ellipse cx="228" cy="588.2109" fill="#84BE84" rx="3" ry="3" style="stroke:#038048;stroke-width:1.0;"/><text fill="#000000" font-family="sans-serif" font-size="14" lengthAdjust="spacing" textLength="349" x="237" y="591.5576">Iterable&lt;Board&gt; findAllBoards(user : Username);</text><ellipse cx="228" cy="604.5078" fill="#84BE84" rx="3" ry="3" style="stroke:#038048;stroke-width:1.0;"/><text fill="#000000" font-family="sans-serif" font-size="14" lengthAdjust="spacing" textLength="479" x="237" y="607.8545">Board findBoardWithBoardMembersAndPostIts(boardTitle : String)</text></g><!--class CsvSharedBoardProtocolProxy--><g id="elem_CsvSharedBoardProtocolProxy"><rect codeLine="27" fill="#F1F1F1" height="88.8594" id="CsvSharedBoardProtocolProxy" rx="2.5" ry="2.5" style="stroke:#181818;stroke-width:0.5;" width="400" x="425.5" y="360.2969"/><ellipse cx="512.25" cy="380.4297" fill="#ADD1B2" rx="11" ry="11" style="stroke:#181818;stroke-width:1.0;"/><path d="M514.5938,376.1016 C513.6563,375.6641 513.0625,375.5234 512.1875,375.5234 C509.5625,375.5234 507.5625,377.6016 507.5625,380.3203 L507.5625,381.4453 C507.5625,384.0234 509.6719,385.9141 512.5625,385.9141 C513.7813,385.9141 514.9375,385.6172 515.6875,385.0703 C516.2656,384.6641 516.5938,384.2109 516.5938,383.8203 C516.5938,383.3672 516.2031,382.9766 515.7344,382.9766 C515.5156,382.9766 515.3125,383.0547 515.125,383.2422 C514.6719,383.7266 514.6719,383.7266 514.4844,383.8203 C514.0625,384.0859 513.375,384.2109 512.6094,384.2109 C510.5625,384.2109 509.2656,383.1172 509.2656,381.4141 L509.2656,380.3203 C509.2656,378.5391 510.5156,377.2266 512.25,377.2266 C512.8281,377.2266 513.4375,377.3828 513.9063,377.6328 C514.3906,377.9141 514.5625,378.1328 514.6563,378.5391 C514.7188,378.9453 514.75,379.0703 514.8906,379.1953 C515.0313,379.3359 515.2656,379.4453 515.4844,379.4453 C515.75,379.4453 516.0156,379.3047 516.1875,379.0859 C516.2969,378.9297 516.3281,378.7422 516.3281,378.3203 L516.3281,376.8984 C516.3281,376.4609 516.3125,376.3359 516.2188,376.1797 C516.0625,375.9141 515.7813,375.7734 515.4844,375.7734 C515.1875,375.7734 514.9844,375.8672 514.7656,376.1797 L514.5938,376.1016 Z " fill="#000000"/><text fill="#000000" font-family="sans-serif" font-size="12" font-style="italic" lengthAdjust="spacing" textLength="83" x="600.25" y="376.4355">&#171;csvprotocol&#187;</text><text fill="#000000" font-family="sans-serif" font-size="14" lengthAdjust="spacing" textLength="218" x="532.75" y="392.2607">CsvSharedBoardProtocolProxy</text><line style="stroke:#181818;stroke-width:0.5;" x1="426.5" x2="824.5" y1="400.5625" y2="400.5625"/><line style="stroke:#181818;stroke-width:0.5;" x1="426.5" x2="824.5" y1="408.5625" y2="408.5625"/><ellipse cx="436.5" cy="422.2109" fill="#84BE84" rx="3" ry="3" style="stroke:#038048;stroke-width:1.0;"/><text fill="#000000" font-family="sans-serif" font-size="14" lengthAdjust="spacing" textLength="285" x="445.5" y="425.5576">Iterable&lt;Board&gt; getAllBoardsOfAUser()</text><ellipse cx="436.5" cy="438.5078" fill="#84BE84" rx="3" ry="3" style="stroke:#038048;stroke-width:1.0;"/><text fill="#000000" font-family="sans-serif" font-size="14" lengthAdjust="spacing" textLength="374" x="445.5" y="441.8545">String viewBoardUpdatesHistory(boardTitle : String)</text></g><!--link ViewBoardUpdatesHistoryUI to ViewBoardUpdatesHistoryController--><g id="link_ViewBoardUpdatesHistoryUI_ViewBoardUpdatesHistoryController"><path codeLine="33" d="M625.5,117.5869 C625.5,138.7449 625.5,165.8329 625.5,188.9369 " fill="none" id="ViewBoardUpdatesHistoryUI-to-ViewBoardUpdatesHistoryController" style="stroke:#181818;stroke-width:1.0;"/><polygon fill="#181818" points="625.5,194.1059,629.5,185.1059,625.5,189.1059,621.5,185.1059,625.5,194.1059" style="stroke:#181818;stroke-width:1.0;"/><text fill="#000000" font-family="sans-serif" font-size="13" lengthAdjust="spacing" textLength="83" x="626.5" y="160.3638">theController</text></g><!--link ViewBoardUpdatesHistoryController to CsvSharedBoardProtocolProxy--><g id="link_ViewBoardUpdatesHistoryController_CsvSharedBoardProtocolProxy"><path codeLine="34" d="M625.5,283.3149 C625.5,305.3709 625.5,332.2299 625.5,354.9859 " fill="none" id="ViewBoardUpdatesHistoryController-to-CsvSharedBoardProtocolProxy" style="stroke:#181818;stroke-width:1.0;"/><polygon fill="#181818" points="625.5,360.0749,629.5,351.0749,625.5,355.0749,621.5,351.0749,625.5,360.0749" style="stroke:#181818;stroke-width:1.0;"/><text fill="#000000" font-family="sans-serif" font-size="13" lengthAdjust="spacing" textLength="37" x="626.5" y="326.3638">proxy</text></g><!--link ViewBoardUpdatesHistoryController to SystemUser--><g id="link_ViewBoardUpdatesHistoryController_SystemUser"><path codeLine="35" d="M704.874,283.3009 C746.275,306.0859 797.706,334.5369 843.5,360.2969 C851.438,364.7619 859.822,369.5199 868.01,374.1879 " fill="none" id="ViewBoardUpdatesHistoryController-to-SystemUser" style="stroke:#181818;stroke-width:1.0;"/><polygon fill="#181818" points="872.534,376.7699,866.7001,368.8348,868.1915,374.2915,862.7347,375.7828,872.534,376.7699" style="stroke:#181818;stroke-width:1.0;"/><text fill="#000000" font-family="sans-serif" font-size="13" lengthAdjust="spacing" textLength="28" x="790.5" y="326.3638">user</text></g><!--link ViewBoardUpdatesHistoryController to Board--><g id="link_ViewBoardUpdatesHistoryController_Board"><path codeLine="36" d="M541.39,283.3799 C500.364,305.3689 450.674,333.0959 407.5,360.2969 C400.847,364.4889 393.935,369.1259 387.256,373.7659 " fill="none" id="ViewBoardUpdatesHistoryController-to-Board" style="stroke:#181818;stroke-width:1.0;"/><polygon fill="#181818" points="383.133,376.6509,392.8002,374.768,387.2296,373.7841,388.2134,368.2135,383.133,376.6509" style="stroke:#181818;stroke-width:1.0;"/><text fill="#000000" font-family="sans-serif" font-size="13" lengthAdjust="spacing" textLength="58" x="484.5" y="326.3638">theBoard</text></g><!--link CsvSharedBoardProtocolProxy to BoardRepository--><g id="link_CsvSharedBoardProtocolProxy_BoardRepository"><path codeLine="37" d="M584.104,449.3149 C562.684,471.8339 536.501,499.3609 514.571,522.4149 " fill="none" id="CsvSharedBoardProtocolProxy-to-BoardRepository" style="stroke:#181818;stroke-width:1.0;"/><polygon fill="#181818" points="511.089,526.0751,520.1901,522.3107,514.535,522.4522,514.3935,516.7971,511.089,526.0751" style="stroke:#181818;stroke-width:1.0;"/><text fill="#000000" font-family="sans-serif" font-size="13" lengthAdjust="spacing" textLength="70" x="552.5" y="492.3638">boardRepo</text></g><!--link SystemUser to Username--><g id="link_SystemUser_Username"><path codeLine="38" d="M945.095,432.8779 C972.692,462.0779 1016.54,508.4719 1045.42,539.0296 " fill="none" id="SystemUser-to-Username" style="stroke:#181818;stroke-width:1.0;"/><polygon fill="#181818" points="1048.87,542.6754,1045.5884,533.3893,1045.4329,539.044,1039.7782,538.8886,1048.87,542.6754" style="stroke:#181818;stroke-width:1.0;"/></g><!--link JpaBoardRepository to BoardRepository--><g id="link_JpaBoardRepository_BoardRepository"><path codeLine="39" d="M182.024,570.7969 C191.906,570.7969 201.787,570.7969 211.669,570.7969 " fill="none" id="JpaBoardRepository-to-BoardRepository" style="stroke:#181818;stroke-width:1.0;"/><polygon fill="#181818" points="216.836,570.7969,207.836,566.7969,211.836,570.7969,207.836,574.7969,216.836,570.7969" style="stroke:#181818;stroke-width:1.0;"/></g><!--link InMemoryBoardRepository to BoardRepository--><g id="link_InMemoryBoardRepository_BoardRepository"><path codeLine="40" d="M757.325,570.7969 C747.364,570.7969 737.404,570.7969 727.443,570.7969 " fill="none" id="InMemoryBoardRepository-to-BoardRepository" style="stroke:#181818;stroke-width:1.0;"/><polygon fill="#181818" points="722.234,570.7969,731.234,574.7969,727.234,570.7969,731.234,566.7969,722.234,570.7969" style="stroke:#181818;stroke-width:1.0;"/></g><!--link ViewBoardUpdatesHistoryUI to SystemUser--><g id="link_ViewBoardUpdatesHistoryUI_SystemUser"><path codeLine="43" d="M689.3,117.3169 C721.454,137.2199 759.636,164.0949 788.5,194.2969 C840.974,249.2029 883.524,328.3679 904.779,371.9759 " fill="none" id="ViewBoardUpdatesHistoryUI-to-SystemUser" style="stroke:#181818;stroke-width:1.0;stroke-dasharray:7.0,7.0;"/><polygon fill="#181818" points="907.017,376.5979,906.693,366.7543,904.8371,372.0981,899.4934,370.2422,907.017,376.5979" style="stroke:#181818;stroke-width:1.0;"/></g><!--link ViewBoardUpdatesHistoryUI to Board--><g id="link_ViewBoardUpdatesHistoryUI_Board"><path codeLine="44" d="M559.827,117.4249 C527.752,137.0909 490.205,163.7209 462.5,194.2969 C413.075,248.8429 376.531,328.1459 358.691,371.8729 " fill="none" id="ViewBoardUpdatesHistoryUI-to-Board" style="stroke:#181818;stroke-width:1.0;stroke-dasharray:7.0,7.0;"/><polygon fill="#181818" points="356.816,376.5089,363.9004,369.667,358.6919,371.8741,356.4848,366.6656,356.816,376.5089" style="stroke:#181818;stroke-width:1.0;"/></g><!--SRC=[ZLHDZzCm4BtxLup4eQcWKYKuGAWYTLkjA1Am8dGv80vEF6sC7DkolLbMQF_xsaxI3-sc91V7dlTc9k-DuxWJ22j1hOKrftj3QqXMwodCO9l3s_dy0o6J64PBoWYxvNX_fQXXMyseG_k9MwVCmtO3YuKsQ54wwhYIMGR_2FY7gRnIzycKF98knMTDOuRlg9NbWHsuQAnFXRB4G7tii1lv1MkF647e617fuqpLbBTj76BvWoVKMulc3D0N2m59Q_J1vFODlBg-Vd_rRZw5Xeex15NymT9b6Rcin4f9PvGGiGRLMl3oN93N6uU65W8NaPs1yCIb475da-d75jKepg3fQoIkmlRBqhX4ERdqcNQqH7WkZ-at7ErmwHsNx5ZwBWYJ7cJeEsdh1cXy-ybT5L-yCuKtOIdPZR9kusnIXECVSQXIo9tXSd_Y-yesUKKDjcbkZ7AgLCAlVqF3fMrqTpJSxnwFIdtRBKEdVh8Yj2rtLEpSbS7M9bzfm_VH8J8ysxDPDiBl5BnBnptvFoFalIHB2Zgi8pETZ7SAmSoHl6wme9ynSgcb0-5at58e-XDoqaI0ziD4NhZrppEHeVl-0fHCrgXHCly7y3D-oRnVZDeAsUypYKOI8k89]--></g></svg>