<?xml version="1.0" encoding="us-ascii" standalone="no"?><svg xmlns="http://www.w3.org/2000/svg" xmlns:xlink="http://www.w3.org/1999/xlink" contentStyleType="text/css" height="730px" preserveAspectRatio="none" style="width:2059px;height:730px;background:#FFFFFF;" version="1.1" viewBox="0 0 2059 730" width="2059px" zoomAndPan="magnify"><defs/><g><text fill="#000000" font-family="sans-serif" font-size="25" font-weight="bold" lengthAdjust="spacing" text-decoration="underline" textLength="203" x="921" y="33.2056">Domain Model</text><!--cluster <<aggregate>> Board--><g id="cluster_&lt;&lt;aggregate&gt;&gt; Board"><path d="M8.5,56.1016 L163.5,56.1016 A3.75,3.75 0 0 1 166,58.6016 L173,78.3984 L859.5,78.3984 A2.5,2.5 0 0 1 862,80.8984 L862,571.6016 A2.5,2.5 0 0 1 859.5,574.1016 L8.5,574.1016 A2.5,2.5 0 0 1 6,571.6016 L6,58.6016 A2.5,2.5 0 0 1 8.5,56.1016 " fill="none" style="stroke:#000000;stroke-width:1.5;"/><line style="stroke:#000000;stroke-width:1.5;" x1="6" x2="173" y1="78.3984" y2="78.3984"/><text fill="#000000" font-family="sans-serif" font-size="14" font-weight="bold" lengthAdjust="spacing" textLength="154" x="10" y="71.0967">&#171;aggregate&#187; Board</text></g><!--cluster <<aggregate>> BoardMember--><g id="cluster_&lt;&lt;aggregate&gt;&gt; BoardMember"><path d="M888.5,249.1016 L1107.5,249.1016 A3.75,3.75 0 0 1 1110,251.6016 L1117,271.3984 L1117.5,271.3984 A2.5,2.5 0 0 1 1120,273.8984 L1120,563.1016 A2.5,2.5 0 0 1 1117.5,565.6016 L888.5,565.6016 A2.5,2.5 0 0 1 886,563.1016 L886,251.6016 A2.5,2.5 0 0 1 888.5,249.1016 " fill="none" style="stroke:#000000;stroke-width:1.5;"/><line style="stroke:#000000;stroke-width:1.5;" x1="886" x2="1117" y1="271.3984" y2="271.3984"/><text fill="#000000" font-family="sans-serif" font-size="14" font-weight="bold" lengthAdjust="spacing" textLength="218" x="890" y="264.0967">&#171;aggregate&#187; BoardMember</text></g><!--cluster <<aggregate>> PostIt--><g id="cluster_&lt;&lt;aggregate&gt;&gt; PostIt"><path d="M1388.5,249.1016 L1545.5,249.1016 A3.75,3.75 0 0 1 1548,251.6016 L1555,271.3984 L2049.5,271.3984 A2.5,2.5 0 0 1 2052,273.8984 L2052,720.6016 A2.5,2.5 0 0 1 2049.5,723.1016 L1388.5,723.1016 A2.5,2.5 0 0 1 1386,720.6016 L1386,251.6016 A2.5,2.5 0 0 1 1388.5,249.1016 " fill="none" style="stroke:#000000;stroke-width:1.5;"/><line style="stroke:#000000;stroke-width:1.5;" x1="1386" x2="1555" y1="271.3984" y2="271.3984"/><text fill="#000000" font-family="sans-serif" font-size="14" font-weight="bold" lengthAdjust="spacing" textLength="156" x="1390" y="264.0967">&#171;aggregate&#187; PostIt</text></g><!--cluster <<aggregate>> SystemUser--><g id="cluster_&lt;&lt;aggregate&gt;&gt; SystemUser"><path d="M1146.5,427.1016 L1349.5,427.1016 A3.75,3.75 0 0 1 1352,429.6016 L1359,449.3984 L1359.5,449.3984 A2.5,2.5 0 0 1 1362,451.8984 L1362,602.6016 A2.5,2.5 0 0 1 1359.5,605.1016 L1146.5,605.1016 A2.5,2.5 0 0 1 1144,602.6016 L1144,429.6016 A2.5,2.5 0 0 1 1146.5,427.1016 " fill="none" style="stroke:#000000;stroke-width:1.5;"/><line style="stroke:#000000;stroke-width:1.5;" x1="1144" x2="1359" y1="449.3984" y2="449.3984"/><text fill="#000000" font-family="sans-serif" font-size="14" font-weight="bold" lengthAdjust="spacing" textLength="202" x="1148" y="442.0967">&#171;aggregate&#187; SystemUser</text></g><!--class Board--><g id="elem_Board"><rect codeLine="12" fill="#F1F1F1" height="94.8281" id="Board" rx="2.5" ry="2.5" style="stroke:#181818;stroke-width:0.5;" width="77" x="712.5" y="91.1016"/><ellipse cx="727.5" cy="118.2188" fill="#ADD1B2" rx="11" ry="11" style="stroke:#181818;stroke-width:1.0;"/><path d="M726.2969,119.0938 L727.75,119.0938 L727.75,119.2031 C727.75,119.6094 727.7813,119.7656 727.8594,119.9219 C728.0156,120.1719 728.2969,120.3281 728.5938,120.3281 C728.8438,120.3281 729.1094,120.1875 729.2656,119.9688 C729.3906,119.8125 729.4219,119.6563 729.4219,119.2031 L729.4219,117.2813 C729.4219,117.125 729.4219,117.0781 729.4063,116.9219 C729.3438,116.4531 729.0313,116.1406 728.5781,116.1406 C728.3281,116.1406 728.0625,116.2813 727.8906,116.5 C727.7813,116.6719 727.75,116.8281 727.75,117.2813 L727.75,117.4063 L726.2969,117.4063 L726.2969,115 L730.2813,115 L730.2813,115.8594 C730.2813,116.2656 730.3125,116.4375 730.3906,116.5938 C730.5625,116.8438 730.8438,117 731.125,117 C731.3906,117 731.6563,116.8594 731.8281,116.6406 C731.9375,116.4688 731.9688,116.3281 731.9688,115.8594 L731.9688,113.3125 L724.3438,113.3125 C723.9063,113.3125 723.7813,113.3281 723.625,113.4219 C723.375,113.5781 723.2188,113.875 723.2188,114.1563 C723.2188,114.4375 723.3594,114.6875 723.5781,114.8594 C723.7344,114.9688 723.9219,115 724.3438,115 L724.5938,115 L724.5938,121.5156 L724.3438,121.5156 C723.9375,121.5156 723.7813,121.5313 723.625,121.6406 C723.375,121.8125 723.2188,122.0781 723.2188,122.375 C723.2188,122.6406 723.3594,122.8906 723.5781,123.0469 C723.7188,123.1719 723.9531,123.2188 724.3438,123.2188 L732.3438,123.2188 L732.3438,120.6406 C732.3438,120.2031 732.3125,120.0625 732.2344,119.9063 C732.0625,119.6563 731.7813,119.5 731.5,119.5 C731.2344,119.5 730.9688,119.6094 730.7969,119.8594 C730.6875,120.0156 730.6563,120.1563 730.6563,120.6406 L730.6563,121.5156 L726.2969,121.5156 L726.2969,119.0938 Z " fill="#000000"/><text fill="#000000" font-family="sans-serif" font-size="12" font-style="italic" lengthAdjust="spacing" textLength="49" x="739.5" y="107.2402">&#171;entity&#187;</text><text fill="#000000" font-family="sans-serif" font-size="12" font-style="italic" lengthAdjust="spacing" textLength="38" x="745" y="121.209">&#171;root&#187;</text><text fill="#000000" font-family="sans-serif" font-size="14" lengthAdjust="spacing" textLength="42" x="743" y="137.0342">Board</text><line style="stroke:#181818;stroke-width:0.5;" x1="713.5" x2="788.5" y1="145.3359" y2="145.3359"/><text fill="#000000" font-family="sans-serif" font-size="14" lengthAdjust="spacing" textLength="31" x="718.5" y="162.3311">title</text><text fill="#000000" font-family="sans-serif" font-size="14" lengthAdjust="spacing" textLength="61" x="718.5" y="178.6279">archived</text></g><!--class BoardCreationDateTime--><g id="elem_BoardCreationDateTime"><rect codeLine="17" fill="#F1F1F1" height="64.5625" id="BoardCreationDateTime" rx="2.5" ry="2.5" style="stroke:#181818;stroke-width:0.5;" width="207" x="22.5" y="291.1016"/><ellipse cx="37.5" cy="311.2344" fill="#FF8B40" rx="11" ry="11" style="stroke:#181818;stroke-width:1.0;"/><path d="M37.6563,314.7813 L35.2031,309.0156 L35.5313,309.0156 C35.9375,309.0156 36.0938,308.9844 36.2344,308.9063 C36.5,308.75 36.6406,308.4688 36.6406,308.1719 C36.6406,307.9063 36.5156,307.6406 36.3125,307.4688 C36.1406,307.3594 35.9688,307.3281 35.5313,307.3281 L33.2656,307.3281 C32.8281,307.3281 32.7031,307.3438 32.5469,307.4375 C32.2969,307.5938 32.1406,307.8906 32.1406,308.1719 C32.1406,308.5156 32.375,308.8594 32.6719,308.9531 C32.8281,309 32.9531,309.0156 33.2969,309.0156 L36.7344,317.2344 L38.4219,317.2344 L41.9063,309.0156 C42.2656,309.0156 42.375,309 42.5313,308.9531 C42.8125,308.8594 43.0625,308.5156 43.0625,308.1719 C43.0625,307.9063 42.9219,307.6406 42.7031,307.4688 C42.5469,307.3594 42.375,307.3281 41.9375,307.3281 L39.6875,307.3281 C39.25,307.3281 39.125,307.3438 38.9844,307.4375 C38.7188,307.5938 38.5625,307.8906 38.5625,308.1719 C38.5625,308.4531 38.7031,308.7031 38.9063,308.875 C39.0938,308.9844 39.2344,309.0156 39.6875,309.0156 L40.0938,309.0156 L37.6563,314.7813 Z " fill="#000000"/><text fill="#000000" font-family="sans-serif" font-size="12" font-style="italic" lengthAdjust="spacing" textLength="87" x="95.5" y="307.2402">&#171;value object&#187;</text><text fill="#000000" font-family="sans-serif" font-size="14" lengthAdjust="spacing" textLength="175" x="51.5" y="323.0654">BoardCreationDateTime</text><line style="stroke:#181818;stroke-width:0.5;" x1="23.5" x2="228.5" y1="331.3672" y2="331.3672"/><text fill="#000000" font-family="sans-serif" font-size="14" lengthAdjust="spacing" textLength="69" x="28.5" y="348.3623">dateTime</text></g><!--class BoardDimensions--><g id="elem_BoardDimensions"><rect codeLine="21" fill="#F1F1F1" height="80.8594" id="BoardDimensions" rx="2.5" ry="2.5" style="stroke:#181818;stroke-width:0.5;" width="157" x="264.5" y="283.1016"/><ellipse cx="279.5" cy="303.2344" fill="#FF8B40" rx="11" ry="11" style="stroke:#181818;stroke-width:1.0;"/><path d="M279.6563,306.7813 L277.2031,301.0156 L277.5313,301.0156 C277.9375,301.0156 278.0938,300.9844 278.2344,300.9063 C278.5,300.75 278.6406,300.4688 278.6406,300.1719 C278.6406,299.9063 278.5156,299.6406 278.3125,299.4688 C278.1406,299.3594 277.9688,299.3281 277.5313,299.3281 L275.2656,299.3281 C274.8281,299.3281 274.7031,299.3438 274.5469,299.4375 C274.2969,299.5938 274.1406,299.8906 274.1406,300.1719 C274.1406,300.5156 274.375,300.8594 274.6719,300.9531 C274.8281,301 274.9531,301.0156 275.2969,301.0156 L278.7344,309.2344 L280.4219,309.2344 L283.9063,301.0156 C284.2656,301.0156 284.375,301 284.5313,300.9531 C284.8125,300.8594 285.0625,300.5156 285.0625,300.1719 C285.0625,299.9063 284.9219,299.6406 284.7031,299.4688 C284.5469,299.3594 284.375,299.3281 283.9375,299.3281 L281.6875,299.3281 C281.25,299.3281 281.125,299.3438 280.9844,299.4375 C280.7188,299.5938 280.5625,299.8906 280.5625,300.1719 C280.5625,300.4531 280.7031,300.7031 280.9063,300.875 C281.0938,300.9844 281.2344,301.0156 281.6875,301.0156 L282.0938,301.0156 L279.6563,306.7813 Z " fill="#000000"/><text fill="#000000" font-family="sans-serif" font-size="12" font-style="italic" lengthAdjust="spacing" textLength="87" x="312.5" y="299.2402">&#171;value object&#187;</text><text fill="#000000" font-family="sans-serif" font-size="14" lengthAdjust="spacing" textLength="125" x="293.5" y="315.0654">BoardDimensions</text><line style="stroke:#181818;stroke-width:0.5;" x1="265.5" x2="420.5" y1="323.3672" y2="323.3672"/><text fill="#000000" font-family="sans-serif" font-size="14" lengthAdjust="spacing" textLength="92" x="270.5" y="340.3623">numColumns</text><text fill="#000000" font-family="sans-serif" font-size="14" lengthAdjust="spacing" textLength="68" x="270.5" y="356.6592">numLines</text></g><!--class BoardElement--><g id="elem_BoardElement"><rect codeLine="27" fill="#F1F1F1" height="64.5625" id="BoardElement" rx="2.5" ry="2.5" style="stroke:#181818;stroke-width:0.5;" width="134" x="577" y="493.1016"/><ellipse cx="592" cy="513.2344" fill="#A9DCDF" rx="11" ry="11" style="stroke:#181818;stroke-width:1.0;"/><path d="M594.0781,515.0469 L594.4688,516.0313 L594.0781,516.0313 C593.625,516.0313 593.5156,516.0469 593.3594,516.1563 C593.1094,516.3125 592.9531,516.5938 592.9531,516.8906 C592.9531,517.1563 593.0938,517.4063 593.3125,517.5625 C593.4531,517.6875 593.6563,517.7344 594.0781,517.7344 L596.4375,517.7344 C596.7969,517.7344 597.0156,517.7031 597.1563,517.6094 C597.4063,517.4688 597.5625,517.1719 597.5625,516.8906 C597.5625,516.6094 597.4219,516.3594 597.2031,516.2031 C597.0313,516.0625 596.875,516.0313 596.4063,516.0313 L593.0156,507.8281 L589.3438,507.8281 C588.8906,507.8281 588.7656,507.8438 588.6094,507.9375 C588.3594,508.1094 588.2031,508.3906 588.2031,508.6719 C588.2031,508.9531 588.3438,509.2031 588.5625,509.375 C588.7344,509.4844 588.9063,509.5156 589.3438,509.5156 L590.4219,509.5156 L587.7813,516.0313 C587.3594,516.0313 587.2031,516.0469 587.0469,516.1563 C586.7969,516.3125 586.6406,516.5938 586.6406,516.8906 C586.6406,517.4531 587.0156,517.7344 587.7656,517.7344 L590.0313,517.7344 C590.3906,517.7344 590.6094,517.7031 590.7344,517.6094 C591,517.4688 591.1406,517.1719 591.1406,516.8906 C591.1406,516.6094 591.0156,516.3594 590.7969,516.1875 C590.625,516.0625 590.4844,516.0313 590.0313,516.0313 L589.6406,516.0313 L590.0313,515.0469 L594.0781,515.0469 Z M593.375,513.3438 L590.7031,513.3438 L592.0469,510.0781 L593.375,513.3438 Z " fill="#000000"/><text fill="#000000" font-family="sans-serif" font-size="12" font-style="italic" lengthAdjust="spacing" textLength="64" x="625" y="509.2402">&#171;abstract&#187;</text><text fill="#000000" font-family="sans-serif" font-size="14" font-style="italic" lengthAdjust="spacing" textLength="102" x="606" y="525.0654">BoardElement</text><line style="stroke:#181818;stroke-width:0.5;" x1="578" x2="710" y1="533.3672" y2="533.3672"/><text fill="#000000" font-family="sans-serif" font-size="14" lengthAdjust="spacing" textLength="31" x="583" y="550.3623">title</text></g><!--class BoardElementLine--><g id="elem_BoardElementLine"><rect codeLine="31" fill="#F1F1F1" height="48.2656" id="BoardElementLine" rx="2.5" ry="2.5" style="stroke:#181818;stroke-width:0.5;" width="165" x="456.5" y="299.6016"/><ellipse cx="471.5" cy="319.7344" fill="#ADD1B2" rx="11" ry="11" style="stroke:#181818;stroke-width:1.0;"/><path d="M470.2969,320.6094 L471.75,320.6094 L471.75,320.7188 C471.75,321.125 471.7813,321.2813 471.8594,321.4375 C472.0156,321.6875 472.2969,321.8438 472.5938,321.8438 C472.8438,321.8438 473.1094,321.7031 473.2656,321.4844 C473.3906,321.3281 473.4219,321.1719 473.4219,320.7188 L473.4219,318.7969 C473.4219,318.6406 473.4219,318.5938 473.4063,318.4375 C473.3438,317.9688 473.0313,317.6563 472.5781,317.6563 C472.3281,317.6563 472.0625,317.7969 471.8906,318.0156 C471.7813,318.1875 471.75,318.3438 471.75,318.7969 L471.75,318.9219 L470.2969,318.9219 L470.2969,316.5156 L474.2813,316.5156 L474.2813,317.375 C474.2813,317.7813 474.3125,317.9531 474.3906,318.1094 C474.5625,318.3594 474.8438,318.5156 475.125,318.5156 C475.3906,318.5156 475.6563,318.375 475.8281,318.1563 C475.9375,317.9844 475.9688,317.8438 475.9688,317.375 L475.9688,314.8281 L468.3438,314.8281 C467.9063,314.8281 467.7813,314.8438 467.625,314.9375 C467.375,315.0938 467.2188,315.3906 467.2188,315.6719 C467.2188,315.9531 467.3594,316.2031 467.5781,316.375 C467.7344,316.4844 467.9219,316.5156 468.3438,316.5156 L468.5938,316.5156 L468.5938,323.0313 L468.3438,323.0313 C467.9375,323.0313 467.7813,323.0469 467.625,323.1563 C467.375,323.3281 467.2188,323.5938 467.2188,323.8906 C467.2188,324.1563 467.3594,324.4063 467.5781,324.5625 C467.7188,324.6875 467.9531,324.7344 468.3438,324.7344 L476.3438,324.7344 L476.3438,322.1563 C476.3438,321.7188 476.3125,321.5781 476.2344,321.4219 C476.0625,321.1719 475.7813,321.0156 475.5,321.0156 C475.2344,321.0156 474.9688,321.125 474.7969,321.375 C474.6875,321.5313 474.6563,321.6719 474.6563,322.1563 L474.6563,323.0313 L470.2969,323.0313 L470.2969,320.6094 Z " fill="#000000"/><text fill="#000000" font-family="sans-serif" font-size="12" font-style="italic" lengthAdjust="spacing" textLength="49" x="527.5" y="315.7402">&#171;entity&#187;</text><text fill="#000000" font-family="sans-serif" font-size="14" lengthAdjust="spacing" textLength="133" x="485.5" y="331.5654">BoardElementLine</text><line style="stroke:#181818;stroke-width:0.5;" x1="457.5" x2="620.5" y1="339.8672" y2="339.8672"/></g><!--class BoardElementColumn--><g id="elem_BoardElementColumn"><rect codeLine="32" fill="#F1F1F1" height="48.2656" id="BoardElementColumn" rx="2.5" ry="2.5" style="stroke:#181818;stroke-width:0.5;" width="189" x="656.5" y="299.6016"/><ellipse cx="671.5" cy="319.7344" fill="#ADD1B2" rx="11" ry="11" style="stroke:#181818;stroke-width:1.0;"/><path d="M670.2969,320.6094 L671.75,320.6094 L671.75,320.7188 C671.75,321.125 671.7813,321.2813 671.8594,321.4375 C672.0156,321.6875 672.2969,321.8438 672.5938,321.8438 C672.8438,321.8438 673.1094,321.7031 673.2656,321.4844 C673.3906,321.3281 673.4219,321.1719 673.4219,320.7188 L673.4219,318.7969 C673.4219,318.6406 673.4219,318.5938 673.4063,318.4375 C673.3438,317.9688 673.0313,317.6563 672.5781,317.6563 C672.3281,317.6563 672.0625,317.7969 671.8906,318.0156 C671.7813,318.1875 671.75,318.3438 671.75,318.7969 L671.75,318.9219 L670.2969,318.9219 L670.2969,316.5156 L674.2813,316.5156 L674.2813,317.375 C674.2813,317.7813 674.3125,317.9531 674.3906,318.1094 C674.5625,318.3594 674.8438,318.5156 675.125,318.5156 C675.3906,318.5156 675.6563,318.375 675.8281,318.1563 C675.9375,317.9844 675.9688,317.8438 675.9688,317.375 L675.9688,314.8281 L668.3438,314.8281 C667.9063,314.8281 667.7813,314.8438 667.625,314.9375 C667.375,315.0938 667.2188,315.3906 667.2188,315.6719 C667.2188,315.9531 667.3594,316.2031 667.5781,316.375 C667.7344,316.4844 667.9219,316.5156 668.3438,316.5156 L668.5938,316.5156 L668.5938,323.0313 L668.3438,323.0313 C667.9375,323.0313 667.7813,323.0469 667.625,323.1563 C667.375,323.3281 667.2188,323.5938 667.2188,323.8906 C667.2188,324.1563 667.3594,324.4063 667.5781,324.5625 C667.7188,324.6875 667.9531,324.7344 668.3438,324.7344 L676.3438,324.7344 L676.3438,322.1563 C676.3438,321.7188 676.3125,321.5781 676.2344,321.4219 C676.0625,321.1719 675.7813,321.0156 675.5,321.0156 C675.2344,321.0156 674.9688,321.125 674.7969,321.375 C674.6875,321.5313 674.6563,321.6719 674.6563,322.1563 L674.6563,323.0313 L670.2969,323.0313 L670.2969,320.6094 Z " fill="#000000"/><text fill="#000000" font-family="sans-serif" font-size="12" font-style="italic" lengthAdjust="spacing" textLength="49" x="739.5" y="315.7402">&#171;entity&#187;</text><text fill="#000000" font-family="sans-serif" font-size="14" lengthAdjust="spacing" textLength="157" x="685.5" y="331.5654">BoardElementColumn</text><line style="stroke:#181818;stroke-width:0.5;" x1="657.5" x2="844.5" y1="339.8672" y2="339.8672"/></g><!--class BoardMember--><g id="elem_BoardMember"><rect codeLine="37" fill="#F1F1F1" height="78.5313" id="BoardMember" rx="2.5" ry="2.5" style="stroke:#181818;stroke-width:0.5;" width="134" x="936" y="284.1016"/><ellipse cx="951" cy="311.2188" fill="#ADD1B2" rx="11" ry="11" style="stroke:#181818;stroke-width:1.0;"/><path d="M949.7969,312.0938 L951.25,312.0938 L951.25,312.2031 C951.25,312.6094 951.2813,312.7656 951.3594,312.9219 C951.5156,313.1719 951.7969,313.3281 952.0938,313.3281 C952.3438,313.3281 952.6094,313.1875 952.7656,312.9688 C952.8906,312.8125 952.9219,312.6563 952.9219,312.2031 L952.9219,310.2813 C952.9219,310.125 952.9219,310.0781 952.9063,309.9219 C952.8438,309.4531 952.5313,309.1406 952.0781,309.1406 C951.8281,309.1406 951.5625,309.2813 951.3906,309.5 C951.2813,309.6719 951.25,309.8281 951.25,310.2813 L951.25,310.4063 L949.7969,310.4063 L949.7969,308 L953.7813,308 L953.7813,308.8594 C953.7813,309.2656 953.8125,309.4375 953.8906,309.5938 C954.0625,309.8438 954.3438,310 954.625,310 C954.8906,310 955.1563,309.8594 955.3281,309.6406 C955.4375,309.4688 955.4688,309.3281 955.4688,308.8594 L955.4688,306.3125 L947.8438,306.3125 C947.4063,306.3125 947.2813,306.3281 947.125,306.4219 C946.875,306.5781 946.7188,306.875 946.7188,307.1563 C946.7188,307.4375 946.8594,307.6875 947.0781,307.8594 C947.2344,307.9688 947.4219,308 947.8438,308 L948.0938,308 L948.0938,314.5156 L947.8438,314.5156 C947.4375,314.5156 947.2813,314.5313 947.125,314.6406 C946.875,314.8125 946.7188,315.0781 946.7188,315.375 C946.7188,315.6406 946.8594,315.8906 947.0781,316.0469 C947.2188,316.1719 947.4531,316.2188 947.8438,316.2188 L955.8438,316.2188 L955.8438,313.6406 C955.8438,313.2031 955.8125,313.0625 955.7344,312.9063 C955.5625,312.6563 955.2813,312.5 955,312.5 C954.7344,312.5 954.4688,312.6094 954.2969,312.8594 C954.1875,313.0156 954.1563,313.1563 954.1563,313.6406 L954.1563,314.5156 L949.7969,314.5156 L949.7969,312.0938 Z " fill="#000000"/><text fill="#000000" font-family="sans-serif" font-size="12" font-style="italic" lengthAdjust="spacing" textLength="49" x="991.5" y="300.2402">&#171;entity&#187;</text><text fill="#000000" font-family="sans-serif" font-size="12" font-style="italic" lengthAdjust="spacing" textLength="38" x="997" y="314.209">&#171;root&#187;</text><text fill="#000000" font-family="sans-serif" font-size="14" lengthAdjust="spacing" textLength="102" x="965" y="330.0342">BoardMember</text><line style="stroke:#181818;stroke-width:0.5;" x1="937" x2="1069" y1="338.3359" y2="338.3359"/><text fill="#000000" font-family="sans-serif" font-size="14" lengthAdjust="spacing" textLength="79" x="942" y="355.3311">joinedDate</text></g><!--class AccessPermission--><g id="elem_AccessPermission"><rect codeLine="41" fill="#F1F1F1" height="48.2656" id="AccessPermission" rx="2.5" ry="2.5" style="stroke:#181818;stroke-width:0.5;" width="159" x="923.5" y="501.6016"/><ellipse cx="938.5" cy="521.7344" fill="#FF8B40" rx="11" ry="11" style="stroke:#181818;stroke-width:1.0;"/><path d="M938.6563,525.2813 L936.2031,519.5156 L936.5313,519.5156 C936.9375,519.5156 937.0938,519.4844 937.2344,519.4063 C937.5,519.25 937.6406,518.9688 937.6406,518.6719 C937.6406,518.4063 937.5156,518.1406 937.3125,517.9688 C937.1406,517.8594 936.9688,517.8281 936.5313,517.8281 L934.2656,517.8281 C933.8281,517.8281 933.7031,517.8438 933.5469,517.9375 C933.2969,518.0938 933.1406,518.3906 933.1406,518.6719 C933.1406,519.0156 933.375,519.3594 933.6719,519.4531 C933.8281,519.5 933.9531,519.5156 934.2969,519.5156 L937.7344,527.7344 L939.4219,527.7344 L942.9063,519.5156 C943.2656,519.5156 943.375,519.5 943.5313,519.4531 C943.8125,519.3594 944.0625,519.0156 944.0625,518.6719 C944.0625,518.4063 943.9219,518.1406 943.7031,517.9688 C943.5469,517.8594 943.375,517.8281 942.9375,517.8281 L940.6875,517.8281 C940.25,517.8281 940.125,517.8438 939.9844,517.9375 C939.7188,518.0938 939.5625,518.3906 939.5625,518.6719 C939.5625,518.9531 939.7031,519.2031 939.9063,519.375 C940.0938,519.4844 940.2344,519.5156 940.6875,519.5156 L941.0938,519.5156 L938.6563,525.2813 Z " fill="#000000"/><text fill="#000000" font-family="sans-serif" font-size="12" font-style="italic" lengthAdjust="spacing" textLength="87" x="972.5" y="517.7402">&#171;value object&#187;</text><text fill="#000000" font-family="sans-serif" font-size="14" lengthAdjust="spacing" textLength="127" x="952.5" y="533.5654">AccessPermission</text><line style="stroke:#181818;stroke-width:0.5;" x1="924.5" x2="1081.5" y1="541.8672" y2="541.8672"/></g><!--class PostIt--><g id="elem_PostIt"><rect codeLine="46" fill="#F1F1F1" height="78.5313" id="PostIt" rx="2.5" ry="2.5" style="stroke:#181818;stroke-width:0.5;" width="77" x="1430.5" y="284.1016"/><ellipse cx="1445.5" cy="311.2188" fill="#ADD1B2" rx="11" ry="11" style="stroke:#181818;stroke-width:1.0;"/><path d="M1444.2969,312.0938 L1445.75,312.0938 L1445.75,312.2031 C1445.75,312.6094 1445.7813,312.7656 1445.8594,312.9219 C1446.0156,313.1719 1446.2969,313.3281 1446.5938,313.3281 C1446.8438,313.3281 1447.1094,313.1875 1447.2656,312.9688 C1447.3906,312.8125 1447.4219,312.6563 1447.4219,312.2031 L1447.4219,310.2813 C1447.4219,310.125 1447.4219,310.0781 1447.4063,309.9219 C1447.3438,309.4531 1447.0313,309.1406 1446.5781,309.1406 C1446.3281,309.1406 1446.0625,309.2813 1445.8906,309.5 C1445.7813,309.6719 1445.75,309.8281 1445.75,310.2813 L1445.75,310.4063 L1444.2969,310.4063 L1444.2969,308 L1448.2813,308 L1448.2813,308.8594 C1448.2813,309.2656 1448.3125,309.4375 1448.3906,309.5938 C1448.5625,309.8438 1448.8438,310 1449.125,310 C1449.3906,310 1449.6563,309.8594 1449.8281,309.6406 C1449.9375,309.4688 1449.9688,309.3281 1449.9688,308.8594 L1449.9688,306.3125 L1442.3438,306.3125 C1441.9063,306.3125 1441.7813,306.3281 1441.625,306.4219 C1441.375,306.5781 1441.2188,306.875 1441.2188,307.1563 C1441.2188,307.4375 1441.3594,307.6875 1441.5781,307.8594 C1441.7344,307.9688 1441.9219,308 1442.3438,308 L1442.5938,308 L1442.5938,314.5156 L1442.3438,314.5156 C1441.9375,314.5156 1441.7813,314.5313 1441.625,314.6406 C1441.375,314.8125 1441.2188,315.0781 1441.2188,315.375 C1441.2188,315.6406 1441.3594,315.8906 1441.5781,316.0469 C1441.7188,316.1719 1441.9531,316.2188 1442.3438,316.2188 L1450.3438,316.2188 L1450.3438,313.6406 C1450.3438,313.2031 1450.3125,313.0625 1450.2344,312.9063 C1450.0625,312.6563 1449.7813,312.5 1449.5,312.5 C1449.2344,312.5 1448.9688,312.6094 1448.7969,312.8594 C1448.6875,313.0156 1448.6563,313.1563 1448.6563,313.6406 L1448.6563,314.5156 L1444.2969,314.5156 L1444.2969,312.0938 Z " fill="#000000"/><text fill="#000000" font-family="sans-serif" font-size="12" font-style="italic" lengthAdjust="spacing" textLength="49" x="1457.5" y="300.2402">&#171;entity&#187;</text><text fill="#000000" font-family="sans-serif" font-size="12" font-style="italic" lengthAdjust="spacing" textLength="38" x="1463" y="314.209">&#171;root&#187;</text><text fill="#000000" font-family="sans-serif" font-size="14" lengthAdjust="spacing" textLength="43" x="1460.5" y="330.0342">PostIt</text><line style="stroke:#181818;stroke-width:0.5;" x1="1431.5" x2="1506.5" y1="338.3359" y2="338.3359"/><text fill="#000000" font-family="sans-serif" font-size="14" lengthAdjust="spacing" textLength="58" x="1436.5" y="355.3311">content</text></g><!--class PostItPosition--><g id="elem_PostItPosition"><rect codeLine="49" fill="#F1F1F1" height="80.8594" id="PostItPosition" rx="2.5" ry="2.5" style="stroke:#181818;stroke-width:0.5;" width="133" x="1402.5" y="485.1016"/><ellipse cx="1417.5" cy="505.2344" fill="#FF8B40" rx="11" ry="11" style="stroke:#181818;stroke-width:1.0;"/><path d="M1417.6563,508.7813 L1415.2031,503.0156 L1415.5313,503.0156 C1415.9375,503.0156 1416.0938,502.9844 1416.2344,502.9063 C1416.5,502.75 1416.6406,502.4688 1416.6406,502.1719 C1416.6406,501.9063 1416.5156,501.6406 1416.3125,501.4688 C1416.1406,501.3594 1415.9688,501.3281 1415.5313,501.3281 L1413.2656,501.3281 C1412.8281,501.3281 1412.7031,501.3438 1412.5469,501.4375 C1412.2969,501.5938 1412.1406,501.8906 1412.1406,502.1719 C1412.1406,502.5156 1412.375,502.8594 1412.6719,502.9531 C1412.8281,503 1412.9531,503.0156 1413.2969,503.0156 L1416.7344,511.2344 L1418.4219,511.2344 L1421.9063,503.0156 C1422.2656,503.0156 1422.375,503 1422.5313,502.9531 C1422.8125,502.8594 1423.0625,502.5156 1423.0625,502.1719 C1423.0625,501.9063 1422.9219,501.6406 1422.7031,501.4688 C1422.5469,501.3594 1422.375,501.3281 1421.9375,501.3281 L1419.6875,501.3281 C1419.25,501.3281 1419.125,501.3438 1418.9844,501.4375 C1418.7188,501.5938 1418.5625,501.8906 1418.5625,502.1719 C1418.5625,502.4531 1418.7031,502.7031 1418.9063,502.875 C1419.0938,502.9844 1419.2344,503.0156 1419.6875,503.0156 L1420.0938,503.0156 L1417.6563,508.7813 Z " fill="#000000"/><text fill="#000000" font-family="sans-serif" font-size="12" font-style="italic" lengthAdjust="spacing" textLength="87" x="1438.5" y="501.2402">&#171;value object&#187;</text><text fill="#000000" font-family="sans-serif" font-size="14" lengthAdjust="spacing" textLength="101" x="1431.5" y="517.0654">PostItPosition</text><line style="stroke:#181818;stroke-width:0.5;" x1="1403.5" x2="1534.5" y1="525.3672" y2="525.3672"/><text fill="#000000" font-family="sans-serif" font-size="14" lengthAdjust="spacing" textLength="52" x="1408.5" y="542.3623">column</text><text fill="#000000" font-family="sans-serif" font-size="14" lengthAdjust="spacing" textLength="26" x="1408.5" y="558.6592">line</text></g><!--class PostItType--><g id="elem_PostItType"><rect codeLine="54" fill="#F1F1F1" height="48.2656" id="PostItType" rx="2.5" ry="2.5" style="stroke:#181818;stroke-width:0.5;" width="115" x="1570.5" y="501.6016"/><ellipse cx="1585.5" cy="521.7344" fill="#FF8B40" rx="11" ry="11" style="stroke:#181818;stroke-width:1.0;"/><path d="M1585.6563,525.2813 L1583.2031,519.5156 L1583.5313,519.5156 C1583.9375,519.5156 1584.0938,519.4844 1584.2344,519.4063 C1584.5,519.25 1584.6406,518.9688 1584.6406,518.6719 C1584.6406,518.4063 1584.5156,518.1406 1584.3125,517.9688 C1584.1406,517.8594 1583.9688,517.8281 1583.5313,517.8281 L1581.2656,517.8281 C1580.8281,517.8281 1580.7031,517.8438 1580.5469,517.9375 C1580.2969,518.0938 1580.1406,518.3906 1580.1406,518.6719 C1580.1406,519.0156 1580.375,519.3594 1580.6719,519.4531 C1580.8281,519.5 1580.9531,519.5156 1581.2969,519.5156 L1584.7344,527.7344 L1586.4219,527.7344 L1589.9063,519.5156 C1590.2656,519.5156 1590.375,519.5 1590.5313,519.4531 C1590.8125,519.3594 1591.0625,519.0156 1591.0625,518.6719 C1591.0625,518.4063 1590.9219,518.1406 1590.7031,517.9688 C1590.5469,517.8594 1590.375,517.8281 1589.9375,517.8281 L1587.6875,517.8281 C1587.25,517.8281 1587.125,517.8438 1586.9844,517.9375 C1586.7188,518.0938 1586.5625,518.3906 1586.5625,518.6719 C1586.5625,518.9531 1586.7031,519.2031 1586.9063,519.375 C1587.0938,519.4844 1587.2344,519.5156 1587.6875,519.5156 L1588.0938,519.5156 L1585.6563,525.2813 Z " fill="#000000"/><text fill="#000000" font-family="sans-serif" font-size="12" font-style="italic" lengthAdjust="spacing" textLength="87" x="1597.5" y="517.7402">&#171;value object&#187;</text><text fill="#000000" font-family="sans-serif" font-size="14" lengthAdjust="spacing" textLength="79" x="1601.5" y="533.5654">PostItType</text><line style="stroke:#181818;stroke-width:0.5;" x1="1571.5" x2="1684.5" y1="541.8672" y2="541.8672"/></g><!--class PostItTimeStamp--><g id="elem_PostItTimeStamp"><rect codeLine="55" fill="#F1F1F1" height="48.2656" id="PostItTimeStamp" rx="2.5" ry="2.5" style="stroke:#181818;stroke-width:0.5;" width="159" x="1720.5" y="501.6016"/><ellipse cx="1735.5" cy="521.7344" fill="#FF8B40" rx="11" ry="11" style="stroke:#181818;stroke-width:1.0;"/><path d="M1735.6563,525.2813 L1733.2031,519.5156 L1733.5313,519.5156 C1733.9375,519.5156 1734.0938,519.4844 1734.2344,519.4063 C1734.5,519.25 1734.6406,518.9688 1734.6406,518.6719 C1734.6406,518.4063 1734.5156,518.1406 1734.3125,517.9688 C1734.1406,517.8594 1733.9688,517.8281 1733.5313,517.8281 L1731.2656,517.8281 C1730.8281,517.8281 1730.7031,517.8438 1730.5469,517.9375 C1730.2969,518.0938 1730.1406,518.3906 1730.1406,518.6719 C1730.1406,519.0156 1730.375,519.3594 1730.6719,519.4531 C1730.8281,519.5 1730.9531,519.5156 1731.2969,519.5156 L1734.7344,527.7344 L1736.4219,527.7344 L1739.9063,519.5156 C1740.2656,519.5156 1740.375,519.5 1740.5313,519.4531 C1740.8125,519.3594 1741.0625,519.0156 1741.0625,518.6719 C1741.0625,518.4063 1740.9219,518.1406 1740.7031,517.9688 C1740.5469,517.8594 1740.375,517.8281 1739.9375,517.8281 L1737.6875,517.8281 C1737.25,517.8281 1737.125,517.8438 1736.9844,517.9375 C1736.7188,518.0938 1736.5625,518.3906 1736.5625,518.6719 C1736.5625,518.9531 1736.7031,519.2031 1736.9063,519.375 C1737.0938,519.4844 1737.2344,519.5156 1737.6875,519.5156 L1738.0938,519.5156 L1735.6563,525.2813 Z " fill="#000000"/><text fill="#000000" font-family="sans-serif" font-size="12" font-style="italic" lengthAdjust="spacing" textLength="87" x="1769.5" y="517.7402">&#171;value object&#187;</text><text fill="#000000" font-family="sans-serif" font-size="14" lengthAdjust="spacing" textLength="127" x="1749.5" y="533.5654">PostItTimeStamp</text><line style="stroke:#181818;stroke-width:0.5;" x1="1721.5" x2="1878.5" y1="541.8672" y2="541.8672"/></g><!--class PostItStatus--><g id="elem_PostItStatus"><rect codeLine="56" fill="#F1F1F1" height="48.2656" id="PostItStatus" rx="2.5" ry="2.5" style="stroke:#181818;stroke-width:0.5;" width="121" x="1914.5" y="501.6016"/><ellipse cx="1929.5" cy="521.7344" fill="#FF8B40" rx="11" ry="11" style="stroke:#181818;stroke-width:1.0;"/><path d="M1929.6563,525.2813 L1927.2031,519.5156 L1927.5313,519.5156 C1927.9375,519.5156 1928.0938,519.4844 1928.2344,519.4063 C1928.5,519.25 1928.6406,518.9688 1928.6406,518.6719 C1928.6406,518.4063 1928.5156,518.1406 1928.3125,517.9688 C1928.1406,517.8594 1927.9688,517.8281 1927.5313,517.8281 L1925.2656,517.8281 C1924.8281,517.8281 1924.7031,517.8438 1924.5469,517.9375 C1924.2969,518.0938 1924.1406,518.3906 1924.1406,518.6719 C1924.1406,519.0156 1924.375,519.3594 1924.6719,519.4531 C1924.8281,519.5 1924.9531,519.5156 1925.2969,519.5156 L1928.7344,527.7344 L1930.4219,527.7344 L1933.9063,519.5156 C1934.2656,519.5156 1934.375,519.5 1934.5313,519.4531 C1934.8125,519.3594 1935.0625,519.0156 1935.0625,518.6719 C1935.0625,518.4063 1934.9219,518.1406 1934.7031,517.9688 C1934.5469,517.8594 1934.375,517.8281 1933.9375,517.8281 L1931.6875,517.8281 C1931.25,517.8281 1931.125,517.8438 1930.9844,517.9375 C1930.7188,518.0938 1930.5625,518.3906 1930.5625,518.6719 C1930.5625,518.9531 1930.7031,519.2031 1930.9063,519.375 C1931.0938,519.4844 1931.2344,519.5156 1931.6875,519.5156 L1932.0938,519.5156 L1929.6563,525.2813 Z " fill="#000000"/><text fill="#000000" font-family="sans-serif" font-size="12" font-style="italic" lengthAdjust="spacing" textLength="87" x="1944.5" y="517.7402">&#171;value object&#187;</text><text fill="#000000" font-family="sans-serif" font-size="14" lengthAdjust="spacing" textLength="89" x="1943.5" y="533.5654">PostItStatus</text><line style="stroke:#181818;stroke-width:0.5;" x1="1915.5" x2="2034.5" y1="541.8672" y2="541.8672"/></g><g id="elem_GMN18"><path d="M1876.5,652.1016 L1876.5,707.5 A0,0 0 0 0 1876.5,707.5 L2035.5,707.5 A0,0 0 0 0 2035.5,707.5 L2035.5,662.1016 L2025.5,652.1016 L1963.33,652.1016 L1972.11,549.6876 L1955.33,652.1016 L1876.5,652.1016 A0,0 0 0 0 1876.5,652.1016 " fill="#FEFFDD" style="stroke:#181818;stroke-width:0.5;"/><path d="M2025.5,652.1016 L2025.5,662.1016 L2035.5,662.1016 L2025.5,652.1016 " fill="#FEFFDD" style="stroke:#181818;stroke-width:0.5;"/><text fill="#000000" font-family="sans-serif" font-size="13" lengthAdjust="spacing" textLength="138" x="1882.5" y="669.1685">Diagrama de estados</text><text fill="#000000" font-family="sans-serif" font-size="13" lengthAdjust="spacing" textLength="108" x="1882.5" y="684.3013">dispon&#237;vel com o</text><text fill="#000000" font-family="sans-serif" font-size="13" lengthAdjust="spacing" textLength="137" x="1882.5" y="699.4341">nome "post-it-status"</text></g><!--class SystemUser--><g id="elem_SystemUser"><rect codeLine="66" fill="#F1F1F1" height="127.4219" id="SystemUser" rx="2.5" ry="2.5" style="stroke:#181818;stroke-width:0.5;" width="118" x="1166" y="462.1016"/><ellipse cx="1181.45" cy="489.2188" fill="#ADD1B2" rx="11" ry="11" style="stroke:#181818;stroke-width:1.0;"/><path d="M1180.2469,490.0938 L1181.7,490.0938 L1181.7,490.2031 C1181.7,490.6094 1181.7313,490.7656 1181.8094,490.9219 C1181.9656,491.1719 1182.2469,491.3281 1182.5438,491.3281 C1182.7938,491.3281 1183.0594,491.1875 1183.2156,490.9688 C1183.3406,490.8125 1183.3719,490.6563 1183.3719,490.2031 L1183.3719,488.2813 C1183.3719,488.125 1183.3719,488.0781 1183.3563,487.9219 C1183.2938,487.4531 1182.9813,487.1406 1182.5281,487.1406 C1182.2781,487.1406 1182.0125,487.2813 1181.8406,487.5 C1181.7313,487.6719 1181.7,487.8281 1181.7,488.2813 L1181.7,488.4063 L1180.2469,488.4063 L1180.2469,486 L1184.2313,486 L1184.2313,486.8594 C1184.2313,487.2656 1184.2625,487.4375 1184.3406,487.5938 C1184.5125,487.8438 1184.7938,488 1185.075,488 C1185.3406,488 1185.6063,487.8594 1185.7781,487.6406 C1185.8875,487.4688 1185.9188,487.3281 1185.9188,486.8594 L1185.9188,484.3125 L1178.2938,484.3125 C1177.8563,484.3125 1177.7313,484.3281 1177.575,484.4219 C1177.325,484.5781 1177.1688,484.875 1177.1688,485.1563 C1177.1688,485.4375 1177.3094,485.6875 1177.5281,485.8594 C1177.6844,485.9688 1177.8719,486 1178.2938,486 L1178.5438,486 L1178.5438,492.5156 L1178.2938,492.5156 C1177.8875,492.5156 1177.7313,492.5313 1177.575,492.6406 C1177.325,492.8125 1177.1688,493.0781 1177.1688,493.375 C1177.1688,493.6406 1177.3094,493.8906 1177.5281,494.0469 C1177.6688,494.1719 1177.9031,494.2188 1178.2938,494.2188 L1186.2938,494.2188 L1186.2938,491.6406 C1186.2938,491.2031 1186.2625,491.0625 1186.1844,490.9063 C1186.0125,490.6563 1185.7313,490.5 1185.45,490.5 C1185.1844,490.5 1184.9188,490.6094 1184.7469,490.8594 C1184.6375,491.0156 1184.6063,491.1563 1184.6063,491.6406 L1184.6063,492.5156 L1180.2469,492.5156 L1180.2469,490.0938 Z " fill="#000000"/><text fill="#000000" font-family="sans-serif" font-size="12" font-style="italic" lengthAdjust="spacing" textLength="49" x="1213.55" y="478.2402">&#171;entity&#187;</text><text fill="#000000" font-family="sans-serif" font-size="12" font-style="italic" lengthAdjust="spacing" textLength="38" x="1219.05" y="492.209">&#171;root&#187;</text><text fill="#000000" font-family="sans-serif" font-size="14" lengthAdjust="spacing" textLength="85" x="1195.55" y="508.0342">SystemUser</text><line style="stroke:#181818;stroke-width:0.5;" x1="1167" x2="1283" y1="516.3359" y2="516.3359"/><text fill="#000000" font-family="sans-serif" font-size="14" lengthAdjust="spacing" textLength="76" x="1172" y="533.3311">createdOn</text><text fill="#000000" font-family="sans-serif" font-size="14" lengthAdjust="spacing" textLength="44" x="1172" y="549.6279">active</text><text fill="#000000" font-family="sans-serif" font-size="14" lengthAdjust="spacing" textLength="106" x="1172" y="565.9248">deactivatedOn</text><text fill="#000000" font-family="sans-serif" font-size="14" lengthAdjust="spacing" textLength="83" x="1172" y="582.2217">resetToken</text></g><!--link PostIt to PostItPosition--><g id="link_PostIt_PostItPosition"><path codeLine="74" d="M1469,363.1636 C1469,396.4866 1469,444.6686 1469,479.7166 " fill="none" id="PostIt-to-PostItPosition" style="stroke:#181818;stroke-width:1.0;"/><polygon fill="#181818" points="1469,484.7886,1473,475.7886,1469,479.7886,1465,475.7886,1469,484.7886" style="stroke:#181818;stroke-width:1.0;"/></g><!--link PostIt to PostItType--><g id="link_PostIt_PostItType"><path codeLine="75" d="M1505.13,363.3196 C1520.34,380.1066 1537.96,400.2106 1553,419.1016 C1573.47,444.8156 1595.03,475.5816 1609.75,497.2346 " fill="none" id="PostIt-to-PostItType" style="stroke:#181818;stroke-width:1.0;"/><polygon fill="#181818" points="1612.6,501.4396,1610.8652,491.7447,1609.7963,497.2996,1604.2413,496.2307,1612.6,501.4396" style="stroke:#181818;stroke-width:1.0;"/></g><!--link PostIt to PostItTimeStamp--><g id="link_PostIt_PostItTimeStamp"><path codeLine="76" d="M1507.61,334.4736 C1556.22,348.1296 1640.86,376.0796 1703,419.1016 C1734.01,440.5686 1762.3,473.5976 1780.22,496.9726 " fill="none" id="PostIt-to-PostItTimeStamp" style="stroke:#181818;stroke-width:1.0;"/><polygon fill="#181818" points="1783.45,501.2196,1781.1985,491.6315,1780.4286,497.2357,1774.8244,496.4658,1783.45,501.2196" style="stroke:#181818;stroke-width:1.0;"/></g><!--link PostIt to PostItStatus--><g id="link_PostIt_PostItStatus"><path codeLine="77" d="M1507.59,324.3546 C1587,325.6126 1771.74,337.7956 1897,419.1016 C1926.38,438.1686 1948.6,472.3876 1961.67,496.6806 " fill="none" id="PostIt-to-PostItStatus" style="stroke:#181818;stroke-width:1.0;"/><polygon fill="#181818" points="1964.16,501.3986,1963.4888,491.5726,1961.8227,496.9785,1956.4168,495.3123,1964.16,501.3986" style="stroke:#181818;stroke-width:1.0;"/></g><!--link PostIt to PostIt--><g id="link_PostIt_PostIt"><path codeLine="78" d="M1507.57,309.3336 C1526.12,307.5726 1542.5,312.3286 1542.5,323.6016 C1542.5,333.8186 1529.05,338.6816 1512.72,338.1936 " fill="none" id="PostIt-to-PostIt" style="stroke:#181818;stroke-width:1.0;"/><polygon fill="#181818" points="1507.57,337.8696,1516.3008,342.4274,1512.5601,338.1839,1516.8036,334.4432,1507.57,337.8696" style="stroke:#181818;stroke-width:1.0;"/><polygon fill="#000000" points="1547.0275,328.6456,1550.8081,319.9187,1544.9565,319.3632,1547.0275,328.6456" style="stroke:#000000;stroke-width:1.0;"/><text fill="#000000" font-family="sans-serif" font-size="13" lengthAdjust="spacing" textLength="59" x="1561.5" y="328.1685">precedes</text><text fill="#000000" font-family="sans-serif" font-size="13" lengthAdjust="spacing" textLength="8" x="1515.4188" y="302.4424">1</text><text fill="#000000" font-family="sans-serif" font-size="13" lengthAdjust="spacing" textLength="8" x="1515.4188" y="336.2398">1</text></g><!--link PostIt to SystemUser--><g id="link_PostIt_SystemUser"><path codeLine="79" d="M1430.34,330.1536 C1368.74,339.8696 1252.72,362.0226 1228,394.1016 C1214.49,411.6346 1210.85,434.7846 1211.52,456.7136 " fill="none" id="PostIt-to-SystemUser" style="stroke:#181818;stroke-width:1.0;"/><polygon fill="#181818" points="1211.76,461.9606,1215.3422,452.7863,1211.5302,456.9658,1207.3507,453.1539,1211.76,461.9606" style="stroke:#181818;stroke-width:1.0;"/><polygon fill="#000000" points="1228.6718,405.1713,1237.973,403.1868,1235.0302,398.0987,1228.6718,405.1713" style="stroke:#000000;stroke-width:1.0;"/><text fill="#000000" font-family="sans-serif" font-size="13" lengthAdjust="spacing" textLength="81" x="1242" y="407.1685">managed by</text><text fill="#000000" font-family="sans-serif" font-size="13" lengthAdjust="spacing" textLength="23" x="1399.3458" y="327.1173">0..*</text><text fill="#000000" font-family="sans-serif" font-size="13" lengthAdjust="spacing" textLength="23" x="1211.5697" y="451.2306">1..*</text></g><!--link PostIt to SystemUser--><g id="link_PostIt_SystemUser"><path codeLine="80" d="M1430.42,348.2756 C1410.36,361.1006 1385.77,377.6556 1365,394.1016 C1338.67,414.9526 1311.3,439.6856 1287.82,461.9836 " fill="none" id="PostIt-to-SystemUser-1" style="stroke:#181818;stroke-width:1.0;"/><polygon fill="#181818" points="1284.09,465.5406,1293.3688,462.2384,1287.7137,462.0955,1287.8567,456.4405,1284.09,465.5406" style="stroke:#181818;stroke-width:1.0;"/><polygon fill="#000000" points="1366.0907,405.7852,1374.995,402.4439,1371.3304,397.8482,1366.0907,405.7852" style="stroke:#000000;stroke-width:1.0;"/><text fill="#000000" font-family="sans-serif" font-size="13" lengthAdjust="spacing" textLength="81" x="1379" y="407.1685">managed by</text><text fill="#000000" font-family="sans-serif" font-size="13" lengthAdjust="spacing" textLength="23" x="1399.4385" y="348.1275">0..*</text><text fill="#000000" font-family="sans-serif" font-size="13" lengthAdjust="spacing" textLength="23" x="1291.8108" y="455.2022">1..*</text></g><!--link Board to BoardDimensions--><g id="link_Board_BoardDimensions"><path codeLine="83" d="M712.311,147.0996 C651.326,160.0086 530.387,190.0786 439,241.1016 C420.346,251.5166 401.946,265.8546 386.323,279.6046 " fill="none" id="Board-to-BoardDimensions" style="stroke:#181818;stroke-width:1.0;"/><polygon fill="#181818" points="382.412,283.0846,391.7945,280.0898,386.1472,279.7607,386.4763,274.1134,382.412,283.0846" style="stroke:#181818;stroke-width:1.0;"/></g><!--link Board to BoardCreationDateTime--><g id="link_Board_BoardCreationDateTime"><path codeLine="84" d="M712.197,142.2206 C625.606,149.1606 411.304,172.4576 247,241.1016 C218.949,252.8206 190.602,271.4676 168.404,287.9686 " fill="none" id="Board-to-BoardCreationDateTime" style="stroke:#181818;stroke-width:1.0;"/><polygon fill="#181818" points="164.332,291.0226,173.932,288.8226,168.332,288.0226,169.132,282.4226,164.332,291.0226" style="stroke:#181818;stroke-width:1.0;"/></g><!--link Board to BoardElementLine--><g id="link_Board_BoardElementLine"><path codeLine="85" d="M712.116,173.1666 C671.172,208.5096 607.534,263.4426 569.889,295.9376 " fill="none" id="Board-to-BoardElementLine" style="stroke:#181818;stroke-width:1.0;"/><polygon fill="#181818" points="565.88,299.3986,575.3064,296.5449,569.6647,296.1311,570.0784,290.4894,565.88,299.3986" style="stroke:#181818;stroke-width:1.0;"/><polygon fill="#000000" points="659.2151,227.9351,667.9825,224.2495,664.1417,219.8001,659.2151,227.9351" style="stroke:#000000;stroke-width:1.0;"/><text fill="#000000" font-family="sans-serif" font-size="13" lengthAdjust="spacing" textLength="23" x="672" y="229.1685">has</text><text fill="#000000" font-family="sans-serif" font-size="13" lengthAdjust="spacing" textLength="8" x="696.4773" y="175.0815">1</text><text fill="#000000" font-family="sans-serif" font-size="13" lengthAdjust="spacing" textLength="23" x="546.6289" y="288.7217">1..*</text></g><!--link Board to BoardElementColumn--><g id="link_Board_BoardElementColumn"><path codeLine="86" d="M751,186.2536 C751,220.3476 751,265.4786 751,294.2846 " fill="none" id="Board-to-BoardElementColumn" style="stroke:#181818;stroke-width:1.0;"/><polygon fill="#181818" points="751,299.4666,755,290.4666,751,294.4666,747,290.4666,751,299.4666" style="stroke:#181818;stroke-width:1.0;"/><polygon fill="#000000" points="756,229.668,758.9389,220.6229,753.0611,220.6229,756,229.668" style="stroke:#000000;stroke-width:1.0;"/><text fill="#000000" font-family="sans-serif" font-size="13" lengthAdjust="spacing" textLength="23" x="765" y="229.1685">has</text><text fill="#000000" font-family="sans-serif" font-size="13" lengthAdjust="spacing" textLength="8" x="742.4375" y="206.0976">1</text><text fill="#000000" font-family="sans-serif" font-size="13" lengthAdjust="spacing" textLength="23" x="725.0531" y="288.41">1..*</text></g><!--link Board to BoardMember--><g id="link_Board_BoardMember"><path codeLine="87" d="M789.548,167.5946 C831.171,197.8206 897.919,246.2926 945.692,280.9846 " fill="none" id="Board-to-BoardMember" style="stroke:#181818;stroke-width:1.0;"/><polygon fill="#181818" points="949.964,284.0876,945.0329,275.5621,945.9185,281.1492,940.3314,282.0348,949.964,284.0876" style="stroke:#181818;stroke-width:1.0;"/><polygon fill="#000000" points="886.0458,227.606,880.4538,219.913,877,224.6691,886.0458,227.606" style="stroke:#000000;stroke-width:1.0;"/><text fill="#000000" font-family="sans-serif" font-size="13" lengthAdjust="spacing" textLength="23" x="891" y="229.1685">has</text><text fill="#000000" font-family="sans-serif" font-size="13" lengthAdjust="spacing" textLength="8" x="797.3928" y="168.6523">1</text><text fill="#000000" font-family="sans-serif" font-size="13" lengthAdjust="spacing" textLength="23" x="915.8719" y="273.1256">1..*</text></g><!--link Board to PostIt--><g id="link_Board_PostIt"><path codeLine="88" d="M789.511,143.6596 C867.581,152.4366 1049.67,175.7216 1198,216.1016 C1228.27,224.3406 1234.76,229.7516 1264,241.1016 C1319.87,262.7856 1384.02,288.4096 1425.47,305.0566 " fill="none" id="Board-to-PostIt" style="stroke:#181818;stroke-width:1.0;"/><polygon fill="#181818" points="1430.16,306.9396,1423.3095,299.8635,1425.523,305.0693,1420.3171,307.2828,1430.16,306.9396" style="stroke:#181818;stroke-width:1.0;"/><polygon fill="#000000" points="1253.8464,225.8979,1245.8021,220.8243,1244.3563,226.5216,1253.8464,225.8979" style="stroke:#000000;stroke-width:1.0;"/><text fill="#000000" font-family="sans-serif" font-size="13" lengthAdjust="spacing" textLength="23" x="1258" y="229.1685">has</text><text fill="#000000" font-family="sans-serif" font-size="13" lengthAdjust="spacing" textLength="8" x="797.6147" y="140.29">1</text><text fill="#000000" font-family="sans-serif" font-size="13" lengthAdjust="spacing" textLength="23" x="1399.4517" y="300.3527">0..*</text></g><!--link Board to SystemUser--><g id="link_Board_SystemUser"><path codeLine="89" d="M789.681,140.6266 C859.71,144.4806 1008.6,162.1086 1099,241.1016 C1163.23,297.2316 1196.21,392.4146 1212.03,456.8486 " fill="none" id="Board-to-SystemUser" style="stroke:#181818;stroke-width:1.0;"/><polygon fill="#181818" points="1213.23,461.8206,1215.0095,452.1338,1212.0583,456.9598,1207.2323,454.0086,1213.23,461.8206" style="stroke:#181818;stroke-width:1.0;"/><polygon fill="#000000" points="1191.0025,326.6647,1185.5234,318.891,1182.0005,323.5962,1191.0025,326.6647" style="stroke:#000000;stroke-width:1.0;"/><text fill="#000000" font-family="sans-serif" font-size="13" lengthAdjust="spacing" textLength="69" x="1196" y="328.1685">created by</text><text fill="#000000" font-family="sans-serif" font-size="13" lengthAdjust="spacing" textLength="23" x="797.365" y="154.1753">0..*</text><text fill="#000000" font-family="sans-serif" font-size="13" lengthAdjust="spacing" textLength="8" x="1203.5052" y="451.0753">1</text></g><!--link BoardElementLine to BoardElement--><g id="link_BoardElementLine_BoardElement"><path codeLine="90" d="M551.25,347.9356 C567.539,378.9616 596.747,434.5956 618.045,475.1636 " fill="none" id="BoardElementLine-to-BoardElement" style="stroke:#181818;stroke-width:1.0;"/><polygon fill="none" points="624.244,471.9116,627.343,492.8726,611.848,478.4186,624.244,471.9116" style="stroke:#181818;stroke-width:1.0;"/></g><!--link BoardElementColumn to BoardElement--><g id="link_BoardElementColumn_BoardElement"><path codeLine="91" d="M738.516,347.9356 C721.917,378.9616 692.153,434.5956 670.449,475.1636 " fill="none" id="BoardElementColumn-to-BoardElement" style="stroke:#181818;stroke-width:1.0;"/><polygon fill="none" points="676.582,478.5406,660.975,492.8726,664.237,471.9356,676.582,478.5406" style="stroke:#181818;stroke-width:1.0;"/></g><!--link BoardMember to AccessPermission--><g id="link_BoardMember_AccessPermission"><path codeLine="93" d="M1003,363.1636 C1003,402.0606 1003,461.2046 1003,496.0706 " fill="none" id="BoardMember-to-AccessPermission" style="stroke:#181818;stroke-width:1.0;"/><polygon fill="#181818" points="1003,501.4516,1007,492.4516,1003,496.4516,999,492.4516,1003,501.4516" style="stroke:#181818;stroke-width:1.0;"/></g><!--link BoardMember to SystemUser--><g id="link_BoardMember_SystemUser"><path codeLine="96" d="M1045.8,363.1636 C1078.75,392.8436 1124.78,434.3126 1161.94,467.7886 " fill="none" id="BoardMember-to-SystemUser" style="stroke:#181818;stroke-width:1.0;"/><polygon fill="#181818" points="1165.96,471.4156,1161.9445,462.4225,1162.2429,468.0714,1156.5939,468.3698,1165.96,471.4156" style="stroke:#181818;stroke-width:1.0;"/><polygon fill="#000000" points="1103.7149,406.0145,1098.9617,397.777,1095.0275,402.1441,1103.7149,406.0145" style="stroke:#000000;stroke-width:1.0;"/><text fill="#000000" font-family="sans-serif" font-size="13" lengthAdjust="spacing" textLength="23" x="1109" y="407.1685">has</text><text fill="#000000" font-family="sans-serif" font-size="13" lengthAdjust="spacing" textLength="23" x="1027.7884" y="382.7789">0..*</text><text fill="#000000" font-family="sans-serif" font-size="13" lengthAdjust="spacing" textLength="23" x="1134.8038" y="461.3333">1..*</text></g><!--SRC=[dLNRZjCm47ttLrZbWOleKX18g8eYxMwfj18hLchXtOr7hRUn7SMJeWBxINm5FyR4JfeqRJOBUMYIcUEvd3EPeiquMhwoY5PpgN98K5d3cDigaubSQ8uAKvXRWmlr0_Yx3ymRU5J4Cwk5ClpMIaYZDqNCs4P9u1fmOwLhXKXIuTmbOgvM1S9DOesFDM6CFR-o8fSi4ybMh86FeaYirpci1K8SS-ySyP-CqmM6Ck-3ZKTHU2LG5ENM8Zq4M7dv4Wzl8aysQWVI6nwOl_cIGgph74JPz8noBfMcrg8NtrxpP_FvnwltavTy9z82k5tT4pT7MMHre2VkZ5p6KM3tv8YcqDSsBRHnRTDdPS2ramJIFgL02T1RnCfXBXBaRG-bhUqzx5JnsinMPykSBPBxOA7QDl2XrlGMz0hoHvKDa7Fw1i-0olUMYfIbRASAN2O9E7S7kLQkrE1n2NpLTzRX3VOL7BoTMeDne4mQTwnrUcYL60xJhyB10e_2bPGVNbFYuBJz47kvpmQc-VG83Uq2XSx-yHoTmS8zuP2n2DM-EVGmKs9DUq9msXxWK4ZRpBzKBhFcp-yTfDIwvhRvCYnzgwECqeyLZfqlO5If8tqUB-jYxn3qLzS_YmsY8s_Z69AuN24WlpIoq3T7AwVf0hoX0yh10Ixj5anPAQkcQIpjTpEEE_DntbigtEEfXJpl3dhLlj7R4H-JhxnNfYdFwCy093WU7s2JYujNDT8_jXYQSYqCiIlvQlz_HnWBkxskjBD5ptcxkxl2DFtub2UBRSeteknh45tjjs5yjR1wW8640xD7c3P17NQgiGhid3GHYFWL7nNCpbH_7iZQTTUaTjScEuODgEdx-Wi0]--></g></svg>