<?xml version="1.0" encoding="us-ascii" standalone="no"?><svg xmlns="http://www.w3.org/2000/svg" xmlns:xlink="http://www.w3.org/1999/xlink" contentStyleType="text/css" height="743px" preserveAspectRatio="none" style="width:1799px;height:743px;background:#FFFFFF;" version="1.1" viewBox="0 0 1799 743" width="1799px" zoomAndPan="magnify"><defs/><g><text fill="#000000" font-family="sans-serif" font-size="14" font-weight="bold" lengthAdjust="spacing" textLength="270" x="766" y="27.9951">Sequence Diagram (SD) - US 3009</text><rect fill="#FFFFFF" height="500.2578" style="stroke:#181818;stroke-width:1.0;" width="10" x="37" y="130.8906"/><rect fill="#FFFFFF" height="479.125" style="stroke:#181818;stroke-width:1.0;" width="10" x="515" y="152.0234"/><rect fill="#FFFFFF" height="29.1328" style="stroke:#181818;stroke-width:1.0;" width="10" x="971" y="210.2891"/><rect fill="#FFFFFF" height="203.9297" style="stroke:#181818;stroke-width:1.0;" width="10" x="971" y="398.0859"/><rect fill="#FFFFFF" height="29.1328" style="stroke:#181818;stroke-width:1.0;" width="10" x="1262" y="239.4219"/><rect fill="#FFFFFF" height="145.6641" style="stroke:#181818;stroke-width:1.0;" width="10" x="1262" y="427.2188"/><line style="stroke:#181818;stroke-width:0.5;stroke-dasharray:5.0,5.0;" x1="42" x2="42" y1="120.8906" y2="649.1484"/><line style="stroke:#181818;stroke-width:0.5;stroke-dasharray:5.0,5.0;" x1="519.5" x2="519.5" y1="120.8906" y2="649.1484"/><line style="stroke:#181818;stroke-width:0.5;stroke-dasharray:5.0,5.0;" x1="975.5" x2="975.5" y1="120.8906" y2="649.1484"/><line style="stroke:#181818;stroke-width:0.5;stroke-dasharray:5.0,5.0;" x1="1267" x2="1267" y1="120.8906" y2="649.1484"/><line style="stroke:#181818;stroke-width:0.5;stroke-dasharray:5.0,5.0;" x1="1458" x2="1458" y1="120.8906" y2="649.1484"/><line style="stroke:#181818;stroke-width:0.5;stroke-dasharray:5.0,5.0;" x1="1597" x2="1597" y1="120.8906" y2="649.1484"/><line style="stroke:#181818;stroke-width:0.5;stroke-dasharray:5.0,5.0;" x1="1734" x2="1734" y1="120.8906" y2="649.1484"/><text fill="#000000" font-family="sans-serif" font-size="14" lengthAdjust="spacing" textLength="68" x="5" y="117.5889">Utilizador</text><ellipse cx="42" cy="53.0938" fill="#E3E3E3" rx="8" ry="8" style="stroke:#181818;stroke-width:0.5;"/><path d="M42,61.0938 L42,88.0938 M29,69.0938 L55,69.0938 M42,88.0938 L29,103.0938 M42,88.0938 L55,103.0938 " fill="none" style="stroke:#181818;stroke-width:0.5;"/><text fill="#000000" font-family="sans-serif" font-size="14" lengthAdjust="spacing" textLength="68" x="5" y="661.1436">Utilizador</text><ellipse cx="42" cy="672.9453" fill="#E3E3E3" rx="8" ry="8" style="stroke:#181818;stroke-width:0.5;"/><path d="M42,680.9453 L42,707.9453 M29,688.9453 L55,688.9453 M42,707.9453 L29,722.9453 M42,707.9453 L55,722.9453 " fill="none" style="stroke:#181818;stroke-width:0.5;"/><rect fill="#E3E3E3" height="46.5938" rx="2.5" ry="2.5" style="stroke:#181818;stroke-width:0.5;" width="213" x="413.5" y="73.2969"/><text fill="#000000" font-family="sans-serif" font-size="14" font-style="italic" lengthAdjust="spacing" textLength="108" x="466" y="93.292">&#171;presentation&#187;</text><text fill="#000000" font-family="sans-serif" font-size="14" lengthAdjust="spacing" textLength="199" x="420.5" y="109.5889">ViewBoardUpdatesHistoryUI</text><rect fill="#E3E3E3" height="46.5938" rx="2.5" ry="2.5" style="stroke:#181818;stroke-width:0.5;" width="213" x="413.5" y="648.1484"/><text fill="#000000" font-family="sans-serif" font-size="14" font-style="italic" lengthAdjust="spacing" textLength="108" x="466" y="668.1436">&#171;presentation&#187;</text><text fill="#000000" font-family="sans-serif" font-size="14" lengthAdjust="spacing" textLength="199" x="420.5" y="684.4404">ViewBoardUpdatesHistoryUI</text><text fill="#000000" font-family="sans-serif" font-size="14" font-style="italic" lengthAdjust="spacing" textLength="97" x="924.5" y="101.292">&#171;application&#187;</text><text fill="#000000" font-family="sans-serif" font-size="14" lengthAdjust="spacing" textLength="259" x="843.5" y="117.5889">ViewBoardUpdatesHistoryController</text><ellipse cx="976" cy="72.2969" fill="#E3E3E3" rx="12" ry="12" style="stroke:#181818;stroke-width:0.5;"/><polygon fill="#181818" points="972,60.2969,978,55.2969,976,60.2969,978,65.2969,972,60.2969" style="stroke:#181818;stroke-width:1.0;"/><text fill="#000000" font-family="sans-serif" font-size="14" font-style="italic" lengthAdjust="spacing" textLength="97" x="924.5" y="661.1436">&#171;application&#187;</text><text fill="#000000" font-family="sans-serif" font-size="14" lengthAdjust="spacing" textLength="259" x="843.5" y="677.4404">ViewBoardUpdatesHistoryController</text><ellipse cx="976" cy="696.7422" fill="#E3E3E3" rx="12" ry="12" style="stroke:#181818;stroke-width:0.5;"/><polygon fill="#181818" points="972,684.7422,978,679.7422,976,684.7422,978,689.7422,972,684.7422" style="stroke:#181818;stroke-width:1.0;"/><rect fill="#E3E3E3" height="46.5938" rx="2.5" ry="2.5" style="stroke:#181818;stroke-width:0.5;" width="232" x="1151" y="73.2969"/><text fill="#000000" font-family="sans-serif" font-size="14" font-style="italic" lengthAdjust="spacing" textLength="100" x="1217" y="93.292">&#171;csvprotocol&#187;</text><text fill="#000000" font-family="sans-serif" font-size="14" lengthAdjust="spacing" textLength="218" x="1158" y="109.5889">CsvSharedBoardProtocolProxy</text><rect fill="#E3E3E3" height="46.5938" rx="2.5" ry="2.5" style="stroke:#181818;stroke-width:0.5;" width="232" x="1151" y="648.1484"/><text fill="#000000" font-family="sans-serif" font-size="14" font-style="italic" lengthAdjust="spacing" textLength="100" x="1217" y="668.1436">&#171;csvprotocol&#187;</text><text fill="#000000" font-family="sans-serif" font-size="14" lengthAdjust="spacing" textLength="218" x="1158" y="684.4404">CsvSharedBoardProtocolProxy</text><rect fill="#E3E3E3" height="46.5938" rx="2.5" ry="2.5" style="stroke:#181818;stroke-width:0.5;" width="130" x="1393" y="73.2969"/><text fill="#000000" font-family="sans-serif" font-size="14" font-style="italic" lengthAdjust="spacing" textLength="72" x="1422" y="93.292">&#171;domain&#187;</text><text fill="#000000" font-family="sans-serif" font-size="14" lengthAdjust="spacing" textLength="116" x="1400" y="109.5889">thePostIt:PostIt</text><rect fill="#E3E3E3" height="46.5938" rx="2.5" ry="2.5" style="stroke:#181818;stroke-width:0.5;" width="130" x="1393" y="648.1484"/><text fill="#000000" font-family="sans-serif" font-size="14" font-style="italic" lengthAdjust="spacing" textLength="72" x="1422" y="668.1436">&#171;domain&#187;</text><text fill="#000000" font-family="sans-serif" font-size="14" lengthAdjust="spacing" textLength="116" x="1400" y="684.4404">thePostIt:PostIt</text><rect fill="#E3E3E3" height="46.5938" rx="2.5" ry="2.5" style="stroke:#181818;stroke-width:0.5;" width="128" x="1533" y="73.2969"/><text fill="#000000" font-family="sans-serif" font-size="14" font-style="italic" lengthAdjust="spacing" textLength="72" x="1561" y="93.292">&#171;domain&#187;</text><text fill="#000000" font-family="sans-serif" font-size="14" lengthAdjust="spacing" textLength="114" x="1540" y="109.5889">theBoard:Board</text><rect fill="#E3E3E3" height="46.5938" rx="2.5" ry="2.5" style="stroke:#181818;stroke-width:0.5;" width="128" x="1533" y="648.1484"/><text fill="#000000" font-family="sans-serif" font-size="14" font-style="italic" lengthAdjust="spacing" textLength="72" x="1561" y="668.1436">&#171;domain&#187;</text><text fill="#000000" font-family="sans-serif" font-size="14" lengthAdjust="spacing" textLength="114" x="1540" y="684.4404">theBoard:Board</text><text fill="#000000" font-family="sans-serif" font-size="14" font-style="italic" lengthAdjust="spacing" textLength="90" x="1686.5" y="101.292">&#171;repository&#187;</text><text fill="#000000" font-family="sans-serif" font-size="14" lengthAdjust="spacing" textLength="121" x="1671" y="117.5889">BoardRepository</text><path d="M1716.5,52.2969 C1716.5,42.2969 1734.5,42.2969 1734.5,42.2969 C1734.5,42.2969 1752.5,42.2969 1752.5,52.2969 L1752.5,78.2969 C1752.5,88.2969 1734.5,88.2969 1734.5,88.2969 C1734.5,88.2969 1716.5,88.2969 1716.5,78.2969 L1716.5,52.2969 " fill="#E3E3E3" style="stroke:#181818;stroke-width:1.5;"/><path d="M1716.5,52.2969 C1716.5,62.2969 1734.5,62.2969 1734.5,62.2969 C1734.5,62.2969 1752.5,62.2969 1752.5,52.2969 " fill="none" style="stroke:#181818;stroke-width:1.5;"/><text fill="#000000" font-family="sans-serif" font-size="14" font-style="italic" lengthAdjust="spacing" textLength="90" x="1686.5" y="661.1436">&#171;repository&#187;</text><text fill="#000000" font-family="sans-serif" font-size="14" lengthAdjust="spacing" textLength="121" x="1671" y="677.4404">BoardRepository</text><path d="M1716.5,690.7422 C1716.5,680.7422 1734.5,680.7422 1734.5,680.7422 C1734.5,680.7422 1752.5,680.7422 1752.5,690.7422 L1752.5,716.7422 C1752.5,726.7422 1734.5,726.7422 1734.5,726.7422 C1734.5,726.7422 1716.5,726.7422 1716.5,716.7422 L1716.5,690.7422 " fill="#E3E3E3" style="stroke:#181818;stroke-width:1.5;"/><path d="M1716.5,690.7422 C1716.5,700.7422 1734.5,700.7422 1734.5,700.7422 C1734.5,700.7422 1752.5,700.7422 1752.5,690.7422 " fill="none" style="stroke:#181818;stroke-width:1.5;"/><rect fill="#FFFFFF" height="500.2578" style="stroke:#181818;stroke-width:1.0;" width="10" x="37" y="130.8906"/><rect fill="#FFFFFF" height="479.125" style="stroke:#181818;stroke-width:1.0;" width="10" x="515" y="152.0234"/><rect fill="#FFFFFF" height="29.1328" style="stroke:#181818;stroke-width:1.0;" width="10" x="971" y="210.2891"/><rect fill="#FFFFFF" height="203.9297" style="stroke:#181818;stroke-width:1.0;" width="10" x="971" y="398.0859"/><rect fill="#FFFFFF" height="29.1328" style="stroke:#181818;stroke-width:1.0;" width="10" x="1262" y="239.4219"/><rect fill="#FFFFFF" height="145.6641" style="stroke:#181818;stroke-width:1.0;" width="10" x="1262" y="427.2188"/><polygon fill="#181818" points="503,148.0234,513,152.0234,503,156.0234,507,152.0234" style="stroke:#181818;stroke-width:1.0;"/><line style="stroke:#181818;stroke-width:1.0;" x1="47" x2="509" y1="152.0234" y2="152.0234"/><text fill="#000000" font-family="sans-serif" font-size="13" font-weight="bold" lengthAdjust="spacing" textLength="9" x="54" y="146.9575">1</text><text fill="#000000" font-family="sans-serif" font-size="13" lengthAdjust="spacing" textLength="358" x="67" y="146.9575">Pede para ver o hist&#243;rico de atualiza&#231;&#245;es de uma board</text><polygon fill="#181818" points="964,177.1563,974,181.1563,964,185.1563,968,181.1563" style="stroke:#181818;stroke-width:1.0;"/><line style="stroke:#181818;stroke-width:1.0;" x1="525" x2="970" y1="181.1563" y2="181.1563"/><text fill="#000000" font-family="sans-serif" font-size="13" font-weight="bold" lengthAdjust="spacing" textLength="9" x="532" y="176.0903">2</text><text fill="#000000" font-family="sans-serif" font-size="13" lengthAdjust="spacing" textLength="41" x="545" y="176.0903">create</text><polygon fill="#181818" points="959,206.2891,969,210.2891,959,214.2891,963,210.2891" style="stroke:#181818;stroke-width:1.0;"/><line style="stroke:#181818;stroke-width:1.0;" x1="525" x2="965" y1="210.2891" y2="210.2891"/><text fill="#000000" font-family="sans-serif" font-size="13" font-weight="bold" lengthAdjust="spacing" textLength="8" x="532" y="205.2231">3</text><text fill="#000000" font-family="sans-serif" font-size="13" lengthAdjust="spacing" textLength="163" x="544" y="205.2231">allBoards = listAllBoards()</text><polygon fill="#181818" points="1250,235.4219,1260,239.4219,1250,243.4219,1254,239.4219" style="stroke:#181818;stroke-width:1.0;"/><line style="stroke:#181818;stroke-width:1.0;" x1="976" x2="1256" y1="239.4219" y2="239.4219"/><text fill="#000000" font-family="sans-serif" font-size="13" font-weight="bold" lengthAdjust="spacing" textLength="9" x="983" y="234.356">4</text><text fill="#000000" font-family="sans-serif" font-size="13" lengthAdjust="spacing" textLength="144" x="996" y="234.356">getAllBoardsOfAUSer()</text><polygon fill="#181818" points="1722.5,264.5547,1732.5,268.5547,1722.5,272.5547,1726.5,268.5547" style="stroke:#181818;stroke-width:1.0;"/><line style="stroke:#181818;stroke-width:1.0;" x1="1267" x2="1728.5" y1="268.5547" y2="268.5547"/><text fill="#000000" font-family="sans-serif" font-size="13" font-weight="bold" lengthAdjust="spacing" textLength="9" x="1274" y="263.4888">5</text><text fill="#000000" font-family="sans-serif" font-size="13" lengthAdjust="spacing" textLength="158" x="1287" y="263.4888">findAllBoards(username)</text><line style="stroke:#181818;stroke-width:1.0;" x1="525" x2="567" y1="297.6875" y2="297.6875"/><line style="stroke:#181818;stroke-width:1.0;" x1="567" x2="567" y1="297.6875" y2="310.6875"/><line style="stroke:#181818;stroke-width:1.0;" x1="526" x2="567" y1="310.6875" y2="310.6875"/><polygon fill="#181818" points="536,306.6875,526,310.6875,536,314.6875,532,310.6875" style="stroke:#181818;stroke-width:1.0;"/><text fill="#000000" font-family="sans-serif" font-size="13" font-weight="bold" lengthAdjust="spacing" textLength="9" x="532" y="292.6216">6</text><text fill="#000000" font-family="sans-serif" font-size="13" lengthAdjust="spacing" textLength="228" x="545" y="292.6216">Mostra a lista de boards dispon&#237;veis</text><polygon fill="#181818" points="58,335.8203,48,339.8203,58,343.8203,54,339.8203" style="stroke:#181818;stroke-width:1.0;"/><line style="stroke:#181818;stroke-width:1.0;stroke-dasharray:2.0,2.0;" x1="52" x2="514" y1="339.8203" y2="339.8203"/><text fill="#000000" font-family="sans-serif" font-size="13" font-weight="bold" lengthAdjust="spacing" textLength="9" x="64" y="334.7544">7</text><text fill="#000000" font-family="sans-serif" font-size="13" lengthAdjust="spacing" textLength="176" x="77" y="334.7544">Pede para escolher a board</text><polygon fill="#181818" points="503,364.9531,513,368.9531,503,372.9531,507,368.9531" style="stroke:#181818;stroke-width:1.0;"/><line style="stroke:#181818;stroke-width:1.0;" x1="47" x2="509" y1="368.9531" y2="368.9531"/><text fill="#000000" font-family="sans-serif" font-size="13" font-weight="bold" lengthAdjust="spacing" textLength="9" x="54" y="363.8872">8</text><text fill="#000000" font-family="sans-serif" font-size="13" lengthAdjust="spacing" textLength="431" x="67" y="363.8872">Seleciona a board que pretende receber o hist&#243;rico de atualiza&#231;&#245;es</text><polygon fill="#181818" points="959,394.0859,969,398.0859,959,402.0859,963,398.0859" style="stroke:#181818;stroke-width:1.0;"/><line style="stroke:#181818;stroke-width:1.0;" x1="525" x2="965" y1="398.0859" y2="398.0859"/><text fill="#000000" font-family="sans-serif" font-size="13" font-weight="bold" lengthAdjust="spacing" textLength="9" x="532" y="393.02">9</text><text fill="#000000" font-family="sans-serif" font-size="13" lengthAdjust="spacing" textLength="414" x="545" y="393.02">boardUpdateHistoryData = showBoardUpdatesHistory(theBoard)</text><polygon fill="#181818" points="1250,423.2188,1260,427.2188,1250,431.2188,1254,427.2188" style="stroke:#181818;stroke-width:1.0;"/><line style="stroke:#181818;stroke-width:1.0;" x1="981" x2="1256" y1="427.2188" y2="427.2188"/><text fill="#000000" font-family="sans-serif" font-size="13" font-weight="bold" lengthAdjust="spacing" textLength="19" x="988" y="422.1528">10</text><text fill="#000000" font-family="sans-serif" font-size="13" lengthAdjust="spacing" textLength="239" x="1011" y="422.1528">viewBoardUpdatesHistory(boardTitle)</text><polygon fill="#181818" points="1722.5,452.3516,1732.5,456.3516,1722.5,460.3516,1726.5,456.3516" style="stroke:#181818;stroke-width:1.0;"/><line style="stroke:#181818;stroke-width:1.0;" x1="1272" x2="1728.5" y1="456.3516" y2="456.3516"/><text fill="#000000" font-family="sans-serif" font-size="13" font-weight="bold" lengthAdjust="spacing" textLength="18" x="1279" y="451.2856">11</text><text fill="#000000" font-family="sans-serif" font-size="13" lengthAdjust="spacing" textLength="404" x="1301" y="451.2856">theBoard = findBoardWithBoardMembersAndPostIts(boardTitle)</text><polygon fill="#181818" points="1585,481.4844,1595,485.4844,1585,489.4844,1589,485.4844" style="stroke:#181818;stroke-width:1.0;"/><line style="stroke:#181818;stroke-width:1.0;" x1="1272" x2="1591" y1="485.4844" y2="485.4844"/><text fill="#000000" font-family="sans-serif" font-size="13" font-weight="bold" lengthAdjust="spacing" textLength="18" x="1279" y="480.4185">12</text><text fill="#000000" font-family="sans-serif" font-size="13" lengthAdjust="spacing" textLength="132" x="1301" y="480.4185">boardCreationData()</text><polygon fill="#181818" points="1585,510.6172,1595,514.6172,1585,518.6172,1589,514.6172" style="stroke:#181818;stroke-width:1.0;"/><line style="stroke:#181818;stroke-width:1.0;" x1="1272" x2="1591" y1="514.6172" y2="514.6172"/><text fill="#000000" font-family="sans-serif" font-size="13" font-weight="bold" lengthAdjust="spacing" textLength="17" x="1279" y="509.5513">13</text><text fill="#000000" font-family="sans-serif" font-size="13" lengthAdjust="spacing" textLength="117" x="1300" y="509.5513">membersHistory()</text><polygon fill="#181818" points="1585,539.75,1595,543.75,1585,547.75,1589,543.75" style="stroke:#181818;stroke-width:1.0;"/><line style="stroke:#181818;stroke-width:1.0;" x1="1272" x2="1591" y1="543.75" y2="543.75"/><text fill="#000000" font-family="sans-serif" font-size="13" font-weight="bold" lengthAdjust="spacing" textLength="18" x="1279" y="538.6841">14</text><text fill="#000000" font-family="sans-serif" font-size="13" lengthAdjust="spacing" textLength="98" x="1301" y="538.6841">postItsHistory()</text><polygon fill="#181818" points="992,568.8828,982,572.8828,992,576.8828,988,572.8828" style="stroke:#181818;stroke-width:1.0;"/><line style="stroke:#181818;stroke-width:1.0;stroke-dasharray:2.0,2.0;" x1="986" x2="1266" y1="572.8828" y2="572.8828"/><text fill="#000000" font-family="sans-serif" font-size="13" font-weight="bold" lengthAdjust="spacing" textLength="18" x="998" y="567.8169">15</text><text fill="#000000" font-family="sans-serif" font-size="13" lengthAdjust="spacing" textLength="88" x="1020" y="567.8169">responseText</text><polygon fill="#181818" points="536,598.0156,526,602.0156,536,606.0156,532,602.0156" style="stroke:#181818;stroke-width:1.0;"/><line style="stroke:#181818;stroke-width:1.0;stroke-dasharray:2.0,2.0;" x1="530" x2="975" y1="602.0156" y2="602.0156"/><text fill="#000000" font-family="sans-serif" font-size="13" font-weight="bold" lengthAdjust="spacing" textLength="18" x="542" y="596.9497">16</text><text fill="#000000" font-family="sans-serif" font-size="13" lengthAdjust="spacing" textLength="88" x="564" y="596.9497">responseText</text><polygon fill="#181818" points="53,627.1484,43,631.1484,53,635.1484,49,631.1484" style="stroke:#181818;stroke-width:1.0;"/><line style="stroke:#181818;stroke-width:1.0;stroke-dasharray:2.0,2.0;" x1="47" x2="519" y1="631.1484" y2="631.1484"/><text fill="#000000" font-family="sans-serif" font-size="13" font-weight="bold" lengthAdjust="spacing" textLength="18" x="59" y="626.0825">17</text><text fill="#000000" font-family="sans-serif" font-size="13" lengthAdjust="spacing" textLength="278" x="81" y="626.0825">Mostra o hist&#243;rico de atualiza&#231;&#245;es da board</text><!--SRC=[ZLJDRjim3BxxAOYUqaE10Zqjy0faoM4z52lcPZipCXCBjILFajDsBxJJJiEU82ysIlw9aZhDVB0fY_puyv6qJrBLQB22IYij2gCh0cSQIknmKwDumWrbxhKaC2GSgaqPAzW2S_qirGRMM5fA4YSTgsRqeo4b21OIDrvlaYqkuGgM6TnSNtz8i75QDTMAJ9AWSDh0qibI_cGm0sXXvlybxC998MjK3hv9UlwaqUJBEaT7zhEqhFAwlFFg_4xJsf0bvT19hMvl4w6LCxeyPJXlhqiA_g9Jcc9TbrBqE74GSxlD2ZIK1y07evqMkkJlowj7QOKq5NPRTtT701Uke0TjtPsRjf-BO1V4XQvGAZRFWp1Y6RnEmplO1Ucj6QU9AxJKtd-bMblfK_OcqIbDpN1WAy-3t7A5kk83Fq62grjVu2ayK4xWQOSjrqb3mPNS_J5IQE0BT0rw1dU_Td_9-ZzDXR3o8GIi0Nvv5yx-OLW6Zue_1M68bTxJmB8CYLdu22M7CElFayjai1kyxKs7E_z4Y8pV4ZU53UtHlgndoumCW_OsERs7Ejm5i0DdBJpxYQe_XRLK-Jxsnf9HMD6eknOosHSay77FRSDaOAW2-eglshhaqjPQxNvlITgz5PkrVCPCakKcBVmGT5IToNQaBJ8gIV2iO8y1FFl0q-X8vM5hqEfilyJ97R2zsezkDxaBRc-ctXPwRAud_PnS_bSlZFV1TdndJ48mZtx3ZRNQ8V7ZfFVHSGAU_o1_bwu8mZtvZMXdAcytWZrm-0Ou7l-kK7C_FSo5hz7ah4dL-kkpEwjVjr6Tr3_cZXSozw6bHtfnfzjwZ8g-jyuX77VcKPzt4t9kLSLhAWBdHHMT0kO_]--></g></svg>