<?xml version="1.0" encoding="us-ascii" standalone="no"?><svg xmlns="http://www.w3.org/2000/svg" xmlns:xlink="http://www.w3.org/1999/xlink" contentStyleType="text/css" height="570px" preserveAspectRatio="none" style="width:1063px;height:570px;background:#FFFFFF;" version="1.1" viewBox="0 0 1063 570" width="1063px" zoomAndPan="magnify"><defs/><g><text fill="#000000" font-family="sans-serif" font-size="14" font-weight="bold" lengthAdjust="spacing" textLength="201" x="424.25" y="25.1074">Class Diagram (CD) - US 1009</text><!--class ListGradesUI--><g id="elem_ListGradesUI"><rect codeLine="5" fill="#F1F1F1" height="79.2031" id="ListGradesUI" rx="2.5" ry="2.5" style="stroke:#181818;stroke-width:0.5;" width="113" x="267.5" y="46.6211"/><ellipse cx="282.5" cy="68.9121" fill="#ADD1B2" rx="11" ry="11" style="stroke:#181818;stroke-width:1.0;"/><path d="M285.2656,64.7871 Q285.4219,64.5684 285.6094,64.459 Q285.7969,64.3496 286.0156,64.3496 Q286.3906,64.3496 286.625,64.6152 Q286.8594,64.8652 286.8594,65.4746 L286.8594,66.9277 Q286.8594,67.5371 286.625,67.8027 Q286.3906,68.0684 286.0156,68.0684 Q285.6719,68.0684 285.4688,67.8652 Q285.2656,67.6777 285.1563,67.1621 Q285.1094,66.8027 284.9219,66.6152 Q284.5938,66.2402 283.9844,66.0215 Q283.375,65.8027 282.75,65.8027 Q281.9844,65.8027 281.3438,66.1309 Q280.7188,66.459 280.2188,67.209 Q279.7344,67.959 279.7344,68.9902 L279.7344,70.084 Q279.7344,71.3184 280.625,72.1465 Q281.5156,72.959 283.1094,72.959 Q284.0469,72.959 284.7031,72.709 Q285.0938,72.5527 285.5156,72.1152 Q285.7813,71.8496 285.9219,71.7715 Q286.0781,71.6934 286.2813,71.6934 Q286.6094,71.6934 286.8594,71.959 Q287.125,72.209 287.125,72.5527 Q287.125,72.8965 286.7813,73.3027 Q286.2813,73.8809 285.4844,74.209 Q284.4063,74.6621 283.1094,74.6621 Q281.5938,74.6621 280.3906,74.0371 Q279.4063,73.5371 278.7188,72.4746 Q278.0313,71.3965 278.0313,70.1152 L278.0313,68.959 Q278.0313,67.6309 278.6406,66.4902 Q279.2656,65.334 280.3594,64.7246 Q281.4531,64.0996 282.6875,64.0996 Q283.4219,64.0996 284.0625,64.2715 Q284.7188,64.4277 285.2656,64.7871 Z " fill="#000000"/><text fill="#000000" font-family="sans-serif" font-size="12" font-style="italic" lengthAdjust="spacing" textLength="82" x="296" y="64.5703">&#171;presentation&#187;</text><text fill="#000000" font-family="sans-serif" font-size="14" lengthAdjust="spacing" textLength="81" x="296.5" y="82.6895">ListGradesUI</text><line style="stroke:#181818;stroke-width:0.5;" x1="268.5" x2="379.5" y1="91.2031" y2="91.2031"/><line style="stroke:#181818;stroke-width:0.5;" x1="268.5" x2="379.5" y1="99.2031" y2="99.2031"/><text fill="#000000" font-family="sans-serif" font-size="14" lengthAdjust="spacing" textLength="60" x="273.5" y="118.3105">doShow()</text></g><!--class JpaTakenExamRepository--><g id="elem_JpaTakenExamRepository"><rect codeLine="9" fill="#F1F1F1" height="60.582" id="JpaTakenExamRepository" rx="2.5" ry="2.5" style="stroke:#181818;stroke-width:0.5;" width="196" x="7" y="371.6211"/><ellipse cx="22" cy="393.9121" fill="#ADD1B2" rx="11" ry="11" style="stroke:#181818;stroke-width:1.0;"/><path d="M24.7656,389.7871 Q24.9219,389.5684 25.1094,389.459 Q25.2969,389.3496 25.5156,389.3496 Q25.8906,389.3496 26.125,389.6152 Q26.3594,389.8652 26.3594,390.4746 L26.3594,391.9277 Q26.3594,392.5371 26.125,392.8027 Q25.8906,393.0684 25.5156,393.0684 Q25.1719,393.0684 24.9688,392.8652 Q24.7656,392.6777 24.6563,392.1621 Q24.6094,391.8027 24.4219,391.6152 Q24.0938,391.2402 23.4844,391.0215 Q22.875,390.8027 22.25,390.8027 Q21.4844,390.8027 20.8438,391.1309 Q20.2188,391.459 19.7188,392.209 Q19.2344,392.959 19.2344,393.9902 L19.2344,395.084 Q19.2344,396.3184 20.125,397.1465 Q21.0156,397.959 22.6094,397.959 Q23.5469,397.959 24.2031,397.709 Q24.5938,397.5527 25.0156,397.1152 Q25.2813,396.8496 25.4219,396.7715 Q25.5781,396.6934 25.7813,396.6934 Q26.1094,396.6934 26.3594,396.959 Q26.625,397.209 26.625,397.5527 Q26.625,397.8965 26.2813,398.3027 Q25.7813,398.8809 24.9844,399.209 Q23.9063,399.6621 22.6094,399.6621 Q21.0938,399.6621 19.8906,399.0371 Q18.9063,398.5371 18.2188,397.4746 Q17.5313,396.3965 17.5313,395.1152 L17.5313,393.959 Q17.5313,392.6309 18.1406,391.4902 Q18.7656,390.334 19.8594,389.7246 Q20.9531,389.0996 22.1875,389.0996 Q22.9219,389.0996 23.5625,389.2715 Q24.2188,389.4277 24.7656,389.7871 Z " fill="#000000"/><text fill="#000000" font-family="sans-serif" font-size="12" font-style="italic" lengthAdjust="spacing" textLength="77" x="79.5" y="389.5703">&#171;persistence&#187;</text><text fill="#000000" font-family="sans-serif" font-size="14" lengthAdjust="spacing" textLength="164" x="36" y="407.6895">JpaTakenExamRepository</text><line style="stroke:#181818;stroke-width:0.5;" x1="8" x2="202" y1="416.2031" y2="416.2031"/><line style="stroke:#181818;stroke-width:0.5;" x1="8" x2="202" y1="424.2031" y2="424.2031"/></g><!--class InMemoryTakenExamRepository--><g id="elem_InMemoryTakenExamRepository"><rect codeLine="10" fill="#F1F1F1" height="60.582" id="InMemoryTakenExamRepository" rx="2.5" ry="2.5" style="stroke:#181818;stroke-width:0.5;" width="235" x="387.5" y="371.6211"/><ellipse cx="402.5" cy="393.9121" fill="#ADD1B2" rx="11" ry="11" style="stroke:#181818;stroke-width:1.0;"/><path d="M405.2656,389.7871 Q405.4219,389.5684 405.6094,389.459 Q405.7969,389.3496 406.0156,389.3496 Q406.3906,389.3496 406.625,389.6152 Q406.8594,389.8652 406.8594,390.4746 L406.8594,391.9277 Q406.8594,392.5371 406.625,392.8027 Q406.3906,393.0684 406.0156,393.0684 Q405.6719,393.0684 405.4688,392.8652 Q405.2656,392.6777 405.1563,392.1621 Q405.1094,391.8027 404.9219,391.6152 Q404.5938,391.2402 403.9844,391.0215 Q403.375,390.8027 402.75,390.8027 Q401.9844,390.8027 401.3438,391.1309 Q400.7188,391.459 400.2188,392.209 Q399.7344,392.959 399.7344,393.9902 L399.7344,395.084 Q399.7344,396.3184 400.625,397.1465 Q401.5156,397.959 403.1094,397.959 Q404.0469,397.959 404.7031,397.709 Q405.0938,397.5527 405.5156,397.1152 Q405.7813,396.8496 405.9219,396.7715 Q406.0781,396.6934 406.2813,396.6934 Q406.6094,396.6934 406.8594,396.959 Q407.125,397.209 407.125,397.5527 Q407.125,397.8965 406.7813,398.3027 Q406.2813,398.8809 405.4844,399.209 Q404.4063,399.6621 403.1094,399.6621 Q401.5938,399.6621 400.3906,399.0371 Q399.4063,398.5371 398.7188,397.4746 Q398.0313,396.3965 398.0313,395.1152 L398.0313,393.959 Q398.0313,392.6309 398.6406,391.4902 Q399.2656,390.334 400.3594,389.7246 Q401.4531,389.0996 402.6875,389.0996 Q403.4219,389.0996 404.0625,389.2715 Q404.7188,389.4277 405.2656,389.7871 Z " fill="#000000"/><text fill="#000000" font-family="sans-serif" font-size="12" font-style="italic" lengthAdjust="spacing" textLength="77" x="479.5" y="389.5703">&#171;persistence&#187;</text><text fill="#000000" font-family="sans-serif" font-size="14" lengthAdjust="spacing" textLength="203" x="416.5" y="407.6895">InMemoryTakenExamRepository</text><line style="stroke:#181818;stroke-width:0.5;" x1="388.5" x2="621.5" y1="416.2031" y2="416.2031"/><line style="stroke:#181818;stroke-width:0.5;" x1="388.5" x2="621.5" y1="424.2031" y2="424.2031"/></g><!--class TakenExame--><g id="elem_TakenExame"><rect codeLine="12" fill="#F1F1F1" height="60.582" id="TakenExame" rx="2.5" ry="2.5" style="stroke:#181818;stroke-width:0.5;" width="114" x="238" y="371.6211"/><ellipse cx="253" cy="393.9121" fill="#ADD1B2" rx="11" ry="11" style="stroke:#181818;stroke-width:1.0;"/><path d="M255.7656,389.7871 Q255.9219,389.5684 256.1094,389.459 Q256.2969,389.3496 256.5156,389.3496 Q256.8906,389.3496 257.125,389.6152 Q257.3594,389.8652 257.3594,390.4746 L257.3594,391.9277 Q257.3594,392.5371 257.125,392.8027 Q256.8906,393.0684 256.5156,393.0684 Q256.1719,393.0684 255.9688,392.8652 Q255.7656,392.6777 255.6563,392.1621 Q255.6094,391.8027 255.4219,391.6152 Q255.0938,391.2402 254.4844,391.0215 Q253.875,390.8027 253.25,390.8027 Q252.4844,390.8027 251.8438,391.1309 Q251.2188,391.459 250.7188,392.209 Q250.2344,392.959 250.2344,393.9902 L250.2344,395.084 Q250.2344,396.3184 251.125,397.1465 Q252.0156,397.959 253.6094,397.959 Q254.5469,397.959 255.2031,397.709 Q255.5938,397.5527 256.0156,397.1152 Q256.2813,396.8496 256.4219,396.7715 Q256.5781,396.6934 256.7813,396.6934 Q257.1094,396.6934 257.3594,396.959 Q257.625,397.209 257.625,397.5527 Q257.625,397.8965 257.2813,398.3027 Q256.7813,398.8809 255.9844,399.209 Q254.9063,399.6621 253.6094,399.6621 Q252.0938,399.6621 250.8906,399.0371 Q249.9063,398.5371 249.2188,397.4746 Q248.5313,396.3965 248.5313,395.1152 L248.5313,393.959 Q248.5313,392.6309 249.1406,391.4902 Q249.7656,390.334 250.8594,389.7246 Q251.9531,389.0996 253.1875,389.0996 Q253.9219,389.0996 254.5625,389.2715 Q255.2188,389.4277 255.7656,389.7871 Z " fill="#000000"/><text fill="#000000" font-family="sans-serif" font-size="12" font-style="italic" lengthAdjust="spacing" textLength="56" x="280" y="389.5703">&#171;domain&#187;</text><text fill="#000000" font-family="sans-serif" font-size="14" lengthAdjust="spacing" textLength="82" x="267" y="407.6895">TakenExame</text><line style="stroke:#181818;stroke-width:0.5;" x1="239" x2="351" y1="416.2031" y2="416.2031"/><line style="stroke:#181818;stroke-width:0.5;" x1="239" x2="351" y1="424.2031" y2="424.2031"/></g><!--class ListGradesController--><g id="elem_ListGradesController"><rect codeLine="16" fill="#F1F1F1" height="79.2031" id="ListGradesController" rx="2.5" ry="2.5" style="stroke:#181818;stroke-width:0.5;" width="293" x="348.5" y="204.6211"/><ellipse cx="425.25" cy="226.9121" fill="#ADD1B2" rx="11" ry="11" style="stroke:#181818;stroke-width:1.0;"/><path d="M428.0156,222.7871 Q428.1719,222.5684 428.3594,222.459 Q428.5469,222.3496 428.7656,222.3496 Q429.1406,222.3496 429.375,222.6152 Q429.6094,222.8652 429.6094,223.4746 L429.6094,224.9277 Q429.6094,225.5371 429.375,225.8027 Q429.1406,226.0684 428.7656,226.0684 Q428.4219,226.0684 428.2188,225.8652 Q428.0156,225.6777 427.9063,225.1621 Q427.8594,224.8027 427.6719,224.6152 Q427.3438,224.2402 426.7344,224.0215 Q426.125,223.8027 425.5,223.8027 Q424.7344,223.8027 424.0938,224.1309 Q423.4688,224.459 422.9688,225.209 Q422.4844,225.959 422.4844,226.9902 L422.4844,228.084 Q422.4844,229.3184 423.375,230.1465 Q424.2656,230.959 425.8594,230.959 Q426.7969,230.959 427.4531,230.709 Q427.8438,230.5527 428.2656,230.1152 Q428.5313,229.8496 428.6719,229.7715 Q428.8281,229.6934 429.0313,229.6934 Q429.3594,229.6934 429.6094,229.959 Q429.875,230.209 429.875,230.5527 Q429.875,230.8965 429.5313,231.3027 Q429.0313,231.8809 428.2344,232.209 Q427.1563,232.6621 425.8594,232.6621 Q424.3438,232.6621 423.1406,232.0371 Q422.1563,231.5371 421.4688,230.4746 Q420.7813,229.3965 420.7813,228.1152 L420.7813,226.959 Q420.7813,225.6309 421.3906,224.4902 Q422.0156,223.334 423.1094,222.7246 Q424.2031,222.0996 425.4375,222.0996 Q426.1719,222.0996 426.8125,222.2715 Q427.4688,222.4277 428.0156,222.7871 Z " fill="#000000"/><text fill="#000000" font-family="sans-serif" font-size="12" font-style="italic" lengthAdjust="spacing" textLength="74" x="474.25" y="222.5703">&#171;application&#187;</text><text fill="#000000" font-family="sans-serif" font-size="14" lengthAdjust="spacing" textLength="131" x="445.75" y="240.6895">ListGradesController</text><line style="stroke:#181818;stroke-width:0.5;" x1="349.5" x2="640.5" y1="249.2031" y2="249.2031"/><line style="stroke:#181818;stroke-width:0.5;" x1="349.5" x2="640.5" y1="257.2031" y2="257.2031"/><ellipse cx="359.5" cy="272.0137" fill="#84BE84" rx="3" ry="3" style="stroke:#038048;stroke-width:1.0;"/><text fill="#000000" font-family="sans-serif" font-size="14" lengthAdjust="spacing" textLength="267" x="368.5" y="276.3105">Iterable&lt;GradePerStudent&gt; listAllGrades()</text></g><!--class GradePerStudent--><g id="elem_GradePerStudent"><rect codeLine="22" fill="#F1F1F1" height="60.582" id="GradePerStudent" rx="2.5" ry="2.5" style="stroke:#181818;stroke-width:0.5;" width="143" x="223.5" y="502.6211"/><ellipse cx="238.5" cy="524.9121" fill="#ADD1B2" rx="11" ry="11" style="stroke:#181818;stroke-width:1.0;"/><path d="M241.2656,520.7871 Q241.4219,520.5684 241.6094,520.459 Q241.7969,520.3496 242.0156,520.3496 Q242.3906,520.3496 242.625,520.6152 Q242.8594,520.8652 242.8594,521.4746 L242.8594,522.9277 Q242.8594,523.5371 242.625,523.8027 Q242.3906,524.0684 242.0156,524.0684 Q241.6719,524.0684 241.4688,523.8652 Q241.2656,523.6777 241.1563,523.1621 Q241.1094,522.8027 240.9219,522.6152 Q240.5938,522.2402 239.9844,522.0215 Q239.375,521.8027 238.75,521.8027 Q237.9844,521.8027 237.3438,522.1309 Q236.7188,522.459 236.2188,523.209 Q235.7344,523.959 235.7344,524.9902 L235.7344,526.084 Q235.7344,527.3184 236.625,528.1465 Q237.5156,528.959 239.1094,528.959 Q240.0469,528.959 240.7031,528.709 Q241.0938,528.5527 241.5156,528.1152 Q241.7813,527.8496 241.9219,527.7715 Q242.0781,527.6934 242.2813,527.6934 Q242.6094,527.6934 242.8594,527.959 Q243.125,528.209 243.125,528.5527 Q243.125,528.8965 242.7813,529.3027 Q242.2813,529.8809 241.4844,530.209 Q240.4063,530.6621 239.1094,530.6621 Q237.5938,530.6621 236.3906,530.0371 Q235.4063,529.5371 234.7188,528.4746 Q234.0313,527.3965 234.0313,526.1152 L234.0313,524.959 Q234.0313,523.6309 234.6406,522.4902 Q235.2656,521.334 236.3594,520.7246 Q237.4531,520.0996 238.6875,520.0996 Q239.4219,520.0996 240.0625,520.2715 Q240.7188,520.4277 241.2656,520.7871 Z " fill="#000000"/><text fill="#000000" font-family="sans-serif" font-size="12" font-style="italic" lengthAdjust="spacing" textLength="31" x="292.5" y="520.5703">&#171;dto&#187;</text><text fill="#000000" font-family="sans-serif" font-size="14" lengthAdjust="spacing" textLength="111" x="252.5" y="538.6895">GradePerStudent</text><line style="stroke:#181818;stroke-width:0.5;" x1="224.5" x2="365.5" y1="547.2031" y2="547.2031"/><line style="stroke:#181818;stroke-width:0.5;" x1="224.5" x2="365.5" y1="555.2031" y2="555.2031"/></g><!--class TakenExamRepository--><g id="elem_TakenExamRepository"><rect codeLine="25" fill="#F1F1F1" height="79.2031" id="TakenExamRepository" rx="2.5" ry="2.5" style="stroke:#181818;stroke-width:0.5;" width="399" x="657.5" y="362.6211"/><ellipse cx="781.25" cy="384.9121" fill="#B4A7E5" rx="11" ry="11" style="stroke:#181818;stroke-width:1.0;"/><path d="M782.2031,381.5527 L782.2031,388.209 L783.9219,388.209 Q784.5313,388.209 784.7969,388.4434 Q785.0625,388.6777 785.0625,389.0684 Q785.0625,389.4434 784.7969,389.6777 Q784.5313,389.9121 783.9219,389.9121 L778.7813,389.9121 Q778.1719,389.9121 777.9063,389.6777 Q777.6406,389.4434 777.6406,389.0527 Q777.6406,388.6777 777.9063,388.4434 Q778.1719,388.209 778.7813,388.209 L780.5,388.209 L780.5,381.5527 L778.7813,381.5527 Q778.1719,381.5527 777.9063,381.3184 Q777.6406,381.084 777.6406,380.6934 Q777.6406,380.3184 777.9063,380.084 Q778.1719,379.8496 778.7813,379.8496 L783.9219,379.8496 Q784.5313,379.8496 784.7969,380.084 Q785.0625,380.3184 785.0625,380.6934 Q785.0625,381.084 784.7969,381.3184 Q784.5313,381.5527 783.9219,381.5527 L782.2031,381.5527 Z " fill="#000000"/><text fill="#000000" font-family="sans-serif" font-size="12" font-style="italic" lengthAdjust="spacing" textLength="78" x="834.25" y="380.5703">&#171;repositories&#187;</text><text fill="#000000" font-family="sans-serif" font-size="14" font-style="italic" lengthAdjust="spacing" textLength="143" x="801.75" y="398.6895">TakenExamRepository</text><line style="stroke:#181818;stroke-width:0.5;" x1="658.5" x2="1055.5" y1="407.2031" y2="407.2031"/><line style="stroke:#181818;stroke-width:0.5;" x1="658.5" x2="1055.5" y1="415.2031" y2="415.2031"/><ellipse cx="668.5" cy="430.0137" fill="#84BE84" rx="3" ry="3" style="stroke:#038048;stroke-width:1.0;"/><text fill="#000000" font-family="sans-serif" font-size="14" lengthAdjust="spacing" textLength="373" x="677.5" y="434.3105">Iterable&lt;GradePerStudent&gt; findAllGrades(Student student)</text></g><!--link ListGradesUI to ListGradesController--><g id="link_ListGradesUI_ListGradesController"><path codeLine="30" d="M366.27,125.6811 C391.34,148.5611 423.15,177.5711 448.87,201.0411 " fill="none" id="ListGradesUI-to-ListGradesController" style="stroke:#181818;stroke-width:1.0;"/><polygon fill="#181818" points="452.62,204.4611,448.679,195.4351,448.9307,201.0864,443.2794,201.338,452.62,204.4611" style="stroke:#181818;stroke-width:1.0;"/><text fill="#000000" font-family="sans-serif" font-size="13" lengthAdjust="spacing" textLength="73" x="421" y="170.6494">theController</text></g><!--link ListGradesController to TakenExamRepository--><g id="link_ListGradesController_TakenExamRepository"><path codeLine="31" d="M584.48,283.6811 C638.76,307.0711 707.92,336.8811 763,360.6111 " fill="none" id="ListGradesController-to-TakenExamRepository" style="stroke:#181818;stroke-width:1.0;"/><polygon fill="#181818" points="767.61,362.6011,760.9405,355.3542,763.0217,360.6143,757.7616,362.6954,767.61,362.6011" style="stroke:#181818;stroke-width:1.0;"/><text fill="#000000" font-family="sans-serif" font-size="13" lengthAdjust="spacing" textLength="25" x="698" y="328.6494">repo</text></g><!--link ListGradesController to TakenExame--><g id="link_ListGradesController_TakenExame"><path codeLine="32" d="M445.56,283.6811 C412.24,309.6711 368.75,343.5911 337.09,368.2911 " fill="none" id="ListGradesController-to-TakenExame" style="stroke:#181818;stroke-width:1.0;"/><polygon fill="#181818" points="332.9,371.5611,342.4581,369.1858,336.8445,368.4884,337.5419,362.8747,332.9,371.5611" style="stroke:#181818;stroke-width:1.0;"/><text fill="#000000" font-family="sans-serif" font-size="13" lengthAdjust="spacing" textLength="66" x="408" y="328.6494">takenExam</text></g><!--link TakenExame to GradePerStudent--><g id="link_TakenExame_GradePerStudent"><path codeLine="34" d="M295,432.7211 C295,451.9211 295,477.0211 295,497.2011 " fill="none" id="TakenExame-to-GradePerStudent" style="stroke:#181818;stroke-width:1.0;stroke-dasharray:7.0,7.0;"/><polygon fill="#181818" points="295,502.2211,299,493.2211,295,497.2211,291,493.2211,295,502.2211" style="stroke:#181818;stroke-width:1.0;"/></g><!--link JpaTakenExamRepository to TakenExamRepository--><g id="link_JpaTakenExamRepository_TakenExamRepository"><path codeLine="36" d="M143.59,371.4911 C168.74,353.5311 203.16,332.5811 237.5,323.1211 C402.47,277.6711 453.64,295.4411 622.5,323.1211 C668.12,330.6011 716.82,345.7511 757.95,360.8011 " fill="none" id="JpaTakenExamRepository-to-TakenExamRepository" style="stroke:#181818;stroke-width:1.0;"/><polygon fill="#181818" points="762.67,362.5411,755.6039,355.6804,757.9773,360.8152,752.8425,363.1887,762.67,362.5411" style="stroke:#181818;stroke-width:1.0;"/></g><!--link InMemoryTakenExamRepository to TakenExamRepository--><g id="link_InMemoryTakenExamRepository_TakenExamRepository"><path codeLine="37" d="M622.56,402.1211 C632.44,402.1211 642.32,402.1211 652.2,402.1211 " fill="none" id="InMemoryTakenExamRepository-to-TakenExamRepository" style="stroke:#181818;stroke-width:1.0;"/><polygon fill="#181818" points="657.36,402.1211,648.36,398.1211,652.36,402.1211,648.36,406.1211,657.36,402.1211" style="stroke:#181818;stroke-width:1.0;"/></g><!--link ListGradesUI to TakenExame--><g id="link_ListGradesUI_TakenExame"><path codeLine="40" d="M320.44,125.6211 C314.76,187.1411 303.72,306.7011 298.24,366.0111 " fill="none" id="ListGradesUI-to-TakenExame" style="stroke:#181818;stroke-width:1.0;stroke-dasharray:7.0,7.0;"/><polygon fill="#181818" points="297.76,371.2111,302.5651,362.6139,298.2165,366.232,294.5985,361.8835,297.76,371.2111" style="stroke:#181818;stroke-width:1.0;"/></g><!--SRC=[ZPBBJiCm44NtynMpQoiKgIofgaWeHQW8429qXLXCusbhuTYHRLv2_NUS5tsGedXZJNBkpBsslVIACL7a7CuahItbE4nc8unmaUBvU7m1CAX-iuEimcwbyzUM1Bl57AVJmh9ZxSbBe-COlm734YRTc8_X2BRGg6uAUg9NrbUVb3zoOPpqndwLUhOkT6ITSIdVDlnStt4UY9wYHlLBSu24oKdMdWBmntrYjBT6ARQ1fQ9GCZiCSJRtR6cfU5e97jYc_as4h36gqELIgRfH7RCTSCIMFho9uyg3rA7ZYZB6xbYsBIIxFZPMKekTZNQYg_VArU2UtkMwoWK75nT5SVTPJD1lU5T39rIgko9Ci8pGGyFbdBO0sFiUFGjo6nOl0JyA373Y5NMxWV_Uq0a936PSi0xJid07HqUsvsnd67u0]--></g></svg>