<?xml version="1.0" encoding="us-ascii" standalone="no"?><svg xmlns="http://www.w3.org/2000/svg" xmlns:xlink="http://www.w3.org/1999/xlink" contentStyleType="text/css" height="345px" preserveAspectRatio="none" style="width:713px;height:345px;background:#FFFFFF;" version="1.1" viewBox="0 0 713 345" width="713px" zoomAndPan="magnify"><defs/><g><text fill="#000000" font-family="sans-serif" font-size="14" font-weight="bold" lengthAdjust="spacing" textLength="213" x="243" y="25.1074">Domain Classes (DC) - US 2005</text><!--cluster <<aggregate>> TakenExam--><g id="cluster_&lt;&lt;aggregate&gt;&gt; TakenExam"><path d="M8.5,45.6348 L180.5,45.6348 A3.75,3.75 0 0 1 183,48.1348 L190,70.2559 L347.5,70.2559 A2.5,2.5 0 0 1 350,72.7559 L350,328.1348 A2.5,2.5 0 0 1 347.5,330.6348 L8.5,330.6348 A2.5,2.5 0 0 1 6,328.1348 L6,48.1348 A2.5,2.5 0 0 1 8.5,45.6348 " fill="none" style="stroke:#000000;stroke-width:1.5;"/><line style="stroke:#000000;stroke-width:1.5;" x1="6" x2="190" y1="70.2559" y2="70.2559"/><text fill="#000000" font-family="sans-serif" font-size="14" font-weight="bold" lengthAdjust="spacing" textLength="171" x="10" y="62.7422">&#171;aggregate&#187; TakenExam</text></g><!--cluster <<aggregate>> Student--><g id="cluster_&lt;&lt;aggregate&gt;&gt; Student"><path d="M376.5,216.6348 L524.5,216.6348 A3.75,3.75 0 0 1 527,219.1348 L534,241.2559 L534.5,241.2559 A2.5,2.5 0 0 1 537,243.7559 L537,336.1348 A2.5,2.5 0 0 1 534.5,338.6348 L376.5,338.6348 A2.5,2.5 0 0 1 374,336.1348 L374,219.1348 A2.5,2.5 0 0 1 376.5,216.6348 " fill="none" style="stroke:#000000;stroke-width:1.5;"/><line style="stroke:#000000;stroke-width:1.5;" x1="374" x2="534" y1="241.2559" y2="241.2559"/><text fill="#000000" font-family="sans-serif" font-size="14" font-weight="bold" lengthAdjust="spacing" textLength="147" x="378" y="233.7422">&#171;aggregate&#187; Student</text></g><!--cluster <<aggregate>> Exam--><g id="cluster_&lt;&lt;aggregate&gt;&gt; Exam"><path d="M563.5,216.6348 L693.5,216.6348 A3.75,3.75 0 0 1 696,219.1348 L703,241.2559 L703.5,241.2559 A2.5,2.5 0 0 1 706,243.7559 L706,336.1348 A2.5,2.5 0 0 1 703.5,338.6348 L563.5,338.6348 A2.5,2.5 0 0 1 561,336.1348 L561,219.1348 A2.5,2.5 0 0 1 563.5,216.6348 " fill="none" style="stroke:#000000;stroke-width:1.5;"/><line style="stroke:#000000;stroke-width:1.5;" x1="561" x2="703" y1="241.2559" y2="241.2559"/><text fill="#000000" font-family="sans-serif" font-size="14" font-weight="bold" lengthAdjust="spacing" textLength="129" x="565" y="233.7422">&#171;aggregate&#187; Exam</text></g><!--class TakenExam--><g id="elem_TakenExam"><rect codeLine="10" fill="#F1F1F1" height="68.543" id="TakenExam" rx="2.5" ry="2.5" style="stroke:#181818;stroke-width:0.5;" width="106" x="227" y="82.6348"/><ellipse cx="242" cy="112.9063" fill="#ADD1B2" rx="11" ry="11" style="stroke:#181818;stroke-width:1.0;"/><path d="M240.8594,113.7031 L240.8594,116.2031 L245.1875,116.2031 L245.1875,115.2813 Q245.1875,114.6719 245.4219,114.4063 Q245.6719,114.1406 246.0469,114.1406 Q246.4219,114.1406 246.6563,114.4063 Q246.8906,114.6719 246.8906,115.2813 L246.8906,117.9063 L238.8906,117.9063 Q238.2656,117.9063 238,117.6719 Q237.75,117.4375 237.75,117.0469 Q237.75,116.6719 238.0156,116.4375 Q238.2813,116.2031 238.8906,116.2031 L239.1563,116.2031 L239.1563,109.5469 L238.8906,109.5469 Q238.2656,109.5469 238,109.3125 Q237.75,109.0781 237.75,108.6875 Q237.75,108.3125 238,108.0781 Q238.2656,107.8438 238.8906,107.8438 L246.5156,107.8438 L246.5156,110.4375 Q246.5156,111.0469 246.2813,111.3125 Q246.0625,111.5625 245.6719,111.5625 Q245.2969,111.5625 245.0625,111.3125 Q244.8281,111.0469 244.8281,110.4375 L244.8281,109.5469 L240.8594,109.5469 L240.8594,112 L242.3438,112 Q242.3438,111.3438 242.4688,111.1563 Q242.7344,110.75 243.2031,110.75 Q243.5781,110.75 243.8125,111.0156 Q244.0469,111.2656 244.0469,111.875 L244.0469,113.8438 Q244.0469,114.3906 243.9219,114.5781 Q243.6563,114.9688 243.2031,114.9688 Q242.7344,114.9688 242.4688,114.5625 Q242.3438,114.375 242.3438,113.7031 L240.8594,113.7031 Z " fill="#000000"/><text fill="#000000" font-family="sans-serif" font-size="12" font-style="italic" lengthAdjust="spacing" textLength="43" x="271.5" y="100.584">&#171;entity&#187;</text><text fill="#000000" font-family="sans-serif" font-size="12" font-style="italic" lengthAdjust="spacing" textLength="35" x="275.5" y="116.5449">&#171;root&#187;</text><text fill="#000000" font-family="sans-serif" font-size="14" lengthAdjust="spacing" textLength="74" x="256" y="134.6641">TakenExam</text><line style="stroke:#181818;stroke-width:0.5;" x1="228" x2="332" y1="143.1777" y2="143.1777"/></g><!--class TakenExamDateTime--><g id="elem_TakenExamDateTime"><rect codeLine="11" fill="#F1F1F1" height="52.582" id="TakenExamDateTime" rx="2.5" ry="2.5" style="stroke:#181818;stroke-width:0.5;" width="167" x="22.5" y="261.6348"/><ellipse cx="37.5" cy="283.9258" fill="#FF8B40" rx="11" ry="11" style="stroke:#181818;stroke-width:1.0;"/><path d="M38.0938,287.1914 L40.5625,281.3164 L40.1719,281.3164 Q39.5625,281.3164 39.2969,281.082 Q39.0313,280.8477 39.0313,280.457 Q39.0313,280.082 39.2969,279.8477 Q39.5625,279.6133 40.1719,279.6133 L42.4531,279.6133 Q43.0625,279.6133 43.3281,279.8477 Q43.5938,280.082 43.5938,280.457 Q43.5938,280.9258 43.1875,281.1914 Q43,281.3164 42.4063,281.3164 L38.9219,289.6758 L37.2813,289.6758 L33.7969,281.3164 Q33.2031,281.3164 33.0156,281.1914 Q32.6094,280.9258 32.6094,280.457 Q32.6094,280.082 32.875,279.8477 Q33.1406,279.6133 33.75,279.6133 L36.0469,279.6133 Q36.6563,279.6133 36.9063,279.8477 Q37.1719,280.082 37.1719,280.457 Q37.1719,280.8477 36.9063,281.082 Q36.6563,281.3164 36.0469,281.3164 L35.6406,281.3164 L38.0938,287.1914 Z " fill="#000000"/><text fill="#000000" font-family="sans-serif" font-size="12" font-style="italic" lengthAdjust="spacing" textLength="81" x="78.5" y="279.584">&#171;value object&#187;</text><text fill="#000000" font-family="sans-serif" font-size="14" lengthAdjust="spacing" textLength="135" x="51.5" y="297.7031">TakenExamDateTime</text><line style="stroke:#181818;stroke-width:0.5;" x1="23.5" x2="188.5" y1="306.2168" y2="306.2168"/></g><!--class Grade--><g id="elem_Grade"><rect codeLine="12" fill="#F1F1F1" height="52.582" id="Grade" rx="2.5" ry="2.5" style="stroke:#181818;stroke-width:0.5;" width="109" x="224.5" y="261.6348"/><ellipse cx="239.5" cy="283.9258" fill="#FF8B40" rx="11" ry="11" style="stroke:#181818;stroke-width:1.0;"/><path d="M240.0938,287.1914 L242.5625,281.3164 L242.1719,281.3164 Q241.5625,281.3164 241.2969,281.082 Q241.0313,280.8477 241.0313,280.457 Q241.0313,280.082 241.2969,279.8477 Q241.5625,279.6133 242.1719,279.6133 L244.4531,279.6133 Q245.0625,279.6133 245.3281,279.8477 Q245.5938,280.082 245.5938,280.457 Q245.5938,280.9258 245.1875,281.1914 Q245,281.3164 244.4063,281.3164 L240.9219,289.6758 L239.2813,289.6758 L235.7969,281.3164 Q235.2031,281.3164 235.0156,281.1914 Q234.6094,280.9258 234.6094,280.457 Q234.6094,280.082 234.875,279.8477 Q235.1406,279.6133 235.75,279.6133 L238.0469,279.6133 Q238.6563,279.6133 238.9063,279.8477 Q239.1719,280.082 239.1719,280.457 Q239.1719,280.8477 238.9063,281.082 Q238.6563,281.3164 238.0469,281.3164 L237.6406,281.3164 L240.0938,287.1914 Z " fill="#000000"/><text fill="#000000" font-family="sans-serif" font-size="12" font-style="italic" lengthAdjust="spacing" textLength="81" x="251.5" y="279.584">&#171;value object&#187;</text><text fill="#000000" font-family="sans-serif" font-size="14" lengthAdjust="spacing" textLength="40" x="272" y="297.7031">Grade</text><line style="stroke:#181818;stroke-width:0.5;" x1="225.5" x2="332.5" y1="306.2168" y2="306.2168"/></g><!--class Student--><g id="elem_Student"><rect codeLine="17" fill="#F1F1F1" height="68.543" id="Student" rx="2.5" ry="2.5" style="stroke:#181818;stroke-width:0.5;" width="81" x="390.5" y="253.6348"/><ellipse cx="405.5" cy="283.9063" fill="#ADD1B2" rx="11" ry="11" style="stroke:#181818;stroke-width:1.0;"/><path d="M404.3594,284.7031 L404.3594,287.2031 L408.6875,287.2031 L408.6875,286.2813 Q408.6875,285.6719 408.9219,285.4063 Q409.1719,285.1406 409.5469,285.1406 Q409.9219,285.1406 410.1563,285.4063 Q410.3906,285.6719 410.3906,286.2813 L410.3906,288.9063 L402.3906,288.9063 Q401.7656,288.9063 401.5,288.6719 Q401.25,288.4375 401.25,288.0469 Q401.25,287.6719 401.5156,287.4375 Q401.7813,287.2031 402.3906,287.2031 L402.6563,287.2031 L402.6563,280.5469 L402.3906,280.5469 Q401.7656,280.5469 401.5,280.3125 Q401.25,280.0781 401.25,279.6875 Q401.25,279.3125 401.5,279.0781 Q401.7656,278.8438 402.3906,278.8438 L410.0156,278.8438 L410.0156,281.4375 Q410.0156,282.0469 409.7813,282.3125 Q409.5625,282.5625 409.1719,282.5625 Q408.7969,282.5625 408.5625,282.3125 Q408.3281,282.0469 408.3281,281.4375 L408.3281,280.5469 L404.3594,280.5469 L404.3594,283 L405.8438,283 Q405.8438,282.3438 405.9688,282.1563 Q406.2344,281.75 406.7031,281.75 Q407.0781,281.75 407.3125,282.0156 Q407.5469,282.2656 407.5469,282.875 L407.5469,284.8438 Q407.5469,285.3906 407.4219,285.5781 Q407.1563,285.9688 406.7031,285.9688 Q406.2344,285.9688 405.9688,285.5625 Q405.8438,285.375 405.8438,284.7031 L404.3594,284.7031 Z " fill="#000000"/><text fill="#000000" font-family="sans-serif" font-size="12" font-style="italic" lengthAdjust="spacing" textLength="43" x="422.5" y="271.584">&#171;entity&#187;</text><text fill="#000000" font-family="sans-serif" font-size="12" font-style="italic" lengthAdjust="spacing" textLength="35" x="426.5" y="287.5449">&#171;root&#187;</text><text fill="#000000" font-family="sans-serif" font-size="14" lengthAdjust="spacing" textLength="49" x="419.5" y="305.6641">Student</text><line style="stroke:#181818;stroke-width:0.5;" x1="391.5" x2="470.5" y1="314.1777" y2="314.1777"/></g><!--class Exam--><g id="elem_Exam"><rect codeLine="22" fill="#F1F1F1" height="68.543" id="Exam" rx="2.5" ry="2.5" style="stroke:#181818;stroke-width:0.5;" width="71" x="577.5" y="253.6348"/><ellipse cx="592.5" cy="283.9063" fill="#ADD1B2" rx="11" ry="11" style="stroke:#181818;stroke-width:1.0;"/><path d="M591.3594,284.7031 L591.3594,287.2031 L595.6875,287.2031 L595.6875,286.2813 Q595.6875,285.6719 595.9219,285.4063 Q596.1719,285.1406 596.5469,285.1406 Q596.9219,285.1406 597.1563,285.4063 Q597.3906,285.6719 597.3906,286.2813 L597.3906,288.9063 L589.3906,288.9063 Q588.7656,288.9063 588.5,288.6719 Q588.25,288.4375 588.25,288.0469 Q588.25,287.6719 588.5156,287.4375 Q588.7813,287.2031 589.3906,287.2031 L589.6563,287.2031 L589.6563,280.5469 L589.3906,280.5469 Q588.7656,280.5469 588.5,280.3125 Q588.25,280.0781 588.25,279.6875 Q588.25,279.3125 588.5,279.0781 Q588.7656,278.8438 589.3906,278.8438 L597.0156,278.8438 L597.0156,281.4375 Q597.0156,282.0469 596.7813,282.3125 Q596.5625,282.5625 596.1719,282.5625 Q595.7969,282.5625 595.5625,282.3125 Q595.3281,282.0469 595.3281,281.4375 L595.3281,280.5469 L591.3594,280.5469 L591.3594,283 L592.8438,283 Q592.8438,282.3438 592.9688,282.1563 Q593.2344,281.75 593.7031,281.75 Q594.0781,281.75 594.3125,282.0156 Q594.5469,282.2656 594.5469,282.875 L594.5469,284.8438 Q594.5469,285.3906 594.4219,285.5781 Q594.1563,285.9688 593.7031,285.9688 Q593.2344,285.9688 592.9688,285.5625 Q592.8438,285.375 592.8438,284.7031 L591.3594,284.7031 Z " fill="#000000"/><text fill="#000000" font-family="sans-serif" font-size="12" font-style="italic" lengthAdjust="spacing" textLength="43" x="604.5" y="271.584">&#171;entity&#187;</text><text fill="#000000" font-family="sans-serif" font-size="12" font-style="italic" lengthAdjust="spacing" textLength="35" x="608.5" y="287.5449">&#171;root&#187;</text><text fill="#000000" font-family="sans-serif" font-size="14" lengthAdjust="spacing" textLength="34" x="609" y="305.6641">Exam</text><line style="stroke:#181818;stroke-width:0.5;" x1="578.5" x2="647.5" y1="314.1777" y2="314.1777"/></g><!--link TakenExam to TakenExamDateTime--><g id="link_TakenExam_TakenExamDateTime"><path codeLine="25" d="M245.21,151.9248 C213.28,182.9348 166.47,228.4048 136.11,257.8848 " fill="none" id="TakenExam-to-TakenExamDateTime" style="stroke:#181818;stroke-width:1.0;"/><polygon fill="#181818" points="132.5,261.4048,141.7415,257.9996,136.0852,257.9196,136.1652,252.2633,132.5,261.4048" style="stroke:#181818;stroke-width:1.0;"/></g><!--link TakenExam to Grade--><g id="link_TakenExam_Grade"><path codeLine="26" d="M279.8,151.9248 C279.62,182.3048 279.36,226.5548 279.18,256.0648 " fill="none" id="TakenExam-to-Grade" style="stroke:#181818;stroke-width:1.0;"/><polygon fill="#181818" points="279.15,261.4048,283.2014,252.4278,279.1786,256.4048,275.2015,252.3821,279.15,261.4048" style="stroke:#181818;stroke-width:1.0;"/></g><!--link TakenExam to Student--><g id="link_TakenExam_Student"><path codeLine="27" d="M310.19,151.9248 C335.4,180.1348 371.29,220.3148 397.4,249.5348 " fill="none" id="TakenExam-to-Student" style="stroke:#181818;stroke-width:1.0;"/><polygon fill="#181818" points="400.86,253.4048,397.8503,244.027,397.5302,249.6748,391.8824,249.3547,400.86,253.4048" style="stroke:#181818;stroke-width:1.0;"/><polygon fill="#000000" points="358.3313,195.0089,354.4965,186.3057,350.1133,190.2219,358.3313,195.0089" style="stroke:#000000;stroke-width:1.0;"/><text fill="#000000" font-family="sans-serif" font-size="13" lengthAdjust="spacing" textLength="50" x="364" y="196.6631">taken by</text><text fill="#000000" font-family="sans-serif" font-size="13" lengthAdjust="spacing" textLength="20" x="293.534" y="173.1849">0..*</text><text fill="#000000" font-family="sans-serif" font-size="13" lengthAdjust="spacing" textLength="7" x="387.4474" y="242.2637">1</text></g><!--link TakenExam to Exam--><g id="link_TakenExam_Exam"><path codeLine="28" d="M333.17,138.6848 C375.82,155.7848 436.8,181.6148 488,208.6348 C517.34,224.1148 548.96,244.0148 573.07,259.8948 " fill="none" id="TakenExam-to-Exam" style="stroke:#181818;stroke-width:1.0;"/><polygon fill="#181818" points="577.48,262.8148,572.1774,254.5152,573.3088,260.0578,567.7662,261.1891,577.48,262.8148" style="stroke:#181818;stroke-width:1.0;"/><polygon fill="#000000" points="480.4627,193.5351,473.7149,186.833,471.0642,192.0792,480.4627,193.5351" style="stroke:#000000;stroke-width:1.0;"/><text fill="#000000" font-family="sans-serif" font-size="13" lengthAdjust="spacing" textLength="10" x="485" y="196.6631">is</text><text fill="#000000" font-family="sans-serif" font-size="13" lengthAdjust="spacing" textLength="20" x="340.8688" y="137.3491">0..*</text><text fill="#000000" font-family="sans-serif" font-size="13" lengthAdjust="spacing" textLength="7" x="562.4321" y="252.9449">1</text></g><!--SRC=[XP1FJuD04CNl-obUy61hf46ZYMa8YHPhF5DxNs12Ls2NmA1MutTtmQRuf-WUt_nczht7fW8Rn8RPb4XLJGaheuLWnGKXDALK6ej2DWqrc8IBALmyH3Ztl4iXDYebbCGRapQYoPMkP2rB91r-pLohk6MwJuoEr2l14-9u9NFIjo-o59LCSfaH7D-NMLPJ9fc207l0mPk0VQIjbUsWm_S_9GlxVcqC1q4FzhyEN6ZlhLH95fgiJt6qN5xTN7XJFCcY9PZuqIRzjdbNo_G_-jr6YBXDhOEn0Bln3_ixzQ3vxkXVbHneOxG8UsjeoatDitQ3tvqSOFhqNtJ7cyrE7BXsv9mvU_zpS8SWtY8Oftjj3jLOw0C0]--></g></svg>