<?xml version="1.0" encoding="us-ascii" standalone="no"?><svg xmlns="http://www.w3.org/2000/svg" xmlns:xlink="http://www.w3.org/1999/xlink" contentStyleType="text/css" height="494px" preserveAspectRatio="none" style="width:742px;height:494px;background:#FFFFFF;" version="1.1" viewBox="0 0 742 494" width="742px" zoomAndPan="magnify"><defs/><g><text fill="#000000" font-family="sans-serif" font-size="14" font-weight="bold" lengthAdjust="spacing" textLength="233" x="256.25" y="30.1074">Sequence Diagram (SD) - US 1009</text><rect fill="#FFFFFF" height="239.7461" style="stroke:#181818;stroke-width:1.0;" width="10" x="21" y="137.8633"/><rect fill="#FFFFFF" height="225.4551" style="stroke:#181818;stroke-width:1.0;" width="10" x="206" y="161.1543"/><rect fill="#FFFFFF" height="30" style="stroke:#181818;stroke-width:1.0;" width="10" x="339" y="192.4453"/><rect fill="#FFFFFF" height="92.582" style="stroke:#181818;stroke-width:1.0;" width="10" x="339" y="253.7363"/><rect fill="#FFFFFF" height="30" style="stroke:#181818;stroke-width:1.0;" width="10" x="662.5" y="285.0273"/><line style="stroke:#181818;stroke-width:0.5;stroke-dasharray:5.0,5.0;" x1="26" x2="26" y1="127.8633" y2="395.6094"/><line style="stroke:#181818;stroke-width:0.5;stroke-dasharray:5.0,5.0;" x1="210.5" x2="210.5" y1="127.8633" y2="395.6094"/><line style="stroke:#181818;stroke-width:0.5;stroke-dasharray:5.0,5.0;" x1="343.5" x2="343.5" y1="127.8633" y2="395.6094"/><line style="stroke:#181818;stroke-width:0.5;stroke-dasharray:5.0,5.0;" x1="502.5" x2="502.5" y1="127.8633" y2="395.6094"/><line style="stroke:#181818;stroke-width:0.5;stroke-dasharray:5.0,5.0;" x1="667.5" x2="667.5" y1="127.8633" y2="395.6094"/><text fill="#000000" font-family="sans-serif" font-size="14" lengthAdjust="spacing" textLength="36" x="5" y="124.3496">Aluno</text><ellipse cx="26" cy="57.7422" fill="#E3E3E3" rx="8" ry="8" style="stroke:#181818;stroke-width:0.5;"/><path d="M26,65.7422 L26,92.7422 M13,73.7422 L39,73.7422 M26,92.7422 L13,107.7422 M26,92.7422 L39,107.7422 " fill="none" style="stroke:#181818;stroke-width:0.5;"/><text fill="#000000" font-family="sans-serif" font-size="14" lengthAdjust="spacing" textLength="36" x="5" y="409.7168">Aluno</text><ellipse cx="26" cy="421.7305" fill="#E3E3E3" rx="8" ry="8" style="stroke:#181818;stroke-width:0.5;"/><path d="M26,429.7305 L26,456.7305 M13,437.7305 L39,437.7305 M26,456.7305 L13,471.7305 M26,456.7305 L39,471.7305 " fill="none" style="stroke:#181818;stroke-width:0.5;"/><rect fill="#E3E3E3" height="51.2422" rx="2.5" ry="2.5" style="stroke:#181818;stroke-width:0.5;" width="109" x="156.5" y="75.6211"/><text fill="#000000" font-family="sans-serif" font-size="14" font-style="italic" lengthAdjust="spacing" textLength="95" x="163.5" y="97.7285">&#171;presentation&#187;</text><text fill="#000000" font-family="sans-serif" font-size="14" lengthAdjust="spacing" textLength="81" x="170.5" y="116.3496">ListGradesUI</text><rect fill="#E3E3E3" height="51.2422" rx="2.5" ry="2.5" style="stroke:#181818;stroke-width:0.5;" width="109" x="156.5" y="394.6094"/><text fill="#000000" font-family="sans-serif" font-size="14" font-style="italic" lengthAdjust="spacing" textLength="95" x="163.5" y="416.7168">&#171;presentation&#187;</text><text fill="#000000" font-family="sans-serif" font-size="14" lengthAdjust="spacing" textLength="81" x="170.5" y="435.3379">ListGradesUI</text><text fill="#000000" font-family="sans-serif" font-size="14" font-style="italic" lengthAdjust="spacing" textLength="84" x="299" y="105.7285">&#171;application&#187;</text><text fill="#000000" font-family="sans-serif" font-size="14" lengthAdjust="spacing" textLength="131" x="275.5" y="124.3496">ListGradesController</text><ellipse cx="344" cy="74.6211" fill="#E3E3E3" rx="12" ry="12" style="stroke:#181818;stroke-width:0.5;"/><polygon fill="#181818" points="340,62.6211,346,57.6211,344,62.6211,346,67.6211,340,62.6211" style="stroke:#181818;stroke-width:1.0;"/><text fill="#000000" font-family="sans-serif" font-size="14" font-style="italic" lengthAdjust="spacing" textLength="84" x="299" y="409.7168">&#171;application&#187;</text><text fill="#000000" font-family="sans-serif" font-size="14" lengthAdjust="spacing" textLength="131" x="275.5" y="428.3379">ListGradesController</text><ellipse cx="344" cy="447.8516" fill="#E3E3E3" rx="12" ry="12" style="stroke:#181818;stroke-width:0.5;"/><polygon fill="#181818" points="340,435.8516,346,430.8516,344,435.8516,346,440.8516,340,435.8516" style="stroke:#181818;stroke-width:1.0;"/><rect fill="#E3E3E3" height="51.2422" rx="2.5" ry="2.5" style="stroke:#181818;stroke-width:0.5;" width="161" x="422.5" y="75.6211"/><text fill="#000000" font-family="sans-serif" font-size="14" font-style="italic" lengthAdjust="spacing" textLength="62" x="472" y="97.7285">&#171;domain&#187;</text><text fill="#000000" font-family="sans-serif" font-size="14" lengthAdjust="spacing" textLength="147" x="429.5" y="116.3496">takenExam:TakenExam</text><rect fill="#E3E3E3" height="51.2422" rx="2.5" ry="2.5" style="stroke:#181818;stroke-width:0.5;" width="161" x="422.5" y="394.6094"/><text fill="#000000" font-family="sans-serif" font-size="14" font-style="italic" lengthAdjust="spacing" textLength="62" x="472" y="416.7168">&#171;domain&#187;</text><text fill="#000000" font-family="sans-serif" font-size="14" lengthAdjust="spacing" textLength="147" x="429.5" y="435.3379">takenExam:TakenExam</text><text fill="#000000" font-family="sans-serif" font-size="14" font-style="italic" lengthAdjust="spacing" textLength="79" x="625" y="105.7285">&#171;repository&#187;</text><text fill="#000000" font-family="sans-serif" font-size="14" lengthAdjust="spacing" textLength="142" x="593.5" y="124.3496">TakenExamRepository</text><path d="M649.5,54.6211 C649.5,44.6211 667.5,44.6211 667.5,44.6211 C667.5,44.6211 685.5,44.6211 685.5,54.6211 L685.5,80.6211 C685.5,90.6211 667.5,90.6211 667.5,90.6211 C667.5,90.6211 649.5,90.6211 649.5,80.6211 L649.5,54.6211 " fill="#E3E3E3" style="stroke:#181818;stroke-width:1.5;"/><path d="M649.5,54.6211 C649.5,64.6211 667.5,64.6211 667.5,64.6211 C667.5,64.6211 685.5,64.6211 685.5,54.6211 " fill="none" style="stroke:#181818;stroke-width:1.5;"/><text fill="#000000" font-family="sans-serif" font-size="14" font-style="italic" lengthAdjust="spacing" textLength="79" x="625" y="409.7168">&#171;repository&#187;</text><text fill="#000000" font-family="sans-serif" font-size="14" lengthAdjust="spacing" textLength="142" x="593.5" y="428.3379">TakenExamRepository</text><path d="M649.5,441.8516 C649.5,431.8516 667.5,431.8516 667.5,431.8516 C667.5,431.8516 685.5,431.8516 685.5,441.8516 L685.5,467.8516 C685.5,477.8516 667.5,477.8516 667.5,477.8516 C667.5,477.8516 649.5,477.8516 649.5,467.8516 L649.5,441.8516 " fill="#E3E3E3" style="stroke:#181818;stroke-width:1.5;"/><path d="M649.5,441.8516 C649.5,451.8516 667.5,451.8516 667.5,451.8516 C667.5,451.8516 685.5,451.8516 685.5,441.8516 " fill="none" style="stroke:#181818;stroke-width:1.5;"/><rect fill="#FFFFFF" height="239.7461" style="stroke:#181818;stroke-width:1.0;" width="10" x="21" y="137.8633"/><rect fill="#FFFFFF" height="225.4551" style="stroke:#181818;stroke-width:1.0;" width="10" x="206" y="161.1543"/><rect fill="#FFFFFF" height="30" style="stroke:#181818;stroke-width:1.0;" width="10" x="339" y="192.4453"/><rect fill="#FFFFFF" height="92.582" style="stroke:#181818;stroke-width:1.0;" width="10" x="339" y="253.7363"/><rect fill="#FFFFFF" height="30" style="stroke:#181818;stroke-width:1.0;" width="10" x="662.5" y="285.0273"/><polygon fill="#181818" points="194,157.1543,204,161.1543,194,165.1543,198,161.1543" style="stroke:#181818;stroke-width:1.0;"/><line style="stroke:#181818;stroke-width:1.0;" x1="31" x2="200" y1="161.1543" y2="161.1543"/><text fill="#000000" font-family="sans-serif" font-size="13" font-weight="bold" lengthAdjust="spacing" textLength="7" x="38" y="155.8916">1</text><text fill="#000000" font-family="sans-serif" font-size="13" lengthAdjust="spacing" textLength="145" x="49" y="155.8916">Pede para listar as notas</text><polygon fill="#181818" points="327,188.4453,337,192.4453,327,196.4453,331,192.4453" style="stroke:#181818;stroke-width:1.0;"/><line style="stroke:#181818;stroke-width:1.0;" x1="216" x2="333" y1="192.4453" y2="192.4453"/><text fill="#000000" font-family="sans-serif" font-size="13" font-weight="bold" lengthAdjust="spacing" textLength="7" x="223" y="187.1826">2</text><text fill="#000000" font-family="sans-serif" font-size="13" lengthAdjust="spacing" textLength="36" x="234" y="187.1826">create</text><polygon fill="#181818" points="327,249.7363,337,253.7363,327,257.7363,331,253.7363" style="stroke:#181818;stroke-width:1.0;"/><line style="stroke:#181818;stroke-width:1.0;" x1="216" x2="333" y1="253.7363" y2="253.7363"/><text fill="#000000" font-family="sans-serif" font-size="13" font-weight="bold" lengthAdjust="spacing" textLength="7" x="223" y="248.4736">3</text><text fill="#000000" font-family="sans-serif" font-size="13" lengthAdjust="spacing" textLength="82" x="234" y="248.4736">listAllGrades()</text><polygon fill="#181818" points="650.5,281.0273,660.5,285.0273,650.5,289.0273,654.5,285.0273" style="stroke:#181818;stroke-width:1.0;"/><line style="stroke:#181818;stroke-width:1.0;" x1="349" x2="656.5" y1="285.0273" y2="285.0273"/><text fill="#000000" font-family="sans-serif" font-size="13" font-weight="bold" lengthAdjust="spacing" textLength="7" x="356" y="279.7646">4</text><text fill="#000000" font-family="sans-serif" font-size="13" lengthAdjust="spacing" textLength="161" x="367" y="279.7646">list = findAllGrades(student)</text><polygon fill="#181818" points="227,342.3184,217,346.3184,227,350.3184,223,346.3184" style="stroke:#181818;stroke-width:1.0;"/><line style="stroke:#181818;stroke-width:1.0;stroke-dasharray:2.0,2.0;" x1="221" x2="343" y1="346.3184" y2="346.3184"/><text fill="#000000" font-family="sans-serif" font-size="13" font-weight="bold" lengthAdjust="spacing" textLength="7" x="233" y="341.0557">5</text><text fill="#000000" font-family="sans-serif" font-size="13" lengthAdjust="spacing" textLength="17" x="244" y="341.0557">list</text><polygon fill="#181818" points="37,373.6094,27,377.6094,37,381.6094,33,377.6094" style="stroke:#181818;stroke-width:1.0;"/><line style="stroke:#181818;stroke-width:1.0;stroke-dasharray:2.0,2.0;" x1="31" x2="205" y1="377.6094" y2="377.6094"/><text fill="#000000" font-family="sans-serif" font-size="13" font-weight="bold" lengthAdjust="spacing" textLength="7" x="43" y="372.3467">6</text><text fill="#000000" font-family="sans-serif" font-size="13" lengthAdjust="spacing" textLength="140" x="54" y="372.3467">Mostra a lista das notas</text><!--SRC=[VL5DJm8n4BttLqmyoS54ZvALX8Wn99eOaHymj0CsTDkrdVNZtplTXQKQe8UcqxxtfkzDsbhVOCGQwk23Ve-X9k3Oaah3IuDwYnjQy8yZYAGP_SQLWFIE9dnPlu4rkaHAiMM1BkYZ9Qy9PXOt6NUvc8tW2fOBkBc-lbNOSl1jlQAe56eE4QQkzG4mmJINIjJPQjkWPtYoYHyZ6ahBUKR8NbLDf4IUaMtmaudImNCChi3UzpUEOkOKLLLXqpYhzzIorGNZblp3DzRZj_tf8lE7QXPgj5v4J7SGla765IOwO5wf2ScAZPy_r7zFLHM7GcGa1lk9JBi0G5PtWgj9TZo65p84ENLmOX8xMpumfWuxq9VphivBQ48kh8z1HnBGW1XO1v0oTEpsZ6R-pjIvFlRBqLbnDRmM4Y9uAgHU7UvWRRqvD4dS6fd-aLudX0vz2tkdiCU-k9z2_iunhT9ZcPNm-Z6EuJaabkdjvWTcc5yPUJ_zNm00]--></g></svg>