<?xml version="1.0" encoding="us-ascii" standalone="no"?><svg xmlns="http://www.w3.org/2000/svg" xmlns:xlink="http://www.w3.org/1999/xlink" contentStyleType="text/css" height="534px" preserveAspectRatio="none" style="width:840px;height:534px;background:#FFFFFF;" version="1.1" viewBox="0 0 840 534" width="840px" zoomAndPan="magnify"><defs/><g><text fill="#000000" font-family="sans-serif" font-size="14" font-weight="bold" lengthAdjust="spacing" textLength="209" x="308.5" y="25.1074">Class Diagram (SSD) - US 1008</text><!--class CreateEnrollmentUI--><g id="elem_CreateEnrollmentUI"><rect codeLine="5" fill="#F1F1F1" height="79.2031" id="CreateEnrollmentUI" rx="2.5" ry="2.5" style="stroke:#181818;stroke-width:0.5;" width="154" x="466.5" y="46.6211"/><ellipse cx="481.5" cy="68.9121" fill="#ADD1B2" rx="11" ry="11" style="stroke:#181818;stroke-width:1.0;"/><path d="M484.2656,64.7871 Q484.4219,64.5684 484.6094,64.459 Q484.7969,64.3496 485.0156,64.3496 Q485.3906,64.3496 485.625,64.6152 Q485.8594,64.8652 485.8594,65.4746 L485.8594,66.9277 Q485.8594,67.5371 485.625,67.8027 Q485.3906,68.0684 485.0156,68.0684 Q484.6719,68.0684 484.4688,67.8652 Q484.2656,67.6777 484.1563,67.1621 Q484.1094,66.8027 483.9219,66.6152 Q483.5938,66.2402 482.9844,66.0215 Q482.375,65.8027 481.75,65.8027 Q480.9844,65.8027 480.3438,66.1309 Q479.7188,66.459 479.2188,67.209 Q478.7344,67.959 478.7344,68.9902 L478.7344,70.084 Q478.7344,71.3184 479.625,72.1465 Q480.5156,72.959 482.1094,72.959 Q483.0469,72.959 483.7031,72.709 Q484.0938,72.5527 484.5156,72.1152 Q484.7813,71.8496 484.9219,71.7715 Q485.0781,71.6934 485.2813,71.6934 Q485.6094,71.6934 485.8594,71.959 Q486.125,72.209 486.125,72.5527 Q486.125,72.8965 485.7813,73.3027 Q485.2813,73.8809 484.4844,74.209 Q483.4063,74.6621 482.1094,74.6621 Q480.5938,74.6621 479.3906,74.0371 Q478.4063,73.5371 477.7188,72.4746 Q477.0313,71.3965 477.0313,70.1152 L477.0313,68.959 Q477.0313,67.6309 477.6406,66.4902 Q478.2656,65.334 479.3594,64.7246 Q480.4531,64.0996 481.6875,64.0996 Q482.4219,64.0996 483.0625,64.2715 Q483.7188,64.4277 484.2656,64.7871 Z " fill="#000000"/><text fill="#000000" font-family="sans-serif" font-size="12" font-style="italic" lengthAdjust="spacing" textLength="82" x="515.5" y="64.5703">&#171;presentation&#187;</text><text fill="#000000" font-family="sans-serif" font-size="14" lengthAdjust="spacing" textLength="122" x="495.5" y="82.6895">CreateEnrollmentUI</text><line style="stroke:#181818;stroke-width:0.5;" x1="467.5" x2="619.5" y1="91.2031" y2="91.2031"/><line style="stroke:#181818;stroke-width:0.5;" x1="467.5" x2="619.5" y1="99.2031" y2="99.2031"/><text fill="#000000" font-family="sans-serif" font-size="14" lengthAdjust="spacing" textLength="60" x="472.5" y="118.3105">doShow()</text></g><!--class JpaCourseRepository--><g id="elem_JpaCourseRepository"><rect codeLine="9" fill="#F1F1F1" height="60.582" id="JpaCourseRepository" rx="2.5" ry="2.5" style="stroke:#181818;stroke-width:0.5;" width="168" x="249.5" y="466.6211"/><ellipse cx="264.5" cy="488.9121" fill="#ADD1B2" rx="11" ry="11" style="stroke:#181818;stroke-width:1.0;"/><path d="M267.2656,484.7871 Q267.4219,484.5684 267.6094,484.459 Q267.7969,484.3496 268.0156,484.3496 Q268.3906,484.3496 268.625,484.6152 Q268.8594,484.8652 268.8594,485.4746 L268.8594,486.9277 Q268.8594,487.5371 268.625,487.8027 Q268.3906,488.0684 268.0156,488.0684 Q267.6719,488.0684 267.4688,487.8652 Q267.2656,487.6777 267.1563,487.1621 Q267.1094,486.8027 266.9219,486.6152 Q266.5938,486.2402 265.9844,486.0215 Q265.375,485.8027 264.75,485.8027 Q263.9844,485.8027 263.3438,486.1309 Q262.7188,486.459 262.2188,487.209 Q261.7344,487.959 261.7344,488.9902 L261.7344,490.084 Q261.7344,491.3184 262.625,492.1465 Q263.5156,492.959 265.1094,492.959 Q266.0469,492.959 266.7031,492.709 Q267.0938,492.5527 267.5156,492.1152 Q267.7813,491.8496 267.9219,491.7715 Q268.0781,491.6934 268.2813,491.6934 Q268.6094,491.6934 268.8594,491.959 Q269.125,492.209 269.125,492.5527 Q269.125,492.8965 268.7813,493.3027 Q268.2813,493.8809 267.4844,494.209 Q266.4063,494.6621 265.1094,494.6621 Q263.5938,494.6621 262.3906,494.0371 Q261.4063,493.5371 260.7188,492.4746 Q260.0313,491.3965 260.0313,490.1152 L260.0313,488.959 Q260.0313,487.6309 260.6406,486.4902 Q261.2656,485.334 262.3594,484.7246 Q263.4531,484.0996 264.6875,484.0996 Q265.4219,484.0996 266.0625,484.2715 Q266.7188,484.4277 267.2656,484.7871 Z " fill="#000000"/><text fill="#000000" font-family="sans-serif" font-size="12" font-style="italic" lengthAdjust="spacing" textLength="77" x="308" y="484.5703">&#171;persistence&#187;</text><text fill="#000000" font-family="sans-serif" font-size="14" lengthAdjust="spacing" textLength="136" x="278.5" y="502.6895">JpaCourseRepository</text><line style="stroke:#181818;stroke-width:0.5;" x1="250.5" x2="416.5" y1="511.2031" y2="511.2031"/><line style="stroke:#181818;stroke-width:0.5;" x1="250.5" x2="416.5" y1="519.2031" y2="519.2031"/></g><!--class InMemoryCourseRepository--><g id="elem_InMemoryCourseRepository"><rect codeLine="10" fill="#F1F1F1" height="60.582" id="InMemoryCourseRepository" rx="2.5" ry="2.5" style="stroke:#181818;stroke-width:0.5;" width="207" x="7" y="466.6211"/><ellipse cx="22" cy="488.9121" fill="#ADD1B2" rx="11" ry="11" style="stroke:#181818;stroke-width:1.0;"/><path d="M24.7656,484.7871 Q24.9219,484.5684 25.1094,484.459 Q25.2969,484.3496 25.5156,484.3496 Q25.8906,484.3496 26.125,484.6152 Q26.3594,484.8652 26.3594,485.4746 L26.3594,486.9277 Q26.3594,487.5371 26.125,487.8027 Q25.8906,488.0684 25.5156,488.0684 Q25.1719,488.0684 24.9688,487.8652 Q24.7656,487.6777 24.6563,487.1621 Q24.6094,486.8027 24.4219,486.6152 Q24.0938,486.2402 23.4844,486.0215 Q22.875,485.8027 22.25,485.8027 Q21.4844,485.8027 20.8438,486.1309 Q20.2188,486.459 19.7188,487.209 Q19.2344,487.959 19.2344,488.9902 L19.2344,490.084 Q19.2344,491.3184 20.125,492.1465 Q21.0156,492.959 22.6094,492.959 Q23.5469,492.959 24.2031,492.709 Q24.5938,492.5527 25.0156,492.1152 Q25.2813,491.8496 25.4219,491.7715 Q25.5781,491.6934 25.7813,491.6934 Q26.1094,491.6934 26.3594,491.959 Q26.625,492.209 26.625,492.5527 Q26.625,492.8965 26.2813,493.3027 Q25.7813,493.8809 24.9844,494.209 Q23.9063,494.6621 22.6094,494.6621 Q21.0938,494.6621 19.8906,494.0371 Q18.9063,493.5371 18.2188,492.4746 Q17.5313,491.3965 17.5313,490.1152 L17.5313,488.959 Q17.5313,487.6309 18.1406,486.4902 Q18.7656,485.334 19.8594,484.7246 Q20.9531,484.0996 22.1875,484.0996 Q22.9219,484.0996 23.5625,484.2715 Q24.2188,484.4277 24.7656,484.7871 Z " fill="#000000"/><text fill="#000000" font-family="sans-serif" font-size="12" font-style="italic" lengthAdjust="spacing" textLength="77" x="85" y="484.5703">&#171;persistence&#187;</text><text fill="#000000" font-family="sans-serif" font-size="14" lengthAdjust="spacing" textLength="175" x="36" y="502.6895">InMemoryCourseRepository</text><line style="stroke:#181818;stroke-width:0.5;" x1="8" x2="213" y1="511.2031" y2="511.2031"/><line style="stroke:#181818;stroke-width:0.5;" x1="8" x2="213" y1="519.2031" y2="519.2031"/></g><!--class Course--><g id="elem_Course"><rect codeLine="12" fill="#F1F1F1" height="60.582" id="Course" rx="2.5" ry="2.5" style="stroke:#181818;stroke-width:0.5;" width="84" x="322.5" y="344.6211"/><ellipse cx="337.5" cy="366.9121" fill="#ADD1B2" rx="11" ry="11" style="stroke:#181818;stroke-width:1.0;"/><path d="M340.2656,362.7871 Q340.4219,362.5684 340.6094,362.459 Q340.7969,362.3496 341.0156,362.3496 Q341.3906,362.3496 341.625,362.6152 Q341.8594,362.8652 341.8594,363.4746 L341.8594,364.9277 Q341.8594,365.5371 341.625,365.8027 Q341.3906,366.0684 341.0156,366.0684 Q340.6719,366.0684 340.4688,365.8652 Q340.2656,365.6777 340.1563,365.1621 Q340.1094,364.8027 339.9219,364.6152 Q339.5938,364.2402 338.9844,364.0215 Q338.375,363.8027 337.75,363.8027 Q336.9844,363.8027 336.3438,364.1309 Q335.7188,364.459 335.2188,365.209 Q334.7344,365.959 334.7344,366.9902 L334.7344,368.084 Q334.7344,369.3184 335.625,370.1465 Q336.5156,370.959 338.1094,370.959 Q339.0469,370.959 339.7031,370.709 Q340.0938,370.5527 340.5156,370.1152 Q340.7813,369.8496 340.9219,369.7715 Q341.0781,369.6934 341.2813,369.6934 Q341.6094,369.6934 341.8594,369.959 Q342.125,370.209 342.125,370.5527 Q342.125,370.8965 341.7813,371.3027 Q341.2813,371.8809 340.4844,372.209 Q339.4063,372.6621 338.1094,372.6621 Q336.5938,372.6621 335.3906,372.0371 Q334.4063,371.5371 333.7188,370.4746 Q333.0313,369.3965 333.0313,368.1152 L333.0313,366.959 Q333.0313,365.6309 333.6406,364.4902 Q334.2656,363.334 335.3594,362.7246 Q336.4531,362.0996 337.6875,362.0996 Q338.4219,362.0996 339.0625,362.2715 Q339.7188,362.4277 340.2656,362.7871 Z " fill="#000000"/><text fill="#000000" font-family="sans-serif" font-size="12" font-style="italic" lengthAdjust="spacing" textLength="56" x="349.5" y="362.5703">&#171;domain&#187;</text><text fill="#000000" font-family="sans-serif" font-size="14" lengthAdjust="spacing" textLength="46" x="354.5" y="380.6895">Course</text><line style="stroke:#181818;stroke-width:0.5;" x1="323.5" x2="405.5" y1="389.2031" y2="389.2031"/><line style="stroke:#181818;stroke-width:0.5;" x1="323.5" x2="405.5" y1="397.2031" y2="397.2031"/></g><!--class Enrollement--><g id="elem_Enrollement"><rect codeLine="13" fill="#F1F1F1" height="60.582" id="Enrollement" rx="2.5" ry="2.5" style="stroke:#181818;stroke-width:0.5;" width="107" x="726" y="344.6211"/><ellipse cx="741" cy="366.9121" fill="#ADD1B2" rx="11" ry="11" style="stroke:#181818;stroke-width:1.0;"/><path d="M743.7656,362.7871 Q743.9219,362.5684 744.1094,362.459 Q744.2969,362.3496 744.5156,362.3496 Q744.8906,362.3496 745.125,362.6152 Q745.3594,362.8652 745.3594,363.4746 L745.3594,364.9277 Q745.3594,365.5371 745.125,365.8027 Q744.8906,366.0684 744.5156,366.0684 Q744.1719,366.0684 743.9688,365.8652 Q743.7656,365.6777 743.6563,365.1621 Q743.6094,364.8027 743.4219,364.6152 Q743.0938,364.2402 742.4844,364.0215 Q741.875,363.8027 741.25,363.8027 Q740.4844,363.8027 739.8438,364.1309 Q739.2188,364.459 738.7188,365.209 Q738.2344,365.959 738.2344,366.9902 L738.2344,368.084 Q738.2344,369.3184 739.125,370.1465 Q740.0156,370.959 741.6094,370.959 Q742.5469,370.959 743.2031,370.709 Q743.5938,370.5527 744.0156,370.1152 Q744.2813,369.8496 744.4219,369.7715 Q744.5781,369.6934 744.7813,369.6934 Q745.1094,369.6934 745.3594,369.959 Q745.625,370.209 745.625,370.5527 Q745.625,370.8965 745.2813,371.3027 Q744.7813,371.8809 743.9844,372.209 Q742.9063,372.6621 741.6094,372.6621 Q740.0938,372.6621 738.8906,372.0371 Q737.9063,371.5371 737.2188,370.4746 Q736.5313,369.3965 736.5313,368.1152 L736.5313,366.959 Q736.5313,365.6309 737.1406,364.4902 Q737.7656,363.334 738.8594,362.7246 Q739.9531,362.0996 741.1875,362.0996 Q741.9219,362.0996 742.5625,362.2715 Q743.2188,362.4277 743.7656,362.7871 Z " fill="#000000"/><text fill="#000000" font-family="sans-serif" font-size="12" font-style="italic" lengthAdjust="spacing" textLength="56" x="764.5" y="362.5703">&#171;domain&#187;</text><text fill="#000000" font-family="sans-serif" font-size="14" lengthAdjust="spacing" textLength="75" x="755" y="380.6895">Enrollement</text><line style="stroke:#181818;stroke-width:0.5;" x1="727" x2="832" y1="389.2031" y2="389.2031"/><line style="stroke:#181818;stroke-width:0.5;" x1="727" x2="832" y1="397.2031" y2="397.2031"/></g><!--class CreateEnrollmentController--><g id="elem_CreateEnrollmentController"><rect codeLine="15" fill="#F1F1F1" height="60.582" id="CreateEnrollmentController" rx="2.5" ry="2.5" style="stroke:#181818;stroke-width:0.5;" width="204" x="441.5" y="204.6211"/><ellipse cx="456.5" cy="226.9121" fill="#ADD1B2" rx="11" ry="11" style="stroke:#181818;stroke-width:1.0;"/><path d="M459.2656,222.7871 Q459.4219,222.5684 459.6094,222.459 Q459.7969,222.3496 460.0156,222.3496 Q460.3906,222.3496 460.625,222.6152 Q460.8594,222.8652 460.8594,223.4746 L460.8594,224.9277 Q460.8594,225.5371 460.625,225.8027 Q460.3906,226.0684 460.0156,226.0684 Q459.6719,226.0684 459.4688,225.8652 Q459.2656,225.6777 459.1563,225.1621 Q459.1094,224.8027 458.9219,224.6152 Q458.5938,224.2402 457.9844,224.0215 Q457.375,223.8027 456.75,223.8027 Q455.9844,223.8027 455.3438,224.1309 Q454.7188,224.459 454.2188,225.209 Q453.7344,225.959 453.7344,226.9902 L453.7344,228.084 Q453.7344,229.3184 454.625,230.1465 Q455.5156,230.959 457.1094,230.959 Q458.0469,230.959 458.7031,230.709 Q459.0938,230.5527 459.5156,230.1152 Q459.7813,229.8496 459.9219,229.7715 Q460.0781,229.6934 460.2813,229.6934 Q460.6094,229.6934 460.8594,229.959 Q461.125,230.209 461.125,230.5527 Q461.125,230.8965 460.7813,231.3027 Q460.2813,231.8809 459.4844,232.209 Q458.4063,232.6621 457.1094,232.6621 Q455.5938,232.6621 454.3906,232.0371 Q453.4063,231.5371 452.7188,230.4746 Q452.0313,229.3965 452.0313,228.1152 L452.0313,226.959 Q452.0313,225.6309 452.6406,224.4902 Q453.2656,223.334 454.3594,222.7246 Q455.4531,222.0996 456.6875,222.0996 Q457.4219,222.0996 458.0625,222.2715 Q458.7188,222.4277 459.2656,222.7871 Z " fill="#000000"/><text fill="#000000" font-family="sans-serif" font-size="12" font-style="italic" lengthAdjust="spacing" textLength="74" x="519.5" y="222.5703">&#171;application&#187;</text><text fill="#000000" font-family="sans-serif" font-size="14" lengthAdjust="spacing" textLength="172" x="470.5" y="240.6895">CreateEnrollmentController</text><line style="stroke:#181818;stroke-width:0.5;" x1="442.5" x2="644.5" y1="249.2031" y2="249.2031"/><line style="stroke:#181818;stroke-width:0.5;" x1="442.5" x2="644.5" y1="257.2031" y2="257.2031"/></g><!--class ListCourseService--><g id="elem_ListCourseService"><rect codeLine="16" fill="#F1F1F1" height="60.582" id="ListCourseService" rx="2.5" ry="2.5" style="stroke:#181818;stroke-width:0.5;" width="147" x="544" y="344.6211"/><ellipse cx="559" cy="366.9121" fill="#ADD1B2" rx="11" ry="11" style="stroke:#181818;stroke-width:1.0;"/><path d="M561.7656,362.7871 Q561.9219,362.5684 562.1094,362.459 Q562.2969,362.3496 562.5156,362.3496 Q562.8906,362.3496 563.125,362.6152 Q563.3594,362.8652 563.3594,363.4746 L563.3594,364.9277 Q563.3594,365.5371 563.125,365.8027 Q562.8906,366.0684 562.5156,366.0684 Q562.1719,366.0684 561.9688,365.8652 Q561.7656,365.6777 561.6563,365.1621 Q561.6094,364.8027 561.4219,364.6152 Q561.0938,364.2402 560.4844,364.0215 Q559.875,363.8027 559.25,363.8027 Q558.4844,363.8027 557.8438,364.1309 Q557.2188,364.459 556.7188,365.209 Q556.2344,365.959 556.2344,366.9902 L556.2344,368.084 Q556.2344,369.3184 557.125,370.1465 Q558.0156,370.959 559.6094,370.959 Q560.5469,370.959 561.2031,370.709 Q561.5938,370.5527 562.0156,370.1152 Q562.2813,369.8496 562.4219,369.7715 Q562.5781,369.6934 562.7813,369.6934 Q563.1094,369.6934 563.3594,369.959 Q563.625,370.209 563.625,370.5527 Q563.625,370.8965 563.2813,371.3027 Q562.7813,371.8809 561.9844,372.209 Q560.9063,372.6621 559.6094,372.6621 Q558.0938,372.6621 556.8906,372.0371 Q555.9063,371.5371 555.2188,370.4746 Q554.5313,369.3965 554.5313,368.1152 L554.5313,366.959 Q554.5313,365.6309 555.1406,364.4902 Q555.7656,363.334 556.8594,362.7246 Q557.9531,362.0996 559.1875,362.0996 Q559.9219,362.0996 560.5625,362.2715 Q561.2188,362.4277 561.7656,362.7871 Z " fill="#000000"/><text fill="#000000" font-family="sans-serif" font-size="12" font-style="italic" lengthAdjust="spacing" textLength="74" x="593.5" y="362.5703">&#171;application&#187;</text><text fill="#000000" font-family="sans-serif" font-size="14" lengthAdjust="spacing" textLength="115" x="573" y="380.6895">ListCourseService</text><line style="stroke:#181818;stroke-width:0.5;" x1="545" x2="690" y1="389.2031" y2="389.2031"/><line style="stroke:#181818;stroke-width:0.5;" x1="545" x2="690" y1="397.2031" y2="397.2031"/></g><!--class CourseRepository--><g id="elem_CourseRepository"><rect codeLine="18" fill="#F1F1F1" height="60.582" id="CourseRepository" rx="2.5" ry="2.5" style="stroke:#181818;stroke-width:0.5;" width="146" x="452.5" y="466.6211"/><ellipse cx="467.5" cy="488.9121" fill="#B4A7E5" rx="11" ry="11" style="stroke:#181818;stroke-width:1.0;"/><path d="M468.4531,485.5527 L468.4531,492.209 L470.1719,492.209 Q470.7813,492.209 471.0469,492.4434 Q471.3125,492.6777 471.3125,493.0684 Q471.3125,493.4434 471.0469,493.6777 Q470.7813,493.9121 470.1719,493.9121 L465.0313,493.9121 Q464.4219,493.9121 464.1563,493.6777 Q463.8906,493.4434 463.8906,493.0527 Q463.8906,492.6777 464.1563,492.4434 Q464.4219,492.209 465.0313,492.209 L466.75,492.209 L466.75,485.5527 L465.0313,485.5527 Q464.4219,485.5527 464.1563,485.3184 Q463.8906,485.084 463.8906,484.6934 Q463.8906,484.3184 464.1563,484.084 Q464.4219,483.8496 465.0313,483.8496 L470.1719,483.8496 Q470.7813,483.8496 471.0469,484.084 Q471.3125,484.3184 471.3125,484.6934 Q471.3125,485.084 471.0469,485.3184 Q470.7813,485.5527 470.1719,485.5527 L468.4531,485.5527 Z " fill="#000000"/><text fill="#000000" font-family="sans-serif" font-size="12" font-style="italic" lengthAdjust="spacing" textLength="78" x="499.5" y="484.5703">&#171;repositories&#187;</text><text fill="#000000" font-family="sans-serif" font-size="14" font-style="italic" lengthAdjust="spacing" textLength="114" x="481.5" y="502.6895">CourseRepository</text><line style="stroke:#181818;stroke-width:0.5;" x1="453.5" x2="597.5" y1="511.2031" y2="511.2031"/><line style="stroke:#181818;stroke-width:0.5;" x1="453.5" x2="597.5" y1="519.2031" y2="519.2031"/></g><!--link CreateEnrollmentUI to CreateEnrollmentController--><g id="link_CreateEnrollmentUI_CreateEnrollmentController"><path codeLine="21" d="M543.5,125.7411 C543.5,148.5811 543.5,177.2711 543.5,199.3911 " fill="none" id="CreateEnrollmentUI-to-CreateEnrollmentController" style="stroke:#181818;stroke-width:1.0;"/><polygon fill="#181818" points="543.5,204.5811,547.5,195.5811,543.5,199.5811,539.5,195.5811,543.5,204.5811" style="stroke:#181818;stroke-width:1.0;"/><text fill="#000000" font-family="sans-serif" font-size="13" lengthAdjust="spacing" textLength="73" x="544.5" y="170.6494">theController</text></g><!--link CreateEnrollmentController to CourseRepository--><g id="link_CreateEnrollmentController_CourseRepository"><path codeLine="22" d="M527.72,266.0211 C517.42,287.2811 504.91,316.8911 499.5,344.6211 C491.69,384.6511 502.47,430.8811 512.43,461.6411 " fill="none" id="CreateEnrollmentController-to-CourseRepository" style="stroke:#181818;stroke-width:1.0;"/><polygon fill="#181818" points="514.02,466.4411,514.9864,456.6398,512.4474,461.6948,507.3924,459.1559,514.02,466.4411" style="stroke:#181818;stroke-width:1.0;"/><text fill="#000000" font-family="sans-serif" font-size="13" lengthAdjust="spacing" textLength="25" x="500.5" y="380.6494">repo</text></g><!--link CreateEnrollmentController to ListCourseService--><g id="link_CreateEnrollmentController_ListCourseService"><path codeLine="23" d="M559.44,265.9511 C567.28,280.6111 576.88,298.5511 585.5,314.6211 C589.9,322.8211 594.64,331.6511 599.1,339.9311 " fill="none" id="CreateEnrollmentController-to-ListCourseService" style="stroke:#181818;stroke-width:1.0;"/><polygon fill="#181818" points="601.54,344.4711,600.7912,334.6507,599.1678,340.0697,593.7489,338.4463,601.54,344.4711" style="stroke:#181818;stroke-width:1.0;"/><text fill="#000000" font-family="sans-serif" font-size="13" lengthAdjust="spacing" textLength="40" x="586.5" y="310.6494">service</text></g><!--link CreateEnrollmentController to Course--><g id="link_CreateEnrollmentController_Course"><path codeLine="24" d="M460.77,265.7111 C444.38,273.8511 428.06,283.7811 414.5,295.6211 C400.6,307.7611 389.16,324.6811 380.74,339.7111 " fill="none" id="CreateEnrollmentController-to-Course" style="stroke:#181818;stroke-width:1.0;"/><polygon fill="#181818" points="378.22,344.3111,386.0494,338.3361,380.6203,339.9249,379.0315,334.4957,378.22,344.3111" style="stroke:#181818;stroke-width:1.0;"/><text fill="#000000" font-family="sans-serif" font-size="13" lengthAdjust="spacing" textLength="39" x="415.5" y="310.6494">course</text></g><!--link CreateEnrollmentController to Enrollement--><g id="link_CreateEnrollmentController_Enrollement"><path codeLine="25" d="M592.9,265.7711 C617.64,280.5511 648.09,298.6311 675.5,314.6211 C690.72,323.5011 707.27,333.0211 722.58,341.7911 " fill="none" id="CreateEnrollmentController-to-Enrollement" style="stroke:#181818;stroke-width:1.0;"/><polygon fill="#181818" points="727.29,344.4811,721.466,336.5387,722.9505,341.9973,717.492,343.4819,727.29,344.4811" style="stroke:#181818;stroke-width:1.0;"/><text fill="#000000" font-family="sans-serif" font-size="13" lengthAdjust="spacing" textLength="67" x="676.5" y="310.6494">enrollement</text></g><!--link JpaCourseRepository to CourseRepository--><g id="link_JpaCourseRepository_CourseRepository"><path codeLine="26" d="M417.88,497.1211 C427.66,497.1211 437.45,497.1211 447.23,497.1211 " fill="none" id="JpaCourseRepository-to-CourseRepository" style="stroke:#181818;stroke-width:1.0;"/><polygon fill="#181818" points="452.35,497.1211,443.35,493.1211,447.35,497.1211,443.35,501.1211,452.35,497.1211" style="stroke:#181818;stroke-width:1.0;"/></g><!--link InMemoryCourseRepository to CourseRepository--><g id="link_InMemoryCourseRepository_CourseRepository"><path codeLine="27" d="M165.66,466.5211 C190.36,454.5011 220.33,442.1511 249,436.1211 C322.07,420.7411 344.77,417.2111 417,436.1211 C438.49,441.7511 460.21,452.6911 478.52,463.7711 " fill="none" id="InMemoryCourseRepository-to-CourseRepository" style="stroke:#181818;stroke-width:1.0;"/><polygon fill="#181818" points="483.1,466.5911,477.5436,458.4593,478.8456,463.9642,473.3407,465.2662,483.1,466.5911" style="stroke:#181818;stroke-width:1.0;"/></g><!--link CreateEnrollmentUI to Course--><g id="link_CreateEnrollmentUI_Course"><path codeLine="30" d="M494.93,125.7511 C470.83,146.9511 442.82,174.9211 423.5,204.6211 C395.97,246.9411 379.65,303.5911 371.38,339.4811 " fill="none" id="CreateEnrollmentUI-to-Course" style="stroke:#181818;stroke-width:1.0;stroke-dasharray:7.0,7.0;"/><polygon fill="#181818" points="370.22,344.6211,376.1041,336.7232,371.3213,339.7439,368.3006,334.9611,370.22,344.6211" style="stroke:#181818;stroke-width:1.0;"/></g><!--link CreateEnrollmentUI to Enrollement--><g id="link_CreateEnrollmentUI_Enrollement"><path codeLine="31" d="M592.74,125.6311 C638.93,164.1311 706.95,227.3111 748.5,295.6211 C756.71,309.1111 763.5,325.1511 768.61,339.2111 " fill="none" id="CreateEnrollmentUI-to-Enrollement" style="stroke:#181818;stroke-width:1.0;stroke-dasharray:7.0,7.0;"/><polygon fill="#181818" points="770.42,344.2911,771.1562,334.4698,768.7365,339.583,763.6233,337.1634,770.42,344.2911" style="stroke:#181818;stroke-width:1.0;"/></g><!--link ListCourseService to CourseRepository--><g id="link_ListCourseService_CourseRepository"><path codeLine="32" d="M594.76,405.7811 C581.6,422.9511 564.99,444.6011 551.34,462.4111 " fill="none" id="ListCourseService-to-CourseRepository" style="stroke:#181818;stroke-width:1.0;stroke-dasharray:7.0,7.0;"/><polygon fill="#181818" points="548.3,466.3811,556.9489,461.6697,551.341,462.4121,550.5986,456.8042,548.3,466.3811" style="stroke:#181818;stroke-width:1.0;"/></g><!--SRC=[ZPAnReCm48RtUuhRI0QaTAjGn08TKhKTYZ9L7Iou1ajWMxQRgghoxZK64WGanDET_Ftd_yvdkQq8auePWobd1yrgN6LPkiOGzna-R3QF011uW0pa7amqCKjFGikggadO_GwtMwN9k9XPBaKSun-WEuNCIlcpMiC9EkspOedyreRUIKd3hTI_ZPYquSQIoAdHdZfu9rwfTiGzYjwRHnrGo9fnCQpM6gR6yUZ-Ib-95DPBjEEPKXNFp-trHL-SYVRDZFIHvpH6c_9SMD9Vp5tETABxX9Ffx0HlxCWFlW3C33iCurjU8xGbNNAuWVfAOqiHDfQMPDF68pHjTD-BZizzi8GF_or2kcGmjqmp7S7LFPg38KX9aIZSQhaVcPt_Hy5CISNdMRv43Lg0wU2czGPs_W40]--></g></svg>