<?xml version="1.0" encoding="us-ascii" standalone="no"?><svg xmlns="http://www.w3.org/2000/svg" xmlns:xlink="http://www.w3.org/1999/xlink" contentStyleType="text/css" height="932px" preserveAspectRatio="none" style="width:1433px;height:932px;background:#FFFFFF;" version="1.1" viewBox="0 0 1433 932" width="1433px" zoomAndPan="magnify"><defs/><g><text fill="#000000" font-family="sans-serif" font-size="14" font-weight="bold" lengthAdjust="spacing" textLength="233" x="601.5" y="30.1074">Sequence Diagram (SD) - US 1008</text><polygon fill="#FFFFFF" points="21,137.8633,21,137.9333,23,137.7252,25,137.9277,27,137.9965,29,137.6255,31,137.8633,30.9223,137.8633,30.5735,147.8312,30.6165,157.7992,30.9318,167.7671,30.3086,177.7351,31.5536,187.703,30.3697,197.671,30.8022,207.6389,31.4319,217.6068,30.9142,227.5748,31.0682,237.5427,30.9681,247.5107,31.1785,257.4786,31.2391,267.4466,31.5857,277.4145,31.6711,287.3825,31.6793,297.3504,31.2546,307.3184,31.4636,317.2863,31.7022,327.2543,30.2788,337.2222,31.6785,347.1901,30.7035,357.1581,31.5338,367.126,30.505,377.094,30.9315,387.0619,31.7416,397.0299,30.9513,406.9978,31.1053,416.9658,31.3386,426.9337,31.4162,436.9017,30.9961,446.8696,31.2872,456.8375,30.4276,466.8055,31.2844,476.7734,31.5482,486.7414,31.4445,496.7093,31.613,506.6773,30.5169,516.6452,30.3478,526.6132,30.3786,536.5811,30.9411,546.5491,30.8035,556.517,31.6814,566.4849,30.8253,576.4529,30.6569,586.4208,31.2283,596.3888,30.3332,606.3567,30.4809,616.3247,31.649,626.2926,31.4357,636.2606,31.7345,646.2285,30.6782,656.1965,31.3192,666.1644,31.5904,676.1324,30.5276,686.1003,30.9041,696.0682,31.126,706.0362,31.6518,716.0041,30.9958,725.9721,31.4626,735.94,30.4462,745.908,30.3227,755.8759,31.5036,765.8439,30.2831,775.8118,31.509,785.7798,31.2066,795.7477,30.7321,805.7156,31,815.6836,31,815.5657,29,815.8365,27,815.5838,25,815.8809,23,815.4993,21,815.6836,21.6174,815.6836,21.4843,805.7156,21.245,795.7477,21.0472,785.7798,21.7266,775.8118,21.6136,765.8439,21.1693,755.8759,21.2682,745.908,20.8697,735.94,21.7165,725.9721,21.1549,716.0041,21.1726,706.0362,20.3916,696.0682,20.5948,686.1003,21.5307,676.1324,21.4298,666.1644,20.9571,656.1965,20.6778,646.2285,20.7811,636.2606,20.3138,626.2926,21.4147,616.3247,21.7396,606.3567,21.5264,596.3888,21.6949,586.4208,20.8633,576.4529,21.0872,566.4849,20.6124,556.517,21.284,546.5491,21.2468,536.5811,21.5524,526.6132,20.7703,516.6452,20.8656,506.6773,21.4435,496.7093,21.5673,486.7414,20.4875,476.7734,20.8061,466.8055,21.1493,456.8375,20.3892,446.8696,21.3534,436.9017,21.258,426.9337,20.8992,416.9658,21.1422,406.9978,21.7287,397.0299,20.6871,387.0619,21.315,377.094,21.2856,367.126,21.1158,357.1581,21.1409,347.1901,21.1135,337.2222,20.3758,327.2543,20.5992,317.2863,20.5385,307.3184,21.0638,297.3504,21.0881,287.3825,21.1617,277.4145,20.709,267.4466,20.9325,257.4786,20.8798,247.5107,21.5769,237.5427,21.4266,227.5748,20.5145,217.6068,20.9271,207.6389,20.4228,197.671,21.2884,187.703,21.6085,177.7351,21.5446,167.7671,20.5644,157.7992,21.464,147.8312,21,137.8633" style="stroke:#181818;stroke-width:1.0;"/><polygon fill="#FFFFFF" points="424,161.1543,424,161.2244,426,161.0162,428,161.2187,430,161.2875,432,160.9165,434,161.1543,433.9223,161.1543,433.5735,171.224,433.6165,181.2937,433.9318,191.3633,433.3086,201.433,434.5536,211.5027,433.3697,221.5724,433.8022,231.6421,434.4319,241.7117,433.9142,251.7814,434.0682,261.8511,433.9681,271.9208,434.1785,281.9905,434.2391,292.0602,434.5857,302.1298,434.6711,312.1995,434.6793,322.2692,434.2546,332.3389,434.4636,342.4086,434.7022,352.4782,433.2788,362.5479,434.6785,372.6176,433.7035,382.6873,434.5338,392.757,433.505,402.8267,433.9315,412.8963,434.7416,422.966,433.9513,433.0357,434.1053,443.1054,434.3386,453.1751,434.4162,463.2447,433.9961,473.3144,434.2872,483.3841,433.4276,493.4538,434.2844,503.5235,434.5482,513.5931,434.4445,523.6628,434.613,533.7325,433.5169,543.8022,433.3478,553.8719,433.3786,563.9416,433.9411,574.0112,433.8035,584.0809,434.6814,594.1506,433.8253,604.2203,433.6569,614.29,434.2283,624.3596,433.3332,634.4293,433.4809,644.499,434.649,654.5687,434.4357,664.6384,434.7345,674.7081,433.6782,684.7777,434.3192,694.8474,434.5904,704.9171,433.5276,714.9868,433.9041,725.0565,434.126,735.1261,434.6518,745.1958,433.9958,755.2655,434.4626,765.3352,433.4462,775.4049,433.3227,785.4745,434.5036,795.5442,433.2831,805.6139,434,815.6836,434,815.8532,432,815.7525,430,815.5943,428,815.5657,426,815.8365,424,815.6836,423.7007,815.6836,424.5919,805.6139,423.4473,795.5442,424.6174,785.4745,424.4843,775.4049,424.245,765.3352,424.0472,755.2655,424.7266,745.1958,424.6136,735.1261,424.1693,725.0565,424.2682,714.9868,423.8697,704.9171,424.7165,694.8474,424.1549,684.7777,424.1726,674.7081,423.3916,664.6384,423.5948,654.5687,424.5307,644.499,424.4298,634.4293,423.9571,624.3596,423.6778,614.29,423.7811,604.2203,423.3138,594.1506,424.4147,584.0809,424.7396,574.0112,424.5264,563.9416,424.6949,553.8719,423.8633,543.8022,424.0872,533.7325,423.6124,523.6628,424.284,513.5931,424.2468,503.5235,424.5524,493.4538,423.7703,483.3841,423.8656,473.3144,424.4435,463.2447,424.5673,453.1751,423.4875,443.1054,423.8061,433.0357,424.1493,422.966,423.3892,412.8963,424.3534,402.8267,424.258,392.757,423.8992,382.6873,424.1422,372.6176,424.7287,362.5479,423.6871,352.4782,424.315,342.4086,424.2856,332.3389,424.1158,322.2692,424.1409,312.1995,424.1135,302.1298,423.3758,292.0602,423.5992,281.9905,423.5385,271.9208,424.0638,261.8511,424.0881,251.7814,424.1617,241.7117,423.709,231.6421,423.9325,221.5724,423.8798,211.5027,424.5769,201.433,424.4266,191.3633,423.5145,181.2937,423.9271,171.224,424,161.1543" style="stroke:#181818;stroke-width:1.0;"/><polygon fill="#FFFFFF" points="619,255.0273,619,255.0974,621,254.8892,623,255.0918,625,255.1606,627,254.7895,629,255.0273,628.9223,255.0273,628.5735,264.7251,628.6165,274.4229,628.9318,284.1206,628.3086,293.8184,629.5536,303.5161,628.3697,313.2139,628.8022,322.9116,629.4319,332.6094,628.9142,342.3071,629.0682,352.0049,628.9681,361.7026,629.1785,371.4004,629.2391,381.0981,629.5857,390.7959,629.6711,400.4937,629,410.1914,629,410.4178,627,410.2763,625,410.3459,623,410.4255,621,409.951,619,410.1914,619.6785,410.1914,618.7035,400.4937,619.5338,390.7959,618.505,381.0981,618.9315,371.4004,619.7416,361.7026,618.9513,352.0049,619.1053,342.3071,619.3386,332.6094,619.4162,322.9116,618.9961,313.2139,619.2872,303.5161,618.4276,293.8184,619.2844,284.1206,619.5482,274.4229,619.4445,264.7251,619,255.0273" style="stroke:#181818;stroke-width:1.0;"/><polygon fill="#FFFFFF" points="619,504.0645,619,504.1345,621,503.9263,623,504.1289,625,504.1977,627,503.8267,629,504.0645,628.9223,504.0645,628.5735,514.0762,628.6165,524.0879,628.9318,534.0996,628.3086,544.1113,629.5536,554.123,628.3697,564.1348,628.8022,574.1465,629.4319,584.1582,628.9142,594.1699,629.0682,604.1816,628.9681,614.1934,629.1785,624.2051,629.2391,634.2168,629.5857,644.2285,629.6711,654.2402,629.6793,664.252,629.2546,674.2637,629.4636,684.2754,629.7022,694.2871,628.2788,704.2988,629.6785,714.3105,628.7035,724.3223,629.5338,734.334,628.505,744.3457,628.9315,754.3574,629.7416,764.3691,628.9513,774.3809,629,784.3926,629,784.4277,627,784.5055,625,784.5313,623,784.3913,621,784.4883,619,784.3926,618.4276,784.3926,619.2844,774.3809,619.5482,764.3691,619.4445,754.3574,619.613,744.3457,618.5169,734.334,618.3478,724.3223,618.3786,714.3105,618.9411,704.2988,618.8035,694.2871,619.6814,684.2754,618.8253,674.2637,618.6569,664.252,619.2283,654.2402,618.3332,644.2285,618.4809,634.2168,619.649,624.2051,619.4357,614.1934,619.7345,604.1816,618.6782,594.1699,619.3192,584.1582,619.5904,574.1465,618.5276,564.1348,618.9041,554.123,619.126,544.1113,619.6518,534.0996,618.9958,524.0879,619.4626,514.0762,619,504.0645" style="stroke:#181818;stroke-width:1.0;"/><polygon fill="#FFFFFF" points="786.5,566.6465,786.5,566.7165,788.5,566.5084,790.5,566.7109,792.5,566.7797,794.5,566.4087,796.5,566.6465,796.4223,566.6465,796.0735,577.0768,796.1165,587.5072,796.4318,597.9375,795.8086,608.3678,797.0536,618.7982,795.8697,629.2285,796.3022,639.6589,796.9319,650.0892,796.5,660.5195,796.5,660.4909,794.5,660.5423,792.5,660.5089,790.5,660.579,788.5,660.5992,786.5,660.5195,787.0857,660.5195,787.1711,650.0892,787.1793,639.6589,786.7546,629.2285,786.9636,618.7982,787.2022,608.3678,785.7788,597.9375,787.1785,587.5072,786.2035,577.0768,786.5,566.6465" style="stroke:#181818;stroke-width:1.0;"/><polygon fill="#FFFFFF" points="927.5,286.3184,927.5,286.3884,929.5,286.1803,931.5,286.3828,933.5,286.4516,935.5,286.0806,937.5,286.3184,937.4223,286.3184,937.0735,296.6053,937.1165,306.8921,937.4318,317.179,936.8086,327.4659,938.0536,337.7528,936.8697,348.0397,937.3022,358.3266,937.9319,368.6135,937.5,378.9004,937.5,378.8718,935.5,378.9231,933.5,378.8897,931.5,378.9599,929.5,378.9801,927.5,378.9004,928.0857,378.9004,928.1711,368.6135,928.1793,358.3266,927.7546,348.0397,927.9636,337.7528,928.2022,327.4659,926.7788,317.179,928.1785,306.8921,927.2035,296.6053,927.5,286.3184" style="stroke:#181818;stroke-width:1.0;"/><polygon fill="#FFFFFF" points="1059,691.8105,1059,691.8806,1061,691.6724,1063,691.875,1065,691.9438,1067,691.5727,1069,691.8105,1068.9741,691.8105,1068.8578,697.8105,1068.8722,703.8105,1068.9773,709.8105,1068.7695,715.8105,1069,721.8105,1069,721.9951,1067,721.6005,1065,721.7446,1063,721.9545,1061,721.782,1059,721.8105,1059.0227,721.8105,1058.9894,715.8105,1059.0595,709.8105,1059.0797,703.8105,1059.1952,697.8105,1059,691.8105" style="stroke:#181818;stroke-width:1.0;"/><polygon fill="#FFFFFF" points="1209.5,597.9375,1209.5,598.0076,1211.5,597.7994,1213.5,598.0019,1215.5,598.0707,1217.5,597.6997,1219.5,597.9375,1219.4741,597.9375,1219.3578,604.1957,1219.3722,610.4539,1219.4773,616.7121,1219.2695,622.9703,1219.5,629.2285,1219.5,629.4131,1217.5,629.0184,1215.5,629.1626,1213.5,629.3725,1211.5,629.1999,1209.5,629.2285,1209.5227,629.2285,1209.4894,622.9703,1209.5595,616.7121,1209.5797,610.4539,1209.6952,604.1957,1209.5,597.9375" style="stroke:#181818;stroke-width:1.0;"/><polygon fill="#FFFFFF" points="1365,317.6094,1365,317.6794,1367,317.4713,1369,317.6738,1371,317.7426,1373,317.3716,1375,317.6094,1374.9741,317.6094,1374.8578,323.6094,1374.8722,329.6094,1374.9773,335.6094,1374.7695,341.6094,1375,347.6094,1375,347.7939,1373,347.3993,1371,347.5435,1369,347.7534,1367,347.5808,1365,347.6094,1365.0227,347.6094,1364.9894,341.6094,1365.0595,335.6094,1365.0797,329.6094,1365.1952,323.6094,1365,317.6094" style="stroke:#181818;stroke-width:1.0;"/><path d="M26,127.8633 L26.2802,127.8633 L25.4476,137.8044 L26.2577,147.7455 L26.5329,157.6867 L25.0488,167.6278 L25.8964,177.5689 L25.4313,187.5101 L25.4887,197.4512 L25.9091,207.3923 L25.0782,217.3335 L26.7382,227.2746 L25.1596,237.2157 L25.7363,247.1569 L26.5759,257.098 L25.8856,267.0391 L26.091,276.9802 L25.9574,286.9214 L26.238,296.8625 L26.3188,306.8036 L26.7809,316.7448 L26.8947,326.6859 L26.9057,336.627 L26.3395,346.5682 L26.6181,356.5093 L26.9363,366.4504 L25.0384,376.3916 L26.9047,386.3327 L25.6047,396.2738 L26.7117,406.215 L25.34,416.1561 L25.9087,426.0972 L26.9888,436.0383 L25.935,445.9795 L26.1404,455.9206 L26.4515,465.8617 L26.555,475.8029 L25.9948,485.744 L26.383,495.6851 L25.2368,505.6263 L26.3792,515.5674 L26.7309,525.5085 L26.5927,535.4497 L26.8174,545.3908 L25.3559,555.3319 L25.1304,565.2731 L25.1715,575.2142 L25.9215,585.1553 L25.738,595.0964 L26.9085,605.0376 L25.7671,614.9787 L25.5426,624.9198 L26.3044,634.861 L25.1109,644.8021 L25.3078,654.7432 L26.8653,664.6844 L26.5809,674.6255 L26.9793,684.5666 L25.5709,694.5078 L26.4256,704.4489 L26.7872,714.39 L25.3701,724.3312 L25.8722,734.2723 L26.168,744.2134 L26.869,754.1545 L25.9944,764.0957 L26.6168,774.0368 L25.2616,783.9779 L25.097,793.9191 L26.6715,803.8602 L25.0441,813.8013 L26.6786,823.7425 L26,833.6836 " fill="none" style="stroke:#181818;stroke-width:0.5;stroke-dasharray:5.0,5.0;"/><path d="M429,127.8633 L429.2802,127.8633 L428.4476,137.8044 L429.2577,147.7455 L429.5329,157.6867 L428.0488,167.6278 L428.8964,177.5689 L428.4313,187.5101 L428.4887,197.4512 L428.9091,207.3923 L428.0782,217.3335 L429.7382,227.2746 L428.1596,237.2157 L428.7363,247.1569 L429.5759,257.098 L428.8856,267.0391 L429.091,276.9802 L428.9574,286.9214 L429.238,296.8625 L429.3188,306.8036 L429.7809,316.7448 L429.8947,326.6859 L429.9057,336.627 L429.3395,346.5682 L429.6181,356.5093 L429.9363,366.4504 L428.0384,376.3916 L429.9047,386.3327 L428.6047,396.2738 L429.7117,406.215 L428.34,416.1561 L428.9087,426.0972 L429.9888,436.0383 L428.935,445.9795 L429.1404,455.9206 L429.4515,465.8617 L429.555,475.8029 L428.9948,485.744 L429.383,495.6851 L428.2368,505.6263 L429.3792,515.5674 L429.7309,525.5085 L429.5927,535.4497 L429.8174,545.3908 L428.3559,555.3319 L428.1304,565.2731 L428.1715,575.2142 L428.9215,585.1553 L428.738,595.0964 L429.9085,605.0376 L428.7671,614.9787 L428.5426,624.9198 L429.3044,634.861 L428.1109,644.8021 L428.3078,654.7432 L429.8653,664.6844 L429.5809,674.6255 L429.9793,684.5666 L428.5709,694.5078 L429.4256,704.4489 L429.7872,714.39 L428.3701,724.3312 L428.8722,734.2723 L429.168,744.2134 L429.869,754.1545 L428.9944,764.0957 L429.6168,774.0368 L428.2616,783.9779 L428.097,793.9191 L429.6715,803.8602 L428.0441,813.8013 L429.6786,823.7425 L429,833.6836 " fill="none" style="stroke:#181818;stroke-width:0.5;stroke-dasharray:5.0,5.0;"/><path d="M624,127.8633 L624.2802,127.8633 L623.4476,137.8044 L624.2577,147.7455 L624.5329,157.6867 L623.0488,167.6278 L623.8964,177.5689 L623.4313,187.5101 L623.4887,197.4512 L623.9091,207.3923 L623.0782,217.3335 L624.7382,227.2746 L623.1596,237.2157 L623.7363,247.1569 L624.5759,257.098 L623.8856,267.0391 L624.091,276.9802 L623.9574,286.9214 L624.238,296.8625 L624.3188,306.8036 L624.7809,316.7448 L624.8947,326.6859 L624.9057,336.627 L624.3395,346.5682 L624.6181,356.5093 L624.9363,366.4504 L623.0384,376.3916 L624.9047,386.3327 L623.6047,396.2738 L624.7117,406.215 L623.34,416.1561 L623.9087,426.0972 L624.9888,436.0383 L623.935,445.9795 L624.1404,455.9206 L624.4515,465.8617 L624.555,475.8029 L623.9948,485.744 L624.383,495.6851 L623.2368,505.6263 L624.3792,515.5674 L624.7309,525.5085 L624.5927,535.4497 L624.8174,545.3908 L623.3559,555.3319 L623.1304,565.2731 L623.1715,575.2142 L623.9215,585.1553 L623.738,595.0964 L624.9085,605.0376 L623.7671,614.9787 L623.5426,624.9198 L624.3044,634.861 L623.1109,644.8021 L623.3078,654.7432 L624.8653,664.6844 L624.5809,674.6255 L624.9793,684.5666 L623.5709,694.5078 L624.4256,704.4489 L624.7872,714.39 L623.3701,724.3312 L623.8722,734.2723 L624.168,744.2134 L624.869,754.1545 L623.9944,764.0957 L624.6168,774.0368 L623.2616,783.9779 L623.097,793.9191 L624.6715,803.8602 L623.0441,813.8013 L624.6786,823.7425 L624,833.6836 " fill="none" style="stroke:#181818;stroke-width:0.5;stroke-dasharray:5.0,5.0;"/><path d="M791,127.8633 L791.2802,127.8633 L790.4476,137.8044 L791.2577,147.7455 L791.5329,157.6867 L790.0488,167.6278 L790.8964,177.5689 L790.4313,187.5101 L790.4887,197.4512 L790.9091,207.3923 L790.0782,217.3335 L791.7382,227.2746 L790.1596,237.2157 L790.7363,247.1569 L791.5759,257.098 L790.8856,267.0391 L791.091,276.9802 L790.9574,286.9214 L791.238,296.8625 L791.3188,306.8036 L791.7809,316.7448 L791.8947,326.6859 L791.9057,336.627 L791.3395,346.5682 L791.6181,356.5093 L791.9363,366.4504 L790.0384,376.3916 L791.9047,386.3327 L790.6047,396.2738 L791.7117,406.215 L790.34,416.1561 L790.9087,426.0972 L791.9888,436.0383 L790.935,445.9795 L791.1404,455.9206 L791.4515,465.8617 L791.555,475.8029 L790.9948,485.744 L791.383,495.6851 L790.2368,505.6263 L791.3792,515.5674 L791.7309,525.5085 L791.5927,535.4497 L791.8174,545.3908 L790.3559,555.3319 L790.1304,565.2731 L790.1715,575.2142 L790.9215,585.1553 L790.738,595.0964 L791.9085,605.0376 L790.7671,614.9787 L790.5426,624.9198 L791.3044,634.861 L790.1109,644.8021 L790.3078,654.7432 L791.8653,664.6844 L791.5809,674.6255 L791.9793,684.5666 L790.5709,694.5078 L791.4256,704.4489 L791.7872,714.39 L790.3701,724.3312 L790.8722,734.2723 L791.168,744.2134 L791.869,754.1545 L790.9944,764.0957 L791.6168,774.0368 L790.2616,783.9779 L790.097,793.9191 L791.6715,803.8602 L790.0441,813.8013 L791.6786,823.7425 L791,833.6836 " fill="none" style="stroke:#181818;stroke-width:0.5;stroke-dasharray:5.0,5.0;"/><path d="M932,127.8633 L932.2802,127.8633 L931.4476,137.8044 L932.2577,147.7455 L932.5329,157.6867 L931.0488,167.6278 L931.8964,177.5689 L931.4313,187.5101 L931.4887,197.4512 L931.9091,207.3923 L931.0782,217.3335 L932.7382,227.2746 L931.1596,237.2157 L931.7363,247.1569 L932.5759,257.098 L931.8856,267.0391 L932.091,276.9802 L931.9574,286.9214 L932.238,296.8625 L932.3188,306.8036 L932.7809,316.7448 L932.8947,326.6859 L932.9057,336.627 L932.3395,346.5682 L932.6181,356.5093 L932.9363,366.4504 L931.0384,376.3916 L932.9047,386.3327 L931.6047,396.2738 L932.7117,406.215 L931.34,416.1561 L931.9087,426.0972 L932.9888,436.0383 L931.935,445.9795 L932.1404,455.9206 L932.4515,465.8617 L932.555,475.8029 L931.9948,485.744 L932.383,495.6851 L931.2368,505.6263 L932.3792,515.5674 L932.7309,525.5085 L932.5927,535.4497 L932.8174,545.3908 L931.3559,555.3319 L931.1304,565.2731 L931.1715,575.2142 L931.9215,585.1553 L931.738,595.0964 L932.9085,605.0376 L931.7671,614.9787 L931.5426,624.9198 L932.3044,634.861 L931.1109,644.8021 L931.3078,654.7432 L932.8653,664.6844 L932.5809,674.6255 L932.9793,684.5666 L931.5709,694.5078 L932.4256,704.4489 L932.7872,714.39 L931.3701,724.3312 L931.8722,734.2723 L932.168,744.2134 L932.869,754.1545 L931.9944,764.0957 L932.6168,774.0368 L931.2616,783.9779 L931.097,793.9191 L932.6715,803.8602 L931.0441,813.8013 L932.6786,823.7425 L932,833.6836 " fill="none" style="stroke:#181818;stroke-width:0.5;stroke-dasharray:5.0,5.0;"/><path d="M1064,127.8633 L1064.2802,127.8633 L1063.4476,137.8044 L1064.2577,147.7455 L1064.5329,157.6867 L1063.0488,167.6278 L1063.8964,177.5689 L1063.4313,187.5101 L1063.4887,197.4512 L1063.9091,207.3923 L1063.0782,217.3335 L1064.7382,227.2746 L1063.1596,237.2157 L1063.7363,247.1569 L1064.5759,257.098 L1063.8856,267.0391 L1064.091,276.9802 L1063.9574,286.9214 L1064.238,296.8625 L1064.3188,306.8036 L1064.7809,316.7448 L1064.8947,326.6859 L1064.9057,336.627 L1064.3395,346.5682 L1064.6181,356.5093 L1064.9363,366.4504 L1063.0384,376.3916 L1064.9047,386.3327 L1063.6047,396.2738 L1064.7117,406.215 L1063.34,416.1561 L1063.9087,426.0972 L1064.9888,436.0383 L1063.935,445.9795 L1064.1404,455.9206 L1064.4515,465.8617 L1064.555,475.8029 L1063.9948,485.744 L1064.383,495.6851 L1063.2368,505.6263 L1064.3792,515.5674 L1064.7309,525.5085 L1064.5927,535.4497 L1064.8174,545.3908 L1063.3559,555.3319 L1063.1304,565.2731 L1063.1715,575.2142 L1063.9215,585.1553 L1063.738,595.0964 L1064.9085,605.0376 L1063.7671,614.9787 L1063.5426,624.9198 L1064.3044,634.861 L1063.1109,644.8021 L1063.3078,654.7432 L1064.8653,664.6844 L1064.5809,674.6255 L1064.9793,684.5666 L1063.5709,694.5078 L1064.4256,704.4489 L1064.7872,714.39 L1063.3701,724.3312 L1063.8722,734.2723 L1064.168,744.2134 L1064.869,754.1545 L1063.9944,764.0957 L1064.6168,774.0368 L1063.2616,783.9779 L1063.097,793.9191 L1064.6715,803.8602 L1063.0441,813.8013 L1064.6786,823.7425 L1064,833.6836 " fill="none" style="stroke:#181818;stroke-width:0.5;stroke-dasharray:5.0,5.0;"/><path d="M1214,127.8633 L1214.2802,127.8633 L1213.4476,137.8044 L1214.2577,147.7455 L1214.5329,157.6867 L1213.0488,167.6278 L1213.8964,177.5689 L1213.4313,187.5101 L1213.4887,197.4512 L1213.9091,207.3923 L1213.0782,217.3335 L1214.7382,227.2746 L1213.1596,237.2157 L1213.7363,247.1569 L1214.5759,257.098 L1213.8856,267.0391 L1214.091,276.9802 L1213.9574,286.9214 L1214.238,296.8625 L1214.3188,306.8036 L1214.7809,316.7448 L1214.8947,326.6859 L1214.9057,336.627 L1214.3395,346.5682 L1214.6181,356.5093 L1214.9363,366.4504 L1213.0384,376.3916 L1214.9047,386.3327 L1213.6047,396.2738 L1214.7117,406.215 L1213.34,416.1561 L1213.9087,426.0972 L1214.9888,436.0383 L1213.935,445.9795 L1214.1404,455.9206 L1214.4515,465.8617 L1214.555,475.8029 L1213.9948,485.744 L1214.383,495.6851 L1213.2368,505.6263 L1214.3792,515.5674 L1214.7309,525.5085 L1214.5927,535.4497 L1214.8174,545.3908 L1213.3559,555.3319 L1213.1304,565.2731 L1213.1715,575.2142 L1213.9215,585.1553 L1213.738,595.0964 L1214.9085,605.0376 L1213.7671,614.9787 L1213.5426,624.9198 L1214.3044,634.861 L1213.1109,644.8021 L1213.3078,654.7432 L1214.8653,664.6844 L1214.5809,674.6255 L1214.9793,684.5666 L1213.5709,694.5078 L1214.4256,704.4489 L1214.7872,714.39 L1213.3701,724.3312 L1213.8722,734.2723 L1214.168,744.2134 L1214.869,754.1545 L1213.9944,764.0957 L1214.6168,774.0368 L1213.2616,783.9779 L1213.097,793.9191 L1214.6715,803.8602 L1213.0441,813.8013 L1214.6786,823.7425 L1214,833.6836 " fill="none" style="stroke:#181818;stroke-width:0.5;stroke-dasharray:5.0,5.0;"/><path d="M1370,127.8633 L1370.2802,127.8633 L1369.4476,137.8044 L1370.2577,147.7455 L1370.5329,157.6867 L1369.0488,167.6278 L1369.8964,177.5689 L1369.4313,187.5101 L1369.4887,197.4512 L1369.9091,207.3923 L1369.0782,217.3335 L1370.7382,227.2746 L1369.1596,237.2157 L1369.7363,247.1569 L1370.5759,257.098 L1369.8856,267.0391 L1370.091,276.9802 L1369.9574,286.9214 L1370.238,296.8625 L1370.3188,306.8036 L1370.7809,316.7448 L1370.8947,326.6859 L1370.9057,336.627 L1370.3395,346.5682 L1370.6181,356.5093 L1370.9363,366.4504 L1369.0384,376.3916 L1370.9047,386.3327 L1369.6047,396.2738 L1370.7117,406.215 L1369.34,416.1561 L1369.9087,426.0972 L1370.9888,436.0383 L1369.935,445.9795 L1370.1404,455.9206 L1370.4515,465.8617 L1370.555,475.8029 L1369.9948,485.744 L1370.383,495.6851 L1369.2368,505.6263 L1370.3792,515.5674 L1370.7309,525.5085 L1370.5927,535.4497 L1370.8174,545.3908 L1369.3559,555.3319 L1369.1304,565.2731 L1369.1715,575.2142 L1369.9215,585.1553 L1369.738,595.0964 L1370.9085,605.0376 L1369.7671,614.9787 L1369.5426,624.9198 L1370.3044,634.861 L1369.1109,644.8021 L1369.3078,654.7432 L1370.8653,664.6844 L1370.5809,674.6255 L1370.9793,684.5666 L1369.5709,694.5078 L1370.4256,704.4489 L1370.7872,714.39 L1369.3701,724.3312 L1369.8722,734.2723 L1370.168,744.2134 L1370.869,754.1545 L1369.9944,764.0957 L1370.6168,774.0368 L1369.2616,783.9779 L1369.097,793.9191 L1370.6715,803.8602 L1369.0441,813.8013 L1370.6786,823.7425 L1370,833.6836 " fill="none" style="stroke:#181818;stroke-width:0.5;stroke-dasharray:5.0,5.0;"/><text fill="#000000" font-family="sans-serif" font-size="14" lengthAdjust="spacing" textLength="36" x="5" y="124.3496">Aluno</text><polygon fill="#E3E3E3" points="34.0442,59.6881,32.8715,61.2904,31.4845,63.6372,29.5008,65.2188,27.4163,66.0837,25.7542,66.1588,23.618,65.0771,21.6023,64.3705,20.0724,62.9358,19.2699,61.2933,18.7939,59.9855,18.3277,58.2772,17.5709,56.8073,18.1525,55.372,18.662,53.7998,20.574,52.5564,21.9192,50.943,23.5843,50.4072,25.5637,49.9459,28.1021,50.22,29.4924,50.8757,31.1089,51.1729,33.0743,53.1865,33.7595,55.3123,34.0571,56.7628,33.72,59.153" style="stroke:#181818;stroke-width:0.5;"/><path d="M26,65.7422 L26.1868,65.7422 L25.6317,71.1422 L26.1718,76.5422 L26.3553,81.9422 L25.3659,87.3422 L26,92.7422 M13,73.7422 L13,73.6731 L18.2,73.3631 L23.4,73.4013 L28.6,73.6816 L33.8,73.1276 L39,73.7422 M26,92.7422 L26.3719,93.0645 L22.9766,95.3753 L20.6672,98.6271 L18.4901,101.9937 L15.5424,104.6923 L13,107.7422 M26,92.7422 L26.0458,92.7819 L28.5785,95.7236 L31.3199,98.8461 L33.9606,101.8814 L36.7934,105.0832 L39,107.7422 " fill="none" style="stroke:#181818;stroke-width:0.5;"/><text fill="#000000" font-family="sans-serif" font-size="14" lengthAdjust="spacing" textLength="36" x="5" y="847.791">Aluno</text><polygon fill="#E3E3E3" points="34.0442,861.7506,32.8715,863.3529,31.4845,865.6997,29.5008,867.2813,27.4163,868.1462,25.7542,868.2213,23.618,867.1396,21.6023,866.433,20.0724,864.9983,19.2699,863.3558,18.7939,862.048,18.3277,860.3397,17.5709,858.8698,18.1525,857.4345,18.662,855.8623,20.574,854.6189,21.9192,853.0055,23.5843,852.4697,25.5637,852.0084,28.1021,852.2825,29.4924,852.9382,31.1089,853.2354,33.0743,855.249,33.7595,857.3748,34.0571,858.8253,33.72,861.2155" style="stroke:#181818;stroke-width:0.5;"/><path d="M26,867.8047 L26.1868,867.8047 L25.6317,873.2047 L26.1718,878.6047 L26.3553,884.0047 L25.3659,889.4047 L26,894.8047 M13,875.8047 L13,875.7356 L18.2,875.4256 L23.4,875.4638 L28.6,875.7441 L33.8,875.1901 L39,875.8047 M26,894.8047 L26.3719,895.127 L22.9766,897.4378 L20.6672,900.6896 L18.4901,904.0562 L15.5424,906.7548 L13,909.8047 M26,894.8047 L26.0458,894.8444 L28.5785,897.7861 L31.3199,900.9086 L33.9606,903.9439 L36.7934,907.1457 L39,909.8047 " fill="none" style="stroke:#181818;stroke-width:0.5;"/><polygon fill="#E3E3E3" points="361.5,75.6211,361.5,75.8313,371.1429,75.2068,380.7857,75.8144,390.4286,76.0208,400.0714,74.9077,409.7143,75.5434,419.3571,75.1946,429,75.2376,438.6429,75.5529,448.2857,74.9297,457.9286,76.1747,467.5714,74.9908,477.2143,75.4233,486.8571,76.053,496.5,75.6211,496.4891,75.5947,496.8623,75.7886,497.203,75.9041,497.5834,76.1154,497.9447,76.2805,498.2678,76.3533,498.4481,76.428,498.6209,76.7925,498.7698,77.1471,498.7855,77.4465,498.9963,77.8267,499,78.1211,499.7022,78.1211,498.2788,87.3695,499.6785,96.618,498.7035,105.8664,499.5338,115.1148,499,124.3633,498.8476,124.3001,498.8325,124.7081,498.9355,125.165,498.5457,125.4177,498.4466,125.7909,498.2678,126.131,498.311,126.2353,497.9673,126.4057,497.5602,126.4227,497.2437,126.6588,496.7805,126.5406,496.5,126.8633,496.5,127.1477,486.8571,127.4115,477.2143,127.3078,467.5714,127.4763,457.9286,126.3802,448.2857,126.2111,438.6429,126.2419,429,126.8044,419.3571,126.6668,409.7143,127.5447,400.0714,126.6886,390.4286,126.5202,380.7857,127.0915,371.1429,126.1964,361.5,126.8633,361.4338,126.7034,361.2292,126.9167,360.8485,126.7046,360.533,126.6501,360.0447,126.1784,359.7322,126.131,359.8305,126.1718,359.7676,125.8528,359.2939,125.3637,359.2634,125.0582,359.1852,124.7329,359,124.3633,359.6518,124.3633,358.9958,115.1148,359.4626,105.8664,358.4462,96.618,358.3227,87.3695,359,78.1211,359.1551,78.1853,358.9257,77.6761,359.4496,77.4789,359.503,77.0868,359.5033,76.6727,359.7322,76.3533,359.6871,76.2444,360.1443,76.3482,360.4012,75.9683,360.8684,76.0963,361.0759,75.5973,361.5,75.6211" style="stroke:#181818;stroke-width:0.5;"/><text fill="#000000" font-family="sans-serif" font-size="14" lengthAdjust="spacing" textLength="95" x="379.5" y="97.7285">&#171;presentation&#187;</text><text fill="#000000" font-family="sans-serif" font-size="14" lengthAdjust="spacing" textLength="122" x="370" y="116.3496">CreateEnrollmentUI</text><polygon fill="#E3E3E3" points="361.5,832.6836,361.5,832.8938,371.1429,832.2693,380.7857,832.8769,390.4286,833.0833,400.0714,831.9702,409.7143,832.6059,419.3571,832.2571,429,832.3001,438.6429,832.6154,448.2857,831.9922,457.9286,833.2372,467.5714,832.0533,477.2143,832.4858,486.8571,833.1155,496.5,832.6836,496.4891,832.6572,496.8623,832.8511,497.203,832.9666,497.5834,833.1779,497.9447,833.343,498.2678,833.4158,498.4481,833.4905,498.6209,833.855,498.7698,834.2096,498.7855,834.509,498.9963,834.8892,499,835.1836,499.7022,835.1836,498.2788,844.432,499.6785,853.6805,498.7035,862.9289,499.5338,872.1773,499,881.4258,498.8476,881.3626,498.8325,881.7706,498.9355,882.2275,498.5457,882.4802,498.4466,882.8534,498.2678,883.1935,498.311,883.2978,497.9673,883.4682,497.5602,883.4852,497.2437,883.7213,496.7805,883.6031,496.5,883.9258,496.5,884.2102,486.8571,884.474,477.2143,884.3703,467.5714,884.5388,457.9286,883.4427,448.2857,883.2736,438.6429,883.3044,429,883.8669,419.3571,883.7293,409.7143,884.6072,400.0714,883.7511,390.4286,883.5827,380.7857,884.154,371.1429,883.2589,361.5,883.9258,361.4338,883.7659,361.2292,883.9792,360.8485,883.7671,360.533,883.7126,360.0447,883.2409,359.7322,883.1935,359.8305,883.2343,359.7676,882.9153,359.2939,882.4262,359.2634,882.1207,359.1852,881.7954,359,881.4258,359.6518,881.4258,358.9958,872.1773,359.4626,862.9289,358.4462,853.6805,358.3227,844.432,359,835.1836,359.1551,835.2478,358.9257,834.7386,359.4496,834.5414,359.503,834.1493,359.5033,833.7352,359.7322,833.4158,359.6871,833.3069,360.1443,833.4107,360.4012,833.0308,360.8684,833.1588,361.0759,832.6598,361.5,832.6836" style="stroke:#181818;stroke-width:0.5;"/><text fill="#000000" font-family="sans-serif" font-size="14" lengthAdjust="spacing" textLength="95" x="379.5" y="854.791">&#171;presentation&#187;</text><text fill="#000000" font-family="sans-serif" font-size="14" lengthAdjust="spacing" textLength="122" x="370" y="873.4121">CreateEnrollmentUI</text><text fill="#000000" font-family="sans-serif" font-size="14" lengthAdjust="spacing" textLength="84" x="577" y="105.7285">&#171;application&#187;</text><text fill="#000000" font-family="sans-serif" font-size="14" lengthAdjust="spacing" textLength="172" x="537" y="124.3496">CreateEnrollmentController</text><polygon fill="#E3E3E3" points="636.0663,77.54,634.3073,79.9434,632.2268,83.4637,629.2512,85.8361,626.1244,87.1334,623.6313,87.246,620.4269,85.6235,617.4035,84.5636,615.1086,82.4115,613.9048,79.9478,613.1909,77.986,612.4915,75.4237,611.3564,73.2187,612.2287,71.0658,612.9929,68.7075,615.8611,66.8423,617.8789,64.4223,620.3764,63.6187,623.3456,62.9266,627.1532,63.3378,629.2386,64.3213,631.6633,64.7671,634.6115,67.7876,635.6392,70.9763,636.0857,73.152,635.58,76.7373" style="stroke:#181818;stroke-width:0.5;"/><polygon fill="#181818" points="620,62.6211,620.0449,62.6749,621.1116,61.515,622.4412,60.6706,623.6853,59.7234,624.6478,58.4384,626,57.6211,625.9759,57.6115,625.468,58.5683,625.0813,59.5736,624.7789,60.6127,624.186,61.5355,624,62.6211,624.1713,62.6896,624.2049,63.5431,624.7388,64.5966,625.3337,65.6746,625.5735,66.6105,626,67.6211,626.0146,67.6386,624.7932,66.6129,623.6381,65.6668,622.451,64.6823,621.325,63.7711,620,62.6211" style="stroke:#181818;stroke-width:1.0;"/><text fill="#000000" font-family="sans-serif" font-size="14" lengthAdjust="spacing" textLength="84" x="577" y="847.791">&#171;application&#187;</text><text fill="#000000" font-family="sans-serif" font-size="14" lengthAdjust="spacing" textLength="172" x="537" y="866.4121">CreateEnrollmentController</text><polygon fill="#E3E3E3" points="636.0663,888.8447,634.3073,891.2481,632.2268,894.7684,629.2512,897.1408,626.1244,898.4381,623.6313,898.5507,620.4269,896.9282,617.4035,895.8682,615.1086,893.7162,613.9048,891.2524,613.1909,889.2907,612.4915,886.7284,611.3564,884.5234,612.2287,882.3705,612.9929,880.0122,615.8611,878.147,617.8789,875.727,620.3764,874.9234,623.3456,874.2313,627.1532,874.6425,629.2386,875.626,631.6633,876.0718,634.6115,879.0923,635.6392,882.281,636.0857,884.4567,635.58,888.042" style="stroke:#181818;stroke-width:0.5;"/><polygon fill="#181818" points="620,873.9258,620.0449,873.9796,621.1116,872.8197,622.4412,871.9753,623.6853,871.0281,624.6478,869.7431,626,868.9258,625.9759,868.9162,625.468,869.873,625.0813,870.8783,624.7789,871.9173,624.186,872.8402,624,873.9258,624.1713,873.9943,624.2049,874.8478,624.7388,875.9013,625.3337,876.9793,625.5735,877.9152,626,878.9258,626.0146,878.9433,624.7932,877.9176,623.6381,876.9715,622.451,875.987,621.325,875.0758,620,873.9258" style="stroke:#181818;stroke-width:1.0;"/><polygon fill="#E3E3E3" points="727.5,75.6211,727.5,75.8313,737.3462,75.2068,747.1923,75.8144,757.0385,76.0208,766.8846,74.9077,776.7308,75.5434,786.5769,75.1946,796.4231,75.2376,806.2692,75.5529,816.1154,74.9297,825.9615,76.1747,835.8077,74.9908,845.6538,75.4233,855.5,75.6211,855.5551,75.7541,855.8426,75.7411,856.2158,75.935,856.5566,76.0506,856.937,76.2619,857.2678,76.3533,857.3414,76.3838,857.5946,76.7816,857.7673,77.146,857.9163,77.5006,857.932,77.8,858,78.1211,858.4636,78.1211,858.7022,87.3695,857.2788,96.618,858.6785,105.8664,857.7035,115.1148,858,124.3633,858.1644,124.4314,857.7011,124.6537,857.686,125.0617,857.789,125.5185,857.3992,125.7713,857.2678,126.131,857.2812,126.1635,856.9574,126.3818,856.6138,126.5521,856.2066,126.5692,855.8902,126.8053,855.5,126.8633,855.5,126.2909,845.6538,127.1477,835.8077,127.4115,825.9615,127.3078,816.1154,127.4763,806.2692,126.3802,796.4231,126.2111,786.5769,126.2419,776.7308,126.8044,766.8846,126.6668,757.0385,127.5447,747.1923,126.6886,737.3462,126.5202,727.5,126.8633,727.5291,126.9336,727.0614,126.5115,726.7267,126.4105,726.5221,126.6238,726.1414,126.4117,725.7322,126.131,725.9584,126.2247,725.4867,125.7364,725.5376,125.4647,725.4747,125.1457,725.001,124.6566,725,124.3633,724.9041,124.3633,725.126,115.1148,725.6518,105.8664,724.9958,96.618,725.4626,87.3695,725,78.1211,724.8295,78.0505,724.9379,77.6811,725.448,77.4782,725.2186,76.969,725.7425,76.7718,725.7322,76.3533,725.7586,76.417,726.0516,76.1244,726.3942,75.9515,726.8514,76.0553,727.1083,75.6754,727.5,75.6211" style="stroke:#181818;stroke-width:0.5;"/><text fill="#000000" font-family="sans-serif" font-size="14" font-style="italic" lengthAdjust="spacing" textLength="59" x="762" y="97.7285">&#171;builder&#187;</text><text fill="#000000" font-family="sans-serif" font-size="14" lengthAdjust="spacing" textLength="119" x="732" y="116.3496">EnrollementBuilder</text><polygon fill="#E3E3E3" points="727.5,832.6836,727.5,832.8938,737.3462,832.2693,747.1923,832.8769,757.0385,833.0833,766.8846,831.9702,776.7308,832.6059,786.5769,832.2571,796.4231,832.3001,806.2692,832.6154,816.1154,831.9922,825.9615,833.2372,835.8077,832.0533,845.6538,832.4858,855.5,832.6836,855.5551,832.8166,855.8426,832.8036,856.2158,832.9975,856.5566,833.1131,856.937,833.3244,857.2678,833.4158,857.3414,833.4463,857.5946,833.8441,857.7673,834.2085,857.9163,834.5631,857.932,834.8625,858,835.1836,858.4636,835.1836,858.7022,844.432,857.2788,853.6805,858.6785,862.9289,857.7035,872.1773,858,881.4258,858.1644,881.4939,857.7011,881.7162,857.686,882.1242,857.789,882.581,857.3992,882.8338,857.2678,883.1935,857.2812,883.226,856.9574,883.4443,856.6138,883.6146,856.2066,883.6317,855.8902,883.8678,855.5,883.9258,855.5,883.3534,845.6538,884.2102,835.8077,884.474,825.9615,884.3703,816.1154,884.5388,806.2692,883.4427,796.4231,883.2736,786.5769,883.3044,776.7308,883.8669,766.8846,883.7293,757.0385,884.6072,747.1923,883.7511,737.3462,883.5827,727.5,883.9258,727.5291,883.9961,727.0614,883.574,726.7267,883.473,726.5221,883.6863,726.1414,883.4742,725.7322,883.1935,725.9584,883.2872,725.4867,882.7989,725.5376,882.5272,725.4747,882.2082,725.001,881.7191,725,881.4258,724.9041,881.4258,725.126,872.1773,725.6518,862.9289,724.9958,853.6805,725.4626,844.432,725,835.1836,724.8295,835.113,724.9379,834.7436,725.448,834.5407,725.2186,834.0315,725.7425,833.8343,725.7322,833.4158,725.7586,833.4795,726.0516,833.1869,726.3942,833.014,726.8514,833.1178,727.1083,832.7379,727.5,832.6836" style="stroke:#181818;stroke-width:0.5;"/><text fill="#000000" font-family="sans-serif" font-size="14" font-style="italic" lengthAdjust="spacing" textLength="59" x="762" y="854.791">&#171;builder&#187;</text><text fill="#000000" font-family="sans-serif" font-size="14" lengthAdjust="spacing" textLength="119" x="732" y="873.4121">EnrollementBuilder</text><polygon fill="#E3E3E3" points="870.5,75.6211,870.5,75.8313,880.8333,75.2068,891.1667,75.8144,901.5,76.0208,911.8333,74.9077,922.1667,75.5434,932.5,75.1946,942.8333,75.2376,953.1667,75.5529,963.5,74.9297,973.8333,76.1747,984.1667,74.9908,994.5,75.6211,994.4748,75.5602,994.9087,75.9006,995.1962,75.8876,995.5694,76.0814,995.9101,76.197,996.2678,76.3533,996.3227,76.3761,996.4879,76.7374,996.741,77.1351,996.9138,77.4996,997.0627,77.8542,997,78.1211,997.2546,78.1211,997.4636,87.3695,997.7022,96.618,996.2788,105.8664,997.6785,115.1148,997,124.3633,996.9087,124.3255,997.0179,124.7849,996.5547,125.0072,996.5396,125.4152,996.6426,125.8721,996.2678,126.131,996.2616,126.116,995.9276,126.3099,995.6039,126.5282,995.2602,126.6986,994.8531,126.7156,994.5,126.8633,994.5,127.1505,984.1667,126.2909,973.8333,127.1477,963.5,127.4115,953.1667,127.3078,942.8333,127.4763,932.5,126.3802,922.1667,126.2111,911.8333,126.2419,901.5,126.8044,891.1667,126.6668,880.8333,127.5447,870.5,126.8633,870.4777,126.8095,870.1027,126.6112,869.822,126.6407,869.3543,126.2186,869.0196,126.1176,868.7322,126.131,868.9321,126.2138,868.72,125.8331,868.6655,125.5176,868.1938,125.0293,868.2447,124.7576,868,124.3633,868.5904,124.3633,867.5276,115.1148,867.9041,105.8664,868.126,96.618,868.6518,87.3695,868,78.1211,867.9987,78.1206,868.2889,77.8265,868.1223,77.3433,868.2308,76.974,868.7409,76.7711,868.7322,76.3533,868.6408,76.1325,869.1507,76.3636,869.4657,76.1241,869.7587,75.8315,870.1013,75.6586,870.5,75.6211" style="stroke:#181818;stroke-width:0.5;"/><text fill="#000000" font-family="sans-serif" font-size="14" font-style="italic" lengthAdjust="spacing" textLength="84" x="890.5" y="97.7285">&#171;application&#187;</text><text fill="#000000" font-family="sans-serif" font-size="14" lengthAdjust="spacing" textLength="115" x="875" y="116.3496">ListCourseService</text><polygon fill="#E3E3E3" points="870.5,832.6836,870.5,832.8938,880.8333,832.2693,891.1667,832.8769,901.5,833.0833,911.8333,831.9702,922.1667,832.6059,932.5,832.2571,942.8333,832.3001,953.1667,832.6154,963.5,831.9922,973.8333,833.2372,984.1667,832.0533,994.5,832.6836,994.4748,832.6227,994.9087,832.9631,995.1962,832.9501,995.5694,833.1439,995.9101,833.2595,996.2678,833.4158,996.3227,833.4386,996.4879,833.7999,996.741,834.1976,996.9138,834.5621,997.0627,834.9167,997,835.1836,997.2546,835.1836,997.4636,844.432,997.7022,853.6805,996.2788,862.9289,997.6785,872.1773,997,881.4258,996.9087,881.388,997.0179,881.8474,996.5547,882.0697,996.5396,882.4777,996.6426,882.9346,996.2678,883.1935,996.2616,883.1785,995.9276,883.3724,995.6039,883.5907,995.2602,883.7611,994.8531,883.7781,994.5,883.9258,994.5,884.213,984.1667,883.3534,973.8333,884.2102,963.5,884.474,953.1667,884.3703,942.8333,884.5388,932.5,883.4427,922.1667,883.2736,911.8333,883.3044,901.5,883.8669,891.1667,883.7293,880.8333,884.6072,870.5,883.9258,870.4777,883.872,870.1027,883.6737,869.822,883.7032,869.3543,883.2811,869.0196,883.1801,868.7322,883.1935,868.9321,883.2763,868.72,882.8956,868.6655,882.5801,868.1938,882.0918,868.2447,881.8201,868,881.4258,868.5904,881.4258,867.5276,872.1773,867.9041,862.9289,868.126,853.6805,868.6518,844.432,868,835.1836,867.9987,835.1831,868.2889,834.889,868.1223,834.4058,868.2308,834.0365,868.7409,833.8336,868.7322,833.4158,868.6408,833.195,869.1507,833.4261,869.4657,833.1866,869.7587,832.894,870.1013,832.7211,870.5,832.6836" style="stroke:#181818;stroke-width:0.5;"/><text fill="#000000" font-family="sans-serif" font-size="14" font-style="italic" lengthAdjust="spacing" textLength="84" x="890.5" y="854.791">&#171;application&#187;</text><text fill="#000000" font-family="sans-serif" font-size="14" lengthAdjust="spacing" textLength="115" x="875" y="873.4121">ListCourseService</text><polygon fill="#E3E3E3" points="1009.5,75.6211,1009.5,75.8313,1019.4091,75.2068,1029.3182,75.8144,1039.2273,76.0208,1049.1364,74.9077,1059.0455,75.5434,1068.9545,75.1946,1078.8636,75.2376,1088.7727,75.5529,1098.6818,74.9297,1108.5909,76.1747,1118.5,75.6211,1118.4196,75.427,1118.8283,75.7066,1119.2622,76.047,1119.5497,76.034,1119.9229,76.2279,1120.2678,76.3533,1120.2579,76.3493,1120.4692,76.7297,1120.6343,77.0909,1120.8875,77.4887,1121.0602,77.8531,1121,78.1211,1121.6793,78.1211,1121.2546,87.3695,1121.4636,96.618,1121.7022,105.8664,1120.2788,115.1148,1121,124.3633,1121.209,124.4498,1120.7622,124.679,1120.8715,125.1385,1120.4082,125.3608,1120.3931,125.7688,1120.2678,126.131,1120.3624,126.3594,1119.908,126.2625,1119.5741,126.4564,1119.2503,126.6747,1118.9066,126.845,1118.5,126.8633,1118.5,126.8594,1108.5909,127.1505,1098.6818,126.2909,1088.7727,127.1477,1078.8636,127.4115,1068.9545,127.3078,1059.0455,127.4763,1049.1364,126.3802,1039.2273,126.2111,1029.3182,126.2419,1019.4091,126.8044,1009.5,126.8633,1009.4749,126.8028,1009.2334,126.9267,1008.7706,126.5166,1008.3956,126.3183,1008.1149,126.3478,1007.7322,126.131,1007.5269,126.046,1007.4259,125.7113,1007.6392,125.5067,1007.4271,125.126,1007.3726,124.8105,1007,124.3633,1006.6782,124.3633,1007.3192,115.1148,1007.5904,105.8664,1006.5276,96.618,1006.9041,87.3695,1007,78.1211,1007.0388,78.1372,1007.3472,77.8507,1007.2916,77.4135,1007.5818,77.1194,1007.4152,76.6362,1007.7322,76.3533,1007.6458,76.1448,1008.15,76.362,1008.3479,75.8396,1008.8578,76.0707,1009.1728,75.8312,1009.5,75.6211" style="stroke:#181818;stroke-width:0.5;"/><text fill="#000000" font-family="sans-serif" font-size="14" lengthAdjust="spacing" textLength="62" x="1031" y="97.7285">&#171;domain&#187;</text><text fill="#000000" font-family="sans-serif" font-size="14" lengthAdjust="spacing" textLength="96" x="1018" y="116.3496">Course:Course</text><polygon fill="#E3E3E3" points="1009.5,832.6836,1009.5,832.8938,1019.4091,832.2693,1029.3182,832.8769,1039.2273,833.0833,1049.1364,831.9702,1059.0455,832.6059,1068.9545,832.2571,1078.8636,832.3001,1088.7727,832.6154,1098.6818,831.9922,1108.5909,833.2372,1118.5,832.6836,1118.4196,832.4895,1118.8283,832.7691,1119.2622,833.1095,1119.5497,833.0965,1119.9229,833.2904,1120.2678,833.4158,1120.2579,833.4118,1120.4692,833.7922,1120.6343,834.1534,1120.8875,834.5512,1121.0602,834.9156,1121,835.1836,1121.6793,835.1836,1121.2546,844.432,1121.4636,853.6805,1121.7022,862.9289,1120.2788,872.1773,1121,881.4258,1121.209,881.5123,1120.7622,881.7415,1120.8715,882.201,1120.4082,882.4233,1120.3931,882.8313,1120.2678,883.1935,1120.3624,883.4219,1119.908,883.325,1119.5741,883.5189,1119.2503,883.7372,1118.9066,883.9075,1118.5,883.9258,1118.5,883.9219,1108.5909,884.213,1098.6818,883.3534,1088.7727,884.2102,1078.8636,884.474,1068.9545,884.3703,1059.0455,884.5388,1049.1364,883.4427,1039.2273,883.2736,1029.3182,883.3044,1019.4091,883.8669,1009.5,883.9258,1009.4749,883.8653,1009.2334,883.9892,1008.7706,883.5791,1008.3956,883.3808,1008.1149,883.4103,1007.7322,883.1935,1007.5269,883.1085,1007.4259,882.7738,1007.6392,882.5692,1007.4271,882.1885,1007.3726,881.873,1007,881.4258,1006.6782,881.4258,1007.3192,872.1773,1007.5904,862.9289,1006.5276,853.6805,1006.9041,844.432,1007,835.1836,1007.0388,835.1997,1007.3472,834.9132,1007.2916,834.476,1007.5818,834.1819,1007.4152,833.6987,1007.7322,833.4158,1007.6458,833.2073,1008.15,833.4245,1008.3479,832.9021,1008.8578,833.1332,1009.1728,832.8937,1009.5,832.6836" style="stroke:#181818;stroke-width:0.5;"/><text fill="#000000" font-family="sans-serif" font-size="14" lengthAdjust="spacing" textLength="62" x="1031" y="854.791">&#171;domain&#187;</text><text fill="#000000" font-family="sans-serif" font-size="14" lengthAdjust="spacing" textLength="96" x="1018" y="873.4121">Course:Course</text><polygon fill="#E3E3E3" points="1133.5,75.6211,1133.5,75.8313,1143.625,75.2068,1153.75,75.8144,1163.875,76.0208,1174,74.9077,1184.125,75.5434,1194.25,75.1946,1204.375,75.2376,1214.5,75.5529,1224.625,74.9297,1234.75,76.1747,1244.875,74.9908,1255,75.4233,1265.125,76.053,1275.25,75.5353,1285.375,75.6893,1295.5,75.6211,1295.4959,75.6113,1295.8763,75.8225,1296.2376,75.9876,1296.6354,76.2408,1296.9998,76.4135,1297.2678,76.3533,1297.477,76.44,1297.4926,76.7394,1297.7034,77.1196,1297.9234,77.5036,1297.6315,77.6755,1298,78.1211,1298.6785,78.1211,1297.7035,87.3695,1298.5338,96.618,1297.505,105.8664,1297.9315,115.1148,1298,124.3633,1298.2284,124.4579,1297.8385,124.7106,1297.7395,125.0838,1297.6649,125.4671,1297.5424,125.8306,1297.2678,126.131,1297.2673,126.1298,1296.9509,126.3659,1296.4876,126.2477,1296.2434,126.658,1295.9235,126.8857,1295.5,126.8633,1295.5,127.3078,1285.375,127.4763,1275.25,126.3802,1265.125,126.2111,1255,126.2419,1244.875,126.8044,1234.75,126.6668,1224.625,127.5447,1214.5,126.6886,1204.375,126.5202,1194.25,127.0915,1184.125,126.1964,1174,126.3442,1163.875,127.5122,1153.75,127.2989,1143.625,127.5978,1133.5,126.8633,1133.459,126.7642,1133.1872,126.8151,1132.8682,126.7522,1132.3791,126.2785,1132.0736,126.248,1131.7322,126.131,1131.771,126.1471,1131.7865,125.8606,1131.438,125.4234,1131.4353,125.1294,1130.9759,124.6462,1131,124.3633,1130.3227,124.3633,1131.5036,115.1148,1130.2831,105.8664,1131.509,96.618,1131.2066,87.3695,1131,78.1211,1130.9175,78.0869,1131.0375,77.7224,1131.4342,77.4725,1131.3472,77.0223,1131.7681,76.7824,1131.7322,76.3533,1131.6617,76.1831,1132.1645,76.397,1132.5011,76.2096,1132.8241,75.9894,1133.1525,75.7821,1133.5,75.6211" style="stroke:#181818;stroke-width:0.5;"/><text fill="#000000" font-family="sans-serif" font-size="14" font-style="italic" lengthAdjust="spacing" textLength="62" x="1183.5" y="97.7285">&#171;domain&#187;</text><text fill="#000000" font-family="sans-serif" font-size="14" lengthAdjust="spacing" textLength="153" x="1138" y="116.3496">enrollement:Enrollement</text><polygon fill="#E3E3E3" points="1133.5,832.6836,1133.5,832.8938,1143.625,832.2693,1153.75,832.8769,1163.875,833.0833,1174,831.9702,1184.125,832.6059,1194.25,832.2571,1204.375,832.3001,1214.5,832.6154,1224.625,831.9922,1234.75,833.2372,1244.875,832.0533,1255,832.4858,1265.125,833.1155,1275.25,832.5978,1285.375,832.7518,1295.5,832.6836,1295.4959,832.6738,1295.8763,832.885,1296.2376,833.0501,1296.6354,833.3033,1296.9998,833.476,1297.2678,833.4158,1297.477,833.5025,1297.4926,833.8019,1297.7034,834.1821,1297.9234,834.5661,1297.6315,834.738,1298,835.1836,1298.6785,835.1836,1297.7035,844.432,1298.5338,853.6805,1297.505,862.9289,1297.9315,872.1773,1298,881.4258,1298.2284,881.5204,1297.8385,881.7731,1297.7395,882.1463,1297.6649,882.5296,1297.5424,882.8931,1297.2678,883.1935,1297.2673,883.1923,1296.9509,883.4284,1296.4876,883.3102,1296.2434,883.7205,1295.9235,883.9482,1295.5,883.9258,1295.5,884.3703,1285.375,884.5388,1275.25,883.4427,1265.125,883.2736,1255,883.3044,1244.875,883.8669,1234.75,883.7293,1224.625,884.6072,1214.5,883.7511,1204.375,883.5827,1194.25,884.154,1184.125,883.2589,1174,883.4067,1163.875,884.5747,1153.75,884.3614,1143.625,884.6603,1133.5,883.9258,1133.459,883.8267,1133.1872,883.8776,1132.8682,883.8147,1132.3791,883.341,1132.0736,883.3105,1131.7322,883.1935,1131.771,883.2096,1131.7865,882.9231,1131.438,882.4859,1131.4353,882.1919,1130.9759,881.7087,1131,881.4258,1130.3227,881.4258,1131.5036,872.1773,1130.2831,862.9289,1131.509,853.6805,1131.2066,844.432,1131,835.1836,1130.9175,835.1494,1131.0375,834.7849,1131.4342,834.535,1131.3472,834.0848,1131.7681,833.8449,1131.7322,833.4158,1131.6617,833.2456,1132.1645,833.4595,1132.5011,833.2721,1132.8241,833.0519,1133.1525,832.8446,1133.5,832.6836" style="stroke:#181818;stroke-width:0.5;"/><text fill="#000000" font-family="sans-serif" font-size="14" font-style="italic" lengthAdjust="spacing" textLength="62" x="1183.5" y="854.791">&#171;domain&#187;</text><text fill="#000000" font-family="sans-serif" font-size="14" lengthAdjust="spacing" textLength="153" x="1138" y="873.4121">enrollement:Enrollement</text><text fill="#000000" font-family="sans-serif" font-size="14" lengthAdjust="spacing" textLength="79" x="1325.5" y="105.7285">&#171;repository&#187;</text><text fill="#000000" font-family="sans-serif" font-size="14" lengthAdjust="spacing" textLength="114" x="1312" y="124.3496">CourseRepository</text><path d="M1352,54.6211 L1352,54.6211 L1352.0651,54.6881 L1353.6716,52.7391 L1355.6599,51.1827 L1357.5238,49.4985 L1358.979,47.3938 L1361,45.8711 L1360.9952,45.8369 L1362.7739,45.4333 L1364.5766,45.2023 L1366.3958,45.0911 L1368.1577,44.5667 L1370,44.6211 L1370,44.6211 L1370.0339,44.8648 L1371.7615,44.5936 L1373.5879,45.034 L1375.4264,45.5612 L1377.1948,45.5833 L1379,45.8711 L1379.0211,45.8928 L1380.7901,47.6109 L1382.6553,49.428 L1384.4741,51.1973 L1386.3815,53.0577 L1388,54.6211 L1388.5965,54.6211 L1388.6038,59.8211 L1388.2263,65.0211 L1388.4121,70.2211 L1388.6242,75.4211 L1388,80.6211 L1388,80.6211 L1387.7766,80.3913 L1386.4102,82.5873 L1384.3081,84.0266 L1382.7654,86.0412 L1380.6466,87.4633 L1379,89.3711 L1378.9958,89.3409 L1377.2453,89.9476 L1375.397,89.8496 L1373.6064,90.1674 L1371.8207,90.5202 L1370,90.6211 L1370,90.6211 L1370.0254,90.8043 L1368.1998,90.3694 L1366.4176,90.2475 L1364.565,89.6191 L1362.8174,89.7463 L1361,89.3711 L1361.1698,89.5458 L1359.3377,87.7628 L1357.5899,86.0664 L1355.4503,83.9672 L1353.5979,82.1633 L1352,80.6211 L1351.4476,80.6211 L1351.9477,75.4211 L1351.8253,70.2211 L1352.6057,65.0211 L1351.8447,59.8211 L1352,54.6211 " fill="#E3E3E3" style="stroke:#181818;stroke-width:1.5;"/><path d="M1352,54.6211 L1352,54.6211 L1352.0651,54.6881 L1353.6716,56.2391 L1355.6599,58.1827 L1357.5238,59.9985 L1358.979,61.3938 L1361,63.3711 L1360.9952,63.3369 L1362.7739,63.4333 L1364.5766,63.7023 L1366.3958,64.0911 L1368.1577,64.0667 L1370,64.6211 L1370,64.6211 L1370.0339,64.8648 L1371.7615,64.0936 L1373.5879,64.034 L1375.4264,64.0612 L1377.1948,63.5833 L1379,63.3711 L1379.0211,63.3928 L1380.7901,61.6109 L1382.6553,59.928 L1384.4741,58.1973 L1386.3815,56.5577 L1388,54.6211 " fill="none" style="stroke:#181818;stroke-width:1.5;"/><text fill="#000000" font-family="sans-serif" font-size="14" lengthAdjust="spacing" textLength="79" x="1325.5" y="847.791">&#171;repository&#187;</text><text fill="#000000" font-family="sans-serif" font-size="14" lengthAdjust="spacing" textLength="114" x="1312" y="866.4121">CourseRepository</text><path d="M1352,879.9258 L1352,879.9258 L1352.0651,879.9928 L1353.6716,878.0438 L1355.6599,876.4874 L1357.5238,874.8031 L1358.979,872.6984 L1361,871.1758 L1360.9952,871.1416 L1362.7739,870.738 L1364.5766,870.507 L1366.3958,870.3958 L1368.1577,869.8714 L1370,869.9258 L1370,869.9258 L1370.0339,870.1695 L1371.7615,869.8983 L1373.5879,870.3387 L1375.4264,870.8659 L1377.1948,870.888 L1379,871.1758 L1379.0211,871.1975 L1380.7901,872.9156 L1382.6553,874.7327 L1384.4741,876.502 L1386.3815,878.3624 L1388,879.9258 L1388.5965,879.9258 L1388.6038,885.1258 L1388.2263,890.3258 L1388.4121,895.5258 L1388.6242,900.7258 L1388,905.9258 L1388,905.9258 L1387.7766,905.696 L1386.4102,907.892 L1384.3081,909.3313 L1382.7654,911.3459 L1380.6466,912.768 L1379,914.6758 L1378.9958,914.6456 L1377.2453,915.2522 L1375.397,915.1543 L1373.6064,915.4721 L1371.8207,915.8249 L1370,915.9258 L1370,915.9258 L1370.0254,916.109 L1368.1998,915.6741 L1366.4176,915.5522 L1364.565,914.9238 L1362.8174,915.051 L1361,914.6758 L1361.1698,914.8505 L1359.3377,913.0674 L1357.5899,911.3711 L1355.4503,909.2718 L1353.5979,907.468 L1352,905.9258 L1351.4476,905.9258 L1351.9477,900.7258 L1351.8253,895.5258 L1352.6057,890.3258 L1351.8447,885.1258 L1352,879.9258 " fill="#E3E3E3" style="stroke:#181818;stroke-width:1.5;"/><path d="M1352,879.9258 L1352,879.9258 L1352.0651,879.9928 L1353.6716,881.5438 L1355.6599,883.4874 L1357.5238,885.3031 L1358.979,886.6984 L1361,888.6758 L1360.9952,888.6416 L1362.7739,888.738 L1364.5766,889.007 L1366.3958,889.3958 L1368.1577,889.3714 L1370,889.9258 L1370,889.9258 L1370.0339,890.1695 L1371.7615,889.3983 L1373.5879,889.3387 L1375.4264,889.3659 L1377.1948,888.888 L1379,888.6758 L1379.0211,888.6975 L1380.7901,886.9156 L1382.6553,885.2327 L1384.4741,883.502 L1386.3815,881.8624 L1388,879.9258 " fill="none" style="stroke:#181818;stroke-width:1.5;"/><polygon fill="#FFFFFF" points="21,137.8633,21,137.9333,23,137.7252,25,137.9277,27,137.9965,29,137.6255,31,137.8633,30.9223,137.8633,30.5735,147.8312,30.6165,157.7992,30.9318,167.7671,30.3086,177.7351,31.5536,187.703,30.3697,197.671,30.8022,207.6389,31.4319,217.6068,30.9142,227.5748,31.0682,237.5427,30.9681,247.5107,31.1785,257.4786,31.2391,267.4466,31.5857,277.4145,31.6711,287.3825,31.6793,297.3504,31.2546,307.3184,31.4636,317.2863,31.7022,327.2543,30.2788,337.2222,31.6785,347.1901,30.7035,357.1581,31.5338,367.126,30.505,377.094,30.9315,387.0619,31.7416,397.0299,30.9513,406.9978,31.1053,416.9658,31.3386,426.9337,31.4162,436.9017,30.9961,446.8696,31.2872,456.8375,30.4276,466.8055,31.2844,476.7734,31.5482,486.7414,31.4445,496.7093,31.613,506.6773,30.5169,516.6452,30.3478,526.6132,30.3786,536.5811,30.9411,546.5491,30.8035,556.517,31.6814,566.4849,30.8253,576.4529,30.6569,586.4208,31.2283,596.3888,30.3332,606.3567,30.4809,616.3247,31.649,626.2926,31.4357,636.2606,31.7345,646.2285,30.6782,656.1965,31.3192,666.1644,31.5904,676.1324,30.5276,686.1003,30.9041,696.0682,31.126,706.0362,31.6518,716.0041,30.9958,725.9721,31.4626,735.94,30.4462,745.908,30.3227,755.8759,31.5036,765.8439,30.2831,775.8118,31.509,785.7798,31.2066,795.7477,30.7321,805.7156,31,815.6836,31,815.5657,29,815.8365,27,815.5838,25,815.8809,23,815.4993,21,815.6836,21.6174,815.6836,21.4843,805.7156,21.245,795.7477,21.0472,785.7798,21.7266,775.8118,21.6136,765.8439,21.1693,755.8759,21.2682,745.908,20.8697,735.94,21.7165,725.9721,21.1549,716.0041,21.1726,706.0362,20.3916,696.0682,20.5948,686.1003,21.5307,676.1324,21.4298,666.1644,20.9571,656.1965,20.6778,646.2285,20.7811,636.2606,20.3138,626.2926,21.4147,616.3247,21.7396,606.3567,21.5264,596.3888,21.6949,586.4208,20.8633,576.4529,21.0872,566.4849,20.6124,556.517,21.284,546.5491,21.2468,536.5811,21.5524,526.6132,20.7703,516.6452,20.8656,506.6773,21.4435,496.7093,21.5673,486.7414,20.4875,476.7734,20.8061,466.8055,21.1493,456.8375,20.3892,446.8696,21.3534,436.9017,21.258,426.9337,20.8992,416.9658,21.1422,406.9978,21.7287,397.0299,20.6871,387.0619,21.315,377.094,21.2856,367.126,21.1158,357.1581,21.1409,347.1901,21.1135,337.2222,20.3758,327.2543,20.5992,317.2863,20.5385,307.3184,21.0638,297.3504,21.0881,287.3825,21.1617,277.4145,20.709,267.4466,20.9325,257.4786,20.8798,247.5107,21.5769,237.5427,21.4266,227.5748,20.5145,217.6068,20.9271,207.6389,20.4228,197.671,21.2884,187.703,21.6085,177.7351,21.5446,167.7671,20.5644,157.7992,21.464,147.8312,21,137.8633" style="stroke:#181818;stroke-width:1.0;"/><polygon fill="#FFFFFF" points="424,161.1543,424,161.2244,426,161.0162,428,161.2187,430,161.2875,432,160.9165,434,161.1543,433.9223,161.1543,433.5735,171.224,433.6165,181.2937,433.9318,191.3633,433.3086,201.433,434.5536,211.5027,433.3697,221.5724,433.8022,231.6421,434.4319,241.7117,433.9142,251.7814,434.0682,261.8511,433.9681,271.9208,434.1785,281.9905,434.2391,292.0602,434.5857,302.1298,434.6711,312.1995,434.6793,322.2692,434.2546,332.3389,434.4636,342.4086,434.7022,352.4782,433.2788,362.5479,434.6785,372.6176,433.7035,382.6873,434.5338,392.757,433.505,402.8267,433.9315,412.8963,434.7416,422.966,433.9513,433.0357,434.1053,443.1054,434.3386,453.1751,434.4162,463.2447,433.9961,473.3144,434.2872,483.3841,433.4276,493.4538,434.2844,503.5235,434.5482,513.5931,434.4445,523.6628,434.613,533.7325,433.5169,543.8022,433.3478,553.8719,433.3786,563.9416,433.9411,574.0112,433.8035,584.0809,434.6814,594.1506,433.8253,604.2203,433.6569,614.29,434.2283,624.3596,433.3332,634.4293,433.4809,644.499,434.649,654.5687,434.4357,664.6384,434.7345,674.7081,433.6782,684.7777,434.3192,694.8474,434.5904,704.9171,433.5276,714.9868,433.9041,725.0565,434.126,735.1261,434.6518,745.1958,433.9958,755.2655,434.4626,765.3352,433.4462,775.4049,433.3227,785.4745,434.5036,795.5442,433.2831,805.6139,434,815.6836,434,815.8532,432,815.7525,430,815.5943,428,815.5657,426,815.8365,424,815.6836,423.7007,815.6836,424.5919,805.6139,423.4473,795.5442,424.6174,785.4745,424.4843,775.4049,424.245,765.3352,424.0472,755.2655,424.7266,745.1958,424.6136,735.1261,424.1693,725.0565,424.2682,714.9868,423.8697,704.9171,424.7165,694.8474,424.1549,684.7777,424.1726,674.7081,423.3916,664.6384,423.5948,654.5687,424.5307,644.499,424.4298,634.4293,423.9571,624.3596,423.6778,614.29,423.7811,604.2203,423.3138,594.1506,424.4147,584.0809,424.7396,574.0112,424.5264,563.9416,424.6949,553.8719,423.8633,543.8022,424.0872,533.7325,423.6124,523.6628,424.284,513.5931,424.2468,503.5235,424.5524,493.4538,423.7703,483.3841,423.8656,473.3144,424.4435,463.2447,424.5673,453.1751,423.4875,443.1054,423.8061,433.0357,424.1493,422.966,423.3892,412.8963,424.3534,402.8267,424.258,392.757,423.8992,382.6873,424.1422,372.6176,424.7287,362.5479,423.6871,352.4782,424.315,342.4086,424.2856,332.3389,424.1158,322.2692,424.1409,312.1995,424.1135,302.1298,423.3758,292.0602,423.5992,281.9905,423.5385,271.9208,424.0638,261.8511,424.0881,251.7814,424.1617,241.7117,423.709,231.6421,423.9325,221.5724,423.8798,211.5027,424.5769,201.433,424.4266,191.3633,423.5145,181.2937,423.9271,171.224,424,161.1543" style="stroke:#181818;stroke-width:1.0;"/><polygon fill="#FFFFFF" points="619,255.0273,619,255.0974,621,254.8892,623,255.0918,625,255.1606,627,254.7895,629,255.0273,628.9223,255.0273,628.5735,264.7251,628.6165,274.4229,628.9318,284.1206,628.3086,293.8184,629.5536,303.5161,628.3697,313.2139,628.8022,322.9116,629.4319,332.6094,628.9142,342.3071,629.0682,352.0049,628.9681,361.7026,629.1785,371.4004,629.2391,381.0981,629.5857,390.7959,629.6711,400.4937,629,410.1914,629,410.4178,627,410.2763,625,410.3459,623,410.4255,621,409.951,619,410.1914,619.6785,410.1914,618.7035,400.4937,619.5338,390.7959,618.505,381.0981,618.9315,371.4004,619.7416,361.7026,618.9513,352.0049,619.1053,342.3071,619.3386,332.6094,619.4162,322.9116,618.9961,313.2139,619.2872,303.5161,618.4276,293.8184,619.2844,284.1206,619.5482,274.4229,619.4445,264.7251,619,255.0273" style="stroke:#181818;stroke-width:1.0;"/><polygon fill="#FFFFFF" points="619,504.0645,619,504.1345,621,503.9263,623,504.1289,625,504.1977,627,503.8267,629,504.0645,628.9223,504.0645,628.5735,514.0762,628.6165,524.0879,628.9318,534.0996,628.3086,544.1113,629.5536,554.123,628.3697,564.1348,628.8022,574.1465,629.4319,584.1582,628.9142,594.1699,629.0682,604.1816,628.9681,614.1934,629.1785,624.2051,629.2391,634.2168,629.5857,644.2285,629.6711,654.2402,629.6793,664.252,629.2546,674.2637,629.4636,684.2754,629.7022,694.2871,628.2788,704.2988,629.6785,714.3105,628.7035,724.3223,629.5338,734.334,628.505,744.3457,628.9315,754.3574,629.7416,764.3691,628.9513,774.3809,629,784.3926,629,784.4277,627,784.5055,625,784.5313,623,784.3913,621,784.4883,619,784.3926,618.4276,784.3926,619.2844,774.3809,619.5482,764.3691,619.4445,754.3574,619.613,744.3457,618.5169,734.334,618.3478,724.3223,618.3786,714.3105,618.9411,704.2988,618.8035,694.2871,619.6814,684.2754,618.8253,674.2637,618.6569,664.252,619.2283,654.2402,618.3332,644.2285,618.4809,634.2168,619.649,624.2051,619.4357,614.1934,619.7345,604.1816,618.6782,594.1699,619.3192,584.1582,619.5904,574.1465,618.5276,564.1348,618.9041,554.123,619.126,544.1113,619.6518,534.0996,618.9958,524.0879,619.4626,514.0762,619,504.0645" style="stroke:#181818;stroke-width:1.0;"/><polygon fill="#FFFFFF" points="786.5,566.6465,786.5,566.7165,788.5,566.5084,790.5,566.7109,792.5,566.7797,794.5,566.4087,796.5,566.6465,796.4223,566.6465,796.0735,577.0768,796.1165,587.5072,796.4318,597.9375,795.8086,608.3678,797.0536,618.7982,795.8697,629.2285,796.3022,639.6589,796.9319,650.0892,796.5,660.5195,796.5,660.4909,794.5,660.5423,792.5,660.5089,790.5,660.579,788.5,660.5992,786.5,660.5195,787.0857,660.5195,787.1711,650.0892,787.1793,639.6589,786.7546,629.2285,786.9636,618.7982,787.2022,608.3678,785.7788,597.9375,787.1785,587.5072,786.2035,577.0768,786.5,566.6465" style="stroke:#181818;stroke-width:1.0;"/><polygon fill="#FFFFFF" points="927.5,286.3184,927.5,286.3884,929.5,286.1803,931.5,286.3828,933.5,286.4516,935.5,286.0806,937.5,286.3184,937.4223,286.3184,937.0735,296.6053,937.1165,306.8921,937.4318,317.179,936.8086,327.4659,938.0536,337.7528,936.8697,348.0397,937.3022,358.3266,937.9319,368.6135,937.5,378.9004,937.5,378.8718,935.5,378.9231,933.5,378.8897,931.5,378.9599,929.5,378.9801,927.5,378.9004,928.0857,378.9004,928.1711,368.6135,928.1793,358.3266,927.7546,348.0397,927.9636,337.7528,928.2022,327.4659,926.7788,317.179,928.1785,306.8921,927.2035,296.6053,927.5,286.3184" style="stroke:#181818;stroke-width:1.0;"/><polygon fill="#FFFFFF" points="1059,691.8105,1059,691.8806,1061,691.6724,1063,691.875,1065,691.9438,1067,691.5727,1069,691.8105,1068.9741,691.8105,1068.8578,697.8105,1068.8722,703.8105,1068.9773,709.8105,1068.7695,715.8105,1069,721.8105,1069,721.9951,1067,721.6005,1065,721.7446,1063,721.9545,1061,721.782,1059,721.8105,1059.0227,721.8105,1058.9894,715.8105,1059.0595,709.8105,1059.0797,703.8105,1059.1952,697.8105,1059,691.8105" style="stroke:#181818;stroke-width:1.0;"/><polygon fill="#FFFFFF" points="1209.5,597.9375,1209.5,598.0076,1211.5,597.7994,1213.5,598.0019,1215.5,598.0707,1217.5,597.6997,1219.5,597.9375,1219.4741,597.9375,1219.3578,604.1957,1219.3722,610.4539,1219.4773,616.7121,1219.2695,622.9703,1219.5,629.2285,1219.5,629.4131,1217.5,629.0184,1215.5,629.1626,1213.5,629.3725,1211.5,629.1999,1209.5,629.2285,1209.5227,629.2285,1209.4894,622.9703,1209.5595,616.7121,1209.5797,610.4539,1209.6952,604.1957,1209.5,597.9375" style="stroke:#181818;stroke-width:1.0;"/><polygon fill="#FFFFFF" points="1365,317.6094,1365,317.6794,1367,317.4713,1369,317.6738,1371,317.7426,1373,317.3716,1375,317.6094,1374.9741,317.6094,1374.8578,323.6094,1374.8722,329.6094,1374.9773,335.6094,1374.7695,341.6094,1375,347.6094,1375,347.7939,1373,347.3993,1371,347.5435,1369,347.7534,1367,347.5808,1365,347.6094,1365.0227,347.6094,1364.9894,341.6094,1365.0595,335.6094,1365.0797,329.6094,1365.1952,323.6094,1365,317.6094" style="stroke:#181818;stroke-width:1.0;"/><polygon fill="#181818" points="412,157.1543,412.026,157.2193,413.9487,157.8261,416.0239,158.8141,418.0495,159.678,419.9117,160.1335,422,161.1543,421.9904,161.1302,419.9472,161.8223,417.9525,162.6356,415.9916,163.5332,413.9144,164.1403,412,165.1543,412.1305,165.2848,412.6514,164.2057,413.5534,163.5077,414.5018,162.8561,415.1798,161.9341,416,161.1543,416.0161,161.1704,415.1925,160.3468,414.4421,159.5964,413.6564,158.8107,412.938,158.0923,412,157.1543" style="stroke:#181818;stroke-width:1.0;"/><path d="M31,161.1543 L31,161.4345 L40.9231,160.6019 L50.8462,161.412 L60.7692,161.6872 L70.6923,160.2031 L80.6154,161.0507 L90.5385,160.5856 L100.4615,160.643 L110.3846,161.0634 L120.3077,160.2325 L130.2308,161.8925 L140.1538,160.3139 L150.0769,160.8906 L160,161.7302 L169.9231,161.0399 L179.8462,161.2453 L189.7692,161.1117 L199.6923,161.3923 L209.6154,161.4731 L219.5385,161.9352 L229.4615,162.049 L239.3846,162.06 L249.3077,161.4938 L259.2308,161.7724 L269.1538,162.0906 L279.0769,160.1927 L289,162.059 L298.9231,160.759 L308.8462,161.866 L318.7692,160.4943 L328.6923,161.063 L338.6154,162.1431 L348.5385,161.0893 L358.4615,161.2947 L368.3846,161.6058 L378.3077,161.7093 L388.2308,161.1491 L398.1538,161.5372 L408.0769,160.3911 L418,161.1543 " fill="none" style="stroke:#181818;stroke-width:1.0;"/><text fill="#000000" font-family="sans-serif" font-size="13" font-weight="bold" lengthAdjust="spacing" textLength="7" x="38" y="155.8916">1</text><text fill="#000000" font-family="sans-serif" font-size="13" lengthAdjust="spacing" textLength="223" x="49" y="155.8916">Pede para inscrever em uma disciplina</text><polygon fill="#181818" points="612,188.4453,612.026,188.5104,613.9487,189.1171,616.0239,190.1051,618.0495,190.969,619.9117,191.4245,622,192.4453,621.9904,192.4213,619.9472,193.1133,617.9525,193.9266,615.9916,194.8242,613.9144,195.4313,612,196.4453,612.1305,196.5758,612.6514,195.4968,613.5534,194.7987,614.5018,194.1471,615.1798,193.2251,616,192.4453,616.0161,192.4614,615.1925,191.6378,614.4421,190.8874,613.6564,190.1017,612.938,189.3834,612,188.4453" style="stroke:#181818;stroke-width:1.0;"/><path d="M434,192.4453 L434,192.7256 L444.2222,191.8929 L454.4444,192.703 L464.6667,192.9782 L474.8889,191.4941 L485.1111,192.3417 L495.3333,191.8767 L505.5556,191.934 L515.7778,192.3544 L526,191.5235 L536.2222,193.1835 L546.4444,191.6049 L556.6667,192.1816 L566.8889,193.0212 L577.1111,192.3309 L587.3333,192.5363 L597.5556,192.4027 L607.7778,192.6833 L618,192.4453 " fill="none" style="stroke:#181818;stroke-width:1.0;"/><text fill="#000000" font-family="sans-serif" font-size="13" font-weight="bold" lengthAdjust="spacing" textLength="7" x="441" y="187.1826">2</text><text fill="#000000" font-family="sans-serif" font-size="13" lengthAdjust="spacing" textLength="36" x="452" y="187.1826">create</text><polygon fill="#181818" points="920.5,219.7363,920.526,219.8014,922.4487,220.4081,924.5239,221.3961,926.5495,222.26,928.4117,222.7155,930.5,223.7363,930.4904,223.7123,928.4472,224.4043,926.4525,225.2176,924.4916,226.1152,922.4144,226.7224,920.5,227.7363,920.6305,227.8668,921.1514,226.7878,922.0534,226.0897,923.0018,225.4381,923.6798,224.5161,924.5,223.7363,924.5161,223.7524,923.6925,222.9288,922.9421,222.1784,922.1564,221.3927,921.438,220.6744,920.5,219.7363" style="stroke:#181818;stroke-width:1.0;"/><path d="M624,223.7363 L624,224.0166 L634.0833,223.1839 L644.1667,223.994 L654.25,224.2692 L664.3333,222.7851 L674.4167,223.6327 L684.5,223.1677 L694.5833,223.225 L704.6667,223.6455 L714.75,222.8145 L724.8333,224.4745 L734.9167,222.896 L745,223.4726 L755.0833,224.3123 L765.1667,223.622 L775.25,223.8273 L785.3333,223.6937 L795.4167,223.9744 L805.5,224.0552 L815.5833,224.5172 L825.6667,224.6311 L835.75,224.642 L845.8333,224.0758 L855.9167,224.3544 L866,224.6726 L876.0833,222.7747 L886.1667,224.641 L896.25,223.341 L906.3333,224.4481 L916.4167,223.0763 L926.5,223.7363 " fill="none" style="stroke:#181818;stroke-width:1.0;"/><text fill="#000000" font-family="sans-serif" font-size="13" font-weight="bold" lengthAdjust="spacing" textLength="7" x="631" y="218.4736">3</text><text fill="#000000" font-family="sans-serif" font-size="13" lengthAdjust="spacing" textLength="36" x="642" y="218.4736">create</text><polygon fill="#181818" points="607,251.0273,607.026,251.0924,608.9487,251.6991,611.0239,252.6872,613.0495,253.551,614.9117,254.0066,617,255.0273,616.9904,255.0033,614.9472,255.6953,612.9525,256.5087,610.9916,257.4062,608.9144,258.0134,607,259.0273,607.1305,259.1578,607.6514,258.0788,608.5534,257.3807,609.5018,256.7292,610.1798,255.8071,611,255.0273,611.0161,255.0434,610.1925,254.2198,609.4421,253.4694,608.6564,252.6837,607.938,251.9654,607,251.0273" style="stroke:#181818;stroke-width:1.0;"/><path d="M434,255.0273 L434,255.3076 L443.9444,254.4749 L453.8889,255.2851 L463.8333,255.5602 L473.7778,254.0762 L483.7222,254.9237 L493.6667,254.4587 L503.6111,254.516 L513.5556,254.9365 L523.5,254.1055 L533.4444,255.7655 L543.3889,254.187 L553.3333,254.7637 L563.2778,255.6033 L573.2222,254.913 L583.1667,255.1183 L593.1111,254.9847 L603.0556,255.2654 L613,255.0273 " fill="none" style="stroke:#181818;stroke-width:1.0;"/><text fill="#000000" font-family="sans-serif" font-size="13" font-weight="bold" lengthAdjust="spacing" textLength="7" x="441" y="249.7646">4</text><text fill="#000000" font-family="sans-serif" font-size="13" lengthAdjust="spacing" textLength="155" x="452" y="249.7646">listAllCoursesNotEnrolled()</text><polygon fill="#181818" points="915.5,282.3184,915.526,282.3834,917.4487,282.9901,919.5239,283.9782,921.5495,284.8421,923.4117,285.2976,925.5,286.3184,925.4904,286.2943,923.4472,286.9864,921.4525,287.7997,919.4916,288.6973,917.4144,289.3044,915.5,290.3184,915.6305,290.4489,916.1514,289.3698,917.0534,288.6717,918.0018,288.0202,918.6798,287.0981,919.5,286.3184,919.5161,286.3344,918.6925,285.5108,917.9421,284.7604,917.1564,283.9747,916.438,283.2564,915.5,282.3184" style="stroke:#181818;stroke-width:1.0;"/><path d="M629,286.3184 L629,286.5986 L639.0862,285.7659 L649.1724,286.5761 L659.2586,286.8513 L669.3448,285.3672 L679.431,286.2147 L689.5172,285.7497 L699.6034,285.807 L709.6897,286.2275 L719.7759,285.3965 L729.8621,287.0565 L739.9483,285.478 L750.0345,286.0547 L760.1207,286.8943 L770.2069,286.204 L780.2931,286.4093 L790.3793,286.2758 L800.4655,286.5564 L810.5517,286.6372 L820.6379,287.0993 L830.7241,287.2131 L840.8103,287.224 L850.8966,286.6579 L860.9828,286.9365 L871.069,287.2547 L881.1552,285.3568 L891.2414,287.223 L901.3276,285.923 L911.4138,287.0301 L921.5,286.3184 " fill="none" style="stroke:#181818;stroke-width:1.0;"/><text fill="#000000" font-family="sans-serif" font-size="13" font-weight="bold" lengthAdjust="spacing" textLength="7" x="636" y="281.0557">5</text><text fill="#000000" font-family="sans-serif" font-size="13" lengthAdjust="spacing" textLength="136" x="647" y="281.0557">allCoursesNotEnrolled()</text><polygon fill="#181818" points="1353,313.6094,1353.026,313.6744,1354.9487,314.2811,1357.0239,315.2692,1359.0495,316.1331,1360.9117,316.5886,1363,317.6094,1362.9904,317.5853,1360.9472,318.2774,1358.9525,319.0907,1356.9916,319.9883,1354.9144,320.5954,1353,321.6094,1353.1305,321.7399,1353.6514,320.6608,1354.5534,319.9628,1355.5018,319.3112,1356.1798,318.3892,1357,317.6094,1357.0161,317.6255,1356.1925,316.8018,1355.4421,316.0515,1354.6564,315.2657,1353.938,314.5474,1353,313.6094" style="stroke:#181818;stroke-width:1.0;"/><path d="M937.5,317.6094 L937.5,317.8896 L947.5357,317.0569 L957.5714,317.8671 L967.6071,318.1423 L977.6429,316.6582 L987.6786,317.5058 L997.7143,317.0407 L1007.75,317.098 L1017.7857,317.5185 L1027.8214,316.6875 L1037.8571,318.3476 L1047.8929,316.769 L1057.9286,317.3457 L1067.9643,318.1853 L1078,317.495 L1088.0357,317.7004 L1098.0714,317.5668 L1108.1071,317.8474 L1118.1429,317.9282 L1128.1786,318.3903 L1138.2143,318.5041 L1148.25,318.5151 L1158.2857,317.9489 L1168.3214,318.2275 L1178.3571,318.5457 L1188.3929,316.6478 L1198.4286,318.5141 L1208.4643,317.214 L1218.5,318.3211 L1228.5357,316.9493 L1238.5714,317.518 L1248.6071,318.5982 L1258.6429,317.5444 L1268.6786,317.7498 L1278.7143,318.0609 L1288.75,318.1644 L1298.7857,317.6042 L1308.8214,317.9923 L1318.8571,316.8462 L1328.8929,317.9886 L1338.9286,318.3403 L1348.9643,318.2021 L1359,317.6094 " fill="none" style="stroke:#181818;stroke-width:1.0;"/><text fill="#000000" font-family="sans-serif" font-size="13" font-weight="bold" lengthAdjust="spacing" textLength="7" x="944.5" y="312.3467">6</text><text fill="#000000" font-family="sans-serif" font-size="13" lengthAdjust="spacing" textLength="191" x="955.5" y="312.3467">list = findAllCoursesNotEnrolled()</text><polygon fill="#181818" points="640,374.9004,640.026,374.9654,637.9487,375.5722,636.0239,376.5602,634.0495,377.4241,631.9117,377.8796,630,378.9004,629.9904,378.8763,631.9472,379.5684,633.9525,380.3817,635.9916,381.2793,637.9144,381.8864,640,382.9004,640.1305,383.0309,639.0514,381.9518,638.3534,381.2538,637.7018,380.6022,636.7798,379.6802,636,378.9004,636.0161,378.9165,636.7925,378.0929,637.6421,377.3425,638.4564,376.5568,639.338,375.8384,640,374.9004" style="stroke:#181818;stroke-width:1.0;"/><path d="M634,378.9004 L634,379.1806 L643.9167,378.348 L653.8333,379.1581 L663.75,379.4333 L673.6667,377.9492 L683.5833,378.7968 L693.5,378.3317 L703.4167,378.3891 L713.3333,378.8095 L723.25,377.9786 L733.1667,379.6386 L743.0833,378.06 L753,378.6367 L762.9167,379.4763 L772.8333,378.786 L782.75,378.9914 L792.6667,378.8578 L802.5833,379.1384 L812.5,379.2192 L822.4167,379.6813 L832.3333,379.7951 L842.25,379.8061 L852.1667,379.2399 L862.0833,379.5185 L872,379.8367 L881.9167,377.9388 L891.8333,379.8051 L901.75,378.5051 L911.6667,379.6121 L921.5833,378.2404 L931.5,378.9004 " fill="none" style="stroke:#181818;stroke-width:1.0;stroke-dasharray:2.0,2.0;"/><text fill="#000000" font-family="sans-serif" font-size="13" font-weight="bold" lengthAdjust="spacing" textLength="7" x="646" y="373.6377">7</text><text fill="#000000" font-family="sans-serif" font-size="13" lengthAdjust="spacing" textLength="17" x="657" y="373.6377">list</text><polygon fill="#181818" points="445,406.1914,445.026,406.2565,442.9487,406.8632,441.0239,407.8512,439.0495,408.7151,436.9117,409.1706,435,410.1914,434.9904,410.1674,436.9472,410.8594,438.9525,411.6727,440.9916,412.5703,442.9144,413.1774,445,414.1914,445.1305,414.3219,444.0514,413.2428,443.3534,412.5448,442.7018,411.8932,441.7798,410.9712,441,410.1914,441.0161,410.2075,441.7925,409.3839,442.6421,408.6335,443.4564,407.8478,444.338,407.1295,445,406.1914" style="stroke:#181818;stroke-width:1.0;"/><path d="M439,410.1914 L439,410.4716 L449.2222,409.639 L459.4444,410.4491 L469.6667,410.7243 L479.8889,409.2402 L490.1111,410.0878 L500.3333,409.6227 L510.5556,409.6801 L520.7778,410.1005 L531,409.2696 L541.2222,410.9296 L551.4444,409.351 L561.6667,409.9277 L571.8889,410.7673 L582.1111,410.077 L592.3333,410.2824 L602.5556,410.1488 L612.7778,410.4294 L623,410.1914 " fill="none" style="stroke:#181818;stroke-width:1.0;stroke-dasharray:2.0,2.0;"/><text fill="#000000" font-family="sans-serif" font-size="13" font-weight="bold" lengthAdjust="spacing" textLength="7" x="451" y="404.9287">8</text><text fill="#000000" font-family="sans-serif" font-size="13" lengthAdjust="spacing" textLength="17" x="462" y="404.9287">list</text><polygon fill="#181818" points="42,437.4824,42.026,437.5475,39.9487,438.1542,38.0239,439.1422,36.0495,440.0061,33.9117,440.4616,32,441.4824,31.9904,441.4584,33.9472,442.1504,35.9525,442.9637,37.9916,443.8613,39.9144,444.4684,42,445.4824,42.1305,445.6129,41.0514,444.5339,40.3534,443.8358,39.7018,443.1842,38.7798,442.2622,38,441.4824,38.0161,441.4985,38.7925,440.6749,39.6421,439.9245,40.4564,439.1388,41.338,438.4205,42,437.4824" style="stroke:#181818;stroke-width:1.0;"/><path d="M36,441.4824 L36,441.7627 L45.9231,440.93 L55.8462,441.7401 L65.7692,442.0153 L75.6923,440.5312 L85.6154,441.3788 L95.5385,440.9138 L105.4615,440.9711 L115.3846,441.3915 L125.3077,440.5606 L135.2308,442.2206 L145.1538,440.642 L155.0769,441.2187 L165,442.0584 L174.9231,441.3681 L184.8462,441.5734 L194.7692,441.4398 L204.6923,441.7205 L214.6154,441.8013 L224.5385,442.2633 L234.4615,442.3772 L244.3846,442.3881 L254.3077,441.8219 L264.2308,442.1005 L274.1538,442.4187 L284.0769,440.5208 L294,442.3871 L303.9231,441.0871 L313.8462,442.1942 L323.7692,440.8224 L333.6923,441.3911 L343.6154,442.4712 L353.5385,441.4174 L363.4615,441.6228 L373.3846,441.9339 L383.3077,442.0374 L393.2308,441.4772 L403.1538,441.8654 L413.0769,440.7192 L423,441.4824 " fill="none" style="stroke:#181818;stroke-width:1.0;stroke-dasharray:2.0,2.0;"/><text fill="#000000" font-family="sans-serif" font-size="13" font-weight="bold" lengthAdjust="spacing" textLength="7" x="48" y="436.2197">9</text><text fill="#000000" font-family="sans-serif" font-size="13" lengthAdjust="spacing" textLength="358" x="59" y="436.2197">Lista as disciplinas que se encontram com inscri&#231;&#245;es abertas</text><polygon fill="#181818" points="412,468.7734,412.026,468.8385,413.9487,469.4452,416.0239,470.4333,418.0495,471.2971,419.9117,471.7526,422,472.7734,421.9904,472.7494,419.9472,473.4414,417.9525,474.2547,415.9916,475.1523,413.9144,475.7595,412,476.7734,412.1305,476.9039,412.6514,475.8249,413.5534,475.1268,414.5018,474.4752,415.1798,473.5532,416,472.7734,416.0161,472.7895,415.1925,471.9659,414.4421,471.2155,413.6564,470.4298,412.938,469.7115,412,468.7734" style="stroke:#181818;stroke-width:1.0;"/><path d="M31,472.7734 L31,473.0537 L40.9231,472.221 L50.8462,473.0312 L60.7692,473.3063 L70.6923,471.8222 L80.6154,472.6698 L90.5385,472.2048 L100.4615,472.2621 L110.3846,472.6826 L120.3077,471.8516 L130.2308,473.5116 L140.1538,471.9331 L150.0769,472.5097 L160,473.3494 L169.9231,472.6591 L179.8462,472.8644 L189.7692,472.7308 L199.6923,473.0115 L209.6154,473.0923 L219.5385,473.5544 L229.4615,473.6682 L239.3846,473.6791 L249.3077,473.1129 L259.2308,473.3916 L269.1538,473.7097 L279.0769,471.8119 L289,473.6781 L298.9231,472.3781 L308.8462,473.4852 L318.7692,472.1134 L328.6923,472.6821 L338.6154,473.7622 L348.5385,472.7085 L358.4615,472.9138 L368.3846,473.2249 L378.3077,473.3284 L388.2308,472.7682 L398.1538,473.1564 L408.0769,472.0102 L418,472.7734 " fill="none" style="stroke:#181818;stroke-width:1.0;"/><text fill="#000000" font-family="sans-serif" font-size="13" font-weight="bold" lengthAdjust="spacing" textLength="14" x="38" y="467.5107">10</text><text fill="#000000" font-family="sans-serif" font-size="13" lengthAdjust="spacing" textLength="116" x="56" y="467.5107">Escolhe a disciplina</text><polygon fill="#181818" points="607,500.0645,607.026,500.1295,608.9487,500.7362,611.0239,501.7243,613.0495,502.5882,614.9117,503.0437,617,504.0645,616.9904,504.0404,614.9472,504.7325,612.9525,505.5458,610.9916,506.4434,608.9144,507.0505,607,508.0645,607.1305,508.1949,607.6514,507.1159,608.5534,506.4178,609.5018,505.7663,610.1798,504.8442,611,504.0645,611.0161,504.0805,610.1925,503.2569,609.4421,502.5065,608.6564,501.7208,607.938,501.0025,607,500.0645" style="stroke:#181818;stroke-width:1.0;"/><path d="M434,504.0645 L434,504.3447 L443.9444,503.512 L453.8889,504.3222 L463.8333,504.5974 L473.7778,503.1133 L483.7222,503.9608 L493.6667,503.4958 L503.6111,503.5531 L513.5556,503.9736 L523.5,503.1426 L533.4444,504.8026 L543.3889,503.2241 L553.3333,503.8008 L563.2778,504.6404 L573.2222,503.9501 L583.1667,504.1554 L593.1111,504.0219 L603.0556,504.3025 L613,504.0645 " fill="none" style="stroke:#181818;stroke-width:1.0;"/><text fill="#000000" font-family="sans-serif" font-size="13" font-weight="bold" lengthAdjust="spacing" textLength="14" x="441" y="498.8018">11</text><text fill="#000000" font-family="sans-serif" font-size="13" lengthAdjust="spacing" textLength="130" x="459" y="498.8018">addEnrollment(course)</text><polygon fill="#181818" points="779.5,531.3555,779.526,531.4205,781.4487,532.0272,783.5239,533.0153,785.5495,533.8792,787.4117,534.3347,789.5,535.3555,789.4904,535.3314,787.4472,536.0235,785.4525,536.8368,783.4916,537.7344,781.4144,538.3415,779.5,539.3555,779.6305,539.486,780.1514,538.4069,781.0534,537.7089,782.0018,537.0573,782.6798,536.1353,783.5,535.3555,783.5161,535.3716,782.6925,534.5479,781.9421,533.7975,781.1564,533.0118,780.438,532.2935,779.5,531.3555" style="stroke:#181818;stroke-width:1.0;"/><path d="M629,535.3555 L629,535.6357 L638.7813,534.803 L648.5625,535.6132 L658.3438,535.8884 L668.125,534.4043 L677.9063,535.2519 L687.6875,534.7868 L697.4688,534.8441 L707.25,535.2646 L717.0313,534.4336 L726.8125,536.0937 L736.5938,534.5151 L746.375,535.0918 L756.1563,535.9314 L765.9375,535.2411 L775.7188,535.4465 L785.5,535.3555 " fill="none" style="stroke:#181818;stroke-width:1.0;"/><text fill="#000000" font-family="sans-serif" font-size="13" font-weight="bold" lengthAdjust="spacing" textLength="14" x="636" y="530.0928">12</text><text fill="#000000" font-family="sans-serif" font-size="13" lengthAdjust="spacing" textLength="36" x="654" y="530.0928">create</text><polygon fill="#181818" points="774.5,562.6465,774.526,562.7115,776.4487,563.3183,778.5239,564.3063,780.5495,565.1702,782.4117,565.6257,784.5,566.6465,784.4904,566.6224,782.4472,567.3145,780.4525,568.1278,778.4916,569.0254,776.4144,569.6325,774.5,570.6465,774.6305,570.777,775.1514,569.6979,776.0534,568.9999,777.0018,568.3483,777.6798,567.4263,778.5,566.6465,778.5161,566.6626,777.6925,565.839,776.9421,565.0886,776.1564,564.3028,775.438,563.5845,774.5,562.6465" style="stroke:#181818;stroke-width:1.0;"/><path d="M629,566.6465 L629,566.9267 L639.1,566.0941 L649.2,566.9042 L659.3,567.1794 L669.4,565.6953 L679.5,566.5429 L689.6,566.0778 L699.7,566.1352 L709.8,566.5556 L719.9,565.7247 L730,567.3847 L740.1,565.8061 L750.2,566.3828 L760.3,567.2224 L770.4,566.5321 L780.5,566.6465 " fill="none" style="stroke:#181818;stroke-width:1.0;"/><text fill="#000000" font-family="sans-serif" font-size="13" font-weight="bold" lengthAdjust="spacing" textLength="14" x="636" y="561.3838">13</text><text fill="#000000" font-family="sans-serif" font-size="13" lengthAdjust="spacing" textLength="106" x="654" y="561.3838">createEnrollment()</text><polygon fill="#181818" points="1197.5,593.9375,1197.526,594.0025,1199.4487,594.6093,1201.5239,595.5973,1203.5495,596.4612,1205.4117,596.9167,1207.5,597.9375,1207.4904,597.9134,1205.4472,598.6055,1203.4525,599.4188,1201.4916,600.3164,1199.4144,600.9235,1197.5,601.9375,1197.6305,602.068,1198.1514,600.9889,1199.0534,600.2909,1200.0018,599.6393,1200.6798,598.7173,1201.5,597.9375,1201.5161,597.9536,1200.6925,597.13,1199.9421,596.3796,1199.1564,595.5939,1198.438,594.8755,1197.5,593.9375" style="stroke:#181818;stroke-width:1.0;"/><path d="M796.5,597.9375 L796.5,598.2177 L806.4268,597.3851 L816.3537,598.1952 L826.2805,598.4704 L836.2073,596.9863 L846.1341,597.8339 L856.061,597.3688 L865.9878,597.4262 L875.9146,597.8466 L885.8415,597.0157 L895.7683,598.6757 L905.6951,597.0971 L915.622,597.6738 L925.5488,598.5134 L935.4756,597.8231 L945.4024,598.0285 L955.3293,597.8949 L965.2561,598.1755 L975.1829,598.2563 L985.1098,598.7184 L995.0366,598.8322 L1004.9634,598.8432 L1014.8902,598.277 L1024.8171,598.5556 L1034.7439,598.8738 L1044.6707,596.9759 L1054.5976,598.8422 L1064.5244,597.5422 L1074.4512,598.6492 L1084.378,597.2775 L1094.3049,597.8462 L1104.2317,598.9263 L1114.1585,597.8725 L1124.0854,598.0779 L1134.0122,598.389 L1143.939,598.4925 L1153.8659,597.9323 L1163.7927,598.3205 L1173.7195,597.1743 L1183.6463,598.3167 L1193.5732,598.6684 L1203.5,597.9375 " fill="none" style="stroke:#181818;stroke-width:1.0;"/><text fill="#000000" font-family="sans-serif" font-size="13" font-weight="bold" lengthAdjust="spacing" textLength="14" x="803.5" y="592.6748">14</text><text fill="#000000" font-family="sans-serif" font-size="13" lengthAdjust="spacing" textLength="149" x="821.5" y="592.6748">createEnrollment(student)</text><polygon fill="#181818" points="807.5,625.2285,807.526,625.2936,805.4487,625.9003,803.5239,626.8883,801.5495,627.7522,799.4117,628.2077,797.5,629.2285,797.4904,629.2045,799.4472,629.8965,801.4525,630.7098,803.4916,631.6074,805.4144,632.2145,807.5,633.2285,807.6305,633.359,806.5514,632.28,805.8534,631.5819,805.2018,630.9303,804.2798,630.0083,803.5,629.2285,803.5161,629.2446,804.2925,628.421,805.1421,627.6706,805.9564,626.8849,806.838,626.1666,807.5,625.2285" style="stroke:#181818;stroke-width:1.0;"/><path d="M801.5,629.2285 L801.5,629.5088 L811.5488,628.6761 L821.5976,629.4862 L831.6463,629.7614 L841.6951,628.2773 L851.7439,629.1249 L861.7927,628.6599 L871.8415,628.7172 L881.8902,629.1376 L891.939,628.3067 L901.9878,629.9667 L912.0366,628.3881 L922.0854,628.9648 L932.1341,629.8044 L942.1829,629.1141 L952.2317,629.3195 L962.2805,629.1859 L972.3293,629.4666 L982.378,629.5474 L992.4268,630.0094 L1002.4756,630.1233 L1012.5244,630.1342 L1022.5732,629.568 L1032.622,629.8466 L1042.6707,630.1648 L1052.7195,628.2669 L1062.7683,630.1332 L1072.8171,628.8332 L1082.8659,629.9403 L1092.9146,628.5685 L1102.9634,629.1372 L1113.0122,630.2173 L1123.061,629.1635 L1133.1098,629.3689 L1143.1585,629.68 L1153.2073,629.7835 L1163.2561,629.2233 L1173.3049,629.6115 L1183.3537,628.4653 L1193.4024,629.6077 L1203.4512,629.9594 L1213.5,629.2285 " fill="none" style="stroke:#181818;stroke-width:1.0;"/><text fill="#000000" font-family="sans-serif" font-size="13" font-weight="bold" lengthAdjust="spacing" textLength="14" x="813.5" y="623.9658">15</text><text fill="#000000" font-family="sans-serif" font-size="13" lengthAdjust="spacing" textLength="60" x="831.5" y="623.9658">enrollment</text><polygon fill="#181818" points="640,656.5195,640.026,656.5846,637.9487,657.1913,636.0239,658.1794,634.0495,659.0432,631.9117,659.4987,630,660.5195,629.9904,660.4955,631.9472,661.1875,633.9525,662.0008,635.9916,662.8984,637.9144,663.5056,640,664.5195,640.1305,664.65,639.0514,663.571,638.3534,662.8729,637.7018,662.2213,636.7798,661.2993,636,660.5195,636.0161,660.5356,636.7925,659.712,637.6421,658.9616,638.4564,658.1759,639.338,657.4576,640,656.5195" style="stroke:#181818;stroke-width:1.0;"/><path d="M634,660.5195 L634,660.7998 L643.7813,659.9671 L653.5625,660.7772 L663.3438,661.0524 L673.125,659.5683 L682.9063,660.4159 L692.6875,659.9509 L702.4688,660.0082 L712.25,660.4287 L722.0313,659.5977 L731.8125,661.2577 L741.5938,659.6792 L751.375,660.2558 L761.1563,661.0955 L770.9375,660.4052 L780.7188,660.6105 L790.5,660.5195 " fill="none" style="stroke:#181818;stroke-width:1.0;"/><text fill="#000000" font-family="sans-serif" font-size="13" font-weight="bold" lengthAdjust="spacing" textLength="14" x="646" y="655.2568">16</text><text fill="#000000" font-family="sans-serif" font-size="13" lengthAdjust="spacing" textLength="60" x="664" y="655.2568">enrollment</text><polygon fill="#181818" points="1047,687.8105,1047.026,687.8756,1048.9487,688.4823,1051.0239,689.4704,1053.0495,690.3342,1054.9117,690.7898,1057,691.8105,1056.9904,691.7865,1054.9472,692.4786,1052.9525,693.2919,1050.9916,694.1895,1048.9144,694.7966,1047,695.8105,1047.1305,695.941,1047.6514,694.862,1048.5534,694.1639,1049.5018,693.5124,1050.1798,692.5903,1051,691.8105,1051.0161,691.8266,1050.1925,691.003,1049.4421,690.2526,1048.6564,689.4669,1047.938,688.7486,1047,687.8105" style="stroke:#181818;stroke-width:1.0;"/><path d="M629,691.8105 L629,692.0908 L639.0952,691.2581 L649.1905,692.0683 L659.2857,692.3435 L669.381,690.8594 L679.4762,691.7069 L689.5714,691.2419 L699.6667,691.2992 L709.7619,691.7197 L719.8571,690.8887 L729.9524,692.5487 L740.0476,690.9702 L750.1429,691.5469 L760.2381,692.3865 L770.3333,691.6962 L780.4286,691.9015 L790.5238,691.768 L800.619,692.0486 L810.7143,692.1294 L820.8095,692.5915 L830.9048,692.7053 L841,692.7162 L851.0952,692.15 L861.1905,692.4287 L871.2857,692.7469 L881.381,690.849 L891.4762,692.7152 L901.5714,691.4152 L911.6667,692.5223 L921.7619,691.1505 L931.8571,691.7192 L941.9524,692.7994 L952.0476,691.7456 L962.1429,691.9509 L972.2381,692.2621 L982.3333,692.3655 L992.4286,691.8053 L1002.5238,692.1935 L1012.619,691.0473 L1022.7143,692.1897 L1032.8095,692.5415 L1042.9048,692.4033 L1053,691.8105 " fill="none" style="stroke:#181818;stroke-width:1.0;"/><text fill="#000000" font-family="sans-serif" font-size="13" font-weight="bold" lengthAdjust="spacing" textLength="14" x="636" y="686.5479">17</text><text fill="#000000" font-family="sans-serif" font-size="13" lengthAdjust="spacing" textLength="151" x="654" y="686.5479">addEnrollment(enrollment)</text><polygon fill="#181818" points="1358,749.1016,1358.026,749.1666,1359.9487,749.7733,1362.0239,750.7614,1364.0495,751.6253,1365.9117,752.0808,1368,753.1016,1367.9904,753.0775,1365.9472,753.7696,1363.9525,754.5829,1361.9916,755.4805,1359.9144,756.0876,1358,757.1016,1358.1305,757.2321,1358.6514,756.153,1359.5534,755.4549,1360.5018,754.8034,1361.1798,753.8813,1362,753.1016,1362.0161,753.1176,1361.1925,752.294,1360.4421,751.5436,1359.6564,750.7579,1358.938,750.0396,1358,749.1016" style="stroke:#181818;stroke-width:1.0;"/><path d="M629,753.1016 L629,753.3818 L638.9324,752.5491 L648.8649,753.3593 L658.7973,753.6345 L668.7297,752.1504 L678.6622,752.9979 L688.5946,752.5329 L698.527,752.5902 L708.4595,753.0107 L718.3919,752.1797 L728.3243,753.8398 L738.2568,752.2612 L748.1892,752.8379 L758.1216,753.6775 L768.0541,752.9872 L777.9865,753.1925 L787.9189,753.059 L797.8514,753.3396 L807.7838,753.4204 L817.7162,753.8825 L827.6486,753.9963 L837.5811,754.0072 L847.5135,753.4411 L857.4459,753.7197 L867.3784,754.0379 L877.3108,752.14 L887.2432,754.0062 L897.1757,752.7062 L907.1081,753.8133 L917.0405,752.4415 L926.973,753.0102 L936.9054,754.0904 L946.8378,753.0366 L956.7703,753.242 L966.7027,753.5531 L976.6351,753.6565 L986.5676,753.0964 L996.5,753.4845 L1006.4324,752.3383 L1016.3649,753.4807 L1026.2973,753.8325 L1036.2297,753.6943 L1046.1622,753.9189 L1056.0946,752.4575 L1066.027,752.232 L1075.9595,752.273 L1085.8919,753.0231 L1095.8243,752.8395 L1105.7568,754.0101 L1115.6892,752.8687 L1125.6216,752.6442 L1135.5541,753.4059 L1145.4865,752.2124 L1155.4189,752.4094 L1165.3514,753.9668 L1175.2838,753.6825 L1185.2162,754.0809 L1195.1486,752.6725 L1205.0811,753.5272 L1215.0135,753.8888 L1224.9459,752.4717 L1234.8784,752.9737 L1244.8108,753.2695 L1254.7432,753.9706 L1264.6757,753.096 L1274.6081,753.7183 L1284.5405,752.3632 L1294.473,752.1986 L1304.4054,753.773 L1314.3378,752.1456 L1324.2703,753.7802 L1334.2027,753.3771 L1344.1351,752.7443 L1354.0676,752.6299 L1364,753.1016 " fill="none" style="stroke:#181818;stroke-width:1.0;"/><text fill="#000000" font-family="sans-serif" font-size="13" font-weight="bold" lengthAdjust="spacing" textLength="14" x="636" y="747.8389">18</text><text fill="#000000" font-family="sans-serif" font-size="13" lengthAdjust="spacing" textLength="73" x="654" y="747.8389">save(course)</text><polygon fill="#181818" points="445,780.3926,445.026,780.4576,442.9487,781.0643,441.0239,782.0524,439.0495,782.9163,436.9117,783.3718,435,784.3926,434.9904,784.3685,436.9472,785.0606,438.9525,785.8739,440.9916,786.7715,442.9144,787.3786,445,788.3926,445.1305,788.5231,444.0514,787.444,443.3534,786.746,442.7018,786.0944,441.7798,785.1724,441,784.3926,441.0161,784.4087,441.7925,783.585,442.6421,782.8347,443.4564,782.0489,444.338,781.3306,445,780.3926" style="stroke:#181818;stroke-width:1.0;"/><path d="M439,784.3926 L439,784.6728 L449.2222,783.8402 L459.4444,784.6503 L469.6667,784.9255 L479.8889,783.4414 L490.1111,784.289 L500.3333,783.8239 L510.5556,783.8812 L520.7778,784.3017 L531,783.4708 L541.2222,785.1308 L551.4444,783.5522 L561.6667,784.1289 L571.8889,784.9685 L582.1111,784.2782 L592.3333,784.4836 L602.5556,784.35 L612.7778,784.6306 L623,784.3926 " fill="none" style="stroke:#181818;stroke-width:1.0;stroke-dasharray:2.0,2.0;"/><text fill="#000000" font-family="sans-serif" font-size="13" font-weight="bold" lengthAdjust="spacing" textLength="14" x="451" y="779.1299">19</text><text fill="#000000" font-family="sans-serif" font-size="13" lengthAdjust="spacing" textLength="60" x="469" y="779.1299">enrollment</text><polygon fill="#181818" points="37,811.6836,37.026,811.7486,34.9487,812.3554,33.0239,813.3434,31.0495,814.2073,28.9117,814.6628,27,815.6836,26.9904,815.6595,28.9472,816.3516,30.9525,817.1649,32.9916,818.0625,34.9144,818.6696,37,819.6836,37.1305,819.8141,36.0514,818.735,35.3534,818.037,34.7018,817.3854,33.7798,816.4634,33,815.6836,33.0161,815.6997,33.7925,814.8761,34.6421,814.1257,35.4564,813.34,36.338,812.6216,37,811.6836" style="stroke:#181818;stroke-width:1.0;"/><path d="M31,815.6836 L31,815.9638 L40.925,815.1312 L50.85,815.9413 L60.775,816.2165 L70.7,814.7324 L80.625,815.58 L90.55,815.1149 L100.475,815.1723 L110.4,815.5927 L120.325,814.7618 L130.25,816.4218 L140.175,814.8432 L150.1,815.4199 L160.025,816.2595 L169.95,815.5692 L179.875,815.7746 L189.8,815.641 L199.725,815.9216 L209.65,816.0024 L219.575,816.4645 L229.5,816.5783 L239.425,816.5893 L249.35,816.0231 L259.275,816.3017 L269.2,816.6199 L279.125,814.722 L289.05,816.5883 L298.975,815.2883 L308.9,816.3953 L318.825,815.0236 L328.75,815.5923 L338.675,816.6724 L348.6,815.6186 L358.525,815.824 L368.45,816.1351 L378.375,816.2386 L388.3,815.6784 L398.225,816.0665 L408.15,814.9204 L418.075,816.0628 L428,815.6836 " fill="none" style="stroke:#181818;stroke-width:1.0;stroke-dasharray:2.0,2.0;"/><text fill="#000000" font-family="sans-serif" font-size="13" font-weight="bold" lengthAdjust="spacing" textLength="14" x="43" y="810.4209">20</text><text fill="#000000" font-family="sans-serif" font-size="13" lengthAdjust="spacing" textLength="181" x="61" y="810.4209">Informa o sucesso da opera&#231;&#227;o</text><!--SRC=[ZLNDRjim3BxxAOYUsaE1xZO4MO2kxQ70C0mBSjk5aPX4g2nvafoYpxF3dc1Fq1SR_I_5Tb9TB5dyFbBa9yg_A5EWmnnoQwmuE9iJ15TIvlkT0iKBxcaTtZI18n7Gx7LiS40ZNvqAWSmfrXzGsbTbzh13xIdBWWhCigRV9Hb1yAXmNzbThnzlu1OsQ_XqT_Svmp9OK-PRSbc68bW7L_UwDFOAq4CzovW_AA4AD06kbil2aISJC2XhLYluPU314GPwCivgdVFMvhb6RvupOKtWlnKCYq8hSGRrqDXgSZLwM2O1DFPK0RwMIajobN4tNIwtpMorIb3Vb6V-qdbQapigJWU3kkb9RAVdbJP7rSLSSooQJnjcDNsiRL8a3P4kegXhLBHke33uoIG6tAAdohcZmdh5PNcB0_ZP_wtPXcLTGtNalBQr0nxr36vNN11Om0-I19LaG1al71qvRPH3cID8vJbuhGpMk9wA2mdjO0ec6ch3XAAkOsyHxR5bb-FUx1oJvYhTQzsSqN-teKsJlBxfONrGaJxwpNF-yG9nGjx2KkPgT7nCFMIz3Hs-m4uPUVy1Hucpg7odDfAchEQZcifeDaFOdN4kUPrW4eu8FrM0ggYCQnItgAyTLWeTbEM1-n6mkBafLGJSaOJD6osgzx_l_yW3SZSAwBE1DvNmanTM7_WEnufDpZ4XBfHow3NNegxGJFNdf3MMLzTtHhVWO-PHG6Dz926ro6pIggDb3-F6Ck7BXrBozuBB4TMaUJN6JfEpKkzvaY6IrDZbfVCc9VwuexFfFArQtE97GXfyJgSpLbNqKim5bXXTK5FIW3mUQLBLbwxtRD9chlhSNNysE-lu4R7WIq7UMv2yACWXt-e_ji55dFoePD6oUQx-0m00]--></g></svg>