<?xml version="1.0" encoding="us-ascii" standalone="no"?><svg xmlns="http://www.w3.org/2000/svg" xmlns:xlink="http://www.w3.org/1999/xlink" contentStyleType="text/css" height="718px" preserveAspectRatio="none" style="width:2169px;height:718px;background:#FFFFFF;" version="1.1" viewBox="0 0 2169 718" width="2169px" zoomAndPan="magnify"><defs/><g><text fill="#000000" font-family="sans-serif" font-size="14" font-weight="bold" lengthAdjust="spacing" textLength="201" x="977" y="25.1074">Class Diagram (CD) - US 3008</text><!--class UndoLastChangePostItUI--><g id="elem_UndoLastChangePostItUI"><rect codeLine="5" fill="#F1F1F1" height="79.2031" id="UndoLastChangePostItUI" rx="2.5" ry="2.5" style="stroke:#181818;stroke-width:0.5;" width="189" x="323.5" y="46.6211"/><ellipse cx="338.5" cy="68.9121" fill="#ADD1B2" rx="11" ry="11" style="stroke:#181818;stroke-width:1.0;"/><path d="M341.2656,64.7871 Q341.4219,64.5684 341.6094,64.459 Q341.7969,64.3496 342.0156,64.3496 Q342.3906,64.3496 342.625,64.6152 Q342.8594,64.8652 342.8594,65.4746 L342.8594,66.9277 Q342.8594,67.5371 342.625,67.8027 Q342.3906,68.0684 342.0156,68.0684 Q341.6719,68.0684 341.4688,67.8652 Q341.2656,67.6777 341.1563,67.1621 Q341.1094,66.8027 340.9219,66.6152 Q340.5938,66.2402 339.9844,66.0215 Q339.375,65.8027 338.75,65.8027 Q337.9844,65.8027 337.3438,66.1309 Q336.7188,66.459 336.2188,67.209 Q335.7344,67.959 335.7344,68.9902 L335.7344,70.084 Q335.7344,71.3184 336.625,72.1465 Q337.5156,72.959 339.1094,72.959 Q340.0469,72.959 340.7031,72.709 Q341.0938,72.5527 341.5156,72.1152 Q341.7813,71.8496 341.9219,71.7715 Q342.0781,71.6934 342.2813,71.6934 Q342.6094,71.6934 342.8594,71.959 Q343.125,72.209 343.125,72.5527 Q343.125,72.8965 342.7813,73.3027 Q342.2813,73.8809 341.4844,74.209 Q340.4063,74.6621 339.1094,74.6621 Q337.5938,74.6621 336.3906,74.0371 Q335.4063,73.5371 334.7188,72.4746 Q334.0313,71.3965 334.0313,70.1152 L334.0313,68.959 Q334.0313,67.6309 334.6406,66.4902 Q335.2656,65.334 336.3594,64.7246 Q337.4531,64.0996 338.6875,64.0996 Q339.4219,64.0996 340.0625,64.2715 Q340.7188,64.4277 341.2656,64.7871 Z " fill="#000000"/><text fill="#000000" font-family="sans-serif" font-size="12" font-style="italic" lengthAdjust="spacing" textLength="82" x="390" y="64.5703">&#171;presentation&#187;</text><text fill="#000000" font-family="sans-serif" font-size="14" lengthAdjust="spacing" textLength="157" x="352.5" y="82.6895">UndoLastChangePostItUI</text><line style="stroke:#181818;stroke-width:0.5;" x1="324.5" x2="511.5" y1="91.2031" y2="91.2031"/><line style="stroke:#181818;stroke-width:0.5;" x1="324.5" x2="511.5" y1="99.2031" y2="99.2031"/><polygon fill="#FFFF44" points="334.5,109.0137,338.5,113.0137,334.5,117.0137,330.5,113.0137" style="stroke:#B38D22;stroke-width:1.0;"/><text fill="#000000" font-family="sans-serif" font-size="14" lengthAdjust="spacing" textLength="115" x="343.5" y="118.3105">boolean doShow()</text></g><!--class Board--><g id="elem_Board"><rect codeLine="9" fill="#F1F1F1" height="97.8242" id="Board" rx="2.5" ry="2.5" style="stroke:#181818;stroke-width:0.5;" width="250" x="7" y="427.6211"/><ellipse cx="101.75" cy="449.9121" fill="#ADD1B2" rx="11" ry="11" style="stroke:#181818;stroke-width:1.0;"/><path d="M104.5156,445.7871 Q104.6719,445.5684 104.8594,445.459 Q105.0469,445.3496 105.2656,445.3496 Q105.6406,445.3496 105.875,445.6152 Q106.1094,445.8652 106.1094,446.4746 L106.1094,447.9277 Q106.1094,448.5371 105.875,448.8027 Q105.6406,449.0684 105.2656,449.0684 Q104.9219,449.0684 104.7188,448.8652 Q104.5156,448.6777 104.4063,448.1621 Q104.3594,447.8027 104.1719,447.6152 Q103.8438,447.2402 103.2344,447.0215 Q102.625,446.8027 102,446.8027 Q101.2344,446.8027 100.5938,447.1309 Q99.9688,447.459 99.4688,448.209 Q98.9844,448.959 98.9844,449.9902 L98.9844,451.084 Q98.9844,452.3184 99.875,453.1465 Q100.7656,453.959 102.3594,453.959 Q103.2969,453.959 103.9531,453.709 Q104.3438,453.5527 104.7656,453.1152 Q105.0313,452.8496 105.1719,452.7715 Q105.3281,452.6934 105.5313,452.6934 Q105.8594,452.6934 106.1094,452.959 Q106.375,453.209 106.375,453.5527 Q106.375,453.8965 106.0313,454.3027 Q105.5313,454.8809 104.7344,455.209 Q103.6563,455.6621 102.3594,455.6621 Q100.8438,455.6621 99.6406,455.0371 Q98.6563,454.5371 97.9688,453.4746 Q97.2813,452.3965 97.2813,451.1152 L97.2813,449.959 Q97.2813,448.6309 97.8906,447.4902 Q98.5156,446.334 99.6094,445.7246 Q100.7031,445.0996 101.9375,445.0996 Q102.6719,445.0996 103.3125,445.2715 Q103.9688,445.4277 104.5156,445.7871 Z " fill="#000000"/><text fill="#000000" font-family="sans-serif" font-size="12" font-style="italic" lengthAdjust="spacing" textLength="56" x="120.25" y="445.5703">&#171;domain&#187;</text><text fill="#000000" font-family="sans-serif" font-size="14" lengthAdjust="spacing" textLength="38" x="129.25" y="463.6895">Board</text><line style="stroke:#181818;stroke-width:0.5;" x1="8" x2="256" y1="472.2031" y2="472.2031"/><line style="stroke:#181818;stroke-width:0.5;" x1="8" x2="256" y1="480.2031" y2="480.2031"/><ellipse cx="18" cy="495.0137" fill="#84BE84" rx="3" ry="3" style="stroke:#038048;stroke-width:1.0;"/><text fill="#000000" font-family="sans-serif" font-size="14" lengthAdjust="spacing" textLength="169" x="27" y="499.3105">List&lt;PostIt&gt; existingPostIt()</text><ellipse cx="18" cy="513.6348" fill="#84BE84" rx="3" ry="3" style="stroke:#038048;stroke-width:1.0;"/><text fill="#000000" font-family="sans-serif" font-size="14" lengthAdjust="spacing" textLength="224" x="27" y="517.9316">void removePostIt(thePostIt : PostIt)</text></g><!--class PostIt--><g id="elem_PostIt"><rect codeLine="14" fill="#F1F1F1" height="79.2031" id="PostIt" rx="2.5" ry="2.5" style="stroke:#181818;stroke-width:0.5;" width="129" x="292.5" y="437.1211"/><ellipse cx="327.75" cy="459.4121" fill="#ADD1B2" rx="11" ry="11" style="stroke:#181818;stroke-width:1.0;"/><path d="M330.5156,455.2871 Q330.6719,455.0684 330.8594,454.959 Q331.0469,454.8496 331.2656,454.8496 Q331.6406,454.8496 331.875,455.1152 Q332.1094,455.3652 332.1094,455.9746 L332.1094,457.4277 Q332.1094,458.0371 331.875,458.3027 Q331.6406,458.5684 331.2656,458.5684 Q330.9219,458.5684 330.7188,458.3652 Q330.5156,458.1777 330.4063,457.6621 Q330.3594,457.3027 330.1719,457.1152 Q329.8438,456.7402 329.2344,456.5215 Q328.625,456.3027 328,456.3027 Q327.2344,456.3027 326.5938,456.6309 Q325.9688,456.959 325.4688,457.709 Q324.9844,458.459 324.9844,459.4902 L324.9844,460.584 Q324.9844,461.8184 325.875,462.6465 Q326.7656,463.459 328.3594,463.459 Q329.2969,463.459 329.9531,463.209 Q330.3438,463.0527 330.7656,462.6152 Q331.0313,462.3496 331.1719,462.2715 Q331.3281,462.1934 331.5313,462.1934 Q331.8594,462.1934 332.1094,462.459 Q332.375,462.709 332.375,463.0527 Q332.375,463.3965 332.0313,463.8027 Q331.5313,464.3809 330.7344,464.709 Q329.6563,465.1621 328.3594,465.1621 Q326.8438,465.1621 325.6406,464.5371 Q324.6563,464.0371 323.9688,462.9746 Q323.2813,461.8965 323.2813,460.6152 L323.2813,459.459 Q323.2813,458.1309 323.8906,456.9902 Q324.5156,455.834 325.6094,455.2246 Q326.7031,454.5996 327.9375,454.5996 Q328.6719,454.5996 329.3125,454.7715 Q329.9688,454.9277 330.5156,455.2871 Z " fill="#000000"/><text fill="#000000" font-family="sans-serif" font-size="12" font-style="italic" lengthAdjust="spacing" textLength="56" x="344.25" y="455.0703">&#171;domain&#187;</text><text fill="#000000" font-family="sans-serif" font-size="14" lengthAdjust="spacing" textLength="35" x="354.75" y="473.1895">PostIt</text><line style="stroke:#181818;stroke-width:0.5;" x1="293.5" x2="420.5" y1="481.7031" y2="481.7031"/><line style="stroke:#181818;stroke-width:0.5;" x1="293.5" x2="420.5" y1="489.7031" y2="489.7031"/><ellipse cx="303.5" cy="504.5137" fill="#84BE84" rx="3" ry="3" style="stroke:#038048;stroke-width:1.0;"/><text fill="#000000" font-family="sans-serif" font-size="14" lengthAdjust="spacing" textLength="103" x="312.5" y="508.8105">PostIt oldPostIt()</text></g><!--class SystemUser--><g id="elem_SystemUser"><rect codeLine="18" fill="#F1F1F1" height="60.582" id="SystemUser" rx="2.5" ry="2.5" style="stroke:#181818;stroke-width:0.5;" width="107" x="456.5" y="446.1211"/><ellipse cx="471.5" cy="468.4121" fill="#ADD1B2" rx="11" ry="11" style="stroke:#181818;stroke-width:1.0;"/><path d="M474.2656,464.2871 Q474.4219,464.0684 474.6094,463.959 Q474.7969,463.8496 475.0156,463.8496 Q475.3906,463.8496 475.625,464.1152 Q475.8594,464.3652 475.8594,464.9746 L475.8594,466.4277 Q475.8594,467.0371 475.625,467.3027 Q475.3906,467.5684 475.0156,467.5684 Q474.6719,467.5684 474.4688,467.3652 Q474.2656,467.1777 474.1563,466.6621 Q474.1094,466.3027 473.9219,466.1152 Q473.5938,465.7402 472.9844,465.5215 Q472.375,465.3027 471.75,465.3027 Q470.9844,465.3027 470.3438,465.6309 Q469.7188,465.959 469.2188,466.709 Q468.7344,467.459 468.7344,468.4902 L468.7344,469.584 Q468.7344,470.8184 469.625,471.6465 Q470.5156,472.459 472.1094,472.459 Q473.0469,472.459 473.7031,472.209 Q474.0938,472.0527 474.5156,471.6152 Q474.7813,471.3496 474.9219,471.2715 Q475.0781,471.1934 475.2813,471.1934 Q475.6094,471.1934 475.8594,471.459 Q476.125,471.709 476.125,472.0527 Q476.125,472.3965 475.7813,472.8027 Q475.2813,473.3809 474.4844,473.709 Q473.4063,474.1621 472.1094,474.1621 Q470.5938,474.1621 469.3906,473.5371 Q468.4063,473.0371 467.7188,471.9746 Q467.0313,470.8965 467.0313,469.6152 L467.0313,468.459 Q467.0313,467.1309 467.6406,465.9902 Q468.2656,464.834 469.3594,464.2246 Q470.4531,463.5996 471.6875,463.5996 Q472.4219,463.5996 473.0625,463.7715 Q473.7188,463.9277 474.2656,464.2871 Z " fill="#000000"/><text fill="#000000" font-family="sans-serif" font-size="12" font-style="italic" lengthAdjust="spacing" textLength="56" x="495" y="464.0703">&#171;domain&#187;</text><text fill="#000000" font-family="sans-serif" font-size="14" lengthAdjust="spacing" textLength="75" x="485.5" y="482.1895">SystemUser</text><line style="stroke:#181818;stroke-width:0.5;" x1="457.5" x2="562.5" y1="490.7031" y2="490.7031"/><line style="stroke:#181818;stroke-width:0.5;" x1="457.5" x2="562.5" y1="498.7031" y2="498.7031"/></g><!--class Username--><g id="elem_Username"><rect codeLine="20" fill="#F1F1F1" height="60.582" id="Username" rx="2.5" ry="2.5" style="stroke:#181818;stroke-width:0.5;" width="96" x="297" y="632.1211"/><ellipse cx="312" cy="654.4121" fill="#ADD1B2" rx="11" ry="11" style="stroke:#181818;stroke-width:1.0;"/><path d="M314.7656,650.2871 Q314.9219,650.0684 315.1094,649.959 Q315.2969,649.8496 315.5156,649.8496 Q315.8906,649.8496 316.125,650.1152 Q316.3594,650.3652 316.3594,650.9746 L316.3594,652.4277 Q316.3594,653.0371 316.125,653.3027 Q315.8906,653.5684 315.5156,653.5684 Q315.1719,653.5684 314.9688,653.3652 Q314.7656,653.1777 314.6563,652.6621 Q314.6094,652.3027 314.4219,652.1152 Q314.0938,651.7402 313.4844,651.5215 Q312.875,651.3027 312.25,651.3027 Q311.4844,651.3027 310.8438,651.6309 Q310.2188,651.959 309.7188,652.709 Q309.2344,653.459 309.2344,654.4902 L309.2344,655.584 Q309.2344,656.8184 310.125,657.6465 Q311.0156,658.459 312.6094,658.459 Q313.5469,658.459 314.2031,658.209 Q314.5938,658.0527 315.0156,657.6152 Q315.2813,657.3496 315.4219,657.2715 Q315.5781,657.1934 315.7813,657.1934 Q316.1094,657.1934 316.3594,657.459 Q316.625,657.709 316.625,658.0527 Q316.625,658.3965 316.2813,658.8027 Q315.7813,659.3809 314.9844,659.709 Q313.9063,660.1621 312.6094,660.1621 Q311.0938,660.1621 309.8906,659.5371 Q308.9063,659.0371 308.2188,657.9746 Q307.5313,656.8965 307.5313,655.6152 L307.5313,654.459 Q307.5313,653.1309 308.1406,651.9902 Q308.7656,650.834 309.8594,650.2246 Q310.9531,649.5996 312.1875,649.5996 Q312.9219,649.5996 313.5625,649.7715 Q314.2188,649.9277 314.7656,650.2871 Z " fill="#000000"/><text fill="#000000" font-family="sans-serif" font-size="12" font-style="italic" lengthAdjust="spacing" textLength="56" x="330" y="650.0703">&#171;domain&#187;</text><text fill="#000000" font-family="sans-serif" font-size="14" lengthAdjust="spacing" textLength="64" x="326" y="668.1895">Username</text><line style="stroke:#181818;stroke-width:0.5;" x1="298" x2="392" y1="676.7031" y2="676.7031"/><line style="stroke:#181818;stroke-width:0.5;" x1="298" x2="392" y1="684.7031" y2="684.7031"/></g><!--class UndoLastChangePostItController--><g id="elem_UndoLastChangePostItController"><rect codeLine="22" fill="#F1F1F1" height="135.0664" id="UndoLastChangePostItController" rx="2.5" ry="2.5" style="stroke:#181818;stroke-width:0.5;" width="378" x="229" y="204.6211"/><ellipse cx="310.25" cy="226.9121" fill="#ADD1B2" rx="11" ry="11" style="stroke:#181818;stroke-width:1.0;"/><path d="M313.0156,222.7871 Q313.1719,222.5684 313.3594,222.459 Q313.5469,222.3496 313.7656,222.3496 Q314.1406,222.3496 314.375,222.6152 Q314.6094,222.8652 314.6094,223.4746 L314.6094,224.9277 Q314.6094,225.5371 314.375,225.8027 Q314.1406,226.0684 313.7656,226.0684 Q313.4219,226.0684 313.2188,225.8652 Q313.0156,225.6777 312.9063,225.1621 Q312.8594,224.8027 312.6719,224.6152 Q312.3438,224.2402 311.7344,224.0215 Q311.125,223.8027 310.5,223.8027 Q309.7344,223.8027 309.0938,224.1309 Q308.4688,224.459 307.9688,225.209 Q307.4844,225.959 307.4844,226.9902 L307.4844,228.084 Q307.4844,229.3184 308.375,230.1465 Q309.2656,230.959 310.8594,230.959 Q311.7969,230.959 312.4531,230.709 Q312.8438,230.5527 313.2656,230.1152 Q313.5313,229.8496 313.6719,229.7715 Q313.8281,229.6934 314.0313,229.6934 Q314.3594,229.6934 314.6094,229.959 Q314.875,230.209 314.875,230.5527 Q314.875,230.8965 314.5313,231.3027 Q314.0313,231.8809 313.2344,232.209 Q312.1563,232.6621 310.8594,232.6621 Q309.3438,232.6621 308.1406,232.0371 Q307.1563,231.5371 306.4688,230.4746 Q305.7813,229.3965 305.7813,228.1152 L305.7813,226.959 Q305.7813,225.6309 306.3906,224.4902 Q307.0156,223.334 308.1094,222.7246 Q309.2031,222.0996 310.4375,222.0996 Q311.1719,222.0996 311.8125,222.2715 Q312.4688,222.4277 313.0156,222.7871 Z " fill="#000000"/><text fill="#000000" font-family="sans-serif" font-size="12" font-style="italic" lengthAdjust="spacing" textLength="74" x="397.25" y="222.5703">&#171;application&#187;</text><text fill="#000000" font-family="sans-serif" font-size="14" lengthAdjust="spacing" textLength="207" x="330.75" y="240.6895">UndoLastChangePostItController</text><line style="stroke:#181818;stroke-width:0.5;" x1="230" x2="606" y1="249.2031" y2="249.2031"/><line style="stroke:#181818;stroke-width:0.5;" x1="230" x2="606" y1="257.2031" y2="257.2031"/><ellipse cx="240" cy="272.0137" fill="#84BE84" rx="3" ry="3" style="stroke:#038048;stroke-width:1.0;"/><text fill="#000000" font-family="sans-serif" font-size="14" lengthAdjust="spacing" textLength="322" x="249" y="276.3105">Iterable&lt;Board&gt; listAllBoardsWithPermissionWrite()</text><ellipse cx="240" cy="290.6348" fill="#84BE84" rx="3" ry="3" style="stroke:#038048;stroke-width:1.0;"/><text fill="#000000" font-family="sans-serif" font-size="14" lengthAdjust="spacing" textLength="342" x="249" y="294.9316">Iterable&lt;PostIt&gt; listAllExistingPostIts(theBoard : Board)</text><ellipse cx="240" cy="309.2559" fill="#84BE84" rx="3" ry="3" style="stroke:#038048;stroke-width:1.0;"/><text fill="#000000" font-family="sans-serif" font-size="14" lengthAdjust="spacing" textLength="210" x="249" y="313.5527">PostIt findOldPostIt(postIt : PostIt)</text><ellipse cx="240" cy="327.877" fill="#84BE84" rx="3" ry="3" style="stroke:#038048;stroke-width:1.0;"/><text fill="#000000" font-family="sans-serif" font-size="14" lengthAdjust="spacing" textLength="352" x="249" y="332.1738">Board removePostIt(thePostIt : PostIt, theBoard : Board)</text></g><!--class BoardRepository--><g id="elem_BoardRepository"><rect codeLine="29" fill="#F1F1F1" height="97.8242" id="BoardRepository" rx="2.5" ry="2.5" style="stroke:#181818;stroke-width:0.5;" width="462" x="1700" y="613.6211"/><ellipse cx="1873.75" cy="635.9121" fill="#B4A7E5" rx="11" ry="11" style="stroke:#181818;stroke-width:1.0;"/><path d="M1874.7031,632.5527 L1874.7031,639.209 L1876.4219,639.209 Q1877.0313,639.209 1877.2969,639.4434 Q1877.5625,639.6777 1877.5625,640.0684 Q1877.5625,640.4434 1877.2969,640.6777 Q1877.0313,640.9121 1876.4219,640.9121 L1871.2813,640.9121 Q1870.6719,640.9121 1870.4063,640.6777 Q1870.1406,640.4434 1870.1406,640.0527 Q1870.1406,639.6777 1870.4063,639.4434 Q1870.6719,639.209 1871.2813,639.209 L1873,639.209 L1873,632.5527 L1871.2813,632.5527 Q1870.6719,632.5527 1870.4063,632.3184 Q1870.1406,632.084 1870.1406,631.6934 Q1870.1406,631.3184 1870.4063,631.084 Q1870.6719,630.8496 1871.2813,630.8496 L1876.4219,630.8496 Q1877.0313,630.8496 1877.2969,631.084 Q1877.5625,631.3184 1877.5625,631.6934 Q1877.5625,632.084 1877.2969,632.3184 Q1877.0313,632.5527 1876.4219,632.5527 L1874.7031,632.5527 Z " fill="#000000"/><text fill="#000000" font-family="sans-serif" font-size="12" font-style="italic" lengthAdjust="spacing" textLength="78" x="1908.25" y="631.5703">&#171;repositories&#187;</text><text fill="#000000" font-family="sans-serif" font-size="14" font-style="italic" lengthAdjust="spacing" textLength="106" x="1894.25" y="649.6895">BoardRepository</text><line style="stroke:#181818;stroke-width:0.5;" x1="1701" x2="2161" y1="658.2031" y2="658.2031"/><line style="stroke:#181818;stroke-width:0.5;" x1="1701" x2="2161" y1="666.2031" y2="666.2031"/><ellipse cx="1711" cy="681.0137" fill="#84BE84" rx="3" ry="3" style="stroke:#038048;stroke-width:1.0;"/><text fill="#000000" font-family="sans-serif" font-size="14" lengthAdjust="spacing" textLength="436" x="1720" y="685.3105">Iterable&lt;Board&gt; findAllBoardsWithPermissionWrite(user : Username);</text><ellipse cx="1711" cy="699.6348" fill="#84BE84" rx="3" ry="3" style="stroke:#038048;stroke-width:1.0;"/><text fill="#000000" font-family="sans-serif" font-size="14" lengthAdjust="spacing" textLength="190" x="1720" y="703.9316">Board save(theBoard : Board)</text></g><!--class PostItRepository--><g id="elem_PostItRepository"><rect codeLine="34" fill="#F1F1F1" height="79.2031" id="PostItRepository" rx="2.5" ry="2.5" style="stroke:#181818;stroke-width:0.5;" width="383" x="852.5" y="623.1211"/><ellipse cx="987.75" cy="645.4121" fill="#B4A7E5" rx="11" ry="11" style="stroke:#181818;stroke-width:1.0;"/><path d="M988.7031,642.0527 L988.7031,648.709 L990.4219,648.709 Q991.0313,648.709 991.2969,648.9434 Q991.5625,649.1777 991.5625,649.5684 Q991.5625,649.9434 991.2969,650.1777 Q991.0313,650.4121 990.4219,650.4121 L985.2813,650.4121 Q984.6719,650.4121 984.4063,650.1777 Q984.1406,649.9434 984.1406,649.5527 Q984.1406,649.1777 984.4063,648.9434 Q984.6719,648.709 985.2813,648.709 L987,648.709 L987,642.0527 L985.2813,642.0527 Q984.6719,642.0527 984.4063,641.8184 Q984.1406,641.584 984.1406,641.1934 Q984.1406,640.8184 984.4063,640.584 Q984.6719,640.3496 985.2813,640.3496 L990.4219,640.3496 Q991.0313,640.3496 991.2969,640.584 Q991.5625,640.8184 991.5625,641.1934 Q991.5625,641.584 991.2969,641.8184 Q991.0313,642.0527 990.4219,642.0527 L988.7031,642.0527 Z " fill="#000000"/><text fill="#000000" font-family="sans-serif" font-size="12" font-style="italic" lengthAdjust="spacing" textLength="78" x="1021.25" y="641.0703">&#171;repositories&#187;</text><text fill="#000000" font-family="sans-serif" font-size="14" font-style="italic" lengthAdjust="spacing" textLength="104" x="1008.25" y="659.1895">PostItRepository</text><line style="stroke:#181818;stroke-width:0.5;" x1="853.5" x2="1234.5" y1="667.7031" y2="667.7031"/><line style="stroke:#181818;stroke-width:0.5;" x1="853.5" x2="1234.5" y1="675.7031" y2="675.7031"/><ellipse cx="863.5" cy="690.5137" fill="#84BE84" rx="3" ry="3" style="stroke:#038048;stroke-width:1.0;"/><text fill="#000000" font-family="sans-serif" font-size="14" lengthAdjust="spacing" textLength="357" x="872.5" y="694.8105">Iterable&lt;PostIt&gt; findAllExistingPostIts(boardTitle : String);</text></g><!--class JpaBoardRepository--><g id="elem_JpaBoardRepository"><rect codeLine="38" fill="#F1F1F1" height="60.582" id="JpaBoardRepository" rx="2.5" ry="2.5" style="stroke:#181818;stroke-width:0.5;" width="160" x="1505" y="632.1211"/><ellipse cx="1520" cy="654.4121" fill="#ADD1B2" rx="11" ry="11" style="stroke:#181818;stroke-width:1.0;"/><path d="M1522.7656,650.2871 Q1522.9219,650.0684 1523.1094,649.959 Q1523.2969,649.8496 1523.5156,649.8496 Q1523.8906,649.8496 1524.125,650.1152 Q1524.3594,650.3652 1524.3594,650.9746 L1524.3594,652.4277 Q1524.3594,653.0371 1524.125,653.3027 Q1523.8906,653.5684 1523.5156,653.5684 Q1523.1719,653.5684 1522.9688,653.3652 Q1522.7656,653.1777 1522.6563,652.6621 Q1522.6094,652.3027 1522.4219,652.1152 Q1522.0938,651.7402 1521.4844,651.5215 Q1520.875,651.3027 1520.25,651.3027 Q1519.4844,651.3027 1518.8438,651.6309 Q1518.2188,651.959 1517.7188,652.709 Q1517.2344,653.459 1517.2344,654.4902 L1517.2344,655.584 Q1517.2344,656.8184 1518.125,657.6465 Q1519.0156,658.459 1520.6094,658.459 Q1521.5469,658.459 1522.2031,658.209 Q1522.5938,658.0527 1523.0156,657.6152 Q1523.2813,657.3496 1523.4219,657.2715 Q1523.5781,657.1934 1523.7813,657.1934 Q1524.1094,657.1934 1524.3594,657.459 Q1524.625,657.709 1524.625,658.0527 Q1524.625,658.3965 1524.2813,658.8027 Q1523.7813,659.3809 1522.9844,659.709 Q1521.9063,660.1621 1520.6094,660.1621 Q1519.0938,660.1621 1517.8906,659.5371 Q1516.9063,659.0371 1516.2188,657.9746 Q1515.5313,656.8965 1515.5313,655.6152 L1515.5313,654.459 Q1515.5313,653.1309 1516.1406,651.9902 Q1516.7656,650.834 1517.8594,650.2246 Q1518.9531,649.5996 1520.1875,649.5996 Q1520.9219,649.5996 1521.5625,649.7715 Q1522.2188,649.9277 1522.7656,650.2871 Z " fill="#000000"/><text fill="#000000" font-family="sans-serif" font-size="12" font-style="italic" lengthAdjust="spacing" textLength="77" x="1559.5" y="650.0703">&#171;persistence&#187;</text><text fill="#000000" font-family="sans-serif" font-size="14" lengthAdjust="spacing" textLength="128" x="1534" y="668.1895">JpaBoardRepository</text><line style="stroke:#181818;stroke-width:0.5;" x1="1506" x2="1664" y1="676.7031" y2="676.7031"/><line style="stroke:#181818;stroke-width:0.5;" x1="1506" x2="1664" y1="684.7031" y2="684.7031"/></g><!--class InMemoryBoardRepository--><g id="elem_InMemoryBoardRepository"><rect codeLine="39" fill="#F1F1F1" height="60.582" id="InMemoryBoardRepository" rx="2.5" ry="2.5" style="stroke:#181818;stroke-width:0.5;" width="199" x="1270.5" y="632.1211"/><ellipse cx="1285.5" cy="654.4121" fill="#ADD1B2" rx="11" ry="11" style="stroke:#181818;stroke-width:1.0;"/><path d="M1288.2656,650.2871 Q1288.4219,650.0684 1288.6094,649.959 Q1288.7969,649.8496 1289.0156,649.8496 Q1289.3906,649.8496 1289.625,650.1152 Q1289.8594,650.3652 1289.8594,650.9746 L1289.8594,652.4277 Q1289.8594,653.0371 1289.625,653.3027 Q1289.3906,653.5684 1289.0156,653.5684 Q1288.6719,653.5684 1288.4688,653.3652 Q1288.2656,653.1777 1288.1563,652.6621 Q1288.1094,652.3027 1287.9219,652.1152 Q1287.5938,651.7402 1286.9844,651.5215 Q1286.375,651.3027 1285.75,651.3027 Q1284.9844,651.3027 1284.3438,651.6309 Q1283.7188,651.959 1283.2188,652.709 Q1282.7344,653.459 1282.7344,654.4902 L1282.7344,655.584 Q1282.7344,656.8184 1283.625,657.6465 Q1284.5156,658.459 1286.1094,658.459 Q1287.0469,658.459 1287.7031,658.209 Q1288.0938,658.0527 1288.5156,657.6152 Q1288.7813,657.3496 1288.9219,657.2715 Q1289.0781,657.1934 1289.2813,657.1934 Q1289.6094,657.1934 1289.8594,657.459 Q1290.125,657.709 1290.125,658.0527 Q1290.125,658.3965 1289.7813,658.8027 Q1289.2813,659.3809 1288.4844,659.709 Q1287.4063,660.1621 1286.1094,660.1621 Q1284.5938,660.1621 1283.3906,659.5371 Q1282.4063,659.0371 1281.7188,657.9746 Q1281.0313,656.8965 1281.0313,655.6152 L1281.0313,654.459 Q1281.0313,653.1309 1281.6406,651.9902 Q1282.2656,650.834 1283.3594,650.2246 Q1284.4531,649.5996 1285.6875,649.5996 Q1286.4219,649.5996 1287.0625,649.7715 Q1287.7188,649.9277 1288.2656,650.2871 Z " fill="#000000"/><text fill="#000000" font-family="sans-serif" font-size="12" font-style="italic" lengthAdjust="spacing" textLength="77" x="1344.5" y="650.0703">&#171;persistence&#187;</text><text fill="#000000" font-family="sans-serif" font-size="14" lengthAdjust="spacing" textLength="167" x="1299.5" y="668.1895">InMemoryBoardRepository</text><line style="stroke:#181818;stroke-width:0.5;" x1="1271.5" x2="1468.5" y1="676.7031" y2="676.7031"/><line style="stroke:#181818;stroke-width:0.5;" x1="1271.5" x2="1468.5" y1="684.7031" y2="684.7031"/></g><!--class JpaPostItRepository--><g id="elem_JpaPostItRepository"><rect codeLine="40" fill="#F1F1F1" height="60.582" id="JpaPostItRepository" rx="2.5" ry="2.5" style="stroke:#181818;stroke-width:0.5;" width="157" x="428.5" y="632.1211"/><ellipse cx="443.5" cy="654.4121" fill="#ADD1B2" rx="11" ry="11" style="stroke:#181818;stroke-width:1.0;"/><path d="M446.2656,650.2871 Q446.4219,650.0684 446.6094,649.959 Q446.7969,649.8496 447.0156,649.8496 Q447.3906,649.8496 447.625,650.1152 Q447.8594,650.3652 447.8594,650.9746 L447.8594,652.4277 Q447.8594,653.0371 447.625,653.3027 Q447.3906,653.5684 447.0156,653.5684 Q446.6719,653.5684 446.4688,653.3652 Q446.2656,653.1777 446.1563,652.6621 Q446.1094,652.3027 445.9219,652.1152 Q445.5938,651.7402 444.9844,651.5215 Q444.375,651.3027 443.75,651.3027 Q442.9844,651.3027 442.3438,651.6309 Q441.7188,651.959 441.2188,652.709 Q440.7344,653.459 440.7344,654.4902 L440.7344,655.584 Q440.7344,656.8184 441.625,657.6465 Q442.5156,658.459 444.1094,658.459 Q445.0469,658.459 445.7031,658.209 Q446.0938,658.0527 446.5156,657.6152 Q446.7813,657.3496 446.9219,657.2715 Q447.0781,657.1934 447.2813,657.1934 Q447.6094,657.1934 447.8594,657.459 Q448.125,657.709 448.125,658.0527 Q448.125,658.3965 447.7813,658.8027 Q447.2813,659.3809 446.4844,659.709 Q445.4063,660.1621 444.1094,660.1621 Q442.5938,660.1621 441.3906,659.5371 Q440.4063,659.0371 439.7188,657.9746 Q439.0313,656.8965 439.0313,655.6152 L439.0313,654.459 Q439.0313,653.1309 439.6406,651.9902 Q440.2656,650.834 441.3594,650.2246 Q442.4531,649.5996 443.6875,649.5996 Q444.4219,649.5996 445.0625,649.7715 Q445.7188,649.9277 446.2656,650.2871 Z " fill="#000000"/><text fill="#000000" font-family="sans-serif" font-size="12" font-style="italic" lengthAdjust="spacing" textLength="77" x="481.5" y="650.0703">&#171;persistence&#187;</text><text fill="#000000" font-family="sans-serif" font-size="14" lengthAdjust="spacing" textLength="125" x="457.5" y="668.1895">JpaPostItRepository</text><line style="stroke:#181818;stroke-width:0.5;" x1="429.5" x2="584.5" y1="676.7031" y2="676.7031"/><line style="stroke:#181818;stroke-width:0.5;" x1="429.5" x2="584.5" y1="684.7031" y2="684.7031"/></g><!--class InMemoryPostItRepository--><g id="elem_InMemoryPostItRepository"><rect codeLine="41" fill="#F1F1F1" height="60.582" id="InMemoryPostItRepository" rx="2.5" ry="2.5" style="stroke:#181818;stroke-width:0.5;" width="196" x="621" y="632.1211"/><ellipse cx="636" cy="654.4121" fill="#ADD1B2" rx="11" ry="11" style="stroke:#181818;stroke-width:1.0;"/><path d="M638.7656,650.2871 Q638.9219,650.0684 639.1094,649.959 Q639.2969,649.8496 639.5156,649.8496 Q639.8906,649.8496 640.125,650.1152 Q640.3594,650.3652 640.3594,650.9746 L640.3594,652.4277 Q640.3594,653.0371 640.125,653.3027 Q639.8906,653.5684 639.5156,653.5684 Q639.1719,653.5684 638.9688,653.3652 Q638.7656,653.1777 638.6563,652.6621 Q638.6094,652.3027 638.4219,652.1152 Q638.0938,651.7402 637.4844,651.5215 Q636.875,651.3027 636.25,651.3027 Q635.4844,651.3027 634.8438,651.6309 Q634.2188,651.959 633.7188,652.709 Q633.2344,653.459 633.2344,654.4902 L633.2344,655.584 Q633.2344,656.8184 634.125,657.6465 Q635.0156,658.459 636.6094,658.459 Q637.5469,658.459 638.2031,658.209 Q638.5938,658.0527 639.0156,657.6152 Q639.2813,657.3496 639.4219,657.2715 Q639.5781,657.1934 639.7813,657.1934 Q640.1094,657.1934 640.3594,657.459 Q640.625,657.709 640.625,658.0527 Q640.625,658.3965 640.2813,658.8027 Q639.7813,659.3809 638.9844,659.709 Q637.9063,660.1621 636.6094,660.1621 Q635.0938,660.1621 633.8906,659.5371 Q632.9063,659.0371 632.2188,657.9746 Q631.5313,656.8965 631.5313,655.6152 L631.5313,654.459 Q631.5313,653.1309 632.1406,651.9902 Q632.7656,650.834 633.8594,650.2246 Q634.9531,649.5996 636.1875,649.5996 Q636.9219,649.5996 637.5625,649.7715 Q638.2188,649.9277 638.7656,650.2871 Z " fill="#000000"/><text fill="#000000" font-family="sans-serif" font-size="12" font-style="italic" lengthAdjust="spacing" textLength="77" x="693.5" y="650.0703">&#171;persistence&#187;</text><text fill="#000000" font-family="sans-serif" font-size="14" lengthAdjust="spacing" textLength="164" x="650" y="668.1895">InMemoryPostItRepository</text><line style="stroke:#181818;stroke-width:0.5;" x1="622" x2="816" y1="676.7031" y2="676.7031"/><line style="stroke:#181818;stroke-width:0.5;" x1="622" x2="816" y1="684.7031" y2="684.7031"/></g><!--class CsvSharedBoardProtocolProxy--><g id="elem_CsvSharedBoardProtocolProxy"><rect codeLine="43" fill="#F1F1F1" height="116.4453" id="CsvSharedBoardProtocolProxy" rx="2.5" ry="2.5" style="stroke:#181818;stroke-width:0.5;" width="376" x="856" y="418.6211"/><ellipse cx="942.25" cy="440.9121" fill="#ADD1B2" rx="11" ry="11" style="stroke:#181818;stroke-width:1.0;"/><path d="M945.0156,436.7871 Q945.1719,436.5684 945.3594,436.459 Q945.5469,436.3496 945.7656,436.3496 Q946.1406,436.3496 946.375,436.6152 Q946.6094,436.8652 946.6094,437.4746 L946.6094,438.9277 Q946.6094,439.5371 946.375,439.8027 Q946.1406,440.0684 945.7656,440.0684 Q945.4219,440.0684 945.2188,439.8652 Q945.0156,439.6777 944.9063,439.1621 Q944.8594,438.8027 944.6719,438.6152 Q944.3438,438.2402 943.7344,438.0215 Q943.125,437.8027 942.5,437.8027 Q941.7344,437.8027 941.0938,438.1309 Q940.4688,438.459 939.9688,439.209 Q939.4844,439.959 939.4844,440.9902 L939.4844,442.084 Q939.4844,443.3184 940.375,444.1465 Q941.2656,444.959 942.8594,444.959 Q943.7969,444.959 944.4531,444.709 Q944.8438,444.5527 945.2656,444.1152 Q945.5313,443.8496 945.6719,443.7715 Q945.8281,443.6934 946.0313,443.6934 Q946.3594,443.6934 946.6094,443.959 Q946.875,444.209 946.875,444.5527 Q946.875,444.8965 946.5313,445.3027 Q946.0313,445.8809 945.2344,446.209 Q944.1563,446.6621 942.8594,446.6621 Q941.3438,446.6621 940.1406,446.0371 Q939.1563,445.5371 938.4688,444.4746 Q937.7813,443.3965 937.7813,442.1152 L937.7813,440.959 Q937.7813,439.6309 938.3906,438.4902 Q939.0156,437.334 940.1094,436.7246 Q941.2031,436.0996 942.4375,436.0996 Q943.1719,436.0996 943.8125,436.2715 Q944.4688,436.4277 945.0156,436.7871 Z " fill="#000000"/><text fill="#000000" font-family="sans-serif" font-size="12" font-style="italic" lengthAdjust="spacing" textLength="76" x="1022.25" y="436.5703">&#171;csvprotocol&#187;</text><text fill="#000000" font-family="sans-serif" font-size="14" lengthAdjust="spacing" textLength="195" x="962.75" y="454.6895">CsvSharedBoardProtocolProxy</text><line style="stroke:#181818;stroke-width:0.5;" x1="857" x2="1231" y1="463.2031" y2="463.2031"/><line style="stroke:#181818;stroke-width:0.5;" x1="857" x2="1231" y1="471.2031" y2="471.2031"/><ellipse cx="867" cy="486.0137" fill="#84BE84" rx="3" ry="3" style="stroke:#038048;stroke-width:1.0;"/><text fill="#000000" font-family="sans-serif" font-size="14" lengthAdjust="spacing" textLength="325" x="876" y="490.3105">Iterable&lt;Board&gt; getAllBoardsWithPermissionWrite()</text><ellipse cx="867" cy="504.6348" fill="#84BE84" rx="3" ry="3" style="stroke:#038048;stroke-width:1.0;"/><text fill="#000000" font-family="sans-serif" font-size="14" lengthAdjust="spacing" textLength="350" x="876" y="508.9316">Iterable&lt;PostIt&gt; getAllExistingPostIts(boardTitle : String)</text><ellipse cx="867" cy="523.2559" fill="#84BE84" rx="3" ry="3" style="stroke:#038048;stroke-width:1.0;"/><text fill="#000000" font-family="sans-serif" font-size="14" lengthAdjust="spacing" textLength="228" x="876" y="527.5527">Board saveBoard(theBoard : Board)</text></g><!--link UndoLastChangePostItUI to UndoLastChangePostItController--><g id="link_UndoLastChangePostItUI_UndoLastChangePostItController"><path codeLine="50" d="M418,125.6911 C418,146.9411 418,174.0111 418,199.0211 " fill="none" id="UndoLastChangePostItUI-to-UndoLastChangePostItController" style="stroke:#181818;stroke-width:1.0;"/><polygon fill="#181818" points="418,204.3311,422,195.3311,418,199.3311,414,195.3311,418,204.3311" style="stroke:#181818;stroke-width:1.0;"/><text fill="#000000" font-family="sans-serif" font-size="13" lengthAdjust="spacing" textLength="73" x="419" y="170.6494">theController</text></g><!--link UndoLastChangePostItController to CsvSharedBoardProtocolProxy--><g id="link_UndoLastChangePostItController_CsvSharedBoardProtocolProxy"><path codeLine="51" d="M607.09,334.2911 C688.26,360.5411 782.69,391.0911 862.94,417.0511 " fill="none" id="UndoLastChangePostItController-to-CsvSharedBoardProtocolProxy" style="stroke:#181818;stroke-width:1.0;"/><polygon fill="#181818" points="867.72,418.6011,860.3751,412.0396,862.9597,417.0715,857.9278,419.6561,867.72,418.6011" style="stroke:#181818;stroke-width:1.0;"/><text fill="#000000" font-family="sans-serif" font-size="13" lengthAdjust="spacing" textLength="32" x="770" y="384.6494">proxy</text></g><!--link UndoLastChangePostItController to Board--><g id="link_UndoLastChangePostItController_Board"><path codeLine="52" d="M323.96,339.7111 C285,367.2911 240.53,398.7711 204.21,424.4911 " fill="none" id="UndoLastChangePostItController-to-Board" style="stroke:#181818;stroke-width:1.0;"/><polygon fill="#181818" points="199.82,427.6011,209.4744,425.6537,203.8973,424.7071,204.8439,419.13,199.82,427.6011" style="stroke:#181818;stroke-width:1.0;"/><text fill="#000000" font-family="sans-serif" font-size="13" lengthAdjust="spacing" textLength="52" x="276" y="384.6494">theBoard</text></g><!--link UndoLastChangePostItController to PostIt--><g id="link_UndoLastChangePostItController_PostIt"><path codeLine="53" d="M392.77,339.7711 C389.32,349.7211 385.95,359.9011 383,369.6211 C376.87,389.8411 371.15,412.5611 366.64,431.7611 " fill="none" id="UndoLastChangePostItController-to-PostIt" style="stroke:#181818;stroke-width:1.0;"/><polygon fill="#181818" points="365.4,437.0811,371.3499,429.2326,366.542,432.2133,363.5614,427.4054,365.4,437.0811" style="stroke:#181818;stroke-width:1.0;"/><text fill="#000000" font-family="sans-serif" font-size="13" lengthAdjust="spacing" textLength="52" x="384" y="384.6494">thePostIt</text></g><!--link CsvSharedBoardProtocolProxy to BoardRepository--><g id="link_CsvSharedBoardProtocolProxy_BoardRepository"><path codeLine="54" d="M1232.11,516.6411 C1367.05,544.6311 1549.85,582.5511 1694.64,612.5911 " fill="none" id="CsvSharedBoardProtocolProxy-to-BoardRepository" style="stroke:#181818;stroke-width:1.0;"/><polygon fill="#181818" points="1699.78,613.6611,1691.781,607.9152,1694.8844,612.6448,1690.1548,615.7482,1699.78,613.6611" style="stroke:#181818;stroke-width:1.0;"/><text fill="#000000" font-family="sans-serif" font-size="13" lengthAdjust="spacing" textLength="62" x="1541" y="579.6494">boardRepo</text></g><!--link CsvSharedBoardProtocolProxy to PostItRepository--><g id="link_CsvSharedBoardProtocolProxy_PostItRepository"><path codeLine="55" d="M1044,534.8311 C1044,561.6211 1044,593.0211 1044,617.8811 " fill="none" id="CsvSharedBoardProtocolProxy-to-PostItRepository" style="stroke:#181818;stroke-width:1.0;"/><polygon fill="#181818" points="1044,623.0811,1048,614.0811,1044,618.0811,1040,614.0811,1044,623.0811" style="stroke:#181818;stroke-width:1.0;"/><text fill="#000000" font-family="sans-serif" font-size="13" lengthAdjust="spacing" textLength="64" x="1045" y="579.6494">PostItRepo</text></g><!--link UndoLastChangePostItController to SystemUser--><g id="link_UndoLastChangePostItController_SystemUser"><path codeLine="57" d="M448.25,339.7111 C463.7,373.7111 481.84,413.6311 494.44,441.3811 " fill="none" id="UndoLastChangePostItController-to-SystemUser" style="stroke:#181818;stroke-width:1.0;"/><polygon fill="#181818" points="496.57,446.0711,496.4872,436.2226,494.501,441.5193,489.2043,439.533,496.57,446.0711" style="stroke:#181818;stroke-width:1.0;"/><text fill="#000000" font-family="sans-serif" font-size="13" lengthAdjust="spacing" textLength="25" x="471" y="384.6494">user</text></g><!--link SystemUser to Username--><g id="link_SystemUser_Username"><path codeLine="58" d="M483.49,507.1811 C453.99,540.0811 406.4,593.1511 375.41,627.7111 " fill="none" id="SystemUser-to-Username" style="stroke:#181818;stroke-width:1.0;"/><polygon fill="#181818" points="371.72,631.8311,380.7062,627.8001,375.0577,628.1082,374.7496,622.4598,371.72,631.8311" style="stroke:#181818;stroke-width:1.0;"/></g><!--link JpaBoardRepository to BoardRepository--><g id="link_JpaBoardRepository_BoardRepository"><path codeLine="59" d="M1665.08,662.6211 C1674.96,662.6211 1684.84,662.6211 1694.71,662.6211 " fill="none" id="JpaBoardRepository-to-BoardRepository" style="stroke:#181818;stroke-width:1.0;"/><polygon fill="#181818" points="1699.88,662.6211,1690.88,658.6211,1694.88,662.6211,1690.88,666.6211,1699.88,662.6211" style="stroke:#181818;stroke-width:1.0;"/></g><!--link InMemoryBoardRepository to BoardRepository--><g id="link_InMemoryBoardRepository_BoardRepository"><path codeLine="60" d="M1404.48,631.9311 C1430.28,611.1211 1467.53,585.4211 1505.5,574.1211 C1612.5,542.2711 1737.94,576.8011 1824.77,611.6111 " fill="none" id="InMemoryBoardRepository-to-BoardRepository" style="stroke:#181818;stroke-width:1.0;"/><polygon fill="#181818" points="1829.65,613.5911,1822.798,606.5165,1825.0126,611.7218,1819.8072,613.9364,1829.65,613.5911" style="stroke:#181818;stroke-width:1.0;"/></g><!--link JpaPostItRepository to PostItRepository--><g id="link_JpaPostItRepository_PostItRepository"><path codeLine="61" d="M534.96,632.0211 C556.13,611.2611 587.18,585.5711 620.5,574.1211 C736.86,534.1211 877.72,581.5511 964.08,620.9011 " fill="none" id="JpaPostItRepository-to-PostItRepository" style="stroke:#181818;stroke-width:1.0;"/><polygon fill="#181818" points="968.66,623.0011,962.1498,615.6107,964.116,620.9149,958.8119,622.8811,968.66,623.0011" style="stroke:#181818;stroke-width:1.0;"/></g><!--link InMemoryPostItRepository to PostItRepository--><g id="link_InMemoryPostItRepository_PostItRepository"><path codeLine="62" d="M817.07,662.6211 C827.01,662.6211 836.95,662.6211 846.89,662.6211 " fill="none" id="InMemoryPostItRepository-to-PostItRepository" style="stroke:#181818;stroke-width:1.0;"/><polygon fill="#181818" points="852.09,662.6211,843.09,658.6211,847.09,662.6211,843.09,666.6211,852.09,662.6211" style="stroke:#181818;stroke-width:1.0;"/></g><!--SRC=[dLJ1Zfim4BtxAopri8csaLRgfQ8HqfRj8TMsZKgZFJim2vQCZMoNRbJrtsjiuoK10YqNRC-ycJVFCzPKCy098qhX1qeAIIgyIXxMU8CFANvtT_SUeHjh1eKowtRWkNWaIYSbuGNiXT8xVTZXxRQMe81hegdWSOn_8so-DqSX612ESv6MujTgZVuW7-YZ838tk5nKXBuYRX-fqbiNDyRmOdQK5svluDQb4JJ74YhHU08hNVeLZh1Rz39vop2LDmYMX_W1b9wKXkgWG9u1WxsrS5B1X7L4fKHmBGLZDYAfQqQpSx5kTneaEJBOMcrYp4pnzupPdNgYkjo3hAXI1lGagOPEZu3hPFF0JsVggLObfthar5-VoV1CUVujI55VocbT7Nn6-hTucCWeGxcX-KmoS6VVmQIWMiYJaKDs6mfgMe-MuLKzVhRN5OMxMN_eirQaWTKCCrV0lr3h9FVSBYK_jab-s36BSAgbCHbMeKy-rsGeHWrIcIZ0Ct1DvNnt_8lHNPuM0qpmaNfceYz1U4YYchGa4dBBQ2-55fbWvl_IeZBLrFve-aOB-By6TxWbObzsW5sDjy7DLzBGmiuacdZcDfjuRhQZjljVzsZ6lOruJSW8r-r_IPYkegwu9PWmkc6CqJKs8KslGI9yx4vciOFkYdf7Q0dXthiSuNRUKU_4NeyVVZGoMqFsQ6ggHbp7vcca9ZGvIcFEVm40]--></g></svg>