<?xml version="1.0" encoding="us-ascii" standalone="no"?><svg xmlns="http://www.w3.org/2000/svg" xmlns:xlink="http://www.w3.org/1999/xlink" contentStyleType="text/css" height="635.4px" preserveAspectRatio="none" style="width:1699px;height:635px;background:#FFFFFF;" version="1.1" viewBox="0 0 1699 635" width="1699.2px" zoomAndPan="magnify"><defs/><g><text fill="#000000" font-family="sans-serif" font-size="12.6" font-weight="bold" lengthAdjust="spacing" textLength="191.7" x="747.45" y="22.5967">Domain Classes (DC) - US 3008</text><!--cluster <<aggregate>> SystemUser--><g id="cluster_&lt;&lt;aggregate&gt;&gt; SystemUser"><path d="M580.05,399.7213 L738.45,399.7213 A3.375,3.375 0 0 1 740.7,401.9713 L747,421.8803 L747.45,421.8803 A2.25,2.25 0 0 1 749.7,424.1303 L749.7,623.3713 A2.25,2.25 0 0 1 747.45,625.6213 L580.05,625.6213 A2.25,2.25 0 0 1 577.8,623.3713 L577.8,401.9713 A2.25,2.25 0 0 1 580.05,399.7213 " fill="none" style="stroke:#000000;stroke-width:1.35;"/><line style="stroke:#000000;stroke-width:1.35;" x1="577.8" x2="747" y1="421.8803" y2="421.8803"/><text fill="#000000" font-family="sans-serif" font-size="12.6" font-weight="bold" lengthAdjust="spacing" textLength="157.5" x="581.4" y="415.118">&#171;aggregate&#187; SystemUser</text></g><!--cluster <<aggregate>> PostIt--><g id="cluster_&lt;&lt;aggregate&gt;&gt; PostIt"><path d="M7.65,228.2713 L127.35,228.2713 A3.375,3.375 0 0 1 129.6,230.5213 L135.9,250.4303 L553.95,250.4303 A2.25,2.25 0 0 1 556.2,252.6803 L556.2,627.4213 A2.25,2.25 0 0 1 553.95,629.6713 L7.65,629.6713 A2.25,2.25 0 0 1 5.4,627.4213 L5.4,230.5213 A2.25,2.25 0 0 1 7.65,228.2713 " fill="none" style="stroke:#000000;stroke-width:1.35;"/><line style="stroke:#000000;stroke-width:1.35;" x1="5.4" x2="135.9" y1="250.4303" y2="250.4303"/><text fill="#000000" font-family="sans-serif" font-size="12.6" font-weight="bold" lengthAdjust="spacing" textLength="118.8" x="9" y="243.668">&#171;aggregate&#187; PostIt</text></g><!--cluster <<aggregate>> Board--><g id="cluster_&lt;&lt;aggregate&gt;&gt; Board"><path d="M989.55,41.0713 L1111.05,41.0713 A3.375,3.375 0 0 1 1113.3,43.3213 L1119.6,63.2303 L1690.65,63.2303 A2.25,2.25 0 0 1 1692.9,65.4803 L1692.9,508.1713 A2.25,2.25 0 0 1 1690.65,510.4213 L989.55,510.4213 A2.25,2.25 0 0 1 987.3,508.1713 L987.3,43.3213 A2.25,2.25 0 0 1 989.55,41.0713 " fill="none" style="stroke:#000000;stroke-width:1.35;"/><line style="stroke:#000000;stroke-width:1.35;" x1="987.3" x2="1119.6" y1="63.2303" y2="63.2303"/><text fill="#000000" font-family="sans-serif" font-size="12.6" font-weight="bold" lengthAdjust="spacing" textLength="120.6" x="990.9" y="56.468">&#171;aggregate&#187; Board</text></g><!--cluster <<aggregate>> BoardMembers--><g id="cluster_&lt;&lt;aggregate&gt;&gt; BoardMembers"><path d="M773.55,228.2713 L954.45,228.2713 A3.375,3.375 0 0 1 956.7,230.5213 L963,250.4303 L963.45,250.4303 A2.25,2.25 0 0 1 965.7,252.6803 L965.7,500.0713 A2.25,2.25 0 0 1 963.45,502.3213 L773.55,502.3213 A2.25,2.25 0 0 1 771.3,500.0713 L771.3,230.5213 A2.25,2.25 0 0 1 773.55,228.2713 " fill="none" style="stroke:#000000;stroke-width:1.35;"/><line style="stroke:#000000;stroke-width:1.35;" x1="771.3" x2="963" y1="250.4303" y2="250.4303"/><text fill="#000000" font-family="sans-serif" font-size="12.6" font-weight="bold" lengthAdjust="spacing" textLength="180" x="774.9" y="243.668">&#171;aggregate&#187; BoardMembers</text></g><!--class SystemUser--><g id="elem_SystemUser"><rect codeLine="10" fill="#F1F1F1" height="61.6887" id="SystemUser" rx="2.25" ry="2.25" style="stroke:#181818;stroke-width:0.45;" width="96.3" x="638.55" y="433.0213"/><ellipse cx="652.05" cy="460.2656" fill="#ADD1B2" rx="9.9" ry="9.9" style="stroke:#181818;stroke-width:0.9;"/><path d="M651.0234,460.9828 L651.0234,463.2328 L654.9188,463.2328 L654.9188,462.4031 Q654.9188,461.8547 655.1297,461.6156 Q655.3547,461.3766 655.6922,461.3766 Q656.0297,461.3766 656.2406,461.6156 Q656.4516,461.8547 656.4516,462.4031 L656.4516,464.7656 L649.2516,464.7656 Q648.6891,464.7656 648.45,464.5547 Q648.225,464.3438 648.225,463.9922 Q648.225,463.6547 648.4641,463.4438 Q648.7031,463.2328 649.2516,463.2328 L649.4906,463.2328 L649.4906,457.2422 L649.2516,457.2422 Q648.6891,457.2422 648.45,457.0313 Q648.225,456.8203 648.225,456.4688 Q648.225,456.1313 648.45,455.9203 Q648.6891,455.7094 649.2516,455.7094 L656.1141,455.7094 L656.1141,458.0438 Q656.1141,458.5922 655.9031,458.8313 Q655.7063,459.0563 655.3547,459.0563 Q655.0172,459.0563 654.8063,458.8313 Q654.5953,458.5922 654.5953,458.0438 L654.5953,457.2422 L651.0234,457.2422 L651.0234,459.45 L652.3594,459.45 Q652.3594,458.8594 652.4719,458.6906 Q652.7109,458.325 653.1328,458.325 Q653.4703,458.325 653.6813,458.5641 Q653.8922,458.7891 653.8922,459.3375 L653.8922,461.1094 Q653.8922,461.6016 653.7797,461.7703 Q653.5406,462.1219 653.1328,462.1219 Q652.7109,462.1219 652.4719,461.7563 Q652.3594,461.5875 652.3594,460.9828 L651.0234,460.9828 Z " fill="#000000"/><text fill="#000000" font-family="sans-serif" font-size="10.8" font-style="italic" lengthAdjust="spacing" textLength="38.7" x="679.05" y="449.1756">&#171;entity&#187;</text><text fill="#000000" font-family="sans-serif" font-size="10.8" font-style="italic" lengthAdjust="spacing" textLength="31.5" x="682.65" y="463.5404">&#171;root&#187;</text><text fill="#000000" font-family="sans-serif" font-size="12.6" lengthAdjust="spacing" textLength="67.5" x="664.65" y="479.8477">SystemUser</text><line style="stroke:#181818;stroke-width:0.45;" x1="639.45" x2="733.95" y1="487.51" y2="487.51"/></g><!--class Username--><g id="elem_Username"><rect codeLine="11" fill="#F1F1F1" height="47.3238" id="Username" rx="2.25" ry="2.25" style="stroke:#181818;stroke-width:0.45;" width="98.1" x="636.75" y="563.5213"/><ellipse cx="650.25" cy="583.5832" fill="#FF8B40" rx="9.9" ry="9.9" style="stroke:#181818;stroke-width:0.9;"/><path d="M650.7844,586.5223 L653.0063,581.2348 L652.6547,581.2348 Q652.1063,581.2348 651.8672,581.0238 Q651.6281,580.8129 651.6281,580.4613 Q651.6281,580.1238 651.8672,579.9129 Q652.1063,579.702 652.6547,579.702 L654.7078,579.702 Q655.2563,579.702 655.4953,579.9129 Q655.7344,580.1238 655.7344,580.4613 Q655.7344,580.8832 655.3688,581.1223 Q655.2,581.2348 654.6656,581.2348 L651.5297,588.7582 L650.0531,588.7582 L646.9172,581.2348 Q646.3828,581.2348 646.2141,581.1223 Q645.8484,580.8832 645.8484,580.4613 Q645.8484,580.1238 646.0875,579.9129 Q646.3266,579.702 646.875,579.702 L648.9422,579.702 Q649.4906,579.702 649.7156,579.9129 Q649.9547,580.1238 649.9547,580.4613 Q649.9547,580.8129 649.7156,581.0238 Q649.4906,581.2348 648.9422,581.2348 L648.5766,581.2348 L650.7844,586.5223 Z " fill="#000000"/><text fill="#000000" font-family="sans-serif" font-size="10.8" font-style="italic" lengthAdjust="spacing" textLength="72.9" x="661.05" y="579.6756">&#171;value object&#187;</text><text fill="#000000" font-family="sans-serif" font-size="12.6" lengthAdjust="spacing" textLength="57.6" x="668.7" y="595.9828">Username</text><line style="stroke:#181818;stroke-width:0.45;" x1="637.65" x2="733.95" y1="603.6451" y2="603.6451"/></g><!--class PostIt--><g id="elem_PostIt"><rect codeLine="16" fill="#F1F1F1" height="78.4477" id="PostIt" rx="2.25" ry="2.25" style="stroke:#181818;stroke-width:0.45;" width="63.9" x="357.75" y="261.5713"/><ellipse cx="371.25" cy="288.8156" fill="#ADD1B2" rx="9.9" ry="9.9" style="stroke:#181818;stroke-width:0.9;"/><path d="M370.2234,289.5328 L370.2234,291.7828 L374.1188,291.7828 L374.1188,290.9531 Q374.1188,290.4047 374.3297,290.1656 Q374.5547,289.9266 374.8922,289.9266 Q375.2297,289.9266 375.4406,290.1656 Q375.6516,290.4047 375.6516,290.9531 L375.6516,293.3156 L368.4516,293.3156 Q367.8891,293.3156 367.65,293.1047 Q367.425,292.8938 367.425,292.5422 Q367.425,292.2047 367.6641,291.9938 Q367.9031,291.7828 368.4516,291.7828 L368.6906,291.7828 L368.6906,285.7922 L368.4516,285.7922 Q367.8891,285.7922 367.65,285.5813 Q367.425,285.3703 367.425,285.0188 Q367.425,284.6813 367.65,284.4703 Q367.8891,284.2594 368.4516,284.2594 L375.3141,284.2594 L375.3141,286.5938 Q375.3141,287.1422 375.1031,287.3813 Q374.9063,287.6063 374.5547,287.6063 Q374.2172,287.6063 374.0063,287.3813 Q373.7953,287.1422 373.7953,286.5938 L373.7953,285.7922 L370.2234,285.7922 L370.2234,288 L371.5594,288 Q371.5594,287.4094 371.6719,287.2406 Q371.9109,286.875 372.3328,286.875 Q372.6703,286.875 372.8813,287.1141 Q373.0922,287.3391 373.0922,287.8875 L373.0922,289.6594 Q373.0922,290.1516 372.9797,290.3203 Q372.7406,290.6719 372.3328,290.6719 Q371.9109,290.6719 371.6719,290.3063 Q371.5594,290.1375 371.5594,289.5328 L370.2234,289.5328 Z " fill="#000000"/><text fill="#000000" font-family="sans-serif" font-size="10.8" font-style="italic" lengthAdjust="spacing" textLength="38.7" x="382.05" y="277.7256">&#171;entity&#187;</text><text fill="#000000" font-family="sans-serif" font-size="10.8" font-style="italic" lengthAdjust="spacing" textLength="31.5" x="385.65" y="292.0904">&#171;root&#187;</text><text fill="#000000" font-family="sans-serif" font-size="12.6" lengthAdjust="spacing" textLength="31.5" x="385.65" y="308.3977">PostIt</text><line style="stroke:#181818;stroke-width:0.45;" x1="358.65" x2="420.75" y1="316.06" y2="316.06"/><text fill="#000000" font-family="sans-serif" font-size="12.6" lengthAdjust="spacing" textLength="42.3" x="363.15" y="333.2566">content</text></g><!--class PostItPosition--><g id="elem_PostItPosition"><rect codeLine="19" fill="#F1F1F1" height="80.8418" id="PostItPosition" rx="2.25" ry="2.25" style="stroke:#181818;stroke-width:0.45;" width="105.3" x="20.25" y="423.5713"/><ellipse cx="33.75" cy="443.6332" fill="#FF8B40" rx="9.9" ry="9.9" style="stroke:#181818;stroke-width:0.9;"/><path d="M34.2844,446.5723 L36.5063,441.2848 L36.1547,441.2848 Q35.6063,441.2848 35.3672,441.0738 Q35.1281,440.8629 35.1281,440.5113 Q35.1281,440.1738 35.3672,439.9629 Q35.6063,439.752 36.1547,439.752 L38.2078,439.752 Q38.7563,439.752 38.9953,439.9629 Q39.2344,440.1738 39.2344,440.5113 Q39.2344,440.9332 38.8688,441.1723 Q38.7,441.2848 38.1656,441.2848 L35.0297,448.8082 L33.5531,448.8082 L30.4172,441.2848 Q29.8828,441.2848 29.7141,441.1723 Q29.3484,440.9332 29.3484,440.5113 Q29.3484,440.1738 29.5875,439.9629 Q29.8266,439.752 30.375,439.752 L32.4422,439.752 Q32.9906,439.752 33.2156,439.9629 Q33.4547,440.1738 33.4547,440.5113 Q33.4547,440.8629 33.2156,441.0738 Q32.9906,441.2848 32.4422,441.2848 L32.0766,441.2848 L34.2844,446.5723 Z " fill="#000000"/><text fill="#000000" font-family="sans-serif" font-size="10.8" font-style="italic" lengthAdjust="spacing" textLength="72.9" x="48.15" y="439.7256">&#171;value object&#187;</text><text fill="#000000" font-family="sans-serif" font-size="12.6" lengthAdjust="spacing" textLength="76.5" x="46.35" y="456.0328">PostItPosition</text><line style="stroke:#181818;stroke-width:0.45;" x1="21.15" x2="124.65" y1="463.6951" y2="463.6951"/><text fill="#000000" font-family="sans-serif" font-size="12.6" lengthAdjust="spacing" textLength="40.5" x="25.65" y="480.8918">column</text><text fill="#000000" font-family="sans-serif" font-size="12.6" lengthAdjust="spacing" textLength="19.8" x="25.65" y="497.6508">line</text></g><!--class PostItType--><g id="elem_PostItType"><rect codeLine="24" fill="#F1F1F1" height="47.3238" id="PostItType" rx="2.25" ry="2.25" style="stroke:#181818;stroke-width:0.45;" width="98.1" x="157.05" y="440.2213"/><ellipse cx="170.55" cy="460.2832" fill="#FF8B40" rx="9.9" ry="9.9" style="stroke:#181818;stroke-width:0.9;"/><path d="M171.0844,463.2223 L173.3063,457.9348 L172.9547,457.9348 Q172.4063,457.9348 172.1672,457.7238 Q171.9281,457.5129 171.9281,457.1613 Q171.9281,456.8238 172.1672,456.6129 Q172.4063,456.402 172.9547,456.402 L175.0078,456.402 Q175.5563,456.402 175.7953,456.6129 Q176.0344,456.8238 176.0344,457.1613 Q176.0344,457.5832 175.6688,457.8223 Q175.5,457.9348 174.9656,457.9348 L171.8297,465.4582 L170.3531,465.4582 L167.2172,457.9348 Q166.6828,457.9348 166.5141,457.8223 Q166.1484,457.5832 166.1484,457.1613 Q166.1484,456.8238 166.3875,456.6129 Q166.6266,456.402 167.175,456.402 L169.2422,456.402 Q169.7906,456.402 170.0156,456.6129 Q170.2547,456.8238 170.2547,457.1613 Q170.2547,457.5129 170.0156,457.7238 Q169.7906,457.9348 169.2422,457.9348 L168.8766,457.9348 L171.0844,463.2223 Z " fill="#000000"/><text fill="#000000" font-family="sans-serif" font-size="10.8" font-style="italic" lengthAdjust="spacing" textLength="72.9" x="181.35" y="456.3756">&#171;value object&#187;</text><text fill="#000000" font-family="sans-serif" font-size="12.6" lengthAdjust="spacing" textLength="60.3" x="187.65" y="472.6828">PostItType</text><line style="stroke:#181818;stroke-width:0.45;" x1="157.95" x2="254.25" y1="480.3451" y2="480.3451"/></g><!--class PostItTimeStamp--><g id="elem_PostItTimeStamp"><rect codeLine="25" fill="#F1F1F1" height="47.3238" id="PostItTimeStamp" rx="2.25" ry="2.25" style="stroke:#181818;stroke-width:0.45;" width="124.2" x="287.1" y="440.2213"/><ellipse cx="300.6" cy="460.2832" fill="#FF8B40" rx="9.9" ry="9.9" style="stroke:#181818;stroke-width:0.9;"/><path d="M301.1344,463.2223 L303.3563,457.9348 L303.0047,457.9348 Q302.4563,457.9348 302.2172,457.7238 Q301.9781,457.5129 301.9781,457.1613 Q301.9781,456.8238 302.2172,456.6129 Q302.4563,456.402 303.0047,456.402 L305.0578,456.402 Q305.6063,456.402 305.8453,456.6129 Q306.0844,456.8238 306.0844,457.1613 Q306.0844,457.5832 305.7188,457.8223 Q305.55,457.9348 305.0156,457.9348 L301.8797,465.4582 L300.4031,465.4582 L297.2672,457.9348 Q296.7328,457.9348 296.5641,457.8223 Q296.1984,457.5832 296.1984,457.1613 Q296.1984,456.8238 296.4375,456.6129 Q296.6766,456.402 297.225,456.402 L299.2922,456.402 Q299.8406,456.402 300.0656,456.6129 Q300.3047,456.8238 300.3047,457.1613 Q300.3047,457.5129 300.0656,457.7238 Q299.8406,457.9348 299.2922,457.9348 L298.9266,457.9348 L301.1344,463.2223 Z " fill="#000000"/><text fill="#000000" font-family="sans-serif" font-size="10.8" font-style="italic" lengthAdjust="spacing" textLength="72.9" x="324.45" y="456.3756">&#171;value object&#187;</text><text fill="#000000" font-family="sans-serif" font-size="12.6" lengthAdjust="spacing" textLength="95.4" x="313.2" y="472.6828">PostItTimeStamp</text><line style="stroke:#181818;stroke-width:0.45;" x1="288" x2="410.4" y1="480.3451" y2="480.3451"/></g><!--class PostItStatus--><g id="elem_PostItStatus"><rect codeLine="26" fill="#F1F1F1" height="47.3238" id="PostItStatus" rx="2.25" ry="2.25" style="stroke:#181818;stroke-width:0.45;" width="98.1" x="443.25" y="440.2213"/><ellipse cx="456.75" cy="460.2832" fill="#FF8B40" rx="9.9" ry="9.9" style="stroke:#181818;stroke-width:0.9;"/><path d="M457.2844,463.2223 L459.5063,457.9348 L459.1547,457.9348 Q458.6063,457.9348 458.3672,457.7238 Q458.1281,457.5129 458.1281,457.1613 Q458.1281,456.8238 458.3672,456.6129 Q458.6063,456.402 459.1547,456.402 L461.2078,456.402 Q461.7563,456.402 461.9953,456.6129 Q462.2344,456.8238 462.2344,457.1613 Q462.2344,457.5832 461.8688,457.8223 Q461.7,457.9348 461.1656,457.9348 L458.0297,465.4582 L456.5531,465.4582 L453.4172,457.9348 Q452.8828,457.9348 452.7141,457.8223 Q452.3484,457.5832 452.3484,457.1613 Q452.3484,456.8238 452.5875,456.6129 Q452.8266,456.402 453.375,456.402 L455.4422,456.402 Q455.9906,456.402 456.2156,456.6129 Q456.4547,456.8238 456.4547,457.1613 Q456.4547,457.5129 456.2156,457.7238 Q455.9906,457.9348 455.4422,457.9348 L455.0766,457.9348 L457.2844,463.2223 Z " fill="#000000"/><text fill="#000000" font-family="sans-serif" font-size="10.8" font-style="italic" lengthAdjust="spacing" textLength="72.9" x="467.55" y="456.3756">&#171;value object&#187;</text><text fill="#000000" font-family="sans-serif" font-size="12.6" lengthAdjust="spacing" textLength="67.5" x="470.25" y="472.6828">PostItStatus</text><line style="stroke:#181818;stroke-width:0.45;" x1="444.15" x2="540.45" y1="480.3451" y2="480.3451"/></g><g id="elem_GMN11"><path d="M412.2,559.4713 L412.2,615.157 A0,0 0 0 0 412.2,615.157 L541.8,615.157 A0,0 0 0 0 541.8,615.157 L541.8,568.4713 L532.8,559.4713 L484.038,559.4713 L489.384,488.1103 L476.838,559.4713 L412.2,559.4713 A0,0 0 0 0 412.2,559.4713 " fill="#FEFFDD" style="stroke:#181818;stroke-width:0.45;"/><path d="M532.8,559.4713 L532.8,568.4713 L541.8,568.4713 L532.8,559.4713 " fill="#FEFFDD" style="stroke:#181818;stroke-width:0.45;"/><text fill="#000000" font-family="sans-serif" font-size="11.7" lengthAdjust="spacing" textLength="110.7" x="417.6" y="576.5968">Diagrama de estados</text><text fill="#000000" font-family="sans-serif" font-size="11.7" lengthAdjust="spacing" textLength="86.4" x="417.6" y="592.1587">dispon&#237;vel com o</text><text fill="#000000" font-family="sans-serif" font-size="11.7" lengthAdjust="spacing" textLength="109.8" x="417.6" y="607.7206">nome "post-it-status"</text></g><!--class Board--><g id="elem_Board"><rect codeLine="36" fill="#F1F1F1" height="95.2066" id="Board" rx="2.25" ry="2.25" style="stroke:#181818;stroke-width:0.45;" width="63.9" x="1053.45" y="74.3713"/><ellipse cx="1066.95" cy="101.6156" fill="#ADD1B2" rx="9.9" ry="9.9" style="stroke:#181818;stroke-width:0.9;"/><path d="M1065.9234,102.3328 L1065.9234,104.5828 L1069.8188,104.5828 L1069.8188,103.7531 Q1069.8188,103.2047 1070.0297,102.9656 Q1070.2547,102.7266 1070.5922,102.7266 Q1070.9297,102.7266 1071.1406,102.9656 Q1071.3516,103.2047 1071.3516,103.7531 L1071.3516,106.1156 L1064.1516,106.1156 Q1063.5891,106.1156 1063.35,105.9047 Q1063.125,105.6938 1063.125,105.3422 Q1063.125,105.0047 1063.3641,104.7938 Q1063.6031,104.5828 1064.1516,104.5828 L1064.3906,104.5828 L1064.3906,98.5922 L1064.1516,98.5922 Q1063.5891,98.5922 1063.35,98.3813 Q1063.125,98.1703 1063.125,97.8188 Q1063.125,97.4813 1063.35,97.2703 Q1063.5891,97.0594 1064.1516,97.0594 L1071.0141,97.0594 L1071.0141,99.3938 Q1071.0141,99.9422 1070.8031,100.1813 Q1070.6063,100.4063 1070.2547,100.4063 Q1069.9172,100.4063 1069.7063,100.1813 Q1069.4953,99.9422 1069.4953,99.3938 L1069.4953,98.5922 L1065.9234,98.5922 L1065.9234,100.8 L1067.2594,100.8 Q1067.2594,100.2094 1067.3719,100.0406 Q1067.6109,99.675 1068.0328,99.675 Q1068.3703,99.675 1068.5813,99.9141 Q1068.7922,100.1391 1068.7922,100.6875 L1068.7922,102.4594 Q1068.7922,102.9516 1068.6797,103.1203 Q1068.4406,103.4719 1068.0328,103.4719 Q1067.6109,103.4719 1067.3719,103.1063 Q1067.2594,102.9375 1067.2594,102.3328 L1065.9234,102.3328 Z " fill="#000000"/><text fill="#000000" font-family="sans-serif" font-size="10.8" font-style="italic" lengthAdjust="spacing" textLength="38.7" x="1077.75" y="90.5256">&#171;entity&#187;</text><text fill="#000000" font-family="sans-serif" font-size="10.8" font-style="italic" lengthAdjust="spacing" textLength="31.5" x="1081.35" y="104.8904">&#171;root&#187;</text><text fill="#000000" font-family="sans-serif" font-size="12.6" lengthAdjust="spacing" textLength="34.2" x="1080" y="121.1977">Board</text><line style="stroke:#181818;stroke-width:0.45;" x1="1054.35" x2="1116.45" y1="128.86" y2="128.86"/><text fill="#000000" font-family="sans-serif" font-size="12.6" lengthAdjust="spacing" textLength="19.8" x="1058.85" y="146.0566">title</text><text fill="#000000" font-family="sans-serif" font-size="12.6" lengthAdjust="spacing" textLength="48.6" x="1058.85" y="162.8156">archived</text></g><!--class BoardCreationDateTime--><g id="elem_BoardCreationDateTime"><rect codeLine="41" fill="#F1F1F1" height="64.0828" id="BoardCreationDateTime" rx="2.25" ry="2.25" style="stroke:#181818;stroke-width:0.45;" width="166.5" x="1002.15" y="268.7713"/><ellipse cx="1015.65" cy="288.8332" fill="#FF8B40" rx="9.9" ry="9.9" style="stroke:#181818;stroke-width:0.9;"/><path d="M1016.1844,291.7723 L1018.4063,286.4848 L1018.0547,286.4848 Q1017.5063,286.4848 1017.2672,286.2738 Q1017.0281,286.0629 1017.0281,285.7113 Q1017.0281,285.3738 1017.2672,285.1629 Q1017.5063,284.952 1018.0547,284.952 L1020.1078,284.952 Q1020.6563,284.952 1020.8953,285.1629 Q1021.1344,285.3738 1021.1344,285.7113 Q1021.1344,286.1332 1020.7688,286.3723 Q1020.6,286.4848 1020.0656,286.4848 L1016.9297,294.0082 L1015.4531,294.0082 L1012.3172,286.4848 Q1011.7828,286.4848 1011.6141,286.3723 Q1011.2484,286.1332 1011.2484,285.7113 Q1011.2484,285.3738 1011.4875,285.1629 Q1011.7266,284.952 1012.275,284.952 L1014.3422,284.952 Q1014.8906,284.952 1015.1156,285.1629 Q1015.3547,285.3738 1015.3547,285.7113 Q1015.3547,286.0629 1015.1156,286.2738 Q1014.8906,286.4848 1014.3422,286.4848 L1013.9766,286.4848 L1016.1844,291.7723 Z " fill="#000000"/><text fill="#000000" font-family="sans-serif" font-size="10.8" font-style="italic" lengthAdjust="spacing" textLength="72.9" x="1060.65" y="284.9256">&#171;value object&#187;</text><text fill="#000000" font-family="sans-serif" font-size="12.6" lengthAdjust="spacing" textLength="137.7" x="1028.25" y="301.2328">BoardCreationDateTime</text><line style="stroke:#181818;stroke-width:0.45;" x1="1003.05" x2="1167.75" y1="308.8951" y2="308.8951"/><text fill="#000000" font-family="sans-serif" font-size="12.6" lengthAdjust="spacing" textLength="53.1" x="1007.55" y="326.0918">dateTime</text></g><!--class BoardDimensions--><g id="elem_BoardDimensions"><rect codeLine="45" fill="#F1F1F1" height="80.8418" id="BoardDimensions" rx="2.25" ry="2.25" style="stroke:#181818;stroke-width:0.45;" width="128.7" x="1200.15" y="260.2213"/><ellipse cx="1213.65" cy="280.2832" fill="#FF8B40" rx="9.9" ry="9.9" style="stroke:#181818;stroke-width:0.9;"/><path d="M1214.1844,283.2223 L1216.4063,277.9348 L1216.0547,277.9348 Q1215.5063,277.9348 1215.2672,277.7238 Q1215.0281,277.5129 1215.0281,277.1613 Q1215.0281,276.8238 1215.2672,276.6129 Q1215.5063,276.402 1216.0547,276.402 L1218.1078,276.402 Q1218.6563,276.402 1218.8953,276.6129 Q1219.1344,276.8238 1219.1344,277.1613 Q1219.1344,277.5832 1218.7688,277.8223 Q1218.6,277.9348 1218.0656,277.9348 L1214.9297,285.4582 L1213.4531,285.4582 L1210.3172,277.9348 Q1209.7828,277.9348 1209.6141,277.8223 Q1209.2484,277.5832 1209.2484,277.1613 Q1209.2484,276.8238 1209.4875,276.6129 Q1209.7266,276.402 1210.275,276.402 L1212.3422,276.402 Q1212.8906,276.402 1213.1156,276.6129 Q1213.3547,276.8238 1213.3547,277.1613 Q1213.3547,277.5129 1213.1156,277.7238 Q1212.8906,277.9348 1212.3422,277.9348 L1211.9766,277.9348 L1214.1844,283.2223 Z " fill="#000000"/><text fill="#000000" font-family="sans-serif" font-size="10.8" font-style="italic" lengthAdjust="spacing" textLength="72.9" x="1239.75" y="276.3756">&#171;value object&#187;</text><text fill="#000000" font-family="sans-serif" font-size="12.6" lengthAdjust="spacing" textLength="99.9" x="1226.25" y="292.6828">BoardDimensions</text><line style="stroke:#181818;stroke-width:0.45;" x1="1201.05" x2="1327.95" y1="300.3451" y2="300.3451"/><text fill="#000000" font-family="sans-serif" font-size="12.6" lengthAdjust="spacing" textLength="73.8" x="1205.55" y="317.5418">numColumns</text><text fill="#000000" font-family="sans-serif" font-size="12.6" lengthAdjust="spacing" textLength="54.9" x="1205.55" y="334.3008">numLines</text></g><!--class BoardElement--><g id="elem_BoardElement"><rect codeLine="51" fill="#F1F1F1" height="64.0828" id="BoardElement" rx="2.25" ry="2.25" style="stroke:#181818;stroke-width:0.45;" width="108.9" x="1460.25" y="432.1213"/><ellipse cx="1473.75" cy="452.1832" fill="#A9DCDF" rx="9.9" ry="9.9" style="stroke:#181818;stroke-width:0.9;"/><path d="M1475.7188,453.7723 L1471.9922,453.7723 L1471.6125,454.7004 L1471.9922,454.7004 Q1472.5406,454.7004 1472.7797,454.9113 Q1473.0188,455.1223 1473.0188,455.4738 Q1473.0188,455.8113 1472.7797,456.0223 Q1472.5406,456.2332 1471.9922,456.2332 L1469.925,456.2332 Q1469.3766,456.2332 1469.1516,456.0223 Q1468.9125,455.8113 1468.9125,455.4598 Q1468.9125,455.1223 1469.1656,454.9113 Q1469.4047,454.6863 1469.9672,454.7004 L1472.3719,448.7098 L1471.3734,448.7098 Q1470.825,448.7098 1470.5859,448.4988 Q1470.3469,448.2879 1470.3469,447.9363 Q1470.3469,447.5988 1470.5859,447.3879 Q1470.825,447.177 1471.3734,447.177 L1474.6781,447.177 L1477.7297,454.7004 Q1478.2641,454.7004 1478.4328,454.827 Q1478.7844,455.066 1478.7844,455.4738 Q1478.7844,455.8113 1478.5453,456.0223 Q1478.3203,456.2332 1477.7719,456.2332 L1475.7047,456.2332 Q1475.1563,456.2332 1474.9172,456.0223 Q1474.6781,455.8113 1474.6781,455.4598 Q1474.6781,455.1223 1474.9172,454.9113 Q1475.1563,454.7004 1475.7047,454.7004 L1476.0844,454.7004 L1475.7188,453.7723 Z M1475.0719,452.2395 L1473.8484,449.202 L1472.6109,452.2395 L1475.0719,452.2395 Z " fill="#000000"/><text fill="#000000" font-family="sans-serif" font-size="10.8" font-style="italic" lengthAdjust="spacing" textLength="52.2" x="1500.3" y="448.2756">&#171;abstract&#187;</text><text fill="#000000" font-family="sans-serif" font-size="12.6" font-style="italic" lengthAdjust="spacing" textLength="80.1" x="1486.35" y="464.5828">BoardElement</text><line style="stroke:#181818;stroke-width:0.45;" x1="1461.15" x2="1568.25" y1="472.2451" y2="472.2451"/><text fill="#000000" font-family="sans-serif" font-size="12.6" lengthAdjust="spacing" textLength="19.8" x="1465.65" y="489.4418">title</text></g><!--class BoardElementLine--><g id="elem_BoardElementLine"><rect codeLine="55" fill="#F1F1F1" height="47.3238" id="BoardElementLine" rx="2.25" ry="2.25" style="stroke:#181818;stroke-width:0.45;" width="133.2" x="1360.8" y="276.8713"/><ellipse cx="1374.3" cy="296.9332" fill="#ADD1B2" rx="9.9" ry="9.9" style="stroke:#181818;stroke-width:0.9;"/><path d="M1373.2734,297.6504 L1373.2734,299.9004 L1377.1688,299.9004 L1377.1688,299.0707 Q1377.1688,298.5223 1377.3797,298.2832 Q1377.6047,298.0441 1377.9422,298.0441 Q1378.2797,298.0441 1378.4906,298.2832 Q1378.7016,298.5223 1378.7016,299.0707 L1378.7016,301.4332 L1371.5016,301.4332 Q1370.9391,301.4332 1370.7,301.2223 Q1370.475,301.0113 1370.475,300.6598 Q1370.475,300.3223 1370.7141,300.1113 Q1370.9531,299.9004 1371.5016,299.9004 L1371.7406,299.9004 L1371.7406,293.9098 L1371.5016,293.9098 Q1370.9391,293.9098 1370.7,293.6988 Q1370.475,293.4879 1370.475,293.1363 Q1370.475,292.7988 1370.7,292.5879 Q1370.9391,292.377 1371.5016,292.377 L1378.3641,292.377 L1378.3641,294.7113 Q1378.3641,295.2598 1378.1531,295.4988 Q1377.9563,295.7238 1377.6047,295.7238 Q1377.2672,295.7238 1377.0563,295.4988 Q1376.8453,295.2598 1376.8453,294.7113 L1376.8453,293.9098 L1373.2734,293.9098 L1373.2734,296.1176 L1374.6094,296.1176 Q1374.6094,295.527 1374.7219,295.3582 Q1374.9609,294.9926 1375.3828,294.9926 Q1375.7203,294.9926 1375.9313,295.2316 Q1376.1422,295.4566 1376.1422,296.0051 L1376.1422,297.777 Q1376.1422,298.2691 1376.0297,298.4379 Q1375.7906,298.7895 1375.3828,298.7895 Q1374.9609,298.7895 1374.7219,298.4238 Q1374.6094,298.2551 1374.6094,297.6504 L1373.2734,297.6504 Z " fill="#000000"/><text fill="#000000" font-family="sans-serif" font-size="10.8" font-style="italic" lengthAdjust="spacing" textLength="38.7" x="1419.75" y="293.0256">&#171;entity&#187;</text><text fill="#000000" font-family="sans-serif" font-size="12.6" lengthAdjust="spacing" textLength="104.4" x="1386.9" y="309.3328">BoardElementLine</text><line style="stroke:#181818;stroke-width:0.45;" x1="1361.7" x2="1493.1" y1="316.9951" y2="316.9951"/></g><!--class BoardElementColumn--><g id="elem_BoardElementColumn"><rect codeLine="56" fill="#F1F1F1" height="47.3238" id="BoardElementColumn" rx="2.25" ry="2.25" style="stroke:#181818;stroke-width:0.45;" width="152.1" x="1525.95" y="276.8713"/><ellipse cx="1539.45" cy="296.9332" fill="#ADD1B2" rx="9.9" ry="9.9" style="stroke:#181818;stroke-width:0.9;"/><path d="M1538.4234,297.6504 L1538.4234,299.9004 L1542.3188,299.9004 L1542.3188,299.0707 Q1542.3188,298.5223 1542.5297,298.2832 Q1542.7547,298.0441 1543.0922,298.0441 Q1543.4297,298.0441 1543.6406,298.2832 Q1543.8516,298.5223 1543.8516,299.0707 L1543.8516,301.4332 L1536.6516,301.4332 Q1536.0891,301.4332 1535.85,301.2223 Q1535.625,301.0113 1535.625,300.6598 Q1535.625,300.3223 1535.8641,300.1113 Q1536.1031,299.9004 1536.6516,299.9004 L1536.8906,299.9004 L1536.8906,293.9098 L1536.6516,293.9098 Q1536.0891,293.9098 1535.85,293.6988 Q1535.625,293.4879 1535.625,293.1363 Q1535.625,292.7988 1535.85,292.5879 Q1536.0891,292.377 1536.6516,292.377 L1543.5141,292.377 L1543.5141,294.7113 Q1543.5141,295.2598 1543.3031,295.4988 Q1543.1063,295.7238 1542.7547,295.7238 Q1542.4172,295.7238 1542.2063,295.4988 Q1541.9953,295.2598 1541.9953,294.7113 L1541.9953,293.9098 L1538.4234,293.9098 L1538.4234,296.1176 L1539.7594,296.1176 Q1539.7594,295.527 1539.8719,295.3582 Q1540.1109,294.9926 1540.5328,294.9926 Q1540.8703,294.9926 1541.0813,295.2316 Q1541.2922,295.4566 1541.2922,296.0051 L1541.2922,297.777 Q1541.2922,298.2691 1541.1797,298.4379 Q1540.9406,298.7895 1540.5328,298.7895 Q1540.1109,298.7895 1539.8719,298.4238 Q1539.7594,298.2551 1539.7594,297.6504 L1538.4234,297.6504 Z " fill="#000000"/><text fill="#000000" font-family="sans-serif" font-size="10.8" font-style="italic" lengthAdjust="spacing" textLength="38.7" x="1594.35" y="293.0256">&#171;entity&#187;</text><text fill="#000000" font-family="sans-serif" font-size="12.6" lengthAdjust="spacing" textLength="123.3" x="1552.05" y="309.3328">BoardElementColumn</text><line style="stroke:#181818;stroke-width:0.45;" x1="1526.85" x2="1677.15" y1="316.9951" y2="316.9951"/></g><!--class BoardMembers--><g id="elem_BoardMembers"><rect codeLine="61" fill="#F1F1F1" height="78.4477" id="BoardMembers" rx="2.25" ry="2.25" style="stroke:#181818;stroke-width:0.45;" width="115.2" x="810.9" y="261.5713"/><ellipse cx="824.4" cy="288.8156" fill="#ADD1B2" rx="9.9" ry="9.9" style="stroke:#181818;stroke-width:0.9;"/><path d="M823.3734,289.5328 L823.3734,291.7828 L827.2688,291.7828 L827.2688,290.9531 Q827.2688,290.4047 827.4797,290.1656 Q827.7047,289.9266 828.0422,289.9266 Q828.3797,289.9266 828.5906,290.1656 Q828.8016,290.4047 828.8016,290.9531 L828.8016,293.3156 L821.6016,293.3156 Q821.0391,293.3156 820.8,293.1047 Q820.575,292.8938 820.575,292.5422 Q820.575,292.2047 820.8141,291.9938 Q821.0531,291.7828 821.6016,291.7828 L821.8406,291.7828 L821.8406,285.7922 L821.6016,285.7922 Q821.0391,285.7922 820.8,285.5813 Q820.575,285.3703 820.575,285.0188 Q820.575,284.6813 820.8,284.4703 Q821.0391,284.2594 821.6016,284.2594 L828.4641,284.2594 L828.4641,286.5938 Q828.4641,287.1422 828.2531,287.3813 Q828.0563,287.6063 827.7047,287.6063 Q827.3672,287.6063 827.1563,287.3813 Q826.9453,287.1422 826.9453,286.5938 L826.9453,285.7922 L823.3734,285.7922 L823.3734,288 L824.7094,288 Q824.7094,287.4094 824.8219,287.2406 Q825.0609,286.875 825.4828,286.875 Q825.8203,286.875 826.0313,287.1141 Q826.2422,287.3391 826.2422,287.8875 L826.2422,289.6594 Q826.2422,290.1516 826.1297,290.3203 Q825.8906,290.6719 825.4828,290.6719 Q825.0609,290.6719 824.8219,290.3063 Q824.7094,290.1375 824.7094,289.5328 L823.3734,289.5328 Z " fill="#000000"/><text fill="#000000" font-family="sans-serif" font-size="10.8" font-style="italic" lengthAdjust="spacing" textLength="38.7" x="860.85" y="277.7256">&#171;entity&#187;</text><text fill="#000000" font-family="sans-serif" font-size="10.8" font-style="italic" lengthAdjust="spacing" textLength="31.5" x="864.45" y="292.0904">&#171;root&#187;</text><text fill="#000000" font-family="sans-serif" font-size="12.6" lengthAdjust="spacing" textLength="86.4" x="837" y="308.3977">BoardMembers</text><line style="stroke:#181818;stroke-width:0.45;" x1="811.8" x2="925.2" y1="316.06" y2="316.06"/><text fill="#000000" font-family="sans-serif" font-size="12.6" lengthAdjust="spacing" textLength="61.2" x="816.3" y="333.2566">joinedDate</text></g><!--class AccessPermission--><g id="elem_AccessPermission"><rect codeLine="65" fill="#F1F1F1" height="47.3238" id="AccessPermission" rx="2.25" ry="2.25" style="stroke:#181818;stroke-width:0.45;" width="131.4" x="802.8" y="440.2213"/><ellipse cx="816.3" cy="460.2832" fill="#FF8B40" rx="9.9" ry="9.9" style="stroke:#181818;stroke-width:0.9;"/><path d="M816.8344,463.2223 L819.0563,457.9348 L818.7047,457.9348 Q818.1563,457.9348 817.9172,457.7238 Q817.6781,457.5129 817.6781,457.1613 Q817.6781,456.8238 817.9172,456.6129 Q818.1563,456.402 818.7047,456.402 L820.7578,456.402 Q821.3063,456.402 821.5453,456.6129 Q821.7844,456.8238 821.7844,457.1613 Q821.7844,457.5832 821.4188,457.8223 Q821.25,457.9348 820.7156,457.9348 L817.5797,465.4582 L816.1031,465.4582 L812.9672,457.9348 Q812.4328,457.9348 812.2641,457.8223 Q811.8984,457.5832 811.8984,457.1613 Q811.8984,456.8238 812.1375,456.6129 Q812.3766,456.402 812.925,456.402 L814.9922,456.402 Q815.5406,456.402 815.7656,456.6129 Q816.0047,456.8238 816.0047,457.1613 Q816.0047,457.5129 815.7656,457.7238 Q815.5406,457.9348 814.9922,457.9348 L814.6266,457.9348 L816.8344,463.2223 Z " fill="#000000"/><text fill="#000000" font-family="sans-serif" font-size="10.8" font-style="italic" lengthAdjust="spacing" textLength="72.9" x="843.75" y="456.3756">&#171;value object&#187;</text><text fill="#000000" font-family="sans-serif" font-size="12.6" lengthAdjust="spacing" textLength="102.6" x="828.9" y="472.6828">AccessPermission</text><line style="stroke:#181818;stroke-width:0.45;" x1="803.7" x2="933.3" y1="480.3451" y2="480.3451"/></g><!--link SystemUser to Username--><g id="link_SystemUser_Username"><path codeLine="68" d="M686.475,495.3193 C686.331,514.7593 686.142,539.7883 686.007,558.7063 " fill="none" id="SystemUser-to-Username" style="stroke:#181818;stroke-width:0.9;"/><polygon fill="#181818" points="685.971,563.3773,689.6403,555.3084,686.0096,558.8775,682.4406,555.2467,685.971,563.3773" style="stroke:#181818;stroke-width:0.9;"/></g><!--link PostIt to PostItPosition--><g id="link_PostIt_PostItPosition"><path codeLine="70" d="M357.408,308.5063 C307.89,320.1073 211.572,346.8643 141.3,392.5213 C129.6,400.1263 118.395,410.0803 108.558,420.1063 " fill="none" id="PostIt-to-PostItPosition" style="stroke:#181818;stroke-width:0.9;"/><polygon fill="#181818" points="105.282,423.5083,113.4959,420.1764,108.4056,420.269,108.3131,415.1787,105.282,423.5083" style="stroke:#181818;stroke-width:0.9;"/></g><!--link PostIt to PostItType--><g id="link_PostIt_PostItType"><path codeLine="71" d="M357.732,323.7343 C333.108,341.3203 298.683,367.1053 270.9,392.5213 C255.951,406.1923 240.579,422.8243 228.555,436.5223 " fill="none" id="PostIt-to-PostItType" style="stroke:#181818;stroke-width:0.9;"/><polygon fill="#181818" points="225.567,439.9423,233.6092,436.2149,228.5294,436.5549,228.1893,431.4751,225.567,439.9423" style="stroke:#181818;stroke-width:0.9;"/></g><!--link PostIt to PostItTimeStamp--><g id="link_PostIt_PostItTimeStamp"><path codeLine="72" d="M380.106,339.9073 C372.717,369.3643 362.691,409.3693 356.085,435.7033 " fill="none" id="PostIt-to-PostItTimeStamp" style="stroke:#181818;stroke-width:0.9;"/><polygon fill="#181818" points="354.978,440.1313,360.4399,433.1501,356.0724,435.7664,353.4561,431.3989,354.978,440.1313" style="stroke:#181818;stroke-width:0.9;"/></g><!--link PostIt to PostItStatus--><g id="link_PostIt_PostItStatus"><path codeLine="73" d="M414.018,339.9073 C432.801,369.4903 458.343,409.7023 475.065,436.0273 " fill="none" id="PostIt-to-PostItStatus" style="stroke:#181818;stroke-width:0.9;"/><polygon fill="#181818" points="477.666,440.1313,476.3699,431.3626,475.2567,436.3306,470.2887,435.2174,477.666,440.1313" style="stroke:#181818;stroke-width:0.9;"/></g><!--link PostIt to PostIt--><g id="link_PostIt_PostIt"><path codeLine="74" d="M421.695,287.0413 C438.237,284.9443 453.15,289.4983 453.15,300.7213 C453.15,310.8913 440.901,315.5893 426.294,314.8153 " fill="none" id="PostIt-to-PostIt" style="stroke:#181818;stroke-width:0.9;"/><polygon fill="#181818" points="421.695,314.4013,429.4325,318.7258,426.1762,314.8122,430.0899,311.5559,421.695,314.4013" style="stroke:#181818;stroke-width:0.9;"/><polygon fill="#000000" points="457.0841,305.3165,460.7319,297.5732,455.4838,296.9079,457.0841,305.3165" style="stroke:#000000;stroke-width:0.9;"/><text fill="#000000" font-family="sans-serif" font-size="11.7" lengthAdjust="spacing" textLength="47.7" x="470.25" y="305.6968">precedes</text><text fill="#000000" font-family="sans-serif" font-size="11.7" lengthAdjust="spacing" textLength="6.3" x="428.9437" y="279.9792">1</text><text fill="#000000" font-family="sans-serif" font-size="11.7" lengthAdjust="spacing" textLength="6.3" x="428.9437" y="331.4379">1</text></g><!--link PostIt to SystemUser--><g id="link_PostIt_SystemUser"><path codeLine="75" d="M421.767,319.0633 C472.77,346.8103 572.877,401.2603 634.374,434.7133 " fill="none" id="PostIt-to-SystemUser" style="stroke:#181818;stroke-width:0.9;"/><polygon fill="#181818" points="638.37,436.8823,632.9653,429.8567,634.4141,434.7374,629.5334,436.1862,638.37,436.8823" style="stroke:#181818;stroke-width:0.9;"/><polygon fill="#000000" points="546.653,379.0525,540.7659,372.8391,538.238,377.4861,546.653,379.0525" style="stroke:#000000;stroke-width:0.9;"/><text fill="#000000" font-family="sans-serif" font-size="11.7" lengthAdjust="spacing" textLength="63.9" x="550.8" y="381.7468">managed by</text><text fill="#000000" font-family="sans-serif" font-size="11.7" lengthAdjust="spacing" textLength="18" x="428.8254" y="318.2363">0..*</text><text fill="#000000" font-family="sans-serif" font-size="11.7" lengthAdjust="spacing" textLength="18" x="613.3829" y="430.0028">1..*</text></g><!--link Board to BoardDimensions--><g id="link_Board_BoardDimensions"><path codeLine="77" d="M1117.422,154.5883 C1146.249,183.0553 1188.882,225.1573 1220.832,256.7023 " fill="none" id="Board-to-BoardDimensions" style="stroke:#181818;stroke-width:0.9;"/><polygon fill="#181818" points="1224.288,260.1133,1221.0559,251.8596,1221.0868,256.9507,1215.9957,256.9815,1224.288,260.1133" style="stroke:#181818;stroke-width:0.9;"/></g><!--link Board to BoardCreationDateTime--><g id="link_Board_BoardCreationDateTime"><path codeLine="78" d="M1085.4,169.8973 C1085.4,199.3993 1085.4,236.8753 1085.4,263.9923 " fill="none" id="Board-to-BoardCreationDateTime" style="stroke:#181818;stroke-width:0.9;"/><polygon fill="#181818" points="1085.4,268.5913,1089,260.4913,1085.4,264.0913,1081.8,260.4913,1085.4,268.5913" style="stroke:#181818;stroke-width:0.9;"/></g><!--link Board to BoardElementLine--><g id="link_Board_BoardElementLine"><path codeLine="79" d="M1117.584,130.7113 C1168.533,143.8963 1269.639,173.9653 1344.6,221.0713 C1367.091,235.2013 1388.7,256.0903 1404.198,272.8033 " fill="none" id="Board-to-BoardElementLine" style="stroke:#181818;stroke-width:0.9;"/><polygon fill="#181818" points="1407.609,276.5203,1404.7805,268.1197,1404.5648,273.2063,1399.4782,272.9905,1407.609,276.5203" style="stroke:#181818;stroke-width:0.9;"/><polygon fill="#000000" points="1339.6317,207.451,1333.5131,201.4654,1331.1634,206.205,1339.6317,207.451" style="stroke:#000000;stroke-width:0.9;"/><text fill="#000000" font-family="sans-serif" font-size="11.7" lengthAdjust="spacing" textLength="18.9" x="1343.7" y="210.2968">has</text><text fill="#000000" font-family="sans-serif" font-size="11.7" lengthAdjust="spacing" textLength="6.3" x="1124.5404" y="128.2765">1</text><text fill="#000000" font-family="sans-serif" font-size="11.7" lengthAdjust="spacing" textLength="18" x="1382.9511" y="266.554">1..*</text></g><!--link Board to BoardElementColumn--><g id="link_Board_BoardElementColumn"><path codeLine="80" d="M1117.539,125.1493 C1190.898,131.2153 1374.759,152.6173 1510.2,221.0713 C1536.03,234.1213 1560.654,255.9463 1577.88,273.3163 " fill="none" id="Board-to-BoardElementColumn" style="stroke:#181818;stroke-width:0.9;"/><polygon fill="#181818" points="1581.228,276.7183,1578.1297,268.4134,1578.0783,273.5043,1572.9874,273.4529,1581.228,276.7183" style="stroke:#181818;stroke-width:0.9;"/><polygon fill="#000000" points="1497.3836,206.831,1490.4449,201.819,1488.8241,206.8547,1497.3836,206.831" style="stroke:#000000;stroke-width:0.9;"/><text fill="#000000" font-family="sans-serif" font-size="11.7" lengthAdjust="spacing" textLength="18.9" x="1501.2" y="210.2968">has</text><text fill="#000000" font-family="sans-serif" font-size="11.7" lengthAdjust="spacing" textLength="6.3" x="1124.4865" y="139.9317">1</text><text fill="#000000" font-family="sans-serif" font-size="11.7" lengthAdjust="spacing" textLength="18" x="1556.3432" y="266.7978">1..*</text></g><!--link Board to BoardMembers--><g id="link_Board_BoardMembers"><path codeLine="81" d="M1053.396,149.0623 C1018.053,177.8893 960.66,224.6803 919.188,258.4933 " fill="none" id="Board-to-BoardMembers" style="stroke:#181818;stroke-width:0.9;"/><polygon fill="#181818" points="915.48,261.5173,924.0325,259.1881,918.9674,258.6733,919.4821,253.6082,915.48,261.5173" style="stroke:#181818;stroke-width:0.9;"/><polygon fill="#000000" points="990.1124,208.296,998.093,205.2016,994.75,201.1017,990.1124,208.296" style="stroke:#000000;stroke-width:0.9;"/><text fill="#000000" font-family="sans-serif" font-size="11.7" lengthAdjust="spacing" textLength="18.9" x="1001.7" y="210.2968">has</text><text fill="#000000" font-family="sans-serif" font-size="11.7" lengthAdjust="spacing" textLength="6.3" x="1039.8455" y="168.8794">1</text><text fill="#000000" font-family="sans-serif" font-size="11.7" lengthAdjust="spacing" textLength="18" x="903.5331" y="251.3845">1..*</text></g><!--link Board to PostIt--><g id="link_Board_PostIt"><path codeLine="82" d="M1053.198,125.5273 C978.102,132.0613 786.033,152.1133 631.8,196.7713 C555.984,218.7223 472.221,257.9893 425.781,281.1913 " fill="none" id="Board-to-PostIt" style="stroke:#181818;stroke-width:0.9;"/><polygon fill="#181818" points="421.677,283.2523,430.5313,282.8385,425.6993,281.2347,427.3031,276.4027,421.677,283.2523" style="stroke:#181818;stroke-width:0.9;"/><polygon fill="#000000" points="631.9324,206.5359,640.4704,207.1428,639.1965,202.0084,631.9324,206.5359" style="stroke:#000000;stroke-width:0.9;"/><text fill="#000000" font-family="sans-serif" font-size="11.7" lengthAdjust="spacing" textLength="18.9" x="644.4" y="210.2968">has</text><text fill="#000000" font-family="sans-serif" font-size="11.7" lengthAdjust="spacing" textLength="6.3" x="1039.9381" y="122.0719">1</text><text fill="#000000" font-family="sans-serif" font-size="11.7" lengthAdjust="spacing" textLength="18" x="428.976" y="294.1389">0..*</text></g><!--link Board to SystemUser--><g id="link_Board_SystemUser"><path codeLine="83" d="M1053.27,127.0483 C972.558,137.9653 764.577,170.5093 720,221.0713 C669.069,278.8423 673.623,376.4023 680.58,428.2873 " fill="none" id="Board-to-SystemUser" style="stroke:#181818;stroke-width:0.9;"/><polygon fill="#181818" points="681.219,432.8593,683.6718,424.3414,680.6006,428.402,676.5401,425.3308,681.219,432.8593" style="stroke:#181818;stroke-width:0.9;"/><polygon fill="#000000" points="721.0003,303.681,728.994,300.6208,725.6686,296.5066,721.0003,303.681" style="stroke:#000000;stroke-width:0.9;"/><text fill="#000000" font-family="sans-serif" font-size="11.7" lengthAdjust="spacing" textLength="54.9" x="732.6" y="305.6968">created by</text><text fill="#000000" font-family="sans-serif" font-size="11.7" lengthAdjust="spacing" textLength="18" x="1028.2008" y="141.8832">0..*</text><text fill="#000000" font-family="sans-serif" font-size="11.7" lengthAdjust="spacing" textLength="6.3" x="673.2737" y="422.8409">1</text></g><!--link BoardElementLine to BoardElement--><g id="link_BoardElementLine_BoardElement"><path codeLine="85" d="M1439.91,324.7693 C1452.699,348.4303 1472.931,385.8703 1489.131,415.8493 " fill="none" id="BoardElementLine-to-BoardElement" style="stroke:#181818;stroke-width:0.9;"/><polygon fill="none" points="1494.864,413.2033,1497.879,432.0403,1483.776,419.1973,1494.864,413.2033" style="stroke:#181818;stroke-width:0.9;"/></g><!--link BoardElementColumn to BoardElement--><g id="link_BoardElementColumn_BoardElement"><path codeLine="86" d="M1589.49,324.7693 C1576.701,348.4303 1556.469,385.8703 1540.269,415.8493 " fill="none" id="BoardElementColumn-to-BoardElement" style="stroke:#181818;stroke-width:0.9;"/><polygon fill="none" points="1545.624,419.1973,1531.521,432.0403,1534.536,413.2033,1545.624,419.1973" style="stroke:#181818;stroke-width:0.9;"/></g><!--link BoardMembers to AccessPermission--><g id="link_BoardMembers_AccessPermission"><path codeLine="88" d="M868.5,339.9073 C868.5,369.2473 868.5,409.0363 868.5,435.3793 " fill="none" id="BoardMembers-to-AccessPermission" style="stroke:#181818;stroke-width:0.9;"/><polygon fill="#181818" points="868.5,440.1313,872.1,432.0313,868.5,435.6313,864.9,432.0313,868.5,440.1313" style="stroke:#181818;stroke-width:0.9;"/></g><!--link BoardMembers to SystemUser--><g id="link_BoardMembers_SystemUser"><path codeLine="89" d="M825.417,339.9073 C794.646,367.2493 753.642,403.6813 724.212,429.8353 " fill="none" id="BoardMembers-to-SystemUser" style="stroke:#181818;stroke-width:0.9;"/><polygon fill="#181818" points="720.684,432.9763,729.124,430.2676,724.0409,429.9795,724.3291,424.8965,720.684,432.9763" style="stroke:#181818;stroke-width:0.9;"/><polygon fill="#000000" points="789.5361,379.8913,797.3783,376.4613,793.8645,372.5068,789.5361,379.8913" style="stroke:#000000;stroke-width:0.9;"/><text fill="#000000" font-family="sans-serif" font-size="11.7" lengthAdjust="spacing" textLength="18.9" x="801" y="381.7468">has</text><text fill="#000000" font-family="sans-serif" font-size="11.7" lengthAdjust="spacing" textLength="18" x="799.4418" y="359.7133">0..*</text><text fill="#000000" font-family="sans-serif" font-size="11.7" lengthAdjust="spacing" textLength="18" x="707.4466" y="422.9802">1..*</text></g><!--SRC=[bLJDRjim3BxhAOZii7QOYmpReGWC0sso0WKse43MtcMBIDHQac4f6RAkZxIds8kDbdzgEtQTvU3OuaVo8pzIpcJW3CJ6EQD0o1mJ9urcp4cN8goCubB3CkNMeeMprV8S0hXVm-Vv_9AnhHG82jtM2CliazGPpxc2f81VEPVBUEVmDZ5wBNyXp1bxlpvOX-hUOiuodZpn3S8i3Fbca-E6EumYU4NCu9a1_L0JcKFB065OdX4y37DZ7BqyltYmpmq5IdE5P3vx-0ZlRcukhx_Cps7Fqns2YH-fp2XYByJepbXtwyRObDOUa_9mc8N7UI96ExBxxpQrqfcUicZqsmGxuTATqirdAZLMeOzY_pXaKuKVkKY5QyTLzfz-vEDszWGdRHnMKzRKi99yG-F2WOO8hUF2sCOcfCsC_ljdZocLhi0q5cr8rbb6wGFf0ki9p2frXC_ZPRqsF1TZgdfZJrH_Dg6fNuhcY-V9LkvH7ElWOorpv8N4AyfPzFTagKNbC19tHIPjAR0zEQBUgQMV7zi- -aOpPDj9ogPzJL7LWyjZwtAUE6XRA6rzFjATAbwxivLlaRFLv35OoRODR3JzZYh6tBufROKPKhWoJGZzQ8YdA9Gx5k4gIT3QEyoLj7PoXGlYhPih2ABcScAikaW2ONxg8EfT3SFMOhb7BFKE3vlBLQrjiqyppwNuhuuMaD7jZuBk-QY1pIykFjH8_zggPG6AQv90G7mW5rPkK9srDwj3rlw6L9XNRZxZqVWiOCiBZfFeQegcyVLGZ23B9ZHjwc3Q3Ufr9odAwtQdNKRPYjzHXp8Ru3yCP1tcTL_xmzb5JSXP5lOF]--></g></svg>