<?xml version="1.0" encoding="us-ascii" standalone="no"?><svg xmlns="http://www.w3.org/2000/svg" xmlns:xlink="http://www.w3.org/1999/xlink" contentStyleType="text/css" height="1085px" preserveAspectRatio="none" style="width:1666px;height:1085px;background:#FFFFFF;" version="1.1" viewBox="0 0 1666 1085" width="1666px" zoomAndPan="magnify"><defs/><g><text fill="#000000" font-family="sans-serif" font-size="14" font-weight="bold" lengthAdjust="spacing" textLength="233" x="718" y="30.1074">Sequence Diagram (SD) - US 3008</text><rect fill="#FFFFFF" height="830.5664" style="stroke:#181818;stroke-width:1.0;" width="10" x="31.5" y="137.8633"/><rect fill="#FFFFFF" height="807.2754" style="stroke:#181818;stroke-width:1.0;" width="10" x="486.5" y="161.1543"/><rect fill="#FFFFFF" height="31.291" style="stroke:#181818;stroke-width:1.0;" width="10" x="827.5" y="223.7363"/><rect fill="#FFFFFF" height="31.291" style="stroke:#181818;stroke-width:1.0;" width="10" x="827.5" y="441.7734"/><rect fill="#FFFFFF" height="31.291" style="stroke:#181818;stroke-width:1.0;" width="10" x="827.5" y="642.5195"/><rect fill="#FFFFFF" height="125.1641" style="stroke:#181818;stroke-width:1.0;" width="10" x="827.5" y="811.9746"/><rect fill="#FFFFFF" height="31.291" style="stroke:#181818;stroke-width:1.0;" width="10" x="1072.5" y="255.0273"/><rect fill="#FFFFFF" height="31.291" style="stroke:#181818;stroke-width:1.0;" width="10" x="1072.5" y="473.0645"/><rect fill="#FFFFFF" height="31.291" style="stroke:#181818;stroke-width:1.0;" width="10" x="1072.5" y="874.5566"/><line style="stroke:#181818;stroke-width:0.5;stroke-dasharray:5.0,5.0;" x1="36" x2="36" y1="127.8633" y2="986.4297"/><line style="stroke:#181818;stroke-width:0.5;stroke-dasharray:5.0,5.0;" x1="491" x2="491" y1="127.8633" y2="986.4297"/><line style="stroke:#181818;stroke-width:0.5;stroke-dasharray:5.0,5.0;" x1="832" x2="832" y1="127.8633" y2="986.4297"/><line style="stroke:#181818;stroke-width:0.5;stroke-dasharray:5.0,5.0;" x1="1077" x2="1077" y1="127.8633" y2="986.4297"/><line style="stroke:#181818;stroke-width:0.5;stroke-dasharray:5.0,5.0;" x1="1246" x2="1246" y1="127.8633" y2="986.4297"/><line style="stroke:#181818;stroke-width:0.5;stroke-dasharray:5.0,5.0;" x1="1367" x2="1367" y1="127.8633" y2="986.4297"/><line style="stroke:#181818;stroke-width:0.5;stroke-dasharray:5.0,5.0;" x1="1490" x2="1490" y1="127.8633" y2="986.4297"/><line style="stroke:#181818;stroke-width:0.5;stroke-dasharray:5.0,5.0;" x1="1610" x2="1610" y1="127.8633" y2="986.4297"/><text fill="#000000" font-family="sans-serif" font-size="14" lengthAdjust="spacing" textLength="57" x="5" y="124.3496">Utilizador</text><ellipse cx="36.5" cy="57.7422" fill="#E3E3E3" rx="8" ry="8" style="stroke:#181818;stroke-width:0.5;"/><path d="M36.5,65.7422 L36.5,92.7422 M23.5,73.7422 L49.5,73.7422 M36.5,92.7422 L23.5,107.7422 M36.5,92.7422 L49.5,107.7422 " fill="none" style="stroke:#181818;stroke-width:0.5;"/><text fill="#000000" font-family="sans-serif" font-size="14" lengthAdjust="spacing" textLength="57" x="5" y="1000.5371">Utilizador</text><ellipse cx="36.5" cy="1012.5508" fill="#E3E3E3" rx="8" ry="8" style="stroke:#181818;stroke-width:0.5;"/><path d="M36.5,1020.5508 L36.5,1047.5508 M23.5,1028.5508 L49.5,1028.5508 M36.5,1047.5508 L23.5,1062.5508 M36.5,1047.5508 L49.5,1062.5508 " fill="none" style="stroke:#181818;stroke-width:0.5;"/><rect fill="#E3E3E3" height="51.2422" rx="2.5" ry="2.5" style="stroke:#181818;stroke-width:0.5;" width="171" x="406" y="75.6211"/><text fill="#000000" font-family="sans-serif" font-size="14" font-style="italic" lengthAdjust="spacing" textLength="95" x="444" y="97.7285">&#171;presentation&#187;</text><text fill="#000000" font-family="sans-serif" font-size="14" lengthAdjust="spacing" textLength="157" x="413" y="116.3496">UndoLastChangePostItUI</text><rect fill="#E3E3E3" height="51.2422" rx="2.5" ry="2.5" style="stroke:#181818;stroke-width:0.5;" width="171" x="406" y="985.4297"/><text fill="#000000" font-family="sans-serif" font-size="14" font-style="italic" lengthAdjust="spacing" textLength="95" x="444" y="1007.5371">&#171;presentation&#187;</text><text fill="#000000" font-family="sans-serif" font-size="14" lengthAdjust="spacing" textLength="157" x="413" y="1026.1582">UndoLastChangePostItUI</text><text fill="#000000" font-family="sans-serif" font-size="14" font-style="italic" lengthAdjust="spacing" textLength="84" x="787.5" y="105.7285">&#171;application&#187;</text><text fill="#000000" font-family="sans-serif" font-size="14" lengthAdjust="spacing" textLength="207" x="726" y="124.3496">UndoLastChangePostItController</text><ellipse cx="832.5" cy="74.6211" fill="#E3E3E3" rx="12" ry="12" style="stroke:#181818;stroke-width:0.5;"/><polygon fill="#181818" points="828.5,62.6211,834.5,57.6211,832.5,62.6211,834.5,67.6211,828.5,62.6211" style="stroke:#181818;stroke-width:1.0;"/><text fill="#000000" font-family="sans-serif" font-size="14" font-style="italic" lengthAdjust="spacing" textLength="84" x="787.5" y="1000.5371">&#171;application&#187;</text><text fill="#000000" font-family="sans-serif" font-size="14" lengthAdjust="spacing" textLength="207" x="726" y="1019.1582">UndoLastChangePostItController</text><ellipse cx="832.5" cy="1038.6719" fill="#E3E3E3" rx="12" ry="12" style="stroke:#181818;stroke-width:0.5;"/><polygon fill="#181818" points="828.5,1026.6719,834.5,1021.6719,832.5,1026.6719,834.5,1031.6719,828.5,1026.6719" style="stroke:#181818;stroke-width:1.0;"/><rect fill="#E3E3E3" height="51.2422" rx="2.5" ry="2.5" style="stroke:#181818;stroke-width:0.5;" width="209" x="973" y="75.6211"/><text fill="#000000" font-family="sans-serif" font-size="14" font-style="italic" lengthAdjust="spacing" textLength="87" x="1034" y="97.7285">&#171;csvprotocol&#187;</text><text fill="#000000" font-family="sans-serif" font-size="14" lengthAdjust="spacing" textLength="195" x="980" y="116.3496">CsvSharedBoardProtocolProxy</text><rect fill="#E3E3E3" height="51.2422" rx="2.5" ry="2.5" style="stroke:#181818;stroke-width:0.5;" width="209" x="973" y="985.4297"/><text fill="#000000" font-family="sans-serif" font-size="14" font-style="italic" lengthAdjust="spacing" textLength="87" x="1034" y="1007.5371">&#171;csvprotocol&#187;</text><text fill="#000000" font-family="sans-serif" font-size="14" lengthAdjust="spacing" textLength="195" x="980" y="1026.1582">CsvSharedBoardProtocolProxy</text><rect fill="#E3E3E3" height="51.2422" rx="2.5" ry="2.5" style="stroke:#181818;stroke-width:0.5;" width="108" x="1192" y="75.6211"/><text fill="#000000" font-family="sans-serif" font-size="14" font-style="italic" lengthAdjust="spacing" textLength="62" x="1215" y="97.7285">&#171;domain&#187;</text><text fill="#000000" font-family="sans-serif" font-size="14" lengthAdjust="spacing" textLength="94" x="1199" y="116.3496">thePostIt:PostIt</text><rect fill="#E3E3E3" height="51.2422" rx="2.5" ry="2.5" style="stroke:#181818;stroke-width:0.5;" width="108" x="1192" y="985.4297"/><text fill="#000000" font-family="sans-serif" font-size="14" font-style="italic" lengthAdjust="spacing" textLength="62" x="1215" y="1007.5371">&#171;domain&#187;</text><text fill="#000000" font-family="sans-serif" font-size="14" lengthAdjust="spacing" textLength="94" x="1199" y="1026.1582">thePostIt:PostIt</text><rect fill="#E3E3E3" height="51.2422" rx="2.5" ry="2.5" style="stroke:#181818;stroke-width:0.5;" width="114" x="1310" y="75.6211"/><text fill="#000000" font-family="sans-serif" font-size="14" font-style="italic" lengthAdjust="spacing" textLength="62" x="1336" y="97.7285">&#171;domain&#187;</text><text fill="#000000" font-family="sans-serif" font-size="14" lengthAdjust="spacing" textLength="100" x="1317" y="116.3496">theBoard:Board</text><rect fill="#E3E3E3" height="51.2422" rx="2.5" ry="2.5" style="stroke:#181818;stroke-width:0.5;" width="114" x="1310" y="985.4297"/><text fill="#000000" font-family="sans-serif" font-size="14" font-style="italic" lengthAdjust="spacing" textLength="62" x="1336" y="1007.5371">&#171;domain&#187;</text><text fill="#000000" font-family="sans-serif" font-size="14" lengthAdjust="spacing" textLength="100" x="1317" y="1026.1582">theBoard:Board</text><text fill="#000000" font-family="sans-serif" font-size="14" font-style="italic" lengthAdjust="spacing" textLength="79" x="1447.5" y="105.7285">&#171;repository&#187;</text><text fill="#000000" font-family="sans-serif" font-size="14" lengthAdjust="spacing" textLength="106" x="1434" y="124.3496">BoardRepository</text><path d="M1472,54.6211 C1472,44.6211 1490,44.6211 1490,44.6211 C1490,44.6211 1508,44.6211 1508,54.6211 L1508,80.6211 C1508,90.6211 1490,90.6211 1490,90.6211 C1490,90.6211 1472,90.6211 1472,80.6211 L1472,54.6211 " fill="#E3E3E3" style="stroke:#181818;stroke-width:1.5;"/><path d="M1472,54.6211 C1472,64.6211 1490,64.6211 1490,64.6211 C1490,64.6211 1508,64.6211 1508,54.6211 " fill="none" style="stroke:#181818;stroke-width:1.5;"/><text fill="#000000" font-family="sans-serif" font-size="14" font-style="italic" lengthAdjust="spacing" textLength="79" x="1447.5" y="1000.5371">&#171;repository&#187;</text><text fill="#000000" font-family="sans-serif" font-size="14" lengthAdjust="spacing" textLength="106" x="1434" y="1019.1582">BoardRepository</text><path d="M1472,1032.6719 C1472,1022.6719 1490,1022.6719 1490,1022.6719 C1490,1022.6719 1508,1022.6719 1508,1032.6719 L1508,1058.6719 C1508,1068.6719 1490,1068.6719 1490,1068.6719 C1490,1068.6719 1472,1068.6719 1472,1058.6719 L1472,1032.6719 " fill="#E3E3E3" style="stroke:#181818;stroke-width:1.5;"/><path d="M1472,1032.6719 C1472,1042.6719 1490,1042.6719 1490,1042.6719 C1490,1042.6719 1508,1042.6719 1508,1032.6719 " fill="none" style="stroke:#181818;stroke-width:1.5;"/><text fill="#000000" font-family="sans-serif" font-size="14" font-style="italic" lengthAdjust="spacing" textLength="79" x="1568" y="105.7285">&#171;repository&#187;</text><text fill="#000000" font-family="sans-serif" font-size="14" lengthAdjust="spacing" textLength="103" x="1556" y="124.3496">PostItRepository</text><path d="M1592.5,54.6211 C1592.5,44.6211 1610.5,44.6211 1610.5,44.6211 C1610.5,44.6211 1628.5,44.6211 1628.5,54.6211 L1628.5,80.6211 C1628.5,90.6211 1610.5,90.6211 1610.5,90.6211 C1610.5,90.6211 1592.5,90.6211 1592.5,80.6211 L1592.5,54.6211 " fill="#E3E3E3" style="stroke:#181818;stroke-width:1.5;"/><path d="M1592.5,54.6211 C1592.5,64.6211 1610.5,64.6211 1610.5,64.6211 C1610.5,64.6211 1628.5,64.6211 1628.5,54.6211 " fill="none" style="stroke:#181818;stroke-width:1.5;"/><text fill="#000000" font-family="sans-serif" font-size="14" font-style="italic" lengthAdjust="spacing" textLength="79" x="1568" y="1000.5371">&#171;repository&#187;</text><text fill="#000000" font-family="sans-serif" font-size="14" lengthAdjust="spacing" textLength="103" x="1556" y="1019.1582">PostItRepository</text><path d="M1592.5,1032.6719 C1592.5,1022.6719 1610.5,1022.6719 1610.5,1022.6719 C1610.5,1022.6719 1628.5,1022.6719 1628.5,1032.6719 L1628.5,1058.6719 C1628.5,1068.6719 1610.5,1068.6719 1610.5,1068.6719 C1610.5,1068.6719 1592.5,1068.6719 1592.5,1058.6719 L1592.5,1032.6719 " fill="#E3E3E3" style="stroke:#181818;stroke-width:1.5;"/><path d="M1592.5,1032.6719 C1592.5,1042.6719 1610.5,1042.6719 1610.5,1042.6719 C1610.5,1042.6719 1628.5,1042.6719 1628.5,1032.6719 " fill="none" style="stroke:#181818;stroke-width:1.5;"/><rect fill="#FFFFFF" height="830.5664" style="stroke:#181818;stroke-width:1.0;" width="10" x="31.5" y="137.8633"/><rect fill="#FFFFFF" height="807.2754" style="stroke:#181818;stroke-width:1.0;" width="10" x="486.5" y="161.1543"/><rect fill="#FFFFFF" height="31.291" style="stroke:#181818;stroke-width:1.0;" width="10" x="827.5" y="223.7363"/><rect fill="#FFFFFF" height="31.291" style="stroke:#181818;stroke-width:1.0;" width="10" x="827.5" y="441.7734"/><rect fill="#FFFFFF" height="31.291" style="stroke:#181818;stroke-width:1.0;" width="10" x="827.5" y="642.5195"/><rect fill="#FFFFFF" height="125.1641" style="stroke:#181818;stroke-width:1.0;" width="10" x="827.5" y="811.9746"/><rect fill="#FFFFFF" height="31.291" style="stroke:#181818;stroke-width:1.0;" width="10" x="1072.5" y="255.0273"/><rect fill="#FFFFFF" height="31.291" style="stroke:#181818;stroke-width:1.0;" width="10" x="1072.5" y="473.0645"/><rect fill="#FFFFFF" height="31.291" style="stroke:#181818;stroke-width:1.0;" width="10" x="1072.5" y="874.5566"/><polygon fill="#181818" points="474.5,157.1543,484.5,161.1543,474.5,165.1543,478.5,161.1543" style="stroke:#181818;stroke-width:1.0;"/><line style="stroke:#181818;stroke-width:1.0;" x1="41.5" x2="480.5" y1="161.1543" y2="161.1543"/><text fill="#000000" font-family="sans-serif" font-size="13" font-weight="bold" lengthAdjust="spacing" textLength="7" x="48.5" y="155.8916">1</text><text fill="#000000" font-family="sans-serif" font-size="13" lengthAdjust="spacing" textLength="415" x="59.5" y="155.8916">Pede para desfazer a &#250;ltima altera&#231;&#227;o de um post-it num quadro (board)</text><polygon fill="#181818" points="820.5,188.4453,830.5,192.4453,820.5,196.4453,824.5,192.4453" style="stroke:#181818;stroke-width:1.0;"/><line style="stroke:#181818;stroke-width:1.0;" x1="496.5" x2="826.5" y1="192.4453" y2="192.4453"/><text fill="#000000" font-family="sans-serif" font-size="13" font-weight="bold" lengthAdjust="spacing" textLength="7" x="503.5" y="187.1826">2</text><text fill="#000000" font-family="sans-serif" font-size="13" lengthAdjust="spacing" textLength="36" x="514.5" y="187.1826">create</text><polygon fill="#181818" points="815.5,219.7363,825.5,223.7363,815.5,227.7363,819.5,223.7363" style="stroke:#181818;stroke-width:1.0;"/><line style="stroke:#181818;stroke-width:1.0;" x1="496.5" x2="821.5" y1="223.7363" y2="223.7363"/><text fill="#000000" font-family="sans-serif" font-size="13" font-weight="bold" lengthAdjust="spacing" textLength="7" x="503.5" y="218.4736">3</text><text fill="#000000" font-family="sans-serif" font-size="13" lengthAdjust="spacing" textLength="204" x="514.5" y="218.4736">listAllBoardsWithPermissionWrite()</text><polygon fill="#181818" points="1060.5,251.0273,1070.5,255.0273,1060.5,259.0273,1064.5,255.0273" style="stroke:#181818;stroke-width:1.0;"/><line style="stroke:#181818;stroke-width:1.0;" x1="832.5" x2="1066.5" y1="255.0273" y2="255.0273"/><text fill="#000000" font-family="sans-serif" font-size="13" font-weight="bold" lengthAdjust="spacing" textLength="7" x="839.5" y="249.7646">4</text><text fill="#000000" font-family="sans-serif" font-size="13" lengthAdjust="spacing" textLength="205" x="850.5" y="249.7646">getAllBoardsWithPermissionWrite()</text><polygon fill="#181818" points="1478,282.3184,1488,286.3184,1478,290.3184,1482,286.3184" style="stroke:#181818;stroke-width:1.0;"/><line style="stroke:#181818;stroke-width:1.0;" x1="1077.5" x2="1484" y1="286.3184" y2="286.3184"/><text fill="#000000" font-family="sans-serif" font-size="13" font-weight="bold" lengthAdjust="spacing" textLength="7" x="1084.5" y="281.0557">5</text><text fill="#000000" font-family="sans-serif" font-size="13" lengthAdjust="spacing" textLength="232" x="1095.5" y="281.0557">findAllBoardsWithPermissionWrite(user)</text><line style="stroke:#181818;stroke-width:1.0;stroke-dasharray:2.0,2.0;" x1="496.5" x2="538.5" y1="334.9004" y2="334.9004"/><line style="stroke:#181818;stroke-width:1.0;stroke-dasharray:2.0,2.0;" x1="538.5" x2="538.5" y1="334.9004" y2="347.9004"/><line style="stroke:#181818;stroke-width:1.0;stroke-dasharray:2.0,2.0;" x1="497.5" x2="538.5" y1="347.9004" y2="347.9004"/><polygon fill="#181818" points="507.5,343.9004,497.5,347.9004,507.5,351.9004,503.5,347.9004" style="stroke:#181818;stroke-width:1.0;"/><text fill="#000000" font-family="sans-serif" font-size="13" font-weight="bold" lengthAdjust="spacing" textLength="7" x="503.5" y="320.9922">6</text><text fill="#000000" font-family="sans-serif" font-size="13" lengthAdjust="spacing" textLength="302" x="514.5" y="312.3467">Mostra a lista de quadros ativos em que o  utilizador</text><text fill="#000000" font-family="sans-serif" font-size="13" lengthAdjust="spacing" textLength="215" x="518.5" y="329.6377">&#233; dono ou tem permiss&#245;es de escrita</text><polygon fill="#181818" points="52.5,375.1914,42.5,379.1914,52.5,383.1914,48.5,379.1914" style="stroke:#181818;stroke-width:1.0;"/><line style="stroke:#181818;stroke-width:1.0;stroke-dasharray:2.0,2.0;" x1="46.5" x2="485.5" y1="379.1914" y2="379.1914"/><text fill="#000000" font-family="sans-serif" font-size="13" font-weight="bold" lengthAdjust="spacing" textLength="7" x="58.5" y="373.9287">7</text><text fill="#000000" font-family="sans-serif" font-size="13" lengthAdjust="spacing" textLength="166" x="69.5" y="373.9287">Pede para escolher o quadro</text><polygon fill="#181818" points="474.5,406.4824,484.5,410.4824,474.5,414.4824,478.5,410.4824" style="stroke:#181818;stroke-width:1.0;"/><line style="stroke:#181818;stroke-width:1.0;" x1="41.5" x2="480.5" y1="410.4824" y2="410.4824"/><text fill="#000000" font-family="sans-serif" font-size="13" font-weight="bold" lengthAdjust="spacing" textLength="7" x="48.5" y="405.2197">8</text><text fill="#000000" font-family="sans-serif" font-size="13" lengthAdjust="spacing" textLength="101" x="59.5" y="405.2197">Escolhe o quadro</text><polygon fill="#181818" points="815.5,437.7734,825.5,441.7734,815.5,445.7734,819.5,441.7734" style="stroke:#181818;stroke-width:1.0;"/><line style="stroke:#181818;stroke-width:1.0;" x1="496.5" x2="821.5" y1="441.7734" y2="441.7734"/><text fill="#000000" font-family="sans-serif" font-size="13" font-weight="bold" lengthAdjust="spacing" textLength="7" x="503.5" y="436.5107">9</text><text fill="#000000" font-family="sans-serif" font-size="13" lengthAdjust="spacing" textLength="180" x="514.5" y="436.5107">listAllExistingPostIts(theBoard)</text><polygon fill="#181818" points="1060.5,469.0645,1070.5,473.0645,1060.5,477.0645,1064.5,473.0645" style="stroke:#181818;stroke-width:1.0;"/><line style="stroke:#181818;stroke-width:1.0;" x1="832.5" x2="1066.5" y1="473.0645" y2="473.0645"/><text fill="#000000" font-family="sans-serif" font-size="13" font-weight="bold" lengthAdjust="spacing" textLength="14" x="839.5" y="467.8018">10</text><text fill="#000000" font-family="sans-serif" font-size="13" lengthAdjust="spacing" textLength="150" x="857.5" y="467.8018">getAllExistingPostIts(title)</text><polygon fill="#181818" points="1598.5,500.3555,1608.5,504.3555,1598.5,508.3555,1602.5,504.3555" style="stroke:#181818;stroke-width:1.0;"/><line style="stroke:#181818;stroke-width:1.0;" x1="1077.5" x2="1604.5" y1="504.3555" y2="504.3555"/><text fill="#000000" font-family="sans-serif" font-size="13" font-weight="bold" lengthAdjust="spacing" textLength="14" x="1084.5" y="499.0928">11</text><text fill="#000000" font-family="sans-serif" font-size="13" lengthAdjust="spacing" textLength="152" x="1102.5" y="499.0928">findAllExistingPostIts(title)</text><line style="stroke:#181818;stroke-width:1.0;stroke-dasharray:2.0,2.0;" x1="496.5" x2="538.5" y1="535.6465" y2="535.6465"/><line style="stroke:#181818;stroke-width:1.0;stroke-dasharray:2.0,2.0;" x1="538.5" x2="538.5" y1="535.6465" y2="548.6465"/><line style="stroke:#181818;stroke-width:1.0;stroke-dasharray:2.0,2.0;" x1="497.5" x2="538.5" y1="548.6465" y2="548.6465"/><polygon fill="#181818" points="507.5,544.6465,497.5,548.6465,507.5,552.6465,503.5,548.6465" style="stroke:#181818;stroke-width:1.0;"/><text fill="#000000" font-family="sans-serif" font-size="13" font-weight="bold" lengthAdjust="spacing" textLength="14" x="503.5" y="530.3838">12</text><text fill="#000000" font-family="sans-serif" font-size="13" lengthAdjust="spacing" textLength="137" x="521.5" y="530.3838">Mostra a lista de post-it</text><polygon fill="#181818" points="52.5,575.9375,42.5,579.9375,52.5,583.9375,48.5,579.9375" style="stroke:#181818;stroke-width:1.0;"/><line style="stroke:#181818;stroke-width:1.0;stroke-dasharray:2.0,2.0;" x1="46.5" x2="485.5" y1="579.9375" y2="579.9375"/><text fill="#000000" font-family="sans-serif" font-size="13" font-weight="bold" lengthAdjust="spacing" textLength="14" x="58.5" y="574.6748">13</text><text fill="#000000" font-family="sans-serif" font-size="13" lengthAdjust="spacing" textLength="320" x="76.5" y="574.6748">Pede para inserir o post-it a desfazer a ultima altera&#231;&#227;o</text><polygon fill="#181818" points="474.5,607.2285,484.5,611.2285,474.5,615.2285,478.5,611.2285" style="stroke:#181818;stroke-width:1.0;"/><line style="stroke:#181818;stroke-width:1.0;" x1="41.5" x2="480.5" y1="611.2285" y2="611.2285"/><text fill="#000000" font-family="sans-serif" font-size="13" font-weight="bold" lengthAdjust="spacing" textLength="14" x="48.5" y="605.9658">14</text><text fill="#000000" font-family="sans-serif" font-size="13" lengthAdjust="spacing" textLength="86" x="66.5" y="605.9658">Insere o post-it</text><polygon fill="#181818" points="815.5,638.5195,825.5,642.5195,815.5,646.5195,819.5,642.5195" style="stroke:#181818;stroke-width:1.0;"/><line style="stroke:#181818;stroke-width:1.0;" x1="496.5" x2="821.5" y1="642.5195" y2="642.5195"/><text fill="#000000" font-family="sans-serif" font-size="13" font-weight="bold" lengthAdjust="spacing" textLength="14" x="503.5" y="637.2568">15</text><text fill="#000000" font-family="sans-serif" font-size="13" lengthAdjust="spacing" textLength="114" x="521.5" y="637.2568">findOldPostIt(postIt)</text><polygon fill="#181818" points="1234,669.8105,1244,673.8105,1234,677.8105,1238,673.8105" style="stroke:#181818;stroke-width:1.0;"/><line style="stroke:#181818;stroke-width:1.0;" x1="832.5" x2="1240" y1="673.8105" y2="673.8105"/><text fill="#000000" font-family="sans-serif" font-size="13" font-weight="bold" lengthAdjust="spacing" textLength="14" x="839.5" y="668.5479">16</text><text fill="#000000" font-family="sans-serif" font-size="13" lengthAdjust="spacing" textLength="59" x="857.5" y="668.5479">oldPostIt()</text><line style="stroke:#181818;stroke-width:1.0;stroke-dasharray:2.0,2.0;" x1="496.5" x2="538.5" y1="705.1016" y2="705.1016"/><line style="stroke:#181818;stroke-width:1.0;stroke-dasharray:2.0,2.0;" x1="538.5" x2="538.5" y1="705.1016" y2="718.1016"/><line style="stroke:#181818;stroke-width:1.0;stroke-dasharray:2.0,2.0;" x1="497.5" x2="538.5" y1="718.1016" y2="718.1016"/><polygon fill="#181818" points="507.5,714.1016,497.5,718.1016,507.5,722.1016,503.5,718.1016" style="stroke:#181818;stroke-width:1.0;"/><text fill="#000000" font-family="sans-serif" font-size="13" font-weight="bold" lengthAdjust="spacing" textLength="14" x="503.5" y="699.8389">17</text><text fill="#000000" font-family="sans-serif" font-size="13" lengthAdjust="spacing" textLength="223" x="521.5" y="699.8389">Mostra a informa&#231;&#227;o do post-it anterior</text><polygon fill="#181818" points="52.5,745.3926,42.5,749.3926,52.5,753.3926,48.5,749.3926" style="stroke:#181818;stroke-width:1.0;"/><line style="stroke:#181818;stroke-width:1.0;stroke-dasharray:2.0,2.0;" x1="46.5" x2="485.5" y1="749.3926" y2="749.3926"/><text fill="#000000" font-family="sans-serif" font-size="13" font-weight="bold" lengthAdjust="spacing" textLength="14" x="58.5" y="744.1299">18</text><text fill="#000000" font-family="sans-serif" font-size="13" lengthAdjust="spacing" textLength="179" x="76.5" y="744.1299">Pede confirma&#231;&#227;o da opera&#231;&#227;o</text><polygon fill="#181818" points="474.5,776.6836,484.5,780.6836,474.5,784.6836,478.5,780.6836" style="stroke:#181818;stroke-width:1.0;"/><line style="stroke:#181818;stroke-width:1.0;" x1="41.5" x2="480.5" y1="780.6836" y2="780.6836"/><text fill="#000000" font-family="sans-serif" font-size="13" font-weight="bold" lengthAdjust="spacing" textLength="14" x="48.5" y="775.4209">19</text><text fill="#000000" font-family="sans-serif" font-size="13" lengthAdjust="spacing" textLength="119" x="66.5" y="775.4209">Confirma a opera&#231;&#227;o</text><polygon fill="#181818" points="815.5,807.9746,825.5,811.9746,815.5,815.9746,819.5,811.9746" style="stroke:#181818;stroke-width:1.0;"/><line style="stroke:#181818;stroke-width:1.0;" x1="496.5" x2="821.5" y1="811.9746" y2="811.9746"/><text fill="#000000" font-family="sans-serif" font-size="13" font-weight="bold" lengthAdjust="spacing" textLength="14" x="503.5" y="806.7119">20</text><text fill="#000000" font-family="sans-serif" font-size="13" lengthAdjust="spacing" textLength="195" x="521.5" y="806.7119">removePostIt(thePostIt, theBoard)</text><polygon fill="#181818" points="1355,839.2656,1365,843.2656,1355,847.2656,1359,843.2656" style="stroke:#181818;stroke-width:1.0;"/><line style="stroke:#181818;stroke-width:1.0;" x1="837.5" x2="1361" y1="843.2656" y2="843.2656"/><text fill="#000000" font-family="sans-serif" font-size="13" font-weight="bold" lengthAdjust="spacing" textLength="14" x="844.5" y="838.0029">21</text><text fill="#000000" font-family="sans-serif" font-size="13" lengthAdjust="spacing" textLength="135" x="862.5" y="838.0029">removePostIt(thePostIt)</text><polygon fill="#181818" points="1060.5,870.5566,1070.5,874.5566,1060.5,878.5566,1064.5,874.5566" style="stroke:#181818;stroke-width:1.0;"/><line style="stroke:#181818;stroke-width:1.0;" x1="837.5" x2="1066.5" y1="874.5566" y2="874.5566"/><text fill="#000000" font-family="sans-serif" font-size="13" font-weight="bold" lengthAdjust="spacing" textLength="14" x="844.5" y="869.2939">22</text><text fill="#000000" font-family="sans-serif" font-size="13" lengthAdjust="spacing" textLength="120" x="862.5" y="869.2939">saveBoard(theBoard)</text><polygon fill="#181818" points="1478,901.8477,1488,905.8477,1478,909.8477,1482,905.8477" style="stroke:#181818;stroke-width:1.0;"/><line style="stroke:#181818;stroke-width:1.0;" x1="1077.5" x2="1484" y1="905.8477" y2="905.8477"/><text fill="#000000" font-family="sans-serif" font-size="13" font-weight="bold" lengthAdjust="spacing" textLength="14" x="1084.5" y="900.585">23</text><text fill="#000000" font-family="sans-serif" font-size="13" lengthAdjust="spacing" textLength="86" x="1102.5" y="900.585">save(theBoard)</text><polygon fill="#181818" points="507.5,933.1387,497.5,937.1387,507.5,941.1387,503.5,937.1387" style="stroke:#181818;stroke-width:1.0;"/><line style="stroke:#181818;stroke-width:1.0;stroke-dasharray:2.0,2.0;" x1="501.5" x2="831.5" y1="937.1387" y2="937.1387"/><text fill="#000000" font-family="sans-serif" font-size="13" font-weight="bold" lengthAdjust="spacing" textLength="14" x="513.5" y="931.876">24</text><text fill="#000000" font-family="sans-serif" font-size="13" lengthAdjust="spacing" textLength="52" x="531.5" y="931.876">theBoard</text><polygon fill="#181818" points="47.5,964.4297,37.5,968.4297,47.5,972.4297,43.5,968.4297" style="stroke:#181818;stroke-width:1.0;"/><line style="stroke:#181818;stroke-width:1.0;stroke-dasharray:2.0,2.0;" x1="41.5" x2="490.5" y1="968.4297" y2="968.4297"/><text fill="#000000" font-family="sans-serif" font-size="13" font-weight="bold" lengthAdjust="spacing" textLength="14" x="53.5" y="963.167">25</text><text fill="#000000" font-family="sans-serif" font-size="13" lengthAdjust="spacing" textLength="181" x="71.5" y="963.167">Informa o sucesso da opera&#231;&#227;o</text><!--SRC=[hLMnRjim4Dtr5OTEDj000ReKXX0WTJ8OQ56ZXf6boqKwMqGaKY4fDydlT2Zw0Lsw-iTw92LPbcN7AA919CMxUzIzTqVp86I96Wieb5H9fbL1O7L5aMbtIamUS4qB-vmJQ4eiodNUDJ0Pfkg7a6jOOMueYgomRBgWnufaGd0ZSEtiHekRCLp0SW4VBYy_HbXP9QlYddGKOMALXgKLkNZXO1hGmBNx5Z645OaeKLfOobHzHcEd6H-1vihOcLtEd2s_uxZKP4XQj4B9gwieKT9gbGzwJSDUJXwfiufZBCjS94sGBlpKR1OPQae_ATJfN2kh4fNp-FJieeH972TcKzPxlG3lR5RZJyBmpllvwOqgK4XsJ_ramDEZJlpR-_dPeLkA5k_HKDZ_HgKoWXFvtBfqFiMnRXTTrt2aVT-3Rprdnw7OeAMQEE37p-3Yol4pWJcb14uoa99PuOjBFcp_vbOK29XRqhZzjVsfU1igrXq3NWWBh15uh33L2aRtxWV6FdOBjvpvjNiOXi4wT4uWqSH6fonoOUnrdllSc3jXipdfGXZ30hZJmj9e7BNkBUWkGhlddavWXWcAcC2QNWDe_5CwXT3k-S1xm06ACViKJs0bP7eIlZAa1uyGOA8cRmsFNvWO9X5zvXoPDJq6k6esF90ZZ401LBkA_YvX-njIRZEWAh1iKuPpRF-GSK7897mStCCB0kfAXwrKdd5-LOqQ3IZjDXZrR8ud-0nvt3xno3qkb84PDGKvVXDj74Ht7VGjPN5GlQqkpeS-MmvrvRx2f92iE-68R2fzhp5K1trXYEcP2qAx6D4H5jtFVitJy9EZqWzrNHzBRO-lRfUUW6fZXLITqDLWheHSALqq_QwJ0ic_AvG-dZk-rbPYvugWobC9cjRci6Tu94kQ2hMfhwXHUrczXvtOezUKlf-rxXrrBFmuEbqX1ZS1VTGxnl-tH1Toe8A7jTu_MPFPnZ-2ymJGi3WBrBDcJPMGCNqIUz7uUkkimjtw3m00]--></g></svg>