<?xml version="1.0" encoding="us-ascii" standalone="no"?><svg xmlns="http://www.w3.org/2000/svg" xmlns:xlink="http://www.w3.org/1999/xlink" contentStyleType="text/css" height="886px" preserveAspectRatio="none" style="width:1891px;height:886px;background:#FFFFFF;" version="1.1" viewBox="0 0 1891 886" width="1891px" zoomAndPan="magnify"><defs/><g><text fill="#000000" font-family="sans-serif" font-size="14" font-weight="bold" lengthAdjust="spacing" textLength="201" x="838.25" y="25.1074">Class Diagram (CD) - US 3007</text><!--class ChangePostItUI--><g id="elem_ChangePostItUI"><rect codeLine="5" fill="#F1F1F1" height="79.2031" id="ChangePostItUI" rx="2.5" ry="2.5" style="stroke:#181818;stroke-width:0.5;" width="141" x="1133.5" y="46.6211"/><ellipse cx="1153.9" cy="68.9121" fill="#ADD1B2" rx="11" ry="11" style="stroke:#181818;stroke-width:1.0;"/><path d="M1156.6656,64.7871 Q1156.8219,64.5684 1157.0094,64.459 Q1157.1969,64.3496 1157.4156,64.3496 Q1157.7906,64.3496 1158.025,64.6152 Q1158.2594,64.8652 1158.2594,65.4746 L1158.2594,66.9277 Q1158.2594,67.5371 1158.025,67.8027 Q1157.7906,68.0684 1157.4156,68.0684 Q1157.0719,68.0684 1156.8688,67.8652 Q1156.6656,67.6777 1156.5563,67.1621 Q1156.5094,66.8027 1156.3219,66.6152 Q1155.9938,66.2402 1155.3844,66.0215 Q1154.775,65.8027 1154.15,65.8027 Q1153.3844,65.8027 1152.7438,66.1309 Q1152.1188,66.459 1151.6188,67.209 Q1151.1344,67.959 1151.1344,68.9902 L1151.1344,70.084 Q1151.1344,71.3184 1152.025,72.1465 Q1152.9156,72.959 1154.5094,72.959 Q1155.4469,72.959 1156.1031,72.709 Q1156.4938,72.5527 1156.9156,72.1152 Q1157.1813,71.8496 1157.3219,71.7715 Q1157.4781,71.6934 1157.6813,71.6934 Q1158.0094,71.6934 1158.2594,71.959 Q1158.525,72.209 1158.525,72.5527 Q1158.525,72.8965 1158.1813,73.3027 Q1157.6813,73.8809 1156.8844,74.209 Q1155.8063,74.6621 1154.5094,74.6621 Q1152.9938,74.6621 1151.7906,74.0371 Q1150.8063,73.5371 1150.1188,72.4746 Q1149.4313,71.3965 1149.4313,70.1152 L1149.4313,68.959 Q1149.4313,67.6309 1150.0406,66.4902 Q1150.6656,65.334 1151.7594,64.7246 Q1152.8531,64.0996 1154.0875,64.0996 Q1154.8219,64.0996 1155.4625,64.2715 Q1156.1188,64.4277 1156.6656,64.7871 Z " fill="#000000"/><text fill="#000000" font-family="sans-serif" font-size="12" font-style="italic" lengthAdjust="spacing" textLength="82" x="1176.6" y="64.5703">&#171;presentation&#187;</text><text fill="#000000" font-family="sans-serif" font-size="14" lengthAdjust="spacing" textLength="97" x="1169.1" y="82.6895">ChangePostItUI</text><line style="stroke:#181818;stroke-width:0.5;" x1="1134.5" x2="1273.5" y1="91.2031" y2="91.2031"/><line style="stroke:#181818;stroke-width:0.5;" x1="1134.5" x2="1273.5" y1="99.2031" y2="99.2031"/><polygon fill="#FFFF44" points="1144.5,109.0137,1148.5,113.0137,1144.5,117.0137,1140.5,113.0137" style="stroke:#B38D22;stroke-width:1.0;"/><text fill="#000000" font-family="sans-serif" font-size="14" lengthAdjust="spacing" textLength="115" x="1153.5" y="118.3105">boolean doShow()</text></g><!--class JpaBoardRepository--><g id="elem_JpaBoardRepository"><rect codeLine="9" fill="#F1F1F1" height="60.582" id="JpaBoardRepository" rx="2.5" ry="2.5" style="stroke:#181818;stroke-width:0.5;" width="160" x="928" y="800.1211"/><ellipse cx="943" cy="822.4121" fill="#ADD1B2" rx="11" ry="11" style="stroke:#181818;stroke-width:1.0;"/><path d="M945.7656,818.2871 Q945.9219,818.0684 946.1094,817.959 Q946.2969,817.8496 946.5156,817.8496 Q946.8906,817.8496 947.125,818.1152 Q947.3594,818.3652 947.3594,818.9746 L947.3594,820.4277 Q947.3594,821.0371 947.125,821.3027 Q946.8906,821.5684 946.5156,821.5684 Q946.1719,821.5684 945.9688,821.3652 Q945.7656,821.1777 945.6563,820.6621 Q945.6094,820.3027 945.4219,820.1152 Q945.0938,819.7402 944.4844,819.5215 Q943.875,819.3027 943.25,819.3027 Q942.4844,819.3027 941.8438,819.6309 Q941.2188,819.959 940.7188,820.709 Q940.2344,821.459 940.2344,822.4902 L940.2344,823.584 Q940.2344,824.8184 941.125,825.6465 Q942.0156,826.459 943.6094,826.459 Q944.5469,826.459 945.2031,826.209 Q945.5938,826.0527 946.0156,825.6152 Q946.2813,825.3496 946.4219,825.2715 Q946.5781,825.1934 946.7813,825.1934 Q947.1094,825.1934 947.3594,825.459 Q947.625,825.709 947.625,826.0527 Q947.625,826.3965 947.2813,826.8027 Q946.7813,827.3809 945.9844,827.709 Q944.9063,828.1621 943.6094,828.1621 Q942.0938,828.1621 940.8906,827.5371 Q939.9063,827.0371 939.2188,825.9746 Q938.5313,824.8965 938.5313,823.6152 L938.5313,822.459 Q938.5313,821.1309 939.1406,819.9902 Q939.7656,818.834 940.8594,818.2246 Q941.9531,817.5996 943.1875,817.5996 Q943.9219,817.5996 944.5625,817.7715 Q945.2188,817.9277 945.7656,818.2871 Z " fill="#000000"/><text fill="#000000" font-family="sans-serif" font-size="12" font-style="italic" lengthAdjust="spacing" textLength="77" x="982.5" y="818.0703">&#171;persistence&#187;</text><text fill="#000000" font-family="sans-serif" font-size="14" lengthAdjust="spacing" textLength="128" x="957" y="836.1895">JpaBoardRepository</text><line style="stroke:#181818;stroke-width:0.5;" x1="929" x2="1087" y1="844.7031" y2="844.7031"/><line style="stroke:#181818;stroke-width:0.5;" x1="929" x2="1087" y1="852.7031" y2="852.7031"/></g><!--class InMemoryBoardRepository--><g id="elem_InMemoryBoardRepository"><rect codeLine="10" fill="#F1F1F1" height="60.582" id="InMemoryBoardRepository" rx="2.5" ry="2.5" style="stroke:#181818;stroke-width:0.5;" width="199" x="1123.5" y="800.1211"/><ellipse cx="1138.5" cy="822.4121" fill="#ADD1B2" rx="11" ry="11" style="stroke:#181818;stroke-width:1.0;"/><path d="M1141.2656,818.2871 Q1141.4219,818.0684 1141.6094,817.959 Q1141.7969,817.8496 1142.0156,817.8496 Q1142.3906,817.8496 1142.625,818.1152 Q1142.8594,818.3652 1142.8594,818.9746 L1142.8594,820.4277 Q1142.8594,821.0371 1142.625,821.3027 Q1142.3906,821.5684 1142.0156,821.5684 Q1141.6719,821.5684 1141.4688,821.3652 Q1141.2656,821.1777 1141.1563,820.6621 Q1141.1094,820.3027 1140.9219,820.1152 Q1140.5938,819.7402 1139.9844,819.5215 Q1139.375,819.3027 1138.75,819.3027 Q1137.9844,819.3027 1137.3438,819.6309 Q1136.7188,819.959 1136.2188,820.709 Q1135.7344,821.459 1135.7344,822.4902 L1135.7344,823.584 Q1135.7344,824.8184 1136.625,825.6465 Q1137.5156,826.459 1139.1094,826.459 Q1140.0469,826.459 1140.7031,826.209 Q1141.0938,826.0527 1141.5156,825.6152 Q1141.7813,825.3496 1141.9219,825.2715 Q1142.0781,825.1934 1142.2813,825.1934 Q1142.6094,825.1934 1142.8594,825.459 Q1143.125,825.709 1143.125,826.0527 Q1143.125,826.3965 1142.7813,826.8027 Q1142.2813,827.3809 1141.4844,827.709 Q1140.4063,828.1621 1139.1094,828.1621 Q1137.5938,828.1621 1136.3906,827.5371 Q1135.4063,827.0371 1134.7188,825.9746 Q1134.0313,824.8965 1134.0313,823.6152 L1134.0313,822.459 Q1134.0313,821.1309 1134.6406,819.9902 Q1135.2656,818.834 1136.3594,818.2246 Q1137.4531,817.5996 1138.6875,817.5996 Q1139.4219,817.5996 1140.0625,817.7715 Q1140.7188,817.9277 1141.2656,818.2871 Z " fill="#000000"/><text fill="#000000" font-family="sans-serif" font-size="12" font-style="italic" lengthAdjust="spacing" textLength="77" x="1197.5" y="818.0703">&#171;persistence&#187;</text><text fill="#000000" font-family="sans-serif" font-size="14" lengthAdjust="spacing" textLength="167" x="1152.5" y="836.1895">InMemoryBoardRepository</text><line style="stroke:#181818;stroke-width:0.5;" x1="1124.5" x2="1321.5" y1="844.7031" y2="844.7031"/><line style="stroke:#181818;stroke-width:0.5;" x1="1124.5" x2="1321.5" y1="852.7031" y2="852.7031"/></g><!--class JpaPostItRepository--><g id="elem_JpaPostItRepository"><rect codeLine="11" fill="#F1F1F1" height="60.582" id="JpaPostItRepository" rx="2.5" ry="2.5" style="stroke:#181818;stroke-width:0.5;" width="157" x="504.5" y="800.1211"/><ellipse cx="519.5" cy="822.4121" fill="#ADD1B2" rx="11" ry="11" style="stroke:#181818;stroke-width:1.0;"/><path d="M522.2656,818.2871 Q522.4219,818.0684 522.6094,817.959 Q522.7969,817.8496 523.0156,817.8496 Q523.3906,817.8496 523.625,818.1152 Q523.8594,818.3652 523.8594,818.9746 L523.8594,820.4277 Q523.8594,821.0371 523.625,821.3027 Q523.3906,821.5684 523.0156,821.5684 Q522.6719,821.5684 522.4688,821.3652 Q522.2656,821.1777 522.1563,820.6621 Q522.1094,820.3027 521.9219,820.1152 Q521.5938,819.7402 520.9844,819.5215 Q520.375,819.3027 519.75,819.3027 Q518.9844,819.3027 518.3438,819.6309 Q517.7188,819.959 517.2188,820.709 Q516.7344,821.459 516.7344,822.4902 L516.7344,823.584 Q516.7344,824.8184 517.625,825.6465 Q518.5156,826.459 520.1094,826.459 Q521.0469,826.459 521.7031,826.209 Q522.0938,826.0527 522.5156,825.6152 Q522.7813,825.3496 522.9219,825.2715 Q523.0781,825.1934 523.2813,825.1934 Q523.6094,825.1934 523.8594,825.459 Q524.125,825.709 524.125,826.0527 Q524.125,826.3965 523.7813,826.8027 Q523.2813,827.3809 522.4844,827.709 Q521.4063,828.1621 520.1094,828.1621 Q518.5938,828.1621 517.3906,827.5371 Q516.4063,827.0371 515.7188,825.9746 Q515.0313,824.8965 515.0313,823.6152 L515.0313,822.459 Q515.0313,821.1309 515.6406,819.9902 Q516.2656,818.834 517.3594,818.2246 Q518.4531,817.5996 519.6875,817.5996 Q520.4219,817.5996 521.0625,817.7715 Q521.7188,817.9277 522.2656,818.2871 Z " fill="#000000"/><text fill="#000000" font-family="sans-serif" font-size="12" font-style="italic" lengthAdjust="spacing" textLength="77" x="557.5" y="818.0703">&#171;persistence&#187;</text><text fill="#000000" font-family="sans-serif" font-size="14" lengthAdjust="spacing" textLength="125" x="533.5" y="836.1895">JpaPostItRepository</text><line style="stroke:#181818;stroke-width:0.5;" x1="505.5" x2="660.5" y1="844.7031" y2="844.7031"/><line style="stroke:#181818;stroke-width:0.5;" x1="505.5" x2="660.5" y1="852.7031" y2="852.7031"/></g><!--class InMemoryPostItRepository--><g id="elem_InMemoryPostItRepository"><rect codeLine="12" fill="#F1F1F1" height="60.582" id="InMemoryPostItRepository" rx="2.5" ry="2.5" style="stroke:#181818;stroke-width:0.5;" width="196" x="697" y="800.1211"/><ellipse cx="712" cy="822.4121" fill="#ADD1B2" rx="11" ry="11" style="stroke:#181818;stroke-width:1.0;"/><path d="M714.7656,818.2871 Q714.9219,818.0684 715.1094,817.959 Q715.2969,817.8496 715.5156,817.8496 Q715.8906,817.8496 716.125,818.1152 Q716.3594,818.3652 716.3594,818.9746 L716.3594,820.4277 Q716.3594,821.0371 716.125,821.3027 Q715.8906,821.5684 715.5156,821.5684 Q715.1719,821.5684 714.9688,821.3652 Q714.7656,821.1777 714.6563,820.6621 Q714.6094,820.3027 714.4219,820.1152 Q714.0938,819.7402 713.4844,819.5215 Q712.875,819.3027 712.25,819.3027 Q711.4844,819.3027 710.8438,819.6309 Q710.2188,819.959 709.7188,820.709 Q709.2344,821.459 709.2344,822.4902 L709.2344,823.584 Q709.2344,824.8184 710.125,825.6465 Q711.0156,826.459 712.6094,826.459 Q713.5469,826.459 714.2031,826.209 Q714.5938,826.0527 715.0156,825.6152 Q715.2813,825.3496 715.4219,825.2715 Q715.5781,825.1934 715.7813,825.1934 Q716.1094,825.1934 716.3594,825.459 Q716.625,825.709 716.625,826.0527 Q716.625,826.3965 716.2813,826.8027 Q715.7813,827.3809 714.9844,827.709 Q713.9063,828.1621 712.6094,828.1621 Q711.0938,828.1621 709.8906,827.5371 Q708.9063,827.0371 708.2188,825.9746 Q707.5313,824.8965 707.5313,823.6152 L707.5313,822.459 Q707.5313,821.1309 708.1406,819.9902 Q708.7656,818.834 709.8594,818.2246 Q710.9531,817.5996 712.1875,817.5996 Q712.9219,817.5996 713.5625,817.7715 Q714.2188,817.9277 714.7656,818.2871 Z " fill="#000000"/><text fill="#000000" font-family="sans-serif" font-size="12" font-style="italic" lengthAdjust="spacing" textLength="77" x="769.5" y="818.0703">&#171;persistence&#187;</text><text fill="#000000" font-family="sans-serif" font-size="14" lengthAdjust="spacing" textLength="164" x="726" y="836.1895">InMemoryPostItRepository</text><line style="stroke:#181818;stroke-width:0.5;" x1="698" x2="892" y1="844.7031" y2="844.7031"/><line style="stroke:#181818;stroke-width:0.5;" x1="698" x2="892" y1="852.7031" y2="852.7031"/></g><!--class Board--><g id="elem_Board"><rect codeLine="14" fill="#F1F1F1" height="228.1719" id="Board" rx="2.5" ry="2.5" style="stroke:#181818;stroke-width:0.5;" width="369" x="551.5" y="465.1211"/><ellipse cx="705.75" cy="487.4121" fill="#ADD1B2" rx="11" ry="11" style="stroke:#181818;stroke-width:1.0;"/><path d="M708.5156,483.2871 Q708.6719,483.0684 708.8594,482.959 Q709.0469,482.8496 709.2656,482.8496 Q709.6406,482.8496 709.875,483.1152 Q710.1094,483.3652 710.1094,483.9746 L710.1094,485.4277 Q710.1094,486.0371 709.875,486.3027 Q709.6406,486.5684 709.2656,486.5684 Q708.9219,486.5684 708.7188,486.3652 Q708.5156,486.1777 708.4063,485.6621 Q708.3594,485.3027 708.1719,485.1152 Q707.8438,484.7402 707.2344,484.5215 Q706.625,484.3027 706,484.3027 Q705.2344,484.3027 704.5938,484.6309 Q703.9688,484.959 703.4688,485.709 Q702.9844,486.459 702.9844,487.4902 L702.9844,488.584 Q702.9844,489.8184 703.875,490.6465 Q704.7656,491.459 706.3594,491.459 Q707.2969,491.459 707.9531,491.209 Q708.3438,491.0527 708.7656,490.6152 Q709.0313,490.3496 709.1719,490.2715 Q709.3281,490.1934 709.5313,490.1934 Q709.8594,490.1934 710.1094,490.459 Q710.375,490.709 710.375,491.0527 Q710.375,491.3965 710.0313,491.8027 Q709.5313,492.3809 708.7344,492.709 Q707.6563,493.1621 706.3594,493.1621 Q704.8438,493.1621 703.6406,492.5371 Q702.6563,492.0371 701.9688,490.9746 Q701.2813,489.8965 701.2813,488.6152 L701.2813,487.459 Q701.2813,486.1309 701.8906,484.9902 Q702.5156,483.834 703.6094,483.2246 Q704.7031,482.5996 705.9375,482.5996 Q706.6719,482.5996 707.3125,482.7715 Q707.9688,482.9277 708.5156,483.2871 Z " fill="#000000"/><text fill="#000000" font-family="sans-serif" font-size="12" font-style="italic" lengthAdjust="spacing" textLength="56" x="724.25" y="483.0703">&#171;domain&#187;</text><text fill="#000000" font-family="sans-serif" font-size="14" lengthAdjust="spacing" textLength="38" x="733.25" y="501.1895">Board</text><line style="stroke:#181818;stroke-width:0.5;" x1="552.5" x2="919.5" y1="509.7031" y2="509.7031"/><rect fill="none" height="6" style="stroke:#C82930;stroke-width:1.0;" width="6" x="559.5" y="521.5137"/><text fill="#000000" font-family="sans-serif" font-size="14" lengthAdjust="spacing" textLength="71" x="571.5" y="528.8105">title : String</text><rect fill="none" height="6" style="stroke:#C82930;stroke-width:1.0;" width="6" x="559.5" y="540.1348"/><text fill="#000000" font-family="sans-serif" font-size="14" lengthAdjust="spacing" textLength="301" x="571.5" y="547.4316">boardElementLineSet : Set&lt;BoardElementLine&gt;</text><rect fill="none" height="6" style="stroke:#C82930;stroke-width:1.0;" width="6" x="559.5" y="558.7559"/><text fill="#000000" font-family="sans-serif" font-size="14" lengthAdjust="spacing" textLength="343" x="571.5" y="566.0527">boardElementColumnSet : Set&lt;BoardElementColumn&gt;</text><rect fill="none" height="6" style="stroke:#C82930;stroke-width:1.0;" width="6" x="559.5" y="577.377"/><text fill="#000000" font-family="sans-serif" font-size="14" lengthAdjust="spacing" textLength="118" x="571.5" y="584.6738">List&lt;PostIt&gt; postIts</text><line style="stroke:#181818;stroke-width:0.5;" x1="552.5" x2="919.5" y1="592.1875" y2="592.1875"/><ellipse cx="562.5" cy="606.998" fill="#84BE84" rx="3" ry="3" style="stroke:#038048;stroke-width:1.0;"/><text fill="#000000" font-family="sans-serif" font-size="14" lengthAdjust="spacing" textLength="297" x="571.5" y="611.2949">changePostIt(oldPostIt : PostIt, content : String)</text><ellipse cx="562.5" cy="625.6191" fill="#84BE84" rx="3" ry="3" style="stroke:#038048;stroke-width:1.0;"/><text fill="#000000" font-family="sans-serif" font-size="14" lengthAdjust="spacing" textLength="330" x="571.5" y="629.916">changePostIt(oldPostIt : PostIt, line : int, column : int)</text><rect fill="#F24D5C" height="6" style="stroke:#C82930;stroke-width:1.0;" width="6" x="559.5" y="641.2402"/><text fill="#000000" font-family="sans-serif" font-size="14" lengthAdjust="spacing" textLength="308" x="571.5" y="648.5371">changePostIt(oldPostIt : PostIt, newPostIt : PostIt)</text><ellipse cx="562.5" cy="662.8613" fill="#84BE84" rx="3" ry="3" style="stroke:#038048;stroke-width:1.0;"/><text fill="#000000" font-family="sans-serif" font-size="14" lengthAdjust="spacing" textLength="282" x="571.5" y="667.1582">Set&lt;BoardElementLine&gt; boardElementLine()</text><ellipse cx="562.5" cy="681.4824" fill="#84BE84" rx="3" ry="3" style="stroke:#038048;stroke-width:1.0;"/><text fill="#000000" font-family="sans-serif" font-size="14" lengthAdjust="spacing" textLength="324" x="571.5" y="685.7793">Set&lt;BoardElementColumn&gt; boardElementColumn()</text></g><!--class PostIt--><g id="elem_PostIt"><rect codeLine="25" fill="#F1F1F1" height="246.793" id="PostIt" rx="2.5" ry="2.5" style="stroke:#181818;stroke-width:0.5;" width="370" x="956" y="455.6211"/><ellipse cx="1110.75" cy="477.9121" fill="#ADD1B2" rx="11" ry="11" style="stroke:#181818;stroke-width:1.0;"/><path d="M1113.5156,473.7871 Q1113.6719,473.5684 1113.8594,473.459 Q1114.0469,473.3496 1114.2656,473.3496 Q1114.6406,473.3496 1114.875,473.6152 Q1115.1094,473.8652 1115.1094,474.4746 L1115.1094,475.9277 Q1115.1094,476.5371 1114.875,476.8027 Q1114.6406,477.0684 1114.2656,477.0684 Q1113.9219,477.0684 1113.7188,476.8652 Q1113.5156,476.6777 1113.4063,476.1621 Q1113.3594,475.8027 1113.1719,475.6152 Q1112.8438,475.2402 1112.2344,475.0215 Q1111.625,474.8027 1111,474.8027 Q1110.2344,474.8027 1109.5938,475.1309 Q1108.9688,475.459 1108.4688,476.209 Q1107.9844,476.959 1107.9844,477.9902 L1107.9844,479.084 Q1107.9844,480.3184 1108.875,481.1465 Q1109.7656,481.959 1111.3594,481.959 Q1112.2969,481.959 1112.9531,481.709 Q1113.3438,481.5527 1113.7656,481.1152 Q1114.0313,480.8496 1114.1719,480.7715 Q1114.3281,480.6934 1114.5313,480.6934 Q1114.8594,480.6934 1115.1094,480.959 Q1115.375,481.209 1115.375,481.5527 Q1115.375,481.8965 1115.0313,482.3027 Q1114.5313,482.8809 1113.7344,483.209 Q1112.6563,483.6621 1111.3594,483.6621 Q1109.8438,483.6621 1108.6406,483.0371 Q1107.6563,482.5371 1106.9688,481.4746 Q1106.2813,480.3965 1106.2813,479.1152 L1106.2813,477.959 Q1106.2813,476.6309 1106.8906,475.4902 Q1107.5156,474.334 1108.6094,473.7246 Q1109.7031,473.0996 1110.9375,473.0996 Q1111.6719,473.0996 1112.3125,473.2715 Q1112.9688,473.4277 1113.5156,473.7871 Z " fill="#000000"/><text fill="#000000" font-family="sans-serif" font-size="12" font-style="italic" lengthAdjust="spacing" textLength="56" x="1129.25" y="473.5703">&#171;domain&#187;</text><text fill="#000000" font-family="sans-serif" font-size="14" lengthAdjust="spacing" textLength="35" x="1139.75" y="491.6895">PostIt</text><line style="stroke:#181818;stroke-width:0.5;" x1="957" x2="1325" y1="500.2031" y2="500.2031"/><rect fill="none" height="6" style="stroke:#C82930;stroke-width:1.0;" width="6" x="964" y="512.0137"/><text fill="#000000" font-family="sans-serif" font-size="14" lengthAdjust="spacing" textLength="100" x="976" y="519.3105">content : String;</text><rect fill="none" height="6" style="stroke:#C82930;stroke-width:1.0;" width="6" x="964" y="530.6348"/><text fill="#000000" font-family="sans-serif" font-size="14" lengthAdjust="spacing" textLength="144" x="976" y="537.9316">time: PostItTimeStamp;</text><rect fill="none" height="6" style="stroke:#C82930;stroke-width:1.0;" width="6" x="964" y="549.2559"/><text fill="#000000" font-family="sans-serif" font-size="14" lengthAdjust="spacing" textLength="150" x="976" y="556.5527">position : PostItPosition;</text><rect fill="none" height="6" style="stroke:#C82930;stroke-width:1.0;" width="6" x="964" y="567.877"/><text fill="#000000" font-family="sans-serif" font-size="14" lengthAdjust="spacing" textLength="110" x="976" y="575.1738">type : PostItType;</text><rect fill="none" height="6" style="stroke:#C82930;stroke-width:1.0;" width="6" x="964" y="586.498"/><text fill="#000000" font-family="sans-serif" font-size="14" lengthAdjust="spacing" textLength="125" x="976" y="593.7949">status: PostItStatus;</text><line style="stroke:#181818;stroke-width:0.5;" x1="957" x2="1325" y1="601.3086" y2="601.3086"/><ellipse cx="967" cy="616.1191" fill="#84BE84" rx="3" ry="3" style="stroke:#038048;stroke-width:1.0;"/><text fill="#000000" font-family="sans-serif" font-size="14" lengthAdjust="spacing" textLength="305" x="976" y="620.416">void definePreviousPostIt(previousPostIt : PostIt)</text><ellipse cx="967" cy="634.7402" fill="#84BE84" rx="3" ry="3" style="stroke:#038048;stroke-width:1.0;"/><text fill="#000000" font-family="sans-serif" font-size="14" lengthAdjust="spacing" textLength="87" x="976" y="639.0371">void remove()</text><polygon fill="#FFFF44" points="967,648.3613,971,652.3613,967,656.3613,963,652.3613" style="stroke:#B38D22;stroke-width:1.0;"/><text fill="#000000" font-family="sans-serif" font-size="14" lengthAdjust="spacing" textLength="83" x="976" y="657.6582">PostIt clone()</text><ellipse cx="967" cy="671.9824" fill="#84BE84" rx="3" ry="3" style="stroke:#038048;stroke-width:1.0;"/><text fill="#000000" font-family="sans-serif" font-size="14" lengthAdjust="spacing" textLength="311" x="976" y="676.2793">PostIt cloneWithDifferentContent(content : String)</text><ellipse cx="967" cy="690.6035" fill="#84BE84" rx="3" ry="3" style="stroke:#038048;stroke-width:1.0;"/><text fill="#000000" font-family="sans-serif" font-size="14" lengthAdjust="spacing" textLength="344" x="976" y="694.9004">PostIt cloneWithDifferentPosition(line : int, column : int)</text></g><!--class SystemUser--><g id="elem_SystemUser"><rect codeLine="37" fill="#F1F1F1" height="60.582" id="SystemUser" rx="2.5" ry="2.5" style="stroke:#181818;stroke-width:0.5;" width="107" x="1772.5" y="548.6211"/><ellipse cx="1787.5" cy="570.9121" fill="#ADD1B2" rx="11" ry="11" style="stroke:#181818;stroke-width:1.0;"/><path d="M1790.2656,566.7871 Q1790.4219,566.5684 1790.6094,566.459 Q1790.7969,566.3496 1791.0156,566.3496 Q1791.3906,566.3496 1791.625,566.6152 Q1791.8594,566.8652 1791.8594,567.4746 L1791.8594,568.9277 Q1791.8594,569.5371 1791.625,569.8027 Q1791.3906,570.0684 1791.0156,570.0684 Q1790.6719,570.0684 1790.4688,569.8652 Q1790.2656,569.6777 1790.1563,569.1621 Q1790.1094,568.8027 1789.9219,568.6152 Q1789.5938,568.2402 1788.9844,568.0215 Q1788.375,567.8027 1787.75,567.8027 Q1786.9844,567.8027 1786.3438,568.1309 Q1785.7188,568.459 1785.2188,569.209 Q1784.7344,569.959 1784.7344,570.9902 L1784.7344,572.084 Q1784.7344,573.3184 1785.625,574.1465 Q1786.5156,574.959 1788.1094,574.959 Q1789.0469,574.959 1789.7031,574.709 Q1790.0938,574.5527 1790.5156,574.1152 Q1790.7813,573.8496 1790.9219,573.7715 Q1791.0781,573.6934 1791.2813,573.6934 Q1791.6094,573.6934 1791.8594,573.959 Q1792.125,574.209 1792.125,574.5527 Q1792.125,574.8965 1791.7813,575.3027 Q1791.2813,575.8809 1790.4844,576.209 Q1789.4063,576.6621 1788.1094,576.6621 Q1786.5938,576.6621 1785.3906,576.0371 Q1784.4063,575.5371 1783.7188,574.4746 Q1783.0313,573.3965 1783.0313,572.1152 L1783.0313,570.959 Q1783.0313,569.6309 1783.6406,568.4902 Q1784.2656,567.334 1785.3594,566.7246 Q1786.4531,566.0996 1787.6875,566.0996 Q1788.4219,566.0996 1789.0625,566.2715 Q1789.7188,566.4277 1790.2656,566.7871 Z " fill="#000000"/><text fill="#000000" font-family="sans-serif" font-size="12" font-style="italic" lengthAdjust="spacing" textLength="56" x="1811" y="566.5703">&#171;domain&#187;</text><text fill="#000000" font-family="sans-serif" font-size="14" lengthAdjust="spacing" textLength="75" x="1801.5" y="584.6895">SystemUser</text><line style="stroke:#181818;stroke-width:0.5;" x1="1773.5" x2="1878.5" y1="593.2031" y2="593.2031"/><line style="stroke:#181818;stroke-width:0.5;" x1="1773.5" x2="1878.5" y1="601.2031" y2="601.2031"/></g><!--class Username--><g id="elem_Username"><rect codeLine="38" fill="#F1F1F1" height="60.582" id="Username" rx="2.5" ry="2.5" style="stroke:#181818;stroke-width:0.5;" width="109" x="1775.5" y="800.1211"/><ellipse cx="1790.5" cy="822.4121" fill="#FF8B40" rx="11" ry="11" style="stroke:#181818;stroke-width:1.0;"/><path d="M1791.0938,825.6777 L1793.5625,819.8027 L1793.1719,819.8027 Q1792.5625,819.8027 1792.2969,819.5684 Q1792.0313,819.334 1792.0313,818.9434 Q1792.0313,818.5684 1792.2969,818.334 Q1792.5625,818.0996 1793.1719,818.0996 L1795.4531,818.0996 Q1796.0625,818.0996 1796.3281,818.334 Q1796.5938,818.5684 1796.5938,818.9434 Q1796.5938,819.4121 1796.1875,819.6777 Q1796,819.8027 1795.4063,819.8027 L1791.9219,828.1621 L1790.2813,828.1621 L1786.7969,819.8027 Q1786.2031,819.8027 1786.0156,819.6777 Q1785.6094,819.4121 1785.6094,818.9434 Q1785.6094,818.5684 1785.875,818.334 Q1786.1406,818.0996 1786.75,818.0996 L1789.0469,818.0996 Q1789.6563,818.0996 1789.9063,818.334 Q1790.1719,818.5684 1790.1719,818.9434 Q1790.1719,819.334 1789.9063,819.5684 Q1789.6563,819.8027 1789.0469,819.8027 L1788.6406,819.8027 L1791.0938,825.6777 Z " fill="#000000"/><text fill="#000000" font-family="sans-serif" font-size="12" font-style="italic" lengthAdjust="spacing" textLength="81" x="1802.5" y="818.0703">&#171;value object&#187;</text><text fill="#000000" font-family="sans-serif" font-size="14" lengthAdjust="spacing" textLength="64" x="1811" y="836.1895">Username</text><line style="stroke:#181818;stroke-width:0.5;" x1="1776.5" x2="1883.5" y1="844.7031" y2="844.7031"/><line style="stroke:#181818;stroke-width:0.5;" x1="1776.5" x2="1883.5" y1="852.7031" y2="852.7031"/></g><!--class ChangePostItController--><g id="elem_ChangePostItController"><rect codeLine="40" fill="#F1F1F1" height="172.3086" id="ChangePostItController" rx="2.5" ry="2.5" style="stroke:#181818;stroke-width:0.5;" width="561" x="923.5" y="204.6211"/><ellipse cx="1126.25" cy="226.9121" fill="#ADD1B2" rx="11" ry="11" style="stroke:#181818;stroke-width:1.0;"/><path d="M1129.0156,222.7871 Q1129.1719,222.5684 1129.3594,222.459 Q1129.5469,222.3496 1129.7656,222.3496 Q1130.1406,222.3496 1130.375,222.6152 Q1130.6094,222.8652 1130.6094,223.4746 L1130.6094,224.9277 Q1130.6094,225.5371 1130.375,225.8027 Q1130.1406,226.0684 1129.7656,226.0684 Q1129.4219,226.0684 1129.2188,225.8652 Q1129.0156,225.6777 1128.9063,225.1621 Q1128.8594,224.8027 1128.6719,224.6152 Q1128.3438,224.2402 1127.7344,224.0215 Q1127.125,223.8027 1126.5,223.8027 Q1125.7344,223.8027 1125.0938,224.1309 Q1124.4688,224.459 1123.9688,225.209 Q1123.4844,225.959 1123.4844,226.9902 L1123.4844,228.084 Q1123.4844,229.3184 1124.375,230.1465 Q1125.2656,230.959 1126.8594,230.959 Q1127.7969,230.959 1128.4531,230.709 Q1128.8438,230.5527 1129.2656,230.1152 Q1129.5313,229.8496 1129.6719,229.7715 Q1129.8281,229.6934 1130.0313,229.6934 Q1130.3594,229.6934 1130.6094,229.959 Q1130.875,230.209 1130.875,230.5527 Q1130.875,230.8965 1130.5313,231.3027 Q1130.0313,231.8809 1129.2344,232.209 Q1128.1563,232.6621 1126.8594,232.6621 Q1125.3438,232.6621 1124.1406,232.0371 Q1123.1563,231.5371 1122.4688,230.4746 Q1121.7813,229.3965 1121.7813,228.1152 L1121.7813,226.959 Q1121.7813,225.6309 1122.3906,224.4902 Q1123.0156,223.334 1124.1094,222.7246 Q1125.2031,222.0996 1126.4375,222.0996 Q1127.1719,222.0996 1127.8125,222.2715 Q1128.4688,222.4277 1129.0156,222.7871 Z " fill="#000000"/><text fill="#000000" font-family="sans-serif" font-size="12" font-style="italic" lengthAdjust="spacing" textLength="74" x="1183.25" y="222.5703">&#171;application&#187;</text><text fill="#000000" font-family="sans-serif" font-size="14" lengthAdjust="spacing" textLength="147" x="1146.75" y="240.6895">ChangePostItController</text><line style="stroke:#181818;stroke-width:0.5;" x1="924.5" x2="1483.5" y1="249.2031" y2="249.2031"/><line style="stroke:#181818;stroke-width:0.5;" x1="924.5" x2="1483.5" y1="257.2031" y2="257.2031"/><ellipse cx="934.5" cy="272.0137" fill="#84BE84" rx="3" ry="3" style="stroke:#038048;stroke-width:1.0;"/><text fill="#000000" font-family="sans-serif" font-size="14" lengthAdjust="spacing" textLength="322" x="943.5" y="276.3105">Iterable&lt;Board&gt; listAllBoardsWithPermissionWrite()</text><ellipse cx="934.5" cy="290.6348" fill="#84BE84" rx="3" ry="3" style="stroke:#038048;stroke-width:1.0;"/><text fill="#000000" font-family="sans-serif" font-size="14" lengthAdjust="spacing" textLength="342" x="943.5" y="294.9316">Iterable&lt;PostIt&gt; listAllExistingPostIts(theBoard : Board)</text><ellipse cx="934.5" cy="309.2559" fill="#84BE84" rx="3" ry="3" style="stroke:#038048;stroke-width:1.0;"/><text fill="#000000" font-family="sans-serif" font-size="14" lengthAdjust="spacing" textLength="456" x="943.5" y="313.5527">Iterable&lt;BoardElementLine&gt; listAllBoardElementLines(theBoard : Board)</text><ellipse cx="934.5" cy="327.877" fill="#84BE84" rx="3" ry="3" style="stroke:#038048;stroke-width:1.0;"/><text fill="#000000" font-family="sans-serif" font-size="14" lengthAdjust="spacing" textLength="498" x="943.5" y="332.1738">Iterable&lt;BoardElementColumn&gt; listAllBoardElementColumns(theBoard : Board)</text><ellipse cx="934.5" cy="346.498" fill="#84BE84" rx="3" ry="3" style="stroke:#038048;stroke-width:1.0;"/><text fill="#000000" font-family="sans-serif" font-size="14" lengthAdjust="spacing" textLength="502" x="943.5" y="350.7949">Board changeContentPostIt(theBoard : Board, thePostIt : PostIt, content: String)</text><ellipse cx="934.5" cy="365.1191" fill="#84BE84" rx="3" ry="3" style="stroke:#038048;stroke-width:1.0;"/><text fill="#000000" font-family="sans-serif" font-size="14" lengthAdjust="spacing" textLength="535" x="943.5" y="369.416">Board changePositionPostIt(theBoard : Board, thePostIt : PostIt, line: int, column : int)</text></g><!--class BoardRepository--><g id="elem_BoardRepository"><rect codeLine="49" fill="#F1F1F1" height="97.8242" id="BoardRepository" rx="2.5" ry="2.5" style="stroke:#181818;stroke-width:0.5;" width="462" x="7" y="781.6211"/><ellipse cx="180.75" cy="803.9121" fill="#B4A7E5" rx="11" ry="11" style="stroke:#181818;stroke-width:1.0;"/><path d="M181.7031,800.5527 L181.7031,807.209 L183.4219,807.209 Q184.0313,807.209 184.2969,807.4434 Q184.5625,807.6777 184.5625,808.0684 Q184.5625,808.4434 184.2969,808.6777 Q184.0313,808.9121 183.4219,808.9121 L178.2813,808.9121 Q177.6719,808.9121 177.4063,808.6777 Q177.1406,808.4434 177.1406,808.0527 Q177.1406,807.6777 177.4063,807.4434 Q177.6719,807.209 178.2813,807.209 L180,807.209 L180,800.5527 L178.2813,800.5527 Q177.6719,800.5527 177.4063,800.3184 Q177.1406,800.084 177.1406,799.6934 Q177.1406,799.3184 177.4063,799.084 Q177.6719,798.8496 178.2813,798.8496 L183.4219,798.8496 Q184.0313,798.8496 184.2969,799.084 Q184.5625,799.3184 184.5625,799.6934 Q184.5625,800.084 184.2969,800.3184 Q184.0313,800.5527 183.4219,800.5527 L181.7031,800.5527 Z " fill="#000000"/><text fill="#000000" font-family="sans-serif" font-size="12" font-style="italic" lengthAdjust="spacing" textLength="78" x="215.25" y="799.5703">&#171;repositories&#187;</text><text fill="#000000" font-family="sans-serif" font-size="14" font-style="italic" lengthAdjust="spacing" textLength="106" x="201.25" y="817.6895">BoardRepository</text><line style="stroke:#181818;stroke-width:0.5;" x1="8" x2="468" y1="826.2031" y2="826.2031"/><line style="stroke:#181818;stroke-width:0.5;" x1="8" x2="468" y1="834.2031" y2="834.2031"/><ellipse cx="18" cy="849.0137" fill="#84BE84" rx="3" ry="3" style="stroke:#038048;stroke-width:1.0;"/><text fill="#000000" font-family="sans-serif" font-size="14" lengthAdjust="spacing" textLength="436" x="27" y="853.3105">Iterable&lt;Board&gt; findAllBoardsWithPermissionWrite(user : Username);</text><ellipse cx="18" cy="867.6348" fill="#84BE84" rx="3" ry="3" style="stroke:#038048;stroke-width:1.0;"/><text fill="#000000" font-family="sans-serif" font-size="14" lengthAdjust="spacing" textLength="190" x="27" y="871.9316">Board save(theBoard : Board)</text></g><!--class PostItRepository--><g id="elem_PostItRepository"><rect codeLine="54" fill="#F1F1F1" height="79.2031" id="PostItRepository" rx="2.5" ry="2.5" style="stroke:#181818;stroke-width:0.5;" width="383" x="1357.5" y="791.1211"/><ellipse cx="1492.75" cy="813.4121" fill="#B4A7E5" rx="11" ry="11" style="stroke:#181818;stroke-width:1.0;"/><path d="M1493.7031,810.0527 L1493.7031,816.709 L1495.4219,816.709 Q1496.0313,816.709 1496.2969,816.9434 Q1496.5625,817.1777 1496.5625,817.5684 Q1496.5625,817.9434 1496.2969,818.1777 Q1496.0313,818.4121 1495.4219,818.4121 L1490.2813,818.4121 Q1489.6719,818.4121 1489.4063,818.1777 Q1489.1406,817.9434 1489.1406,817.5527 Q1489.1406,817.1777 1489.4063,816.9434 Q1489.6719,816.709 1490.2813,816.709 L1492,816.709 L1492,810.0527 L1490.2813,810.0527 Q1489.6719,810.0527 1489.4063,809.8184 Q1489.1406,809.584 1489.1406,809.1934 Q1489.1406,808.8184 1489.4063,808.584 Q1489.6719,808.3496 1490.2813,808.3496 L1495.4219,808.3496 Q1496.0313,808.3496 1496.2969,808.584 Q1496.5625,808.8184 1496.5625,809.1934 Q1496.5625,809.584 1496.2969,809.8184 Q1496.0313,810.0527 1495.4219,810.0527 L1493.7031,810.0527 Z " fill="#000000"/><text fill="#000000" font-family="sans-serif" font-size="12" font-style="italic" lengthAdjust="spacing" textLength="78" x="1526.25" y="809.0703">&#171;repositories&#187;</text><text fill="#000000" font-family="sans-serif" font-size="14" font-style="italic" lengthAdjust="spacing" textLength="104" x="1513.25" y="827.1895">PostItRepository</text><line style="stroke:#181818;stroke-width:0.5;" x1="1358.5" x2="1739.5" y1="835.7031" y2="835.7031"/><line style="stroke:#181818;stroke-width:0.5;" x1="1358.5" x2="1739.5" y1="843.7031" y2="843.7031"/><ellipse cx="1368.5" cy="858.5137" fill="#84BE84" rx="3" ry="3" style="stroke:#038048;stroke-width:1.0;"/><text fill="#000000" font-family="sans-serif" font-size="14" lengthAdjust="spacing" textLength="357" x="1377.5" y="862.8105">Iterable&lt;PostIt&gt; findAllExistingPostIts(boardTitle : String);</text></g><!--class CsvSharedBoardProtocolProxy--><g id="elem_CsvSharedBoardProtocolProxy"><rect codeLine="58" fill="#F1F1F1" height="116.4453" id="CsvSharedBoardProtocolProxy" rx="2.5" ry="2.5" style="stroke:#181818;stroke-width:0.5;" width="376" x="1361" y="521.1211"/><ellipse cx="1447.25" cy="543.4121" fill="#ADD1B2" rx="11" ry="11" style="stroke:#181818;stroke-width:1.0;"/><path d="M1450.0156,539.2871 Q1450.1719,539.0684 1450.3594,538.959 Q1450.5469,538.8496 1450.7656,538.8496 Q1451.1406,538.8496 1451.375,539.1152 Q1451.6094,539.3652 1451.6094,539.9746 L1451.6094,541.4277 Q1451.6094,542.0371 1451.375,542.3027 Q1451.1406,542.5684 1450.7656,542.5684 Q1450.4219,542.5684 1450.2188,542.3652 Q1450.0156,542.1777 1449.9063,541.6621 Q1449.8594,541.3027 1449.6719,541.1152 Q1449.3438,540.7402 1448.7344,540.5215 Q1448.125,540.3027 1447.5,540.3027 Q1446.7344,540.3027 1446.0938,540.6309 Q1445.4688,540.959 1444.9688,541.709 Q1444.4844,542.459 1444.4844,543.4902 L1444.4844,544.584 Q1444.4844,545.8184 1445.375,546.6465 Q1446.2656,547.459 1447.8594,547.459 Q1448.7969,547.459 1449.4531,547.209 Q1449.8438,547.0527 1450.2656,546.6152 Q1450.5313,546.3496 1450.6719,546.2715 Q1450.8281,546.1934 1451.0313,546.1934 Q1451.3594,546.1934 1451.6094,546.459 Q1451.875,546.709 1451.875,547.0527 Q1451.875,547.3965 1451.5313,547.8027 Q1451.0313,548.3809 1450.2344,548.709 Q1449.1563,549.1621 1447.8594,549.1621 Q1446.3438,549.1621 1445.1406,548.5371 Q1444.1563,548.0371 1443.4688,546.9746 Q1442.7813,545.8965 1442.7813,544.6152 L1442.7813,543.459 Q1442.7813,542.1309 1443.3906,540.9902 Q1444.0156,539.834 1445.1094,539.2246 Q1446.2031,538.5996 1447.4375,538.5996 Q1448.1719,538.5996 1448.8125,538.7715 Q1449.4688,538.9277 1450.0156,539.2871 Z " fill="#000000"/><text fill="#000000" font-family="sans-serif" font-size="12" font-style="italic" lengthAdjust="spacing" textLength="76" x="1527.25" y="539.0703">&#171;csvprotocol&#187;</text><text fill="#000000" font-family="sans-serif" font-size="14" lengthAdjust="spacing" textLength="195" x="1467.75" y="557.1895">CsvSharedBoardProtocolProxy</text><line style="stroke:#181818;stroke-width:0.5;" x1="1362" x2="1736" y1="565.7031" y2="565.7031"/><line style="stroke:#181818;stroke-width:0.5;" x1="1362" x2="1736" y1="573.7031" y2="573.7031"/><ellipse cx="1372" cy="588.5137" fill="#84BE84" rx="3" ry="3" style="stroke:#038048;stroke-width:1.0;"/><text fill="#000000" font-family="sans-serif" font-size="14" lengthAdjust="spacing" textLength="325" x="1381" y="592.8105">Iterable&lt;Board&gt; getAllBoardsWithPermissionWrite()</text><ellipse cx="1372" cy="607.1348" fill="#84BE84" rx="3" ry="3" style="stroke:#038048;stroke-width:1.0;"/><text fill="#000000" font-family="sans-serif" font-size="14" lengthAdjust="spacing" textLength="350" x="1381" y="611.4316">Iterable&lt;PostIt&gt; getAllExistingPostIts(boardTitle : String)</text><ellipse cx="1372" cy="625.7559" fill="#84BE84" rx="3" ry="3" style="stroke:#038048;stroke-width:1.0;"/><text fill="#000000" font-family="sans-serif" font-size="14" lengthAdjust="spacing" textLength="228" x="1381" y="630.0527">Board saveBoard(theBoard : Board)</text></g><!--link ChangePostItUI to ChangePostItController--><g id="link_ChangePostItUI_ChangePostItController"><path codeLine="65" d="M1204,125.6911 C1204,146.5611 1204,173.2911 1204,199.0811 " fill="none" id="ChangePostItUI-to-ChangePostItController" style="stroke:#181818;stroke-width:1.0;"/><polygon fill="#181818" points="1204,204.2211,1208,195.2211,1204,199.2211,1200,195.2211,1204,204.2211" style="stroke:#181818;stroke-width:1.0;"/><text fill="#000000" font-family="sans-serif" font-size="13" lengthAdjust="spacing" textLength="73" x="1205" y="170.6494">theController</text></g><!--link ChangePostItController to CsvSharedBoardProtocolProxy--><g id="link_ChangePostItController_CsvSharedBoardProtocolProxy"><path codeLine="66" d="M1306.58,376.8011 C1361.06,422.0511 1426.74,476.5911 1475.99,517.4911 " fill="none" id="ChangePostItController-to-CsvSharedBoardProtocolProxy" style="stroke:#181818;stroke-width:1.0;"/><polygon fill="#181818" points="1480.1,520.9011,1475.708,512.0857,1476.2449,517.7171,1470.6136,518.2539,1480.1,520.9011" style="stroke:#181818;stroke-width:1.0;"/><text fill="#000000" font-family="sans-serif" font-size="13" lengthAdjust="spacing" textLength="32" x="1356" y="421.6494">proxy</text></g><!--link ChangePostItController to SystemUser--><g id="link_ChangePostItController_SystemUser"><path codeLine="67" d="M1461.44,376.6311 C1515.88,393.6311 1573.15,410.8011 1627,425.6211 C1683.34,441.1211 1708.06,420.8311 1755,455.6211 C1784.59,477.5511 1803.86,515.7711 1814.76,543.7011 " fill="none" id="ChangePostItController-to-SystemUser" style="stroke:#181818;stroke-width:1.0;"/><polygon fill="#181818" points="1816.57,548.4411,1817.0927,538.6061,1814.7847,543.7707,1809.6201,541.4626,1816.57,548.4411" style="stroke:#181818;stroke-width:1.0;"/><text fill="#000000" font-family="sans-serif" font-size="13" lengthAdjust="spacing" textLength="25" x="1628" y="421.6494">user</text></g><!--link ChangePostItController to Board--><g id="link_ChangePostItController_Board"><path codeLine="68" d="M1064.85,376.8011 C1021,403.6511 971.8,433.7711 925.08,462.3711 " fill="none" id="ChangePostItController-to-Board" style="stroke:#181818;stroke-width:1.0;"/><polygon fill="#181818" points="920.57,465.1311,930.3325,463.83,924.8307,462.5146,926.1461,457.0128,920.57,465.1311" style="stroke:#181818;stroke-width:1.0;"/><text fill="#000000" font-family="sans-serif" font-size="13" lengthAdjust="spacing" textLength="52" x="1013" y="421.6494">theBoard</text></g><!--link ChangePostItController to PostIt--><g id="link_ChangePostItController_PostIt"><path codeLine="69" d="M1185.27,376.8011 C1180.18,399.9211 1174.57,425.4711 1169.09,450.3811 " fill="none" id="ChangePostItController-to-PostIt" style="stroke:#181818;stroke-width:1.0;"/><polygon fill="#181818" points="1168,455.3611,1173.835,447.4268,1169.071,450.4772,1166.0207,445.7132,1168,455.3611" style="stroke:#181818;stroke-width:1.0;"/><text fill="#000000" font-family="sans-serif" font-size="13" lengthAdjust="spacing" textLength="52" x="1179" y="421.6494">thePostIt</text></g><!--link CsvSharedBoardProtocolProxy to PostItRepository--><g id="link_CsvSharedBoardProtocolProxy_PostItRepository"><path codeLine="70" d="M1549,637.3611 C1549,682.4811 1549,744.4511 1549,785.7111 " fill="none" id="CsvSharedBoardProtocolProxy-to-PostItRepository" style="stroke:#181818;stroke-width:1.0;"/><polygon fill="#181818" points="1549,790.8811,1553,781.8811,1549,785.8811,1545,781.8811,1549,790.8811" style="stroke:#181818;stroke-width:1.0;"/><text fill="#000000" font-family="sans-serif" font-size="13" lengthAdjust="spacing" textLength="64" x="1550" y="747.6494">PostItRepo</text></g><!--link CsvSharedBoardProtocolProxy to BoardRepository--><g id="link_CsvSharedBoardProtocolProxy_BoardRepository"><path codeLine="71" d="M1472.19,637.2111 C1435.3,661.6111 1389.33,687.8411 1344,702.6211 C980.35,821.2311 865.7,727.8011 487,781.6211 C482.77,782.2211 478.5,782.8511 474.21,783.4911 " fill="none" id="CsvSharedBoardProtocolProxy-to-BoardRepository" style="stroke:#181818;stroke-width:1.0;"/><polygon fill="#181818" points="469.16,784.2611,478.6545,786.8791,474.1045,783.518,477.4656,778.9679,469.16,784.2611" style="stroke:#181818;stroke-width:1.0;"/><text fill="#000000" font-family="sans-serif" font-size="13" lengthAdjust="spacing" textLength="62" x="1223" y="747.6494">boardRepo</text></g><!--link SystemUser to Username--><g id="link_SystemUser_Username"><path codeLine="72" d="M1826.47,609.7211 C1827.22,656.0511 1828.65,745.4911 1829.44,794.8311 " fill="none" id="SystemUser-to-Username" style="stroke:#181818;stroke-width:1.0;"/><polygon fill="#181818" points="1829.53,800.0611,1833.3751,790.9939,1829.4443,795.0618,1825.3763,791.131,1829.53,800.0611" style="stroke:#181818;stroke-width:1.0;"/></g><!--link JpaBoardRepository to BoardRepository--><g id="link_JpaBoardRepository_BoardRepository"><path codeLine="73" d="M979.44,800.0111 C957.84,779.2411 926.23,753.5611 892.5,742.1211 C729.19,686.7511 674.73,714.5911 504.5,742.1211 C457.25,749.7611 407.05,764.5611 363.11,779.8911 " fill="none" id="JpaBoardRepository-to-BoardRepository" style="stroke:#181818;stroke-width:1.0;"/><polygon fill="#181818" points="358.33,781.5711,368.1464,782.3694,363.0486,779.9174,365.5006,774.8196,358.33,781.5711" style="stroke:#181818;stroke-width:1.0;"/></g><!--link InMemoryBoardRepository to BoardRepository--><g id="link_InMemoryBoardRepository_BoardRepository"><path codeLine="74" d="M1188.82,799.9311 C1163.22,779.1311 1126.26,753.4311 1088.5,742.1211 C964.18,704.8911 632.61,721.4011 504.5,742.1211 C457.25,749.7611 407.05,764.5611 363.11,779.8911 " fill="none" id="InMemoryBoardRepository-to-BoardRepository" style="stroke:#181818;stroke-width:1.0;"/><polygon fill="#181818" points="358.33,781.5711,368.1464,782.3694,363.0486,779.9174,365.5006,774.8196,358.33,781.5711" style="stroke:#181818;stroke-width:1.0;"/></g><!--link JpaPostItRepository to PostItRepository--><g id="link_JpaPostItRepository_PostItRepository"><path codeLine="75" d="M610.96,800.0211 C632.13,779.2611 663.18,753.5711 696.5,742.1211 C828.05,696.8911 1185.79,716.3611 1322.5,742.1211 C1371.24,751.3011 1422.94,770.6911 1464.62,788.9911 " fill="none" id="JpaPostItRepository-to-PostItRepository" style="stroke:#181818;stroke-width:1.0;"/><polygon fill="#181818" points="1469.4,791.1011,1462.7769,783.8117,1464.8245,789.085,1459.5512,791.1326,1469.4,791.1011" style="stroke:#181818;stroke-width:1.0;"/></g><!--link InMemoryPostItRepository to PostItRepository--><g id="link_InMemoryPostItRepository_PostItRepository"><path codeLine="76" d="M828.6,799.9411 C853.77,779.1411 890.17,753.4411 927.5,742.1211 C1095.5,691.1711 1149.98,709.6111 1322.5,742.1211 C1371.24,751.3011 1422.94,770.6911 1464.62,788.9911 " fill="none" id="InMemoryPostItRepository-to-PostItRepository" style="stroke:#181818;stroke-width:1.0;"/><polygon fill="#181818" points="1469.4,791.1011,1462.7769,783.8117,1464.8245,789.085,1459.5512,791.1326,1469.4,791.1011" style="stroke:#181818;stroke-width:1.0;"/></g><!--link ChangePostItUI to SystemUser--><g id="link_ChangePostItUI_SystemUser"><path codeLine="79" d="M1274.69,106.1011 C1337.62,125.0011 1430.53,157.9411 1502,204.6211 C1634.62,291.2211 1658.22,330.2311 1755,455.6211 C1776.49,483.4711 1796.14,518.4611 1809.29,543.9011 " fill="none" id="ChangePostItUI-to-SystemUser" style="stroke:#181818;stroke-width:1.0;stroke-dasharray:7.0,7.0;"/><polygon fill="#181818" points="1811.67,548.5411,1811.1096,538.7082,1809.3826,544.095,1803.9958,542.368,1811.67,548.5411" style="stroke:#181818;stroke-width:1.0;"/></g><!--link ChangePostItUI to Board--><g id="link_ChangePostItUI_Board"><path codeLine="80" d="M1133.49,99.2011 C1067.36,113.8211 969.41,144.4011 906,204.6211 C833.57,273.4111 789.48,378.8811 764.42,460.2211 " fill="none" id="ChangePostItUI-to-Board" style="stroke:#181818;stroke-width:1.0;stroke-dasharray:7.0,7.0;"/><polygon fill="#181818" points="762.95,465.0611,769.4183,457.6341,764.4194,460.2819,761.7716,455.283,762.95,465.0611" style="stroke:#181818;stroke-width:1.0;"/></g><!--SRC=[dLRVQzim47xNNo7eGntQG6633JSOrgI5Z6w4ELqVnXuK-v9es9QHbBHbz7_VMJySnx7JT7wnfRllVFVfEqcQwmpeE6DAqGbdAybo6emd0pga3p7zS7NrYP1pOmP54kCsNhDY1JEXz5G_JEbeL4fGK6YckIYYYFub59-pXH0Pi8Ac8bwBfs10NeaByBLaDuB9z0UKGd4jv4iL1AJYIaEHG1NZrVbEYs-GeyV900nkKtjFz5CG3c8IGNigSiPtvGwr8JAaiPQyMDcvHULxcq6ExDpp0cBGbGVeqKtB4Xq2nYBRv4KtnDeSw1xJ7DaA8bgQjpAMYwInKe78Klk5yUp79Kr4WHNgEkt1YRWCKyOXBqoCAXSxilZXc_W2dbfpxi-TtD0sZq6FjwE57j9ev6SNqFtuS0NRP5pxXSt1Ppd7xrYpl7GsenTKVLt6p4rux4i9jMsE0pUli5asoXjYCxAcYwtWAKrXYMNE96ovs2X7PBatR3DdS1BLlFNqd3d791CxoffpZrol9tov16buCjK7FPBenVcAWtvDUERZ5-od_461t6FVcoj3mN90O_3pafxTtNs- -NWre5kMRO2AnHz8T1IHZbseobsAB3E1MLbcFDdVZ2wc6YHRP63b4g60bVwIPMQagdfc87Ek588U9TSrNJNEzvS3tZxZ6zcnqohGQx0RGsWtY47NR_SqtSoWONXVA2_uZc3Mr1lEpjb6TKllPDO6N5ASwTivMYffHlN2U5VOIaGz6YBu1hba2T33mq3w0GVLl-hOLEdHLTzKsWnh9GwkcsKfXgrrIETUPXq7oHkfUM6vtDh2CblPVEzimQpgqsYijl6QIKXDCZCfj43UyFrS_JfHsz9DzPEoWl_h18ix9TysYUQhcydpxspBLwPvIUkUCHn6VKqVLbhQZKcFcubmXB2GbjNx6BonXOMqKiinPr-Uh_IORzq9TLUGOwdk80sjXOsfDz7j7WhjgMcmZIehLzyEfEFYTXY9z5tPEboxBciTbP7UUrgNCpcVG0b5YbStRBa36VrAcLf3-djlDOzvsRNx1m00]--></g></svg>