<?xml version="1.0" encoding="us-ascii" standalone="no"?><svg xmlns="http://www.w3.org/2000/svg" xmlns:xlink="http://www.w3.org/1999/xlink" contentStyleType="text/css" height="1726px" preserveAspectRatio="none" style="width:1878px;height:1726px;background:#FFFFFF;" version="1.1" viewBox="0 0 1878 1726" width="1878px" zoomAndPan="magnify"><defs/><g><text fill="#000000" font-family="sans-serif" font-size="14" font-weight="bold" lengthAdjust="spacing" textLength="233" x="824" y="30.1074">Sequence Diagram (SD) - US 3007</text><rect fill="#FFFFFF" height="1471.0664" style="stroke:#181818;stroke-width:1.0;" width="10" x="46.5" y="137.8633"/><rect fill="#FFFFFF" height="1447.7754" style="stroke:#181818;stroke-width:1.0;" width="10" x="487.5" y="161.1543"/><rect fill="#FFFFFF" height="31.291" style="stroke:#181818;stroke-width:1.0;" width="10" x="1039.5" y="223.7363"/><rect fill="#FFFFFF" height="31.291" style="stroke:#181818;stroke-width:1.0;" width="10" x="1039.5" y="424.4824"/><rect fill="#FFFFFF" height="31.291" style="stroke:#181818;stroke-width:1.0;" width="10" x="1039.5" y="793.3145"/><rect fill="#FFFFFF" height="31.291" style="stroke:#181818;stroke-width:1.0;" width="10" x="1039.5" y="962.7695"/><rect fill="#FFFFFF" height="125.1641" style="stroke:#181818;stroke-width:1.0;" width="10" x="1039.5" y="1272.3887"/><rect fill="#FFFFFF" height="125.1641" style="stroke:#181818;stroke-width:1.0;" width="10" x="1039.5" y="1445.4746"/><rect fill="#FFFFFF" height="31.291" style="stroke:#181818;stroke-width:1.0;" width="10" x="1284.5" y="255.0273"/><rect fill="#FFFFFF" height="31.291" style="stroke:#181818;stroke-width:1.0;" width="10" x="1284.5" y="455.7734"/><rect fill="#FFFFFF" height="31.291" style="stroke:#181818;stroke-width:1.0;" width="10" x="1284.5" y="1334.9707"/><rect fill="#FFFFFF" height="31.291" style="stroke:#181818;stroke-width:1.0;" width="10" x="1284.5" y="1508.0566"/><rect fill="none" height="437.4141" style="stroke:#000000;stroke-width:1.5;" width="1518" x="10" y="671.5195"/><rect fill="none" height="348.832" style="stroke:#000000;stroke-width:1.5;" width="1341" x="427" y="1229.8066"/><line style="stroke:#181818;stroke-width:0.5;stroke-dasharray:5.0,5.0;" x1="51" x2="51" y1="127.8633" y2="1626.9297"/><line style="stroke:#181818;stroke-width:0.5;stroke-dasharray:5.0,5.0;" x1="492" x2="492" y1="127.8633" y2="1626.9297"/><line style="stroke:#181818;stroke-width:0.5;stroke-dasharray:5.0,5.0;" x1="1044" x2="1044" y1="127.8633" y2="1626.9297"/><line style="stroke:#181818;stroke-width:0.5;stroke-dasharray:5.0,5.0;" x1="1289" x2="1289" y1="127.8633" y2="1626.9297"/><line style="stroke:#181818;stroke-width:0.5;stroke-dasharray:5.0,5.0;" x1="1461" x2="1461" y1="127.8633" y2="1626.9297"/><line style="stroke:#181818;stroke-width:0.5;stroke-dasharray:5.0,5.0;" x1="1582" x2="1582" y1="127.8633" y2="1626.9297"/><line style="stroke:#181818;stroke-width:0.5;stroke-dasharray:5.0,5.0;" x1="1702" x2="1702" y1="127.8633" y2="1626.9297"/><line style="stroke:#181818;stroke-width:0.5;stroke-dasharray:5.0,5.0;" x1="1822" x2="1822" y1="127.8633" y2="1626.9297"/><text fill="#000000" font-family="sans-serif" font-size="14" lengthAdjust="spacing" textLength="57" x="20" y="124.3496">Utilizador</text><ellipse cx="51.5" cy="57.7422" fill="#E3E3E3" rx="8" ry="8" style="stroke:#181818;stroke-width:0.5;"/><path d="M51.5,65.7422 L51.5,92.7422 M38.5,73.7422 L64.5,73.7422 M51.5,92.7422 L38.5,107.7422 M51.5,92.7422 L64.5,107.7422 " fill="none" style="stroke:#181818;stroke-width:0.5;"/><text fill="#000000" font-family="sans-serif" font-size="14" lengthAdjust="spacing" textLength="57" x="20" y="1641.0371">Utilizador</text><ellipse cx="51.5" cy="1653.0508" fill="#E3E3E3" rx="8" ry="8" style="stroke:#181818;stroke-width:0.5;"/><path d="M51.5,1661.0508 L51.5,1688.0508 M38.5,1669.0508 L64.5,1669.0508 M51.5,1688.0508 L38.5,1703.0508 M51.5,1688.0508 L64.5,1703.0508 " fill="none" style="stroke:#181818;stroke-width:0.5;"/><rect fill="#E3E3E3" height="51.2422" rx="2.5" ry="2.5" style="stroke:#181818;stroke-width:0.5;" width="111" x="437" y="75.6211"/><text fill="#000000" font-family="sans-serif" font-size="14" font-style="italic" lengthAdjust="spacing" textLength="95" x="445" y="97.7285">&#171;presentation&#187;</text><text fill="#000000" font-family="sans-serif" font-size="14" lengthAdjust="spacing" textLength="97" x="444" y="116.3496">ChangePostItUI</text><rect fill="#E3E3E3" height="51.2422" rx="2.5" ry="2.5" style="stroke:#181818;stroke-width:0.5;" width="111" x="437" y="1625.9297"/><text fill="#000000" font-family="sans-serif" font-size="14" font-style="italic" lengthAdjust="spacing" textLength="95" x="445" y="1648.0371">&#171;presentation&#187;</text><text fill="#000000" font-family="sans-serif" font-size="14" lengthAdjust="spacing" textLength="97" x="444" y="1666.6582">ChangePostItUI</text><text fill="#000000" font-family="sans-serif" font-size="14" font-style="italic" lengthAdjust="spacing" textLength="84" x="999.5" y="105.7285">&#171;application&#187;</text><text fill="#000000" font-family="sans-serif" font-size="14" lengthAdjust="spacing" textLength="147" x="968" y="124.3496">ChangePostItController</text><ellipse cx="1044.5" cy="74.6211" fill="#E3E3E3" rx="12" ry="12" style="stroke:#181818;stroke-width:0.5;"/><polygon fill="#181818" points="1040.5,62.6211,1046.5,57.6211,1044.5,62.6211,1046.5,67.6211,1040.5,62.6211" style="stroke:#181818;stroke-width:1.0;"/><text fill="#000000" font-family="sans-serif" font-size="14" font-style="italic" lengthAdjust="spacing" textLength="84" x="999.5" y="1641.0371">&#171;application&#187;</text><text fill="#000000" font-family="sans-serif" font-size="14" lengthAdjust="spacing" textLength="147" x="968" y="1659.6582">ChangePostItController</text><ellipse cx="1044.5" cy="1679.1719" fill="#E3E3E3" rx="12" ry="12" style="stroke:#181818;stroke-width:0.5;"/><polygon fill="#181818" points="1040.5,1667.1719,1046.5,1662.1719,1044.5,1667.1719,1046.5,1672.1719,1040.5,1667.1719" style="stroke:#181818;stroke-width:1.0;"/><rect fill="#E3E3E3" height="51.2422" rx="2.5" ry="2.5" style="stroke:#181818;stroke-width:0.5;" width="209" x="1185" y="75.6211"/><text fill="#000000" font-family="sans-serif" font-size="14" font-style="italic" lengthAdjust="spacing" textLength="87" x="1246" y="97.7285">&#171;csvprotocol&#187;</text><text fill="#000000" font-family="sans-serif" font-size="14" lengthAdjust="spacing" textLength="195" x="1192" y="116.3496">CsvSharedBoardProtocolProxy</text><rect fill="#E3E3E3" height="51.2422" rx="2.5" ry="2.5" style="stroke:#181818;stroke-width:0.5;" width="209" x="1185" y="1625.9297"/><text fill="#000000" font-family="sans-serif" font-size="14" font-style="italic" lengthAdjust="spacing" textLength="87" x="1246" y="1648.0371">&#171;csvprotocol&#187;</text><text fill="#000000" font-family="sans-serif" font-size="14" lengthAdjust="spacing" textLength="195" x="1192" y="1666.6582">CsvSharedBoardProtocolProxy</text><rect fill="#E3E3E3" height="51.2422" rx="2.5" ry="2.5" style="stroke:#181818;stroke-width:0.5;" width="114" x="1404" y="75.6211"/><text fill="#000000" font-family="sans-serif" font-size="14" font-style="italic" lengthAdjust="spacing" textLength="62" x="1430" y="97.7285">&#171;domain&#187;</text><text fill="#000000" font-family="sans-serif" font-size="14" lengthAdjust="spacing" textLength="100" x="1411" y="116.3496">theBoard:Board</text><rect fill="#E3E3E3" height="51.2422" rx="2.5" ry="2.5" style="stroke:#181818;stroke-width:0.5;" width="114" x="1404" y="1625.9297"/><text fill="#000000" font-family="sans-serif" font-size="14" font-style="italic" lengthAdjust="spacing" textLength="62" x="1430" y="1648.0371">&#171;domain&#187;</text><text fill="#000000" font-family="sans-serif" font-size="14" lengthAdjust="spacing" textLength="100" x="1411" y="1666.6582">theBoard:Board</text><rect fill="#E3E3E3" height="51.2422" rx="2.5" ry="2.5" style="stroke:#181818;stroke-width:0.5;" width="108" x="1528" y="75.6211"/><text fill="#000000" font-family="sans-serif" font-size="14" font-style="italic" lengthAdjust="spacing" textLength="62" x="1551" y="97.7285">&#171;domain&#187;</text><text fill="#000000" font-family="sans-serif" font-size="14" lengthAdjust="spacing" textLength="94" x="1535" y="116.3496">thePostIt:PostIt</text><rect fill="#E3E3E3" height="51.2422" rx="2.5" ry="2.5" style="stroke:#181818;stroke-width:0.5;" width="108" x="1528" y="1625.9297"/><text fill="#000000" font-family="sans-serif" font-size="14" font-style="italic" lengthAdjust="spacing" textLength="62" x="1551" y="1648.0371">&#171;domain&#187;</text><text fill="#000000" font-family="sans-serif" font-size="14" lengthAdjust="spacing" textLength="94" x="1535" y="1666.6582">thePostIt:PostIt</text><text fill="#000000" font-family="sans-serif" font-size="14" font-style="italic" lengthAdjust="spacing" textLength="79" x="1659.5" y="105.7285">&#171;repository&#187;</text><text fill="#000000" font-family="sans-serif" font-size="14" lengthAdjust="spacing" textLength="106" x="1646" y="124.3496">BoardRepository</text><path d="M1684,54.6211 C1684,44.6211 1702,44.6211 1702,44.6211 C1702,44.6211 1720,44.6211 1720,54.6211 L1720,80.6211 C1720,90.6211 1702,90.6211 1702,90.6211 C1702,90.6211 1684,90.6211 1684,80.6211 L1684,54.6211 " fill="#E3E3E3" style="stroke:#181818;stroke-width:1.5;"/><path d="M1684,54.6211 C1684,64.6211 1702,64.6211 1702,64.6211 C1702,64.6211 1720,64.6211 1720,54.6211 " fill="none" style="stroke:#181818;stroke-width:1.5;"/><text fill="#000000" font-family="sans-serif" font-size="14" font-style="italic" lengthAdjust="spacing" textLength="79" x="1659.5" y="1641.0371">&#171;repository&#187;</text><text fill="#000000" font-family="sans-serif" font-size="14" lengthAdjust="spacing" textLength="106" x="1646" y="1659.6582">BoardRepository</text><path d="M1684,1673.1719 C1684,1663.1719 1702,1663.1719 1702,1663.1719 C1702,1663.1719 1720,1663.1719 1720,1673.1719 L1720,1699.1719 C1720,1709.1719 1702,1709.1719 1702,1709.1719 C1702,1709.1719 1684,1709.1719 1684,1699.1719 L1684,1673.1719 " fill="#E3E3E3" style="stroke:#181818;stroke-width:1.5;"/><path d="M1684,1673.1719 C1684,1683.1719 1702,1683.1719 1702,1683.1719 C1702,1683.1719 1720,1683.1719 1720,1673.1719 " fill="none" style="stroke:#181818;stroke-width:1.5;"/><text fill="#000000" font-family="sans-serif" font-size="14" font-style="italic" lengthAdjust="spacing" textLength="79" x="1780" y="105.7285">&#171;repository&#187;</text><text fill="#000000" font-family="sans-serif" font-size="14" lengthAdjust="spacing" textLength="103" x="1768" y="124.3496">PostItRepository</text><path d="M1804.5,54.6211 C1804.5,44.6211 1822.5,44.6211 1822.5,44.6211 C1822.5,44.6211 1840.5,44.6211 1840.5,54.6211 L1840.5,80.6211 C1840.5,90.6211 1822.5,90.6211 1822.5,90.6211 C1822.5,90.6211 1804.5,90.6211 1804.5,80.6211 L1804.5,54.6211 " fill="#E3E3E3" style="stroke:#181818;stroke-width:1.5;"/><path d="M1804.5,54.6211 C1804.5,64.6211 1822.5,64.6211 1822.5,64.6211 C1822.5,64.6211 1840.5,64.6211 1840.5,54.6211 " fill="none" style="stroke:#181818;stroke-width:1.5;"/><text fill="#000000" font-family="sans-serif" font-size="14" font-style="italic" lengthAdjust="spacing" textLength="79" x="1780" y="1641.0371">&#171;repository&#187;</text><text fill="#000000" font-family="sans-serif" font-size="14" lengthAdjust="spacing" textLength="103" x="1768" y="1659.6582">PostItRepository</text><path d="M1804.5,1673.1719 C1804.5,1663.1719 1822.5,1663.1719 1822.5,1663.1719 C1822.5,1663.1719 1840.5,1663.1719 1840.5,1673.1719 L1840.5,1699.1719 C1840.5,1709.1719 1822.5,1709.1719 1822.5,1709.1719 C1822.5,1709.1719 1804.5,1709.1719 1804.5,1699.1719 L1804.5,1673.1719 " fill="#E3E3E3" style="stroke:#181818;stroke-width:1.5;"/><path d="M1804.5,1673.1719 C1804.5,1683.1719 1822.5,1683.1719 1822.5,1683.1719 C1822.5,1683.1719 1840.5,1683.1719 1840.5,1673.1719 " fill="none" style="stroke:#181818;stroke-width:1.5;"/><rect fill="#FFFFFF" height="1471.0664" style="stroke:#181818;stroke-width:1.0;" width="10" x="46.5" y="137.8633"/><rect fill="#FFFFFF" height="1447.7754" style="stroke:#181818;stroke-width:1.0;" width="10" x="487.5" y="161.1543"/><rect fill="#FFFFFF" height="31.291" style="stroke:#181818;stroke-width:1.0;" width="10" x="1039.5" y="223.7363"/><rect fill="#FFFFFF" height="31.291" style="stroke:#181818;stroke-width:1.0;" width="10" x="1039.5" y="424.4824"/><rect fill="#FFFFFF" height="31.291" style="stroke:#181818;stroke-width:1.0;" width="10" x="1039.5" y="793.3145"/><rect fill="#FFFFFF" height="31.291" style="stroke:#181818;stroke-width:1.0;" width="10" x="1039.5" y="962.7695"/><rect fill="#FFFFFF" height="125.1641" style="stroke:#181818;stroke-width:1.0;" width="10" x="1039.5" y="1272.3887"/><rect fill="#FFFFFF" height="125.1641" style="stroke:#181818;stroke-width:1.0;" width="10" x="1039.5" y="1445.4746"/><rect fill="#FFFFFF" height="31.291" style="stroke:#181818;stroke-width:1.0;" width="10" x="1284.5" y="255.0273"/><rect fill="#FFFFFF" height="31.291" style="stroke:#181818;stroke-width:1.0;" width="10" x="1284.5" y="455.7734"/><rect fill="#FFFFFF" height="31.291" style="stroke:#181818;stroke-width:1.0;" width="10" x="1284.5" y="1334.9707"/><rect fill="#FFFFFF" height="31.291" style="stroke:#181818;stroke-width:1.0;" width="10" x="1284.5" y="1508.0566"/><polygon fill="#181818" points="475.5,157.1543,485.5,161.1543,475.5,165.1543,479.5,161.1543" style="stroke:#181818;stroke-width:1.0;"/><line style="stroke:#181818;stroke-width:1.0;" x1="56.5" x2="481.5" y1="161.1543" y2="161.1543"/><text fill="#000000" font-family="sans-serif" font-size="13" font-weight="bold" lengthAdjust="spacing" textLength="7" x="63.5" y="155.8916">1</text><text fill="#000000" font-family="sans-serif" font-size="13" lengthAdjust="spacing" textLength="277" x="74.5" y="155.8916">Pede para mudar um post-it num quadro (board)</text><polygon fill="#181818" points="1032.5,188.4453,1042.5,192.4453,1032.5,196.4453,1036.5,192.4453" style="stroke:#181818;stroke-width:1.0;"/><line style="stroke:#181818;stroke-width:1.0;" x1="497.5" x2="1038.5" y1="192.4453" y2="192.4453"/><text fill="#000000" font-family="sans-serif" font-size="13" font-weight="bold" lengthAdjust="spacing" textLength="7" x="504.5" y="187.1826">2</text><text fill="#000000" font-family="sans-serif" font-size="13" lengthAdjust="spacing" textLength="36" x="515.5" y="187.1826">create</text><polygon fill="#181818" points="1027.5,219.7363,1037.5,223.7363,1027.5,227.7363,1031.5,223.7363" style="stroke:#181818;stroke-width:1.0;"/><line style="stroke:#181818;stroke-width:1.0;" x1="497.5" x2="1033.5" y1="223.7363" y2="223.7363"/><text fill="#000000" font-family="sans-serif" font-size="13" font-weight="bold" lengthAdjust="spacing" textLength="7" x="504.5" y="218.4736">3</text><text fill="#000000" font-family="sans-serif" font-size="13" lengthAdjust="spacing" textLength="204" x="515.5" y="218.4736">listAllBoardsWithPermissionWrite()</text><polygon fill="#181818" points="1272.5,251.0273,1282.5,255.0273,1272.5,259.0273,1276.5,255.0273" style="stroke:#181818;stroke-width:1.0;"/><line style="stroke:#181818;stroke-width:1.0;" x1="1044.5" x2="1278.5" y1="255.0273" y2="255.0273"/><text fill="#000000" font-family="sans-serif" font-size="13" font-weight="bold" lengthAdjust="spacing" textLength="7" x="1051.5" y="249.7646">4</text><text fill="#000000" font-family="sans-serif" font-size="13" lengthAdjust="spacing" textLength="205" x="1062.5" y="249.7646">getAllBoardsWithPermissionWrite()</text><polygon fill="#181818" points="1690,282.3184,1700,286.3184,1690,290.3184,1694,286.3184" style="stroke:#181818;stroke-width:1.0;"/><line style="stroke:#181818;stroke-width:1.0;" x1="1289.5" x2="1696" y1="286.3184" y2="286.3184"/><text fill="#000000" font-family="sans-serif" font-size="13" font-weight="bold" lengthAdjust="spacing" textLength="7" x="1296.5" y="281.0557">5</text><text fill="#000000" font-family="sans-serif" font-size="13" lengthAdjust="spacing" textLength="232" x="1307.5" y="281.0557">findAllBoardsWithPermissionWrite(user)</text><line style="stroke:#181818;stroke-width:1.0;stroke-dasharray:2.0,2.0;" x1="497.5" x2="539.5" y1="317.6094" y2="317.6094"/><line style="stroke:#181818;stroke-width:1.0;stroke-dasharray:2.0,2.0;" x1="539.5" x2="539.5" y1="317.6094" y2="330.6094"/><line style="stroke:#181818;stroke-width:1.0;stroke-dasharray:2.0,2.0;" x1="498.5" x2="539.5" y1="330.6094" y2="330.6094"/><polygon fill="#181818" points="508.5,326.6094,498.5,330.6094,508.5,334.6094,504.5,330.6094" style="stroke:#181818;stroke-width:1.0;"/><text fill="#000000" font-family="sans-serif" font-size="13" font-weight="bold" lengthAdjust="spacing" textLength="7" x="504.5" y="312.3467">6</text><text fill="#000000" font-family="sans-serif" font-size="13" lengthAdjust="spacing" textLength="517" x="515.5" y="312.3467">Mostra a lista de quadros ativos em que o utilizador &#233; dono ou tem permiss&#245;es de escrita</text><polygon fill="#181818" points="67.5,357.9004,57.5,361.9004,67.5,365.9004,63.5,361.9004" style="stroke:#181818;stroke-width:1.0;"/><line style="stroke:#181818;stroke-width:1.0;stroke-dasharray:2.0,2.0;" x1="61.5" x2="486.5" y1="361.9004" y2="361.9004"/><text fill="#000000" font-family="sans-serif" font-size="13" font-weight="bold" lengthAdjust="spacing" textLength="7" x="73.5" y="356.6377">7</text><text fill="#000000" font-family="sans-serif" font-size="13" lengthAdjust="spacing" textLength="268" x="84.5" y="356.6377">Pede para escolher o quadro a mudar o post-it</text><polygon fill="#181818" points="475.5,389.1914,485.5,393.1914,475.5,397.1914,479.5,393.1914" style="stroke:#181818;stroke-width:1.0;"/><line style="stroke:#181818;stroke-width:1.0;" x1="56.5" x2="481.5" y1="393.1914" y2="393.1914"/><text fill="#000000" font-family="sans-serif" font-size="13" font-weight="bold" lengthAdjust="spacing" textLength="7" x="63.5" y="387.9287">8</text><text fill="#000000" font-family="sans-serif" font-size="13" lengthAdjust="spacing" textLength="219" x="74.5" y="387.9287">Escolhe o quadro a modificar o post-it</text><polygon fill="#181818" points="1027.5,420.4824,1037.5,424.4824,1027.5,428.4824,1031.5,424.4824" style="stroke:#181818;stroke-width:1.0;"/><line style="stroke:#181818;stroke-width:1.0;" x1="497.5" x2="1033.5" y1="424.4824" y2="424.4824"/><text fill="#000000" font-family="sans-serif" font-size="13" font-weight="bold" lengthAdjust="spacing" textLength="7" x="504.5" y="419.2197">9</text><text fill="#000000" font-family="sans-serif" font-size="13" lengthAdjust="spacing" textLength="180" x="515.5" y="419.2197">listAllExistingPostIts(theBoard)</text><polygon fill="#181818" points="1272.5,451.7734,1282.5,455.7734,1272.5,459.7734,1276.5,455.7734" style="stroke:#181818;stroke-width:1.0;"/><line style="stroke:#181818;stroke-width:1.0;" x1="1044.5" x2="1278.5" y1="455.7734" y2="455.7734"/><text fill="#000000" font-family="sans-serif" font-size="13" font-weight="bold" lengthAdjust="spacing" textLength="14" x="1051.5" y="450.5107">10</text><text fill="#000000" font-family="sans-serif" font-size="13" lengthAdjust="spacing" textLength="150" x="1069.5" y="450.5107">getAllExistingPostIts(title)</text><polygon fill="#181818" points="1810.5,483.0645,1820.5,487.0645,1810.5,491.0645,1814.5,487.0645" style="stroke:#181818;stroke-width:1.0;"/><line style="stroke:#181818;stroke-width:1.0;" x1="1289.5" x2="1816.5" y1="487.0645" y2="487.0645"/><text fill="#000000" font-family="sans-serif" font-size="13" font-weight="bold" lengthAdjust="spacing" textLength="14" x="1296.5" y="481.8018">11</text><text fill="#000000" font-family="sans-serif" font-size="13" lengthAdjust="spacing" textLength="152" x="1314.5" y="481.8018">findAllExistingPostIts(title)</text><line style="stroke:#181818;stroke-width:1.0;stroke-dasharray:2.0,2.0;" x1="497.5" x2="539.5" y1="518.3555" y2="518.3555"/><line style="stroke:#181818;stroke-width:1.0;stroke-dasharray:2.0,2.0;" x1="539.5" x2="539.5" y1="518.3555" y2="531.3555"/><line style="stroke:#181818;stroke-width:1.0;stroke-dasharray:2.0,2.0;" x1="498.5" x2="539.5" y1="531.3555" y2="531.3555"/><polygon fill="#181818" points="508.5,527.3555,498.5,531.3555,508.5,535.3555,504.5,531.3555" style="stroke:#181818;stroke-width:1.0;"/><text fill="#000000" font-family="sans-serif" font-size="13" font-weight="bold" lengthAdjust="spacing" textLength="14" x="504.5" y="513.0928">12</text><text fill="#000000" font-family="sans-serif" font-size="13" lengthAdjust="spacing" textLength="278" x="522.5" y="513.0928">Mostra a lista de post-its do quadro selecionado</text><polygon fill="#181818" points="67.5,558.6465,57.5,562.6465,67.5,566.6465,63.5,562.6465" style="stroke:#181818;stroke-width:1.0;"/><line style="stroke:#181818;stroke-width:1.0;stroke-dasharray:2.0,2.0;" x1="61.5" x2="486.5" y1="562.6465" y2="562.6465"/><text fill="#000000" font-family="sans-serif" font-size="13" font-weight="bold" lengthAdjust="spacing" textLength="14" x="73.5" y="557.3838">13</text><text fill="#000000" font-family="sans-serif" font-size="13" lengthAdjust="spacing" textLength="230" x="91.5" y="557.3838">Pede para escolher o post-it a modificar</text><polygon fill="#181818" points="475.5,589.9375,485.5,593.9375,475.5,597.9375,479.5,593.9375" style="stroke:#181818;stroke-width:1.0;"/><line style="stroke:#181818;stroke-width:1.0;" x1="56.5" x2="481.5" y1="593.9375" y2="593.9375"/><text fill="#000000" font-family="sans-serif" font-size="13" font-weight="bold" lengthAdjust="spacing" textLength="14" x="63.5" y="588.6748">14</text><text fill="#000000" font-family="sans-serif" font-size="13" lengthAdjust="spacing" textLength="165" x="81.5" y="588.6748">Escolhe o post-it a modificar</text><polygon fill="#181818" points="67.5,621.2285,57.5,625.2285,67.5,629.2285,63.5,625.2285" style="stroke:#181818;stroke-width:1.0;"/><line style="stroke:#181818;stroke-width:1.0;stroke-dasharray:2.0,2.0;" x1="61.5" x2="486.5" y1="625.2285" y2="625.2285"/><text fill="#000000" font-family="sans-serif" font-size="13" font-weight="bold" lengthAdjust="spacing" textLength="14" x="73.5" y="619.9658">15</text><text fill="#000000" font-family="sans-serif" font-size="13" lengthAdjust="spacing" textLength="389" x="91.5" y="619.9658">Pede para escolher entre mudar o conte&#250;do ou a posi&#231;&#227;o do post-it</text><polygon fill="#181818" points="475.5,652.5195,485.5,656.5195,475.5,660.5195,479.5,656.5195" style="stroke:#181818;stroke-width:1.0;"/><line style="stroke:#181818;stroke-width:1.0;" x1="56.5" x2="481.5" y1="656.5195" y2="656.5195"/><text fill="#000000" font-family="sans-serif" font-size="13" font-weight="bold" lengthAdjust="spacing" textLength="14" x="63.5" y="651.2568">16</text><text fill="#000000" font-family="sans-serif" font-size="13" lengthAdjust="spacing" textLength="161" x="81.5" y="651.2568">Escolhe a op&#231;&#227;o pretendida</text><path d="M10,671.5195 L71,671.5195 L71,680.8105 L61,690.8105 L10,690.8105 L10,671.5195 " fill="#EEEEEE" style="stroke:#000000;stroke-width:1.5;"/><rect fill="none" height="437.4141" style="stroke:#000000;stroke-width:1.5;" width="1518" x="10" y="671.5195"/><text fill="#000000" font-family="sans-serif" font-size="13" font-weight="bold" lengthAdjust="spacing" textLength="16" x="25" y="686.5479">alt</text><text fill="#000000" font-family="sans-serif" font-size="11" font-weight="bold" lengthAdjust="spacing" textLength="194" x="86" y="685.3896">[Op&#231;&#227;o: Mudar conte&#250;do do post-it]</text><polygon fill="#181818" points="67.5,710.1016,57.5,714.1016,67.5,718.1016,63.5,714.1016" style="stroke:#181818;stroke-width:1.0;"/><line style="stroke:#181818;stroke-width:1.0;stroke-dasharray:2.0,2.0;" x1="61.5" x2="486.5" y1="714.1016" y2="714.1016"/><text fill="#000000" font-family="sans-serif" font-size="13" font-weight="bold" lengthAdjust="spacing" textLength="14" x="73.5" y="708.8389">17</text><text fill="#000000" font-family="sans-serif" font-size="13" lengthAdjust="spacing" textLength="254" x="91.5" y="708.8389">Pede para inserir o novo conte&#250;do do post-it</text><polygon fill="#181818" points="475.5,741.3926,485.5,745.3926,475.5,749.3926,479.5,745.3926" style="stroke:#181818;stroke-width:1.0;"/><line style="stroke:#181818;stroke-width:1.0;" x1="56.5" x2="481.5" y1="745.3926" y2="745.3926"/><text fill="#000000" font-family="sans-serif" font-size="13" font-weight="bold" lengthAdjust="spacing" textLength="14" x="63.5" y="740.1299">18</text><text fill="#000000" font-family="sans-serif" font-size="13" lengthAdjust="spacing" textLength="191" x="81.5" y="740.1299">Insere o novo conte&#250;do do post-it</text><line style="stroke:#000000;stroke-width:1.0;stroke-dasharray:2.0,2.0;" x1="10" x2="1528" y1="754.3926" y2="754.3926"/><text fill="#000000" font-family="sans-serif" font-size="11" font-weight="bold" lengthAdjust="spacing" textLength="185" x="15" y="766.2627">[Op&#231;&#227;o: Mudar posi&#231;&#227;o do post-it]</text><polygon fill="#181818" points="1027.5,789.3145,1037.5,793.3145,1027.5,797.3145,1031.5,793.3145" style="stroke:#181818;stroke-width:1.0;"/><line style="stroke:#181818;stroke-width:1.0;" x1="497.5" x2="1033.5" y1="793.3145" y2="793.3145"/><text fill="#000000" font-family="sans-serif" font-size="13" font-weight="bold" lengthAdjust="spacing" textLength="14" x="504.5" y="788.0518">19</text><text fill="#000000" font-family="sans-serif" font-size="13" lengthAdjust="spacing" textLength="205" x="522.5" y="788.0518">listAllBoardElementLines(theBoard)</text><polygon fill="#181818" points="1449,820.6055,1459,824.6055,1449,828.6055,1453,824.6055" style="stroke:#181818;stroke-width:1.0;"/><line style="stroke:#181818;stroke-width:1.0;" x1="1044.5" x2="1455" y1="824.6055" y2="824.6055"/><text fill="#000000" font-family="sans-serif" font-size="13" font-weight="bold" lengthAdjust="spacing" textLength="14" x="1051.5" y="819.3428">20</text><text fill="#000000" font-family="sans-serif" font-size="13" lengthAdjust="spacing" textLength="112" x="1069.5" y="819.3428">boardElementLine()</text><line style="stroke:#181818;stroke-width:1.0;stroke-dasharray:2.0,2.0;" x1="497.5" x2="539.5" y1="855.8965" y2="855.8965"/><line style="stroke:#181818;stroke-width:1.0;stroke-dasharray:2.0,2.0;" x1="539.5" x2="539.5" y1="855.8965" y2="868.8965"/><line style="stroke:#181818;stroke-width:1.0;stroke-dasharray:2.0,2.0;" x1="498.5" x2="539.5" y1="868.8965" y2="868.8965"/><polygon fill="#181818" points="508.5,864.8965,498.5,868.8965,508.5,872.8965,504.5,868.8965" style="stroke:#181818;stroke-width:1.0;"/><text fill="#000000" font-family="sans-serif" font-size="13" font-weight="bold" lengthAdjust="spacing" textLength="14" x="504.5" y="850.6338">21</text><text fill="#000000" font-family="sans-serif" font-size="13" lengthAdjust="spacing" textLength="196" x="522.5" y="850.6338">Mostra a lista de linhas do quadro</text><polygon fill="#181818" points="67.5,896.1875,57.5,900.1875,67.5,904.1875,63.5,900.1875" style="stroke:#181818;stroke-width:1.0;"/><line style="stroke:#181818;stroke-width:1.0;stroke-dasharray:2.0,2.0;" x1="61.5" x2="486.5" y1="900.1875" y2="900.1875"/><text fill="#000000" font-family="sans-serif" font-size="13" font-weight="bold" lengthAdjust="spacing" textLength="14" x="73.5" y="894.9248">22</text><text fill="#000000" font-family="sans-serif" font-size="13" lengthAdjust="spacing" textLength="309" x="91.5" y="894.9248">Pede para escolher a nova linha da posi&#231;&#227;o do post-it</text><polygon fill="#181818" points="475.5,927.4785,485.5,931.4785,475.5,935.4785,479.5,931.4785" style="stroke:#181818;stroke-width:1.0;"/><line style="stroke:#181818;stroke-width:1.0;" x1="56.5" x2="481.5" y1="931.4785" y2="931.4785"/><text fill="#000000" font-family="sans-serif" font-size="13" font-weight="bold" lengthAdjust="spacing" textLength="14" x="63.5" y="926.2158">23</text><text fill="#000000" font-family="sans-serif" font-size="13" lengthAdjust="spacing" textLength="244" x="81.5" y="926.2158">Escolhe a nova linha da posi&#231;&#227;o do post-it</text><polygon fill="#181818" points="1027.5,958.7695,1037.5,962.7695,1027.5,966.7695,1031.5,962.7695" style="stroke:#181818;stroke-width:1.0;"/><line style="stroke:#181818;stroke-width:1.0;" x1="497.5" x2="1033.5" y1="962.7695" y2="962.7695"/><text fill="#000000" font-family="sans-serif" font-size="13" font-weight="bold" lengthAdjust="spacing" textLength="14" x="504.5" y="957.5068">24</text><text fill="#000000" font-family="sans-serif" font-size="13" lengthAdjust="spacing" textLength="225" x="522.5" y="957.5068">listAllBoardElementColumns(theBoard)</text><polygon fill="#181818" points="1449,990.0605,1459,994.0605,1449,998.0605,1453,994.0605" style="stroke:#181818;stroke-width:1.0;"/><line style="stroke:#181818;stroke-width:1.0;" x1="1044.5" x2="1455" y1="994.0605" y2="994.0605"/><text fill="#000000" font-family="sans-serif" font-size="13" font-weight="bold" lengthAdjust="spacing" textLength="14" x="1051.5" y="988.7979">25</text><text fill="#000000" font-family="sans-serif" font-size="13" lengthAdjust="spacing" textLength="132" x="1069.5" y="988.7979">boardElementColumn()</text><line style="stroke:#181818;stroke-width:1.0;stroke-dasharray:2.0,2.0;" x1="497.5" x2="539.5" y1="1025.3516" y2="1025.3516"/><line style="stroke:#181818;stroke-width:1.0;stroke-dasharray:2.0,2.0;" x1="539.5" x2="539.5" y1="1025.3516" y2="1038.3516"/><line style="stroke:#181818;stroke-width:1.0;stroke-dasharray:2.0,2.0;" x1="498.5" x2="539.5" y1="1038.3516" y2="1038.3516"/><polygon fill="#181818" points="508.5,1034.3516,498.5,1038.3516,508.5,1042.3516,504.5,1038.3516" style="stroke:#181818;stroke-width:1.0;"/><text fill="#000000" font-family="sans-serif" font-size="13" font-weight="bold" lengthAdjust="spacing" textLength="14" x="504.5" y="1020.0889">26</text><text fill="#000000" font-family="sans-serif" font-size="13" lengthAdjust="spacing" textLength="207" x="522.5" y="1020.0889">Mostra a lista de colunas do quadro</text><polygon fill="#181818" points="67.5,1065.6426,57.5,1069.6426,67.5,1073.6426,63.5,1069.6426" style="stroke:#181818;stroke-width:1.0;"/><line style="stroke:#181818;stroke-width:1.0;stroke-dasharray:2.0,2.0;" x1="61.5" x2="486.5" y1="1069.6426" y2="1069.6426"/><text fill="#000000" font-family="sans-serif" font-size="13" font-weight="bold" lengthAdjust="spacing" textLength="14" x="73.5" y="1064.3799">27</text><text fill="#000000" font-family="sans-serif" font-size="13" lengthAdjust="spacing" textLength="320" x="91.5" y="1064.3799">Pede para escolher a nova coluna da posi&#231;&#227;o do post-it</text><polygon fill="#181818" points="475.5,1096.9336,485.5,1100.9336,475.5,1104.9336,479.5,1100.9336" style="stroke:#181818;stroke-width:1.0;"/><line style="stroke:#181818;stroke-width:1.0;" x1="56.5" x2="481.5" y1="1100.9336" y2="1100.9336"/><text fill="#000000" font-family="sans-serif" font-size="13" font-weight="bold" lengthAdjust="spacing" textLength="14" x="63.5" y="1095.6709">28</text><text fill="#000000" font-family="sans-serif" font-size="13" lengthAdjust="spacing" textLength="255" x="81.5" y="1095.6709">Escolhe a nova coluna da posi&#231;&#227;o do post-it</text><line style="stroke:#181818;stroke-width:1.0;stroke-dasharray:2.0,2.0;" x1="497.5" x2="539.5" y1="1139.2246" y2="1139.2246"/><line style="stroke:#181818;stroke-width:1.0;stroke-dasharray:2.0,2.0;" x1="539.5" x2="539.5" y1="1139.2246" y2="1152.2246"/><line style="stroke:#181818;stroke-width:1.0;stroke-dasharray:2.0,2.0;" x1="498.5" x2="539.5" y1="1152.2246" y2="1152.2246"/><polygon fill="#181818" points="508.5,1148.2246,498.5,1152.2246,508.5,1156.2246,504.5,1152.2246" style="stroke:#181818;stroke-width:1.0;"/><text fill="#000000" font-family="sans-serif" font-size="13" font-weight="bold" lengthAdjust="spacing" textLength="14" x="504.5" y="1133.9619">29</text><text fill="#000000" font-family="sans-serif" font-size="13" lengthAdjust="spacing" textLength="242" x="522.5" y="1133.9619">Mostra a informa&#231;&#227;o do post-it modificado</text><polygon fill="#181818" points="67.5,1179.5156,57.5,1183.5156,67.5,1187.5156,63.5,1183.5156" style="stroke:#181818;stroke-width:1.0;"/><line style="stroke:#181818;stroke-width:1.0;stroke-dasharray:2.0,2.0;" x1="61.5" x2="486.5" y1="1183.5156" y2="1183.5156"/><text fill="#000000" font-family="sans-serif" font-size="13" font-weight="bold" lengthAdjust="spacing" textLength="14" x="73.5" y="1178.2529">30</text><text fill="#000000" font-family="sans-serif" font-size="13" lengthAdjust="spacing" textLength="179" x="91.5" y="1178.2529">Pede confirma&#231;&#227;o da opera&#231;&#227;o</text><polygon fill="#181818" points="475.5,1210.8066,485.5,1214.8066,475.5,1218.8066,479.5,1214.8066" style="stroke:#181818;stroke-width:1.0;"/><line style="stroke:#181818;stroke-width:1.0;" x1="56.5" x2="481.5" y1="1214.8066" y2="1214.8066"/><text fill="#000000" font-family="sans-serif" font-size="13" font-weight="bold" lengthAdjust="spacing" textLength="14" x="63.5" y="1209.5439">31</text><text fill="#000000" font-family="sans-serif" font-size="13" lengthAdjust="spacing" textLength="119" x="81.5" y="1209.5439">Confirma a opera&#231;&#227;o</text><path d="M427,1229.8066 L488,1229.8066 L488,1239.0977 L478,1249.0977 L427,1249.0977 L427,1229.8066 " fill="#EEEEEE" style="stroke:#000000;stroke-width:1.5;"/><rect fill="none" height="348.832" style="stroke:#000000;stroke-width:1.5;" width="1341" x="427" y="1229.8066"/><text fill="#000000" font-family="sans-serif" font-size="13" font-weight="bold" lengthAdjust="spacing" textLength="16" x="442" y="1244.835">alt</text><text fill="#000000" font-family="sans-serif" font-size="11" font-weight="bold" lengthAdjust="spacing" textLength="194" x="503" y="1243.6768">[Op&#231;&#227;o: Mudar conte&#250;do do post-it]</text><polygon fill="#181818" points="1027.5,1268.3887,1037.5,1272.3887,1027.5,1276.3887,1031.5,1272.3887" style="stroke:#181818;stroke-width:1.0;"/><line style="stroke:#181818;stroke-width:1.0;" x1="497.5" x2="1033.5" y1="1272.3887" y2="1272.3887"/><text fill="#000000" font-family="sans-serif" font-size="13" font-weight="bold" lengthAdjust="spacing" textLength="14" x="504.5" y="1267.126">32</text><text fill="#000000" font-family="sans-serif" font-size="13" lengthAdjust="spacing" textLength="292" x="522.5" y="1267.126">changeContentPostIt(theBoard, thePostIt, content)</text><polygon fill="#181818" points="1449,1299.6797,1459,1303.6797,1449,1307.6797,1453,1303.6797" style="stroke:#181818;stroke-width:1.0;"/><line style="stroke:#181818;stroke-width:1.0;" x1="1049.5" x2="1455" y1="1303.6797" y2="1303.6797"/><text fill="#000000" font-family="sans-serif" font-size="13" font-weight="bold" lengthAdjust="spacing" textLength="14" x="1056.5" y="1298.417">33</text><text fill="#000000" font-family="sans-serif" font-size="13" lengthAdjust="spacing" textLength="187" x="1074.5" y="1298.417">changePostIt(thePostIt, content)</text><polygon fill="#181818" points="1272.5,1330.9707,1282.5,1334.9707,1272.5,1338.9707,1276.5,1334.9707" style="stroke:#181818;stroke-width:1.0;"/><line style="stroke:#181818;stroke-width:1.0;" x1="1049.5" x2="1278.5" y1="1334.9707" y2="1334.9707"/><text fill="#000000" font-family="sans-serif" font-size="13" font-weight="bold" lengthAdjust="spacing" textLength="14" x="1056.5" y="1329.708">34</text><text fill="#000000" font-family="sans-serif" font-size="13" lengthAdjust="spacing" textLength="120" x="1074.5" y="1329.708">saveBoard(theBoard)</text><polygon fill="#181818" points="1690,1362.2617,1700,1366.2617,1690,1370.2617,1694,1366.2617" style="stroke:#181818;stroke-width:1.0;"/><line style="stroke:#181818;stroke-width:1.0;" x1="1289.5" x2="1696" y1="1366.2617" y2="1366.2617"/><text fill="#000000" font-family="sans-serif" font-size="13" font-weight="bold" lengthAdjust="spacing" textLength="14" x="1296.5" y="1360.999">35</text><text fill="#000000" font-family="sans-serif" font-size="13" lengthAdjust="spacing" textLength="86" x="1314.5" y="1360.999">save(theBoard)</text><polygon fill="#181818" points="508.5,1393.5527,498.5,1397.5527,508.5,1401.5527,504.5,1397.5527" style="stroke:#181818;stroke-width:1.0;"/><line style="stroke:#181818;stroke-width:1.0;stroke-dasharray:2.0,2.0;" x1="502.5" x2="1043.5" y1="1397.5527" y2="1397.5527"/><text fill="#000000" font-family="sans-serif" font-size="13" font-weight="bold" lengthAdjust="spacing" textLength="14" x="514.5" y="1392.29">36</text><text fill="#000000" font-family="sans-serif" font-size="13" lengthAdjust="spacing" textLength="52" x="532.5" y="1392.29">theBoard</text><line style="stroke:#000000;stroke-width:1.0;stroke-dasharray:2.0,2.0;" x1="427" x2="1768" y1="1406.5527" y2="1406.5527"/><text fill="#000000" font-family="sans-serif" font-size="11" font-weight="bold" lengthAdjust="spacing" textLength="185" x="432" y="1418.4229">[Op&#231;&#227;o: Mudar posi&#231;&#227;o do post-it]</text><polygon fill="#181818" points="1027.5,1441.4746,1037.5,1445.4746,1027.5,1449.4746,1031.5,1445.4746" style="stroke:#181818;stroke-width:1.0;"/><line style="stroke:#181818;stroke-width:1.0;" x1="497.5" x2="1033.5" y1="1445.4746" y2="1445.4746"/><text fill="#000000" font-family="sans-serif" font-size="13" font-weight="bold" lengthAdjust="spacing" textLength="14" x="504.5" y="1440.2119">37</text><text fill="#000000" font-family="sans-serif" font-size="13" lengthAdjust="spacing" textLength="321" x="522.5" y="1440.2119">changePositionPostIt(theBoard, thePostIt, line, column)</text><polygon fill="#181818" points="1449,1472.7656,1459,1476.7656,1449,1480.7656,1453,1476.7656" style="stroke:#181818;stroke-width:1.0;"/><line style="stroke:#181818;stroke-width:1.0;" x1="1049.5" x2="1455" y1="1476.7656" y2="1476.7656"/><text fill="#000000" font-family="sans-serif" font-size="13" font-weight="bold" lengthAdjust="spacing" textLength="14" x="1056.5" y="1471.5029">38</text><text fill="#000000" font-family="sans-serif" font-size="13" lengthAdjust="spacing" textLength="214" x="1074.5" y="1471.5029">changePostIt(thePostIt, line, column)</text><polygon fill="#181818" points="1272.5,1504.0566,1282.5,1508.0566,1272.5,1512.0566,1276.5,1508.0566" style="stroke:#181818;stroke-width:1.0;"/><line style="stroke:#181818;stroke-width:1.0;" x1="1049.5" x2="1278.5" y1="1508.0566" y2="1508.0566"/><text fill="#000000" font-family="sans-serif" font-size="13" font-weight="bold" lengthAdjust="spacing" textLength="14" x="1056.5" y="1502.7939">39</text><text fill="#000000" font-family="sans-serif" font-size="13" lengthAdjust="spacing" textLength="120" x="1074.5" y="1502.7939">saveBoard(theBoard)</text><polygon fill="#181818" points="1690,1535.3477,1700,1539.3477,1690,1543.3477,1694,1539.3477" style="stroke:#181818;stroke-width:1.0;"/><line style="stroke:#181818;stroke-width:1.0;" x1="1289.5" x2="1696" y1="1539.3477" y2="1539.3477"/><text fill="#000000" font-family="sans-serif" font-size="13" font-weight="bold" lengthAdjust="spacing" textLength="14" x="1296.5" y="1534.085">40</text><text fill="#000000" font-family="sans-serif" font-size="13" lengthAdjust="spacing" textLength="86" x="1314.5" y="1534.085">save(theBoard)</text><polygon fill="#181818" points="508.5,1566.6387,498.5,1570.6387,508.5,1574.6387,504.5,1570.6387" style="stroke:#181818;stroke-width:1.0;"/><line style="stroke:#181818;stroke-width:1.0;stroke-dasharray:2.0,2.0;" x1="502.5" x2="1043.5" y1="1570.6387" y2="1570.6387"/><text fill="#000000" font-family="sans-serif" font-size="13" font-weight="bold" lengthAdjust="spacing" textLength="14" x="514.5" y="1565.376">41</text><text fill="#000000" font-family="sans-serif" font-size="13" lengthAdjust="spacing" textLength="52" x="532.5" y="1565.376">theBoard</text><polygon fill="#181818" points="62.5,1604.9297,52.5,1608.9297,62.5,1612.9297,58.5,1608.9297" style="stroke:#181818;stroke-width:1.0;"/><line style="stroke:#181818;stroke-width:1.0;stroke-dasharray:2.0,2.0;" x1="56.5" x2="491.5" y1="1608.9297" y2="1608.9297"/><text fill="#000000" font-family="sans-serif" font-size="13" font-weight="bold" lengthAdjust="spacing" textLength="14" x="68.5" y="1603.667">42</text><text fill="#000000" font-family="sans-serif" font-size="13" lengthAdjust="spacing" textLength="181" x="86.5" y="1603.667">Informa o sucesso da opera&#231;&#227;o</text><!--SRC=[vLVDRjim3BxxAOYUKg052kmm80WAT6aF0JQiM53qpDfCB5IMN4dEshtE3iCUO9TTysAZhDXndCJnrlGq7-8VyVl8a1yfspuAbQF133AjT9mQdH4uKr1awvKSuqUSqzIzI093iKCrbqq3csAYlmerXnbAIr7aX6FJAJqLf6A2Qu5pRpUONf_2ETnDuTt5nVi82wTLaJsGYIACdJPmvuGKtvZC05guyiyYTk54B79K3iOfkwPRRTt4tKsy3V-EHhaXIygX4rfTNaQnLivekM4z3iyabSoDkz48yroAk09lkBEBQOg6aWyQJN9hjDEnbdn-Vl4iuM8qYkqYNwsr24vSIYLsMFwUU5HvTQqp58gnINcn0nR27ePJ2GoNsyW47JwWfS3yXN9j1IVkfNRMU3GQcVgc2GtSczYjPosmhvbOeADLeO2FyWhEBtrTXd1B2O6N26H5WWOArXAJdWi7N7TuAZ0n6WOFFiZJ4bzJtatAUtym5HCsIZQ4s10RTLb8OTsLbEN_j_V2fRTaCc4j5_dU24U3qwY6rqxN3FMQFnh4x2PKVGXpEkIWmYVKvQ5UAuat70TNxBDTnY7CX4ewtHUMpCuGWfkeobjLgqzS62uKbfb31gpAOu4xOy4dyWKZq52ictJv4n8U6w0BSBoUXnYMlyXw0h8nXu8Rle90cj9WAorJpgsk1579HLTgYNPewoR0Db0w4JFkv2rajqPkdldCmoletGwgdZqzYa2ssFreFAOsjjgq5aT_rxqriKehbxVEkoL9CSkE1T6_qjKOQ1IjkyXx0OUzySvWg9QKtnne-JifHOkULon_BBzh_uzwo0r1vy6UDnr7AX79Ik0e7NmEQvovqjlQLvjyRzH2STyA7wZI2zt1i1dUnCFeC8fuUsv7kJy5FMRhZQIC4_nHA7fzvpItnY4yjFWFJjGU-fL2fTXGRryDeKyi1ZWa_oARllZ-EHzhMMJgBRCUF1mZxvo5GhqYyG7_Yipt8U1kxlWlGisqoR0DhUTHr_ZZXfo9DTWF4JBXRbViuvKvR1l-rPJPz_PKlXVxHrpZi3dK8Zg3-jtpB30hTnnXnOstyK6Na_qxgiL5YBAX-GrOntvvu7tAK-_ef9txvBv0g_9LD7tQvYW3kKwjy1ynNHNb0KHdPJDawctBkjlJ_rNRrZofHi8aJ1BUhMqHaxNjYT2YvK-Xnbturle3]--></g></svg>