<?xml version="1.0" encoding="us-ascii" standalone="no"?><svg xmlns="http://www.w3.org/2000/svg" xmlns:xlink="http://www.w3.org/1999/xlink" contentStyleType="text/css" height="933px" preserveAspectRatio="none" style="width:664px;height:933px;background:#FFFFFF;" version="1.1" viewBox="0 0 664 933" width="664px" zoomAndPan="magnify"><defs/><g><text fill="#000000" font-family="sans-serif" font-size="14" font-weight="bold" lengthAdjust="spacing" textLength="296" x="185.25" y="30.1074">System Sequence Diagram (SSD) - US 3007</text><rect fill="#FFFFFF" height="699.0332" style="stroke:#181818;stroke-width:1.0;" width="10" x="46.5" y="133.2422"/><rect fill="#FFFFFF" height="62.582" style="stroke:#181818;stroke-width:1.0;" width="10" x="608.5" y="156.5332"/><rect fill="#FFFFFF" height="62.582" style="stroke:#181818;stroke-width:1.0;" width="10" x="608.5" y="250.4063"/><rect fill="#FFFFFF" height="31.291" style="stroke:#181818;stroke-width:1.0;" width="10" x="608.5" y="344.2793"/><rect fill="#FFFFFF" height="168.0859" style="stroke:#181818;stroke-width:1.0;" width="10" x="608.5" y="406.8613"/><rect fill="#FFFFFF" height="62.582" style="stroke:#181818;stroke-width:1.0;" width="10" x="608.5" y="606.2383"/><rect fill="#FFFFFF" height="69.582" style="stroke:#181818;stroke-width:1.0;" width="10" x="608.5" y="700.1113"/><rect fill="#FFFFFF" height="31.291" style="stroke:#181818;stroke-width:1.0;" width="10" x="608.5" y="800.9844"/><rect fill="none" height="286.25" style="stroke:#000000;stroke-width:1.5;" width="647.5" x="10" y="421.8613"/><line style="stroke:#181818;stroke-width:0.5;stroke-dasharray:5.0,5.0;" x1="51" x2="51" y1="123.2422" y2="850.2754"/><line style="stroke:#181818;stroke-width:0.5;stroke-dasharray:5.0,5.0;" x1="613.5" x2="613.5" y1="123.2422" y2="850.2754"/><text fill="#000000" font-family="sans-serif" font-size="14" lengthAdjust="spacing" textLength="57" x="20" y="119.7285">Utilizador</text><ellipse cx="51.5" cy="53.1211" fill="#E3E3E3" rx="8" ry="8" style="stroke:#181818;stroke-width:0.5;"/><path d="M51.5,61.1211 L51.5,88.1211 M38.5,69.1211 L64.5,69.1211 M51.5,88.1211 L38.5,103.1211 M51.5,88.1211 L64.5,103.1211 " fill="none" style="stroke:#181818;stroke-width:0.5;"/><text fill="#000000" font-family="sans-serif" font-size="14" lengthAdjust="spacing" textLength="57" x="20" y="864.3828">Utilizador</text><ellipse cx="51.5" cy="876.3965" fill="#E3E3E3" rx="8" ry="8" style="stroke:#181818;stroke-width:0.5;"/><path d="M51.5,884.3965 L51.5,911.3965 M38.5,892.3965 L64.5,892.3965 M51.5,911.3965 L38.5,926.3965 M51.5,911.3965 L64.5,926.3965 " fill="none" style="stroke:#181818;stroke-width:0.5;"/><rect fill="#E3E3E3" height="32.6211" rx="2.5" ry="2.5" style="stroke:#181818;stroke-width:0.5;" width="68" x="579.5" y="89.6211"/><text fill="#000000" font-family="sans-serif" font-size="14" lengthAdjust="spacing" textLength="54" x="586.5" y="111.7285">:Sistema</text><rect fill="#E3E3E3" height="32.6211" rx="2.5" ry="2.5" style="stroke:#181818;stroke-width:0.5;" width="68" x="579.5" y="849.2754"/><text fill="#000000" font-family="sans-serif" font-size="14" lengthAdjust="spacing" textLength="54" x="586.5" y="871.3828">:Sistema</text><rect fill="#FFFFFF" height="699.0332" style="stroke:#181818;stroke-width:1.0;" width="10" x="46.5" y="133.2422"/><rect fill="#FFFFFF" height="62.582" style="stroke:#181818;stroke-width:1.0;" width="10" x="608.5" y="156.5332"/><rect fill="#FFFFFF" height="62.582" style="stroke:#181818;stroke-width:1.0;" width="10" x="608.5" y="250.4063"/><rect fill="#FFFFFF" height="31.291" style="stroke:#181818;stroke-width:1.0;" width="10" x="608.5" y="344.2793"/><rect fill="#FFFFFF" height="168.0859" style="stroke:#181818;stroke-width:1.0;" width="10" x="608.5" y="406.8613"/><rect fill="#FFFFFF" height="62.582" style="stroke:#181818;stroke-width:1.0;" width="10" x="608.5" y="606.2383"/><rect fill="#FFFFFF" height="69.582" style="stroke:#181818;stroke-width:1.0;" width="10" x="608.5" y="700.1113"/><rect fill="#FFFFFF" height="31.291" style="stroke:#181818;stroke-width:1.0;" width="10" x="608.5" y="800.9844"/><polygon fill="#181818" points="596.5,152.5332,606.5,156.5332,596.5,160.5332,600.5,156.5332" style="stroke:#181818;stroke-width:1.0;"/><line style="stroke:#181818;stroke-width:1.0;" x1="56.5" x2="602.5" y1="156.5332" y2="156.5332"/><text fill="#000000" font-family="sans-serif" font-size="13" font-weight="bold" lengthAdjust="spacing" textLength="7" x="63.5" y="151.2705">1</text><text fill="#000000" font-family="sans-serif" font-size="13" lengthAdjust="spacing" textLength="277" x="74.5" y="151.2705">Pede para mudar um post-it num quadro (board)</text><polygon fill="#181818" points="67.5,183.8242,57.5,187.8242,67.5,191.8242,63.5,187.8242" style="stroke:#181818;stroke-width:1.0;"/><line style="stroke:#181818;stroke-width:1.0;stroke-dasharray:2.0,2.0;" x1="61.5" x2="607.5" y1="187.8242" y2="187.8242"/><text fill="#000000" font-family="sans-serif" font-size="13" font-weight="bold" lengthAdjust="spacing" textLength="7" x="73.5" y="182.5615">2</text><text fill="#000000" font-family="sans-serif" font-size="13" lengthAdjust="spacing" textLength="517" x="84.5" y="182.5615">Mostra a lista de quadros ativos em que o utilizador &#233; dono ou tem permiss&#245;es de escrita</text><polygon fill="#181818" points="67.5,215.1152,57.5,219.1152,67.5,223.1152,63.5,219.1152" style="stroke:#181818;stroke-width:1.0;"/><line style="stroke:#181818;stroke-width:1.0;stroke-dasharray:2.0,2.0;" x1="61.5" x2="612.5" y1="219.1152" y2="219.1152"/><text fill="#000000" font-family="sans-serif" font-size="13" font-weight="bold" lengthAdjust="spacing" textLength="7" x="73.5" y="213.8525">3</text><text fill="#000000" font-family="sans-serif" font-size="13" lengthAdjust="spacing" textLength="268" x="84.5" y="213.8525">Pede para escolher o quadro a mudar o post-it</text><polygon fill="#181818" points="596.5,246.4063,606.5,250.4063,596.5,254.4063,600.5,250.4063" style="stroke:#181818;stroke-width:1.0;"/><line style="stroke:#181818;stroke-width:1.0;" x1="56.5" x2="602.5" y1="250.4063" y2="250.4063"/><text fill="#000000" font-family="sans-serif" font-size="13" font-weight="bold" lengthAdjust="spacing" textLength="7" x="63.5" y="245.1436">4</text><text fill="#000000" font-family="sans-serif" font-size="13" lengthAdjust="spacing" textLength="219" x="74.5" y="245.1436">Escolhe o quadro a modificar o post-it</text><polygon fill="#181818" points="67.5,277.6973,57.5,281.6973,67.5,285.6973,63.5,281.6973" style="stroke:#181818;stroke-width:1.0;"/><line style="stroke:#181818;stroke-width:1.0;stroke-dasharray:2.0,2.0;" x1="61.5" x2="607.5" y1="281.6973" y2="281.6973"/><text fill="#000000" font-family="sans-serif" font-size="13" font-weight="bold" lengthAdjust="spacing" textLength="7" x="73.5" y="276.4346">5</text><text fill="#000000" font-family="sans-serif" font-size="13" lengthAdjust="spacing" textLength="278" x="84.5" y="276.4346">Mostra a lista de post-its do quadro selecionado</text><polygon fill="#181818" points="67.5,308.9883,57.5,312.9883,67.5,316.9883,63.5,312.9883" style="stroke:#181818;stroke-width:1.0;"/><line style="stroke:#181818;stroke-width:1.0;stroke-dasharray:2.0,2.0;" x1="61.5" x2="612.5" y1="312.9883" y2="312.9883"/><text fill="#000000" font-family="sans-serif" font-size="13" font-weight="bold" lengthAdjust="spacing" textLength="7" x="73.5" y="307.7256">6</text><text fill="#000000" font-family="sans-serif" font-size="13" lengthAdjust="spacing" textLength="230" x="84.5" y="307.7256">Pede para escolher o post-it a modificar</text><polygon fill="#181818" points="596.5,340.2793,606.5,344.2793,596.5,348.2793,600.5,344.2793" style="stroke:#181818;stroke-width:1.0;"/><line style="stroke:#181818;stroke-width:1.0;" x1="56.5" x2="602.5" y1="344.2793" y2="344.2793"/><text fill="#000000" font-family="sans-serif" font-size="13" font-weight="bold" lengthAdjust="spacing" textLength="7" x="63.5" y="339.0166">7</text><text fill="#000000" font-family="sans-serif" font-size="13" lengthAdjust="spacing" textLength="165" x="74.5" y="339.0166">Escolhe o post-it a modificar</text><polygon fill="#181818" points="67.5,371.5703,57.5,375.5703,67.5,379.5703,63.5,375.5703" style="stroke:#181818;stroke-width:1.0;"/><line style="stroke:#181818;stroke-width:1.0;stroke-dasharray:2.0,2.0;" x1="61.5" x2="612.5" y1="375.5703" y2="375.5703"/><text fill="#000000" font-family="sans-serif" font-size="13" font-weight="bold" lengthAdjust="spacing" textLength="7" x="73.5" y="370.3076">8</text><text fill="#000000" font-family="sans-serif" font-size="13" lengthAdjust="spacing" textLength="389" x="84.5" y="370.3076">Pede para escolher entre mudar o conte&#250;do ou a posi&#231;&#227;o do post-it</text><polygon fill="#181818" points="596.5,402.8613,606.5,406.8613,596.5,410.8613,600.5,406.8613" style="stroke:#181818;stroke-width:1.0;"/><line style="stroke:#181818;stroke-width:1.0;" x1="56.5" x2="602.5" y1="406.8613" y2="406.8613"/><text fill="#000000" font-family="sans-serif" font-size="13" font-weight="bold" lengthAdjust="spacing" textLength="7" x="63.5" y="401.5986">9</text><text fill="#000000" font-family="sans-serif" font-size="13" lengthAdjust="spacing" textLength="161" x="74.5" y="401.5986">Escolhe a op&#231;&#227;o pretendida</text><path d="M10,421.8613 L71,421.8613 L71,431.1523 L61,441.1523 L10,441.1523 L10,421.8613 " fill="#EEEEEE" style="stroke:#000000;stroke-width:1.5;"/><rect fill="none" height="286.25" style="stroke:#000000;stroke-width:1.5;" width="647.5" x="10" y="421.8613"/><text fill="#000000" font-family="sans-serif" font-size="13" font-weight="bold" lengthAdjust="spacing" textLength="16" x="25" y="436.8896">alt</text><text fill="#000000" font-family="sans-serif" font-size="11" font-weight="bold" lengthAdjust="spacing" textLength="194" x="86" y="435.7314">[Op&#231;&#227;o: Mudar conte&#250;do do post-it]</text><polygon fill="#181818" points="67.5,460.4434,57.5,464.4434,67.5,468.4434,63.5,464.4434" style="stroke:#181818;stroke-width:1.0;"/><line style="stroke:#181818;stroke-width:1.0;stroke-dasharray:2.0,2.0;" x1="61.5" x2="607.5" y1="464.4434" y2="464.4434"/><text fill="#000000" font-family="sans-serif" font-size="13" font-weight="bold" lengthAdjust="spacing" textLength="14" x="73.5" y="459.1807">10</text><text fill="#000000" font-family="sans-serif" font-size="13" lengthAdjust="spacing" textLength="254" x="91.5" y="459.1807">Pede para inserir o novo conte&#250;do do post-it</text><polygon fill="#181818" points="596.5,491.7344,606.5,495.7344,596.5,499.7344,600.5,495.7344" style="stroke:#181818;stroke-width:1.0;"/><line style="stroke:#181818;stroke-width:1.0;" x1="56.5" x2="602.5" y1="495.7344" y2="495.7344"/><text fill="#000000" font-family="sans-serif" font-size="13" font-weight="bold" lengthAdjust="spacing" textLength="14" x="63.5" y="490.4717">11</text><text fill="#000000" font-family="sans-serif" font-size="13" lengthAdjust="spacing" textLength="191" x="81.5" y="490.4717">Insere o novo conte&#250;do do post-it</text><line style="stroke:#000000;stroke-width:1.0;stroke-dasharray:2.0,2.0;" x1="10" x2="657.5" y1="504.7344" y2="504.7344"/><text fill="#000000" font-family="sans-serif" font-size="11" font-weight="bold" lengthAdjust="spacing" textLength="185" x="15" y="516.6045">[Op&#231;&#227;o: Mudar posi&#231;&#227;o do post-it]</text><polygon fill="#181818" points="67.5,539.6563,57.5,543.6563,67.5,547.6563,63.5,543.6563" style="stroke:#181818;stroke-width:1.0;"/><line style="stroke:#181818;stroke-width:1.0;stroke-dasharray:2.0,2.0;" x1="61.5" x2="607.5" y1="543.6563" y2="543.6563"/><text fill="#000000" font-family="sans-serif" font-size="13" font-weight="bold" lengthAdjust="spacing" textLength="14" x="73.5" y="538.3936">12</text><text fill="#000000" font-family="sans-serif" font-size="13" lengthAdjust="spacing" textLength="196" x="91.5" y="538.3936">Mostra a lista de linhas do quadro</text><polygon fill="#181818" points="67.5,570.9473,57.5,574.9473,67.5,578.9473,63.5,574.9473" style="stroke:#181818;stroke-width:1.0;"/><line style="stroke:#181818;stroke-width:1.0;stroke-dasharray:2.0,2.0;" x1="61.5" x2="612.5" y1="574.9473" y2="574.9473"/><text fill="#000000" font-family="sans-serif" font-size="13" font-weight="bold" lengthAdjust="spacing" textLength="14" x="73.5" y="569.6846">13</text><text fill="#000000" font-family="sans-serif" font-size="13" lengthAdjust="spacing" textLength="309" x="91.5" y="569.6846">Pede para escolher a nova linha da posi&#231;&#227;o do post-it</text><polygon fill="#181818" points="596.5,602.2383,606.5,606.2383,596.5,610.2383,600.5,606.2383" style="stroke:#181818;stroke-width:1.0;"/><line style="stroke:#181818;stroke-width:1.0;" x1="56.5" x2="602.5" y1="606.2383" y2="606.2383"/><text fill="#000000" font-family="sans-serif" font-size="13" font-weight="bold" lengthAdjust="spacing" textLength="14" x="63.5" y="600.9756">14</text><text fill="#000000" font-family="sans-serif" font-size="13" lengthAdjust="spacing" textLength="244" x="81.5" y="600.9756">Escolhe a nova linha da posi&#231;&#227;o do post-it</text><polygon fill="#181818" points="67.5,633.5293,57.5,637.5293,67.5,641.5293,63.5,637.5293" style="stroke:#181818;stroke-width:1.0;"/><line style="stroke:#181818;stroke-width:1.0;stroke-dasharray:2.0,2.0;" x1="61.5" x2="607.5" y1="637.5293" y2="637.5293"/><text fill="#000000" font-family="sans-serif" font-size="13" font-weight="bold" lengthAdjust="spacing" textLength="14" x="73.5" y="632.2666">15</text><text fill="#000000" font-family="sans-serif" font-size="13" lengthAdjust="spacing" textLength="207" x="91.5" y="632.2666">Mostra a lista de colunas do quadro</text><polygon fill="#181818" points="67.5,664.8203,57.5,668.8203,67.5,672.8203,63.5,668.8203" style="stroke:#181818;stroke-width:1.0;"/><line style="stroke:#181818;stroke-width:1.0;stroke-dasharray:2.0,2.0;" x1="61.5" x2="612.5" y1="668.8203" y2="668.8203"/><text fill="#000000" font-family="sans-serif" font-size="13" font-weight="bold" lengthAdjust="spacing" textLength="14" x="73.5" y="663.5576">16</text><text fill="#000000" font-family="sans-serif" font-size="13" lengthAdjust="spacing" textLength="320" x="91.5" y="663.5576">Pede para escolher a nova coluna da posi&#231;&#227;o do post-it</text><polygon fill="#181818" points="596.5,696.1113,606.5,700.1113,596.5,704.1113,600.5,700.1113" style="stroke:#181818;stroke-width:1.0;"/><line style="stroke:#181818;stroke-width:1.0;" x1="56.5" x2="602.5" y1="700.1113" y2="700.1113"/><text fill="#000000" font-family="sans-serif" font-size="13" font-weight="bold" lengthAdjust="spacing" textLength="14" x="63.5" y="694.8486">17</text><text fill="#000000" font-family="sans-serif" font-size="13" lengthAdjust="spacing" textLength="255" x="81.5" y="694.8486">Escolhe a nova coluna da posi&#231;&#227;o do post-it</text><polygon fill="#181818" points="67.5,734.4023,57.5,738.4023,67.5,742.4023,63.5,738.4023" style="stroke:#181818;stroke-width:1.0;"/><line style="stroke:#181818;stroke-width:1.0;stroke-dasharray:2.0,2.0;" x1="61.5" x2="607.5" y1="738.4023" y2="738.4023"/><text fill="#000000" font-family="sans-serif" font-size="13" font-weight="bold" lengthAdjust="spacing" textLength="14" x="73.5" y="733.1396">18</text><text fill="#000000" font-family="sans-serif" font-size="13" lengthAdjust="spacing" textLength="242" x="91.5" y="733.1396">Mostra a informa&#231;&#227;o do post-it modificado</text><polygon fill="#181818" points="67.5,765.6934,57.5,769.6934,67.5,773.6934,63.5,769.6934" style="stroke:#181818;stroke-width:1.0;"/><line style="stroke:#181818;stroke-width:1.0;stroke-dasharray:2.0,2.0;" x1="61.5" x2="612.5" y1="769.6934" y2="769.6934"/><text fill="#000000" font-family="sans-serif" font-size="13" font-weight="bold" lengthAdjust="spacing" textLength="14" x="73.5" y="764.4307">19</text><text fill="#000000" font-family="sans-serif" font-size="13" lengthAdjust="spacing" textLength="179" x="91.5" y="764.4307">Pede confirma&#231;&#227;o da opera&#231;&#227;o</text><polygon fill="#181818" points="596.5,796.9844,606.5,800.9844,596.5,804.9844,600.5,800.9844" style="stroke:#181818;stroke-width:1.0;"/><line style="stroke:#181818;stroke-width:1.0;" x1="56.5" x2="602.5" y1="800.9844" y2="800.9844"/><text fill="#000000" font-family="sans-serif" font-size="13" font-weight="bold" lengthAdjust="spacing" textLength="14" x="63.5" y="795.7217">20</text><text fill="#000000" font-family="sans-serif" font-size="13" lengthAdjust="spacing" textLength="119" x="81.5" y="795.7217">Confirma a opera&#231;&#227;o</text><polygon fill="#181818" points="62.5,828.2754,52.5,832.2754,62.5,836.2754,58.5,832.2754" style="stroke:#181818;stroke-width:1.0;"/><line style="stroke:#181818;stroke-width:1.0;stroke-dasharray:2.0,2.0;" x1="56.5" x2="612.5" y1="832.2754" y2="832.2754"/><text fill="#000000" font-family="sans-serif" font-size="13" font-weight="bold" lengthAdjust="spacing" textLength="14" x="68.5" y="827.0127">21</text><text fill="#000000" font-family="sans-serif" font-size="13" lengthAdjust="spacing" textLength="181" x="86.5" y="827.0127">Informa o sucesso da opera&#231;&#227;o</text><!--SRC=[jPM_Rjj03CPtFGNXAHaC1EXGm4E1ekcGeMW18G_0tD4s4UbEkJyfqjVfKFG1kdJrYvMdaoNRKXmrHRK8aiWVlu-yE_bxDWqwhA6snggjipL1S94AttzfKDtZXihmL14uKW7DfZeCy5lKzYkR3QonybGKWOE4bay-K0qbFKGoYk2QSPF2Byho-XAMS5l2cwkhjmN6O4sixyWL1QfW7Ink0rVyJQXk0UZXVNfRIB70YXiq0HQhaXCTs- -vKflDZnYeIoZQ6opVxQMiu0jfWgGQwgZHGHHxreSb1n09y11HEmiNTnQTlXnu-m8TPod8p5x19qaN748bWX04do4UK9BbHWbBO27sfc3t4xJq6so4n6l8rUpzxXVv122l70USgZRebo1RRSa9k5EzzsJtbWfD8mVZbdpCe2EErRncTSHwNI-wRB7LuprLfDWQQSHiX_iP7KZxMtDJY3cU9lIG2OxwPYjh0kr-wtQQcEhmxiVkkqsMNpK81DjaGkCeaD6iSImLgm2VSvmqljKoA3aeNO1SPtsnyUGuMJ7sqKvJ4cIi-2Pbqjd4DfFaL3WLEzcdvyIE5rR5Pei7o-fbc_tuCCd5J03zpCGIRc9gqtqO9ZUJFCcTvLiAHVDlnZFYlpYVWJu5o_e-VvQmMLjNuocityPdZX5PaMiUSjF68fUVvct93nq0ZbBd71itMRNi3HyLUJ-Z_C6h_F_w0m00]--></g></svg>