<?xml version="1.0" encoding="us-ascii" standalone="no"?><svg xmlns="http://www.w3.org/2000/svg" xmlns:xlink="http://www.w3.org/1999/xlink" contentStyleType="text/css" height="534px" preserveAspectRatio="none" style="width:1030px;height:534px;background:#FFFFFF;" version="1.1" viewBox="0 0 1030 534" width="1030px" zoomAndPan="magnify"><defs/><g><text fill="#000000" font-family="sans-serif" font-size="14" font-weight="bold" lengthAdjust="spacing" textLength="209" x="403.5" y="25.1074">Class Diagram (SSD) - US 1007</text><!--class BulkEnrollmentUI--><g id="elem_BulkEnrollmentUI"><rect codeLine="5" fill="#F1F1F1" height="79.2031" id="BulkEnrollmentUI" rx="2.5" ry="2.5" style="stroke:#181818;stroke-width:0.5;" width="138" x="692.5" y="46.6211"/><ellipse cx="707.5" cy="68.9121" fill="#ADD1B2" rx="11" ry="11" style="stroke:#181818;stroke-width:1.0;"/><path d="M710.2656,64.7871 Q710.4219,64.5684 710.6094,64.459 Q710.7969,64.3496 711.0156,64.3496 Q711.3906,64.3496 711.625,64.6152 Q711.8594,64.8652 711.8594,65.4746 L711.8594,66.9277 Q711.8594,67.5371 711.625,67.8027 Q711.3906,68.0684 711.0156,68.0684 Q710.6719,68.0684 710.4688,67.8652 Q710.2656,67.6777 710.1563,67.1621 Q710.1094,66.8027 709.9219,66.6152 Q709.5938,66.2402 708.9844,66.0215 Q708.375,65.8027 707.75,65.8027 Q706.9844,65.8027 706.3438,66.1309 Q705.7188,66.459 705.2188,67.209 Q704.7344,67.959 704.7344,68.9902 L704.7344,70.084 Q704.7344,71.3184 705.625,72.1465 Q706.5156,72.959 708.1094,72.959 Q709.0469,72.959 709.7031,72.709 Q710.0938,72.5527 710.5156,72.1152 Q710.7813,71.8496 710.9219,71.7715 Q711.0781,71.6934 711.2813,71.6934 Q711.6094,71.6934 711.8594,71.959 Q712.125,72.209 712.125,72.5527 Q712.125,72.8965 711.7813,73.3027 Q711.2813,73.8809 710.4844,74.209 Q709.4063,74.6621 708.1094,74.6621 Q706.5938,74.6621 705.3906,74.0371 Q704.4063,73.5371 703.7188,72.4746 Q703.0313,71.3965 703.0313,70.1152 L703.0313,68.959 Q703.0313,67.6309 703.6406,66.4902 Q704.2656,65.334 705.3594,64.7246 Q706.4531,64.0996 707.6875,64.0996 Q708.4219,64.0996 709.0625,64.2715 Q709.7188,64.4277 710.2656,64.7871 Z " fill="#000000"/><text fill="#000000" font-family="sans-serif" font-size="12" font-style="italic" lengthAdjust="spacing" textLength="82" x="733.5" y="64.5703">&#171;presentation&#187;</text><text fill="#000000" font-family="sans-serif" font-size="14" lengthAdjust="spacing" textLength="106" x="721.5" y="82.6895">BulkEnrollmentUI</text><line style="stroke:#181818;stroke-width:0.5;" x1="693.5" x2="829.5" y1="91.2031" y2="91.2031"/><line style="stroke:#181818;stroke-width:0.5;" x1="693.5" x2="829.5" y1="99.2031" y2="99.2031"/><text fill="#000000" font-family="sans-serif" font-size="14" lengthAdjust="spacing" textLength="60" x="698.5" y="118.3105">doShow()</text></g><!--class JpaCourseRepository--><g id="elem_JpaCourseRepository"><rect codeLine="9" fill="#F1F1F1" height="60.582" id="JpaCourseRepository" rx="2.5" ry="2.5" style="stroke:#181818;stroke-width:0.5;" width="168" x="249.5" y="466.6211"/><ellipse cx="264.5" cy="488.9121" fill="#ADD1B2" rx="11" ry="11" style="stroke:#181818;stroke-width:1.0;"/><path d="M267.2656,484.7871 Q267.4219,484.5684 267.6094,484.459 Q267.7969,484.3496 268.0156,484.3496 Q268.3906,484.3496 268.625,484.6152 Q268.8594,484.8652 268.8594,485.4746 L268.8594,486.9277 Q268.8594,487.5371 268.625,487.8027 Q268.3906,488.0684 268.0156,488.0684 Q267.6719,488.0684 267.4688,487.8652 Q267.2656,487.6777 267.1563,487.1621 Q267.1094,486.8027 266.9219,486.6152 Q266.5938,486.2402 265.9844,486.0215 Q265.375,485.8027 264.75,485.8027 Q263.9844,485.8027 263.3438,486.1309 Q262.7188,486.459 262.2188,487.209 Q261.7344,487.959 261.7344,488.9902 L261.7344,490.084 Q261.7344,491.3184 262.625,492.1465 Q263.5156,492.959 265.1094,492.959 Q266.0469,492.959 266.7031,492.709 Q267.0938,492.5527 267.5156,492.1152 Q267.7813,491.8496 267.9219,491.7715 Q268.0781,491.6934 268.2813,491.6934 Q268.6094,491.6934 268.8594,491.959 Q269.125,492.209 269.125,492.5527 Q269.125,492.8965 268.7813,493.3027 Q268.2813,493.8809 267.4844,494.209 Q266.4063,494.6621 265.1094,494.6621 Q263.5938,494.6621 262.3906,494.0371 Q261.4063,493.5371 260.7188,492.4746 Q260.0313,491.3965 260.0313,490.1152 L260.0313,488.959 Q260.0313,487.6309 260.6406,486.4902 Q261.2656,485.334 262.3594,484.7246 Q263.4531,484.0996 264.6875,484.0996 Q265.4219,484.0996 266.0625,484.2715 Q266.7188,484.4277 267.2656,484.7871 Z " fill="#000000"/><text fill="#000000" font-family="sans-serif" font-size="12" font-style="italic" lengthAdjust="spacing" textLength="77" x="308" y="484.5703">&#171;persistence&#187;</text><text fill="#000000" font-family="sans-serif" font-size="14" lengthAdjust="spacing" textLength="136" x="278.5" y="502.6895">JpaCourseRepository</text><line style="stroke:#181818;stroke-width:0.5;" x1="250.5" x2="416.5" y1="511.2031" y2="511.2031"/><line style="stroke:#181818;stroke-width:0.5;" x1="250.5" x2="416.5" y1="519.2031" y2="519.2031"/></g><!--class InMemoryCourseRepository--><g id="elem_InMemoryCourseRepository"><rect codeLine="10" fill="#F1F1F1" height="60.582" id="InMemoryCourseRepository" rx="2.5" ry="2.5" style="stroke:#181818;stroke-width:0.5;" width="207" x="7" y="466.6211"/><ellipse cx="22" cy="488.9121" fill="#ADD1B2" rx="11" ry="11" style="stroke:#181818;stroke-width:1.0;"/><path d="M24.7656,484.7871 Q24.9219,484.5684 25.1094,484.459 Q25.2969,484.3496 25.5156,484.3496 Q25.8906,484.3496 26.125,484.6152 Q26.3594,484.8652 26.3594,485.4746 L26.3594,486.9277 Q26.3594,487.5371 26.125,487.8027 Q25.8906,488.0684 25.5156,488.0684 Q25.1719,488.0684 24.9688,487.8652 Q24.7656,487.6777 24.6563,487.1621 Q24.6094,486.8027 24.4219,486.6152 Q24.0938,486.2402 23.4844,486.0215 Q22.875,485.8027 22.25,485.8027 Q21.4844,485.8027 20.8438,486.1309 Q20.2188,486.459 19.7188,487.209 Q19.2344,487.959 19.2344,488.9902 L19.2344,490.084 Q19.2344,491.3184 20.125,492.1465 Q21.0156,492.959 22.6094,492.959 Q23.5469,492.959 24.2031,492.709 Q24.5938,492.5527 25.0156,492.1152 Q25.2813,491.8496 25.4219,491.7715 Q25.5781,491.6934 25.7813,491.6934 Q26.1094,491.6934 26.3594,491.959 Q26.625,492.209 26.625,492.5527 Q26.625,492.8965 26.2813,493.3027 Q25.7813,493.8809 24.9844,494.209 Q23.9063,494.6621 22.6094,494.6621 Q21.0938,494.6621 19.8906,494.0371 Q18.9063,493.5371 18.2188,492.4746 Q17.5313,491.3965 17.5313,490.1152 L17.5313,488.959 Q17.5313,487.6309 18.1406,486.4902 Q18.7656,485.334 19.8594,484.7246 Q20.9531,484.0996 22.1875,484.0996 Q22.9219,484.0996 23.5625,484.2715 Q24.2188,484.4277 24.7656,484.7871 Z " fill="#000000"/><text fill="#000000" font-family="sans-serif" font-size="12" font-style="italic" lengthAdjust="spacing" textLength="77" x="85" y="484.5703">&#171;persistence&#187;</text><text fill="#000000" font-family="sans-serif" font-size="14" lengthAdjust="spacing" textLength="175" x="36" y="502.6895">InMemoryCourseRepository</text><line style="stroke:#181818;stroke-width:0.5;" x1="8" x2="213" y1="511.2031" y2="511.2031"/><line style="stroke:#181818;stroke-width:0.5;" x1="8" x2="213" y1="519.2031" y2="519.2031"/></g><!--class Course--><g id="elem_Course"><rect codeLine="12" fill="#F1F1F1" height="60.582" id="Course" rx="2.5" ry="2.5" style="stroke:#181818;stroke-width:0.5;" width="84" x="726.5" y="344.6211"/><ellipse cx="741.5" cy="366.9121" fill="#ADD1B2" rx="11" ry="11" style="stroke:#181818;stroke-width:1.0;"/><path d="M744.2656,362.7871 Q744.4219,362.5684 744.6094,362.459 Q744.7969,362.3496 745.0156,362.3496 Q745.3906,362.3496 745.625,362.6152 Q745.8594,362.8652 745.8594,363.4746 L745.8594,364.9277 Q745.8594,365.5371 745.625,365.8027 Q745.3906,366.0684 745.0156,366.0684 Q744.6719,366.0684 744.4688,365.8652 Q744.2656,365.6777 744.1563,365.1621 Q744.1094,364.8027 743.9219,364.6152 Q743.5938,364.2402 742.9844,364.0215 Q742.375,363.8027 741.75,363.8027 Q740.9844,363.8027 740.3438,364.1309 Q739.7188,364.459 739.2188,365.209 Q738.7344,365.959 738.7344,366.9902 L738.7344,368.084 Q738.7344,369.3184 739.625,370.1465 Q740.5156,370.959 742.1094,370.959 Q743.0469,370.959 743.7031,370.709 Q744.0938,370.5527 744.5156,370.1152 Q744.7813,369.8496 744.9219,369.7715 Q745.0781,369.6934 745.2813,369.6934 Q745.6094,369.6934 745.8594,369.959 Q746.125,370.209 746.125,370.5527 Q746.125,370.8965 745.7813,371.3027 Q745.2813,371.8809 744.4844,372.209 Q743.4063,372.6621 742.1094,372.6621 Q740.5938,372.6621 739.3906,372.0371 Q738.4063,371.5371 737.7188,370.4746 Q737.0313,369.3965 737.0313,368.1152 L737.0313,366.959 Q737.0313,365.6309 737.6406,364.4902 Q738.2656,363.334 739.3594,362.7246 Q740.4531,362.0996 741.6875,362.0996 Q742.4219,362.0996 743.0625,362.2715 Q743.7188,362.4277 744.2656,362.7871 Z " fill="#000000"/><text fill="#000000" font-family="sans-serif" font-size="12" font-style="italic" lengthAdjust="spacing" textLength="56" x="753.5" y="362.5703">&#171;domain&#187;</text><text fill="#000000" font-family="sans-serif" font-size="14" lengthAdjust="spacing" textLength="46" x="758.5" y="380.6895">Course</text><line style="stroke:#181818;stroke-width:0.5;" x1="727.5" x2="809.5" y1="389.2031" y2="389.2031"/><line style="stroke:#181818;stroke-width:0.5;" x1="727.5" x2="809.5" y1="397.2031" y2="397.2031"/></g><!--class Enrollement--><g id="elem_Enrollement"><rect codeLine="13" fill="#F1F1F1" height="60.582" id="Enrollement" rx="2.5" ry="2.5" style="stroke:#181818;stroke-width:0.5;" width="107" x="291" y="344.6211"/><ellipse cx="306" cy="366.9121" fill="#ADD1B2" rx="11" ry="11" style="stroke:#181818;stroke-width:1.0;"/><path d="M308.7656,362.7871 Q308.9219,362.5684 309.1094,362.459 Q309.2969,362.3496 309.5156,362.3496 Q309.8906,362.3496 310.125,362.6152 Q310.3594,362.8652 310.3594,363.4746 L310.3594,364.9277 Q310.3594,365.5371 310.125,365.8027 Q309.8906,366.0684 309.5156,366.0684 Q309.1719,366.0684 308.9688,365.8652 Q308.7656,365.6777 308.6563,365.1621 Q308.6094,364.8027 308.4219,364.6152 Q308.0938,364.2402 307.4844,364.0215 Q306.875,363.8027 306.25,363.8027 Q305.4844,363.8027 304.8438,364.1309 Q304.2188,364.459 303.7188,365.209 Q303.2344,365.959 303.2344,366.9902 L303.2344,368.084 Q303.2344,369.3184 304.125,370.1465 Q305.0156,370.959 306.6094,370.959 Q307.5469,370.959 308.2031,370.709 Q308.5938,370.5527 309.0156,370.1152 Q309.2813,369.8496 309.4219,369.7715 Q309.5781,369.6934 309.7813,369.6934 Q310.1094,369.6934 310.3594,369.959 Q310.625,370.209 310.625,370.5527 Q310.625,370.8965 310.2813,371.3027 Q309.7813,371.8809 308.9844,372.209 Q307.9063,372.6621 306.6094,372.6621 Q305.0938,372.6621 303.8906,372.0371 Q302.9063,371.5371 302.2188,370.4746 Q301.5313,369.3965 301.5313,368.1152 L301.5313,366.959 Q301.5313,365.6309 302.1406,364.4902 Q302.7656,363.334 303.8594,362.7246 Q304.9531,362.0996 306.1875,362.0996 Q306.9219,362.0996 307.5625,362.2715 Q308.2188,362.4277 308.7656,362.7871 Z " fill="#000000"/><text fill="#000000" font-family="sans-serif" font-size="12" font-style="italic" lengthAdjust="spacing" textLength="56" x="329.5" y="362.5703">&#171;domain&#187;</text><text fill="#000000" font-family="sans-serif" font-size="14" lengthAdjust="spacing" textLength="75" x="320" y="380.6895">Enrollement</text><line style="stroke:#181818;stroke-width:0.5;" x1="292" x2="397" y1="389.2031" y2="389.2031"/><line style="stroke:#181818;stroke-width:0.5;" x1="292" x2="397" y1="397.2031" y2="397.2031"/></g><!--class BulkEnrollmentFileCSV--><g id="elem_BulkEnrollmentFileCSV"><rect codeLine="14" fill="#F1F1F1" height="60.582" id="BulkEnrollmentFileCSV" rx="2.5" ry="2.5" style="stroke:#181818;stroke-width:0.5;" width="177" x="846" y="344.6211"/><ellipse cx="861" cy="366.9121" fill="#ADD1B2" rx="11" ry="11" style="stroke:#181818;stroke-width:1.0;"/><path d="M863.7656,362.7871 Q863.9219,362.5684 864.1094,362.459 Q864.2969,362.3496 864.5156,362.3496 Q864.8906,362.3496 865.125,362.6152 Q865.3594,362.8652 865.3594,363.4746 L865.3594,364.9277 Q865.3594,365.5371 865.125,365.8027 Q864.8906,366.0684 864.5156,366.0684 Q864.1719,366.0684 863.9688,365.8652 Q863.7656,365.6777 863.6563,365.1621 Q863.6094,364.8027 863.4219,364.6152 Q863.0938,364.2402 862.4844,364.0215 Q861.875,363.8027 861.25,363.8027 Q860.4844,363.8027 859.8438,364.1309 Q859.2188,364.459 858.7188,365.209 Q858.2344,365.959 858.2344,366.9902 L858.2344,368.084 Q858.2344,369.3184 859.125,370.1465 Q860.0156,370.959 861.6094,370.959 Q862.5469,370.959 863.2031,370.709 Q863.5938,370.5527 864.0156,370.1152 Q864.2813,369.8496 864.4219,369.7715 Q864.5781,369.6934 864.7813,369.6934 Q865.1094,369.6934 865.3594,369.959 Q865.625,370.209 865.625,370.5527 Q865.625,370.8965 865.2813,371.3027 Q864.7813,371.8809 863.9844,372.209 Q862.9063,372.6621 861.6094,372.6621 Q860.0938,372.6621 858.8906,372.0371 Q857.9063,371.5371 857.2188,370.4746 Q856.5313,369.3965 856.5313,368.1152 L856.5313,366.959 Q856.5313,365.6309 857.1406,364.4902 Q857.7656,363.334 858.8594,362.7246 Q859.9531,362.0996 861.1875,362.0996 Q861.9219,362.0996 862.5625,362.2715 Q863.2188,362.4277 863.7656,362.7871 Z " fill="#000000"/><text fill="#000000" font-family="sans-serif" font-size="12" font-style="italic" lengthAdjust="spacing" textLength="56" x="919.5" y="362.5703">&#171;domain&#187;</text><text fill="#000000" font-family="sans-serif" font-size="14" lengthAdjust="spacing" textLength="145" x="875" y="380.6895">BulkEnrollmentFileCSV</text><line style="stroke:#181818;stroke-width:0.5;" x1="847" x2="1022" y1="389.2031" y2="389.2031"/><line style="stroke:#181818;stroke-width:0.5;" x1="847" x2="1022" y1="397.2031" y2="397.2031"/></g><!--class BulkEnrollmentController--><g id="elem_BulkEnrollmentController"><rect codeLine="16" fill="#F1F1F1" height="60.582" id="BulkEnrollmentController" rx="2.5" ry="2.5" style="stroke:#181818;stroke-width:0.5;" width="188" x="524.5" y="204.6211"/><ellipse cx="539.5" cy="226.9121" fill="#ADD1B2" rx="11" ry="11" style="stroke:#181818;stroke-width:1.0;"/><path d="M542.2656,222.7871 Q542.4219,222.5684 542.6094,222.459 Q542.7969,222.3496 543.0156,222.3496 Q543.3906,222.3496 543.625,222.6152 Q543.8594,222.8652 543.8594,223.4746 L543.8594,224.9277 Q543.8594,225.5371 543.625,225.8027 Q543.3906,226.0684 543.0156,226.0684 Q542.6719,226.0684 542.4688,225.8652 Q542.2656,225.6777 542.1563,225.1621 Q542.1094,224.8027 541.9219,224.6152 Q541.5938,224.2402 540.9844,224.0215 Q540.375,223.8027 539.75,223.8027 Q538.9844,223.8027 538.3438,224.1309 Q537.7188,224.459 537.2188,225.209 Q536.7344,225.959 536.7344,226.9902 L536.7344,228.084 Q536.7344,229.3184 537.625,230.1465 Q538.5156,230.959 540.1094,230.959 Q541.0469,230.959 541.7031,230.709 Q542.0938,230.5527 542.5156,230.1152 Q542.7813,229.8496 542.9219,229.7715 Q543.0781,229.6934 543.2813,229.6934 Q543.6094,229.6934 543.8594,229.959 Q544.125,230.209 544.125,230.5527 Q544.125,230.8965 543.7813,231.3027 Q543.2813,231.8809 542.4844,232.209 Q541.4063,232.6621 540.1094,232.6621 Q538.5938,232.6621 537.3906,232.0371 Q536.4063,231.5371 535.7188,230.4746 Q535.0313,229.3965 535.0313,228.1152 L535.0313,226.959 Q535.0313,225.6309 535.6406,224.4902 Q536.2656,223.334 537.3594,222.7246 Q538.4531,222.0996 539.6875,222.0996 Q540.4219,222.0996 541.0625,222.2715 Q541.7188,222.4277 542.2656,222.7871 Z " fill="#000000"/><text fill="#000000" font-family="sans-serif" font-size="12" font-style="italic" lengthAdjust="spacing" textLength="74" x="594.5" y="222.5703">&#171;application&#187;</text><text fill="#000000" font-family="sans-serif" font-size="14" lengthAdjust="spacing" textLength="156" x="553.5" y="240.6895">BulkEnrollmentController</text><line style="stroke:#181818;stroke-width:0.5;" x1="525.5" x2="711.5" y1="249.2031" y2="249.2031"/><line style="stroke:#181818;stroke-width:0.5;" x1="525.5" x2="711.5" y1="257.2031" y2="257.2031"/></g><!--class ListCourseService--><g id="elem_ListCourseService"><rect codeLine="17" fill="#F1F1F1" height="60.582" id="ListCourseService" rx="2.5" ry="2.5" style="stroke:#181818;stroke-width:0.5;" width="147" x="544" y="344.6211"/><ellipse cx="559" cy="366.9121" fill="#ADD1B2" rx="11" ry="11" style="stroke:#181818;stroke-width:1.0;"/><path d="M561.7656,362.7871 Q561.9219,362.5684 562.1094,362.459 Q562.2969,362.3496 562.5156,362.3496 Q562.8906,362.3496 563.125,362.6152 Q563.3594,362.8652 563.3594,363.4746 L563.3594,364.9277 Q563.3594,365.5371 563.125,365.8027 Q562.8906,366.0684 562.5156,366.0684 Q562.1719,366.0684 561.9688,365.8652 Q561.7656,365.6777 561.6563,365.1621 Q561.6094,364.8027 561.4219,364.6152 Q561.0938,364.2402 560.4844,364.0215 Q559.875,363.8027 559.25,363.8027 Q558.4844,363.8027 557.8438,364.1309 Q557.2188,364.459 556.7188,365.209 Q556.2344,365.959 556.2344,366.9902 L556.2344,368.084 Q556.2344,369.3184 557.125,370.1465 Q558.0156,370.959 559.6094,370.959 Q560.5469,370.959 561.2031,370.709 Q561.5938,370.5527 562.0156,370.1152 Q562.2813,369.8496 562.4219,369.7715 Q562.5781,369.6934 562.7813,369.6934 Q563.1094,369.6934 563.3594,369.959 Q563.625,370.209 563.625,370.5527 Q563.625,370.8965 563.2813,371.3027 Q562.7813,371.8809 561.9844,372.209 Q560.9063,372.6621 559.6094,372.6621 Q558.0938,372.6621 556.8906,372.0371 Q555.9063,371.5371 555.2188,370.4746 Q554.5313,369.3965 554.5313,368.1152 L554.5313,366.959 Q554.5313,365.6309 555.1406,364.4902 Q555.7656,363.334 556.8594,362.7246 Q557.9531,362.0996 559.1875,362.0996 Q559.9219,362.0996 560.5625,362.2715 Q561.2188,362.4277 561.7656,362.7871 Z " fill="#000000"/><text fill="#000000" font-family="sans-serif" font-size="12" font-style="italic" lengthAdjust="spacing" textLength="74" x="593.5" y="362.5703">&#171;application&#187;</text><text fill="#000000" font-family="sans-serif" font-size="14" lengthAdjust="spacing" textLength="115" x="573" y="380.6895">ListCourseService</text><line style="stroke:#181818;stroke-width:0.5;" x1="545" x2="690" y1="389.2031" y2="389.2031"/><line style="stroke:#181818;stroke-width:0.5;" x1="545" x2="690" y1="397.2031" y2="397.2031"/></g><!--class CourseRepository--><g id="elem_CourseRepository"><rect codeLine="19" fill="#F1F1F1" height="60.582" id="CourseRepository" rx="2.5" ry="2.5" style="stroke:#181818;stroke-width:0.5;" width="146" x="452.5" y="466.6211"/><ellipse cx="467.5" cy="488.9121" fill="#B4A7E5" rx="11" ry="11" style="stroke:#181818;stroke-width:1.0;"/><path d="M468.4531,485.5527 L468.4531,492.209 L470.1719,492.209 Q470.7813,492.209 471.0469,492.4434 Q471.3125,492.6777 471.3125,493.0684 Q471.3125,493.4434 471.0469,493.6777 Q470.7813,493.9121 470.1719,493.9121 L465.0313,493.9121 Q464.4219,493.9121 464.1563,493.6777 Q463.8906,493.4434 463.8906,493.0527 Q463.8906,492.6777 464.1563,492.4434 Q464.4219,492.209 465.0313,492.209 L466.75,492.209 L466.75,485.5527 L465.0313,485.5527 Q464.4219,485.5527 464.1563,485.3184 Q463.8906,485.084 463.8906,484.6934 Q463.8906,484.3184 464.1563,484.084 Q464.4219,483.8496 465.0313,483.8496 L470.1719,483.8496 Q470.7813,483.8496 471.0469,484.084 Q471.3125,484.3184 471.3125,484.6934 Q471.3125,485.084 471.0469,485.3184 Q470.7813,485.5527 470.1719,485.5527 L468.4531,485.5527 Z " fill="#000000"/><text fill="#000000" font-family="sans-serif" font-size="12" font-style="italic" lengthAdjust="spacing" textLength="78" x="499.5" y="484.5703">&#171;repositories&#187;</text><text fill="#000000" font-family="sans-serif" font-size="14" font-style="italic" lengthAdjust="spacing" textLength="114" x="481.5" y="502.6895">CourseRepository</text><line style="stroke:#181818;stroke-width:0.5;" x1="453.5" x2="597.5" y1="511.2031" y2="511.2031"/><line style="stroke:#181818;stroke-width:0.5;" x1="453.5" x2="597.5" y1="519.2031" y2="519.2031"/></g><!--link BulkEnrollmentUI to BulkEnrollmentController--><g id="link_BulkEnrollmentUI_BulkEnrollmentController"><path codeLine="22" d="M723.93,125.7411 C701.24,149.0611 672.63,178.4811 650.93,200.7811 " fill="none" id="BulkEnrollmentUI-to-BulkEnrollmentController" style="stroke:#181818;stroke-width:1.0;"/><polygon fill="#181818" points="647.24,204.5811,656.3815,200.9159,650.7252,200.9959,650.6452,195.3396,647.24,204.5811" style="stroke:#181818;stroke-width:1.0;"/><text fill="#000000" font-family="sans-serif" font-size="13" lengthAdjust="spacing" textLength="73" x="694.5" y="170.6494">theController</text></g><!--link BulkEnrollmentController to CourseRepository--><g id="link_BulkEnrollmentController_CourseRepository"><path codeLine="23" d="M569.84,265.8211 C543.7,284.7611 513.95,311.8811 499.5,344.6211 C482.82,382.3911 495.8,429.8511 508.68,461.4811 " fill="none" id="BulkEnrollmentController-to-CourseRepository" style="stroke:#181818;stroke-width:1.0;"/><polygon fill="#181818" points="510.74,466.4211,510.96,456.5747,508.8119,461.8078,503.5787,459.6597,510.74,466.4211" style="stroke:#181818;stroke-width:1.0;"/><text fill="#000000" font-family="sans-serif" font-size="13" lengthAdjust="spacing" textLength="25" x="500.5" y="380.6494">repo</text></g><!--link BulkEnrollmentController to ListCourseService--><g id="link_BulkEnrollmentController_ListCourseService"><path codeLine="24" d="M596.83,265.9111 C591.39,275.0011 586.3,285.3311 583.5,295.6211 C579.43,310.5511 584.31,326.3411 591.53,339.8111 " fill="none" id="BulkEnrollmentController-to-ListCourseService" style="stroke:#181818;stroke-width:1.0;"/><polygon fill="#181818" points="594.06,344.2811,593.1233,334.4769,591.6039,339.9259,586.1549,338.4066,594.06,344.2811" style="stroke:#181818;stroke-width:1.0;"/><text fill="#000000" font-family="sans-serif" font-size="13" lengthAdjust="spacing" textLength="40" x="584.5" y="310.6494">service</text></g><!--link BulkEnrollmentController to Course--><g id="link_BulkEnrollmentController_Course"><path codeLine="25" d="M631.71,265.8111 C639.81,281.6511 651.35,300.6911 665.5,314.6211 C674.61,323.5811 698.98,337.7911 721.73,350.0711 " fill="none" id="BulkEnrollmentController-to-Course" style="stroke:#181818;stroke-width:1.0;"/><polygon fill="#181818" points="726.25,352.4911,720.2056,344.7152,721.8426,350.13,716.4278,351.767,726.25,352.4911" style="stroke:#181818;stroke-width:1.0;"/><text fill="#000000" font-family="sans-serif" font-size="13" lengthAdjust="spacing" textLength="39" x="666.5" y="310.6494">course</text></g><!--link BulkEnrollmentController to Enrollement--><g id="link_BulkEnrollmentController_Enrollement"><path codeLine="26" d="M524.31,242.6711 C478.74,249.9511 425.59,264.9511 386.5,295.6211 C372.28,306.7711 362.29,324.1111 355.63,339.6611 " fill="none" id="BulkEnrollmentController-to-Enrollement" style="stroke:#181818;stroke-width:1.0;"/><polygon fill="#181818" points="353.67,344.4211,360.7881,337.6142,355.5687,339.7956,353.3873,334.5763,353.67,344.4211" style="stroke:#181818;stroke-width:1.0;"/><text fill="#000000" font-family="sans-serif" font-size="13" lengthAdjust="spacing" textLength="67" x="387.5" y="310.6494">enrollement</text></g><!--link BulkEnrollmentController to BulkEnrollmentFileCSV--><g id="link_BulkEnrollmentController_BulkEnrollmentFileCSV"><path codeLine="27" d="M686.29,265.7211 C738.04,288.3311 809.22,319.4111 862.09,342.5011 " fill="none" id="BulkEnrollmentController-to-BulkEnrollmentFileCSV" style="stroke:#181818;stroke-width:1.0;"/><polygon fill="#181818" points="866.82,344.5611,860.1695,337.2967,862.2369,342.5622,856.9714,344.6296,866.82,344.5611" style="stroke:#181818;stroke-width:1.0;"/><text fill="#000000" font-family="sans-serif" font-size="13" lengthAdjust="spacing" textLength="24" x="795.5" y="310.6494">bulk</text></g><!--link JpaCourseRepository to CourseRepository--><g id="link_JpaCourseRepository_CourseRepository"><path codeLine="28" d="M417.88,497.1211 C427.66,497.1211 437.45,497.1211 447.23,497.1211 " fill="none" id="JpaCourseRepository-to-CourseRepository" style="stroke:#181818;stroke-width:1.0;"/><polygon fill="#181818" points="452.35,497.1211,443.35,493.1211,447.35,497.1211,443.35,501.1211,452.35,497.1211" style="stroke:#181818;stroke-width:1.0;"/></g><!--link InMemoryCourseRepository to CourseRepository--><g id="link_InMemoryCourseRepository_CourseRepository"><path codeLine="29" d="M165.66,466.5211 C190.36,454.5011 220.33,442.1511 249,436.1211 C322.07,420.7411 344.77,417.2111 417,436.1211 C438.49,441.7511 460.21,452.6911 478.52,463.7711 " fill="none" id="InMemoryCourseRepository-to-CourseRepository" style="stroke:#181818;stroke-width:1.0;"/><polygon fill="#181818" points="483.1,466.5911,477.5436,458.4593,478.8456,463.9642,473.3407,465.2662,483.1,466.5911" style="stroke:#181818;stroke-width:1.0;"/></g><!--link BulkEnrollmentUI to Course--><g id="link_BulkEnrollmentUI_Course"><path codeLine="32" d="M771.46,125.6411 C773.55,135.3611 775.44,145.8211 776.5,155.6211 C784.1,225.8811 781.22,244.1111 776.5,314.6211 C775.96,322.7211 775.01,331.3911 773.94,339.5411 " fill="none" id="BulkEnrollmentUI-to-Course" style="stroke:#181818;stroke-width:1.0;stroke-dasharray:7.0,7.0;"/><polygon fill="#181818" points="773.27,344.5411,778.4418,336.1594,773.9411,339.5863,770.5142,335.0856,773.27,344.5411" style="stroke:#181818;stroke-width:1.0;"/></g><!--link BulkEnrollmentUI to Enrollement--><g id="link_BulkEnrollmentUI_Enrollement"><path codeLine="33" d="M692.25,102.5911 C600.79,126.9111 442.01,183.3711 362.5,295.6211 C353.57,308.2211 349,324.5611 346.68,339.0611 " fill="none" id="BulkEnrollmentUI-to-Enrollement" style="stroke:#181818;stroke-width:1.0;stroke-dasharray:7.0,7.0;"/><polygon fill="#181818" points="345.93,344.3211,351.1761,335.9857,346.6451,339.3725,343.2583,334.8415,345.93,344.3211" style="stroke:#181818;stroke-width:1.0;"/></g><!--link BulkEnrollmentUI to BulkEnrollmentFileCSV--><g id="link_BulkEnrollmentUI_BulkEnrollmentFileCSV"><path codeLine="34" d="M784.83,125.8311 C818.83,182.2311 881.46,286.1311 913.86,339.8911 " fill="none" id="BulkEnrollmentUI-to-BulkEnrollmentFileCSV" style="stroke:#181818;stroke-width:1.0;stroke-dasharray:7.0,7.0;"/><polygon fill="#181818" points="916.52,344.3011,915.2956,334.5286,913.937,340.0199,908.4457,338.6614,916.52,344.3011" style="stroke:#181818;stroke-width:1.0;"/></g><!--link ListCourseService to CourseRepository--><g id="link_ListCourseService_CourseRepository"><path codeLine="35" d="M594.76,405.7811 C581.6,422.9511 564.99,444.6011 551.34,462.4111 " fill="none" id="ListCourseService-to-CourseRepository" style="stroke:#181818;stroke-width:1.0;stroke-dasharray:7.0,7.0;"/><polygon fill="#181818" points="548.3,466.3811,556.9489,461.6697,551.341,462.4121,550.5986,456.8042,548.3,466.3811" style="stroke:#181818;stroke-width:1.0;"/></g><!--SRC=[ZP8zJyCm48Pt_uhRqWwHoeGKLHb8YrG435XbGGmcEHeBnuvijmYX_dUSZxOXSQ9ckiizx_azdost0Y4Hp1XOSRRJh80PfQivXB2bSBDOt18Ir7Kq9AsvkxtuMakjX2XGskq6bijIet4nirp9E8PV0kxB5CtLzsnEZgHLFfGiKNjjy0LBPRXL-gSIepRSM9GfLjfZ2s_a4nQEk4RHIXhK0Pag69VTRerXh1nxw_-7kkS24_hQ8xreegIjMsj7ix8KF3rVmwdvepFRUAEe3pp5FbervzAY_cIkw9bOdnAEfZKJFBC3tzKDo60bOHYF-up0vdZ9oIXOTHcOYQ0oCoqQ3Xo1QQ9hJdDqMWVJS7Ud4U0bcvRvLnt1X_jFV4_KSmjaz7NwO1Aii4IPkGVhzkVPrbl6J8xP-raypQn7H-s1tb79S3j30nttVm00]--></g></svg>