<?xml version="1.0" encoding="us-ascii" standalone="no"?><svg xmlns="http://www.w3.org/2000/svg" xmlns:xlink="http://www.w3.org/1999/xlink" contentStyleType="text/css" height="414px" preserveAspectRatio="none" style="width:493px;height:414px;background:#FFFFFF;" version="1.1" viewBox="0 0 493 414" width="493px" zoomAndPan="magnify"><defs/><g><text fill="#000000" font-family="sans-serif" font-size="14" font-weight="bold" lengthAdjust="spacing" textLength="296" x="97.5" y="30.1074">System Sequence Diagram (SSD) - US 1007</text><rect fill="#FFFFFF" height="179.7461" style="stroke:#181818;stroke-width:1.0;" width="10" x="29" y="133.2422"/><rect fill="#FFFFFF" height="31.291" style="stroke:#181818;stroke-width:1.0;" width="10" x="448" y="156.5332"/><rect fill="#FFFFFF" height="31.291" style="stroke:#181818;stroke-width:1.0;" width="10" x="448" y="219.1152"/><rect fill="#FFFFFF" height="31.291" style="stroke:#181818;stroke-width:1.0;" width="10" x="448" y="281.6973"/><line style="stroke:#181818;stroke-width:0.5;stroke-dasharray:5.0,5.0;" x1="34" x2="34" y1="123.2422" y2="330.9883"/><line style="stroke:#181818;stroke-width:0.5;stroke-dasharray:5.0,5.0;" x1="453" x2="453" y1="123.2422" y2="330.9883"/><text fill="#000000" font-family="sans-serif" font-size="14" lengthAdjust="spacing" textLength="52" x="5" y="119.7285">Gerente</text><ellipse cx="34" cy="53.1211" fill="#E3E3E3" rx="8" ry="8" style="stroke:#181818;stroke-width:0.5;"/><path d="M34,61.1211 L34,88.1211 M21,69.1211 L47,69.1211 M34,88.1211 L21,103.1211 M34,88.1211 L47,103.1211 " fill="none" style="stroke:#181818;stroke-width:0.5;"/><text fill="#000000" font-family="sans-serif" font-size="14" lengthAdjust="spacing" textLength="52" x="5" y="345.0957">Gerente</text><ellipse cx="34" cy="357.1094" fill="#E3E3E3" rx="8" ry="8" style="stroke:#181818;stroke-width:0.5;"/><path d="M34,365.1094 L34,392.1094 M21,373.1094 L47,373.1094 M34,392.1094 L21,407.1094 M34,392.1094 L47,407.1094 " fill="none" style="stroke:#181818;stroke-width:0.5;"/><rect fill="#E3E3E3" height="32.6211" rx="2.5" ry="2.5" style="stroke:#181818;stroke-width:0.5;" width="68" x="419" y="89.6211"/><text fill="#000000" font-family="sans-serif" font-size="14" lengthAdjust="spacing" textLength="54" x="426" y="111.7285">:Sistema</text><rect fill="#E3E3E3" height="32.6211" rx="2.5" ry="2.5" style="stroke:#181818;stroke-width:0.5;" width="68" x="419" y="329.9883"/><text fill="#000000" font-family="sans-serif" font-size="14" lengthAdjust="spacing" textLength="54" x="426" y="352.0957">:Sistema</text><rect fill="#FFFFFF" height="179.7461" style="stroke:#181818;stroke-width:1.0;" width="10" x="29" y="133.2422"/><rect fill="#FFFFFF" height="31.291" style="stroke:#181818;stroke-width:1.0;" width="10" x="448" y="156.5332"/><rect fill="#FFFFFF" height="31.291" style="stroke:#181818;stroke-width:1.0;" width="10" x="448" y="219.1152"/><rect fill="#FFFFFF" height="31.291" style="stroke:#181818;stroke-width:1.0;" width="10" x="448" y="281.6973"/><polygon fill="#181818" points="436,152.5332,446,156.5332,436,160.5332,440,156.5332" style="stroke:#181818;stroke-width:1.0;"/><line style="stroke:#181818;stroke-width:1.0;" x1="39" x2="442" y1="156.5332" y2="156.5332"/><text fill="#000000" font-family="sans-serif" font-size="13" font-weight="bold" lengthAdjust="spacing" textLength="7" x="46" y="151.2705">1</text><text fill="#000000" font-family="sans-serif" font-size="13" lengthAdjust="spacing" textLength="225" x="57" y="151.2705">Pede para inscrever alunos, em massa</text><polygon fill="#181818" points="50,183.8242,40,187.8242,50,191.8242,46,187.8242" style="stroke:#181818;stroke-width:1.0;"/><line style="stroke:#181818;stroke-width:1.0;stroke-dasharray:2.0,2.0;" x1="44" x2="452" y1="187.8242" y2="187.8242"/><text fill="#000000" font-family="sans-serif" font-size="13" font-weight="bold" lengthAdjust="spacing" textLength="7" x="56" y="182.5615">2</text><text fill="#000000" font-family="sans-serif" font-size="13" lengthAdjust="spacing" textLength="221" x="67" y="182.5615">Pede para introduzir o caminho do csv</text><polygon fill="#181818" points="436,215.1152,446,219.1152,436,223.1152,440,219.1152" style="stroke:#181818;stroke-width:1.0;"/><line style="stroke:#181818;stroke-width:1.0;" x1="39" x2="442" y1="219.1152" y2="219.1152"/><text fill="#000000" font-family="sans-serif" font-size="13" font-weight="bold" lengthAdjust="spacing" textLength="7" x="46" y="213.8525">3</text><text fill="#000000" font-family="sans-serif" font-size="13" lengthAdjust="spacing" textLength="151" x="57" y="213.8525">Introduz o caminho do csv</text><polygon fill="#181818" points="50,246.4063,40,250.4063,50,254.4063,46,250.4063" style="stroke:#181818;stroke-width:1.0;"/><line style="stroke:#181818;stroke-width:1.0;stroke-dasharray:2.0,2.0;" x1="44" x2="452" y1="250.4063" y2="250.4063"/><text fill="#000000" font-family="sans-serif" font-size="13" font-weight="bold" lengthAdjust="spacing" textLength="7" x="56" y="245.1436">4</text><text fill="#000000" font-family="sans-serif" font-size="13" lengthAdjust="spacing" textLength="374" x="67" y="245.1436">Mostra os dados a importar e pede confirma&#231;&#227;o para os importar</text><polygon fill="#181818" points="436,277.6973,446,281.6973,436,285.6973,440,281.6973" style="stroke:#181818;stroke-width:1.0;"/><line style="stroke:#181818;stroke-width:1.0;" x1="39" x2="442" y1="281.6973" y2="281.6973"/><text fill="#000000" font-family="sans-serif" font-size="13" font-weight="bold" lengthAdjust="spacing" textLength="7" x="46" y="276.4346">5</text><text fill="#000000" font-family="sans-serif" font-size="13" lengthAdjust="spacing" textLength="119" x="57" y="276.4346">Confirma a opera&#231;&#227;o</text><polygon fill="#181818" points="45,308.9883,35,312.9883,45,316.9883,41,312.9883" style="stroke:#181818;stroke-width:1.0;"/><line style="stroke:#181818;stroke-width:1.0;stroke-dasharray:2.0,2.0;" x1="39" x2="452" y1="312.9883" y2="312.9883"/><text fill="#000000" font-family="sans-serif" font-size="13" font-weight="bold" lengthAdjust="spacing" textLength="7" x="51" y="307.7256">6</text><text fill="#000000" font-family="sans-serif" font-size="13" lengthAdjust="spacing" textLength="168" x="62" y="307.7256">Mostra sucesso da opera&#231;&#227;o</text><!--SRC=[bP71IWD138RlynIX9mKBzIJq88W5yI08YmyGPzFjq9t9ccGhzNKy-21zCMUxkzfI3_Kqm-JFbs-8haDgK312vCH-9Hm9J5fo-bDfqA-neiAsDO6GDqnLVHZG5PRy7b85IwoLdBDWELfirIX2GMyj9K-m25XryOkYM5p255uAk9xDRXosngcDhoJEeJSMc3oGK3AQ02hSTKykJxBWGuF9O38lGeV6VRqVisyD6pGQ6jp-WEdjw367Poe9EcK8IRtGXWImRXFh5UH0H5NynOpSeNsQIJto66J2PViH11Wynf1M36M-wiQLTC8wTNeS0AVjvuWyiLgsO8Kohq0X2yM6nL0W2tQMdjCoICJTr-wJU-US6rFdETuFZ8pdXgHd_STFMq-g-MT7W3zc7pprM_m6]--></g></svg>