<?xml version="1.0" encoding="us-ascii" standalone="no"?><svg xmlns="http://www.w3.org/2000/svg" xmlns:xlink="http://www.w3.org/1999/xlink" contentStyleType="text/css" height="648px" preserveAspectRatio="none" style="width:2043px;height:648px;background:#FFFFFF;" version="1.1" viewBox="0 0 2043 648" width="2043px" zoomAndPan="magnify"><defs/><g><!--class TakeExamUI--><g id="elem_TakeExamUI"><rect codeLine="2" fill="#F1F1F1" height="56.2656" id="TakeExamUI" rx="2.5" ry="2.5" style="stroke:#181818;stroke-width:0.5;" width="119" x="533.5" y="7"/><ellipse cx="548.5" cy="27.1328" fill="#ADD1B2" rx="11" ry="11" style="stroke:#181818;stroke-width:1.0;"/><path d="M550.8438,22.8047 C549.9063,22.3672 549.3125,22.2266 548.4375,22.2266 C545.8125,22.2266 543.8125,24.3047 543.8125,27.0234 L543.8125,28.1484 C543.8125,30.7266 545.9219,32.6172 548.8125,32.6172 C550.0313,32.6172 551.1875,32.3203 551.9375,31.7734 C552.5156,31.3672 552.8438,30.9141 552.8438,30.5234 C552.8438,30.0703 552.4531,29.6797 551.9844,29.6797 C551.7656,29.6797 551.5625,29.7578 551.375,29.9453 C550.9219,30.4297 550.9219,30.4297 550.7344,30.5234 C550.3125,30.7891 549.625,30.9141 548.8594,30.9141 C546.8125,30.9141 545.5156,29.8203 545.5156,28.1172 L545.5156,27.0234 C545.5156,25.2422 546.7656,23.9297 548.5,23.9297 C549.0781,23.9297 549.6875,24.0859 550.1563,24.3359 C550.6406,24.6172 550.8125,24.8359 550.9063,25.2422 C550.9688,25.6484 551,25.7734 551.1406,25.8984 C551.2813,26.0391 551.5156,26.1484 551.7344,26.1484 C552,26.1484 552.2656,26.0078 552.4375,25.7891 C552.5469,25.6328 552.5781,25.4453 552.5781,25.0234 L552.5781,23.6016 C552.5781,23.1641 552.5625,23.0391 552.4688,22.8828 C552.3125,22.6172 552.0313,22.4766 551.7344,22.4766 C551.4375,22.4766 551.2344,22.5703 551.0156,22.8828 L550.8438,22.8047 Z " fill="#000000"/><text fill="#000000" font-family="sans-serif" font-size="12" font-style="italic" lengthAdjust="spacing" textLength="90" x="561" y="23.1387">&#171;presentation&#187;</text><text fill="#000000" font-family="sans-serif" font-size="14" lengthAdjust="spacing" textLength="87" x="562.5" y="38.9639">TakeExamUI</text><line style="stroke:#181818;stroke-width:0.5;" x1="534.5" x2="651.5" y1="47.2656" y2="47.2656"/><line style="stroke:#181818;stroke-width:0.5;" x1="534.5" x2="651.5" y1="55.2656" y2="55.2656"/></g><!--class TakeExamController--><g id="elem_TakeExamController"><rect codeLine="5" fill="#F1F1F1" height="154.0469" id="TakeExamController" rx="2.5" ry="2.5" style="stroke:#181818;stroke-width:0.5;" width="599" x="625.5" y="140"/><ellipse cx="847.25" cy="160.1328" fill="#ADD1B2" rx="11" ry="11" style="stroke:#181818;stroke-width:1.0;"/><path d="M849.5938,155.8047 C848.6563,155.3672 848.0625,155.2266 847.1875,155.2266 C844.5625,155.2266 842.5625,157.3047 842.5625,160.0234 L842.5625,161.1484 C842.5625,163.7266 844.6719,165.6172 847.5625,165.6172 C848.7813,165.6172 849.9375,165.3203 850.6875,164.7734 C851.2656,164.3672 851.5938,163.9141 851.5938,163.5234 C851.5938,163.0703 851.2031,162.6797 850.7344,162.6797 C850.5156,162.6797 850.3125,162.7578 850.125,162.9453 C849.6719,163.4297 849.6719,163.4297 849.4844,163.5234 C849.0625,163.7891 848.375,163.9141 847.6094,163.9141 C845.5625,163.9141 844.2656,162.8203 844.2656,161.1172 L844.2656,160.0234 C844.2656,158.2422 845.5156,156.9297 847.25,156.9297 C847.8281,156.9297 848.4375,157.0859 848.9063,157.3359 C849.3906,157.6172 849.5625,157.8359 849.6563,158.2422 C849.7188,158.6484 849.75,158.7734 849.8906,158.8984 C850.0313,159.0391 850.2656,159.1484 850.4844,159.1484 C850.75,159.1484 851.0156,159.0078 851.1875,158.7891 C851.2969,158.6328 851.3281,158.4453 851.3281,158.0234 L851.3281,156.6016 C851.3281,156.1641 851.3125,156.0391 851.2188,155.8828 C851.0625,155.6172 850.7813,155.4766 850.4844,155.4766 C850.1875,155.4766 849.9844,155.5703 849.7656,155.8828 L849.5938,155.8047 Z " fill="#000000"/><text fill="#000000" font-family="sans-serif" font-size="12" font-style="italic" lengthAdjust="spacing" textLength="80" x="901.25" y="156.1387">&#171;application&#187;</text><text fill="#000000" font-family="sans-serif" font-size="14" lengthAdjust="spacing" textLength="147" x="867.75" y="171.9639">TakeExamController</text><line style="stroke:#181818;stroke-width:0.5;" x1="626.5" x2="1223.5" y1="180.2656" y2="180.2656"/><line style="stroke:#181818;stroke-width:0.5;" x1="626.5" x2="1223.5" y1="188.2656" y2="188.2656"/><ellipse cx="636.5" cy="201.9141" fill="#84BE84" rx="3" ry="3" style="stroke:#038048;stroke-width:1.0;"/><text fill="#000000" font-family="sans-serif" font-size="14" lengthAdjust="spacing" textLength="573" x="645.5" y="205.2607">Iterable&lt;Course&gt; findAllStudentApprovedCoursesInProgressWithActualExams()</text><ellipse cx="636.5" cy="218.2109" fill="#84BE84" rx="3" ry="3" style="stroke:#038048;stroke-width:1.0;"/><text fill="#000000" font-family="sans-serif" font-size="14" lengthAdjust="spacing" textLength="454" x="645.5" y="221.5576">Iterable&lt;Exam&gt; listAllAvailableExamsOfTheCourse( theCourse)</text><text fill="#000000" font-family="sans-serif" font-size="14" lengthAdjust="spacing" textLength="4" x="645.5" y="237.8545">&#160;</text><ellipse cx="636.5" cy="250.8047" fill="#84BE84" rx="3" ry="3" style="stroke:#038048;stroke-width:1.0;"/><text fill="#000000" font-family="sans-serif" font-size="14" lengthAdjust="spacing" textLength="301" x="645.5" y="254.1514">String getExamQuestionsString(theExam)</text><ellipse cx="636.5" cy="267.1016" fill="#84BE84" rx="3" ry="3" style="stroke:#038048;stroke-width:1.0;"/><text fill="#000000" font-family="sans-serif" font-size="14" lengthAdjust="spacing" textLength="314" x="645.5" y="270.4482">float parseExamAnswers(filePath, theExam)</text><ellipse cx="636.5" cy="283.3984" fill="#84BE84" rx="3" ry="3" style="stroke:#038048;stroke-width:1.0;"/><text fill="#000000" font-family="sans-serif" font-size="14" lengthAdjust="spacing" textLength="256" x="645.5" y="286.7451">String getExamFeedback(theExam)</text></g><!--class ExamService--><g id="elem_ExamService"><rect codeLine="14" fill="#F1F1F1" height="121.4531" id="ExamService" rx="2.5" ry="2.5" style="stroke:#181818;stroke-width:0.5;" width="541" x="298.5" y="371"/><ellipse cx="518.75" cy="391.1328" fill="#ADD1B2" rx="11" ry="11" style="stroke:#181818;stroke-width:1.0;"/><path d="M521.0938,386.8047 C520.1563,386.3672 519.5625,386.2266 518.6875,386.2266 C516.0625,386.2266 514.0625,388.3047 514.0625,391.0234 L514.0625,392.1484 C514.0625,394.7266 516.1719,396.6172 519.0625,396.6172 C520.2813,396.6172 521.4375,396.3203 522.1875,395.7734 C522.7656,395.3672 523.0938,394.9141 523.0938,394.5234 C523.0938,394.0703 522.7031,393.6797 522.2344,393.6797 C522.0156,393.6797 521.8125,393.7578 521.625,393.9453 C521.1719,394.4297 521.1719,394.4297 520.9844,394.5234 C520.5625,394.7891 519.875,394.9141 519.1094,394.9141 C517.0625,394.9141 515.7656,393.8203 515.7656,392.1172 L515.7656,391.0234 C515.7656,389.2422 517.0156,387.9297 518.75,387.9297 C519.3281,387.9297 519.9375,388.0859 520.4063,388.3359 C520.8906,388.6172 521.0625,388.8359 521.1563,389.2422 C521.2188,389.6484 521.25,389.7734 521.3906,389.8984 C521.5313,390.0391 521.7656,390.1484 521.9844,390.1484 C522.25,390.1484 522.5156,390.0078 522.6875,389.7891 C522.7969,389.6328 522.8281,389.4453 522.8281,389.0234 L522.8281,387.6016 C522.8281,387.1641 522.8125,387.0391 522.7188,386.8828 C522.5625,386.6172 522.2813,386.4766 521.9844,386.4766 C521.6875,386.4766 521.4844,386.5703 521.2656,386.8828 L521.0938,386.8047 Z " fill="#000000"/><text fill="#000000" font-family="sans-serif" font-size="12" font-style="italic" lengthAdjust="spacing" textLength="56" x="557.25" y="387.1387">&#171;service&#187;</text><text fill="#000000" font-family="sans-serif" font-size="14" lengthAdjust="spacing" textLength="92" x="539.25" y="402.9639">ExamService</text><line style="stroke:#181818;stroke-width:0.5;" x1="299.5" x2="838.5" y1="411.2656" y2="411.2656"/><line style="stroke:#181818;stroke-width:0.5;" x1="299.5" x2="838.5" y1="419.2656" y2="419.2656"/><ellipse cx="309.5" cy="432.9141" fill="#84BE84" rx="3" ry="3" style="stroke:#038048;stroke-width:1.0;"/><text fill="#000000" font-family="sans-serif" font-size="14" lengthAdjust="spacing" textLength="375" x="318.5" y="436.2607">float parseAndHandleExamGrade(filePath, theExam)</text><text fill="#000000" font-family="sans-serif" font-size="14" lengthAdjust="spacing" textLength="4" x="318.5" y="452.5576">&#160;</text><ellipse cx="309.5" cy="465.5078" fill="#84BE84" rx="3" ry="3" style="stroke:#038048;stroke-width:1.0;"/><text fill="#000000" font-family="sans-serif" font-size="14" lengthAdjust="spacing" textLength="515" x="318.5" y="468.8545">Map&lt;String, Integer&gt; countAllTypeQuestionsQuantityInExam(theExam)</text><ellipse cx="309.5" cy="481.8047" fill="#84BE84" rx="3" ry="3" style="stroke:#038048;stroke-width:1.0;"/><text fill="#000000" font-family="sans-serif" font-size="14" lengthAdjust="spacing" textLength="286" x="318.5" y="485.1514">float calculateExamMaxGrade(theExam)</text></g><!--class Student--><g id="elem_Student"><rect codeLine="22" fill="#F1F1F1" height="56.2656" id="Student" rx="2.5" ry="2.5" style="stroke:#181818;stroke-width:0.5;" width="90" x="1824" y="403.5"/><ellipse cx="1839" cy="423.6328" fill="#ADD1B2" rx="11" ry="11" style="stroke:#181818;stroke-width:1.0;"/><path d="M1841.3438,419.3047 C1840.4063,418.8672 1839.8125,418.7266 1838.9375,418.7266 C1836.3125,418.7266 1834.3125,420.8047 1834.3125,423.5234 L1834.3125,424.6484 C1834.3125,427.2266 1836.4219,429.1172 1839.3125,429.1172 C1840.5313,429.1172 1841.6875,428.8203 1842.4375,428.2734 C1843.0156,427.8672 1843.3438,427.4141 1843.3438,427.0234 C1843.3438,426.5703 1842.9531,426.1797 1842.4844,426.1797 C1842.2656,426.1797 1842.0625,426.2578 1841.875,426.4453 C1841.4219,426.9297 1841.4219,426.9297 1841.2344,427.0234 C1840.8125,427.2891 1840.125,427.4141 1839.3594,427.4141 C1837.3125,427.4141 1836.0156,426.3203 1836.0156,424.6172 L1836.0156,423.5234 C1836.0156,421.7422 1837.2656,420.4297 1839,420.4297 C1839.5781,420.4297 1840.1875,420.5859 1840.6563,420.8359 C1841.1406,421.1172 1841.3125,421.3359 1841.4063,421.7422 C1841.4688,422.1484 1841.5,422.2734 1841.6406,422.3984 C1841.7813,422.5391 1842.0156,422.6484 1842.2344,422.6484 C1842.5,422.6484 1842.7656,422.5078 1842.9375,422.2891 C1843.0469,422.1328 1843.0781,421.9453 1843.0781,421.5234 L1843.0781,420.1016 C1843.0781,419.6641 1843.0625,419.5391 1842.9688,419.3828 C1842.8125,419.1172 1842.5313,418.9766 1842.2344,418.9766 C1841.9375,418.9766 1841.7344,419.0703 1841.5156,419.3828 L1841.3438,419.3047 Z " fill="#000000"/><text fill="#000000" font-family="sans-serif" font-size="12" font-style="italic" lengthAdjust="spacing" textLength="59" x="1852.5" y="419.6387">&#171;domain&#187;</text><text fill="#000000" font-family="sans-serif" font-size="14" lengthAdjust="spacing" textLength="58" x="1853" y="435.4639">Student</text><line style="stroke:#181818;stroke-width:0.5;" x1="1825" x2="1913" y1="443.7656" y2="443.7656"/><line style="stroke:#181818;stroke-width:0.5;" x1="1825" x2="1913" y1="451.7656" y2="451.7656"/></g><!--class Course--><g id="elem_Course"><rect codeLine="25" fill="#F1F1F1" height="56.2656" id="Course" rx="2.5" ry="2.5" style="stroke:#181818;stroke-width:0.5;" width="87" x="1949.5" y="403.5"/><ellipse cx="1964.5" cy="423.6328" fill="#ADD1B2" rx="11" ry="11" style="stroke:#181818;stroke-width:1.0;"/><path d="M1966.8438,419.3047 C1965.9063,418.8672 1965.3125,418.7266 1964.4375,418.7266 C1961.8125,418.7266 1959.8125,420.8047 1959.8125,423.5234 L1959.8125,424.6484 C1959.8125,427.2266 1961.9219,429.1172 1964.8125,429.1172 C1966.0313,429.1172 1967.1875,428.8203 1967.9375,428.2734 C1968.5156,427.8672 1968.8438,427.4141 1968.8438,427.0234 C1968.8438,426.5703 1968.4531,426.1797 1967.9844,426.1797 C1967.7656,426.1797 1967.5625,426.2578 1967.375,426.4453 C1966.9219,426.9297 1966.9219,426.9297 1966.7344,427.0234 C1966.3125,427.2891 1965.625,427.4141 1964.8594,427.4141 C1962.8125,427.4141 1961.5156,426.3203 1961.5156,424.6172 L1961.5156,423.5234 C1961.5156,421.7422 1962.7656,420.4297 1964.5,420.4297 C1965.0781,420.4297 1965.6875,420.5859 1966.1563,420.8359 C1966.6406,421.1172 1966.8125,421.3359 1966.9063,421.7422 C1966.9688,422.1484 1967,422.2734 1967.1406,422.3984 C1967.2813,422.5391 1967.5156,422.6484 1967.7344,422.6484 C1968,422.6484 1968.2656,422.5078 1968.4375,422.2891 C1968.5469,422.1328 1968.5781,421.9453 1968.5781,421.5234 L1968.5781,420.1016 C1968.5781,419.6641 1968.5625,419.5391 1968.4688,419.3828 C1968.3125,419.1172 1968.0313,418.9766 1967.7344,418.9766 C1967.4375,418.9766 1967.2344,419.0703 1967.0156,419.3828 L1966.8438,419.3047 Z " fill="#000000"/><text fill="#000000" font-family="sans-serif" font-size="12" font-style="italic" lengthAdjust="spacing" textLength="59" x="1976.5" y="419.6387">&#171;domain&#187;</text><text fill="#000000" font-family="sans-serif" font-size="14" lengthAdjust="spacing" textLength="49" x="1981.5" y="435.4639">Course</text><line style="stroke:#181818;stroke-width:0.5;" x1="1950.5" x2="2035.5" y1="443.7656" y2="443.7656"/><line style="stroke:#181818;stroke-width:0.5;" x1="1950.5" x2="2035.5" y1="451.7656" y2="451.7656"/></g><!--class Exam--><g id="elem_Exam"><rect codeLine="32" fill="#F1F1F1" height="88.8594" id="Exam" rx="2.5" ry="2.5" style="stroke:#181818;stroke-width:0.5;" width="256" x="7" y="387"/><ellipse cx="103.25" cy="407.1328" fill="#ADD1B2" rx="11" ry="11" style="stroke:#181818;stroke-width:1.0;"/><path d="M105.5938,402.8047 C104.6563,402.3672 104.0625,402.2266 103.1875,402.2266 C100.5625,402.2266 98.5625,404.3047 98.5625,407.0234 L98.5625,408.1484 C98.5625,410.7266 100.6719,412.6172 103.5625,412.6172 C104.7813,412.6172 105.9375,412.3203 106.6875,411.7734 C107.2656,411.3672 107.5938,410.9141 107.5938,410.5234 C107.5938,410.0703 107.2031,409.6797 106.7344,409.6797 C106.5156,409.6797 106.3125,409.7578 106.125,409.9453 C105.6719,410.4297 105.6719,410.4297 105.4844,410.5234 C105.0625,410.7891 104.375,410.9141 103.6094,410.9141 C101.5625,410.9141 100.2656,409.8203 100.2656,408.1172 L100.2656,407.0234 C100.2656,405.2422 101.5156,403.9297 103.25,403.9297 C103.8281,403.9297 104.4375,404.0859 104.9063,404.3359 C105.3906,404.6172 105.5625,404.8359 105.6563,405.2422 C105.7188,405.6484 105.75,405.7734 105.8906,405.8984 C106.0313,406.0391 106.2656,406.1484 106.4844,406.1484 C106.75,406.1484 107.0156,406.0078 107.1875,405.7891 C107.2969,405.6328 107.3281,405.4453 107.3281,405.0234 L107.3281,403.6016 C107.3281,403.1641 107.3125,403.0391 107.2188,402.8828 C107.0625,402.6172 106.7813,402.4766 106.4844,402.4766 C106.1875,402.4766 105.9844,402.5703 105.7656,402.8828 L105.5938,402.8047 Z " fill="#000000"/><text fill="#000000" font-family="sans-serif" font-size="12" font-style="italic" lengthAdjust="spacing" textLength="59" x="121.75" y="403.1387">&#171;domain&#187;</text><text fill="#000000" font-family="sans-serif" font-size="14" lengthAdjust="spacing" textLength="39" x="131.75" y="418.9639">Exam</text><line style="stroke:#181818;stroke-width:0.5;" x1="8" x2="262" y1="427.2656" y2="427.2656"/><line style="stroke:#181818;stroke-width:0.5;" x1="8" x2="262" y1="435.2656" y2="435.2656"/><ellipse cx="18" cy="448.9141" fill="#84BE84" rx="3" ry="3" style="stroke:#038048;stroke-width:1.0;"/><text fill="#000000" font-family="sans-serif" font-size="14" lengthAdjust="spacing" textLength="226" x="27" y="452.2607">Exam transformInExamObject()</text><ellipse cx="18" cy="465.2109" fill="#84BE84" rx="3" ry="3" style="stroke:#038048;stroke-width:1.0;"/><text fill="#000000" font-family="sans-serif" font-size="14" lengthAdjust="spacing" textLength="230" x="27" y="468.5576">String examQuestionsToString()</text></g><!--class ResolutionMain--><g id="elem_ResolutionMain"><rect codeLine="36" fill="#F1F1F1" height="72.5625" id="ResolutionMain" rx="2.5" ry="2.5" style="stroke:#181818;stroke-width:0.5;" width="303" x="874.5" y="395"/><ellipse cx="967.25" cy="415.1328" fill="#ADD1B2" rx="11" ry="11" style="stroke:#181818;stroke-width:1.0;"/><path d="M969.5938,410.8047 C968.6563,410.3672 968.0625,410.2266 967.1875,410.2266 C964.5625,410.2266 962.5625,412.3047 962.5625,415.0234 L962.5625,416.1484 C962.5625,418.7266 964.6719,420.6172 967.5625,420.6172 C968.7813,420.6172 969.9375,420.3203 970.6875,419.7734 C971.2656,419.3672 971.5938,418.9141 971.5938,418.5234 C971.5938,418.0703 971.2031,417.6797 970.7344,417.6797 C970.5156,417.6797 970.3125,417.7578 970.125,417.9453 C969.6719,418.4297 969.6719,418.4297 969.4844,418.5234 C969.0625,418.7891 968.375,418.9141 967.6094,418.9141 C965.5625,418.9141 964.2656,417.8203 964.2656,416.1172 L964.2656,415.0234 C964.2656,413.2422 965.5156,411.9297 967.25,411.9297 C967.8281,411.9297 968.4375,412.0859 968.9063,412.3359 C969.3906,412.6172 969.5625,412.8359 969.6563,413.2422 C969.7188,413.6484 969.75,413.7734 969.8906,413.8984 C970.0313,414.0391 970.2656,414.1484 970.4844,414.1484 C970.75,414.1484 971.0156,414.0078 971.1875,413.7891 C971.2969,413.6328 971.3281,413.4453 971.3281,413.0234 L971.3281,411.6016 C971.3281,411.1641 971.3125,411.0391 971.2188,410.8828 C971.0625,410.6172 970.7813,410.4766 970.4844,410.4766 C970.1875,410.4766 969.9844,410.5703 969.7656,410.8828 L969.5938,410.8047 Z " fill="#000000"/><text fill="#000000" font-family="sans-serif" font-size="12" font-style="italic" lengthAdjust="spacing" textLength="45" x="1019.75" y="411.1387">&#171;lprog&#187;</text><text fill="#000000" font-family="sans-serif" font-size="14" lengthAdjust="spacing" textLength="109" x="987.75" y="426.9639">ResolutionMain</text><line style="stroke:#181818;stroke-width:0.5;" x1="875.5" x2="1176.5" y1="435.2656" y2="435.2656"/><line style="stroke:#181818;stroke-width:0.5;" x1="875.5" x2="1176.5" y1="443.2656" y2="443.2656"/><ellipse cx="885.5" cy="456.9141" fill="#84BE84" rx="3" ry="3" style="stroke:#038048;stroke-width:1.0;"/><text fill="#000000" font-family="sans-serif" font-size="14" lengthAdjust="spacing" textLength="277" x="894.5" y="460.2607">parseWithVisitor(fileToPath, theExam)</text></g><!--class CourseRepository--><g id="elem_CourseRepository"><rect codeLine="41" fill="#F1F1F1" height="72.5625" id="CourseRepository" rx="2.5" ry="2.5" style="stroke:#181818;stroke-width:0.5;" width="576" x="1213" y="395"/><ellipse cx="1432.75" cy="415.1328" fill="#ADD1B2" rx="11" ry="11" style="stroke:#181818;stroke-width:1.0;"/><path d="M1435.0938,410.8047 C1434.1563,410.3672 1433.5625,410.2266 1432.6875,410.2266 C1430.0625,410.2266 1428.0625,412.3047 1428.0625,415.0234 L1428.0625,416.1484 C1428.0625,418.7266 1430.1719,420.6172 1433.0625,420.6172 C1434.2813,420.6172 1435.4375,420.3203 1436.1875,419.7734 C1436.7656,419.3672 1437.0938,418.9141 1437.0938,418.5234 C1437.0938,418.0703 1436.7031,417.6797 1436.2344,417.6797 C1436.0156,417.6797 1435.8125,417.7578 1435.625,417.9453 C1435.1719,418.4297 1435.1719,418.4297 1434.9844,418.5234 C1434.5625,418.7891 1433.875,418.9141 1433.1094,418.9141 C1431.0625,418.9141 1429.7656,417.8203 1429.7656,416.1172 L1429.7656,415.0234 C1429.7656,413.2422 1431.0156,411.9297 1432.75,411.9297 C1433.3281,411.9297 1433.9375,412.0859 1434.4063,412.3359 C1434.8906,412.6172 1435.0625,412.8359 1435.1563,413.2422 C1435.2188,413.6484 1435.25,413.7734 1435.3906,413.8984 C1435.5313,414.0391 1435.7656,414.1484 1435.9844,414.1484 C1436.25,414.1484 1436.5156,414.0078 1436.6875,413.7891 C1436.7969,413.6328 1436.8281,413.4453 1436.8281,413.0234 L1436.8281,411.6016 C1436.8281,411.1641 1436.8125,411.0391 1436.7188,410.8828 C1436.5625,410.6172 1436.2813,410.4766 1435.9844,410.4766 C1435.6875,410.4766 1435.4844,410.5703 1435.2656,410.8828 L1435.0938,410.8047 Z " fill="#000000"/><text fill="#000000" font-family="sans-serif" font-size="12" font-style="italic" lengthAdjust="spacing" textLength="74" x="1480.25" y="411.1387">&#171;repository&#187;</text><text fill="#000000" font-family="sans-serif" font-size="14" lengthAdjust="spacing" textLength="128" x="1453.25" y="426.9639">CourseRepository</text><line style="stroke:#181818;stroke-width:0.5;" x1="1214" x2="1788" y1="435.2656" y2="435.2656"/><line style="stroke:#181818;stroke-width:0.5;" x1="1214" x2="1788" y1="443.2656" y2="443.2656"/><ellipse cx="1224" cy="456.9141" fill="#84BE84" rx="3" ry="3" style="stroke:#038048;stroke-width:1.0;"/><text fill="#000000" font-family="sans-serif" font-size="14" lengthAdjust="spacing" textLength="550" x="1233" y="460.2607">Iterable&lt;Course&gt; findAllStudentApprovedCoursesInProgressExams(student)</text></g><!--class QuestionRepository--><g id="elem_QuestionRepository"><rect codeLine="45" fill="#F1F1F1" height="56.2656" id="QuestionRepository" rx="2.5" ry="2.5" style="stroke:#181818;stroke-width:0.5;" width="175" x="303.5" y="577.5"/><ellipse cx="318.5" cy="597.6328" fill="#ADD1B2" rx="11" ry="11" style="stroke:#181818;stroke-width:1.0;"/><path d="M320.8438,593.3047 C319.9063,592.8672 319.3125,592.7266 318.4375,592.7266 C315.8125,592.7266 313.8125,594.8047 313.8125,597.5234 L313.8125,598.6484 C313.8125,601.2266 315.9219,603.1172 318.8125,603.1172 C320.0313,603.1172 321.1875,602.8203 321.9375,602.2734 C322.5156,601.8672 322.8438,601.4141 322.8438,601.0234 C322.8438,600.5703 322.4531,600.1797 321.9844,600.1797 C321.7656,600.1797 321.5625,600.2578 321.375,600.4453 C320.9219,600.9297 320.9219,600.9297 320.7344,601.0234 C320.3125,601.2891 319.625,601.4141 318.8594,601.4141 C316.8125,601.4141 315.5156,600.3203 315.5156,598.6172 L315.5156,597.5234 C315.5156,595.7422 316.7656,594.4297 318.5,594.4297 C319.0781,594.4297 319.6875,594.5859 320.1563,594.8359 C320.6406,595.1172 320.8125,595.3359 320.9063,595.7422 C320.9688,596.1484 321,596.2734 321.1406,596.3984 C321.2813,596.5391 321.5156,596.6484 321.7344,596.6484 C322,596.6484 322.2656,596.5078 322.4375,596.2891 C322.5469,596.1328 322.5781,595.9453 322.5781,595.5234 L322.5781,594.1016 C322.5781,593.6641 322.5625,593.5391 322.4688,593.3828 C322.3125,593.1172 322.0313,592.9766 321.7344,592.9766 C321.4375,592.9766 321.2344,593.0703 321.0156,593.3828 L320.8438,593.3047 Z " fill="#000000"/><text fill="#000000" font-family="sans-serif" font-size="12" font-style="italic" lengthAdjust="spacing" textLength="74" x="367" y="593.6387">&#171;repository&#187;</text><text fill="#000000" font-family="sans-serif" font-size="14" lengthAdjust="spacing" textLength="143" x="332.5" y="609.4639">QuestionRepository</text><line style="stroke:#181818;stroke-width:0.5;" x1="304.5" x2="477.5" y1="617.7656" y2="617.7656"/><line style="stroke:#181818;stroke-width:0.5;" x1="304.5" x2="477.5" y1="625.7656" y2="625.7656"/></g><!--class ExamRepository--><g id="elem_ExamRepository"><rect codeLine="49" fill="#F1F1F1" height="72.5625" id="ExamRepository" rx="2.5" ry="2.5" style="stroke:#181818;stroke-width:0.5;" width="469" x="513.5" y="569"/><ellipse cx="684.75" cy="589.1328" fill="#ADD1B2" rx="11" ry="11" style="stroke:#181818;stroke-width:1.0;"/><path d="M687.0938,584.8047 C686.1563,584.3672 685.5625,584.2266 684.6875,584.2266 C682.0625,584.2266 680.0625,586.3047 680.0625,589.0234 L680.0625,590.1484 C680.0625,592.7266 682.1719,594.6172 685.0625,594.6172 C686.2813,594.6172 687.4375,594.3203 688.1875,593.7734 C688.7656,593.3672 689.0938,592.9141 689.0938,592.5234 C689.0938,592.0703 688.7031,591.6797 688.2344,591.6797 C688.0156,591.6797 687.8125,591.7578 687.625,591.9453 C687.1719,592.4297 687.1719,592.4297 686.9844,592.5234 C686.5625,592.7891 685.875,592.9141 685.1094,592.9141 C683.0625,592.9141 681.7656,591.8203 681.7656,590.1172 L681.7656,589.0234 C681.7656,587.2422 683.0156,585.9297 684.75,585.9297 C685.3281,585.9297 685.9375,586.0859 686.4063,586.3359 C686.8906,586.6172 687.0625,586.8359 687.1563,587.2422 C687.2188,587.6484 687.25,587.7734 687.3906,587.8984 C687.5313,588.0391 687.7656,588.1484 687.9844,588.1484 C688.25,588.1484 688.5156,588.0078 688.6875,587.7891 C688.7969,587.6328 688.8281,587.4453 688.8281,587.0234 L688.8281,585.6016 C688.8281,585.1641 688.8125,585.0391 688.7188,584.8828 C688.5625,584.6172 688.2813,584.4766 687.9844,584.4766 C687.6875,584.4766 687.4844,584.5703 687.2656,584.8828 L687.0938,584.8047 Z " fill="#000000"/><text fill="#000000" font-family="sans-serif" font-size="12" font-style="italic" lengthAdjust="spacing" textLength="74" x="727.25" y="585.1387">&#171;repository&#187;</text><text fill="#000000" font-family="sans-serif" font-size="14" lengthAdjust="spacing" textLength="118" x="705.25" y="600.9639">ExamRepository</text><line style="stroke:#181818;stroke-width:0.5;" x1="514.5" x2="981.5" y1="609.2656" y2="609.2656"/><line style="stroke:#181818;stroke-width:0.5;" x1="514.5" x2="981.5" y1="617.2656" y2="617.2656"/><ellipse cx="524.5" cy="630.9141" fill="#84BE84" rx="3" ry="3" style="stroke:#038048;stroke-width:1.0;"/><text fill="#000000" font-family="sans-serif" font-size="14" lengthAdjust="spacing" textLength="443" x="533.5" y="634.2607">Iterable&lt;Exam&gt; listAllAvailableExamsOfACourse(courseCode)</text></g><!--link TakeExamUI to Exam--><g id="link_TakeExamUI_Exam"><path codeLine="54" d="M561.52,63.116 C484.576,129.392 286.223,300.243 189.566,383.499 " fill="none" id="TakeExamUI-to-Exam" style="stroke:#181818;stroke-width:1.0;stroke-dasharray:7.0,7.0;"/><polygon fill="#181818" points="185.606,386.911,195.0358,384.0687,189.3946,383.6481,189.8152,378.0069,185.606,386.911" style="stroke:#181818;stroke-width:1.0;"/></g><!--link TakeExamUI to TakeExamController--><g id="link_TakeExamUI_TakeExamController"><path codeLine="57" d="M643.063,63.143 C679.638,82.972 731.21,110.933 780.264,137.529 " fill="none" id="TakeExamUI-to-TakeExamController" style="stroke:#181818;stroke-width:1.0;"/><polygon fill="#181818" points="784.698,139.933,778.692,132.1273,780.3023,137.5502,774.8795,139.1604,784.698,139.933" style="stroke:#181818;stroke-width:1.0;"/><text fill="#000000" font-family="sans-serif" font-size="13" lengthAdjust="spacing" textLength="83" x="731" y="106.0669">theController</text></g><!--link TakeExamController to Student--><g id="link_TakeExamController_Student"><path codeLine="60" d="M1224.74,251.018 C1439.17,278.178 1706.89,320.362 1807,371 C1820.63,377.897 1833.28,388.799 1843.55,399.398 " fill="none" id="TakeExamController-to-Student" style="stroke:#181818;stroke-width:1.0;"/><polygon fill="#181818" points="1847.23,403.281,1843.9466,393.9956,1843.7923,399.6503,1838.1375,399.4959,1847.23,403.281" style="stroke:#181818;stroke-width:1.0;"/><text fill="#000000" font-family="sans-serif" font-size="13" lengthAdjust="spacing" textLength="71" x="1723" y="337.0669">theStudent</text></g><!--link TakeExamController to Course--><g id="link_TakeExamController_Course"><path codeLine="61" d="M1224.68,237.068 C1395.79,252.199 1613.36,278.641 1803,324 C1862.35,338.194 1880.34,338.526 1932,371 C1944.38,378.783 1956.3,389.428 1966.26,399.564 " fill="none" id="TakeExamController-to-Course" style="stroke:#181818;stroke-width:1.0;"/><polygon fill="#181818" points="1969.84,403.269,1966.45,394.022,1966.3607,399.6781,1960.7046,399.5888,1969.84,403.269" style="stroke:#181818;stroke-width:1.0;"/><text fill="#000000" font-family="sans-serif" font-size="13" lengthAdjust="spacing" textLength="66" x="1871" y="337.0669">theCourse</text></g><!--link TakeExamController to Exam--><g id="link_TakeExamController_Exam"><path codeLine="62" d="M625.466,284.53 C490.15,315.534 346.183,350.112 281,371 C268,375.166 254.523,379.967 241.25,384.998 " fill="none" id="TakeExamController-to-Exam" style="stroke:#181818;stroke-width:1.0;"/><polygon fill="#181818" points="236.37,386.861,246.2047,387.388,241.0412,385.0777,243.3515,379.9141,236.37,386.861" style="stroke:#181818;stroke-width:1.0;"/><text fill="#000000" font-family="sans-serif" font-size="13" lengthAdjust="spacing" textLength="58" x="450" y="337.0669">theExam</text></g><!--link TakeExamController to Exam--><g id="link_TakeExamController_Exam"><path codeLine="63" d="M696.932,294.049 C638.752,311.429 575.976,328.453 517,341 C413.582,363.002 383.268,344.154 281,371 C266.491,374.809 251.503,379.714 236.906,385.071 " fill="none" id="TakeExamController-to-Exam-1" style="stroke:#181818;stroke-width:1.0;"/><polygon fill="#181818" points="231.971,386.904,241.8006,387.5191,236.658,385.1626,239.0144,380.02,231.971,386.904" style="stroke:#181818;stroke-width:1.0;"/><text fill="#000000" font-family="sans-serif" font-size="13" lengthAdjust="spacing" textLength="58" x="586" y="337.0669">theExam</text></g><!--link TakeExamController to ResolutionMain--><g id="link_TakeExamController_ResolutionMain"><path codeLine="64" d="M961.178,294.117 C976.588,326.54 993.938,363.043 1006.808,390.12 " fill="none" id="TakeExamController-to-ResolutionMain" style="stroke:#181818;stroke-width:1.0;"/><polygon fill="#181818" points="1009,394.723,1008.7489,384.8773,1006.8535,390.2072,1001.5236,388.3118,1009,394.723" style="stroke:#181818;stroke-width:1.0;"/></g><!--link TakeExamController to ExamService--><g id="link_TakeExamController_ExamService"><path codeLine="65" d="M797.481,294.117 C756.837,318.378 712.364,344.924 673.545,368.096 " fill="none" id="TakeExamController-to-ExamService" style="stroke:#181818;stroke-width:1.0;"/><polygon fill="#181818" points="668.839,370.905,678.617,369.7261,673.1321,368.342,674.5162,362.8571,668.839,370.905" style="stroke:#181818;stroke-width:1.0;"/></g><!--link TakeExamController to CourseRepository--><g id="link_TakeExamController_CourseRepository"><path codeLine="66" d="M1131.32,294.117 C1222.45,327.737 1325.47,365.744 1399.57,393.08 " fill="none" id="TakeExamController-to-CourseRepository" style="stroke:#181818;stroke-width:1.0;"/><polygon fill="#181818" points="1404.41,394.865,1397.3479,388.0001,1399.7183,393.1363,1394.5821,395.5067,1404.41,394.865" style="stroke:#181818;stroke-width:1.0;"/></g><!--link ExamService to QuestionRepository--><g id="link_ExamService_QuestionRepository"><path codeLine="67" d="M507.244,492.175 C478.841,519.62 446.341,551.0248 422.94,573.6366 " fill="none" id="ExamService-to-QuestionRepository" style="stroke:#181818;stroke-width:1.0;"/><polygon fill="#181818" points="419.265,577.1882,428.5167,573.8109,422.8607,573.7138,422.9577,568.0578,419.265,577.1882" style="stroke:#181818;stroke-width:1.0;"/></g><!--link ExamService to ExamRepository--><g id="link_ExamService_ExamRepository"><path codeLine="69" d="M631.103,492.175 C656.303,516.389 684.709,543.6845 707.21,565.3048 " fill="none" id="ExamService-to-ExamRepository" style="stroke:#181818;stroke-width:1.0;"/><polygon fill="#181818" points="711.054,568.9984,707.3359,559.8783,707.4487,565.5341,701.7929,565.6469,711.054,568.9984" style="stroke:#181818;stroke-width:1.0;"/><text fill="#000000" font-family="sans-serif" font-size="13" lengthAdjust="spacing" textLength="70" x="681" y="535.0669">examRepo</text></g><!--SRC=[fLJ9Rjim4BthAtYBZIG_O1W217VJmSrYjJqKEOp9aSo69WMIScCK_VToaMn9Nb0W9ud3Ds-snxbP2306JKBzbnJmYX_VOFij9_DvhT6Wj62vacbA_YH_an5ieQJLIWZK3WvrBJWzecz9Rb73Mk1yeHfjC2KbbomJOcKRveYpkjPgXopUcbm-QbMvcEO7jvkCsWQ43s8cqpwNDwL4S6CTKxO3Bhmv01_AOeEHRK9izpjDdFlAQYuhKg7roAS6ZS_JHFF4ORtPnoc50ajgS8xUb4dp6xMPb5pW8zZD7UbXXwIV4DaQwEkHxT0lVroXtd6Ahb4c_eKc3IDcadq1oM8vdpKmF1VO-IoXdiVeToIN5YlKAQ6gaRufnRx6GuLF3KZBxJwNtlcqKWg2DW9iC2_XBKOzBQ6TcKkVgItmaI1YfozSUgRXrMsqMGtIb4flOt8Fwrz8xMHwtRDjElR7MAXsa3tVPpHADFvwwPmTYt1ggrgIq6qli-_SSAjqQ7EXneqUrVUCjGhmlQFJXyCxrHurRYAgLq1NtRMemrPTp-y_dr3MFY0QFWl5CEHqym5hb2v5ojsswEs9-vyCp0RPotqQad3Ghx3ZLLW40w03d5aSi_XIktEI96T0thTJO71e3vUmhHvdnorm2HarDkk6_axOK7INKBrrSBs0uq2J_WhnW5Dr92UOaIPcuT5umpy0]--></g></svg>