<?xml version="1.0" encoding="us-ascii" standalone="no"?><svg xmlns="http://www.w3.org/2000/svg" xmlns:xlink="http://www.w3.org/1999/xlink" contentStyleType="text/css" height="647px" preserveAspectRatio="none" style="width:2822px;height:647px;background:#FFFFFF;" version="1.1" viewBox="0 0 2822 647" width="2822px" zoomAndPan="magnify"><defs/><g><text fill="#000000" font-family="sans-serif" font-size="14" font-weight="bold" lengthAdjust="spacing" textLength="248" x="1280.25" y="22.9951">Domain Classes (DC) - US 2004</text><!--cluster <<aggregate>> Student--><g id="cluster_&lt;&lt;aggregate&gt;&gt; Student"><path d="M1470.5,366.2969 L1642.5,366.2969 A3.75,3.75 0 0 1 1645,368.7969 L1652,388.5938 L1705.5,388.5938 A2.5,2.5 0 0 1 1708,391.0938 L1708,618.7969 A2.5,2.5 0 0 1 1705.5,621.2969 L1470.5,621.2969 A2.5,2.5 0 0 1 1468,618.7969 L1468,368.7969 A2.5,2.5 0 0 1 1470.5,366.2969 " fill="none" style="stroke:#000000;stroke-width:1.5;"/><line style="stroke:#000000;stroke-width:1.5;" x1="1468" x2="1652" y1="388.5938" y2="388.5938"/><text fill="#000000" font-family="sans-serif" font-size="14" font-weight="bold" lengthAdjust="spacing" textLength="171" x="1472" y="381.292">&#171;aggregate&#187; Student</text></g><!--cluster <<aggregate>> Course--><g id="cluster_&lt;&lt;aggregate&gt;&gt; Course"><path d="M8.5,43.2969 L170.5,43.2969 A3.75,3.75 0 0 1 173,45.7969 L180,65.5938 L316.5,65.5938 A2.5,2.5 0 0 1 319,68.0938 L319,488.7969 A2.5,2.5 0 0 1 316.5,491.2969 L8.5,491.2969 A2.5,2.5 0 0 1 6,488.7969 L6,45.7969 A2.5,2.5 0 0 1 8.5,43.2969 " fill="none" style="stroke:#000000;stroke-width:1.5;"/><line style="stroke:#000000;stroke-width:1.5;" x1="6" x2="180" y1="65.5938" y2="65.5938"/><text fill="#000000" font-family="sans-serif" font-size="14" font-weight="bold" lengthAdjust="spacing" textLength="161" x="10" y="58.292">&#171;aggregate&#187; Course</text></g><!--cluster <<aggregate>> Enrollment--><g id="cluster_&lt;&lt;aggregate&gt;&gt; Enrollment"><path d="M1734.5,204.7969 L1929.5,204.7969 A3.75,3.75 0 0 1 1932,207.2969 L1939,227.0938 L1939.5,227.0938 A2.5,2.5 0 0 1 1942,229.5938 L1942,637.7969 A2.5,2.5 0 0 1 1939.5,640.2969 L1734.5,640.2969 A2.5,2.5 0 0 1 1732,637.7969 L1732,207.2969 A2.5,2.5 0 0 1 1734.5,204.7969 " fill="none" style="stroke:#000000;stroke-width:1.5;"/><line style="stroke:#000000;stroke-width:1.5;" x1="1732" x2="1939" y1="227.0938" y2="227.0938"/><text fill="#000000" font-family="sans-serif" font-size="14" font-weight="bold" lengthAdjust="spacing" textLength="194" x="1736" y="219.792">&#171;aggregate&#187; Enrollment</text></g><!--cluster <<aggregate>> Exam--><g id="cluster_&lt;&lt;aggregate&gt;&gt; Exam"><path d="M1968.5,204.7969 L2118.5,204.7969 A3.75,3.75 0 0 1 2121,207.2969 L2128,227.0938 L2128.5,227.0938 A2.5,2.5 0 0 1 2131,229.5938 L2131,469.7969 A2.5,2.5 0 0 1 2128.5,472.2969 L1968.5,472.2969 A2.5,2.5 0 0 1 1966,469.7969 L1966,207.2969 A2.5,2.5 0 0 1 1968.5,204.7969 " fill="none" style="stroke:#000000;stroke-width:1.5;"/><line style="stroke:#000000;stroke-width:1.5;" x1="1966" x2="2128" y1="227.0938" y2="227.0938"/><text fill="#000000" font-family="sans-serif" font-size="14" font-weight="bold" lengthAdjust="spacing" textLength="149" x="1970" y="219.792">&#171;aggregate&#187; Exam</text></g><!--cluster <<aggregate>> Question--><g id="cluster_&lt;&lt;aggregate&gt;&gt; Question"><path d="M345.5,203.2969 L525.5,203.2969 A3.75,3.75 0 0 1 528,205.7969 L535,225.5938 L1441.5,225.5938 A2.5,2.5 0 0 1 1444,228.0938 L1444,486.2969 A2.5,2.5 0 0 1 1441.5,488.7969 L345.5,488.7969 A2.5,2.5 0 0 1 343,486.2969 L343,205.7969 A2.5,2.5 0 0 1 345.5,203.2969 " fill="none" style="stroke:#000000;stroke-width:1.5;"/><line style="stroke:#000000;stroke-width:1.5;" x1="343" x2="535" y1="225.5938" y2="225.5938"/><text fill="#000000" font-family="sans-serif" font-size="14" font-weight="bold" lengthAdjust="spacing" textLength="179" x="347" y="218.292">&#171;aggregate&#187; Question</text></g><!--class Student--><g id="elem_Student"><rect codeLine="10" fill="#F1F1F1" height="62.2344" id="Student" rx="2.5" ry="2.5" style="stroke:#181818;stroke-width:0.5;" width="90" x="1587" y="401.2969"/><ellipse cx="1602" cy="428.4141" fill="#ADD1B2" rx="11" ry="11" style="stroke:#181818;stroke-width:1.0;"/><path d="M1600.7969,429.2891 L1602.25,429.2891 L1602.25,429.3984 C1602.25,429.8047 1602.2813,429.9609 1602.3594,430.1172 C1602.5156,430.3672 1602.7969,430.5234 1603.0938,430.5234 C1603.3438,430.5234 1603.6094,430.3828 1603.7656,430.1641 C1603.8906,430.0078 1603.9219,429.8516 1603.9219,429.3984 L1603.9219,427.4766 C1603.9219,427.3203 1603.9219,427.2734 1603.9063,427.1172 C1603.8438,426.6484 1603.5313,426.3359 1603.0781,426.3359 C1602.8281,426.3359 1602.5625,426.4766 1602.3906,426.6953 C1602.2813,426.8672 1602.25,427.0234 1602.25,427.4766 L1602.25,427.6016 L1600.7969,427.6016 L1600.7969,425.1953 L1604.7813,425.1953 L1604.7813,426.0547 C1604.7813,426.4609 1604.8125,426.6328 1604.8906,426.7891 C1605.0625,427.0391 1605.3438,427.1953 1605.625,427.1953 C1605.8906,427.1953 1606.1563,427.0547 1606.3281,426.8359 C1606.4375,426.6641 1606.4688,426.5234 1606.4688,426.0547 L1606.4688,423.5078 L1598.8438,423.5078 C1598.4063,423.5078 1598.2813,423.5234 1598.125,423.6172 C1597.875,423.7734 1597.7188,424.0703 1597.7188,424.3516 C1597.7188,424.6328 1597.8594,424.8828 1598.0781,425.0547 C1598.2344,425.1641 1598.4219,425.1953 1598.8438,425.1953 L1599.0938,425.1953 L1599.0938,431.7109 L1598.8438,431.7109 C1598.4375,431.7109 1598.2813,431.7266 1598.125,431.8359 C1597.875,432.0078 1597.7188,432.2734 1597.7188,432.5703 C1597.7188,432.8359 1597.8594,433.0859 1598.0781,433.2422 C1598.2188,433.3672 1598.4531,433.4141 1598.8438,433.4141 L1606.8438,433.4141 L1606.8438,430.8359 C1606.8438,430.3984 1606.8125,430.2578 1606.7344,430.1016 C1606.5625,429.8516 1606.2813,429.6953 1606,429.6953 C1605.7344,429.6953 1605.4688,429.8047 1605.2969,430.0547 C1605.1875,430.2109 1605.1563,430.3516 1605.1563,430.8359 L1605.1563,431.7109 L1600.7969,431.7109 L1600.7969,429.2891 Z " fill="#000000"/><text fill="#000000" font-family="sans-serif" font-size="12" font-style="italic" lengthAdjust="spacing" textLength="49" x="1620.5" y="417.4355">&#171;entity&#187;</text><text fill="#000000" font-family="sans-serif" font-size="12" font-style="italic" lengthAdjust="spacing" textLength="38" x="1626" y="431.4043">&#171;root&#187;</text><text fill="#000000" font-family="sans-serif" font-size="14" lengthAdjust="spacing" textLength="58" x="1616" y="447.2295">Student</text><line style="stroke:#181818;stroke-width:0.5;" x1="1588" x2="1676" y1="455.5313" y2="455.5313"/></g><!--class MechanographicNumber--><g id="elem_MechanographicNumber"><rect codeLine="11" fill="#F1F1F1" height="48.2656" id="MechanographicNumber" rx="2.5" ry="2.5" style="stroke:#181818;stroke-width:0.5;" width="207" x="1484.5" y="557.2969"/><ellipse cx="1499.5" cy="577.4297" fill="#FF8B40" rx="11" ry="11" style="stroke:#181818;stroke-width:1.0;"/><path d="M1499.6563,580.9766 L1497.2031,575.2109 L1497.5313,575.2109 C1497.9375,575.2109 1498.0938,575.1797 1498.2344,575.1016 C1498.5,574.9453 1498.6406,574.6641 1498.6406,574.3672 C1498.6406,574.1016 1498.5156,573.8359 1498.3125,573.6641 C1498.1406,573.5547 1497.9688,573.5234 1497.5313,573.5234 L1495.2656,573.5234 C1494.8281,573.5234 1494.7031,573.5391 1494.5469,573.6328 C1494.2969,573.7891 1494.1406,574.0859 1494.1406,574.3672 C1494.1406,574.7109 1494.375,575.0547 1494.6719,575.1484 C1494.8281,575.1953 1494.9531,575.2109 1495.2969,575.2109 L1498.7344,583.4297 L1500.4219,583.4297 L1503.9063,575.2109 C1504.2656,575.2109 1504.375,575.1953 1504.5313,575.1484 C1504.8125,575.0547 1505.0625,574.7109 1505.0625,574.3672 C1505.0625,574.1016 1504.9219,573.8359 1504.7031,573.6641 C1504.5469,573.5547 1504.375,573.5234 1503.9375,573.5234 L1501.6875,573.5234 C1501.25,573.5234 1501.125,573.5391 1500.9844,573.6328 C1500.7188,573.7891 1500.5625,574.0859 1500.5625,574.3672 C1500.5625,574.6484 1500.7031,574.8984 1500.9063,575.0703 C1501.0938,575.1797 1501.2344,575.2109 1501.6875,575.2109 L1502.0938,575.2109 L1499.6563,580.9766 Z " fill="#000000"/><text fill="#000000" font-family="sans-serif" font-size="12" font-style="italic" lengthAdjust="spacing" textLength="87" x="1557.5" y="573.4355">&#171;value object&#187;</text><text fill="#000000" font-family="sans-serif" font-size="14" lengthAdjust="spacing" textLength="175" x="1513.5" y="589.2607">MechanographicNumber</text><line style="stroke:#181818;stroke-width:0.5;" x1="1485.5" x2="1690.5" y1="597.5625" y2="597.5625"/></g><!--class Course--><g id="elem_Course"><rect codeLine="16" fill="#F1F1F1" height="62.2344" id="Course" rx="2.5" ry="2.5" style="stroke:#181818;stroke-width:0.5;" width="81" x="221.5" y="78.2969"/><ellipse cx="236.5" cy="105.4141" fill="#ADD1B2" rx="11" ry="11" style="stroke:#181818;stroke-width:1.0;"/><path d="M235.2969,106.2891 L236.75,106.2891 L236.75,106.3984 C236.75,106.8047 236.7813,106.9609 236.8594,107.1172 C237.0156,107.3672 237.2969,107.5234 237.5938,107.5234 C237.8438,107.5234 238.1094,107.3828 238.2656,107.1641 C238.3906,107.0078 238.4219,106.8516 238.4219,106.3984 L238.4219,104.4766 C238.4219,104.3203 238.4219,104.2734 238.4063,104.1172 C238.3438,103.6484 238.0313,103.3359 237.5781,103.3359 C237.3281,103.3359 237.0625,103.4766 236.8906,103.6953 C236.7813,103.8672 236.75,104.0234 236.75,104.4766 L236.75,104.6016 L235.2969,104.6016 L235.2969,102.1953 L239.2813,102.1953 L239.2813,103.0547 C239.2813,103.4609 239.3125,103.6328 239.3906,103.7891 C239.5625,104.0391 239.8438,104.1953 240.125,104.1953 C240.3906,104.1953 240.6563,104.0547 240.8281,103.8359 C240.9375,103.6641 240.9688,103.5234 240.9688,103.0547 L240.9688,100.5078 L233.3438,100.5078 C232.9063,100.5078 232.7813,100.5234 232.625,100.6172 C232.375,100.7734 232.2188,101.0703 232.2188,101.3516 C232.2188,101.6328 232.3594,101.8828 232.5781,102.0547 C232.7344,102.1641 232.9219,102.1953 233.3438,102.1953 L233.5938,102.1953 L233.5938,108.7109 L233.3438,108.7109 C232.9375,108.7109 232.7813,108.7266 232.625,108.8359 C232.375,109.0078 232.2188,109.2734 232.2188,109.5703 C232.2188,109.8359 232.3594,110.0859 232.5781,110.2422 C232.7188,110.3672 232.9531,110.4141 233.3438,110.4141 L241.3438,110.4141 L241.3438,107.8359 C241.3438,107.3984 241.3125,107.2578 241.2344,107.1016 C241.0625,106.8516 240.7813,106.6953 240.5,106.6953 C240.2344,106.6953 239.9688,106.8047 239.7969,107.0547 C239.6875,107.2109 239.6563,107.3516 239.6563,107.8359 L239.6563,108.7109 L235.2969,108.7109 L235.2969,106.2891 Z " fill="#000000"/><text fill="#000000" font-family="sans-serif" font-size="12" font-style="italic" lengthAdjust="spacing" textLength="49" x="250.5" y="94.4355">&#171;entity&#187;</text><text fill="#000000" font-family="sans-serif" font-size="12" font-style="italic" lengthAdjust="spacing" textLength="38" x="256" y="108.4043">&#171;root&#187;</text><text fill="#000000" font-family="sans-serif" font-size="14" lengthAdjust="spacing" textLength="49" x="250.5" y="124.2295">Course</text><line style="stroke:#181818;stroke-width:0.5;" x1="222.5" x2="301.5" y1="132.5313" y2="132.5313"/></g><!--class CourseCode--><g id="elem_CourseCode"><rect codeLine="17" fill="#F1F1F1" height="48.2656" id="CourseCode" rx="2.5" ry="2.5" style="stroke:#181818;stroke-width:0.5;" width="118" x="22" y="246.7969"/><ellipse cx="37" cy="266.9297" fill="#FF8B40" rx="11" ry="11" style="stroke:#181818;stroke-width:1.0;"/><path d="M37.1563,270.4766 L34.7031,264.7109 L35.0313,264.7109 C35.4375,264.7109 35.5938,264.6797 35.7344,264.6016 C36,264.4453 36.1406,264.1641 36.1406,263.8672 C36.1406,263.6016 36.0156,263.3359 35.8125,263.1641 C35.6406,263.0547 35.4688,263.0234 35.0313,263.0234 L32.7656,263.0234 C32.3281,263.0234 32.2031,263.0391 32.0469,263.1328 C31.7969,263.2891 31.6406,263.5859 31.6406,263.8672 C31.6406,264.2109 31.875,264.5547 32.1719,264.6484 C32.3281,264.6953 32.4531,264.7109 32.7969,264.7109 L36.2344,272.9297 L37.9219,272.9297 L41.4063,264.7109 C41.7656,264.7109 41.875,264.6953 42.0313,264.6484 C42.3125,264.5547 42.5625,264.2109 42.5625,263.8672 C42.5625,263.6016 42.4219,263.3359 42.2031,263.1641 C42.0469,263.0547 41.875,263.0234 41.4375,263.0234 L39.1875,263.0234 C38.75,263.0234 38.625,263.0391 38.4844,263.1328 C38.2188,263.2891 38.0625,263.5859 38.0625,263.8672 C38.0625,264.1484 38.2031,264.3984 38.4063,264.5703 C38.5938,264.6797 38.7344,264.7109 39.1875,264.7109 L39.5938,264.7109 L37.1563,270.4766 Z " fill="#000000"/><text fill="#000000" font-family="sans-serif" font-size="12" font-style="italic" lengthAdjust="spacing" textLength="87" x="50.5" y="262.9355">&#171;value object&#187;</text><text fill="#000000" font-family="sans-serif" font-size="14" lengthAdjust="spacing" textLength="86" x="51" y="278.7607">CourseCode</text><line style="stroke:#181818;stroke-width:0.5;" x1="23" x2="139" y1="287.0625" y2="287.0625"/></g><!--class CourseStatus--><g id="elem_CourseStatus"><rect codeLine="18" fill="#F1F1F1" height="48.2656" id="CourseStatus" rx="2.5" ry="2.5" style="stroke:#181818;stroke-width:0.5;" width="127" x="175.5" y="246.7969"/><ellipse cx="190.5" cy="266.9297" fill="#FF8B40" rx="11" ry="11" style="stroke:#181818;stroke-width:1.0;"/><path d="M190.6563,270.4766 L188.2031,264.7109 L188.5313,264.7109 C188.9375,264.7109 189.0938,264.6797 189.2344,264.6016 C189.5,264.4453 189.6406,264.1641 189.6406,263.8672 C189.6406,263.6016 189.5156,263.3359 189.3125,263.1641 C189.1406,263.0547 188.9688,263.0234 188.5313,263.0234 L186.2656,263.0234 C185.8281,263.0234 185.7031,263.0391 185.5469,263.1328 C185.2969,263.2891 185.1406,263.5859 185.1406,263.8672 C185.1406,264.2109 185.375,264.5547 185.6719,264.6484 C185.8281,264.6953 185.9531,264.7109 186.2969,264.7109 L189.7344,272.9297 L191.4219,272.9297 L194.9063,264.7109 C195.2656,264.7109 195.375,264.6953 195.5313,264.6484 C195.8125,264.5547 196.0625,264.2109 196.0625,263.8672 C196.0625,263.6016 195.9219,263.3359 195.7031,263.1641 C195.5469,263.0547 195.375,263.0234 194.9375,263.0234 L192.6875,263.0234 C192.25,263.0234 192.125,263.0391 191.9844,263.1328 C191.7188,263.2891 191.5625,263.5859 191.5625,263.8672 C191.5625,264.1484 191.7031,264.3984 191.9063,264.5703 C192.0938,264.6797 192.2344,264.7109 192.6875,264.7109 L193.0938,264.7109 L190.6563,270.4766 Z " fill="#000000"/><text fill="#000000" font-family="sans-serif" font-size="12" font-style="italic" lengthAdjust="spacing" textLength="87" x="208.5" y="262.9355">&#171;value object&#187;</text><text fill="#000000" font-family="sans-serif" font-size="14" lengthAdjust="spacing" textLength="95" x="204.5" y="278.7607">CourseStatus</text><line style="stroke:#181818;stroke-width:0.5;" x1="176.5" x2="301.5" y1="287.0625" y2="287.0625"/></g><g id="elem_GMN9"><path d="M143,389.2969 L143,474.9609 A0,0 0 0 0 143,474.9609 L303,474.9609 A0,0 0 0 0 303,474.9609 L303,399.2969 L293,389.2969 L231.223,389.2969 L236.673,294.9899 L223.223,389.2969 L143,389.2969 A0,0 0 0 0 143,389.2969 " fill="#FEFFDD" style="stroke:#181818;stroke-width:0.5;"/><path d="M293,389.2969 L293,399.2969 L303,399.2969 L293,389.2969 " fill="#FEFFDD" style="stroke:#181818;stroke-width:0.5;"/><text fill="#000000" font-family="sans-serif" font-size="13" lengthAdjust="spacing" textLength="138" x="149" y="406.3638">Diagrama de estados</text><text fill="#000000" font-family="sans-serif" font-size="13" lengthAdjust="spacing" textLength="108" x="149" y="421.4966">dispon&#237;vel com o</text><text fill="#000000" font-family="sans-serif" font-size="13" lengthAdjust="spacing" textLength="139" x="149" y="436.6294">nome "course-status"</text><text fill="#000000" font-family="sans-serif" font-size="13" lengthAdjust="spacing" textLength="136" x="149" y="451.7622">na documenta&#231;&#227;o da</text><text fill="#000000" font-family="sans-serif" font-size="13" lengthAdjust="spacing" textLength="55" x="149" y="466.895">US G002</text></g><!--class Enrollment--><g id="elem_Enrollment"><rect codeLine="30" fill="#F1F1F1" height="62.2344" id="Enrollment" rx="2.5" ry="2.5" style="stroke:#181818;stroke-width:0.5;" width="112" x="1748" y="239.7969"/><ellipse cx="1763" cy="266.9141" fill="#ADD1B2" rx="11" ry="11" style="stroke:#181818;stroke-width:1.0;"/><path d="M1761.7969,267.7891 L1763.25,267.7891 L1763.25,267.8984 C1763.25,268.3047 1763.2813,268.4609 1763.3594,268.6172 C1763.5156,268.8672 1763.7969,269.0234 1764.0938,269.0234 C1764.3438,269.0234 1764.6094,268.8828 1764.7656,268.6641 C1764.8906,268.5078 1764.9219,268.3516 1764.9219,267.8984 L1764.9219,265.9766 C1764.9219,265.8203 1764.9219,265.7734 1764.9063,265.6172 C1764.8438,265.1484 1764.5313,264.8359 1764.0781,264.8359 C1763.8281,264.8359 1763.5625,264.9766 1763.3906,265.1953 C1763.2813,265.3672 1763.25,265.5234 1763.25,265.9766 L1763.25,266.1016 L1761.7969,266.1016 L1761.7969,263.6953 L1765.7813,263.6953 L1765.7813,264.5547 C1765.7813,264.9609 1765.8125,265.1328 1765.8906,265.2891 C1766.0625,265.5391 1766.3438,265.6953 1766.625,265.6953 C1766.8906,265.6953 1767.1563,265.5547 1767.3281,265.3359 C1767.4375,265.1641 1767.4688,265.0234 1767.4688,264.5547 L1767.4688,262.0078 L1759.8438,262.0078 C1759.4063,262.0078 1759.2813,262.0234 1759.125,262.1172 C1758.875,262.2734 1758.7188,262.5703 1758.7188,262.8516 C1758.7188,263.1328 1758.8594,263.3828 1759.0781,263.5547 C1759.2344,263.6641 1759.4219,263.6953 1759.8438,263.6953 L1760.0938,263.6953 L1760.0938,270.2109 L1759.8438,270.2109 C1759.4375,270.2109 1759.2813,270.2266 1759.125,270.3359 C1758.875,270.5078 1758.7188,270.7734 1758.7188,271.0703 C1758.7188,271.3359 1758.8594,271.5859 1759.0781,271.7422 C1759.2188,271.8672 1759.4531,271.9141 1759.8438,271.9141 L1767.8438,271.9141 L1767.8438,269.3359 C1767.8438,268.8984 1767.8125,268.7578 1767.7344,268.6016 C1767.5625,268.3516 1767.2813,268.1953 1767,268.1953 C1766.7344,268.1953 1766.4688,268.3047 1766.2969,268.5547 C1766.1875,268.7109 1766.1563,268.8516 1766.1563,269.3359 L1766.1563,270.2109 L1761.7969,270.2109 L1761.7969,267.7891 Z " fill="#000000"/><text fill="#000000" font-family="sans-serif" font-size="12" font-style="italic" lengthAdjust="spacing" textLength="49" x="1792.5" y="255.9355">&#171;entity&#187;</text><text fill="#000000" font-family="sans-serif" font-size="12" font-style="italic" lengthAdjust="spacing" textLength="38" x="1798" y="269.9043">&#171;root&#187;</text><text fill="#000000" font-family="sans-serif" font-size="14" lengthAdjust="spacing" textLength="80" x="1777" y="285.7295">Enrollment</text><line style="stroke:#181818;stroke-width:0.5;" x1="1749" x2="1859" y1="294.0313" y2="294.0313"/></g><!--class EnrollmentStatus--><g id="elem_EnrollmentStatus"><rect codeLine="31" fill="#F1F1F1" height="48.2656" id="EnrollmentStatus" rx="2.5" ry="2.5" style="stroke:#181818;stroke-width:0.5;" width="158" x="1751" y="408.2969"/><ellipse cx="1766" cy="428.4297" fill="#FF8B40" rx="11" ry="11" style="stroke:#181818;stroke-width:1.0;"/><path d="M1766.1563,431.9766 L1763.7031,426.2109 L1764.0313,426.2109 C1764.4375,426.2109 1764.5938,426.1797 1764.7344,426.1016 C1765,425.9453 1765.1406,425.6641 1765.1406,425.3672 C1765.1406,425.1016 1765.0156,424.8359 1764.8125,424.6641 C1764.6406,424.5547 1764.4688,424.5234 1764.0313,424.5234 L1761.7656,424.5234 C1761.3281,424.5234 1761.2031,424.5391 1761.0469,424.6328 C1760.7969,424.7891 1760.6406,425.0859 1760.6406,425.3672 C1760.6406,425.7109 1760.875,426.0547 1761.1719,426.1484 C1761.3281,426.1953 1761.4531,426.2109 1761.7969,426.2109 L1765.2344,434.4297 L1766.9219,434.4297 L1770.4063,426.2109 C1770.7656,426.2109 1770.875,426.1953 1771.0313,426.1484 C1771.3125,426.0547 1771.5625,425.7109 1771.5625,425.3672 C1771.5625,425.1016 1771.4219,424.8359 1771.2031,424.6641 C1771.0469,424.5547 1770.875,424.5234 1770.4375,424.5234 L1768.1875,424.5234 C1767.75,424.5234 1767.625,424.5391 1767.4844,424.6328 C1767.2188,424.7891 1767.0625,425.0859 1767.0625,425.3672 C1767.0625,425.6484 1767.2031,425.8984 1767.4063,426.0703 C1767.5938,426.1797 1767.7344,426.2109 1768.1875,426.2109 L1768.5938,426.2109 L1766.1563,431.9766 Z " fill="#000000"/><text fill="#000000" font-family="sans-serif" font-size="12" font-style="italic" lengthAdjust="spacing" textLength="87" x="1799.5" y="424.4355">&#171;value object&#187;</text><text fill="#000000" font-family="sans-serif" font-size="14" lengthAdjust="spacing" textLength="126" x="1780" y="440.2607">EnrollmentStatus</text><line style="stroke:#181818;stroke-width:0.5;" x1="1752" x2="1908" y1="448.5625" y2="448.5625"/></g><g id="elem_GMN15"><path d="M1748,538.2969 L1748,623.9609 A0,0 0 0 0 1748,623.9609 L1918,623.9609 A0,0 0 0 0 1918,623.9609 L1918,548.2969 L1908,538.2969 L1836.14,538.2969 L1830.48,456.5899 L1828.14,538.2969 L1748,538.2969 A0,0 0 0 0 1748,538.2969 " fill="#FEFFDD" style="stroke:#181818;stroke-width:0.5;"/><path d="M1908,538.2969 L1908,548.2969 L1918,548.2969 L1908,538.2969 " fill="#FEFFDD" style="stroke:#181818;stroke-width:0.5;"/><text fill="#000000" font-family="sans-serif" font-size="13" lengthAdjust="spacing" textLength="138" x="1754" y="555.3638">Diagrama de estados</text><text fill="#000000" font-family="sans-serif" font-size="13" lengthAdjust="spacing" textLength="149" x="1754" y="570.4966">dispon&#237;vel com o nome</text><text fill="#000000" font-family="sans-serif" font-size="13" lengthAdjust="spacing" textLength="124" x="1754" y="585.6294">"enrollment-status"</text><text fill="#000000" font-family="sans-serif" font-size="13" lengthAdjust="spacing" textLength="136" x="1754" y="600.7622">na documenta&#231;&#227;o da</text><text fill="#000000" font-family="sans-serif" font-size="13" lengthAdjust="spacing" textLength="55" x="1754" y="615.895">US G002</text></g><!--class Exam--><g id="elem_Exam"><rect codeLine="43" fill="#F1F1F1" height="62.2344" id="Exam" rx="2.5" ry="2.5" style="stroke:#181818;stroke-width:0.5;" width="77" x="2034.5" y="239.7969"/><ellipse cx="2049.5" cy="266.9141" fill="#ADD1B2" rx="11" ry="11" style="stroke:#181818;stroke-width:1.0;"/><path d="M2048.2969,267.7891 L2049.75,267.7891 L2049.75,267.8984 C2049.75,268.3047 2049.7813,268.4609 2049.8594,268.6172 C2050.0156,268.8672 2050.2969,269.0234 2050.5938,269.0234 C2050.8438,269.0234 2051.1094,268.8828 2051.2656,268.6641 C2051.3906,268.5078 2051.4219,268.3516 2051.4219,267.8984 L2051.4219,265.9766 C2051.4219,265.8203 2051.4219,265.7734 2051.4063,265.6172 C2051.3438,265.1484 2051.0313,264.8359 2050.5781,264.8359 C2050.3281,264.8359 2050.0625,264.9766 2049.8906,265.1953 C2049.7813,265.3672 2049.75,265.5234 2049.75,265.9766 L2049.75,266.1016 L2048.2969,266.1016 L2048.2969,263.6953 L2052.2813,263.6953 L2052.2813,264.5547 C2052.2813,264.9609 2052.3125,265.1328 2052.3906,265.2891 C2052.5625,265.5391 2052.8438,265.6953 2053.125,265.6953 C2053.3906,265.6953 2053.6563,265.5547 2053.8281,265.3359 C2053.9375,265.1641 2053.9688,265.0234 2053.9688,264.5547 L2053.9688,262.0078 L2046.3438,262.0078 C2045.9063,262.0078 2045.7813,262.0234 2045.625,262.1172 C2045.375,262.2734 2045.2188,262.5703 2045.2188,262.8516 C2045.2188,263.1328 2045.3594,263.3828 2045.5781,263.5547 C2045.7344,263.6641 2045.9219,263.6953 2046.3438,263.6953 L2046.5938,263.6953 L2046.5938,270.2109 L2046.3438,270.2109 C2045.9375,270.2109 2045.7813,270.2266 2045.625,270.3359 C2045.375,270.5078 2045.2188,270.7734 2045.2188,271.0703 C2045.2188,271.3359 2045.3594,271.5859 2045.5781,271.7422 C2045.7188,271.8672 2045.9531,271.9141 2046.3438,271.9141 L2054.3438,271.9141 L2054.3438,269.3359 C2054.3438,268.8984 2054.3125,268.7578 2054.2344,268.6016 C2054.0625,268.3516 2053.7813,268.1953 2053.5,268.1953 C2053.2344,268.1953 2052.9688,268.3047 2052.7969,268.5547 C2052.6875,268.7109 2052.6563,268.8516 2052.6563,269.3359 L2052.6563,270.2109 L2048.2969,270.2109 L2048.2969,267.7891 Z " fill="#000000"/><text fill="#000000" font-family="sans-serif" font-size="12" font-style="italic" lengthAdjust="spacing" textLength="49" x="2061.5" y="255.9355">&#171;entity&#187;</text><text fill="#000000" font-family="sans-serif" font-size="12" font-style="italic" lengthAdjust="spacing" textLength="38" x="2067" y="269.9043">&#171;root&#187;</text><text fill="#000000" font-family="sans-serif" font-size="14" lengthAdjust="spacing" textLength="39" x="2066.5" y="285.7295">Exam</text><line style="stroke:#181818;stroke-width:0.5;" x1="2035.5" x2="2110.5" y1="294.0313" y2="294.0313"/></g><!--class ExamSection--><g id="elem_ExamSection"><rect codeLine="46" fill="#F1F1F1" height="48.2656" id="ExamSection" rx="2.5" ry="2.5" style="stroke:#181818;stroke-width:0.5;" width="126" x="1986" y="408.2969"/><ellipse cx="2001" cy="428.4297" fill="#ADD1B2" rx="11" ry="11" style="stroke:#181818;stroke-width:1.0;"/><path d="M1999.7969,429.3047 L2001.25,429.3047 L2001.25,429.4141 C2001.25,429.8203 2001.2813,429.9766 2001.3594,430.1328 C2001.5156,430.3828 2001.7969,430.5391 2002.0938,430.5391 C2002.3438,430.5391 2002.6094,430.3984 2002.7656,430.1797 C2002.8906,430.0234 2002.9219,429.8672 2002.9219,429.4141 L2002.9219,427.4922 C2002.9219,427.3359 2002.9219,427.2891 2002.9063,427.1328 C2002.8438,426.6641 2002.5313,426.3516 2002.0781,426.3516 C2001.8281,426.3516 2001.5625,426.4922 2001.3906,426.7109 C2001.2813,426.8828 2001.25,427.0391 2001.25,427.4922 L2001.25,427.6172 L1999.7969,427.6172 L1999.7969,425.2109 L2003.7813,425.2109 L2003.7813,426.0703 C2003.7813,426.4766 2003.8125,426.6484 2003.8906,426.8047 C2004.0625,427.0547 2004.3438,427.2109 2004.625,427.2109 C2004.8906,427.2109 2005.1563,427.0703 2005.3281,426.8516 C2005.4375,426.6797 2005.4688,426.5391 2005.4688,426.0703 L2005.4688,423.5234 L1997.8438,423.5234 C1997.4063,423.5234 1997.2813,423.5391 1997.125,423.6328 C1996.875,423.7891 1996.7188,424.0859 1996.7188,424.3672 C1996.7188,424.6484 1996.8594,424.8984 1997.0781,425.0703 C1997.2344,425.1797 1997.4219,425.2109 1997.8438,425.2109 L1998.0938,425.2109 L1998.0938,431.7266 L1997.8438,431.7266 C1997.4375,431.7266 1997.2813,431.7422 1997.125,431.8516 C1996.875,432.0234 1996.7188,432.2891 1996.7188,432.5859 C1996.7188,432.8516 1996.8594,433.1016 1997.0781,433.2578 C1997.2188,433.3828 1997.4531,433.4297 1997.8438,433.4297 L2005.8438,433.4297 L2005.8438,430.8516 C2005.8438,430.4141 2005.8125,430.2734 2005.7344,430.1172 C2005.5625,429.8672 2005.2813,429.7109 2005,429.7109 C2004.7344,429.7109 2004.4688,429.8203 2004.2969,430.0703 C2004.1875,430.2266 2004.1563,430.3672 2004.1563,430.8516 L2004.1563,431.7266 L1999.7969,431.7266 L1999.7969,429.3047 Z " fill="#000000"/><text fill="#000000" font-family="sans-serif" font-size="12" font-style="italic" lengthAdjust="spacing" textLength="49" x="2037.5" y="424.4355">&#171;entity&#187;</text><text fill="#000000" font-family="sans-serif" font-size="14" lengthAdjust="spacing" textLength="94" x="2015" y="440.2607">ExamSection</text><line style="stroke:#181818;stroke-width:0.5;" x1="1987" x2="2111" y1="448.5625" y2="448.5625"/></g><!--class Answer--><g id="elem_Answer"><rect codeLine="68" fill="#F1F1F1" height="80.8594" id="Answer" rx="2.5" ry="2.5" style="stroke:#181818;stroke-width:0.5;" width="117" x="359.5" y="391.7969"/><ellipse cx="388" cy="411.9297" fill="#ADD1B2" rx="11" ry="11" style="stroke:#181818;stroke-width:1.0;"/><path d="M386.7969,412.8047 L388.25,412.8047 L388.25,412.9141 C388.25,413.3203 388.2813,413.4766 388.3594,413.6328 C388.5156,413.8828 388.7969,414.0391 389.0938,414.0391 C389.3438,414.0391 389.6094,413.8984 389.7656,413.6797 C389.8906,413.5234 389.9219,413.3672 389.9219,412.9141 L389.9219,410.9922 C389.9219,410.8359 389.9219,410.7891 389.9063,410.6328 C389.8438,410.1641 389.5313,409.8516 389.0781,409.8516 C388.8281,409.8516 388.5625,409.9922 388.3906,410.2109 C388.2813,410.3828 388.25,410.5391 388.25,410.9922 L388.25,411.1172 L386.7969,411.1172 L386.7969,408.7109 L390.7813,408.7109 L390.7813,409.5703 C390.7813,409.9766 390.8125,410.1484 390.8906,410.3047 C391.0625,410.5547 391.3438,410.7109 391.625,410.7109 C391.8906,410.7109 392.1563,410.5703 392.3281,410.3516 C392.4375,410.1797 392.4688,410.0391 392.4688,409.5703 L392.4688,407.0234 L384.8438,407.0234 C384.4063,407.0234 384.2813,407.0391 384.125,407.1328 C383.875,407.2891 383.7188,407.5859 383.7188,407.8672 C383.7188,408.1484 383.8594,408.3984 384.0781,408.5703 C384.2344,408.6797 384.4219,408.7109 384.8438,408.7109 L385.0938,408.7109 L385.0938,415.2266 L384.8438,415.2266 C384.4375,415.2266 384.2813,415.2422 384.125,415.3516 C383.875,415.5234 383.7188,415.7891 383.7188,416.0859 C383.7188,416.3516 383.8594,416.6016 384.0781,416.7578 C384.2188,416.8828 384.4531,416.9297 384.8438,416.9297 L392.8438,416.9297 L392.8438,414.3516 C392.8438,413.9141 392.8125,413.7734 392.7344,413.6172 C392.5625,413.3672 392.2813,413.2109 392,413.2109 C391.7344,413.2109 391.4688,413.3203 391.2969,413.5703 C391.1875,413.7266 391.1563,413.8672 391.1563,414.3516 L391.1563,415.2266 L386.7969,415.2266 L386.7969,412.8047 Z " fill="#000000"/><text fill="#000000" font-family="sans-serif" font-size="12" font-style="italic" lengthAdjust="spacing" textLength="59" x="403" y="407.9355">&#171;entity&gt;&#187;</text><text fill="#000000" font-family="sans-serif" font-size="14" lengthAdjust="spacing" textLength="52" x="406.5" y="423.7607">Answer</text><line style="stroke:#181818;stroke-width:0.5;" x1="360.5" x2="475.5" y1="432.0625" y2="432.0625"/><text fill="#000000" font-family="sans-serif" font-size="14" lengthAdjust="spacing" textLength="105" x="365.5" y="449.0576">correctAnswer</text><text fill="#000000" font-family="sans-serif" font-size="14" lengthAdjust="spacing" textLength="68" x="365.5" y="465.3545">feedback</text></g><!--class Question--><g id="elem_Question"><rect codeLine="74" fill="#F1F1F1" height="64.5625" id="Question" rx="2.5" ry="2.5" style="stroke:#181818;stroke-width:0.5;" width="102" x="748" y="238.2969"/><ellipse cx="763" cy="258.4297" fill="#A9DCDF" rx="11" ry="11" style="stroke:#181818;stroke-width:1.0;"/><path d="M765.0781,260.2422 L765.4688,261.2266 L765.0781,261.2266 C764.625,261.2266 764.5156,261.2422 764.3594,261.3516 C764.1094,261.5078 763.9531,261.7891 763.9531,262.0859 C763.9531,262.3516 764.0938,262.6016 764.3125,262.7578 C764.4531,262.8828 764.6563,262.9297 765.0781,262.9297 L767.4375,262.9297 C767.7969,262.9297 768.0156,262.8984 768.1563,262.8047 C768.4063,262.6641 768.5625,262.3672 768.5625,262.0859 C768.5625,261.8047 768.4219,261.5547 768.2031,261.3984 C768.0313,261.2578 767.875,261.2266 767.4063,261.2266 L764.0156,253.0234 L760.3438,253.0234 C759.8906,253.0234 759.7656,253.0391 759.6094,253.1328 C759.3594,253.3047 759.2031,253.5859 759.2031,253.8672 C759.2031,254.1484 759.3438,254.3984 759.5625,254.5703 C759.7344,254.6797 759.9063,254.7109 760.3438,254.7109 L761.4219,254.7109 L758.7813,261.2266 C758.3594,261.2266 758.2031,261.2422 758.0469,261.3516 C757.7969,261.5078 757.6406,261.7891 757.6406,262.0859 C757.6406,262.6484 758.0156,262.9297 758.7656,262.9297 L761.0313,262.9297 C761.3906,262.9297 761.6094,262.8984 761.7344,262.8047 C762,262.6641 762.1406,262.3672 762.1406,262.0859 C762.1406,261.8047 762.0156,261.5547 761.7969,261.3828 C761.625,261.2578 761.4844,261.2266 761.0313,261.2266 L760.6406,261.2266 L761.0313,260.2422 L765.0781,260.2422 Z M764.375,258.5391 L761.7031,258.5391 L763.0469,255.2734 L764.375,258.5391 Z " fill="#000000"/><text fill="#000000" font-family="sans-serif" font-size="12" font-style="italic" lengthAdjust="spacing" textLength="74" x="775" y="254.4355">&#171;abstract&gt;&#187;</text><text fill="#000000" font-family="sans-serif" font-size="14" font-style="italic" lengthAdjust="spacing" textLength="63" x="780.5" y="270.2607">Question</text><line style="stroke:#181818;stroke-width:0.5;" x1="749" x2="849" y1="278.5625" y2="278.5625"/><text fill="#000000" font-family="sans-serif" font-size="14" lengthAdjust="spacing" textLength="31" x="754" y="295.5576">text</text></g><!--class QuestionScore--><g id="elem_QuestionScore"><rect codeLine="77" fill="#F1F1F1" height="48.2656" id="QuestionScore" rx="2.5" ry="2.5" style="stroke:#181818;stroke-width:0.5;" width="137" x="575.5" y="246.7969"/><ellipse cx="590.5" cy="266.9297" fill="#FF8B40" rx="11" ry="11" style="stroke:#181818;stroke-width:1.0;"/><path d="M590.6563,270.4766 L588.2031,264.7109 L588.5313,264.7109 C588.9375,264.7109 589.0938,264.6797 589.2344,264.6016 C589.5,264.4453 589.6406,264.1641 589.6406,263.8672 C589.6406,263.6016 589.5156,263.3359 589.3125,263.1641 C589.1406,263.0547 588.9688,263.0234 588.5313,263.0234 L586.2656,263.0234 C585.8281,263.0234 585.7031,263.0391 585.5469,263.1328 C585.2969,263.2891 585.1406,263.5859 585.1406,263.8672 C585.1406,264.2109 585.375,264.5547 585.6719,264.6484 C585.8281,264.6953 585.9531,264.7109 586.2969,264.7109 L589.7344,272.9297 L591.4219,272.9297 L594.9063,264.7109 C595.2656,264.7109 595.375,264.6953 595.5313,264.6484 C595.8125,264.5547 596.0625,264.2109 596.0625,263.8672 C596.0625,263.6016 595.9219,263.3359 595.7031,263.1641 C595.5469,263.0547 595.375,263.0234 594.9375,263.0234 L592.6875,263.0234 C592.25,263.0234 592.125,263.0391 591.9844,263.1328 C591.7188,263.2891 591.5625,263.5859 591.5625,263.8672 C591.5625,264.1484 591.7031,264.3984 591.9063,264.5703 C592.0938,264.6797 592.2344,264.7109 592.6875,264.7109 L593.0938,264.7109 L590.6563,270.4766 Z " fill="#000000"/><text fill="#000000" font-family="sans-serif" font-size="12" font-style="italic" lengthAdjust="spacing" textLength="87" x="613.5" y="262.9355">&#171;value object&#187;</text><text fill="#000000" font-family="sans-serif" font-size="14" lengthAdjust="spacing" textLength="105" x="604.5" y="278.7607">QuestionScore</text><line style="stroke:#181818;stroke-width:0.5;" x1="576.5" x2="711.5" y1="287.0625" y2="287.0625"/></g><!--class Matching--><g id="elem_Matching"><rect codeLine="79" fill="#F1F1F1" height="48.2656" id="Matching" rx="2.5" ry="2.5" style="stroke:#181818;stroke-width:0.5;" width="98" x="512" y="408.2969"/><ellipse cx="527" cy="428.4297" fill="#ADD1B2" rx="11" ry="11" style="stroke:#181818;stroke-width:1.0;"/><path d="M525.7969,429.3047 L527.25,429.3047 L527.25,429.4141 C527.25,429.8203 527.2813,429.9766 527.3594,430.1328 C527.5156,430.3828 527.7969,430.5391 528.0938,430.5391 C528.3438,430.5391 528.6094,430.3984 528.7656,430.1797 C528.8906,430.0234 528.9219,429.8672 528.9219,429.4141 L528.9219,427.4922 C528.9219,427.3359 528.9219,427.2891 528.9063,427.1328 C528.8438,426.6641 528.5313,426.3516 528.0781,426.3516 C527.8281,426.3516 527.5625,426.4922 527.3906,426.7109 C527.2813,426.8828 527.25,427.0391 527.25,427.4922 L527.25,427.6172 L525.7969,427.6172 L525.7969,425.2109 L529.7813,425.2109 L529.7813,426.0703 C529.7813,426.4766 529.8125,426.6484 529.8906,426.8047 C530.0625,427.0547 530.3438,427.2109 530.625,427.2109 C530.8906,427.2109 531.1563,427.0703 531.3281,426.8516 C531.4375,426.6797 531.4688,426.5391 531.4688,426.0703 L531.4688,423.5234 L523.8438,423.5234 C523.4063,423.5234 523.2813,423.5391 523.125,423.6328 C522.875,423.7891 522.7188,424.0859 522.7188,424.3672 C522.7188,424.6484 522.8594,424.8984 523.0781,425.0703 C523.2344,425.1797 523.4219,425.2109 523.8438,425.2109 L524.0938,425.2109 L524.0938,431.7266 L523.8438,431.7266 C523.4375,431.7266 523.2813,431.7422 523.125,431.8516 C522.875,432.0234 522.7188,432.2891 522.7188,432.5859 C522.7188,432.8516 522.8594,433.1016 523.0781,433.2578 C523.2188,433.3828 523.4531,433.4297 523.8438,433.4297 L531.8438,433.4297 L531.8438,430.8516 C531.8438,430.4141 531.8125,430.2734 531.7344,430.1172 C531.5625,429.8672 531.2813,429.7109 531,429.7109 C530.7344,429.7109 530.4688,429.8203 530.2969,430.0703 C530.1875,430.2266 530.1563,430.3672 530.1563,430.8516 L530.1563,431.7266 L525.7969,431.7266 L525.7969,429.3047 Z " fill="#000000"/><text fill="#000000" font-family="sans-serif" font-size="12" font-style="italic" lengthAdjust="spacing" textLength="59" x="544.5" y="424.4355">&#171;entity&gt;&#187;</text><text fill="#000000" font-family="sans-serif" font-size="14" lengthAdjust="spacing" textLength="66" x="541" y="440.2607">Matching</text><line style="stroke:#181818;stroke-width:0.5;" x1="513" x2="609" y1="448.5625" y2="448.5625"/></g><!--class MultipleChoice--><g id="elem_MultipleChoice"><rect codeLine="80" fill="#F1F1F1" height="48.2656" id="MultipleChoice" rx="2.5" ry="2.5" style="stroke:#181818;stroke-width:0.5;" width="139" x="645.5" y="408.2969"/><ellipse cx="660.5" cy="428.4297" fill="#ADD1B2" rx="11" ry="11" style="stroke:#181818;stroke-width:1.0;"/><path d="M659.2969,429.3047 L660.75,429.3047 L660.75,429.4141 C660.75,429.8203 660.7813,429.9766 660.8594,430.1328 C661.0156,430.3828 661.2969,430.5391 661.5938,430.5391 C661.8438,430.5391 662.1094,430.3984 662.2656,430.1797 C662.3906,430.0234 662.4219,429.8672 662.4219,429.4141 L662.4219,427.4922 C662.4219,427.3359 662.4219,427.2891 662.4063,427.1328 C662.3438,426.6641 662.0313,426.3516 661.5781,426.3516 C661.3281,426.3516 661.0625,426.4922 660.8906,426.7109 C660.7813,426.8828 660.75,427.0391 660.75,427.4922 L660.75,427.6172 L659.2969,427.6172 L659.2969,425.2109 L663.2813,425.2109 L663.2813,426.0703 C663.2813,426.4766 663.3125,426.6484 663.3906,426.8047 C663.5625,427.0547 663.8438,427.2109 664.125,427.2109 C664.3906,427.2109 664.6563,427.0703 664.8281,426.8516 C664.9375,426.6797 664.9688,426.5391 664.9688,426.0703 L664.9688,423.5234 L657.3438,423.5234 C656.9063,423.5234 656.7813,423.5391 656.625,423.6328 C656.375,423.7891 656.2188,424.0859 656.2188,424.3672 C656.2188,424.6484 656.3594,424.8984 656.5781,425.0703 C656.7344,425.1797 656.9219,425.2109 657.3438,425.2109 L657.5938,425.2109 L657.5938,431.7266 L657.3438,431.7266 C656.9375,431.7266 656.7813,431.7422 656.625,431.8516 C656.375,432.0234 656.2188,432.2891 656.2188,432.5859 C656.2188,432.8516 656.3594,433.1016 656.5781,433.2578 C656.7188,433.3828 656.9531,433.4297 657.3438,433.4297 L665.3438,433.4297 L665.3438,430.8516 C665.3438,430.4141 665.3125,430.2734 665.2344,430.1172 C665.0625,429.8672 664.7813,429.7109 664.5,429.7109 C664.2344,429.7109 663.9688,429.8203 663.7969,430.0703 C663.6875,430.2266 663.6563,430.3672 663.6563,430.8516 L663.6563,431.7266 L659.2969,431.7266 L659.2969,429.3047 Z " fill="#000000"/><text fill="#000000" font-family="sans-serif" font-size="12" font-style="italic" lengthAdjust="spacing" textLength="59" x="698.5" y="424.4355">&#171;entity&gt;&#187;</text><text fill="#000000" font-family="sans-serif" font-size="14" lengthAdjust="spacing" textLength="107" x="674.5" y="440.2607">MultipleChoice</text><line style="stroke:#181818;stroke-width:0.5;" x1="646.5" x2="783.5" y1="448.5625" y2="448.5625"/></g><!--class ShortAnswer--><g id="elem_ShortAnswer"><rect codeLine="81" fill="#F1F1F1" height="48.2656" id="ShortAnswer" rx="2.5" ry="2.5" style="stroke:#181818;stroke-width:0.5;" width="124" x="820" y="408.2969"/><ellipse cx="835" cy="428.4297" fill="#ADD1B2" rx="11" ry="11" style="stroke:#181818;stroke-width:1.0;"/><path d="M833.7969,429.3047 L835.25,429.3047 L835.25,429.4141 C835.25,429.8203 835.2813,429.9766 835.3594,430.1328 C835.5156,430.3828 835.7969,430.5391 836.0938,430.5391 C836.3438,430.5391 836.6094,430.3984 836.7656,430.1797 C836.8906,430.0234 836.9219,429.8672 836.9219,429.4141 L836.9219,427.4922 C836.9219,427.3359 836.9219,427.2891 836.9063,427.1328 C836.8438,426.6641 836.5313,426.3516 836.0781,426.3516 C835.8281,426.3516 835.5625,426.4922 835.3906,426.7109 C835.2813,426.8828 835.25,427.0391 835.25,427.4922 L835.25,427.6172 L833.7969,427.6172 L833.7969,425.2109 L837.7813,425.2109 L837.7813,426.0703 C837.7813,426.4766 837.8125,426.6484 837.8906,426.8047 C838.0625,427.0547 838.3438,427.2109 838.625,427.2109 C838.8906,427.2109 839.1563,427.0703 839.3281,426.8516 C839.4375,426.6797 839.4688,426.5391 839.4688,426.0703 L839.4688,423.5234 L831.8438,423.5234 C831.4063,423.5234 831.2813,423.5391 831.125,423.6328 C830.875,423.7891 830.7188,424.0859 830.7188,424.3672 C830.7188,424.6484 830.8594,424.8984 831.0781,425.0703 C831.2344,425.1797 831.4219,425.2109 831.8438,425.2109 L832.0938,425.2109 L832.0938,431.7266 L831.8438,431.7266 C831.4375,431.7266 831.2813,431.7422 831.125,431.8516 C830.875,432.0234 830.7188,432.2891 830.7188,432.5859 C830.7188,432.8516 830.8594,433.1016 831.0781,433.2578 C831.2188,433.3828 831.4531,433.4297 831.8438,433.4297 L839.8438,433.4297 L839.8438,430.8516 C839.8438,430.4141 839.8125,430.2734 839.7344,430.1172 C839.5625,429.8672 839.2813,429.7109 839,429.7109 C838.7344,429.7109 838.4688,429.8203 838.2969,430.0703 C838.1875,430.2266 838.1563,430.3672 838.1563,430.8516 L838.1563,431.7266 L833.7969,431.7266 L833.7969,429.3047 Z " fill="#000000"/><text fill="#000000" font-family="sans-serif" font-size="12" font-style="italic" lengthAdjust="spacing" textLength="59" x="865.5" y="424.4355">&#171;entity&gt;&#187;</text><text fill="#000000" font-family="sans-serif" font-size="14" lengthAdjust="spacing" textLength="92" x="849" y="440.2607">ShortAnswer</text><line style="stroke:#181818;stroke-width:0.5;" x1="821" x2="943" y1="448.5625" y2="448.5625"/></g><!--class Numerical--><g id="elem_Numerical"><rect codeLine="82" fill="#F1F1F1" height="48.2656" id="Numerical" rx="2.5" ry="2.5" style="stroke:#181818;stroke-width:0.5;" width="103" x="979.5" y="408.2969"/><ellipse cx="994.5" cy="428.4297" fill="#ADD1B2" rx="11" ry="11" style="stroke:#181818;stroke-width:1.0;"/><path d="M993.2969,429.3047 L994.75,429.3047 L994.75,429.4141 C994.75,429.8203 994.7813,429.9766 994.8594,430.1328 C995.0156,430.3828 995.2969,430.5391 995.5938,430.5391 C995.8438,430.5391 996.1094,430.3984 996.2656,430.1797 C996.3906,430.0234 996.4219,429.8672 996.4219,429.4141 L996.4219,427.4922 C996.4219,427.3359 996.4219,427.2891 996.4063,427.1328 C996.3438,426.6641 996.0313,426.3516 995.5781,426.3516 C995.3281,426.3516 995.0625,426.4922 994.8906,426.7109 C994.7813,426.8828 994.75,427.0391 994.75,427.4922 L994.75,427.6172 L993.2969,427.6172 L993.2969,425.2109 L997.2813,425.2109 L997.2813,426.0703 C997.2813,426.4766 997.3125,426.6484 997.3906,426.8047 C997.5625,427.0547 997.8438,427.2109 998.125,427.2109 C998.3906,427.2109 998.6563,427.0703 998.8281,426.8516 C998.9375,426.6797 998.9688,426.5391 998.9688,426.0703 L998.9688,423.5234 L991.3438,423.5234 C990.9063,423.5234 990.7813,423.5391 990.625,423.6328 C990.375,423.7891 990.2188,424.0859 990.2188,424.3672 C990.2188,424.6484 990.3594,424.8984 990.5781,425.0703 C990.7344,425.1797 990.9219,425.2109 991.3438,425.2109 L991.5938,425.2109 L991.5938,431.7266 L991.3438,431.7266 C990.9375,431.7266 990.7813,431.7422 990.625,431.8516 C990.375,432.0234 990.2188,432.2891 990.2188,432.5859 C990.2188,432.8516 990.3594,433.1016 990.5781,433.2578 C990.7188,433.3828 990.9531,433.4297 991.3438,433.4297 L999.3438,433.4297 L999.3438,430.8516 C999.3438,430.4141 999.3125,430.2734 999.2344,430.1172 C999.0625,429.8672 998.7813,429.7109 998.5,429.7109 C998.2344,429.7109 997.9688,429.8203 997.7969,430.0703 C997.6875,430.2266 997.6563,430.3672 997.6563,430.8516 L997.6563,431.7266 L993.2969,431.7266 L993.2969,429.3047 Z " fill="#000000"/><text fill="#000000" font-family="sans-serif" font-size="12" font-style="italic" lengthAdjust="spacing" textLength="59" x="1014.5" y="424.4355">&#171;entity&gt;&#187;</text><text fill="#000000" font-family="sans-serif" font-size="14" lengthAdjust="spacing" textLength="71" x="1008.5" y="440.2607">Numerical</text><line style="stroke:#181818;stroke-width:0.5;" x1="980.5" x2="1081.5" y1="448.5625" y2="448.5625"/></g><!--class SelectMissingWords--><g id="elem_SelectMissingWords"><rect codeLine="83" fill="#F1F1F1" height="48.2656" id="SelectMissingWords" rx="2.5" ry="2.5" style="stroke:#181818;stroke-width:0.5;" width="175" x="1117.5" y="408.2969"/><ellipse cx="1132.5" cy="428.4297" fill="#ADD1B2" rx="11" ry="11" style="stroke:#181818;stroke-width:1.0;"/><path d="M1131.2969,429.3047 L1132.75,429.3047 L1132.75,429.4141 C1132.75,429.8203 1132.7813,429.9766 1132.8594,430.1328 C1133.0156,430.3828 1133.2969,430.5391 1133.5938,430.5391 C1133.8438,430.5391 1134.1094,430.3984 1134.2656,430.1797 C1134.3906,430.0234 1134.4219,429.8672 1134.4219,429.4141 L1134.4219,427.4922 C1134.4219,427.3359 1134.4219,427.2891 1134.4063,427.1328 C1134.3438,426.6641 1134.0313,426.3516 1133.5781,426.3516 C1133.3281,426.3516 1133.0625,426.4922 1132.8906,426.7109 C1132.7813,426.8828 1132.75,427.0391 1132.75,427.4922 L1132.75,427.6172 L1131.2969,427.6172 L1131.2969,425.2109 L1135.2813,425.2109 L1135.2813,426.0703 C1135.2813,426.4766 1135.3125,426.6484 1135.3906,426.8047 C1135.5625,427.0547 1135.8438,427.2109 1136.125,427.2109 C1136.3906,427.2109 1136.6563,427.0703 1136.8281,426.8516 C1136.9375,426.6797 1136.9688,426.5391 1136.9688,426.0703 L1136.9688,423.5234 L1129.3438,423.5234 C1128.9063,423.5234 1128.7813,423.5391 1128.625,423.6328 C1128.375,423.7891 1128.2188,424.0859 1128.2188,424.3672 C1128.2188,424.6484 1128.3594,424.8984 1128.5781,425.0703 C1128.7344,425.1797 1128.9219,425.2109 1129.3438,425.2109 L1129.5938,425.2109 L1129.5938,431.7266 L1129.3438,431.7266 C1128.9375,431.7266 1128.7813,431.7422 1128.625,431.8516 C1128.375,432.0234 1128.2188,432.2891 1128.2188,432.5859 C1128.2188,432.8516 1128.3594,433.1016 1128.5781,433.2578 C1128.7188,433.3828 1128.9531,433.4297 1129.3438,433.4297 L1137.3438,433.4297 L1137.3438,430.8516 C1137.3438,430.4141 1137.3125,430.2734 1137.2344,430.1172 C1137.0625,429.8672 1136.7813,429.7109 1136.5,429.7109 C1136.2344,429.7109 1135.9688,429.8203 1135.7969,430.0703 C1135.6875,430.2266 1135.6563,430.3672 1135.6563,430.8516 L1135.6563,431.7266 L1131.2969,431.7266 L1131.2969,429.3047 Z " fill="#000000"/><text fill="#000000" font-family="sans-serif" font-size="12" font-style="italic" lengthAdjust="spacing" textLength="59" x="1188.5" y="424.4355">&#171;entity&gt;&#187;</text><text fill="#000000" font-family="sans-serif" font-size="14" lengthAdjust="spacing" textLength="143" x="1146.5" y="440.2607">SelectMissingWords</text><line style="stroke:#181818;stroke-width:0.5;" x1="1118.5" x2="1291.5" y1="448.5625" y2="448.5625"/></g><!--class TrueFalse--><g id="elem_TrueFalse"><rect codeLine="84" fill="#F1F1F1" height="48.2656" id="TrueFalse" rx="2.5" ry="2.5" style="stroke:#181818;stroke-width:0.5;" width="100" x="1328" y="408.2969"/><ellipse cx="1343" cy="428.4297" fill="#ADD1B2" rx="11" ry="11" style="stroke:#181818;stroke-width:1.0;"/><path d="M1341.7969,429.3047 L1343.25,429.3047 L1343.25,429.4141 C1343.25,429.8203 1343.2813,429.9766 1343.3594,430.1328 C1343.5156,430.3828 1343.7969,430.5391 1344.0938,430.5391 C1344.3438,430.5391 1344.6094,430.3984 1344.7656,430.1797 C1344.8906,430.0234 1344.9219,429.8672 1344.9219,429.4141 L1344.9219,427.4922 C1344.9219,427.3359 1344.9219,427.2891 1344.9063,427.1328 C1344.8438,426.6641 1344.5313,426.3516 1344.0781,426.3516 C1343.8281,426.3516 1343.5625,426.4922 1343.3906,426.7109 C1343.2813,426.8828 1343.25,427.0391 1343.25,427.4922 L1343.25,427.6172 L1341.7969,427.6172 L1341.7969,425.2109 L1345.7813,425.2109 L1345.7813,426.0703 C1345.7813,426.4766 1345.8125,426.6484 1345.8906,426.8047 C1346.0625,427.0547 1346.3438,427.2109 1346.625,427.2109 C1346.8906,427.2109 1347.1563,427.0703 1347.3281,426.8516 C1347.4375,426.6797 1347.4688,426.5391 1347.4688,426.0703 L1347.4688,423.5234 L1339.8438,423.5234 C1339.4063,423.5234 1339.2813,423.5391 1339.125,423.6328 C1338.875,423.7891 1338.7188,424.0859 1338.7188,424.3672 C1338.7188,424.6484 1338.8594,424.8984 1339.0781,425.0703 C1339.2344,425.1797 1339.4219,425.2109 1339.8438,425.2109 L1340.0938,425.2109 L1340.0938,431.7266 L1339.8438,431.7266 C1339.4375,431.7266 1339.2813,431.7422 1339.125,431.8516 C1338.875,432.0234 1338.7188,432.2891 1338.7188,432.5859 C1338.7188,432.8516 1338.8594,433.1016 1339.0781,433.2578 C1339.2188,433.3828 1339.4531,433.4297 1339.8438,433.4297 L1347.8438,433.4297 L1347.8438,430.8516 C1347.8438,430.4141 1347.8125,430.2734 1347.7344,430.1172 C1347.5625,429.8672 1347.2813,429.7109 1347,429.7109 C1346.7344,429.7109 1346.4688,429.8203 1346.2969,430.0703 C1346.1875,430.2266 1346.1563,430.3672 1346.1563,430.8516 L1346.1563,431.7266 L1341.7969,431.7266 L1341.7969,429.3047 Z " fill="#000000"/><text fill="#000000" font-family="sans-serif" font-size="12" font-style="italic" lengthAdjust="spacing" textLength="59" x="1361.5" y="424.4355">&#171;entity&gt;&#187;</text><text fill="#000000" font-family="sans-serif" font-size="14" lengthAdjust="spacing" textLength="68" x="1357" y="440.2607">TrueFalse</text><line style="stroke:#181818;stroke-width:0.5;" x1="1329" x2="1427" y1="448.5625" y2="448.5625"/></g><!--class ExamTitle--><g id="elem_ExamTitle"><rect codeLine="50" fill="#F1F1F1" height="48.2656" id="ExamTitle" rx="2.5" ry="2.5" style="stroke:#181818;stroke-width:0.5;" width="115" x="2147.5" y="408.2969"/><ellipse cx="2162.5" cy="428.4297" fill="#FF8B40" rx="11" ry="11" style="stroke:#181818;stroke-width:1.0;"/><path d="M2162.6563,431.9766 L2160.2031,426.2109 L2160.5313,426.2109 C2160.9375,426.2109 2161.0938,426.1797 2161.2344,426.1016 C2161.5,425.9453 2161.6406,425.6641 2161.6406,425.3672 C2161.6406,425.1016 2161.5156,424.8359 2161.3125,424.6641 C2161.1406,424.5547 2160.9688,424.5234 2160.5313,424.5234 L2158.2656,424.5234 C2157.8281,424.5234 2157.7031,424.5391 2157.5469,424.6328 C2157.2969,424.7891 2157.1406,425.0859 2157.1406,425.3672 C2157.1406,425.7109 2157.375,426.0547 2157.6719,426.1484 C2157.8281,426.1953 2157.9531,426.2109 2158.2969,426.2109 L2161.7344,434.4297 L2163.4219,434.4297 L2166.9063,426.2109 C2167.2656,426.2109 2167.375,426.1953 2167.5313,426.1484 C2167.8125,426.0547 2168.0625,425.7109 2168.0625,425.3672 C2168.0625,425.1016 2167.9219,424.8359 2167.7031,424.6641 C2167.5469,424.5547 2167.375,424.5234 2166.9375,424.5234 L2164.6875,424.5234 C2164.25,424.5234 2164.125,424.5391 2163.9844,424.6328 C2163.7188,424.7891 2163.5625,425.0859 2163.5625,425.3672 C2163.5625,425.6484 2163.7031,425.8984 2163.9063,426.0703 C2164.0938,426.1797 2164.2344,426.2109 2164.6875,426.2109 L2165.0938,426.2109 L2162.6563,431.9766 Z " fill="#000000"/><text fill="#000000" font-family="sans-serif" font-size="12" font-style="italic" lengthAdjust="spacing" textLength="87" x="2174.5" y="424.4355">&#171;value object&#187;</text><text fill="#000000" font-family="sans-serif" font-size="14" lengthAdjust="spacing" textLength="72" x="2182" y="440.2607">ExamTitle</text><line style="stroke:#181818;stroke-width:0.5;" x1="2148.5" x2="2261.5" y1="448.5625" y2="448.5625"/></g><!--class ExamDateTime--><g id="elem_ExamDateTime"><rect codeLine="51" fill="#F1F1F1" height="80.8594" id="ExamDateTime" rx="2.5" ry="2.5" style="stroke:#181818;stroke-width:0.5;" width="142" x="2298" y="391.7969"/><ellipse cx="2313" cy="411.9297" fill="#FF8B40" rx="11" ry="11" style="stroke:#181818;stroke-width:1.0;"/><path d="M2313.1563,415.4766 L2310.7031,409.7109 L2311.0313,409.7109 C2311.4375,409.7109 2311.5938,409.6797 2311.7344,409.6016 C2312,409.4453 2312.1406,409.1641 2312.1406,408.8672 C2312.1406,408.6016 2312.0156,408.3359 2311.8125,408.1641 C2311.6406,408.0547 2311.4688,408.0234 2311.0313,408.0234 L2308.7656,408.0234 C2308.3281,408.0234 2308.2031,408.0391 2308.0469,408.1328 C2307.7969,408.2891 2307.6406,408.5859 2307.6406,408.8672 C2307.6406,409.2109 2307.875,409.5547 2308.1719,409.6484 C2308.3281,409.6953 2308.4531,409.7109 2308.7969,409.7109 L2312.2344,417.9297 L2313.9219,417.9297 L2317.4063,409.7109 C2317.7656,409.7109 2317.875,409.6953 2318.0313,409.6484 C2318.3125,409.5547 2318.5625,409.2109 2318.5625,408.8672 C2318.5625,408.6016 2318.4219,408.3359 2318.2031,408.1641 C2318.0469,408.0547 2317.875,408.0234 2317.4375,408.0234 L2315.1875,408.0234 C2314.75,408.0234 2314.625,408.0391 2314.4844,408.1328 C2314.2188,408.2891 2314.0625,408.5859 2314.0625,408.8672 C2314.0625,409.1484 2314.2031,409.3984 2314.4063,409.5703 C2314.5938,409.6797 2314.7344,409.7109 2315.1875,409.7109 L2315.5938,409.7109 L2313.1563,415.4766 Z " fill="#000000"/><text fill="#000000" font-family="sans-serif" font-size="12" font-style="italic" lengthAdjust="spacing" textLength="87" x="2338.5" y="407.9355">&#171;value object&#187;</text><text fill="#000000" font-family="sans-serif" font-size="14" lengthAdjust="spacing" textLength="110" x="2327" y="423.7607">ExamDateTime</text><line style="stroke:#181818;stroke-width:0.5;" x1="2299" x2="2439" y1="432.0625" y2="432.0625"/><text fill="#000000" font-family="sans-serif" font-size="14" lengthAdjust="spacing" textLength="130" x="2304" y="449.0576">openingDateTime</text><text fill="#000000" font-family="sans-serif" font-size="14" lengthAdjust="spacing" textLength="121" x="2304" y="465.3545">closingDateTime</text></g><!--class Header--><g id="elem_Header"><rect codeLine="57" fill="#F1F1F1" height="48.2656" id="Header" rx="2.5" ry="2.5" style="stroke:#181818;stroke-width:0.5;" width="87" x="2475.5" y="408.2969"/><ellipse cx="2490.5" cy="428.4297" fill="#ADD1B2" rx="11" ry="11" style="stroke:#181818;stroke-width:1.0;"/><path d="M2489.2969,429.3047 L2490.75,429.3047 L2490.75,429.4141 C2490.75,429.8203 2490.7813,429.9766 2490.8594,430.1328 C2491.0156,430.3828 2491.2969,430.5391 2491.5938,430.5391 C2491.8438,430.5391 2492.1094,430.3984 2492.2656,430.1797 C2492.3906,430.0234 2492.4219,429.8672 2492.4219,429.4141 L2492.4219,427.4922 C2492.4219,427.3359 2492.4219,427.2891 2492.4063,427.1328 C2492.3438,426.6641 2492.0313,426.3516 2491.5781,426.3516 C2491.3281,426.3516 2491.0625,426.4922 2490.8906,426.7109 C2490.7813,426.8828 2490.75,427.0391 2490.75,427.4922 L2490.75,427.6172 L2489.2969,427.6172 L2489.2969,425.2109 L2493.2813,425.2109 L2493.2813,426.0703 C2493.2813,426.4766 2493.3125,426.6484 2493.3906,426.8047 C2493.5625,427.0547 2493.8438,427.2109 2494.125,427.2109 C2494.3906,427.2109 2494.6563,427.0703 2494.8281,426.8516 C2494.9375,426.6797 2494.9688,426.5391 2494.9688,426.0703 L2494.9688,423.5234 L2487.3438,423.5234 C2486.9063,423.5234 2486.7813,423.5391 2486.625,423.6328 C2486.375,423.7891 2486.2188,424.0859 2486.2188,424.3672 C2486.2188,424.6484 2486.3594,424.8984 2486.5781,425.0703 C2486.7344,425.1797 2486.9219,425.2109 2487.3438,425.2109 L2487.5938,425.2109 L2487.5938,431.7266 L2487.3438,431.7266 C2486.9375,431.7266 2486.7813,431.7422 2486.625,431.8516 C2486.375,432.0234 2486.2188,432.2891 2486.2188,432.5859 C2486.2188,432.8516 2486.3594,433.1016 2486.5781,433.2578 C2486.7188,433.3828 2486.9531,433.4297 2487.3438,433.4297 L2495.3438,433.4297 L2495.3438,430.8516 C2495.3438,430.4141 2495.3125,430.2734 2495.2344,430.1172 C2495.0625,429.8672 2494.7813,429.7109 2494.5,429.7109 C2494.2344,429.7109 2493.9688,429.8203 2493.7969,430.0703 C2493.6875,430.2266 2493.6563,430.3672 2493.6563,430.8516 L2493.6563,431.7266 L2489.2969,431.7266 L2489.2969,429.3047 Z " fill="#000000"/><text fill="#000000" font-family="sans-serif" font-size="12" font-style="italic" lengthAdjust="spacing" textLength="59" x="2502.5" y="424.4355">&#171;entity&gt;&#187;</text><text fill="#000000" font-family="sans-serif" font-size="14" lengthAdjust="spacing" textLength="51" x="2506.5" y="440.2607">Header</text><line style="stroke:#181818;stroke-width:0.5;" x1="2476.5" x2="2561.5" y1="448.5625" y2="448.5625"/></g><!--class HeaderTypeNote--><g id="elem_HeaderTypeNote"><rect codeLine="58" fill="#F1F1F1" height="48.2656" id="HeaderTypeNote" rx="2.5" ry="2.5" style="stroke:#181818;stroke-width:0.5;" width="154" x="2235" y="557.2969"/><ellipse cx="2250" cy="577.4297" fill="#FF8B40" rx="11" ry="11" style="stroke:#181818;stroke-width:1.0;"/><path d="M2250.1563,580.9766 L2247.7031,575.2109 L2248.0313,575.2109 C2248.4375,575.2109 2248.5938,575.1797 2248.7344,575.1016 C2249,574.9453 2249.1406,574.6641 2249.1406,574.3672 C2249.1406,574.1016 2249.0156,573.8359 2248.8125,573.6641 C2248.6406,573.5547 2248.4688,573.5234 2248.0313,573.5234 L2245.7656,573.5234 C2245.3281,573.5234 2245.2031,573.5391 2245.0469,573.6328 C2244.7969,573.7891 2244.6406,574.0859 2244.6406,574.3672 C2244.6406,574.7109 2244.875,575.0547 2245.1719,575.1484 C2245.3281,575.1953 2245.4531,575.2109 2245.7969,575.2109 L2249.2344,583.4297 L2250.9219,583.4297 L2254.4063,575.2109 C2254.7656,575.2109 2254.875,575.1953 2255.0313,575.1484 C2255.3125,575.0547 2255.5625,574.7109 2255.5625,574.3672 C2255.5625,574.1016 2255.4219,573.8359 2255.2031,573.6641 C2255.0469,573.5547 2254.875,573.5234 2254.4375,573.5234 L2252.1875,573.5234 C2251.75,573.5234 2251.625,573.5391 2251.4844,573.6328 C2251.2188,573.7891 2251.0625,574.0859 2251.0625,574.3672 C2251.0625,574.6484 2251.2031,574.8984 2251.4063,575.0703 C2251.5938,575.1797 2251.7344,575.2109 2252.1875,575.2109 L2252.5938,575.2109 L2250.1563,580.9766 Z " fill="#000000"/><text fill="#000000" font-family="sans-serif" font-size="12" font-style="italic" lengthAdjust="spacing" textLength="87" x="2281.5" y="573.4355">&#171;value object&#187;</text><text fill="#000000" font-family="sans-serif" font-size="14" lengthAdjust="spacing" textLength="122" x="2264" y="589.2607">HeaderTypeNote</text><line style="stroke:#181818;stroke-width:0.5;" x1="2236" x2="2388" y1="597.5625" y2="597.5625"/></g><!--class HeaderTypeFeedback--><g id="elem_HeaderTypeFeedback"><rect codeLine="59" fill="#F1F1F1" height="48.2656" id="HeaderTypeFeedback" rx="2.5" ry="2.5" style="stroke:#181818;stroke-width:0.5;" width="189" x="2424.5" y="557.2969"/><ellipse cx="2439.5" cy="577.4297" fill="#FF8B40" rx="11" ry="11" style="stroke:#181818;stroke-width:1.0;"/><path d="M2439.6563,580.9766 L2437.2031,575.2109 L2437.5313,575.2109 C2437.9375,575.2109 2438.0938,575.1797 2438.2344,575.1016 C2438.5,574.9453 2438.6406,574.6641 2438.6406,574.3672 C2438.6406,574.1016 2438.5156,573.8359 2438.3125,573.6641 C2438.1406,573.5547 2437.9688,573.5234 2437.5313,573.5234 L2435.2656,573.5234 C2434.8281,573.5234 2434.7031,573.5391 2434.5469,573.6328 C2434.2969,573.7891 2434.1406,574.0859 2434.1406,574.3672 C2434.1406,574.7109 2434.375,575.0547 2434.6719,575.1484 C2434.8281,575.1953 2434.9531,575.2109 2435.2969,575.2109 L2438.7344,583.4297 L2440.4219,583.4297 L2443.9063,575.2109 C2444.2656,575.2109 2444.375,575.1953 2444.5313,575.1484 C2444.8125,575.0547 2445.0625,574.7109 2445.0625,574.3672 C2445.0625,574.1016 2444.9219,573.8359 2444.7031,573.6641 C2444.5469,573.5547 2444.375,573.5234 2443.9375,573.5234 L2441.6875,573.5234 C2441.25,573.5234 2441.125,573.5391 2440.9844,573.6328 C2440.7188,573.7891 2440.5625,574.0859 2440.5625,574.3672 C2440.5625,574.6484 2440.7031,574.8984 2440.9063,575.0703 C2441.0938,575.1797 2441.2344,575.2109 2441.6875,575.2109 L2442.0938,575.2109 L2439.6563,580.9766 Z " fill="#000000"/><text fill="#000000" font-family="sans-serif" font-size="12" font-style="italic" lengthAdjust="spacing" textLength="87" x="2488.5" y="573.4355">&#171;value object&#187;</text><text fill="#000000" font-family="sans-serif" font-size="14" lengthAdjust="spacing" textLength="157" x="2453.5" y="589.2607">HeaderTypeFeedback</text><line style="stroke:#181818;stroke-width:0.5;" x1="2425.5" x2="2612.5" y1="597.5625" y2="597.5625"/></g><!--class HeaderDescription--><g id="elem_HeaderDescription"><rect codeLine="60" fill="#F1F1F1" height="48.2656" id="HeaderDescription" rx="2.5" ry="2.5" style="stroke:#181818;stroke-width:0.5;" width="167" x="2648.5" y="557.2969"/><ellipse cx="2663.5" cy="577.4297" fill="#FF8B40" rx="11" ry="11" style="stroke:#181818;stroke-width:1.0;"/><path d="M2663.6563,580.9766 L2661.2031,575.2109 L2661.5313,575.2109 C2661.9375,575.2109 2662.0938,575.1797 2662.2344,575.1016 C2662.5,574.9453 2662.6406,574.6641 2662.6406,574.3672 C2662.6406,574.1016 2662.5156,573.8359 2662.3125,573.6641 C2662.1406,573.5547 2661.9688,573.5234 2661.5313,573.5234 L2659.2656,573.5234 C2658.8281,573.5234 2658.7031,573.5391 2658.5469,573.6328 C2658.2969,573.7891 2658.1406,574.0859 2658.1406,574.3672 C2658.1406,574.7109 2658.375,575.0547 2658.6719,575.1484 C2658.8281,575.1953 2658.9531,575.2109 2659.2969,575.2109 L2662.7344,583.4297 L2664.4219,583.4297 L2667.9063,575.2109 C2668.2656,575.2109 2668.375,575.1953 2668.5313,575.1484 C2668.8125,575.0547 2669.0625,574.7109 2669.0625,574.3672 C2669.0625,574.1016 2668.9219,573.8359 2668.7031,573.6641 C2668.5469,573.5547 2668.375,573.5234 2667.9375,573.5234 L2665.6875,573.5234 C2665.25,573.5234 2665.125,573.5391 2664.9844,573.6328 C2664.7188,573.7891 2664.5625,574.0859 2664.5625,574.3672 C2664.5625,574.6484 2664.7031,574.8984 2664.9063,575.0703 C2665.0938,575.1797 2665.2344,575.2109 2665.6875,575.2109 L2666.0938,575.2109 L2663.6563,580.9766 Z " fill="#000000"/><text fill="#000000" font-family="sans-serif" font-size="12" font-style="italic" lengthAdjust="spacing" textLength="87" x="2701.5" y="573.4355">&#171;value object&#187;</text><text fill="#000000" font-family="sans-serif" font-size="14" lengthAdjust="spacing" textLength="135" x="2677.5" y="589.2607">HeaderDescription</text><line style="stroke:#181818;stroke-width:0.5;" x1="2649.5" x2="2814.5" y1="597.5625" y2="597.5625"/></g><!--class SectionDescription--><g id="elem_SectionDescription"><rect codeLine="63" fill="#F1F1F1" height="48.2656" id="SectionDescription" rx="2.5" ry="2.5" style="stroke:#181818;stroke-width:0.5;" width="171" x="1963.5" y="557.2969"/><ellipse cx="1978.5" cy="577.4297" fill="#FF8B40" rx="11" ry="11" style="stroke:#181818;stroke-width:1.0;"/><path d="M1978.6563,580.9766 L1976.2031,575.2109 L1976.5313,575.2109 C1976.9375,575.2109 1977.0938,575.1797 1977.2344,575.1016 C1977.5,574.9453 1977.6406,574.6641 1977.6406,574.3672 C1977.6406,574.1016 1977.5156,573.8359 1977.3125,573.6641 C1977.1406,573.5547 1976.9688,573.5234 1976.5313,573.5234 L1974.2656,573.5234 C1973.8281,573.5234 1973.7031,573.5391 1973.5469,573.6328 C1973.2969,573.7891 1973.1406,574.0859 1973.1406,574.3672 C1973.1406,574.7109 1973.375,575.0547 1973.6719,575.1484 C1973.8281,575.1953 1973.9531,575.2109 1974.2969,575.2109 L1977.7344,583.4297 L1979.4219,583.4297 L1982.9063,575.2109 C1983.2656,575.2109 1983.375,575.1953 1983.5313,575.1484 C1983.8125,575.0547 1984.0625,574.7109 1984.0625,574.3672 C1984.0625,574.1016 1983.9219,573.8359 1983.7031,573.6641 C1983.5469,573.5547 1983.375,573.5234 1982.9375,573.5234 L1980.6875,573.5234 C1980.25,573.5234 1980.125,573.5391 1979.9844,573.6328 C1979.7188,573.7891 1979.5625,574.0859 1979.5625,574.3672 C1979.5625,574.6484 1979.7031,574.8984 1979.9063,575.0703 C1980.0938,575.1797 1980.2344,575.2109 1980.6875,575.2109 L1981.0938,575.2109 L1978.6563,580.9766 Z " fill="#000000"/><text fill="#000000" font-family="sans-serif" font-size="12" font-style="italic" lengthAdjust="spacing" textLength="87" x="2018.5" y="573.4355">&#171;value object&#187;</text><text fill="#000000" font-family="sans-serif" font-size="14" lengthAdjust="spacing" textLength="139" x="1992.5" y="589.2607">SectionDescription</text><line style="stroke:#181818;stroke-width:0.5;" x1="1964.5" x2="2133.5" y1="597.5625" y2="597.5625"/></g><!--link Student to MechanographicNumber--><g id="link_Student_MechanographicNumber"><path codeLine="88" d="M1622.99,463.3989 C1615.21,489.3859 1604.06,526.6489 1596.45,552.0729 " fill="none" id="Student-to-MechanographicNumber" style="stroke:#181818;stroke-width:1.0;"/><polygon fill="#181818" points="1594.98,556.9929,1601.3893,549.5148,1596.4115,552.2022,1593.7242,547.2244,1594.98,556.9929" style="stroke:#181818;stroke-width:1.0;"/></g><!--link Course to CourseCode--><g id="link_Course_CourseCode"><path codeLine="90" d="M223.326,140.6339 C203.468,156.5279 179.081,176.5429 158,195.2969 C140.704,210.6839 122.027,228.7169 107.399,243.1879 " fill="none" id="Course-to-CourseCode" style="stroke:#181818;stroke-width:1.0;"/><polygon fill="#181818" points="103.771,246.7859,112.979,243.2912,107.3222,243.2661,107.3474,237.6093,103.771,246.7859" style="stroke:#181818;stroke-width:1.0;"/></g><!--link Course to CourseStatus--><g id="link_Course_CourseStatus"><path codeLine="91" d="M257.674,140.2979 C253.484,169.3519 247.18,213.0729 243.077,241.5269 " fill="none" id="Course-to-CourseStatus" style="stroke:#181818;stroke-width:1.0;"/><polygon fill="#181818" points="242.337,246.6549,247.5817,238.3186,243.0513,241.7062,239.6638,237.1757,242.337,246.6549" style="stroke:#181818;stroke-width:1.0;"/></g><!--link Enrollment to EnrollmentStatus--><g id="link_Enrollment_EnrollmentStatus"><path codeLine="93" d="M1808.89,301.7979 C1813.63,330.8519 1820.75,374.5729 1825.39,403.0269 " fill="none" id="Enrollment-to-EnrollmentStatus" style="stroke:#181818;stroke-width:1.0;"/><polygon fill="#181818" points="1826.23,408.1549,1828.7283,398.6281,1825.4247,403.2202,1820.8327,399.9166,1826.23,408.1549" style="stroke:#181818;stroke-width:1.0;"/></g><!--link Exam to ExamTitle--><g id="link_Exam_ExamTitle"><path codeLine="95" d="M2097.83,301.7979 C2122.17,331.2129 2158.96,375.6639 2182.48,404.0819 " fill="none" id="Exam-to-ExamTitle" style="stroke:#181818;stroke-width:1.0;"/><polygon fill="#181818" points="2185.85,408.1549,2183.1986,398.6696,2182.6643,404.3012,2177.0327,403.7668,2185.85,408.1549" style="stroke:#181818;stroke-width:1.0;"/></g><!--link Exam to ExamDateTime--><g id="link_Exam_ExamDateTime"><path codeLine="96" d="M2111.61,284.1299 C2154.43,298.6589 2224.76,325.0789 2280,358.2969 C2294.28,366.8829 2308.7,377.6199 2321.65,388.1949 " fill="none" id="Exam-to-ExamDateTime" style="stroke:#181818;stroke-width:1.0;"/><polygon fill="#181818" points="2325.62,391.4699,2321.2264,382.6553,2321.7643,388.2865,2316.1331,388.8244,2325.62,391.4699" style="stroke:#181818;stroke-width:1.0;"/></g><!--link Exam to Header--><g id="link_Exam_Header"><path codeLine="97" d="M2111.53,272.4439 C2184.46,275.3109 2345.43,289.6079 2458,358.2969 C2476.3,369.4629 2491.72,388.0719 2502.48,403.7059 " fill="none" id="Exam-to-Header" style="stroke:#181818;stroke-width:1.0;"/><polygon fill="#181818" points="2505.39,408.0289,2503.6782,398.3299,2502.5961,403.8823,2497.0437,402.8002,2505.39,408.0289" style="stroke:#181818;stroke-width:1.0;"/></g><!--link ExamSection to SectionDescription--><g id="link_ExamSection_SectionDescription"><path codeLine="99" d="M2049,456.5899 C2049,482.5019 2049,524.3629 2049,552.1049 " fill="none" id="ExamSection-to-SectionDescription" style="stroke:#181818;stroke-width:1.0;"/><polygon fill="#181818" points="2049,557.1133,2053,548.1133,2049,552.1133,2045,548.1133,2049,557.1133" style="stroke:#181818;stroke-width:1.0;"/></g><!--link Header to HeaderTypeNote--><g id="link_Header_HeaderTypeNote"><path codeLine="101" d="M2500.81,456.4199 C2489.43,469.9469 2473.95,486.7709 2458,499.2969 C2430.19,521.1319 2395.74,540.5479 2367.28,554.8929 " fill="none" id="Header-to-HeaderTypeNote" style="stroke:#181818;stroke-width:1.0;"/><polygon fill="#181818" points="2362.77,557.1518,2372.6081,556.6924,2367.2394,554.9102,2369.0216,549.5414,2362.77,557.1518" style="stroke:#181818;stroke-width:1.0;"/></g><!--link Header to HeaderTypeFeedback--><g id="link_Header_HeaderTypeFeedback"><path codeLine="102" d="M2519,456.5899 C2519,482.5019 2519,524.3629 2519,552.1049 " fill="none" id="Header-to-HeaderTypeFeedback" style="stroke:#181818;stroke-width:1.0;"/><polygon fill="#181818" points="2519,557.1133,2523,548.1133,2519,552.1133,2515,548.1133,2519,557.1133" style="stroke:#181818;stroke-width:1.0;"/></g><!--link Header to HeaderDescription--><g id="link_Header_HeaderDescription"><path codeLine="103" d="M2552.75,456.5899 C2591.23,483.1469 2653.99,526.4569 2694.11,554.1499 " fill="none" id="Header-to-HeaderDescription" style="stroke:#181818;stroke-width:1.0;"/><polygon fill="#181818" points="2698.41,557.1133,2693.2781,548.7071,2694.296,554.2716,2688.7315,555.2895,2698.41,557.1133" style="stroke:#181818;stroke-width:1.0;"/></g><!--reverse link QuestionScore to Question--><g id="link_QuestionScore_Question"><path codeLine="105" d="M717.924,270.7969 C727.873,270.7969 737.822,270.7969 747.772,270.7969 " fill="none" id="QuestionScore-backto-Question" style="stroke:#181818;stroke-width:1.0;"/><polygon fill="#181818" points="712.721,270.7969,721.721,274.7969,717.721,270.7969,721.721,266.7969,712.721,270.7969" style="stroke:#181818;stroke-width:1.0;"/></g><!--reverse link Question to Matching--><g id="link_Question_Matching"><path codeLine="107" d="M729.513,303.8369 C690.182,322.5749 645.457,345.0739 628,358.2969 C609.077,372.6309 591.086,392.7239 578.521,408.2019 " fill="none" id="Question-backto-Matching" style="stroke:#181818;stroke-width:1.0;"/><polygon fill="none" points="726.59,297.4769,747.664,295.2699,732.566,310.1369,726.59,297.4769" style="stroke:#181818;stroke-width:1.0;"/></g><!--reverse link Question to MultipleChoice--><g id="link_Question_MultipleChoice"><path codeLine="108" d="M772.958,321.2469 C757.7,350.2169 739.143,385.4529 727.206,408.1199 " fill="none" id="Question-backto-MultipleChoice" style="stroke:#181818;stroke-width:1.0;"/><polygon fill="none" points="766.891,317.7429,782.404,303.3089,779.278,324.2669,766.891,317.7429" style="stroke:#181818;stroke-width:1.0;"/></g><!--reverse link Question to ShortAnswer--><g id="link_Question_ShortAnswer"><path codeLine="109" d="M824.732,321.2469 C839.808,350.2169 858.144,385.4529 869.939,408.1199 " fill="none" id="Question-backto-ShortAnswer" style="stroke:#181818;stroke-width:1.0;"/><polygon fill="none" points="818.421,324.2819,815.398,303.3089,830.84,317.8189,818.421,324.2819" style="stroke:#181818;stroke-width:1.0;"/></g><!--reverse link Question to Numerical--><g id="link_Question_Numerical"><path codeLine="110" d="M868.347,302.7709 C898.169,317.5889 932.619,336.7929 961,358.2969 C980.173,372.8249 998.87,392.7099 1012.11,408.0579 " fill="none" id="Question-backto-Numerical" style="stroke:#181818;stroke-width:1.0;"/><polygon fill="none" points="864.965,308.9109,850.001,293.9079,871.055,296.3049,864.965,308.9109" style="stroke:#181818;stroke-width:1.0;"/></g><!--reverse link Question to SelectMissingWords--><g id="link_Question_SelectMissingWords"><path codeLine="111" d="M869.675,285.2369 C932.218,298.7139 1024.94,322.6239 1100,358.2969 C1128.07,371.6399 1156.84,392.2209 1177.15,408.1329 " fill="none" id="Question-backto-SelectMissingWords" style="stroke:#181818;stroke-width:1.0;"/><polygon fill="none" points="868.237,292.0879,850.091,281.1449,871.1,278.3829,868.237,292.0879" style="stroke:#181818;stroke-width:1.0;"/></g><!--reverse link Question to TrueFalse--><g id="link_Question_TrueFalse"><path codeLine="112" d="M870.56,278.2069 C992.64,290.0749 1235.2,317.9889 1310,358.2969 C1331.8,370.0469 1350.47,391.4479 1362.69,408.0509 " fill="none" id="Question-backto-TrueFalse" style="stroke:#181818;stroke-width:1.0;"/><polygon fill="none" points="869.534,285.1409,850.288,276.2759,870.861,271.2039,869.534,285.1409" style="stroke:#181818;stroke-width:1.0;"/></g><!--link Course to Enrollment--><g id="link_Course_Enrollment"><path codeLine="115" d="M302.513,111.2699 C453.726,115.3099 999.24,133.5609 1444,195.2969 C1550.03,210.0149 1671.66,237.4269 1742.93,254.5809 " fill="none" id="Course-to-Enrollment" style="stroke:#181818;stroke-width:1.0;"/><polygon fill="#181818" points="1747.97,255.7979,1740.1579,249.8003,1743.1092,254.6263,1738.2833,257.5776,1747.97,255.7979" style="stroke:#181818;stroke-width:1.0;"/><polygon fill="#000000" points="1390.9754,179.3583,1382.2658,175.5383,1381.6838,181.3873,1390.9754,179.3583" style="stroke:#000000;stroke-width:1.0;"/><text fill="#000000" font-family="sans-serif" font-size="13" lengthAdjust="spacing" textLength="23" x="1395" y="183.3638">has</text><text fill="#000000" font-family="sans-serif" font-size="13" lengthAdjust="spacing" textLength="8" x="310.4419" y="107.3432">1</text><text fill="#000000" font-family="sans-serif" font-size="13" lengthAdjust="spacing" textLength="23" x="1717.1618" y="250.2575">0..*</text></g><!--link Course to Exam--><g id="link_Course_Exam"><path codeLine="116" d="M302.806,109.9589 C527.274,108.4649 1613.21,106.0309 1934,195.2969 C1968.16,204.8029 2003.33,223.7569 2029.75,240.1679 " fill="none" id="Course-to-Exam" style="stroke:#181818;stroke-width:1.0;"/><polygon fill="#181818" points="2034.24,242.9879,2028.7416,234.8167,2030.0044,240.3308,2024.4903,241.5936,2034.24,242.9879" style="stroke:#181818;stroke-width:1.0;"/><polygon fill="#000000" points="1896.9858,179.2392,1888.1873,175.6285,1887.7454,181.4898,1896.9858,179.2392" style="stroke:#000000;stroke-width:1.0;"/><text fill="#000000" font-family="sans-serif" font-size="13" lengthAdjust="spacing" textLength="23" x="1901" y="183.3638">has</text><text fill="#000000" font-family="sans-serif" font-size="13" lengthAdjust="spacing" textLength="8" x="310.507" y="105.8418">1</text><text fill="#000000" font-family="sans-serif" font-size="13" lengthAdjust="spacing" textLength="23" x="2003.5439" y="234.6403">0..*</text></g><!--link Course to Question--><g id="link_Course_Question"><path codeLine="117" d="M302.576,114.3409 C402.192,124.7919 656.058,154.7399 730,195.2969 C747.095,204.6739 762.298,219.8539 774.053,234.0729 " fill="none" id="Course-to-Question" style="stroke:#181818;stroke-width:1.0;"/><polygon fill="#181818" points="777.276,238.0529,774.722,228.5409,774.1299,234.1667,768.5041,233.5746,777.276,238.0529" style="stroke:#181818;stroke-width:1.0;"/><polygon fill="#000000" points="720.8462,180.094,712.8027,175.0191,711.356,180.7161,720.8462,180.094" style="stroke:#000000;stroke-width:1.0;"/><text fill="#000000" font-family="sans-serif" font-size="13" lengthAdjust="spacing" textLength="23" x="725" y="183.3638">has</text><text fill="#000000" font-family="sans-serif" font-size="13" lengthAdjust="spacing" textLength="8" x="310.5161" y="128.6331">1</text><text fill="#000000" font-family="sans-serif" font-size="13" lengthAdjust="spacing" textLength="23" x="747.735" y="227.2529">0..*</text></g><!--link Enrollment to Student--><g id="link_Enrollment_Student"><path codeLine="119" d="M1771.65,301.7979 C1742.31,329.0019 1699.11,369.0659 1668.54,397.4149 " fill="none" id="Enrollment-to-Student" style="stroke:#181818;stroke-width:1.0;"/><polygon fill="#181818" points="1664.5,401.1599,1673.8254,397.9919,1668.173,397.7674,1668.3975,392.115,1664.5,401.1599" style="stroke:#181818;stroke-width:1.0;"/><polygon fill="#000000" points="1735.3338,345.2631,1743.9644,341.2677,1739.9677,336.9578,1735.3338,345.2631" style="stroke:#000000;stroke-width:1.0;"/><text fill="#000000" font-family="sans-serif" font-size="13" lengthAdjust="spacing" textLength="23" x="1748" y="346.3638">has</text><text fill="#000000" font-family="sans-serif" font-size="13" lengthAdjust="spacing" textLength="23" x="1739.0578" y="322.2758">1..*</text><text fill="#000000" font-family="sans-serif" font-size="13" lengthAdjust="spacing" textLength="8" x="1662.3781" y="390.2474">1</text></g><!--link Exam to ExamSection--><g id="link_Exam_ExamSection"><path codeLine="121" d="M2068.49,301.7979 C2064.11,330.8519 2057.54,374.5729 2053.25,403.0269 " fill="none" id="Exam-to-ExamSection" style="stroke:#181818;stroke-width:1.0;"/><polygon fill="#181818" points="2052.48,408.1549,2057.7755,399.8508,2053.2245,403.2106,2049.8647,398.6596,2052.48,408.1549" style="stroke:#181818;stroke-width:1.0;"/><polygon fill="#000000" points="2068.2556,346.8076,2072.5084,338.3008,2066.696,337.4257,2068.2556,346.8076" style="stroke:#000000;stroke-width:1.0;"/><text fill="#000000" font-family="sans-serif" font-size="13" lengthAdjust="spacing" textLength="23" x="2078" y="346.3638">has</text><text fill="#000000" font-family="sans-serif" font-size="13" lengthAdjust="spacing" textLength="8" x="2058.6284" y="322.2758">1</text><text fill="#000000" font-family="sans-serif" font-size="13" lengthAdjust="spacing" textLength="23" x="2027.4249" y="397.0965">1..*</text></g><!--link Question to Answer--><g id="link_Question_Answer"><path codeLine="123" d="M747.854,296.5589 C741.905,299.0159 735.867,301.3249 730,303.2969 C627.913,337.6109 588.37,306.3969 494,358.2969 C480.029,365.9799 466.763,376.8919 455.341,387.9439 " fill="none" id="Question-to-Answer" style="stroke:#181818;stroke-width:1.0;"/><polygon fill="#181818" points="451.539,391.6929,460.7562,388.2224,455.0994,388.1824,455.1395,382.5257,451.539,391.6929" style="stroke:#181818;stroke-width:1.0;"/><polygon fill="#000000" points="550.2275,343.3543,559.7374,343.4623,557.9847,337.8518,550.2275,343.3543" style="stroke:#000000;stroke-width:1.0;"/><text fill="#000000" font-family="sans-serif" font-size="13" lengthAdjust="spacing" textLength="23" x="564" y="346.3638">has</text><text fill="#000000" font-family="sans-serif" font-size="13" lengthAdjust="spacing" textLength="8" x="732.0991" y="296.234">1</text><text fill="#000000" font-family="sans-serif" font-size="13" lengthAdjust="spacing" textLength="23" x="432.1892" y="380.8152">1..*</text></g><!--SRC=[lLNBRjim4BppAmZraAIe0YV8eIWC0waTjpqaG6itFTFInc8ZYG99vT77r_JGKx_2FzQLH5AqRDa9K5GdaJFBNGw7IoqAgWLT2Ar5HcCk8T9Sv8HehbEW4v4ndjDnofG2HGyduoCQqiypUZeOd16Iy1Xe1ZeHiIBgbkS5aooZKKK_rrhoHQdXGoJo6Vy6T438mKoNCUIQ52owPKkWmN38bai9IwPXDA863kXtGl73NwuVxImT3fi990w7KWWz6jMqEX-zX2XXkLXALYGykYgp1KZa7Lw_eY-cqzTlpmP7z8wb9L2n-8hRnE2VMD5Ob591Nq4DsgcdcTnJJaCQYnZs5D4DcMccI_M4e5neC2TNZwjlmXaAa36AQK5f5Wlbi9YhGkIhFtUGqWXFMpWa5ndkFAhJXwhE7xGWBYQYCiFDijNlrIz1O-P0jCAxmU3Kg1FNDTMoNkHIf6csuwnRHaVU5jWZSKlyVvhLMZau05V2Fz9jAcJ6DB-3YmUMzKg7M5SqdDecbs7XqXtohBdfVeob8ja8ZBnvtGXsAzko9rZWd6Tx0amcKK3EywMDCIShb3zNQV8UM0oIcEARaLUtpTy0yyS2hgfJVah9RSWK85wWsiy8cu2A92-CYhkYiE-Pljh4cz5p5lXOeZMh5NeiON5hYuFpNDsZQDwfDpE-S8PRwovarVkzgEgxCQhu7cfBgKPieRHaaNO5uFfsRZs3XWTjrccli8sQOVvzH-RlvPBfA46VhDd0nyjKyoA5SI9u17siMIAatfJ5f-0x0f97BErT0r8ixvAhohPVX8nL7tCkIvYoLAsNKndysjke8lQv2sDnduUZhGyR8UOHigJskTcED1sI4A-vMaAtZIAfQYOEjarWSzhTqZN4N5VYTncBRJgV47EXryFjDUv7xOtTpbZBuBmPfd2Zmz6wxGXnRWhB8lpHmgHZeoxi-wUBjSRPYDfqJ9VIMgMBa8DFaBBgLzc33au26kAcWi7nySl0VpxVq8GfEkeZLeUsc-A4ipJVFy59pQdf66PjsrAhzTs29owdzOGZkYmTib7MyFu2]--></g></svg>