<?xml version="1.0" encoding="us-ascii" standalone="no"?><svg xmlns="http://www.w3.org/2000/svg" xmlns:xlink="http://www.w3.org/1999/xlink" contentStyleType="text/css" height="1130px" preserveAspectRatio="none" style="width:2669px;height:1130px;background:#FFFFFF;" version="1.1" viewBox="0 0 2669 1130" width="2669px" zoomAndPan="magnify"><defs/><g><text fill="#000000" font-family="sans-serif" font-size="14" font-weight="bold" lengthAdjust="spacing" textLength="280" x="1196" y="27.9951">Sequence Diagram (SSD) - US 2004</text><rect fill="#FFFFFF" height="886.5859" style="stroke:#181818;stroke-width:1.0;" width="10" x="32" y="130.8906"/><rect fill="#FFFFFF" height="865.4531" style="stroke:#181818;stroke-width:1.0;" width="10" x="599" y="152.0234"/><rect fill="#FFFFFF" height="29.1328" style="stroke:#181818;stroke-width:1.0;" width="10" x="1099" y="239.4219"/><rect fill="#FFFFFF" height="29.1328" style="stroke:#181818;stroke-width:1.0;" width="10" x="1099" y="398.0859"/><rect fill="#FFFFFF" height="123.3984" style="stroke:#181818;stroke-width:1.0;" width="10" x="1099" y="657.1484"/><rect fill="#FFFFFF" height="29.1328" style="stroke:#181818;stroke-width:1.0;" width="10" x="1099" y="917.0781"/><rect fill="#FFFFFF" height="94.2656" style="stroke:#181818;stroke-width:1.0;" width="10" x="1455" y="686.2813"/><rect fill="#FFFFFF" height="28" style="stroke:#181818;stroke-width:1.0;" width="10" x="1460" y="752.5469"/><line style="stroke:#181818;stroke-width:0.5;stroke-dasharray:5.0,5.0;" x1="37" x2="37" y1="120.8906" y2="1035.4766"/><line style="stroke:#181818;stroke-width:0.5;stroke-dasharray:5.0,5.0;" x1="604" x2="604" y1="120.8906" y2="1035.4766"/><line style="stroke:#181818;stroke-width:0.5;stroke-dasharray:5.0,5.0;" x1="1103.5" x2="1103.5" y1="120.8906" y2="1035.4766"/><line style="stroke:#181818;stroke-width:0.5;stroke-dasharray:5.0,5.0;" x1="1459.5" x2="1459.5" y1="120.8906" y2="1035.4766"/><line style="stroke:#181818;stroke-width:0.5;stroke-dasharray:5.0,5.0;" x1="1734" x2="1734" y1="120.8906" y2="1035.4766"/><line style="stroke:#181818;stroke-width:0.5;stroke-dasharray:5.0,5.0;" x1="1895" x2="1895" y1="120.8906" y2="1035.4766"/><line style="stroke:#181818;stroke-width:0.5;stroke-dasharray:5.0,5.0;" x1="2037" x2="2037" y1="120.8906" y2="1035.4766"/><line style="stroke:#181818;stroke-width:0.5;stroke-dasharray:5.0,5.0;" x1="2169" x2="2169" y1="120.8906" y2="1035.4766"/><line style="stroke:#181818;stroke-width:0.5;stroke-dasharray:5.0,5.0;" x1="2308" x2="2308" y1="120.8906" y2="1035.4766"/><line style="stroke:#181818;stroke-width:0.5;stroke-dasharray:5.0,5.0;" x1="2459" x2="2459" y1="120.8906" y2="1035.4766"/><line style="stroke:#181818;stroke-width:0.5;stroke-dasharray:5.0,5.0;" x1="2606" x2="2606" y1="120.8906" y2="1035.4766"/><text fill="#000000" font-family="sans-serif" font-size="14" lengthAdjust="spacing" textLength="58" x="5" y="117.5889">Student</text><ellipse cx="37" cy="53.0938" fill="#E3E3E3" rx="8" ry="8" style="stroke:#181818;stroke-width:0.5;"/><path d="M37,61.0938 L37,88.0938 M24,69.0938 L50,69.0938 M37,88.0938 L24,103.0938 M37,88.0938 L50,103.0938 " fill="none" style="stroke:#181818;stroke-width:0.5;"/><text fill="#000000" font-family="sans-serif" font-size="14" lengthAdjust="spacing" textLength="58" x="5" y="1047.4717">Student</text><ellipse cx="37" cy="1059.2734" fill="#E3E3E3" rx="8" ry="8" style="stroke:#181818;stroke-width:0.5;"/><path d="M37,1067.2734 L37,1094.2734 M24,1075.2734 L50,1075.2734 M37,1094.2734 L24,1109.2734 M37,1094.2734 L50,1109.2734 " fill="none" style="stroke:#181818;stroke-width:0.5;"/><rect fill="#E3E3E3" height="46.5938" rx="2.5" ry="2.5" style="stroke:#181818;stroke-width:0.5;" width="122" x="543" y="73.2969"/><text fill="#000000" font-family="sans-serif" font-size="14" font-style="italic" lengthAdjust="spacing" textLength="108" x="550" y="93.292">&#171;presentation&#187;</text><text fill="#000000" font-family="sans-serif" font-size="14" lengthAdjust="spacing" textLength="87" x="560.5" y="109.5889">TakeExamUI</text><rect fill="#E3E3E3" height="46.5938" rx="2.5" ry="2.5" style="stroke:#181818;stroke-width:0.5;" width="122" x="543" y="1034.4766"/><text fill="#000000" font-family="sans-serif" font-size="14" font-style="italic" lengthAdjust="spacing" textLength="108" x="550" y="1054.4717">&#171;presentation&#187;</text><text fill="#000000" font-family="sans-serif" font-size="14" lengthAdjust="spacing" textLength="87" x="560.5" y="1070.7686">TakeExamUI</text><text fill="#000000" font-family="sans-serif" font-size="14" font-style="italic" lengthAdjust="spacing" textLength="97" x="1052.5" y="101.292">&#171;application&#187;</text><text fill="#000000" font-family="sans-serif" font-size="14" lengthAdjust="spacing" textLength="147" x="1027.5" y="117.5889">TakeExamController</text><ellipse cx="1104" cy="72.2969" fill="#E3E3E3" rx="12" ry="12" style="stroke:#181818;stroke-width:0.5;"/><polygon fill="#181818" points="1100,60.2969,1106,55.2969,1104,60.2969,1106,65.2969,1100,60.2969" style="stroke:#181818;stroke-width:1.0;"/><text fill="#000000" font-family="sans-serif" font-size="14" font-style="italic" lengthAdjust="spacing" textLength="97" x="1052.5" y="1047.4717">&#171;application&#187;</text><text fill="#000000" font-family="sans-serif" font-size="14" lengthAdjust="spacing" textLength="147" x="1027.5" y="1063.7686">TakeExamController</text><ellipse cx="1104" cy="1083.0703" fill="#E3E3E3" rx="12" ry="12" style="stroke:#181818;stroke-width:0.5;"/><polygon fill="#181818" points="1100,1071.0703,1106,1066.0703,1104,1071.0703,1106,1076.0703,1100,1071.0703" style="stroke:#181818;stroke-width:1.0;"/><rect fill="#E3E3E3" height="46.5938" rx="2.5" ry="2.5" style="stroke:#181818;stroke-width:0.5;" width="111" x="1404.5" y="73.2969"/><text fill="#000000" font-family="sans-serif" font-size="14" font-style="italic" lengthAdjust="spacing" textLength="97" x="1411.5" y="93.292">&#171;application&#187;</text><text fill="#000000" font-family="sans-serif" font-size="14" lengthAdjust="spacing" textLength="92" x="1414" y="109.5889">ExamService</text><rect fill="#E3E3E3" height="46.5938" rx="2.5" ry="2.5" style="stroke:#181818;stroke-width:0.5;" width="111" x="1404.5" y="1034.4766"/><text fill="#000000" font-family="sans-serif" font-size="14" font-style="italic" lengthAdjust="spacing" textLength="97" x="1411.5" y="1054.4717">&#171;application&#187;</text><text fill="#000000" font-family="sans-serif" font-size="14" lengthAdjust="spacing" textLength="92" x="1414" y="1070.7686">ExamService</text><rect fill="#E3E3E3" height="46.5938" rx="2.5" ry="2.5" style="stroke:#181818;stroke-width:0.5;" width="160" x="1654" y="73.2969"/><text fill="#000000" font-family="sans-serif" font-size="14" font-style="italic" lengthAdjust="spacing" textLength="72" x="1698" y="93.292">&#171;domain&#187;</text><text fill="#000000" font-family="sans-serif" font-size="14" lengthAdjust="spacing" textLength="146" x="1661" y="109.5889">theStudent:Student</text><rect fill="#E3E3E3" height="46.5938" rx="2.5" ry="2.5" style="stroke:#181818;stroke-width:0.5;" width="160" x="1654" y="1034.4766"/><text fill="#000000" font-family="sans-serif" font-size="14" font-style="italic" lengthAdjust="spacing" textLength="72" x="1698" y="1054.4717">&#171;domain&#187;</text><text fill="#000000" font-family="sans-serif" font-size="14" lengthAdjust="spacing" textLength="146" x="1661" y="1070.7686">theStudent:Student</text><rect fill="#E3E3E3" height="46.5938" rx="2.5" ry="2.5" style="stroke:#181818;stroke-width:0.5;" width="142" x="1824" y="73.2969"/><text fill="#000000" font-family="sans-serif" font-size="14" font-style="italic" lengthAdjust="spacing" textLength="72" x="1859" y="93.292">&#171;domain&#187;</text><text fill="#000000" font-family="sans-serif" font-size="14" lengthAdjust="spacing" textLength="128" x="1831" y="109.5889">theCourse:Course</text><rect fill="#E3E3E3" height="46.5938" rx="2.5" ry="2.5" style="stroke:#181818;stroke-width:0.5;" width="142" x="1824" y="1034.4766"/><text fill="#000000" font-family="sans-serif" font-size="14" font-style="italic" lengthAdjust="spacing" textLength="72" x="1859" y="1054.4717">&#171;domain&#187;</text><text fill="#000000" font-family="sans-serif" font-size="14" lengthAdjust="spacing" textLength="128" x="1831" y="1070.7686">theCourse:Course</text><rect fill="#E3E3E3" height="46.5938" rx="2.5" ry="2.5" style="stroke:#181818;stroke-width:0.5;" width="122" x="1976" y="73.2969"/><text fill="#000000" font-family="sans-serif" font-size="14" font-style="italic" lengthAdjust="spacing" textLength="72" x="2001" y="93.292">&#171;domain&#187;</text><text fill="#000000" font-family="sans-serif" font-size="14" lengthAdjust="spacing" textLength="108" x="1983" y="109.5889">theExam:Exam</text><rect fill="#E3E3E3" height="46.5938" rx="2.5" ry="2.5" style="stroke:#181818;stroke-width:0.5;" width="122" x="1976" y="1034.4766"/><text fill="#000000" font-family="sans-serif" font-size="14" font-style="italic" lengthAdjust="spacing" textLength="72" x="2001" y="1054.4717">&#171;domain&#187;</text><text fill="#000000" font-family="sans-serif" font-size="14" lengthAdjust="spacing" textLength="108" x="1983" y="1070.7686">theExam:Exam</text><rect fill="#E3E3E3" height="46.5938" rx="2.5" ry="2.5" style="stroke:#181818;stroke-width:0.5;" width="123" x="2108" y="73.2969"/><text fill="#000000" font-family="sans-serif" font-size="14" font-style="italic" lengthAdjust="spacing" textLength="55" x="2142" y="93.292">&#171;lprog&#187;</text><text fill="#000000" font-family="sans-serif" font-size="14" lengthAdjust="spacing" textLength="109" x="2115" y="109.5889">ResolutionMain</text><rect fill="#E3E3E3" height="46.5938" rx="2.5" ry="2.5" style="stroke:#181818;stroke-width:0.5;" width="123" x="2108" y="1034.4766"/><text fill="#000000" font-family="sans-serif" font-size="14" font-style="italic" lengthAdjust="spacing" textLength="55" x="2142" y="1054.4717">&#171;lprog&#187;</text><text fill="#000000" font-family="sans-serif" font-size="14" lengthAdjust="spacing" textLength="109" x="2115" y="1070.7686">ResolutionMain</text><text fill="#000000" font-family="sans-serif" font-size="14" font-style="italic" lengthAdjust="spacing" textLength="90" x="2260" y="101.292">&#171;repository&#187;</text><text fill="#000000" font-family="sans-serif" font-size="14" lengthAdjust="spacing" textLength="128" x="2241" y="117.5889">CourseRepository</text><path d="M2290,52.2969 C2290,42.2969 2308,42.2969 2308,42.2969 C2308,42.2969 2326,42.2969 2326,52.2969 L2326,78.2969 C2326,88.2969 2308,88.2969 2308,88.2969 C2308,88.2969 2290,88.2969 2290,78.2969 L2290,52.2969 " fill="#E3E3E3" style="stroke:#181818;stroke-width:1.5;"/><path d="M2290,52.2969 C2290,62.2969 2308,62.2969 2308,62.2969 C2308,62.2969 2326,62.2969 2326,52.2969 " fill="none" style="stroke:#181818;stroke-width:1.5;"/><text fill="#000000" font-family="sans-serif" font-size="14" font-style="italic" lengthAdjust="spacing" textLength="90" x="2260" y="1047.4717">&#171;repository&#187;</text><text fill="#000000" font-family="sans-serif" font-size="14" lengthAdjust="spacing" textLength="128" x="2241" y="1063.7686">CourseRepository</text><path d="M2290,1077.0703 C2290,1067.0703 2308,1067.0703 2308,1067.0703 C2308,1067.0703 2326,1067.0703 2326,1077.0703 L2326,1103.0703 C2326,1113.0703 2308,1113.0703 2308,1113.0703 C2308,1113.0703 2290,1113.0703 2290,1103.0703 L2290,1077.0703 " fill="#E3E3E3" style="stroke:#181818;stroke-width:1.5;"/><path d="M2290,1077.0703 C2290,1087.0703 2308,1087.0703 2308,1087.0703 C2308,1087.0703 2326,1087.0703 2326,1077.0703 " fill="none" style="stroke:#181818;stroke-width:1.5;"/><text fill="#000000" font-family="sans-serif" font-size="14" font-style="italic" lengthAdjust="spacing" textLength="90" x="2411.5" y="101.292">&#171;repository&#187;</text><text fill="#000000" font-family="sans-serif" font-size="14" lengthAdjust="spacing" textLength="143" x="2385" y="117.5889">QuestionRepository</text><path d="M2441.5,52.2969 C2441.5,42.2969 2459.5,42.2969 2459.5,42.2969 C2459.5,42.2969 2477.5,42.2969 2477.5,52.2969 L2477.5,78.2969 C2477.5,88.2969 2459.5,88.2969 2459.5,88.2969 C2459.5,88.2969 2441.5,88.2969 2441.5,78.2969 L2441.5,52.2969 " fill="#E3E3E3" style="stroke:#181818;stroke-width:1.5;"/><path d="M2441.5,52.2969 C2441.5,62.2969 2459.5,62.2969 2459.5,62.2969 C2459.5,62.2969 2477.5,62.2969 2477.5,52.2969 " fill="none" style="stroke:#181818;stroke-width:1.5;"/><text fill="#000000" font-family="sans-serif" font-size="14" font-style="italic" lengthAdjust="spacing" textLength="90" x="2411.5" y="1047.4717">&#171;repository&#187;</text><text fill="#000000" font-family="sans-serif" font-size="14" lengthAdjust="spacing" textLength="143" x="2385" y="1063.7686">QuestionRepository</text><path d="M2441.5,1077.0703 C2441.5,1067.0703 2459.5,1067.0703 2459.5,1067.0703 C2459.5,1067.0703 2477.5,1067.0703 2477.5,1077.0703 L2477.5,1103.0703 C2477.5,1113.0703 2459.5,1113.0703 2459.5,1113.0703 C2459.5,1113.0703 2441.5,1113.0703 2441.5,1103.0703 L2441.5,1077.0703 " fill="#E3E3E3" style="stroke:#181818;stroke-width:1.5;"/><path d="M2441.5,1077.0703 C2441.5,1087.0703 2459.5,1087.0703 2459.5,1087.0703 C2459.5,1087.0703 2477.5,1087.0703 2477.5,1077.0703 " fill="none" style="stroke:#181818;stroke-width:1.5;"/><text fill="#000000" font-family="sans-serif" font-size="14" font-style="italic" lengthAdjust="spacing" textLength="90" x="2558" y="101.292">&#171;repository&#187;</text><text fill="#000000" font-family="sans-serif" font-size="14" lengthAdjust="spacing" textLength="118" x="2544" y="117.5889">ExamRepository</text><path d="M2588,52.2969 C2588,42.2969 2606,42.2969 2606,42.2969 C2606,42.2969 2624,42.2969 2624,52.2969 L2624,78.2969 C2624,88.2969 2606,88.2969 2606,88.2969 C2606,88.2969 2588,88.2969 2588,78.2969 L2588,52.2969 " fill="#E3E3E3" style="stroke:#181818;stroke-width:1.5;"/><path d="M2588,52.2969 C2588,62.2969 2606,62.2969 2606,62.2969 C2606,62.2969 2624,62.2969 2624,52.2969 " fill="none" style="stroke:#181818;stroke-width:1.5;"/><text fill="#000000" font-family="sans-serif" font-size="14" font-style="italic" lengthAdjust="spacing" textLength="90" x="2558" y="1047.4717">&#171;repository&#187;</text><text fill="#000000" font-family="sans-serif" font-size="14" lengthAdjust="spacing" textLength="118" x="2544" y="1063.7686">ExamRepository</text><path d="M2588,1077.0703 C2588,1067.0703 2606,1067.0703 2606,1067.0703 C2606,1067.0703 2624,1067.0703 2624,1077.0703 L2624,1103.0703 C2624,1113.0703 2606,1113.0703 2606,1113.0703 C2606,1113.0703 2588,1113.0703 2588,1103.0703 L2588,1077.0703 " fill="#E3E3E3" style="stroke:#181818;stroke-width:1.5;"/><path d="M2588,1077.0703 C2588,1087.0703 2606,1087.0703 2606,1087.0703 C2606,1087.0703 2624,1087.0703 2624,1077.0703 " fill="none" style="stroke:#181818;stroke-width:1.5;"/><rect fill="#FFFFFF" height="886.5859" style="stroke:#181818;stroke-width:1.0;" width="10" x="32" y="130.8906"/><rect fill="#FFFFFF" height="865.4531" style="stroke:#181818;stroke-width:1.0;" width="10" x="599" y="152.0234"/><rect fill="#FFFFFF" height="29.1328" style="stroke:#181818;stroke-width:1.0;" width="10" x="1099" y="239.4219"/><rect fill="#FFFFFF" height="29.1328" style="stroke:#181818;stroke-width:1.0;" width="10" x="1099" y="398.0859"/><rect fill="#FFFFFF" height="123.3984" style="stroke:#181818;stroke-width:1.0;" width="10" x="1099" y="657.1484"/><rect fill="#FFFFFF" height="29.1328" style="stroke:#181818;stroke-width:1.0;" width="10" x="1099" y="917.0781"/><rect fill="#FFFFFF" height="94.2656" style="stroke:#181818;stroke-width:1.0;" width="10" x="1455" y="686.2813"/><rect fill="#FFFFFF" height="28" style="stroke:#181818;stroke-width:1.0;" width="10" x="1460" y="752.5469"/><polygon fill="#181818" points="587,148.0234,597,152.0234,587,156.0234,591,152.0234" style="stroke:#181818;stroke-width:1.0;"/><line style="stroke:#181818;stroke-width:1.0;" x1="42" x2="593" y1="152.0234" y2="152.0234"/><text fill="#000000" font-family="sans-serif" font-size="13" font-weight="bold" lengthAdjust="spacing" textLength="9" x="49" y="146.9575">1</text><text fill="#000000" font-family="sans-serif" font-size="13" lengthAdjust="spacing" textLength="220" x="62" y="146.9575">Pede para responder a um exame</text><polygon fill="#181818" points="1092,177.1563,1102,181.1563,1092,185.1563,1096,181.1563" style="stroke:#181818;stroke-width:1.0;"/><line style="stroke:#181818;stroke-width:1.0;" x1="609" x2="1098" y1="181.1563" y2="181.1563"/><text fill="#000000" font-family="sans-serif" font-size="13" font-weight="bold" lengthAdjust="spacing" textLength="9" x="616" y="176.0903">2</text><text fill="#000000" font-family="sans-serif" font-size="13" lengthAdjust="spacing" textLength="41" x="629" y="176.0903">create</text><polygon fill="#181818" points="1448,206.2891,1458,210.2891,1448,214.2891,1452,210.2891" style="stroke:#181818;stroke-width:1.0;"/><line style="stroke:#181818;stroke-width:1.0;" x1="1104" x2="1454" y1="210.2891" y2="210.2891"/><text fill="#000000" font-family="sans-serif" font-size="13" font-weight="bold" lengthAdjust="spacing" textLength="8" x="1111" y="205.2231">3</text><text fill="#000000" font-family="sans-serif" font-size="13" lengthAdjust="spacing" textLength="41" x="1123" y="205.2231">create</text><polygon fill="#181818" points="1087,235.4219,1097,239.4219,1087,243.4219,1091,239.4219" style="stroke:#181818;stroke-width:1.0;"/><line style="stroke:#181818;stroke-width:1.0;" x1="609" x2="1093" y1="239.4219" y2="239.4219"/><text fill="#000000" font-family="sans-serif" font-size="13" font-weight="bold" lengthAdjust="spacing" textLength="9" x="616" y="234.356">4</text><text fill="#000000" font-family="sans-serif" font-size="13" lengthAdjust="spacing" textLength="458" x="629" y="234.356">allStudentCourses = findAllStudentApprovedCoursesInProgressExams()</text><polygon fill="#181818" points="2296,264.5547,2306,268.5547,2296,272.5547,2300,268.5547" style="stroke:#181818;stroke-width:1.0;"/><line style="stroke:#181818;stroke-width:1.0;" x1="1104" x2="2302" y1="268.5547" y2="268.5547"/><text fill="#000000" font-family="sans-serif" font-size="13" font-weight="bold" lengthAdjust="spacing" textLength="9" x="1111" y="263.4888">5</text><text fill="#000000" font-family="sans-serif" font-size="13" lengthAdjust="spacing" textLength="395" x="1124" y="263.4888">findAllStudentApprovedCoursesInProgressExams(theStudent)</text><line style="stroke:#181818;stroke-width:1.0;" x1="609" x2="651" y1="297.6875" y2="297.6875"/><line style="stroke:#181818;stroke-width:1.0;" x1="651" x2="651" y1="297.6875" y2="310.6875"/><line style="stroke:#181818;stroke-width:1.0;" x1="610" x2="651" y1="310.6875" y2="310.6875"/><polygon fill="#181818" points="620,306.6875,610,310.6875,620,314.6875,616,310.6875" style="stroke:#181818;stroke-width:1.0;"/><text fill="#000000" font-family="sans-serif" font-size="13" font-weight="bold" lengthAdjust="spacing" textLength="9" x="616" y="292.6216">6</text><text fill="#000000" font-family="sans-serif" font-size="13" lengthAdjust="spacing" textLength="390" x="629" y="292.6216">Mostra a lista de disciplinas em que o estudante est&#225; inscrito</text><polygon fill="#181818" points="53,335.8203,43,339.8203,53,343.8203,49,339.8203" style="stroke:#181818;stroke-width:1.0;"/><line style="stroke:#181818;stroke-width:1.0;stroke-dasharray:2.0,2.0;" x1="47" x2="598" y1="339.8203" y2="339.8203"/><text fill="#000000" font-family="sans-serif" font-size="13" font-weight="bold" lengthAdjust="spacing" textLength="9" x="59" y="334.7544">7</text><text fill="#000000" font-family="sans-serif" font-size="13" lengthAdjust="spacing" textLength="421" x="72" y="334.7544">Pede para escolher a disciplina da qual pretende fazer um exame</text><polygon fill="#181818" points="587,364.9531,597,368.9531,587,372.9531,591,368.9531" style="stroke:#181818;stroke-width:1.0;"/><line style="stroke:#181818;stroke-width:1.0;" x1="42" x2="593" y1="368.9531" y2="368.9531"/><text fill="#000000" font-family="sans-serif" font-size="13" font-weight="bold" lengthAdjust="spacing" textLength="9" x="49" y="363.8872">8</text><text fill="#000000" font-family="sans-serif" font-size="13" lengthAdjust="spacing" textLength="123" x="62" y="363.8872">Escolhe a disciplina</text><polygon fill="#181818" points="1087,394.0859,1097,398.0859,1087,402.0859,1091,398.0859" style="stroke:#181818;stroke-width:1.0;"/><line style="stroke:#181818;stroke-width:1.0;" x1="609" x2="1093" y1="398.0859" y2="398.0859"/><text fill="#000000" font-family="sans-serif" font-size="13" font-weight="bold" lengthAdjust="spacing" textLength="9" x="616" y="393.02">9</text><text fill="#000000" font-family="sans-serif" font-size="13" lengthAdjust="spacing" textLength="455" x="629" y="393.02">allExamsOfTheCourse = listAllAvailableExamsOfTheCourse(theCourse)</text><polygon fill="#181818" points="2594,423.2188,2604,427.2188,2594,431.2188,2598,427.2188" style="stroke:#181818;stroke-width:1.0;"/><line style="stroke:#181818;stroke-width:1.0;" x1="1104" x2="2600" y1="427.2188" y2="427.2188"/><text fill="#000000" font-family="sans-serif" font-size="13" font-weight="bold" lengthAdjust="spacing" textLength="19" x="1111" y="422.1528">10</text><text fill="#000000" font-family="sans-serif" font-size="13" lengthAdjust="spacing" textLength="290" x="1134" y="422.1528">listAllAvailableExamsOfACourse(courseCode)</text><line style="stroke:#181818;stroke-width:1.0;stroke-dasharray:2.0,2.0;" x1="609" x2="651" y1="456.3516" y2="456.3516"/><line style="stroke:#181818;stroke-width:1.0;stroke-dasharray:2.0,2.0;" x1="651" x2="651" y1="456.3516" y2="469.3516"/><line style="stroke:#181818;stroke-width:1.0;stroke-dasharray:2.0,2.0;" x1="610" x2="651" y1="469.3516" y2="469.3516"/><polygon fill="#181818" points="620,465.3516,610,469.3516,620,473.3516,616,469.3516" style="stroke:#181818;stroke-width:1.0;"/><text fill="#000000" font-family="sans-serif" font-size="13" font-weight="bold" lengthAdjust="spacing" textLength="18" x="616" y="451.2856">11</text><text fill="#000000" font-family="sans-serif" font-size="13" lengthAdjust="spacing" textLength="382" x="638" y="451.2856">Lista todos os exames dispon&#237;veis da disciplina selecionada</text><polygon fill="#181818" points="53,494.4844,43,498.4844,53,502.4844,49,498.4844" style="stroke:#181818;stroke-width:1.0;"/><line style="stroke:#181818;stroke-width:1.0;stroke-dasharray:2.0,2.0;" x1="47" x2="598" y1="498.4844" y2="498.4844"/><text fill="#000000" font-family="sans-serif" font-size="13" font-weight="bold" lengthAdjust="spacing" textLength="18" x="59" y="493.4185">12</text><text fill="#000000" font-family="sans-serif" font-size="13" lengthAdjust="spacing" textLength="336" x="81" y="493.4185">Pede para selecionar o exame que pretende realizar</text><polygon fill="#181818" points="587,523.6172,597,527.6172,587,531.6172,591,527.6172" style="stroke:#181818;stroke-width:1.0;"/><line style="stroke:#181818;stroke-width:1.0;" x1="42" x2="593" y1="527.6172" y2="527.6172"/><text fill="#000000" font-family="sans-serif" font-size="13" font-weight="bold" lengthAdjust="spacing" textLength="17" x="49" y="522.5513">13</text><text fill="#000000" font-family="sans-serif" font-size="13" lengthAdjust="spacing" textLength="251" x="70" y="522.5513">Escolhe o exame que pretende realizar</text><line style="stroke:#181818;stroke-width:1.0;" x1="609" x2="651" y1="556.75" y2="556.75"/><line style="stroke:#181818;stroke-width:1.0;" x1="651" x2="651" y1="556.75" y2="569.75"/><line style="stroke:#181818;stroke-width:1.0;" x1="610" x2="651" y1="569.75" y2="569.75"/><polygon fill="#181818" points="620,565.75,610,569.75,620,573.75,616,569.75" style="stroke:#181818;stroke-width:1.0;"/><text fill="#000000" font-family="sans-serif" font-size="13" font-weight="bold" lengthAdjust="spacing" textLength="18" x="616" y="551.6841">14</text><text fill="#000000" font-family="sans-serif" font-size="13" lengthAdjust="spacing" textLength="127" x="638" y="551.6841">Apresenta o exame</text><polygon fill="#181818" points="53,594.8828,43,598.8828,53,602.8828,49,598.8828" style="stroke:#181818;stroke-width:1.0;"/><line style="stroke:#181818;stroke-width:1.0;stroke-dasharray:2.0,2.0;" x1="47" x2="598" y1="598.8828" y2="598.8828"/><text fill="#000000" font-family="sans-serif" font-size="13" font-weight="bold" lengthAdjust="spacing" textLength="18" x="59" y="593.8169">15</text><text fill="#000000" font-family="sans-serif" font-size="13" lengthAdjust="spacing" textLength="511" x="81" y="593.8169">Pede ao utilizador para inserir o caminho do ficheiro com a resolu&#231;&#227;o do exame</text><polygon fill="#181818" points="587,624.0156,597,628.0156,587,632.0156,591,628.0156" style="stroke:#181818;stroke-width:1.0;"/><line style="stroke:#181818;stroke-width:1.0;" x1="42" x2="593" y1="628.0156" y2="628.0156"/><text fill="#000000" font-family="sans-serif" font-size="13" font-weight="bold" lengthAdjust="spacing" textLength="18" x="49" y="622.9497">16</text><text fill="#000000" font-family="sans-serif" font-size="13" lengthAdjust="spacing" textLength="360" x="71" y="622.9497">Insere o caminho do ficheiro com a resolu&#231;&#227;o do exame</text><polygon fill="#181818" points="1087,653.1484,1097,657.1484,1087,661.1484,1091,657.1484" style="stroke:#181818;stroke-width:1.0;"/><line style="stroke:#181818;stroke-width:1.0;" x1="609" x2="1093" y1="657.1484" y2="657.1484"/><text fill="#000000" font-family="sans-serif" font-size="13" font-weight="bold" lengthAdjust="spacing" textLength="18" x="616" y="652.0825">17</text><text fill="#000000" font-family="sans-serif" font-size="13" lengthAdjust="spacing" textLength="381" x="638" y="652.0825">obtainedGrade = parseExamAnswers(fileToPath, theExam)</text><polygon fill="#181818" points="1443,682.2813,1453,686.2813,1443,690.2813,1447,686.2813" style="stroke:#181818;stroke-width:1.0;"/><line style="stroke:#181818;stroke-width:1.0;" x1="1109" x2="1449" y1="686.2813" y2="686.2813"/><text fill="#000000" font-family="sans-serif" font-size="13" font-weight="bold" lengthAdjust="spacing" textLength="18" x="1116" y="681.2153">18</text><text fill="#000000" font-family="sans-serif" font-size="13" lengthAdjust="spacing" textLength="305" x="1138" y="681.2153">parseAndHandleExamGrade(filePath, theExam)</text><polygon fill="#181818" points="2157.5,711.4141,2167.5,715.4141,2157.5,719.4141,2161.5,715.4141" style="stroke:#181818;stroke-width:1.0;"/><line style="stroke:#181818;stroke-width:1.0;" x1="1465" x2="2163.5" y1="715.4141" y2="715.4141"/><text fill="#000000" font-family="sans-serif" font-size="13" font-weight="bold" lengthAdjust="spacing" textLength="18" x="1472" y="710.3481">19</text><text fill="#000000" font-family="sans-serif" font-size="13" lengthAdjust="spacing" textLength="245" x="1494" y="710.3481">parseWithVisitor(fileToPath, theExam)</text><line style="stroke:#181818;stroke-width:1.0;" x1="1470" x2="1512" y1="744.5469" y2="744.5469"/><line style="stroke:#181818;stroke-width:1.0;" x1="1512" x2="1512" y1="744.5469" y2="757.5469"/><line style="stroke:#181818;stroke-width:1.0;" x1="1471" x2="1512" y1="757.5469" y2="757.5469"/><polygon fill="#181818" points="1481,753.5469,1471,757.5469,1481,761.5469,1477,757.5469" style="stroke:#181818;stroke-width:1.0;"/><text fill="#000000" font-family="sans-serif" font-size="13" font-weight="bold" lengthAdjust="spacing" textLength="19" x="1477" y="739.481">20</text><text fill="#000000" font-family="sans-serif" font-size="13" lengthAdjust="spacing" textLength="227" x="1500" y="739.481">calculateExamMaxGrade(theExam)</text><line style="stroke:#181818;stroke-width:1.0;" x1="609" x2="651" y1="816.6797" y2="816.6797"/><line style="stroke:#181818;stroke-width:1.0;" x1="651" x2="651" y1="816.6797" y2="829.6797"/><line style="stroke:#181818;stroke-width:1.0;" x1="610" x2="651" y1="829.6797" y2="829.6797"/><polygon fill="#181818" points="620,825.6797,610,829.6797,620,833.6797,616,829.6797" style="stroke:#181818;stroke-width:1.0;"/><text fill="#000000" font-family="sans-serif" font-size="13" font-weight="bold" lengthAdjust="spacing" textLength="18" x="616" y="811.6138">21</text><text fill="#000000" font-family="sans-serif" font-size="13" lengthAdjust="spacing" textLength="408" x="638" y="811.6138">Imprime as respostas do estudante que ser&#227;o dadas ao exame</text><polygon fill="#181818" points="53,854.8125,43,858.8125,53,862.8125,49,858.8125" style="stroke:#181818;stroke-width:1.0;"/><line style="stroke:#181818;stroke-width:1.0;stroke-dasharray:2.0,2.0;" x1="47" x2="598" y1="858.8125" y2="858.8125"/><text fill="#000000" font-family="sans-serif" font-size="13" font-weight="bold" lengthAdjust="spacing" textLength="18" x="59" y="853.7466">22</text><text fill="#000000" font-family="sans-serif" font-size="13" lengthAdjust="spacing" textLength="302" x="81" y="853.7466">Pede confirma&#231;&#227;o para a finaliza&#231;&#227;o do exame</text><polygon fill="#181818" points="587,883.9453,597,887.9453,587,891.9453,591,887.9453" style="stroke:#181818;stroke-width:1.0;"/><line style="stroke:#181818;stroke-width:1.0;" x1="42" x2="593" y1="887.9453" y2="887.9453"/><text fill="#000000" font-family="sans-serif" font-size="13" font-weight="bold" lengthAdjust="spacing" textLength="17" x="49" y="882.8794">23</text><text fill="#000000" font-family="sans-serif" font-size="13" lengthAdjust="spacing" textLength="123" x="70" y="882.8794">Confirma opera&#231;&#227;o</text><polygon fill="#181818" points="1087,913.0781,1097,917.0781,1087,921.0781,1091,917.0781" style="stroke:#181818;stroke-width:1.0;"/><line style="stroke:#181818;stroke-width:1.0;" x1="609" x2="1093" y1="917.0781" y2="917.0781"/><text fill="#000000" font-family="sans-serif" font-size="13" font-weight="bold" lengthAdjust="spacing" textLength="18" x="616" y="912.0122">24</text><text fill="#000000" font-family="sans-serif" font-size="13" lengthAdjust="spacing" textLength="303" x="638" y="912.0122">examFeedback = getExamFeedback(theExam)</text><polygon fill="#181818" points="2025,942.2109,2035,946.2109,2025,950.2109,2029,946.2109" style="stroke:#181818;stroke-width:1.0;"/><line style="stroke:#181818;stroke-width:1.0;" x1="1104" x2="2031" y1="946.2109" y2="946.2109"/><text fill="#000000" font-family="sans-serif" font-size="13" font-weight="bold" lengthAdjust="spacing" textLength="18" x="1111" y="941.145">25</text><text fill="#000000" font-family="sans-serif" font-size="13" lengthAdjust="spacing" textLength="69" x="1133" y="941.145">feedback()</text><line style="stroke:#181818;stroke-width:1.0;" x1="609" x2="651" y1="975.3438" y2="975.3438"/><line style="stroke:#181818;stroke-width:1.0;" x1="651" x2="651" y1="975.3438" y2="988.3438"/><line style="stroke:#181818;stroke-width:1.0;" x1="610" x2="651" y1="988.3438" y2="988.3438"/><polygon fill="#181818" points="620,984.3438,610,988.3438,620,992.3438,616,988.3438" style="stroke:#181818;stroke-width:1.0;"/><text fill="#000000" font-family="sans-serif" font-size="13" font-weight="bold" lengthAdjust="spacing" textLength="18" x="616" y="970.2778">26</text><text fill="#000000" font-family="sans-serif" font-size="13" lengthAdjust="spacing" textLength="375" x="638" y="970.2778">Apresenta a nota obtida e o respetivo feedback do exame</text><polygon fill="#181818" points="48,1013.4766,38,1017.4766,48,1021.4766,44,1017.4766" style="stroke:#181818;stroke-width:1.0;"/><line style="stroke:#181818;stroke-width:1.0;stroke-dasharray:2.0,2.0;" x1="42" x2="603" y1="1017.4766" y2="1017.4766"/><text fill="#000000" font-family="sans-serif" font-size="13" font-weight="bold" lengthAdjust="spacing" textLength="18" x="54" y="1012.4106">27</text><text fill="#000000" font-family="sans-serif" font-size="13" lengthAdjust="spacing" textLength="202" x="76" y="1012.4106">Informa o sucesso da opera&#231;&#227;o</text><!--SRC=[fLRDRkCs4BxhAOYSl40NM2nwChm1Z6owDT2WwJhRdiVas2P2aLgIylwyJT53JtsAl5XdA8cMbFWd6nriaPplco7dcw72lROLU2X5wQoJM-zA5D7NM8IyKe6yXmqkupU3mgECO3UcRn2seDmNRJTY3IPWKKGToNI9dskq4iLx3HkscooNxr-9r-BJKhnzy-Rd0kheR5skq1S5oEYyk5Z6Mg6D5mA2QDyBSXArr1NOAExW7g-_GlbfmHQr5hDPvJ6G6KJjxELb8PsDtfbiUTMC3Nf6oFreDeEgCbfsm84VHYxHxpI5Jp3i3O_YBk8MsxYd_RtifmclN0cQeMFabQjzm6dpr-6QqJ4O1plbdmx2xoy2310VCJXJysvlQ9KHVZWpcvdAkmtZ54HO0ONRHFqHAnSqPVPRS_YZkTdCvm6XC_YF6WEp3-6V7yyU8k3z3C4ud1a1MNvw1n6pw0f1JvUorvSijQcuHOM2DSydK3chM5IYBXCx9aWcgdKQyqDOOkX9RogaHpBA5hqrikohBPiUOmDZsb2ROm_YdLXhg-PvVbvHXdQeslM5lQM4qIO2drIOlChiEVwzWxpsED976Pq-p- - -BFOHA7mgXj7sKpfkN8YK2n16XmW454e74gtHbZDUicA44wIQMf6GaTyU_XRQ1kaft04bSNRPxkSPWtHcczAyvnOAY1gCeDOJaLH0VUyxsMGXPEQnWAuRkW7RYSIcW_fzVPSRmRkqNJhY-GwqWPN1iSaaTuqVpUkeMgQ7NCvRXuqEhfp2P-MnEvRVKlwYKou8rzGgQPYEY6hiuRyTwi17taj0G8EIMW4eE2UBsTop79WzIIEdZohCwE_WJoVk19oV9uGwx-we3dyYQ722kYjpAheKqnP8jEWrno-Xr7RhX79KQtABsjESAmMqRVdXtuT_qke9BIwO4PzFU4IkRXNfFa3rmODYeLBa8KbbRiCNz66orWRlt2t4xK_TjVCIYUwRPF8qj-fNiAfHPueXEJpWRk2onpOmuAVlYHoFBh_MzrywRl_KgLwEx_80wwZdWv6reS0OUmDVcyqSv3fh6xrwF6HsmkJyphmeAwzBRByLg8z4UbFzLim5HFfBog8g3gpvSqg37A-rBw4HPIeDu3idLU2vqhzgIOIhq3Uee_Shq_s2g5Rq9Kootc2yxirCNgZaxlkBxiwEyKTkmtsJ0M4TzvfLrDGskSGv2KWqBhjukfu7vxsmQvSEIOHQqfNDcUgVs2Wy-k0fUiEMvty0]--></g></svg>