<?xml version="1.0" encoding="us-ascii" standalone="no"?><svg xmlns="http://www.w3.org/2000/svg" xmlns:xlink="http://www.w3.org/1999/xlink" contentStyleType="text/css" height="656px" preserveAspectRatio="none" style="width:639px;height:656px;background:#FFFFFF;" version="1.1" viewBox="0 0 639 656" width="639px" zoomAndPan="magnify"><defs/><g><text fill="#000000" font-family="sans-serif" font-size="14" font-weight="bold" lengthAdjust="spacing" textLength="345" x="146.25" y="27.9951">System Sequence Diagram (SSD) - US 2004</text><rect fill="#FFFFFF" height="428.9922" style="stroke:#181818;stroke-width:1.0;" width="10" x="32" y="128.5938"/><rect fill="#FFFFFF" height="58.2656" style="stroke:#181818;stroke-width:1.0;" width="10" x="590" y="149.7266"/><rect fill="#FFFFFF" height="58.2656" style="stroke:#181818;stroke-width:1.0;" width="10" x="590" y="237.125"/><rect fill="#FFFFFF" height="58.2656" style="stroke:#181818;stroke-width:1.0;" width="10" x="590" y="324.5234"/><rect fill="#FFFFFF" height="58.2656" style="stroke:#181818;stroke-width:1.0;" width="10" x="590" y="411.9219"/><rect fill="#FFFFFF" height="58.2656" style="stroke:#181818;stroke-width:1.0;" width="10" x="590" y="499.3203"/><line style="stroke:#181818;stroke-width:0.5;stroke-dasharray:5.0,5.0;" x1="37" x2="37" y1="118.5938" y2="575.5859"/><line style="stroke:#181818;stroke-width:0.5;stroke-dasharray:5.0,5.0;" x1="594.5" x2="594.5" y1="118.5938" y2="575.5859"/><text fill="#000000" font-family="sans-serif" font-size="14" lengthAdjust="spacing" textLength="58" x="5" y="115.292">Student</text><ellipse cx="37" cy="50.7969" fill="#E3E3E3" rx="8" ry="8" style="stroke:#181818;stroke-width:0.5;"/><path d="M37,58.7969 L37,85.7969 M24,66.7969 L50,66.7969 M37,85.7969 L24,100.7969 M37,85.7969 L50,100.7969 " fill="none" style="stroke:#181818;stroke-width:0.5;"/><text fill="#000000" font-family="sans-serif" font-size="14" lengthAdjust="spacing" textLength="58" x="5" y="587.5811">Student</text><ellipse cx="37" cy="599.3828" fill="#E3E3E3" rx="8" ry="8" style="stroke:#181818;stroke-width:0.5;"/><path d="M37,607.3828 L37,634.3828 M24,615.3828 L50,615.3828 M37,634.3828 L24,649.3828 M37,634.3828 L50,649.3828 " fill="none" style="stroke:#181818;stroke-width:0.5;"/><rect fill="#E3E3E3" height="30.2969" rx="2.5" ry="2.5" style="stroke:#181818;stroke-width:0.5;" width="77" x="556.5" y="87.2969"/><text fill="#000000" font-family="sans-serif" font-size="14" lengthAdjust="spacing" textLength="63" x="563.5" y="107.292">:Sistema</text><rect fill="#E3E3E3" height="30.2969" rx="2.5" ry="2.5" style="stroke:#181818;stroke-width:0.5;" width="77" x="556.5" y="574.5859"/><text fill="#000000" font-family="sans-serif" font-size="14" lengthAdjust="spacing" textLength="63" x="563.5" y="594.5811">:Sistema</text><rect fill="#FFFFFF" height="428.9922" style="stroke:#181818;stroke-width:1.0;" width="10" x="32" y="128.5938"/><rect fill="#FFFFFF" height="58.2656" style="stroke:#181818;stroke-width:1.0;" width="10" x="590" y="149.7266"/><rect fill="#FFFFFF" height="58.2656" style="stroke:#181818;stroke-width:1.0;" width="10" x="590" y="237.125"/><rect fill="#FFFFFF" height="58.2656" style="stroke:#181818;stroke-width:1.0;" width="10" x="590" y="324.5234"/><rect fill="#FFFFFF" height="58.2656" style="stroke:#181818;stroke-width:1.0;" width="10" x="590" y="411.9219"/><rect fill="#FFFFFF" height="58.2656" style="stroke:#181818;stroke-width:1.0;" width="10" x="590" y="499.3203"/><polygon fill="#181818" points="578,145.7266,588,149.7266,578,153.7266,582,149.7266" style="stroke:#181818;stroke-width:1.0;"/><line style="stroke:#181818;stroke-width:1.0;" x1="42" x2="584" y1="149.7266" y2="149.7266"/><text fill="#000000" font-family="sans-serif" font-size="13" font-weight="bold" lengthAdjust="spacing" textLength="9" x="49" y="144.6606">1</text><text fill="#000000" font-family="sans-serif" font-size="13" lengthAdjust="spacing" textLength="220" x="62" y="144.6606">Pede para responder a um exame</text><polygon fill="#181818" points="53,174.8594,43,178.8594,53,182.8594,49,178.8594" style="stroke:#181818;stroke-width:1.0;"/><line style="stroke:#181818;stroke-width:1.0;stroke-dasharray:2.0,2.0;" x1="47" x2="589" y1="178.8594" y2="178.8594"/><text fill="#000000" font-family="sans-serif" font-size="13" font-weight="bold" lengthAdjust="spacing" textLength="9" x="59" y="173.7935">2</text><text fill="#000000" font-family="sans-serif" font-size="13" lengthAdjust="spacing" textLength="390" x="72" y="173.7935">Mostra a lista de disciplinas em que o estudante est&#225; inscrito</text><polygon fill="#181818" points="53,203.9922,43,207.9922,53,211.9922,49,207.9922" style="stroke:#181818;stroke-width:1.0;"/><line style="stroke:#181818;stroke-width:1.0;stroke-dasharray:2.0,2.0;" x1="47" x2="594" y1="207.9922" y2="207.9922"/><text fill="#000000" font-family="sans-serif" font-size="13" font-weight="bold" lengthAdjust="spacing" textLength="8" x="59" y="202.9263">3</text><text fill="#000000" font-family="sans-serif" font-size="13" lengthAdjust="spacing" textLength="421" x="71" y="202.9263">Pede para escolher a disciplina da qual pretende fazer um exame</text><polygon fill="#181818" points="578,233.125,588,237.125,578,241.125,582,237.125" style="stroke:#181818;stroke-width:1.0;"/><line style="stroke:#181818;stroke-width:1.0;" x1="42" x2="584" y1="237.125" y2="237.125"/><text fill="#000000" font-family="sans-serif" font-size="13" font-weight="bold" lengthAdjust="spacing" textLength="9" x="49" y="232.0591">4</text><text fill="#000000" font-family="sans-serif" font-size="13" lengthAdjust="spacing" textLength="123" x="62" y="232.0591">Escolhe a disciplina</text><polygon fill="#181818" points="53,262.2578,43,266.2578,53,270.2578,49,266.2578" style="stroke:#181818;stroke-width:1.0;"/><line style="stroke:#181818;stroke-width:1.0;stroke-dasharray:2.0,2.0;" x1="47" x2="589" y1="266.2578" y2="266.2578"/><text fill="#000000" font-family="sans-serif" font-size="13" font-weight="bold" lengthAdjust="spacing" textLength="9" x="59" y="261.1919">5</text><text fill="#000000" font-family="sans-serif" font-size="13" lengthAdjust="spacing" textLength="382" x="72" y="261.1919">Lista todos os exames dispon&#237;veis da disciplina selecionada</text><polygon fill="#181818" points="53,291.3906,43,295.3906,53,299.3906,49,295.3906" style="stroke:#181818;stroke-width:1.0;"/><line style="stroke:#181818;stroke-width:1.0;stroke-dasharray:2.0,2.0;" x1="47" x2="594" y1="295.3906" y2="295.3906"/><text fill="#000000" font-family="sans-serif" font-size="13" font-weight="bold" lengthAdjust="spacing" textLength="9" x="59" y="290.3247">6</text><text fill="#000000" font-family="sans-serif" font-size="13" lengthAdjust="spacing" textLength="336" x="72" y="290.3247">Pede para selecionar o exame que pretende realizar</text><polygon fill="#181818" points="578,320.5234,588,324.5234,578,328.5234,582,324.5234" style="stroke:#181818;stroke-width:1.0;"/><line style="stroke:#181818;stroke-width:1.0;" x1="42" x2="584" y1="324.5234" y2="324.5234"/><text fill="#000000" font-family="sans-serif" font-size="13" font-weight="bold" lengthAdjust="spacing" textLength="9" x="49" y="319.4575">7</text><text fill="#000000" font-family="sans-serif" font-size="13" lengthAdjust="spacing" textLength="349" x="62" y="319.4575">Escolhe o exame que pretende   que pretende realizar</text><polygon fill="#181818" points="53,349.6563,43,353.6563,53,357.6563,49,353.6563" style="stroke:#181818;stroke-width:1.0;"/><line style="stroke:#181818;stroke-width:1.0;stroke-dasharray:2.0,2.0;" x1="47" x2="589" y1="353.6563" y2="353.6563"/><text fill="#000000" font-family="sans-serif" font-size="13" font-weight="bold" lengthAdjust="spacing" textLength="9" x="59" y="348.5903">8</text><text fill="#000000" font-family="sans-serif" font-size="13" lengthAdjust="spacing" textLength="127" x="72" y="348.5903">Apresenta o exame</text><polygon fill="#181818" points="53,378.7891,43,382.7891,53,386.7891,49,382.7891" style="stroke:#181818;stroke-width:1.0;"/><line style="stroke:#181818;stroke-width:1.0;stroke-dasharray:2.0,2.0;" x1="47" x2="594" y1="382.7891" y2="382.7891"/><text fill="#000000" font-family="sans-serif" font-size="13" font-weight="bold" lengthAdjust="spacing" textLength="9" x="59" y="377.7231">9</text><text fill="#000000" font-family="sans-serif" font-size="13" lengthAdjust="spacing" textLength="511" x="72" y="377.7231">Pede ao utilizador para inserir o caminho do ficheiro com a resolu&#231;&#227;o do exame</text><polygon fill="#181818" points="578,407.9219,588,411.9219,578,415.9219,582,411.9219" style="stroke:#181818;stroke-width:1.0;"/><line style="stroke:#181818;stroke-width:1.0;" x1="42" x2="584" y1="411.9219" y2="411.9219"/><text fill="#000000" font-family="sans-serif" font-size="13" font-weight="bold" lengthAdjust="spacing" textLength="19" x="49" y="406.856">10</text><text fill="#000000" font-family="sans-serif" font-size="13" lengthAdjust="spacing" textLength="360" x="72" y="406.856">Insere o caminho do ficheiro com a resolu&#231;&#227;o do exame</text><polygon fill="#181818" points="53,437.0547,43,441.0547,53,445.0547,49,441.0547" style="stroke:#181818;stroke-width:1.0;"/><line style="stroke:#181818;stroke-width:1.0;stroke-dasharray:2.0,2.0;" x1="47" x2="589" y1="441.0547" y2="441.0547"/><text fill="#000000" font-family="sans-serif" font-size="13" font-weight="bold" lengthAdjust="spacing" textLength="18" x="59" y="435.9888">11</text><text fill="#000000" font-family="sans-serif" font-size="13" lengthAdjust="spacing" textLength="408" x="81" y="435.9888">Imprime as respostas do estudante que ser&#227;o dadas ao exame</text><polygon fill="#181818" points="53,466.1875,43,470.1875,53,474.1875,49,470.1875" style="stroke:#181818;stroke-width:1.0;"/><line style="stroke:#181818;stroke-width:1.0;stroke-dasharray:2.0,2.0;" x1="47" x2="594" y1="470.1875" y2="470.1875"/><text fill="#000000" font-family="sans-serif" font-size="13" font-weight="bold" lengthAdjust="spacing" textLength="18" x="59" y="465.1216">12</text><text fill="#000000" font-family="sans-serif" font-size="13" lengthAdjust="spacing" textLength="302" x="81" y="465.1216">Pede confirma&#231;&#227;o para a finaliza&#231;&#227;o do exame</text><polygon fill="#181818" points="578,495.3203,588,499.3203,578,503.3203,582,499.3203" style="stroke:#181818;stroke-width:1.0;"/><line style="stroke:#181818;stroke-width:1.0;" x1="42" x2="584" y1="499.3203" y2="499.3203"/><text fill="#000000" font-family="sans-serif" font-size="13" font-weight="bold" lengthAdjust="spacing" textLength="17" x="49" y="494.2544">13</text><text fill="#000000" font-family="sans-serif" font-size="13" lengthAdjust="spacing" textLength="123" x="70" y="494.2544">Confirma opera&#231;&#227;o</text><polygon fill="#181818" points="53,524.4531,43,528.4531,53,532.4531,49,528.4531" style="stroke:#181818;stroke-width:1.0;"/><line style="stroke:#181818;stroke-width:1.0;stroke-dasharray:2.0,2.0;" x1="47" x2="589" y1="528.4531" y2="528.4531"/><text fill="#000000" font-family="sans-serif" font-size="13" font-weight="bold" lengthAdjust="spacing" textLength="18" x="59" y="523.3872">14</text><text fill="#000000" font-family="sans-serif" font-size="13" lengthAdjust="spacing" textLength="311" x="81" y="523.3872">Apresenta a nota obtida e o feedback do exame</text><polygon fill="#181818" points="48,553.5859,38,557.5859,48,561.5859,44,557.5859" style="stroke:#181818;stroke-width:1.0;"/><line style="stroke:#181818;stroke-width:1.0;stroke-dasharray:2.0,2.0;" x1="42" x2="594" y1="557.5859" y2="557.5859"/><text fill="#000000" font-family="sans-serif" font-size="13" font-weight="bold" lengthAdjust="spacing" textLength="18" x="54" y="552.52">15</text><text fill="#000000" font-family="sans-serif" font-size="13" lengthAdjust="spacing" textLength="202" x="76" y="552.52">Informa o sucesso da opera&#231;&#227;o</text><!--SRC=[fPJFRXD13CRl-nHMJd28L25EEI0Xog4II4Wh7i2PSHAhE-DbF5jetmPnuCHJvCNmp6x-GIbjkifXicD__lmRp-ernnuJ1WWInMsI18AS1cfqlzEZkyOrjVcs8qZaCiPrTnoW6_JobUCQLjWfDKtcRA7jhMOAqDANWQ8Zk6HSb_0NRNlv4kRmkOLN5nUl6noon24iAJKDkYm9PcqUFCKy0rIOretLokounvXXjcYvYECOCQvhDjzWfdrE0_PCVs3-PXS92_X4dg3Ojuwqb-Wf0S8GWBvXe9ftK9lqONfsAlEYE8aluADeDZc4phOHJDwpcj-Eetaq48O114WjmtgWijf-1uxg4cVvZ_h1BwcJRbFj7Wg0HzF73lf4cQmREuexYpbfoDDVBVqRqFknp4cLSx1yg3IoU56mNtMZHTEWRt_T46lnVjI9KaUE9QB7HpFPvwH2k9IejFSm4c77TvZEnt2lB3nGvOcOtfgAsX9tbHxJEmeCcKjDRxUcah1neiG5WyF0SIFW1LRiDiJ9tac0El7I3TkVsnzrzym1kIgLwBn2JuHp5Vh41j_kKRsjDb5Q1VTtgPo3sQc5R72qe7aqHYTnnIdWQBHYH6ibrjDyBgPtapX8JsbKUzvy84GfOxBCR1Ud7C2Ao2_j8ttgyW6SSINL4UZWIBKm-zFUVJqUlnl5VWC0]--></g></svg>