<?xml version="1.0" encoding="us-ascii" standalone="no"?><svg xmlns="http://www.w3.org/2000/svg" xmlns:xlink="http://www.w3.org/1999/xlink" contentStyleType="text/css" height="669px" preserveAspectRatio="none" style="width:901px;height:669px;background:#FFFFFF;" version="1.1" viewBox="0 0 901 669" width="901px" zoomAndPan="magnify"><defs/><g><text fill="#000000" font-family="sans-serif" font-size="14" font-weight="bold" lengthAdjust="spacing" textLength="201" x="343" y="25.1074">Class Diagram (CD) - US 2006</text><!--class ListGradesByCourseUI--><g id="elem_ListGradesByCourseUI"><rect codeLine="5" fill="#F1F1F1" height="79.2031" id="ListGradesByCourseUI" rx="2.5" ry="2.5" style="stroke:#181818;stroke-width:0.5;" width="175" x="335.5" y="46.6211"/><ellipse cx="350.5" cy="68.9121" fill="#ADD1B2" rx="11" ry="11" style="stroke:#181818;stroke-width:1.0;"/><path d="M353.2656,64.7871 Q353.4219,64.5684 353.6094,64.459 Q353.7969,64.3496 354.0156,64.3496 Q354.3906,64.3496 354.625,64.6152 Q354.8594,64.8652 354.8594,65.4746 L354.8594,66.9277 Q354.8594,67.5371 354.625,67.8027 Q354.3906,68.0684 354.0156,68.0684 Q353.6719,68.0684 353.4688,67.8652 Q353.2656,67.6777 353.1563,67.1621 Q353.1094,66.8027 352.9219,66.6152 Q352.5938,66.2402 351.9844,66.0215 Q351.375,65.8027 350.75,65.8027 Q349.9844,65.8027 349.3438,66.1309 Q348.7188,66.459 348.2188,67.209 Q347.7344,67.959 347.7344,68.9902 L347.7344,70.084 Q347.7344,71.3184 348.625,72.1465 Q349.5156,72.959 351.1094,72.959 Q352.0469,72.959 352.7031,72.709 Q353.0938,72.5527 353.5156,72.1152 Q353.7813,71.8496 353.9219,71.7715 Q354.0781,71.6934 354.2813,71.6934 Q354.6094,71.6934 354.8594,71.959 Q355.125,72.209 355.125,72.5527 Q355.125,72.8965 354.7813,73.3027 Q354.2813,73.8809 353.4844,74.209 Q352.4063,74.6621 351.1094,74.6621 Q349.5938,74.6621 348.3906,74.0371 Q347.4063,73.5371 346.7188,72.4746 Q346.0313,71.3965 346.0313,70.1152 L346.0313,68.959 Q346.0313,67.6309 346.6406,66.4902 Q347.2656,65.334 348.3594,64.7246 Q349.4531,64.0996 350.6875,64.0996 Q351.4219,64.0996 352.0625,64.2715 Q352.7188,64.4277 353.2656,64.7871 Z " fill="#000000"/><text fill="#000000" font-family="sans-serif" font-size="12" font-style="italic" lengthAdjust="spacing" textLength="82" x="395" y="64.5703">&#171;presentation&#187;</text><text fill="#000000" font-family="sans-serif" font-size="14" lengthAdjust="spacing" textLength="143" x="364.5" y="82.6895">ListGradesByCourseUI</text><line style="stroke:#181818;stroke-width:0.5;" x1="336.5" x2="509.5" y1="91.2031" y2="91.2031"/><line style="stroke:#181818;stroke-width:0.5;" x1="336.5" x2="509.5" y1="99.2031" y2="99.2031"/><text fill="#000000" font-family="sans-serif" font-size="14" lengthAdjust="spacing" textLength="60" x="341.5" y="118.3105">doShow()</text></g><!--class ListGradesByCourseController--><g id="elem_ListGradesByCourseController"><rect codeLine="9" fill="#F1F1F1" height="97.8242" id="ListGradesByCourseController" rx="2.5" ry="2.5" style="stroke:#181818;stroke-width:0.5;" width="225" x="310.5" y="204.6211"/><ellipse cx="325.5" cy="226.9121" fill="#ADD1B2" rx="11" ry="11" style="stroke:#181818;stroke-width:1.0;"/><path d="M328.2656,222.7871 Q328.4219,222.5684 328.6094,222.459 Q328.7969,222.3496 329.0156,222.3496 Q329.3906,222.3496 329.625,222.6152 Q329.8594,222.8652 329.8594,223.4746 L329.8594,224.9277 Q329.8594,225.5371 329.625,225.8027 Q329.3906,226.0684 329.0156,226.0684 Q328.6719,226.0684 328.4688,225.8652 Q328.2656,225.6777 328.1563,225.1621 Q328.1094,224.8027 327.9219,224.6152 Q327.5938,224.2402 326.9844,224.0215 Q326.375,223.8027 325.75,223.8027 Q324.9844,223.8027 324.3438,224.1309 Q323.7188,224.459 323.2188,225.209 Q322.7344,225.959 322.7344,226.9902 L322.7344,228.084 Q322.7344,229.3184 323.625,230.1465 Q324.5156,230.959 326.1094,230.959 Q327.0469,230.959 327.7031,230.709 Q328.0938,230.5527 328.5156,230.1152 Q328.7813,229.8496 328.9219,229.7715 Q329.0781,229.6934 329.2813,229.6934 Q329.6094,229.6934 329.8594,229.959 Q330.125,230.209 330.125,230.5527 Q330.125,230.8965 329.7813,231.3027 Q329.2813,231.8809 328.4844,232.209 Q327.4063,232.6621 326.1094,232.6621 Q324.5938,232.6621 323.3906,232.0371 Q322.4063,231.5371 321.7188,230.4746 Q321.0313,229.3965 321.0313,228.1152 L321.0313,226.959 Q321.0313,225.6309 321.6406,224.4902 Q322.2656,223.334 323.3594,222.7246 Q324.4531,222.0996 325.6875,222.0996 Q326.4219,222.0996 327.0625,222.2715 Q327.7188,222.4277 328.2656,222.7871 Z " fill="#000000"/><text fill="#000000" font-family="sans-serif" font-size="12" font-style="italic" lengthAdjust="spacing" textLength="74" x="399" y="222.5703">&#171;application&#187;</text><text fill="#000000" font-family="sans-serif" font-size="14" lengthAdjust="spacing" textLength="193" x="339.5" y="240.6895">ListGradesByCourseController</text><line style="stroke:#181818;stroke-width:0.5;" x1="311.5" x2="534.5" y1="249.2031" y2="249.2031"/><line style="stroke:#181818;stroke-width:0.5;" x1="311.5" x2="534.5" y1="257.2031" y2="257.2031"/><ellipse cx="321.5" cy="272.0137" fill="#84BE84" rx="3" ry="3" style="stroke:#038048;stroke-width:1.0;"/><text fill="#000000" font-family="sans-serif" font-size="14" lengthAdjust="spacing" textLength="133" x="330.5" y="276.3105">listTeacherCourses()</text><ellipse cx="321.5" cy="290.6348" fill="#84BE84" rx="3" ry="3" style="stroke:#038048;stroke-width:1.0;"/><text fill="#000000" font-family="sans-serif" font-size="14" lengthAdjust="spacing" textLength="136" x="330.5" y="294.9316">listGradesByCourse()</text></g><!--class TakenExame--><g id="elem_TakenExame"><rect codeLine="14" fill="#F1F1F1" height="60.582" id="TakenExame" rx="2.5" ry="2.5" style="stroke:#181818;stroke-width:0.5;" width="114" x="215" y="381.6211"/><ellipse cx="230" cy="403.9121" fill="#ADD1B2" rx="11" ry="11" style="stroke:#181818;stroke-width:1.0;"/><path d="M232.7656,399.7871 Q232.9219,399.5684 233.1094,399.459 Q233.2969,399.3496 233.5156,399.3496 Q233.8906,399.3496 234.125,399.6152 Q234.3594,399.8652 234.3594,400.4746 L234.3594,401.9277 Q234.3594,402.5371 234.125,402.8027 Q233.8906,403.0684 233.5156,403.0684 Q233.1719,403.0684 232.9688,402.8652 Q232.7656,402.6777 232.6563,402.1621 Q232.6094,401.8027 232.4219,401.6152 Q232.0938,401.2402 231.4844,401.0215 Q230.875,400.8027 230.25,400.8027 Q229.4844,400.8027 228.8438,401.1309 Q228.2188,401.459 227.7188,402.209 Q227.2344,402.959 227.2344,403.9902 L227.2344,405.084 Q227.2344,406.3184 228.125,407.1465 Q229.0156,407.959 230.6094,407.959 Q231.5469,407.959 232.2031,407.709 Q232.5938,407.5527 233.0156,407.1152 Q233.2813,406.8496 233.4219,406.7715 Q233.5781,406.6934 233.7813,406.6934 Q234.1094,406.6934 234.3594,406.959 Q234.625,407.209 234.625,407.5527 Q234.625,407.8965 234.2813,408.3027 Q233.7813,408.8809 232.9844,409.209 Q231.9063,409.6621 230.6094,409.6621 Q229.0938,409.6621 227.8906,409.0371 Q226.9063,408.5371 226.2188,407.4746 Q225.5313,406.3965 225.5313,405.1152 L225.5313,403.959 Q225.5313,402.6309 226.1406,401.4902 Q226.7656,400.334 227.8594,399.7246 Q228.9531,399.0996 230.1875,399.0996 Q230.9219,399.0996 231.5625,399.2715 Q232.2188,399.4277 232.7656,399.7871 Z " fill="#000000"/><text fill="#000000" font-family="sans-serif" font-size="12" font-style="italic" lengthAdjust="spacing" textLength="56" x="257" y="399.5703">&#171;domain&#187;</text><text fill="#000000" font-family="sans-serif" font-size="14" lengthAdjust="spacing" textLength="82" x="244" y="417.6895">TakenExame</text><line style="stroke:#181818;stroke-width:0.5;" x1="216" x2="328" y1="426.2031" y2="426.2031"/><line style="stroke:#181818;stroke-width:0.5;" x1="216" x2="328" y1="434.2031" y2="434.2031"/></g><!--class Course--><g id="elem_Course"><rect codeLine="17" fill="#F1F1F1" height="60.582" id="Course" rx="2.5" ry="2.5" style="stroke:#181818;stroke-width:0.5;" width="84" x="538" y="381.6211"/><ellipse cx="553" cy="403.9121" fill="#ADD1B2" rx="11" ry="11" style="stroke:#181818;stroke-width:1.0;"/><path d="M555.7656,399.7871 Q555.9219,399.5684 556.1094,399.459 Q556.2969,399.3496 556.5156,399.3496 Q556.8906,399.3496 557.125,399.6152 Q557.3594,399.8652 557.3594,400.4746 L557.3594,401.9277 Q557.3594,402.5371 557.125,402.8027 Q556.8906,403.0684 556.5156,403.0684 Q556.1719,403.0684 555.9688,402.8652 Q555.7656,402.6777 555.6563,402.1621 Q555.6094,401.8027 555.4219,401.6152 Q555.0938,401.2402 554.4844,401.0215 Q553.875,400.8027 553.25,400.8027 Q552.4844,400.8027 551.8438,401.1309 Q551.2188,401.459 550.7188,402.209 Q550.2344,402.959 550.2344,403.9902 L550.2344,405.084 Q550.2344,406.3184 551.125,407.1465 Q552.0156,407.959 553.6094,407.959 Q554.5469,407.959 555.2031,407.709 Q555.5938,407.5527 556.0156,407.1152 Q556.2813,406.8496 556.4219,406.7715 Q556.5781,406.6934 556.7813,406.6934 Q557.1094,406.6934 557.3594,406.959 Q557.625,407.209 557.625,407.5527 Q557.625,407.8965 557.2813,408.3027 Q556.7813,408.8809 555.9844,409.209 Q554.9063,409.6621 553.6094,409.6621 Q552.0938,409.6621 550.8906,409.0371 Q549.9063,408.5371 549.2188,407.4746 Q548.5313,406.3965 548.5313,405.1152 L548.5313,403.959 Q548.5313,402.6309 549.1406,401.4902 Q549.7656,400.334 550.8594,399.7246 Q551.9531,399.0996 553.1875,399.0996 Q553.9219,399.0996 554.5625,399.2715 Q555.2188,399.4277 555.7656,399.7871 Z " fill="#000000"/><text fill="#000000" font-family="sans-serif" font-size="12" font-style="italic" lengthAdjust="spacing" textLength="56" x="565" y="399.5703">&#171;domain&#187;</text><text fill="#000000" font-family="sans-serif" font-size="14" lengthAdjust="spacing" textLength="46" x="570" y="417.6895">Course</text><line style="stroke:#181818;stroke-width:0.5;" x1="539" x2="621" y1="426.2031" y2="426.2031"/><line style="stroke:#181818;stroke-width:0.5;" x1="539" x2="621" y1="434.2031" y2="434.2031"/></g><!--class CourseRepository--><g id="elem_CourseRepository"><rect codeLine="21" fill="#F1F1F1" height="79.2031" id="CourseRepository" rx="2.5" ry="2.5" style="stroke:#181818;stroke-width:0.5;" width="398" x="7" y="583.6211"/><ellipse cx="144.75" cy="605.9121" fill="#B4A7E5" rx="11" ry="11" style="stroke:#181818;stroke-width:1.0;"/><path d="M145.7031,602.5527 L145.7031,609.209 L147.4219,609.209 Q148.0313,609.209 148.2969,609.4434 Q148.5625,609.6777 148.5625,610.0684 Q148.5625,610.4434 148.2969,610.6777 Q148.0313,610.9121 147.4219,610.9121 L142.2813,610.9121 Q141.6719,610.9121 141.4063,610.6777 Q141.1406,610.4434 141.1406,610.0527 Q141.1406,609.6777 141.4063,609.4434 Q141.6719,609.209 142.2813,609.209 L144,609.209 L144,602.5527 L142.2813,602.5527 Q141.6719,602.5527 141.4063,602.3184 Q141.1406,602.084 141.1406,601.6934 Q141.1406,601.3184 141.4063,601.084 Q141.6719,600.8496 142.2813,600.8496 L147.4219,600.8496 Q148.0313,600.8496 148.2969,601.084 Q148.5625,601.3184 148.5625,601.6934 Q148.5625,602.084 148.2969,602.3184 Q148.0313,602.5527 147.4219,602.5527 L145.7031,602.5527 Z " fill="#000000"/><text fill="#000000" font-family="sans-serif" font-size="12" font-style="italic" lengthAdjust="spacing" textLength="78" x="183.25" y="601.5703">&#171;repositories&#187;</text><text fill="#000000" font-family="sans-serif" font-size="14" font-style="italic" lengthAdjust="spacing" textLength="114" x="165.25" y="619.6895">CourseRepository</text><line style="stroke:#181818;stroke-width:0.5;" x1="8" x2="404" y1="628.2031" y2="628.2031"/><line style="stroke:#181818;stroke-width:0.5;" x1="8" x2="404" y1="636.2031" y2="636.2031"/><ellipse cx="18" cy="651.0137" fill="#84BE84" rx="3" ry="3" style="stroke:#038048;stroke-width:1.0;"/><text fill="#000000" font-family="sans-serif" font-size="14" lengthAdjust="spacing" textLength="372" x="27" y="655.3105">Iterable&lt;Course&gt; findAllTeacherCourses(Teacher teacher)</text></g><!--class TakenExamRepository--><g id="elem_TakenExamRepository"><rect codeLine="25" fill="#F1F1F1" height="79.2031" id="TakenExamRepository" rx="2.5" ry="2.5" style="stroke:#181818;stroke-width:0.5;" width="454" x="440" y="583.6211"/><ellipse cx="591.25" cy="605.9121" fill="#B4A7E5" rx="11" ry="11" style="stroke:#181818;stroke-width:1.0;"/><path d="M592.2031,602.5527 L592.2031,609.209 L593.9219,609.209 Q594.5313,609.209 594.7969,609.4434 Q595.0625,609.6777 595.0625,610.0684 Q595.0625,610.4434 594.7969,610.6777 Q594.5313,610.9121 593.9219,610.9121 L588.7813,610.9121 Q588.1719,610.9121 587.9063,610.6777 Q587.6406,610.4434 587.6406,610.0527 Q587.6406,609.6777 587.9063,609.4434 Q588.1719,609.209 588.7813,609.209 L590.5,609.209 L590.5,602.5527 L588.7813,602.5527 Q588.1719,602.5527 587.9063,602.3184 Q587.6406,602.084 587.6406,601.6934 Q587.6406,601.3184 587.9063,601.084 Q588.1719,600.8496 588.7813,600.8496 L593.9219,600.8496 Q594.5313,600.8496 594.7969,601.084 Q595.0625,601.3184 595.0625,601.6934 Q595.0625,602.084 594.7969,602.3184 Q594.5313,602.5527 593.9219,602.5527 L592.2031,602.5527 Z " fill="#000000"/><text fill="#000000" font-family="sans-serif" font-size="12" font-style="italic" lengthAdjust="spacing" textLength="78" x="644.25" y="601.5703">&#171;repositories&#187;</text><text fill="#000000" font-family="sans-serif" font-size="14" font-style="italic" lengthAdjust="spacing" textLength="143" x="611.75" y="619.6895">TakenExamRepository</text><line style="stroke:#181818;stroke-width:0.5;" x1="441" x2="893" y1="628.2031" y2="628.2031"/><line style="stroke:#181818;stroke-width:0.5;" x1="441" x2="893" y1="636.2031" y2="636.2031"/><ellipse cx="451" cy="651.0137" fill="#84BE84" rx="3" ry="3" style="stroke:#038048;stroke-width:1.0;"/><text fill="#000000" font-family="sans-serif" font-size="14" lengthAdjust="spacing" textLength="428" x="460" y="655.3105">Iterable&lt;GradePerStudent&gt; findAllGradesByCourse(Course course)</text></g><!--link ListGradesByCourseUI to ListGradesByCourseController--><g id="link_ListGradesByCourseUI_ListGradesByCourseController"><path codeLine="30" d="M423,125.9211 C423,147.8611 423,175.6111 423,199.5511 " fill="none" id="ListGradesByCourseUI-to-ListGradesByCourseController" style="stroke:#181818;stroke-width:1.0;"/><polygon fill="#181818" points="423,204.5911,427,195.5911,423,199.5911,419,195.5911,423,204.5911" style="stroke:#181818;stroke-width:1.0;"/><text fill="#000000" font-family="sans-serif" font-size="13" lengthAdjust="spacing" textLength="73" x="424" y="170.6494">theController</text></g><!--link ListGradesByCourseController to TakenExame--><g id="link_ListGradesByCourseController_TakenExame"><path codeLine="31" d="M339.01,302.6311 C327.34,311.6111 316.21,321.6611 307,332.6211 C296.3,345.3411 288.29,361.8611 282.65,376.4611 " fill="none" id="ListGradesByCourseController-to-TakenExame" style="stroke:#181818;stroke-width:1.0;"/><polygon fill="#181818" points="280.82,381.3311,287.7325,374.3156,282.5803,376.6512,280.2447,371.4991,280.82,381.3311" style="stroke:#181818;stroke-width:1.0;"/><text fill="#000000" font-family="sans-serif" font-size="13" lengthAdjust="spacing" textLength="66" x="308" y="347.6494">takenExam</text></g><!--link ListGradesByCourseController to Course--><g id="link_ListGradesByCourseController_Course"><path codeLine="32" d="M471.39,302.8511 C495.75,327.1311 524.66,355.9611 546.53,377.7611 " fill="none" id="ListGradesByCourseController-to-Course" style="stroke:#181818;stroke-width:1.0;"/><polygon fill="#181818" points="550.26,381.4711,546.7059,372.2859,546.7173,377.9427,541.0605,377.9541,550.26,381.4711" style="stroke:#181818;stroke-width:1.0;"/><text fill="#000000" font-family="sans-serif" font-size="13" lengthAdjust="spacing" textLength="39" x="521" y="347.6494">course</text></g><!--link ListGradesByCourseController to TakenExamRepository--><g id="link_ListGradesByCourseController_TakenExamRepository"><path codeLine="33" d="M444.81,302.8611 C463.18,341.7611 491.17,397.2611 521,442.6211 C553.69,492.3311 597.42,544.6011 628.48,579.8311 " fill="none" id="ListGradesByCourseController-to-TakenExamRepository" style="stroke:#181818;stroke-width:1.0;"/><polygon fill="#181818" points="631.82,583.6111,628.8482,574.2213,628.5053,579.8677,622.8588,579.5248,631.82,583.6111" style="stroke:#181818;stroke-width:1.0;"/><text fill="#000000" font-family="sans-serif" font-size="13" lengthAdjust="spacing" textLength="25" x="556" y="487.6494">repo</text></g><!--link ListGradesByCourseController to CourseRepository--><g id="link_ListGradesByCourseController_CourseRepository"><path codeLine="34" d="M407.43,302.6611 C393.83,341.6911 372.19,397.4611 346,442.6211 C316.94,492.7211 275.28,544.2811 244.96,579.2111 " fill="none" id="ListGradesByCourseController-to-CourseRepository" style="stroke:#181818;stroke-width:1.0;"/><polygon fill="#181818" points="241.32,583.3911,250.2557,579.2495,244.6115,579.6273,244.2337,573.9831,241.32,583.3911" style="stroke:#181818;stroke-width:1.0;"/><text fill="#000000" font-family="sans-serif" font-size="13" lengthAdjust="spacing" textLength="25" x="329" y="487.6494">repo</text></g><!--link ListGradesByCourseUI to TakenExame--><g id="link_ListGradesByCourseUI_TakenExame"><path codeLine="37" d="M363.19,125.8611 C337.12,146.0611 308.94,173.1311 293,204.6211 C265.08,259.7711 265.15,333.7211 268.23,376.5211 " fill="none" id="ListGradesByCourseUI-to-TakenExame" style="stroke:#181818;stroke-width:1.0;stroke-dasharray:7.0,7.0;"/><polygon fill="#181818" points="268.62,381.5811,271.9139,372.2994,268.2343,376.596,263.9377,372.9164,268.62,381.5811" style="stroke:#181818;stroke-width:1.0;"/></g><!--link ListGradesByCourseUI to Course--><g id="link_ListGradesByCourseUI_Course"><path codeLine="38" d="M483.76,125.8211 C509.86,145.9311 537.8,172.9411 553,204.6211 C579.75,260.3811 582.81,333.8111 581.89,376.4111 " fill="none" id="ListGradesByCourseUI-to-Course" style="stroke:#181818;stroke-width:1.0;stroke-dasharray:7.0,7.0;"/><polygon fill="#181818" points="581.76,381.4511,585.99,372.5569,581.8885,376.4527,577.9927,372.3512,581.76,381.4511" style="stroke:#181818;stroke-width:1.0;"/></g><!--SRC=[bL71IiD04BtlLyojBH8e7ZoK4D14f20YjZs9Xp4xRHQtks5tgnRntzrkqZHfRQkvB9EPz-RDUquuIP1Aj1OoWGk3I-YdsG0Yc4tWSZYyOgmNscHP7iRkXNLt1ZdPctMgLyRIR0nnN1gof1mweLMIm1S3_t4zAVH7Vy2-sL5qgfKpMaeodWNBKegyIt8XFMPAc1TaAeZrZ4sdozRUDSKtKhUVk2JFpFKIHKNQ35IGWoOJof6POqxrn1ELsWgdpThFccqXoEuqZZq2NoN55IA1kL3yMieztNK9hdg3sDssHl1_5eRx7ybCt8hx09hDUxxKj-RX2Njx3_Wk5i5hzckeKPISpci4hcZLxEJmXgsLYCTkY_EuMloebdyEq5dLyd846o__WZx8lOQoNaObAMzqxjCuOjipHriGV-aSV7ws-ib-0000]--></g></svg>