<?xml version="1.0" encoding="us-ascii" standalone="no"?><svg xmlns="http://www.w3.org/2000/svg" xmlns:xlink="http://www.w3.org/1999/xlink" contentStyleType="text/css" height="816px" preserveAspectRatio="none" style="width:1712px;height:816px;background:#FFFFFF;" version="1.1" viewBox="0 0 1712 816" width="1712px" zoomAndPan="magnify"><defs/><g><text fill="#000000" font-family="sans-serif" font-size="14" font-weight="bold" lengthAdjust="spacing" textLength="213" x="742.5" y="25.1074">Domain Classes (DC) - US 2006</text><!--cluster <<aggregate>> TakenExam--><g id="cluster_&lt;&lt;aggregate&gt;&gt; TakenExam"><path d="M8.5,45.6348 L180.5,45.6348 A3.75,3.75 0 0 1 183,48.1348 L190,70.2559 L347.5,70.2559 A2.5,2.5 0 0 1 350,72.7559 L350,328.1348 A2.5,2.5 0 0 1 347.5,330.6348 L8.5,330.6348 A2.5,2.5 0 0 1 6,328.1348 L6,48.1348 A2.5,2.5 0 0 1 8.5,45.6348 " fill="none" style="stroke:#000000;stroke-width:1.5;"/><line style="stroke:#000000;stroke-width:1.5;" x1="6" x2="190" y1="70.2559" y2="70.2559"/><text fill="#000000" font-family="sans-serif" font-size="14" font-weight="bold" lengthAdjust="spacing" textLength="171" x="10" y="62.7422">&#171;aggregate&#187; TakenExam</text></g><!--cluster <<aggregate>> Student--><g id="cluster_&lt;&lt;aggregate&gt;&gt; Student"><path d="M540.5,573.1348 L688.5,573.1348 A3.75,3.75 0 0 1 691,575.6348 L698,597.7559 L753.5,597.7559 A2.5,2.5 0 0 1 756,600.2559 L756,806.6348 A2.5,2.5 0 0 1 753.5,809.1348 L540.5,809.1348 A2.5,2.5 0 0 1 538,806.6348 L538,575.6348 A2.5,2.5 0 0 1 540.5,573.1348 " fill="none" style="stroke:#000000;stroke-width:1.5;"/><line style="stroke:#000000;stroke-width:1.5;" x1="538" x2="698" y1="597.7559" y2="597.7559"/><text fill="#000000" font-family="sans-serif" font-size="14" font-weight="bold" lengthAdjust="spacing" textLength="147" x="542" y="590.2422">&#171;aggregate&#187; Student</text></g><!--cluster <<aggregate>> Exam--><g id="cluster_&lt;&lt;aggregate&gt;&gt; Exam"><path d="M1430.5,216.6348 L1560.5,216.6348 A3.75,3.75 0 0 1 1563,219.1348 L1570,241.2559 L1570.5,241.2559 A2.5,2.5 0 0 1 1573,243.7559 L1573,336.1348 A2.5,2.5 0 0 1 1570.5,338.6348 L1430.5,338.6348 A2.5,2.5 0 0 1 1428,336.1348 L1428,219.1348 A2.5,2.5 0 0 1 1430.5,216.6348 " fill="none" style="stroke:#000000;stroke-width:1.5;"/><line style="stroke:#000000;stroke-width:1.5;" x1="1428" x2="1570" y1="241.2559" y2="241.2559"/><text fill="#000000" font-family="sans-serif" font-size="14" font-weight="bold" lengthAdjust="spacing" textLength="129" x="1432" y="233.7422">&#171;aggregate&#187; Exam</text></g><!--cluster <<aggregate>> Course--><g id="cluster_&lt;&lt;aggregate&gt;&gt; Course"><path d="M470.5,216.6348 L614.5,216.6348 A3.75,3.75 0 0 1 617,219.1348 L624,241.2559 L1305.5,241.2559 A2.5,2.5 0 0 1 1308,243.7559 L1308,519.6348 A2.5,2.5 0 0 1 1305.5,522.1348 L470.5,522.1348 A2.5,2.5 0 0 1 468,519.6348 L468,219.1348 A2.5,2.5 0 0 1 470.5,216.6348 " fill="none" style="stroke:#000000;stroke-width:1.5;"/><line style="stroke:#000000;stroke-width:1.5;" x1="468" x2="624" y1="241.2559" y2="241.2559"/><text fill="#000000" font-family="sans-serif" font-size="14" font-weight="bold" lengthAdjust="spacing" textLength="143" x="472" y="233.7422">&#171;aggregate&#187; Course</text></g><!--cluster <<aggregate>> Enrollment--><g id="cluster_&lt;&lt;aggregate&gt;&gt; Enrollment"><path d="M1334.5,389.6348 L1503.5,389.6348 A3.75,3.75 0 0 1 1506,392.1348 L1513,414.2559 L1513.5,414.2559 A2.5,2.5 0 0 1 1516,416.7559 L1516,684.6348 A2.5,2.5 0 0 1 1513.5,687.1348 L1334.5,687.1348 A2.5,2.5 0 0 1 1332,684.6348 L1332,392.1348 A2.5,2.5 0 0 1 1334.5,389.6348 " fill="none" style="stroke:#000000;stroke-width:1.5;"/><line style="stroke:#000000;stroke-width:1.5;" x1="1332" x2="1513" y1="414.2559" y2="414.2559"/><text fill="#000000" font-family="sans-serif" font-size="14" font-weight="bold" lengthAdjust="spacing" textLength="168" x="1336" y="406.7422">&#171;aggregate&#187; Enrollment</text></g><!--cluster <<aggregate>> Teacher--><g id="cluster_&lt;&lt;aggregate&gt;&gt; Teacher"><path d="M1542.5,389.6348 L1692.5,389.6348 A3.75,3.75 0 0 1 1695,392.1348 L1702,414.2559 L1702.5,414.2559 A2.5,2.5 0 0 1 1705,416.7559 L1705,684.6348 A2.5,2.5 0 0 1 1702.5,687.1348 L1542.5,687.1348 A2.5,2.5 0 0 1 1540,684.6348 L1540,392.1348 A2.5,2.5 0 0 1 1542.5,389.6348 " fill="none" style="stroke:#000000;stroke-width:1.5;"/><line style="stroke:#000000;stroke-width:1.5;" x1="1540" x2="1702" y1="414.2559" y2="414.2559"/><text fill="#000000" font-family="sans-serif" font-size="14" font-weight="bold" lengthAdjust="spacing" textLength="149" x="1544" y="406.7422">&#171;aggregate&#187; Teacher</text></g><!--class TakenExam--><g id="elem_TakenExam"><rect codeLine="10" fill="#F1F1F1" height="68.543" id="TakenExam" rx="2.5" ry="2.5" style="stroke:#181818;stroke-width:0.5;" width="106" x="227" y="82.6348"/><ellipse cx="242" cy="112.9063" fill="#ADD1B2" rx="11" ry="11" style="stroke:#181818;stroke-width:1.0;"/><path d="M240.8594,113.7031 L240.8594,116.2031 L245.1875,116.2031 L245.1875,115.2813 Q245.1875,114.6719 245.4219,114.4063 Q245.6719,114.1406 246.0469,114.1406 Q246.4219,114.1406 246.6563,114.4063 Q246.8906,114.6719 246.8906,115.2813 L246.8906,117.9063 L238.8906,117.9063 Q238.2656,117.9063 238,117.6719 Q237.75,117.4375 237.75,117.0469 Q237.75,116.6719 238.0156,116.4375 Q238.2813,116.2031 238.8906,116.2031 L239.1563,116.2031 L239.1563,109.5469 L238.8906,109.5469 Q238.2656,109.5469 238,109.3125 Q237.75,109.0781 237.75,108.6875 Q237.75,108.3125 238,108.0781 Q238.2656,107.8438 238.8906,107.8438 L246.5156,107.8438 L246.5156,110.4375 Q246.5156,111.0469 246.2813,111.3125 Q246.0625,111.5625 245.6719,111.5625 Q245.2969,111.5625 245.0625,111.3125 Q244.8281,111.0469 244.8281,110.4375 L244.8281,109.5469 L240.8594,109.5469 L240.8594,112 L242.3438,112 Q242.3438,111.3438 242.4688,111.1563 Q242.7344,110.75 243.2031,110.75 Q243.5781,110.75 243.8125,111.0156 Q244.0469,111.2656 244.0469,111.875 L244.0469,113.8438 Q244.0469,114.3906 243.9219,114.5781 Q243.6563,114.9688 243.2031,114.9688 Q242.7344,114.9688 242.4688,114.5625 Q242.3438,114.375 242.3438,113.7031 L240.8594,113.7031 Z " fill="#000000"/><text fill="#000000" font-family="sans-serif" font-size="12" font-style="italic" lengthAdjust="spacing" textLength="43" x="271.5" y="100.584">&#171;entity&#187;</text><text fill="#000000" font-family="sans-serif" font-size="12" font-style="italic" lengthAdjust="spacing" textLength="35" x="275.5" y="116.5449">&#171;root&#187;</text><text fill="#000000" font-family="sans-serif" font-size="14" lengthAdjust="spacing" textLength="74" x="256" y="134.6641">TakenExam</text><line style="stroke:#181818;stroke-width:0.5;" x1="228" x2="332" y1="143.1777" y2="143.1777"/></g><!--class TakenExamDateTime--><g id="elem_TakenExamDateTime"><rect codeLine="11" fill="#F1F1F1" height="52.582" id="TakenExamDateTime" rx="2.5" ry="2.5" style="stroke:#181818;stroke-width:0.5;" width="167" x="22.5" y="261.6348"/><ellipse cx="37.5" cy="283.9258" fill="#FF8B40" rx="11" ry="11" style="stroke:#181818;stroke-width:1.0;"/><path d="M38.0938,287.1914 L40.5625,281.3164 L40.1719,281.3164 Q39.5625,281.3164 39.2969,281.082 Q39.0313,280.8477 39.0313,280.457 Q39.0313,280.082 39.2969,279.8477 Q39.5625,279.6133 40.1719,279.6133 L42.4531,279.6133 Q43.0625,279.6133 43.3281,279.8477 Q43.5938,280.082 43.5938,280.457 Q43.5938,280.9258 43.1875,281.1914 Q43,281.3164 42.4063,281.3164 L38.9219,289.6758 L37.2813,289.6758 L33.7969,281.3164 Q33.2031,281.3164 33.0156,281.1914 Q32.6094,280.9258 32.6094,280.457 Q32.6094,280.082 32.875,279.8477 Q33.1406,279.6133 33.75,279.6133 L36.0469,279.6133 Q36.6563,279.6133 36.9063,279.8477 Q37.1719,280.082 37.1719,280.457 Q37.1719,280.8477 36.9063,281.082 Q36.6563,281.3164 36.0469,281.3164 L35.6406,281.3164 L38.0938,287.1914 Z " fill="#000000"/><text fill="#000000" font-family="sans-serif" font-size="12" font-style="italic" lengthAdjust="spacing" textLength="81" x="78.5" y="279.584">&#171;value object&#187;</text><text fill="#000000" font-family="sans-serif" font-size="14" lengthAdjust="spacing" textLength="135" x="51.5" y="297.7031">TakenExamDateTime</text><line style="stroke:#181818;stroke-width:0.5;" x1="23.5" x2="188.5" y1="306.2168" y2="306.2168"/></g><!--class Grade--><g id="elem_Grade"><rect codeLine="12" fill="#F1F1F1" height="52.582" id="Grade" rx="2.5" ry="2.5" style="stroke:#181818;stroke-width:0.5;" width="109" x="224.5" y="261.6348"/><ellipse cx="239.5" cy="283.9258" fill="#FF8B40" rx="11" ry="11" style="stroke:#181818;stroke-width:1.0;"/><path d="M240.0938,287.1914 L242.5625,281.3164 L242.1719,281.3164 Q241.5625,281.3164 241.2969,281.082 Q241.0313,280.8477 241.0313,280.457 Q241.0313,280.082 241.2969,279.8477 Q241.5625,279.6133 242.1719,279.6133 L244.4531,279.6133 Q245.0625,279.6133 245.3281,279.8477 Q245.5938,280.082 245.5938,280.457 Q245.5938,280.9258 245.1875,281.1914 Q245,281.3164 244.4063,281.3164 L240.9219,289.6758 L239.2813,289.6758 L235.7969,281.3164 Q235.2031,281.3164 235.0156,281.1914 Q234.6094,280.9258 234.6094,280.457 Q234.6094,280.082 234.875,279.8477 Q235.1406,279.6133 235.75,279.6133 L238.0469,279.6133 Q238.6563,279.6133 238.9063,279.8477 Q239.1719,280.082 239.1719,280.457 Q239.1719,280.8477 238.9063,281.082 Q238.6563,281.3164 238.0469,281.3164 L237.6406,281.3164 L240.0938,287.1914 Z " fill="#000000"/><text fill="#000000" font-family="sans-serif" font-size="12" font-style="italic" lengthAdjust="spacing" textLength="81" x="251.5" y="279.584">&#171;value object&#187;</text><text fill="#000000" font-family="sans-serif" font-size="14" lengthAdjust="spacing" textLength="40" x="272" y="297.7031">Grade</text><line style="stroke:#181818;stroke-width:0.5;" x1="225.5" x2="332.5" y1="306.2168" y2="306.2168"/></g><!--class Student--><g id="elem_Student"><rect codeLine="17" fill="#F1F1F1" height="68.543" id="Student" rx="2.5" ry="2.5" style="stroke:#181818;stroke-width:0.5;" width="81" x="606.5" y="610.1348"/><ellipse cx="621.5" cy="640.4063" fill="#ADD1B2" rx="11" ry="11" style="stroke:#181818;stroke-width:1.0;"/><path d="M620.3594,641.2031 L620.3594,643.7031 L624.6875,643.7031 L624.6875,642.7813 Q624.6875,642.1719 624.9219,641.9063 Q625.1719,641.6406 625.5469,641.6406 Q625.9219,641.6406 626.1563,641.9063 Q626.3906,642.1719 626.3906,642.7813 L626.3906,645.4063 L618.3906,645.4063 Q617.7656,645.4063 617.5,645.1719 Q617.25,644.9375 617.25,644.5469 Q617.25,644.1719 617.5156,643.9375 Q617.7813,643.7031 618.3906,643.7031 L618.6563,643.7031 L618.6563,637.0469 L618.3906,637.0469 Q617.7656,637.0469 617.5,636.8125 Q617.25,636.5781 617.25,636.1875 Q617.25,635.8125 617.5,635.5781 Q617.7656,635.3438 618.3906,635.3438 L626.0156,635.3438 L626.0156,637.9375 Q626.0156,638.5469 625.7813,638.8125 Q625.5625,639.0625 625.1719,639.0625 Q624.7969,639.0625 624.5625,638.8125 Q624.3281,638.5469 624.3281,637.9375 L624.3281,637.0469 L620.3594,637.0469 L620.3594,639.5 L621.8438,639.5 Q621.8438,638.8438 621.9688,638.6563 Q622.2344,638.25 622.7031,638.25 Q623.0781,638.25 623.3125,638.5156 Q623.5469,638.7656 623.5469,639.375 L623.5469,641.3438 Q623.5469,641.8906 623.4219,642.0781 Q623.1563,642.4688 622.7031,642.4688 Q622.2344,642.4688 621.9688,642.0625 Q621.8438,641.875 621.8438,641.2031 L620.3594,641.2031 Z " fill="#000000"/><text fill="#000000" font-family="sans-serif" font-size="12" font-style="italic" lengthAdjust="spacing" textLength="43" x="638.5" y="628.084">&#171;entity&#187;</text><text fill="#000000" font-family="sans-serif" font-size="12" font-style="italic" lengthAdjust="spacing" textLength="35" x="642.5" y="644.0449">&#171;root&#187;</text><text fill="#000000" font-family="sans-serif" font-size="14" lengthAdjust="spacing" textLength="49" x="635.5" y="662.1641">Student</text><line style="stroke:#181818;stroke-width:0.5;" x1="607.5" x2="686.5" y1="670.6777" y2="670.6777"/></g><!--class MechanographicNumber--><g id="elem_MechanographicNumber"><rect codeLine="18" fill="#F1F1F1" height="52.582" id="MechanographicNumber" rx="2.5" ry="2.5" style="stroke:#181818;stroke-width:0.5;" width="186" x="554" y="740.1348"/><ellipse cx="569" cy="762.4258" fill="#FF8B40" rx="11" ry="11" style="stroke:#181818;stroke-width:1.0;"/><path d="M569.5938,765.6914 L572.0625,759.8164 L571.6719,759.8164 Q571.0625,759.8164 570.7969,759.582 Q570.5313,759.3477 570.5313,758.957 Q570.5313,758.582 570.7969,758.3477 Q571.0625,758.1133 571.6719,758.1133 L573.9531,758.1133 Q574.5625,758.1133 574.8281,758.3477 Q575.0938,758.582 575.0938,758.957 Q575.0938,759.4258 574.6875,759.6914 Q574.5,759.8164 573.9063,759.8164 L570.4219,768.1758 L568.7813,768.1758 L565.2969,759.8164 Q564.7031,759.8164 564.5156,759.6914 Q564.1094,759.4258 564.1094,758.957 Q564.1094,758.582 564.375,758.3477 Q564.6406,758.1133 565.25,758.1133 L567.5469,758.1133 Q568.1563,758.1133 568.4063,758.3477 Q568.6719,758.582 568.6719,758.957 Q568.6719,759.3477 568.4063,759.582 Q568.1563,759.8164 567.5469,759.8164 L567.1406,759.8164 L569.5938,765.6914 Z " fill="#000000"/><text fill="#000000" font-family="sans-serif" font-size="12" font-style="italic" lengthAdjust="spacing" textLength="81" x="619.5" y="758.084">&#171;value object&#187;</text><text fill="#000000" font-family="sans-serif" font-size="14" lengthAdjust="spacing" textLength="154" x="583" y="776.2031">MechanographicNumber</text><line style="stroke:#181818;stroke-width:0.5;" x1="555" x2="739" y1="784.7168" y2="784.7168"/></g><!--class Exam--><g id="elem_Exam"><rect codeLine="23" fill="#F1F1F1" height="68.543" id="Exam" rx="2.5" ry="2.5" style="stroke:#181818;stroke-width:0.5;" width="71" x="1464.5" y="253.6348"/><ellipse cx="1479.5" cy="283.9063" fill="#ADD1B2" rx="11" ry="11" style="stroke:#181818;stroke-width:1.0;"/><path d="M1478.3594,284.7031 L1478.3594,287.2031 L1482.6875,287.2031 L1482.6875,286.2813 Q1482.6875,285.6719 1482.9219,285.4063 Q1483.1719,285.1406 1483.5469,285.1406 Q1483.9219,285.1406 1484.1563,285.4063 Q1484.3906,285.6719 1484.3906,286.2813 L1484.3906,288.9063 L1476.3906,288.9063 Q1475.7656,288.9063 1475.5,288.6719 Q1475.25,288.4375 1475.25,288.0469 Q1475.25,287.6719 1475.5156,287.4375 Q1475.7813,287.2031 1476.3906,287.2031 L1476.6563,287.2031 L1476.6563,280.5469 L1476.3906,280.5469 Q1475.7656,280.5469 1475.5,280.3125 Q1475.25,280.0781 1475.25,279.6875 Q1475.25,279.3125 1475.5,279.0781 Q1475.7656,278.8438 1476.3906,278.8438 L1484.0156,278.8438 L1484.0156,281.4375 Q1484.0156,282.0469 1483.7813,282.3125 Q1483.5625,282.5625 1483.1719,282.5625 Q1482.7969,282.5625 1482.5625,282.3125 Q1482.3281,282.0469 1482.3281,281.4375 L1482.3281,280.5469 L1478.3594,280.5469 L1478.3594,283 L1479.8438,283 Q1479.8438,282.3438 1479.9688,282.1563 Q1480.2344,281.75 1480.7031,281.75 Q1481.0781,281.75 1481.3125,282.0156 Q1481.5469,282.2656 1481.5469,282.875 L1481.5469,284.8438 Q1481.5469,285.3906 1481.4219,285.5781 Q1481.1563,285.9688 1480.7031,285.9688 Q1480.2344,285.9688 1479.9688,285.5625 Q1479.8438,285.375 1479.8438,284.7031 L1478.3594,284.7031 Z " fill="#000000"/><text fill="#000000" font-family="sans-serif" font-size="12" font-style="italic" lengthAdjust="spacing" textLength="43" x="1491.5" y="271.584">&#171;entity&#187;</text><text fill="#000000" font-family="sans-serif" font-size="12" font-style="italic" lengthAdjust="spacing" textLength="35" x="1495.5" y="287.5449">&#171;root&#187;</text><text fill="#000000" font-family="sans-serif" font-size="14" lengthAdjust="spacing" textLength="34" x="1496" y="305.6641">Exam</text><line style="stroke:#181818;stroke-width:0.5;" x1="1465.5" x2="1534.5" y1="314.1777" y2="314.1777"/></g><!--class Course--><g id="elem_Course"><rect codeLine="28" fill="#F1F1F1" height="68.543" id="Course" rx="2.5" ry="2.5" style="stroke:#181818;stroke-width:0.5;" width="78" x="1013" y="253.6348"/><ellipse cx="1028" cy="283.9063" fill="#ADD1B2" rx="11" ry="11" style="stroke:#181818;stroke-width:1.0;"/><path d="M1026.8594,284.7031 L1026.8594,287.2031 L1031.1875,287.2031 L1031.1875,286.2813 Q1031.1875,285.6719 1031.4219,285.4063 Q1031.6719,285.1406 1032.0469,285.1406 Q1032.4219,285.1406 1032.6563,285.4063 Q1032.8906,285.6719 1032.8906,286.2813 L1032.8906,288.9063 L1024.8906,288.9063 Q1024.2656,288.9063 1024,288.6719 Q1023.75,288.4375 1023.75,288.0469 Q1023.75,287.6719 1024.0156,287.4375 Q1024.2813,287.2031 1024.8906,287.2031 L1025.1563,287.2031 L1025.1563,280.5469 L1024.8906,280.5469 Q1024.2656,280.5469 1024,280.3125 Q1023.75,280.0781 1023.75,279.6875 Q1023.75,279.3125 1024,279.0781 Q1024.2656,278.8438 1024.8906,278.8438 L1032.5156,278.8438 L1032.5156,281.4375 Q1032.5156,282.0469 1032.2813,282.3125 Q1032.0625,282.5625 1031.6719,282.5625 Q1031.2969,282.5625 1031.0625,282.3125 Q1030.8281,282.0469 1030.8281,281.4375 L1030.8281,280.5469 L1026.8594,280.5469 L1026.8594,283 L1028.3438,283 Q1028.3438,282.3438 1028.4688,282.1563 Q1028.7344,281.75 1029.2031,281.75 Q1029.5781,281.75 1029.8125,282.0156 Q1030.0469,282.2656 1030.0469,282.875 L1030.0469,284.8438 Q1030.0469,285.3906 1029.9219,285.5781 Q1029.6563,285.9688 1029.2031,285.9688 Q1028.7344,285.9688 1028.4688,285.5625 Q1028.3438,285.375 1028.3438,284.7031 L1026.8594,284.7031 Z " fill="#000000"/><text fill="#000000" font-family="sans-serif" font-size="12" font-style="italic" lengthAdjust="spacing" textLength="43" x="1043.5" y="271.584">&#171;entity&#187;</text><text fill="#000000" font-family="sans-serif" font-size="12" font-style="italic" lengthAdjust="spacing" textLength="35" x="1047.5" y="287.5449">&#171;root&#187;</text><text fill="#000000" font-family="sans-serif" font-size="14" lengthAdjust="spacing" textLength="46" x="1042" y="305.6641">Course</text><line style="stroke:#181818;stroke-width:0.5;" x1="1014" x2="1090" y1="314.1777" y2="314.1777"/></g><!--class CourseTitle--><g id="elem_CourseTitle"><rect codeLine="29" fill="#F1F1F1" height="52.582" id="CourseTitle" rx="2.5" ry="2.5" style="stroke:#181818;stroke-width:0.5;" width="109" x="484.5" y="434.6348"/><ellipse cx="499.5" cy="456.9258" fill="#FF8B40" rx="11" ry="11" style="stroke:#181818;stroke-width:1.0;"/><path d="M500.0938,460.1914 L502.5625,454.3164 L502.1719,454.3164 Q501.5625,454.3164 501.2969,454.082 Q501.0313,453.8477 501.0313,453.457 Q501.0313,453.082 501.2969,452.8477 Q501.5625,452.6133 502.1719,452.6133 L504.4531,452.6133 Q505.0625,452.6133 505.3281,452.8477 Q505.5938,453.082 505.5938,453.457 Q505.5938,453.9258 505.1875,454.1914 Q505,454.3164 504.4063,454.3164 L500.9219,462.6758 L499.2813,462.6758 L495.7969,454.3164 Q495.2031,454.3164 495.0156,454.1914 Q494.6094,453.9258 494.6094,453.457 Q494.6094,453.082 494.875,452.8477 Q495.1406,452.6133 495.75,452.6133 L498.0469,452.6133 Q498.6563,452.6133 498.9063,452.8477 Q499.1719,453.082 499.1719,453.457 Q499.1719,453.8477 498.9063,454.082 Q498.6563,454.3164 498.0469,454.3164 L497.6406,454.3164 L500.0938,460.1914 Z " fill="#000000"/><text fill="#000000" font-family="sans-serif" font-size="12" font-style="italic" lengthAdjust="spacing" textLength="81" x="511.5" y="452.584">&#171;value object&#187;</text><text fill="#000000" font-family="sans-serif" font-size="14" lengthAdjust="spacing" textLength="73" x="515.5" y="470.7031">CourseTitle</text><line style="stroke:#181818;stroke-width:0.5;" x1="485.5" x2="592.5" y1="479.2168" y2="479.2168"/></g><!--class CourseCode--><g id="elem_CourseCode"><rect codeLine="30" fill="#F1F1F1" height="52.582" id="CourseCode" rx="2.5" ry="2.5" style="stroke:#181818;stroke-width:0.5;" width="112" x="629" y="434.6348"/><ellipse cx="644" cy="456.9258" fill="#FF8B40" rx="11" ry="11" style="stroke:#181818;stroke-width:1.0;"/><path d="M644.5938,460.1914 L647.0625,454.3164 L646.6719,454.3164 Q646.0625,454.3164 645.7969,454.082 Q645.5313,453.8477 645.5313,453.457 Q645.5313,453.082 645.7969,452.8477 Q646.0625,452.6133 646.6719,452.6133 L648.9531,452.6133 Q649.5625,452.6133 649.8281,452.8477 Q650.0938,453.082 650.0938,453.457 Q650.0938,453.9258 649.6875,454.1914 Q649.5,454.3164 648.9063,454.3164 L645.4219,462.6758 L643.7813,462.6758 L640.2969,454.3164 Q639.7031,454.3164 639.5156,454.1914 Q639.1094,453.9258 639.1094,453.457 Q639.1094,453.082 639.375,452.8477 Q639.6406,452.6133 640.25,452.6133 L642.5469,452.6133 Q643.1563,452.6133 643.4063,452.8477 Q643.6719,453.082 643.6719,453.457 Q643.6719,453.8477 643.4063,454.082 Q643.1563,454.3164 642.5469,454.3164 L642.1406,454.3164 L644.5938,460.1914 Z " fill="#000000"/><text fill="#000000" font-family="sans-serif" font-size="12" font-style="italic" lengthAdjust="spacing" textLength="81" x="657.5" y="452.584">&#171;value object&#187;</text><text fill="#000000" font-family="sans-serif" font-size="14" lengthAdjust="spacing" textLength="80" x="658" y="470.7031">CourseCode</text><line style="stroke:#181818;stroke-width:0.5;" x1="630" x2="740" y1="479.2168" y2="479.2168"/></g><!--class CourseDescription--><g id="elem_CourseDescription"><rect codeLine="31" fill="#F1F1F1" height="52.582" id="CourseDescription" rx="2.5" ry="2.5" style="stroke:#181818;stroke-width:0.5;" width="149" x="776.5" y="434.6348"/><ellipse cx="791.5" cy="456.9258" fill="#FF8B40" rx="11" ry="11" style="stroke:#181818;stroke-width:1.0;"/><path d="M792.0938,460.1914 L794.5625,454.3164 L794.1719,454.3164 Q793.5625,454.3164 793.2969,454.082 Q793.0313,453.8477 793.0313,453.457 Q793.0313,453.082 793.2969,452.8477 Q793.5625,452.6133 794.1719,452.6133 L796.4531,452.6133 Q797.0625,452.6133 797.3281,452.8477 Q797.5938,453.082 797.5938,453.457 Q797.5938,453.9258 797.1875,454.1914 Q797,454.3164 796.4063,454.3164 L792.9219,462.6758 L791.2813,462.6758 L787.7969,454.3164 Q787.2031,454.3164 787.0156,454.1914 Q786.6094,453.9258 786.6094,453.457 Q786.6094,453.082 786.875,452.8477 Q787.1406,452.6133 787.75,452.6133 L790.0469,452.6133 Q790.6563,452.6133 790.9063,452.8477 Q791.1719,453.082 791.1719,453.457 Q791.1719,453.8477 790.9063,454.082 Q790.6563,454.3164 790.0469,454.3164 L789.6406,454.3164 L792.0938,460.1914 Z " fill="#000000"/><text fill="#000000" font-family="sans-serif" font-size="12" font-style="italic" lengthAdjust="spacing" textLength="81" x="823.5" y="452.584">&#171;value object&#187;</text><text fill="#000000" font-family="sans-serif" font-size="14" lengthAdjust="spacing" textLength="117" x="805.5" y="470.7031">CourseDescription</text><line style="stroke:#181818;stroke-width:0.5;" x1="777.5" x2="924.5" y1="479.2168" y2="479.2168"/></g><!--class CourseStatus--><g id="elem_CourseStatus"><rect codeLine="32" fill="#F1F1F1" height="52.582" id="CourseStatus" rx="2.5" ry="2.5" style="stroke:#181818;stroke-width:0.5;" width="118" x="961" y="434.6348"/><ellipse cx="976" cy="456.9258" fill="#FF8B40" rx="11" ry="11" style="stroke:#181818;stroke-width:1.0;"/><path d="M976.5938,460.1914 L979.0625,454.3164 L978.6719,454.3164 Q978.0625,454.3164 977.7969,454.082 Q977.5313,453.8477 977.5313,453.457 Q977.5313,453.082 977.7969,452.8477 Q978.0625,452.6133 978.6719,452.6133 L980.9531,452.6133 Q981.5625,452.6133 981.8281,452.8477 Q982.0938,453.082 982.0938,453.457 Q982.0938,453.9258 981.6875,454.1914 Q981.5,454.3164 980.9063,454.3164 L977.4219,462.6758 L975.7813,462.6758 L972.2969,454.3164 Q971.7031,454.3164 971.5156,454.1914 Q971.1094,453.9258 971.1094,453.457 Q971.1094,453.082 971.375,452.8477 Q971.6406,452.6133 972.25,452.6133 L974.5469,452.6133 Q975.1563,452.6133 975.4063,452.8477 Q975.6719,453.082 975.6719,453.457 Q975.6719,453.8477 975.4063,454.082 Q975.1563,454.3164 974.5469,454.3164 L974.1406,454.3164 L976.5938,460.1914 Z " fill="#000000"/><text fill="#000000" font-family="sans-serif" font-size="12" font-style="italic" lengthAdjust="spacing" textLength="81" x="992.5" y="452.584">&#171;value object&#187;</text><text fill="#000000" font-family="sans-serif" font-size="14" lengthAdjust="spacing" textLength="86" x="990" y="470.7031">CourseStatus</text><line style="stroke:#181818;stroke-width:0.5;" x1="962" x2="1078" y1="479.2168" y2="479.2168"/></g><!--class CourseEnrolmentLimits--><g id="elem_CourseEnrolmentLimits"><rect codeLine="33" fill="#F1F1F1" height="89.8242" id="CourseEnrolmentLimits" rx="2.5" ry="2.5" style="stroke:#181818;stroke-width:0.5;" width="178" x="1114" y="416.1348"/><ellipse cx="1129" cy="438.4258" fill="#FF8B40" rx="11" ry="11" style="stroke:#181818;stroke-width:1.0;"/><path d="M1129.5938,441.6914 L1132.0625,435.8164 L1131.6719,435.8164 Q1131.0625,435.8164 1130.7969,435.582 Q1130.5313,435.3477 1130.5313,434.957 Q1130.5313,434.582 1130.7969,434.3477 Q1131.0625,434.1133 1131.6719,434.1133 L1133.9531,434.1133 Q1134.5625,434.1133 1134.8281,434.3477 Q1135.0938,434.582 1135.0938,434.957 Q1135.0938,435.4258 1134.6875,435.6914 Q1134.5,435.8164 1133.9063,435.8164 L1130.4219,444.1758 L1128.7813,444.1758 L1125.2969,435.8164 Q1124.7031,435.8164 1124.5156,435.6914 Q1124.1094,435.4258 1124.1094,434.957 Q1124.1094,434.582 1124.375,434.3477 Q1124.6406,434.1133 1125.25,434.1133 L1127.5469,434.1133 Q1128.1563,434.1133 1128.4063,434.3477 Q1128.6719,434.582 1128.6719,434.957 Q1128.6719,435.3477 1128.4063,435.582 Q1128.1563,435.8164 1127.5469,435.8164 L1127.1406,435.8164 L1129.5938,441.6914 Z " fill="#000000"/><text fill="#000000" font-family="sans-serif" font-size="12" font-style="italic" lengthAdjust="spacing" textLength="81" x="1175.5" y="434.084">&#171;value object&#187;</text><text fill="#000000" font-family="sans-serif" font-size="14" lengthAdjust="spacing" textLength="146" x="1143" y="452.2031">CourseEnrolmentLimits</text><line style="stroke:#181818;stroke-width:0.5;" x1="1115" x2="1291" y1="460.7168" y2="460.7168"/><text fill="#000000" font-family="sans-serif" font-size="14" lengthAdjust="spacing" textLength="126" x="1120" y="479.8242">minimumEnrolments</text><text fill="#000000" font-family="sans-serif" font-size="14" lengthAdjust="spacing" textLength="129" x="1120" y="498.4453">maximumEnrolments</text></g><!--class Enrollment--><g id="elem_Enrollment"><rect codeLine="41" fill="#F1F1F1" height="68.543" id="Enrollment" rx="2.5" ry="2.5" style="stroke:#181818;stroke-width:0.5;" width="99" x="1348.5" y="426.6348"/><ellipse cx="1363.5" cy="456.9063" fill="#ADD1B2" rx="11" ry="11" style="stroke:#181818;stroke-width:1.0;"/><path d="M1362.3594,457.7031 L1362.3594,460.2031 L1366.6875,460.2031 L1366.6875,459.2813 Q1366.6875,458.6719 1366.9219,458.4063 Q1367.1719,458.1406 1367.5469,458.1406 Q1367.9219,458.1406 1368.1563,458.4063 Q1368.3906,458.6719 1368.3906,459.2813 L1368.3906,461.9063 L1360.3906,461.9063 Q1359.7656,461.9063 1359.5,461.6719 Q1359.25,461.4375 1359.25,461.0469 Q1359.25,460.6719 1359.5156,460.4375 Q1359.7813,460.2031 1360.3906,460.2031 L1360.6563,460.2031 L1360.6563,453.5469 L1360.3906,453.5469 Q1359.7656,453.5469 1359.5,453.3125 Q1359.25,453.0781 1359.25,452.6875 Q1359.25,452.3125 1359.5,452.0781 Q1359.7656,451.8438 1360.3906,451.8438 L1368.0156,451.8438 L1368.0156,454.4375 Q1368.0156,455.0469 1367.7813,455.3125 Q1367.5625,455.5625 1367.1719,455.5625 Q1366.7969,455.5625 1366.5625,455.3125 Q1366.3281,455.0469 1366.3281,454.4375 L1366.3281,453.5469 L1362.3594,453.5469 L1362.3594,456 L1363.8438,456 Q1363.8438,455.3438 1363.9688,455.1563 Q1364.2344,454.75 1364.7031,454.75 Q1365.0781,454.75 1365.3125,455.0156 Q1365.5469,455.2656 1365.5469,455.875 L1365.5469,457.8438 Q1365.5469,458.3906 1365.4219,458.5781 Q1365.1563,458.9688 1364.7031,458.9688 Q1364.2344,458.9688 1363.9688,458.5625 Q1363.8438,458.375 1363.8438,457.7031 L1362.3594,457.7031 Z " fill="#000000"/><text fill="#000000" font-family="sans-serif" font-size="12" font-style="italic" lengthAdjust="spacing" textLength="43" x="1389.5" y="444.584">&#171;entity&#187;</text><text fill="#000000" font-family="sans-serif" font-size="12" font-style="italic" lengthAdjust="spacing" textLength="35" x="1393.5" y="460.5449">&#171;root&#187;</text><text fill="#000000" font-family="sans-serif" font-size="14" lengthAdjust="spacing" textLength="67" x="1377.5" y="478.6641">Enrollment</text><line style="stroke:#181818;stroke-width:0.5;" x1="1349.5" x2="1446.5" y1="487.1777" y2="487.1777"/></g><!--class EnrollmentStatus--><g id="elem_EnrollmentStatus"><rect codeLine="42" fill="#F1F1F1" height="52.582" id="EnrollmentStatus" rx="2.5" ry="2.5" style="stroke:#181818;stroke-width:0.5;" width="139" x="1348.5" y="618.1348"/><ellipse cx="1363.5" cy="640.4258" fill="#FF8B40" rx="11" ry="11" style="stroke:#181818;stroke-width:1.0;"/><path d="M1364.0938,643.6914 L1366.5625,637.8164 L1366.1719,637.8164 Q1365.5625,637.8164 1365.2969,637.582 Q1365.0313,637.3477 1365.0313,636.957 Q1365.0313,636.582 1365.2969,636.3477 Q1365.5625,636.1133 1366.1719,636.1133 L1368.4531,636.1133 Q1369.0625,636.1133 1369.3281,636.3477 Q1369.5938,636.582 1369.5938,636.957 Q1369.5938,637.4258 1369.1875,637.6914 Q1369,637.8164 1368.4063,637.8164 L1364.9219,646.1758 L1363.2813,646.1758 L1359.7969,637.8164 Q1359.2031,637.8164 1359.0156,637.6914 Q1358.6094,637.4258 1358.6094,636.957 Q1358.6094,636.582 1358.875,636.3477 Q1359.1406,636.1133 1359.75,636.1133 L1362.0469,636.1133 Q1362.6563,636.1133 1362.9063,636.3477 Q1363.1719,636.582 1363.1719,636.957 Q1363.1719,637.3477 1362.9063,637.582 Q1362.6563,637.8164 1362.0469,637.8164 L1361.6406,637.8164 L1364.0938,643.6914 Z " fill="#000000"/><text fill="#000000" font-family="sans-serif" font-size="12" font-style="italic" lengthAdjust="spacing" textLength="81" x="1390.5" y="636.084">&#171;value object&#187;</text><text fill="#000000" font-family="sans-serif" font-size="14" lengthAdjust="spacing" textLength="107" x="1377.5" y="654.2031">EnrollmentStatus</text><line style="stroke:#181818;stroke-width:0.5;" x1="1349.5" x2="1486.5" y1="662.7168" y2="662.7168"/></g><!--class Teacher--><g id="elem_Teacher"><rect codeLine="47" fill="#F1F1F1" height="68.543" id="Teacher" rx="2.5" ry="2.5" style="stroke:#181818;stroke-width:0.5;" width="85" x="1556.5" y="426.6348"/><ellipse cx="1571.5" cy="456.9063" fill="#ADD1B2" rx="11" ry="11" style="stroke:#181818;stroke-width:1.0;"/><path d="M1570.3594,457.7031 L1570.3594,460.2031 L1574.6875,460.2031 L1574.6875,459.2813 Q1574.6875,458.6719 1574.9219,458.4063 Q1575.1719,458.1406 1575.5469,458.1406 Q1575.9219,458.1406 1576.1563,458.4063 Q1576.3906,458.6719 1576.3906,459.2813 L1576.3906,461.9063 L1568.3906,461.9063 Q1567.7656,461.9063 1567.5,461.6719 Q1567.25,461.4375 1567.25,461.0469 Q1567.25,460.6719 1567.5156,460.4375 Q1567.7813,460.2031 1568.3906,460.2031 L1568.6563,460.2031 L1568.6563,453.5469 L1568.3906,453.5469 Q1567.7656,453.5469 1567.5,453.3125 Q1567.25,453.0781 1567.25,452.6875 Q1567.25,452.3125 1567.5,452.0781 Q1567.7656,451.8438 1568.3906,451.8438 L1576.0156,451.8438 L1576.0156,454.4375 Q1576.0156,455.0469 1575.7813,455.3125 Q1575.5625,455.5625 1575.1719,455.5625 Q1574.7969,455.5625 1574.5625,455.3125 Q1574.3281,455.0469 1574.3281,454.4375 L1574.3281,453.5469 L1570.3594,453.5469 L1570.3594,456 L1571.8438,456 Q1571.8438,455.3438 1571.9688,455.1563 Q1572.2344,454.75 1572.7031,454.75 Q1573.0781,454.75 1573.3125,455.0156 Q1573.5469,455.2656 1573.5469,455.875 L1573.5469,457.8438 Q1573.5469,458.3906 1573.4219,458.5781 Q1573.1563,458.9688 1572.7031,458.9688 Q1572.2344,458.9688 1571.9688,458.5625 Q1571.8438,458.375 1571.8438,457.7031 L1570.3594,457.7031 Z " fill="#000000"/><text fill="#000000" font-family="sans-serif" font-size="12" font-style="italic" lengthAdjust="spacing" textLength="43" x="1590.5" y="444.584">&#171;entity&#187;</text><text fill="#000000" font-family="sans-serif" font-size="12" font-style="italic" lengthAdjust="spacing" textLength="35" x="1594.5" y="460.5449">&#171;root&#187;</text><text fill="#000000" font-family="sans-serif" font-size="14" lengthAdjust="spacing" textLength="53" x="1585.5" y="478.6641">Teacher</text><line style="stroke:#181818;stroke-width:0.5;" x1="1557.5" x2="1640.5" y1="487.1777" y2="487.1777"/></g><!--class Acronym--><g id="elem_Acronym"><rect codeLine="48" fill="#F1F1F1" height="52.582" id="Acronym" rx="2.5" ry="2.5" style="stroke:#181818;stroke-width:0.5;" width="109" x="1556.5" y="618.1348"/><ellipse cx="1571.5" cy="640.4258" fill="#FF8B40" rx="11" ry="11" style="stroke:#181818;stroke-width:1.0;"/><path d="M1572.0938,643.6914 L1574.5625,637.8164 L1574.1719,637.8164 Q1573.5625,637.8164 1573.2969,637.582 Q1573.0313,637.3477 1573.0313,636.957 Q1573.0313,636.582 1573.2969,636.3477 Q1573.5625,636.1133 1574.1719,636.1133 L1576.4531,636.1133 Q1577.0625,636.1133 1577.3281,636.3477 Q1577.5938,636.582 1577.5938,636.957 Q1577.5938,637.4258 1577.1875,637.6914 Q1577,637.8164 1576.4063,637.8164 L1572.9219,646.1758 L1571.2813,646.1758 L1567.7969,637.8164 Q1567.2031,637.8164 1567.0156,637.6914 Q1566.6094,637.4258 1566.6094,636.957 Q1566.6094,636.582 1566.875,636.3477 Q1567.1406,636.1133 1567.75,636.1133 L1570.0469,636.1133 Q1570.6563,636.1133 1570.9063,636.3477 Q1571.1719,636.582 1571.1719,636.957 Q1571.1719,637.3477 1570.9063,637.582 Q1570.6563,637.8164 1570.0469,637.8164 L1569.6406,637.8164 L1572.0938,643.6914 Z " fill="#000000"/><text fill="#000000" font-family="sans-serif" font-size="12" font-style="italic" lengthAdjust="spacing" textLength="81" x="1583.5" y="636.084">&#171;value object&#187;</text><text fill="#000000" font-family="sans-serif" font-size="14" lengthAdjust="spacing" textLength="55" x="1596.5" y="654.2031">Acronym</text><line style="stroke:#181818;stroke-width:0.5;" x1="1557.5" x2="1664.5" y1="662.7168" y2="662.7168"/></g><!--link TakenExam to TakenExamDateTime--><g id="link_TakenExam_TakenExamDateTime"><path codeLine="51" d="M245.21,151.9248 C213.28,182.9348 166.47,228.4048 136.11,257.8848 " fill="none" id="TakenExam-to-TakenExamDateTime" style="stroke:#181818;stroke-width:1.0;"/><polygon fill="#181818" points="132.5,261.4048,141.7415,257.9996,136.0852,257.9196,136.1652,252.2633,132.5,261.4048" style="stroke:#181818;stroke-width:1.0;"/></g><!--link TakenExam to Grade--><g id="link_TakenExam_Grade"><path codeLine="52" d="M279.8,151.9248 C279.62,182.3048 279.36,226.5548 279.18,256.0648 " fill="none" id="TakenExam-to-Grade" style="stroke:#181818;stroke-width:1.0;"/><polygon fill="#181818" points="279.15,261.4048,283.2014,252.4278,279.1786,256.4048,275.2015,252.3821,279.15,261.4048" style="stroke:#181818;stroke-width:1.0;"/></g><!--link TakenExam to Student--><g id="link_TakenExam_Student"><path codeLine="53" d="M311.14,151.7648 C324.87,167.9948 340.29,188.3248 351,208.6348 C421.93,343.1348 370.08,413.8048 468,530.1348 C504.43,573.4148 561.67,605.6548 601.58,624.4948 " fill="none" id="TakenExam-to-Student" style="stroke:#181818;stroke-width:1.0;"/><polygon fill="#181818" points="606.36,626.7248,599.8972,619.2929,601.8294,624.6096,596.5128,626.5418,606.36,626.7248" style="stroke:#181818;stroke-width:1.0;"/><polygon fill="#000000" points="406.6174,368.5405,404.3865,359.2952,399.3784,362.3722,406.6174,368.5405" style="stroke:#000000;stroke-width:1.0;"/><text fill="#000000" font-family="sans-serif" font-size="13" lengthAdjust="spacing" textLength="50" x="413" y="369.6631">taken by</text><text fill="#000000" font-family="sans-serif" font-size="13" lengthAdjust="spacing" textLength="20" x="294.7734" y="173.2703">0..*</text><text fill="#000000" font-family="sans-serif" font-size="13" lengthAdjust="spacing" textLength="7" x="591.4976" y="619.1154">1</text></g><!--link TakenExam to Exam--><g id="link_TakenExam_Exam"><path codeLine="54" d="M333.04,120.7048 C515.99,129.8748 1119.74,162.9748 1308,208.6348 C1362.48,221.8448 1421.7,248.0248 1459.75,266.5048 " fill="none" id="TakenExam-to-Exam" style="stroke:#181818;stroke-width:1.0;"/><polygon fill="#181818" points="1464.28,268.7148,1457.9609,261.1604,1459.7908,266.5131,1454.4382,268.3431,1464.28,268.7148" style="stroke:#181818;stroke-width:1.0;"/><polygon fill="#000000" points="1270.9587,191.9219,1262.3655,187.8465,1261.6112,193.6758,1270.9587,191.9219" style="stroke:#000000;stroke-width:1.0;"/><text fill="#000000" font-family="sans-serif" font-size="13" lengthAdjust="spacing" textLength="10" x="1275" y="196.6631">is</text><text fill="#000000" font-family="sans-serif" font-size="13" lengthAdjust="spacing" textLength="20" x="341.117" y="117.1494">0..*</text><text fill="#000000" font-family="sans-serif" font-size="13" lengthAdjust="spacing" textLength="7" x="1449.5586" y="260.32">1</text></g><!--link Course to CourseTitle--><g id="link_Course_CourseTitle"><path codeLine="56" d="M1012.95,289.4848 C932.44,291.8148 744.41,305.6648 611,381.6348 C590.26,393.4448 572.13,413.2948 559.25,430.0848 " fill="none" id="Course-to-CourseTitle" style="stroke:#181818;stroke-width:1.0;"/><polygon fill="#181818" points="556.09,434.2748,564.69,429.4748,559.09,430.2748,558.29,424.6748,556.09,434.2748" style="stroke:#181818;stroke-width:1.0;"/></g><!--link Course to CourseCode--><g id="link_Course_CourseCode"><path codeLine="57" d="M1012.84,295.0048 C954.01,305.1848 841.01,330.1748 759,381.6348 C738.67,394.3948 720.15,414.0448 706.73,430.4948 " fill="none" id="Course-to-CourseCode" style="stroke:#181818;stroke-width:1.0;"/><polygon fill="#181818" points="703.42,434.6048,712.1818,430.1069,706.5574,430.7116,705.9527,425.0871,703.42,434.6048" style="stroke:#181818;stroke-width:1.0;"/></g><!--link Course to CourseDescription--><g id="link_Course_CourseDescription"><path codeLine="58" d="M1012.77,322.5148 C975.77,353.9848 920.86,400.7048 885.5,430.7848 " fill="none" id="Course-to-CourseDescription" style="stroke:#181818;stroke-width:1.0;"/><polygon fill="#181818" points="881.28,434.3748,890.7277,431.5927,885.0893,431.1361,885.5459,425.4977,881.28,434.3748" style="stroke:#181818;stroke-width:1.0;"/></g><!--link Course to CourseStatus--><g id="link_Course_CourseStatus"><path codeLine="59" d="M1045.68,322.9148 C1039.88,353.9248 1031.35,399.4648 1025.74,429.4548 " fill="none" id="Course-to-CourseStatus" style="stroke:#181818;stroke-width:1.0;"/><polygon fill="#181818" points="1024.8,434.4948,1030.3787,426.3782,1025.7145,429.5791,1022.5137,424.915,1024.8,434.4948" style="stroke:#181818;stroke-width:1.0;"/></g><!--link Course to CourseEnrolmentLimits--><g id="link_Course_CourseEnrolmentLimits"><path codeLine="60" d="M1069.6,322.7948 C1078.8,338.9548 1090.87,358.1148 1104,373.6348 C1115.52,387.2548 1129.23,400.6148 1142.73,412.6148 " fill="none" id="Course-to-CourseEnrolmentLimits" style="stroke:#181818;stroke-width:1.0;"/><polygon fill="#181818" points="1146.53,415.9648,1142.4246,407.0124,1142.7796,412.6581,1137.1339,413.0131,1146.53,415.9648" style="stroke:#181818;stroke-width:1.0;"/></g><!--link Course to Teacher--><g id="link_Course_Teacher"><path codeLine="61" d="M1091.08,306.7848 C1120.27,319.9648 1161.13,338.4248 1197,354.6348 C1215.67,363.0748 1219.04,369.0148 1239,373.6348 C1267.7,380.2748 1476.43,371.2448 1504,381.6348 C1527.08,390.3348 1548.64,407.1148 1565.36,422.9348 " fill="none" id="Course-to-Teacher" style="stroke:#181818;stroke-width:1.0;"/><polygon fill="#181818" points="1569.08,426.5048,1565.3779,417.3782,1565.4808,423.0341,1559.8249,423.1369,1569.08,426.5048" style="stroke:#181818;stroke-width:1.0;"/><polygon fill="#000000" points="1248.8565,365.4696,1240.7701,360.4635,1239.3719,366.1726,1248.8565,365.4696" style="stroke:#000000;stroke-width:1.0;"/><text fill="#000000" font-family="sans-serif" font-size="13" lengthAdjust="spacing" textLength="91" x="1253" y="369.6631">has responsible</text><text fill="#000000" font-family="sans-serif" font-size="13" lengthAdjust="spacing" textLength="7" x="1098.9307" y="325.8878">1</text><text fill="#000000" font-family="sans-serif" font-size="13" lengthAdjust="spacing" textLength="7" x="1555.7093" y="415.3827">1</text></g><!--link Course to Teacher--><g id="link_Course_Teacher"><path codeLine="62" d="M1091.09,297.0648 C1200.43,319.2748 1501.63,380.5048 1504,381.6348 C1525.53,391.9348 1546.34,408.1648 1562.96,423.2048 " fill="none" id="Course-to-Teacher-1" style="stroke:#181818;stroke-width:1.0;"/><polygon fill="#181818" points="1566.66,426.5948,1562.738,417.5605,1562.9778,423.2123,1557.326,423.452,1566.66,426.5948" style="stroke:#181818;stroke-width:1.0;"/><polygon fill="#000000" points="1473.8304,365.5715,1465.8511,360.3964,1464.3332,366.0749,1473.8304,365.5715" style="stroke:#000000;stroke-width:1.0;"/><text fill="#000000" font-family="sans-serif" font-size="13" lengthAdjust="spacing" textLength="50" x="1478" y="369.6631">is taught</text><text fill="#000000" font-family="sans-serif" font-size="13" lengthAdjust="spacing" textLength="20" x="1098.9137" y="294.2212">1..*</text><text fill="#000000" font-family="sans-serif" font-size="13" lengthAdjust="spacing" textLength="20" x="1538.5889" y="415.4899">1..*</text></g><!--link Course to Enrollment--><g id="link_Course_Enrollment"><path codeLine="63" d="M1083.07,322.9248 C1102.37,341.4848 1128.81,362.8548 1157,373.6348 C1188.39,385.6348 1276.86,369.0148 1308,381.6348 C1329.79,390.4648 1349.93,406.8748 1365.61,422.4148 " fill="none" id="Course-to-Enrollment" style="stroke:#181818;stroke-width:1.0;"/><polygon fill="#181818" points="1369.5,426.3448,1366.0016,417.1382,1365.9788,422.795,1360.3219,422.7722,1369.5,426.3448" style="stroke:#181818;stroke-width:1.0;"/><polygon fill="#000000" points="1166.7162,365.941,1159.1607,360.1647,1157.2084,365.7088,1166.7162,365.941" style="stroke:#000000;stroke-width:1.0;"/><text fill="#000000" font-family="sans-serif" font-size="13" lengthAdjust="spacing" textLength="21" x="1171" y="369.6631">has</text><text fill="#000000" font-family="sans-serif" font-size="13" lengthAdjust="spacing" textLength="7" x="1080.6363" y="344.1849">1</text><text fill="#000000" font-family="sans-serif" font-size="13" lengthAdjust="spacing" textLength="20" x="1342.4016" y="415.4605">0..*</text></g><!--link Enrollment to Student--><g id="link_Enrollment_Student"><path codeLine="65" d="M1361.57,495.9648 C1346.11,508.5648 1327.23,521.8148 1308,530.1348 C1091.32,623.9348 803.17,640.3548 692.73,643.1248 " fill="none" id="Enrollment-to-Student" style="stroke:#181818;stroke-width:1.0;"/><polygon fill="#181818" points="687.61,643.2448,696.7098,647.0121,692.6083,643.1162,696.5042,639.0147,687.61,643.2448" style="stroke:#181818;stroke-width:1.0;"/><text fill="#000000" font-family="sans-serif" font-size="13" lengthAdjust="spacing" textLength="21" x="1275" y="553.1631">has</text><text fill="#000000" font-family="sans-serif" font-size="13" lengthAdjust="spacing" textLength="20" x="1333.88" y="517.2316">1..*</text><text fill="#000000" font-family="sans-serif" font-size="13" lengthAdjust="spacing" textLength="7" x="695.4671" y="638.5781">1</text></g><!--link Student to MechanographicNumber--><g id="link_Student_MechanographicNumber"><path codeLine="67" d="M647,679.3848 C647,696.8448 647,718.0048 647,734.9948 " fill="none" id="Student-to-MechanographicNumber" style="stroke:#181818;stroke-width:1.0;"/><polygon fill="#181818" points="647,740.1248,651,731.1248,647,735.1248,643,731.1248,647,740.1248" style="stroke:#181818;stroke-width:1.0;"/></g><!--link Enrollment to EnrollmentStatus--><g id="link_Enrollment_EnrollmentStatus"><path codeLine="69" d="M1401.71,495.8448 C1405.41,529.4248 1411.04,580.5048 1414.62,612.9648 " fill="none" id="Enrollment-to-EnrollmentStatus" style="stroke:#181818;stroke-width:1.0;"/><polygon fill="#181818" points="1415.18,618.0148,1418.1794,608.6337,1414.6372,613.0443,1410.2267,609.5021,1415.18,618.0148" style="stroke:#181818;stroke-width:1.0;"/></g><!--link Teacher to Acronym--><g id="link_Teacher_Acronym"><path codeLine="71" d="M1601.23,495.8448 C1603.45,529.4248 1606.83,580.5048 1608.97,612.9648 " fill="none" id="Teacher-to-Acronym" style="stroke:#181818;stroke-width:1.0;"/><polygon fill="#181818" points="1609.31,618.0148,1612.7095,608.7712,1608.9812,613.0256,1604.7268,609.2973,1609.31,618.0148" style="stroke:#181818;stroke-width:1.0;"/></g><!--link Exam to Teacher--><g id="link_Exam_Teacher"><path codeLine="73" d="M1519.56,322.9148 C1536.03,351.3748 1559.6,392.0748 1576.78,421.7548 " fill="none" id="Exam-to-Teacher" style="stroke:#181818;stroke-width:1.0;"/><polygon fill="#181818" points="1579.48,426.4248,1578.4184,416.6333,1576.9686,422.1012,1571.5007,420.6515,1579.48,426.4248" style="stroke:#181818;stroke-width:1.0;"/><polygon fill="#000000" points="1553.5051,368.6075,1551.5168,359.3071,1546.4299,362.2519,1553.5051,368.6075" style="stroke:#000000;stroke-width:1.0;"/><text fill="#000000" font-family="sans-serif" font-size="13" lengthAdjust="spacing" textLength="61" x="1560" y="369.6631">created by</text><text fill="#000000" font-family="sans-serif" font-size="13" lengthAdjust="spacing" textLength="20" x="1501.1434" y="344.1733">0..*</text><text fill="#000000" font-family="sans-serif" font-size="13" lengthAdjust="spacing" textLength="7" x="1568.0918" y="415.2875">1</text></g><!--SRC=[bPHDZzCm48Rl_XMZx85Tj5qLX5QeYY8jxIv20Yujt1rdb9ZMTcGxi0NjVyU9yzMGa3QdTkOP-vqlMvM3LH0hQvM0X6jabYj9YENsWB1HWd89wmCr1WrSRzOti81lMtYxNDuJal44GQ3DL6A8sNEPKqq5i19_i5RpkB3uYIcvvRyHbeIysj4zoiTdAaXEsPwc244OqZJLc5ABKGGj4C0V0kv3wQGSEpk4eJSvE0orKZQAAh2wjUCsxhmT5-YWw- -tSFNqzFx3k-KD_AI70a75Froc9v4VDKtcw1UNmjOMYLCmbK3j7iYlhJFYlo3Bg5Iffdd6sTT2nAZFKFI_UewKShAAvLbhLMY3KwTvx-0yRvn9pKExQghExOYFMQlaqf0D6gPvNaxoXP5RIsrXBWnwb5eTXCl-CnVSpaJNjIi_mIKNXMZ3JUUXpoEU5z_jqbXP9tlU4iFEjuwPRdNWMGKfPUsGiWprv5vxzt2hlNL6pGFJIXx5l8ZkaLWawfTSHFy-1oDCjVWzUx2yktiTmCAvWZT1kxehi2K2yH6YQRgohO0R1v5wCvgBUZimxYf7VTpJc-XnmFTft3UOpmOgvJQocqQi8AC6D9fSISDZjwnHX_SIhNvsGIvTIuiqitsyPdrzUgFdxt3bwTbE3k_NtA64D7-RjCRUoPFZ6d0unsv4QiqDKS-MYnvfPfSWq-W6AF7D_mi0]--></g></svg>