<?xml version="1.0" encoding="us-ascii" standalone="no"?><svg xmlns="http://www.w3.org/2000/svg" xmlns:xlink="http://www.w3.org/1999/xlink" contentStyleType="text/css" height="653px" preserveAspectRatio="none" style="width:1311px;height:653px;background:#FFFFFF;" version="1.1" viewBox="0 0 1311 653" width="1311px" zoomAndPan="magnify"><defs/><g><text fill="#000000" font-family="sans-serif" font-size="14" font-weight="bold" lengthAdjust="spacing" textLength="233" x="540.5" y="30.1074">Sequence Diagram (SD) - US 2006</text><rect fill="#FFFFFF" height="398.7832" style="stroke:#181818;stroke-width:1.0;" width="10" x="33.5" y="137.8633"/><rect fill="#FFFFFF" height="375.4922" style="stroke:#181818;stroke-width:1.0;" width="10" x="429.5" y="161.1543"/><rect fill="#FFFFFF" height="93.873" style="stroke:#181818;stroke-width:1.0;" width="10" x="617.5" y="223.7363"/><rect fill="#FFFFFF" height="93.873" style="stroke:#181818;stroke-width:1.0;" width="10" x="617.5" y="411.4824"/><rect fill="#FFFFFF" height="31.291" style="stroke:#181818;stroke-width:1.0;" width="10" x="1085" y="255.0273"/><rect fill="#FFFFFF" height="31.291" style="stroke:#181818;stroke-width:1.0;" width="10" x="1231" y="442.7734"/><line style="stroke:#181818;stroke-width:0.5;stroke-dasharray:5.0,5.0;" x1="38" x2="38" y1="127.8633" y2="554.6465"/><line style="stroke:#181818;stroke-width:0.5;stroke-dasharray:5.0,5.0;" x1="434" x2="434" y1="127.8633" y2="554.6465"/><line style="stroke:#181818;stroke-width:0.5;stroke-dasharray:5.0,5.0;" x1="622" x2="622" y1="127.8633" y2="554.6465"/><line style="stroke:#181818;stroke-width:0.5;stroke-dasharray:5.0,5.0;" x1="789" x2="789" y1="127.8633" y2="554.6465"/><line style="stroke:#181818;stroke-width:0.5;stroke-dasharray:5.0,5.0;" x1="937" x2="937" y1="127.8633" y2="554.6465"/><line style="stroke:#181818;stroke-width:0.5;stroke-dasharray:5.0,5.0;" x1="1090" x2="1090" y1="127.8633" y2="554.6465"/><line style="stroke:#181818;stroke-width:0.5;stroke-dasharray:5.0,5.0;" x1="1236" x2="1236" y1="127.8633" y2="554.6465"/><text fill="#000000" font-family="sans-serif" font-size="14" lengthAdjust="spacing" textLength="61" x="5" y="124.3496">Professor</text><ellipse cx="38.5" cy="57.7422" fill="#E3E3E3" rx="8" ry="8" style="stroke:#181818;stroke-width:0.5;"/><path d="M38.5,65.7422 L38.5,92.7422 M25.5,73.7422 L51.5,73.7422 M38.5,92.7422 L25.5,107.7422 M38.5,92.7422 L51.5,107.7422 " fill="none" style="stroke:#181818;stroke-width:0.5;"/><text fill="#000000" font-family="sans-serif" font-size="14" lengthAdjust="spacing" textLength="61" x="5" y="568.7539">Professor</text><ellipse cx="38.5" cy="580.7676" fill="#E3E3E3" rx="8" ry="8" style="stroke:#181818;stroke-width:0.5;"/><path d="M38.5,588.7676 L38.5,615.7676 M25.5,596.7676 L51.5,596.7676 M38.5,615.7676 L25.5,630.7676 M38.5,615.7676 L51.5,630.7676 " fill="none" style="stroke:#181818;stroke-width:0.5;"/><rect fill="#E3E3E3" height="51.2422" rx="2.5" ry="2.5" style="stroke:#181818;stroke-width:0.5;" width="157" x="356" y="75.6211"/><text fill="#000000" font-family="sans-serif" font-size="14" font-style="italic" lengthAdjust="spacing" textLength="95" x="387" y="97.7285">&#171;presentation&#187;</text><text fill="#000000" font-family="sans-serif" font-size="14" lengthAdjust="spacing" textLength="143" x="363" y="116.3496">ListGradesByCourseUI</text><rect fill="#E3E3E3" height="51.2422" rx="2.5" ry="2.5" style="stroke:#181818;stroke-width:0.5;" width="157" x="356" y="553.6465"/><text fill="#000000" font-family="sans-serif" font-size="14" font-style="italic" lengthAdjust="spacing" textLength="95" x="387" y="575.7539">&#171;presentation&#187;</text><text fill="#000000" font-family="sans-serif" font-size="14" lengthAdjust="spacing" textLength="143" x="363" y="594.375">ListGradesByCourseUI</text><text fill="#000000" font-family="sans-serif" font-size="14" font-style="italic" lengthAdjust="spacing" textLength="84" x="577.5" y="105.7285">&#171;application&#187;</text><text fill="#000000" font-family="sans-serif" font-size="14" lengthAdjust="spacing" textLength="193" x="523" y="124.3496">ListGradesByCourseController</text><ellipse cx="622.5" cy="74.6211" fill="#E3E3E3" rx="12" ry="12" style="stroke:#181818;stroke-width:0.5;"/><polygon fill="#181818" points="618.5,62.6211,624.5,57.6211,622.5,62.6211,624.5,67.6211,618.5,62.6211" style="stroke:#181818;stroke-width:1.0;"/><text fill="#000000" font-family="sans-serif" font-size="14" font-style="italic" lengthAdjust="spacing" textLength="84" x="577.5" y="568.7539">&#171;application&#187;</text><text fill="#000000" font-family="sans-serif" font-size="14" lengthAdjust="spacing" textLength="193" x="523" y="587.375">ListGradesByCourseController</text><ellipse cx="622.5" cy="606.8887" fill="#E3E3E3" rx="12" ry="12" style="stroke:#181818;stroke-width:0.5;"/><polygon fill="#181818" points="618.5,594.8887,624.5,589.8887,622.5,594.8887,624.5,599.8887,618.5,594.8887" style="stroke:#181818;stroke-width:1.0;"/><rect fill="#E3E3E3" height="51.2422" rx="2.5" ry="2.5" style="stroke:#181818;stroke-width:0.5;" width="115" x="732" y="75.6211"/><text fill="#000000" font-family="sans-serif" font-size="14" lengthAdjust="spacing" textLength="62" x="756.5" y="97.7285">&#171;domain&#187;</text><text fill="#000000" font-family="sans-serif" font-size="14" lengthAdjust="spacing" textLength="97" x="743" y="116.3496">course: Course</text><rect fill="#E3E3E3" height="51.2422" rx="2.5" ry="2.5" style="stroke:#181818;stroke-width:0.5;" width="115" x="732" y="553.6465"/><text fill="#000000" font-family="sans-serif" font-size="14" lengthAdjust="spacing" textLength="62" x="756.5" y="575.7539">&#171;domain&#187;</text><text fill="#000000" font-family="sans-serif" font-size="14" lengthAdjust="spacing" textLength="97" x="743" y="594.375">course: Course</text><rect fill="#E3E3E3" height="51.2422" rx="2.5" ry="2.5" style="stroke:#181818;stroke-width:0.5;" width="161" x="857" y="75.6211"/><text fill="#000000" font-family="sans-serif" font-size="14" font-style="italic" lengthAdjust="spacing" textLength="62" x="906.5" y="97.7285">&#171;domain&#187;</text><text fill="#000000" font-family="sans-serif" font-size="14" lengthAdjust="spacing" textLength="147" x="864" y="116.3496">takenExam:TakenExam</text><rect fill="#E3E3E3" height="51.2422" rx="2.5" ry="2.5" style="stroke:#181818;stroke-width:0.5;" width="161" x="857" y="553.6465"/><text fill="#000000" font-family="sans-serif" font-size="14" font-style="italic" lengthAdjust="spacing" textLength="62" x="906.5" y="575.7539">&#171;domain&#187;</text><text fill="#000000" font-family="sans-serif" font-size="14" lengthAdjust="spacing" textLength="147" x="864" y="594.375">takenExam:TakenExam</text><text fill="#000000" font-family="sans-serif" font-size="14" lengthAdjust="spacing" textLength="79" x="1045.5" y="105.7285">&#171;repository&#187;</text><text fill="#000000" font-family="sans-serif" font-size="14" lengthAdjust="spacing" textLength="114" x="1032" y="124.3496">CourseRepository</text><path d="M1072,54.6211 C1072,44.6211 1090,44.6211 1090,44.6211 C1090,44.6211 1108,44.6211 1108,54.6211 L1108,80.6211 C1108,90.6211 1090,90.6211 1090,90.6211 C1090,90.6211 1072,90.6211 1072,80.6211 L1072,54.6211 " fill="#E3E3E3" style="stroke:#181818;stroke-width:1.5;"/><path d="M1072,54.6211 C1072,64.6211 1090,64.6211 1090,64.6211 C1090,64.6211 1108,64.6211 1108,54.6211 " fill="none" style="stroke:#181818;stroke-width:1.5;"/><text fill="#000000" font-family="sans-serif" font-size="14" lengthAdjust="spacing" textLength="79" x="1045.5" y="568.7539">&#171;repository&#187;</text><text fill="#000000" font-family="sans-serif" font-size="14" lengthAdjust="spacing" textLength="114" x="1032" y="587.375">CourseRepository</text><path d="M1072,600.8887 C1072,590.8887 1090,590.8887 1090,590.8887 C1090,590.8887 1108,590.8887 1108,600.8887 L1108,626.8887 C1108,636.8887 1090,636.8887 1090,636.8887 C1090,636.8887 1072,636.8887 1072,626.8887 L1072,600.8887 " fill="#E3E3E3" style="stroke:#181818;stroke-width:1.5;"/><path d="M1072,600.8887 C1072,610.8887 1090,610.8887 1090,610.8887 C1090,610.8887 1108,610.8887 1108,600.8887 " fill="none" style="stroke:#181818;stroke-width:1.5;"/><text fill="#000000" font-family="sans-serif" font-size="14" font-style="italic" lengthAdjust="spacing" textLength="79" x="1193.5" y="105.7285">&#171;repository&#187;</text><text fill="#000000" font-family="sans-serif" font-size="14" lengthAdjust="spacing" textLength="142" x="1162" y="124.3496">TakenExamRepository</text><path d="M1218,54.6211 C1218,44.6211 1236,44.6211 1236,44.6211 C1236,44.6211 1254,44.6211 1254,54.6211 L1254,80.6211 C1254,90.6211 1236,90.6211 1236,90.6211 C1236,90.6211 1218,90.6211 1218,80.6211 L1218,54.6211 " fill="#E3E3E3" style="stroke:#181818;stroke-width:1.5;"/><path d="M1218,54.6211 C1218,64.6211 1236,64.6211 1236,64.6211 C1236,64.6211 1254,64.6211 1254,54.6211 " fill="none" style="stroke:#181818;stroke-width:1.5;"/><text fill="#000000" font-family="sans-serif" font-size="14" font-style="italic" lengthAdjust="spacing" textLength="79" x="1193.5" y="568.7539">&#171;repository&#187;</text><text fill="#000000" font-family="sans-serif" font-size="14" lengthAdjust="spacing" textLength="142" x="1162" y="587.375">TakenExamRepository</text><path d="M1218,600.8887 C1218,590.8887 1236,590.8887 1236,590.8887 C1236,590.8887 1254,590.8887 1254,600.8887 L1254,626.8887 C1254,636.8887 1236,636.8887 1236,636.8887 C1236,636.8887 1218,636.8887 1218,626.8887 L1218,600.8887 " fill="#E3E3E3" style="stroke:#181818;stroke-width:1.5;"/><path d="M1218,600.8887 C1218,610.8887 1236,610.8887 1236,610.8887 C1236,610.8887 1254,610.8887 1254,600.8887 " fill="none" style="stroke:#181818;stroke-width:1.5;"/><rect fill="#FFFFFF" height="398.7832" style="stroke:#181818;stroke-width:1.0;" width="10" x="33.5" y="137.8633"/><rect fill="#FFFFFF" height="375.4922" style="stroke:#181818;stroke-width:1.0;" width="10" x="429.5" y="161.1543"/><rect fill="#FFFFFF" height="93.873" style="stroke:#181818;stroke-width:1.0;" width="10" x="617.5" y="223.7363"/><rect fill="#FFFFFF" height="93.873" style="stroke:#181818;stroke-width:1.0;" width="10" x="617.5" y="411.4824"/><rect fill="#FFFFFF" height="31.291" style="stroke:#181818;stroke-width:1.0;" width="10" x="1085" y="255.0273"/><rect fill="#FFFFFF" height="31.291" style="stroke:#181818;stroke-width:1.0;" width="10" x="1231" y="442.7734"/><polygon fill="#181818" points="417.5,157.1543,427.5,161.1543,417.5,165.1543,421.5,161.1543" style="stroke:#181818;stroke-width:1.0;"/><line style="stroke:#181818;stroke-width:1.0;" x1="43.5" x2="423.5" y1="161.1543" y2="161.1543"/><text fill="#000000" font-family="sans-serif" font-size="13" font-weight="bold" lengthAdjust="spacing" textLength="7" x="50.5" y="155.8916">1</text><text fill="#000000" font-family="sans-serif" font-size="13" lengthAdjust="spacing" textLength="210" x="61.5" y="155.8916">Pede para listar as notas por cursos</text><polygon fill="#181818" points="610.5,188.4453,620.5,192.4453,610.5,196.4453,614.5,192.4453" style="stroke:#181818;stroke-width:1.0;"/><line style="stroke:#181818;stroke-width:1.0;" x1="439.5" x2="616.5" y1="192.4453" y2="192.4453"/><text fill="#000000" font-family="sans-serif" font-size="13" font-weight="bold" lengthAdjust="spacing" textLength="7" x="446.5" y="187.1826">2</text><text fill="#000000" font-family="sans-serif" font-size="13" lengthAdjust="spacing" textLength="36" x="457.5" y="187.1826">create</text><polygon fill="#181818" points="605.5,219.7363,615.5,223.7363,605.5,227.7363,609.5,223.7363" style="stroke:#181818;stroke-width:1.0;"/><line style="stroke:#181818;stroke-width:1.0;" x1="439.5" x2="611.5" y1="223.7363" y2="223.7363"/><text fill="#000000" font-family="sans-serif" font-size="13" font-weight="bold" lengthAdjust="spacing" textLength="7" x="446.5" y="218.4736">3</text><text fill="#000000" font-family="sans-serif" font-size="13" lengthAdjust="spacing" textLength="134" x="457.5" y="218.4736">listAllTeacherCourses()</text><polygon fill="#181818" points="1073,251.0273,1083,255.0273,1073,259.0273,1077,255.0273" style="stroke:#181818;stroke-width:1.0;"/><line style="stroke:#181818;stroke-width:1.0;" x1="627.5" x2="1079" y1="255.0273" y2="255.0273"/><text fill="#000000" font-family="sans-serif" font-size="13" font-weight="bold" lengthAdjust="spacing" textLength="7" x="634.5" y="249.7646">4</text><text fill="#000000" font-family="sans-serif" font-size="13" lengthAdjust="spacing" textLength="213" x="645.5" y="249.7646">list = findAllTeacherCourses(teacher)</text><polygon fill="#181818" points="638.5,282.3184,628.5,286.3184,638.5,290.3184,634.5,286.3184" style="stroke:#181818;stroke-width:1.0;"/><line style="stroke:#181818;stroke-width:1.0;stroke-dasharray:2.0,2.0;" x1="632.5" x2="1089" y1="286.3184" y2="286.3184"/><text fill="#000000" font-family="sans-serif" font-size="13" font-weight="bold" lengthAdjust="spacing" textLength="7" x="644.5" y="281.0557">5</text><text fill="#000000" font-family="sans-serif" font-size="13" lengthAdjust="spacing" textLength="17" x="655.5" y="281.0557">list</text><polygon fill="#181818" points="450.5,313.6094,440.5,317.6094,450.5,321.6094,446.5,317.6094" style="stroke:#181818;stroke-width:1.0;"/><line style="stroke:#181818;stroke-width:1.0;stroke-dasharray:2.0,2.0;" x1="444.5" x2="621.5" y1="317.6094" y2="317.6094"/><text fill="#000000" font-family="sans-serif" font-size="13" font-weight="bold" lengthAdjust="spacing" textLength="7" x="456.5" y="312.3467">6</text><text fill="#000000" font-family="sans-serif" font-size="13" lengthAdjust="spacing" textLength="17" x="467.5" y="312.3467">list</text><polygon fill="#181818" points="54.5,344.9004,44.5,348.9004,54.5,352.9004,50.5,348.9004" style="stroke:#181818;stroke-width:1.0;"/><line style="stroke:#181818;stroke-width:1.0;stroke-dasharray:2.0,2.0;" x1="48.5" x2="428.5" y1="348.9004" y2="348.9004"/><text fill="#000000" font-family="sans-serif" font-size="13" font-weight="bold" lengthAdjust="spacing" textLength="7" x="60.5" y="343.6377">7</text><text fill="#000000" font-family="sans-serif" font-size="13" lengthAdjust="spacing" textLength="351" x="71.5" y="343.6377">Mostra os cursos que ensina e pede para escolher um curso</text><polygon fill="#181818" points="417.5,376.1914,427.5,380.1914,417.5,384.1914,421.5,380.1914" style="stroke:#181818;stroke-width:1.0;"/><line style="stroke:#181818;stroke-width:1.0;" x1="43.5" x2="423.5" y1="380.1914" y2="380.1914"/><text fill="#000000" font-family="sans-serif" font-size="13" font-weight="bold" lengthAdjust="spacing" textLength="7" x="50.5" y="374.9287">8</text><text fill="#000000" font-family="sans-serif" font-size="13" lengthAdjust="spacing" textLength="94" x="61.5" y="374.9287">Escolhe o curso</text><polygon fill="#181818" points="605.5,407.4824,615.5,411.4824,605.5,415.4824,609.5,411.4824" style="stroke:#181818;stroke-width:1.0;"/><line style="stroke:#181818;stroke-width:1.0;" x1="439.5" x2="611.5" y1="411.4824" y2="411.4824"/><text fill="#000000" font-family="sans-serif" font-size="13" font-weight="bold" lengthAdjust="spacing" textLength="7" x="446.5" y="406.2197">9</text><text fill="#000000" font-family="sans-serif" font-size="13" lengthAdjust="spacing" textLength="139" x="457.5" y="406.2197">listAllGradesByCourse()</text><polygon fill="#181818" points="1219,438.7734,1229,442.7734,1219,446.7734,1223,442.7734" style="stroke:#181818;stroke-width:1.0;"/><line style="stroke:#181818;stroke-width:1.0;" x1="627.5" x2="1225" y1="442.7734" y2="442.7734"/><text fill="#000000" font-family="sans-serif" font-size="13" font-weight="bold" lengthAdjust="spacing" textLength="14" x="634.5" y="437.5107">10</text><text fill="#000000" font-family="sans-serif" font-size="13" lengthAdjust="spacing" textLength="214" x="652.5" y="437.5107">list = findAllGradesByCourse(course)</text><polygon fill="#181818" points="638.5,470.0645,628.5,474.0645,638.5,478.0645,634.5,474.0645" style="stroke:#181818;stroke-width:1.0;"/><line style="stroke:#181818;stroke-width:1.0;stroke-dasharray:2.0,2.0;" x1="632.5" x2="1235" y1="474.0645" y2="474.0645"/><text fill="#000000" font-family="sans-serif" font-size="13" font-weight="bold" lengthAdjust="spacing" textLength="14" x="644.5" y="468.8018">11</text><text fill="#000000" font-family="sans-serif" font-size="13" lengthAdjust="spacing" textLength="17" x="662.5" y="468.8018">list</text><polygon fill="#181818" points="450.5,501.3555,440.5,505.3555,450.5,509.3555,446.5,505.3555" style="stroke:#181818;stroke-width:1.0;"/><line style="stroke:#181818;stroke-width:1.0;stroke-dasharray:2.0,2.0;" x1="444.5" x2="621.5" y1="505.3555" y2="505.3555"/><text fill="#000000" font-family="sans-serif" font-size="13" font-weight="bold" lengthAdjust="spacing" textLength="14" x="456.5" y="500.0928">12</text><text fill="#000000" font-family="sans-serif" font-size="13" lengthAdjust="spacing" textLength="17" x="474.5" y="500.0928">list</text><polygon fill="#181818" points="49.5,532.6465,39.5,536.6465,49.5,540.6465,45.5,536.6465" style="stroke:#181818;stroke-width:1.0;"/><line style="stroke:#181818;stroke-width:1.0;stroke-dasharray:2.0,2.0;" x1="43.5" x2="433.5" y1="536.6465" y2="536.6465"/><text fill="#000000" font-family="sans-serif" font-size="13" font-weight="bold" lengthAdjust="spacing" textLength="14" x="55.5" y="531.3838">13</text><text fill="#000000" font-family="sans-serif" font-size="13" lengthAdjust="spacing" textLength="169" x="73.5" y="531.3838">Mostra as notas desse curso</text><!--SRC=[hPC_Rzim4CLtVef3fcGm47J88BW6KaS8WgQjuJz0XouNwcmJbaYLfDhws_T8ofAjo427QX14yhtVaUz4Tr2wHeiLL4ORkRUc8l2s8U6wbHhb0NUqyiUIm9Bqg7VbkS3jiJ2_bTx15aj7GdZbMRgYdmrfIV2aS1TqjwkdEvZ0PWKVxkyV13RUwAPw8oi4IcyiBApPadFyXGuUmvJW2bv9LQFsyAgSVxPOaFjqd9l6Ejgy12M_fzFQaYFjqIkZPpCXZVRMb2EUULefALQPhvUlxCQwBfKycS-BtaodXQbGyJpyq20Z8uF4kec8vUhIuV50El-3LRO-VKNX-lFN_3lqF56WnpTq58fOgerJVEHZAfGABBlPjbI- -DRREdmlYtNo88DBPinO_K9FRR82sYSEOJ8BEMQme88Wz1LAZWvZIDfuVjUiahmfupfhXzoyz3p6C2m6cu6qnEjN5aE5nx9S4yezsNHYTtlt7X_qGlIKw0-SUD04We-mLRfup_DfE8QDSVRKI9jSxgzRBMZe6spdbE1LLpp4UH3iIE5dyCKupvaRrqOCV7U0j5CQWVlHDOMSD2MV1fegAQ_rCKz2C4FPM0SkRyZr3WppR_-qOGC6k7HdHg39tcDRt3zqOEZyVnteVdS-0L-n5Du8A_pnPyDqf_u2]--></g></svg>