<?xml version="1.0" encoding="us-ascii" standalone="no"?><svg xmlns="http://www.w3.org/2000/svg" xmlns:xlink="http://www.w3.org/1999/xlink" contentStyleType="text/css" height="656px" preserveAspectRatio="none" style="width:957px;height:656px;background:#FFFFFF;" version="1.1" viewBox="0 0 957 656" width="957px" zoomAndPan="magnify"><defs/><g><text fill="#000000" font-family="sans-serif" font-size="14" font-weight="bold" lengthAdjust="spacing" textLength="209" x="367.25" y="25.1074">Class Diagram (SSD) - US 1002</text><!--class CreateCourseUI--><g id="elem_CreateCourseUI"><rect codeLine="3" fill="#F1F1F1" height="79.2031" id="CreateCourseUI" rx="2.5" ry="2.5" style="stroke:#181818;stroke-width:0.5;" width="133" x="618" y="46.6211"/><ellipse cx="633" cy="68.9121" fill="#ADD1B2" rx="11" ry="11" style="stroke:#181818;stroke-width:1.0;"/><path d="M635.7656,64.7871 Q635.9219,64.5684 636.1094,64.459 Q636.2969,64.3496 636.5156,64.3496 Q636.8906,64.3496 637.125,64.6152 Q637.3594,64.8652 637.3594,65.4746 L637.3594,66.9277 Q637.3594,67.5371 637.125,67.8027 Q636.8906,68.0684 636.5156,68.0684 Q636.1719,68.0684 635.9688,67.8652 Q635.7656,67.6777 635.6563,67.1621 Q635.6094,66.8027 635.4219,66.6152 Q635.0938,66.2402 634.4844,66.0215 Q633.875,65.8027 633.25,65.8027 Q632.4844,65.8027 631.8438,66.1309 Q631.2188,66.459 630.7188,67.209 Q630.2344,67.959 630.2344,68.9902 L630.2344,70.084 Q630.2344,71.3184 631.125,72.1465 Q632.0156,72.959 633.6094,72.959 Q634.5469,72.959 635.2031,72.709 Q635.5938,72.5527 636.0156,72.1152 Q636.2813,71.8496 636.4219,71.7715 Q636.5781,71.6934 636.7813,71.6934 Q637.1094,71.6934 637.3594,71.959 Q637.625,72.209 637.625,72.5527 Q637.625,72.8965 637.2813,73.3027 Q636.7813,73.8809 635.9844,74.209 Q634.9063,74.6621 633.6094,74.6621 Q632.0938,74.6621 630.8906,74.0371 Q629.9063,73.5371 629.2188,72.4746 Q628.5313,71.3965 628.5313,70.1152 L628.5313,68.959 Q628.5313,67.6309 629.1406,66.4902 Q629.7656,65.334 630.8594,64.7246 Q631.9531,64.0996 633.1875,64.0996 Q633.9219,64.0996 634.5625,64.2715 Q635.2188,64.4277 635.7656,64.7871 Z " fill="#000000"/><text fill="#000000" font-family="sans-serif" font-size="12" font-style="italic" lengthAdjust="spacing" textLength="82" x="656.5" y="64.5703">&#171;presentation&#187;</text><text fill="#000000" font-family="sans-serif" font-size="14" lengthAdjust="spacing" textLength="101" x="647" y="82.6895">CreateCourseUI</text><line style="stroke:#181818;stroke-width:0.5;" x1="619" x2="750" y1="91.2031" y2="91.2031"/><line style="stroke:#181818;stroke-width:0.5;" x1="619" x2="750" y1="99.2031" y2="99.2031"/><text fill="#000000" font-family="sans-serif" font-size="14" lengthAdjust="spacing" textLength="60" x="624" y="118.3105">doShow()</text></g><!--class RepositoryFactory--><g id="elem_RepositoryFactory"><rect codeLine="7" fill="#F1F1F1" height="60.582" id="RepositoryFactory" rx="2.5" ry="2.5" style="stroke:#181818;stroke-width:0.5;" width="148" x="610.5" y="344.6211"/><ellipse cx="625.5" cy="366.9121" fill="#B4A7E5" rx="11" ry="11" style="stroke:#181818;stroke-width:1.0;"/><path d="M626.4531,363.5527 L626.4531,370.209 L628.1719,370.209 Q628.7813,370.209 629.0469,370.4434 Q629.3125,370.6777 629.3125,371.0684 Q629.3125,371.4434 629.0469,371.6777 Q628.7813,371.9121 628.1719,371.9121 L623.0313,371.9121 Q622.4219,371.9121 622.1563,371.6777 Q621.8906,371.4434 621.8906,371.0527 Q621.8906,370.6777 622.1563,370.4434 Q622.4219,370.209 623.0313,370.209 L624.75,370.209 L624.75,363.5527 L623.0313,363.5527 Q622.4219,363.5527 622.1563,363.3184 Q621.8906,363.084 621.8906,362.6934 Q621.8906,362.3184 622.1563,362.084 Q622.4219,361.8496 623.0313,361.8496 L628.1719,361.8496 Q628.7813,361.8496 629.0469,362.084 Q629.3125,362.3184 629.3125,362.6934 Q629.3125,363.084 629.0469,363.3184 Q628.7813,363.5527 628.1719,363.5527 L626.4531,363.5527 Z " fill="#000000"/><text fill="#000000" font-family="sans-serif" font-size="12" font-style="italic" lengthAdjust="spacing" textLength="50" x="672.5" y="362.5703">&#171;factory&#187;</text><text fill="#000000" font-family="sans-serif" font-size="14" font-style="italic" lengthAdjust="spacing" textLength="116" x="639.5" y="380.6895">RepositoryFactory</text><line style="stroke:#181818;stroke-width:0.5;" x1="611.5" x2="757.5" y1="389.2031" y2="389.2031"/><line style="stroke:#181818;stroke-width:0.5;" x1="611.5" x2="757.5" y1="397.2031" y2="397.2031"/></g><!--class PersistenceContext--><g id="elem_PersistenceContext"><rect codeLine="8" fill="#F1F1F1" height="60.582" id="PersistenceContext" rx="2.5" ry="2.5" style="stroke:#181818;stroke-width:0.5;" width="154" x="607.5" y="588.6211"/><ellipse cx="622.5" cy="610.9121" fill="#ADD1B2" rx="11" ry="11" style="stroke:#181818;stroke-width:1.0;"/><path d="M625.2656,606.7871 Q625.4219,606.5684 625.6094,606.459 Q625.7969,606.3496 626.0156,606.3496 Q626.3906,606.3496 626.625,606.6152 Q626.8594,606.8652 626.8594,607.4746 L626.8594,608.9277 Q626.8594,609.5371 626.625,609.8027 Q626.3906,610.0684 626.0156,610.0684 Q625.6719,610.0684 625.4688,609.8652 Q625.2656,609.6777 625.1563,609.1621 Q625.1094,608.8027 624.9219,608.6152 Q624.5938,608.2402 623.9844,608.0215 Q623.375,607.8027 622.75,607.8027 Q621.9844,607.8027 621.3438,608.1309 Q620.7188,608.459 620.2188,609.209 Q619.7344,609.959 619.7344,610.9902 L619.7344,612.084 Q619.7344,613.3184 620.625,614.1465 Q621.5156,614.959 623.1094,614.959 Q624.0469,614.959 624.7031,614.709 Q625.0938,614.5527 625.5156,614.1152 Q625.7813,613.8496 625.9219,613.7715 Q626.0781,613.6934 626.2813,613.6934 Q626.6094,613.6934 626.8594,613.959 Q627.125,614.209 627.125,614.5527 Q627.125,614.8965 626.7813,615.3027 Q626.2813,615.8809 625.4844,616.209 Q624.4063,616.6621 623.1094,616.6621 Q621.5938,616.6621 620.3906,616.0371 Q619.4063,615.5371 618.7188,614.4746 Q618.0313,613.3965 618.0313,612.1152 L618.0313,610.959 Q618.0313,609.6309 618.6406,608.4902 Q619.2656,607.334 620.3594,606.7246 Q621.4531,606.0996 622.6875,606.0996 Q623.4219,606.0996 624.0625,606.2715 Q624.7188,606.4277 625.2656,606.7871 Z " fill="#000000"/><text fill="#000000" font-family="sans-serif" font-size="12" font-style="italic" lengthAdjust="spacing" textLength="77" x="659" y="606.5703">&#171;persistence&#187;</text><text fill="#000000" font-family="sans-serif" font-size="14" lengthAdjust="spacing" textLength="122" x="636.5" y="624.6895">PersistenceContext</text><line style="stroke:#181818;stroke-width:0.5;" x1="608.5" x2="760.5" y1="633.2031" y2="633.2031"/><line style="stroke:#181818;stroke-width:0.5;" x1="608.5" x2="760.5" y1="641.2031" y2="641.2031"/></g><!--class JpaAutoTxCourseRepository--><g id="elem_JpaAutoTxCourseRepository"><rect codeLine="9" fill="#F1F1F1" height="60.582" id="JpaAutoTxCourseRepository" rx="2.5" ry="2.5" style="stroke:#181818;stroke-width:0.5;" width="212" x="249.5" y="466.6211"/><ellipse cx="264.5" cy="488.9121" fill="#ADD1B2" rx="11" ry="11" style="stroke:#181818;stroke-width:1.0;"/><path d="M267.2656,484.7871 Q267.4219,484.5684 267.6094,484.459 Q267.7969,484.3496 268.0156,484.3496 Q268.3906,484.3496 268.625,484.6152 Q268.8594,484.8652 268.8594,485.4746 L268.8594,486.9277 Q268.8594,487.5371 268.625,487.8027 Q268.3906,488.0684 268.0156,488.0684 Q267.6719,488.0684 267.4688,487.8652 Q267.2656,487.6777 267.1563,487.1621 Q267.1094,486.8027 266.9219,486.6152 Q266.5938,486.2402 265.9844,486.0215 Q265.375,485.8027 264.75,485.8027 Q263.9844,485.8027 263.3438,486.1309 Q262.7188,486.459 262.2188,487.209 Q261.7344,487.959 261.7344,488.9902 L261.7344,490.084 Q261.7344,491.3184 262.625,492.1465 Q263.5156,492.959 265.1094,492.959 Q266.0469,492.959 266.7031,492.709 Q267.0938,492.5527 267.5156,492.1152 Q267.7813,491.8496 267.9219,491.7715 Q268.0781,491.6934 268.2813,491.6934 Q268.6094,491.6934 268.8594,491.959 Q269.125,492.209 269.125,492.5527 Q269.125,492.8965 268.7813,493.3027 Q268.2813,493.8809 267.4844,494.209 Q266.4063,494.6621 265.1094,494.6621 Q263.5938,494.6621 262.3906,494.0371 Q261.4063,493.5371 260.7188,492.4746 Q260.0313,491.3965 260.0313,490.1152 L260.0313,488.959 Q260.0313,487.6309 260.6406,486.4902 Q261.2656,485.334 262.3594,484.7246 Q263.4531,484.0996 264.6875,484.0996 Q265.4219,484.0996 266.0625,484.2715 Q266.7188,484.4277 267.2656,484.7871 Z " fill="#000000"/><text fill="#000000" font-family="sans-serif" font-size="12" font-style="italic" lengthAdjust="spacing" textLength="77" x="330" y="484.5703">&#171;persistence&#187;</text><text fill="#000000" font-family="sans-serif" font-size="14" lengthAdjust="spacing" textLength="180" x="278.5" y="502.6895">JpaAutoTxCourseRepository</text><line style="stroke:#181818;stroke-width:0.5;" x1="250.5" x2="460.5" y1="511.2031" y2="511.2031"/><line style="stroke:#181818;stroke-width:0.5;" x1="250.5" x2="460.5" y1="519.2031" y2="519.2031"/></g><!--class InMemoryCourseRepository--><g id="elem_InMemoryCourseRepository"><rect codeLine="10" fill="#F1F1F1" height="60.582" id="InMemoryCourseRepository" rx="2.5" ry="2.5" style="stroke:#181818;stroke-width:0.5;" width="207" x="7" y="466.6211"/><ellipse cx="22" cy="488.9121" fill="#ADD1B2" rx="11" ry="11" style="stroke:#181818;stroke-width:1.0;"/><path d="M24.7656,484.7871 Q24.9219,484.5684 25.1094,484.459 Q25.2969,484.3496 25.5156,484.3496 Q25.8906,484.3496 26.125,484.6152 Q26.3594,484.8652 26.3594,485.4746 L26.3594,486.9277 Q26.3594,487.5371 26.125,487.8027 Q25.8906,488.0684 25.5156,488.0684 Q25.1719,488.0684 24.9688,487.8652 Q24.7656,487.6777 24.6563,487.1621 Q24.6094,486.8027 24.4219,486.6152 Q24.0938,486.2402 23.4844,486.0215 Q22.875,485.8027 22.25,485.8027 Q21.4844,485.8027 20.8438,486.1309 Q20.2188,486.459 19.7188,487.209 Q19.2344,487.959 19.2344,488.9902 L19.2344,490.084 Q19.2344,491.3184 20.125,492.1465 Q21.0156,492.959 22.6094,492.959 Q23.5469,492.959 24.2031,492.709 Q24.5938,492.5527 25.0156,492.1152 Q25.2813,491.8496 25.4219,491.7715 Q25.5781,491.6934 25.7813,491.6934 Q26.1094,491.6934 26.3594,491.959 Q26.625,492.209 26.625,492.5527 Q26.625,492.8965 26.2813,493.3027 Q25.7813,493.8809 24.9844,494.209 Q23.9063,494.6621 22.6094,494.6621 Q21.0938,494.6621 19.8906,494.0371 Q18.9063,493.5371 18.2188,492.4746 Q17.5313,491.3965 17.5313,490.1152 L17.5313,488.959 Q17.5313,487.6309 18.1406,486.4902 Q18.7656,485.334 19.8594,484.7246 Q20.9531,484.0996 22.1875,484.0996 Q22.9219,484.0996 23.5625,484.2715 Q24.2188,484.4277 24.7656,484.7871 Z " fill="#000000"/><text fill="#000000" font-family="sans-serif" font-size="12" font-style="italic" lengthAdjust="spacing" textLength="77" x="85" y="484.5703">&#171;persistence&#187;</text><text fill="#000000" font-family="sans-serif" font-size="14" lengthAdjust="spacing" textLength="175" x="36" y="502.6895">InMemoryCourseRepository</text><line style="stroke:#181818;stroke-width:0.5;" x1="8" x2="213" y1="511.2031" y2="511.2031"/><line style="stroke:#181818;stroke-width:0.5;" x1="8" x2="213" y1="519.2031" y2="519.2031"/></g><!--class Course--><g id="elem_Course"><rect codeLine="12" fill="#F1F1F1" height="60.582" id="Course" rx="2.5" ry="2.5" style="stroke:#181818;stroke-width:0.5;" width="86" x="864.5" y="344.6211"/><ellipse cx="879.5" cy="366.9121" fill="#ADD1B2" rx="11" ry="11" style="stroke:#181818;stroke-width:1.0;"/><path d="M882.2656,362.7871 Q882.4219,362.5684 882.6094,362.459 Q882.7969,362.3496 883.0156,362.3496 Q883.3906,362.3496 883.625,362.6152 Q883.8594,362.8652 883.8594,363.4746 L883.8594,364.9277 Q883.8594,365.5371 883.625,365.8027 Q883.3906,366.0684 883.0156,366.0684 Q882.6719,366.0684 882.4688,365.8652 Q882.2656,365.6777 882.1563,365.1621 Q882.1094,364.8027 881.9219,364.6152 Q881.5938,364.2402 880.9844,364.0215 Q880.375,363.8027 879.75,363.8027 Q878.9844,363.8027 878.3438,364.1309 Q877.7188,364.459 877.2188,365.209 Q876.7344,365.959 876.7344,366.9902 L876.7344,368.084 Q876.7344,369.3184 877.625,370.1465 Q878.5156,370.959 880.1094,370.959 Q881.0469,370.959 881.7031,370.709 Q882.0938,370.5527 882.5156,370.1152 Q882.7813,369.8496 882.9219,369.7715 Q883.0781,369.6934 883.2813,369.6934 Q883.6094,369.6934 883.8594,369.959 Q884.125,370.209 884.125,370.5527 Q884.125,370.8965 883.7813,371.3027 Q883.2813,371.8809 882.4844,372.209 Q881.4063,372.6621 880.1094,372.6621 Q878.5938,372.6621 877.3906,372.0371 Q876.4063,371.5371 875.7188,370.4746 Q875.0313,369.3965 875.0313,368.1152 L875.0313,366.959 Q875.0313,365.6309 875.6406,364.4902 Q876.2656,363.334 877.3594,362.7246 Q878.4531,362.0996 879.6875,362.0996 Q880.4219,362.0996 881.0625,362.2715 Q881.7188,362.4277 882.2656,362.7871 Z " fill="#000000"/><text fill="#000000" font-family="sans-serif" font-size="12" font-style="italic" lengthAdjust="spacing" textLength="58" x="891.5" y="362.5703">&#171;Domain&#187;</text><text fill="#000000" font-family="sans-serif" font-size="14" lengthAdjust="spacing" textLength="46" x="897.5" y="380.6895">Course</text><line style="stroke:#181818;stroke-width:0.5;" x1="865.5" x2="949.5" y1="389.2031" y2="389.2031"/><line style="stroke:#181818;stroke-width:0.5;" x1="865.5" x2="949.5" y1="397.2031" y2="397.2031"/></g><!--class CourseController--><g id="elem_CourseController"><rect codeLine="14" fill="#F1F1F1" height="60.582" id="CourseController" rx="2.5" ry="2.5" style="stroke:#181818;stroke-width:0.5;" width="140" x="614.5" y="204.6211"/><ellipse cx="629.5" cy="226.9121" fill="#ADD1B2" rx="11" ry="11" style="stroke:#181818;stroke-width:1.0;"/><path d="M632.2656,222.7871 Q632.4219,222.5684 632.6094,222.459 Q632.7969,222.3496 633.0156,222.3496 Q633.3906,222.3496 633.625,222.6152 Q633.8594,222.8652 633.8594,223.4746 L633.8594,224.9277 Q633.8594,225.5371 633.625,225.8027 Q633.3906,226.0684 633.0156,226.0684 Q632.6719,226.0684 632.4688,225.8652 Q632.2656,225.6777 632.1563,225.1621 Q632.1094,224.8027 631.9219,224.6152 Q631.5938,224.2402 630.9844,224.0215 Q630.375,223.8027 629.75,223.8027 Q628.9844,223.8027 628.3438,224.1309 Q627.7188,224.459 627.2188,225.209 Q626.7344,225.959 626.7344,226.9902 L626.7344,228.084 Q626.7344,229.3184 627.625,230.1465 Q628.5156,230.959 630.1094,230.959 Q631.0469,230.959 631.7031,230.709 Q632.0938,230.5527 632.5156,230.1152 Q632.7813,229.8496 632.9219,229.7715 Q633.0781,229.6934 633.2813,229.6934 Q633.6094,229.6934 633.8594,229.959 Q634.125,230.209 634.125,230.5527 Q634.125,230.8965 633.7813,231.3027 Q633.2813,231.8809 632.4844,232.209 Q631.4063,232.6621 630.1094,232.6621 Q628.5938,232.6621 627.3906,232.0371 Q626.4063,231.5371 625.7188,230.4746 Q625.0313,229.3965 625.0313,228.1152 L625.0313,226.959 Q625.0313,225.6309 625.6406,224.4902 Q626.2656,223.334 627.3594,222.7246 Q628.4531,222.0996 629.6875,222.0996 Q630.4219,222.0996 631.0625,222.2715 Q631.7188,222.4277 632.2656,222.7871 Z " fill="#000000"/><text fill="#000000" font-family="sans-serif" font-size="12" font-style="italic" lengthAdjust="spacing" textLength="75" x="660" y="222.5703">&#171;Application&#187;</text><text fill="#000000" font-family="sans-serif" font-size="14" lengthAdjust="spacing" textLength="108" x="643.5" y="240.6895">CourseController</text><line style="stroke:#181818;stroke-width:0.5;" x1="615.5" x2="753.5" y1="249.2031" y2="249.2031"/><line style="stroke:#181818;stroke-width:0.5;" x1="615.5" x2="753.5" y1="257.2031" y2="257.2031"/></g><!--class UserRepository--><g id="elem_UserRepository"><rect codeLine="16" fill="#F1F1F1" height="60.582" id="UserRepository" rx="2.5" ry="2.5" style="stroke:#181818;stroke-width:0.5;" width="130" x="496.5" y="466.6211"/><ellipse cx="511.5" cy="488.9121" fill="#B4A7E5" rx="11" ry="11" style="stroke:#181818;stroke-width:1.0;"/><path d="M512.4531,485.5527 L512.4531,492.209 L514.1719,492.209 Q514.7813,492.209 515.0469,492.4434 Q515.3125,492.6777 515.3125,493.0684 Q515.3125,493.4434 515.0469,493.6777 Q514.7813,493.9121 514.1719,493.9121 L509.0313,493.9121 Q508.4219,493.9121 508.1563,493.6777 Q507.8906,493.4434 507.8906,493.0527 Q507.8906,492.6777 508.1563,492.4434 Q508.4219,492.209 509.0313,492.209 L510.75,492.209 L510.75,485.5527 L509.0313,485.5527 Q508.4219,485.5527 508.1563,485.3184 Q507.8906,485.084 507.8906,484.6934 Q507.8906,484.3184 508.1563,484.084 Q508.4219,483.8496 509.0313,483.8496 L514.1719,483.8496 Q514.7813,483.8496 515.0469,484.084 Q515.3125,484.3184 515.3125,484.6934 Q515.3125,485.084 515.0469,485.3184 Q514.7813,485.5527 514.1719,485.5527 L512.4531,485.5527 Z " fill="#000000"/><text fill="#000000" font-family="sans-serif" font-size="12" font-style="italic" lengthAdjust="spacing" textLength="83" x="533" y="484.5703">&#171;Repositories&#187;</text><text fill="#000000" font-family="sans-serif" font-size="14" font-style="italic" lengthAdjust="spacing" textLength="98" x="525.5" y="502.6895">UserRepository</text><line style="stroke:#181818;stroke-width:0.5;" x1="497.5" x2="625.5" y1="511.2031" y2="511.2031"/><line style="stroke:#181818;stroke-width:0.5;" x1="497.5" x2="625.5" y1="519.2031" y2="519.2031"/></g><!--link CreateCourseUI to CourseController--><g id="link_CreateCourseUI_CourseController"><path codeLine="18" d="M684.5,125.7411 C684.5,148.5811 684.5,177.2711 684.5,199.3911 " fill="none" id="CreateCourseUI-to-CourseController" style="stroke:#181818;stroke-width:1.0;"/><polygon fill="#181818" points="684.5,204.5811,688.5,195.5811,684.5,199.5811,680.5,195.5811,684.5,204.5811" style="stroke:#181818;stroke-width:1.0;"/><text fill="#000000" font-family="sans-serif" font-size="13" lengthAdjust="spacing" textLength="73" x="685.5" y="170.6494">theController</text></g><!--link CourseController to UserRepository--><g id="link_CourseController_UserRepository"><path codeLine="20" d="M614.21,252.2111 C586.08,261.3311 554.88,275.1611 531.5,295.6211 C512.79,312.0011 510.7,320.5411 504.5,344.6211 C497.74,370.8811 496.98,379.5711 504.5,405.6211 C510.34,425.8411 522.18,445.9011 533.56,461.9711 " fill="none" id="CourseController-to-UserRepository" style="stroke:#181818;stroke-width:1.0;"/><polygon fill="#181818" points="536.76,466.3911,534.7581,456.7478,533.843,462.3302,528.2607,461.415,536.76,466.3911" style="stroke:#181818;stroke-width:1.0;"/><text fill="#000000" font-family="sans-serif" font-size="13" lengthAdjust="spacing" textLength="25" x="505.5" y="380.6494">repo</text></g><!--link CourseController to UserRepository--><g id="link_CourseController_UserRepository"><path codeLine="30" d="M652.04,265.8311 C631.87,286.1011 607.08,314.6411 592.5,344.6211 C574.36,381.9411 566.82,429.4211 563.7,461.1911 " fill="none" id="CourseController-to-UserRepository-1" style="stroke:#181818;stroke-width:1.0;stroke-dasharray:7.0,7.0;"/><polygon fill="#181818" points="563.2,466.5411,568.0051,457.9439,563.6565,461.562,560.0385,457.2135,563.2,466.5411" style="stroke:#181818;stroke-width:1.0;"/></g><!--link CourseController to Course--><g id="link_CourseController_Course"><path codeLine="21" d="M754.58,255.5911 C781.9,265.1111 812.56,278.3111 837.5,295.6211 C854.91,307.7111 870.93,324.9711 883.23,340.2411 " fill="none" id="CourseController-to-Course" style="stroke:#181818;stroke-width:1.0;"/><polygon fill="#181818" points="886.6,344.4811,884.1481,334.9423,883.4958,340.5614,877.8766,339.9091,886.6,344.4811" style="stroke:#181818;stroke-width:1.0;"/><text fill="#000000" font-family="sans-serif" font-size="13" lengthAdjust="spacing" textLength="25" x="861.5" y="310.6494">user</text></g><!--link CourseController to RepositoryFactory--><g id="link_CourseController_RepositoryFactory"><path codeLine="22" d="M684.5,265.7211 C684.5,287.3711 684.5,316.8011 684.5,339.5311 " fill="none" id="CourseController-to-RepositoryFactory" style="stroke:#181818;stroke-width:1.0;stroke-dasharray:7.0,7.0;"/><polygon fill="#181818" points="684.5,344.5611,688.5,335.5611,684.5,339.5611,680.5,335.5611,684.5,344.5611" style="stroke:#181818;stroke-width:1.0;"/></g><!--link CourseController to PersistenceContext--><g id="link_CourseController_PersistenceContext"><path codeLine="23" d="M719.59,265.9111 C740.19,285.8111 764.32,313.8911 775.5,344.6211 C806.62,430.1511 747.58,532.2111 710.79,584.1311 " fill="none" id="CourseController-to-PersistenceContext" style="stroke:#181818;stroke-width:1.0;stroke-dasharray:7.0,7.0;"/><polygon fill="#181818" points="707.74,588.3911,716.231,583.4009,710.6502,584.3253,709.7258,578.7445,707.74,588.3911" style="stroke:#181818;stroke-width:1.0;"/></g><!--link RepositoryFactory to UserRepository--><g id="link_RepositoryFactory_UserRepository"><path codeLine="25" d="M654.1,405.7811 C636.35,423.0911 613.93,444.9711 595.59,462.8611 " fill="none" id="RepositoryFactory-to-UserRepository" style="stroke:#181818;stroke-width:1.0;stroke-dasharray:7.0,7.0;"/><polygon fill="#181818" points="591.98,466.3811,601.2146,462.9575,595.5582,462.8888,595.6269,457.2323,591.98,466.3811" style="stroke:#181818;stroke-width:1.0;"/></g><!--link RepositoryFactory to PersistenceContext--><g id="link_RepositoryFactory_PersistenceContext"><path codeLine="26" d="M684.5,405.7911 C684.5,450.7311 684.5,535.8411 684.5,583.5211 " fill="none" id="RepositoryFactory-to-PersistenceContext" style="stroke:#181818;stroke-width:1.0;stroke-dasharray:7.0,7.0;"/><polygon fill="#181818" points="684.5,588.5811,688.5,579.5811,684.5,583.5811,680.5,579.5811,684.5,588.5811" style="stroke:#181818;stroke-width:1.0;"/></g><!--link UserRepository to PersistenceContext--><g id="link_UserRepository_PersistenceContext"><path codeLine="28" d="M591.9,527.7811 C609.65,545.0911 632.07,566.9711 650.41,584.8611 " fill="none" id="UserRepository-to-PersistenceContext" style="stroke:#181818;stroke-width:1.0;stroke-dasharray:7.0,7.0;"/><polygon fill="#181818" points="654.02,588.3811,650.3731,579.2323,650.4418,584.8888,644.7854,584.9575,654.02,588.3811" style="stroke:#181818;stroke-width:1.0;"/></g><!--link JpaAutoTxCourseRepository to UserRepository--><g id="link_JpaAutoTxCourseRepository_UserRepository"><path codeLine="32" d="M461.72,497.1211 C471.57,497.1211 481.41,497.1211 491.26,497.1211 " fill="none" id="JpaAutoTxCourseRepository-to-UserRepository" style="stroke:#181818;stroke-width:1.0;"/><polygon fill="#181818" points="496.41,497.1211,487.41,493.1211,491.41,497.1211,487.41,501.1211,496.41,497.1211" style="stroke:#181818;stroke-width:1.0;"/></g><!--link InMemoryCourseRepository to UserRepository--><g id="link_InMemoryCourseRepository_UserRepository"><path codeLine="33" d="M165.66,466.5211 C190.36,454.5011 220.33,442.1511 249,436.1211 C341.2,416.7111 370.26,410.7411 461,436.1211 C481.11,441.7511 501.2,452.6211 518.08,463.6511 " fill="none" id="InMemoryCourseRepository-to-UserRepository" style="stroke:#181818;stroke-width:1.0;"/><polygon fill="#181818" points="522.3,466.4511,517.0303,458.1306,518.1397,463.6776,512.5927,464.787,522.3,466.4511" style="stroke:#181818;stroke-width:1.0;"/></g><!--SRC=[ZP9HQuCm4CVVyodkiNqGkZrA4Oeow60mvdmQUmXwdG5D93bPn-XtNsnTgucspOivy_ldVtSv4bGXn1Kt1XB1lpIlOP6coH82o59uMAqU6SkFnx56JXYhLXlCjh1UDneDIk8ab8mY-6LWLw7IKdqlbkp0c924UiTpX3Tib16azCyJpxkFbUzEkqvvw2rUKHjX26LkVQnuJvtDvUUGVMxufYNrlZzbT76Obspb2zQMk4VnN_GHjK2YQYxan5cNg5PLXTfIcwQfH7xkoAW7cK4zyZm70arFEpqEWiXt2O7AGMn5Bj797BSGj0scqRx645ghcK0-2cvAB3ujwhtZTTn_JyRyKHWgncdVWAUkT-g-XLzDtqc6pO-S3y_Ece_-0G00]--></g></svg>