<?xml version="1.0" encoding="us-ascii" standalone="no"?><svg xmlns="http://www.w3.org/2000/svg" xmlns:xlink="http://www.w3.org/1999/xlink" contentStyleType="text/css" height="455px" preserveAspectRatio="none" style="width:1192px;height:455px;background:#FFFFFF;" version="1.1" viewBox="0 0 1192 455" width="1192px" zoomAndPan="magnify"><defs/><g><!--cluster <<aggregate>> Course--><g id="cluster_&lt;&lt;aggregate&gt;&gt; Course"><path d="M8.5,6.0137 L152.5,6.0137 A3.75,3.75 0 0 1 155,8.5137 L162,30.6348 L988.5,30.6348 A2.5,2.5 0 0 1 991,33.1348 L991,446.0137 A2.5,2.5 0 0 1 988.5,448.5137 L8.5,448.5137 A2.5,2.5 0 0 1 6,446.0137 L6,8.5137 A2.5,2.5 0 0 1 8.5,6.0137 " fill="none" style="stroke:#000000;stroke-width:1.5;"/><line style="stroke:#000000;stroke-width:1.5;" x1="6" x2="162" y1="30.6348" y2="30.6348"/><text fill="#000000" font-family="sans-serif" font-size="14" font-weight="bold" lengthAdjust="spacing" textLength="143" x="10" y="23.1211">&#171;aggregate&#187; Course</text></g><!--cluster <<aggregate>> Manager--><g id="cluster_&lt;&lt;aggregate&gt;&gt; Manager"><path d="M1017.5,185.0137 L1172.5,185.0137 A3.75,3.75 0 0 1 1175,187.5137 L1182,209.6348 L1182.5,209.6348 A2.5,2.5 0 0 1 1185,212.1348 L1185,312.5137 A2.5,2.5 0 0 1 1182.5,315.0137 L1017.5,315.0137 A2.5,2.5 0 0 1 1015,312.5137 L1015,187.5137 A2.5,2.5 0 0 1 1017.5,185.0137 " fill="none" style="stroke:#000000;stroke-width:1.5;"/><line style="stroke:#000000;stroke-width:1.5;" x1="1015" x2="1182" y1="209.6348" y2="209.6348"/><text fill="#000000" font-family="sans-serif" font-size="14" font-weight="bold" lengthAdjust="spacing" textLength="154" x="1019" y="202.1211">&#171;aggregate&#187; Manager</text></g><!--class Course--><g id="elem_Course"><rect codeLine="6" fill="#F1F1F1" height="76.543" id="Course" rx="2.5" ry="2.5" style="stroke:#181818;stroke-width:0.5;" width="78" x="519" y="43.0137"/><ellipse cx="534" cy="73.2852" fill="#ADD1B2" rx="11" ry="11" style="stroke:#181818;stroke-width:1.0;"/><path d="M532.8594,74.082 L532.8594,76.582 L537.1875,76.582 L537.1875,75.6602 Q537.1875,75.0508 537.4219,74.7852 Q537.6719,74.5195 538.0469,74.5195 Q538.4219,74.5195 538.6563,74.7852 Q538.8906,75.0508 538.8906,75.6602 L538.8906,78.2852 L530.8906,78.2852 Q530.2656,78.2852 530,78.0508 Q529.75,77.8164 529.75,77.4258 Q529.75,77.0508 530.0156,76.8164 Q530.2813,76.582 530.8906,76.582 L531.1563,76.582 L531.1563,69.9258 L530.8906,69.9258 Q530.2656,69.9258 530,69.6914 Q529.75,69.457 529.75,69.0664 Q529.75,68.6914 530,68.457 Q530.2656,68.2227 530.8906,68.2227 L538.5156,68.2227 L538.5156,70.8164 Q538.5156,71.4258 538.2813,71.6914 Q538.0625,71.9414 537.6719,71.9414 Q537.2969,71.9414 537.0625,71.6914 Q536.8281,71.4258 536.8281,70.8164 L536.8281,69.9258 L532.8594,69.9258 L532.8594,72.3789 L534.3438,72.3789 Q534.3438,71.7227 534.4688,71.5352 Q534.7344,71.1289 535.2031,71.1289 Q535.5781,71.1289 535.8125,71.3945 Q536.0469,71.6445 536.0469,72.2539 L536.0469,74.2227 Q536.0469,74.7695 535.9219,74.957 Q535.6563,75.3477 535.2031,75.3477 Q534.7344,75.3477 534.4688,74.9414 Q534.3438,74.7539 534.3438,74.082 L532.8594,74.082 Z " fill="#000000"/><text fill="#000000" font-family="sans-serif" font-size="12" font-style="italic" lengthAdjust="spacing" textLength="43" x="549.5" y="60.9629">&#171;entity&#187;</text><text fill="#000000" font-family="sans-serif" font-size="12" font-style="italic" lengthAdjust="spacing" textLength="35" x="553.5" y="76.9238">&#171;root&#187;</text><text fill="#000000" font-family="sans-serif" font-size="14" lengthAdjust="spacing" textLength="46" x="548" y="95.043">Course</text><line style="stroke:#181818;stroke-width:0.5;" x1="520" x2="596" y1="103.5566" y2="103.5566"/><line style="stroke:#181818;stroke-width:0.5;" x1="520" x2="596" y1="111.5566" y2="111.5566"/></g><!--class CourseTitle--><g id="elem_CourseTitle"><rect codeLine="7" fill="#F1F1F1" height="60.582" id="CourseTitle" rx="2.5" ry="2.5" style="stroke:#181818;stroke-width:0.5;" width="109" x="22.5" y="230.0137"/><ellipse cx="37.5" cy="252.3047" fill="#FF8B40" rx="11" ry="11" style="stroke:#181818;stroke-width:1.0;"/><path d="M38.0938,255.5703 L40.5625,249.6953 L40.1719,249.6953 Q39.5625,249.6953 39.2969,249.4609 Q39.0313,249.2266 39.0313,248.8359 Q39.0313,248.4609 39.2969,248.2266 Q39.5625,247.9922 40.1719,247.9922 L42.4531,247.9922 Q43.0625,247.9922 43.3281,248.2266 Q43.5938,248.4609 43.5938,248.8359 Q43.5938,249.3047 43.1875,249.5703 Q43,249.6953 42.4063,249.6953 L38.9219,258.0547 L37.2813,258.0547 L33.7969,249.6953 Q33.2031,249.6953 33.0156,249.5703 Q32.6094,249.3047 32.6094,248.8359 Q32.6094,248.4609 32.875,248.2266 Q33.1406,247.9922 33.75,247.9922 L36.0469,247.9922 Q36.6563,247.9922 36.9063,248.2266 Q37.1719,248.4609 37.1719,248.8359 Q37.1719,249.2266 36.9063,249.4609 Q36.6563,249.6953 36.0469,249.6953 L35.6406,249.6953 L38.0938,255.5703 Z " fill="#000000"/><text fill="#000000" font-family="sans-serif" font-size="12" font-style="italic" lengthAdjust="spacing" textLength="81" x="49.5" y="247.9629">&#171;value object&#187;</text><text fill="#000000" font-family="sans-serif" font-size="14" lengthAdjust="spacing" textLength="73" x="53.5" y="266.082">CourseTitle</text><line style="stroke:#181818;stroke-width:0.5;" x1="23.5" x2="130.5" y1="274.5957" y2="274.5957"/><line style="stroke:#181818;stroke-width:0.5;" x1="23.5" x2="130.5" y1="282.5957" y2="282.5957"/></g><!--class CourseCode--><g id="elem_CourseCode"><rect codeLine="8" fill="#F1F1F1" height="60.582" id="CourseCode" rx="2.5" ry="2.5" style="stroke:#181818;stroke-width:0.5;" width="112" x="167" y="230.0137"/><ellipse cx="182" cy="252.3047" fill="#FF8B40" rx="11" ry="11" style="stroke:#181818;stroke-width:1.0;"/><path d="M182.5938,255.5703 L185.0625,249.6953 L184.6719,249.6953 Q184.0625,249.6953 183.7969,249.4609 Q183.5313,249.2266 183.5313,248.8359 Q183.5313,248.4609 183.7969,248.2266 Q184.0625,247.9922 184.6719,247.9922 L186.9531,247.9922 Q187.5625,247.9922 187.8281,248.2266 Q188.0938,248.4609 188.0938,248.8359 Q188.0938,249.3047 187.6875,249.5703 Q187.5,249.6953 186.9063,249.6953 L183.4219,258.0547 L181.7813,258.0547 L178.2969,249.6953 Q177.7031,249.6953 177.5156,249.5703 Q177.1094,249.3047 177.1094,248.8359 Q177.1094,248.4609 177.375,248.2266 Q177.6406,247.9922 178.25,247.9922 L180.5469,247.9922 Q181.1563,247.9922 181.4063,248.2266 Q181.6719,248.4609 181.6719,248.8359 Q181.6719,249.2266 181.4063,249.4609 Q181.1563,249.6953 180.5469,249.6953 L180.1406,249.6953 L182.5938,255.5703 Z " fill="#000000"/><text fill="#000000" font-family="sans-serif" font-size="12" font-style="italic" lengthAdjust="spacing" textLength="81" x="195.5" y="247.9629">&#171;value object&#187;</text><text fill="#000000" font-family="sans-serif" font-size="14" lengthAdjust="spacing" textLength="80" x="196" y="266.082">CourseCode</text><line style="stroke:#181818;stroke-width:0.5;" x1="168" x2="278" y1="274.5957" y2="274.5957"/><line style="stroke:#181818;stroke-width:0.5;" x1="168" x2="278" y1="282.5957" y2="282.5957"/></g><!--class CourseDescription--><g id="elem_CourseDescription"><rect codeLine="9" fill="#F1F1F1" height="60.582" id="CourseDescription" rx="2.5" ry="2.5" style="stroke:#181818;stroke-width:0.5;" width="149" x="314.5" y="230.0137"/><ellipse cx="329.5" cy="252.3047" fill="#FF8B40" rx="11" ry="11" style="stroke:#181818;stroke-width:1.0;"/><path d="M330.0938,255.5703 L332.5625,249.6953 L332.1719,249.6953 Q331.5625,249.6953 331.2969,249.4609 Q331.0313,249.2266 331.0313,248.8359 Q331.0313,248.4609 331.2969,248.2266 Q331.5625,247.9922 332.1719,247.9922 L334.4531,247.9922 Q335.0625,247.9922 335.3281,248.2266 Q335.5938,248.4609 335.5938,248.8359 Q335.5938,249.3047 335.1875,249.5703 Q335,249.6953 334.4063,249.6953 L330.9219,258.0547 L329.2813,258.0547 L325.7969,249.6953 Q325.2031,249.6953 325.0156,249.5703 Q324.6094,249.3047 324.6094,248.8359 Q324.6094,248.4609 324.875,248.2266 Q325.1406,247.9922 325.75,247.9922 L328.0469,247.9922 Q328.6563,247.9922 328.9063,248.2266 Q329.1719,248.4609 329.1719,248.8359 Q329.1719,249.2266 328.9063,249.4609 Q328.6563,249.6953 328.0469,249.6953 L327.6406,249.6953 L330.0938,255.5703 Z " fill="#000000"/><text fill="#000000" font-family="sans-serif" font-size="12" font-style="italic" lengthAdjust="spacing" textLength="81" x="361.5" y="247.9629">&#171;value object&#187;</text><text fill="#000000" font-family="sans-serif" font-size="14" lengthAdjust="spacing" textLength="117" x="343.5" y="266.082">CourseDescription</text><line style="stroke:#181818;stroke-width:0.5;" x1="315.5" x2="462.5" y1="274.5957" y2="274.5957"/><line style="stroke:#181818;stroke-width:0.5;" x1="315.5" x2="462.5" y1="282.5957" y2="282.5957"/></g><!--class CourseStatus--><g id="elem_CourseStatus"><rect codeLine="10" fill="#F1F1F1" height="60.582" id="CourseStatus" rx="2.5" ry="2.5" style="stroke:#181818;stroke-width:0.5;" width="118" x="499" y="230.0137"/><ellipse cx="514" cy="252.3047" fill="#FF8B40" rx="11" ry="11" style="stroke:#181818;stroke-width:1.0;"/><path d="M514.5938,255.5703 L517.0625,249.6953 L516.6719,249.6953 Q516.0625,249.6953 515.7969,249.4609 Q515.5313,249.2266 515.5313,248.8359 Q515.5313,248.4609 515.7969,248.2266 Q516.0625,247.9922 516.6719,247.9922 L518.9531,247.9922 Q519.5625,247.9922 519.8281,248.2266 Q520.0938,248.4609 520.0938,248.8359 Q520.0938,249.3047 519.6875,249.5703 Q519.5,249.6953 518.9063,249.6953 L515.4219,258.0547 L513.7813,258.0547 L510.2969,249.6953 Q509.7031,249.6953 509.5156,249.5703 Q509.1094,249.3047 509.1094,248.8359 Q509.1094,248.4609 509.375,248.2266 Q509.6406,247.9922 510.25,247.9922 L512.5469,247.9922 Q513.1563,247.9922 513.4063,248.2266 Q513.6719,248.4609 513.6719,248.8359 Q513.6719,249.2266 513.4063,249.4609 Q513.1563,249.6953 512.5469,249.6953 L512.1406,249.6953 L514.5938,255.5703 Z " fill="#000000"/><text fill="#000000" font-family="sans-serif" font-size="12" font-style="italic" lengthAdjust="spacing" textLength="81" x="530.5" y="247.9629">&#171;value object&#187;</text><text fill="#000000" font-family="sans-serif" font-size="14" lengthAdjust="spacing" textLength="86" x="528" y="266.082">CourseStatus</text><line style="stroke:#181818;stroke-width:0.5;" x1="500" x2="616" y1="274.5957" y2="274.5957"/><line style="stroke:#181818;stroke-width:0.5;" x1="500" x2="616" y1="282.5957" y2="282.5957"/></g><g id="elem_GMN8"><path d="M467,370.5137 L467,432.3867 A0,0 0 0 0 467,432.3867 L649,432.3867 A0,0 0 0 0 649,432.3867 L649,380.5137 L639,370.5137 L562,370.5137 L558,291.3337 L554,370.5137 L467,370.5137 A0,0 0 0 0 467,370.5137 " fill="#FEFFDD" style="stroke:#181818;stroke-width:0.5;"/><path d="M639,370.5137 L639,380.5137 L649,380.5137 L639,370.5137 " fill="#FEFFDD" style="stroke:#181818;stroke-width:0.5;"/><text fill="#000000" font-family="sans-serif" font-size="13" lengthAdjust="spacing" textLength="123" x="473" y="389.542">Diagrama de estados</text><text fill="#000000" font-family="sans-serif" font-size="13" lengthAdjust="spacing" textLength="132" x="473" y="406.833">dispon&#237;vel com o nome</text><text fill="#000000" font-family="sans-serif" font-size="13" lengthAdjust="spacing" textLength="161" x="473" y="424.124">"course-status-user-stories"</text></g><!--class CourseEnrolmentLimits--><g id="elem_CourseEnrolmentLimits"><rect codeLine="16" fill="#F1F1F1" height="97.8242" id="CourseEnrolmentLimits" rx="2.5" ry="2.5" style="stroke:#181818;stroke-width:0.5;" width="178" x="652" y="211.5137"/><ellipse cx="667" cy="233.8047" fill="#FF8B40" rx="11" ry="11" style="stroke:#181818;stroke-width:1.0;"/><path d="M667.5938,237.0703 L670.0625,231.1953 L669.6719,231.1953 Q669.0625,231.1953 668.7969,230.9609 Q668.5313,230.7266 668.5313,230.3359 Q668.5313,229.9609 668.7969,229.7266 Q669.0625,229.4922 669.6719,229.4922 L671.9531,229.4922 Q672.5625,229.4922 672.8281,229.7266 Q673.0938,229.9609 673.0938,230.3359 Q673.0938,230.8047 672.6875,231.0703 Q672.5,231.1953 671.9063,231.1953 L668.4219,239.5547 L666.7813,239.5547 L663.2969,231.1953 Q662.7031,231.1953 662.5156,231.0703 Q662.1094,230.8047 662.1094,230.3359 Q662.1094,229.9609 662.375,229.7266 Q662.6406,229.4922 663.25,229.4922 L665.5469,229.4922 Q666.1563,229.4922 666.4063,229.7266 Q666.6719,229.9609 666.6719,230.3359 Q666.6719,230.7266 666.4063,230.9609 Q666.1563,231.1953 665.5469,231.1953 L665.1406,231.1953 L667.5938,237.0703 Z " fill="#000000"/><text fill="#000000" font-family="sans-serif" font-size="12" font-style="italic" lengthAdjust="spacing" textLength="81" x="713.5" y="229.4629">&#171;value object&#187;</text><text fill="#000000" font-family="sans-serif" font-size="14" lengthAdjust="spacing" textLength="146" x="681" y="247.582">CourseEnrolmentLimits</text><line style="stroke:#181818;stroke-width:0.5;" x1="653" x2="829" y1="256.0957" y2="256.0957"/><text fill="#000000" font-family="sans-serif" font-size="14" lengthAdjust="spacing" textLength="119" x="658" y="275.2031">minimumEnrolment</text><text fill="#000000" font-family="sans-serif" font-size="14" lengthAdjust="spacing" textLength="122" x="658" y="293.8242">maximumEnrolment</text><line style="stroke:#181818;stroke-width:0.5;" x1="653" x2="829" y1="301.3379" y2="301.3379"/></g><!--class CourseDate--><g id="elem_CourseDate"><rect codeLine="20" fill="#F1F1F1" height="97.8242" id="CourseDate" rx="2.5" ry="2.5" style="stroke:#181818;stroke-width:0.5;" width="109" x="865.5" y="211.5137"/><ellipse cx="880.5" cy="233.8047" fill="#FF8B40" rx="11" ry="11" style="stroke:#181818;stroke-width:1.0;"/><path d="M881.0938,237.0703 L883.5625,231.1953 L883.1719,231.1953 Q882.5625,231.1953 882.2969,230.9609 Q882.0313,230.7266 882.0313,230.3359 Q882.0313,229.9609 882.2969,229.7266 Q882.5625,229.4922 883.1719,229.4922 L885.4531,229.4922 Q886.0625,229.4922 886.3281,229.7266 Q886.5938,229.9609 886.5938,230.3359 Q886.5938,230.8047 886.1875,231.0703 Q886,231.1953 885.4063,231.1953 L881.9219,239.5547 L880.2813,239.5547 L876.7969,231.1953 Q876.2031,231.1953 876.0156,231.0703 Q875.6094,230.8047 875.6094,230.3359 Q875.6094,229.9609 875.875,229.7266 Q876.1406,229.4922 876.75,229.4922 L879.0469,229.4922 Q879.6563,229.4922 879.9063,229.7266 Q880.1719,229.9609 880.1719,230.3359 Q880.1719,230.7266 879.9063,230.9609 Q879.6563,231.1953 879.0469,231.1953 L878.6406,231.1953 L881.0938,237.0703 Z " fill="#000000"/><text fill="#000000" font-family="sans-serif" font-size="12" font-style="italic" lengthAdjust="spacing" textLength="81" x="892.5" y="229.4629">&#171;value object&#187;</text><text fill="#000000" font-family="sans-serif" font-size="14" lengthAdjust="spacing" textLength="76" x="895" y="247.582">CourseDate</text><line style="stroke:#181818;stroke-width:0.5;" x1="866.5" x2="973.5" y1="256.0957" y2="256.0957"/><text fill="#000000" font-family="sans-serif" font-size="14" lengthAdjust="spacing" textLength="58" x="871.5" y="275.2031">dateStart</text><text fill="#000000" font-family="sans-serif" font-size="14" lengthAdjust="spacing" textLength="53" x="871.5" y="293.8242">dateEnd</text><line style="stroke:#181818;stroke-width:0.5;" x1="866.5" x2="973.5" y1="301.3379" y2="301.3379"/></g><!--class Manager--><g id="elem_Manager"><rect codeLine="28" fill="#F1F1F1" height="76.543" id="Manager" rx="2.5" ry="2.5" style="stroke:#181818;stroke-width:0.5;" width="88" x="1031" y="222.0137"/><ellipse cx="1046" cy="252.2852" fill="#ADD1B2" rx="11" ry="11" style="stroke:#181818;stroke-width:1.0;"/><path d="M1044.8594,253.082 L1044.8594,255.582 L1049.1875,255.582 L1049.1875,254.6602 Q1049.1875,254.0508 1049.4219,253.7852 Q1049.6719,253.5195 1050.0469,253.5195 Q1050.4219,253.5195 1050.6563,253.7852 Q1050.8906,254.0508 1050.8906,254.6602 L1050.8906,257.2852 L1042.8906,257.2852 Q1042.2656,257.2852 1042,257.0508 Q1041.75,256.8164 1041.75,256.4258 Q1041.75,256.0508 1042.0156,255.8164 Q1042.2813,255.582 1042.8906,255.582 L1043.1563,255.582 L1043.1563,248.9258 L1042.8906,248.9258 Q1042.2656,248.9258 1042,248.6914 Q1041.75,248.457 1041.75,248.0664 Q1041.75,247.6914 1042,247.457 Q1042.2656,247.2227 1042.8906,247.2227 L1050.5156,247.2227 L1050.5156,249.8164 Q1050.5156,250.4258 1050.2813,250.6914 Q1050.0625,250.9414 1049.6719,250.9414 Q1049.2969,250.9414 1049.0625,250.6914 Q1048.8281,250.4258 1048.8281,249.8164 L1048.8281,248.9258 L1044.8594,248.9258 L1044.8594,251.3789 L1046.3438,251.3789 Q1046.3438,250.7227 1046.4688,250.5352 Q1046.7344,250.1289 1047.2031,250.1289 Q1047.5781,250.1289 1047.8125,250.3945 Q1048.0469,250.6445 1048.0469,251.2539 L1048.0469,253.2227 Q1048.0469,253.7695 1047.9219,253.957 Q1047.6563,254.3477 1047.2031,254.3477 Q1046.7344,254.3477 1046.4688,253.9414 Q1046.3438,253.7539 1046.3438,253.082 L1044.8594,253.082 Z " fill="#000000"/><text fill="#000000" font-family="sans-serif" font-size="12" font-style="italic" lengthAdjust="spacing" textLength="43" x="1066.5" y="239.9629">&#171;entity&#187;</text><text fill="#000000" font-family="sans-serif" font-size="12" font-style="italic" lengthAdjust="spacing" textLength="35" x="1070.5" y="255.9238">&#171;root&#187;</text><text fill="#000000" font-family="sans-serif" font-size="14" lengthAdjust="spacing" textLength="56" x="1060" y="274.043">Manager</text><line style="stroke:#181818;stroke-width:0.5;" x1="1032" x2="1118" y1="282.5566" y2="282.5566"/><line style="stroke:#181818;stroke-width:0.5;" x1="1032" x2="1118" y1="290.5566" y2="290.5566"/></g><!--link Course to CourseTitle--><g id="link_Course_CourseTitle"><path codeLine="31" d="M518.83,83.7737 C442.57,87.8337 271.04,104.9437 150,177.0137 C129.85,189.0137 112.26,208.4437 99.39,225.4337 " fill="none" id="Course-to-CourseTitle" style="stroke:#181818;stroke-width:1.0;"/><polygon fill="#181818" points="96.23,229.6937,104.8107,224.8593,99.214,225.6817,98.3916,220.085,96.23,229.6937" style="stroke:#181818;stroke-width:1.0;"/></g><!--link Course to CourseCode--><g id="link_Course_CourseCode"><path codeLine="32" d="M518.98,90.3237 C465.41,102.3937 367.71,129.3037 297,177.0137 C277.74,190.0137 260.18,209.1037 247.01,225.6537 " fill="none" id="Course-to-CourseCode" style="stroke:#181818;stroke-width:1.0;"/><polygon fill="#181818" points="243.75,229.7937,252.4468,225.1714,246.8315,225.8561,246.1468,220.2409,243.75,229.7937" style="stroke:#181818;stroke-width:1.0;"/></g><!--link Course to CourseDescription--><g id="link_Course_CourseDescription"><path codeLine="33" d="M522.16,120.0537 C492.21,151.4237 449.88,195.7437 421.05,225.9537 " fill="none" id="Course-to-CourseDescription" style="stroke:#181818;stroke-width:1.0;"/><polygon fill="#181818" points="417.25,229.9337,426.3616,226.1948,420.7061,226.3205,420.5804,220.665,417.25,229.9337" style="stroke:#181818;stroke-width:1.0;"/></g><!--link Course to CourseStatus--><g id="link_Course_CourseStatus"><path codeLine="34" d="M558,120.0537 C558,151.0337 558,194.6637 558,224.8337 " fill="none" id="Course-to-CourseStatus" style="stroke:#181818;stroke-width:1.0;"/><polygon fill="#181818" points="558,229.9337,562,220.9337,558,224.9337,554,220.9337,558,229.9337" style="stroke:#181818;stroke-width:1.0;"/></g><!--link Course to CourseEnrolmentLimits--><g id="link_Course_CourseEnrolmentLimits"><path codeLine="35" d="M596.81,120.0537 C623.12,145.4937 658.24,179.4637 687.23,207.5137 " fill="none" id="Course-to-CourseEnrolmentLimits" style="stroke:#181818;stroke-width:1.0;"/><polygon fill="#181818" points="691.1,211.2537,687.3979,202.1271,687.5008,207.783,681.8449,207.8858,691.1,211.2537" style="stroke:#181818;stroke-width:1.0;"/></g><!--link Course to CourseDate--><g id="link_Course_CourseDate"><path codeLine="36" d="M597.02,88.4037 C655.57,98.6637 767.83,124.0137 848,177.0137 C860.54,185.3037 872.2,196.3437 882.33,207.6437 " fill="none" id="Course-to-CourseDate" style="stroke:#181818;stroke-width:1.0;"/><polygon fill="#181818" points="885.7,211.4737,882.7661,202.072,882.4004,207.717,876.7554,207.3513,885.7,211.4737" style="stroke:#181818;stroke-width:1.0;"/></g><!--link Course to Manager--><g id="link_Course_Manager"><path codeLine="37" d="M597.25,83.8837 C676.4,88.1337 858.85,105.5637 991,177.0137 C1009.9,187.2337 1027.43,202.9637 1041.55,217.9637 " fill="none" id="Course-to-Manager" style="stroke:#181818;stroke-width:1.0;"/><polygon fill="#181818" points="1045.06,221.7537,1041.8615,212.4386,1041.6556,218.0917,1036.0024,217.8858,1045.06,221.7537" style="stroke:#181818;stroke-width:1.0;"/><polygon fill="#000000" points="978.7868,161.1037,970.9765,155.6769,969.2783,161.3041,978.7868,161.1037" style="stroke:#000000;stroke-width:1.0;"/><text fill="#000000" font-family="sans-serif" font-size="13" lengthAdjust="spacing" textLength="85" x="983" y="165.042">is managed by</text><text fill="#000000" font-family="sans-serif" font-size="13" lengthAdjust="spacing" textLength="20" x="605.0992" y="79.9946">0..*</text><text fill="#000000" font-family="sans-serif" font-size="13" lengthAdjust="spacing" textLength="20" x="1018.1953" y="210.7235">1..*</text></g><!--SRC=[bL9BJiCm4Dtd52Epu2DI5Oa5Gb4MzBE25OYz6rkH8VP4zgHGeHw9Kt0n9gaffKr5EojxtdpVFC8Q2666H6X16QyBCkYIv7I4ZGywgMNnAaiD8ijaMNfTIj9v3YjKm4S2RDgHeKLqGfQj_XoMPHwHyhoBAYePGWnwCbIraMVFbt0odTxSNG_FOIwhHWFENdY8dfmHgcDJnZeKtjJjIaTcFfAa9XoGv91qvA_xjpOsilJIIk21TI2fCAmnPKADxkjphYiec7Fa2bQlOL5qxTFGzK-Re3s_qHiTHEHQTJrt9fuuZvLbwk-DDVJFwF5mhLdZZ6tiElqNaE-xm7ANOrR4mSqK1pErdlvu9ax5uajMteDqh3Y_JteHtj9UzFQAZuj6QQOAtroQRugm7sgrreziIAe_OAMSVcphHdiwy9u_Y1WE1XS2KWR5LVVyMVGMJE0JjHy5imNaoJS0]--></g></svg>