<?xml version="1.0" encoding="us-ascii" standalone="no"?><svg xmlns="http://www.w3.org/2000/svg" xmlns:xlink="http://www.w3.org/1999/xlink" contentStyleType="text/css" height="714.4px" preserveAspectRatio="none" style="width:1557px;height:714px;background:#FFFFFF;" version="1.1" viewBox="0 0 1557 714" width="1557.6px" zoomAndPan="magnify"><defs/><g><text fill="#000000" font-family="sans-serif" font-size="11.2" font-weight="bold" lengthAdjust="spacing" textLength="186.4" x="687" y="24.0859">Sequence Diagram (SD) - US 1004</text><polygon fill="#FFFFFF" points="23.2,110.2906,23.2,110.3467,24.8,110.1801,26.4,110.3422,28,110.3972,29.6,110.1004,31.2,110.2906,31.1378,110.2906,30.8588,118.2707,30.8932,126.2507,31.1455,134.2307,30.6469,142.2107,31.6429,150.1908,30.6958,158.1708,31.0418,166.1508,31.5456,174.1309,31.1314,182.1109,31.2546,190.0909,31.1744,198.0709,31.3428,206.051,31.3913,214.031,31.6686,222.011,31.7368,229.9911,31.7434,237.9711,31.4037,245.9511,31.5709,253.9312,31.7618,261.9112,30.6231,269.8912,31.7428,277.8712,30.9628,285.8513,31.627,293.8313,30.804,301.8113,31.1452,309.7914,31.7933,317.7714,31.161,325.7514,31.2842,333.7314,31.4709,341.7115,31.533,349.6915,31.1969,357.6715,31.4298,365.6516,30.7421,373.6316,31.4275,381.6116,31.6386,389.5917,31.5556,397.5717,31.6904,405.5517,30.8135,413.5317,30.6783,421.5118,30.7029,429.4918,31.1529,437.4718,31.0428,445.4519,31.7451,453.4319,31.0603,461.4119,30.9256,469.3919,31.3826,477.372,30.6665,485.352,30.7847,493.332,31.7192,501.3121,31.5485,509.2921,31.7876,517.2721,30.9426,525.2521,31.4554,533.2322,31.6723,541.2122,30.8221,549.1922,31.1233,557.1723,31.3008,565.1523,31.7214,573.1323,31.1966,581.1124,31.5701,589.0924,30.757,597.0724,30.6582,605.0524,31.6029,613.0325,31.2,621.0125,31.2,620.8213,29.6,621.1482,28,621.0676,26.4,620.9411,24.8,620.9182,23.2,621.0125,23.567,621.0125,22.9605,613.0325,23.6735,605.0524,22.7578,597.0724,23.6939,589.0924,23.5874,581.1124,23.396,573.1323,23.2378,565.1523,23.7813,557.1723,23.6909,549.1922,23.3354,541.2122,23.4146,533.2322,23.0958,525.2521,23.7732,517.2721,23.3239,509.2921,23.3381,501.3121,22.7133,493.332,22.8758,485.352,23.6246,477.372,23.5438,469.3919,23.1657,461.4119,22.9423,453.4319,23.0249,445.4519,22.6511,437.4718,23.5318,429.4918,23.7917,421.5118,23.6211,413.5317,23.7559,405.5517,23.0906,397.5717,23.2698,389.5917,22.8899,381.6116,23.4272,373.6316,23.3974,365.6516,23.6419,357.6715,23.0163,349.6915,23.0925,341.7115,23.5548,333.7314,23.6539,325.7514,22.79,317.7714,23.0449,309.7914,23.3194,301.8113,22.7113,293.8313,23.4827,285.8513,23.4064,277.8712,23.1194,269.8912,23.3138,261.9112,23.7829,253.9312,22.9497,245.9511,23.452,237.9711,23.4285,229.9911,23.2926,222.011,23.3127,214.031,23.2908,206.051,22.7007,198.0709,22.8793,190.0909,22.8308,182.1109,23.2511,174.1309,23.2705,166.1508,23.3294,158.1708,22.9672,150.1908,23.146,142.2107,23.1038,134.2307,23.6615,126.2507,23.5413,118.2707,23.2,110.2906" style="stroke:#181818;stroke-width:0.8000000000000002;"/><polygon fill="#FFFFFF" points="393.6,128.9234,393.6,128.9795,395.2,128.813,396.8,128.975,398.4,129.03,400,128.7332,401.6,128.9234,401.5378,128.9234,401.2588,136.8604,401.2932,144.7973,401.5455,152.7342,401.0469,160.6711,402.0429,168.608,401.0958,176.545,401.4418,184.4819,401.9456,192.4188,401.5314,200.3557,401.6546,208.2926,401.5744,216.2296,401.7428,224.1665,401.7913,232.1034,402.0686,240.0403,402.1368,247.9772,402.1434,255.9142,401.8037,263.8511,401.9709,271.788,402.1618,279.7249,401.0231,287.6618,402.1428,295.5988,401.3628,303.5357,402.027,311.4726,401.204,319.4095,401.5452,327.3464,402.1933,335.2834,401.561,343.2203,401.6842,351.1572,401.8709,359.0941,401.933,367.031,401.5969,374.968,401.8298,382.9049,401.1421,390.8418,401.8275,398.7787,402.0386,406.7157,401.9556,414.6526,402.0904,422.5895,401.2135,430.5264,401.0783,438.4633,401.1029,446.4003,401.5529,454.3372,401.4428,462.2741,402.1451,470.211,401.4603,478.1479,401.3256,486.0849,401.7826,494.0218,401.0665,501.9587,401.1847,509.8956,402.1192,517.8325,401.9485,525.7695,402.1876,533.7064,401.3426,541.6433,401.8554,549.5802,402.0723,557.5171,401.2221,565.4541,401.5233,573.391,401.7008,581.3279,402.1214,589.2648,401.5966,597.2017,401.9701,605.1387,401.157,613.0756,401.6,621.0125,401.6,620.8319,400,621.1468,398.4,620.8213,396.8,621.1482,395.2,621.0676,393.6,621.0125,393.3857,621.0125,393.317,613.0756,393.967,605.1387,393.3605,597.2017,394.0735,589.2648,393.1578,581.3279,394.0939,573.391,393.9874,565.4541,393.796,557.5171,393.6378,549.5802,394.1813,541.6433,394.0909,533.7064,393.7354,525.7695,393.8146,517.8325,393.4958,509.8956,394.1732,501.9587,393.7239,494.0218,393.7381,486.0849,393.1133,478.1479,393.2758,470.211,394.0246,462.2741,393.9438,454.3372,393.5657,446.4003,393.3423,438.4633,393.4249,430.5264,393.0511,422.5895,393.9318,414.6526,394.1917,406.7157,394.0211,398.7787,394.1559,390.8418,393.4906,382.9049,393.6698,374.968,393.2899,367.031,393.8272,359.0941,393.7974,351.1572,394.0419,343.2203,393.4163,335.2834,393.4925,327.3464,393.9548,319.4095,394.0539,311.4726,393.19,303.5357,393.4449,295.5988,393.7194,287.6618,393.1113,279.7249,393.8827,271.788,393.8064,263.8511,393.5194,255.9142,393.7138,247.9772,394.1829,240.0403,393.3497,232.1034,393.852,224.1665,393.8285,216.2296,393.6926,208.2926,393.7127,200.3557,393.6908,192.4188,393.1007,184.4819,393.2793,176.545,393.2308,168.608,393.6511,160.6711,393.6705,152.7342,393.7294,144.7973,393.3672,136.8604,393.6,128.9234" style="stroke:#181818;stroke-width:0.8000000000000002;"/><polygon fill="#FFFFFF" points="721.6,256.7203,721.6,256.7764,723.2,256.6098,724.8,256.7719,726.4,256.8269,728,256.5301,729.6,256.7203,729.5378,256.7203,729.2588,264.7979,729.2932,272.8755,729.5455,280.9531,729.0469,289.0307,730.0429,297.1083,729.0958,305.1859,729.4418,313.2635,729.9456,321.3411,729.5314,329.4188,729.6546,337.4964,729.5744,345.574,729.7428,353.6516,729.7913,361.7292,730.0686,369.8068,730.1368,377.8844,730.1434,385.962,729.8037,394.0396,729.9709,402.1172,730.1618,410.1948,729.0231,418.2724,730.1428,426.35,729.3628,434.4276,730.027,442.5052,729.204,450.5828,729.5452,458.6604,730.1933,466.738,729.561,474.8156,729.6842,482.8932,729.8709,490.9708,729.933,499.0484,729.5969,507.126,729.8298,515.2036,729.1421,523.2813,729.8275,531.3589,730.0386,539.4365,729.9556,547.5141,730.0904,555.5917,729.2135,563.6693,729.0783,571.7469,729.1029,579.8245,729.5529,587.9021,729.6,595.9797,729.6,595.9273,728,596.1614,726.4,595.9331,724.8,595.8882,723.2,596.0406,721.6,595.9797,721.0665,595.9797,721.1847,587.9021,722.1192,579.8245,721.9485,571.7469,722.1876,563.6693,721.3426,555.5917,721.8554,547.5141,722.0723,539.4365,721.2221,531.3589,721.5233,523.2813,721.7008,515.2036,722.1214,507.126,721.5966,499.0484,721.9701,490.9708,721.157,482.8932,721.0582,474.8156,722.0029,466.738,721.0264,458.6604,722.0072,450.5828,721.7653,442.5052,721.3857,434.4276,721.317,426.35,721.967,418.2724,721.3605,410.1948,722.0735,402.1172,721.1578,394.0396,722.0939,385.962,721.9874,377.8844,721.796,369.8068,721.6378,361.7292,722.1813,353.6516,722.0909,345.574,721.7354,337.4964,721.8146,329.4188,721.4958,321.3411,722.1732,313.2635,721.7239,305.1859,721.7381,297.1083,721.1133,289.0307,721.2758,280.9531,722.0246,272.8755,721.9438,264.7979,721.6,256.7203" style="stroke:#181818;stroke-width:0.8000000000000002;"/><polygon fill="#FFFFFF" points="835.6,306.7859,835.6,306.842,837.2,306.6755,838.8,306.8375,840.4,306.8925,842,306.5957,843.6,306.7859,843.5378,306.7859,843.2588,314.8706,843.2932,322.9553,843.5455,331.0399,843.0469,339.1246,844.0429,347.2092,843.0958,355.2939,843.4418,363.3786,843.9456,371.4632,843.5314,379.5479,843.6546,387.6325,843.6,395.7172,843.6,395.7087,842,395.7648,840.4,395.781,838.8,395.8734,837.2,395.8961,835.6,395.7172,836.1434,395.7172,835.8037,387.6325,835.9709,379.5479,836.1618,371.4632,835.0231,363.3786,836.1428,355.2939,835.3628,347.2092,836.027,339.1246,835.204,331.0399,835.5452,322.9553,836.1933,314.8706,835.6,306.7859" style="stroke:#181818;stroke-width:0.8000000000000002;"/><polygon fill="#FFFFFF" points="1163.6,345.6516,1163.6,345.7076,1165.2,345.5411,1166.8,345.7031,1168.4,345.7581,1170,345.4613,1171.6,345.6516,1171.5793,345.6516,1171.4863,350.6581,1171.4977,355.6647,1171.5818,360.6713,1171.4156,365.6778,1171.6,370.6844,1171.6,370.832,1170,370.5163,1168.4,370.6316,1166.8,370.7996,1165.2,370.6615,1163.6,370.6844,1163.6182,370.6844,1163.5915,365.6778,1163.6476,360.6713,1163.6638,355.6647,1163.7562,350.6581,1163.6,345.6516" style="stroke:#181818;stroke-width:0.8000000000000002;"/><polygon fill="#FFFFFF" points="1279.6,420.75,1279.6,420.806,1281.2,420.6395,1282.8,420.8015,1284.4,420.8566,1286,420.5598,1287.6,420.75,1287.5378,420.75,1287.2588,429.0943,1287.2932,437.4385,1287.5455,445.7828,1287.0469,454.1271,1288.0429,462.4714,1287.6,470.8156,1287.6,470.6476,1286,470.7629,1284.4,470.9308,1282.8,470.7928,1281.2,470.8338,1279.6,470.8156,1279.5744,470.8156,1279.7428,462.4714,1279.7913,454.1271,1280.0686,445.7828,1280.1368,437.4385,1280.1434,429.0943,1279.6,420.75" style="stroke:#181818;stroke-width:0.8000000000000002;"/><polygon fill="#FFFFFF" points="1394,495.8484,1394,495.9045,1395.6,495.738,1397.2,495.9,1398.8,495.955,1400.4,495.6582,1402,495.8484,1401.9378,495.8484,1401.6588,504.1927,1401.6932,512.537,1401.9455,520.8813,1401.4469,529.2255,1402.4429,537.5698,1402,545.9141,1402,545.746,1400.4,545.8613,1398.8,546.0292,1397.2,545.8912,1395.6,545.9323,1394,545.9141,1393.9744,545.9141,1394.1428,537.5698,1394.1913,529.2255,1394.4686,520.8813,1394.5368,512.537,1394.5434,504.1927,1394,495.8484" style="stroke:#181818;stroke-width:0.8000000000000002;"/><path d="M27.2,102.2906 L27.4242,102.2906 L26.7581,110.2477 L27.4062,118.2047 L27.6263,126.1618 L26.439,134.1188 L27.1171,142.0758 L26.7451,150.0329 L26.7909,157.9899 L27.1273,165.947 L26.4625,173.904 L27.7906,181.8611 L26.5277,189.8181 L26.989,197.7751 L27.6607,205.7322 L27.1085,213.6892 L27.2728,221.6463 L27.1659,229.6033 L27.3904,237.5604 L27.4551,245.5174 L27.8247,253.4744 L27.9158,261.4315 L27.9245,269.3885 L27.4716,277.3456 L27.6945,285.3026 L27.949,293.2597 L26.4307,301.2167 L27.9237,309.1737 L26.8837,317.1308 L27.7694,325.0878 L26.672,333.0449 L27.1269,341.0019 L27.991,348.959 L27.148,356.916 L27.3123,364.873 L27.5612,372.8301 L27.644,380.7871 L27.1958,388.7442 L27.5064,396.7012 L26.5894,404.6583 L27.5033,412.6153 L27.7847,420.5723 L27.6742,428.5294 L27.8539,436.4864 L26.6847,444.4435 L26.5043,452.4005 L26.5372,460.3576 L27.1372,468.3146 L26.9904,476.2716 L27.9268,484.2287 L27.0137,492.1857 L26.8341,500.1428 L27.4435,508.0998 L26.4887,516.0569 L26.6463,524.0139 L27.8922,531.9709 L27.6647,539.928 L27.9835,547.885 L26.8568,555.8421 L27.5405,563.7991 L27.8298,571.7562 L26.6961,579.7132 L27.0977,587.6702 L27.3344,595.6273 L27.8952,603.5843 L27.1955,611.5414 L27.6934,619.4984 L26.6093,627.4555 L27.2,635.4125 " fill="none" style="stroke:#181818;stroke-width:0.4000000000000001;stroke-dasharray:5.0,5.0;"/><path d="M397.2,102.2906 L397.4242,102.2906 L396.7581,110.2477 L397.4062,118.2047 L397.6263,126.1618 L396.439,134.1188 L397.1171,142.0758 L396.7451,150.0329 L396.7909,157.9899 L397.1273,165.947 L396.4625,173.904 L397.7906,181.8611 L396.5277,189.8181 L396.989,197.7751 L397.6607,205.7322 L397.1085,213.6892 L397.2728,221.6463 L397.1659,229.6033 L397.3904,237.5604 L397.4551,245.5174 L397.8247,253.4744 L397.9158,261.4315 L397.9245,269.3885 L397.4716,277.3456 L397.6945,285.3026 L397.949,293.2597 L396.4307,301.2167 L397.9237,309.1737 L396.8837,317.1308 L397.7694,325.0878 L396.672,333.0449 L397.1269,341.0019 L397.991,348.959 L397.148,356.916 L397.3123,364.873 L397.5612,372.8301 L397.644,380.7871 L397.1958,388.7442 L397.5064,396.7012 L396.5894,404.6583 L397.5033,412.6153 L397.7847,420.5723 L397.6742,428.5294 L397.8539,436.4864 L396.6847,444.4435 L396.5043,452.4005 L396.5372,460.3576 L397.1372,468.3146 L396.9904,476.2716 L397.9268,484.2287 L397.0137,492.1857 L396.8341,500.1428 L397.4435,508.0998 L396.4887,516.0569 L396.6463,524.0139 L397.8922,531.9709 L397.6647,539.928 L397.9835,547.885 L396.8568,555.8421 L397.5405,563.7991 L397.8298,571.7562 L396.6961,579.7132 L397.0977,587.6702 L397.3344,595.6273 L397.8952,603.5843 L397.1955,611.5414 L397.6934,619.4984 L396.6093,627.4555 L397.2,635.4125 " fill="none" style="stroke:#181818;stroke-width:0.4000000000000001;stroke-dasharray:5.0,5.0;"/><path d="M725.2,102.2906 L725.4242,102.2906 L724.7581,110.2477 L725.4062,118.2047 L725.6263,126.1618 L724.439,134.1188 L725.1171,142.0758 L724.7451,150.0329 L724.7909,157.9899 L725.1273,165.947 L724.4625,173.904 L725.7906,181.8611 L724.5277,189.8181 L724.989,197.7751 L725.6607,205.7322 L725.1085,213.6892 L725.2728,221.6463 L725.1659,229.6033 L725.3904,237.5604 L725.4551,245.5174 L725.8247,253.4744 L725.9158,261.4315 L725.9245,269.3885 L725.4716,277.3456 L725.6945,285.3026 L725.949,293.2597 L724.4307,301.2167 L725.9237,309.1737 L724.8837,317.1308 L725.7694,325.0878 L724.672,333.0449 L725.1269,341.0019 L725.991,348.959 L725.148,356.916 L725.3123,364.873 L725.5612,372.8301 L725.644,380.7871 L725.1958,388.7442 L725.5064,396.7012 L724.5894,404.6583 L725.5033,412.6153 L725.7847,420.5723 L725.6742,428.5294 L725.8539,436.4864 L724.6847,444.4435 L724.5043,452.4005 L724.5372,460.3576 L725.1372,468.3146 L724.9904,476.2716 L725.9268,484.2287 L725.0137,492.1857 L724.8341,500.1428 L725.4435,508.0998 L724.4887,516.0569 L724.6463,524.0139 L725.8922,531.9709 L725.6647,539.928 L725.9835,547.885 L724.8568,555.8421 L725.5405,563.7991 L725.8298,571.7562 L724.6961,579.7132 L725.0977,587.6702 L725.3344,595.6273 L725.8952,603.5843 L725.1955,611.5414 L725.6934,619.4984 L724.6093,627.4555 L725.2,635.4125 " fill="none" style="stroke:#181818;stroke-width:0.4000000000000001;stroke-dasharray:5.0,5.0;"/><path d="M839.6,102.2906 L839.8242,102.2906 L839.1581,110.2477 L839.8062,118.2047 L840.0263,126.1618 L838.839,134.1188 L839.5171,142.0758 L839.1451,150.0329 L839.1909,157.9899 L839.5273,165.947 L838.8625,173.904 L840.1906,181.8611 L838.9277,189.8181 L839.389,197.7751 L840.0607,205.7322 L839.5085,213.6892 L839.6728,221.6463 L839.5659,229.6033 L839.7904,237.5604 L839.8551,245.5174 L840.2247,253.4744 L840.3158,261.4315 L840.3245,269.3885 L839.8716,277.3456 L840.0945,285.3026 L840.349,293.2597 L838.8307,301.2167 L840.3237,309.1737 L839.2837,317.1308 L840.1694,325.0878 L839.072,333.0449 L839.5269,341.0019 L840.391,348.959 L839.548,356.916 L839.7123,364.873 L839.9612,372.8301 L840.044,380.7871 L839.5958,388.7442 L839.9064,396.7012 L838.9894,404.6583 L839.9033,412.6153 L840.1847,420.5723 L840.0742,428.5294 L840.2539,436.4864 L839.0847,444.4435 L838.9043,452.4005 L838.9372,460.3576 L839.5372,468.3146 L839.3904,476.2716 L840.3268,484.2287 L839.4137,492.1857 L839.2341,500.1428 L839.8435,508.0998 L838.8887,516.0569 L839.0463,524.0139 L840.2922,531.9709 L840.0647,539.928 L840.3835,547.885 L839.2568,555.8421 L839.9405,563.7991 L840.2298,571.7562 L839.0961,579.7132 L839.4977,587.6702 L839.7344,595.6273 L840.2952,603.5843 L839.5955,611.5414 L840.0934,619.4984 L839.0093,627.4555 L839.6,635.4125 " fill="none" style="stroke:#181818;stroke-width:0.4000000000000001;stroke-dasharray:5.0,5.0;"/><path d="M1167.6,102.2906 L1167.8242,102.2906 L1167.1581,110.2477 L1167.8062,118.2047 L1168.0263,126.1618 L1166.839,134.1188 L1167.5171,142.0758 L1167.1451,150.0329 L1167.1909,157.9899 L1167.5273,165.947 L1166.8625,173.904 L1168.1906,181.8611 L1166.9277,189.8181 L1167.389,197.7751 L1168.0607,205.7322 L1167.5085,213.6892 L1167.6728,221.6463 L1167.5659,229.6033 L1167.7904,237.5604 L1167.8551,245.5174 L1168.2247,253.4744 L1168.3158,261.4315 L1168.3245,269.3885 L1167.8716,277.3456 L1168.0945,285.3026 L1168.349,293.2597 L1166.8307,301.2167 L1168.3237,309.1737 L1167.2837,317.1308 L1168.1694,325.0878 L1167.072,333.0449 L1167.5269,341.0019 L1168.391,348.959 L1167.548,356.916 L1167.7123,364.873 L1167.9612,372.8301 L1168.044,380.7871 L1167.5958,388.7442 L1167.9064,396.7012 L1166.9894,404.6583 L1167.9033,412.6153 L1168.1847,420.5723 L1168.0742,428.5294 L1168.2539,436.4864 L1167.0847,444.4435 L1166.9043,452.4005 L1166.9372,460.3576 L1167.5372,468.3146 L1167.3904,476.2716 L1168.3268,484.2287 L1167.4137,492.1857 L1167.2341,500.1428 L1167.8435,508.0998 L1166.8887,516.0569 L1167.0463,524.0139 L1168.2922,531.9709 L1168.0647,539.928 L1168.3835,547.885 L1167.2568,555.8421 L1167.9405,563.7991 L1168.2298,571.7562 L1167.0961,579.7132 L1167.4977,587.6702 L1167.7344,595.6273 L1168.2952,603.5843 L1167.5955,611.5414 L1168.0934,619.4984 L1167.0093,627.4555 L1167.6,635.4125 " fill="none" style="stroke:#181818;stroke-width:0.4000000000000001;stroke-dasharray:5.0,5.0;"/><path d="M1283.6,102.2906 L1283.8242,102.2906 L1283.1581,110.2477 L1283.8062,118.2047 L1284.0263,126.1618 L1282.839,134.1188 L1283.5171,142.0758 L1283.1451,150.0329 L1283.1909,157.9899 L1283.5273,165.947 L1282.8625,173.904 L1284.1906,181.8611 L1282.9277,189.8181 L1283.389,197.7751 L1284.0607,205.7322 L1283.5085,213.6892 L1283.6728,221.6463 L1283.5659,229.6033 L1283.7904,237.5604 L1283.8551,245.5174 L1284.2247,253.4744 L1284.3158,261.4315 L1284.3245,269.3885 L1283.8716,277.3456 L1284.0945,285.3026 L1284.349,293.2597 L1282.8307,301.2167 L1284.3237,309.1737 L1283.2837,317.1308 L1284.1694,325.0878 L1283.072,333.0449 L1283.5269,341.0019 L1284.391,348.959 L1283.548,356.916 L1283.7123,364.873 L1283.9612,372.8301 L1284.044,380.7871 L1283.5958,388.7442 L1283.9064,396.7012 L1282.9894,404.6583 L1283.9033,412.6153 L1284.1847,420.5723 L1284.0742,428.5294 L1284.2539,436.4864 L1283.0847,444.4435 L1282.9043,452.4005 L1282.9372,460.3576 L1283.5372,468.3146 L1283.3904,476.2716 L1284.3268,484.2287 L1283.4137,492.1857 L1283.2341,500.1428 L1283.8435,508.0998 L1282.8887,516.0569 L1283.0463,524.0139 L1284.2922,531.9709 L1284.0647,539.928 L1284.3835,547.885 L1283.2568,555.8421 L1283.9405,563.7991 L1284.2298,571.7562 L1283.0961,579.7132 L1283.4977,587.6702 L1283.7344,595.6273 L1284.2952,603.5843 L1283.5955,611.5414 L1284.0934,619.4984 L1283.0093,627.4555 L1283.6,635.4125 " fill="none" style="stroke:#181818;stroke-width:0.4000000000000001;stroke-dasharray:5.0,5.0;"/><path d="M1398,102.2906 L1398.2242,102.2906 L1397.5581,110.2477 L1398.2062,118.2047 L1398.4263,126.1618 L1397.239,134.1188 L1397.9171,142.0758 L1397.5451,150.0329 L1397.5909,157.9899 L1397.9273,165.947 L1397.2625,173.904 L1398.5906,181.8611 L1397.3277,189.8181 L1397.789,197.7751 L1398.4607,205.7322 L1397.9085,213.6892 L1398.0728,221.6463 L1397.9659,229.6033 L1398.1904,237.5604 L1398.2551,245.5174 L1398.6247,253.4744 L1398.7158,261.4315 L1398.7245,269.3885 L1398.2716,277.3456 L1398.4945,285.3026 L1398.749,293.2597 L1397.2307,301.2167 L1398.7237,309.1737 L1397.6837,317.1308 L1398.5694,325.0878 L1397.472,333.0449 L1397.9269,341.0019 L1398.791,348.959 L1397.948,356.916 L1398.1123,364.873 L1398.3612,372.8301 L1398.444,380.7871 L1397.9958,388.7442 L1398.3064,396.7012 L1397.3894,404.6583 L1398.3033,412.6153 L1398.5847,420.5723 L1398.4742,428.5294 L1398.6539,436.4864 L1397.4847,444.4435 L1397.3043,452.4005 L1397.3372,460.3576 L1397.9372,468.3146 L1397.7904,476.2716 L1398.7268,484.2287 L1397.8137,492.1857 L1397.6341,500.1428 L1398.2435,508.0998 L1397.2887,516.0569 L1397.4463,524.0139 L1398.6922,531.9709 L1398.4647,539.928 L1398.7835,547.885 L1397.6568,555.8421 L1398.3405,563.7991 L1398.6298,571.7562 L1397.4961,579.7132 L1397.8977,587.6702 L1398.1344,595.6273 L1398.6952,603.5843 L1397.9955,611.5414 L1398.4934,619.4984 L1397.4093,627.4555 L1398,635.4125 " fill="none" style="stroke:#181818;stroke-width:0.4000000000000001;stroke-dasharray:5.0,5.0;"/><path d="M1507.6,102.2906 L1507.8242,102.2906 L1507.1581,110.2477 L1507.8062,118.2047 L1508.0263,126.1618 L1506.839,134.1188 L1507.5171,142.0758 L1507.1451,150.0329 L1507.1909,157.9899 L1507.5273,165.947 L1506.8625,173.904 L1508.1906,181.8611 L1506.9277,189.8181 L1507.389,197.7751 L1508.0607,205.7322 L1507.5085,213.6892 L1507.6728,221.6463 L1507.5659,229.6033 L1507.7904,237.5604 L1507.8551,245.5174 L1508.2247,253.4744 L1508.3158,261.4315 L1508.3245,269.3885 L1507.8716,277.3456 L1508.0945,285.3026 L1508.349,293.2597 L1506.8307,301.2167 L1508.3237,309.1737 L1507.2837,317.1308 L1508.1694,325.0878 L1507.072,333.0449 L1507.5269,341.0019 L1508.391,348.959 L1507.548,356.916 L1507.7123,364.873 L1507.9612,372.8301 L1508.044,380.7871 L1507.5958,388.7442 L1507.9064,396.7012 L1506.9894,404.6583 L1507.9033,412.6153 L1508.1847,420.5723 L1508.0742,428.5294 L1508.2539,436.4864 L1507.0847,444.4435 L1506.9043,452.4005 L1506.9372,460.3576 L1507.5372,468.3146 L1507.3904,476.2716 L1508.3268,484.2287 L1507.4137,492.1857 L1507.2341,500.1428 L1507.8435,508.0998 L1506.8887,516.0569 L1507.0463,524.0139 L1508.2922,531.9709 L1508.0647,539.928 L1508.3835,547.885 L1507.2568,555.8421 L1507.9405,563.7991 L1508.2298,571.7562 L1507.0961,579.7132 L1507.4977,587.6702 L1507.7344,595.6273 L1508.2952,603.5843 L1507.5955,611.5414 L1508.0934,619.4984 L1507.0093,627.4555 L1507.6,635.4125 " fill="none" style="stroke:#181818;stroke-width:0.4000000000000001;stroke-dasharray:5.0,5.0;"/><text fill="#000000" font-family="sans-serif" font-size="11.2" lengthAdjust="spacing" textLength="41.6" x="4" y="99.4797">Gerente</text><polygon fill="#E3E3E3" points="33.6354,47.7505,32.6972,49.0323,31.5876,50.9098,30.0007,52.1751,28.333,52.867,27.0033,52.927,25.2944,52.0617,23.6818,51.4964,22.4579,50.3486,21.8159,49.0346,21.4352,47.9884,21.0622,46.6218,20.4567,45.4458,20.922,44.2976,21.3296,43.0398,22.8592,42.0451,23.9354,40.7544,25.2674,40.3258,26.851,39.9567,28.8817,40.176,29.9939,40.7005,31.2871,40.9383,32.8595,42.5492,33.4076,44.2499,33.6457,45.4102,33.376,47.3224" style="stroke:#181818;stroke-width:0.4000000000000001;"/><path d="M27.2,52.5938 L27.3495,52.5938 L26.9054,56.9138 L27.3374,61.2338 L27.4842,65.5538 L26.6927,69.8738 L27.2,74.1938 M16.8,58.9938 L16.8,58.9385 L20.96,58.6905 L25.12,58.721 L29.28,58.9453 L33.44,58.5021 L37.6,58.9938 M27.2,74.1938 L27.4975,74.4516 L24.7813,76.3002 L22.9337,78.9016 L21.1921,81.5949 L18.8339,83.7538 L16.8,86.1938 M27.2,74.1938 L27.2367,74.2255 L29.2628,76.5789 L31.4559,79.0769 L33.5685,81.5051 L35.8347,84.0665 L37.6,86.1938 " fill="none" style="stroke:#181818;stroke-width:0.4000000000000001;"/><text fill="#000000" font-family="sans-serif" font-size="11.2" lengthAdjust="spacing" textLength="41.6" x="4" y="646.6984">Gerente</text><polygon fill="#E3E3E3" points="33.6354,657.8661,32.6972,659.1479,31.5876,661.0254,30.0007,662.2907,28.333,662.9826,27.0033,663.0427,25.2944,662.1773,23.6818,661.612,22.4579,660.4642,21.8159,659.1503,21.4352,658.104,21.0622,656.7374,20.4567,655.5614,20.922,654.4132,21.3296,653.1555,22.8592,652.1607,23.9354,650.87,25.2674,650.4414,26.851,650.0723,28.8817,650.2916,29.9939,650.8162,31.2871,651.0539,32.8595,652.6649,33.4076,654.3655,33.6457,655.5259,33.376,657.438" style="stroke:#181818;stroke-width:0.4000000000000001;"/><path d="M27.2,662.7094 L27.3495,662.7094 L26.9054,667.0294 L27.3374,671.3494 L27.4842,675.6694 L26.6927,679.9894 L27.2,684.3094 M16.8,669.1094 L16.8,669.0541 L20.96,668.8061 L25.12,668.8367 L29.28,669.0609 L33.44,668.6177 L37.6,669.1094 M27.2,684.3094 L27.4975,684.5672 L24.7813,686.4158 L22.9337,689.0173 L21.1921,691.7105 L18.8339,693.8694 L16.8,696.3094 M27.2,684.3094 L27.2367,684.3412 L29.2628,686.6945 L31.4559,689.1925 L33.5685,691.6207 L35.8347,694.1821 L37.6,696.3094 " fill="none" style="stroke:#181818;stroke-width:0.4000000000000001;"/><polygon fill="#E3E3E3" points="352,60.4969,352,60.665,360.2909,60.1654,368.5818,60.6515,376.8727,60.8166,385.1636,59.9262,393.4545,60.4347,401.7455,60.1557,410.0364,60.1901,418.3273,60.4423,426.6182,59.9438,434.9091,60.9398,443.2,60.4969,443.1357,60.3416,443.4627,60.5653,443.8098,60.8376,444.0398,60.8272,444.3383,60.9823,444.6142,61.0827,444.6063,61.0794,444.7754,61.3837,444.9074,61.6728,445.11,61.991,445.2482,62.2825,445.2,62.4969,445.7434,62.4969,445.4037,69.8956,445.5709,77.2944,445.7618,84.6931,444.6231,92.0919,445.2,99.4906,445.3672,99.5599,445.0098,99.7432,445.0972,100.1108,444.7266,100.2886,444.7145,100.615,444.6142,100.9048,444.6899,101.0875,444.3264,101.01,444.0593,101.1651,443.8002,101.3397,443.5253,101.476,443.2,101.4906,443.2,101.4875,434.9091,101.7204,426.6182,101.0327,418.3273,101.7181,410.0364,101.9292,401.7455,101.8463,393.4545,101.981,385.1636,101.1042,376.8727,100.9689,368.5818,100.9935,360.2909,101.4435,352,101.4906,351.9799,101.4422,351.7867,101.5413,351.4165,101.2133,351.1165,101.0546,350.8919,101.0782,350.5858,100.9048,350.4215,100.8368,350.3407,100.569,350.5114,100.4054,350.3416,100.1008,350.2981,99.8484,350,99.4906,349.7426,99.4906,350.2554,92.0919,350.4723,84.6931,349.6221,77.2944,349.9233,69.8956,350,62.4969,350.031,62.5097,350.2777,62.2805,350.2333,61.9308,350.4654,61.6956,350.3322,61.309,350.5858,61.0827,350.5167,60.9158,350.92,61.0896,351.0783,60.6717,351.4863,60.8566,351.7382,60.6649,352,60.4969" style="stroke:#181818;stroke-width:0.4000000000000001;"/><text fill="#000000" font-family="sans-serif" font-size="11.2" lengthAdjust="spacing" textLength="76" x="358" y="78.1828">&#171;presentation&#187;</text><text fill="#000000" font-family="sans-serif" font-size="11.2" lengthAdjust="spacing" textLength="80.8" x="358.8" y="93.0797">CreateCourseUI</text><polygon fill="#E3E3E3" points="352,634.6125,352,634.7806,360.2909,634.281,368.5818,634.7671,376.8727,634.9322,385.1636,634.0418,393.4545,634.5503,401.7455,634.2713,410.0364,634.3057,418.3273,634.558,426.6182,634.0594,434.9091,635.0554,443.2,634.6125,443.1357,634.4572,443.4627,634.6809,443.8098,634.9532,444.0398,634.9428,444.3383,635.0979,444.6142,635.1983,444.6063,635.195,444.7754,635.4993,444.9074,635.7884,445.11,636.1066,445.2482,636.3981,445.2,636.6125,445.7434,636.6125,445.4037,644.0113,445.5709,651.41,445.7618,658.8088,444.6231,666.2075,445.2,673.6063,445.3672,673.6755,445.0098,673.8588,445.0972,674.2264,444.7266,674.4043,444.7145,674.7306,444.6142,675.0205,444.6899,675.2032,444.3264,675.1256,444.0593,675.2807,443.8002,675.4554,443.5253,675.5916,443.2,675.6063,443.2,675.6031,434.9091,675.836,426.6182,675.1483,418.3273,675.8338,410.0364,676.0448,401.7455,675.9619,393.4545,676.0967,385.1636,675.2198,376.8727,675.0845,368.5818,675.1091,360.2909,675.5591,352,675.6063,351.9799,675.5578,351.7867,675.657,351.4165,675.3289,351.1165,675.1703,350.8919,675.1939,350.5858,675.0205,350.4215,674.9524,350.3407,674.6846,350.5114,674.521,350.3416,674.2164,350.2981,673.964,350,673.6063,349.7426,673.6063,350.2554,666.2075,350.4723,658.8088,349.6221,651.41,349.9233,644.0113,350,636.6125,350.031,636.6254,350.2777,636.3962,350.2333,636.0464,350.4654,635.8112,350.3322,635.4246,350.5858,635.1983,350.5167,635.0314,350.92,635.2052,351.0783,634.7873,351.4863,634.9722,351.7382,634.7806,352,634.6125" style="stroke:#181818;stroke-width:0.4000000000000001;"/><text fill="#000000" font-family="sans-serif" font-size="11.2" lengthAdjust="spacing" textLength="76" x="358" y="652.2984">&#171;presentation&#187;</text><text fill="#000000" font-family="sans-serif" font-size="11.2" lengthAdjust="spacing" textLength="80.8" x="358.8" y="667.1953">CreateCourseUI</text><text fill="#000000" font-family="sans-serif" font-size="11.2" lengthAdjust="spacing" textLength="67.2" x="688" y="84.5828">&#171;application&#187;</text><text fill="#000000" font-family="sans-serif" font-size="11.2" lengthAdjust="spacing" textLength="120.8" x="664.4" y="99.4797">CreateCourseController</text><polygon fill="#E3E3E3" points="735.253,62.032,733.8458,63.9547,732.1814,66.7709,729.801,68.6689,727.2995,69.7067,725.305,69.7968,722.7415,68.4988,720.3228,67.6508,718.4869,65.9292,717.5238,63.9582,716.9527,62.3888,716.3932,60.3389,715.4851,58.575,716.1829,56.8527,716.7944,54.966,719.0888,53.4739,720.7031,51.5378,722.7011,50.8949,725.0765,50.3413,728.1225,50.6702,729.7909,51.457,731.7307,51.8137,734.0892,54.2301,734.9114,56.781,735.2686,58.5216,734.864,61.3899" style="stroke:#181818;stroke-width:0.4000000000000001;"/><polygon fill="#181818" points="722.4,50.0969,722.4359,50.1399,723.2893,49.212,724.353,48.5365,725.3482,47.7788,726.1182,46.7507,727.2,46.0969,727.1808,46.0892,726.7744,46.8546,726.465,47.6589,726.2231,48.4901,725.7488,49.2284,725.6,50.0969,725.7371,50.1517,725.7639,50.8345,726.191,51.6773,726.6669,52.5397,726.8588,53.2884,727.2,54.0969,727.2116,54.1109,726.2345,53.2903,725.3105,52.5334,724.3608,51.7459,723.46,51.0169,722.4,50.0969" style="stroke:#181818;stroke-width:0.8000000000000002;"/><text fill="#000000" font-family="sans-serif" font-size="11.2" lengthAdjust="spacing" textLength="67.2" x="688" y="646.6984">&#171;application&#187;</text><text fill="#000000" font-family="sans-serif" font-size="11.2" lengthAdjust="spacing" textLength="120.8" x="664.4" y="661.5953">CreateCourseController</text><polygon fill="#E3E3E3" points="735.253,679.5413,733.8458,681.4641,732.1814,684.2803,729.801,686.1782,727.2995,687.2161,725.305,687.3062,722.7415,686.0082,720.3228,685.1602,718.4869,683.4386,717.5238,681.4676,716.9527,679.8982,716.3932,677.8483,715.4851,676.0843,716.1829,674.362,716.7944,672.4754,719.0888,670.9832,720.7031,669.0472,722.7011,668.4043,725.0765,667.8507,728.1225,668.1796,729.7909,668.9664,731.7307,669.3231,734.0892,671.7395,734.9114,674.2904,735.2686,676.031,734.864,678.8992" style="stroke:#181818;stroke-width:0.4000000000000001;"/><polygon fill="#181818" points="722.4,667.6063,722.4359,667.6493,723.2893,666.7214,724.353,666.0458,725.3482,665.2881,726.1182,664.2601,727.2,663.6063,727.1808,663.5986,726.7744,664.364,726.465,665.1683,726.2231,665.9995,725.7488,666.7378,725.6,667.6063,725.7371,667.6611,725.7639,668.3438,726.191,669.1867,726.6669,670.049,726.8588,670.7978,727.2,671.6063,727.2116,671.6202,726.2345,670.7997,725.3105,670.0428,724.3608,669.2552,723.46,668.5262,722.4,667.6063" style="stroke:#181818;stroke-width:0.8000000000000002;"/><polygon fill="#E3E3E3" points="800,60.4969,800,60.665,807.92,60.1654,815.84,60.6515,823.76,60.8166,831.68,59.9262,839.6,60.4347,847.52,60.1557,855.44,60.1901,863.36,60.4423,871.28,59.9438,879.2,60.4969,879.2565,60.6333,879.4185,60.4588,879.7455,60.6825,880.0926,60.9548,880.3226,60.9444,880.6142,61.0827,880.631,61.0896,880.7235,61.3622,880.8925,61.6666,881.0246,61.9556,881.2271,62.2738,881.2,62.4969,881.7368,62.4969,881.7434,69.8956,881.4037,77.2944,881.5709,84.6931,881.7618,92.0919,881.2,99.4906,881.0223,99.417,881.25,99.8427,880.8926,100.0261,880.98,100.3936,880.6094,100.5715,880.6142,100.9048,880.6072,100.888,880.4071,101.2047,880.0436,101.1271,879.7764,101.2823,879.5174,101.4569,879.2,101.4906,879.2,101.8236,871.28,101.4875,863.36,101.7204,855.44,101.0327,847.52,101.7181,839.6,101.9292,831.68,101.8463,823.76,101.981,815.84,101.1042,807.92,100.9689,800,101.4906,799.9366,101.3375,799.7111,101.359,799.4143,101.2079,799.221,101.307,798.8508,100.979,798.5858,100.9048,798.5013,100.8698,798.5249,100.6453,798.1872,100.2711,798.1064,100.0033,798.277,99.8397,798,99.4906,798.3485,99.4906,798.5876,92.0919,797.7426,84.6931,798.2554,77.2944,798.4723,69.8956,798,62.4969,797.8836,62.4487,798.0935,62.2042,798.2654,61.944,798.512,61.7149,798.4676,61.3651,798.5858,61.0827,798.633,61.1966,798.8121,60.8291,799.0824,60.6815,799.4857,60.8553,799.644,60.4374,800,60.4969" style="stroke:#181818;stroke-width:0.4000000000000001;"/><text fill="#000000" font-family="sans-serif" font-size="11.2" font-style="italic" lengthAdjust="spacing" textLength="47.2" x="816" y="78.1828">&#171;builder&#187;</text><text fill="#000000" font-family="sans-serif" font-size="11.2" lengthAdjust="spacing" textLength="72" x="803.6" y="93.0797">CourseBuilder</text><polygon fill="#E3E3E3" points="800,634.6125,800,634.7806,807.92,634.281,815.84,634.7671,823.76,634.9322,831.68,634.0418,839.6,634.5503,847.52,634.2713,855.44,634.3057,863.36,634.558,871.28,634.0594,879.2,634.6125,879.2565,634.7489,879.4185,634.5744,879.7455,634.7981,880.0926,635.0704,880.3226,635.06,880.6142,635.1983,880.631,635.2053,880.7235,635.4779,880.8925,635.7822,881.0246,636.0712,881.2271,636.3894,881.2,636.6125,881.7368,636.6125,881.7434,644.0113,881.4037,651.41,881.5709,658.8088,881.7618,666.2075,881.2,673.6063,881.0223,673.5327,881.25,673.9583,880.8926,674.1417,880.98,674.5093,880.6094,674.6871,880.6142,675.0205,880.6072,675.0036,880.4071,675.3203,880.0436,675.2428,879.7764,675.3979,879.5174,675.5725,879.2,675.6063,879.2,675.9392,871.28,675.6031,863.36,675.836,855.44,675.1483,847.52,675.8338,839.6,676.0448,831.68,675.9619,823.76,676.0967,815.84,675.2198,807.92,675.0845,800,675.6063,799.9366,675.4532,799.7111,675.4746,799.4143,675.3235,799.221,675.4227,798.8508,675.0946,798.5858,675.0205,798.5013,674.9855,798.5249,674.7609,798.1872,674.3867,798.1064,674.119,798.277,673.9553,798,673.6063,798.3485,673.6063,798.5876,666.2075,797.7426,658.8088,798.2554,651.41,798.4723,644.0113,798,636.6125,797.8836,636.5643,798.0935,636.3199,798.2654,636.0597,798.512,635.8305,798.4676,635.4807,798.5858,635.1983,798.633,635.3122,798.8121,634.9447,799.0824,634.7971,799.4857,634.9709,799.644,634.553,800,634.6125" style="stroke:#181818;stroke-width:0.4000000000000001;"/><text fill="#000000" font-family="sans-serif" font-size="11.2" font-style="italic" lengthAdjust="spacing" textLength="47.2" x="816" y="652.2984">&#171;builder&#187;</text><text fill="#000000" font-family="sans-serif" font-size="11.2" lengthAdjust="spacing" textLength="72" x="803.6" y="667.1953">CourseBuilder</text><polygon fill="#E3E3E3" points="1116,60.4969,1116,60.665,1123.9385,60.1654,1131.8769,60.6515,1139.8154,60.8166,1147.7538,59.9262,1155.6923,60.4347,1163.6308,60.1557,1171.5692,60.1901,1179.5077,60.4423,1187.4462,59.9438,1195.3846,60.9398,1203.3231,59.9927,1211.2615,60.3387,1219.2,60.4969,1219.2441,60.6033,1219.4741,60.5929,1219.7726,60.748,1220.0453,60.8405,1220.3496,61.0095,1220.6142,61.0827,1220.6731,61.1071,1220.8757,61.4253,1221.0139,61.7168,1221.133,62.0005,1221.1456,62.24,1221.2,62.4969,1221.5709,62.4969,1221.7618,69.8956,1220.6231,77.2944,1221.7428,84.6931,1220.9628,92.0919,1221.2,99.4906,1221.3315,99.5451,1220.9609,99.723,1220.9488,100.0493,1221.0312,100.4148,1220.7194,100.617,1220.6142,100.9048,1220.625,100.9308,1220.3659,101.1054,1220.091,101.2417,1219.7653,101.2553,1219.5122,101.4442,1219.2,101.4906,1219.2,101.0327,1211.2615,101.7181,1203.3231,101.9292,1195.3846,101.8463,1187.4462,101.981,1179.5077,101.1042,1171.5692,100.9689,1163.6308,100.9935,1155.6923,101.4435,1147.7538,101.3334,1139.8154,102.0358,1131.8769,101.3509,1123.9385,101.2162,1116,101.4906,1116.0233,101.5469,1115.6491,101.2092,1115.3813,101.1284,1115.2177,101.299,1114.9131,101.1293,1114.5858,100.9048,1114.7667,100.9798,1114.3893,100.5892,1114.4301,100.3717,1114.3798,100.1166,1114.0008,99.7253,1114,99.4906,1113.9233,99.4906,1114.1008,92.0919,1114.5214,84.6931,1113.9966,77.2944,1114.3701,69.8956,1114,62.4969,1113.8636,62.4404,1113.9503,62.1449,1114.3584,61.9826,1114.1748,61.5752,1114.594,61.4174,1114.5858,61.0827,1114.6069,61.1336,1114.8413,60.8995,1115.1154,60.7612,1115.4811,60.8442,1115.6866,60.5403,1116,60.4969" style="stroke:#181818;stroke-width:0.4000000000000001;"/><text fill="#000000" font-family="sans-serif" font-size="11.2" lengthAdjust="spacing" textLength="49.6" x="1141.2" y="78.1828">&#171;domain&#187;</text><text fill="#000000" font-family="sans-serif" font-size="11.2" lengthAdjust="spacing" textLength="92.8" x="1122.8" y="93.0797">theCourse:Course</text><polygon fill="#E3E3E3" points="1116,634.6125,1116,634.7806,1123.9385,634.281,1131.8769,634.7671,1139.8154,634.9322,1147.7538,634.0418,1155.6923,634.5503,1163.6308,634.2713,1171.5692,634.3057,1179.5077,634.558,1187.4462,634.0594,1195.3846,635.0554,1203.3231,634.1083,1211.2615,634.4543,1219.2,634.6125,1219.2441,634.7189,1219.4741,634.7085,1219.7726,634.8636,1220.0453,634.9561,1220.3496,635.1251,1220.6142,635.1983,1220.6731,635.2227,1220.8757,635.5409,1221.0139,635.8325,1221.133,636.1161,1221.1456,636.3556,1221.2,636.6125,1221.5709,636.6125,1221.7618,644.0113,1220.6231,651.41,1221.7428,658.8088,1220.9628,666.2075,1221.2,673.6063,1221.3315,673.6607,1220.9609,673.8386,1220.9488,674.1649,1221.0312,674.5305,1220.7194,674.7326,1220.6142,675.0205,1220.625,675.0464,1220.3659,675.221,1220.091,675.3573,1219.7653,675.371,1219.5122,675.5599,1219.2,675.6063,1219.2,675.1483,1211.2615,675.8338,1203.3231,676.0448,1195.3846,675.9619,1187.4462,676.0967,1179.5077,675.2198,1171.5692,675.0845,1163.6308,675.1091,1155.6923,675.5591,1147.7538,675.449,1139.8154,676.1514,1131.8769,675.4665,1123.9385,675.3318,1116,675.6063,1116.0233,675.6625,1115.6491,675.3248,1115.3813,675.244,1115.2177,675.4147,1114.9131,675.245,1114.5858,675.0205,1114.7667,675.0954,1114.3893,674.7048,1114.4301,674.4874,1114.3798,674.2322,1114.0008,673.8409,1114,673.6063,1113.9233,673.6063,1114.1008,666.2075,1114.5214,658.8088,1113.9966,651.41,1114.3701,644.0113,1114,636.6125,1113.8636,636.556,1113.9503,636.2605,1114.3584,636.0982,1114.1748,635.6908,1114.594,635.5331,1114.5858,635.1983,1114.6069,635.2492,1114.8413,635.0151,1115.1154,634.8768,1115.4811,634.9598,1115.6866,634.6559,1116,634.6125" style="stroke:#181818;stroke-width:0.4000000000000001;"/><text fill="#000000" font-family="sans-serif" font-size="11.2" lengthAdjust="spacing" textLength="49.6" x="1141.2" y="652.2984">&#171;domain&#187;</text><text fill="#000000" font-family="sans-serif" font-size="11.2" lengthAdjust="spacing" textLength="92.8" x="1122.8" y="667.1953">theCourse:Course</text><polygon fill="#E3E3E3" points="1231.2,60.4969,1231.2,60.665,1239.2615,60.1654,1247.3231,60.6515,1255.3846,60.8166,1263.4462,59.9262,1271.5077,60.4347,1279.5692,60.1557,1287.6308,60.1901,1295.6923,60.4423,1303.7538,59.9438,1311.8154,60.9398,1319.8769,59.9927,1327.9385,60.3387,1336,60.4969,1336.0441,60.6033,1336.2741,60.5929,1336.5726,60.748,1336.8453,60.8405,1337.1496,61.0095,1337.4142,61.0827,1337.4731,61.1071,1337.6757,61.4253,1337.8139,61.7168,1337.933,62.0005,1337.9456,62.24,1338,62.4969,1338.3709,62.4969,1338.5618,69.8956,1337.4231,77.2944,1338.5428,84.6931,1337.7628,92.0919,1338,99.4906,1338.1315,99.5451,1337.7609,99.723,1337.7488,100.0493,1337.8312,100.4148,1337.5194,100.617,1337.4142,100.9048,1337.425,100.9308,1337.1659,101.1054,1336.891,101.2417,1336.5653,101.2553,1336.3122,101.4442,1336,101.4906,1336,101.0327,1327.9385,101.7181,1319.8769,101.9292,1311.8154,101.8463,1303.7538,101.981,1295.6923,101.1042,1287.6308,100.9689,1279.5692,100.9935,1271.5077,101.4435,1263.4462,101.3334,1255.3846,102.0358,1247.3231,101.3509,1239.2615,101.2162,1231.2,101.4906,1231.2233,101.5469,1230.8491,101.2092,1230.5813,101.1284,1230.4177,101.299,1230.1131,101.1293,1229.7858,100.9048,1229.9667,100.9798,1229.5893,100.5892,1229.6301,100.3717,1229.5798,100.1166,1229.2008,99.7253,1229.2,99.4906,1229.1233,99.4906,1229.3008,92.0919,1229.7214,84.6931,1229.1966,77.2944,1229.5701,69.8956,1229.2,62.4969,1229.0636,62.4404,1229.1503,62.1449,1229.5584,61.9826,1229.3748,61.5752,1229.794,61.4174,1229.7858,61.0827,1229.8069,61.1336,1230.0413,60.8995,1230.3154,60.7612,1230.6811,60.8442,1230.8866,60.5403,1231.2,60.4969" style="stroke:#181818;stroke-width:0.4000000000000001;"/><text fill="#000000" font-family="sans-serif" font-size="11.2" font-style="italic" lengthAdjust="spacing" textLength="71.2" x="1248" y="78.1828">&#171;persistence&#187;</text><text fill="#000000" font-family="sans-serif" font-size="11.2" lengthAdjust="spacing" textLength="97.6" x="1234.8" y="93.0797">PersistenceContext</text><polygon fill="#E3E3E3" points="1231.2,634.6125,1231.2,634.7806,1239.2615,634.281,1247.3231,634.7671,1255.3846,634.9322,1263.4462,634.0418,1271.5077,634.5503,1279.5692,634.2713,1287.6308,634.3057,1295.6923,634.558,1303.7538,634.0594,1311.8154,635.0554,1319.8769,634.1083,1327.9385,634.4543,1336,634.6125,1336.0441,634.7189,1336.2741,634.7085,1336.5726,634.8636,1336.8453,634.9561,1337.1496,635.1251,1337.4142,635.1983,1337.4731,635.2227,1337.6757,635.5409,1337.8139,635.8325,1337.933,636.1161,1337.9456,636.3556,1338,636.6125,1338.3709,636.6125,1338.5618,644.0113,1337.4231,651.41,1338.5428,658.8088,1337.7628,666.2075,1338,673.6063,1338.1315,673.6607,1337.7609,673.8386,1337.7488,674.1649,1337.8312,674.5305,1337.5194,674.7326,1337.4142,675.0205,1337.425,675.0464,1337.1659,675.221,1336.891,675.3573,1336.5653,675.371,1336.3122,675.5599,1336,675.6063,1336,675.1483,1327.9385,675.8338,1319.8769,676.0448,1311.8154,675.9619,1303.7538,676.0967,1295.6923,675.2198,1287.6308,675.0845,1279.5692,675.1091,1271.5077,675.5591,1263.4462,675.449,1255.3846,676.1514,1247.3231,675.4665,1239.2615,675.3318,1231.2,675.6063,1231.2233,675.6625,1230.8491,675.3248,1230.5813,675.244,1230.4177,675.4147,1230.1131,675.245,1229.7858,675.0205,1229.9667,675.0954,1229.5893,674.7048,1229.6301,674.4874,1229.5798,674.2322,1229.2008,673.8409,1229.2,673.6063,1229.1233,673.6063,1229.3008,666.2075,1229.7214,658.8088,1229.1966,651.41,1229.5701,644.0113,1229.2,636.6125,1229.0636,636.556,1229.1503,636.2605,1229.5584,636.0982,1229.3748,635.6908,1229.794,635.5331,1229.7858,635.1983,1229.8069,635.2492,1230.0413,635.0151,1230.3154,634.8768,1230.6811,634.9598,1230.8866,634.6559,1231.2,634.6125" style="stroke:#181818;stroke-width:0.4000000000000001;"/><text fill="#000000" font-family="sans-serif" font-size="11.2" font-style="italic" lengthAdjust="spacing" textLength="71.2" x="1248" y="652.2984">&#171;persistence&#187;</text><text fill="#000000" font-family="sans-serif" font-size="11.2" lengthAdjust="spacing" textLength="97.6" x="1234.8" y="667.1953">PersistenceContext</text><polygon fill="#E3E3E3" points="1348,60.4969,1348,60.665,1355.6923,60.1654,1363.3846,60.6515,1371.0769,60.8166,1378.7692,59.9262,1386.4615,60.4347,1394.1538,60.1557,1401.8462,60.1901,1409.5385,60.4423,1417.2308,59.9438,1424.9231,60.9398,1432.6154,59.9927,1440.3077,60.3387,1448,60.4969,1448.0441,60.6033,1448.2741,60.5929,1448.5726,60.748,1448.8453,60.8405,1449.1496,61.0095,1449.4142,61.0827,1449.4731,61.1071,1449.6757,61.4253,1449.8139,61.7168,1449.933,62.0005,1449.9456,62.24,1450,62.4969,1450.3709,62.4969,1450.5618,69.8956,1449.4231,77.2944,1450.5428,84.6931,1449.7628,92.0919,1450,99.4906,1450.1315,99.5451,1449.7609,99.723,1449.7488,100.0493,1449.8312,100.4148,1449.5194,100.617,1449.4142,100.9048,1449.425,100.9308,1449.1659,101.1054,1448.891,101.2417,1448.5653,101.2553,1448.3122,101.4442,1448,101.4906,1448,101.0327,1440.3077,101.7181,1432.6154,101.9292,1424.9231,101.8463,1417.2308,101.981,1409.5385,101.1042,1401.8462,100.9689,1394.1538,100.9935,1386.4615,101.4435,1378.7692,101.3334,1371.0769,102.0358,1363.3846,101.3509,1355.6923,101.2162,1348,101.4906,1348.0233,101.5469,1347.6491,101.2092,1347.3813,101.1284,1347.2177,101.299,1346.9131,101.1293,1346.5858,100.9048,1346.7667,100.9798,1346.3893,100.5892,1346.4301,100.3717,1346.3798,100.1166,1346.0008,99.7253,1346,99.4906,1345.9233,99.4906,1346.1008,92.0919,1346.5214,84.6931,1345.9966,77.2944,1346.3701,69.8956,1346,62.4969,1345.8636,62.4404,1345.9503,62.1449,1346.3584,61.9826,1346.1748,61.5752,1346.594,61.4174,1346.5858,61.0827,1346.6069,61.1336,1346.8413,60.8995,1347.1154,60.7612,1347.4811,60.8442,1347.6866,60.5403,1348,60.4969" style="stroke:#181818;stroke-width:0.4000000000000001;"/><text fill="#000000" font-family="sans-serif" font-size="11.2" font-style="italic" lengthAdjust="spacing" textLength="47.2" x="1374.4" y="78.1828">&#171;factory&#187;</text><text fill="#000000" font-family="sans-serif" font-size="11.2" lengthAdjust="spacing" textLength="92.8" x="1351.6" y="93.0797">RepositoryFactory</text><polygon fill="#E3E3E3" points="1348,634.6125,1348,634.7806,1355.6923,634.281,1363.3846,634.7671,1371.0769,634.9322,1378.7692,634.0418,1386.4615,634.5503,1394.1538,634.2713,1401.8462,634.3057,1409.5385,634.558,1417.2308,634.0594,1424.9231,635.0554,1432.6154,634.1083,1440.3077,634.4543,1448,634.6125,1448.0441,634.7189,1448.2741,634.7085,1448.5726,634.8636,1448.8453,634.9561,1449.1496,635.1251,1449.4142,635.1983,1449.4731,635.2227,1449.6757,635.5409,1449.8139,635.8325,1449.933,636.1161,1449.9456,636.3556,1450,636.6125,1450.3709,636.6125,1450.5618,644.0113,1449.4231,651.41,1450.5428,658.8088,1449.7628,666.2075,1450,673.6063,1450.1315,673.6607,1449.7609,673.8386,1449.7488,674.1649,1449.8312,674.5305,1449.5194,674.7326,1449.4142,675.0205,1449.425,675.0464,1449.1659,675.221,1448.891,675.3573,1448.5653,675.371,1448.3122,675.5599,1448,675.6063,1448,675.1483,1440.3077,675.8338,1432.6154,676.0448,1424.9231,675.9619,1417.2308,676.0967,1409.5385,675.2198,1401.8462,675.0845,1394.1538,675.1091,1386.4615,675.5591,1378.7692,675.449,1371.0769,676.1514,1363.3846,675.4665,1355.6923,675.3318,1348,675.6063,1348.0233,675.6625,1347.6491,675.3248,1347.3813,675.244,1347.2177,675.4147,1346.9131,675.245,1346.5858,675.0205,1346.7667,675.0954,1346.3893,674.7048,1346.4301,674.4874,1346.3798,674.2322,1346.0008,673.8409,1346,673.6063,1345.9233,673.6063,1346.1008,666.2075,1346.5214,658.8088,1345.9966,651.41,1346.3701,644.0113,1346,636.6125,1345.8636,636.556,1345.9503,636.2605,1346.3584,636.0982,1346.1748,635.6908,1346.594,635.5331,1346.5858,635.1983,1346.6069,635.2492,1346.8413,635.0151,1347.1154,634.8768,1347.4811,634.9598,1347.6866,634.6559,1348,634.6125" style="stroke:#181818;stroke-width:0.4000000000000001;"/><text fill="#000000" font-family="sans-serif" font-size="11.2" font-style="italic" lengthAdjust="spacing" textLength="47.2" x="1374.4" y="652.2984">&#171;factory&#187;</text><text fill="#000000" font-family="sans-serif" font-size="11.2" lengthAdjust="spacing" textLength="92.8" x="1351.6" y="667.1953">RepositoryFactory</text><text fill="#000000" font-family="sans-serif" font-size="11.2" lengthAdjust="spacing" textLength="63.2" x="1472" y="84.5828">&#171;repository&#187;</text><text fill="#000000" font-family="sans-serif" font-size="11.2" lengthAdjust="spacing" textLength="91.2" x="1461.2" y="99.4797">CourseRepository</text><path d="M1493.2,43.6969 L1493.2,43.6969 L1493.2521,43.7505 L1494.5373,42.1913 L1496.1279,40.9461 L1497.6191,39.5988 L1498.7832,37.915 L1500.4,36.6969 L1500.3962,36.6695 L1501.8191,36.3467 L1503.2612,36.1618 L1504.7167,36.0729 L1506.1262,35.6534 L1507.6,35.6969 L1507.6,35.6969 L1507.6271,35.8919 L1509.0092,35.6749 L1510.4703,36.0272 L1511.9411,36.449 L1513.3558,36.4667 L1514.8,36.6969 L1514.8169,36.7143 L1516.2321,38.0887 L1517.7242,39.5424 L1519.1793,40.9578 L1520.7052,42.4462 L1522,43.6969 L1522.4772,43.6969 L1522.483,47.8569 L1522.1811,52.0169 L1522.3297,56.1769 L1522.4994,60.3369 L1522,64.4969 L1522,64.4969 L1521.8213,64.313 L1520.7282,66.0698 L1519.0465,67.2213 L1517.8123,68.833 L1516.1173,69.9707 L1514.8,71.4969 L1514.7966,71.4728 L1513.3963,71.958 L1511.9176,71.8797 L1510.4852,72.134 L1509.0566,72.4161 L1507.6,72.4969 L1507.6,72.4969 L1507.6204,72.6435 L1506.1598,72.2955 L1504.734,72.198 L1503.252,71.6953 L1501.8539,71.797 L1500.4,71.4969 L1500.5359,71.6366 L1499.0702,70.2102 L1497.6719,68.8532 L1495.9603,67.1737 L1494.4784,65.7306 L1493.2,64.4969 L1492.7581,64.4969 L1493.1581,60.3369 L1493.0602,56.1769 L1493.6846,52.0169 L1493.0758,47.8569 L1493.2,43.6969 " fill="#E3E3E3" style="stroke:#181818;stroke-width:1.2000000000000002;"/><path d="M1493.2,43.6969 L1493.2,43.6969 L1493.2521,43.7505 L1494.5373,44.9913 L1496.1279,46.5461 L1497.6191,47.9988 L1498.7832,49.115 L1500.4,50.6969 L1500.3962,50.6695 L1501.8191,50.7467 L1503.2612,50.9618 L1504.7167,51.2729 L1506.1262,51.2534 L1507.6,51.6969 L1507.6,51.6969 L1507.6271,51.8919 L1509.0092,51.2749 L1510.4703,51.2272 L1511.9411,51.249 L1513.3558,50.8667 L1514.8,50.6969 L1514.8169,50.7143 L1516.2321,49.2887 L1517.7242,47.9424 L1519.1793,46.5578 L1520.7052,45.2462 L1522,43.6969 " fill="none" style="stroke:#181818;stroke-width:1.2000000000000002;"/><text fill="#000000" font-family="sans-serif" font-size="11.2" lengthAdjust="spacing" textLength="63.2" x="1472" y="646.6984">&#171;repository&#187;</text><text fill="#000000" font-family="sans-serif" font-size="11.2" lengthAdjust="spacing" textLength="91.2" x="1461.2" y="661.5953">CourseRepository</text><path d="M1493.2,672.4063 L1493.2,672.4063 L1493.2521,672.4598 L1494.5373,670.9006 L1496.1279,669.6555 L1497.6191,668.3081 L1498.7832,666.6244 L1500.4,665.4063 L1500.3962,665.3789 L1501.8191,665.056 L1503.2612,664.8712 L1504.7167,664.7822 L1506.1262,664.3628 L1507.6,664.4063 L1507.6,664.4063 L1507.6271,664.6012 L1509.0092,664.3843 L1510.4703,664.7366 L1511.9411,665.1584 L1513.3558,665.176 L1514.8,665.4063 L1514.8169,665.4236 L1516.2321,666.7981 L1517.7242,668.2518 L1519.1793,669.6672 L1520.7052,671.1556 L1522,672.4063 L1522.4772,672.4063 L1522.483,676.5663 L1522.1811,680.7263 L1522.3297,684.8863 L1522.4994,689.0463 L1522,693.2063 L1522,693.2063 L1521.8213,693.0224 L1520.7282,694.7792 L1519.0465,695.9307 L1517.8123,697.5423 L1516.1173,698.6801 L1514.8,700.2063 L1514.7966,700.1821 L1513.3963,700.6674 L1511.9176,700.5891 L1510.4852,700.8433 L1509.0566,701.1255 L1507.6,701.2063 L1507.6,701.2063 L1507.6204,701.3528 L1506.1598,701.0049 L1504.734,700.9074 L1503.252,700.4047 L1501.8539,700.5064 L1500.4,700.2063 L1500.5359,700.346 L1499.0702,698.9196 L1497.6719,697.5625 L1495.9603,695.8831 L1494.4784,694.44 L1493.2,693.2063 L1492.7581,693.2063 L1493.1581,689.0463 L1493.0602,684.8863 L1493.6846,680.7263 L1493.0758,676.5663 L1493.2,672.4063 " fill="#E3E3E3" style="stroke:#181818;stroke-width:1.2000000000000002;"/><path d="M1493.2,672.4063 L1493.2,672.4063 L1493.2521,672.4598 L1494.5373,673.7006 L1496.1279,675.2555 L1497.6191,676.7081 L1498.7832,677.8244 L1500.4,679.4063 L1500.3962,679.3789 L1501.8191,679.456 L1503.2612,679.6712 L1504.7167,679.9822 L1506.1262,679.9628 L1507.6,680.4063 L1507.6,680.4063 L1507.6271,680.6012 L1509.0092,679.9843 L1510.4703,679.9366 L1511.9411,679.9584 L1513.3558,679.576 L1514.8,679.4063 L1514.8169,679.4236 L1516.2321,677.9981 L1517.7242,676.6518 L1519.1793,675.2672 L1520.7052,673.9556 L1522,672.4063 " fill="none" style="stroke:#181818;stroke-width:1.2000000000000002;"/><polygon fill="#FFFFFF" points="23.2,110.2906,23.2,110.3467,24.8,110.1801,26.4,110.3422,28,110.3972,29.6,110.1004,31.2,110.2906,31.1378,110.2906,30.8588,118.2707,30.8932,126.2507,31.1455,134.2307,30.6469,142.2107,31.6429,150.1908,30.6958,158.1708,31.0418,166.1508,31.5456,174.1309,31.1314,182.1109,31.2546,190.0909,31.1744,198.0709,31.3428,206.051,31.3913,214.031,31.6686,222.011,31.7368,229.9911,31.7434,237.9711,31.4037,245.9511,31.5709,253.9312,31.7618,261.9112,30.6231,269.8912,31.7428,277.8712,30.9628,285.8513,31.627,293.8313,30.804,301.8113,31.1452,309.7914,31.7933,317.7714,31.161,325.7514,31.2842,333.7314,31.4709,341.7115,31.533,349.6915,31.1969,357.6715,31.4298,365.6516,30.7421,373.6316,31.4275,381.6116,31.6386,389.5917,31.5556,397.5717,31.6904,405.5517,30.8135,413.5317,30.6783,421.5118,30.7029,429.4918,31.1529,437.4718,31.0428,445.4519,31.7451,453.4319,31.0603,461.4119,30.9256,469.3919,31.3826,477.372,30.6665,485.352,30.7847,493.332,31.7192,501.3121,31.5485,509.2921,31.7876,517.2721,30.9426,525.2521,31.4554,533.2322,31.6723,541.2122,30.8221,549.1922,31.1233,557.1723,31.3008,565.1523,31.7214,573.1323,31.1966,581.1124,31.5701,589.0924,30.757,597.0724,30.6582,605.0524,31.6029,613.0325,31.2,621.0125,31.2,620.8213,29.6,621.1482,28,621.0676,26.4,620.9411,24.8,620.9182,23.2,621.0125,23.567,621.0125,22.9605,613.0325,23.6735,605.0524,22.7578,597.0724,23.6939,589.0924,23.5874,581.1124,23.396,573.1323,23.2378,565.1523,23.7813,557.1723,23.6909,549.1922,23.3354,541.2122,23.4146,533.2322,23.0958,525.2521,23.7732,517.2721,23.3239,509.2921,23.3381,501.3121,22.7133,493.332,22.8758,485.352,23.6246,477.372,23.5438,469.3919,23.1657,461.4119,22.9423,453.4319,23.0249,445.4519,22.6511,437.4718,23.5318,429.4918,23.7917,421.5118,23.6211,413.5317,23.7559,405.5517,23.0906,397.5717,23.2698,389.5917,22.8899,381.6116,23.4272,373.6316,23.3974,365.6516,23.6419,357.6715,23.0163,349.6915,23.0925,341.7115,23.5548,333.7314,23.6539,325.7514,22.79,317.7714,23.0449,309.7914,23.3194,301.8113,22.7113,293.8313,23.4827,285.8513,23.4064,277.8712,23.1194,269.8912,23.3138,261.9112,23.7829,253.9312,22.9497,245.9511,23.452,237.9711,23.4285,229.9911,23.2926,222.011,23.3127,214.031,23.2908,206.051,22.7007,198.0709,22.8793,190.0909,22.8308,182.1109,23.2511,174.1309,23.2705,166.1508,23.3294,158.1708,22.9672,150.1908,23.146,142.2107,23.1038,134.2307,23.6615,126.2507,23.5413,118.2707,23.2,110.2906" style="stroke:#181818;stroke-width:0.8000000000000002;"/><polygon fill="#FFFFFF" points="393.6,128.9234,393.6,128.9795,395.2,128.813,396.8,128.975,398.4,129.03,400,128.7332,401.6,128.9234,401.5378,128.9234,401.2588,136.8604,401.2932,144.7973,401.5455,152.7342,401.0469,160.6711,402.0429,168.608,401.0958,176.545,401.4418,184.4819,401.9456,192.4188,401.5314,200.3557,401.6546,208.2926,401.5744,216.2296,401.7428,224.1665,401.7913,232.1034,402.0686,240.0403,402.1368,247.9772,402.1434,255.9142,401.8037,263.8511,401.9709,271.788,402.1618,279.7249,401.0231,287.6618,402.1428,295.5988,401.3628,303.5357,402.027,311.4726,401.204,319.4095,401.5452,327.3464,402.1933,335.2834,401.561,343.2203,401.6842,351.1572,401.8709,359.0941,401.933,367.031,401.5969,374.968,401.8298,382.9049,401.1421,390.8418,401.8275,398.7787,402.0386,406.7157,401.9556,414.6526,402.0904,422.5895,401.2135,430.5264,401.0783,438.4633,401.1029,446.4003,401.5529,454.3372,401.4428,462.2741,402.1451,470.211,401.4603,478.1479,401.3256,486.0849,401.7826,494.0218,401.0665,501.9587,401.1847,509.8956,402.1192,517.8325,401.9485,525.7695,402.1876,533.7064,401.3426,541.6433,401.8554,549.5802,402.0723,557.5171,401.2221,565.4541,401.5233,573.391,401.7008,581.3279,402.1214,589.2648,401.5966,597.2017,401.9701,605.1387,401.157,613.0756,401.6,621.0125,401.6,620.8319,400,621.1468,398.4,620.8213,396.8,621.1482,395.2,621.0676,393.6,621.0125,393.3857,621.0125,393.317,613.0756,393.967,605.1387,393.3605,597.2017,394.0735,589.2648,393.1578,581.3279,394.0939,573.391,393.9874,565.4541,393.796,557.5171,393.6378,549.5802,394.1813,541.6433,394.0909,533.7064,393.7354,525.7695,393.8146,517.8325,393.4958,509.8956,394.1732,501.9587,393.7239,494.0218,393.7381,486.0849,393.1133,478.1479,393.2758,470.211,394.0246,462.2741,393.9438,454.3372,393.5657,446.4003,393.3423,438.4633,393.4249,430.5264,393.0511,422.5895,393.9318,414.6526,394.1917,406.7157,394.0211,398.7787,394.1559,390.8418,393.4906,382.9049,393.6698,374.968,393.2899,367.031,393.8272,359.0941,393.7974,351.1572,394.0419,343.2203,393.4163,335.2834,393.4925,327.3464,393.9548,319.4095,394.0539,311.4726,393.19,303.5357,393.4449,295.5988,393.7194,287.6618,393.1113,279.7249,393.8827,271.788,393.8064,263.8511,393.5194,255.9142,393.7138,247.9772,394.1829,240.0403,393.3497,232.1034,393.852,224.1665,393.8285,216.2296,393.6926,208.2926,393.7127,200.3557,393.6908,192.4188,393.1007,184.4819,393.2793,176.545,393.2308,168.608,393.6511,160.6711,393.6705,152.7342,393.7294,144.7973,393.3672,136.8604,393.6,128.9234" style="stroke:#181818;stroke-width:0.8000000000000002;"/><polygon fill="#FFFFFF" points="721.6,256.7203,721.6,256.7764,723.2,256.6098,724.8,256.7719,726.4,256.8269,728,256.5301,729.6,256.7203,729.5378,256.7203,729.2588,264.7979,729.2932,272.8755,729.5455,280.9531,729.0469,289.0307,730.0429,297.1083,729.0958,305.1859,729.4418,313.2635,729.9456,321.3411,729.5314,329.4188,729.6546,337.4964,729.5744,345.574,729.7428,353.6516,729.7913,361.7292,730.0686,369.8068,730.1368,377.8844,730.1434,385.962,729.8037,394.0396,729.9709,402.1172,730.1618,410.1948,729.0231,418.2724,730.1428,426.35,729.3628,434.4276,730.027,442.5052,729.204,450.5828,729.5452,458.6604,730.1933,466.738,729.561,474.8156,729.6842,482.8932,729.8709,490.9708,729.933,499.0484,729.5969,507.126,729.8298,515.2036,729.1421,523.2813,729.8275,531.3589,730.0386,539.4365,729.9556,547.5141,730.0904,555.5917,729.2135,563.6693,729.0783,571.7469,729.1029,579.8245,729.5529,587.9021,729.6,595.9797,729.6,595.9273,728,596.1614,726.4,595.9331,724.8,595.8882,723.2,596.0406,721.6,595.9797,721.0665,595.9797,721.1847,587.9021,722.1192,579.8245,721.9485,571.7469,722.1876,563.6693,721.3426,555.5917,721.8554,547.5141,722.0723,539.4365,721.2221,531.3589,721.5233,523.2813,721.7008,515.2036,722.1214,507.126,721.5966,499.0484,721.9701,490.9708,721.157,482.8932,721.0582,474.8156,722.0029,466.738,721.0264,458.6604,722.0072,450.5828,721.7653,442.5052,721.3857,434.4276,721.317,426.35,721.967,418.2724,721.3605,410.1948,722.0735,402.1172,721.1578,394.0396,722.0939,385.962,721.9874,377.8844,721.796,369.8068,721.6378,361.7292,722.1813,353.6516,722.0909,345.574,721.7354,337.4964,721.8146,329.4188,721.4958,321.3411,722.1732,313.2635,721.7239,305.1859,721.7381,297.1083,721.1133,289.0307,721.2758,280.9531,722.0246,272.8755,721.9438,264.7979,721.6,256.7203" style="stroke:#181818;stroke-width:0.8000000000000002;"/><polygon fill="#FFFFFF" points="835.6,306.7859,835.6,306.842,837.2,306.6755,838.8,306.8375,840.4,306.8925,842,306.5957,843.6,306.7859,843.5378,306.7859,843.2588,314.8706,843.2932,322.9553,843.5455,331.0399,843.0469,339.1246,844.0429,347.2092,843.0958,355.2939,843.4418,363.3786,843.9456,371.4632,843.5314,379.5479,843.6546,387.6325,843.6,395.7172,843.6,395.7087,842,395.7648,840.4,395.781,838.8,395.8734,837.2,395.8961,835.6,395.7172,836.1434,395.7172,835.8037,387.6325,835.9709,379.5479,836.1618,371.4632,835.0231,363.3786,836.1428,355.2939,835.3628,347.2092,836.027,339.1246,835.204,331.0399,835.5452,322.9553,836.1933,314.8706,835.6,306.7859" style="stroke:#181818;stroke-width:0.8000000000000002;"/><polygon fill="#FFFFFF" points="1163.6,345.6516,1163.6,345.7076,1165.2,345.5411,1166.8,345.7031,1168.4,345.7581,1170,345.4613,1171.6,345.6516,1171.5793,345.6516,1171.4863,350.6581,1171.4977,355.6647,1171.5818,360.6713,1171.4156,365.6778,1171.6,370.6844,1171.6,370.832,1170,370.5163,1168.4,370.6316,1166.8,370.7996,1165.2,370.6615,1163.6,370.6844,1163.6182,370.6844,1163.5915,365.6778,1163.6476,360.6713,1163.6638,355.6647,1163.7562,350.6581,1163.6,345.6516" style="stroke:#181818;stroke-width:0.8000000000000002;"/><polygon fill="#FFFFFF" points="1279.6,420.75,1279.6,420.806,1281.2,420.6395,1282.8,420.8015,1284.4,420.8566,1286,420.5598,1287.6,420.75,1287.5378,420.75,1287.2588,429.0943,1287.2932,437.4385,1287.5455,445.7828,1287.0469,454.1271,1288.0429,462.4714,1287.6,470.8156,1287.6,470.6476,1286,470.7629,1284.4,470.9308,1282.8,470.7928,1281.2,470.8338,1279.6,470.8156,1279.5744,470.8156,1279.7428,462.4714,1279.7913,454.1271,1280.0686,445.7828,1280.1368,437.4385,1280.1434,429.0943,1279.6,420.75" style="stroke:#181818;stroke-width:0.8000000000000002;"/><polygon fill="#FFFFFF" points="1394,495.8484,1394,495.9045,1395.6,495.738,1397.2,495.9,1398.8,495.955,1400.4,495.6582,1402,495.8484,1401.9378,495.8484,1401.6588,504.1927,1401.6932,512.537,1401.9455,520.8813,1401.4469,529.2255,1402.4429,537.5698,1402,545.9141,1402,545.746,1400.4,545.8613,1398.8,546.0292,1397.2,545.8912,1395.6,545.9323,1394,545.9141,1393.9744,545.9141,1394.1428,537.5698,1394.1913,529.2255,1394.4686,520.8813,1394.5368,512.537,1394.5434,504.1927,1394,495.8484" style="stroke:#181818;stroke-width:0.8000000000000002;"/><polygon fill="#181818" points="384,125.7234,384.0208,125.7755,385.559,126.2609,387.2191,127.0513,388.8396,127.7424,390.3293,128.1068,392,128.9234,391.9923,128.9042,390.3578,129.4578,388.762,130.1085,387.1932,130.8266,385.5315,131.3123,384,132.1234,384.1044,132.2278,384.5212,131.3646,385.2427,130.8061,386.0014,130.2849,386.5438,129.5473,387.2,128.9234,387.2129,128.9363,386.554,128.2774,385.9537,127.6771,385.3251,127.0485,384.7504,126.4739,384,125.7234" style="stroke:#181818;stroke-width:0.8000000000000002;"/><path d="M31.2,128.9234 L31.2,129.1476 L39.1467,128.4815 L47.0933,129.1296 L55.04,129.3498 L62.9867,128.1625 L70.9333,128.8405 L78.88,128.4685 L86.8267,128.5144 L94.7733,128.8507 L102.72,128.186 L110.6667,129.514 L118.6133,128.2511 L126.56,128.7125 L134.5067,129.3842 L142.4533,128.8319 L150.4,128.9962 L158.3467,128.8894 L166.2933,129.1139 L174.24,129.1785 L182.1867,129.5482 L190.1333,129.6392 L198.08,129.648 L206.0267,129.195 L213.9733,129.4179 L221.92,129.6725 L229.8667,128.1542 L237.8133,129.6472 L245.76,128.6072 L253.7067,129.4928 L261.6533,128.3954 L269.6,128.8504 L277.5467,129.7145 L285.4933,128.8715 L293.44,129.0358 L301.3867,129.2846 L309.3333,129.3674 L317.28,128.9193 L325.2267,129.2298 L333.1733,128.3129 L341.12,129.2268 L349.0667,129.5082 L357.0133,129.3976 L364.96,129.5773 L372.9067,128.4082 L380.8533,128.2278 L388.8,128.9234 " fill="none" style="stroke:#181818;stroke-width:0.8000000000000002;"/><text fill="#000000" font-family="sans-serif" font-size="10.4" font-weight="bold" lengthAdjust="spacing" textLength="5.6" x="36.8" y="124.7133">1</text><text fill="#000000" font-family="sans-serif" font-size="10.4" lengthAdjust="spacing" textLength="140" x="45.6" y="124.7133">Pede para criar uma disciplina</text><polygon fill="#181818" points="716,150.7563,716.0208,150.8083,717.559,151.2937,719.2191,152.0841,720.8396,152.7752,722.3293,153.1396,724,153.9563,723.9923,153.937,722.3578,154.4907,720.762,155.1413,719.1932,155.8594,717.5315,156.3451,716,157.1563,716.1044,157.2606,716.5212,156.3974,717.2427,155.839,718.0014,155.3177,718.5438,154.5801,719.2,153.9563,719.2129,153.9691,718.554,153.3102,717.9537,152.7099,717.3251,152.0813,716.7504,151.5067,716,150.7563" style="stroke:#181818;stroke-width:0.8000000000000002;"/><path d="M401.6,153.9563 L401.6,154.1804 L409.58,153.5143 L417.56,154.1624 L425.54,154.3826 L433.52,153.1953 L441.5,153.8734 L449.48,153.5013 L457.46,153.5472 L465.44,153.8835 L473.42,153.2188 L481.4,154.5468 L489.38,153.284 L497.36,153.7453 L505.34,154.417 L513.32,153.8648 L521.3,154.029 L529.28,153.9222 L537.26,154.1467 L545.24,154.2113 L553.22,154.581 L561.2,154.672 L569.18,154.6808 L577.16,154.2279 L585.14,154.4507 L593.12,154.7053 L601.1,153.187 L609.08,154.68 L617.06,153.64 L625.04,154.5256 L633.02,153.4282 L641,153.8832 L648.98,154.7473 L656.96,153.9043 L664.94,154.0686 L672.92,154.3175 L680.9,154.4002 L688.88,153.9521 L696.86,154.2626 L704.84,153.3457 L712.82,154.2596 L720.8,153.9563 " fill="none" style="stroke:#181818;stroke-width:0.8000000000000002;"/><text fill="#000000" font-family="sans-serif" font-size="10.4" font-weight="bold" lengthAdjust="spacing" textLength="5.6" x="407.2" y="149.7461">2</text><text fill="#000000" font-family="sans-serif" font-size="10.4" lengthAdjust="spacing" textLength="28.8" x="416" y="149.7461">create</text><polygon fill="#181818" points="40,175.7891,40.0208,175.8411,38.359,176.3265,36.8191,177.1169,35.2396,177.808,33.5293,178.1724,32,178.9891,31.9923,178.9698,33.5578,179.5235,35.162,180.1741,36.7932,180.8922,38.3315,181.3779,40,182.1891,40.1044,182.2935,39.2412,181.4302,38.6827,180.8718,38.1614,180.3505,37.4238,179.6129,36.8,178.9891,36.8129,179.0019,37.434,178.343,38.1137,177.7427,38.7651,177.1142,39.4704,176.5395,40,175.7891" style="stroke:#181818;stroke-width:0.8000000000000002;"/><path d="M35.2,178.9891 L35.2,179.2133 L43.1467,178.5471 L51.0933,179.1952 L59.04,179.4154 L66.9867,178.2281 L74.9333,178.9062 L82.88,178.5341 L90.8267,178.58 L98.7733,178.9164 L106.72,178.2516 L114.6667,179.5796 L122.6133,178.3168 L130.56,178.7781 L138.5067,179.4498 L146.4533,178.8976 L154.4,179.0619 L162.3467,178.955 L170.2933,179.1795 L178.24,179.2441 L186.1867,179.6138 L194.1333,179.7049 L202.08,179.7136 L210.0267,179.2607 L217.9733,179.4836 L225.92,179.7381 L233.8667,178.2198 L241.8133,179.7128 L249.76,178.6728 L257.7067,179.5585 L265.6533,178.461 L273.6,178.916 L281.5467,179.7801 L289.4933,178.9371 L297.44,179.1014 L305.3867,179.3503 L313.3333,179.433 L321.28,178.9849 L329.2267,179.2954 L337.1733,178.3785 L345.12,179.2924 L353.0667,179.5738 L361.0133,179.4632 L368.96,179.643 L376.9067,178.4738 L384.8533,178.2934 L392.8,178.9891 " fill="none" style="stroke:#181818;stroke-width:0.8000000000000002;stroke-dasharray:2.0,2.0;"/><text fill="#000000" font-family="sans-serif" font-size="10.4" font-weight="bold" lengthAdjust="spacing" textLength="5.6" x="44.8" y="174.7789">3</text><text fill="#000000" font-family="sans-serif" font-size="10.4" lengthAdjust="spacing" textLength="128" x="53.6" y="174.7789">pede a informa&#231;&#227;o do curso</text><polygon fill="#181818" points="384,214.6547,384.0208,214.7067,385.559,215.1921,387.2191,215.9825,388.8396,216.6736,390.3293,217.0381,392,217.8547,391.9923,217.8354,390.3578,218.3891,388.762,219.0397,387.1932,219.7578,385.5315,220.2435,384,221.0547,384.1044,221.1591,384.5212,220.2958,385.2427,219.7374,386.0014,219.2161,386.5438,218.4785,387.2,217.8547,387.2129,217.8676,386.554,217.2087,385.9537,216.6084,385.3251,215.9798,384.7504,215.4051,384,214.6547" style="stroke:#181818;stroke-width:0.8000000000000002;"/><path d="M31.2,217.8547 L31.2,218.0789 L39.1467,217.4127 L47.0933,218.0609 L55.04,218.281 L62.9867,217.0937 L70.9333,217.7718 L78.88,217.3998 L86.8267,217.4456 L94.7733,217.782 L102.72,217.1172 L110.6667,218.4452 L118.6133,217.1824 L126.56,217.6437 L134.5067,218.3154 L142.4533,217.7632 L150.4,217.9275 L158.3467,217.8206 L166.2933,218.0451 L174.24,218.1098 L182.1867,218.4794 L190.1333,218.5705 L198.08,218.5792 L206.0267,218.1263 L213.9733,218.3492 L221.92,218.6037 L229.8667,217.0854 L237.8133,218.5784 L245.76,217.5384 L253.7067,218.4241 L261.6533,217.3267 L269.6,217.7816 L277.5467,218.6457 L285.4933,217.8027 L293.44,217.967 L301.3867,218.2159 L309.3333,218.2987 L317.28,217.8505 L325.2267,218.161 L333.1733,217.2441 L341.12,218.158 L349.0667,218.4394 L357.0133,218.3289 L364.96,218.5086 L372.9067,217.3394 L380.8533,217.159 L388.8,217.8547 " fill="none" style="stroke:#181818;stroke-width:0.8000000000000002;"/><text fill="#000000" font-family="sans-serif" font-size="10.4" font-weight="bold" lengthAdjust="spacing" textLength="5.6" x="36.8" y="206.7281">4</text><text fill="#000000" font-family="sans-serif" font-size="10.4" lengthAdjust="spacing" textLength="207.2" x="45.6" y="199.8117">descri&#231;&#227;o da disciplina, estado da disciplina,</text><text fill="#000000" font-family="sans-serif" font-size="10.4" lengthAdjust="spacing" textLength="331.2" x="48.8" y="213.6445">titulo da disciplina, c&#243;digo da disciplina, inscri&#231;&#245;es m&#237;nimas e m&#225;ximas</text><polygon fill="#181818" points="712,253.5203,712.0208,253.5724,713.559,254.0577,715.2191,254.8482,716.8396,255.5393,718.3293,255.9037,720,256.7203,719.9923,256.7011,718.3578,257.2547,716.762,257.9054,715.1932,258.6234,713.5315,259.1091,712,259.9203,712.1044,260.0247,712.5212,259.1615,713.2427,258.603,714.0014,258.0818,714.5438,257.3441,715.2,256.7203,715.2129,256.7332,714.554,256.0743,713.9537,255.474,713.3251,254.8454,712.7504,254.2708,712,253.5203" style="stroke:#181818;stroke-width:0.8000000000000002;"/><path d="M401.6,256.7203 L401.6,256.9445 L409.6821,256.2784 L417.7641,256.9265 L425.8462,257.1466 L433.9282,255.9594 L442.0103,256.6374 L450.0923,256.2654 L458.1744,256.3112 L466.2564,256.6476 L474.3385,255.9829 L482.4205,257.3109 L490.5026,256.048 L498.5846,256.5094 L506.6667,257.1811 L514.7487,256.6288 L522.8308,256.7931 L530.9128,256.6862 L538.9949,256.9107 L547.0769,256.9754 L555.159,257.345 L563.241,257.4361 L571.3231,257.4449 L579.4051,256.9919 L587.4872,257.2148 L595.5692,257.4694 L603.6513,255.951 L611.7333,257.4441 L619.8154,256.404 L627.8974,257.2897 L635.9795,256.1923 L644.0615,256.6472 L652.1436,257.5114 L660.2256,256.6683 L668.3077,256.8326 L676.3897,257.0815 L684.4718,257.1643 L692.5538,256.7161 L700.6359,257.0267 L708.7179,256.1097 L716.8,256.7203 " fill="none" style="stroke:#181818;stroke-width:0.8000000000000002;"/><text fill="#000000" font-family="sans-serif" font-size="10.4" font-weight="bold" lengthAdjust="spacing" textLength="5.6" x="407.2" y="245.5938">5</text><text fill="#000000" font-family="sans-serif" font-size="10.4" lengthAdjust="spacing" textLength="180" x="416" y="238.6773">createCourse(courseCode, courseTitle,</text><text fill="#000000" font-family="sans-serif" font-size="10.4" lengthAdjust="spacing" textLength="296" x="416" y="252.5102">courseDescription, minimumEnrolments, maximumEnrolments )</text><polygon fill="#181818" points="830,278.5531,830.0208,278.6052,831.559,279.0905,833.2191,279.881,834.8396,280.5721,836.3293,280.9365,838,281.7531,837.9923,281.7339,836.3578,282.2875,834.762,282.9382,833.1932,283.6562,831.5315,284.1419,830,284.9531,830.1044,285.0575,830.5212,284.1943,831.2427,283.6358,832.0014,283.1146,832.5438,282.377,833.2,281.7531,833.2129,281.766,832.554,281.1071,831.9537,280.5068,831.3251,279.8782,830.7504,279.3036,830,278.5531" style="stroke:#181818;stroke-width:0.8000000000000002;"/><path d="M729.6,281.7531 L729.6,281.9773 L737.6923,281.3112 L745.7846,281.9593 L753.8769,282.1794 L761.9692,280.9922 L770.0615,281.6702 L778.1538,281.2982 L786.2462,281.3441 L794.3385,281.6804 L802.4308,281.0157 L810.5231,282.3437 L818.6154,281.0808 L826.7077,281.5422 L834.8,281.7531 " fill="none" style="stroke:#181818;stroke-width:0.8000000000000002;"/><text fill="#000000" font-family="sans-serif" font-size="10.4" font-weight="bold" lengthAdjust="spacing" textLength="5.6" x="735.2" y="277.543">6</text><text fill="#000000" font-family="sans-serif" font-size="10.4" lengthAdjust="spacing" textLength="28.8" x="744" y="277.543">create</text><polygon fill="#181818" points="826,303.5859,826.0208,303.638,827.559,304.1234,829.2191,304.9138,830.8396,305.6049,832.3293,305.9693,834,306.7859,833.9923,306.7667,832.3578,307.3203,830.762,307.971,829.1932,308.6891,827.5315,309.1748,826,309.9859,826.1044,310.0903,826.5212,309.2271,827.2427,308.6686,828.0014,308.1474,828.5438,307.4098,829.2,306.7859,829.2129,306.7988,828.554,306.1399,827.9537,305.5396,827.3251,304.911,826.7504,304.3364,826,303.5859" style="stroke:#181818;stroke-width:0.8000000000000002;"/><path d="M729.6,306.7859 L729.6,307.0101 L737.3846,306.344 L745.1692,306.9921 L752.9538,307.2123 L760.7385,306.025 L768.5231,306.703 L776.3077,306.331 L784.0923,306.3769 L791.8769,306.7132 L799.6615,306.0485 L807.4462,307.3765 L815.2308,306.1136 L823.0154,306.575 L830.8,306.7859 " fill="none" style="stroke:#181818;stroke-width:0.8000000000000002;"/><text fill="#000000" font-family="sans-serif" font-size="10.4" font-weight="bold" lengthAdjust="spacing" textLength="5.6" x="735.2" y="302.5758">7</text><text fill="#000000" font-family="sans-serif" font-size="10.4" lengthAdjust="spacing" textLength="68" x="744" y="302.5758">createCourse()</text><polygon fill="#181818" points="1154,342.4516,1154.0208,342.5036,1155.559,342.989,1157.2191,343.7794,1158.8396,344.4705,1160.3293,344.8349,1162,345.6516,1161.9923,345.6323,1160.3578,346.186,1158.762,346.8366,1157.1932,347.5547,1155.5315,348.0404,1154,348.8516,1154.1044,348.956,1154.5212,348.0927,1155.2427,347.5343,1156.0014,347.013,1156.5438,346.2754,1157.2,345.6516,1157.2129,345.6644,1156.554,345.0055,1155.9537,344.4052,1155.3251,343.7767,1154.7504,343.202,1154,342.4516" style="stroke:#181818;stroke-width:0.8000000000000002;"/><path d="M843.6,345.6516 L843.6,345.8758 L851.6821,345.2096 L859.7641,345.8577 L867.8462,346.0779 L875.9282,344.8906 L884.0103,345.5687 L892.0923,345.1966 L900.1744,345.2425 L908.2564,345.5789 L916.3385,344.9141 L924.4205,346.2421 L932.5026,344.9793 L940.5846,345.4406 L948.6667,346.1123 L956.7487,345.5601 L964.8308,345.7244 L972.9128,345.6175 L980.9949,345.842 L989.0769,345.9066 L997.159,346.2763 L1005.241,346.3674 L1013.3231,346.3761 L1021.4051,345.9232 L1029.4872,346.1461 L1037.5692,346.4006 L1045.6513,344.8823 L1053.7333,346.3753 L1061.8154,345.3353 L1069.8974,346.221 L1077.9795,345.1235 L1086.0615,345.5785 L1094.1436,346.4426 L1102.2256,345.5996 L1110.3077,345.7639 L1118.3897,346.0128 L1126.4718,346.0955 L1134.5538,345.6474 L1142.6359,345.9579 L1150.7179,345.041 L1158.8,345.6516 " fill="none" style="stroke:#181818;stroke-width:0.8000000000000002;"/><text fill="#000000" font-family="sans-serif" font-size="10.4" font-weight="bold" lengthAdjust="spacing" textLength="5.6" x="849.2" y="334.525">8</text><text fill="#000000" font-family="sans-serif" font-size="10.4" lengthAdjust="spacing" textLength="180" x="858" y="327.6086">createCourse(courseCode, courseTitle,</text><text fill="#000000" font-family="sans-serif" font-size="10.4" lengthAdjust="spacing" textLength="296" x="858" y="341.4414">courseDescription, minimumEnrolments, maximumEnrolments )</text><polygon fill="#181818" points="852.4,367.4844,852.4208,367.5364,850.759,368.0218,849.2191,368.8122,847.6396,369.5033,845.9293,369.8677,844.4,370.6844,844.3923,370.6651,845.9578,371.2188,847.562,371.8694,849.1932,372.5875,850.7315,373.0732,852.4,373.8844,852.5044,373.9888,851.6412,373.1255,851.0827,372.5671,850.5614,372.0458,849.8238,371.3082,849.2,370.6844,849.2129,370.6972,849.834,370.0384,850.5137,369.438,851.1651,368.8095,851.8704,368.2348,852.4,367.4844" style="stroke:#181818;stroke-width:0.8000000000000002;"/><path d="M847.6,370.6844 L847.6,370.9086 L855.58,370.2424 L863.56,370.8905 L871.54,371.1107 L879.52,369.9234 L887.5,370.6015 L895.48,370.2294 L903.46,370.2753 L911.44,370.6117 L919.42,369.9469 L927.4,371.2749 L935.38,370.0121 L943.36,370.4734 L951.34,371.1451 L959.32,370.5929 L967.3,370.7572 L975.28,370.6503 L983.26,370.8748 L991.24,370.9395 L999.22,371.3091 L1007.2,371.4002 L1015.18,371.4089 L1023.16,370.956 L1031.14,371.1789 L1039.12,371.4334 L1047.1,369.9151 L1055.08,371.4081 L1063.06,370.3681 L1071.04,371.2538 L1079.02,370.1564 L1087,370.6113 L1094.98,371.4754 L1102.96,370.6324 L1110.94,370.7967 L1118.92,371.0456 L1126.9,371.1284 L1134.88,370.6802 L1142.86,370.9907 L1150.84,370.0738 L1158.82,370.9877 L1166.8,370.6844 " fill="none" style="stroke:#181818;stroke-width:0.8000000000000002;stroke-dasharray:2.0,2.0;"/><text fill="#000000" font-family="sans-serif" font-size="10.4" font-weight="bold" lengthAdjust="spacing" textLength="5.6" x="857.2" y="366.4742">9</text><text fill="#000000" font-family="sans-serif" font-size="10.4" lengthAdjust="spacing" textLength="31.2" x="866" y="366.4742">course</text><polygon fill="#181818" points="738.4,392.5172,738.4208,392.5692,736.759,393.0546,735.2191,393.845,733.6396,394.5361,731.9293,394.9006,730.4,395.7172,730.3923,395.6979,731.9578,396.2516,733.562,396.9022,735.1932,397.6203,736.7315,398.106,738.4,398.9172,738.5044,399.0216,737.6412,398.1583,737.0827,397.5999,736.5614,397.0786,735.8238,396.341,735.2,395.7172,735.2129,395.7301,735.834,395.0712,736.5137,394.4709,737.1651,393.8423,737.8704,393.2676,738.4,392.5172" style="stroke:#181818;stroke-width:0.8000000000000002;"/><path d="M733.6,395.7172 L733.6,395.9414 L741.6923,395.2752 L749.7846,395.9234 L757.8769,396.1435 L765.9692,394.9562 L774.0615,395.6343 L782.1538,395.2623 L790.2462,395.3081 L798.3385,395.6445 L806.4308,394.9797 L814.5231,396.3077 L822.6154,395.0449 L830.7077,395.5062 L838.8,395.7172 " fill="none" style="stroke:#181818;stroke-width:0.8000000000000002;stroke-dasharray:2.0,2.0;"/><text fill="#000000" font-family="sans-serif" font-size="10.4" font-weight="bold" lengthAdjust="spacing" textLength="11.2" x="743.2" y="391.507">10</text><text fill="#000000" font-family="sans-serif" font-size="10.4" lengthAdjust="spacing" textLength="31.2" x="757.6" y="391.507">course</text><polygon fill="#181818" points="1270,417.55,1270.0208,417.602,1271.559,418.0874,1273.2191,418.8779,1274.8396,419.569,1276.3293,419.9334,1278,420.75,1277.9923,420.7308,1276.3578,421.2844,1274.762,421.935,1273.1932,422.6531,1271.5315,423.1388,1270,423.95,1270.1044,424.0544,1270.5212,423.1912,1271.2427,422.6327,1272.0014,422.1114,1272.5438,421.3738,1273.2,420.75,1273.2129,420.7629,1272.554,420.104,1271.9537,419.5037,1271.3251,418.8751,1270.7504,418.3004,1270,417.55" style="stroke:#181818;stroke-width:0.8000000000000002;"/><path d="M729.6,420.75 L729.6,420.9742 L737.6176,420.3081 L745.6353,420.9562 L753.6529,421.1763 L761.6706,419.989 L769.6882,420.6671 L777.7059,420.2951 L785.7235,420.3409 L793.7412,420.6773 L801.7588,420.0125 L809.7765,421.3406 L817.7941,420.0777 L825.8118,420.539 L833.8294,421.2107 L841.8471,420.6585 L849.8647,420.8228 L857.8824,420.7159 L865.9,420.9404 L873.9176,421.0051 L881.9353,421.3747 L889.9529,421.4658 L897.9706,421.4745 L905.9882,421.0216 L914.0059,421.2445 L922.0235,421.499 L930.0412,419.9807 L938.0588,421.4737 L946.0765,420.4337 L954.0941,421.3194 L962.1118,420.222 L970.1294,420.6769 L978.1471,421.541 L986.1647,420.698 L994.1824,420.8623 L1002.2,421.1112 L1010.2176,421.194 L1018.2353,420.7458 L1026.2529,421.0564 L1034.2706,420.1394 L1042.2882,421.0533 L1050.3059,421.3347 L1058.3235,421.2242 L1066.3412,421.4039 L1074.3588,420.2347 L1082.3765,420.0543 L1090.3941,420.0872 L1098.4118,420.6872 L1106.4294,420.5404 L1114.4471,421.4768 L1122.4647,420.5637 L1130.4824,420.3841 L1138.5,420.9935 L1146.5176,420.0387 L1154.5353,420.1963 L1162.5529,421.4422 L1170.5706,421.2147 L1178.5882,421.5335 L1186.6059,420.4068 L1194.6235,421.0905 L1202.6412,421.3798 L1210.6588,420.2461 L1218.6765,420.6477 L1226.6941,420.8844 L1234.7118,421.4452 L1242.7294,420.7455 L1250.7471,421.2434 L1258.7647,420.1593 L1266.7824,420.0276 L1274.8,420.75 " fill="none" style="stroke:#181818;stroke-width:0.8000000000000002;"/><text fill="#000000" font-family="sans-serif" font-size="10.4" font-weight="bold" lengthAdjust="spacing" textLength="11.2" x="735.2" y="416.5398">11</text><text fill="#000000" font-family="sans-serif" font-size="10.4" lengthAdjust="spacing" textLength="60" x="749.6" y="416.5398">repositories()</text><polygon fill="#181818" points="1388.4,442.5828,1388.4208,442.6349,1389.959,443.1202,1391.6191,443.9107,1393.2396,444.6018,1394.7293,444.9662,1396.4,445.7828,1396.3923,445.7636,1394.7578,446.3172,1393.162,446.9679,1391.5932,447.6859,1389.9315,448.1716,1388.4,448.9828,1388.5044,449.0872,1388.9212,448.224,1389.6427,447.6655,1390.4014,447.1443,1390.9438,446.4066,1391.6,445.7828,1391.6129,445.7957,1390.954,445.1368,1390.3537,444.5365,1389.7251,443.9079,1389.1504,443.3333,1388.4,442.5828" style="stroke:#181818;stroke-width:0.8000000000000002;"/><path d="M1287.6,445.7828 L1287.6,446.007 L1295.7231,445.3409 L1303.8462,445.989 L1311.9692,446.2091 L1320.0923,445.0219 L1328.2154,445.6999 L1336.3385,445.3279 L1344.4615,445.3737 L1352.5846,445.7101 L1360.7077,445.0454 L1368.8308,446.3734 L1376.9538,445.1105 L1385.0769,445.5719 L1393.2,445.7828 " fill="none" style="stroke:#181818;stroke-width:0.8000000000000002;"/><text fill="#000000" font-family="sans-serif" font-size="10.4" font-weight="bold" lengthAdjust="spacing" textLength="11.2" x="1293.2" y="441.5727">12</text><text fill="#000000" font-family="sans-serif" font-size="10.4" lengthAdjust="spacing" textLength="28.8" x="1307.6" y="441.5727">create</text><polygon fill="#181818" points="738.4,467.6156,738.4208,467.6677,736.759,468.153,735.2191,468.9435,733.6396,469.6346,731.9293,469.999,730.4,470.8156,730.3923,470.7964,731.9578,471.35,733.562,472.0007,735.1932,472.7187,736.7315,473.2044,738.4,474.0156,738.5044,474.12,737.6412,473.2568,737.0827,472.6983,736.5614,472.1771,735.8238,471.4395,735.2,470.8156,735.2129,470.8285,735.834,470.1696,736.5137,469.5693,737.1651,468.9407,737.8704,468.3661,738.4,467.6156" style="stroke:#181818;stroke-width:0.8000000000000002;"/><path d="M733.6,470.8156 L733.6,471.0398 L741.5594,470.3737 L749.5188,471.0218 L757.4783,471.2419 L765.4377,470.0547 L773.3971,470.7327 L781.3565,470.3607 L789.3159,470.4066 L797.2754,470.7429 L805.2348,470.0782 L813.1942,471.4062 L821.1536,470.1433 L829.113,470.6047 L837.0725,471.2764 L845.0319,470.7241 L852.9913,470.8884 L860.9507,470.7815 L868.9101,471.0061 L876.8696,471.0707 L884.829,471.4404 L892.7884,471.5314 L900.7478,471.5402 L908.7072,471.0872 L916.6667,471.3101 L924.6261,471.5647 L932.5855,470.0464 L940.5449,471.5394 L948.5043,470.4994 L956.4638,471.385 L964.4232,470.2876 L972.3826,470.7426 L980.342,471.6067 L988.3014,470.7636 L996.2609,470.9279 L1004.2203,471.1768 L1012.1797,471.2596 L1020.1391,470.8115 L1028.0986,471.122 L1036.058,470.205 L1044.0174,471.119 L1051.9768,471.4004 L1059.9362,471.2898 L1067.8957,471.4695 L1075.8551,470.3003 L1083.8145,470.12 L1091.7739,470.1528 L1099.7333,470.7528 L1107.6928,470.606 L1115.6522,471.5425 L1123.6116,470.6293 L1131.571,470.4497 L1139.5304,471.0591 L1147.4899,470.1043 L1155.4493,470.2619 L1163.4087,471.5078 L1171.3681,471.2803 L1179.3275,471.5991 L1187.287,470.4724 L1195.2464,471.1561 L1203.2058,471.4454 L1211.1652,470.3117 L1219.1246,470.7134 L1227.0841,470.95 L1235.0435,471.5108 L1243.0029,470.8112 L1250.9623,471.309 L1258.9217,470.2249 L1266.8812,470.0932 L1274.8406,471.3528 L1282.8,470.8156 " fill="none" style="stroke:#181818;stroke-width:0.8000000000000002;stroke-dasharray:2.0,2.0;"/><text fill="#000000" font-family="sans-serif" font-size="10.4" font-weight="bold" lengthAdjust="spacing" textLength="11.2" x="743.2" y="466.6055">13</text><text fill="#000000" font-family="sans-serif" font-size="10.4" lengthAdjust="spacing" textLength="31.2" x="757.6" y="466.6055">factory</text><polygon fill="#181818" points="1384.4,492.6484,1384.4208,492.7005,1385.959,493.1859,1387.6191,493.9763,1389.2396,494.6674,1390.7293,495.0318,1392.4,495.8484,1392.3923,495.8292,1390.7578,496.3828,1389.162,497.0335,1387.5932,497.7516,1385.9315,498.2373,1384.4,499.0484,1384.5044,499.1528,1384.9212,498.2896,1385.6427,497.7311,1386.4014,497.2099,1386.9438,496.4723,1387.6,495.8484,1387.6129,495.8613,1386.954,495.2024,1386.3537,494.6021,1385.7251,493.9735,1385.1504,493.3989,1384.4,492.6484" style="stroke:#181818;stroke-width:0.8000000000000002;"/><path d="M729.6,495.8484 L729.6,496.0726 L737.6439,495.4065 L745.6878,496.0546 L753.7317,496.2748 L761.7756,495.0875 L769.8195,495.7655 L777.8634,495.3935 L785.9073,495.4394 L793.9512,495.7757 L801.9951,495.111 L810.039,496.439 L818.0829,495.1761 L826.1268,495.6375 L834.1707,496.3092 L842.2146,495.7569 L850.2585,495.9212 L858.3024,495.8144 L866.3463,496.0389 L874.3902,496.1035 L882.4341,496.4732 L890.478,496.5642 L898.522,496.573 L906.5659,496.12 L914.6098,496.3429 L922.6537,496.5975 L930.6976,495.0792 L938.7415,496.5722 L946.7854,495.5322 L954.8293,496.4178 L962.8732,495.3204 L970.9171,495.7754 L978.961,496.6395 L987.0049,495.7965 L995.0488,495.9608 L1003.0927,496.2096 L1011.1366,496.2924 L1019.1805,495.8443 L1027.2244,496.1548 L1035.2683,495.2379 L1043.3122,496.1518 L1051.3561,496.4332 L1059.4,496.3226 L1067.4439,496.5023 L1075.4878,495.3332 L1083.5317,495.1528 L1091.5756,495.1856 L1099.6195,495.7856 L1107.6634,495.6388 L1115.7073,496.5753 L1123.7512,495.6621 L1131.7951,495.4825 L1139.839,496.0919 L1147.8829,495.1371 L1155.9268,495.2947 L1163.9707,496.5407 L1172.0146,496.3131 L1180.0585,496.6319 L1188.1024,495.5052 L1196.1463,496.1889 L1204.1902,496.4782 L1212.2341,495.3445 L1220.278,495.7462 L1228.322,495.9828 L1236.3659,496.5436 L1244.4098,495.844 L1252.4537,496.3418 L1260.4976,495.2577 L1268.5415,495.126 L1276.5854,496.3856 L1284.6293,495.0837 L1292.6732,496.3913 L1300.7171,496.0688 L1308.761,495.5627 L1316.8049,495.4711 L1324.8488,496.3378 L1332.8927,495.5291 L1340.9366,496.4798 L1348.9805,495.2588 L1357.0244,496.507 L1365.0683,496.365 L1373.1122,496.1097 L1381.1561,495.8988 L1389.2,495.8484 " fill="none" style="stroke:#181818;stroke-width:0.8000000000000002;"/><text fill="#000000" font-family="sans-serif" font-size="10.4" font-weight="bold" lengthAdjust="spacing" textLength="11.2" x="735.2" y="491.6383">14</text><text fill="#000000" font-family="sans-serif" font-size="10.4" lengthAdjust="spacing" textLength="43.2" x="749.6" y="491.6383">courses()</text><polygon fill="#181818" points="1498,517.6813,1498.0208,517.7333,1499.559,518.2187,1501.2191,519.0091,1502.8396,519.7002,1504.3293,520.0646,1506,520.8813,1505.9923,520.862,1504.3578,521.4157,1502.762,522.0663,1501.1932,522.7844,1499.5315,523.2701,1498,524.0813,1498.1044,524.1856,1498.5212,523.3224,1499.2427,522.764,1500.0014,522.2427,1500.5438,521.5051,1501.2,520.8813,1501.2129,520.8941,1500.554,520.2352,1499.9537,519.6349,1499.3251,519.0063,1498.7504,518.4317,1498,517.6813" style="stroke:#181818;stroke-width:0.8000000000000002;"/><path d="M1402,520.8813 L1402,521.1054 L1409.7538,520.4393 L1417.5077,521.0874 L1425.2615,521.3076 L1433.0154,520.1203 L1440.7692,520.7984 L1448.5231,520.4263 L1456.2769,520.4722 L1464.0308,520.8085 L1471.7846,520.1438 L1479.5385,521.4718 L1487.2923,520.209 L1495.0462,520.6703 L1502.8,520.8813 " fill="none" style="stroke:#181818;stroke-width:0.8000000000000002;"/><text fill="#000000" font-family="sans-serif" font-size="10.4" font-weight="bold" lengthAdjust="spacing" textLength="11.2" x="1407.6" y="516.6711">15</text><text fill="#000000" font-family="sans-serif" font-size="10.4" lengthAdjust="spacing" textLength="28.8" x="1422" y="516.6711">create</text><polygon fill="#181818" points="738.4,542.7141,738.4208,542.7661,736.759,543.2515,735.2191,544.0419,733.6396,544.733,731.9293,545.0974,730.4,545.9141,730.3923,545.8948,731.9578,546.4485,733.562,547.0991,735.1932,547.8172,736.7315,548.3029,738.4,549.1141,738.5044,549.2185,737.6412,548.3552,737.0827,547.7968,736.5614,547.2755,735.8238,546.5379,735.2,545.9141,735.2129,545.9269,735.834,545.268,736.5137,544.6677,737.1651,544.0392,737.8704,543.4645,738.4,542.7141" style="stroke:#181818;stroke-width:0.8000000000000002;"/><path d="M733.6,545.9141 L733.6,546.1383 L741.5952,545.4721 L749.5904,546.1202 L757.5855,546.3404 L765.5807,545.1531 L773.5759,545.8312 L781.5711,545.4591 L789.5663,545.505 L797.5614,545.8414 L805.5566,545.1766 L813.5518,546.5046 L821.547,545.2418 L829.5422,545.7031 L837.5373,546.3748 L845.5325,545.8226 L853.5277,545.9869 L861.5229,545.88 L869.5181,546.1045 L877.5133,546.1691 L885.5084,546.5388 L893.5036,546.6299 L901.4988,546.6386 L909.494,546.1857 L917.4892,546.4086 L925.4843,546.6631 L933.4795,545.1448 L941.4747,546.6378 L949.4699,545.5978 L957.4651,546.4835 L965.4602,545.386 L973.4554,545.841 L981.4506,546.7051 L989.4458,545.8621 L997.441,546.0264 L1005.4361,546.2753 L1013.4313,546.358 L1021.4265,545.9099 L1029.4217,546.2204 L1037.4169,545.3035 L1045.412,546.2174 L1053.4072,546.4988 L1061.4024,546.3882 L1069.3976,546.568 L1077.3928,545.3988 L1085.388,545.2184 L1093.3831,545.2512 L1101.3783,545.8513 L1109.3735,545.7044 L1117.3687,546.6409 L1125.3639,545.7277 L1133.359,545.5481 L1141.3542,546.1575 L1149.3494,545.2028 L1157.3446,545.3603 L1165.3398,546.6063 L1173.3349,546.3788 L1181.3301,546.6975 L1189.3253,545.5708 L1197.3205,546.2545 L1205.3157,546.5438 L1213.3108,545.4102 L1221.306,545.8118 L1229.3012,546.0484 L1237.2964,546.6093 L1245.2916,545.9096 L1253.2867,546.4075 L1261.2819,545.3234 L1269.2771,545.1917 L1277.2723,546.4512 L1285.2675,545.1493 L1293.2627,546.457 L1301.2578,546.1345 L1309.253,545.6283 L1317.2482,545.5367 L1325.2434,546.4034 L1333.2386,545.5948 L1341.2337,546.5454 L1349.2289,545.3245 L1357.2241,546.5726 L1365.2193,546.4307 L1373.2145,546.1754 L1381.2096,545.9644 L1389.2048,546.6891 L1397.2,545.9141 " fill="none" style="stroke:#181818;stroke-width:0.8000000000000002;stroke-dasharray:2.0,2.0;"/><text fill="#000000" font-family="sans-serif" font-size="10.4" font-weight="bold" lengthAdjust="spacing" textLength="11.2" x="743.2" y="541.7039">16</text><text fill="#000000" font-family="sans-serif" font-size="10.4" lengthAdjust="spacing" textLength="80.8" x="757.6" y="541.7039">courseRepository</text><polygon fill="#181818" points="1498,567.7469,1498.0208,567.7989,1499.559,568.2843,1501.2191,569.0747,1502.8396,569.7658,1504.3293,570.1302,1506,570.9469,1505.9923,570.9276,1504.3578,571.4813,1502.762,572.1319,1501.1932,572.85,1499.5315,573.3357,1498,574.1469,1498.1044,574.2513,1498.5212,573.388,1499.2427,572.8296,1500.0014,572.3083,1500.5438,571.5707,1501.2,570.9469,1501.2129,570.9597,1500.554,570.3009,1499.9537,569.7005,1499.3251,569.072,1498.7504,568.4973,1498,567.7469" style="stroke:#181818;stroke-width:0.8000000000000002;"/><path d="M729.6,570.9469 L729.6,571.1711 L737.5711,570.5049 L745.5423,571.153 L753.5134,571.3732 L761.4845,570.1859 L769.4557,570.864 L777.4268,570.4919 L785.3979,570.5378 L793.3691,570.8742 L801.3402,570.2094 L809.3113,571.5374 L817.2825,570.2746 L825.2536,570.7359 L833.2247,571.4076 L841.1959,570.8554 L849.167,571.0197 L857.1381,570.9128 L865.1093,571.1373 L873.0804,571.202 L881.0515,571.5716 L889.0227,571.6627 L896.9938,571.6714 L904.9649,571.2185 L912.9361,571.4414 L920.9072,571.6959 L928.8784,570.1776 L936.8495,571.6706 L944.8206,570.6306 L952.7918,571.5163 L960.7629,570.4189 L968.734,570.8738 L976.7052,571.7379 L984.6763,570.8949 L992.6474,571.0592 L1000.6186,571.3081 L1008.5897,571.3909 L1016.5608,570.9427 L1024.532,571.2532 L1032.5031,570.3363 L1040.4742,571.2502 L1048.4454,571.5316 L1056.4165,571.421 L1064.3876,571.6008 L1072.3588,570.4316 L1080.3299,570.2512 L1088.301,570.284 L1096.2722,570.8841 L1104.2433,570.7372 L1112.2144,571.6737 L1120.1856,570.7606 L1128.1567,570.581 L1136.1278,571.1904 L1144.099,570.2356 L1152.0701,570.3931 L1160.0412,571.6391 L1168.0124,571.4116 L1175.9835,571.7303 L1183.9546,570.6036 L1191.9258,571.2874 L1199.8969,571.5767 L1207.868,570.443 L1215.8392,570.8446 L1223.8103,571.0813 L1231.7814,571.6421 L1239.7526,570.9424 L1247.7237,571.4403 L1255.6948,570.3562 L1263.666,570.2245 L1271.6371,571.4841 L1279.6082,570.1821 L1287.5794,571.4898 L1295.5505,571.1673 L1303.5216,570.6611 L1311.4928,570.5695 L1319.4639,571.4362 L1327.4351,570.6276 L1335.4062,571.5782 L1343.3773,570.3573 L1351.3485,571.6055 L1359.3196,571.4635 L1367.2907,571.2082 L1375.2619,570.9972 L1383.233,571.7219 L1391.2041,571.6014 L1399.1753,571.1274 L1407.1464,571.2329 L1415.1175,570.8079 L1423.0887,571.7111 L1431.0598,571.1121 L1439.0309,571.131 L1447.0021,570.298 L1454.9732,570.5146 L1462.9443,571.513 L1470.9155,571.4053 L1478.8866,570.9011 L1486.8577,570.6032 L1494.8289,570.7134 L1502.8,570.9469 " fill="none" style="stroke:#181818;stroke-width:0.8000000000000002;"/><text fill="#000000" font-family="sans-serif" font-size="10.4" font-weight="bold" lengthAdjust="spacing" textLength="11.2" x="735.2" y="566.7367">17</text><text fill="#000000" font-family="sans-serif" font-size="10.4" lengthAdjust="spacing" textLength="58.4" x="749.6" y="566.7367">save(course)</text><polygon fill="#181818" points="410.4,592.7797,410.4208,592.8317,408.759,593.3171,407.2191,594.1075,405.6396,594.7986,403.9293,595.1631,402.4,595.9797,402.3923,595.9604,403.9578,596.5141,405.562,597.1647,407.1932,597.8828,408.7315,598.3685,410.4,599.1797,410.5044,599.2841,409.6412,598.4208,409.0827,597.8624,408.5614,597.3411,407.8238,596.6035,407.2,595.9797,407.2129,595.9926,407.834,595.3337,408.5137,594.7334,409.1651,594.1048,409.8704,593.5301,410.4,592.7797" style="stroke:#181818;stroke-width:0.8000000000000002;"/><path d="M405.6,595.9797 L405.6,596.2039 L413.58,595.5377 L421.56,596.1859 L429.54,596.406 L437.52,595.2187 L445.5,595.8968 L453.48,595.5248 L461.46,595.5706 L469.44,595.907 L477.42,595.2422 L485.4,596.5702 L493.38,595.3074 L501.36,595.7687 L509.34,596.4404 L517.32,595.8882 L525.3,596.0525 L533.28,595.9456 L541.26,596.1701 L549.24,596.2348 L557.22,596.6044 L565.2,596.6955 L573.18,596.7042 L581.16,596.2513 L589.14,596.4742 L597.12,596.7287 L605.1,595.2104 L613.08,596.7034 L621.06,595.6634 L629.04,596.5491 L637.02,595.4517 L645,595.9066 L652.98,596.7707 L660.96,595.9277 L668.94,596.092 L676.92,596.3409 L684.9,596.4237 L692.88,595.9755 L700.86,596.286 L708.84,595.3691 L716.82,596.283 L724.8,595.9797 " fill="none" style="stroke:#181818;stroke-width:0.8000000000000002;stroke-dasharray:2.0,2.0;"/><text fill="#000000" font-family="sans-serif" font-size="10.4" font-weight="bold" lengthAdjust="spacing" textLength="11.2" x="415.2" y="591.7695">18</text><text fill="#000000" font-family="sans-serif" font-size="10.4" lengthAdjust="spacing" textLength="31.2" x="429.6" y="591.7695">course</text><polygon fill="#181818" points="36,617.8125,36.0208,617.8645,34.359,618.3499,32.8191,619.1404,31.2396,619.8315,29.5293,620.1959,28,621.0125,27.9923,620.9933,29.5578,621.5469,31.162,622.1975,32.7932,622.9156,34.3315,623.4013,36,624.2125,36.1044,624.3169,35.2412,623.4537,34.6827,622.8952,34.1614,622.3739,33.4238,621.6363,32.8,621.0125,32.8129,621.0254,33.434,620.3665,34.1137,619.7662,34.7651,619.1376,35.4704,618.5629,36,617.8125" style="stroke:#181818;stroke-width:0.8000000000000002;"/><path d="M31.2,621.0125 L31.2,621.2367 L39.1478,620.5706 L47.0957,621.2187 L55.0435,621.4388 L62.9913,620.2515 L70.9391,620.9296 L78.887,620.5576 L86.8348,620.6034 L94.7826,620.9398 L102.7304,620.275 L110.6783,621.6031 L118.6261,620.3402 L126.5739,620.8015 L134.5217,621.4732 L142.4696,620.921 L150.4174,621.0853 L158.3652,620.9784 L166.313,621.2029 L174.2609,621.2676 L182.2087,621.6372 L190.1565,621.7283 L198.1043,621.737 L206.0522,621.2841 L214,621.507 L221.9478,621.7615 L229.8957,620.2432 L237.8435,621.7362 L245.7913,620.6962 L253.7391,621.5819 L261.687,620.4845 L269.6348,620.9394 L277.5826,621.8035 L285.5304,620.9605 L293.4783,621.1248 L301.4261,621.3737 L309.3739,621.4565 L317.3217,621.0083 L325.2696,621.3189 L333.2174,620.4019 L341.1652,621.3158 L349.113,621.5972 L357.0609,621.4867 L365.0087,621.6664 L372.9565,620.4972 L380.9043,620.3168 L388.8522,620.3497 L396.8,621.0125 " fill="none" style="stroke:#181818;stroke-width:0.8000000000000002;stroke-dasharray:2.0,2.0;"/><text fill="#000000" font-family="sans-serif" font-size="10.4" font-weight="bold" lengthAdjust="spacing" textLength="11.2" x="40.8" y="616.8023">19</text><text fill="#000000" font-family="sans-serif" font-size="10.4" lengthAdjust="spacing" textLength="144.8" x="55.2" y="616.8023">Informa o sucesso da opera&#231;&#227;o</text><!--SRC=[lLMzRjim4Dxr58TCCH03AT39C3GqJWflHLrlNIxKnIOYaIf9vUTnYWwTEXLz0hzOZnGbKOgCRkNYu-dklkz-UBQFKjLei89AAosEHbS4pZIKsVvBZU8H3xHphoM18U5G7ShKu8YgU3RIEL9JNtl4GZzBTO07B2rbcPEEe-peMqDA46ma7hpTvMwpW2NiT_3k-lfzXetJggdkoMGP2gSDN7maGyhH1Q25A6UCuQIGDIe75-jrRSYo7ftKAi_Xgu8RG-ZeHZV6qduRVFVRJ6ZbZ2wz2zPrASKPZvlMhYGJF8Vh2BYr_T38iY3ZxJfnlRvlfJoVCYrqXJ8YkcE4MxK_0MiJ34PkdyXOQPqlcsT2ByuR9be6h8VR1FGprTfAhkJhNIZegtVknFNwePNOgK27zsZ9qpIzKonE83Y42bJ5S0_DaazSmBv5m2VAiCov-h1YpWM1dmyGHgA1fa8ef6McfLGONFeutAwWO4Ts7rh0OKHerV2PltT8AwWz1e9K3zfKUFfv-g6Xq20u0PtDiYh8CfrecHAw0hAEntYYzQsJhYdVM8lJxq8UtgYbYl7_a8Ngz4l9Ygj7B7v_yU8_ycnhVodYP1R4G47-ub_K5RUdlMv26hMVw2ke9ACqrQtYO1LdQrc5BsCLB8Qk9ICEyIHKc5YSxN7npvkDg2zwunulslKV_EcU3uTfNy7_g41Ae6SN7o5CJglcSHkA4N17XWLDmdZbV9wZVgyciP8uNR7Er3pP12leNwuaErVun7X4Abqd73CkYBxTPqt7EK1S9tDPfCXdCXbGGorc4xYR8FZJhJCEaIobMVAzwOIuc6oukGmww1dsopm5jlZKZUjYpdYPxxUZuKb0afSul-2sxMO33ROHP6tODvh_0Dfbbqq3-aMQNBlz_1S0]--></g></svg>