<?xml version="1.0" encoding="us-ascii" standalone="no"?><svg xmlns="http://www.w3.org/2000/svg" xmlns:xlink="http://www.w3.org/1999/xlink" contentStyleType="text/css" height="562.5px" preserveAspectRatio="none" style="width:1620px;height:562px;background:#FFFFFF;" version="1.1" viewBox="0 0 1620 562" width="1620.9px" zoomAndPan="magnify"><defs/><g><text fill="#000000" font-family="sans-serif" font-size="12.6" font-weight="bold" lengthAdjust="spacing" textLength="180.9" x="713.925" y="22.5967">Class Diagram (CD) - US 2003</text><!--class ListCourseExamsUI--><g id="elem_ListCourseExamsUI"><rect codeLine="5" fill="#F1F1F1" height="71.2828" id="ListCourseExamsUI" rx="2.25" ry="2.25" style="stroke:#181818;stroke-width:0.45;" width="137.7" x="463.95" y="41.959"/><ellipse cx="477.45" cy="62.0209" fill="#ADD1B2" rx="9.9" ry="9.9" style="stroke:#181818;stroke-width:0.9;"/><path d="M479.9391,58.3084 Q480.0797,58.1115 480.2484,58.0131 Q480.4172,57.9146 480.6141,57.9146 Q480.9516,57.9146 481.1625,58.1537 Q481.3734,58.3787 481.3734,58.9271 L481.3734,60.235 Q481.3734,60.7834 481.1625,61.0225 Q480.9516,61.2615 480.6141,61.2615 Q480.3047,61.2615 480.1219,61.0787 Q479.9391,60.91 479.8406,60.4459 Q479.7984,60.1225 479.6297,59.9537 Q479.3344,59.6162 478.7859,59.4193 Q478.2375,59.2225 477.675,59.2225 Q476.9859,59.2225 476.4094,59.5178 Q475.8469,59.8131 475.3969,60.4881 Q474.9609,61.1631 474.9609,62.0912 L474.9609,63.0756 Q474.9609,64.1865 475.7625,64.9318 Q476.5641,65.6631 477.9984,65.6631 Q478.8422,65.6631 479.4328,65.4381 Q479.7844,65.2975 480.1641,64.9037 Q480.4031,64.6646 480.5297,64.5943 Q480.6703,64.524 480.8531,64.524 Q481.1484,64.524 481.3734,64.7631 Q481.6125,64.9881 481.6125,65.2975 Q481.6125,65.6068 481.3031,65.9725 Q480.8531,66.4928 480.1359,66.7881 Q479.1656,67.1959 477.9984,67.1959 Q476.6344,67.1959 475.5516,66.6334 Q474.6656,66.1834 474.0469,65.2271 Q473.4281,64.2568 473.4281,63.1037 L473.4281,62.0631 Q473.4281,60.8678 473.9766,59.8412 Q474.5391,58.8006 475.5234,58.2521 Q476.5078,57.6896 477.6188,57.6896 Q478.2797,57.6896 478.8563,57.8443 Q479.4469,57.985 479.9391,58.3084 Z " fill="#000000"/><text fill="#000000" font-family="sans-serif" font-size="10.8" font-style="italic" lengthAdjust="spacing" textLength="73.8" x="507.6" y="58.1133">&#171;presentation&#187;</text><text fill="#000000" font-family="sans-serif" font-size="12.6" lengthAdjust="spacing" textLength="108.9" x="490.05" y="74.4205">ListCourseExamsUI</text><line style="stroke:#181818;stroke-width:0.45;" x1="464.85" x2="600.75" y1="82.0828" y2="82.0828"/><line style="stroke:#181818;stroke-width:0.45;" x1="464.85" x2="600.75" y1="89.2828" y2="89.2828"/><text fill="#000000" font-family="sans-serif" font-size="12.6" lengthAdjust="spacing" textLength="54" x="469.35" y="106.4795">doShow()</text></g><!--class JpaCourseRepository--><g id="elem_JpaCourseRepository"><rect codeLine="9" fill="#F1F1F1" height="54.5238" id="JpaCourseRepository" rx="2.25" ry="2.25" style="stroke:#181818;stroke-width:0.45;" width="151.2" x="138.6" y="493.759"/><ellipse cx="152.1" cy="513.8209" fill="#ADD1B2" rx="9.9" ry="9.9" style="stroke:#181818;stroke-width:0.9;"/><path d="M154.5891,510.1084 Q154.7297,509.9115 154.8984,509.8131 Q155.0672,509.7146 155.2641,509.7146 Q155.6016,509.7146 155.8125,509.9537 Q156.0234,510.1787 156.0234,510.7271 L156.0234,512.035 Q156.0234,512.5834 155.8125,512.8225 Q155.6016,513.0615 155.2641,513.0615 Q154.9547,513.0615 154.7719,512.8787 Q154.5891,512.71 154.4906,512.2459 Q154.4484,511.9225 154.2797,511.7537 Q153.9844,511.4162 153.4359,511.2193 Q152.8875,511.0225 152.325,511.0225 Q151.6359,511.0225 151.0594,511.3178 Q150.4969,511.6131 150.0469,512.2881 Q149.6109,512.9631 149.6109,513.8912 L149.6109,514.8756 Q149.6109,515.9865 150.4125,516.7318 Q151.2141,517.4631 152.6484,517.4631 Q153.4922,517.4631 154.0828,517.2381 Q154.4344,517.0975 154.8141,516.7037 Q155.0531,516.4646 155.1797,516.3943 Q155.3203,516.324 155.5031,516.324 Q155.7984,516.324 156.0234,516.5631 Q156.2625,516.7881 156.2625,517.0975 Q156.2625,517.4068 155.9531,517.7725 Q155.5031,518.2928 154.7859,518.5881 Q153.8156,518.9959 152.6484,518.9959 Q151.2844,518.9959 150.2016,518.4334 Q149.3156,517.9834 148.6969,517.0271 Q148.0781,516.0568 148.0781,514.9037 L148.0781,513.8631 Q148.0781,512.6678 148.6266,511.6412 Q149.1891,510.6006 150.1734,510.0521 Q151.1578,509.4896 152.2688,509.4896 Q152.9297,509.4896 153.5063,509.6443 Q154.0969,509.785 154.5891,510.1084 Z " fill="#000000"/><text fill="#000000" font-family="sans-serif" font-size="10.8" font-style="italic" lengthAdjust="spacing" textLength="69.3" x="191.25" y="509.9133">&#171;persistence&#187;</text><text fill="#000000" font-family="sans-serif" font-size="12.6" lengthAdjust="spacing" textLength="122.4" x="164.7" y="526.2205">JpaCourseRepository</text><line style="stroke:#181818;stroke-width:0.45;" x1="139.5" x2="288.9" y1="533.8828" y2="533.8828"/><line style="stroke:#181818;stroke-width:0.45;" x1="139.5" x2="288.9" y1="541.0828" y2="541.0828"/></g><!--class InMemoryCourseRepository--><g id="elem_InMemoryCourseRepository"><rect codeLine="10" fill="#F1F1F1" height="54.5238" id="InMemoryCourseRepository" rx="2.25" ry="2.25" style="stroke:#181818;stroke-width:0.45;" width="186.3" x="321.75" y="493.759"/><ellipse cx="335.25" cy="513.8209" fill="#ADD1B2" rx="9.9" ry="9.9" style="stroke:#181818;stroke-width:0.9;"/><path d="M337.7391,510.1084 Q337.8797,509.9115 338.0484,509.8131 Q338.2172,509.7146 338.4141,509.7146 Q338.7516,509.7146 338.9625,509.9537 Q339.1734,510.1787 339.1734,510.7271 L339.1734,512.035 Q339.1734,512.5834 338.9625,512.8225 Q338.7516,513.0615 338.4141,513.0615 Q338.1047,513.0615 337.9219,512.8787 Q337.7391,512.71 337.6406,512.2459 Q337.5984,511.9225 337.4297,511.7537 Q337.1344,511.4162 336.5859,511.2193 Q336.0375,511.0225 335.475,511.0225 Q334.7859,511.0225 334.2094,511.3178 Q333.6469,511.6131 333.1969,512.2881 Q332.7609,512.9631 332.7609,513.8912 L332.7609,514.8756 Q332.7609,515.9865 333.5625,516.7318 Q334.3641,517.4631 335.7984,517.4631 Q336.6422,517.4631 337.2328,517.2381 Q337.5844,517.0975 337.9641,516.7037 Q338.2031,516.4646 338.3297,516.3943 Q338.4703,516.324 338.6531,516.324 Q338.9484,516.324 339.1734,516.5631 Q339.4125,516.7881 339.4125,517.0975 Q339.4125,517.4068 339.1031,517.7725 Q338.6531,518.2928 337.9359,518.5881 Q336.9656,518.9959 335.7984,518.9959 Q334.4344,518.9959 333.3516,518.4334 Q332.4656,517.9834 331.8469,517.0271 Q331.2281,516.0568 331.2281,514.9037 L331.2281,513.8631 Q331.2281,512.6678 331.7766,511.6412 Q332.3391,510.6006 333.3234,510.0521 Q334.3078,509.4896 335.4188,509.4896 Q336.0797,509.4896 336.6563,509.6443 Q337.2469,509.785 337.7391,510.1084 Z " fill="#000000"/><text fill="#000000" font-family="sans-serif" font-size="10.8" font-style="italic" lengthAdjust="spacing" textLength="69.3" x="391.95" y="509.9133">&#171;persistence&#187;</text><text fill="#000000" font-family="sans-serif" font-size="12.6" lengthAdjust="spacing" textLength="157.5" x="347.85" y="526.2205">InMemoryCourseRepository</text><line style="stroke:#181818;stroke-width:0.45;" x1="322.65" x2="507.15" y1="533.8828" y2="533.8828"/><line style="stroke:#181818;stroke-width:0.45;" x1="322.65" x2="507.15" y1="541.0828" y2="541.0828"/></g><!--class JpaExamRepository--><g id="elem_JpaExamRepository"><rect codeLine="11" fill="#F1F1F1" height="54.5238" id="JpaExamRepository" rx="2.25" ry="2.25" style="stroke:#181818;stroke-width:0.45;" width="140.4" x="1137.6" y="493.759"/><ellipse cx="1151.1" cy="513.8209" fill="#ADD1B2" rx="9.9" ry="9.9" style="stroke:#181818;stroke-width:0.9;"/><path d="M1153.5891,510.1084 Q1153.7297,509.9115 1153.8984,509.8131 Q1154.0672,509.7146 1154.2641,509.7146 Q1154.6016,509.7146 1154.8125,509.9537 Q1155.0234,510.1787 1155.0234,510.7271 L1155.0234,512.035 Q1155.0234,512.5834 1154.8125,512.8225 Q1154.6016,513.0615 1154.2641,513.0615 Q1153.9547,513.0615 1153.7719,512.8787 Q1153.5891,512.71 1153.4906,512.2459 Q1153.4484,511.9225 1153.2797,511.7537 Q1152.9844,511.4162 1152.4359,511.2193 Q1151.8875,511.0225 1151.325,511.0225 Q1150.6359,511.0225 1150.0594,511.3178 Q1149.4969,511.6131 1149.0469,512.2881 Q1148.6109,512.9631 1148.6109,513.8912 L1148.6109,514.8756 Q1148.6109,515.9865 1149.4125,516.7318 Q1150.2141,517.4631 1151.6484,517.4631 Q1152.4922,517.4631 1153.0828,517.2381 Q1153.4344,517.0975 1153.8141,516.7037 Q1154.0531,516.4646 1154.1797,516.3943 Q1154.3203,516.324 1154.5031,516.324 Q1154.7984,516.324 1155.0234,516.5631 Q1155.2625,516.7881 1155.2625,517.0975 Q1155.2625,517.4068 1154.9531,517.7725 Q1154.5031,518.2928 1153.7859,518.5881 Q1152.8156,518.9959 1151.6484,518.9959 Q1150.2844,518.9959 1149.2016,518.4334 Q1148.3156,517.9834 1147.6969,517.0271 Q1147.0781,516.0568 1147.0781,514.9037 L1147.0781,513.8631 Q1147.0781,512.6678 1147.6266,511.6412 Q1148.1891,510.6006 1149.1734,510.0521 Q1150.1578,509.4896 1151.2688,509.4896 Q1151.9297,509.4896 1152.5063,509.6443 Q1153.0969,509.785 1153.5891,510.1084 Z " fill="#000000"/><text fill="#000000" font-family="sans-serif" font-size="10.8" font-style="italic" lengthAdjust="spacing" textLength="69.3" x="1184.85" y="509.9133">&#171;persistence&#187;</text><text fill="#000000" font-family="sans-serif" font-size="12.6" lengthAdjust="spacing" textLength="111.6" x="1163.7" y="526.2205">JpaExamRepository</text><line style="stroke:#181818;stroke-width:0.45;" x1="1138.5" x2="1277.1" y1="533.8828" y2="533.8828"/><line style="stroke:#181818;stroke-width:0.45;" x1="1138.5" x2="1277.1" y1="541.0828" y2="541.0828"/></g><!--class InMemoryExamRepository--><g id="elem_InMemoryExamRepository"><rect codeLine="12" fill="#F1F1F1" height="54.5238" id="InMemoryExamRepository" rx="2.25" ry="2.25" style="stroke:#181818;stroke-width:0.45;" width="175.5" x="930.15" y="493.759"/><ellipse cx="943.65" cy="513.8209" fill="#ADD1B2" rx="9.9" ry="9.9" style="stroke:#181818;stroke-width:0.9;"/><path d="M946.1391,510.1084 Q946.2797,509.9115 946.4484,509.8131 Q946.6172,509.7146 946.8141,509.7146 Q947.1516,509.7146 947.3625,509.9537 Q947.5734,510.1787 947.5734,510.7271 L947.5734,512.035 Q947.5734,512.5834 947.3625,512.8225 Q947.1516,513.0615 946.8141,513.0615 Q946.5047,513.0615 946.3219,512.8787 Q946.1391,512.71 946.0406,512.2459 Q945.9984,511.9225 945.8297,511.7537 Q945.5344,511.4162 944.9859,511.2193 Q944.4375,511.0225 943.875,511.0225 Q943.1859,511.0225 942.6094,511.3178 Q942.0469,511.6131 941.5969,512.2881 Q941.1609,512.9631 941.1609,513.8912 L941.1609,514.8756 Q941.1609,515.9865 941.9625,516.7318 Q942.7641,517.4631 944.1984,517.4631 Q945.0422,517.4631 945.6328,517.2381 Q945.9844,517.0975 946.3641,516.7037 Q946.6031,516.4646 946.7297,516.3943 Q946.8703,516.324 947.0531,516.324 Q947.3484,516.324 947.5734,516.5631 Q947.8125,516.7881 947.8125,517.0975 Q947.8125,517.4068 947.5031,517.7725 Q947.0531,518.2928 946.3359,518.5881 Q945.3656,518.9959 944.1984,518.9959 Q942.8344,518.9959 941.7516,518.4334 Q940.8656,517.9834 940.2469,517.0271 Q939.6281,516.0568 939.6281,514.9037 L939.6281,513.8631 Q939.6281,512.6678 940.1766,511.6412 Q940.7391,510.6006 941.7234,510.0521 Q942.7078,509.4896 943.8188,509.4896 Q944.4797,509.4896 945.0563,509.6443 Q945.6469,509.785 946.1391,510.1084 Z " fill="#000000"/><text fill="#000000" font-family="sans-serif" font-size="10.8" font-style="italic" lengthAdjust="spacing" textLength="69.3" x="994.95" y="509.9133">&#171;persistence&#187;</text><text fill="#000000" font-family="sans-serif" font-size="12.6" lengthAdjust="spacing" textLength="146.7" x="956.25" y="526.2205">InMemoryExamRepository</text><line style="stroke:#181818;stroke-width:0.45;" x1="931.05" x2="1104.75" y1="533.8828" y2="533.8828"/><line style="stroke:#181818;stroke-width:0.45;" x1="931.05" x2="1104.75" y1="541.0828" y2="541.0828"/></g><!--class Course--><g id="elem_Course"><rect codeLine="14" fill="#F1F1F1" height="54.5238" id="Course" rx="2.25" ry="2.25" style="stroke:#181818;stroke-width:0.45;" width="75.6" x="338.4" y="351.559"/><ellipse cx="351.9" cy="371.6209" fill="#ADD1B2" rx="9.9" ry="9.9" style="stroke:#181818;stroke-width:0.9;"/><path d="M354.3891,367.9084 Q354.5297,367.7115 354.6984,367.6131 Q354.8672,367.5146 355.0641,367.5146 Q355.4016,367.5146 355.6125,367.7537 Q355.8234,367.9787 355.8234,368.5271 L355.8234,369.835 Q355.8234,370.3834 355.6125,370.6225 Q355.4016,370.8615 355.0641,370.8615 Q354.7547,370.8615 354.5719,370.6787 Q354.3891,370.51 354.2906,370.0459 Q354.2484,369.7225 354.0797,369.5537 Q353.7844,369.2162 353.2359,369.0193 Q352.6875,368.8225 352.125,368.8225 Q351.4359,368.8225 350.8594,369.1178 Q350.2969,369.4131 349.8469,370.0881 Q349.4109,370.7631 349.4109,371.6912 L349.4109,372.6756 Q349.4109,373.7865 350.2125,374.5318 Q351.0141,375.2631 352.4484,375.2631 Q353.2922,375.2631 353.8828,375.0381 Q354.2344,374.8975 354.6141,374.5037 Q354.8531,374.2646 354.9797,374.1943 Q355.1203,374.124 355.3031,374.124 Q355.5984,374.124 355.8234,374.3631 Q356.0625,374.5881 356.0625,374.8975 Q356.0625,375.2068 355.7531,375.5725 Q355.3031,376.0928 354.5859,376.3881 Q353.6156,376.7959 352.4484,376.7959 Q351.0844,376.7959 350.0016,376.2334 Q349.1156,375.7834 348.4969,374.8271 Q347.8781,373.8568 347.8781,372.7037 L347.8781,371.6631 Q347.8781,370.4678 348.4266,369.4412 Q348.9891,368.4006 349.9734,367.8521 Q350.9578,367.2896 352.0688,367.2896 Q352.7297,367.2896 353.3063,367.4443 Q353.8969,367.585 354.3891,367.9084 Z " fill="#000000"/><text fill="#000000" font-family="sans-serif" font-size="10.8" font-style="italic" lengthAdjust="spacing" textLength="50.4" x="362.7" y="367.7133">&#171;domain&#187;</text><text fill="#000000" font-family="sans-serif" font-size="12.6" lengthAdjust="spacing" textLength="41.4" x="367.2" y="384.0205">Course</text><line style="stroke:#181818;stroke-width:0.45;" x1="339.3" x2="413.1" y1="391.6828" y2="391.6828"/><line style="stroke:#181818;stroke-width:0.45;" x1="339.3" x2="413.1" y1="398.8828" y2="398.8828"/></g><!--class CourseCode--><g id="elem_CourseCode"><rect codeLine="15" fill="#F1F1F1" height="54.5238" id="CourseCode" rx="2.25" ry="2.25" style="stroke:#181818;stroke-width:0.45;" width="100.8" x="6.3" y="493.759"/><ellipse cx="19.8" cy="513.8209" fill="#FF8B40" rx="9.9" ry="9.9" style="stroke:#181818;stroke-width:0.9;"/><path d="M20.3344,516.76 L22.5563,511.4725 L22.2047,511.4725 Q21.6563,511.4725 21.4172,511.2615 Q21.1781,511.0506 21.1781,510.699 Q21.1781,510.3615 21.4172,510.1506 Q21.6563,509.9396 22.2047,509.9396 L24.2578,509.9396 Q24.8063,509.9396 25.0453,510.1506 Q25.2844,510.3615 25.2844,510.699 Q25.2844,511.1209 24.9188,511.36 Q24.75,511.4725 24.2156,511.4725 L21.0797,518.9959 L19.6031,518.9959 L16.4672,511.4725 Q15.9328,511.4725 15.7641,511.36 Q15.3984,511.1209 15.3984,510.699 Q15.3984,510.3615 15.6375,510.1506 Q15.8766,509.9396 16.425,509.9396 L18.4922,509.9396 Q19.0406,509.9396 19.2656,510.1506 Q19.5047,510.3615 19.5047,510.699 Q19.5047,511.0506 19.2656,511.2615 Q19.0406,511.4725 18.4922,511.4725 L18.1266,511.4725 L20.3344,516.76 Z " fill="#000000"/><text fill="#000000" font-family="sans-serif" font-size="10.8" font-style="italic" lengthAdjust="spacing" textLength="72.9" x="31.95" y="509.9133">&#171;value object&#187;</text><text fill="#000000" font-family="sans-serif" font-size="12.6" lengthAdjust="spacing" textLength="72" x="32.4" y="526.2205">CourseCode</text><line style="stroke:#181818;stroke-width:0.45;" x1="7.2" x2="106.2" y1="533.8828" y2="533.8828"/><line style="stroke:#181818;stroke-width:0.45;" x1="7.2" x2="106.2" y1="541.0828" y2="541.0828"/></g><!--class Teacher--><g id="elem_Teacher"><rect codeLine="16" fill="#F1F1F1" height="54.5238" id="Teacher" rx="2.25" ry="2.25" style="stroke:#181818;stroke-width:0.45;" width="76.5" x="465.75" y="351.559"/><ellipse cx="479.25" cy="371.6209" fill="#ADD1B2" rx="9.9" ry="9.9" style="stroke:#181818;stroke-width:0.9;"/><path d="M481.7391,367.9084 Q481.8797,367.7115 482.0484,367.6131 Q482.2172,367.5146 482.4141,367.5146 Q482.7516,367.5146 482.9625,367.7537 Q483.1734,367.9787 483.1734,368.5271 L483.1734,369.835 Q483.1734,370.3834 482.9625,370.6225 Q482.7516,370.8615 482.4141,370.8615 Q482.1047,370.8615 481.9219,370.6787 Q481.7391,370.51 481.6406,370.0459 Q481.5984,369.7225 481.4297,369.5537 Q481.1344,369.2162 480.5859,369.0193 Q480.0375,368.8225 479.475,368.8225 Q478.7859,368.8225 478.2094,369.1178 Q477.6469,369.4131 477.1969,370.0881 Q476.7609,370.7631 476.7609,371.6912 L476.7609,372.6756 Q476.7609,373.7865 477.5625,374.5318 Q478.3641,375.2631 479.7984,375.2631 Q480.6422,375.2631 481.2328,375.0381 Q481.5844,374.8975 481.9641,374.5037 Q482.2031,374.2646 482.3297,374.1943 Q482.4703,374.124 482.6531,374.124 Q482.9484,374.124 483.1734,374.3631 Q483.4125,374.5881 483.4125,374.8975 Q483.4125,375.2068 483.1031,375.5725 Q482.6531,376.0928 481.9359,376.3881 Q480.9656,376.7959 479.7984,376.7959 Q478.4344,376.7959 477.3516,376.2334 Q476.4656,375.7834 475.8469,374.8271 Q475.2281,373.8568 475.2281,372.7037 L475.2281,371.6631 Q475.2281,370.4678 475.7766,369.4412 Q476.3391,368.4006 477.3234,367.8521 Q478.3078,367.2896 479.4188,367.2896 Q480.0797,367.2896 480.6563,367.4443 Q481.2469,367.585 481.7391,367.9084 Z " fill="#000000"/><text fill="#000000" font-family="sans-serif" font-size="10.8" font-style="italic" lengthAdjust="spacing" textLength="50.4" x="490.5" y="367.7133">&#171;domain&#187;</text><text fill="#000000" font-family="sans-serif" font-size="12.6" lengthAdjust="spacing" textLength="47.7" x="491.85" y="384.0205">Teacher</text><line style="stroke:#181818;stroke-width:0.45;" x1="466.65" x2="541.35" y1="391.6828" y2="391.6828"/><line style="stroke:#181818;stroke-width:0.45;" x1="466.65" x2="541.35" y1="398.8828" y2="398.8828"/></g><!--class Exam--><g id="elem_Exam"><rect codeLine="17" fill="#F1F1F1" height="54.5238" id="Exam" rx="2.25" ry="2.25" style="stroke:#181818;stroke-width:0.45;" width="75.6" x="1523.7" y="351.559"/><ellipse cx="1537.2" cy="371.6209" fill="#ADD1B2" rx="9.9" ry="9.9" style="stroke:#181818;stroke-width:0.9;"/><path d="M1539.6891,367.9084 Q1539.8297,367.7115 1539.9984,367.6131 Q1540.1672,367.5146 1540.3641,367.5146 Q1540.7016,367.5146 1540.9125,367.7537 Q1541.1234,367.9787 1541.1234,368.5271 L1541.1234,369.835 Q1541.1234,370.3834 1540.9125,370.6225 Q1540.7016,370.8615 1540.3641,370.8615 Q1540.0547,370.8615 1539.8719,370.6787 Q1539.6891,370.51 1539.5906,370.0459 Q1539.5484,369.7225 1539.3797,369.5537 Q1539.0844,369.2162 1538.5359,369.0193 Q1537.9875,368.8225 1537.425,368.8225 Q1536.7359,368.8225 1536.1594,369.1178 Q1535.5969,369.4131 1535.1469,370.0881 Q1534.7109,370.7631 1534.7109,371.6912 L1534.7109,372.6756 Q1534.7109,373.7865 1535.5125,374.5318 Q1536.3141,375.2631 1537.7484,375.2631 Q1538.5922,375.2631 1539.1828,375.0381 Q1539.5344,374.8975 1539.9141,374.5037 Q1540.1531,374.2646 1540.2797,374.1943 Q1540.4203,374.124 1540.6031,374.124 Q1540.8984,374.124 1541.1234,374.3631 Q1541.3625,374.5881 1541.3625,374.8975 Q1541.3625,375.2068 1541.0531,375.5725 Q1540.6031,376.0928 1539.8859,376.3881 Q1538.9156,376.7959 1537.7484,376.7959 Q1536.3844,376.7959 1535.3016,376.2334 Q1534.4156,375.7834 1533.7969,374.8271 Q1533.1781,373.8568 1533.1781,372.7037 L1533.1781,371.6631 Q1533.1781,370.4678 1533.7266,369.4412 Q1534.2891,368.4006 1535.2734,367.8521 Q1536.2578,367.2896 1537.3688,367.2896 Q1538.0297,367.2896 1538.6063,367.4443 Q1539.1969,367.585 1539.6891,367.9084 Z " fill="#000000"/><text fill="#000000" font-family="sans-serif" font-size="10.8" font-style="italic" lengthAdjust="spacing" textLength="50.4" x="1548" y="367.7133">&#171;domain&#187;</text><text fill="#000000" font-family="sans-serif" font-size="12.6" lengthAdjust="spacing" textLength="30.6" x="1557.9" y="384.0205">Exam</text><line style="stroke:#181818;stroke-width:0.45;" x1="1524.6" x2="1598.4" y1="391.6828" y2="391.6828"/><line style="stroke:#181818;stroke-width:0.45;" x1="1524.6" x2="1598.4" y1="398.8828" y2="398.8828"/></g><!--class ListCourseExamsController--><g id="elem_ListCourseExamsController"><rect codeLine="19" fill="#F1F1F1" height="88.0418" id="ListCourseExamsController" rx="2.25" ry="2.25" style="stroke:#181818;stroke-width:0.45;" width="375.3" x="530.55" y="184.159"/><ellipse cx="637.425" cy="204.2209" fill="#ADD1B2" rx="9.9" ry="9.9" style="stroke:#181818;stroke-width:0.9;"/><path d="M639.9141,200.5084 Q640.0547,200.3115 640.2234,200.2131 Q640.3922,200.1146 640.5891,200.1146 Q640.9266,200.1146 641.1375,200.3537 Q641.3484,200.5787 641.3484,201.1271 L641.3484,202.435 Q641.3484,202.9834 641.1375,203.2225 Q640.9266,203.4615 640.5891,203.4615 Q640.2797,203.4615 640.0969,203.2787 Q639.9141,203.11 639.8156,202.6459 Q639.7734,202.3225 639.6047,202.1537 Q639.3094,201.8162 638.7609,201.6193 Q638.2125,201.4225 637.65,201.4225 Q636.9609,201.4225 636.3844,201.7178 Q635.8219,202.0131 635.3719,202.6881 Q634.9359,203.3631 634.9359,204.2912 L634.9359,205.2756 Q634.9359,206.3865 635.7375,207.1318 Q636.5391,207.8631 637.9734,207.8631 Q638.8172,207.8631 639.4078,207.6381 Q639.7594,207.4975 640.1391,207.1037 Q640.3781,206.8646 640.5047,206.7943 Q640.6453,206.724 640.8281,206.724 Q641.1234,206.724 641.3484,206.9631 Q641.5875,207.1881 641.5875,207.4975 Q641.5875,207.8068 641.2781,208.1725 Q640.8281,208.6928 640.1109,208.9881 Q639.1406,209.3959 637.9734,209.3959 Q636.6094,209.3959 635.5266,208.8334 Q634.6406,208.3834 634.0219,207.4271 Q633.4031,206.4568 633.4031,205.3037 L633.4031,204.2631 Q633.4031,203.0678 633.9516,202.0412 Q634.5141,201.0006 635.4984,200.4521 Q636.4828,199.8896 637.5938,199.8896 Q638.2547,199.8896 638.8313,200.0443 Q639.4219,200.185 639.9141,200.5084 Z " fill="#000000"/><text fill="#000000" font-family="sans-serif" font-size="10.8" font-style="italic" lengthAdjust="spacing" textLength="66.6" x="699.525" y="200.3133">&#171;application&#187;</text><text fill="#000000" font-family="sans-serif" font-size="12.6" lengthAdjust="spacing" textLength="153.9" x="655.875" y="216.6205">ListCourseExamsController</text><line style="stroke:#181818;stroke-width:0.45;" x1="531.45" x2="904.95" y1="224.2828" y2="224.2828"/><line style="stroke:#181818;stroke-width:0.45;" x1="531.45" x2="904.95" y1="231.4828" y2="231.4828"/><ellipse cx="540.45" cy="244.8123" fill="#84BE84" rx="2.7" ry="2.7" style="stroke:#038048;stroke-width:0.9;"/><text fill="#000000" font-family="sans-serif" font-size="12.6" lengthAdjust="spacing" textLength="234.9" x="548.55" y="248.6795">Iterable&lt;Course&gt; listAllTeacherCourses()</text><ellipse cx="540.45" cy="261.5713" fill="#84BE84" rx="2.7" ry="2.7" style="stroke:#038048;stroke-width:0.9;"/><text fill="#000000" font-family="sans-serif" font-size="12.6" lengthAdjust="spacing" textLength="351.9" x="548.55" y="265.4385">Iterable&lt;Exam&gt; listAllCourseExams(CourseCode courseCode)</text></g><!--class ListCourseService--><g id="elem_ListCourseService"><rect codeLine="23" fill="#F1F1F1" height="71.2828" id="ListCourseService" rx="2.25" ry="2.25" style="stroke:#181818;stroke-width:0.45;" width="336.6" x="671.4" y="343.459"/><ellipse cx="784.125" cy="363.5209" fill="#ADD1B2" rx="9.9" ry="9.9" style="stroke:#181818;stroke-width:0.9;"/><path d="M786.6141,359.8084 Q786.7547,359.6115 786.9234,359.5131 Q787.0922,359.4146 787.2891,359.4146 Q787.6266,359.4146 787.8375,359.6537 Q788.0484,359.8787 788.0484,360.4271 L788.0484,361.735 Q788.0484,362.2834 787.8375,362.5225 Q787.6266,362.7615 787.2891,362.7615 Q786.9797,362.7615 786.7969,362.5787 Q786.6141,362.41 786.5156,361.9459 Q786.4734,361.6225 786.3047,361.4537 Q786.0094,361.1162 785.4609,360.9193 Q784.9125,360.7225 784.35,360.7225 Q783.6609,360.7225 783.0844,361.0178 Q782.5219,361.3131 782.0719,361.9881 Q781.6359,362.6631 781.6359,363.5912 L781.6359,364.5756 Q781.6359,365.6865 782.4375,366.4318 Q783.2391,367.1631 784.6734,367.1631 Q785.5172,367.1631 786.1078,366.9381 Q786.4594,366.7975 786.8391,366.4037 Q787.0781,366.1646 787.2047,366.0943 Q787.3453,366.024 787.5281,366.024 Q787.8234,366.024 788.0484,366.2631 Q788.2875,366.4881 788.2875,366.7975 Q788.2875,367.1068 787.9781,367.4725 Q787.5281,367.9928 786.8109,368.2881 Q785.8406,368.6959 784.6734,368.6959 Q783.3094,368.6959 782.2266,368.1334 Q781.3406,367.6834 780.7219,366.7271 Q780.1031,365.7568 780.1031,364.6037 L780.1031,363.5631 Q780.1031,362.3678 780.6516,361.3412 Q781.2141,360.3006 782.1984,359.7521 Q783.1828,359.1896 784.2938,359.1896 Q784.9547,359.1896 785.5313,359.3443 Q786.1219,359.485 786.6141,359.8084 Z " fill="#000000"/><text fill="#000000" font-family="sans-serif" font-size="10.8" font-style="italic" lengthAdjust="spacing" textLength="66.6" x="821.025" y="359.6133">&#171;application&#187;</text><text fill="#000000" font-family="sans-serif" font-size="12.6" lengthAdjust="spacing" textLength="103.5" x="802.575" y="375.9205">ListCourseService</text><line style="stroke:#181818;stroke-width:0.45;" x1="672.3" x2="1007.1" y1="383.5828" y2="383.5828"/><line style="stroke:#181818;stroke-width:0.45;" x1="672.3" x2="1007.1" y1="390.7828" y2="390.7828"/><ellipse cx="681.3" cy="404.1123" fill="#84BE84" rx="2.7" ry="2.7" style="stroke:#038048;stroke-width:0.9;"/><text fill="#000000" font-family="sans-serif" font-size="12.6" lengthAdjust="spacing" textLength="313.2" x="689.4" y="407.9795">Iterable&lt;Course&gt; allTeacherCourses(Teacher teacher)</text></g><!--class ListExamService--><g id="elem_ListExamService"><rect codeLine="26" fill="#F1F1F1" height="71.2828" id="ListExamService" rx="2.25" ry="2.25" style="stroke:#181818;stroke-width:0.45;" width="359.1" x="1039.95" y="343.459"/><ellipse cx="1169.325" cy="363.5209" fill="#ADD1B2" rx="9.9" ry="9.9" style="stroke:#181818;stroke-width:0.9;"/><path d="M1171.8141,359.8084 Q1171.9547,359.6115 1172.1234,359.5131 Q1172.2922,359.4146 1172.4891,359.4146 Q1172.8266,359.4146 1173.0375,359.6537 Q1173.2484,359.8787 1173.2484,360.4271 L1173.2484,361.735 Q1173.2484,362.2834 1173.0375,362.5225 Q1172.8266,362.7615 1172.4891,362.7615 Q1172.1797,362.7615 1171.9969,362.5787 Q1171.8141,362.41 1171.7156,361.9459 Q1171.6734,361.6225 1171.5047,361.4537 Q1171.2094,361.1162 1170.6609,360.9193 Q1170.1125,360.7225 1169.55,360.7225 Q1168.8609,360.7225 1168.2844,361.0178 Q1167.7219,361.3131 1167.2719,361.9881 Q1166.8359,362.6631 1166.8359,363.5912 L1166.8359,364.5756 Q1166.8359,365.6865 1167.6375,366.4318 Q1168.4391,367.1631 1169.8734,367.1631 Q1170.7172,367.1631 1171.3078,366.9381 Q1171.6594,366.7975 1172.0391,366.4037 Q1172.2781,366.1646 1172.4047,366.0943 Q1172.5453,366.024 1172.7281,366.024 Q1173.0234,366.024 1173.2484,366.2631 Q1173.4875,366.4881 1173.4875,366.7975 Q1173.4875,367.1068 1173.1781,367.4725 Q1172.7281,367.9928 1172.0109,368.2881 Q1171.0406,368.6959 1169.8734,368.6959 Q1168.5094,368.6959 1167.4266,368.1334 Q1166.5406,367.6834 1165.9219,366.7271 Q1165.3031,365.7568 1165.3031,364.6037 L1165.3031,363.5631 Q1165.3031,362.3678 1165.8516,361.3412 Q1166.4141,360.3006 1167.3984,359.7521 Q1168.3828,359.1896 1169.4938,359.1896 Q1170.1547,359.1896 1170.7313,359.3443 Q1171.3219,359.485 1171.8141,359.8084 Z " fill="#000000"/><text fill="#000000" font-family="sans-serif" font-size="10.8" font-style="italic" lengthAdjust="spacing" textLength="66.6" x="1200.825" y="359.6133">&#171;application&#187;</text><text fill="#000000" font-family="sans-serif" font-size="12.6" lengthAdjust="spacing" textLength="92.7" x="1187.775" y="375.9205">ListExamService</text><line style="stroke:#181818;stroke-width:0.45;" x1="1040.85" x2="1398.15" y1="383.5828" y2="383.5828"/><line style="stroke:#181818;stroke-width:0.45;" x1="1040.85" x2="1398.15" y1="390.7828" y2="390.7828"/><ellipse cx="1049.85" cy="404.1123" fill="#84BE84" rx="2.7" ry="2.7" style="stroke:#038048;stroke-width:0.9;"/><text fill="#000000" font-family="sans-serif" font-size="12.6" lengthAdjust="spacing" textLength="335.7" x="1057.95" y="407.9795">Iterable&lt;Exam&gt; allCourseExams(CourseCode courseCode)</text></g><!--class CourseRepository--><g id="elem_CourseRepository"><rect codeLine="30" fill="#F1F1F1" height="71.2828" id="CourseRepository" rx="2.25" ry="2.25" style="stroke:#181818;stroke-width:0.45;" width="358.2" x="540" y="485.659"/><ellipse cx="663.975" cy="505.7209" fill="#B4A7E5" rx="9.9" ry="9.9" style="stroke:#181818;stroke-width:0.9;"/><path d="M664.8328,502.6975 L664.8328,508.6881 L666.3797,508.6881 Q666.9281,508.6881 667.1672,508.899 Q667.4063,509.11 667.4063,509.4615 Q667.4063,509.799 667.1672,510.01 Q666.9281,510.2209 666.3797,510.2209 L661.7531,510.2209 Q661.2047,510.2209 660.9656,510.01 Q660.7266,509.799 660.7266,509.4475 Q660.7266,509.11 660.9656,508.899 Q661.2047,508.6881 661.7531,508.6881 L663.3,508.6881 L663.3,502.6975 L661.7531,502.6975 Q661.2047,502.6975 660.9656,502.4865 Q660.7266,502.2756 660.7266,501.924 Q660.7266,501.5865 660.9656,501.3756 Q661.2047,501.1646 661.7531,501.1646 L666.3797,501.1646 Q666.9281,501.1646 667.1672,501.3756 Q667.4063,501.5865 667.4063,501.924 Q667.4063,502.2756 667.1672,502.4865 Q666.9281,502.6975 666.3797,502.6975 L664.8328,502.6975 Z " fill="#000000"/><text fill="#000000" font-family="sans-serif" font-size="10.8" font-style="italic" lengthAdjust="spacing" textLength="70.2" x="698.625" y="501.8133">&#171;repositories&#187;</text><text fill="#000000" font-family="sans-serif" font-size="12.6" font-style="italic" lengthAdjust="spacing" textLength="102.6" x="682.425" y="518.1205">CourseRepository</text><line style="stroke:#181818;stroke-width:0.45;" x1="540.9" x2="897.3" y1="525.7828" y2="525.7828"/><line style="stroke:#181818;stroke-width:0.45;" x1="540.9" x2="897.3" y1="532.9828" y2="532.9828"/><ellipse cx="549.9" cy="546.3123" fill="#84BE84" rx="2.7" ry="2.7" style="stroke:#038048;stroke-width:0.9;"/><text fill="#000000" font-family="sans-serif" font-size="12.6" lengthAdjust="spacing" textLength="334.8" x="558" y="550.1795">Iterable&lt;Course&gt; findAllTeacherCourses(Teacher teacher)</text></g><!--class ExamRepository--><g id="elem_ExamRepository"><rect codeLine="33" fill="#F1F1F1" height="71.2828" id="ExamRepository" rx="2.25" ry="2.25" style="stroke:#181818;stroke-width:0.45;" width="305.1" x="1309.95" y="485.659"/><ellipse cx="1412.775" cy="505.7209" fill="#B4A7E5" rx="9.9" ry="9.9" style="stroke:#181818;stroke-width:0.9;"/><path d="M1413.6328,502.6975 L1413.6328,508.6881 L1415.1797,508.6881 Q1415.7281,508.6881 1415.9672,508.899 Q1416.2063,509.11 1416.2063,509.4615 Q1416.2063,509.799 1415.9672,510.01 Q1415.7281,510.2209 1415.1797,510.2209 L1410.5531,510.2209 Q1410.0047,510.2209 1409.7656,510.01 Q1409.5266,509.799 1409.5266,509.4475 Q1409.5266,509.11 1409.7656,508.899 Q1410.0047,508.6881 1410.5531,508.6881 L1412.1,508.6881 L1412.1,502.6975 L1410.5531,502.6975 Q1410.0047,502.6975 1409.7656,502.4865 Q1409.5266,502.2756 1409.5266,501.924 Q1409.5266,501.5865 1409.7656,501.3756 Q1410.0047,501.1646 1410.5531,501.1646 L1415.1797,501.1646 Q1415.7281,501.1646 1415.9672,501.3756 Q1416.2063,501.5865 1416.2063,501.924 Q1416.2063,502.2756 1415.9672,502.4865 Q1415.7281,502.6975 1415.1797,502.6975 L1413.6328,502.6975 Z " fill="#000000"/><text fill="#000000" font-family="sans-serif" font-size="10.8" font-style="italic" lengthAdjust="spacing" textLength="70.2" x="1442.025" y="501.8133">&#171;repositories&#187;</text><text fill="#000000" font-family="sans-serif" font-size="12.6" font-style="italic" lengthAdjust="spacing" textLength="91.8" x="1431.225" y="518.1205">ExamRepository</text><line style="stroke:#181818;stroke-width:0.45;" x1="1310.85" x2="1614.15" y1="525.7828" y2="525.7828"/><line style="stroke:#181818;stroke-width:0.45;" x1="1310.85" x2="1614.15" y1="532.9828" y2="532.9828"/><ellipse cx="1319.85" cy="546.3123" fill="#84BE84" rx="2.7" ry="2.7" style="stroke:#038048;stroke-width:0.9;"/><text fill="#000000" font-family="sans-serif" font-size="12.6" lengthAdjust="spacing" textLength="281.7" x="1327.95" y="550.1795">Iterable&lt;Exam&gt; findAllCourseExams(courseCode)</text></g><!--link ListCourseExamsUI to ListCourseExamsController--><g id="link_ListCourseExamsUI_ListCourseExamsController"><path codeLine="38" d="M576.036,113.14 C601.227,133.381 633.312,159.157 660.618,181.099 " fill="none" id="ListCourseExamsUI-to-ListCourseExamsController" style="stroke:#181818;stroke-width:0.9;"/><polygon fill="#181818" points="664.272,184.033,660.2064,176.1564,660.7619,181.2172,655.7011,181.7726,664.272,184.033" style="stroke:#181818;stroke-width:0.9;"/><text fill="#000000" font-family="sans-serif" font-size="11.7" lengthAdjust="spacing" textLength="65.7" x="626.4" y="153.5845">theController</text></g><!--link ListCourseExamsController to CourseRepository--><g id="link_ListCourseExamsController_CourseRepository"><path codeLine="39" d="M674.217,272.629 C657.216,292.456 639.738,317.323 630.9,343.459 C620.775,373.393 620.136,384.85 630.9,414.559 C640.134,440.056 658.503,463.726 676.098,482.176 " fill="none" id="ListCourseExamsController-to-CourseRepository" style="stroke:#181818;stroke-width:0.9;"/><polygon fill="#181818" points="679.374,485.56,676.3264,477.2364,676.244,482.3269,671.1535,482.2445,679.374,485.56" style="stroke:#181818;stroke-width:0.9;"/><text fill="#000000" font-family="sans-serif" font-size="11.7" lengthAdjust="spacing" textLength="22.5" x="631.8" y="383.9845">repo</text></g><!--link ListCourseExamsController to ExamRepository--><g id="link_ListCourseExamsController_ExamRepository"><path codeLine="40" d="M906.237,237.475 C1086.552,249.328 1341.837,277.507 1414.8,343.459 C1453.185,378.163 1462.05,440.2 1463.409,480.808 " fill="none" id="ListCourseExamsController-to-ExamRepository" style="stroke:#181818;stroke-width:0.9;"/><polygon fill="#181818" points="1463.535,485.407,1466.9022,477.2075,1463.4065,480.9088,1459.7051,477.4131,1463.535,485.407" style="stroke:#181818;stroke-width:0.9;"/><text fill="#000000" font-family="sans-serif" font-size="11.7" lengthAdjust="spacing" textLength="22.5" x="1454.4" y="383.9845">repo</text></g><!--link ListCourseExamsController to ListCourseService--><g id="link_ListCourseExamsController_ListCourseService"><path codeLine="41" d="M753.669,272.638 C771.021,293.905 791.712,319.276 808.461,339.805 " fill="none" id="ListCourseExamsController-to-ListCourseService" style="stroke:#181818;stroke-width:0.9;"/><polygon fill="#181818" points="811.323,343.324,809.0092,334.7673,808.4853,339.8315,803.4212,339.3076,811.323,343.324" style="stroke:#181818;stroke-width:0.9;"/><text fill="#000000" font-family="sans-serif" font-size="11.7" lengthAdjust="spacing" textLength="36" x="786.6" y="312.8845">service</text></g><!--link ListCourseExamsController to ListExamService--><g id="link_ListCourseExamsController_ListExamService"><path codeLine="42" d="M863.874,272.44 C938.124,294.508 1027.377,321.022 1097.901,341.974 " fill="none" id="ListCourseExamsController-to-ListExamService" style="stroke:#181818;stroke-width:0.9;"/><polygon fill="#181818" points="1102.518,343.351,1095.7704,337.603,1098.2025,342.0757,1093.7298,344.5078,1102.518,343.351" style="stroke:#181818;stroke-width:0.9;"/><text fill="#000000" font-family="sans-serif" font-size="11.7" lengthAdjust="spacing" textLength="36" x="999" y="312.8845">service</text></g><!--link ListCourseExamsController to Course--><g id="link_ListCourseExamsController_Course"><path codeLine="43" d="M567.846,272.422 C545.184,280.486 522.36,289.513 501.3,299.359 C471.726,313.183 440.658,332.713 416.88,348.868 " fill="none" id="ListCourseExamsController-to-Course" style="stroke:#181818;stroke-width:0.9;"/><polygon fill="#181818" points="413.127,351.424,421.8476,349.8363,416.8453,348.8894,417.7922,343.887,413.127,351.424" style="stroke:#181818;stroke-width:0.9;"/><text fill="#000000" font-family="sans-serif" font-size="11.7" lengthAdjust="spacing" textLength="35.1" x="502.2" y="312.8845">course</text></g><!--link ListCourseExamsController to Teacher--><g id="link_ListCourseExamsController_Teacher"><path codeLine="44" d="M603.657,272.557 C589.113,280.387 574.974,289.315 562.5,299.359 C546.111,312.553 531.918,331.345 521.613,347.266 " fill="none" id="ListCourseExamsController-to-Teacher" style="stroke:#181818;stroke-width:0.9;"/><polygon fill="#181818" points="519.084,351.253,526.4731,346.3569,521.5024,347.4581,520.4013,342.4874,519.084,351.253" style="stroke:#181818;stroke-width:0.9;"/><text fill="#000000" font-family="sans-serif" font-size="11.7" lengthAdjust="spacing" textLength="38.7" x="563.4" y="312.8845">teacher</text></g><!--link ListCourseExamsController to Exam--><g id="link_ListCourseExamsController_Exam"><path codeLine="45" d="M905.931,232.354 C1097.703,238.114 1380.906,254.233 1479.6,299.359 C1502.946,310.033 1523.727,330.211 1538.514,347.473 " fill="none" id="ListCourseExamsController-to-Exam" style="stroke:#181818;stroke-width:0.9;"/><polygon fill="#181818" points="1541.763,351.325,1539.2933,342.812,1538.862,347.8849,1533.7892,347.4536,1541.763,351.325" style="stroke:#181818;stroke-width:0.9;"/><text fill="#000000" font-family="sans-serif" font-size="11.7" lengthAdjust="spacing" textLength="28.8" x="1506.6" y="312.8845">exam</text></g><!--link Course to CourseCode--><g id="link_Course_CourseCode"><path codeLine="46" d="M338.319,394.453 C288.306,413.929 197.757,450.172 122.4,485.659 C118.377,487.558 114.246,489.565 110.106,491.635 " fill="none" id="Course-to-CourseCode" style="stroke:#181818;stroke-width:0.9;"/><polygon fill="#181818" points="105.966,493.714,114.8203,493.3002,109.9883,491.6964,111.5921,486.8644,105.966,493.714" style="stroke:#181818;stroke-width:0.9;"/><text fill="#000000" font-family="sans-serif" font-size="11.7" lengthAdjust="spacing" textLength="62.1" x="220.5" y="455.0845">courseCode</text></g><!--link JpaCourseRepository to CourseRepository--><g id="link_JpaCourseRepository_CourseRepository"><path codeLine="47" d="M245.079,493.678 C265.329,477.541 293.238,458.677 321.75,450.109 C427.734,418.24 554.175,452.746 635.49,483.868 " fill="none" id="JpaCourseRepository-to-CourseRepository" style="stroke:#181818;stroke-width:0.9;"/><polygon fill="#181818" points="639.819,485.533,633.5615,479.2549,635.6216,483.9107,630.9658,485.9707,639.819,485.533" style="stroke:#181818;stroke-width:0.9;"/></g><!--link InMemoryCourseRepository to CourseRepository--><g id="link_InMemoryCourseRepository_CourseRepository"><path codeLine="48" d="M508.176,521.209 C517.185,521.209 526.185,521.209 535.194,521.209 " fill="none" id="InMemoryCourseRepository-to-CourseRepository" style="stroke:#181818;stroke-width:0.9;"/><polygon fill="#181818" points="539.901,521.209,531.801,517.609,535.401,521.209,531.801,524.809,539.901,521.209" style="stroke:#181818;stroke-width:0.9;"/></g><!--link JpaExamRepository to ExamRepository--><g id="link_JpaExamRepository_ExamRepository"><path codeLine="49" d="M1278.189,521.209 C1287.18,521.209 1296.171,521.209 1305.171,521.209 " fill="none" id="JpaExamRepository-to-ExamRepository" style="stroke:#181818;stroke-width:0.9;"/><polygon fill="#181818" points="1309.869,521.209,1301.769,517.609,1305.369,521.209,1301.769,524.809,1309.869,521.209" style="stroke:#181818;stroke-width:0.9;"/></g><!--link InMemoryExamRepository to ExamRepository--><g id="link_InMemoryExamRepository_ExamRepository"><path codeLine="50" d="M1052.919,493.633 C1075.743,477.478 1106.955,458.623 1138.05,450.109 C1222.272,427.06 1320.372,456.148 1386.477,483.769 " fill="none" id="InMemoryExamRepository-to-ExamRepository" style="stroke:#181818;stroke-width:0.9;"/><polygon fill="#181818" points="1390.779,485.587,1384.7108,479.1258,1386.6316,483.8407,1381.9167,485.7616,1390.779,485.587" style="stroke:#181818;stroke-width:0.9;"/></g><!--link ListCourseExamsUI to Course--><g id="link_ListCourseExamsUI_Course"><path codeLine="53" d="M506.763,113.095 C492.264,133.246 474.435,159.463 460.8,184.159 C430.281,239.428 402.606,307.909 387.711,346.951 " fill="none" id="ListCourseExamsUI-to-Course" style="stroke:#181818;stroke-width:0.9;stroke-dasharray:7.0,7.0;"/><polygon fill="#181818" points="386.055,351.325,392.2931,345.0277,387.6506,347.1173,385.5609,342.4748,386.055,351.325" style="stroke:#181818;stroke-width:0.9;"/></g><!--link ListCourseExamsUI to Teacher--><g id="link_ListCourseExamsUI_Teacher"><path codeLine="54" d="M518.058,113.194 C500.76,156.052 473.112,231.544 462.6,299.359 C461.439,306.865 460.386,309.187 462.6,316.459 C465.921,327.358 471.879,338.077 478.269,347.446 " fill="none" id="ListCourseExamsUI-to-Teacher" style="stroke:#181818;stroke-width:0.9;stroke-dasharray:7.0,7.0;"/><polygon fill="#181818" points="481.023,351.379,479.3252,342.6791,478.4416,347.693,473.4277,346.8094,481.023,351.379" style="stroke:#181818;stroke-width:0.9;"/></g><!--link ListCourseExamsUI to Exam--><g id="link_ListCourseExamsUI_Exam"><path codeLine="55" d="M601.929,84.034 C807.435,102.151 1408.635,165.772 1543.5,299.359 C1555.884,311.626 1560.483,330.553 1561.941,346.771 " fill="none" id="ListCourseExamsUI-to-Exam" style="stroke:#181818;stroke-width:0.9;stroke-dasharray:7.0,7.0;"/><polygon fill="#181818" points="1562.274,351.271,1565.2623,342.9259,1561.9397,346.7834,1558.0822,343.4608,1562.274,351.271" style="stroke:#181818;stroke-width:0.9;"/></g><!--link ListCourseService to CourseRepository--><g id="link_ListCourseService_CourseRepository"><path codeLine="56" d="M809.892,414.613 C792.351,435.034 770.139,460.891 752.076,481.915 " fill="none" id="ListCourseService-to-CourseRepository" style="stroke:#181818;stroke-width:0.9;stroke-dasharray:7.0,7.0;"/><polygon fill="#181818" points="748.989,485.515,757.0008,481.7228,751.9239,482.1038,751.5429,477.0269,748.989,485.515" style="stroke:#181818;stroke-width:0.9;"/></g><!--link ListExamService to ExamRepository--><g id="link_ListExamService_ExamRepository"><path codeLine="57" d="M1279.566,414.613 C1315.638,435.457 1361.511,461.962 1398.294,483.211 " fill="none" id="ListExamService-to-ExamRepository" style="stroke:#181818;stroke-width:0.9;stroke-dasharray:7.0,7.0;"/><polygon fill="#181818" points="1402.281,485.515,1397.0673,478.3465,1398.3842,483.2644,1393.4663,484.5813,1402.281,485.515" style="stroke:#181818;stroke-width:0.9;"/></g><!--SRC=[bLHTJy8m57tlhsZY0n0b8Ug3MSWI7P9Wr0T1NumFTRjAJMcNjg36yDzjrm9Z7MxkPHyzvzoliwkfPe0JHfJ28qhU9LdWRZBguJv-dEBJmU0CeKvn30gb1UoMAfs8fLHm_KKMwd62XyDSWWAkYQQ2np7-GTXScPZEnMUtXzR8KszoufWFa0j5jP3VbWnI6KtWALZkseCd_0uM1j6UOUHjIlyHRyPxWil203An89INjTnH8Z9xt7qwmKVZySNL-Q27LuGj0OlN3qXr77lu34Ww1rahPTEf7DHtFH5SIy5OeKFodD5ql_d74msIl38OEbQCcL6uPCo7Tr-LcSu-sgfliQM0tLALwVRHphQQtnJaYgPGpUjGMYH8QTCWxUxxCMmoBIEuKaZBCX3bXlX6Z6wDu-JcXOBweyTlb6UNRGhQ1GiSs13ALUK3bIkhbDEv9olwNhG6XRziln__OQa8wpditj5XfDK9sXLXMqC3gr9tAqveiWWhzzI2MRPEMvx_xIDlbWRqPj3HPjGjUc30O6x8Hze5BJmQbLoAwjPdJV_HmSrP1mwNPZ0ST61RXa3K6K4EF3FhqxYtpdVF6L5po5wsgJI0PlMDhA3iDnIw8unMohLgYQfU2VeB]--></g></svg>