<?xml version="1.0" encoding="us-ascii" standalone="no"?><svg xmlns="http://www.w3.org/2000/svg" xmlns:xlink="http://www.w3.org/1999/xlink" contentStyleType="text/css" height="460.08px" preserveAspectRatio="none" style="width:1118px;height:460px;background:#FFFFFF;" version="1.1" viewBox="0 0 1118 460" width="1118.25px" zoomAndPan="magnify"><defs/><g><!--cluster <<aggregate>> Teacher--><g id="cluster_&lt;&lt;aggregate&gt;&gt; Teacher"><path d="M943.235,267.3247 L1049.735,267.3247 A2.6625,2.6625 0 0 1 1051.51,269.0997 L1056.48,284.8057 L1056.835,284.8057 A1.775,1.775 0 0 1 1058.61,286.5807 L1058.61,453.3447 A1.775,1.775 0 0 1 1056.835,455.1197 L943.235,455.1197 A1.775,1.775 0 0 1 941.46,453.3447 L941.46,269.0997 A1.775,1.775 0 0 1 943.235,267.3247 " fill="none" style="stroke:#000000;stroke-width:1.065;"/><line style="stroke:#000000;stroke-width:1.065;" x1="941.46" x2="1056.48" y1="284.8057" y2="284.8057"/><text fill="#000000" font-family="sans-serif" font-size="9.94" font-weight="bold" lengthAdjust="spacing" textLength="105.79" x="944.3" y="279.471">&#171;aggregate&#187; Teacher</text></g><!--cluster <<aggregate>> Course--><g id="cluster_&lt;&lt;aggregate&gt;&gt; Course"><path d="M6.035,4.2697 L108.275,4.2697 A2.6625,2.6625 0 0 1 110.05,6.0447 L115.02,21.7507 L567.645,21.7507 A1.775,1.775 0 0 1 569.42,23.5257 L569.42,229.3397 A1.775,1.775 0 0 1 567.645,231.1147 L6.035,231.1147 A1.775,1.775 0 0 1 4.26,229.3397 L4.26,6.0447 A1.775,1.775 0 0 1 6.035,4.2697 " fill="none" style="stroke:#000000;stroke-width:1.065;"/><line style="stroke:#000000;stroke-width:1.065;" x1="4.26" x2="115.02" y1="21.7507" y2="21.7507"/><text fill="#000000" font-family="sans-serif" font-size="9.94" font-weight="bold" lengthAdjust="spacing" textLength="101.53" x="7.1" y="16.416">&#171;aggregate&#187; Course</text></g><!--cluster <<aggregate>> Exam--><g id="cluster_&lt;&lt;aggregate&gt;&gt; Exam"><path d="M588.235,131.3597 L680.535,131.3597 A2.6625,2.6625 0 0 1 682.31,133.1347 L687.28,148.8407 L922.645,148.8407 A1.775,1.775 0 0 1 924.42,150.6157 L924.42,365.3047 A1.775,1.775 0 0 1 922.645,367.0797 L588.235,367.0797 A1.775,1.775 0 0 1 586.46,365.3047 L586.46,133.1347 A1.775,1.775 0 0 1 588.235,131.3597 " fill="none" style="stroke:#000000;stroke-width:1.065;"/><line style="stroke:#000000;stroke-width:1.065;" x1="586.46" x2="687.28" y1="148.8407" y2="148.8407"/><text fill="#000000" font-family="sans-serif" font-size="9.94" font-weight="bold" lengthAdjust="spacing" textLength="91.59" x="589.3" y="143.506">&#171;aggregate&#187; Exam</text></g><!--class Teacher--><g id="elem_Teacher"><rect codeLine="6" fill="#F1F1F1" height="54.3455" id="Teacher" rx="1.775" ry="1.775" style="stroke:#181818;stroke-width:0.355;" width="60.35" x="957.435" y="293.5947"/><ellipse cx="968.085" cy="315.0875" fill="#ADD1B2" rx="7.81" ry="7.81" style="stroke:#181818;stroke-width:0.71;"/><path d="M967.2752,315.6532 L967.2752,317.4282 L970.3481,317.4282 L970.3481,316.7737 Q970.3481,316.3411 970.5145,316.1525 Q970.692,315.9639 970.9583,315.9639 Q971.2245,315.9639 971.3909,316.1525 Q971.5573,316.3411 971.5573,316.7737 L971.5573,318.6375 L965.8773,318.6375 Q965.4336,318.6375 965.245,318.4711 Q965.0675,318.3046 965.0675,318.0273 Q965.0675,317.7611 965.2561,317.5946 Q965.4447,317.4282 965.8773,317.4282 L966.0659,317.4282 L966.0659,312.7023 L965.8773,312.7023 Q965.4336,312.7023 965.245,312.5359 Q965.0675,312.3695 965.0675,312.0921 Q965.0675,311.8259 965.245,311.6595 Q965.4336,311.4931 965.8773,311.4931 L971.2911,311.4931 L971.2911,313.3346 Q971.2911,313.7673 971.1247,313.9559 Q970.9694,314.1334 970.692,314.1334 Q970.4258,314.1334 970.2594,313.9559 Q970.093,313.7673 970.093,313.3346 L970.093,312.7023 L967.2752,312.7023 L967.2752,314.444 L968.3291,314.444 Q968.3291,313.9781 968.4178,313.845 Q968.6064,313.5565 968.9392,313.5565 Q969.2055,313.5565 969.3719,313.7451 Q969.5383,313.9226 969.5383,314.3553 L969.5383,315.7531 Q969.5383,316.1414 969.4495,316.2745 Q969.2609,316.5518 968.9392,316.5518 Q968.6064,316.5518 968.4178,316.2634 Q968.3291,316.1303 968.3291,315.6532 L967.2752,315.6532 Z " fill="#000000"/><text fill="#000000" font-family="sans-serif" font-size="8.52" font-style="italic" lengthAdjust="spacing" textLength="30.53" x="981.575" y="306.3387">&#171;entity&#187;</text><text fill="#000000" font-family="sans-serif" font-size="8.52" font-style="italic" lengthAdjust="spacing" textLength="24.85" x="984.415" y="317.6709">&#171;root&#187;</text><text fill="#000000" font-family="sans-serif" font-size="9.94" lengthAdjust="spacing" textLength="37.63" x="978.025" y="330.5355">Teacher</text><line style="stroke:#181818;stroke-width:0.355;" x1="958.145" x2="1017.075" y1="336.5802" y2="336.5802"/><line style="stroke:#181818;stroke-width:0.355;" x1="958.145" x2="1017.075" y1="342.2602" y2="342.2602"/></g><!--class Acronym--><g id="elem_Acronym"><rect codeLine="7" fill="#F1F1F1" height="43.0132" id="Acronym" rx="1.775" ry="1.775" style="stroke:#181818;stroke-width:0.355;" width="77.39" x="953.175" y="400.4497"/><ellipse cx="963.825" cy="416.2763" fill="#FF8B40" rx="7.81" ry="7.81" style="stroke:#181818;stroke-width:0.71;"/><path d="M964.2466,418.5949 L965.9994,414.4237 L965.722,414.4237 Q965.2894,414.4237 965.1008,414.2573 Q964.9122,414.0909 964.9122,413.8135 Q964.9122,413.5473 965.1008,413.3809 Q965.2894,413.2145 965.722,413.2145 L967.3417,413.2145 Q967.7744,413.2145 967.963,413.3809 Q968.1516,413.5473 968.1516,413.8135 Q968.1516,414.1463 967.8631,414.3349 Q967.73,414.4237 967.3084,414.4237 L964.8345,420.3588 L963.6697,420.3588 L961.1958,414.4237 Q960.7742,414.4237 960.6411,414.3349 Q960.3527,414.1463 960.3527,413.8135 Q960.3527,413.5473 960.5413,413.3809 Q960.7298,413.2145 961.1625,413.2145 L962.7933,413.2145 Q963.2259,413.2145 963.4034,413.3809 Q963.592,413.5473 963.592,413.8135 Q963.592,414.0909 963.4034,414.2573 Q963.2259,414.4237 962.7933,414.4237 L962.5048,414.4237 L964.2466,418.5949 Z " fill="#000000"/><text fill="#000000" font-family="sans-serif" font-size="8.52" font-style="italic" lengthAdjust="spacing" textLength="57.51" x="972.345" y="413.1937">&#171;value object&#187;</text><text fill="#000000" font-family="sans-serif" font-size="9.94" lengthAdjust="spacing" textLength="39.05" x="981.575" y="426.0582">Acronym</text><line style="stroke:#181818;stroke-width:0.355;" x1="953.885" x2="1029.855" y1="432.1029" y2="432.1029"/><line style="stroke:#181818;stroke-width:0.355;" x1="953.885" x2="1029.855" y1="437.7829" y2="437.7829"/></g><!--class Course--><g id="elem_Course"><rect codeLine="12" fill="#F1F1F1" height="54.3455" id="Course" rx="1.775" ry="1.775" style="stroke:#181818;stroke-width:0.355;" width="55.38" x="411.8" y="30.5397"/><ellipse cx="422.45" cy="52.0325" fill="#ADD1B2" rx="7.81" ry="7.81" style="stroke:#181818;stroke-width:0.71;"/><path d="M421.6402,52.5982 L421.6402,54.3732 L424.7131,54.3732 L424.7131,53.7187 Q424.7131,53.2861 424.8795,53.0975 Q425.057,52.9089 425.3233,52.9089 Q425.5895,52.9089 425.7559,53.0975 Q425.9223,53.2861 425.9223,53.7187 L425.9223,55.5825 L420.2423,55.5825 Q419.7986,55.5825 419.61,55.4161 Q419.4325,55.2496 419.4325,54.9723 Q419.4325,54.7061 419.6211,54.5396 Q419.8097,54.3732 420.2423,54.3732 L420.4309,54.3732 L420.4309,49.6473 L420.2423,49.6473 Q419.7986,49.6473 419.61,49.4809 Q419.4325,49.3145 419.4325,49.0371 Q419.4325,48.7709 419.61,48.6045 Q419.7986,48.4381 420.2423,48.4381 L425.6561,48.4381 L425.6561,50.2796 Q425.6561,50.7123 425.4897,50.9009 Q425.3344,51.0784 425.057,51.0784 Q424.7908,51.0784 424.6244,50.9009 Q424.458,50.7123 424.458,50.2796 L424.458,49.6473 L421.6402,49.6473 L421.6402,51.389 L422.6941,51.389 Q422.6941,50.9231 422.7828,50.79 Q422.9714,50.5015 423.3042,50.5015 Q423.5705,50.5015 423.7369,50.6901 Q423.9033,50.8676 423.9033,51.3003 L423.9033,52.6981 Q423.9033,53.0864 423.8145,53.2195 Q423.6259,53.4968 423.3042,53.4968 Q422.9714,53.4968 422.7828,53.2084 Q422.6941,53.0753 422.6941,52.5982 L421.6402,52.5982 Z " fill="#000000"/><text fill="#000000" font-family="sans-serif" font-size="8.52" font-style="italic" lengthAdjust="spacing" textLength="30.53" x="433.455" y="43.2837">&#171;entity&#187;</text><text fill="#000000" font-family="sans-serif" font-size="8.52" font-style="italic" lengthAdjust="spacing" textLength="24.85" x="436.295" y="54.6159">&#171;root&#187;</text><text fill="#000000" font-family="sans-serif" font-size="9.94" lengthAdjust="spacing" textLength="32.66" x="432.39" y="67.4805">Course</text><line style="stroke:#181818;stroke-width:0.355;" x1="412.51" x2="466.47" y1="73.5252" y2="73.5252"/><line style="stroke:#181818;stroke-width:0.355;" x1="412.51" x2="466.47" y1="79.2052" y2="79.2052"/></g><!--class CourseTitle--><g id="elem_CourseTitle"><rect codeLine="13" fill="#F1F1F1" height="43.0132" id="CourseTitle" rx="1.775" ry="1.775" style="stroke:#181818;stroke-width:0.355;" width="77.39" x="15.975" y="163.3097"/><ellipse cx="26.625" cy="179.1363" fill="#FF8B40" rx="7.81" ry="7.81" style="stroke:#181818;stroke-width:0.71;"/><path d="M27.0466,181.4549 L28.7994,177.2837 L28.522,177.2837 Q28.0894,177.2837 27.9008,177.1173 Q27.7122,176.9509 27.7122,176.6735 Q27.7122,176.4073 27.9008,176.2409 Q28.0894,176.0745 28.522,176.0745 L30.1417,176.0745 Q30.5744,176.0745 30.763,176.2409 Q30.9516,176.4073 30.9516,176.6735 Q30.9516,177.0063 30.6631,177.1949 Q30.53,177.2837 30.1084,177.2837 L27.6345,183.2188 L26.4697,183.2188 L23.9958,177.2837 Q23.5742,177.2837 23.4411,177.1949 Q23.1527,177.0063 23.1527,176.6735 Q23.1527,176.4073 23.3413,176.2409 Q23.5298,176.0745 23.9625,176.0745 L25.5933,176.0745 Q26.0259,176.0745 26.2034,176.2409 Q26.392,176.4073 26.392,176.6735 Q26.392,176.9509 26.2034,177.1173 Q26.0259,177.2837 25.5933,177.2837 L25.3048,177.2837 L27.0466,181.4549 Z " fill="#000000"/><text fill="#000000" font-family="sans-serif" font-size="8.52" font-style="italic" lengthAdjust="spacing" textLength="57.51" x="35.145" y="176.0537">&#171;value object&#187;</text><text fill="#000000" font-family="sans-serif" font-size="9.94" lengthAdjust="spacing" textLength="51.83" x="37.985" y="188.9182">CourseTitle</text><line style="stroke:#181818;stroke-width:0.355;" x1="16.685" x2="92.655" y1="194.9629" y2="194.9629"/><line style="stroke:#181818;stroke-width:0.355;" x1="16.685" x2="92.655" y1="200.6429" y2="200.6429"/></g><!--class CourseCode--><g id="elem_CourseCode"><rect codeLine="14" fill="#F1F1F1" height="43.0132" id="CourseCode" rx="1.775" ry="1.775" style="stroke:#181818;stroke-width:0.355;" width="79.52" x="118.57" y="163.3097"/><ellipse cx="129.22" cy="179.1363" fill="#FF8B40" rx="7.81" ry="7.81" style="stroke:#181818;stroke-width:0.71;"/><path d="M129.6416,181.4549 L131.3944,177.2837 L131.117,177.2837 Q130.6844,177.2837 130.4958,177.1173 Q130.3072,176.9509 130.3072,176.6735 Q130.3072,176.4073 130.4958,176.2409 Q130.6844,176.0745 131.117,176.0745 L132.7367,176.0745 Q133.1694,176.0745 133.358,176.2409 Q133.5466,176.4073 133.5466,176.6735 Q133.5466,177.0063 133.2581,177.1949 Q133.125,177.2837 132.7034,177.2837 L130.2295,183.2188 L129.0647,183.2188 L126.5908,177.2837 Q126.1692,177.2837 126.0361,177.1949 Q125.7477,177.0063 125.7477,176.6735 Q125.7477,176.4073 125.9362,176.2409 Q126.1248,176.0745 126.5575,176.0745 L128.1883,176.0745 Q128.6209,176.0745 128.7984,176.2409 Q128.987,176.4073 128.987,176.6735 Q128.987,176.9509 128.7984,177.1173 Q128.6209,177.2837 128.1883,177.2837 L127.8998,177.2837 L129.6416,181.4549 Z " fill="#000000"/><text fill="#000000" font-family="sans-serif" font-size="8.52" font-style="italic" lengthAdjust="spacing" textLength="57.51" x="138.805" y="176.0537">&#171;value object&#187;</text><text fill="#000000" font-family="sans-serif" font-size="9.94" lengthAdjust="spacing" textLength="56.8" x="139.16" y="188.9182">CourseCode</text><line style="stroke:#181818;stroke-width:0.355;" x1="119.28" x2="197.38" y1="194.9629" y2="194.9629"/><line style="stroke:#181818;stroke-width:0.355;" x1="119.28" x2="197.38" y1="200.6429" y2="200.6429"/></g><!--class CourseDescription--><g id="elem_CourseDescription"><rect codeLine="15" fill="#F1F1F1" height="43.0132" id="CourseDescription" rx="1.775" ry="1.775" style="stroke:#181818;stroke-width:0.355;" width="105.79" x="223.295" y="163.3097"/><ellipse cx="233.945" cy="179.1363" fill="#FF8B40" rx="7.81" ry="7.81" style="stroke:#181818;stroke-width:0.71;"/><path d="M234.3666,181.4549 L236.1194,177.2837 L235.842,177.2837 Q235.4094,177.2837 235.2208,177.1173 Q235.0322,176.9509 235.0322,176.6735 Q235.0322,176.4073 235.2208,176.2409 Q235.4094,176.0745 235.842,176.0745 L237.4617,176.0745 Q237.8944,176.0745 238.083,176.2409 Q238.2716,176.4073 238.2716,176.6735 Q238.2716,177.0063 237.9831,177.1949 Q237.85,177.2837 237.4284,177.2837 L234.9545,183.2188 L233.7897,183.2188 L231.3158,177.2837 Q230.8942,177.2837 230.7611,177.1949 Q230.4727,177.0063 230.4727,176.6735 Q230.4727,176.4073 230.6613,176.2409 Q230.8498,176.0745 231.2825,176.0745 L232.9133,176.0745 Q233.3459,176.0745 233.5234,176.2409 Q233.712,176.4073 233.712,176.6735 Q233.712,176.9509 233.5234,177.1173 Q233.3459,177.2837 232.9133,177.2837 L232.6248,177.2837 L234.3666,181.4549 Z " fill="#000000"/><text fill="#000000" font-family="sans-serif" font-size="8.52" font-style="italic" lengthAdjust="spacing" textLength="57.51" x="256.665" y="176.0537">&#171;value object&#187;</text><text fill="#000000" font-family="sans-serif" font-size="9.94" lengthAdjust="spacing" textLength="83.07" x="243.885" y="188.9182">CourseDescription</text><line style="stroke:#181818;stroke-width:0.355;" x1="224.005" x2="328.375" y1="194.9629" y2="194.9629"/><line style="stroke:#181818;stroke-width:0.355;" x1="224.005" x2="328.375" y1="200.6429" y2="200.6429"/></g><!--class CourseStatus--><g id="elem_CourseStatus"><rect codeLine="16" fill="#F1F1F1" height="43.0132" id="CourseStatus" rx="1.775" ry="1.775" style="stroke:#181818;stroke-width:0.355;" width="83.78" x="354.29" y="163.3097"/><ellipse cx="364.94" cy="179.1363" fill="#FF8B40" rx="7.81" ry="7.81" style="stroke:#181818;stroke-width:0.71;"/><path d="M365.3616,181.4549 L367.1144,177.2837 L366.837,177.2837 Q366.4044,177.2837 366.2158,177.1173 Q366.0272,176.9509 366.0272,176.6735 Q366.0272,176.4073 366.2158,176.2409 Q366.4044,176.0745 366.837,176.0745 L368.4567,176.0745 Q368.8894,176.0745 369.078,176.2409 Q369.2666,176.4073 369.2666,176.6735 Q369.2666,177.0063 368.9781,177.1949 Q368.845,177.2837 368.4234,177.2837 L365.9495,183.2188 L364.7847,183.2188 L362.3108,177.2837 Q361.8892,177.2837 361.7561,177.1949 Q361.4677,177.0063 361.4677,176.6735 Q361.4677,176.4073 361.6563,176.2409 Q361.8448,176.0745 362.2775,176.0745 L363.9083,176.0745 Q364.3409,176.0745 364.5184,176.2409 Q364.707,176.4073 364.707,176.6735 Q364.707,176.9509 364.5184,177.1173 Q364.3409,177.2837 363.9083,177.2837 L363.6198,177.2837 L365.3616,181.4549 Z " fill="#000000"/><text fill="#000000" font-family="sans-serif" font-size="8.52" font-style="italic" lengthAdjust="spacing" textLength="57.51" x="376.655" y="176.0537">&#171;value object&#187;</text><text fill="#000000" font-family="sans-serif" font-size="9.94" lengthAdjust="spacing" textLength="61.06" x="374.88" y="188.9182">CourseStatus</text><line style="stroke:#181818;stroke-width:0.355;" x1="355" x2="437.36" y1="194.9629" y2="194.9629"/><line style="stroke:#181818;stroke-width:0.355;" x1="355" x2="437.36" y1="200.6429" y2="200.6429"/></g><!--class EnrolmentLimits--><g id="elem_EnrolmentLimits"><rect codeLine="17" fill="#F1F1F1" height="69.4552" id="EnrolmentLimits" rx="1.775" ry="1.775" style="stroke:#181818;stroke-width:0.355;" width="95.14" x="462.92" y="150.1747"/><ellipse cx="474.209" cy="166.0013" fill="#FF8B40" rx="7.81" ry="7.81" style="stroke:#181818;stroke-width:0.71;"/><path d="M474.6306,168.3199 L476.3834,164.1487 L476.106,164.1487 Q475.6734,164.1487 475.4848,163.9823 Q475.2962,163.8159 475.2962,163.5385 Q475.2962,163.2723 475.4848,163.1059 Q475.6734,162.9395 476.106,162.9395 L477.7257,162.9395 Q478.1584,162.9395 478.347,163.1059 Q478.5356,163.2723 478.5356,163.5385 Q478.5356,163.8713 478.2471,164.0599 Q478.114,164.1487 477.6924,164.1487 L475.2185,170.0838 L474.0537,170.0838 L471.5798,164.1487 Q471.1582,164.1487 471.0251,164.0599 Q470.7367,163.8713 470.7367,163.5385 Q470.7367,163.2723 470.9252,163.1059 Q471.1138,162.9395 471.5465,162.9395 L473.1773,162.9395 Q473.6099,162.9395 473.7874,163.1059 Q473.976,163.2723 473.976,163.5385 Q473.976,163.8159 473.7874,163.9823 Q473.6099,164.1487 473.1773,164.1487 L472.8888,164.1487 L474.6306,168.3199 Z " fill="#000000"/><text fill="#000000" font-family="sans-serif" font-size="8.52" font-style="italic" lengthAdjust="spacing" textLength="57.51" x="491.036" y="162.9187">&#171;value object&#187;</text><text fill="#000000" font-family="sans-serif" font-size="9.94" lengthAdjust="spacing" textLength="71" x="484.291" y="175.7832">EnrolmentLimits</text><line style="stroke:#181818;stroke-width:0.355;" x1="463.63" x2="557.35" y1="181.8279" y2="181.8279"/><text fill="#000000" font-family="sans-serif" font-size="9.94" lengthAdjust="spacing" textLength="84.49" x="467.18" y="195.3942">minimumEnrolment</text><text fill="#000000" font-family="sans-serif" font-size="9.94" lengthAdjust="spacing" textLength="86.62" x="467.18" y="208.6152">maximumEnrolment</text><line style="stroke:#181818;stroke-width:0.355;" x1="463.63" x2="557.35" y1="213.9499" y2="213.9499"/></g><!--class Exam--><g id="elem_Exam"><rect codeLine="25" fill="#F1F1F1" height="54.3455" id="Exam" rx="1.775" ry="1.775" style="stroke:#181818;stroke-width:0.355;" width="50.41" x="723.845" y="157.6297"/><ellipse cx="734.495" cy="179.1225" fill="#ADD1B2" rx="7.81" ry="7.81" style="stroke:#181818;stroke-width:0.71;"/><path d="M733.6852,179.6882 L733.6852,181.4632 L736.7581,181.4632 L736.7581,180.8087 Q736.7581,180.3761 736.9245,180.1875 Q737.102,179.9989 737.3683,179.9989 Q737.6345,179.9989 737.8009,180.1875 Q737.9673,180.3761 737.9673,180.8087 L737.9673,182.6725 L732.2873,182.6725 Q731.8436,182.6725 731.655,182.5061 Q731.4775,182.3396 731.4775,182.0623 Q731.4775,181.7961 731.6661,181.6296 Q731.8547,181.4632 732.2873,181.4632 L732.4759,181.4632 L732.4759,176.7373 L732.2873,176.7373 Q731.8436,176.7373 731.655,176.5709 Q731.4775,176.4045 731.4775,176.1271 Q731.4775,175.8609 731.655,175.6945 Q731.8436,175.5281 732.2873,175.5281 L737.7011,175.5281 L737.7011,177.3696 Q737.7011,177.8023 737.5347,177.9909 Q737.3794,178.1684 737.102,178.1684 Q736.8358,178.1684 736.6694,177.9909 Q736.503,177.8023 736.503,177.3696 L736.503,176.7373 L733.6852,176.7373 L733.6852,178.479 L734.7391,178.479 Q734.7391,178.0131 734.8278,177.88 Q735.0164,177.5915 735.3492,177.5915 Q735.6155,177.5915 735.7819,177.7801 Q735.9483,177.9576 735.9483,178.3903 L735.9483,179.7881 Q735.9483,180.1764 735.8595,180.3095 Q735.6709,180.5868 735.3492,180.5868 Q735.0164,180.5868 734.8278,180.2984 Q734.7391,180.1653 734.7391,179.6882 L733.6852,179.6882 Z " fill="#000000"/><text fill="#000000" font-family="sans-serif" font-size="8.52" font-style="italic" lengthAdjust="spacing" textLength="30.53" x="743.015" y="170.3737">&#171;entity&#187;</text><text fill="#000000" font-family="sans-serif" font-size="8.52" font-style="italic" lengthAdjust="spacing" textLength="24.85" x="745.855" y="181.7059">&#171;root&#187;</text><text fill="#000000" font-family="sans-serif" font-size="9.94" lengthAdjust="spacing" textLength="24.14" x="746.21" y="194.5705">Exam</text><line style="stroke:#181818;stroke-width:0.355;" x1="724.555" x2="773.545" y1="200.6152" y2="200.6152"/><line style="stroke:#181818;stroke-width:0.355;" x1="724.555" x2="773.545" y1="206.2952" y2="206.2952"/></g><!--class ExamTitle--><g id="elem_ExamTitle"><rect codeLine="26" fill="#F1F1F1" height="43.0132" id="ExamTitle" rx="1.775" ry="1.775" style="stroke:#181818;stroke-width:0.355;" width="77.39" x="598.175" y="299.2747"/><ellipse cx="608.825" cy="315.1013" fill="#FF8B40" rx="7.81" ry="7.81" style="stroke:#181818;stroke-width:0.71;"/><path d="M609.2466,317.4199 L610.9994,313.2487 L610.722,313.2487 Q610.2894,313.2487 610.1008,313.0823 Q609.9122,312.9159 609.9122,312.6385 Q609.9122,312.3723 610.1008,312.2059 Q610.2894,312.0395 610.722,312.0395 L612.3417,312.0395 Q612.7744,312.0395 612.963,312.2059 Q613.1516,312.3723 613.1516,312.6385 Q613.1516,312.9713 612.8631,313.1599 Q612.73,313.2487 612.3084,313.2487 L609.8345,319.1838 L608.6697,319.1838 L606.1958,313.2487 Q605.7742,313.2487 605.6411,313.1599 Q605.3527,312.9713 605.3527,312.6385 Q605.3527,312.3723 605.5413,312.2059 Q605.7298,312.0395 606.1625,312.0395 L607.7933,312.0395 Q608.2259,312.0395 608.4034,312.2059 Q608.592,312.3723 608.592,312.6385 Q608.592,312.9159 608.4034,313.0823 Q608.2259,313.2487 607.7933,313.2487 L607.5048,313.2487 L609.2466,317.4199 Z " fill="#000000"/><text fill="#000000" font-family="sans-serif" font-size="8.52" font-style="italic" lengthAdjust="spacing" textLength="57.51" x="617.345" y="312.0187">&#171;value object&#187;</text><text fill="#000000" font-family="sans-serif" font-size="9.94" lengthAdjust="spacing" textLength="43.31" x="624.445" y="324.8832">ExamTitle</text><line style="stroke:#181818;stroke-width:0.355;" x1="598.885" x2="674.855" y1="330.9279" y2="330.9279"/><line style="stroke:#181818;stroke-width:0.355;" x1="598.885" x2="674.855" y1="336.6079" y2="336.6079"/></g><!--class ExamDescription--><g id="elem_ExamDescription"><rect codeLine="27" fill="#F1F1F1" height="43.0132" id="ExamDescription" rx="1.775" ry="1.775" style="stroke:#181818;stroke-width:0.355;" width="97.27" x="700.415" y="299.2747"/><ellipse cx="711.065" cy="315.1013" fill="#FF8B40" rx="7.81" ry="7.81" style="stroke:#181818;stroke-width:0.71;"/><path d="M711.4866,317.4199 L713.2394,313.2487 L712.962,313.2487 Q712.5294,313.2487 712.3408,313.0823 Q712.1522,312.9159 712.1522,312.6385 Q712.1522,312.3723 712.3408,312.2059 Q712.5294,312.0395 712.962,312.0395 L714.5817,312.0395 Q715.0144,312.0395 715.203,312.2059 Q715.3916,312.3723 715.3916,312.6385 Q715.3916,312.9713 715.1031,313.1599 Q714.97,313.2487 714.5484,313.2487 L712.0745,319.1838 L710.9097,319.1838 L708.4358,313.2487 Q708.0142,313.2487 707.8811,313.1599 Q707.5927,312.9713 707.5927,312.6385 Q707.5927,312.3723 707.7813,312.2059 Q707.9698,312.0395 708.4025,312.0395 L710.0333,312.0395 Q710.4659,312.0395 710.6434,312.2059 Q710.832,312.3723 710.832,312.6385 Q710.832,312.9159 710.6434,313.0823 Q710.4659,313.2487 710.0333,313.2487 L709.7448,313.2487 L711.4866,317.4199 Z " fill="#000000"/><text fill="#000000" font-family="sans-serif" font-size="8.52" font-style="italic" lengthAdjust="spacing" textLength="57.51" x="729.525" y="312.0187">&#171;value object&#187;</text><text fill="#000000" font-family="sans-serif" font-size="9.94" lengthAdjust="spacing" textLength="74.55" x="721.005" y="324.8832">ExamDescription</text><line style="stroke:#181818;stroke-width:0.355;" x1="701.125" x2="796.975" y1="330.9279" y2="330.9279"/><line style="stroke:#181818;stroke-width:0.355;" x1="701.125" x2="796.975" y1="336.6079" y2="336.6079"/></g><!--class ExamDateTime--><g id="elem_ExamDateTime"><rect codeLine="28" fill="#F1F1F1" height="69.4552" id="ExamDateTime" rx="1.775" ry="1.775" style="stroke:#181818;stroke-width:0.355;" width="90.17" x="822.535" y="286.1397"/><ellipse cx="833.185" cy="301.9663" fill="#FF8B40" rx="7.81" ry="7.81" style="stroke:#181818;stroke-width:0.71;"/><path d="M833.6066,304.2849 L835.3594,300.1137 L835.082,300.1137 Q834.6494,300.1137 834.4608,299.9473 Q834.2722,299.7809 834.2722,299.5035 Q834.2722,299.2373 834.4608,299.0709 Q834.6494,298.9045 835.082,298.9045 L836.7017,298.9045 Q837.1344,298.9045 837.323,299.0709 Q837.5116,299.2373 837.5116,299.5035 Q837.5116,299.8363 837.2231,300.0249 Q837.09,300.1137 836.6684,300.1137 L834.1945,306.0488 L833.0297,306.0488 L830.5558,300.1137 Q830.1342,300.1137 830.0011,300.0249 Q829.7127,299.8363 829.7127,299.5035 Q829.7127,299.2373 829.9013,299.0709 Q830.0898,298.9045 830.5225,298.9045 L832.1533,298.9045 Q832.5859,298.9045 832.7634,299.0709 Q832.952,299.2373 832.952,299.5035 Q832.952,299.7809 832.7634,299.9473 Q832.5859,300.1137 832.1533,300.1137 L831.8648,300.1137 L833.6066,304.2849 Z " fill="#000000"/><text fill="#000000" font-family="sans-serif" font-size="8.52" font-style="italic" lengthAdjust="spacing" textLength="57.51" x="848.095" y="298.8837">&#171;value object&#187;</text><text fill="#000000" font-family="sans-serif" font-size="9.94" lengthAdjust="spacing" textLength="67.45" x="843.125" y="311.7482">ExamDateTime</text><line style="stroke:#181818;stroke-width:0.355;" x1="823.245" x2="911.995" y1="317.7929" y2="317.7929"/><text fill="#000000" font-family="sans-serif" font-size="9.94" lengthAdjust="spacing" textLength="79.52" x="826.795" y="331.3592">openingDateTime</text><text fill="#000000" font-family="sans-serif" font-size="9.94" lengthAdjust="spacing" textLength="74.55" x="826.795" y="344.5802">closingDateTime</text><line style="stroke:#181818;stroke-width:0.355;" x1="823.245" x2="911.995" y1="349.9149" y2="349.9149"/></g><!--link Teacher to Acronym--><g id="link_Teacher_Acronym"><path codeLine="34" d="M988.7531,348.3712 C989.3921,363.3735 990.1873,381.9684 990.8121,396.637 " fill="none" id="Teacher-to-Acronym" style="stroke:#181818;stroke-width:0.71;"/><polygon fill="#181818" points="990.9683,400.2793,993.5313,393.7733,990.8159,396.7326,987.8565,394.0172,990.9683,400.2793" style="stroke:#181818;stroke-width:0.71;"/></g><!--link Course to CourseTitle--><g id="link_Course_CourseTitle"><path codeLine="36" d="M411.6793,58.3078 C351.6275,58.9113 207.1141,66.8775 105.79,125.6797 C91.3699,134.0506 78.9591,147.9808 69.9847,160.1573 " fill="none" id="Course-to-CourseTitle" style="stroke:#181818;stroke-width:0.71;"/><polygon fill="#181818" points="67.7766,163.2103,73.8193,159.6913,69.8544,160.3319,69.2138,156.3669,67.7766,163.2103" style="stroke:#181818;stroke-width:0.71;"/></g><!--link Course to CourseCode--><g id="link_Course_CourseCode"><path codeLine="37" d="M411.7929,61.7371 C366.6582,67.907 275.7782,84.7553 210.87,125.6797 C196.8049,134.5476 184.245,148.2151 174.9298,160.1218 " fill="none" id="Course-to-CourseCode" style="stroke:#181818;stroke-width:0.71;"/><polygon fill="#181818" points="172.6294,163.1109,178.7759,159.7765,174.7934,160.2967,174.2732,156.3142,172.6294,163.1109" style="stroke:#181818;stroke-width:0.71;"/></g><!--link Course to CourseDescription--><g id="link_Course_CourseDescription"><path codeLine="38" d="M411.7787,76.1714 C391.7709,89.1928 364.372,107.7238 341.51,125.6797 C327.5869,136.6137 312.8473,149.6919 300.898,160.7111 " fill="none" id="Course-to-CourseDescription" style="stroke:#181818;stroke-width:0.71;"/><polygon fill="#181818" points="298.2355,163.1748,304.8536,160.9168,300.8402,160.7627,300.9942,156.7493,298.2355,163.1748" style="stroke:#181818;stroke-width:0.71;"/></g><!--link Course to CourseStatus--><g id="link_Course_CourseStatus"><path codeLine="39" d="M430.3026,85.2381 C422.7269,107.2339 412.0485,138.2112 404.6645,159.6319 " fill="none" id="Course-to-CourseStatus" style="stroke:#181818;stroke-width:0.71;"/><polygon fill="#181818" points="403.4149,163.2529,408.1809,158.136,404.5709,159.8964,402.8105,156.2864,403.4149,163.2529" style="stroke:#181818;stroke-width:0.71;"/></g><!--link Course to EnrolmentLimits--><g id="link_Course_EnrolmentLimits"><path codeLine="40" d="M454.5491,85.2381 C464.6737,103.1514 478.1566,127.0287 489.3533,146.8448 " fill="none" id="Course-to-EnrolmentLimits" style="stroke:#181818;stroke-width:0.71;"/><polygon fill="#181818" points="491.1283,149.9901,490.4632,143.0291,489.3845,146.8979,485.5157,145.8192,491.1283,149.9901" style="stroke:#181818;stroke-width:0.71;"/></g><!--link Course to Exam--><g id="link_Course_Exam"><path codeLine="41" d="M467.2368,69.8453 C525.6556,93.5664 660.8325,148.4423 720.2027,172.5468 " fill="none" id="Course-to-Exam" style="stroke:#181818;stroke-width:0.71;"/><polygon fill="#181818" points="723.6604,173.9455,718.8142,168.9045,720.3728,172.6061,716.6711,174.1647,723.6604,173.9455" style="stroke:#181818;stroke-width:0.71;"/><polygon fill="#000000" points="591.8793,114.6934,586.7139,110.3443,585.144,114.211,591.8793,114.6934" style="stroke:#000000;stroke-width:0.71;"/><text fill="#000000" font-family="sans-serif" font-size="9.23" lengthAdjust="spacing" textLength="14.91" x="594.98" y="117.1798">has</text><text fill="#000000" font-family="sans-serif" font-size="9.23" lengthAdjust="spacing" textLength="4.97" x="472.8108" y="83.1742">1</text><text fill="#000000" font-family="sans-serif" font-size="9.23" lengthAdjust="spacing" textLength="14.2" x="703.8762" y="168.9501">1..*</text></g><!--link Course to Teacher--><g id="link_Course_Teacher"><path codeLine="42" d="M467.4285,58.6841 C559.9415,59.5645 854.3714,67.0195 924.42,125.6797 C949.8309,146.9584 971.777,240.6074 981.8022,289.7962 " fill="none" id="Course-to-Teacher" style="stroke:#181818;stroke-width:0.71;"/><polygon fill="#181818" points="982.5619,293.5521,984.0668,286.7233,981.852,290.0738,978.5015,287.859,982.5619,293.5521" style="stroke:#181818;stroke-width:0.71;"/><polygon fill="#000000" points="975.2282,186.5229,970.2255,181.9876,968.5151,185.7943,975.2282,186.5229" style="stroke:#000000;stroke-width:0.71;"/><text fill="#000000" font-family="sans-serif" font-size="9.23" lengthAdjust="spacing" textLength="64.61" x="978.38" y="188.8898">has responsible</text><text fill="#000000" font-family="sans-serif" font-size="9.23" lengthAdjust="spacing" textLength="4.97" x="472.8477" y="55.6907">1</text><text fill="#000000" font-family="sans-serif" font-size="9.23" lengthAdjust="spacing" textLength="4.97" x="976.2501" y="285.5379">1</text></g><!--link Course to Teacher--><g id="link_Course_Teacher"><path codeLine="43" d="M467.251,59.4651 C581.4474,63.3701 1010.827,80.9497 1049.38,125.6797 C1081.6211,163.0896 1064.8509,189.8992 1049.38,236.7947 C1042.7912,256.7741 1029.3651,275.8802 1016.7129,290.7547 " fill="none" id="Course-to-Teacher-1" style="stroke:#181818;stroke-width:0.71;"/><polygon fill="#181818" points="1014.3557,293.4811,1020.6761,290.4895,1016.671,290.7901,1016.3704,286.7849,1014.3557,293.4811" style="stroke:#181818;stroke-width:0.71;"/><polygon fill="#000000" points="1073.9519,186.4453,1068.8425,182.0306,1067.2234,185.877,1073.9519,186.4453" style="stroke:#000000;stroke-width:0.71;"/><text fill="#000000" font-family="sans-serif" font-size="9.23" lengthAdjust="spacing" textLength="35.5" x="1077.07" y="188.8898">is taught</text><text fill="#000000" font-family="sans-serif" font-size="9.23" lengthAdjust="spacing" textLength="14.2" x="472.807" y="70.6828">1..*</text><text fill="#000000" font-family="sans-serif" font-size="9.23" lengthAdjust="spacing" textLength="14.2" x="1003.5323" y="285.6619">1..*</text></g><!--link Exam to ExamTitle--><g id="link_Exam_ExamTitle"><path codeLine="45" d="M726.6211,212.5766 C706.2228,237.0432 676.3957,272.813 656.8139,296.2998 " fill="none" id="Exam-to-ExamTitle" style="stroke:#181818;stroke-width:0.71;"/><polygon fill="#181818" points="654.478,299.1043,660.7551,296.0227,656.7547,296.3805,656.3969,292.3801,654.478,299.1043" style="stroke:#181818;stroke-width:0.71;"/></g><!--link Exam to ExamDateTime--><g id="link_Exam_ExamDateTime"><path codeLine="46" d="M772.7569,212.5766 C790.6205,232.8471 815.3143,260.8637 835.031,283.2358 " fill="none" id="Exam-to-ExamDateTime" style="stroke:#181818;stroke-width:0.71;"/><polygon fill="#181818" points="837.4095,285.9338,835.2995,279.2671,835.056,283.276,831.0471,283.0326,837.4095,285.9338" style="stroke:#181818;stroke-width:0.71;"/></g><!--link Exam to ExamDescription--><g id="link_Exam_ExamDescription"><path codeLine="47" d="M749.05,212.5766 C749.05,236.745 749.05,271.9397 749.05,295.4336 " fill="none" id="Exam-to-ExamDescription" style="stroke:#181818;stroke-width:0.71;"/><polygon fill="#181818" points="749.05,299.1043,751.89,292.7143,749.05,295.5543,746.21,292.7143,749.05,299.1043" style="stroke:#181818;stroke-width:0.71;"/></g><!--link Exam to Teacher--><g id="link_Exam_Teacher"><path codeLine="48" d="M774.4254,201.5574 C801.5545,217.788 846.3484,242.4747 888.21,255.9647 C903.7164,260.9631 909.7656,254.5376 924.42,261.6447 C938.691,268.5672 951.9751,279.7994 962.6464,290.5843 " fill="none" id="Exam-to-Teacher" style="stroke:#181818;stroke-width:0.71;"/><polygon fill="#181818" points="965.3018,293.3178,962.8841,286.7564,962.8273,290.7723,958.8114,290.7155,965.3018,293.3178" style="stroke:#181818;stroke-width:0.71;"/><polygon fill="#000000" points="894.9691,250.8409,890.056,246.2087,888.2716,249.9813,894.9691,250.8409" style="stroke:#000000;stroke-width:0.71;"/><text fill="#000000" font-family="sans-serif" font-size="9.23" lengthAdjust="spacing" textLength="43.31" x="898.15" y="253.1448">created by</text><text fill="#000000" font-family="sans-serif" font-size="9.23" lengthAdjust="spacing" textLength="14.2" x="780.0071" y="201.3078">0..*</text><text fill="#000000" font-family="sans-serif" font-size="9.23" lengthAdjust="spacing" textLength="4.97" x="956.2254" y="285.6791">1</text></g><!--SRC=[dLCxJyCm4DxpAqvcu25QjH83Gb4aAEt4HiNkE5PgY7sHVO5MgFyT9sb2bBIqnUFty7s-EnFcG0Wn4g66H5afIA49Wikbv68bRP1pyS5J2ImCUPfQcNAIKGGxci5t0Fv8Gues3GfXM0DU68OMaQAeaecCEmUFmgBPQ4zTlTt2nM9n_tGtkOPFdXKIC7xt6Rn-wqFCiB1E7ifGixq8DNWaGIrQAihaaHHzpmoJSotFqWchyhAlPpfVYLFXJZRDZSLC-tU_AAt8mT_6NTlAevLHkj2j_vVWwo6nhKOpNtDzQ30brnjB2HqPIYavRoIbup_ThNm-wb9fUNAJC9T6cRJnjRZ8qFNngaNDPnWb-6L6KRFsGR1RqGRlBED-gjov_KpdyVi5zGRrkTwYD3IRCXXvcat7unjMZ-m1Ljn1D9ImzhFN4YjTZiQfsC-l8wzkwbpwQr8EY1VfYhmyg6gryPf56C9jbuTCfnKLoIQTsjt2maf_ImBnnbV-0G00]--></g></svg>