<?xml version="1.0" encoding="us-ascii" standalone="no"?><svg xmlns="http://www.w3.org/2000/svg" xmlns:xlink="http://www.w3.org/1999/xlink" contentStyleType="text/css" height="630px" preserveAspectRatio="none" style="width:1724px;height:630px;background:#FFFFFF;" version="1.1" viewBox="0 0 1724 630" width="1724.4px" zoomAndPan="magnify"><defs/><g><text fill="#000000" font-family="sans-serif" font-size="12.6" font-weight="bold" lengthAdjust="spacing" textLength="180.9" x="765.45" y="22.5967">Class Diagram (CD) - US 1009</text><!--class ApproveRejectStudentCourseUI--><g id="elem_ApproveRejectStudentCourseUI"><rect codeLine="5" fill="#F1F1F1" height="71.2828" id="ApproveRejectStudentCourseUI" rx="2.25" ry="2.25" style="stroke:#181818;stroke-width:0.45;" width="208.8" x="864.45" y="41.959"/><ellipse cx="877.95" cy="62.0209" fill="#ADD1B2" rx="9.9" ry="9.9" style="stroke:#181818;stroke-width:0.9;"/><path d="M880.4391,58.3084 Q880.5797,58.1115 880.7484,58.0131 Q880.9172,57.9146 881.1141,57.9146 Q881.4516,57.9146 881.6625,58.1537 Q881.8734,58.3787 881.8734,58.9271 L881.8734,60.235 Q881.8734,60.7834 881.6625,61.0225 Q881.4516,61.2615 881.1141,61.2615 Q880.8047,61.2615 880.6219,61.0787 Q880.4391,60.91 880.3406,60.4459 Q880.2984,60.1225 880.1297,59.9537 Q879.8344,59.6162 879.2859,59.4193 Q878.7375,59.2225 878.175,59.2225 Q877.4859,59.2225 876.9094,59.5178 Q876.3469,59.8131 875.8969,60.4881 Q875.4609,61.1631 875.4609,62.0912 L875.4609,63.0756 Q875.4609,64.1865 876.2625,64.9318 Q877.0641,65.6631 878.4984,65.6631 Q879.3422,65.6631 879.9328,65.4381 Q880.2844,65.2975 880.6641,64.9037 Q880.9031,64.6646 881.0297,64.5943 Q881.1703,64.524 881.3531,64.524 Q881.6484,64.524 881.8734,64.7631 Q882.1125,64.9881 882.1125,65.2975 Q882.1125,65.6068 881.8031,65.9725 Q881.3531,66.4928 880.6359,66.7881 Q879.6656,67.1959 878.4984,67.1959 Q877.1344,67.1959 876.0516,66.6334 Q875.1656,66.1834 874.5469,65.2271 Q873.9281,64.2568 873.9281,63.1037 L873.9281,62.0631 Q873.9281,60.8678 874.4766,59.8412 Q875.0391,58.8006 876.0234,58.2521 Q877.0078,57.6896 878.1188,57.6896 Q878.7797,57.6896 879.3563,57.8443 Q879.9469,57.985 880.4391,58.3084 Z " fill="#000000"/><text fill="#000000" font-family="sans-serif" font-size="10.8" font-style="italic" lengthAdjust="spacing" textLength="73.8" x="943.65" y="58.1133">&#171;presentation&#187;</text><text fill="#000000" font-family="sans-serif" font-size="12.6" lengthAdjust="spacing" textLength="180" x="890.55" y="74.4205">ApproveRejectStudentCourseUI</text><line style="stroke:#181818;stroke-width:0.45;" x1="865.35" x2="1072.35" y1="82.0828" y2="82.0828"/><line style="stroke:#181818;stroke-width:0.45;" x1="865.35" x2="1072.35" y1="89.2828" y2="89.2828"/><text fill="#000000" font-family="sans-serif" font-size="12.6" lengthAdjust="spacing" textLength="54" x="869.85" y="106.4795">doShow()</text></g><!--class JpaCourseRepository--><g id="elem_JpaCourseRepository"><rect codeLine="9" fill="#F1F1F1" height="54.5238" id="JpaCourseRepository" rx="2.25" ry="2.25" style="stroke:#181818;stroke-width:0.45;" width="151.2" x="224.55" y="552.709"/><ellipse cx="238.05" cy="572.7709" fill="#ADD1B2" rx="9.9" ry="9.9" style="stroke:#181818;stroke-width:0.9;"/><path d="M240.5391,569.0584 Q240.6797,568.8615 240.8484,568.7631 Q241.0172,568.6646 241.2141,568.6646 Q241.5516,568.6646 241.7625,568.9037 Q241.9734,569.1287 241.9734,569.6771 L241.9734,570.985 Q241.9734,571.5334 241.7625,571.7725 Q241.5516,572.0115 241.2141,572.0115 Q240.9047,572.0115 240.7219,571.8287 Q240.5391,571.66 240.4406,571.1959 Q240.3984,570.8725 240.2297,570.7037 Q239.9344,570.3662 239.3859,570.1693 Q238.8375,569.9725 238.275,569.9725 Q237.5859,569.9725 237.0094,570.2678 Q236.4469,570.5631 235.9969,571.2381 Q235.5609,571.9131 235.5609,572.8412 L235.5609,573.8256 Q235.5609,574.9365 236.3625,575.6818 Q237.1641,576.4131 238.5984,576.4131 Q239.4422,576.4131 240.0328,576.1881 Q240.3844,576.0475 240.7641,575.6537 Q241.0031,575.4146 241.1297,575.3443 Q241.2703,575.274 241.4531,575.274 Q241.7484,575.274 241.9734,575.5131 Q242.2125,575.7381 242.2125,576.0475 Q242.2125,576.3568 241.9031,576.7225 Q241.4531,577.2428 240.7359,577.5381 Q239.7656,577.9459 238.5984,577.9459 Q237.2344,577.9459 236.1516,577.3834 Q235.2656,576.9334 234.6469,575.9771 Q234.0281,575.0068 234.0281,573.8537 L234.0281,572.8131 Q234.0281,571.6178 234.5766,570.5912 Q235.1391,569.5506 236.1234,569.0021 Q237.1078,568.4396 238.2188,568.4396 Q238.8797,568.4396 239.4563,568.5943 Q240.0469,568.735 240.5391,569.0584 Z " fill="#000000"/><text fill="#000000" font-family="sans-serif" font-size="10.8" font-style="italic" lengthAdjust="spacing" textLength="69.3" x="277.2" y="568.8633">&#171;persistence&#187;</text><text fill="#000000" font-family="sans-serif" font-size="12.6" lengthAdjust="spacing" textLength="122.4" x="250.65" y="585.1705">JpaCourseRepository</text><line style="stroke:#181818;stroke-width:0.45;" x1="225.45" x2="374.85" y1="592.8328" y2="592.8328"/><line style="stroke:#181818;stroke-width:0.45;" x1="225.45" x2="374.85" y1="600.0328" y2="600.0328"/></g><!--class InMemoryCourseRepository--><g id="elem_InMemoryCourseRepository"><rect codeLine="10" fill="#F1F1F1" height="54.5238" id="InMemoryCourseRepository" rx="2.25" ry="2.25" style="stroke:#181818;stroke-width:0.45;" width="186.3" x="6.3" y="552.709"/><ellipse cx="19.8" cy="572.7709" fill="#ADD1B2" rx="9.9" ry="9.9" style="stroke:#181818;stroke-width:0.9;"/><path d="M22.2891,569.0584 Q22.4297,568.8615 22.5984,568.7631 Q22.7672,568.6646 22.9641,568.6646 Q23.3016,568.6646 23.5125,568.9037 Q23.7234,569.1287 23.7234,569.6771 L23.7234,570.985 Q23.7234,571.5334 23.5125,571.7725 Q23.3016,572.0115 22.9641,572.0115 Q22.6547,572.0115 22.4719,571.8287 Q22.2891,571.66 22.1906,571.1959 Q22.1484,570.8725 21.9797,570.7037 Q21.6844,570.3662 21.1359,570.1693 Q20.5875,569.9725 20.025,569.9725 Q19.3359,569.9725 18.7594,570.2678 Q18.1969,570.5631 17.7469,571.2381 Q17.3109,571.9131 17.3109,572.8412 L17.3109,573.8256 Q17.3109,574.9365 18.1125,575.6818 Q18.9141,576.4131 20.3484,576.4131 Q21.1922,576.4131 21.7828,576.1881 Q22.1344,576.0475 22.5141,575.6537 Q22.7531,575.4146 22.8797,575.3443 Q23.0203,575.274 23.2031,575.274 Q23.4984,575.274 23.7234,575.5131 Q23.9625,575.7381 23.9625,576.0475 Q23.9625,576.3568 23.6531,576.7225 Q23.2031,577.2428 22.4859,577.5381 Q21.5156,577.9459 20.3484,577.9459 Q18.9844,577.9459 17.9016,577.3834 Q17.0156,576.9334 16.3969,575.9771 Q15.7781,575.0068 15.7781,573.8537 L15.7781,572.8131 Q15.7781,571.6178 16.3266,570.5912 Q16.8891,569.5506 17.8734,569.0021 Q18.8578,568.4396 19.9688,568.4396 Q20.6297,568.4396 21.2063,568.5943 Q21.7969,568.735 22.2891,569.0584 Z " fill="#000000"/><text fill="#000000" font-family="sans-serif" font-size="10.8" font-style="italic" lengthAdjust="spacing" textLength="69.3" x="76.5" y="568.8633">&#171;persistence&#187;</text><text fill="#000000" font-family="sans-serif" font-size="12.6" lengthAdjust="spacing" textLength="157.5" x="32.4" y="585.1705">InMemoryCourseRepository</text><line style="stroke:#181818;stroke-width:0.45;" x1="7.2" x2="191.7" y1="592.8328" y2="592.8328"/><line style="stroke:#181818;stroke-width:0.45;" x1="7.2" x2="191.7" y1="600.0328" y2="600.0328"/></g><!--class JpaEnrollementRepository--><g id="elem_JpaEnrollementRepository"><rect codeLine="11" fill="#F1F1F1" height="54.5238" id="JpaEnrollementRepository" rx="2.25" ry="2.25" style="stroke:#181818;stroke-width:0.45;" width="177.3" x="1063.8" y="552.709"/><ellipse cx="1077.3" cy="572.7709" fill="#ADD1B2" rx="9.9" ry="9.9" style="stroke:#181818;stroke-width:0.9;"/><path d="M1079.7891,569.0584 Q1079.9297,568.8615 1080.0984,568.7631 Q1080.2672,568.6646 1080.4641,568.6646 Q1080.8016,568.6646 1081.0125,568.9037 Q1081.2234,569.1287 1081.2234,569.6771 L1081.2234,570.985 Q1081.2234,571.5334 1081.0125,571.7725 Q1080.8016,572.0115 1080.4641,572.0115 Q1080.1547,572.0115 1079.9719,571.8287 Q1079.7891,571.66 1079.6906,571.1959 Q1079.6484,570.8725 1079.4797,570.7037 Q1079.1844,570.3662 1078.6359,570.1693 Q1078.0875,569.9725 1077.525,569.9725 Q1076.8359,569.9725 1076.2594,570.2678 Q1075.6969,570.5631 1075.2469,571.2381 Q1074.8109,571.9131 1074.8109,572.8412 L1074.8109,573.8256 Q1074.8109,574.9365 1075.6125,575.6818 Q1076.4141,576.4131 1077.8484,576.4131 Q1078.6922,576.4131 1079.2828,576.1881 Q1079.6344,576.0475 1080.0141,575.6537 Q1080.2531,575.4146 1080.3797,575.3443 Q1080.5203,575.274 1080.7031,575.274 Q1080.9984,575.274 1081.2234,575.5131 Q1081.4625,575.7381 1081.4625,576.0475 Q1081.4625,576.3568 1081.1531,576.7225 Q1080.7031,577.2428 1079.9859,577.5381 Q1079.0156,577.9459 1077.8484,577.9459 Q1076.4844,577.9459 1075.4016,577.3834 Q1074.5156,576.9334 1073.8969,575.9771 Q1073.2781,575.0068 1073.2781,573.8537 L1073.2781,572.8131 Q1073.2781,571.6178 1073.8266,570.5912 Q1074.3891,569.5506 1075.3734,569.0021 Q1076.3578,568.4396 1077.4688,568.4396 Q1078.1297,568.4396 1078.7063,568.5943 Q1079.2969,568.735 1079.7891,569.0584 Z " fill="#000000"/><text fill="#000000" font-family="sans-serif" font-size="10.8" font-style="italic" lengthAdjust="spacing" textLength="69.3" x="1129.5" y="568.8633">&#171;persistence&#187;</text><text fill="#000000" font-family="sans-serif" font-size="12.6" lengthAdjust="spacing" textLength="148.5" x="1089.9" y="585.1705">JpaEnrollementRepository</text><line style="stroke:#181818;stroke-width:0.45;" x1="1064.7" x2="1240.2" y1="592.8328" y2="592.8328"/><line style="stroke:#181818;stroke-width:0.45;" x1="1064.7" x2="1240.2" y1="600.0328" y2="600.0328"/></g><!--class InMemoryEnrollementRepository--><g id="elem_InMemoryEnrollementRepository"><rect codeLine="12" fill="#F1F1F1" height="54.5238" id="InMemoryEnrollementRepository" rx="2.25" ry="2.25" style="stroke:#181818;stroke-width:0.45;" width="212.4" x="819.45" y="552.709"/><ellipse cx="832.95" cy="572.7709" fill="#ADD1B2" rx="9.9" ry="9.9" style="stroke:#181818;stroke-width:0.9;"/><path d="M835.4391,569.0584 Q835.5797,568.8615 835.7484,568.7631 Q835.9172,568.6646 836.1141,568.6646 Q836.4516,568.6646 836.6625,568.9037 Q836.8734,569.1287 836.8734,569.6771 L836.8734,570.985 Q836.8734,571.5334 836.6625,571.7725 Q836.4516,572.0115 836.1141,572.0115 Q835.8047,572.0115 835.6219,571.8287 Q835.4391,571.66 835.3406,571.1959 Q835.2984,570.8725 835.1297,570.7037 Q834.8344,570.3662 834.2859,570.1693 Q833.7375,569.9725 833.175,569.9725 Q832.4859,569.9725 831.9094,570.2678 Q831.3469,570.5631 830.8969,571.2381 Q830.4609,571.9131 830.4609,572.8412 L830.4609,573.8256 Q830.4609,574.9365 831.2625,575.6818 Q832.0641,576.4131 833.4984,576.4131 Q834.3422,576.4131 834.9328,576.1881 Q835.2844,576.0475 835.6641,575.6537 Q835.9031,575.4146 836.0297,575.3443 Q836.1703,575.274 836.3531,575.274 Q836.6484,575.274 836.8734,575.5131 Q837.1125,575.7381 837.1125,576.0475 Q837.1125,576.3568 836.8031,576.7225 Q836.3531,577.2428 835.6359,577.5381 Q834.6656,577.9459 833.4984,577.9459 Q832.1344,577.9459 831.0516,577.3834 Q830.1656,576.9334 829.5469,575.9771 Q828.9281,575.0068 828.9281,573.8537 L828.9281,572.8131 Q828.9281,571.6178 829.4766,570.5912 Q830.0391,569.5506 831.0234,569.0021 Q832.0078,568.4396 833.1188,568.4396 Q833.7797,568.4396 834.3563,568.5943 Q834.9469,568.735 835.4391,569.0584 Z " fill="#000000"/><text fill="#000000" font-family="sans-serif" font-size="10.8" font-style="italic" lengthAdjust="spacing" textLength="69.3" x="902.7" y="568.8633">&#171;persistence&#187;</text><text fill="#000000" font-family="sans-serif" font-size="12.6" lengthAdjust="spacing" textLength="183.6" x="845.55" y="585.1705">InMemoryEnrollementRepository</text><line style="stroke:#181818;stroke-width:0.45;" x1="820.35" x2="1030.95" y1="592.8328" y2="592.8328"/><line style="stroke:#181818;stroke-width:0.45;" x1="820.35" x2="1030.95" y1="600.0328" y2="600.0328"/></g><!--class Course--><g id="elem_Course"><rect codeLine="14" fill="#F1F1F1" height="88.0418" id="Course" rx="2.25" ry="2.25" style="stroke:#181818;stroke-width:0.45;" width="311.4" x="301.95" y="376.759"/><ellipse cx="430.425" cy="396.8209" fill="#ADD1B2" rx="9.9" ry="9.9" style="stroke:#181818;stroke-width:0.9;"/><path d="M432.9141,393.1084 Q433.0547,392.9115 433.2234,392.8131 Q433.3922,392.7146 433.5891,392.7146 Q433.9266,392.7146 434.1375,392.9537 Q434.3484,393.1787 434.3484,393.7271 L434.3484,395.035 Q434.3484,395.5834 434.1375,395.8225 Q433.9266,396.0615 433.5891,396.0615 Q433.2797,396.0615 433.0969,395.8787 Q432.9141,395.71 432.8156,395.2459 Q432.7734,394.9225 432.6047,394.7537 Q432.3094,394.4162 431.7609,394.2193 Q431.2125,394.0225 430.65,394.0225 Q429.9609,394.0225 429.3844,394.3178 Q428.8219,394.6131 428.3719,395.2881 Q427.9359,395.9631 427.9359,396.8912 L427.9359,397.8756 Q427.9359,398.9865 428.7375,399.7318 Q429.5391,400.4631 430.9734,400.4631 Q431.8172,400.4631 432.4078,400.2381 Q432.7594,400.0975 433.1391,399.7037 Q433.3781,399.4646 433.5047,399.3943 Q433.6453,399.324 433.8281,399.324 Q434.1234,399.324 434.3484,399.5631 Q434.5875,399.7881 434.5875,400.0975 Q434.5875,400.4068 434.2781,400.7725 Q433.8281,401.2928 433.1109,401.5881 Q432.1406,401.9959 430.9734,401.9959 Q429.6094,401.9959 428.5266,401.4334 Q427.6406,400.9834 427.0219,400.0271 Q426.4031,399.0568 426.4031,397.9037 L426.4031,396.8631 Q426.4031,395.6678 426.9516,394.6412 Q427.5141,393.6006 428.4984,393.0521 Q429.4828,392.4896 430.5938,392.4896 Q431.2547,392.4896 431.8313,392.6443 Q432.4219,392.785 432.9141,393.1084 Z " fill="#000000"/><text fill="#000000" font-family="sans-serif" font-size="10.8" font-style="italic" lengthAdjust="spacing" textLength="50.4" x="447.075" y="392.9133">&#171;domain&#187;</text><text fill="#000000" font-family="sans-serif" font-size="12.6" lengthAdjust="spacing" textLength="41.4" x="451.575" y="409.2205">Course</text><line style="stroke:#181818;stroke-width:0.45;" x1="302.85" x2="612.45" y1="416.8828" y2="416.8828"/><line style="stroke:#181818;stroke-width:0.45;" x1="302.85" x2="612.45" y1="424.0828" y2="424.0828"/><ellipse cx="311.85" cy="437.4123" fill="#84BE84" rx="2.7" ry="2.7" style="stroke:#038048;stroke-width:0.9;"/><text fill="#000000" font-family="sans-serif" font-size="12.6" lengthAdjust="spacing" textLength="288" x="319.95" y="441.2795">approveCourseEnrollment(Enrollement enrollment)</text><ellipse cx="311.85" cy="454.1713" fill="#84BE84" rx="2.7" ry="2.7" style="stroke:#038048;stroke-width:0.9;"/><text fill="#000000" font-family="sans-serif" font-size="12.6" lengthAdjust="spacing" textLength="272.7" x="319.95" y="458.0385">rejectCourseEnrollment(Enrollement enrollment)</text></g><!--class CourseCode--><g id="elem_CourseCode"><rect codeLine="18" fill="#F1F1F1" height="54.5238" id="CourseCode" rx="2.25" ry="2.25" style="stroke:#181818;stroke-width:0.45;" width="100.8" x="407.25" y="552.709"/><ellipse cx="420.75" cy="572.7709" fill="#FF8B40" rx="9.9" ry="9.9" style="stroke:#181818;stroke-width:0.9;"/><path d="M421.2844,575.71 L423.5063,570.4225 L423.1547,570.4225 Q422.6063,570.4225 422.3672,570.2115 Q422.1281,570.0006 422.1281,569.649 Q422.1281,569.3115 422.3672,569.1006 Q422.6063,568.8896 423.1547,568.8896 L425.2078,568.8896 Q425.7563,568.8896 425.9953,569.1006 Q426.2344,569.3115 426.2344,569.649 Q426.2344,570.0709 425.8688,570.31 Q425.7,570.4225 425.1656,570.4225 L422.0297,577.9459 L420.5531,577.9459 L417.4172,570.4225 Q416.8828,570.4225 416.7141,570.31 Q416.3484,570.0709 416.3484,569.649 Q416.3484,569.3115 416.5875,569.1006 Q416.8266,568.8896 417.375,568.8896 L419.4422,568.8896 Q419.9906,568.8896 420.2156,569.1006 Q420.4547,569.3115 420.4547,569.649 Q420.4547,570.0006 420.2156,570.2115 Q419.9906,570.4225 419.4422,570.4225 L419.0766,570.4225 L421.2844,575.71 Z " fill="#000000"/><text fill="#000000" font-family="sans-serif" font-size="10.8" font-style="italic" lengthAdjust="spacing" textLength="72.9" x="432.9" y="568.8633">&#171;value object&#187;</text><text fill="#000000" font-family="sans-serif" font-size="12.6" lengthAdjust="spacing" textLength="72" x="433.35" y="585.1705">CourseCode</text><line style="stroke:#181818;stroke-width:0.45;" x1="408.15" x2="507.15" y1="592.8328" y2="592.8328"/><line style="stroke:#181818;stroke-width:0.45;" x1="408.15" x2="507.15" y1="600.0328" y2="600.0328"/></g><!--class Enrollement--><g id="elem_Enrollement"><rect codeLine="19" fill="#F1F1F1" height="54.5238" id="Enrollement" rx="2.25" ry="2.25" style="stroke:#181818;stroke-width:0.45;" width="96.3" x="1549.8" y="393.409"/><ellipse cx="1563.3" cy="413.4709" fill="#ADD1B2" rx="9.9" ry="9.9" style="stroke:#181818;stroke-width:0.9;"/><path d="M1565.7891,409.7584 Q1565.9297,409.5615 1566.0984,409.4631 Q1566.2672,409.3646 1566.4641,409.3646 Q1566.8016,409.3646 1567.0125,409.6037 Q1567.2234,409.8287 1567.2234,410.3771 L1567.2234,411.685 Q1567.2234,412.2334 1567.0125,412.4725 Q1566.8016,412.7115 1566.4641,412.7115 Q1566.1547,412.7115 1565.9719,412.5287 Q1565.7891,412.36 1565.6906,411.8959 Q1565.6484,411.5725 1565.4797,411.4037 Q1565.1844,411.0662 1564.6359,410.8693 Q1564.0875,410.6725 1563.525,410.6725 Q1562.8359,410.6725 1562.2594,410.9678 Q1561.6969,411.2631 1561.2469,411.9381 Q1560.8109,412.6131 1560.8109,413.5412 L1560.8109,414.5256 Q1560.8109,415.6365 1561.6125,416.3818 Q1562.4141,417.1131 1563.8484,417.1131 Q1564.6922,417.1131 1565.2828,416.8881 Q1565.6344,416.7475 1566.0141,416.3537 Q1566.2531,416.1146 1566.3797,416.0443 Q1566.5203,415.974 1566.7031,415.974 Q1566.9984,415.974 1567.2234,416.2131 Q1567.4625,416.4381 1567.4625,416.7475 Q1567.4625,417.0568 1567.1531,417.4225 Q1566.7031,417.9428 1565.9859,418.2381 Q1565.0156,418.6459 1563.8484,418.6459 Q1562.4844,418.6459 1561.4016,418.0834 Q1560.5156,417.6334 1559.8969,416.6771 Q1559.2781,415.7068 1559.2781,414.5537 L1559.2781,413.5131 Q1559.2781,412.3178 1559.8266,411.2912 Q1560.3891,410.2506 1561.3734,409.7021 Q1562.3578,409.1396 1563.4688,409.1396 Q1564.1297,409.1396 1564.7063,409.2943 Q1565.2969,409.435 1565.7891,409.7584 Z " fill="#000000"/><text fill="#000000" font-family="sans-serif" font-size="10.8" font-style="italic" lengthAdjust="spacing" textLength="50.4" x="1584.45" y="409.5633">&#171;domain&#187;</text><text fill="#000000" font-family="sans-serif" font-size="12.6" lengthAdjust="spacing" textLength="67.5" x="1575.9" y="425.8705">Enrollement</text><line style="stroke:#181818;stroke-width:0.45;" x1="1550.7" x2="1645.2" y1="433.5328" y2="433.5328"/><line style="stroke:#181818;stroke-width:0.45;" x1="1550.7" x2="1645.2" y1="440.7328" y2="440.7328"/></g><!--class ApproveRejectStudentCourseController--><g id="elem_ApproveRejectStudentCourseController"><rect codeLine="21" fill="#F1F1F1" height="121.5598" id="ApproveRejectStudentCourseController" rx="2.25" ry="2.25" style="stroke:#181818;stroke-width:0.45;" width="440.1" x="748.8" y="184.159"/><ellipse cx="852.525" cy="204.2209" fill="#ADD1B2" rx="9.9" ry="9.9" style="stroke:#181818;stroke-width:0.9;"/><path d="M855.0141,200.5084 Q855.1547,200.3115 855.3234,200.2131 Q855.4922,200.1146 855.6891,200.1146 Q856.0266,200.1146 856.2375,200.3537 Q856.4484,200.5787 856.4484,201.1271 L856.4484,202.435 Q856.4484,202.9834 856.2375,203.2225 Q856.0266,203.4615 855.6891,203.4615 Q855.3797,203.4615 855.1969,203.2787 Q855.0141,203.11 854.9156,202.6459 Q854.8734,202.3225 854.7047,202.1537 Q854.4094,201.8162 853.8609,201.6193 Q853.3125,201.4225 852.75,201.4225 Q852.0609,201.4225 851.4844,201.7178 Q850.9219,202.0131 850.4719,202.6881 Q850.0359,203.3631 850.0359,204.2912 L850.0359,205.2756 Q850.0359,206.3865 850.8375,207.1318 Q851.6391,207.8631 853.0734,207.8631 Q853.9172,207.8631 854.5078,207.6381 Q854.8594,207.4975 855.2391,207.1037 Q855.4781,206.8646 855.6047,206.7943 Q855.7453,206.724 855.9281,206.724 Q856.2234,206.724 856.4484,206.9631 Q856.6875,207.1881 856.6875,207.4975 Q856.6875,207.8068 856.3781,208.1725 Q855.9281,208.6928 855.2109,208.9881 Q854.2406,209.3959 853.0734,209.3959 Q851.7094,209.3959 850.6266,208.8334 Q849.7406,208.3834 849.1219,207.4271 Q848.5031,206.4568 848.5031,205.3037 L848.5031,204.2631 Q848.5031,203.0678 849.0516,202.0412 Q849.6141,201.0006 850.5984,200.4521 Q851.5828,199.8896 852.6938,199.8896 Q853.3547,199.8896 853.9313,200.0443 Q854.5219,200.185 855.0141,200.5084 Z " fill="#000000"/><text fill="#000000" font-family="sans-serif" font-size="10.8" font-style="italic" lengthAdjust="spacing" textLength="66.6" x="950.175" y="200.3133">&#171;application&#187;</text><text fill="#000000" font-family="sans-serif" font-size="12.6" lengthAdjust="spacing" textLength="225" x="870.975" y="216.6205">ApproveRejectStudentCourseController</text><line style="stroke:#181818;stroke-width:0.45;" x1="749.7" x2="1188" y1="224.2828" y2="224.2828"/><line style="stroke:#181818;stroke-width:0.45;" x1="749.7" x2="1188" y1="231.4828" y2="231.4828"/><ellipse cx="758.7" cy="244.8123" fill="#84BE84" rx="2.7" ry="2.7" style="stroke:#038048;stroke-width:0.9;"/><text fill="#000000" font-family="sans-serif" font-size="12.6" lengthAdjust="spacing" textLength="223.2" x="766.8" y="248.6795">Iterable&lt;Course&gt; listAllEnrollCourses();</text><ellipse cx="758.7" cy="261.5713" fill="#84BE84" rx="2.7" ry="2.7" style="stroke:#038048;stroke-width:0.9;"/><text fill="#000000" font-family="sans-serif" font-size="12.6" lengthAdjust="spacing" textLength="416.7" x="766.8" y="265.4385">Iterable&lt;Enrollment&gt; listAllPendingEnrollments(CourseCode courseCode)</text><ellipse cx="758.7" cy="278.3303" fill="#84BE84" rx="2.7" ry="2.7" style="stroke:#038048;stroke-width:0.9;"/><text fill="#000000" font-family="sans-serif" font-size="12.6" lengthAdjust="spacing" textLength="389.7" x="766.8" y="282.1975">Course approvedEnrollment(Course course, Enrollement enrollment)</text><ellipse cx="758.7" cy="295.0893" fill="#84BE84" rx="2.7" ry="2.7" style="stroke:#038048;stroke-width:0.9;"/><text fill="#000000" font-family="sans-serif" font-size="12.6" lengthAdjust="spacing" textLength="367.2" x="766.8" y="298.9564">Course rejectEnrollment(Course course, Enrollement enrollment)</text></g><!--class ListCourseService--><g id="elem_ListCourseService"><rect codeLine="27" fill="#F1F1F1" height="71.2828" id="ListCourseService" rx="2.25" ry="2.25" style="stroke:#181818;stroke-width:0.45;" width="226.8" x="644.85" y="385.309"/><ellipse cx="702.675" cy="405.3709" fill="#ADD1B2" rx="9.9" ry="9.9" style="stroke:#181818;stroke-width:0.9;"/><path d="M705.1641,401.6584 Q705.3047,401.4615 705.4734,401.3631 Q705.6422,401.2646 705.8391,401.2646 Q706.1766,401.2646 706.3875,401.5037 Q706.5984,401.7287 706.5984,402.2771 L706.5984,403.585 Q706.5984,404.1334 706.3875,404.3725 Q706.1766,404.6115 705.8391,404.6115 Q705.5297,404.6115 705.3469,404.4287 Q705.1641,404.26 705.0656,403.7959 Q705.0234,403.4725 704.8547,403.3037 Q704.5594,402.9662 704.0109,402.7693 Q703.4625,402.5725 702.9,402.5725 Q702.2109,402.5725 701.6344,402.8678 Q701.0719,403.1631 700.6219,403.8381 Q700.1859,404.5131 700.1859,405.4412 L700.1859,406.4256 Q700.1859,407.5365 700.9875,408.2818 Q701.7891,409.0131 703.2234,409.0131 Q704.0672,409.0131 704.6578,408.7881 Q705.0094,408.6475 705.3891,408.2537 Q705.6281,408.0146 705.7547,407.9443 Q705.8953,407.874 706.0781,407.874 Q706.3734,407.874 706.5984,408.1131 Q706.8375,408.3381 706.8375,408.6475 Q706.8375,408.9568 706.5281,409.3225 Q706.0781,409.8428 705.3609,410.1381 Q704.3906,410.5459 703.2234,410.5459 Q701.8594,410.5459 700.7766,409.9834 Q699.8906,409.5334 699.2719,408.5771 Q698.6531,407.6068 698.6531,406.4537 L698.6531,405.4131 Q698.6531,404.2178 699.2016,403.1912 Q699.7641,402.1506 700.7484,401.6021 Q701.7328,401.0396 702.8438,401.0396 Q703.5047,401.0396 704.0813,401.1943 Q704.6719,401.335 705.1641,401.6584 Z " fill="#000000"/><text fill="#000000" font-family="sans-serif" font-size="10.8" font-style="italic" lengthAdjust="spacing" textLength="66.6" x="739.575" y="401.4633">&#171;application&#187;</text><text fill="#000000" font-family="sans-serif" font-size="12.6" lengthAdjust="spacing" textLength="103.5" x="721.125" y="417.7705">ListCourseService</text><line style="stroke:#181818;stroke-width:0.45;" x1="645.75" x2="870.75" y1="425.4328" y2="425.4328"/><line style="stroke:#181818;stroke-width:0.45;" x1="645.75" x2="870.75" y1="432.6328" y2="432.6328"/><ellipse cx="654.75" cy="445.9623" fill="#84BE84" rx="2.7" ry="2.7" style="stroke:#038048;stroke-width:0.9;"/><text fill="#000000" font-family="sans-serif" font-size="12.6" lengthAdjust="spacing" textLength="203.4" x="662.85" y="449.8295">Iterable&lt;Course&gt; allEnrollCourses()</text></g><!--class ListEnrollementService--><g id="elem_ListEnrollementService"><rect codeLine="30" fill="#F1F1F1" height="71.2828" id="ListEnrollementService" rx="2.25" ry="2.25" style="stroke:#181818;stroke-width:0.45;" width="423.9" x="990.9" y="385.309"/><ellipse cx="1134.225" cy="405.3709" fill="#ADD1B2" rx="9.9" ry="9.9" style="stroke:#181818;stroke-width:0.9;"/><path d="M1136.7141,401.6584 Q1136.8547,401.4615 1137.0234,401.3631 Q1137.1922,401.2646 1137.3891,401.2646 Q1137.7266,401.2646 1137.9375,401.5037 Q1138.1484,401.7287 1138.1484,402.2771 L1138.1484,403.585 Q1138.1484,404.1334 1137.9375,404.3725 Q1137.7266,404.6115 1137.3891,404.6115 Q1137.0797,404.6115 1136.8969,404.4287 Q1136.7141,404.26 1136.6156,403.7959 Q1136.5734,403.4725 1136.4047,403.3037 Q1136.1094,402.9662 1135.5609,402.7693 Q1135.0125,402.5725 1134.45,402.5725 Q1133.7609,402.5725 1133.1844,402.8678 Q1132.6219,403.1631 1132.1719,403.8381 Q1131.7359,404.5131 1131.7359,405.4412 L1131.7359,406.4256 Q1131.7359,407.5365 1132.5375,408.2818 Q1133.3391,409.0131 1134.7734,409.0131 Q1135.6172,409.0131 1136.2078,408.7881 Q1136.5594,408.6475 1136.9391,408.2537 Q1137.1781,408.0146 1137.3047,407.9443 Q1137.4453,407.874 1137.6281,407.874 Q1137.9234,407.874 1138.1484,408.1131 Q1138.3875,408.3381 1138.3875,408.6475 Q1138.3875,408.9568 1138.0781,409.3225 Q1137.6281,409.8428 1136.9109,410.1381 Q1135.9406,410.5459 1134.7734,410.5459 Q1133.4094,410.5459 1132.3266,409.9834 Q1131.4406,409.5334 1130.8219,408.5771 Q1130.2031,407.6068 1130.2031,406.4537 L1130.2031,405.4131 Q1130.2031,404.2178 1130.7516,403.1912 Q1131.3141,402.1506 1132.2984,401.6021 Q1133.2828,401.0396 1134.3938,401.0396 Q1135.0547,401.0396 1135.6313,401.1943 Q1136.2219,401.335 1136.7141,401.6584 Z " fill="#000000"/><text fill="#000000" font-family="sans-serif" font-size="10.8" font-style="italic" lengthAdjust="spacing" textLength="66.6" x="1184.175" y="401.4633">&#171;application&#187;</text><text fill="#000000" font-family="sans-serif" font-size="12.6" lengthAdjust="spacing" textLength="129.6" x="1152.675" y="417.7705">ListEnrollementService</text><line style="stroke:#181818;stroke-width:0.45;" x1="991.8" x2="1413.9" y1="425.4328" y2="425.4328"/><line style="stroke:#181818;stroke-width:0.45;" x1="991.8" x2="1413.9" y1="432.6328" y2="432.6328"/><ellipse cx="1000.8" cy="445.9623" fill="#84BE84" rx="2.7" ry="2.7" style="stroke:#038048;stroke-width:0.9;"/><text fill="#000000" font-family="sans-serif" font-size="12.6" lengthAdjust="spacing" textLength="400.5" x="1008.9" y="449.8295">Iterable&lt;Enrollment&gt; allPendingEnrollments(CourseCode courseCode)</text></g><!--class CourseRepository--><g id="elem_CourseRepository"><rect codeLine="34" fill="#F1F1F1" height="88.0418" id="CourseRepository" rx="2.25" ry="2.25" style="stroke:#181818;stroke-width:0.45;" width="248.4" x="539.55" y="536.059"/><ellipse cx="608.625" cy="556.1209" fill="#B4A7E5" rx="9.9" ry="9.9" style="stroke:#181818;stroke-width:0.9;"/><path d="M609.4828,553.0975 L609.4828,559.0881 L611.0297,559.0881 Q611.5781,559.0881 611.8172,559.299 Q612.0563,559.51 612.0563,559.8615 Q612.0563,560.199 611.8172,560.41 Q611.5781,560.6209 611.0297,560.6209 L606.4031,560.6209 Q605.8547,560.6209 605.6156,560.41 Q605.3766,560.199 605.3766,559.8475 Q605.3766,559.51 605.6156,559.299 Q605.8547,559.0881 606.4031,559.0881 L607.95,559.0881 L607.95,553.0975 L606.4031,553.0975 Q605.8547,553.0975 605.6156,552.8865 Q605.3766,552.6756 605.3766,552.324 Q605.3766,551.9865 605.6156,551.7756 Q605.8547,551.5646 606.4031,551.5646 L611.0297,551.5646 Q611.5781,551.5646 611.8172,551.7756 Q612.0563,551.9865 612.0563,552.324 Q612.0563,552.6756 611.8172,552.8865 Q611.5781,553.0975 611.0297,553.0975 L609.4828,553.0975 Z " fill="#000000"/><text fill="#000000" font-family="sans-serif" font-size="10.8" font-style="italic" lengthAdjust="spacing" textLength="70.2" x="643.275" y="552.2133">&#171;repositories&#187;</text><text fill="#000000" font-family="sans-serif" font-size="12.6" font-style="italic" lengthAdjust="spacing" textLength="102.6" x="627.075" y="568.5205">CourseRepository</text><line style="stroke:#181818;stroke-width:0.45;" x1="540.45" x2="787.05" y1="576.1828" y2="576.1828"/><line style="stroke:#181818;stroke-width:0.45;" x1="540.45" x2="787.05" y1="583.3828" y2="583.3828"/><ellipse cx="549.45" cy="596.7123" fill="#84BE84" rx="2.7" ry="2.7" style="stroke:#038048;stroke-width:0.9;"/><text fill="#000000" font-family="sans-serif" font-size="12.6" lengthAdjust="spacing" textLength="225" x="557.55" y="600.5795">Iterable&lt;Course&gt; findAllEnrollCourses()</text><ellipse cx="549.45" cy="613.4713" fill="#84BE84" rx="2.7" ry="2.7" style="stroke:#038048;stroke-width:0.9;"/><text fill="#000000" font-family="sans-serif" font-size="12.6" lengthAdjust="spacing" textLength="164.7" x="557.55" y="617.3385">Course save(Course course)</text></g><!--class EnrollementRepository--><g id="elem_EnrollementRepository"><rect codeLine="39" fill="#F1F1F1" height="71.2828" id="EnrollementRepository" rx="2.25" ry="2.25" style="stroke:#181818;stroke-width:0.45;" width="445.5" x="1272.6" y="544.609"/><ellipse cx="1427.175" cy="564.6709" fill="#B4A7E5" rx="9.9" ry="9.9" style="stroke:#181818;stroke-width:0.9;"/><path d="M1428.0328,561.6475 L1428.0328,567.6381 L1429.5797,567.6381 Q1430.1281,567.6381 1430.3672,567.849 Q1430.6063,568.06 1430.6063,568.4115 Q1430.6063,568.749 1430.3672,568.96 Q1430.1281,569.1709 1429.5797,569.1709 L1424.9531,569.1709 Q1424.4047,569.1709 1424.1656,568.96 Q1423.9266,568.749 1423.9266,568.3975 Q1423.9266,568.06 1424.1656,567.849 Q1424.4047,567.6381 1424.9531,567.6381 L1426.5,567.6381 L1426.5,561.6475 L1424.9531,561.6475 Q1424.4047,561.6475 1424.1656,561.4365 Q1423.9266,561.2256 1423.9266,560.874 Q1423.9266,560.5365 1424.1656,560.3256 Q1424.4047,560.1146 1424.9531,560.1146 L1429.5797,560.1146 Q1430.1281,560.1146 1430.3672,560.3256 Q1430.6063,560.5365 1430.6063,560.874 Q1430.6063,561.2256 1430.3672,561.4365 Q1430.1281,561.6475 1429.5797,561.6475 L1428.0328,561.6475 Z " fill="#000000"/><text fill="#000000" font-family="sans-serif" font-size="10.8" font-style="italic" lengthAdjust="spacing" textLength="70.2" x="1474.875" y="560.7633">&#171;repositories&#187;</text><text fill="#000000" font-family="sans-serif" font-size="12.6" font-style="italic" lengthAdjust="spacing" textLength="128.7" x="1445.625" y="577.0705">EnrollementRepository</text><line style="stroke:#181818;stroke-width:0.45;" x1="1273.5" x2="1717.2" y1="584.7328" y2="584.7328"/><line style="stroke:#181818;stroke-width:0.45;" x1="1273.5" x2="1717.2" y1="591.9328" y2="591.9328"/><ellipse cx="1282.5" cy="605.2623" fill="#84BE84" rx="2.7" ry="2.7" style="stroke:#038048;stroke-width:0.9;"/><text fill="#000000" font-family="sans-serif" font-size="12.6" lengthAdjust="spacing" textLength="422.1" x="1290.6" y="609.1295">Iterable&lt;Enrollment&gt; findAllPendingEnrollments(CourseCode courseCode)</text></g><!--link ApproveRejectStudentCourseUI to ApproveRejectStudentCourseController--><g id="link_ApproveRejectStudentCourseUI_ApproveRejectStudentCourseController"><path codeLine="44" d="M968.85,113.122 C968.85,132.247 968.85,156.61 968.85,179.119 " fill="none" id="ApproveRejectStudentCourseUI-to-ApproveRejectStudentCourseController" style="stroke:#181818;stroke-width:0.9;"/><polygon fill="#181818" points="968.85,183.898,972.45,175.798,968.85,179.398,965.25,175.798,968.85,183.898" style="stroke:#181818;stroke-width:0.9;"/><text fill="#000000" font-family="sans-serif" font-size="11.7" lengthAdjust="spacing" textLength="65.7" x="969.75" y="153.5845">theController</text></g><!--link ApproveRejectStudentCourseController to CourseRepository--><g id="link_ApproveRejectStudentCourseController_CourseRepository"><path codeLine="45" d="M959.112,305.713 C948.645,353.629 927.801,420.013 887.85,464.959 C861.993,494.056 826.974,516.745 792.315,533.962 " fill="none" id="ApproveRejectStudentCourseController-to-CourseRepository" style="stroke:#181818;stroke-width:0.9;"/><polygon fill="#181818" points="788.085,536.032,796.9427,535.6974,792.1252,534.0505,793.7722,529.2331,788.085,536.032" style="stroke:#181818;stroke-width:0.9;"/><text fill="#000000" font-family="sans-serif" font-size="11.7" lengthAdjust="spacing" textLength="22.5" x="939.15" y="425.8345">repo</text></g><!--link ApproveRejectStudentCourseController to EnrollementRepository--><g id="link_ApproveRejectStudentCourseController_EnrollementRepository"><path codeLine="46" d="M1189.107,263.899 C1274.022,281.269 1366.02,314.344 1430.55,376.759 C1475.316,420.049 1489.221,494.227 1493.496,539.785 " fill="none" id="ApproveRejectStudentCourseController-to-EnrollementRepository" style="stroke:#181818;stroke-width:0.9;"/><polygon fill="#181818" points="1493.91,544.375,1496.7792,535.9882,1493.5119,539.8926,1489.6075,536.6253,1493.91,544.375" style="stroke:#181818;stroke-width:0.9;"/><text fill="#000000" font-family="sans-serif" font-size="11.7" lengthAdjust="spacing" textLength="22.5" x="1480.05" y="425.8345">repo</text></g><!--link ApproveRejectStudentCourseController to ListCourseService--><g id="link_ApproveRejectStudentCourseController_ListCourseService"><path codeLine="47" d="M896.373,305.74 C865.746,331.075 830.997,359.803 804.015,382.114 " fill="none" id="ApproveRejectStudentCourseController-to-ListCourseService" style="stroke:#181818;stroke-width:0.9;"/><polygon fill="#181818" points="800.424,385.084,808.9618,382.7015,803.8936,382.2183,804.3768,377.1502,800.424,385.084" style="stroke:#181818;stroke-width:0.9;"/><text fill="#000000" font-family="sans-serif" font-size="11.7" lengthAdjust="spacing" textLength="36" x="864.45" y="346.1845">service</text></g><!--link ApproveRejectStudentCourseController to ListEnrollementService--><g id="link_ApproveRejectStudentCourseController_ListEnrollementService"><path codeLine="48" d="M1049.382,305.74 C1083.555,331.174 1122.336,360.037 1152.369,382.393 " fill="none" id="ApproveRejectStudentCourseController-to-ListEnrollementService" style="stroke:#181818;stroke-width:0.9;"/><polygon fill="#181818" points="1155.987,385.084,1151.6361,377.3613,1152.3762,382.3984,1147.3392,383.1385,1155.987,385.084" style="stroke:#181818;stroke-width:0.9;"/><text fill="#000000" font-family="sans-serif" font-size="11.7" lengthAdjust="spacing" textLength="36" x="1107.45" y="346.1845">service</text></g><!--link ApproveRejectStudentCourseController to Course--><g id="link_ApproveRejectStudentCourseController_Course"><path codeLine="49" d="M803.259,305.659 C761.895,320.329 717.579,335.818 676.35,349.759 C651.438,358.183 624.861,366.922 599.112,375.256 " fill="none" id="ApproveRejectStudentCourseController-to-Course" style="stroke:#181818;stroke-width:0.9;"/><polygon fill="#181818" points="594.648,376.696,603.4635,377.6215,598.9285,375.3077,601.2423,370.7727,594.648,376.696" style="stroke:#181818;stroke-width:0.9;"/><text fill="#000000" font-family="sans-serif" font-size="11.7" lengthAdjust="spacing" textLength="35.1" x="724.95" y="346.1845">course</text></g><!--link ApproveRejectStudentCourseController to Enrollement--><g id="link_ApproveRejectStudentCourseController_Enrollement"><path codeLine="50" d="M1188.945,255.565 C1286.415,266.482 1400.274,288.568 1495.35,332.659 C1524.429,346.15 1551.789,370.216 1570.923,389.674 " fill="none" id="ApproveRejectStudentCourseController-to-Enrollement" style="stroke:#181818;stroke-width:0.9;"/><polygon fill="#181818" points="1574.163,393.004,1571.0983,384.6867,1571.0263,389.7773,1565.9357,389.7053,1574.163,393.004" style="stroke:#181818;stroke-width:0.9;"/><text fill="#000000" font-family="sans-serif" font-size="11.7" lengthAdjust="spacing" textLength="60.3" x="1524.15" y="346.1845">enrollement</text></g><!--link Course to CourseCode--><g id="link_Course_CourseCode"><path codeLine="51" d="M457.65,465.211 C457.65,491.419 457.65,524.197 457.65,547.885 " fill="none" id="Course-to-CourseCode" style="stroke:#181818;stroke-width:0.9;"/><polygon fill="#181818" points="457.65,552.493,461.25,544.393,457.65,547.993,454.05,544.393,457.65,552.493" style="stroke:#181818;stroke-width:0.9;"/><text fill="#000000" font-family="sans-serif" font-size="11.7" lengthAdjust="spacing" textLength="62.1" x="458.55" y="505.4845">courseCode</text></g><!--link JpaCourseRepository to CourseRepository--><g id="link_JpaCourseRepository_CourseRepository"><path codeLine="52" d="M326.655,552.601 C346.662,533.899 375.876,510.778 406.8,500.509 C469.323,479.737 540.972,506.044 592.695,533.854 " fill="none" id="JpaCourseRepository-to-CourseRepository" style="stroke:#181818;stroke-width:0.9;"/><polygon fill="#181818" points="596.7,536.032,591.2953,529.0064,592.7441,533.8871,587.8634,535.3358,596.7,536.032" style="stroke:#181818;stroke-width:0.9;"/></g><!--link InMemoryCourseRepository to CourseRepository--><g id="link_InMemoryCourseRepository_CourseRepository"><path codeLine="53" d="M131.274,552.529 C155.061,533.8 189.342,510.67 224.1,500.509 C345.042,465.166 385.092,471.07 507.6,500.509 C536.112,507.358 565.272,520.336 590.571,533.854 " fill="none" id="InMemoryCourseRepository-to-CourseRepository" style="stroke:#181818;stroke-width:0.9;"/><polygon fill="#181818" points="594.594,536.032,589.1717,529.02,590.6327,533.897,585.7557,535.358,594.594,536.032" style="stroke:#181818;stroke-width:0.9;"/></g><!--link JpaEnrollementRepository to EnrollementRepository--><g id="link_JpaEnrollementRepository_EnrollementRepository"><path codeLine="54" d="M1241.19,580.159 C1250.064,580.159 1258.947,580.159 1267.821,580.159 " fill="none" id="JpaEnrollementRepository-to-EnrollementRepository" style="stroke:#181818;stroke-width:0.9;"/><polygon fill="#181818" points="1272.465,580.159,1264.365,576.559,1267.965,580.159,1264.365,583.759,1272.465,580.159" style="stroke:#181818;stroke-width:0.9;"/></g><!--link InMemoryEnrollementRepository to EnrollementRepository--><g id="link_InMemoryEnrollementRepository_EnrollementRepository"><path codeLine="55" d="M961.128,552.691 C987.741,533.899 1025.955,510.634 1063.8,500.509 C1182.861,468.649 1323.774,508.861 1411.38,542.773 " fill="none" id="InMemoryEnrollementRepository-to-EnrollementRepository" style="stroke:#181818;stroke-width:0.9;"/><polygon fill="#181818" points="1415.763,544.492,1409.5223,538.1973,1411.5699,542.8585,1406.9087,544.9061,1415.763,544.492" style="stroke:#181818;stroke-width:0.9;"/></g><!--link ApproveRejectStudentCourseUI to Course--><g id="link_ApproveRejectStudentCourseUI_Course"><path codeLine="58" d="M875.295,113.113 C830.682,131.455 777.483,155.998 733.05,184.159 C644.994,239.959 555.615,322.246 503.469,373.402 " fill="none" id="ApproveRejectStudentCourseUI-to-Course" style="stroke:#181818;stroke-width:0.9;stroke-dasharray:7.0,7.0;"/><polygon fill="#181818" points="500.094,376.723,508.3926,373.6081,503.3016,373.5669,503.3429,368.4759,500.094,376.723" style="stroke:#181818;stroke-width:0.9;"/></g><!--link ApproveRejectStudentCourseUI to Enrollement--><g id="link_ApproveRejectStudentCourseUI_Enrollement"><path codeLine="59" d="M1073.457,87.751 C1217.034,106.714 1471.149,163.594 1592.55,332.659 C1603.935,348.508 1605.249,370.45 1603.737,388.369 " fill="none" id="ApproveRejectStudentCourseUI-to-Enrollement" style="stroke:#181818;stroke-width:0.9;stroke-dasharray:7.0,7.0;"/><polygon fill="#181818" points="1603.269,393.067,1607.6615,385.3679,1603.7193,388.5896,1600.4976,384.6474,1603.269,393.067" style="stroke:#181818;stroke-width:0.9;"/></g><!--link ListCourseService to CourseRepository--><g id="link_ListCourseService_CourseRepository"><path codeLine="60" d="M737.28,456.715 C724.014,478.819 706.707,507.664 692.208,531.82 " fill="none" id="ListCourseService-to-CourseRepository" style="stroke:#181818;stroke-width:0.9;stroke-dasharray:7.0,7.0;"/><polygon fill="#181818" points="689.724,535.969,696.9784,530.8755,692.0392,532.1103,690.8044,527.1711,689.724,535.969" style="stroke:#181818;stroke-width:0.9;"/></g><!--link ListEnrollementService to EnrollementRepository--><g id="link_ListEnrollementService_EnrollementRepository"><path codeLine="61" d="M1267.398,456.517 C1314.693,481.987 1378.764,516.484 1426.941,542.422 " fill="none" id="ListEnrollementService-to-EnrollementRepository" style="stroke:#181818;stroke-width:0.9;stroke-dasharray:7.0,7.0;"/><polygon fill="#181818" points="1430.964,544.591,1425.5417,537.579,1427.0027,542.456,1422.1257,543.917,1430.964,544.591" style="stroke:#181818;stroke-width:0.9;"/></g><!--SRC=[dLNHQjim57tNLmZs49isa48VDZSOEcU5Z6sCXlQbx46rRnCDHJAIuZ56_dsofTfoRATsysH9zvnxxpbNaQQQ0KuOKGglADbAiiT1iWhn73ziyDLYyGcXMNKC2gLLs6sUIr70FVo6L6_q8GEk4t6G2XxMUBdC9IYpGpGLF8xnFuJDBnERdVWJXEY87ClNd5ZGFUH2KItatn8CKb6bWQTGOeykUCs_mzv4Z4SO-YzS2iPWRugPacCqpE5iJIOW4tj2cvOlYDN9dblMaZJm4c2ejqCBafMgep77LX69oCf2WiTB_E7kxkFdwqM82y8EWCLpIHl7BjodymklcnhsE15SLs1faAP5HjEsrHTh3P8yCrXQG8oPaUsMCPlKRgeWl3c9Rhgj4J-1PvHlcnCLU8sczQVJpZdXTCyy-To9HLpYimwuM6l4T8vNHxwP5Yna0xAWAPpADQGMwIZLulJoZYJsXILJH3NJGBbXUI4cIS_LawyB2kgC_I-KPrtxMs8hKa1Ru9FiGvVoZHByrbqPazgV_I05tLQwehD_U_DvFExEH5Zll3KQ1IhPE_f7k6n-F46_X5DPkcCTOMM_ff7qpF4xcDpCHCwuTwbXqD2iaADisAl1YBpHG7rlLuz5QF3PwWiUVB66l4FdNwn169gj83UtmBnavjQyCTTF6L4xo7xL5O-FzxAZxjXqcRqI1mPaWDq3_WS0]--></g></svg>