<?xml version="1.0" encoding="us-ascii" standalone="no"?><svg xmlns="http://www.w3.org/2000/svg" xmlns:xlink="http://www.w3.org/1999/xlink" contentStyleType="text/css" height="445.2px" preserveAspectRatio="none" style="width:1049px;height:445px;background:#FFFFFF;" version="1.1" viewBox="0 0 1049 445" width="1049.3px" zoomAndPan="magnify"><defs/><g><!--cluster <<aggregate>> Student--><g id="cluster_&lt;&lt;aggregate&gt;&gt; Student"><path d="M893.55,263.5596 L997.15,263.5596 A2.625,2.625 0 0 1 998.9,265.3096 L1003.8,280.7943 L1042.65,280.7943 A1.75,1.75 0 0 1 1044.4,282.5443 L1044.4,438.5596 A1.75,1.75 0 0 1 1042.65,440.3096 L893.55,440.3096 A1.75,1.75 0 0 1 891.8,438.5596 L891.8,265.3096 A1.75,1.75 0 0 1 893.55,263.5596 " fill="none" style="stroke:#000000;stroke-width:1.0499999999999998;"/><line style="stroke:#000000;stroke-width:1.0499999999999998;" x1="891.8" x2="1003.8" y1="280.7943" y2="280.7943"/><text fill="#000000" font-family="sans-serif" font-size="9.8" font-weight="bold" lengthAdjust="spacing" textLength="102.9" x="894.6" y="275.5348">&#171;aggregate&#187; Student</text></g><!--cluster <<aggregate>> Manager--><g id="cluster_&lt;&lt;aggregate&gt;&gt; Manager"><path d="M610.75,129.5096 L719.25,129.5096 A2.625,2.625 0 0 1 721,131.2596 L725.9,146.7443 L726.25,146.7443 A1.75,1.75 0 0 1 728,148.4943 L728,218.7596 A1.75,1.75 0 0 1 726.25,220.5096 L610.75,220.5096 A1.75,1.75 0 0 1 609,218.7596 L609,131.2596 A1.75,1.75 0 0 1 610.75,129.5096 " fill="none" style="stroke:#000000;stroke-width:1.0499999999999998;"/><line style="stroke:#000000;stroke-width:1.0499999999999998;" x1="609" x2="725.9" y1="146.7443" y2="146.7443"/><text fill="#000000" font-family="sans-serif" font-size="9.8" font-weight="bold" lengthAdjust="spacing" textLength="107.8" x="611.8" y="141.4848">&#171;aggregate&#187; Manager</text></g><!--cluster <<aggregate>> Course--><g id="cluster_&lt;&lt;aggregate&gt;&gt; Course"><path d="M5.95,4.2096 L106.75,4.2096 A2.625,2.625 0 0 1 108.5,5.9596 L113.4,21.4443 L590.45,21.4443 A1.75,1.75 0 0 1 592.2,23.1943 L592.2,226.1096 A1.75,1.75 0 0 1 590.45,227.8596 L5.95,227.8596 A1.75,1.75 0 0 1 4.2,226.1096 L4.2,5.9596 A1.75,1.75 0 0 1 5.95,4.2096 " fill="none" style="stroke:#000000;stroke-width:1.0499999999999998;"/><line style="stroke:#000000;stroke-width:1.0499999999999998;" x1="4.2" x2="113.4" y1="21.4443" y2="21.4443"/><text fill="#000000" font-family="sans-serif" font-size="9.8" font-weight="bold" lengthAdjust="spacing" textLength="100.1" x="7" y="16.1848">&#171;aggregate&#187; Course</text></g><!--cluster <<aggregate>> Enrollment--><g id="cluster_&lt;&lt;aggregate&gt;&gt; Enrollment"><path d="M746.55,129.5096 L864.85,129.5096 A2.625,2.625 0 0 1 866.6,131.2596 L871.5,146.7443 L873.25,146.7443 A1.75,1.75 0 0 1 875,148.4943 L875,438.9096 A1.75,1.75 0 0 1 873.25,440.6596 L746.55,440.6596 A1.75,1.75 0 0 1 744.8,438.9096 L744.8,131.2596 A1.75,1.75 0 0 1 746.55,129.5096 " fill="none" style="stroke:#000000;stroke-width:1.0499999999999998;"/><line style="stroke:#000000;stroke-width:1.0499999999999998;" x1="744.8" x2="871.5" y1="146.7443" y2="146.7443"/><text fill="#000000" font-family="sans-serif" font-size="9.8" font-weight="bold" lengthAdjust="spacing" textLength="117.6" x="747.6" y="141.4848">&#171;aggregate&#187; Enrollment</text></g><!--class Student--><g id="elem_Student"><rect codeLine="6" fill="#F1F1F1" height="53.5801" id="Student" rx="1.75" ry="1.75" style="stroke:#181818;stroke-width:0.3499999999999999;" width="56.7" x="921.55" y="289.4596"/><ellipse cx="932.05" cy="310.6496" fill="#ADD1B2" rx="7.7" ry="7.7" style="stroke:#181818;stroke-width:0.6999999999999998;"/><path d="M931.2516,311.2074 L931.2516,312.9574 L934.2812,312.9574 L934.2812,312.3121 Q934.2812,311.8855 934.4453,311.6996 Q934.6203,311.5137 934.8828,311.5137 Q935.1453,311.5137 935.3094,311.6996 Q935.4734,311.8855 935.4734,312.3121 L935.4734,314.1496 L929.8734,314.1496 Q929.4359,314.1496 929.25,313.9855 Q929.075,313.8215 929.075,313.548 Q929.075,313.2855 929.2609,313.1215 Q929.4469,312.9574 929.8734,312.9574 L930.0594,312.9574 L930.0594,308.298 L929.8734,308.298 Q929.4359,308.298 929.25,308.134 Q929.075,307.9699 929.075,307.6965 Q929.075,307.434 929.25,307.2699 Q929.4359,307.1059 929.8734,307.1059 L935.2109,307.1059 L935.2109,308.9215 Q935.2109,309.348 935.0469,309.534 Q934.8937,309.709 934.6203,309.709 Q934.3578,309.709 934.1937,309.534 Q934.0297,309.348 934.0297,308.9215 L934.0297,308.298 L931.2516,308.298 L931.2516,310.0152 L932.2906,310.0152 Q932.2906,309.5559 932.3781,309.4246 Q932.5641,309.1402 932.8922,309.1402 Q933.1547,309.1402 933.3187,309.3262 Q933.4828,309.5012 933.4828,309.9277 L933.4828,311.3059 Q933.4828,311.6887 933.3953,311.8199 Q933.2094,312.0934 932.8922,312.0934 Q932.5641,312.0934 932.3781,311.809 Q932.2906,311.6777 932.2906,311.2074 L931.2516,311.2074 Z " fill="#000000"/><text fill="#000000" font-family="sans-serif" font-size="8.4" font-style="italic" lengthAdjust="spacing" textLength="30.1" x="943.95" y="302.024">&#171;entity&#187;</text><text fill="#000000" font-family="sans-serif" font-size="8.4" font-style="italic" lengthAdjust="spacing" textLength="24.5" x="946.75" y="313.1967">&#171;root&#187;</text><text fill="#000000" font-family="sans-serif" font-size="9.8" lengthAdjust="spacing" textLength="34.3" x="941.85" y="325.8801">Student</text><line style="stroke:#181818;stroke-width:0.3499999999999999;" x1="922.25" x2="977.55" y1="331.8396" y2="331.8396"/><line style="stroke:#181818;stroke-width:0.3499999999999999;" x1="922.25" x2="977.55" y1="337.4396" y2="337.4396"/></g><!--class MechanographicNumber--><g id="elem_MechanographicNumber"><rect codeLine="7" fill="#F1F1F1" height="42.4074" id="MechanographicNumber" rx="1.75" ry="1.75" style="stroke:#181818;stroke-width:0.3499999999999999;" width="130.2" x="903" y="386.4096"/><ellipse cx="913.5" cy="402.0133" fill="#FF8B40" rx="7.7" ry="7.7" style="stroke:#181818;stroke-width:0.6999999999999998;"/><path d="M913.9156,404.2992 L915.6437,400.1867 L915.3703,400.1867 Q914.9437,400.1867 914.7578,400.0227 Q914.5719,399.8586 914.5719,399.5852 Q914.5719,399.3227 914.7578,399.1586 Q914.9437,398.9945 915.3703,398.9945 L916.9672,398.9945 Q917.3937,398.9945 917.5797,399.1586 Q917.7656,399.3227 917.7656,399.5852 Q917.7656,399.9133 917.4812,400.0992 Q917.35,400.1867 916.9344,400.1867 L914.4953,406.0383 L913.3469,406.0383 L910.9078,400.1867 Q910.4922,400.1867 910.3609,400.0992 Q910.0766,399.9133 910.0766,399.5852 Q910.0766,399.3227 910.2625,399.1586 Q910.4484,398.9945 910.875,398.9945 L912.4828,398.9945 Q912.9094,398.9945 913.0844,399.1586 Q913.2703,399.3227 913.2703,399.5852 Q913.2703,399.8586 913.0844,400.0227 Q912.9094,400.1867 912.4828,400.1867 L912.1984,400.1867 L913.9156,404.2992 Z " fill="#000000"/><text fill="#000000" font-family="sans-serif" font-size="8.4" font-style="italic" lengthAdjust="spacing" textLength="56.7" x="948.85" y="398.974">&#171;value object&#187;</text><text fill="#000000" font-family="sans-serif" font-size="9.8" lengthAdjust="spacing" textLength="107.8" x="923.3" y="411.6574">MechanographicNumber</text><line style="stroke:#181818;stroke-width:0.3499999999999999;" x1="903.7" x2="1032.5" y1="417.617" y2="417.617"/><line style="stroke:#181818;stroke-width:0.3499999999999999;" x1="903.7" x2="1032.5" y1="423.217" y2="423.217"/></g><!--class Manager--><g id="elem_Manager"><rect codeLine="12" fill="#F1F1F1" height="53.5801" id="Manager" rx="1.75" ry="1.75" style="stroke:#181818;stroke-width:0.3499999999999999;" width="61.6" x="620.2" y="155.4096"/><ellipse cx="630.7" cy="176.5996" fill="#ADD1B2" rx="7.7" ry="7.7" style="stroke:#181818;stroke-width:0.6999999999999998;"/><path d="M629.9016,177.1574 L629.9016,178.9074 L632.9312,178.9074 L632.9312,178.2621 Q632.9312,177.8355 633.0953,177.6496 Q633.2703,177.4637 633.5328,177.4637 Q633.7953,177.4637 633.9594,177.6496 Q634.1234,177.8355 634.1234,178.2621 L634.1234,180.0996 L628.5234,180.0996 Q628.0859,180.0996 627.9,179.9355 Q627.725,179.7715 627.725,179.498 Q627.725,179.2355 627.9109,179.0715 Q628.0969,178.9074 628.5234,178.9074 L628.7094,178.9074 L628.7094,174.248 L628.5234,174.248 Q628.0859,174.248 627.9,174.084 Q627.725,173.9199 627.725,173.6465 Q627.725,173.384 627.9,173.2199 Q628.0859,173.0559 628.5234,173.0559 L633.8609,173.0559 L633.8609,174.8715 Q633.8609,175.298 633.6969,175.484 Q633.5437,175.659 633.2703,175.659 Q633.0078,175.659 632.8437,175.484 Q632.6797,175.298 632.6797,174.8715 L632.6797,174.248 L629.9016,174.248 L629.9016,175.9652 L630.9406,175.9652 Q630.9406,175.5059 631.0281,175.3746 Q631.2141,175.0902 631.5422,175.0902 Q631.8047,175.0902 631.9687,175.2762 Q632.1328,175.4512 632.1328,175.8777 L632.1328,177.2559 Q632.1328,177.6387 632.0453,177.7699 Q631.8594,178.0434 631.5422,178.0434 Q631.2141,178.0434 631.0281,177.759 Q630.9406,177.6277 630.9406,177.1574 L629.9016,177.1574 Z " fill="#000000"/><text fill="#000000" font-family="sans-serif" font-size="8.4" font-style="italic" lengthAdjust="spacing" textLength="30.1" x="645.05" y="167.974">&#171;entity&#187;</text><text fill="#000000" font-family="sans-serif" font-size="8.4" font-style="italic" lengthAdjust="spacing" textLength="24.5" x="647.85" y="179.1467">&#171;root&#187;</text><text fill="#000000" font-family="sans-serif" font-size="9.8" lengthAdjust="spacing" textLength="39.2" x="640.5" y="191.8301">Manager</text><line style="stroke:#181818;stroke-width:0.3499999999999999;" x1="620.9" x2="681.1" y1="197.7896" y2="197.7896"/><line style="stroke:#181818;stroke-width:0.3499999999999999;" x1="620.9" x2="681.1" y1="203.3896" y2="203.3896"/></g><!--class Course--><g id="elem_Course"><rect codeLine="17" fill="#F1F1F1" height="53.5801" id="Course" rx="1.75" ry="1.75" style="stroke:#181818;stroke-width:0.3499999999999999;" width="54.6" x="363.3" y="30.1096"/><ellipse cx="373.8" cy="51.2996" fill="#ADD1B2" rx="7.7" ry="7.7" style="stroke:#181818;stroke-width:0.6999999999999998;"/><path d="M373.0016,51.8574 L373.0016,53.6074 L376.0312,53.6074 L376.0312,52.9621 Q376.0312,52.5355 376.1953,52.3496 Q376.3703,52.1637 376.6328,52.1637 Q376.8953,52.1637 377.0594,52.3496 Q377.2234,52.5355 377.2234,52.9621 L377.2234,54.7996 L371.6234,54.7996 Q371.1859,54.7996 371,54.6355 Q370.825,54.4715 370.825,54.198 Q370.825,53.9355 371.0109,53.7715 Q371.1969,53.6074 371.6234,53.6074 L371.8094,53.6074 L371.8094,48.948 L371.6234,48.948 Q371.1859,48.948 371,48.784 Q370.825,48.6199 370.825,48.3465 Q370.825,48.084 371,47.9199 Q371.1859,47.7559 371.6234,47.7559 L376.9609,47.7559 L376.9609,49.5715 Q376.9609,49.998 376.7969,50.184 Q376.6437,50.359 376.3703,50.359 Q376.1078,50.359 375.9437,50.184 Q375.7797,49.998 375.7797,49.5715 L375.7797,48.948 L373.0016,48.948 L373.0016,50.6652 L374.0406,50.6652 Q374.0406,50.2059 374.1281,50.0746 Q374.3141,49.7902 374.6422,49.7902 Q374.9047,49.7902 375.0687,49.9762 Q375.2328,50.1512 375.2328,50.5777 L375.2328,51.9559 Q375.2328,52.3387 375.1453,52.4699 Q374.9594,52.7434 374.6422,52.7434 Q374.3141,52.7434 374.1281,52.459 Q374.0406,52.3277 374.0406,51.8574 L373.0016,51.8574 Z " fill="#000000"/><text fill="#000000" font-family="sans-serif" font-size="8.4" font-style="italic" lengthAdjust="spacing" textLength="30.1" x="384.65" y="42.674">&#171;entity&#187;</text><text fill="#000000" font-family="sans-serif" font-size="8.4" font-style="italic" lengthAdjust="spacing" textLength="24.5" x="387.45" y="53.8467">&#171;root&#187;</text><text fill="#000000" font-family="sans-serif" font-size="9.8" lengthAdjust="spacing" textLength="32.2" x="383.6" y="66.5301">Course</text><line style="stroke:#181818;stroke-width:0.3499999999999999;" x1="364" x2="417.2" y1="72.4896" y2="72.4896"/><line style="stroke:#181818;stroke-width:0.3499999999999999;" x1="364" x2="417.2" y1="78.0896" y2="78.0896"/></g><!--class CourseTitle--><g id="elem_CourseTitle"><rect codeLine="18" fill="#F1F1F1" height="42.4074" id="CourseTitle" rx="1.75" ry="1.75" style="stroke:#181818;stroke-width:0.3499999999999999;" width="76.3" x="15.75" y="161.0096"/><ellipse cx="26.25" cy="176.6133" fill="#FF8B40" rx="7.7" ry="7.7" style="stroke:#181818;stroke-width:0.6999999999999998;"/><path d="M26.6656,178.8992 L28.3937,174.7867 L28.1203,174.7867 Q27.6937,174.7867 27.5078,174.6227 Q27.3219,174.4586 27.3219,174.1852 Q27.3219,173.9227 27.5078,173.7586 Q27.6937,173.5945 28.1203,173.5945 L29.7172,173.5945 Q30.1437,173.5945 30.3297,173.7586 Q30.5156,173.9227 30.5156,174.1852 Q30.5156,174.5133 30.2312,174.6992 Q30.1,174.7867 29.6844,174.7867 L27.2453,180.6383 L26.0969,180.6383 L23.6578,174.7867 Q23.2422,174.7867 23.1109,174.6992 Q22.8266,174.5133 22.8266,174.1852 Q22.8266,173.9227 23.0125,173.7586 Q23.1984,173.5945 23.625,173.5945 L25.2328,173.5945 Q25.6594,173.5945 25.8344,173.7586 Q26.0203,173.9227 26.0203,174.1852 Q26.0203,174.4586 25.8344,174.6227 Q25.6594,174.7867 25.2328,174.7867 L24.9484,174.7867 L26.6656,178.8992 Z " fill="#000000"/><text fill="#000000" font-family="sans-serif" font-size="8.4" font-style="italic" lengthAdjust="spacing" textLength="56.7" x="34.65" y="173.574">&#171;value object&#187;</text><text fill="#000000" font-family="sans-serif" font-size="9.8" lengthAdjust="spacing" textLength="51.1" x="37.45" y="186.2574">CourseTitle</text><line style="stroke:#181818;stroke-width:0.3499999999999999;" x1="16.45" x2="91.35" y1="192.217" y2="192.217"/><line style="stroke:#181818;stroke-width:0.3499999999999999;" x1="16.45" x2="91.35" y1="197.817" y2="197.817"/></g><!--class CourseCode--><g id="elem_CourseCode"><rect codeLine="19" fill="#F1F1F1" height="42.4074" id="CourseCode" rx="1.75" ry="1.75" style="stroke:#181818;stroke-width:0.3499999999999999;" width="78.4" x="116.9" y="161.0096"/><ellipse cx="127.4" cy="176.6133" fill="#FF8B40" rx="7.7" ry="7.7" style="stroke:#181818;stroke-width:0.6999999999999998;"/><path d="M127.8156,178.8992 L129.5437,174.7867 L129.2703,174.7867 Q128.8437,174.7867 128.6578,174.6227 Q128.4719,174.4586 128.4719,174.1852 Q128.4719,173.9227 128.6578,173.7586 Q128.8437,173.5945 129.2703,173.5945 L130.8672,173.5945 Q131.2937,173.5945 131.4797,173.7586 Q131.6656,173.9227 131.6656,174.1852 Q131.6656,174.5133 131.3812,174.6992 Q131.25,174.7867 130.8344,174.7867 L128.3953,180.6383 L127.2469,180.6383 L124.8078,174.7867 Q124.3922,174.7867 124.2609,174.6992 Q123.9766,174.5133 123.9766,174.1852 Q123.9766,173.9227 124.1625,173.7586 Q124.3484,173.5945 124.775,173.5945 L126.3828,173.5945 Q126.8094,173.5945 126.9844,173.7586 Q127.1703,173.9227 127.1703,174.1852 Q127.1703,174.4586 126.9844,174.6227 Q126.8094,174.7867 126.3828,174.7867 L126.0984,174.7867 L127.8156,178.8992 Z " fill="#000000"/><text fill="#000000" font-family="sans-serif" font-size="8.4" font-style="italic" lengthAdjust="spacing" textLength="56.7" x="136.85" y="173.574">&#171;value object&#187;</text><text fill="#000000" font-family="sans-serif" font-size="9.8" lengthAdjust="spacing" textLength="56" x="137.2" y="186.2574">CourseCode</text><line style="stroke:#181818;stroke-width:0.3499999999999999;" x1="117.6" x2="194.6" y1="192.217" y2="192.217"/><line style="stroke:#181818;stroke-width:0.3499999999999999;" x1="117.6" x2="194.6" y1="197.817" y2="197.817"/></g><!--class CourseDescription--><g id="elem_CourseDescription"><rect codeLine="20" fill="#F1F1F1" height="42.4074" id="CourseDescription" rx="1.75" ry="1.75" style="stroke:#181818;stroke-width:0.3499999999999999;" width="104.3" x="220.15" y="161.0096"/><ellipse cx="230.65" cy="176.6133" fill="#FF8B40" rx="7.7" ry="7.7" style="stroke:#181818;stroke-width:0.6999999999999998;"/><path d="M231.0656,178.8992 L232.7937,174.7867 L232.5203,174.7867 Q232.0937,174.7867 231.9078,174.6227 Q231.7219,174.4586 231.7219,174.1852 Q231.7219,173.9227 231.9078,173.7586 Q232.0937,173.5945 232.5203,173.5945 L234.1172,173.5945 Q234.5437,173.5945 234.7297,173.7586 Q234.9156,173.9227 234.9156,174.1852 Q234.9156,174.5133 234.6312,174.6992 Q234.5,174.7867 234.0844,174.7867 L231.6453,180.6383 L230.4969,180.6383 L228.0578,174.7867 Q227.6422,174.7867 227.5109,174.6992 Q227.2266,174.5133 227.2266,174.1852 Q227.2266,173.9227 227.4125,173.7586 Q227.5984,173.5945 228.025,173.5945 L229.6328,173.5945 Q230.0594,173.5945 230.2344,173.7586 Q230.4203,173.9227 230.4203,174.1852 Q230.4203,174.4586 230.2344,174.6227 Q230.0594,174.7867 229.6328,174.7867 L229.3484,174.7867 L231.0656,178.8992 Z " fill="#000000"/><text fill="#000000" font-family="sans-serif" font-size="8.4" font-style="italic" lengthAdjust="spacing" textLength="56.7" x="253.05" y="173.574">&#171;value object&#187;</text><text fill="#000000" font-family="sans-serif" font-size="9.8" lengthAdjust="spacing" textLength="81.9" x="240.45" y="186.2574">CourseDescription</text><line style="stroke:#181818;stroke-width:0.3499999999999999;" x1="220.85" x2="323.75" y1="192.217" y2="192.217"/><line style="stroke:#181818;stroke-width:0.3499999999999999;" x1="220.85" x2="323.75" y1="197.817" y2="197.817"/></g><!--class CourseStatus--><g id="elem_CourseStatus"><rect codeLine="21" fill="#F1F1F1" height="42.4074" id="CourseStatus" rx="1.75" ry="1.75" style="stroke:#181818;stroke-width:0.3499999999999999;" width="82.6" x="349.3" y="161.0096"/><ellipse cx="359.8" cy="176.6133" fill="#FF8B40" rx="7.7" ry="7.7" style="stroke:#181818;stroke-width:0.6999999999999998;"/><path d="M360.2156,178.8992 L361.9437,174.7867 L361.6703,174.7867 Q361.2437,174.7867 361.0578,174.6227 Q360.8719,174.4586 360.8719,174.1852 Q360.8719,173.9227 361.0578,173.7586 Q361.2437,173.5945 361.6703,173.5945 L363.2672,173.5945 Q363.6937,173.5945 363.8797,173.7586 Q364.0656,173.9227 364.0656,174.1852 Q364.0656,174.5133 363.7812,174.6992 Q363.65,174.7867 363.2344,174.7867 L360.7953,180.6383 L359.6469,180.6383 L357.2078,174.7867 Q356.7922,174.7867 356.6609,174.6992 Q356.3766,174.5133 356.3766,174.1852 Q356.3766,173.9227 356.5625,173.7586 Q356.7484,173.5945 357.175,173.5945 L358.7828,173.5945 Q359.2094,173.5945 359.3844,173.7586 Q359.5703,173.9227 359.5703,174.1852 Q359.5703,174.4586 359.3844,174.6227 Q359.2094,174.7867 358.7828,174.7867 L358.4984,174.7867 L360.2156,178.8992 Z " fill="#000000"/><text fill="#000000" font-family="sans-serif" font-size="8.4" font-style="italic" lengthAdjust="spacing" textLength="56.7" x="371.35" y="173.574">&#171;value object&#187;</text><text fill="#000000" font-family="sans-serif" font-size="9.8" lengthAdjust="spacing" textLength="60.2" x="369.6" y="186.2574">CourseStatus</text><line style="stroke:#181818;stroke-width:0.3499999999999999;" x1="350" x2="431.2" y1="192.217" y2="192.217"/><line style="stroke:#181818;stroke-width:0.3499999999999999;" x1="350" x2="431.2" y1="197.817" y2="197.817"/></g><!--class CourseEnrolmentLimits--><g id="elem_CourseEnrolmentLimits"><rect codeLine="22" fill="#F1F1F1" height="68.477" id="CourseEnrolmentLimits" rx="1.75" ry="1.75" style="stroke:#181818;stroke-width:0.3499999999999999;" width="124.6" x="456.4" y="148.0596"/><ellipse cx="466.9" cy="163.6633" fill="#FF8B40" rx="7.7" ry="7.7" style="stroke:#181818;stroke-width:0.6999999999999998;"/><path d="M467.3156,165.9492 L469.0437,161.8367 L468.7703,161.8367 Q468.3437,161.8367 468.1578,161.6727 Q467.9719,161.5086 467.9719,161.2352 Q467.9719,160.9727 468.1578,160.8086 Q468.3437,160.6445 468.7703,160.6445 L470.3672,160.6445 Q470.7937,160.6445 470.9797,160.8086 Q471.1656,160.9727 471.1656,161.2352 Q471.1656,161.5633 470.8812,161.7492 Q470.75,161.8367 470.3344,161.8367 L467.8953,167.6883 L466.7469,167.6883 L464.3078,161.8367 Q463.8922,161.8367 463.7609,161.7492 Q463.4766,161.5633 463.4766,161.2352 Q463.4766,160.9727 463.6625,160.8086 Q463.8484,160.6445 464.275,160.6445 L465.8828,160.6445 Q466.3094,160.6445 466.4844,160.8086 Q466.6703,160.9727 466.6703,161.2352 Q466.6703,161.5086 466.4844,161.6727 Q466.3094,161.8367 465.8828,161.8367 L465.5984,161.8367 L467.3156,165.9492 Z " fill="#000000"/><text fill="#000000" font-family="sans-serif" font-size="8.4" font-style="italic" lengthAdjust="spacing" textLength="56.7" x="499.45" y="160.624">&#171;value object&#187;</text><text fill="#000000" font-family="sans-serif" font-size="9.8" lengthAdjust="spacing" textLength="102.2" x="476.7" y="173.3074">CourseEnrolmentLimits</text><line style="stroke:#181818;stroke-width:0.3499999999999999;" x1="457.1" x2="580.3" y1="179.267" y2="179.267"/><text fill="#000000" font-family="sans-serif" font-size="9.8" lengthAdjust="spacing" textLength="88.2" x="460.6" y="192.6422">minimumEnrolments</text><text fill="#000000" font-family="sans-serif" font-size="9.8" lengthAdjust="spacing" textLength="90.3" x="460.6" y="205.677">maximumEnrolments</text><line style="stroke:#181818;stroke-width:0.3499999999999999;" x1="457.1" x2="580.3" y1="210.9365" y2="210.9365"/></g><!--class Enrollment--><g id="elem_Enrollment"><rect codeLine="30" fill="#F1F1F1" height="53.5801" id="Enrollment" rx="1.75" ry="1.75" style="stroke:#181818;stroke-width:0.3499999999999999;" width="69.3" x="775.25" y="155.4096"/><ellipse cx="785.75" cy="176.5996" fill="#ADD1B2" rx="7.7" ry="7.7" style="stroke:#181818;stroke-width:0.6999999999999998;"/><path d="M784.9516,177.1574 L784.9516,178.9074 L787.9812,178.9074 L787.9812,178.2621 Q787.9812,177.8355 788.1453,177.6496 Q788.3203,177.4637 788.5828,177.4637 Q788.8453,177.4637 789.0094,177.6496 Q789.1734,177.8355 789.1734,178.2621 L789.1734,180.0996 L783.5734,180.0996 Q783.1359,180.0996 782.95,179.9355 Q782.775,179.7715 782.775,179.498 Q782.775,179.2355 782.9609,179.0715 Q783.1469,178.9074 783.5734,178.9074 L783.7594,178.9074 L783.7594,174.248 L783.5734,174.248 Q783.1359,174.248 782.95,174.084 Q782.775,173.9199 782.775,173.6465 Q782.775,173.384 782.95,173.2199 Q783.1359,173.0559 783.5734,173.0559 L788.9109,173.0559 L788.9109,174.8715 Q788.9109,175.298 788.7469,175.484 Q788.5937,175.659 788.3203,175.659 Q788.0578,175.659 787.8937,175.484 Q787.7297,175.298 787.7297,174.8715 L787.7297,174.248 L784.9516,174.248 L784.9516,175.9652 L785.9906,175.9652 Q785.9906,175.5059 786.0781,175.3746 Q786.2641,175.0902 786.5922,175.0902 Q786.8547,175.0902 787.0187,175.2762 Q787.1828,175.4512 787.1828,175.8777 L787.1828,177.2559 Q787.1828,177.6387 787.0953,177.7699 Q786.9094,178.0434 786.5922,178.0434 Q786.2641,178.0434 786.0781,177.759 Q785.9906,177.6277 785.9906,177.1574 L784.9516,177.1574 Z " fill="#000000"/><text fill="#000000" font-family="sans-serif" font-size="8.4" font-style="italic" lengthAdjust="spacing" textLength="30.1" x="803.95" y="167.974">&#171;entity&#187;</text><text fill="#000000" font-family="sans-serif" font-size="8.4" font-style="italic" lengthAdjust="spacing" textLength="24.5" x="806.75" y="179.1467">&#171;root&#187;</text><text fill="#000000" font-family="sans-serif" font-size="9.8" lengthAdjust="spacing" textLength="46.9" x="795.55" y="191.8301">Enrollment</text><line style="stroke:#181818;stroke-width:0.3499999999999999;" x1="775.95" x2="843.85" y1="197.7896" y2="197.7896"/><line style="stroke:#181818;stroke-width:0.3499999999999999;" x1="775.95" x2="843.85" y1="203.3896" y2="203.3896"/></g><!--class EnrollmentStatus--><g id="elem_EnrollmentStatus"><rect codeLine="31" fill="#F1F1F1" height="42.4074" id="EnrollmentStatus" rx="1.75" ry="1.75" style="stroke:#181818;stroke-width:0.3499999999999999;" width="97.3" x="761.25" y="295.0596"/><ellipse cx="771.75" cy="310.6633" fill="#FF8B40" rx="7.7" ry="7.7" style="stroke:#181818;stroke-width:0.6999999999999998;"/><path d="M772.1656,312.9492 L773.8937,308.8367 L773.6203,308.8367 Q773.1937,308.8367 773.0078,308.6727 Q772.8219,308.5086 772.8219,308.2352 Q772.8219,307.9727 773.0078,307.8086 Q773.1937,307.6445 773.6203,307.6445 L775.2172,307.6445 Q775.6437,307.6445 775.8297,307.8086 Q776.0156,307.9727 776.0156,308.2352 Q776.0156,308.5633 775.7312,308.7492 Q775.6,308.8367 775.1844,308.8367 L772.7453,314.6883 L771.5969,314.6883 L769.1578,308.8367 Q768.7422,308.8367 768.6109,308.7492 Q768.3266,308.5633 768.3266,308.2352 Q768.3266,307.9727 768.5125,307.8086 Q768.6984,307.6445 769.125,307.6445 L770.7328,307.6445 Q771.1594,307.6445 771.3344,307.8086 Q771.5203,307.9727 771.5203,308.2352 Q771.5203,308.5086 771.3344,308.6727 Q771.1594,308.8367 770.7328,308.8367 L770.4484,308.8367 L772.1656,312.9492 Z " fill="#000000"/><text fill="#000000" font-family="sans-serif" font-size="8.4" font-style="italic" lengthAdjust="spacing" textLength="56.7" x="790.65" y="307.624">&#171;value object&#187;</text><text fill="#000000" font-family="sans-serif" font-size="9.8" lengthAdjust="spacing" textLength="74.9" x="781.55" y="320.3074">EnrollmentStatus</text><line style="stroke:#181818;stroke-width:0.3499999999999999;" x1="761.95" x2="857.85" y1="326.267" y2="326.267"/><line style="stroke:#181818;stroke-width:0.3499999999999999;" x1="761.95" x2="857.85" y1="331.867" y2="331.867"/></g><g id="elem_GMN17"><path d="M756.35,386.0596 L756.35,429.3707 A0,0 0 0 0 756.35,429.3707 L863.45,429.3707 A0,0 0 0 0 863.45,429.3707 L863.45,393.0596 L856.45,386.0596 L812.7,386.0596 L809.9,337.9696 L807.1,386.0596 L756.35,386.0596 A0,0 0 0 0 756.35,386.0596 " fill="#FEFFDD" style="stroke:#181818;stroke-width:0.3499999999999999;"/><path d="M856.45,386.0596 L856.45,393.0596 L863.45,393.0596 L856.45,386.0596 " fill="#FEFFDD" style="stroke:#181818;stroke-width:0.3499999999999999;"/><text fill="#000000" font-family="sans-serif" font-size="9.1" lengthAdjust="spacing" textLength="86.1" x="760.55" y="399.3794">Diagrama de estados</text><text fill="#000000" font-family="sans-serif" font-size="9.1" lengthAdjust="spacing" textLength="92.4" x="760.55" y="411.4831">dispon&#237;vel com o nome</text><text fill="#000000" font-family="sans-serif" font-size="9.1" lengthAdjust="spacing" textLength="77" x="760.55" y="423.5868">"enrollment-status"</text></g><!--link Student to MechanographicNumber--><g id="link_Student_MechanographicNumber"><path codeLine="39" d="M955.213,343.3666 C957.726,355.7776 960.701,370.4916 963.165,382.6576 " fill="none" id="Student-to-MechanographicNumber" style="stroke:#181818;stroke-width:0.6999999999999998;"/><polygon fill="#181818" points="963.907,386.3396,965.4133,379.6119,963.2187,382.9079,959.9227,380.7133,963.907,386.3396" style="stroke:#181818;stroke-width:0.6999999999999998;"/></g><!--link Enrollment to Student--><g id="link_Enrollment_Student"><path codeLine="41" d="M837.893,209.5826 C861.532,231.9826 895.307,263.9796 919.576,286.9816 " fill="none" id="Enrollment-to-Student" style="stroke:#181818;stroke-width:0.6999999999999998;"/><polygon fill="#181818" points="922.194,289.4596,919.5378,283.0976,919.65,287.0558,915.6918,287.168,922.194,289.4596" style="stroke:#181818;stroke-width:0.6999999999999998;"/><text fill="#000000" font-family="sans-serif" font-size="9.1" lengthAdjust="spacing" textLength="14.7" x="880.6" y="249.5794">has</text><text fill="#000000" font-family="sans-serif" font-size="9.1" lengthAdjust="spacing" textLength="14" x="826.9763" y="224.3131">1..*</text><text fill="#000000" font-family="sans-serif" font-size="9.1" lengthAdjust="spacing" textLength="4.9" x="911.9225" y="281.5657">1</text></g><!--link Course to CourseTitle--><g id="link_Course_CourseTitle"><path codeLine="43" d="M363.181,58.6416 C309.799,61.4836 189.728,73.4606 105,123.9096 C90.895,132.3096 78.582,145.9106 69.573,157.8036 " fill="none" id="Course-to-CourseTitle" style="stroke:#181818;stroke-width:0.6999999999999998;"/><polygon fill="#181818" points="67.361,160.7856,73.3675,157.4015,69.4498,157.9772,68.8741,154.0595,67.361,160.7856" style="stroke:#181818;stroke-width:0.6999999999999998;"/></g><!--link Course to CourseCode--><g id="link_Course_CourseCode"><path codeLine="44" d="M363.286,63.2266 C325.787,71.6756 257.397,90.5126 207.9,123.9096 C194.418,133.0096 182.126,146.3726 172.907,157.9576 " fill="none" id="Course-to-CourseCode" style="stroke:#181818;stroke-width:0.6999999999999998;"/><polygon fill="#181818" points="170.625,160.8556,176.7128,157.62,172.7821,158.0993,172.3027,154.1686,170.625,160.8556" style="stroke:#181818;stroke-width:0.6999999999999998;"/></g><!--link Course to CourseDescription--><g id="link_Course_CourseDescription"><path codeLine="45" d="M365.512,84.0376 C344.547,105.9966 314.916,137.0206 294.735,158.1676 " fill="none" id="Course-to-CourseDescription" style="stroke:#181818;stroke-width:0.6999999999999998;"/><polygon fill="#181818" points="292.075,160.9536,298.4531,158.3364,294.4943,158.4243,294.4063,154.4655,292.075,160.9536" style="stroke:#181818;stroke-width:0.6999999999999998;"/></g><!--link Course to CourseStatus--><g id="link_Course_CourseStatus"><path codeLine="46" d="M390.6,84.0376 C390.6,105.7236 390.6,136.2646 390.6,157.3836 " fill="none" id="Course-to-CourseStatus" style="stroke:#181818;stroke-width:0.6999999999999998;"/><polygon fill="#181818" points="390.6,160.9536,393.4,154.6536,390.6,157.4536,387.8,154.6536,390.6,160.9536" style="stroke:#181818;stroke-width:0.6999999999999998;"/></g><!--link Course to CourseEnrolmentLimits--><g id="link_Course_CourseEnrolmentLimits"><path codeLine="47" d="M417.767,84.0376 C436.184,101.8456 460.768,125.6246 481.061,145.2596 " fill="none" id="Course-to-CourseEnrolmentLimits" style="stroke:#181818;stroke-width:0.6999999999999998;"/><polygon fill="#181818" points="483.77,147.8776,481.1786,141.489,481.2505,145.4481,477.2914,145.5201,483.77,147.8776" style="stroke:#181818;stroke-width:0.6999999999999998;"/></g><!--link Course to Manager--><g id="link_Course_Manager"><path codeLine="48" d="M418.04,62.6036 C458.479,70.6326 535.402,89.3436 592.2,123.9096 C604.821,131.5886 616.826,142.4666 626.661,152.7146 " fill="none" id="Course-to-Manager" style="stroke:#181818;stroke-width:0.6999999999999998;"/><polygon fill="#181818" points="629.111,155.3046,626.8059,148.8071,626.702,152.7656,622.7435,152.6616,629.111,155.3046" style="stroke:#181818;stroke-width:0.6999999999999998;"/><polygon fill="#000000" points="588.4131,113.1493,583.4163,108.75,581.7848,112.5272,588.4131,113.1493" style="stroke:#000000;stroke-width:0.6999999999999998;"/><text fill="#000000" font-family="sans-serif" font-size="9.1" lengthAdjust="spacing" textLength="59.5" x="591.5" y="115.5294">is managed by</text><text fill="#000000" font-family="sans-serif" font-size="9.1" lengthAdjust="spacing" textLength="14" x="423.5289" y="60.5004">0..*</text><text fill="#000000" font-family="sans-serif" font-size="9.1" lengthAdjust="spacing" textLength="14" x="610.1457" y="147.5967">1..*</text></g><!--link Course to Enrollment--><g id="link_Course_Enrollment"><path codeLine="49" d="M417.928,59.9716 C466.942,64.5076 572.614,76.9046 657.3,105.0096 C698.243,118.5966 741.944,141.5006 772.037,158.7416 " fill="none" id="Course-to-Enrollment" style="stroke:#181818;stroke-width:0.6999999999999998;"/><polygon fill="#181818" points="775.089,160.4986,771.0339,154.9231,772.0582,158.7481,768.2332,159.7724,775.089,160.4986" style="stroke:#181818;stroke-width:0.6999999999999998;"/><polygon fill="#000000" points="694.2713,112.7018,688.7253,109.0191,687.6198,112.9823,694.2713,112.7018" style="stroke:#000000;stroke-width:0.6999999999999998;"/><text fill="#000000" font-family="sans-serif" font-size="9.1" lengthAdjust="spacing" textLength="14.7" x="697.2" y="115.5294">has</text><text fill="#000000" font-family="sans-serif" font-size="9.1" lengthAdjust="spacing" textLength="4.9" x="423.4183" y="71.4736">1</text><text fill="#000000" font-family="sans-serif" font-size="9.1" lengthAdjust="spacing" textLength="14" x="755.732" y="154.8887">0..*</text></g><!--link Enrollment to EnrollmentStatus--><g id="link_Enrollment_EnrollmentStatus"><path codeLine="51" d="M809.9,209.5826 C809.9,233.4106 809.9,268.1096 809.9,291.2726 " fill="none" id="Enrollment-to-EnrollmentStatus" style="stroke:#181818;stroke-width:0.6999999999999998;"/><polygon fill="#181818" points="809.9,294.8916,812.7,288.5916,809.9,291.3916,807.1,288.5916,809.9,294.8916" style="stroke:#181818;stroke-width:0.6999999999999998;"/></g><!--SRC=[bLFBJiCm4BpxArRcm4EaQYKEg8foeAKdoWN4tKcir11x8zifLAYVn5VmOpZlA4eLcbEoCxEPVLdCm2A4Q2rAY8NcaHMe2BbyiNdCbIKPYpvOme7wFaiIpHDcUH103LFu9k0UzohieOc2xrS1H_HzZMY3eAH5AJC6jZpQCOM9PjbEHC-v3BbslAktMxZOREuVxkRNi6TfpW73TsV8YO_EqPOfPqIVSbJ30qTrTDHHaNI5kJRyLCuA7QIiWXCrLgHNOLC-KTfGiyBuNCcQcqYBh9ZScSeNosnkpXGzAesfTDK_2IdiXBhkNV58eOJCPIit7SA-Hf1ZEQ4oM4PFJQbZ32RL0HFJweZ_ReX2o-kxQSjO2-QMMZ9m4-J6iXYx4cDXCbI_FtkUGkHk3Lq6oLkOyjQ2PqeFjAuaBdzLjAAvBY_6J-K5etT4IAzekfZDRYXuZaiNjBtE9UoO8QJUuoPRRsF7eM8nnv7U_eqJggwEOuDjQaXqtlDUlZQdl0HXtCOK7p641mXQoQBcLz9U8ygA7R7VdCR5SFRa3m00]--></g></svg>