<?xml version="1.0" encoding="us-ascii" standalone="no"?><svg xmlns="http://www.w3.org/2000/svg" xmlns:xlink="http://www.w3.org/1999/xlink" contentStyleType="text/css" height="1233px" preserveAspectRatio="none" style="width:1687px;height:1233px;background:#FFFFFF;" version="1.1" viewBox="0 0 1687 1233" width="1687px" zoomAndPan="magnify"><defs/><g><text fill="#000000" font-family="sans-serif" font-size="14" font-weight="bold" lengthAdjust="spacing" textLength="233" x="728.5" y="30.1074">Sequence Diagram (SD) - US 1009</text><rect fill="#FFFFFF" height="978.0703" style="stroke:#181818;stroke-width:1.0;" width="10" x="29" y="137.8633"/><rect fill="#FFFFFF" height="963.7793" style="stroke:#181818;stroke-width:1.0;" width="10" x="388" y="161.1543"/><rect fill="#FFFFFF" height="156.4551" style="stroke:#181818;stroke-width:1.0;" width="10" x="663" y="255.0273"/><rect fill="#FFFFFF" height="156.4551" style="stroke:#181818;stroke-width:1.0;" width="10" x="663" y="505.3555"/><rect fill="#FFFFFF" height="123.873" style="stroke:#181818;stroke-width:1.0;" width="10" x="663" y="781.9746"/><rect fill="#FFFFFF" height="123.873" style="stroke:#181818;stroke-width:1.0;" width="10" x="663" y="953.7695"/><rect fill="#FFFFFF" height="93.873" style="stroke:#181818;stroke-width:1.0;" width="10" x="865.5" y="286.3184"/><rect fill="#FFFFFF" height="93.873" style="stroke:#181818;stroke-width:1.0;" width="10" x="1019" y="536.6465"/><rect fill="#FFFFFF" height="30" style="stroke:#181818;stroke-width:1.0;" width="10" x="1161.5" y="813.2656"/><rect fill="#FFFFFF" height="30" style="stroke:#181818;stroke-width:1.0;" width="10" x="1161.5" y="985.0605"/><rect fill="#FFFFFF" height="31.291" style="stroke:#181818;stroke-width:1.0;" width="10" x="1462" y="317.6094"/><rect fill="#FFFFFF" height="31.291" style="stroke:#181818;stroke-width:1.0;" width="10" x="1606.5" y="567.9375"/><rect fill="none" height="346.25" style="stroke:#000000;stroke-width:1.5;" width="1261" x="276" y="739.3926"/><line style="stroke:#181818;stroke-width:0.5;stroke-dasharray:5.0,5.0;" x1="34" x2="34" y1="127.8633" y2="1133.9336"/><line style="stroke:#181818;stroke-width:0.5;stroke-dasharray:5.0,5.0;" x1="393" x2="393" y1="127.8633" y2="1133.9336"/><line style="stroke:#181818;stroke-width:0.5;stroke-dasharray:5.0,5.0;" x1="668" x2="668" y1="127.8633" y2="1133.9336"/><line style="stroke:#181818;stroke-width:0.5;stroke-dasharray:5.0,5.0;" x1="870" x2="870" y1="127.8633" y2="1133.9336"/><line style="stroke:#181818;stroke-width:0.5;stroke-dasharray:5.0,5.0;" x1="1024" x2="1024" y1="127.8633" y2="1133.9336"/><line style="stroke:#181818;stroke-width:0.5;stroke-dasharray:5.0,5.0;" x1="1166" x2="1166" y1="127.8633" y2="1133.9336"/><line style="stroke:#181818;stroke-width:0.5;stroke-dasharray:5.0,5.0;" x1="1313" x2="1313" y1="127.8633" y2="1133.9336"/><line style="stroke:#181818;stroke-width:0.5;stroke-dasharray:5.0,5.0;" x1="1467" x2="1467" y1="127.8633" y2="1133.9336"/><line style="stroke:#181818;stroke-width:0.5;stroke-dasharray:5.0,5.0;" x1="1611" x2="1611" y1="127.8633" y2="1133.9336"/><text fill="#000000" font-family="sans-serif" font-size="14" lengthAdjust="spacing" textLength="52" x="5" y="124.3496">Gerente</text><ellipse cx="34" cy="57.7422" fill="#E3E3E3" rx="8" ry="8" style="stroke:#181818;stroke-width:0.5;"/><path d="M34,65.7422 L34,92.7422 M21,73.7422 L47,73.7422 M34,92.7422 L21,107.7422 M34,92.7422 L47,107.7422 " fill="none" style="stroke:#181818;stroke-width:0.5;"/><text fill="#000000" font-family="sans-serif" font-size="14" lengthAdjust="spacing" textLength="52" x="5" y="1148.041">Gerente</text><ellipse cx="34" cy="1160.0547" fill="#E3E3E3" rx="8" ry="8" style="stroke:#181818;stroke-width:0.5;"/><path d="M34,1168.0547 L34,1195.0547 M21,1176.0547 L47,1176.0547 M34,1195.0547 L21,1210.0547 M34,1195.0547 L47,1210.0547 " fill="none" style="stroke:#181818;stroke-width:0.5;"/><rect fill="#E3E3E3" height="51.2422" rx="2.5" ry="2.5" style="stroke:#181818;stroke-width:0.5;" width="214" x="286" y="75.6211"/><text fill="#000000" font-family="sans-serif" font-size="14" font-style="italic" lengthAdjust="spacing" textLength="95" x="345.5" y="97.7285">&#171;presentation&#187;</text><text fill="#000000" font-family="sans-serif" font-size="14" lengthAdjust="spacing" textLength="200" x="293" y="116.3496">ApproveRejectStudentCourseUI</text><rect fill="#E3E3E3" height="51.2422" rx="2.5" ry="2.5" style="stroke:#181818;stroke-width:0.5;" width="214" x="286" y="1132.9336"/><text fill="#000000" font-family="sans-serif" font-size="14" font-style="italic" lengthAdjust="spacing" textLength="95" x="345.5" y="1155.041">&#171;presentation&#187;</text><text fill="#000000" font-family="sans-serif" font-size="14" lengthAdjust="spacing" textLength="200" x="293" y="1173.6621">ApproveRejectStudentCourseUI</text><text fill="#000000" font-family="sans-serif" font-size="14" font-style="italic" lengthAdjust="spacing" textLength="84" x="623" y="105.7285">&#171;application&#187;</text><text fill="#000000" font-family="sans-serif" font-size="14" lengthAdjust="spacing" textLength="250" x="540" y="124.3496">ApproveRejectStudentCourseController</text><ellipse cx="668" cy="74.6211" fill="#E3E3E3" rx="12" ry="12" style="stroke:#181818;stroke-width:0.5;"/><polygon fill="#181818" points="664,62.6211,670,57.6211,668,62.6211,670,67.6211,664,62.6211" style="stroke:#181818;stroke-width:1.0;"/><text fill="#000000" font-family="sans-serif" font-size="14" font-style="italic" lengthAdjust="spacing" textLength="84" x="623" y="1148.041">&#171;application&#187;</text><text fill="#000000" font-family="sans-serif" font-size="14" lengthAdjust="spacing" textLength="250" x="540" y="1166.6621">ApproveRejectStudentCourseController</text><ellipse cx="668" cy="1186.1758" fill="#E3E3E3" rx="12" ry="12" style="stroke:#181818;stroke-width:0.5;"/><polygon fill="#181818" points="664,1174.1758,670,1169.1758,668,1174.1758,670,1179.1758,664,1174.1758" style="stroke:#181818;stroke-width:1.0;"/><rect fill="#E3E3E3" height="51.2422" rx="2.5" ry="2.5" style="stroke:#181818;stroke-width:0.5;" width="129" x="806" y="75.6211"/><text fill="#000000" font-family="sans-serif" font-size="14" font-style="italic" lengthAdjust="spacing" textLength="84" x="828.5" y="97.7285">&#171;application&#187;</text><text fill="#000000" font-family="sans-serif" font-size="14" lengthAdjust="spacing" textLength="115" x="813" y="116.3496">ListCourseService</text><rect fill="#E3E3E3" height="51.2422" rx="2.5" ry="2.5" style="stroke:#181818;stroke-width:0.5;" width="129" x="806" y="1132.9336"/><text fill="#000000" font-family="sans-serif" font-size="14" font-style="italic" lengthAdjust="spacing" textLength="84" x="828.5" y="1155.041">&#171;application&#187;</text><text fill="#000000" font-family="sans-serif" font-size="14" lengthAdjust="spacing" textLength="115" x="813" y="1173.6621">ListCourseService</text><rect fill="#E3E3E3" height="51.2422" rx="2.5" ry="2.5" style="stroke:#181818;stroke-width:0.5;" width="158" x="945" y="75.6211"/><text fill="#000000" font-family="sans-serif" font-size="14" font-style="italic" lengthAdjust="spacing" textLength="84" x="982" y="97.7285">&#171;application&#187;</text><text fill="#000000" font-family="sans-serif" font-size="14" lengthAdjust="spacing" textLength="144" x="952" y="116.3496">ListEnrollementService</text><rect fill="#E3E3E3" height="51.2422" rx="2.5" ry="2.5" style="stroke:#181818;stroke-width:0.5;" width="158" x="945" y="1132.9336"/><text fill="#000000" font-family="sans-serif" font-size="14" font-style="italic" lengthAdjust="spacing" textLength="84" x="982" y="1155.041">&#171;application&#187;</text><text fill="#000000" font-family="sans-serif" font-size="14" lengthAdjust="spacing" textLength="144" x="952" y="1173.6621">ListEnrollementService</text><rect fill="#E3E3E3" height="51.2422" rx="2.5" ry="2.5" style="stroke:#181818;stroke-width:0.5;" width="107" x="1113" y="75.6211"/><text fill="#000000" font-family="sans-serif" font-size="14" font-style="italic" lengthAdjust="spacing" textLength="62" x="1135.5" y="97.7285">&#171;domain&#187;</text><text fill="#000000" font-family="sans-serif" font-size="14" lengthAdjust="spacing" textLength="93" x="1120" y="116.3496">course:Course</text><rect fill="#E3E3E3" height="51.2422" rx="2.5" ry="2.5" style="stroke:#181818;stroke-width:0.5;" width="107" x="1113" y="1132.9336"/><text fill="#000000" font-family="sans-serif" font-size="14" font-style="italic" lengthAdjust="spacing" textLength="62" x="1135.5" y="1155.041">&#171;domain&#187;</text><text fill="#000000" font-family="sans-serif" font-size="14" lengthAdjust="spacing" textLength="93" x="1120" y="1173.6621">course:Course</text><rect fill="#E3E3E3" height="51.2422" rx="2.5" ry="2.5" style="stroke:#181818;stroke-width:0.5;" width="167" x="1230" y="75.6211"/><text fill="#000000" font-family="sans-serif" font-size="14" font-style="italic" lengthAdjust="spacing" textLength="62" x="1282.5" y="97.7285">&#171;domain&#187;</text><text fill="#000000" font-family="sans-serif" font-size="14" lengthAdjust="spacing" textLength="153" x="1237" y="116.3496">enrollement:Enrollement</text><rect fill="#E3E3E3" height="51.2422" rx="2.5" ry="2.5" style="stroke:#181818;stroke-width:0.5;" width="167" x="1230" y="1132.9336"/><text fill="#000000" font-family="sans-serif" font-size="14" font-style="italic" lengthAdjust="spacing" textLength="62" x="1282.5" y="1155.041">&#171;domain&#187;</text><text fill="#000000" font-family="sans-serif" font-size="14" lengthAdjust="spacing" textLength="153" x="1237" y="1173.6621">enrollement:Enrollement</text><text fill="#000000" font-family="sans-serif" font-size="14" font-style="italic" lengthAdjust="spacing" textLength="79" x="1424.5" y="105.7285">&#171;repository&#187;</text><text fill="#000000" font-family="sans-serif" font-size="14" lengthAdjust="spacing" textLength="114" x="1407" y="124.3496">CourseRepository</text><path d="M1449,54.6211 C1449,44.6211 1467,44.6211 1467,44.6211 C1467,44.6211 1485,44.6211 1485,54.6211 L1485,80.6211 C1485,90.6211 1467,90.6211 1467,90.6211 C1467,90.6211 1449,90.6211 1449,80.6211 L1449,54.6211 " fill="#E3E3E3" style="stroke:#181818;stroke-width:1.5;"/><path d="M1449,54.6211 C1449,64.6211 1467,64.6211 1467,64.6211 C1467,64.6211 1485,64.6211 1485,54.6211 " fill="none" style="stroke:#181818;stroke-width:1.5;"/><text fill="#000000" font-family="sans-serif" font-size="14" font-style="italic" lengthAdjust="spacing" textLength="79" x="1424.5" y="1148.041">&#171;repository&#187;</text><text fill="#000000" font-family="sans-serif" font-size="14" lengthAdjust="spacing" textLength="114" x="1407" y="1166.6621">CourseRepository</text><path d="M1449,1180.1758 C1449,1170.1758 1467,1170.1758 1467,1170.1758 C1467,1170.1758 1485,1170.1758 1485,1180.1758 L1485,1206.1758 C1485,1216.1758 1467,1216.1758 1467,1216.1758 C1467,1216.1758 1449,1216.1758 1449,1206.1758 L1449,1180.1758 " fill="#E3E3E3" style="stroke:#181818;stroke-width:1.5;"/><path d="M1449,1180.1758 C1449,1190.1758 1467,1190.1758 1467,1190.1758 C1467,1190.1758 1485,1190.1758 1485,1180.1758 " fill="none" style="stroke:#181818;stroke-width:1.5;"/><text fill="#000000" font-family="sans-serif" font-size="14" font-style="italic" lengthAdjust="spacing" textLength="79" x="1569" y="105.7285">&#171;repository&#187;</text><text fill="#000000" font-family="sans-serif" font-size="14" lengthAdjust="spacing" textLength="143" x="1537" y="124.3496">EnrollementRepository</text><path d="M1593.5,54.6211 C1593.5,44.6211 1611.5,44.6211 1611.5,44.6211 C1611.5,44.6211 1629.5,44.6211 1629.5,54.6211 L1629.5,80.6211 C1629.5,90.6211 1611.5,90.6211 1611.5,90.6211 C1611.5,90.6211 1593.5,90.6211 1593.5,80.6211 L1593.5,54.6211 " fill="#E3E3E3" style="stroke:#181818;stroke-width:1.5;"/><path d="M1593.5,54.6211 C1593.5,64.6211 1611.5,64.6211 1611.5,64.6211 C1611.5,64.6211 1629.5,64.6211 1629.5,54.6211 " fill="none" style="stroke:#181818;stroke-width:1.5;"/><text fill="#000000" font-family="sans-serif" font-size="14" font-style="italic" lengthAdjust="spacing" textLength="79" x="1569" y="1148.041">&#171;repository&#187;</text><text fill="#000000" font-family="sans-serif" font-size="14" lengthAdjust="spacing" textLength="143" x="1537" y="1166.6621">EnrollementRepository</text><path d="M1593.5,1180.1758 C1593.5,1170.1758 1611.5,1170.1758 1611.5,1170.1758 C1611.5,1170.1758 1629.5,1170.1758 1629.5,1180.1758 L1629.5,1206.1758 C1629.5,1216.1758 1611.5,1216.1758 1611.5,1216.1758 C1611.5,1216.1758 1593.5,1216.1758 1593.5,1206.1758 L1593.5,1180.1758 " fill="#E3E3E3" style="stroke:#181818;stroke-width:1.5;"/><path d="M1593.5,1180.1758 C1593.5,1190.1758 1611.5,1190.1758 1611.5,1190.1758 C1611.5,1190.1758 1629.5,1190.1758 1629.5,1180.1758 " fill="none" style="stroke:#181818;stroke-width:1.5;"/><rect fill="#FFFFFF" height="978.0703" style="stroke:#181818;stroke-width:1.0;" width="10" x="29" y="137.8633"/><rect fill="#FFFFFF" height="963.7793" style="stroke:#181818;stroke-width:1.0;" width="10" x="388" y="161.1543"/><rect fill="#FFFFFF" height="156.4551" style="stroke:#181818;stroke-width:1.0;" width="10" x="663" y="255.0273"/><rect fill="#FFFFFF" height="156.4551" style="stroke:#181818;stroke-width:1.0;" width="10" x="663" y="505.3555"/><rect fill="#FFFFFF" height="123.873" style="stroke:#181818;stroke-width:1.0;" width="10" x="663" y="781.9746"/><rect fill="#FFFFFF" height="123.873" style="stroke:#181818;stroke-width:1.0;" width="10" x="663" y="953.7695"/><rect fill="#FFFFFF" height="93.873" style="stroke:#181818;stroke-width:1.0;" width="10" x="865.5" y="286.3184"/><rect fill="#FFFFFF" height="93.873" style="stroke:#181818;stroke-width:1.0;" width="10" x="1019" y="536.6465"/><rect fill="#FFFFFF" height="30" style="stroke:#181818;stroke-width:1.0;" width="10" x="1161.5" y="813.2656"/><rect fill="#FFFFFF" height="30" style="stroke:#181818;stroke-width:1.0;" width="10" x="1161.5" y="985.0605"/><rect fill="#FFFFFF" height="31.291" style="stroke:#181818;stroke-width:1.0;" width="10" x="1462" y="317.6094"/><rect fill="#FFFFFF" height="31.291" style="stroke:#181818;stroke-width:1.0;" width="10" x="1606.5" y="567.9375"/><polygon fill="#181818" points="376,157.1543,386,161.1543,376,165.1543,380,161.1543" style="stroke:#181818;stroke-width:1.0;"/><line style="stroke:#181818;stroke-width:1.0;" x1="39" x2="382" y1="161.1543" y2="161.1543"/><text fill="#000000" font-family="sans-serif" font-size="13" font-weight="bold" lengthAdjust="spacing" textLength="7" x="46" y="155.8916">1</text><text fill="#000000" font-family="sans-serif" font-size="13" lengthAdjust="spacing" textLength="317" x="57" y="155.8916">Pede para aceitar/recusar inscri&#231;&#245;es de uma disciplina</text><polygon fill="#181818" points="656,188.4453,666,192.4453,656,196.4453,660,192.4453" style="stroke:#181818;stroke-width:1.0;"/><line style="stroke:#181818;stroke-width:1.0;" x1="398" x2="662" y1="192.4453" y2="192.4453"/><text fill="#000000" font-family="sans-serif" font-size="13" font-weight="bold" lengthAdjust="spacing" textLength="7" x="405" y="187.1826">2</text><text fill="#000000" font-family="sans-serif" font-size="13" lengthAdjust="spacing" textLength="36" x="416" y="187.1826">create</text><polygon fill="#181818" points="858.5,219.7363,868.5,223.7363,858.5,227.7363,862.5,223.7363" style="stroke:#181818;stroke-width:1.0;"/><line style="stroke:#181818;stroke-width:1.0;" x1="668" x2="864.5" y1="223.7363" y2="223.7363"/><text fill="#000000" font-family="sans-serif" font-size="13" font-weight="bold" lengthAdjust="spacing" textLength="7" x="675" y="218.4736">3</text><text fill="#000000" font-family="sans-serif" font-size="13" lengthAdjust="spacing" textLength="36" x="686" y="218.4736">create</text><polygon fill="#181818" points="651,251.0273,661,255.0273,651,259.0273,655,255.0273" style="stroke:#181818;stroke-width:1.0;"/><line style="stroke:#181818;stroke-width:1.0;" x1="398" x2="657" y1="255.0273" y2="255.0273"/><text fill="#000000" font-family="sans-serif" font-size="13" font-weight="bold" lengthAdjust="spacing" textLength="7" x="405" y="249.7646">4</text><text fill="#000000" font-family="sans-serif" font-size="13" lengthAdjust="spacing" textLength="121" x="416" y="249.7646">listAllEnrollCourses()</text><polygon fill="#181818" points="853.5,282.3184,863.5,286.3184,853.5,290.3184,857.5,286.3184" style="stroke:#181818;stroke-width:1.0;"/><line style="stroke:#181818;stroke-width:1.0;" x1="673" x2="859.5" y1="286.3184" y2="286.3184"/><text fill="#000000" font-family="sans-serif" font-size="13" font-weight="bold" lengthAdjust="spacing" textLength="7" x="680" y="281.0557">5</text><text fill="#000000" font-family="sans-serif" font-size="13" lengthAdjust="spacing" textLength="102" x="691" y="281.0557">allEnrollCourses()</text><polygon fill="#181818" points="1450,313.6094,1460,317.6094,1450,321.6094,1454,317.6094" style="stroke:#181818;stroke-width:1.0;"/><line style="stroke:#181818;stroke-width:1.0;" x1="875.5" x2="1456" y1="317.6094" y2="317.6094"/><text fill="#000000" font-family="sans-serif" font-size="13" font-weight="bold" lengthAdjust="spacing" textLength="7" x="882.5" y="312.3467">6</text><text fill="#000000" font-family="sans-serif" font-size="13" lengthAdjust="spacing" textLength="157" x="893.5" y="312.3467">list = findAllEnrollCourses()</text><polygon fill="#181818" points="886.5,344.9004,876.5,348.9004,886.5,352.9004,882.5,348.9004" style="stroke:#181818;stroke-width:1.0;"/><line style="stroke:#181818;stroke-width:1.0;stroke-dasharray:2.0,2.0;" x1="880.5" x2="1466" y1="348.9004" y2="348.9004"/><text fill="#000000" font-family="sans-serif" font-size="13" font-weight="bold" lengthAdjust="spacing" textLength="7" x="892.5" y="343.6377">7</text><text fill="#000000" font-family="sans-serif" font-size="13" lengthAdjust="spacing" textLength="4" x="903.5" y="343.6377">&#160;</text><polygon fill="#181818" points="684,376.1914,674,380.1914,684,384.1914,680,380.1914" style="stroke:#181818;stroke-width:1.0;"/><line style="stroke:#181818;stroke-width:1.0;stroke-dasharray:2.0,2.0;" x1="678" x2="869.5" y1="380.1914" y2="380.1914"/><text fill="#000000" font-family="sans-serif" font-size="13" font-weight="bold" lengthAdjust="spacing" textLength="7" x="690" y="374.9287">8</text><text fill="#000000" font-family="sans-serif" font-size="13" lengthAdjust="spacing" textLength="17" x="701" y="374.9287">list</text><polygon fill="#181818" points="409,407.4824,399,411.4824,409,415.4824,405,411.4824" style="stroke:#181818;stroke-width:1.0;"/><line style="stroke:#181818;stroke-width:1.0;stroke-dasharray:2.0,2.0;" x1="403" x2="667" y1="411.4824" y2="411.4824"/><text fill="#000000" font-family="sans-serif" font-size="13" font-weight="bold" lengthAdjust="spacing" textLength="7" x="415" y="406.2197">9</text><text fill="#000000" font-family="sans-serif" font-size="13" lengthAdjust="spacing" textLength="17" x="426" y="406.2197">list</text><polygon fill="#181818" points="50,438.7734,40,442.7734,50,446.7734,46,442.7734" style="stroke:#181818;stroke-width:1.0;"/><line style="stroke:#181818;stroke-width:1.0;stroke-dasharray:2.0,2.0;" x1="44" x2="387" y1="442.7734" y2="442.7734"/><text fill="#000000" font-family="sans-serif" font-size="13" font-weight="bold" lengthAdjust="spacing" textLength="14" x="56" y="437.5107">10</text><text fill="#000000" font-family="sans-serif" font-size="13" lengthAdjust="spacing" textLength="294" x="74" y="437.5107">Mostra a lista de disciplinas com incri&#231;&#245;es abertas</text><polygon fill="#181818" points="376,470.0645,386,474.0645,376,478.0645,380,474.0645" style="stroke:#181818;stroke-width:1.0;"/><line style="stroke:#181818;stroke-width:1.0;" x1="39" x2="382" y1="474.0645" y2="474.0645"/><text fill="#000000" font-family="sans-serif" font-size="13" font-weight="bold" lengthAdjust="spacing" textLength="14" x="46" y="468.8018">11</text><text fill="#000000" font-family="sans-serif" font-size="13" lengthAdjust="spacing" textLength="126" x="64" y="468.8018">Seleciona a disciplina</text><polygon fill="#181818" points="651,501.3555,661,505.3555,651,509.3555,655,505.3555" style="stroke:#181818;stroke-width:1.0;"/><line style="stroke:#181818;stroke-width:1.0;" x1="398" x2="657" y1="505.3555" y2="505.3555"/><text fill="#000000" font-family="sans-serif" font-size="13" font-weight="bold" lengthAdjust="spacing" textLength="14" x="405" y="500.0928">12</text><text fill="#000000" font-family="sans-serif" font-size="13" lengthAdjust="spacing" textLength="225" x="423" y="500.0928">listAllPendingEnrollments(courseCode)</text><polygon fill="#181818" points="1007,532.6465,1017,536.6465,1007,540.6465,1011,536.6465" style="stroke:#181818;stroke-width:1.0;"/><line style="stroke:#181818;stroke-width:1.0;" x1="673" x2="1013" y1="536.6465" y2="536.6465"/><text fill="#000000" font-family="sans-serif" font-size="13" font-weight="bold" lengthAdjust="spacing" textLength="14" x="680" y="531.3838">13</text><text fill="#000000" font-family="sans-serif" font-size="13" lengthAdjust="spacing" textLength="206" x="698" y="531.3838">allPendingEnrollments(courseCode)</text><polygon fill="#181818" points="1594.5,563.9375,1604.5,567.9375,1594.5,571.9375,1598.5,567.9375" style="stroke:#181818;stroke-width:1.0;"/><line style="stroke:#181818;stroke-width:1.0;" x1="1029" x2="1600.5" y1="567.9375" y2="567.9375"/><text fill="#000000" font-family="sans-serif" font-size="13" font-weight="bold" lengthAdjust="spacing" textLength="14" x="1036" y="562.6748">14</text><text fill="#000000" font-family="sans-serif" font-size="13" lengthAdjust="spacing" textLength="261" x="1054" y="562.6748">list = findAllPendingEnrollments(courseCode)</text><polygon fill="#181818" points="1040,595.2285,1030,599.2285,1040,603.2285,1036,599.2285" style="stroke:#181818;stroke-width:1.0;"/><line style="stroke:#181818;stroke-width:1.0;stroke-dasharray:2.0,2.0;" x1="1034" x2="1610.5" y1="599.2285" y2="599.2285"/><text fill="#000000" font-family="sans-serif" font-size="13" font-weight="bold" lengthAdjust="spacing" textLength="14" x="1046" y="593.9658">15</text><text fill="#000000" font-family="sans-serif" font-size="13" lengthAdjust="spacing" textLength="4" x="1064" y="593.9658">&#160;</text><polygon fill="#181818" points="684,626.5195,674,630.5195,684,634.5195,680,630.5195" style="stroke:#181818;stroke-width:1.0;"/><line style="stroke:#181818;stroke-width:1.0;stroke-dasharray:2.0,2.0;" x1="678" x2="1023" y1="630.5195" y2="630.5195"/><text fill="#000000" font-family="sans-serif" font-size="13" font-weight="bold" lengthAdjust="spacing" textLength="14" x="690" y="625.2568">16</text><text fill="#000000" font-family="sans-serif" font-size="13" lengthAdjust="spacing" textLength="17" x="708" y="625.2568">list</text><polygon fill="#181818" points="409,657.8105,399,661.8105,409,665.8105,405,661.8105" style="stroke:#181818;stroke-width:1.0;"/><line style="stroke:#181818;stroke-width:1.0;stroke-dasharray:2.0,2.0;" x1="403" x2="667" y1="661.8105" y2="661.8105"/><text fill="#000000" font-family="sans-serif" font-size="13" font-weight="bold" lengthAdjust="spacing" textLength="14" x="415" y="656.5479">17</text><text fill="#000000" font-family="sans-serif" font-size="13" lengthAdjust="spacing" textLength="17" x="433" y="656.5479">list</text><polygon fill="#181818" points="50,689.1016,40,693.1016,50,697.1016,46,693.1016" style="stroke:#181818;stroke-width:1.0;"/><line style="stroke:#181818;stroke-width:1.0;stroke-dasharray:2.0,2.0;" x1="44" x2="387" y1="693.1016" y2="693.1016"/><text fill="#000000" font-family="sans-serif" font-size="13" font-weight="bold" lengthAdjust="spacing" textLength="14" x="56" y="687.8389">18</text><text fill="#000000" font-family="sans-serif" font-size="13" lengthAdjust="spacing" textLength="307" x="74" y="687.8389">Mostra a lista de estudantes com inscri&#231;&#227;o pendente</text><polygon fill="#181818" points="376,720.3926,386,724.3926,376,728.3926,380,724.3926" style="stroke:#181818;stroke-width:1.0;"/><line style="stroke:#181818;stroke-width:1.0;" x1="39" x2="382" y1="724.3926" y2="724.3926"/><text fill="#000000" font-family="sans-serif" font-size="13" font-weight="bold" lengthAdjust="spacing" textLength="14" x="46" y="719.1299">19</text><text fill="#000000" font-family="sans-serif" font-size="13" lengthAdjust="spacing" textLength="291" x="64" y="719.1299">Seleciona o estudante e aprova/recusa a inscri&#231;&#227;o</text><path d="M276,739.3926 L337,739.3926 L337,748.6836 L327,758.6836 L276,758.6836 L276,739.3926 " fill="#EEEEEE" style="stroke:#000000;stroke-width:1.5;"/><rect fill="none" height="346.25" style="stroke:#000000;stroke-width:1.5;" width="1261" x="276" y="739.3926"/><text fill="#000000" font-family="sans-serif" font-size="13" font-weight="bold" lengthAdjust="spacing" textLength="16" x="291" y="754.4209">alt</text><text fill="#000000" font-family="sans-serif" font-size="11" font-weight="bold" lengthAdjust="spacing" textLength="164" x="352" y="753.2627">[Se o estudante for aprovado]</text><polygon fill="#181818" points="651,777.9746,661,781.9746,651,785.9746,655,781.9746" style="stroke:#181818;stroke-width:1.0;"/><line style="stroke:#181818;stroke-width:1.0;" x1="398" x2="657" y1="781.9746" y2="781.9746"/><text fill="#000000" font-family="sans-serif" font-size="13" font-weight="bold" lengthAdjust="spacing" textLength="14" x="405" y="776.7119">20</text><text fill="#000000" font-family="sans-serif" font-size="13" lengthAdjust="spacing" textLength="228" x="423" y="776.7119">approvedEnrollment(course, enrollment)</text><polygon fill="#181818" points="1149.5,809.2656,1159.5,813.2656,1149.5,817.2656,1153.5,813.2656" style="stroke:#181818;stroke-width:1.0;"/><line style="stroke:#181818;stroke-width:1.0;" x1="673" x2="1155.5" y1="813.2656" y2="813.2656"/><text fill="#000000" font-family="sans-serif" font-size="13" font-weight="bold" lengthAdjust="spacing" textLength="14" x="680" y="808.0029">21</text><text fill="#000000" font-family="sans-serif" font-size="13" lengthAdjust="spacing" textLength="215" x="698" y="808.0029">approveCourseEnrollment(enrollment)</text><polygon fill="#181818" points="1455,870.5566,1465,874.5566,1455,878.5566,1459,874.5566" style="stroke:#181818;stroke-width:1.0;"/><line style="stroke:#181818;stroke-width:1.0;" x1="673" x2="1461" y1="874.5566" y2="874.5566"/><text fill="#000000" font-family="sans-serif" font-size="13" font-weight="bold" lengthAdjust="spacing" textLength="14" x="680" y="869.2939">22</text><text fill="#000000" font-family="sans-serif" font-size="13" lengthAdjust="spacing" textLength="77" x="698" y="869.2939">save (course)</text><polygon fill="#181818" points="409,901.8477,399,905.8477,409,909.8477,405,905.8477" style="stroke:#181818;stroke-width:1.0;"/><line style="stroke:#181818;stroke-width:1.0;stroke-dasharray:2.0,2.0;" x1="403" x2="667" y1="905.8477" y2="905.8477"/><text fill="#000000" font-family="sans-serif" font-size="13" font-weight="bold" lengthAdjust="spacing" textLength="14" x="415" y="900.585">23</text><text fill="#000000" font-family="sans-serif" font-size="13" lengthAdjust="spacing" textLength="39" x="433" y="900.585">course</text><line style="stroke:#000000;stroke-width:1.0;stroke-dasharray:2.0,2.0;" x1="276" x2="1537" y1="914.8477" y2="914.8477"/><text fill="#000000" font-family="sans-serif" font-size="11" font-weight="bold" lengthAdjust="spacing" textLength="162" x="281" y="926.7178">[Se o estudante for rejeitado]</text><polygon fill="#181818" points="651,949.7695,661,953.7695,651,957.7695,655,953.7695" style="stroke:#181818;stroke-width:1.0;"/><line style="stroke:#181818;stroke-width:1.0;" x1="398" x2="657" y1="953.7695" y2="953.7695"/><text fill="#000000" font-family="sans-serif" font-size="13" font-weight="bold" lengthAdjust="spacing" textLength="14" x="405" y="948.5068">24</text><text fill="#000000" font-family="sans-serif" font-size="13" lengthAdjust="spacing" textLength="209" x="423" y="948.5068">rejectEnrollment(course, enrollment)</text><polygon fill="#181818" points="1149.5,981.0605,1159.5,985.0605,1149.5,989.0605,1153.5,985.0605" style="stroke:#181818;stroke-width:1.0;"/><line style="stroke:#181818;stroke-width:1.0;" x1="673" x2="1155.5" y1="985.0605" y2="985.0605"/><text fill="#000000" font-family="sans-serif" font-size="13" font-weight="bold" lengthAdjust="spacing" textLength="14" x="680" y="979.7979">25</text><text fill="#000000" font-family="sans-serif" font-size="13" lengthAdjust="spacing" textLength="203" x="698" y="979.7979">rejectCourseEnrollment(enrollment)</text><polygon fill="#181818" points="1455,1042.3516,1465,1046.3516,1455,1050.3516,1459,1046.3516" style="stroke:#181818;stroke-width:1.0;"/><line style="stroke:#181818;stroke-width:1.0;" x1="673" x2="1461" y1="1046.3516" y2="1046.3516"/><text fill="#000000" font-family="sans-serif" font-size="13" font-weight="bold" lengthAdjust="spacing" textLength="14" x="680" y="1041.0889">26</text><text fill="#000000" font-family="sans-serif" font-size="13" lengthAdjust="spacing" textLength="77" x="698" y="1041.0889">save (course)</text><polygon fill="#181818" points="409,1073.6426,399,1077.6426,409,1081.6426,405,1077.6426" style="stroke:#181818;stroke-width:1.0;"/><line style="stroke:#181818;stroke-width:1.0;stroke-dasharray:2.0,2.0;" x1="403" x2="667" y1="1077.6426" y2="1077.6426"/><text fill="#000000" font-family="sans-serif" font-size="13" font-weight="bold" lengthAdjust="spacing" textLength="14" x="415" y="1072.3799">27</text><text fill="#000000" font-family="sans-serif" font-size="13" lengthAdjust="spacing" textLength="39" x="433" y="1072.3799">course</text><polygon fill="#181818" points="45,1111.9336,35,1115.9336,45,1119.9336,41,1115.9336" style="stroke:#181818;stroke-width:1.0;"/><line style="stroke:#181818;stroke-width:1.0;stroke-dasharray:2.0,2.0;" x1="39" x2="387" y1="1115.9336" y2="1115.9336"/><text fill="#000000" font-family="sans-serif" font-size="13" font-weight="bold" lengthAdjust="spacing" textLength="14" x="51" y="1110.6709">28</text><text fill="#000000" font-family="sans-serif" font-size="13" lengthAdjust="spacing" textLength="181" x="69" y="1110.6709">Informa o sucesso da opera&#231;&#227;o</text><!--SRC=[vPPDRjim48NtEiKWgnYeaNHPmmrW94KHe0M223d0X9euR2HI9IaNEKyNFK5Fa8jrACeIPKksqWBPr0l3ecQ-D-Oy_jWdgKeqM42XbHQFHXS4pbIKsFPDYU89rvIwvvp0a72erdaSO1ynqp-aMiC3vfQIn4d7eIbzhqW9WYk9QnztcbxDO0vtARm_F_-GOEMqgefxCac2mca3dycGSWHeOUK74kOxAMI9oi6gB8tUq2rzun9ILsKSUgahO-dkscVmzt9P6h8yZavgTN6H2AsSqVc1tCiGaPFnZEXfkSIopANOek9IlaZRfATaDb9Go8q7ZgL_KhLEmOL4Z87HGw0JKMikWlH9LyMLBb0gpitg7xjfrCai8icJdHBsAHawl4TBZSmjbTfARjHp9nsDBPUcVOYJ8ua-OVZ53iPxHMwGRH8y0lofVy7ymfjW0JUK4NXh0WgI3iqPkxQoQ40gAuny-VNoconmK5KWPDBolEHIOOrgwNVNzRF_C9NPaJaM80nnK1iHlQiZOokqmOTuENjYbUTX1aA-FPsr6MrLNL8oKHmdKQES61oZMdRKcr0uV8G7gRBLPAMEiACLeUVx_wKDpcWgi2r-QCB7UTkf69hYhSt62VijyXtdlE3J1NpLrdbxrWpqJknSQ47eWftQ6HLvYtHeErhVxYdb97XpyBp8p1FSTaCgusqxDCslEdigcbqnexyoty06LZlmjKhxd4vnGAElVC2V_r37WCM6DUSZyp3abSdyL_juO0RVpCna-OZbauQsNcvstPyQIcw0F-EFcrbt6E33qH_Ws6pah1KnEnJcZW6zp0TcXznCjt4ZgmB3BI7htD6OunrGEpJhKGxEqzZUt9ohhM0OZLGdg7MSNiJUHjR47AsfjsOiRWYQ_puRpztsB0IErx4_CyJNnA5E6RwWyO5zl5McliczMQE2t7_JfxPDAXjTzTUA6rRuPMehGTPgoFYX98DXKKRaS4_x0m00]--></g></svg>