<?xml version="1.0" encoding="us-ascii" standalone="no"?><svg xmlns="http://www.w3.org/2000/svg" xmlns:xlink="http://www.w3.org/1999/xlink" contentStyleType="text/css" height="414px" preserveAspectRatio="none" style="width:431px;height:414px;background:#FFFFFF;" version="1.1" viewBox="0 0 431 414" width="431px" zoomAndPan="magnify"><defs/><g><text fill="#000000" font-family="sans-serif" font-size="14" font-weight="bold" lengthAdjust="spacing" textLength="296" x="66.5" y="30.1074">System Sequence Diagram (SSD) - US 1009</text><rect fill="#FFFFFF" height="179.7461" style="stroke:#181818;stroke-width:1.0;" width="10" x="29" y="133.2422"/><rect fill="#FFFFFF" height="31.291" style="stroke:#181818;stroke-width:1.0;" width="10" x="386" y="156.5332"/><rect fill="#FFFFFF" height="31.291" style="stroke:#181818;stroke-width:1.0;" width="10" x="386" y="219.1152"/><rect fill="#FFFFFF" height="31.291" style="stroke:#181818;stroke-width:1.0;" width="10" x="386" y="281.6973"/><line style="stroke:#181818;stroke-width:0.5;stroke-dasharray:5.0,5.0;" x1="34" x2="34" y1="123.2422" y2="330.9883"/><line style="stroke:#181818;stroke-width:0.5;stroke-dasharray:5.0,5.0;" x1="391" x2="391" y1="123.2422" y2="330.9883"/><text fill="#000000" font-family="sans-serif" font-size="14" lengthAdjust="spacing" textLength="52" x="5" y="119.7285">Gerente</text><ellipse cx="34" cy="53.1211" fill="#E3E3E3" rx="8" ry="8" style="stroke:#181818;stroke-width:0.5;"/><path d="M34,61.1211 L34,88.1211 M21,69.1211 L47,69.1211 M34,88.1211 L21,103.1211 M34,88.1211 L47,103.1211 " fill="none" style="stroke:#181818;stroke-width:0.5;"/><text fill="#000000" font-family="sans-serif" font-size="14" lengthAdjust="spacing" textLength="52" x="5" y="345.0957">Gerente</text><ellipse cx="34" cy="357.1094" fill="#E3E3E3" rx="8" ry="8" style="stroke:#181818;stroke-width:0.5;"/><path d="M34,365.1094 L34,392.1094 M21,373.1094 L47,373.1094 M34,392.1094 L21,407.1094 M34,392.1094 L47,407.1094 " fill="none" style="stroke:#181818;stroke-width:0.5;"/><rect fill="#E3E3E3" height="32.6211" rx="2.5" ry="2.5" style="stroke:#181818;stroke-width:0.5;" width="68" x="357" y="89.6211"/><text fill="#000000" font-family="sans-serif" font-size="14" lengthAdjust="spacing" textLength="54" x="364" y="111.7285">:Sistema</text><rect fill="#E3E3E3" height="32.6211" rx="2.5" ry="2.5" style="stroke:#181818;stroke-width:0.5;" width="68" x="357" y="329.9883"/><text fill="#000000" font-family="sans-serif" font-size="14" lengthAdjust="spacing" textLength="54" x="364" y="352.0957">:Sistema</text><rect fill="#FFFFFF" height="179.7461" style="stroke:#181818;stroke-width:1.0;" width="10" x="29" y="133.2422"/><rect fill="#FFFFFF" height="31.291" style="stroke:#181818;stroke-width:1.0;" width="10" x="386" y="156.5332"/><rect fill="#FFFFFF" height="31.291" style="stroke:#181818;stroke-width:1.0;" width="10" x="386" y="219.1152"/><rect fill="#FFFFFF" height="31.291" style="stroke:#181818;stroke-width:1.0;" width="10" x="386" y="281.6973"/><polygon fill="#181818" points="374,152.5332,384,156.5332,374,160.5332,378,156.5332" style="stroke:#181818;stroke-width:1.0;"/><line style="stroke:#181818;stroke-width:1.0;" x1="39" x2="380" y1="156.5332" y2="156.5332"/><text fill="#000000" font-family="sans-serif" font-size="13" font-weight="bold" lengthAdjust="spacing" textLength="7" x="46" y="151.2705">1</text><text fill="#000000" font-family="sans-serif" font-size="13" lengthAdjust="spacing" textLength="317" x="57" y="151.2705">Pede para aceitar/recusar inscri&#231;&#245;es de uma disciplina</text><polygon fill="#181818" points="50,183.8242,40,187.8242,50,191.8242,46,187.8242" style="stroke:#181818;stroke-width:1.0;"/><line style="stroke:#181818;stroke-width:1.0;stroke-dasharray:2.0,2.0;" x1="44" x2="390" y1="187.8242" y2="187.8242"/><text fill="#000000" font-family="sans-serif" font-size="13" font-weight="bold" lengthAdjust="spacing" textLength="7" x="56" y="182.5615">2</text><text fill="#000000" font-family="sans-serif" font-size="13" lengthAdjust="spacing" textLength="294" x="67" y="182.5615">Mostra a lista de disciplinas com incri&#231;&#245;es abertas</text><polygon fill="#181818" points="374,215.1152,384,219.1152,374,223.1152,378,219.1152" style="stroke:#181818;stroke-width:1.0;"/><line style="stroke:#181818;stroke-width:1.0;" x1="39" x2="380" y1="219.1152" y2="219.1152"/><text fill="#000000" font-family="sans-serif" font-size="13" font-weight="bold" lengthAdjust="spacing" textLength="7" x="46" y="213.8525">3</text><text fill="#000000" font-family="sans-serif" font-size="13" lengthAdjust="spacing" textLength="126" x="57" y="213.8525">Seleciona a disciplina</text><polygon fill="#181818" points="50,246.4063,40,250.4063,50,254.4063,46,250.4063" style="stroke:#181818;stroke-width:1.0;"/><line style="stroke:#181818;stroke-width:1.0;stroke-dasharray:2.0,2.0;" x1="44" x2="390" y1="250.4063" y2="250.4063"/><text fill="#000000" font-family="sans-serif" font-size="13" font-weight="bold" lengthAdjust="spacing" textLength="7" x="56" y="245.1436">4</text><text fill="#000000" font-family="sans-serif" font-size="13" lengthAdjust="spacing" textLength="307" x="67" y="245.1436">Mostra a lista de estudantes com inscri&#231;&#227;o pendente</text><polygon fill="#181818" points="374,277.6973,384,281.6973,374,285.6973,378,281.6973" style="stroke:#181818;stroke-width:1.0;"/><line style="stroke:#181818;stroke-width:1.0;" x1="39" x2="380" y1="281.6973" y2="281.6973"/><text fill="#000000" font-family="sans-serif" font-size="13" font-weight="bold" lengthAdjust="spacing" textLength="7" x="46" y="276.4346">5</text><text fill="#000000" font-family="sans-serif" font-size="13" lengthAdjust="spacing" textLength="291" x="57" y="276.4346">Seleciona o estudante e aprova/recusa a inscri&#231;&#227;o</text><polygon fill="#181818" points="45,308.9883,35,312.9883,45,316.9883,41,312.9883" style="stroke:#181818;stroke-width:1.0;"/><line style="stroke:#181818;stroke-width:1.0;stroke-dasharray:2.0,2.0;" x1="39" x2="390" y1="312.9883" y2="312.9883"/><text fill="#000000" font-family="sans-serif" font-size="13" font-weight="bold" lengthAdjust="spacing" textLength="7" x="51" y="307.7256">6</text><text fill="#000000" font-family="sans-serif" font-size="13" lengthAdjust="spacing" textLength="181" x="62" y="307.7256">Informa o sucesso da opera&#231;&#227;o</text><!--SRC=[fP71IWCn48RlUOgX9pqKwz4U1A4W7WGX-01ZCjs6Rf8rCwdqUJpu13v1NyoaktKNwK7nj2IP-Rv_PddhGeS9FVWOejcaw0aaPLBy_TAXsM93MlOjGI8Z69fsMi0RjF7DXGRMs38f9KvAgTwpa0TDhvc28LWvR6hvXTQhIvZ3iuRhnU96OPOOid-Xf1GQYGbczvGe2Cq06UxgbIecSSPr60HcI-qg6e_llUROwdOeD3IeumVcjwSSItWYIr0Z0nfoWkcgJ9CP4xZ09hd3n-6J64fHzWZMSV6rBk287bm3SLxWlMK9Zv6bWg4jqR0ondu64trnZ0eimmgoilGJVIQsffQCYw7I_nkAMB8jEwHJfc7kzmWT1LkN_jTGSOG20NOfxd1OR35F3Bz9_13MCVaAvMo8EO8jXuuIzeWpsIPN_P__0W00]--></g></svg>