<?xml version="1.0" encoding="us-ascii" standalone="no"?><svg xmlns="http://www.w3.org/2000/svg" xmlns:xlink="http://www.w3.org/1999/xlink" contentStyleType="text/css" height="608px" preserveAspectRatio="none" style="width:1214px;height:608px;background:#FFFFFF;" version="1.1" viewBox="0 0 1214 608" width="1214px" zoomAndPan="magnify"><defs/><g><text fill="#000000" font-family="sans-serif" font-size="14" font-weight="bold" lengthAdjust="spacing" textLength="201" x="499.5" y="25.1074">Class Diagram (CD) - US 4002</text><!--class CancelMeetingUI--><g id="elem_CancelMeetingUI"><rect codeLine="5" fill="#F1F1F1" height="79.2031" id="CancelMeetingUI" rx="2.5" ry="2.5" style="stroke:#181818;stroke-width:0.5;" width="141" x="788" y="46.6211"/><ellipse cx="804.35" cy="68.9121" fill="#ADD1B2" rx="11" ry="11" style="stroke:#181818;stroke-width:1.0;"/><path d="M807.1156,64.7871 Q807.2719,64.5684 807.4594,64.459 Q807.6469,64.3496 807.8656,64.3496 Q808.2406,64.3496 808.475,64.6152 Q808.7094,64.8652 808.7094,65.4746 L808.7094,66.9277 Q808.7094,67.5371 808.475,67.8027 Q808.2406,68.0684 807.8656,68.0684 Q807.5219,68.0684 807.3188,67.8652 Q807.1156,67.6777 807.0063,67.1621 Q806.9594,66.8027 806.7719,66.6152 Q806.4438,66.2402 805.8344,66.0215 Q805.225,65.8027 804.6,65.8027 Q803.8344,65.8027 803.1938,66.1309 Q802.5688,66.459 802.0688,67.209 Q801.5844,67.959 801.5844,68.9902 L801.5844,70.084 Q801.5844,71.3184 802.475,72.1465 Q803.3656,72.959 804.9594,72.959 Q805.8969,72.959 806.5531,72.709 Q806.9438,72.5527 807.3656,72.1152 Q807.6313,71.8496 807.7719,71.7715 Q807.9281,71.6934 808.1313,71.6934 Q808.4594,71.6934 808.7094,71.959 Q808.975,72.209 808.975,72.5527 Q808.975,72.8965 808.6313,73.3027 Q808.1313,73.8809 807.3344,74.209 Q806.2563,74.6621 804.9594,74.6621 Q803.4438,74.6621 802.2406,74.0371 Q801.2563,73.5371 800.5688,72.4746 Q799.8813,71.3965 799.8813,70.1152 L799.8813,68.959 Q799.8813,67.6309 800.4906,66.4902 Q801.1156,65.334 802.2094,64.7246 Q803.3031,64.0996 804.5375,64.0996 Q805.2719,64.0996 805.9125,64.2715 Q806.5688,64.4277 807.1156,64.7871 Z " fill="#000000"/><text fill="#000000" font-family="sans-serif" font-size="12" font-style="italic" lengthAdjust="spacing" textLength="82" x="830.65" y="64.5703">&#171;presentation&#187;</text><text fill="#000000" font-family="sans-serif" font-size="14" lengthAdjust="spacing" textLength="106" x="818.65" y="82.6895">CancelMeetingUI</text><line style="stroke:#181818;stroke-width:0.5;" x1="789" x2="928" y1="91.2031" y2="91.2031"/><line style="stroke:#181818;stroke-width:0.5;" x1="789" x2="928" y1="99.2031" y2="99.2031"/><polygon fill="#FFFF44" points="799,109.0137,803,113.0137,799,117.0137,795,113.0137" style="stroke:#B38D22;stroke-width:1.0;"/><text fill="#000000" font-family="sans-serif" font-size="14" lengthAdjust="spacing" textLength="115" x="808" y="118.3105">boolean doShow()</text></g><!--class JpaMeetingRepository--><g id="elem_JpaMeetingRepository"><rect codeLine="9" fill="#F1F1F1" height="60.582" id="JpaMeetingRepository" rx="2.5" ry="2.5" style="stroke:#181818;stroke-width:0.5;" width="172" x="199.5" y="400.1211"/><ellipse cx="214.5" cy="422.4121" fill="#ADD1B2" rx="11" ry="11" style="stroke:#181818;stroke-width:1.0;"/><path d="M217.2656,418.2871 Q217.4219,418.0684 217.6094,417.959 Q217.7969,417.8496 218.0156,417.8496 Q218.3906,417.8496 218.625,418.1152 Q218.8594,418.3652 218.8594,418.9746 L218.8594,420.4277 Q218.8594,421.0371 218.625,421.3027 Q218.3906,421.5684 218.0156,421.5684 Q217.6719,421.5684 217.4688,421.3652 Q217.2656,421.1777 217.1563,420.6621 Q217.1094,420.3027 216.9219,420.1152 Q216.5938,419.7402 215.9844,419.5215 Q215.375,419.3027 214.75,419.3027 Q213.9844,419.3027 213.3438,419.6309 Q212.7188,419.959 212.2188,420.709 Q211.7344,421.459 211.7344,422.4902 L211.7344,423.584 Q211.7344,424.8184 212.625,425.6465 Q213.5156,426.459 215.1094,426.459 Q216.0469,426.459 216.7031,426.209 Q217.0938,426.0527 217.5156,425.6152 Q217.7813,425.3496 217.9219,425.2715 Q218.0781,425.1934 218.2813,425.1934 Q218.6094,425.1934 218.8594,425.459 Q219.125,425.709 219.125,426.0527 Q219.125,426.3965 218.7813,426.8027 Q218.2813,427.3809 217.4844,427.709 Q216.4063,428.1621 215.1094,428.1621 Q213.5938,428.1621 212.3906,427.5371 Q211.4063,427.0371 210.7188,425.9746 Q210.0313,424.8965 210.0313,423.6152 L210.0313,422.459 Q210.0313,421.1309 210.6406,419.9902 Q211.2656,418.834 212.3594,418.2246 Q213.4531,417.5996 214.6875,417.5996 Q215.4219,417.5996 216.0625,417.7715 Q216.7188,417.9277 217.2656,418.2871 Z " fill="#000000"/><text fill="#000000" font-family="sans-serif" font-size="12" font-style="italic" lengthAdjust="spacing" textLength="77" x="260" y="418.0703">&#171;persistence&#187;</text><text fill="#000000" font-family="sans-serif" font-size="14" lengthAdjust="spacing" textLength="140" x="228.5" y="436.1895">JpaMeetingRepository</text><line style="stroke:#181818;stroke-width:0.5;" x1="200.5" x2="370.5" y1="444.7031" y2="444.7031"/><line style="stroke:#181818;stroke-width:0.5;" x1="200.5" x2="370.5" y1="452.7031" y2="452.7031"/></g><!--class InMemoryMeetingRepository--><g id="elem_InMemoryMeetingRepository"><rect codeLine="10" fill="#F1F1F1" height="60.582" id="InMemoryMeetingRepository" rx="2.5" ry="2.5" style="stroke:#181818;stroke-width:0.5;" width="211" x="407" y="400.1211"/><ellipse cx="422" cy="422.4121" fill="#ADD1B2" rx="11" ry="11" style="stroke:#181818;stroke-width:1.0;"/><path d="M424.7656,418.2871 Q424.9219,418.0684 425.1094,417.959 Q425.2969,417.8496 425.5156,417.8496 Q425.8906,417.8496 426.125,418.1152 Q426.3594,418.3652 426.3594,418.9746 L426.3594,420.4277 Q426.3594,421.0371 426.125,421.3027 Q425.8906,421.5684 425.5156,421.5684 Q425.1719,421.5684 424.9688,421.3652 Q424.7656,421.1777 424.6563,420.6621 Q424.6094,420.3027 424.4219,420.1152 Q424.0938,419.7402 423.4844,419.5215 Q422.875,419.3027 422.25,419.3027 Q421.4844,419.3027 420.8438,419.6309 Q420.2188,419.959 419.7188,420.709 Q419.2344,421.459 419.2344,422.4902 L419.2344,423.584 Q419.2344,424.8184 420.125,425.6465 Q421.0156,426.459 422.6094,426.459 Q423.5469,426.459 424.2031,426.209 Q424.5938,426.0527 425.0156,425.6152 Q425.2813,425.3496 425.4219,425.2715 Q425.5781,425.1934 425.7813,425.1934 Q426.1094,425.1934 426.3594,425.459 Q426.625,425.709 426.625,426.0527 Q426.625,426.3965 426.2813,426.8027 Q425.7813,427.3809 424.9844,427.709 Q423.9063,428.1621 422.6094,428.1621 Q421.0938,428.1621 419.8906,427.5371 Q418.9063,427.0371 418.2188,425.9746 Q417.5313,424.8965 417.5313,423.6152 L417.5313,422.459 Q417.5313,421.1309 418.1406,419.9902 Q418.7656,418.834 419.8594,418.2246 Q420.9531,417.5996 422.1875,417.5996 Q422.9219,417.5996 423.5625,417.7715 Q424.2188,417.9277 424.7656,418.2871 Z " fill="#000000"/><text fill="#000000" font-family="sans-serif" font-size="12" font-style="italic" lengthAdjust="spacing" textLength="77" x="487" y="418.0703">&#171;persistence&#187;</text><text fill="#000000" font-family="sans-serif" font-size="14" lengthAdjust="spacing" textLength="179" x="436" y="436.1895">InMemoryMeetingRepository</text><line style="stroke:#181818;stroke-width:0.5;" x1="408" x2="617" y1="444.7031" y2="444.7031"/><line style="stroke:#181818;stroke-width:0.5;" x1="408" x2="617" y1="452.7031" y2="452.7031"/></g><!--class Meeting--><g id="elem_Meeting"><rect codeLine="12" fill="#F1F1F1" height="79.2031" id="Meeting" rx="2.5" ry="2.5" style="stroke:#181818;stroke-width:0.5;" width="157" x="7" y="391.1211"/><ellipse cx="55.25" cy="413.4121" fill="#ADD1B2" rx="11" ry="11" style="stroke:#181818;stroke-width:1.0;"/><path d="M58.0156,409.2871 Q58.1719,409.0684 58.3594,408.959 Q58.5469,408.8496 58.7656,408.8496 Q59.1406,408.8496 59.375,409.1152 Q59.6094,409.3652 59.6094,409.9746 L59.6094,411.4277 Q59.6094,412.0371 59.375,412.3027 Q59.1406,412.5684 58.7656,412.5684 Q58.4219,412.5684 58.2188,412.3652 Q58.0156,412.1777 57.9063,411.6621 Q57.8594,411.3027 57.6719,411.1152 Q57.3438,410.7402 56.7344,410.5215 Q56.125,410.3027 55.5,410.3027 Q54.7344,410.3027 54.0938,410.6309 Q53.4688,410.959 52.9688,411.709 Q52.4844,412.459 52.4844,413.4902 L52.4844,414.584 Q52.4844,415.8184 53.375,416.6465 Q54.2656,417.459 55.8594,417.459 Q56.7969,417.459 57.4531,417.209 Q57.8438,417.0527 58.2656,416.6152 Q58.5313,416.3496 58.6719,416.2715 Q58.8281,416.1934 59.0313,416.1934 Q59.3594,416.1934 59.6094,416.459 Q59.875,416.709 59.875,417.0527 Q59.875,417.3965 59.5313,417.8027 Q59.0313,418.3809 58.2344,418.709 Q57.1563,419.1621 55.8594,419.1621 Q54.3438,419.1621 53.1406,418.5371 Q52.1563,418.0371 51.4688,416.9746 Q50.7813,415.8965 50.7813,414.6152 L50.7813,413.459 Q50.7813,412.1309 51.3906,410.9902 Q52.0156,409.834 53.1094,409.2246 Q54.2031,408.5996 55.4375,408.5996 Q56.1719,408.5996 56.8125,408.7715 Q57.4688,408.9277 58.0156,409.2871 Z " fill="#000000"/><text fill="#000000" font-family="sans-serif" font-size="12" font-style="italic" lengthAdjust="spacing" textLength="56" x="73.75" y="409.0703">&#171;domain&#187;</text><text fill="#000000" font-family="sans-serif" font-size="14" lengthAdjust="spacing" textLength="50" x="76.75" y="427.1895">Meeting</text><line style="stroke:#181818;stroke-width:0.5;" x1="8" x2="163" y1="435.7031" y2="435.7031"/><line style="stroke:#181818;stroke-width:0.5;" x1="8" x2="163" y1="443.7031" y2="443.7031"/><ellipse cx="18" cy="458.5137" fill="#84BE84" rx="3" ry="3" style="stroke:#038048;stroke-width:1.0;"/><text fill="#000000" font-family="sans-serif" font-size="14" lengthAdjust="spacing" textLength="131" x="27" y="462.8105">void cancelMeeting()</text></g><!--class SystemUser--><g id="elem_SystemUser"><rect codeLine="15" fill="#F1F1F1" height="60.582" id="SystemUser" rx="2.5" ry="2.5" style="stroke:#181818;stroke-width:0.5;" width="107" x="1099" y="400.1211"/><ellipse cx="1114" cy="422.4121" fill="#ADD1B2" rx="11" ry="11" style="stroke:#181818;stroke-width:1.0;"/><path d="M1116.7656,418.2871 Q1116.9219,418.0684 1117.1094,417.959 Q1117.2969,417.8496 1117.5156,417.8496 Q1117.8906,417.8496 1118.125,418.1152 Q1118.3594,418.3652 1118.3594,418.9746 L1118.3594,420.4277 Q1118.3594,421.0371 1118.125,421.3027 Q1117.8906,421.5684 1117.5156,421.5684 Q1117.1719,421.5684 1116.9688,421.3652 Q1116.7656,421.1777 1116.6563,420.6621 Q1116.6094,420.3027 1116.4219,420.1152 Q1116.0938,419.7402 1115.4844,419.5215 Q1114.875,419.3027 1114.25,419.3027 Q1113.4844,419.3027 1112.8438,419.6309 Q1112.2188,419.959 1111.7188,420.709 Q1111.2344,421.459 1111.2344,422.4902 L1111.2344,423.584 Q1111.2344,424.8184 1112.125,425.6465 Q1113.0156,426.459 1114.6094,426.459 Q1115.5469,426.459 1116.2031,426.209 Q1116.5938,426.0527 1117.0156,425.6152 Q1117.2813,425.3496 1117.4219,425.2715 Q1117.5781,425.1934 1117.7813,425.1934 Q1118.1094,425.1934 1118.3594,425.459 Q1118.625,425.709 1118.625,426.0527 Q1118.625,426.3965 1118.2813,426.8027 Q1117.7813,427.3809 1116.9844,427.709 Q1115.9063,428.1621 1114.6094,428.1621 Q1113.0938,428.1621 1111.8906,427.5371 Q1110.9063,427.0371 1110.2188,425.9746 Q1109.5313,424.8965 1109.5313,423.6152 L1109.5313,422.459 Q1109.5313,421.1309 1110.1406,419.9902 Q1110.7656,418.834 1111.8594,418.2246 Q1112.9531,417.5996 1114.1875,417.5996 Q1114.9219,417.5996 1115.5625,417.7715 Q1116.2188,417.9277 1116.7656,418.2871 Z " fill="#000000"/><text fill="#000000" font-family="sans-serif" font-size="12" font-style="italic" lengthAdjust="spacing" textLength="56" x="1137.5" y="418.0703">&#171;domain&#187;</text><text fill="#000000" font-family="sans-serif" font-size="14" lengthAdjust="spacing" textLength="75" x="1128" y="436.1895">SystemUser</text><line style="stroke:#181818;stroke-width:0.5;" x1="1100" x2="1205" y1="444.7031" y2="444.7031"/><line style="stroke:#181818;stroke-width:0.5;" x1="1100" x2="1205" y1="452.7031" y2="452.7031"/></g><!--class Username--><g id="elem_Username"><rect codeLine="16" fill="#F1F1F1" height="60.582" id="Username" rx="2.5" ry="2.5" style="stroke:#181818;stroke-width:0.5;" width="109" x="1098" y="540.6211"/><ellipse cx="1113" cy="562.9121" fill="#FF8B40" rx="11" ry="11" style="stroke:#181818;stroke-width:1.0;"/><path d="M1113.5938,566.1777 L1116.0625,560.3027 L1115.6719,560.3027 Q1115.0625,560.3027 1114.7969,560.0684 Q1114.5313,559.834 1114.5313,559.4434 Q1114.5313,559.0684 1114.7969,558.834 Q1115.0625,558.5996 1115.6719,558.5996 L1117.9531,558.5996 Q1118.5625,558.5996 1118.8281,558.834 Q1119.0938,559.0684 1119.0938,559.4434 Q1119.0938,559.9121 1118.6875,560.1777 Q1118.5,560.3027 1117.9063,560.3027 L1114.4219,568.6621 L1112.7813,568.6621 L1109.2969,560.3027 Q1108.7031,560.3027 1108.5156,560.1777 Q1108.1094,559.9121 1108.1094,559.4434 Q1108.1094,559.0684 1108.375,558.834 Q1108.6406,558.5996 1109.25,558.5996 L1111.5469,558.5996 Q1112.1563,558.5996 1112.4063,558.834 Q1112.6719,559.0684 1112.6719,559.4434 Q1112.6719,559.834 1112.4063,560.0684 Q1112.1563,560.3027 1111.5469,560.3027 L1111.1406,560.3027 L1113.5938,566.1777 Z " fill="#000000"/><text fill="#000000" font-family="sans-serif" font-size="12" font-style="italic" lengthAdjust="spacing" textLength="81" x="1125" y="558.5703">&#171;value object&#187;</text><text fill="#000000" font-family="sans-serif" font-size="14" lengthAdjust="spacing" textLength="64" x="1133.5" y="576.6895">Username</text><line style="stroke:#181818;stroke-width:0.5;" x1="1099" x2="1206" y1="585.2031" y2="585.2031"/><line style="stroke:#181818;stroke-width:0.5;" x1="1099" x2="1206" y1="593.2031" y2="593.2031"/></g><!--class CancelMeetingController--><g id="elem_CancelMeetingController"><rect codeLine="19" fill="#F1F1F1" height="97.8242" id="CancelMeetingController" rx="2.5" ry="2.5" style="stroke:#181818;stroke-width:0.5;" width="308" x="704.5" y="204.6211"/><ellipse cx="776.25" cy="226.9121" fill="#ADD1B2" rx="11" ry="11" style="stroke:#181818;stroke-width:1.0;"/><path d="M779.0156,222.7871 Q779.1719,222.5684 779.3594,222.459 Q779.5469,222.3496 779.7656,222.3496 Q780.1406,222.3496 780.375,222.6152 Q780.6094,222.8652 780.6094,223.4746 L780.6094,224.9277 Q780.6094,225.5371 780.375,225.8027 Q780.1406,226.0684 779.7656,226.0684 Q779.4219,226.0684 779.2188,225.8652 Q779.0156,225.6777 778.9063,225.1621 Q778.8594,224.8027 778.6719,224.6152 Q778.3438,224.2402 777.7344,224.0215 Q777.125,223.8027 776.5,223.8027 Q775.7344,223.8027 775.0938,224.1309 Q774.4688,224.459 773.9688,225.209 Q773.4844,225.959 773.4844,226.9902 L773.4844,228.084 Q773.4844,229.3184 774.375,230.1465 Q775.2656,230.959 776.8594,230.959 Q777.7969,230.959 778.4531,230.709 Q778.8438,230.5527 779.2656,230.1152 Q779.5313,229.8496 779.6719,229.7715 Q779.8281,229.6934 780.0313,229.6934 Q780.3594,229.6934 780.6094,229.959 Q780.875,230.209 780.875,230.5527 Q780.875,230.8965 780.5313,231.3027 Q780.0313,231.8809 779.2344,232.209 Q778.1563,232.6621 776.8594,232.6621 Q775.3438,232.6621 774.1406,232.0371 Q773.1563,231.5371 772.4688,230.4746 Q771.7813,229.3965 771.7813,228.1152 L771.7813,226.959 Q771.7813,225.6309 772.3906,224.4902 Q773.0156,223.334 774.1094,222.7246 Q775.2031,222.0996 776.4375,222.0996 Q777.1719,222.0996 777.8125,222.2715 Q778.4688,222.4277 779.0156,222.7871 Z " fill="#000000"/><text fill="#000000" font-family="sans-serif" font-size="12" font-style="italic" lengthAdjust="spacing" textLength="74" x="837.75" y="222.5703">&#171;application&#187;</text><text fill="#000000" font-family="sans-serif" font-size="14" lengthAdjust="spacing" textLength="156" x="796.75" y="240.6895">CancelMeetingController</text><line style="stroke:#181818;stroke-width:0.5;" x1="705.5" x2="1011.5" y1="249.2031" y2="249.2031"/><line style="stroke:#181818;stroke-width:0.5;" x1="705.5" x2="1011.5" y1="257.2031" y2="257.2031"/><ellipse cx="715.5" cy="272.0137" fill="#84BE84" rx="3" ry="3" style="stroke:#038048;stroke-width:1.0;"/><text fill="#000000" font-family="sans-serif" font-size="14" lengthAdjust="spacing" textLength="282" x="724.5" y="276.3105">Iterable&lt;Meeting&gt; listAllMeetingsToBeHeld();</text><ellipse cx="715.5" cy="290.6348" fill="#84BE84" rx="3" ry="3" style="stroke:#038048;stroke-width:1.0;"/><text fill="#000000" font-family="sans-serif" font-size="14" lengthAdjust="spacing" textLength="243" x="724.5" y="294.9316">void cancelMeeting(meeting : Meeting)</text></g><!--class MeetingRepository--><g id="elem_MeetingRepository"><rect codeLine="24" fill="#F1F1F1" height="97.8242" id="MeetingRepository" rx="2.5" ry="2.5" style="stroke:#181818;stroke-width:0.5;" width="410" x="653.5" y="381.6211"/><ellipse cx="794.75" cy="403.9121" fill="#B4A7E5" rx="11" ry="11" style="stroke:#181818;stroke-width:1.0;"/><path d="M795.7031,400.5527 L795.7031,407.209 L797.4219,407.209 Q798.0313,407.209 798.2969,407.4434 Q798.5625,407.6777 798.5625,408.0684 Q798.5625,408.4434 798.2969,408.6777 Q798.0313,408.9121 797.4219,408.9121 L792.2813,408.9121 Q791.6719,408.9121 791.4063,408.6777 Q791.1406,408.4434 791.1406,408.0527 Q791.1406,407.6777 791.4063,407.4434 Q791.6719,407.209 792.2813,407.209 L794,407.209 L794,400.5527 L792.2813,400.5527 Q791.6719,400.5527 791.4063,400.3184 Q791.1406,400.084 791.1406,399.6934 Q791.1406,399.3184 791.4063,399.084 Q791.6719,398.8496 792.2813,398.8496 L797.4219,398.8496 Q798.0313,398.8496 798.2969,399.084 Q798.5625,399.3184 798.5625,399.6934 Q798.5625,400.084 798.2969,400.3184 Q798.0313,400.5527 797.4219,400.5527 L795.7031,400.5527 Z " fill="#000000"/><text fill="#000000" font-family="sans-serif" font-size="12" font-style="italic" lengthAdjust="spacing" textLength="78" x="835.75" y="399.5703">&#171;repositories&#187;</text><text fill="#000000" font-family="sans-serif" font-size="14" font-style="italic" lengthAdjust="spacing" textLength="119" x="815.25" y="417.6895">MeetingRepository</text><line style="stroke:#181818;stroke-width:0.5;" x1="654.5" x2="1062.5" y1="426.2031" y2="426.2031"/><line style="stroke:#181818;stroke-width:0.5;" x1="654.5" x2="1062.5" y1="434.2031" y2="434.2031"/><ellipse cx="664.5" cy="449.0137" fill="#84BE84" rx="3" ry="3" style="stroke:#038048;stroke-width:1.0;"/><text fill="#000000" font-family="sans-serif" font-size="14" lengthAdjust="spacing" textLength="384" x="673.5" y="453.3105">Iterable&lt;Meeting&gt; findAllMeetingsToBeHeld(user: Username)</text><ellipse cx="664.5" cy="467.6348" fill="#84BE84" rx="3" ry="3" style="stroke:#038048;stroke-width:1.0;"/><text fill="#000000" font-family="sans-serif" font-size="14" lengthAdjust="spacing" textLength="206" x="673.5" y="471.9316">Meeting save(meeting : Meeting)</text></g><!--link CancelMeetingUI to CancelMeetingController--><g id="link_CancelMeetingUI_CancelMeetingController"><path codeLine="30" d="M858.5,125.9211 C858.5,147.8611 858.5,175.6111 858.5,199.5511 " fill="none" id="CancelMeetingUI-to-CancelMeetingController" style="stroke:#181818;stroke-width:1.0;"/><polygon fill="#181818" points="858.5,204.5911,862.5,195.5911,858.5,199.5911,854.5,195.5911,858.5,204.5911" style="stroke:#181818;stroke-width:1.0;"/><text fill="#000000" font-family="sans-serif" font-size="13" lengthAdjust="spacing" textLength="73" x="859.5" y="170.6494">theController</text></g><!--link CancelMeetingController to MeetingRepository--><g id="link_CancelMeetingController_MeetingRepository"><path codeLine="31" d="M858.5,302.9011 C858.5,325.6611 858.5,352.8911 858.5,376.2611 " fill="none" id="CancelMeetingController-to-MeetingRepository" style="stroke:#181818;stroke-width:1.0;"/><polygon fill="#181818" points="858.5,381.4911,862.5,372.4911,858.5,376.4911,854.5,372.4911,858.5,381.4911" style="stroke:#181818;stroke-width:1.0;"/><text fill="#000000" font-family="sans-serif" font-size="13" lengthAdjust="spacing" textLength="25" x="859.5" y="347.6494">repo</text></g><!--link CancelMeetingController to SystemUser--><g id="link_CancelMeetingController_SystemUser"><path codeLine="32" d="M946.52,302.7011 C987.92,325.8311 1037.7,354.4011 1081.5,381.6211 C1089.28,386.4611 1097.43,391.7511 1105.32,396.9911 " fill="none" id="CancelMeetingController-to-SystemUser" style="stroke:#181818;stroke-width:1.0;"/><polygon fill="#181818" points="1109.67,399.8911,1104.4003,391.5706,1105.5097,397.1176,1099.9627,398.227,1109.67,399.8911" style="stroke:#181818;stroke-width:1.0;"/><text fill="#000000" font-family="sans-serif" font-size="13" lengthAdjust="spacing" textLength="25" x="1027.5" y="347.6494">user</text></g><!--link SystemUser to Username--><g id="link_SystemUser_Username"><path codeLine="33" d="M1152.5,461.3311 C1152.5,483.0611 1152.5,512.5911 1152.5,535.4011 " fill="none" id="SystemUser-to-Username" style="stroke:#181818;stroke-width:1.0;"/><polygon fill="#181818" points="1152.5,540.4611,1156.5,531.4611,1152.5,535.4611,1148.5,531.4611,1152.5,540.4611" style="stroke:#181818;stroke-width:1.0;"/></g><!--link CancelMeetingController to Meeting--><g id="link_CancelMeetingController_Meeting"><path codeLine="34" d="M704.33,289.5211 C614.27,309.2411 498.27,333.4911 394.5,351.6211 C300.33,368.0811 272.78,353.2011 181.5,381.6211 C174.71,383.7411 167.8,386.2911 160.97,389.1011 " fill="none" id="CancelMeetingController-to-Meeting" style="stroke:#181818;stroke-width:1.0;"/><polygon fill="#181818" points="156.26,391.0811,166.1069,391.2751,160.8682,389.1408,163.0025,383.902,156.26,391.0811" style="stroke:#181818;stroke-width:1.0;"/><text fill="#000000" font-family="sans-serif" font-size="13" lengthAdjust="spacing" textLength="46" x="498.5" y="347.6494">meeting</text></g><!--link JpaMeetingRepository to MeetingRepository--><g id="link_JpaMeetingRepository_MeetingRepository"><path codeLine="35" d="M315.85,399.9811 C338.71,379.2011 372.01,353.5111 407,342.1211 C522.03,304.6711 658.97,342.5011 751.64,379.6511 " fill="none" id="JpaMeetingRepository-to-MeetingRepository" style="stroke:#181818;stroke-width:1.0;"/><polygon fill="#181818" points="756.29,381.5311,749.438,374.4565,751.6526,379.6618,746.4472,381.8764,756.29,381.5311" style="stroke:#181818;stroke-width:1.0;"/></g><!--link InMemoryMeetingRepository to MeetingRepository--><g id="link_InMemoryMeetingRepository_MeetingRepository"><path codeLine="36" d="M618.26,430.6211 C628.25,430.6211 638.24,430.6211 648.23,430.6211 " fill="none" id="InMemoryMeetingRepository-to-MeetingRepository" style="stroke:#181818;stroke-width:1.0;"/><polygon fill="#181818" points="653.45,430.6211,644.45,426.6211,648.45,430.6211,644.45,434.6211,653.45,430.6211" style="stroke:#181818;stroke-width:1.0;"/></g><!--link CancelMeetingUI to SystemUser--><g id="link_CancelMeetingUI_SystemUser"><path codeLine="39" d="M929.21,124.8611 C962.8,145.2711 1001.79,172.8111 1030.5,204.6211 C1083.17,262.9811 1121.31,348.1411 1139.85,395.1811 " fill="none" id="CancelMeetingUI-to-SystemUser" style="stroke:#181818;stroke-width:1.0;stroke-dasharray:7.0,7.0;"/><polygon fill="#181818" points="1141.69,399.8911,1142.1502,390.053,1139.875,395.2321,1134.6959,392.957,1141.69,399.8911" style="stroke:#181818;stroke-width:1.0;"/></g><!--link CancelMeetingUI to Meeting--><g id="link_CancelMeetingUI_Meeting"><path codeLine="40" d="M787.78,116.4211 C663.99,168.0311 400.4,279.3711 181.5,381.6211 C176.59,383.9111 171.55,386.3111 166.49,388.7511 " fill="none" id="CancelMeetingUI-to-Meeting" style="stroke:#181818;stroke-width:1.0;stroke-dasharray:7.0,7.0;"/><polygon fill="#181818" points="161.83,391.0011,171.674,390.6923,166.3331,388.8281,168.1973,383.4873,161.83,391.0011" style="stroke:#181818;stroke-width:1.0;"/></g><!--SRC=[ZLD1Qy8m6BtdLtomWorEaE5XT5AO5Pa3TvXpbx53R3ur8qrA4Xqo_EzBQpfrjc9lwVVUwtilNost0Y4Hr1WOShhKD8CW6ORGWTaKUjtk7I6jSeo6f2KieJ95CK6qN2vdO-ZtSuq6fQMMAnd7y4F0FJTpfGHI2KnDL-ex2CcEU8Ndd7hwA-RASAlqjf11RRYnwEGBbPr7Z-K4CuUuYk8v7kiGJ6MK7rorDuepI8yZbCxsjEdMQMKpW_g4MOsBWQGPkc7mVWitez7zeDSDOKF56a7Dlp2rSKn8NL69abOh8KffckU2fwTzjSSMDPqBx7j63C95UnILWdbJ0tn2mOBmeJ5BveD7LGLbxLmwxGLD4UfArDM1exbaPy4bgxEpThL4V-M4Utfr0uPkiC5LwuLk-B9iWVnVgaudRkml0hl2mvaquGgDyxmH57alaexM888Y7JbwKm2ghDTysadu-AHsx-jCakQThuMJrX1pbCpz1-uEpylyODIia7sUPBi8ys_9Bm00]--></g></svg>