<?xml version="1.0" encoding="us-ascii" standalone="no"?><svg xmlns="http://www.w3.org/2000/svg" xmlns:xlink="http://www.w3.org/1999/xlink" contentStyleType="text/css" height="641px" preserveAspectRatio="none" style="width:747px;height:641px;background:#FFFFFF;" version="1.1" viewBox="0 0 747 641" width="747px" zoomAndPan="magnify"><defs/><g><text fill="#000000" font-family="sans-serif" font-size="14" font-weight="bold" lengthAdjust="spacing" textLength="213" x="260" y="25.1074">Domain Classes (DC) - US 4002</text><!--cluster <<aggregate>> Meeting--><g id="cluster_&lt;&lt;aggregate&gt;&gt; Meeting"><path d="M295.5,45.6348 L446.5,45.6348 A3.75,3.75 0 0 1 449,48.1348 L456,70.2559 L522.5,70.2559 A2.5,2.5 0 0 1 525,72.7559 L525,502.1348 A2.5,2.5 0 0 1 522.5,504.6348 L295.5,504.6348 A2.5,2.5 0 0 1 293,502.1348 L293,48.1348 A2.5,2.5 0 0 1 295.5,45.6348 " fill="none" style="stroke:#000000;stroke-width:1.5;"/><line style="stroke:#000000;stroke-width:1.5;" x1="293" x2="456" y1="70.2559" y2="70.2559"/><text fill="#000000" font-family="sans-serif" font-size="14" font-weight="bold" lengthAdjust="spacing" textLength="150" x="297" y="62.7422">&#171;aggregate&#187; Meeting</text></g><!--cluster <<aggregate>> SystemUser--><g id="cluster_&lt;&lt;aggregate&gt;&gt; SystemUser"><path d="M551.5,382.6348 L727.5,382.6348 A3.75,3.75 0 0 1 730,385.1348 L737,407.2559 L737.5,407.2559 A2.5,2.5 0 0 1 740,409.7559 L740,632.1348 A2.5,2.5 0 0 1 737.5,634.6348 L551.5,634.6348 A2.5,2.5 0 0 1 549,632.1348 L549,385.1348 A2.5,2.5 0 0 1 551.5,382.6348 " fill="none" style="stroke:#000000;stroke-width:1.5;"/><line style="stroke:#000000;stroke-width:1.5;" x1="549" x2="737" y1="407.2559" y2="407.2559"/><text fill="#000000" font-family="sans-serif" font-size="14" font-weight="bold" lengthAdjust="spacing" textLength="175" x="553" y="399.7422">&#171;aggregate&#187; SystemUser</text></g><!--class Meeting--><g id="elem_Meeting"><rect codeLine="7" fill="#F1F1F1" height="95.1641" id="Meeting" rx="2.5" ry="2.5" style="stroke:#181818;stroke-width:0.5;" width="82" x="383" y="82.6348"/><ellipse cx="398" cy="112.9063" fill="#ADD1B2" rx="11" ry="11" style="stroke:#181818;stroke-width:1.0;"/><path d="M396.8594,113.7031 L396.8594,116.2031 L401.1875,116.2031 L401.1875,115.2813 Q401.1875,114.6719 401.4219,114.4063 Q401.6719,114.1406 402.0469,114.1406 Q402.4219,114.1406 402.6563,114.4063 Q402.8906,114.6719 402.8906,115.2813 L402.8906,117.9063 L394.8906,117.9063 Q394.2656,117.9063 394,117.6719 Q393.75,117.4375 393.75,117.0469 Q393.75,116.6719 394.0156,116.4375 Q394.2813,116.2031 394.8906,116.2031 L395.1563,116.2031 L395.1563,109.5469 L394.8906,109.5469 Q394.2656,109.5469 394,109.3125 Q393.75,109.0781 393.75,108.6875 Q393.75,108.3125 394,108.0781 Q394.2656,107.8438 394.8906,107.8438 L402.5156,107.8438 L402.5156,110.4375 Q402.5156,111.0469 402.2813,111.3125 Q402.0625,111.5625 401.6719,111.5625 Q401.2969,111.5625 401.0625,111.3125 Q400.8281,111.0469 400.8281,110.4375 L400.8281,109.5469 L396.8594,109.5469 L396.8594,112 L398.3438,112 Q398.3438,111.3438 398.4688,111.1563 Q398.7344,110.75 399.2031,110.75 Q399.5781,110.75 399.8125,111.0156 Q400.0469,111.2656 400.0469,111.875 L400.0469,113.8438 Q400.0469,114.3906 399.9219,114.5781 Q399.6563,114.9688 399.2031,114.9688 Q398.7344,114.9688 398.4688,114.5625 Q398.3438,114.375 398.3438,113.7031 L396.8594,113.7031 Z " fill="#000000"/><text fill="#000000" font-family="sans-serif" font-size="12" font-style="italic" lengthAdjust="spacing" textLength="43" x="415.5" y="100.584">&#171;entity&#187;</text><text fill="#000000" font-family="sans-serif" font-size="12" font-style="italic" lengthAdjust="spacing" textLength="35" x="419.5" y="116.5449">&#171;root&#187;</text><text fill="#000000" font-family="sans-serif" font-size="14" lengthAdjust="spacing" textLength="50" x="412" y="134.6641">Meeting</text><line style="stroke:#181818;stroke-width:0.5;" x1="384" x2="464" y1="143.1777" y2="143.1777"/><text fill="#000000" font-family="sans-serif" font-size="14" lengthAdjust="spacing" textLength="57" x="389" y="162.2852">canceled</text><line style="stroke:#181818;stroke-width:0.5;" x1="384" x2="464" y1="169.7988" y2="169.7988"/></g><!--class ParticipationMeeting--><g id="elem_ParticipationMeeting"><rect codeLine="10" fill="#F1F1F1" height="60.582" id="ParticipationMeeting" rx="2.5" ry="2.5" style="stroke:#181818;stroke-width:0.5;" width="160" x="344" y="256.6348"/><ellipse cx="359" cy="278.9258" fill="#ADD1B2" rx="11" ry="11" style="stroke:#181818;stroke-width:1.0;"/><path d="M357.8594,279.7227 L357.8594,282.2227 L362.1875,282.2227 L362.1875,281.3008 Q362.1875,280.6914 362.4219,280.4258 Q362.6719,280.1602 363.0469,280.1602 Q363.4219,280.1602 363.6563,280.4258 Q363.8906,280.6914 363.8906,281.3008 L363.8906,283.9258 L355.8906,283.9258 Q355.2656,283.9258 355,283.6914 Q354.75,283.457 354.75,283.0664 Q354.75,282.6914 355.0156,282.457 Q355.2813,282.2227 355.8906,282.2227 L356.1563,282.2227 L356.1563,275.5664 L355.8906,275.5664 Q355.2656,275.5664 355,275.332 Q354.75,275.0977 354.75,274.707 Q354.75,274.332 355,274.0977 Q355.2656,273.8633 355.8906,273.8633 L363.5156,273.8633 L363.5156,276.457 Q363.5156,277.0664 363.2813,277.332 Q363.0625,277.582 362.6719,277.582 Q362.2969,277.582 362.0625,277.332 Q361.8281,277.0664 361.8281,276.457 L361.8281,275.5664 L357.8594,275.5664 L357.8594,278.0195 L359.3438,278.0195 Q359.3438,277.3633 359.4688,277.1758 Q359.7344,276.7695 360.2031,276.7695 Q360.5781,276.7695 360.8125,277.0352 Q361.0469,277.2852 361.0469,277.8945 L361.0469,279.8633 Q361.0469,280.4102 360.9219,280.5977 Q360.6563,280.9883 360.2031,280.9883 Q359.7344,280.9883 359.4688,280.582 Q359.3438,280.3945 359.3438,279.7227 L357.8594,279.7227 Z " fill="#000000"/><text fill="#000000" font-family="sans-serif" font-size="12" font-style="italic" lengthAdjust="spacing" textLength="43" x="415.5" y="274.584">&#171;entity&#187;</text><text fill="#000000" font-family="sans-serif" font-size="14" lengthAdjust="spacing" textLength="128" x="373" y="292.7031">ParticipationMeeting</text><line style="stroke:#181818;stroke-width:0.5;" x1="345" x2="503" y1="301.2168" y2="301.2168"/><line style="stroke:#181818;stroke-width:0.5;" x1="345" x2="503" y1="309.2168" y2="309.2168"/></g><!--class ParticipationMeetingStatus--><g id="elem_ParticipationMeetingStatus"><rect codeLine="11" fill="#F1F1F1" height="60.582" id="ParticipationMeetingStatus" rx="2.5" ry="2.5" style="stroke:#181818;stroke-width:0.5;" width="200" x="309" y="427.6348"/><ellipse cx="324" cy="449.9258" fill="#FF8B40" rx="11" ry="11" style="stroke:#181818;stroke-width:1.0;"/><path d="M324.5938,453.1914 L327.0625,447.3164 L326.6719,447.3164 Q326.0625,447.3164 325.7969,447.082 Q325.5313,446.8477 325.5313,446.457 Q325.5313,446.082 325.7969,445.8477 Q326.0625,445.6133 326.6719,445.6133 L328.9531,445.6133 Q329.5625,445.6133 329.8281,445.8477 Q330.0938,446.082 330.0938,446.457 Q330.0938,446.9258 329.6875,447.1914 Q329.5,447.3164 328.9063,447.3164 L325.4219,455.6758 L323.7813,455.6758 L320.2969,447.3164 Q319.7031,447.3164 319.5156,447.1914 Q319.1094,446.9258 319.1094,446.457 Q319.1094,446.082 319.375,445.8477 Q319.6406,445.6133 320.25,445.6133 L322.5469,445.6133 Q323.1563,445.6133 323.4063,445.8477 Q323.6719,446.082 323.6719,446.457 Q323.6719,446.8477 323.4063,447.082 Q323.1563,447.3164 322.5469,447.3164 L322.1406,447.3164 L324.5938,453.1914 Z " fill="#000000"/><text fill="#000000" font-family="sans-serif" font-size="12" font-style="italic" lengthAdjust="spacing" textLength="81" x="381.5" y="445.584">&#171;value object&#187;</text><text fill="#000000" font-family="sans-serif" font-size="14" lengthAdjust="spacing" textLength="168" x="338" y="463.7031">ParticipationMeetingStatus</text><line style="stroke:#181818;stroke-width:0.5;" x1="310" x2="508" y1="472.2168" y2="472.2168"/><line style="stroke:#181818;stroke-width:0.5;" x1="310" x2="508" y1="480.2168" y2="480.2168"/></g><!--class SystemUser--><g id="elem_SystemUser"><rect codeLine="22" fill="#F1F1F1" height="76.543" id="SystemUser" rx="2.5" ry="2.5" style="stroke:#181818;stroke-width:0.5;" width="107" x="565.5" y="419.6348"/><ellipse cx="580.5" cy="449.9063" fill="#ADD1B2" rx="11" ry="11" style="stroke:#181818;stroke-width:1.0;"/><path d="M579.3594,450.7031 L579.3594,453.2031 L583.6875,453.2031 L583.6875,452.2813 Q583.6875,451.6719 583.9219,451.4063 Q584.1719,451.1406 584.5469,451.1406 Q584.9219,451.1406 585.1563,451.4063 Q585.3906,451.6719 585.3906,452.2813 L585.3906,454.9063 L577.3906,454.9063 Q576.7656,454.9063 576.5,454.6719 Q576.25,454.4375 576.25,454.0469 Q576.25,453.6719 576.5156,453.4375 Q576.7813,453.2031 577.3906,453.2031 L577.6563,453.2031 L577.6563,446.5469 L577.3906,446.5469 Q576.7656,446.5469 576.5,446.3125 Q576.25,446.0781 576.25,445.6875 Q576.25,445.3125 576.5,445.0781 Q576.7656,444.8438 577.3906,444.8438 L585.0156,444.8438 L585.0156,447.4375 Q585.0156,448.0469 584.7813,448.3125 Q584.5625,448.5625 584.1719,448.5625 Q583.7969,448.5625 583.5625,448.3125 Q583.3281,448.0469 583.3281,447.4375 L583.3281,446.5469 L579.3594,446.5469 L579.3594,449 L580.8438,449 Q580.8438,448.3438 580.9688,448.1563 Q581.2344,447.75 581.7031,447.75 Q582.0781,447.75 582.3125,448.0156 Q582.5469,448.2656 582.5469,448.875 L582.5469,450.8438 Q582.5469,451.3906 582.4219,451.5781 Q582.1563,451.9688 581.7031,451.9688 Q581.2344,451.9688 580.9688,451.5625 Q580.8438,451.375 580.8438,450.7031 L579.3594,450.7031 Z " fill="#000000"/><text fill="#000000" font-family="sans-serif" font-size="12" font-style="italic" lengthAdjust="spacing" textLength="43" x="610.5" y="437.584">&#171;entity&#187;</text><text fill="#000000" font-family="sans-serif" font-size="12" font-style="italic" lengthAdjust="spacing" textLength="35" x="614.5" y="453.5449">&#171;root&#187;</text><text fill="#000000" font-family="sans-serif" font-size="14" lengthAdjust="spacing" textLength="75" x="594.5" y="471.6641">SystemUser</text><line style="stroke:#181818;stroke-width:0.5;" x1="566.5" x2="671.5" y1="480.1777" y2="480.1777"/><line style="stroke:#181818;stroke-width:0.5;" x1="566.5" x2="671.5" y1="488.1777" y2="488.1777"/></g><!--class Username--><g id="elem_Username"><rect codeLine="23" fill="#F1F1F1" height="60.582" id="Username" rx="2.5" ry="2.5" style="stroke:#181818;stroke-width:0.5;" width="109" x="565.5" y="557.6348"/><ellipse cx="580.5" cy="579.9258" fill="#FF8B40" rx="11" ry="11" style="stroke:#181818;stroke-width:1.0;"/><path d="M581.0938,583.1914 L583.5625,577.3164 L583.1719,577.3164 Q582.5625,577.3164 582.2969,577.082 Q582.0313,576.8477 582.0313,576.457 Q582.0313,576.082 582.2969,575.8477 Q582.5625,575.6133 583.1719,575.6133 L585.4531,575.6133 Q586.0625,575.6133 586.3281,575.8477 Q586.5938,576.082 586.5938,576.457 Q586.5938,576.9258 586.1875,577.1914 Q586,577.3164 585.4063,577.3164 L581.9219,585.6758 L580.2813,585.6758 L576.7969,577.3164 Q576.2031,577.3164 576.0156,577.1914 Q575.6094,576.9258 575.6094,576.457 Q575.6094,576.082 575.875,575.8477 Q576.1406,575.6133 576.75,575.6133 L579.0469,575.6133 Q579.6563,575.6133 579.9063,575.8477 Q580.1719,576.082 580.1719,576.457 Q580.1719,576.8477 579.9063,577.082 Q579.6563,577.3164 579.0469,577.3164 L578.6406,577.3164 L581.0938,583.1914 Z " fill="#000000"/><text fill="#000000" font-family="sans-serif" font-size="12" font-style="italic" lengthAdjust="spacing" textLength="81" x="592.5" y="575.584">&#171;value object&#187;</text><text fill="#000000" font-family="sans-serif" font-size="14" lengthAdjust="spacing" textLength="64" x="601" y="593.7031">Username</text><line style="stroke:#181818;stroke-width:0.5;" x1="566.5" x2="673.5" y1="602.2168" y2="602.2168"/><line style="stroke:#181818;stroke-width:0.5;" x1="566.5" x2="673.5" y1="610.2168" y2="610.2168"/></g><!--class Event--><g id="elem_Event"><rect codeLine="16" fill="#F1F1F1" height="60.582" id="Event" rx="2.5" ry="2.5" style="stroke:#181818;stroke-width:0.5;" width="86" x="176" y="256.6348"/><ellipse cx="191" cy="278.9258" fill="#A9DCDF" rx="11" ry="11" style="stroke:#181818;stroke-width:1.0;"/><path d="M193.1875,280.6914 L189.0469,280.6914 L188.625,281.7227 L189.0469,281.7227 Q189.6563,281.7227 189.9219,281.957 Q190.1875,282.1914 190.1875,282.582 Q190.1875,282.957 189.9219,283.1914 Q189.6563,283.4258 189.0469,283.4258 L186.75,283.4258 Q186.1406,283.4258 185.8906,283.1914 Q185.625,282.957 185.625,282.5664 Q185.625,282.1914 185.9063,281.957 Q186.1719,281.707 186.7969,281.7227 L189.4688,275.0664 L188.3594,275.0664 Q187.75,275.0664 187.4844,274.832 Q187.2188,274.5977 187.2188,274.207 Q187.2188,273.832 187.4844,273.5977 Q187.75,273.3633 188.3594,273.3633 L192.0313,273.3633 L195.4219,281.7227 Q196.0156,281.7227 196.2031,281.8633 Q196.5938,282.1289 196.5938,282.582 Q196.5938,282.957 196.3281,283.1914 Q196.0781,283.4258 195.4688,283.4258 L193.1719,283.4258 Q192.5625,283.4258 192.2969,283.1914 Q192.0313,282.957 192.0313,282.5664 Q192.0313,282.1914 192.2969,281.957 Q192.5625,281.7227 193.1719,281.7227 L193.5938,281.7227 L193.1875,280.6914 Z M192.4688,278.9883 L191.1094,275.6133 L189.7344,278.9883 L192.4688,278.9883 Z " fill="#000000"/><text fill="#000000" font-family="sans-serif" font-size="12" font-style="italic" lengthAdjust="spacing" textLength="58" x="203" y="274.584">&#171;abstract&#187;</text><text fill="#000000" font-family="sans-serif" font-size="14" font-style="italic" lengthAdjust="spacing" textLength="35" x="214.5" y="292.7031">Event</text><line style="stroke:#181818;stroke-width:0.5;" x1="177" x2="261" y1="301.2168" y2="301.2168"/><line style="stroke:#181818;stroke-width:0.5;" x1="177" x2="261" y1="309.2168" y2="309.2168"/></g><!--class EventDuration--><g id="elem_EventDuration"><rect codeLine="17" fill="#F1F1F1" height="60.582" id="EventDuration" rx="2.5" ry="2.5" style="stroke:#181818;stroke-width:0.5;" width="122" x="7" y="427.6348"/><ellipse cx="22" cy="449.9258" fill="#FF8B40" rx="11" ry="11" style="stroke:#181818;stroke-width:1.0;"/><path d="M22.5938,453.1914 L25.0625,447.3164 L24.6719,447.3164 Q24.0625,447.3164 23.7969,447.082 Q23.5313,446.8477 23.5313,446.457 Q23.5313,446.082 23.7969,445.8477 Q24.0625,445.6133 24.6719,445.6133 L26.9531,445.6133 Q27.5625,445.6133 27.8281,445.8477 Q28.0938,446.082 28.0938,446.457 Q28.0938,446.9258 27.6875,447.1914 Q27.5,447.3164 26.9063,447.3164 L23.4219,455.6758 L21.7813,455.6758 L18.2969,447.3164 Q17.7031,447.3164 17.5156,447.1914 Q17.1094,446.9258 17.1094,446.457 Q17.1094,446.082 17.375,445.8477 Q17.6406,445.6133 18.25,445.6133 L20.5469,445.6133 Q21.1563,445.6133 21.4063,445.8477 Q21.6719,446.082 21.6719,446.457 Q21.6719,446.8477 21.4063,447.082 Q21.1563,447.3164 20.5469,447.3164 L20.1406,447.3164 L22.5938,453.1914 Z " fill="#000000"/><text fill="#000000" font-family="sans-serif" font-size="12" font-style="italic" lengthAdjust="spacing" textLength="81" x="40.5" y="445.584">&#171;value object&#187;</text><text fill="#000000" font-family="sans-serif" font-size="14" lengthAdjust="spacing" textLength="90" x="36" y="463.7031">EventDuration</text><line style="stroke:#181818;stroke-width:0.5;" x1="8" x2="128" y1="472.2168" y2="472.2168"/><line style="stroke:#181818;stroke-width:0.5;" x1="8" x2="128" y1="480.2168" y2="480.2168"/></g><!--class EventDate--><g id="elem_EventDate"><rect codeLine="18" fill="#F1F1F1" height="60.582" id="EventDate" rx="2.5" ry="2.5" style="stroke:#181818;stroke-width:0.5;" width="109" x="164.5" y="427.6348"/><ellipse cx="179.5" cy="449.9258" fill="#FF8B40" rx="11" ry="11" style="stroke:#181818;stroke-width:1.0;"/><path d="M180.0938,453.1914 L182.5625,447.3164 L182.1719,447.3164 Q181.5625,447.3164 181.2969,447.082 Q181.0313,446.8477 181.0313,446.457 Q181.0313,446.082 181.2969,445.8477 Q181.5625,445.6133 182.1719,445.6133 L184.4531,445.6133 Q185.0625,445.6133 185.3281,445.8477 Q185.5938,446.082 185.5938,446.457 Q185.5938,446.9258 185.1875,447.1914 Q185,447.3164 184.4063,447.3164 L180.9219,455.6758 L179.2813,455.6758 L175.7969,447.3164 Q175.2031,447.3164 175.0156,447.1914 Q174.6094,446.9258 174.6094,446.457 Q174.6094,446.082 174.875,445.8477 Q175.1406,445.6133 175.75,445.6133 L178.0469,445.6133 Q178.6563,445.6133 178.9063,445.8477 Q179.1719,446.082 179.1719,446.457 Q179.1719,446.8477 178.9063,447.082 Q178.6563,447.3164 178.0469,447.3164 L177.6406,447.3164 L180.0938,453.1914 Z " fill="#000000"/><text fill="#000000" font-family="sans-serif" font-size="12" font-style="italic" lengthAdjust="spacing" textLength="81" x="191.5" y="445.584">&#171;value object&#187;</text><text fill="#000000" font-family="sans-serif" font-size="14" lengthAdjust="spacing" textLength="66" x="199" y="463.7031">EventDate</text><line style="stroke:#181818;stroke-width:0.5;" x1="165.5" x2="272.5" y1="472.2168" y2="472.2168"/><line style="stroke:#181818;stroke-width:0.5;" x1="165.5" x2="272.5" y1="480.2168" y2="480.2168"/></g><!--link SystemUser to Username--><g id="link_SystemUser_Username"><path codeLine="26" d="M619.29,496.8448 C619.43,514.3548 619.59,535.0448 619.73,552.1948 " fill="none" id="SystemUser-to-Username" style="stroke:#181818;stroke-width:1.0;"/><polygon fill="#181818" points="619.77,557.3948,623.6927,548.3608,619.7271,552.3949,615.693,548.4294,619.77,557.3948" style="stroke:#181818;stroke-width:1.0;"/></g><!--link Meeting to Event--><g id="link_Meeting_Event"><path codeLine="28" d="M382.52,162.5048 C351.49,185.9648 308.73,218.2848 274.73,244.0048 " fill="none" id="Meeting-to-Event" style="stroke:#181818;stroke-width:1.0;"/><polygon fill="none" points="278.51,249.9148,258.34,256.3948,270.07,238.7448,278.51,249.9148" style="stroke:#181818;stroke-width:1.0;"/></g><!--link Meeting to ParticipationMeeting--><g id="link_Meeting_ParticipationMeeting"><path codeLine="29" d="M424,177.6448 C424,201.2548 424,229.4548 424,251.1948 " fill="none" id="Meeting-to-ParticipationMeeting" style="stroke:#181818;stroke-width:1.0;"/><polygon fill="#181818" points="424,256.2848,428,247.2848,424,251.2848,420,247.2848,424,256.2848" style="stroke:#181818;stroke-width:1.0;"/><polygon fill="#000000" points="429,222.2803,431.9389,213.2352,426.0611,213.2352,429,222.2803" style="stroke:#000000;stroke-width:1.0;"/><text fill="#000000" font-family="sans-serif" font-size="13" lengthAdjust="spacing" textLength="43" x="438" y="222.6631">creates</text><text fill="#000000" font-family="sans-serif" font-size="13" lengthAdjust="spacing" textLength="7" x="416.4859" y="199.9089">1</text><text fill="#000000" font-family="sans-serif" font-size="13" lengthAdjust="spacing" textLength="20" x="401.9375" y="245.2703">1..*</text></g><!--link Meeting to SystemUser--><g id="link_Meeting_SystemUser"><path codeLine="30" d="M465.16,176.8348 C473.62,186.7848 482.3,197.4048 490,207.6348 C540,274.0648 580.62,362.6748 602.17,414.4648 " fill="none" id="Meeting-to-SystemUser" style="stroke:#181818;stroke-width:1.0;"/><polygon fill="#181818" points="604.2,419.3548,604.4459,409.509,602.284,414.7364,597.0566,412.5745,604.2,419.3548" style="stroke:#181818;stroke-width:1.0;"/><polygon fill="#000000" points="563.4975,291.6119,561.5256,282.308,556.4335,285.2439,563.4975,291.6119" style="stroke:#000000;stroke-width:1.0;"/><text fill="#000000" font-family="sans-serif" font-size="13" lengthAdjust="spacing" textLength="71" x="570" y="292.6631">managed by</text><text fill="#000000" font-family="sans-serif" font-size="13" lengthAdjust="spacing" textLength="20" x="450.1261" y="199.6707">0..*</text><text fill="#000000" font-family="sans-serif" font-size="13" lengthAdjust="spacing" textLength="7" x="594.0547" y="408.3211">1</text></g><!--link ParticipationMeeting to ParticipationMeetingStatus--><g id="link_ParticipationMeeting_ParticipationMeetingStatus"><path codeLine="32" d="M421.35,317.9548 C418.76,347.1648 414.81,391.6348 412.08,422.4048 " fill="none" id="ParticipationMeeting-to-ParticipationMeetingStatus" style="stroke:#181818;stroke-width:1.0;"/><polygon fill="#181818" points="411.62,427.6048,416.4006,418.994,412.0624,422.6244,408.432,418.2862,411.62,427.6048" style="stroke:#181818;stroke-width:1.0;"/></g><!--link ParticipationMeeting to SystemUser--><g id="link_ParticipationMeeting_SystemUser"><path codeLine="33" d="M458.68,317.6548 C478.21,334.3248 503.02,355.5748 525,374.6348 C540.43,388.0048 557.2,402.6848 572.26,415.9148 " fill="none" id="ParticipationMeeting-to-SystemUser" style="stroke:#181818;stroke-width:1.0;"/><polygon fill="#181818" points="576.04,419.2448,571.9176,410.3001,572.2833,415.9452,566.6383,416.3108,576.04,419.2448" style="stroke:#181818;stroke-width:1.0;"/><polygon fill="#000000" points="522.7813,360.5516,517.8637,352.4111,514.018,356.8564,522.7813,360.5516" style="stroke:#000000;stroke-width:1.0;"/><text fill="#000000" font-family="sans-serif" font-size="13" lengthAdjust="spacing" textLength="21" x="528" y="362.6631">has</text><text fill="#000000" font-family="sans-serif" font-size="13" lengthAdjust="spacing" textLength="20" x="443.3846" y="339.1888">0..*</text><text fill="#000000" font-family="sans-serif" font-size="13" lengthAdjust="spacing" textLength="20" x="547.2685" y="408.4861">1..*</text></g><!--link Event to EventDuration--><g id="link_Event_EventDuration"><path codeLine="35" d="M192.35,317.9548 C165.94,347.5248 125.54,392.7348 98.01,423.5448 " fill="none" id="Event-to-EventDuration" style="stroke:#181818;stroke-width:1.0;"/><polygon fill="#181818" points="94.38,427.6048,103.3576,423.5547,97.7098,423.8748,97.3897,418.227,94.38,427.6048" style="stroke:#181818;stroke-width:1.0;"/></g><!--link Event to EventDate--><g id="link_Event_EventDate"><path codeLine="36" d="M219,317.9548 C219,347.1648 219,391.6348 219,422.4048 " fill="none" id="Event-to-EventDate" style="stroke:#181818;stroke-width:1.0;"/><polygon fill="#181818" points="219,427.6048,223,418.6048,219,422.6048,215,418.6048,219,427.6048" style="stroke:#181818;stroke-width:1.0;"/></g><!--SRC=[XLB1Ri8m3BtdAwpk04mhAXE72LKz3CPjqYJ4xcuQTTtQ12M62Mty-znqXR8LaLDYl_TilvZC1iX0QeXC1LbXbQJ2Q26ee5B1mbHOQ9YNw9noC5pCHn32UWNJABeNOl2i51Kw5nkK7vWh2E8Oyzog74ab2Voc0_WIm4TfLjstKOZZ9i30EBR645yQO7qaQgbAbVd0eSj_GKk5B3POT_fVp4DbtN4lSaL8MyVuuUiTt2oN3u_JQ0GxBBSAJFhEyxE4EF1mJpkM59WwiYW9_9DvRO1XJHMVM6ojht95kCjWZwwrCLZj7QbgxPIzvF49ySVcKwBVwKF7g1gbiRhM3xlIKGt3v4WKels8CFnEcW6FeM0IU70m6OzlW_x_cu6qYYToa9nuaSStrA0xq0mgr6n61kcU2Q9NCipCfsRkvItevvsLzTUpoczOzoYQTMXhdEr0Ruvd4py0]--></g></svg>