<?xml version="1.0" encoding="us-ascii" standalone="no"?><svg xmlns="http://www.w3.org/2000/svg" xmlns:xlink="http://www.w3.org/1999/xlink" contentStyleType="text/css" height="746px" preserveAspectRatio="none" style="width:1228px;height:746px;background:#FFFFFF;" version="1.1" viewBox="0 0 1228 746" width="1228px" zoomAndPan="magnify"><defs/><g><text fill="#000000" font-family="sans-serif" font-size="14" font-weight="bold" lengthAdjust="spacing" textLength="233" x="499.25" y="30.1074">Sequence Diagram (SD) - US 4002</text><rect fill="#FFFFFF" height="491.3652" style="stroke:#181818;stroke-width:1.0;" width="10" x="31.5" y="137.8633"/><rect fill="#FFFFFF" height="468.0742" style="stroke:#181818;stroke-width:1.0;" width="10" x="559.5" y="161.1543"/><rect fill="#FFFFFF" height="93.873" style="stroke:#181818;stroke-width:1.0;" width="10" x="748.5" y="223.7363"/><rect fill="#FFFFFF" height="123.873" style="stroke:#181818;stroke-width:1.0;" width="10" x="748.5" y="474.0645"/><rect fill="#FFFFFF" height="30" style="stroke:#181818;stroke-width:1.0;" width="10" x="1029.5" y="505.3555"/><rect fill="#FFFFFF" height="31.291" style="stroke:#181818;stroke-width:1.0;" width="10" x="1160.5" y="255.0273"/><line style="stroke:#181818;stroke-width:0.5;stroke-dasharray:5.0,5.0;" x1="36" x2="36" y1="127.8633" y2="647.2285"/><line style="stroke:#181818;stroke-width:0.5;stroke-dasharray:5.0,5.0;" x1="564.5" x2="564.5" y1="127.8633" y2="647.2285"/><line style="stroke:#181818;stroke-width:0.5;stroke-dasharray:5.0,5.0;" x1="753.5" x2="753.5" y1="127.8633" y2="647.2285"/><line style="stroke:#181818;stroke-width:0.5;stroke-dasharray:5.0,5.0;" x1="904.5" x2="904.5" y1="127.8633" y2="647.2285"/><line style="stroke:#181818;stroke-width:0.5;stroke-dasharray:5.0,5.0;" x1="1034.5" x2="1034.5" y1="127.8633" y2="647.2285"/><line style="stroke:#181818;stroke-width:0.5;stroke-dasharray:5.0,5.0;" x1="1165.5" x2="1165.5" y1="127.8633" y2="647.2285"/><text fill="#000000" font-family="sans-serif" font-size="14" lengthAdjust="spacing" textLength="57" x="5" y="124.3496">Utilizador</text><ellipse cx="36.5" cy="57.7422" fill="#E3E3E3" rx="8" ry="8" style="stroke:#181818;stroke-width:0.5;"/><path d="M36.5,65.7422 L36.5,92.7422 M23.5,73.7422 L49.5,73.7422 M36.5,92.7422 L23.5,107.7422 M36.5,92.7422 L49.5,107.7422 " fill="none" style="stroke:#181818;stroke-width:0.5;"/><text fill="#000000" font-family="sans-serif" font-size="14" lengthAdjust="spacing" textLength="57" x="5" y="661.3359">Utilizador</text><ellipse cx="36.5" cy="673.3496" fill="#E3E3E3" rx="8" ry="8" style="stroke:#181818;stroke-width:0.5;"/><path d="M36.5,681.3496 L36.5,708.3496 M23.5,689.3496 L49.5,689.3496 M36.5,708.3496 L23.5,723.3496 M36.5,708.3496 L49.5,723.3496 " fill="none" style="stroke:#181818;stroke-width:0.5;"/><rect fill="#E3E3E3" height="51.2422" rx="2.5" ry="2.5" style="stroke:#181818;stroke-width:0.5;" width="120" x="504.5" y="75.6211"/><text fill="#000000" font-family="sans-serif" font-size="14" font-style="italic" lengthAdjust="spacing" textLength="95" x="517" y="97.7285">&#171;presentation&#187;</text><text fill="#000000" font-family="sans-serif" font-size="14" lengthAdjust="spacing" textLength="106" x="511.5" y="116.3496">CancelMeetingUI</text><rect fill="#E3E3E3" height="51.2422" rx="2.5" ry="2.5" style="stroke:#181818;stroke-width:0.5;" width="120" x="504.5" y="646.2285"/><text fill="#000000" font-family="sans-serif" font-size="14" font-style="italic" lengthAdjust="spacing" textLength="95" x="517" y="668.3359">&#171;presentation&#187;</text><text fill="#000000" font-family="sans-serif" font-size="14" lengthAdjust="spacing" textLength="106" x="511.5" y="686.957">CancelMeetingUI</text><text fill="#000000" font-family="sans-serif" font-size="14" font-style="italic" lengthAdjust="spacing" textLength="84" x="708.5" y="105.7285">&#171;application&#187;</text><text fill="#000000" font-family="sans-serif" font-size="14" lengthAdjust="spacing" textLength="156" x="672.5" y="124.3496">CancelMeetingController</text><ellipse cx="753.5" cy="74.6211" fill="#E3E3E3" rx="12" ry="12" style="stroke:#181818;stroke-width:0.5;"/><polygon fill="#181818" points="749.5,62.6211,755.5,57.6211,753.5,62.6211,755.5,67.6211,749.5,62.6211" style="stroke:#181818;stroke-width:1.0;"/><text fill="#000000" font-family="sans-serif" font-size="14" font-style="italic" lengthAdjust="spacing" textLength="84" x="708.5" y="661.3359">&#171;application&#187;</text><text fill="#000000" font-family="sans-serif" font-size="14" lengthAdjust="spacing" textLength="156" x="672.5" y="679.957">CancelMeetingController</text><ellipse cx="753.5" cy="699.4707" fill="#E3E3E3" rx="12" ry="12" style="stroke:#181818;stroke-width:0.5;"/><polygon fill="#181818" points="749.5,687.4707,755.5,682.4707,753.5,687.4707,755.5,692.4707,749.5,687.4707" style="stroke:#181818;stroke-width:1.0;"/><rect fill="#E3E3E3" height="51.2422" rx="2.5" ry="2.5" style="stroke:#181818;stroke-width:0.5;" width="121" x="844.5" y="75.6211"/><text fill="#000000" font-family="sans-serif" font-size="14" font-style="italic" lengthAdjust="spacing" textLength="62" x="874" y="97.7285">&#171;domain&#187;</text><text fill="#000000" font-family="sans-serif" font-size="14" lengthAdjust="spacing" textLength="107" x="851.5" y="116.3496">user:SystemUser</text><rect fill="#E3E3E3" height="51.2422" rx="2.5" ry="2.5" style="stroke:#181818;stroke-width:0.5;" width="121" x="844.5" y="646.2285"/><text fill="#000000" font-family="sans-serif" font-size="14" font-style="italic" lengthAdjust="spacing" textLength="62" x="874" y="668.3359">&#171;domain&#187;</text><text fill="#000000" font-family="sans-serif" font-size="14" lengthAdjust="spacing" textLength="107" x="851.5" y="686.957">user:SystemUser</text><rect fill="#E3E3E3" height="51.2422" rx="2.5" ry="2.5" style="stroke:#181818;stroke-width:0.5;" width="118" x="975.5" y="75.6211"/><text fill="#000000" font-family="sans-serif" font-size="14" font-style="italic" lengthAdjust="spacing" textLength="62" x="1003.5" y="97.7285">&#171;domain&#187;</text><text fill="#000000" font-family="sans-serif" font-size="14" lengthAdjust="spacing" textLength="104" x="982.5" y="116.3496">meeting:Meeting</text><rect fill="#E3E3E3" height="51.2422" rx="2.5" ry="2.5" style="stroke:#181818;stroke-width:0.5;" width="118" x="975.5" y="646.2285"/><text fill="#000000" font-family="sans-serif" font-size="14" font-style="italic" lengthAdjust="spacing" textLength="62" x="1003.5" y="668.3359">&#171;domain&#187;</text><text fill="#000000" font-family="sans-serif" font-size="14" lengthAdjust="spacing" textLength="104" x="982.5" y="686.957">meeting:Meeting</text><text fill="#000000" font-family="sans-serif" font-size="14" font-style="italic" lengthAdjust="spacing" textLength="79" x="1123" y="105.7285">&#171;repository&#187;</text><text fill="#000000" font-family="sans-serif" font-size="14" lengthAdjust="spacing" textLength="118" x="1103.5" y="124.3496">MeetingRepository</text><path d="M1147.5,54.6211 C1147.5,44.6211 1165.5,44.6211 1165.5,44.6211 C1165.5,44.6211 1183.5,44.6211 1183.5,54.6211 L1183.5,80.6211 C1183.5,90.6211 1165.5,90.6211 1165.5,90.6211 C1165.5,90.6211 1147.5,90.6211 1147.5,80.6211 L1147.5,54.6211 " fill="#E3E3E3" style="stroke:#181818;stroke-width:1.5;"/><path d="M1147.5,54.6211 C1147.5,64.6211 1165.5,64.6211 1165.5,64.6211 C1165.5,64.6211 1183.5,64.6211 1183.5,54.6211 " fill="none" style="stroke:#181818;stroke-width:1.5;"/><text fill="#000000" font-family="sans-serif" font-size="14" font-style="italic" lengthAdjust="spacing" textLength="79" x="1123" y="661.3359">&#171;repository&#187;</text><text fill="#000000" font-family="sans-serif" font-size="14" lengthAdjust="spacing" textLength="118" x="1103.5" y="679.957">MeetingRepository</text><path d="M1147.5,693.4707 C1147.5,683.4707 1165.5,683.4707 1165.5,683.4707 C1165.5,683.4707 1183.5,683.4707 1183.5,693.4707 L1183.5,719.4707 C1183.5,729.4707 1165.5,729.4707 1165.5,729.4707 C1165.5,729.4707 1147.5,729.4707 1147.5,719.4707 L1147.5,693.4707 " fill="#E3E3E3" style="stroke:#181818;stroke-width:1.5;"/><path d="M1147.5,693.4707 C1147.5,703.4707 1165.5,703.4707 1165.5,703.4707 C1165.5,703.4707 1183.5,703.4707 1183.5,693.4707 " fill="none" style="stroke:#181818;stroke-width:1.5;"/><rect fill="#FFFFFF" height="491.3652" style="stroke:#181818;stroke-width:1.0;" width="10" x="31.5" y="137.8633"/><rect fill="#FFFFFF" height="468.0742" style="stroke:#181818;stroke-width:1.0;" width="10" x="559.5" y="161.1543"/><rect fill="#FFFFFF" height="93.873" style="stroke:#181818;stroke-width:1.0;" width="10" x="748.5" y="223.7363"/><rect fill="#FFFFFF" height="123.873" style="stroke:#181818;stroke-width:1.0;" width="10" x="748.5" y="474.0645"/><rect fill="#FFFFFF" height="30" style="stroke:#181818;stroke-width:1.0;" width="10" x="1029.5" y="505.3555"/><rect fill="#FFFFFF" height="31.291" style="stroke:#181818;stroke-width:1.0;" width="10" x="1160.5" y="255.0273"/><polygon fill="#181818" points="547.5,157.1543,557.5,161.1543,547.5,165.1543,551.5,161.1543" style="stroke:#181818;stroke-width:1.0;"/><line style="stroke:#181818;stroke-width:1.0;" x1="41.5" x2="553.5" y1="161.1543" y2="161.1543"/><text fill="#000000" font-family="sans-serif" font-size="13" font-weight="bold" lengthAdjust="spacing" textLength="7" x="48.5" y="155.8916">1</text><text fill="#000000" font-family="sans-serif" font-size="13" lengthAdjust="spacing" textLength="187" x="59.5" y="155.8916">Pede para cancelar uma reuni&#227;o</text><polygon fill="#181818" points="741.5,188.4453,751.5,192.4453,741.5,196.4453,745.5,192.4453" style="stroke:#181818;stroke-width:1.0;"/><line style="stroke:#181818;stroke-width:1.0;" x1="569.5" x2="747.5" y1="192.4453" y2="192.4453"/><text fill="#000000" font-family="sans-serif" font-size="13" font-weight="bold" lengthAdjust="spacing" textLength="7" x="576.5" y="187.1826">2</text><text fill="#000000" font-family="sans-serif" font-size="13" lengthAdjust="spacing" textLength="36" x="587.5" y="187.1826">create</text><polygon fill="#181818" points="736.5,219.7363,746.5,223.7363,736.5,227.7363,740.5,223.7363" style="stroke:#181818;stroke-width:1.0;"/><line style="stroke:#181818;stroke-width:1.0;" x1="569.5" x2="742.5" y1="223.7363" y2="223.7363"/><text fill="#000000" font-family="sans-serif" font-size="13" font-weight="bold" lengthAdjust="spacing" textLength="7" x="576.5" y="218.4736">3</text><text fill="#000000" font-family="sans-serif" font-size="13" lengthAdjust="spacing" textLength="149" x="587.5" y="218.4736">listAllMeetingsToBeHeld()</text><polygon fill="#181818" points="1148.5,251.0273,1158.5,255.0273,1148.5,259.0273,1152.5,255.0273" style="stroke:#181818;stroke-width:1.0;"/><line style="stroke:#181818;stroke-width:1.0;" x1="758.5" x2="1154.5" y1="255.0273" y2="255.0273"/><text fill="#000000" font-family="sans-serif" font-size="13" font-weight="bold" lengthAdjust="spacing" textLength="7" x="765.5" y="249.7646">4</text><text fill="#000000" font-family="sans-serif" font-size="13" lengthAdjust="spacing" textLength="210" x="776.5" y="249.7646">list = findAllMeetingsToBeHeld(user)</text><polygon fill="#181818" points="769.5,282.3184,759.5,286.3184,769.5,290.3184,765.5,286.3184" style="stroke:#181818;stroke-width:1.0;"/><line style="stroke:#181818;stroke-width:1.0;stroke-dasharray:2.0,2.0;" x1="763.5" x2="1164.5" y1="286.3184" y2="286.3184"/><text fill="#000000" font-family="sans-serif" font-size="13" font-weight="bold" lengthAdjust="spacing" textLength="7" x="775.5" y="281.0557">5</text><text fill="#000000" font-family="sans-serif" font-size="13" lengthAdjust="spacing" textLength="4" x="786.5" y="281.0557">&#160;</text><polygon fill="#181818" points="580.5,313.6094,570.5,317.6094,580.5,321.6094,576.5,317.6094" style="stroke:#181818;stroke-width:1.0;"/><line style="stroke:#181818;stroke-width:1.0;stroke-dasharray:2.0,2.0;" x1="574.5" x2="752.5" y1="317.6094" y2="317.6094"/><text fill="#000000" font-family="sans-serif" font-size="13" font-weight="bold" lengthAdjust="spacing" textLength="7" x="586.5" y="312.3467">6</text><text fill="#000000" font-family="sans-serif" font-size="13" lengthAdjust="spacing" textLength="17" x="597.5" y="312.3467">list</text><polygon fill="#181818" points="52.5,344.9004,42.5,348.9004,52.5,352.9004,48.5,348.9004" style="stroke:#181818;stroke-width:1.0;"/><line style="stroke:#181818;stroke-width:1.0;stroke-dasharray:2.0,2.0;" x1="46.5" x2="558.5" y1="348.9004" y2="348.9004"/><text fill="#000000" font-family="sans-serif" font-size="13" font-weight="bold" lengthAdjust="spacing" textLength="7" x="58.5" y="343.6377">7</text><text fill="#000000" font-family="sans-serif" font-size="13" lengthAdjust="spacing" textLength="218" x="69.5" y="343.6377">Mostra a lista de reuni&#245;es por realizar</text><polygon fill="#181818" points="547.5,376.1914,557.5,380.1914,547.5,384.1914,551.5,380.1914" style="stroke:#181818;stroke-width:1.0;"/><line style="stroke:#181818;stroke-width:1.0;" x1="41.5" x2="553.5" y1="380.1914" y2="380.1914"/><text fill="#000000" font-family="sans-serif" font-size="13" font-weight="bold" lengthAdjust="spacing" textLength="7" x="48.5" y="374.9287">8</text><text fill="#000000" font-family="sans-serif" font-size="13" lengthAdjust="spacing" textLength="178" x="59.5" y="374.9287">Seleciona a reuni&#227;o a cancelar</text><polygon fill="#181818" points="52.5,407.4824,42.5,411.4824,52.5,415.4824,48.5,411.4824" style="stroke:#181818;stroke-width:1.0;"/><line style="stroke:#181818;stroke-width:1.0;stroke-dasharray:2.0,2.0;" x1="46.5" x2="558.5" y1="411.4824" y2="411.4824"/><text fill="#000000" font-family="sans-serif" font-size="13" font-weight="bold" lengthAdjust="spacing" textLength="7" x="58.5" y="406.2197">9</text><text fill="#000000" font-family="sans-serif" font-size="13" lengthAdjust="spacing" textLength="483" x="69.5" y="406.2197">Mostra os dados da reuni&#227;o selecionada e pede confirma&#231;&#227;o da opera&#231;&#227;o a realizar</text><polygon fill="#181818" points="547.5,438.7734,557.5,442.7734,547.5,446.7734,551.5,442.7734" style="stroke:#181818;stroke-width:1.0;"/><line style="stroke:#181818;stroke-width:1.0;" x1="41.5" x2="553.5" y1="442.7734" y2="442.7734"/><text fill="#000000" font-family="sans-serif" font-size="13" font-weight="bold" lengthAdjust="spacing" textLength="14" x="48.5" y="437.5107">10</text><text fill="#000000" font-family="sans-serif" font-size="13" lengthAdjust="spacing" textLength="119" x="66.5" y="437.5107">Confirma a opera&#231;&#227;o</text><polygon fill="#181818" points="736.5,470.0645,746.5,474.0645,736.5,478.0645,740.5,474.0645" style="stroke:#181818;stroke-width:1.0;"/><line style="stroke:#181818;stroke-width:1.0;" x1="569.5" x2="742.5" y1="474.0645" y2="474.0645"/><text fill="#000000" font-family="sans-serif" font-size="13" font-weight="bold" lengthAdjust="spacing" textLength="14" x="576.5" y="468.8018">11</text><text fill="#000000" font-family="sans-serif" font-size="13" lengthAdjust="spacing" textLength="138" x="594.5" y="468.8018">cancelMeeting(meeting)</text><polygon fill="#181818" points="1017.5,501.3555,1027.5,505.3555,1017.5,509.3555,1021.5,505.3555" style="stroke:#181818;stroke-width:1.0;"/><line style="stroke:#181818;stroke-width:1.0;" x1="758.5" x2="1023.5" y1="505.3555" y2="505.3555"/><text fill="#000000" font-family="sans-serif" font-size="13" font-weight="bold" lengthAdjust="spacing" textLength="14" x="765.5" y="500.0928">12</text><text fill="#000000" font-family="sans-serif" font-size="13" lengthAdjust="spacing" textLength="92" x="783.5" y="500.0928">cancelMeeting()</text><polygon fill="#181818" points="1153.5,562.6465,1163.5,566.6465,1153.5,570.6465,1157.5,566.6465" style="stroke:#181818;stroke-width:1.0;"/><line style="stroke:#181818;stroke-width:1.0;" x1="758.5" x2="1159.5" y1="566.6465" y2="566.6465"/><text fill="#000000" font-family="sans-serif" font-size="13" font-weight="bold" lengthAdjust="spacing" textLength="14" x="765.5" y="561.3838">13</text><text fill="#000000" font-family="sans-serif" font-size="13" lengthAdjust="spacing" textLength="80" x="783.5" y="561.3838">save(meeting)</text><polygon fill="#181818" points="580.5,593.9375,570.5,597.9375,580.5,601.9375,576.5,597.9375" style="stroke:#181818;stroke-width:1.0;"/><line style="stroke:#181818;stroke-width:1.0;stroke-dasharray:2.0,2.0;" x1="574.5" x2="752.5" y1="597.9375" y2="597.9375"/><text fill="#000000" font-family="sans-serif" font-size="13" font-weight="bold" lengthAdjust="spacing" textLength="14" x="586.5" y="592.6748">14</text><text fill="#000000" font-family="sans-serif" font-size="13" lengthAdjust="spacing" textLength="46" x="604.5" y="592.6748">meeting</text><polygon fill="#181818" points="47.5,625.2285,37.5,629.2285,47.5,633.2285,43.5,629.2285" style="stroke:#181818;stroke-width:1.0;"/><line style="stroke:#181818;stroke-width:1.0;stroke-dasharray:2.0,2.0;" x1="41.5" x2="563.5" y1="629.2285" y2="629.2285"/><text fill="#000000" font-family="sans-serif" font-size="13" font-weight="bold" lengthAdjust="spacing" textLength="14" x="53.5" y="623.9658">15</text><text fill="#000000" font-family="sans-serif" font-size="13" lengthAdjust="spacing" textLength="181" x="71.5" y="623.9658">Informa o sucesso da opera&#231;&#227;o</text><!--SRC=[dLHBRjim4Dtp58Eid8M1eEZAK0sazg9U12Yg-W0JQkmGeKYLf5Aur-cY9-W9Sh4EzQKKmIYYXS2Xtdj3pfkHVrQcGeSbbDPO-UHiIH1SJS8FNogKptYcF5mqWICPq9nr2l1FMDYVofpXXDgJ4445XkRqeoOZ2VOApn6tolUti8PZ3X_lxZu8h8CrTVb8JWYKmJeu1gNLBnPpW1xkuvxW5459LQ49i4EMqmz4WPCT3n74xooh77ao0OEoPhiLqfhWh9x2T-scfaOxYR8CgqehsRFJX3Ur9xV9BpvGUUJbJPEI5tjReZBCBPh5d5QsEJTTxeRMhTyo2mpuY9vwn3Ugh5Tyzqka9L6MkI5WNYoQUi50NQM0dsO5wssiomQ-Ka4GFGBPb08Tr2MoXxLHhxzjmnX4ZeScZW-JMIAfqGQa8mPTGsZbmxtko-s_sy_qXNInkXr8GwgH9uQFYHOh9xTkbU4Jd9GfbX94ZnQIZ19ZaaHsFJl_W2beIMBfc7sPu_cMwFDhng8nf_Le0m_M1xO66puoiJFcBtce6C4LZzFGaQVEvgH9Shz6UcydZ3PVosSz53nYyJrIVQ_7czmoiMzuYaxAbVZw9m9utrRakWYl7cxNCI7bYAlTbKxggfkUTpNETChcoWkI4yAIYrF0__IhnnTwUucbpkb0xsYUWpdPM6AshfRa_SmXCLFZuKwYzd_n3m00]--></g></svg>