<?xml version="1.0" encoding="us-ascii" standalone="no"?><svg xmlns="http://www.w3.org/2000/svg" xmlns:xlink="http://www.w3.org/1999/xlink" contentStyleType="text/css" height="414px" preserveAspectRatio="none" style="width:604px;height:414px;background:#FFFFFF;" version="1.1" viewBox="0 0 604 414" width="604px" zoomAndPan="magnify"><defs/><g><text fill="#000000" font-family="sans-serif" font-size="14" font-weight="bold" lengthAdjust="spacing" textLength="296" x="153.25" y="30.1074">System Sequence Diagram (SSD) - US 4002</text><rect fill="#FFFFFF" height="179.7461" style="stroke:#181818;stroke-width:1.0;" width="10" x="31.5" y="133.2422"/><rect fill="#FFFFFF" height="31.291" style="stroke:#181818;stroke-width:1.0;" width="10" x="559.5" y="156.5332"/><rect fill="#FFFFFF" height="31.291" style="stroke:#181818;stroke-width:1.0;" width="10" x="559.5" y="219.1152"/><rect fill="#FFFFFF" height="31.291" style="stroke:#181818;stroke-width:1.0;" width="10" x="559.5" y="281.6973"/><line style="stroke:#181818;stroke-width:0.5;stroke-dasharray:5.0,5.0;" x1="36" x2="36" y1="123.2422" y2="330.9883"/><line style="stroke:#181818;stroke-width:0.5;stroke-dasharray:5.0,5.0;" x1="564.5" x2="564.5" y1="123.2422" y2="330.9883"/><text fill="#000000" font-family="sans-serif" font-size="14" lengthAdjust="spacing" textLength="57" x="5" y="119.7285">Utilizador</text><ellipse cx="36.5" cy="53.1211" fill="#E3E3E3" rx="8" ry="8" style="stroke:#181818;stroke-width:0.5;"/><path d="M36.5,61.1211 L36.5,88.1211 M23.5,69.1211 L49.5,69.1211 M36.5,88.1211 L23.5,103.1211 M36.5,88.1211 L49.5,103.1211 " fill="none" style="stroke:#181818;stroke-width:0.5;"/><text fill="#000000" font-family="sans-serif" font-size="14" lengthAdjust="spacing" textLength="57" x="5" y="345.0957">Utilizador</text><ellipse cx="36.5" cy="357.1094" fill="#E3E3E3" rx="8" ry="8" style="stroke:#181818;stroke-width:0.5;"/><path d="M36.5,365.1094 L36.5,392.1094 M23.5,373.1094 L49.5,373.1094 M36.5,392.1094 L23.5,407.1094 M36.5,392.1094 L49.5,407.1094 " fill="none" style="stroke:#181818;stroke-width:0.5;"/><rect fill="#E3E3E3" height="32.6211" rx="2.5" ry="2.5" style="stroke:#181818;stroke-width:0.5;" width="68" x="530.5" y="89.6211"/><text fill="#000000" font-family="sans-serif" font-size="14" lengthAdjust="spacing" textLength="54" x="537.5" y="111.7285">:Sistema</text><rect fill="#E3E3E3" height="32.6211" rx="2.5" ry="2.5" style="stroke:#181818;stroke-width:0.5;" width="68" x="530.5" y="329.9883"/><text fill="#000000" font-family="sans-serif" font-size="14" lengthAdjust="spacing" textLength="54" x="537.5" y="352.0957">:Sistema</text><rect fill="#FFFFFF" height="179.7461" style="stroke:#181818;stroke-width:1.0;" width="10" x="31.5" y="133.2422"/><rect fill="#FFFFFF" height="31.291" style="stroke:#181818;stroke-width:1.0;" width="10" x="559.5" y="156.5332"/><rect fill="#FFFFFF" height="31.291" style="stroke:#181818;stroke-width:1.0;" width="10" x="559.5" y="219.1152"/><rect fill="#FFFFFF" height="31.291" style="stroke:#181818;stroke-width:1.0;" width="10" x="559.5" y="281.6973"/><polygon fill="#181818" points="547.5,152.5332,557.5,156.5332,547.5,160.5332,551.5,156.5332" style="stroke:#181818;stroke-width:1.0;"/><line style="stroke:#181818;stroke-width:1.0;" x1="41.5" x2="553.5" y1="156.5332" y2="156.5332"/><text fill="#000000" font-family="sans-serif" font-size="13" font-weight="bold" lengthAdjust="spacing" textLength="7" x="48.5" y="151.2705">1</text><text fill="#000000" font-family="sans-serif" font-size="13" lengthAdjust="spacing" textLength="187" x="59.5" y="151.2705">Pede para cancelar uma reuni&#227;o</text><polygon fill="#181818" points="52.5,183.8242,42.5,187.8242,52.5,191.8242,48.5,187.8242" style="stroke:#181818;stroke-width:1.0;"/><line style="stroke:#181818;stroke-width:1.0;stroke-dasharray:2.0,2.0;" x1="46.5" x2="563.5" y1="187.8242" y2="187.8242"/><text fill="#000000" font-family="sans-serif" font-size="13" font-weight="bold" lengthAdjust="spacing" textLength="7" x="58.5" y="182.5615">2</text><text fill="#000000" font-family="sans-serif" font-size="13" lengthAdjust="spacing" textLength="218" x="69.5" y="182.5615">Mostra a lista de reuni&#245;es por realizar</text><polygon fill="#181818" points="547.5,215.1152,557.5,219.1152,547.5,223.1152,551.5,219.1152" style="stroke:#181818;stroke-width:1.0;"/><line style="stroke:#181818;stroke-width:1.0;" x1="41.5" x2="553.5" y1="219.1152" y2="219.1152"/><text fill="#000000" font-family="sans-serif" font-size="13" font-weight="bold" lengthAdjust="spacing" textLength="7" x="48.5" y="213.8525">3</text><text fill="#000000" font-family="sans-serif" font-size="13" lengthAdjust="spacing" textLength="178" x="59.5" y="213.8525">Seleciona a reuni&#227;o a cancelar</text><polygon fill="#181818" points="52.5,246.4063,42.5,250.4063,52.5,254.4063,48.5,250.4063" style="stroke:#181818;stroke-width:1.0;"/><line style="stroke:#181818;stroke-width:1.0;stroke-dasharray:2.0,2.0;" x1="46.5" x2="563.5" y1="250.4063" y2="250.4063"/><text fill="#000000" font-family="sans-serif" font-size="13" font-weight="bold" lengthAdjust="spacing" textLength="7" x="58.5" y="245.1436">4</text><text fill="#000000" font-family="sans-serif" font-size="13" lengthAdjust="spacing" textLength="483" x="69.5" y="245.1436">Mostra os dados da reuni&#227;o selecionada e pede confirma&#231;&#227;o da opera&#231;&#227;o a realizar</text><polygon fill="#181818" points="547.5,277.6973,557.5,281.6973,547.5,285.6973,551.5,281.6973" style="stroke:#181818;stroke-width:1.0;"/><line style="stroke:#181818;stroke-width:1.0;" x1="41.5" x2="553.5" y1="281.6973" y2="281.6973"/><text fill="#000000" font-family="sans-serif" font-size="13" font-weight="bold" lengthAdjust="spacing" textLength="7" x="48.5" y="276.4346">5</text><text fill="#000000" font-family="sans-serif" font-size="13" lengthAdjust="spacing" textLength="119" x="59.5" y="276.4346">Confirma a opera&#231;&#227;o</text><polygon fill="#181818" points="47.5,308.9883,37.5,312.9883,47.5,316.9883,43.5,312.9883" style="stroke:#181818;stroke-width:1.0;"/><line style="stroke:#181818;stroke-width:1.0;stroke-dasharray:2.0,2.0;" x1="41.5" x2="563.5" y1="312.9883" y2="312.9883"/><text fill="#000000" font-family="sans-serif" font-size="13" font-weight="bold" lengthAdjust="spacing" textLength="7" x="53.5" y="307.7256">6</text><text fill="#000000" font-family="sans-serif" font-size="13" lengthAdjust="spacing" textLength="181" x="64.5" y="307.7256">Informa o sucesso da opera&#231;&#227;o</text><!--SRC=[bP4xJiD048RxFSKe5HIH8aJb0WcHXY8IqYe76DPZPvHzc7s0mdKeE04doCMOJHmIHIb8uvLdv__c6pkjsGyOqO4BFfXL38uWnq8g_TqCQDROayuRIn39PFIzFMr8Asp31_iUEhI9bCgSfLLlKYO7cjuAUKCmP-nh-utMyrkOmbB3_Mnsfx3au8jxfQWKcXmYJ9QPBNyADKu04ppMgf9XcGqFw3DC6isLZhlx_QHTcjynqnXGkmEc3mUL1bwe9QZMO52SB4Oe3cMhuddx5Ow44Ja6fyBOmnfOX9GbZs350A6bCVr32GRfY8JLFQgMpcaNX3HPCXny1Huiu6XtXL18qCeNgyyZAHtmKfJ5w_Oc-8wZm-rtRP1w62YERtYb_TF8WbFAVvoVVHTgJWoBePJEH2vDFodjV-yl]--></g></svg>