<?xml version="1.0" encoding="us-ascii" standalone="no"?><svg xmlns="http://www.w3.org/2000/svg" xmlns:xlink="http://www.w3.org/1999/xlink" contentStyleType="text/css" height="678px" preserveAspectRatio="none" style="width:2766px;height:678px;background:#FFFFFF;" version="1.1" viewBox="0 0 2766 678" width="2766px" zoomAndPan="magnify"><defs/><g><!--class CreateAutomaticFormativeExamsUI--><g id="elem_CreateAutomaticFormativeExamsUI"><rect codeLine="3" fill="#F1F1F1" height="79.2031" id="CreateAutomaticFormativeExamsUI" rx="2.5" ry="2.5" style="stroke:#181818;stroke-width:0.5;" width="253" x="1847.5" y="7"/><ellipse cx="1862.5" cy="29.291" fill="#ADD1B2" rx="11" ry="11" style="stroke:#181818;stroke-width:1.0;"/><path d="M1865.2656,25.166 Q1865.4219,24.9473 1865.6094,24.8379 Q1865.7969,24.7285 1866.0156,24.7285 Q1866.3906,24.7285 1866.625,24.9941 Q1866.8594,25.2441 1866.8594,25.8535 L1866.8594,27.3066 Q1866.8594,27.916 1866.625,28.1816 Q1866.3906,28.4473 1866.0156,28.4473 Q1865.6719,28.4473 1865.4688,28.2441 Q1865.2656,28.0566 1865.1563,27.541 Q1865.1094,27.1816 1864.9219,26.9941 Q1864.5938,26.6191 1863.9844,26.4004 Q1863.375,26.1816 1862.75,26.1816 Q1861.9844,26.1816 1861.3438,26.5098 Q1860.7188,26.8379 1860.2188,27.5879 Q1859.7344,28.3379 1859.7344,29.3691 L1859.7344,30.4629 Q1859.7344,31.6973 1860.625,32.5254 Q1861.5156,33.3379 1863.1094,33.3379 Q1864.0469,33.3379 1864.7031,33.0879 Q1865.0938,32.9316 1865.5156,32.4941 Q1865.7813,32.2285 1865.9219,32.1504 Q1866.0781,32.0723 1866.2813,32.0723 Q1866.6094,32.0723 1866.8594,32.3379 Q1867.125,32.5879 1867.125,32.9316 Q1867.125,33.2754 1866.7813,33.6816 Q1866.2813,34.2598 1865.4844,34.5879 Q1864.4063,35.041 1863.1094,35.041 Q1861.5938,35.041 1860.3906,34.416 Q1859.4063,33.916 1858.7188,32.8535 Q1858.0313,31.7754 1858.0313,30.4941 L1858.0313,29.3379 Q1858.0313,28.0098 1858.6406,26.8691 Q1859.2656,25.7129 1860.3594,25.1035 Q1861.4531,24.4785 1862.6875,24.4785 Q1863.4219,24.4785 1864.0625,24.6504 Q1864.7188,24.8066 1865.2656,25.166 Z " fill="#000000"/><text fill="#000000" font-family="sans-serif" font-size="12" font-style="italic" lengthAdjust="spacing" textLength="82" x="1946" y="24.9492">&#171;presentation&#187;</text><text fill="#000000" font-family="sans-serif" font-size="14" lengthAdjust="spacing" textLength="221" x="1876.5" y="43.0684">CreateAutomaticFormativeExamsUI</text><line style="stroke:#181818;stroke-width:0.5;" x1="1848.5" x2="2099.5" y1="51.582" y2="51.582"/><line style="stroke:#181818;stroke-width:0.5;" x1="1848.5" x2="2099.5" y1="59.582" y2="59.582"/><polygon fill="#FFFF44" points="1858.5,69.3926,1862.5,73.3926,1858.5,77.3926,1854.5,73.3926" style="stroke:#B38D22;stroke-width:1.0;"/><text fill="#000000" font-family="sans-serif" font-size="14" lengthAdjust="spacing" textLength="115" x="1867.5" y="78.6895">boolean doShow()</text></g><!--class CreateAutomaticFormativeExamsController--><g id="elem_CreateAutomaticFormativeExamsController"><rect codeLine="7" fill="#F1F1F1" height="116.4453" id="CreateAutomaticFormativeExamsController" rx="2.5" ry="2.5" style="stroke:#181818;stroke-width:0.5;" width="581" x="1011.5" y="165"/><ellipse cx="1162.25" cy="187.291" fill="#ADD1B2" rx="11" ry="11" style="stroke:#181818;stroke-width:1.0;"/><path d="M1165.0156,183.166 Q1165.1719,182.9473 1165.3594,182.8379 Q1165.5469,182.7285 1165.7656,182.7285 Q1166.1406,182.7285 1166.375,182.9941 Q1166.6094,183.2441 1166.6094,183.8535 L1166.6094,185.3066 Q1166.6094,185.916 1166.375,186.1816 Q1166.1406,186.4473 1165.7656,186.4473 Q1165.4219,186.4473 1165.2188,186.2441 Q1165.0156,186.0566 1164.9063,185.541 Q1164.8594,185.1816 1164.6719,184.9941 Q1164.3438,184.6191 1163.7344,184.4004 Q1163.125,184.1816 1162.5,184.1816 Q1161.7344,184.1816 1161.0938,184.5098 Q1160.4688,184.8379 1159.9688,185.5879 Q1159.4844,186.3379 1159.4844,187.3691 L1159.4844,188.4629 Q1159.4844,189.6973 1160.375,190.5254 Q1161.2656,191.3379 1162.8594,191.3379 Q1163.7969,191.3379 1164.4531,191.0879 Q1164.8438,190.9316 1165.2656,190.4941 Q1165.5313,190.2285 1165.6719,190.1504 Q1165.8281,190.0723 1166.0313,190.0723 Q1166.3594,190.0723 1166.6094,190.3379 Q1166.875,190.5879 1166.875,190.9316 Q1166.875,191.2754 1166.5313,191.6816 Q1166.0313,192.2598 1165.2344,192.5879 Q1164.1563,193.041 1162.8594,193.041 Q1161.3438,193.041 1160.1406,192.416 Q1159.1563,191.916 1158.4688,190.8535 Q1157.7813,189.7754 1157.7813,188.4941 L1157.7813,187.3379 Q1157.7813,186.0098 1158.3906,184.8691 Q1159.0156,183.7129 1160.1094,183.1035 Q1161.2031,182.4785 1162.4375,182.4785 Q1163.1719,182.4785 1163.8125,182.6504 Q1164.4688,182.8066 1165.0156,183.166 Z " fill="#000000"/><text fill="#000000" font-family="sans-serif" font-size="12" font-style="italic" lengthAdjust="spacing" textLength="74" x="1281.25" y="182.9492">&#171;application&#187;</text><text fill="#000000" font-family="sans-serif" font-size="14" lengthAdjust="spacing" textLength="271" x="1182.75" y="201.0684">CreateAutomaticFormativeExamsController</text><line style="stroke:#181818;stroke-width:0.5;" x1="1012.5" x2="1591.5" y1="209.582" y2="209.582"/><line style="stroke:#181818;stroke-width:0.5;" x1="1012.5" x2="1591.5" y1="217.582" y2="217.582"/><ellipse cx="1022.5" cy="232.3926" fill="#84BE84" rx="3" ry="3" style="stroke:#038048;stroke-width:1.0;"/><text fill="#000000" font-family="sans-serif" font-size="14" lengthAdjust="spacing" textLength="335" x="1031.5" y="236.6895">Iterable&lt;Course&gt; findAllTeacherCoursesInProgress()</text><ellipse cx="1022.5" cy="251.0137" fill="#84BE84" rx="3" ry="3" style="stroke:#038048;stroke-width:1.0;"/><text fill="#000000" font-family="sans-serif" font-size="14" lengthAdjust="spacing" textLength="493" x="1031.5" y="255.3105">FormativeExam parseFormativeExam(theCourse : Course, pathToFile : String)</text><ellipse cx="1022.5" cy="269.6348" fill="#84BE84" rx="3" ry="3" style="stroke:#038048;stroke-width:1.0;"/><text fill="#000000" font-family="sans-serif" font-size="14" lengthAdjust="spacing" textLength="555" x="1031.5" y="273.9316">Course createFormativeExam(theCourse : Course, theFormativeExam : FormativeExam)</text></g><!--class Teacher--><g id="elem_Teacher"><rect codeLine="13" fill="#F1F1F1" height="60.582" id="Teacher" rx="2.5" ry="2.5" style="stroke:#181818;stroke-width:0.5;" width="85" x="822.5" y="397"/><ellipse cx="837.5" cy="419.291" fill="#ADD1B2" rx="11" ry="11" style="stroke:#181818;stroke-width:1.0;"/><path d="M840.2656,415.166 Q840.4219,414.9473 840.6094,414.8379 Q840.7969,414.7285 841.0156,414.7285 Q841.3906,414.7285 841.625,414.9941 Q841.8594,415.2441 841.8594,415.8535 L841.8594,417.3066 Q841.8594,417.916 841.625,418.1816 Q841.3906,418.4473 841.0156,418.4473 Q840.6719,418.4473 840.4688,418.2441 Q840.2656,418.0566 840.1563,417.541 Q840.1094,417.1816 839.9219,416.9941 Q839.5938,416.6191 838.9844,416.4004 Q838.375,416.1816 837.75,416.1816 Q836.9844,416.1816 836.3438,416.5098 Q835.7188,416.8379 835.2188,417.5879 Q834.7344,418.3379 834.7344,419.3691 L834.7344,420.4629 Q834.7344,421.6973 835.625,422.5254 Q836.5156,423.3379 838.1094,423.3379 Q839.0469,423.3379 839.7031,423.0879 Q840.0938,422.9316 840.5156,422.4941 Q840.7813,422.2285 840.9219,422.1504 Q841.0781,422.0723 841.2813,422.0723 Q841.6094,422.0723 841.8594,422.3379 Q842.125,422.5879 842.125,422.9316 Q842.125,423.2754 841.7813,423.6816 Q841.2813,424.2598 840.4844,424.5879 Q839.4063,425.041 838.1094,425.041 Q836.5938,425.041 835.3906,424.416 Q834.4063,423.916 833.7188,422.8535 Q833.0313,421.7754 833.0313,420.4941 L833.0313,419.3379 Q833.0313,418.0098 833.6406,416.8691 Q834.2656,415.7129 835.3594,415.1035 Q836.4531,414.4785 837.6875,414.4785 Q838.4219,414.4785 839.0625,414.6504 Q839.7188,414.8066 840.2656,415.166 Z " fill="#000000"/><text fill="#000000" font-family="sans-serif" font-size="12" font-style="italic" lengthAdjust="spacing" textLength="56" x="850" y="414.9492">&#171;domain&#187;</text><text fill="#000000" font-family="sans-serif" font-size="14" lengthAdjust="spacing" textLength="53" x="851.5" y="433.0684">Teacher</text><line style="stroke:#181818;stroke-width:0.5;" x1="823.5" x2="906.5" y1="441.582" y2="441.582"/><line style="stroke:#181818;stroke-width:0.5;" x1="823.5" x2="906.5" y1="449.582" y2="449.582"/></g><!--class Course--><g id="elem_Course"><rect codeLine="16" fill="#F1F1F1" height="97.8242" id="Course" rx="2.5" ry="2.5" style="stroke:#181818;stroke-width:0.5;" width="388" x="7" y="378.5"/><ellipse cx="170.75" cy="400.791" fill="#ADD1B2" rx="11" ry="11" style="stroke:#181818;stroke-width:1.0;"/><path d="M173.5156,396.666 Q173.6719,396.4473 173.8594,396.3379 Q174.0469,396.2285 174.2656,396.2285 Q174.6406,396.2285 174.875,396.4941 Q175.1094,396.7441 175.1094,397.3535 L175.1094,398.8066 Q175.1094,399.416 174.875,399.6816 Q174.6406,399.9473 174.2656,399.9473 Q173.9219,399.9473 173.7188,399.7441 Q173.5156,399.5566 173.4063,399.041 Q173.3594,398.6816 173.1719,398.4941 Q172.8438,398.1191 172.2344,397.9004 Q171.625,397.6816 171,397.6816 Q170.2344,397.6816 169.5938,398.0098 Q168.9688,398.3379 168.4688,399.0879 Q167.9844,399.8379 167.9844,400.8691 L167.9844,401.9629 Q167.9844,403.1973 168.875,404.0254 Q169.7656,404.8379 171.3594,404.8379 Q172.2969,404.8379 172.9531,404.5879 Q173.3438,404.4316 173.7656,403.9941 Q174.0313,403.7285 174.1719,403.6504 Q174.3281,403.5723 174.5313,403.5723 Q174.8594,403.5723 175.1094,403.8379 Q175.375,404.0879 175.375,404.4316 Q175.375,404.7754 175.0313,405.1816 Q174.5313,405.7598 173.7344,406.0879 Q172.6563,406.541 171.3594,406.541 Q169.8438,406.541 168.6406,405.916 Q167.6563,405.416 166.9688,404.3535 Q166.2813,403.2754 166.2813,401.9941 L166.2813,400.8379 Q166.2813,399.5098 166.8906,398.3691 Q167.5156,397.2129 168.6094,396.6035 Q169.7031,395.9785 170.9375,395.9785 Q171.6719,395.9785 172.3125,396.1504 Q172.9688,396.3066 173.5156,396.666 Z " fill="#000000"/><text fill="#000000" font-family="sans-serif" font-size="12" font-style="italic" lengthAdjust="spacing" textLength="56" x="189.25" y="396.4492">&#171;domain&#187;</text><text fill="#000000" font-family="sans-serif" font-size="14" lengthAdjust="spacing" textLength="46" x="194.25" y="414.5684">Course</text><line style="stroke:#181818;stroke-width:0.5;" x1="8" x2="394" y1="423.082" y2="423.082"/><rect fill="none" height="6" style="stroke:#C82930;stroke-width:1.0;" width="6" x="15" y="434.8926"/><text fill="#000000" font-family="sans-serif" font-size="14" lengthAdjust="spacing" textLength="237" x="27" y="442.1895">Set&lt;FormativeExam&gt; formativeExams</text><line style="stroke:#181818;stroke-width:0.5;" x1="8" x2="394" y1="449.7031" y2="449.7031"/><ellipse cx="18" cy="464.5137" fill="#84BE84" rx="3" ry="3" style="stroke:#038048;stroke-width:1.0;"/><text fill="#000000" font-family="sans-serif" font-size="14" lengthAdjust="spacing" textLength="362" x="27" y="468.8105">void addFormativeExam(formativeExam : FormativeExam)</text></g><!--class FormativeExamMain--><g id="elem_FormativeExamMain"><rect codeLine="21" fill="#F1F1F1" height="79.2031" id="FormativeExamMain" rx="2.5" ry="2.5" style="stroke:#181818;stroke-width:0.5;" width="357" x="430.5" y="388"/><ellipse cx="541.25" cy="410.291" fill="#ADD1B2" rx="11" ry="11" style="stroke:#181818;stroke-width:1.0;"/><path d="M544.0156,406.166 Q544.1719,405.9473 544.3594,405.8379 Q544.5469,405.7285 544.7656,405.7285 Q545.1406,405.7285 545.375,405.9941 Q545.6094,406.2441 545.6094,406.8535 L545.6094,408.3066 Q545.6094,408.916 545.375,409.1816 Q545.1406,409.4473 544.7656,409.4473 Q544.4219,409.4473 544.2188,409.2441 Q544.0156,409.0566 543.9063,408.541 Q543.8594,408.1816 543.6719,407.9941 Q543.3438,407.6191 542.7344,407.4004 Q542.125,407.1816 541.5,407.1816 Q540.7344,407.1816 540.0938,407.5098 Q539.4688,407.8379 538.9688,408.5879 Q538.4844,409.3379 538.4844,410.3691 L538.4844,411.4629 Q538.4844,412.6973 539.375,413.5254 Q540.2656,414.3379 541.8594,414.3379 Q542.7969,414.3379 543.4531,414.0879 Q543.8438,413.9316 544.2656,413.4941 Q544.5313,413.2285 544.6719,413.1504 Q544.8281,413.0723 545.0313,413.0723 Q545.3594,413.0723 545.6094,413.3379 Q545.875,413.5879 545.875,413.9316 Q545.875,414.2754 545.5313,414.6816 Q545.0313,415.2598 544.2344,415.5879 Q543.1563,416.041 541.8594,416.041 Q540.3438,416.041 539.1406,415.416 Q538.1563,414.916 537.4688,413.8535 Q536.7813,412.7754 536.7813,411.4941 L536.7813,410.3379 Q536.7813,409.0098 537.3906,407.8691 Q538.0156,406.7129 539.1094,406.1035 Q540.2031,405.4785 541.4375,405.4785 Q542.1719,405.4785 542.8125,405.6504 Q543.4688,405.8066 544.0156,406.166 Z " fill="#000000"/><text fill="#000000" font-family="sans-serif" font-size="12" font-style="italic" lengthAdjust="spacing" textLength="42" x="604.25" y="405.9492">&#171;lprog&#187;</text><text fill="#000000" font-family="sans-serif" font-size="14" lengthAdjust="spacing" textLength="127" x="561.75" y="424.0684">FormativeExamMain</text><line style="stroke:#181818;stroke-width:0.5;" x1="431.5" x2="786.5" y1="432.582" y2="432.582"/><line style="stroke:#181818;stroke-width:0.5;" x1="431.5" x2="786.5" y1="440.582" y2="440.582"/><ellipse cx="441.5" cy="455.3926" fill="#84BE84" rx="3" ry="3" style="stroke:#038048;stroke-width:1.0;"/><text fill="#000000" font-family="sans-serif" font-size="14" lengthAdjust="spacing" text-decoration="underline" textLength="331" x="450.5" y="459.6895">FormativeExam parseWithVisitor(pathToFile : String)</text></g><!--class FormativeExam--><g id="elem_FormativeExam"><rect codeLine="25" fill="#F1F1F1" height="135.0664" id="FormativeExam" rx="2.5" ry="2.5" style="stroke:#181818;stroke-width:0.5;" width="529" x="2230.5" y="360"/><ellipse cx="2442.25" cy="382.291" fill="#ADD1B2" rx="11" ry="11" style="stroke:#181818;stroke-width:1.0;"/><path d="M2445.0156,378.166 Q2445.1719,377.9473 2445.3594,377.8379 Q2445.5469,377.7285 2445.7656,377.7285 Q2446.1406,377.7285 2446.375,377.9941 Q2446.6094,378.2441 2446.6094,378.8535 L2446.6094,380.3066 Q2446.6094,380.916 2446.375,381.1816 Q2446.1406,381.4473 2445.7656,381.4473 Q2445.4219,381.4473 2445.2188,381.2441 Q2445.0156,381.0566 2444.9063,380.541 Q2444.8594,380.1816 2444.6719,379.9941 Q2444.3438,379.6191 2443.7344,379.4004 Q2443.125,379.1816 2442.5,379.1816 Q2441.7344,379.1816 2441.0938,379.5098 Q2440.4688,379.8379 2439.9688,380.5879 Q2439.4844,381.3379 2439.4844,382.3691 L2439.4844,383.4629 Q2439.4844,384.6973 2440.375,385.5254 Q2441.2656,386.3379 2442.8594,386.3379 Q2443.7969,386.3379 2444.4531,386.0879 Q2444.8438,385.9316 2445.2656,385.4941 Q2445.5313,385.2285 2445.6719,385.1504 Q2445.8281,385.0723 2446.0313,385.0723 Q2446.3594,385.0723 2446.6094,385.3379 Q2446.875,385.5879 2446.875,385.9316 Q2446.875,386.2754 2446.5313,386.6816 Q2446.0313,387.2598 2445.2344,387.5879 Q2444.1563,388.041 2442.8594,388.041 Q2441.3438,388.041 2440.1406,387.416 Q2439.1563,386.916 2438.4688,385.8535 Q2437.7813,384.7754 2437.7813,383.4941 L2437.7813,382.3379 Q2437.7813,381.0098 2438.3906,379.8691 Q2439.0156,378.7129 2440.1094,378.1035 Q2441.2031,377.4785 2442.4375,377.4785 Q2443.1719,377.4785 2443.8125,377.6504 Q2444.4688,377.8066 2445.0156,378.166 Z " fill="#000000"/><text fill="#000000" font-family="sans-serif" font-size="12" font-style="italic" lengthAdjust="spacing" textLength="56" x="2483.25" y="377.9492">&#171;domain&#187;</text><text fill="#000000" font-family="sans-serif" font-size="14" lengthAdjust="spacing" textLength="97" x="2462.75" y="396.0684">FormativeExam</text><line style="stroke:#181818;stroke-width:0.5;" x1="2231.5" x2="2758.5" y1="404.582" y2="404.582"/><rect fill="none" height="6" style="stroke:#C82930;stroke-width:1.0;" width="6" x="2238.5" y="416.3926"/><text fill="#000000" font-family="sans-serif" font-size="14" lengthAdjust="spacing" textLength="87" x="2250.5" y="423.6895">ExamTitle title</text><rect fill="none" height="6" style="stroke:#C82930;stroke-width:1.0;" width="6" x="2238.5" y="435.0137"/><text fill="#000000" font-family="sans-serif" font-size="14" lengthAdjust="spacing" textLength="158" x="2250.5" y="442.3105">ExamDateTime dateTime</text><rect fill="none" height="6" style="stroke:#C82930;stroke-width:1.0;" width="6" x="2238.5" y="453.6348"/><text fill="#000000" font-family="sans-serif" font-size="14" lengthAdjust="spacing" textLength="95" x="2250.5" y="460.9316">Header header</text><line style="stroke:#181818;stroke-width:0.5;" x1="2231.5" x2="2758.5" y1="468.4453" y2="468.4453"/><ellipse cx="2241.5" cy="483.2559" fill="#84BE84" rx="3" ry="3" style="stroke:#038048;stroke-width:1.0;"/><text fill="#000000" font-family="sans-serif" font-size="14" lengthAdjust="spacing" textLength="503" x="2250.5" y="487.5527">void addFormativeExamSection(formativeExamSection : FormativeExamSection)</text></g><!--class FormativeExamSection--><g id="elem_FormativeExamSection"><rect codeLine="32" fill="#F1F1F1" height="97.8242" id="FormativeExamSection" rx="2.5" ry="2.5" style="stroke:#181818;stroke-width:0.5;" width="264" x="2363" y="574"/><ellipse cx="2418.75" cy="596.291" fill="#ADD1B2" rx="11" ry="11" style="stroke:#181818;stroke-width:1.0;"/><path d="M2421.5156,592.166 Q2421.6719,591.9473 2421.8594,591.8379 Q2422.0469,591.7285 2422.2656,591.7285 Q2422.6406,591.7285 2422.875,591.9941 Q2423.1094,592.2441 2423.1094,592.8535 L2423.1094,594.3066 Q2423.1094,594.916 2422.875,595.1816 Q2422.6406,595.4473 2422.2656,595.4473 Q2421.9219,595.4473 2421.7188,595.2441 Q2421.5156,595.0566 2421.4063,594.541 Q2421.3594,594.1816 2421.1719,593.9941 Q2420.8438,593.6191 2420.2344,593.4004 Q2419.625,593.1816 2419,593.1816 Q2418.2344,593.1816 2417.5938,593.5098 Q2416.9688,593.8379 2416.4688,594.5879 Q2415.9844,595.3379 2415.9844,596.3691 L2415.9844,597.4629 Q2415.9844,598.6973 2416.875,599.5254 Q2417.7656,600.3379 2419.3594,600.3379 Q2420.2969,600.3379 2420.9531,600.0879 Q2421.3438,599.9316 2421.7656,599.4941 Q2422.0313,599.2285 2422.1719,599.1504 Q2422.3281,599.0723 2422.5313,599.0723 Q2422.8594,599.0723 2423.1094,599.3379 Q2423.375,599.5879 2423.375,599.9316 Q2423.375,600.2754 2423.0313,600.6816 Q2422.5313,601.2598 2421.7344,601.5879 Q2420.6563,602.041 2419.3594,602.041 Q2417.8438,602.041 2416.6406,601.416 Q2415.6563,600.916 2414.9688,599.8535 Q2414.2813,598.7754 2414.2813,597.4941 L2414.2813,596.3379 Q2414.2813,595.0098 2414.8906,593.8691 Q2415.5156,592.7129 2416.6094,592.1035 Q2417.7031,591.4785 2418.9375,591.4785 Q2419.6719,591.4785 2420.3125,591.6504 Q2420.9688,591.8066 2421.5156,592.166 Z " fill="#000000"/><text fill="#000000" font-family="sans-serif" font-size="12" font-style="italic" lengthAdjust="spacing" textLength="56" x="2483.25" y="591.9492">&#171;domain&#187;</text><text fill="#000000" font-family="sans-serif" font-size="14" lengthAdjust="spacing" textLength="144" x="2439.25" y="610.0684">FormativeExamSection</text><line style="stroke:#181818;stroke-width:0.5;" x1="2364" x2="2626" y1="618.582" y2="618.582"/><rect fill="none" height="6" style="stroke:#C82930;stroke-width:1.0;" width="6" x="2371" y="630.3926"/><text fill="#000000" font-family="sans-serif" font-size="14" lengthAdjust="spacing" textLength="186" x="2383" y="637.6895">questionAndRequiredNumber</text><rect fill="none" height="6" style="stroke:#C82930;stroke-width:1.0;" width="6" x="2371" y="649.0137"/><text fill="#000000" font-family="sans-serif" font-size="14" lengthAdjust="spacing" textLength="238" x="2383" y="656.3105">SectionDescription sectionDescription</text><line style="stroke:#181818;stroke-width:0.5;" x1="2364" x2="2626" y1="663.8242" y2="663.8242"/></g><!--class FormativeExamService--><g id="elem_FormativeExamService"><rect codeLine="37" fill="#F1F1F1" height="79.2031" id="FormativeExamService" rx="2.5" ry="2.5" style="stroke:#181818;stroke-width:0.5;" width="718" x="943" y="388"/><ellipse cx="1225.75" cy="410.291" fill="#ADD1B2" rx="11" ry="11" style="stroke:#181818;stroke-width:1.0;"/><path d="M1228.5156,406.166 Q1228.6719,405.9473 1228.8594,405.8379 Q1229.0469,405.7285 1229.2656,405.7285 Q1229.6406,405.7285 1229.875,405.9941 Q1230.1094,406.2441 1230.1094,406.8535 L1230.1094,408.3066 Q1230.1094,408.916 1229.875,409.1816 Q1229.6406,409.4473 1229.2656,409.4473 Q1228.9219,409.4473 1228.7188,409.2441 Q1228.5156,409.0566 1228.4063,408.541 Q1228.3594,408.1816 1228.1719,407.9941 Q1227.8438,407.6191 1227.2344,407.4004 Q1226.625,407.1816 1226,407.1816 Q1225.2344,407.1816 1224.5938,407.5098 Q1223.9688,407.8379 1223.4688,408.5879 Q1222.9844,409.3379 1222.9844,410.3691 L1222.9844,411.4629 Q1222.9844,412.6973 1223.875,413.5254 Q1224.7656,414.3379 1226.3594,414.3379 Q1227.2969,414.3379 1227.9531,414.0879 Q1228.3438,413.9316 1228.7656,413.4941 Q1229.0313,413.2285 1229.1719,413.1504 Q1229.3281,413.0723 1229.5313,413.0723 Q1229.8594,413.0723 1230.1094,413.3379 Q1230.375,413.5879 1230.375,413.9316 Q1230.375,414.2754 1230.0313,414.6816 Q1229.5313,415.2598 1228.7344,415.5879 Q1227.6563,416.041 1226.3594,416.041 Q1224.8438,416.041 1223.6406,415.416 Q1222.6563,414.916 1221.9688,413.8535 Q1221.2813,412.7754 1221.2813,411.4941 L1221.2813,410.3379 Q1221.2813,409.0098 1221.8906,407.8691 Q1222.5156,406.7129 1223.6094,406.1035 Q1224.7031,405.4785 1225.9375,405.4785 Q1226.6719,405.4785 1227.3125,405.6504 Q1227.9688,405.8066 1228.5156,406.166 Z " fill="#000000"/><text fill="#000000" font-family="sans-serif" font-size="12" font-style="italic" lengthAdjust="spacing" textLength="74" x="1281.25" y="405.9492">&#171;application&#187;</text><text fill="#000000" font-family="sans-serif" font-size="14" lengthAdjust="spacing" textLength="144" x="1246.25" y="424.0684">FormativeExamService</text><line style="stroke:#181818;stroke-width:0.5;" x1="944" x2="1660" y1="432.582" y2="432.582"/><line style="stroke:#181818;stroke-width:0.5;" x1="944" x2="1660" y1="440.582" y2="440.582"/><ellipse cx="954" cy="455.3926" fill="#84BE84" rx="3" ry="3" style="stroke:#038048;stroke-width:1.0;"/><text fill="#000000" font-family="sans-serif" font-size="14" lengthAdjust="spacing" textLength="692" x="963" y="459.6895">void checkFormativeExamNumberOfTypeQuestions(theCourse : Course, theFormativeExam : FormativeExam)</text></g><!--class CourseRepository--><g id="elem_CourseRepository"><rect codeLine="41" fill="#F1F1F1" height="97.8242" id="CourseRepository" rx="2.5" ry="2.5" style="stroke:#181818;stroke-width:0.5;" width="499" x="1696.5" y="378.5"/><ellipse cx="1884.75" cy="400.791" fill="#ADD1B2" rx="11" ry="11" style="stroke:#181818;stroke-width:1.0;"/><path d="M1887.5156,396.666 Q1887.6719,396.4473 1887.8594,396.3379 Q1888.0469,396.2285 1888.2656,396.2285 Q1888.6406,396.2285 1888.875,396.4941 Q1889.1094,396.7441 1889.1094,397.3535 L1889.1094,398.8066 Q1889.1094,399.416 1888.875,399.6816 Q1888.6406,399.9473 1888.2656,399.9473 Q1887.9219,399.9473 1887.7188,399.7441 Q1887.5156,399.5566 1887.4063,399.041 Q1887.3594,398.6816 1887.1719,398.4941 Q1886.8438,398.1191 1886.2344,397.9004 Q1885.625,397.6816 1885,397.6816 Q1884.2344,397.6816 1883.5938,398.0098 Q1882.9688,398.3379 1882.4688,399.0879 Q1881.9844,399.8379 1881.9844,400.8691 L1881.9844,401.9629 Q1881.9844,403.1973 1882.875,404.0254 Q1883.7656,404.8379 1885.3594,404.8379 Q1886.2969,404.8379 1886.9531,404.5879 Q1887.3438,404.4316 1887.7656,403.9941 Q1888.0313,403.7285 1888.1719,403.6504 Q1888.3281,403.5723 1888.5313,403.5723 Q1888.8594,403.5723 1889.1094,403.8379 Q1889.375,404.0879 1889.375,404.4316 Q1889.375,404.7754 1889.0313,405.1816 Q1888.5313,405.7598 1887.7344,406.0879 Q1886.6563,406.541 1885.3594,406.541 Q1883.8438,406.541 1882.6406,405.916 Q1881.6563,405.416 1880.9688,404.3535 Q1880.2813,403.2754 1880.2813,401.9941 L1880.2813,400.8379 Q1880.2813,399.5098 1880.8906,398.3691 Q1881.5156,397.2129 1882.6094,396.6035 Q1883.7031,395.9785 1884.9375,395.9785 Q1885.6719,395.9785 1886.3125,396.1504 Q1886.9688,396.3066 1887.5156,396.666 Z " fill="#000000"/><text fill="#000000" font-family="sans-serif" font-size="12" font-style="italic" lengthAdjust="spacing" textLength="68" x="1928.25" y="396.4492">&#171;repository&#187;</text><text fill="#000000" font-family="sans-serif" font-size="14" lengthAdjust="spacing" textLength="114" x="1905.25" y="414.5684">CourseRepository</text><line style="stroke:#181818;stroke-width:0.5;" x1="1697.5" x2="2194.5" y1="423.082" y2="423.082"/><line style="stroke:#181818;stroke-width:0.5;" x1="1697.5" x2="2194.5" y1="431.082" y2="431.082"/><ellipse cx="1707.5" cy="445.8926" fill="#84BE84" rx="3" ry="3" style="stroke:#038048;stroke-width:1.0;"/><text fill="#000000" font-family="sans-serif" font-size="14" lengthAdjust="spacing" textLength="473" x="1716.5" y="450.1895">Iterable&lt;Course&gt; findAllTeacherCoursesInProgress(theTeacher : Teacher)</text><ellipse cx="1707.5" cy="464.5137" fill="#84BE84" rx="3" ry="3" style="stroke:#038048;stroke-width:1.0;"/><text fill="#000000" font-family="sans-serif" font-size="14" lengthAdjust="spacing" textLength="214" x="1716.5" y="468.8105">Course save(theCourse : Course)</text></g><!--class QuestionRepository--><g id="elem_QuestionRepository"><rect codeLine="46" fill="#F1F1F1" height="79.2031" id="QuestionRepository" rx="2.5" ry="2.5" style="stroke:#181818;stroke-width:0.5;" width="473" x="1065.5" y="583.5"/><ellipse cx="1235.25" cy="605.791" fill="#ADD1B2" rx="11" ry="11" style="stroke:#181818;stroke-width:1.0;"/><path d="M1238.0156,601.666 Q1238.1719,601.4473 1238.3594,601.3379 Q1238.5469,601.2285 1238.7656,601.2285 Q1239.1406,601.2285 1239.375,601.4941 Q1239.6094,601.7441 1239.6094,602.3535 L1239.6094,603.8066 Q1239.6094,604.416 1239.375,604.6816 Q1239.1406,604.9473 1238.7656,604.9473 Q1238.4219,604.9473 1238.2188,604.7441 Q1238.0156,604.5566 1237.9063,604.041 Q1237.8594,603.6816 1237.6719,603.4941 Q1237.3438,603.1191 1236.7344,602.9004 Q1236.125,602.6816 1235.5,602.6816 Q1234.7344,602.6816 1234.0938,603.0098 Q1233.4688,603.3379 1232.9688,604.0879 Q1232.4844,604.8379 1232.4844,605.8691 L1232.4844,606.9629 Q1232.4844,608.1973 1233.375,609.0254 Q1234.2656,609.8379 1235.8594,609.8379 Q1236.7969,609.8379 1237.4531,609.5879 Q1237.8438,609.4316 1238.2656,608.9941 Q1238.5313,608.7285 1238.6719,608.6504 Q1238.8281,608.5723 1239.0313,608.5723 Q1239.3594,608.5723 1239.6094,608.8379 Q1239.875,609.0879 1239.875,609.4316 Q1239.875,609.7754 1239.5313,610.1816 Q1239.0313,610.7598 1238.2344,611.0879 Q1237.1563,611.541 1235.8594,611.541 Q1234.3438,611.541 1233.1406,610.916 Q1232.1563,610.416 1231.4688,609.3535 Q1230.7813,608.2754 1230.7813,606.9941 L1230.7813,605.8379 Q1230.7813,604.5098 1231.3906,603.3691 Q1232.0156,602.2129 1233.1094,601.6035 Q1234.2031,600.9785 1235.4375,600.9785 Q1236.1719,600.9785 1236.8125,601.1504 Q1237.4688,601.3066 1238.0156,601.666 Z " fill="#000000"/><text fill="#000000" font-family="sans-serif" font-size="12" font-style="italic" lengthAdjust="spacing" textLength="68" x="1284.25" y="601.4492">&#171;repository&#187;</text><text fill="#000000" font-family="sans-serif" font-size="14" lengthAdjust="spacing" textLength="125" x="1255.75" y="619.5684">QuestionRepository</text><line style="stroke:#181818;stroke-width:0.5;" x1="1066.5" x2="1537.5" y1="628.082" y2="628.082"/><line style="stroke:#181818;stroke-width:0.5;" x1="1066.5" x2="1537.5" y1="636.082" y2="636.082"/><ellipse cx="1076.5" cy="650.8926" fill="#84BE84" rx="3" ry="3" style="stroke:#038048;stroke-width:1.0;"/><text fill="#000000" font-family="sans-serif" font-size="14" lengthAdjust="spacing" textLength="447" x="1085.5" y="655.1895">Integer countTypeQuestion(theCourse : Course, typeQuestion : String)</text></g><!--link CreateAutomaticFormativeExamsUI to FormativeExam--><g id="link_CreateAutomaticFormativeExamsUI_FormativeExam"><path codeLine="51" d="M2027.31,86.28 C2114.75,149.89 2289.84,277.26 2399.23,356.83 " fill="none" id="CreateAutomaticFormativeExamsUI-to-FormativeExam" style="stroke:#181818;stroke-width:1.0;stroke-dasharray:7.0,7.0;"/><polygon fill="#181818" points="2403.41,359.88,2398.4876,351.3494,2399.3676,356.9374,2393.7796,357.8174,2403.41,359.88" style="stroke:#181818;stroke-width:1.0;"/></g><!--link CreateAutomaticFormativeExamsUI to CreateAutomaticFormativeExamsController--><g id="link_CreateAutomaticFormativeExamsUI_CreateAutomaticFormativeExamsController"><path codeLine="54" d="M1847.21,80.42 C1757.07,103.83 1633.56,135.9 1526.9,163.6 " fill="none" id="CreateAutomaticFormativeExamsUI-to-CreateAutomaticFormativeExamsController" style="stroke:#181818;stroke-width:1.0;"/><polygon fill="#181818" points="1521.83,164.92,1531.5475,166.5234,1526.6687,163.6602,1529.5318,158.7814,1521.83,164.92" style="stroke:#181818;stroke-width:1.0;"/><text fill="#000000" font-family="sans-serif" font-size="13" lengthAdjust="spacing" textLength="73" x="1700" y="131.0283">theController</text></g><!--link CreateAutomaticFormativeExamsController to CourseRepository--><g id="link_CreateAutomaticFormativeExamsController_CourseRepository"><path codeLine="55" d="M1483.53,281.08 C1579.46,311.25 1696.08,347.92 1788.21,376.89 " fill="none" id="CreateAutomaticFormativeExamsController-to-CourseRepository" style="stroke:#181818;stroke-width:1.0;"/><polygon fill="#181818" points="1793.14,378.43,1785.7539,371.915,1788.3701,376.9305,1783.3547,379.5468,1793.14,378.43" style="stroke:#181818;stroke-width:1.0;"/><text fill="#000000" font-family="sans-serif" font-size="13" lengthAdjust="spacing" textLength="69" x="1625" y="326.0283">courseRepo</text></g><!--link CreateAutomaticFormativeExamsController to FormativeExamService--><g id="link_CreateAutomaticFormativeExamsController_FormativeExamService"><path codeLine="56" d="M1302,281.22 C1302,313.5 1302,353.2 1302,382.94 " fill="none" id="CreateAutomaticFormativeExamsController-to-FormativeExamService" style="stroke:#181818;stroke-width:1.0;"/><polygon fill="#181818" points="1302,388,1306,379,1302,383,1298,379,1302,388" style="stroke:#181818;stroke-width:1.0;"/><text fill="#000000" font-family="sans-serif" font-size="13" lengthAdjust="spacing" textLength="40" x="1303" y="326.0283">service</text></g><!--link CreateAutomaticFormativeExamsController to FormativeExam--><g id="link_CreateAutomaticFormativeExamsController_FormativeExam"><path codeLine="57" d="M1592.55,261.08 C1771.99,285.54 2006.59,320.33 2213,360 C2216.99,360.77 2221.02,361.55 2225.06,362.35 " fill="none" id="CreateAutomaticFormativeExamsController-to-FormativeExam" style="stroke:#181818;stroke-width:1.0;"/><polygon fill="#181818" points="2230.2,363.38,2222.1497,357.7062,2225.2955,362.4077,2220.594,365.5534,2230.2,363.38" style="stroke:#181818;stroke-width:1.0;"/><text fill="#000000" font-family="sans-serif" font-size="13" lengthAdjust="spacing" textLength="108" x="2041" y="326.0283">theFormativeExam</text></g><!--link CreateAutomaticFormativeExamsController to Teacher--><g id="link_CreateAutomaticFormativeExamsController_Teacher"><path codeLine="58" d="M1087.31,281.01 C1031.81,301.1 973.95,327.12 925,360 C911.78,368.88 899.53,381.3 889.6,393 " fill="none" id="CreateAutomaticFormativeExamsController-to-Teacher" style="stroke:#181818;stroke-width:1.0;"/><polygon fill="#181818" points="886.32,396.94,895.1609,392.5997,889.5266,393.1036,889.0227,387.4692,886.32,396.94" style="stroke:#181818;stroke-width:1.0;"/><text fill="#000000" font-family="sans-serif" font-size="13" lengthAdjust="spacing" textLength="64" x="1012" y="326.0283">theTeacher</text></g><!--link CreateAutomaticFormativeExamsController to FormativeExamMain--><g id="link_CreateAutomaticFormativeExamsController_FormativeExamMain"><path codeLine="59" d="M1011.3,269.51 C958.37,280.88 904.08,294.62 854,311 C794.58,330.44 730.79,360.84 683.2,385.58 " fill="none" id="CreateAutomaticFormativeExamsController-to-FormativeExamMain" style="stroke:#181818;stroke-width:1.0;"/><polygon fill="#181818" points="678.65,387.95,688.4791,387.3267,683.0814,385.6342,684.7739,380.2365,678.65,387.95" style="stroke:#181818;stroke-width:1.0;"/><text fill="#000000" font-family="sans-serif" font-size="13" lengthAdjust="spacing" textLength="118" x="855" y="326.0283">FormativeExamMain</text></g><!--link CreateAutomaticFormativeExamsController to Course--><g id="link_CreateAutomaticFormativeExamsController_Course"><path codeLine="60" d="M1011.36,257.11 C836.67,279.82 610.63,314.17 413,360 C392.04,364.86 370.15,370.76 348.73,377.02 " fill="none" id="CreateAutomaticFormativeExamsController-to-Course" style="stroke:#181818;stroke-width:1.0;"/><polygon fill="#181818" points="343.87,378.44,353.63,379.76,348.67,377.04,351.39,372.08,343.87,378.44" style="stroke:#181818;stroke-width:1.0;"/><text fill="#000000" font-family="sans-serif" font-size="13" lengthAdjust="spacing" textLength="59" x="656" y="326.0283">theCourse</text></g><!--link FormativeExamService to QuestionRepository--><g id="link_FormativeExamService_QuestionRepository"><path codeLine="61" d="M1302,467.19 C1302,499.23 1302,544.74 1302,578.12 " fill="none" id="FormativeExamService-to-QuestionRepository" style="stroke:#181818;stroke-width:1.0;"/><polygon fill="#181818" points="1302,583.37,1306,574.37,1302,578.37,1298,574.37,1302,583.37" style="stroke:#181818;stroke-width:1.0;"/><text fill="#000000" font-family="sans-serif" font-size="13" lengthAdjust="spacing" textLength="79" x="1303" y="540.0283">questionRepo</text></g><!--link FormativeExam to FormativeExamSection--><g id="link_FormativeExam_FormativeExamSection"><path codeLine="62" d="M2495,495.09 C2495,519.18 2495,546.04 2495,568.82 " fill="none" id="FormativeExam-to-FormativeExamSection" style="stroke:#181818;stroke-width:1.0;"/><polygon fill="#181818" points="2495,573.92,2499,564.92,2495,568.92,2491,564.92,2495,573.92" style="stroke:#181818;stroke-width:1.0;"/><text fill="#000000" font-family="sans-serif" font-size="13" lengthAdjust="spacing" textLength="23" x="2496" y="540.0283">Has</text><text fill="#000000" font-family="sans-serif" font-size="13" lengthAdjust="spacing" textLength="7" x="2487.6391" y="516.9767">1</text><text fill="#000000" font-family="sans-serif" font-size="13" lengthAdjust="spacing" textLength="20" x="2473.5938" y="562.884">1..*</text></g><!--SRC=[fLHDSzem4BtxLsZe8VI3pEJgOPXXe9bmQDe6fprqUX3IWZKraf5ajvbC_djNibrRmHH2E63fIVlsxTDA5xEC6WCcOkvBPXgeXMbXrPPQmQwLTjyIFlwXMtE_8EDnhi60j8WgEPcGnuZWxyrAgGoe95mjK_Lx-3PwYavXd2bfjSeoqCXCypmJB2H-lx2WwIg3yKmLsi24h8NaqonBWB8KT8MQXVoYrGQL6Kpjuu8y9AUuAu26DeKgcCIa6dp0RJPDrBN87BYqMiXDJLTlPRwOuqI8XG9Y4imx_jI5OFqS7H9LwQrx5NEmw0IDbc370IKw4rXRwIwLu8Ho7afUdwWjm3zXVXIIvUXqUpwFnhK2U-hn-xkmwJTXX5LwsEjiVvwUOXsS28l1rlstu1nF8n5R8BmUL4itG3bQclhFVunO0dFT5lfHWyzjgU53gfkeVV6x0enRcaf-1xj2QE2tnNPL2nlLWNCmJ8lSSvWzw61INGe6X-wEhncRY_qAeghidzV9GmvVQt7cjMrSXTn1hlo1Fw0c_M_oYkkC4feR4ZTt9RoJXfRGexwZhIdok3ffOOEPc2gaxThJxqvdGzZL5tF8GNAGJE3BUknD7VtWrAJ0VuuceRr8T4jBiV77Ufm6mqzzR6FY2shcqQbnFiVpauwTNpNq8gRUNewn_VteVAgglD3Abv2r3TTst_bg_BiPxsDdcDwScnj7lUwvlJtj7fDT1mn3oU1guEC6LvUNxmRzprfCRgY9_W80]--></g></svg>