<?xml version="1.0" encoding="us-ascii" standalone="no"?><svg xmlns="http://www.w3.org/2000/svg" xmlns:xlink="http://www.w3.org/1999/xlink" contentStyleType="text/css" height="646px" preserveAspectRatio="none" style="width:1583px;height:646px;background:#FFFFFF;" version="1.1" viewBox="0 0 1583 646" width="1583px" zoomAndPan="magnify"><defs/><g><text fill="#000000" font-family="sans-serif" font-size="14" font-weight="bold" lengthAdjust="spacing" textLength="213" x="678.25" y="25.1074">Domain Classes (DC) - US 2008</text><!--cluster <<aggregate>> Teacher--><g id="cluster_&lt;&lt;aggregate&gt;&gt; Teacher"><path d="M866.5,387.6348 L1016.5,387.6348 A3.75,3.75 0 0 1 1019,390.1348 L1026,412.2559 L1026.5,412.2559 A2.5,2.5 0 0 1 1029,414.7559 L1029,636.6348 A2.5,2.5 0 0 1 1026.5,639.1348 L866.5,639.1348 A2.5,2.5 0 0 1 864,636.6348 L864,390.1348 A2.5,2.5 0 0 1 866.5,387.6348 " fill="none" style="stroke:#000000;stroke-width:1.5;"/><line style="stroke:#000000;stroke-width:1.5;" x1="864" x2="1026" y1="412.2559" y2="412.2559"/><text fill="#000000" font-family="sans-serif" font-size="14" font-weight="bold" lengthAdjust="spacing" textLength="149" x="868" y="404.7422">&#171;aggregate&#187; Teacher</text></g><!--cluster <<aggregate>> FormativeExam--><g id="cluster_&lt;&lt;aggregate&gt;&gt; FormativeExam"><path d="M329.5,216.6348 L530.5,216.6348 A3.75,3.75 0 0 1 533,219.1348 L540,241.2559 L554.5,241.2559 A2.5,2.5 0 0 1 557,243.7559 L557,508.1348 A2.5,2.5 0 0 1 554.5,510.6348 L329.5,510.6348 A2.5,2.5 0 0 1 327,508.1348 L327,219.1348 A2.5,2.5 0 0 1 329.5,216.6348 " fill="none" style="stroke:#000000;stroke-width:1.5;"/><line style="stroke:#000000;stroke-width:1.5;" x1="327" x2="540" y1="241.2559" y2="241.2559"/><text fill="#000000" font-family="sans-serif" font-size="14" font-weight="bold" lengthAdjust="spacing" textLength="200" x="331" y="233.7422">&#171;aggregate&#187; FormativeExam</text></g><!--cluster <<aggregate>> Course--><g id="cluster_&lt;&lt;aggregate&gt;&gt; Course"><path d="M8.5,45.6348 L152.5,45.6348 A3.75,3.75 0 0 1 155,48.1348 L162,70.2559 L300.5,70.2559 A2.5,2.5 0 0 1 303,72.7559 L303,520.6348 A2.5,2.5 0 0 1 300.5,523.1348 L8.5,523.1348 A2.5,2.5 0 0 1 6,520.6348 L6,48.1348 A2.5,2.5 0 0 1 8.5,45.6348 " fill="none" style="stroke:#000000;stroke-width:1.5;"/><line style="stroke:#000000;stroke-width:1.5;" x1="6" x2="162" y1="70.2559" y2="70.2559"/><text fill="#000000" font-family="sans-serif" font-size="14" font-weight="bold" lengthAdjust="spacing" textLength="143" x="10" y="62.7422">&#171;aggregate&#187; Course</text></g><!--class Teacher--><g id="elem_Teacher"><rect codeLine="11" fill="#F1F1F1" height="68.543" id="Teacher" rx="2.5" ry="2.5" style="stroke:#181818;stroke-width:0.5;" width="85" x="887.5" y="424.6348"/><ellipse cx="902.5" cy="454.9063" fill="#ADD1B2" rx="11" ry="11" style="stroke:#181818;stroke-width:1.0;"/><path d="M901.3594,455.7031 L901.3594,458.2031 L905.6875,458.2031 L905.6875,457.2813 Q905.6875,456.6719 905.9219,456.4063 Q906.1719,456.1406 906.5469,456.1406 Q906.9219,456.1406 907.1563,456.4063 Q907.3906,456.6719 907.3906,457.2813 L907.3906,459.9063 L899.3906,459.9063 Q898.7656,459.9063 898.5,459.6719 Q898.25,459.4375 898.25,459.0469 Q898.25,458.6719 898.5156,458.4375 Q898.7813,458.2031 899.3906,458.2031 L899.6563,458.2031 L899.6563,451.5469 L899.3906,451.5469 Q898.7656,451.5469 898.5,451.3125 Q898.25,451.0781 898.25,450.6875 Q898.25,450.3125 898.5,450.0781 Q898.7656,449.8438 899.3906,449.8438 L907.0156,449.8438 L907.0156,452.4375 Q907.0156,453.0469 906.7813,453.3125 Q906.5625,453.5625 906.1719,453.5625 Q905.7969,453.5625 905.5625,453.3125 Q905.3281,453.0469 905.3281,452.4375 L905.3281,451.5469 L901.3594,451.5469 L901.3594,454 L902.8438,454 Q902.8438,453.3438 902.9688,453.1563 Q903.2344,452.75 903.7031,452.75 Q904.0781,452.75 904.3125,453.0156 Q904.5469,453.2656 904.5469,453.875 L904.5469,455.8438 Q904.5469,456.3906 904.4219,456.5781 Q904.1563,456.9688 903.7031,456.9688 Q903.2344,456.9688 902.9688,456.5625 Q902.8438,456.375 902.8438,455.7031 L901.3594,455.7031 Z " fill="#000000"/><text fill="#000000" font-family="sans-serif" font-size="12" font-style="italic" lengthAdjust="spacing" textLength="43" x="921.5" y="442.584">&#171;entity&#187;</text><text fill="#000000" font-family="sans-serif" font-size="12" font-style="italic" lengthAdjust="spacing" textLength="35" x="925.5" y="458.5449">&#171;root&#187;</text><text fill="#000000" font-family="sans-serif" font-size="14" lengthAdjust="spacing" textLength="53" x="916.5" y="476.6641">Teacher</text><line style="stroke:#181818;stroke-width:0.5;" x1="888.5" x2="971.5" y1="485.1777" y2="485.1777"/></g><!--class Acronym--><g id="elem_Acronym"><rect codeLine="12" fill="#F1F1F1" height="52.582" id="Acronym" rx="2.5" ry="2.5" style="stroke:#181818;stroke-width:0.5;" width="109" x="880.5" y="570.1348"/><ellipse cx="895.5" cy="592.4258" fill="#FF8B40" rx="11" ry="11" style="stroke:#181818;stroke-width:1.0;"/><path d="M896.0938,595.6914 L898.5625,589.8164 L898.1719,589.8164 Q897.5625,589.8164 897.2969,589.582 Q897.0313,589.3477 897.0313,588.957 Q897.0313,588.582 897.2969,588.3477 Q897.5625,588.1133 898.1719,588.1133 L900.4531,588.1133 Q901.0625,588.1133 901.3281,588.3477 Q901.5938,588.582 901.5938,588.957 Q901.5938,589.4258 901.1875,589.6914 Q901,589.8164 900.4063,589.8164 L896.9219,598.1758 L895.2813,598.1758 L891.7969,589.8164 Q891.2031,589.8164 891.0156,589.6914 Q890.6094,589.4258 890.6094,588.957 Q890.6094,588.582 890.875,588.3477 Q891.1406,588.1133 891.75,588.1133 L894.0469,588.1133 Q894.6563,588.1133 894.9063,588.3477 Q895.1719,588.582 895.1719,588.957 Q895.1719,589.3477 894.9063,589.582 Q894.6563,589.8164 894.0469,589.8164 L893.6406,589.8164 L896.0938,595.6914 Z " fill="#000000"/><text fill="#000000" font-family="sans-serif" font-size="12" font-style="italic" lengthAdjust="spacing" textLength="81" x="907.5" y="588.084">&#171;value object&#187;</text><text fill="#000000" font-family="sans-serif" font-size="14" lengthAdjust="spacing" textLength="55" x="920.5" y="606.2031">Acronym</text><line style="stroke:#181818;stroke-width:0.5;" x1="881.5" x2="988.5" y1="614.7168" y2="614.7168"/></g><!--class FormativeExam--><g id="elem_FormativeExam"><rect codeLine="17" fill="#F1F1F1" height="68.543" id="FormativeExam" rx="2.5" ry="2.5" style="stroke:#181818;stroke-width:0.5;" width="129" x="411.5" y="253.6348"/><ellipse cx="426.5" cy="283.9063" fill="#ADD1B2" rx="11" ry="11" style="stroke:#181818;stroke-width:1.0;"/><path d="M425.3594,284.7031 L425.3594,287.2031 L429.6875,287.2031 L429.6875,286.2813 Q429.6875,285.6719 429.9219,285.4063 Q430.1719,285.1406 430.5469,285.1406 Q430.9219,285.1406 431.1563,285.4063 Q431.3906,285.6719 431.3906,286.2813 L431.3906,288.9063 L423.3906,288.9063 Q422.7656,288.9063 422.5,288.6719 Q422.25,288.4375 422.25,288.0469 Q422.25,287.6719 422.5156,287.4375 Q422.7813,287.2031 423.3906,287.2031 L423.6563,287.2031 L423.6563,280.5469 L423.3906,280.5469 Q422.7656,280.5469 422.5,280.3125 Q422.25,280.0781 422.25,279.6875 Q422.25,279.3125 422.5,279.0781 Q422.7656,278.8438 423.3906,278.8438 L431.0156,278.8438 L431.0156,281.4375 Q431.0156,282.0469 430.7813,282.3125 Q430.5625,282.5625 430.1719,282.5625 Q429.7969,282.5625 429.5625,282.3125 Q429.3281,282.0469 429.3281,281.4375 L429.3281,280.5469 L425.3594,280.5469 L425.3594,283 L426.8438,283 Q426.8438,282.3438 426.9688,282.1563 Q427.2344,281.75 427.7031,281.75 Q428.0781,281.75 428.3125,282.0156 Q428.5469,282.2656 428.5469,282.875 L428.5469,284.8438 Q428.5469,285.3906 428.4219,285.5781 Q428.1563,285.9688 427.7031,285.9688 Q427.2344,285.9688 426.9688,285.5625 Q426.8438,285.375 426.8438,284.7031 L425.3594,284.7031 Z " fill="#000000"/><text fill="#000000" font-family="sans-serif" font-size="12" font-style="italic" lengthAdjust="spacing" textLength="43" x="467.5" y="271.584">&#171;entity&#187;</text><text fill="#000000" font-family="sans-serif" font-size="12" font-style="italic" lengthAdjust="spacing" textLength="35" x="471.5" y="287.5449">&#171;root&#187;</text><text fill="#000000" font-family="sans-serif" font-size="14" lengthAdjust="spacing" textLength="97" x="440.5" y="305.6641">FormativeExam</text><line style="stroke:#181818;stroke-width:0.5;" x1="412.5" x2="539.5" y1="314.1777" y2="314.1777"/></g><!--class FormativeExamSection--><g id="elem_FormativeExamSection"><rect codeLine="20" fill="#F1F1F1" height="71.2031" id="FormativeExamSection" rx="2.5" ry="2.5" style="stroke:#181818;stroke-width:0.5;" width="198" x="343" y="423.6348"/><ellipse cx="367.9" cy="445.9258" fill="#ADD1B2" rx="11" ry="11" style="stroke:#181818;stroke-width:1.0;"/><path d="M366.7594,446.7227 L366.7594,449.2227 L371.0875,449.2227 L371.0875,448.3008 Q371.0875,447.6914 371.3219,447.4258 Q371.5719,447.1602 371.9469,447.1602 Q372.3219,447.1602 372.5563,447.4258 Q372.7906,447.6914 372.7906,448.3008 L372.7906,450.9258 L364.7906,450.9258 Q364.1656,450.9258 363.9,450.6914 Q363.65,450.457 363.65,450.0664 Q363.65,449.6914 363.9156,449.457 Q364.1813,449.2227 364.7906,449.2227 L365.0563,449.2227 L365.0563,442.5664 L364.7906,442.5664 Q364.1656,442.5664 363.9,442.332 Q363.65,442.0977 363.65,441.707 Q363.65,441.332 363.9,441.0977 Q364.1656,440.8633 364.7906,440.8633 L372.4156,440.8633 L372.4156,443.457 Q372.4156,444.0664 372.1813,444.332 Q371.9625,444.582 371.5719,444.582 Q371.1969,444.582 370.9625,444.332 Q370.7281,444.0664 370.7281,443.457 L370.7281,442.5664 L366.7594,442.5664 L366.7594,445.0195 L368.2438,445.0195 Q368.2438,444.3633 368.3688,444.1758 Q368.6344,443.7695 369.1031,443.7695 Q369.4781,443.7695 369.7125,444.0352 Q369.9469,444.2852 369.9469,444.8945 L369.9469,446.8633 Q369.9469,447.4102 369.8219,447.5977 Q369.5563,447.9883 369.1031,447.9883 Q368.6344,447.9883 368.3688,447.582 Q368.2438,447.3945 368.2438,446.7227 L366.7594,446.7227 Z " fill="#000000"/><text fill="#000000" font-family="sans-serif" font-size="12" font-style="italic" lengthAdjust="spacing" textLength="43" x="434.6" y="441.584">&#171;entity&#187;</text><text fill="#000000" font-family="sans-serif" font-size="14" lengthAdjust="spacing" textLength="144" x="384.1" y="459.7031">FormativeExamSection</text><line style="stroke:#181818;stroke-width:0.5;" x1="344" x2="540" y1="468.2168" y2="468.2168"/><text fill="#000000" font-family="sans-serif" font-size="14" lengthAdjust="spacing" textLength="186" x="349" y="487.3242">questionAndRequiredNumber</text></g><!--class Course--><g id="elem_Course"><rect codeLine="42" fill="#F1F1F1" height="68.543" id="Course" rx="2.5" ry="2.5" style="stroke:#181818;stroke-width:0.5;" width="78" x="189" y="82.6348"/><ellipse cx="204" cy="112.9063" fill="#ADD1B2" rx="11" ry="11" style="stroke:#181818;stroke-width:1.0;"/><path d="M202.8594,113.7031 L202.8594,116.2031 L207.1875,116.2031 L207.1875,115.2813 Q207.1875,114.6719 207.4219,114.4063 Q207.6719,114.1406 208.0469,114.1406 Q208.4219,114.1406 208.6563,114.4063 Q208.8906,114.6719 208.8906,115.2813 L208.8906,117.9063 L200.8906,117.9063 Q200.2656,117.9063 200,117.6719 Q199.75,117.4375 199.75,117.0469 Q199.75,116.6719 200.0156,116.4375 Q200.2813,116.2031 200.8906,116.2031 L201.1563,116.2031 L201.1563,109.5469 L200.8906,109.5469 Q200.2656,109.5469 200,109.3125 Q199.75,109.0781 199.75,108.6875 Q199.75,108.3125 200,108.0781 Q200.2656,107.8438 200.8906,107.8438 L208.5156,107.8438 L208.5156,110.4375 Q208.5156,111.0469 208.2813,111.3125 Q208.0625,111.5625 207.6719,111.5625 Q207.2969,111.5625 207.0625,111.3125 Q206.8281,111.0469 206.8281,110.4375 L206.8281,109.5469 L202.8594,109.5469 L202.8594,112 L204.3438,112 Q204.3438,111.3438 204.4688,111.1563 Q204.7344,110.75 205.2031,110.75 Q205.5781,110.75 205.8125,111.0156 Q206.0469,111.2656 206.0469,111.875 L206.0469,113.8438 Q206.0469,114.3906 205.9219,114.5781 Q205.6563,114.9688 205.2031,114.9688 Q204.7344,114.9688 204.4688,114.5625 Q204.3438,114.375 204.3438,113.7031 L202.8594,113.7031 Z " fill="#000000"/><text fill="#000000" font-family="sans-serif" font-size="12" font-style="italic" lengthAdjust="spacing" textLength="43" x="219.5" y="100.584">&#171;entity&#187;</text><text fill="#000000" font-family="sans-serif" font-size="12" font-style="italic" lengthAdjust="spacing" textLength="35" x="223.5" y="116.5449">&#171;root&#187;</text><text fill="#000000" font-family="sans-serif" font-size="14" lengthAdjust="spacing" textLength="46" x="218" y="134.6641">Course</text><line style="stroke:#181818;stroke-width:0.5;" x1="190" x2="266" y1="143.1777" y2="143.1777"/></g><!--class CourseCode--><g id="elem_CourseCode"><rect codeLine="43" fill="#F1F1F1" height="52.582" id="CourseCode" rx="2.5" ry="2.5" style="stroke:#181818;stroke-width:0.5;" width="112" x="22" y="261.6348"/><ellipse cx="37" cy="283.9258" fill="#FF8B40" rx="11" ry="11" style="stroke:#181818;stroke-width:1.0;"/><path d="M37.5938,287.1914 L40.0625,281.3164 L39.6719,281.3164 Q39.0625,281.3164 38.7969,281.082 Q38.5313,280.8477 38.5313,280.457 Q38.5313,280.082 38.7969,279.8477 Q39.0625,279.6133 39.6719,279.6133 L41.9531,279.6133 Q42.5625,279.6133 42.8281,279.8477 Q43.0938,280.082 43.0938,280.457 Q43.0938,280.9258 42.6875,281.1914 Q42.5,281.3164 41.9063,281.3164 L38.4219,289.6758 L36.7813,289.6758 L33.2969,281.3164 Q32.7031,281.3164 32.5156,281.1914 Q32.1094,280.9258 32.1094,280.457 Q32.1094,280.082 32.375,279.8477 Q32.6406,279.6133 33.25,279.6133 L35.5469,279.6133 Q36.1563,279.6133 36.4063,279.8477 Q36.6719,280.082 36.6719,280.457 Q36.6719,280.8477 36.4063,281.082 Q36.1563,281.3164 35.5469,281.3164 L35.1406,281.3164 L37.5938,287.1914 Z " fill="#000000"/><text fill="#000000" font-family="sans-serif" font-size="12" font-style="italic" lengthAdjust="spacing" textLength="81" x="50.5" y="279.584">&#171;value object&#187;</text><text fill="#000000" font-family="sans-serif" font-size="14" lengthAdjust="spacing" textLength="80" x="51" y="297.7031">CourseCode</text><line style="stroke:#181818;stroke-width:0.5;" x1="23" x2="133" y1="306.2168" y2="306.2168"/></g><!--class CourseStatus--><g id="elem_CourseStatus"><rect codeLine="44" fill="#F1F1F1" height="52.582" id="CourseStatus" rx="2.5" ry="2.5" style="stroke:#181818;stroke-width:0.5;" width="118" x="169" y="261.6348"/><ellipse cx="184" cy="283.9258" fill="#FF8B40" rx="11" ry="11" style="stroke:#181818;stroke-width:1.0;"/><path d="M184.5938,287.1914 L187.0625,281.3164 L186.6719,281.3164 Q186.0625,281.3164 185.7969,281.082 Q185.5313,280.8477 185.5313,280.457 Q185.5313,280.082 185.7969,279.8477 Q186.0625,279.6133 186.6719,279.6133 L188.9531,279.6133 Q189.5625,279.6133 189.8281,279.8477 Q190.0938,280.082 190.0938,280.457 Q190.0938,280.9258 189.6875,281.1914 Q189.5,281.3164 188.9063,281.3164 L185.4219,289.6758 L183.7813,289.6758 L180.2969,281.3164 Q179.7031,281.3164 179.5156,281.1914 Q179.1094,280.9258 179.1094,280.457 Q179.1094,280.082 179.375,279.8477 Q179.6406,279.6133 180.25,279.6133 L182.5469,279.6133 Q183.1563,279.6133 183.4063,279.8477 Q183.6719,280.082 183.6719,280.457 Q183.6719,280.8477 183.4063,281.082 Q183.1563,281.3164 182.5469,281.3164 L182.1406,281.3164 L184.5938,287.1914 Z " fill="#000000"/><text fill="#000000" font-family="sans-serif" font-size="12" font-style="italic" lengthAdjust="spacing" textLength="81" x="200.5" y="279.584">&#171;value object&#187;</text><text fill="#000000" font-family="sans-serif" font-size="14" lengthAdjust="spacing" textLength="86" x="198" y="297.7031">CourseStatus</text><line style="stroke:#181818;stroke-width:0.5;" x1="170" x2="286" y1="306.2168" y2="306.2168"/></g><g id="elem_GMN19"><path d="M127,411.1348 L127,507.5898 A0,0 0 0 0 127,507.5898 L287,507.5898 A0,0 0 0 0 287,507.5898 L287,421.1348 L277,411.1348 L216.85,411.1348 L224.81,314.8048 L208.85,411.1348 L127,411.1348 A0,0 0 0 0 127,411.1348 " fill="#FEFFDD" style="stroke:#181818;stroke-width:0.5;"/><path d="M277,411.1348 L277,421.1348 L287,421.1348 L277,411.1348 " fill="#FEFFDD" style="stroke:#181818;stroke-width:0.5;"/><text fill="#000000" font-family="sans-serif" font-size="13" lengthAdjust="spacing" textLength="123" x="133" y="430.1631">Diagrama de estados</text><text fill="#000000" font-family="sans-serif" font-size="13" lengthAdjust="spacing" textLength="96" x="133" y="447.4541">dispon&#237;vel com o</text><text fill="#000000" font-family="sans-serif" font-size="13" lengthAdjust="spacing" textLength="125" x="133" y="464.7451">nome "course-status"</text><text fill="#000000" font-family="sans-serif" font-size="13" lengthAdjust="spacing" textLength="139" x="133" y="482.0361">na documena&#231;&#227;o da US</text><text fill="#000000" font-family="sans-serif" font-size="13" lengthAdjust="spacing" textLength="31" x="133" y="499.3271">G002</text></g><!--class ExamTitle--><g id="elem_ExamTitle"><rect codeLine="25" fill="#F1F1F1" height="52.582" id="ExamTitle" rx="2.5" ry="2.5" style="stroke:#181818;stroke-width:0.5;" width="109" x="576.5" y="432.6348"/><ellipse cx="591.5" cy="454.9258" fill="#FF8B40" rx="11" ry="11" style="stroke:#181818;stroke-width:1.0;"/><path d="M592.0938,458.1914 L594.5625,452.3164 L594.1719,452.3164 Q593.5625,452.3164 593.2969,452.082 Q593.0313,451.8477 593.0313,451.457 Q593.0313,451.082 593.2969,450.8477 Q593.5625,450.6133 594.1719,450.6133 L596.4531,450.6133 Q597.0625,450.6133 597.3281,450.8477 Q597.5938,451.082 597.5938,451.457 Q597.5938,451.9258 597.1875,452.1914 Q597,452.3164 596.4063,452.3164 L592.9219,460.6758 L591.2813,460.6758 L587.7969,452.3164 Q587.2031,452.3164 587.0156,452.1914 Q586.6094,451.9258 586.6094,451.457 Q586.6094,451.082 586.875,450.8477 Q587.1406,450.6133 587.75,450.6133 L590.0469,450.6133 Q590.6563,450.6133 590.9063,450.8477 Q591.1719,451.082 591.1719,451.457 Q591.1719,451.8477 590.9063,452.082 Q590.6563,452.3164 590.0469,452.3164 L589.6406,452.3164 L592.0938,458.1914 Z " fill="#000000"/><text fill="#000000" font-family="sans-serif" font-size="12" font-style="italic" lengthAdjust="spacing" textLength="81" x="603.5" y="450.584">&#171;value object&#187;</text><text fill="#000000" font-family="sans-serif" font-size="14" lengthAdjust="spacing" textLength="61" x="613.5" y="468.7031">ExamTitle</text><line style="stroke:#181818;stroke-width:0.5;" x1="577.5" x2="684.5" y1="477.2168" y2="477.2168"/></g><!--class ExamDateTime--><g id="elem_ExamDateTime"><rect codeLine="26" fill="#F1F1F1" height="89.8242" id="ExamDateTime" rx="2.5" ry="2.5" style="stroke:#181818;stroke-width:0.5;" width="127" x="720.5" y="414.1348"/><ellipse cx="735.5" cy="436.4258" fill="#FF8B40" rx="11" ry="11" style="stroke:#181818;stroke-width:1.0;"/><path d="M736.0938,439.6914 L738.5625,433.8164 L738.1719,433.8164 Q737.5625,433.8164 737.2969,433.582 Q737.0313,433.3477 737.0313,432.957 Q737.0313,432.582 737.2969,432.3477 Q737.5625,432.1133 738.1719,432.1133 L740.4531,432.1133 Q741.0625,432.1133 741.3281,432.3477 Q741.5938,432.582 741.5938,432.957 Q741.5938,433.4258 741.1875,433.6914 Q741,433.8164 740.4063,433.8164 L736.9219,442.1758 L735.2813,442.1758 L731.7969,433.8164 Q731.2031,433.8164 731.0156,433.6914 Q730.6094,433.4258 730.6094,432.957 Q730.6094,432.582 730.875,432.3477 Q731.1406,432.1133 731.75,432.1133 L734.0469,432.1133 Q734.6563,432.1133 734.9063,432.3477 Q735.1719,432.582 735.1719,432.957 Q735.1719,433.3477 734.9063,433.582 Q734.6563,433.8164 734.0469,433.8164 L733.6406,433.8164 L736.0938,439.6914 Z " fill="#000000"/><text fill="#000000" font-family="sans-serif" font-size="12" font-style="italic" lengthAdjust="spacing" textLength="81" x="756.5" y="432.084">&#171;value object&#187;</text><text fill="#000000" font-family="sans-serif" font-size="14" lengthAdjust="spacing" textLength="95" x="749.5" y="450.2031">ExamDateTime</text><line style="stroke:#181818;stroke-width:0.5;" x1="721.5" x2="846.5" y1="458.7168" y2="458.7168"/><text fill="#000000" font-family="sans-serif" font-size="14" lengthAdjust="spacing" textLength="112" x="726.5" y="477.8242">openingDateTime</text><text fill="#000000" font-family="sans-serif" font-size="14" lengthAdjust="spacing" textLength="105" x="726.5" y="496.4453">closingDateTime</text></g><!--class Header--><g id="elem_Header"><rect codeLine="32" fill="#F1F1F1" height="52.582" id="Header" rx="2.5" ry="2.5" style="stroke:#181818;stroke-width:0.5;" width="78" x="1171" y="432.6348"/><ellipse cx="1186" cy="454.9258" fill="#ADD1B2" rx="11" ry="11" style="stroke:#181818;stroke-width:1.0;"/><path d="M1184.8594,455.7227 L1184.8594,458.2227 L1189.1875,458.2227 L1189.1875,457.3008 Q1189.1875,456.6914 1189.4219,456.4258 Q1189.6719,456.1602 1190.0469,456.1602 Q1190.4219,456.1602 1190.6563,456.4258 Q1190.8906,456.6914 1190.8906,457.3008 L1190.8906,459.9258 L1182.8906,459.9258 Q1182.2656,459.9258 1182,459.6914 Q1181.75,459.457 1181.75,459.0664 Q1181.75,458.6914 1182.0156,458.457 Q1182.2813,458.2227 1182.8906,458.2227 L1183.1563,458.2227 L1183.1563,451.5664 L1182.8906,451.5664 Q1182.2656,451.5664 1182,451.332 Q1181.75,451.0977 1181.75,450.707 Q1181.75,450.332 1182,450.0977 Q1182.2656,449.8633 1182.8906,449.8633 L1190.5156,449.8633 L1190.5156,452.457 Q1190.5156,453.0664 1190.2813,453.332 Q1190.0625,453.582 1189.6719,453.582 Q1189.2969,453.582 1189.0625,453.332 Q1188.8281,453.0664 1188.8281,452.457 L1188.8281,451.5664 L1184.8594,451.5664 L1184.8594,454.0195 L1186.3438,454.0195 Q1186.3438,453.3633 1186.4688,453.1758 Q1186.7344,452.7695 1187.2031,452.7695 Q1187.5781,452.7695 1187.8125,453.0352 Q1188.0469,453.2852 1188.0469,453.8945 L1188.0469,455.8633 Q1188.0469,456.4102 1187.9219,456.5977 Q1187.6563,456.9883 1187.2031,456.9883 Q1186.7344,456.9883 1186.4688,456.582 Q1186.3438,456.3945 1186.3438,455.7227 L1184.8594,455.7227 Z " fill="#000000"/><text fill="#000000" font-family="sans-serif" font-size="12" font-style="italic" lengthAdjust="spacing" textLength="50" x="1198" y="450.584">&#171;entity&gt;&#187;</text><text fill="#000000" font-family="sans-serif" font-size="14" lengthAdjust="spacing" textLength="46" x="1200" y="468.7031">Header</text><line style="stroke:#181818;stroke-width:0.5;" x1="1172" x2="1248" y1="477.2168" y2="477.2168"/></g><!--class HeaderTypeNote--><g id="elem_HeaderTypeNote"><rect codeLine="33" fill="#F1F1F1" height="52.582" id="HeaderTypeNote" rx="2.5" ry="2.5" style="stroke:#181818;stroke-width:0.5;" width="139" x="1045.5" y="570.1348"/><ellipse cx="1060.5" cy="592.4258" fill="#FF8B40" rx="11" ry="11" style="stroke:#181818;stroke-width:1.0;"/><path d="M1061.0938,595.6914 L1063.5625,589.8164 L1063.1719,589.8164 Q1062.5625,589.8164 1062.2969,589.582 Q1062.0313,589.3477 1062.0313,588.957 Q1062.0313,588.582 1062.2969,588.3477 Q1062.5625,588.1133 1063.1719,588.1133 L1065.4531,588.1133 Q1066.0625,588.1133 1066.3281,588.3477 Q1066.5938,588.582 1066.5938,588.957 Q1066.5938,589.4258 1066.1875,589.6914 Q1066,589.8164 1065.4063,589.8164 L1061.9219,598.1758 L1060.2813,598.1758 L1056.7969,589.8164 Q1056.2031,589.8164 1056.0156,589.6914 Q1055.6094,589.4258 1055.6094,588.957 Q1055.6094,588.582 1055.875,588.3477 Q1056.1406,588.1133 1056.75,588.1133 L1059.0469,588.1133 Q1059.6563,588.1133 1059.9063,588.3477 Q1060.1719,588.582 1060.1719,588.957 Q1060.1719,589.3477 1059.9063,589.582 Q1059.6563,589.8164 1059.0469,589.8164 L1058.6406,589.8164 L1061.0938,595.6914 Z " fill="#000000"/><text fill="#000000" font-family="sans-serif" font-size="12" font-style="italic" lengthAdjust="spacing" textLength="81" x="1087.5" y="588.084">&#171;value object&#187;</text><text fill="#000000" font-family="sans-serif" font-size="14" lengthAdjust="spacing" textLength="107" x="1074.5" y="606.2031">HeaderTypeNote</text><line style="stroke:#181818;stroke-width:0.5;" x1="1046.5" x2="1183.5" y1="614.7168" y2="614.7168"/></g><!--class HeaderTypeFeedback--><g id="elem_HeaderTypeFeedback"><rect codeLine="34" fill="#F1F1F1" height="52.582" id="HeaderTypeFeedback" rx="2.5" ry="2.5" style="stroke:#181818;stroke-width:0.5;" width="173" x="1219.5" y="570.1348"/><ellipse cx="1234.5" cy="592.4258" fill="#FF8B40" rx="11" ry="11" style="stroke:#181818;stroke-width:1.0;"/><path d="M1235.0938,595.6914 L1237.5625,589.8164 L1237.1719,589.8164 Q1236.5625,589.8164 1236.2969,589.582 Q1236.0313,589.3477 1236.0313,588.957 Q1236.0313,588.582 1236.2969,588.3477 Q1236.5625,588.1133 1237.1719,588.1133 L1239.4531,588.1133 Q1240.0625,588.1133 1240.3281,588.3477 Q1240.5938,588.582 1240.5938,588.957 Q1240.5938,589.4258 1240.1875,589.6914 Q1240,589.8164 1239.4063,589.8164 L1235.9219,598.1758 L1234.2813,598.1758 L1230.7969,589.8164 Q1230.2031,589.8164 1230.0156,589.6914 Q1229.6094,589.4258 1229.6094,588.957 Q1229.6094,588.582 1229.875,588.3477 Q1230.1406,588.1133 1230.75,588.1133 L1233.0469,588.1133 Q1233.6563,588.1133 1233.9063,588.3477 Q1234.1719,588.582 1234.1719,588.957 Q1234.1719,589.3477 1233.9063,589.582 Q1233.6563,589.8164 1233.0469,589.8164 L1232.6406,589.8164 L1235.0938,595.6914 Z " fill="#000000"/><text fill="#000000" font-family="sans-serif" font-size="12" font-style="italic" lengthAdjust="spacing" textLength="81" x="1278.5" y="588.084">&#171;value object&#187;</text><text fill="#000000" font-family="sans-serif" font-size="14" lengthAdjust="spacing" textLength="141" x="1248.5" y="606.2031">HeaderTypeFeedback</text><line style="stroke:#181818;stroke-width:0.5;" x1="1220.5" x2="1391.5" y1="614.7168" y2="614.7168"/></g><!--class HeaderDescription--><g id="elem_HeaderDescription"><rect codeLine="35" fill="#F1F1F1" height="52.582" id="HeaderDescription" rx="2.5" ry="2.5" style="stroke:#181818;stroke-width:0.5;" width="149" x="1427.5" y="570.1348"/><ellipse cx="1442.5" cy="592.4258" fill="#FF8B40" rx="11" ry="11" style="stroke:#181818;stroke-width:1.0;"/><path d="M1443.0938,595.6914 L1445.5625,589.8164 L1445.1719,589.8164 Q1444.5625,589.8164 1444.2969,589.582 Q1444.0313,589.3477 1444.0313,588.957 Q1444.0313,588.582 1444.2969,588.3477 Q1444.5625,588.1133 1445.1719,588.1133 L1447.4531,588.1133 Q1448.0625,588.1133 1448.3281,588.3477 Q1448.5938,588.582 1448.5938,588.957 Q1448.5938,589.4258 1448.1875,589.6914 Q1448,589.8164 1447.4063,589.8164 L1443.9219,598.1758 L1442.2813,598.1758 L1438.7969,589.8164 Q1438.2031,589.8164 1438.0156,589.6914 Q1437.6094,589.4258 1437.6094,588.957 Q1437.6094,588.582 1437.875,588.3477 Q1438.1406,588.1133 1438.75,588.1133 L1441.0469,588.1133 Q1441.6563,588.1133 1441.9063,588.3477 Q1442.1719,588.582 1442.1719,588.957 Q1442.1719,589.3477 1441.9063,589.582 Q1441.6563,589.8164 1441.0469,589.8164 L1440.6406,589.8164 L1443.0938,595.6914 Z " fill="#000000"/><text fill="#000000" font-family="sans-serif" font-size="12" font-style="italic" lengthAdjust="spacing" textLength="81" x="1474.5" y="588.084">&#171;value object&#187;</text><text fill="#000000" font-family="sans-serif" font-size="14" lengthAdjust="spacing" textLength="117" x="1456.5" y="606.2031">HeaderDescription</text><line style="stroke:#181818;stroke-width:0.5;" x1="1428.5" x2="1575.5" y1="614.7168" y2="614.7168"/></g><!--class SectionDescription--><g id="elem_SectionDescription"><rect codeLine="38" fill="#F1F1F1" height="52.582" id="SectionDescription" rx="2.5" ry="2.5" style="stroke:#181818;stroke-width:0.5;" width="150" x="367" y="570.1348"/><ellipse cx="382" cy="592.4258" fill="#FF8B40" rx="11" ry="11" style="stroke:#181818;stroke-width:1.0;"/><path d="M382.5938,595.6914 L385.0625,589.8164 L384.6719,589.8164 Q384.0625,589.8164 383.7969,589.582 Q383.5313,589.3477 383.5313,588.957 Q383.5313,588.582 383.7969,588.3477 Q384.0625,588.1133 384.6719,588.1133 L386.9531,588.1133 Q387.5625,588.1133 387.8281,588.3477 Q388.0938,588.582 388.0938,588.957 Q388.0938,589.4258 387.6875,589.6914 Q387.5,589.8164 386.9063,589.8164 L383.4219,598.1758 L381.7813,598.1758 L378.2969,589.8164 Q377.7031,589.8164 377.5156,589.6914 Q377.1094,589.4258 377.1094,588.957 Q377.1094,588.582 377.375,588.3477 Q377.6406,588.1133 378.25,588.1133 L380.5469,588.1133 Q381.1563,588.1133 381.4063,588.3477 Q381.6719,588.582 381.6719,588.957 Q381.6719,589.3477 381.4063,589.582 Q381.1563,589.8164 380.5469,589.8164 L380.1406,589.8164 L382.5938,595.6914 Z " fill="#000000"/><text fill="#000000" font-family="sans-serif" font-size="12" font-style="italic" lengthAdjust="spacing" textLength="81" x="414.5" y="588.084">&#171;value object&#187;</text><text fill="#000000" font-family="sans-serif" font-size="14" lengthAdjust="spacing" textLength="118" x="396" y="606.2031">SectionDescription</text><line style="stroke:#181818;stroke-width:0.5;" x1="368" x2="516" y1="614.7168" y2="614.7168"/></g><!--link Teacher to Acronym--><g id="link_Teacher_Acronym"><path codeLine="55" d="M931.25,493.9748 C932.05,515.6548 933.08,543.5748 933.86,564.6648 " fill="none" id="Teacher-to-Acronym" style="stroke:#181818;stroke-width:1.0;"/><polygon fill="#181818" points="934.05,569.8748,937.7122,560.7321,933.8639,564.8782,929.7178,561.0299,934.05,569.8748" style="stroke:#181818;stroke-width:1.0;"/></g><!--link FormativeExam to ExamTitle--><g id="link_FormativeExam_ExamTitle"><path codeLine="57" d="M506.99,322.9248 C535.32,353.8148 576.79,399.0348 603.84,428.5248 " fill="none" id="FormativeExam-to-ExamTitle" style="stroke:#181818;stroke-width:1.0;"/><polygon fill="#181818" points="607.4,432.4048,604.2769,423.0642,604.0253,428.7154,598.374,428.4638,607.4,432.4048" style="stroke:#181818;stroke-width:1.0;"/></g><!--link FormativeExam to ExamDateTime--><g id="link_FormativeExam_ExamDateTime"><path codeLine="58" d="M540.87,307.5148 C588.12,322.6348 652.43,346.8948 703,379.6348 C716.29,388.2448 729.27,399.2448 740.8,410.2648 " fill="none" id="FormativeExam-to-ExamDateTime" style="stroke:#181818;stroke-width:1.0;"/><polygon fill="#181818" points="744.66,414.0048,740.9761,404.8708,741.0677,410.5269,735.4116,410.6185,744.66,414.0048" style="stroke:#181818;stroke-width:1.0;"/></g><!--link FormativeExam to Header--><g id="link_FormativeExam_Header"><path codeLine="59" d="M540.63,293.8048 C629.75,301.2248 794.91,318.4848 932,352.6348 C965.97,361.0948 973.22,367.3448 1006,379.6348 C1061.43,400.4148 1125.05,425.0148 1166.3,441.0648 " fill="none" id="FormativeExam-to-Header" style="stroke:#181818;stroke-width:1.0;"/><polygon fill="#181818" points="1170.97,442.8848,1164.0359,435.8906,1166.3111,441.0698,1161.1319,443.3449,1170.97,442.8848" style="stroke:#181818;stroke-width:1.0;"/></g><!--link Header to HeaderTypeNote--><g id="link_Header_HeaderTypeNote"><path codeLine="61" d="M1191.91,485.9448 C1175.99,508.6348 1152.82,541.6948 1136.07,565.5748 " fill="none" id="Header-to-HeaderTypeNote" style="stroke:#181818;stroke-width:1.0;"/><polygon fill="#181818" points="1133.03,569.9248,1141.4693,564.8475,1135.8983,565.8293,1134.9165,560.2583,1133.03,569.9248" style="stroke:#181818;stroke-width:1.0;"/></g><!--link Header to HeaderTypeFeedback--><g id="link_Header_HeaderTypeFeedback"><path codeLine="62" d="M1228.28,485.9448 C1244.36,508.6348 1267.78,541.6948 1284.7,565.5748 " fill="none" id="Header-to-HeaderTypeFeedback" style="stroke:#181818;stroke-width:1.0;"/><polygon fill="#181818" points="1287.79,569.9248,1285.8491,560.269,1284.8987,565.8455,1279.3223,564.8951,1287.79,569.9248" style="stroke:#181818;stroke-width:1.0;"/></g><!--link Header to HeaderDescription--><g id="link_Header_HeaderDescription"><path codeLine="63" d="M1249.08,478.2648 C1298.58,501.2448 1384.39,541.0548 1442.16,567.8648 " fill="none" id="Header-to-HeaderDescription" style="stroke:#181818;stroke-width:1.0;"/><polygon fill="#181818" points="1446.97,570.0948,1440.479,562.6875,1442.4315,567.9968,1437.1222,569.9492,1446.97,570.0948" style="stroke:#181818;stroke-width:1.0;"/></g><!--link FormativeExamSection to SectionDescription--><g id="link_FormativeExamSection_SectionDescription"><path codeLine="65" d="M442,494.6748 C442,516.2148 442,543.7048 442,564.5648 " fill="none" id="FormativeExamSection-to-SectionDescription" style="stroke:#181818;stroke-width:1.0;"/><polygon fill="#181818" points="442,569.7148,446,560.7148,442,564.7148,438,560.7148,442,569.7148" style="stroke:#181818;stroke-width:1.0;"/></g><!--link Course to CourseCode--><g id="link_Course_CourseCode"><path codeLine="67" d="M198.01,151.9248 C170.6,182.8148 130.46,228.0348 104.28,257.5248 " fill="none" id="Course-to-CourseCode" style="stroke:#181818;stroke-width:1.0;"/><polygon fill="#181818" points="100.84,261.4048,109.8099,257.3377,104.1627,257.6685,103.8319,252.0213,100.84,261.4048" style="stroke:#181818;stroke-width:1.0;"/></g><!--link Course to CourseStatus--><g id="link_Course_CourseStatus"><path codeLine="68" d="M228,151.9248 C228,182.3048 228,226.5548 228,256.0648 " fill="none" id="Course-to-CourseStatus" style="stroke:#181818;stroke-width:1.0;"/><polygon fill="#181818" points="228,261.4048,232,252.4048,228,256.4048,224,252.4048,228,261.4048" style="stroke:#181818;stroke-width:1.0;"/></g><!--link FormativeExam to Teacher--><g id="link_FormativeExam_Teacher"><path codeLine="71" d="M540.69,291.6548 C622.02,297.5048 763.27,316.7248 865,379.6348 C881.37,389.7548 895.56,405.4548 906.47,420.1548 " fill="none" id="FormativeExam-to-Teacher" style="stroke:#181818;stroke-width:1.0;"/><polygon fill="#181818" points="909.46,424.2648,907.3974,414.6343,906.5174,420.2223,900.9294,419.3424,909.46,424.2648" style="stroke:#181818;stroke-width:1.0;"/><polygon fill="#000000" points="855.7174,363.9375,848.1577,358.1667,846.2095,363.7123,855.7174,363.9375" style="stroke:#000000;stroke-width:1.0;"/><text fill="#000000" font-family="sans-serif" font-size="13" lengthAdjust="spacing" textLength="63" x="860" y="367.6631">Created by</text><text fill="#000000" font-family="sans-serif" font-size="13" lengthAdjust="spacing" textLength="20" x="548.3924" y="288.2081">0..*</text><text fill="#000000" font-family="sans-serif" font-size="13" lengthAdjust="spacing" textLength="7" x="898.0276" y="413.3657">1</text></g><!--link Course to FormativeExam--><g id="link_Course_FormativeExam"><path codeLine="72" d="M267.02,144.7248 C308.86,173.2448 375.58,218.7048 422.34,250.5748 " fill="none" id="Course-to-FormativeExam" style="stroke:#181818;stroke-width:1.0;"/><polygon fill="#181818" points="426.52,253.4148,421.3364,245.0404,422.3886,250.5985,416.8304,251.6507,426.52,253.4148" style="stroke:#181818;stroke-width:1.0;"/><polygon fill="#000000" points="353.1318,194.096,347.3124,186.5737,344.0023,191.4308,353.1318,194.096" style="stroke:#000000;stroke-width:1.0;"/><text fill="#000000" font-family="sans-serif" font-size="13" lengthAdjust="spacing" textLength="21" x="358" y="196.6631">has</text><text fill="#000000" font-family="sans-serif" font-size="13" lengthAdjust="spacing" textLength="7" x="275.1254" y="145.4634">1</text><text fill="#000000" font-family="sans-serif" font-size="13" lengthAdjust="spacing" textLength="20" x="395.1816" y="242.2756">0..*</text></g><!--link FormativeExam to FormativeExamSection--><g id="link_FormativeExam_FormativeExamSection"><path codeLine="73" d="M469.2,322.9248 C463.65,350.5148 455.8,389.5548 449.95,418.5948 " fill="none" id="FormativeExam-to-FormativeExamSection" style="stroke:#181818;stroke-width:1.0;"/><polygon fill="#181818" points="448.96,423.5248,454.6564,415.4904,449.9461,418.623,446.8135,413.9127,448.96,423.5248" style="stroke:#181818;stroke-width:1.0;"/><polygon fill="#000000" points="467.0137,367.182,471.6791,358.8944,465.9167,357.7349,467.0137,367.182" style="stroke:#000000;stroke-width:1.0;"/><text fill="#000000" font-family="sans-serif" font-size="13" lengthAdjust="spacing" textLength="21" x="477" y="367.6631">has</text><text fill="#000000" font-family="sans-serif" font-size="13" lengthAdjust="spacing" textLength="7" x="460.4941" y="344.1849">1</text><text fill="#000000" font-family="sans-serif" font-size="13" lengthAdjust="spacing" textLength="20" x="428.3995" y="412.4284">1..*</text></g><!--SRC=[bLHDRzim3BthLn3UeUsm56wnGr440RfasNRfW2RhNR68H6iikfRSBHlsQtReQRyYVsoq9Jc9s_J3D-lnaO_K4nqLu0Xcv1pbe7I9cTDaX73QBH56b4jjOBYKrgA5mz7m27hmRGAdQNecn48hX1pTWfGLzaQRGfOoXwmElt2krBFAuPUCp4J_GaY5E9YYp1POYa9cDtAEaFJxSZulSIuT3WOGu0H-2-0F3SjOnLFez_q11_Rx9P4R39gmfXvSP2MPLSxGuVKxU3CUdtrudnx1dLnM23Jxpfrn_1yMCQOobqxVuSUVCjydPIUe8sW7UqnM2ETY-rWJF-XjikVKtss5jaOlZBh2suflHLrM-OpdvhDoNjzpdMdQtDJJNM-YHzpTLEVF488MAj1eCu-SC6oossVrG3-ZL2mkzEd_jZgBzJqmNHLuIUvbaZUKCQAQyLMzWZP2cvMw27D-YYKEmdq4VlXxJO8XLQN5VMxoQCT6_l0PM_kW8Qdd1jQbJ9nqbNq1oTINuJT0wy2HbdD-oXAuB7jHAh8jfhGjoAp_tU4ICjuQr2A6s5X9rfJlsQP-iW4v6MLLZaQkxzT_2PJaJTB2dzBqD0n7DP8QPrqtShysSgs8Yw2dw8Vf3UAJ5sBtGKQuVHrFuAsFEo4C1rUBuEV8sdNnVZGQzl68BMjrvCVDK4juw4CXWcjYkeq_7aUy3NYKLxYKTGRRQJL9Zu_V9asvv2Hfb-qv34lauIYOhM0GSzSHJQGdxMOwXuMq7Dl97oad3ocnryZy3m00]--></g></svg>