<?xml version="1.0" encoding="us-ascii" standalone="no"?><svg xmlns="http://www.w3.org/2000/svg" xmlns:xlink="http://www.w3.org/1999/xlink" contentStyleType="text/css" height="950px" preserveAspectRatio="none" style="width:2678px;height:950px;background:#FFFFFF;" version="1.1" viewBox="0 0 2678 950" width="2678px" zoomAndPan="magnify"><defs/><g><text fill="#000000" font-family="sans-serif" font-size="14" font-weight="bold" lengthAdjust="spacing" textLength="296" x="1192.75" y="30.1074">System Sequence Diagram (SSD) - US 2008</text><rect fill="#FFFFFF" height="695.4023" style="stroke:#181818;stroke-width:1.0;" width="10" x="33.5" y="137.8633"/><rect fill="#FFFFFF" height="672.1113" style="stroke:#181818;stroke-width:1.0;" width="10" x="588.5" y="161.1543"/><rect fill="#FFFFFF" height="31.291" style="stroke:#181818;stroke-width:1.0;" width="10" x="1247.5" y="255.0273"/><rect fill="#FFFFFF" height="135.1641" style="stroke:#181818;stroke-width:1.0;" width="10" x="1247.5" y="487.0645"/><rect fill="#FFFFFF" height="93.873" style="stroke:#181818;stroke-width:1.0;" width="10" x="1247.5" y="708.1016"/><rect fill="#FFFFFF" height="72.582" style="stroke:#181818;stroke-width:1.0;" width="10" x="2166" y="549.6465"/><rect fill="none" height="50.582" style="stroke:#000000;stroke-width:1.5;" width="475.5" x="2082" y="564.6465"/><line style="stroke:#181818;stroke-width:0.5;stroke-dasharray:5.0,5.0;" x1="38" x2="38" y1="127.8633" y2="851.2656"/><line style="stroke:#181818;stroke-width:0.5;stroke-dasharray:5.0,5.0;" x1="593" x2="593" y1="127.8633" y2="851.2656"/><line style="stroke:#181818;stroke-width:0.5;stroke-dasharray:5.0,5.0;" x1="1252" x2="1252" y1="127.8633" y2="851.2656"/><line style="stroke:#181818;stroke-width:0.5;stroke-dasharray:5.0,5.0;" x1="1473" x2="1473" y1="127.8633" y2="851.2656"/><line style="stroke:#181818;stroke-width:0.5;stroke-dasharray:5.0,5.0;" x1="1620" x2="1620" y1="127.8633" y2="851.2656"/><line style="stroke:#181818;stroke-width:0.5;stroke-dasharray:5.0,5.0;" x1="1767" x2="1767" y1="127.8633" y2="851.2656"/><line style="stroke:#181818;stroke-width:0.5;stroke-dasharray:5.0,5.0;" x1="1966" x2="1966" y1="127.8633" y2="851.2656"/><line style="stroke:#181818;stroke-width:0.5;stroke-dasharray:5.0,5.0;" x1="2171" x2="2171" y1="127.8633" y2="851.2656"/><line style="stroke:#181818;stroke-width:0.5;stroke-dasharray:5.0,5.0;" x1="2481.5" x2="2481.5" y1="127.8633" y2="851.2656"/><line style="stroke:#181818;stroke-width:0.5;stroke-dasharray:5.0,5.0;" x1="2617.5" x2="2617.5" y1="127.8633" y2="851.2656"/><text fill="#000000" font-family="sans-serif" font-size="14" lengthAdjust="spacing" textLength="61" x="5" y="124.3496">Professor</text><ellipse cx="38.5" cy="57.7422" fill="#E3E3E3" rx="8" ry="8" style="stroke:#181818;stroke-width:0.5;"/><path d="M38.5,65.7422 L38.5,92.7422 M25.5,73.7422 L51.5,73.7422 M38.5,92.7422 L25.5,107.7422 M38.5,92.7422 L51.5,107.7422 " fill="none" style="stroke:#181818;stroke-width:0.5;"/><text fill="#000000" font-family="sans-serif" font-size="14" lengthAdjust="spacing" textLength="61" x="5" y="865.373">Professor</text><ellipse cx="38.5" cy="877.3867" fill="#E3E3E3" rx="8" ry="8" style="stroke:#181818;stroke-width:0.5;"/><path d="M38.5,885.3867 L38.5,912.3867 M25.5,893.3867 L51.5,893.3867 M38.5,912.3867 L25.5,927.3867 M38.5,912.3867 L51.5,927.3867 " fill="none" style="stroke:#181818;stroke-width:0.5;"/><rect fill="#E3E3E3" height="51.2422" rx="2.5" ry="2.5" style="stroke:#181818;stroke-width:0.5;" width="235" x="476" y="75.6211"/><text fill="#000000" font-family="sans-serif" font-size="14" font-style="italic" lengthAdjust="spacing" textLength="95" x="546" y="97.7285">&#171;presentation&#187;</text><text fill="#000000" font-family="sans-serif" font-size="14" lengthAdjust="spacing" textLength="221" x="483" y="116.3496">CreateAutomaticFormativeExamsUI</text><rect fill="#E3E3E3" height="51.2422" rx="2.5" ry="2.5" style="stroke:#181818;stroke-width:0.5;" width="235" x="476" y="850.2656"/><text fill="#000000" font-family="sans-serif" font-size="14" font-style="italic" lengthAdjust="spacing" textLength="95" x="546" y="872.373">&#171;presentation&#187;</text><text fill="#000000" font-family="sans-serif" font-size="14" lengthAdjust="spacing" textLength="221" x="483" y="890.9941">CreateAutomaticFormativeExamsUI</text><text fill="#000000" font-family="sans-serif" font-size="14" font-style="italic" lengthAdjust="spacing" textLength="84" x="1207.5" y="105.7285">&#171;application&#187;</text><text fill="#000000" font-family="sans-serif" font-size="14" lengthAdjust="spacing" textLength="271" x="1114" y="124.3496">CreateAutomaticFormativeExamsController</text><ellipse cx="1252.5" cy="74.6211" fill="#E3E3E3" rx="12" ry="12" style="stroke:#181818;stroke-width:0.5;"/><polygon fill="#181818" points="1248.5,62.6211,1254.5,57.6211,1252.5,62.6211,1254.5,67.6211,1248.5,62.6211" style="stroke:#181818;stroke-width:1.0;"/><text fill="#000000" font-family="sans-serif" font-size="14" font-style="italic" lengthAdjust="spacing" textLength="84" x="1207.5" y="865.373">&#171;application&#187;</text><text fill="#000000" font-family="sans-serif" font-size="14" lengthAdjust="spacing" textLength="271" x="1114" y="883.9941">CreateAutomaticFormativeExamsController</text><ellipse cx="1252.5" cy="903.5078" fill="#E3E3E3" rx="12" ry="12" style="stroke:#181818;stroke-width:0.5;"/><polygon fill="#181818" points="1248.5,891.5078,1254.5,886.5078,1252.5,891.5078,1254.5,896.5078,1248.5,891.5078" style="stroke:#181818;stroke-width:1.0;"/><rect fill="#E3E3E3" height="51.2422" rx="2.5" ry="2.5" style="stroke:#181818;stroke-width:0.5;" width="144" x="1401" y="75.6211"/><text fill="#000000" font-family="sans-serif" font-size="14" font-style="italic" lengthAdjust="spacing" textLength="62" x="1442" y="97.7285">&#171;domain&#187;</text><text fill="#000000" font-family="sans-serif" font-size="14" lengthAdjust="spacing" textLength="130" x="1408" y="116.3496">theTeacher:Teacher</text><rect fill="#E3E3E3" height="51.2422" rx="2.5" ry="2.5" style="stroke:#181818;stroke-width:0.5;" width="144" x="1401" y="850.2656"/><text fill="#000000" font-family="sans-serif" font-size="14" font-style="italic" lengthAdjust="spacing" textLength="62" x="1442" y="872.373">&#171;domain&#187;</text><text fill="#000000" font-family="sans-serif" font-size="14" lengthAdjust="spacing" textLength="130" x="1408" y="890.9941">theTeacher:Teacher</text><rect fill="#E3E3E3" height="51.2422" rx="2.5" ry="2.5" style="stroke:#181818;stroke-width:0.5;" width="130" x="1555" y="75.6211"/><text fill="#000000" font-family="sans-serif" font-size="14" font-style="italic" lengthAdjust="spacing" textLength="62" x="1589" y="97.7285">&#171;domain&#187;</text><text fill="#000000" font-family="sans-serif" font-size="14" lengthAdjust="spacing" textLength="116" x="1562" y="116.3496">theCourse:Course</text><rect fill="#E3E3E3" height="51.2422" rx="2.5" ry="2.5" style="stroke:#181818;stroke-width:0.5;" width="130" x="1555" y="850.2656"/><text fill="#000000" font-family="sans-serif" font-size="14" font-style="italic" lengthAdjust="spacing" textLength="62" x="1589" y="872.373">&#171;domain&#187;</text><text fill="#000000" font-family="sans-serif" font-size="14" lengthAdjust="spacing" textLength="116" x="1562" y="890.9941">theCourse:Course</text><rect fill="#E3E3E3" height="51.2422" rx="2.5" ry="2.5" style="stroke:#181818;stroke-width:0.5;" width="145" x="1695" y="75.6211"/><text fill="#000000" font-family="sans-serif" font-size="14" font-style="italic" lengthAdjust="spacing" textLength="48" x="1743.5" y="97.7285">&#171;lprog&#187;</text><text fill="#000000" font-family="sans-serif" font-size="14" lengthAdjust="spacing" textLength="131" x="1702" y="116.3496">:FormativeExamMain</text><rect fill="#E3E3E3" height="51.2422" rx="2.5" ry="2.5" style="stroke:#181818;stroke-width:0.5;" width="145" x="1695" y="850.2656"/><text fill="#000000" font-family="sans-serif" font-size="14" font-style="italic" lengthAdjust="spacing" textLength="48" x="1743.5" y="872.373">&#171;lprog&#187;</text><text fill="#000000" font-family="sans-serif" font-size="14" lengthAdjust="spacing" textLength="131" x="1702" y="890.9941">:FormativeExamMain</text><rect fill="#E3E3E3" height="51.2422" rx="2.5" ry="2.5" style="stroke:#181818;stroke-width:0.5;" width="232" x="1850" y="75.6211"/><text fill="#000000" font-family="sans-serif" font-size="14" font-style="italic" lengthAdjust="spacing" textLength="62" x="1935" y="97.7285">&#171;domain&#187;</text><text fill="#000000" font-family="sans-serif" font-size="14" lengthAdjust="spacing" textLength="218" x="1857" y="116.3496">theFormativeExam:FormativeExam</text><rect fill="#E3E3E3" height="51.2422" rx="2.5" ry="2.5" style="stroke:#181818;stroke-width:0.5;" width="232" x="1850" y="850.2656"/><text fill="#000000" font-family="sans-serif" font-size="14" font-style="italic" lengthAdjust="spacing" textLength="62" x="1935" y="872.373">&#171;domain&#187;</text><text fill="#000000" font-family="sans-serif" font-size="14" lengthAdjust="spacing" textLength="218" x="1857" y="890.9941">theFormativeExam:FormativeExam</text><rect fill="#E3E3E3" height="51.2422" rx="2.5" ry="2.5" style="stroke:#181818;stroke-width:0.5;" width="158" x="2092" y="75.6211"/><text fill="#000000" font-family="sans-serif" font-size="14" font-style="italic" lengthAdjust="spacing" textLength="84" x="2129" y="97.7285">&#171;application&#187;</text><text fill="#000000" font-family="sans-serif" font-size="14" lengthAdjust="spacing" textLength="144" x="2099" y="116.3496">FormativeExamService</text><rect fill="#E3E3E3" height="51.2422" rx="2.5" ry="2.5" style="stroke:#181818;stroke-width:0.5;" width="158" x="2092" y="850.2656"/><text fill="#000000" font-family="sans-serif" font-size="14" font-style="italic" lengthAdjust="spacing" textLength="84" x="2129" y="872.373">&#171;application&#187;</text><text fill="#000000" font-family="sans-serif" font-size="14" lengthAdjust="spacing" textLength="144" x="2099" y="890.9941">FormativeExamService</text><text fill="#000000" font-family="sans-serif" font-size="14" font-style="italic" lengthAdjust="spacing" textLength="79" x="2439.5" y="105.7285">&#171;repository&#187;</text><text fill="#000000" font-family="sans-serif" font-size="14" lengthAdjust="spacing" textLength="125" x="2416.5" y="124.3496">QuestionRepository</text><path d="M2464,54.6211 C2464,44.6211 2482,44.6211 2482,44.6211 C2482,44.6211 2500,44.6211 2500,54.6211 L2500,80.6211 C2500,90.6211 2482,90.6211 2482,90.6211 C2482,90.6211 2464,90.6211 2464,80.6211 L2464,54.6211 " fill="#E3E3E3" style="stroke:#181818;stroke-width:1.5;"/><path d="M2464,54.6211 C2464,64.6211 2482,64.6211 2482,64.6211 C2482,64.6211 2500,64.6211 2500,54.6211 " fill="none" style="stroke:#181818;stroke-width:1.5;"/><text fill="#000000" font-family="sans-serif" font-size="14" font-style="italic" lengthAdjust="spacing" textLength="79" x="2439.5" y="865.373">&#171;repository&#187;</text><text fill="#000000" font-family="sans-serif" font-size="14" lengthAdjust="spacing" textLength="125" x="2416.5" y="883.9941">QuestionRepository</text><path d="M2464,897.5078 C2464,887.5078 2482,887.5078 2482,887.5078 C2482,887.5078 2500,887.5078 2500,897.5078 L2500,923.5078 C2500,933.5078 2482,933.5078 2482,933.5078 C2482,933.5078 2464,933.5078 2464,923.5078 L2464,897.5078 " fill="#E3E3E3" style="stroke:#181818;stroke-width:1.5;"/><path d="M2464,897.5078 C2464,907.5078 2482,907.5078 2482,907.5078 C2482,907.5078 2500,907.5078 2500,897.5078 " fill="none" style="stroke:#181818;stroke-width:1.5;"/><text fill="#000000" font-family="sans-serif" font-size="14" font-style="italic" lengthAdjust="spacing" textLength="79" x="2575" y="105.7285">&#171;repository&#187;</text><text fill="#000000" font-family="sans-serif" font-size="14" lengthAdjust="spacing" textLength="114" x="2557.5" y="124.3496">CourseRepository</text><path d="M2599.5,54.6211 C2599.5,44.6211 2617.5,44.6211 2617.5,44.6211 C2617.5,44.6211 2635.5,44.6211 2635.5,54.6211 L2635.5,80.6211 C2635.5,90.6211 2617.5,90.6211 2617.5,90.6211 C2617.5,90.6211 2599.5,90.6211 2599.5,80.6211 L2599.5,54.6211 " fill="#E3E3E3" style="stroke:#181818;stroke-width:1.5;"/><path d="M2599.5,54.6211 C2599.5,64.6211 2617.5,64.6211 2617.5,64.6211 C2617.5,64.6211 2635.5,64.6211 2635.5,54.6211 " fill="none" style="stroke:#181818;stroke-width:1.5;"/><text fill="#000000" font-family="sans-serif" font-size="14" font-style="italic" lengthAdjust="spacing" textLength="79" x="2575" y="865.373">&#171;repository&#187;</text><text fill="#000000" font-family="sans-serif" font-size="14" lengthAdjust="spacing" textLength="114" x="2557.5" y="883.9941">CourseRepository</text><path d="M2599.5,897.5078 C2599.5,887.5078 2617.5,887.5078 2617.5,887.5078 C2617.5,887.5078 2635.5,887.5078 2635.5,897.5078 L2635.5,923.5078 C2635.5,933.5078 2617.5,933.5078 2617.5,933.5078 C2617.5,933.5078 2599.5,933.5078 2599.5,923.5078 L2599.5,897.5078 " fill="#E3E3E3" style="stroke:#181818;stroke-width:1.5;"/><path d="M2599.5,897.5078 C2599.5,907.5078 2617.5,907.5078 2617.5,907.5078 C2617.5,907.5078 2635.5,907.5078 2635.5,897.5078 " fill="none" style="stroke:#181818;stroke-width:1.5;"/><rect fill="#FFFFFF" height="695.4023" style="stroke:#181818;stroke-width:1.0;" width="10" x="33.5" y="137.8633"/><rect fill="#FFFFFF" height="672.1113" style="stroke:#181818;stroke-width:1.0;" width="10" x="588.5" y="161.1543"/><rect fill="#FFFFFF" height="31.291" style="stroke:#181818;stroke-width:1.0;" width="10" x="1247.5" y="255.0273"/><rect fill="#FFFFFF" height="135.1641" style="stroke:#181818;stroke-width:1.0;" width="10" x="1247.5" y="487.0645"/><rect fill="#FFFFFF" height="93.873" style="stroke:#181818;stroke-width:1.0;" width="10" x="1247.5" y="708.1016"/><rect fill="#FFFFFF" height="72.582" style="stroke:#181818;stroke-width:1.0;" width="10" x="2166" y="549.6465"/><polygon fill="#181818" points="576.5,157.1543,586.5,161.1543,576.5,165.1543,580.5,161.1543" style="stroke:#181818;stroke-width:1.0;"/><line style="stroke:#181818;stroke-width:1.0;" x1="43.5" x2="582.5" y1="161.1543" y2="161.1543"/><text fill="#000000" font-family="sans-serif" font-size="13" font-weight="bold" lengthAdjust="spacing" textLength="7" x="50.5" y="155.8916">1</text><text fill="#000000" font-family="sans-serif" font-size="13" lengthAdjust="spacing" textLength="329" x="61.5" y="155.8916">Pede para criar/atualizar um exame formativo autom&#225;tico</text><polygon fill="#181818" points="1240.5,188.4453,1250.5,192.4453,1240.5,196.4453,1244.5,192.4453" style="stroke:#181818;stroke-width:1.0;"/><line style="stroke:#181818;stroke-width:1.0;" x1="598.5" x2="1246.5" y1="192.4453" y2="192.4453"/><text fill="#000000" font-family="sans-serif" font-size="13" font-weight="bold" lengthAdjust="spacing" textLength="7" x="605.5" y="187.1826">2</text><text fill="#000000" font-family="sans-serif" font-size="13" lengthAdjust="spacing" textLength="36" x="616.5" y="187.1826">create</text><polygon fill="#181818" points="2159,219.7363,2169,223.7363,2159,227.7363,2163,223.7363" style="stroke:#181818;stroke-width:1.0;"/><line style="stroke:#181818;stroke-width:1.0;" x1="1252.5" x2="2165" y1="223.7363" y2="223.7363"/><text fill="#000000" font-family="sans-serif" font-size="13" font-weight="bold" lengthAdjust="spacing" textLength="7" x="1259.5" y="218.4736">3</text><text fill="#000000" font-family="sans-serif" font-size="13" lengthAdjust="spacing" textLength="36" x="1270.5" y="218.4736">create</text><polygon fill="#181818" points="1235.5,251.0273,1245.5,255.0273,1235.5,259.0273,1239.5,255.0273" style="stroke:#181818;stroke-width:1.0;"/><line style="stroke:#181818;stroke-width:1.0;" x1="598.5" x2="1241.5" y1="255.0273" y2="255.0273"/><text fill="#000000" font-family="sans-serif" font-size="13" font-weight="bold" lengthAdjust="spacing" textLength="7" x="605.5" y="249.7646">4</text><text fill="#000000" font-family="sans-serif" font-size="13" lengthAdjust="spacing" textLength="312" x="616.5" y="249.7646">availableCourses = findAllTeacherCoursesInProgress()</text><polygon fill="#181818" points="2605.5,282.3184,2615.5,286.3184,2605.5,290.3184,2609.5,286.3184" style="stroke:#181818;stroke-width:1.0;"/><line style="stroke:#181818;stroke-width:1.0;" x1="1252.5" x2="2611.5" y1="286.3184" y2="286.3184"/><text fill="#000000" font-family="sans-serif" font-size="13" font-weight="bold" lengthAdjust="spacing" textLength="7" x="1259.5" y="281.0557">5</text><text fill="#000000" font-family="sans-serif" font-size="13" lengthAdjust="spacing" textLength="263" x="1270.5" y="281.0557">findAllTeacherCoursesInProgress(theTeacher)</text><line style="stroke:#181818;stroke-width:1.0;stroke-dasharray:2.0,2.0;" x1="598.5" x2="640.5" y1="317.6094" y2="317.6094"/><line style="stroke:#181818;stroke-width:1.0;stroke-dasharray:2.0,2.0;" x1="640.5" x2="640.5" y1="317.6094" y2="330.6094"/><line style="stroke:#181818;stroke-width:1.0;stroke-dasharray:2.0,2.0;" x1="599.5" x2="640.5" y1="330.6094" y2="330.6094"/><polygon fill="#181818" points="609.5,326.6094,599.5,330.6094,609.5,334.6094,605.5,330.6094" style="stroke:#181818;stroke-width:1.0;"/><text fill="#000000" font-family="sans-serif" font-size="13" font-weight="bold" lengthAdjust="spacing" textLength="7" x="605.5" y="312.3467">6</text><text fill="#000000" font-family="sans-serif" font-size="13" lengthAdjust="spacing" textLength="624" x="616.5" y="312.3467">Mostra a lista de disciplinas dispon&#237;veis (no estado in_progress) e que s&#227;o lecionadas pelo pr&#243;prio professor</text><polygon fill="#181818" points="54.5,357.9004,44.5,361.9004,54.5,365.9004,50.5,361.9004" style="stroke:#181818;stroke-width:1.0;"/><line style="stroke:#181818;stroke-width:1.0;stroke-dasharray:2.0,2.0;" x1="48.5" x2="587.5" y1="361.9004" y2="361.9004"/><text fill="#000000" font-family="sans-serif" font-size="13" font-weight="bold" lengthAdjust="spacing" textLength="7" x="60.5" y="356.6377">7</text><text fill="#000000" font-family="sans-serif" font-size="13" lengthAdjust="spacing" textLength="199" x="71.5" y="356.6377">Pede para escolher uma disciplina</text><polygon fill="#181818" points="576.5,389.1914,586.5,393.1914,576.5,397.1914,580.5,393.1914" style="stroke:#181818;stroke-width:1.0;"/><line style="stroke:#181818;stroke-width:1.0;" x1="43.5" x2="582.5" y1="393.1914" y2="393.1914"/><text fill="#000000" font-family="sans-serif" font-size="13" font-weight="bold" lengthAdjust="spacing" textLength="7" x="50.5" y="387.9287">8</text><text fill="#000000" font-family="sans-serif" font-size="13" lengthAdjust="spacing" textLength="134" x="61.5" y="387.9287">Escolhe uma disciplina</text><polygon fill="#181818" points="54.5,420.4824,44.5,424.4824,54.5,428.4824,50.5,424.4824" style="stroke:#181818;stroke-width:1.0;"/><line style="stroke:#181818;stroke-width:1.0;stroke-dasharray:2.0,2.0;" x1="48.5" x2="587.5" y1="424.4824" y2="424.4824"/><text fill="#000000" font-family="sans-serif" font-size="13" font-weight="bold" lengthAdjust="spacing" textLength="7" x="60.5" y="419.2197">9</text><text fill="#000000" font-family="sans-serif" font-size="13" lengthAdjust="spacing" textLength="510" x="71.5" y="419.2197">Pede para inserir o caminho at&#233; ao ficheiro com a informa&#231;&#227;o do exame formativo a criar</text><polygon fill="#181818" points="576.5,451.7734,586.5,455.7734,576.5,459.7734,580.5,455.7734" style="stroke:#181818;stroke-width:1.0;"/><line style="stroke:#181818;stroke-width:1.0;" x1="43.5" x2="582.5" y1="455.7734" y2="455.7734"/><text fill="#000000" font-family="sans-serif" font-size="13" font-weight="bold" lengthAdjust="spacing" textLength="14" x="50.5" y="450.5107">10</text><text fill="#000000" font-family="sans-serif" font-size="13" lengthAdjust="spacing" textLength="184" x="68.5" y="450.5107">Insere o caminho at&#233; ao ficheiro</text><polygon fill="#181818" points="1235.5,483.0645,1245.5,487.0645,1235.5,491.0645,1239.5,487.0645" style="stroke:#181818;stroke-width:1.0;"/><line style="stroke:#181818;stroke-width:1.0;" x1="598.5" x2="1241.5" y1="487.0645" y2="487.0645"/><text fill="#000000" font-family="sans-serif" font-size="13" font-weight="bold" lengthAdjust="spacing" textLength="14" x="605.5" y="481.8018">11</text><text fill="#000000" font-family="sans-serif" font-size="13" lengthAdjust="spacing" textLength="381" x="623.5" y="481.8018">theFormativeExam = parseFormativeExam(theCourse, pathToFile)</text><polygon fill="#181818" points="1755.5,514.3555,1765.5,518.3555,1755.5,522.3555,1759.5,518.3555" style="stroke:#181818;stroke-width:1.0;"/><line style="stroke:#181818;stroke-width:1.0;" x1="1257.5" x2="1761.5" y1="518.3555" y2="518.3555"/><text fill="#000000" font-family="sans-serif" font-size="13" font-weight="bold" lengthAdjust="spacing" textLength="14" x="1264.5" y="513.0928">12</text><text fill="#000000" font-family="sans-serif" font-size="13" lengthAdjust="spacing" textLength="164" x="1282.5" y="513.0928">parseWithVisitor(pathToFile)</text><polygon fill="#181818" points="2154,545.6465,2164,549.6465,2154,553.6465,2158,549.6465" style="stroke:#181818;stroke-width:1.0;"/><line style="stroke:#181818;stroke-width:1.0;" x1="1257.5" x2="2160" y1="549.6465" y2="549.6465"/><text fill="#000000" font-family="sans-serif" font-size="13" font-weight="bold" lengthAdjust="spacing" textLength="14" x="1264.5" y="544.3838">13</text><text fill="#000000" font-family="sans-serif" font-size="13" lengthAdjust="spacing" textLength="453" x="1282.5" y="544.3838">checkFormativeExamNumberOfTypeQuestions(theCourse, theFormativeExam)</text><path d="M2082,564.6465 L2155,564.6465 L2155,573.9375 L2145,583.9375 L2082,583.9375 L2082,564.6465 " fill="#EEEEEE" style="stroke:#000000;stroke-width:1.5;"/><rect fill="none" height="50.582" style="stroke:#000000;stroke-width:1.5;" width="475.5" x="2082" y="564.6465"/><text fill="#000000" font-family="sans-serif" font-size="13" font-weight="bold" lengthAdjust="spacing" textLength="28" x="2097" y="579.6748">loop</text><text fill="#000000" font-family="sans-serif" font-size="11" font-weight="bold" lengthAdjust="spacing" textLength="149" x="2170" y="578.5166">[Para cada tipo de quest&#227;o]</text><polygon fill="#181818" points="2470,603.2285,2480,607.2285,2470,611.2285,2474,607.2285" style="stroke:#181818;stroke-width:1.0;"/><line style="stroke:#181818;stroke-width:1.0;" x1="2176" x2="2476" y1="607.2285" y2="607.2285"/><text fill="#000000" font-family="sans-serif" font-size="13" font-weight="bold" lengthAdjust="spacing" textLength="14" x="2183" y="601.9658">14</text><text fill="#000000" font-family="sans-serif" font-size="13" lengthAdjust="spacing" textLength="264" x="2201" y="601.9658">countTypeQuestion(theCourse, typeQuestion)</text><polygon fill="#181818" points="54.5,641.5195,44.5,645.5195,54.5,649.5195,50.5,645.5195" style="stroke:#181818;stroke-width:1.0;"/><line style="stroke:#181818;stroke-width:1.0;stroke-dasharray:2.0,2.0;" x1="48.5" x2="587.5" y1="645.5195" y2="645.5195"/><text fill="#000000" font-family="sans-serif" font-size="13" font-weight="bold" lengthAdjust="spacing" textLength="14" x="60.5" y="640.2568">15</text><text fill="#000000" font-family="sans-serif" font-size="13" lengthAdjust="spacing" textLength="315" x="78.5" y="640.2568">Mostra o conte&#250;do a ser guardado e pede confirma&#231;&#227;o</text><polygon fill="#181818" points="576.5,672.8105,586.5,676.8105,576.5,680.8105,580.5,676.8105" style="stroke:#181818;stroke-width:1.0;"/><line style="stroke:#181818;stroke-width:1.0;" x1="43.5" x2="582.5" y1="676.8105" y2="676.8105"/><text fill="#000000" font-family="sans-serif" font-size="13" font-weight="bold" lengthAdjust="spacing" textLength="14" x="50.5" y="671.5479">16</text><text fill="#000000" font-family="sans-serif" font-size="13" lengthAdjust="spacing" textLength="119" x="68.5" y="671.5479">Confirma a opera&#231;&#227;o</text><polygon fill="#181818" points="1235.5,704.1016,1245.5,708.1016,1235.5,712.1016,1239.5,708.1016" style="stroke:#181818;stroke-width:1.0;"/><line style="stroke:#181818;stroke-width:1.0;" x1="598.5" x2="1241.5" y1="708.1016" y2="708.1016"/><text fill="#000000" font-family="sans-serif" font-size="13" font-weight="bold" lengthAdjust="spacing" textLength="14" x="605.5" y="702.8389">17</text><text fill="#000000" font-family="sans-serif" font-size="13" lengthAdjust="spacing" textLength="309" x="623.5" y="702.8389">createFormativeExam(theCourse, theFormativeExam)</text><polygon fill="#181818" points="1608,735.3926,1618,739.3926,1608,743.3926,1612,739.3926" style="stroke:#181818;stroke-width:1.0;"/><line style="stroke:#181818;stroke-width:1.0;" x1="1257.5" x2="1614" y1="739.3926" y2="739.3926"/><text fill="#000000" font-family="sans-serif" font-size="13" font-weight="bold" lengthAdjust="spacing" textLength="14" x="1264.5" y="734.1299">18</text><text fill="#000000" font-family="sans-serif" font-size="13" lengthAdjust="spacing" textLength="227" x="1282.5" y="734.1299">addFormativeExam(theFormativeExam)</text><polygon fill="#181818" points="2605.5,766.6836,2615.5,770.6836,2605.5,774.6836,2609.5,770.6836" style="stroke:#181818;stroke-width:1.0;"/><line style="stroke:#181818;stroke-width:1.0;" x1="1257.5" x2="2611.5" y1="770.6836" y2="770.6836"/><text fill="#000000" font-family="sans-serif" font-size="13" font-weight="bold" lengthAdjust="spacing" textLength="14" x="1264.5" y="765.4209">19</text><text fill="#000000" font-family="sans-serif" font-size="13" lengthAdjust="spacing" textLength="93" x="1282.5" y="765.4209">save(theCourse)</text><polygon fill="#181818" points="609.5,797.9746,599.5,801.9746,609.5,805.9746,605.5,801.9746" style="stroke:#181818;stroke-width:1.0;"/><line style="stroke:#181818;stroke-width:1.0;stroke-dasharray:2.0,2.0;" x1="603.5" x2="1251.5" y1="801.9746" y2="801.9746"/><text fill="#000000" font-family="sans-serif" font-size="13" font-weight="bold" lengthAdjust="spacing" textLength="14" x="615.5" y="796.7119">20</text><text fill="#000000" font-family="sans-serif" font-size="13" lengthAdjust="spacing" textLength="59" x="633.5" y="796.7119">theCourse</text><polygon fill="#181818" points="49.5,829.2656,39.5,833.2656,49.5,837.2656,45.5,833.2656" style="stroke:#181818;stroke-width:1.0;"/><line style="stroke:#181818;stroke-width:1.0;stroke-dasharray:2.0,2.0;" x1="43.5" x2="592.5" y1="833.2656" y2="833.2656"/><text fill="#000000" font-family="sans-serif" font-size="13" font-weight="bold" lengthAdjust="spacing" textLength="14" x="55.5" y="828.0029">21</text><text fill="#000000" font-family="sans-serif" font-size="13" lengthAdjust="spacing" textLength="181" x="73.5" y="828.0029">Informa o sucesso da opera&#231;&#227;o</text><!--SRC=[dLPBRnCn4BxlhnZrb4fKL9nG52fLVKWz50ffuOYctabYrMkxjZTG_WtYW3XmuiOrVupnPj-RfALxsNXclddvczduEwajEimWCzg8XJCPGN0v9RxMM1HtEATfU504ZaH0FLTj0x_0r7oHUWupL9wI9CZ0fjC77oY3ATtdf0N1gSHvD1zDfwVxS00tKtXrUFWwmJmOdMUtv984HJ0EzgwScP7tnkq1UhWc50lMShGWXRIe0vmuma373CsGXUV6nVUIphvYvcyk8YoNC9bOHvvqO9tHHqU9C3euetR3JzP6Ybnq8vhJP8BMAYagRvsCziA2oap7vRl8lX4pFkLuCaBxo1EJEq_ZzQl2hKzjM1StxkHzoIO5SjQNiWTbdPblYDlnqFKtzBKramvkIcuf-Rxxw4hUxsAA0M-HwtoVau-o3sIDbqo4X-ZZVYYTJ5nzQ3jOzwiB5trP3nmf9vTCXffc2V1JNTd1KUJH6Aue9OXq1-4akfSOSbJo6ph8Co2kZkfY3KH6Pwllt1vJEAj3vB8unuUzikyMkSRiEPAojcZfs79ZAslCBhUuHAdmLfLqyl06PbAdnqgLHPRo2yrZD-TvyQFzsb-TUkEorWsJ73Hx_6YePZoQe2bj2jkfiRgNI-C3Nmg2aZuW8o6LdbcffERBvz_MwDNl9KaF8ss0gSIx2gJ-RCi4ze4YnS2lVXXG99Xfc3BKaZ9WtUgFTJB-A1VI88kAA6sAa1T6HM6UOIkV1jjdrzaQqBT_GYYfFJdfm830JEe5ao-iVW4QRZmRIySAaq4qB1Yq-Xdhv1OCEBiczlOSBs8asX5e9mdxguP9oFdxhd1KxxmNh0sBQtCk5JsNZCCrE5x7_2J3ugCi63hQ5ERfmxSWSTUfu6tn7NitktwmLAqptowhtuTkrBh0JG4xbl5HnbYuAdOIKnQ2j2OEGB4m-PO7zl7PM0bNk67BZkCuwz0kfLD9Ixu_Y4KwBVBhA5fplRF0fyr_Cmxb4Z25DQt-ff7Ep5QOv-ZIEF0yBN5aM3-JrHHif_f9QSPUZ2NNDz-wkhUIUVkj_n-bc_y4lDRJT11l1xKUNTGUbzJal1rSDQasVVQrNQnN4j-RpqNShf1s6jxpoH_Ff7MiFjV_0000]--></g></svg>