<?xml version="1.0" encoding="us-ascii" standalone="no"?><svg xmlns="http://www.w3.org/2000/svg" xmlns:xlink="http://www.w3.org/1999/xlink" contentStyleType="text/css" height="507px" preserveAspectRatio="none" style="width:747px;height:507px;background:#FFFFFF;" version="1.1" viewBox="0 0 747 507" width="747px" zoomAndPan="magnify"><defs/><g><text fill="#000000" font-family="sans-serif" font-size="14" font-weight="bold" lengthAdjust="spacing" textLength="296" x="224.75" y="30.1074">System Sequence Diagram (SSD) - US 2008</text><rect fill="#FFFFFF" height="273.6191" style="stroke:#181818;stroke-width:1.0;" width="10" x="33.5" y="133.2422"/><rect fill="#FFFFFF" height="62.582" style="stroke:#181818;stroke-width:1.0;" width="10" x="702.5" y="156.5332"/><rect fill="#FFFFFF" height="31.291" style="stroke:#181818;stroke-width:1.0;" width="10" x="702.5" y="250.4063"/><rect fill="#FFFFFF" height="31.291" style="stroke:#181818;stroke-width:1.0;" width="10" x="702.5" y="312.9883"/><rect fill="#FFFFFF" height="31.291" style="stroke:#181818;stroke-width:1.0;" width="10" x="702.5" y="375.5703"/><line style="stroke:#181818;stroke-width:0.5;stroke-dasharray:5.0,5.0;" x1="38" x2="38" y1="123.2422" y2="424.8613"/><line style="stroke:#181818;stroke-width:0.5;stroke-dasharray:5.0,5.0;" x1="707.5" x2="707.5" y1="123.2422" y2="424.8613"/><text fill="#000000" font-family="sans-serif" font-size="14" lengthAdjust="spacing" textLength="61" x="5" y="119.7285">Professor</text><ellipse cx="38.5" cy="53.1211" fill="#E3E3E3" rx="8" ry="8" style="stroke:#181818;stroke-width:0.5;"/><path d="M38.5,61.1211 L38.5,88.1211 M25.5,69.1211 L51.5,69.1211 M38.5,88.1211 L25.5,103.1211 M38.5,88.1211 L51.5,103.1211 " fill="none" style="stroke:#181818;stroke-width:0.5;"/><text fill="#000000" font-family="sans-serif" font-size="14" lengthAdjust="spacing" textLength="61" x="5" y="438.9688">Professor</text><ellipse cx="38.5" cy="450.9824" fill="#E3E3E3" rx="8" ry="8" style="stroke:#181818;stroke-width:0.5;"/><path d="M38.5,458.9824 L38.5,485.9824 M25.5,466.9824 L51.5,466.9824 M38.5,485.9824 L25.5,500.9824 M38.5,485.9824 L51.5,500.9824 " fill="none" style="stroke:#181818;stroke-width:0.5;"/><rect fill="#E3E3E3" height="32.6211" rx="2.5" ry="2.5" style="stroke:#181818;stroke-width:0.5;" width="68" x="673.5" y="89.6211"/><text fill="#000000" font-family="sans-serif" font-size="14" lengthAdjust="spacing" textLength="54" x="680.5" y="111.7285">:Sistema</text><rect fill="#E3E3E3" height="32.6211" rx="2.5" ry="2.5" style="stroke:#181818;stroke-width:0.5;" width="68" x="673.5" y="423.8613"/><text fill="#000000" font-family="sans-serif" font-size="14" lengthAdjust="spacing" textLength="54" x="680.5" y="445.9688">:Sistema</text><rect fill="#FFFFFF" height="273.6191" style="stroke:#181818;stroke-width:1.0;" width="10" x="33.5" y="133.2422"/><rect fill="#FFFFFF" height="62.582" style="stroke:#181818;stroke-width:1.0;" width="10" x="702.5" y="156.5332"/><rect fill="#FFFFFF" height="31.291" style="stroke:#181818;stroke-width:1.0;" width="10" x="702.5" y="250.4063"/><rect fill="#FFFFFF" height="31.291" style="stroke:#181818;stroke-width:1.0;" width="10" x="702.5" y="312.9883"/><rect fill="#FFFFFF" height="31.291" style="stroke:#181818;stroke-width:1.0;" width="10" x="702.5" y="375.5703"/><polygon fill="#181818" points="690.5,152.5332,700.5,156.5332,690.5,160.5332,694.5,156.5332" style="stroke:#181818;stroke-width:1.0;"/><line style="stroke:#181818;stroke-width:1.0;" x1="43.5" x2="696.5" y1="156.5332" y2="156.5332"/><text fill="#000000" font-family="sans-serif" font-size="13" font-weight="bold" lengthAdjust="spacing" textLength="7" x="50.5" y="151.2705">1</text><text fill="#000000" font-family="sans-serif" font-size="13" lengthAdjust="spacing" textLength="329" x="61.5" y="151.2705">Pede para criar/atualizar um exame formativo autom&#225;tico</text><polygon fill="#181818" points="54.5,183.8242,44.5,187.8242,54.5,191.8242,50.5,187.8242" style="stroke:#181818;stroke-width:1.0;"/><line style="stroke:#181818;stroke-width:1.0;stroke-dasharray:2.0,2.0;" x1="48.5" x2="701.5" y1="187.8242" y2="187.8242"/><text fill="#000000" font-family="sans-serif" font-size="13" font-weight="bold" lengthAdjust="spacing" textLength="7" x="60.5" y="182.5615">2</text><text fill="#000000" font-family="sans-serif" font-size="13" lengthAdjust="spacing" textLength="624" x="71.5" y="182.5615">Mostra a lista de disciplinas dispon&#237;veis (no estado in_progress) e que s&#227;o lecionadas pelo pr&#243;prio professor</text><polygon fill="#181818" points="54.5,215.1152,44.5,219.1152,54.5,223.1152,50.5,219.1152" style="stroke:#181818;stroke-width:1.0;"/><line style="stroke:#181818;stroke-width:1.0;stroke-dasharray:2.0,2.0;" x1="48.5" x2="706.5" y1="219.1152" y2="219.1152"/><text fill="#000000" font-family="sans-serif" font-size="13" font-weight="bold" lengthAdjust="spacing" textLength="7" x="60.5" y="213.8525">3</text><text fill="#000000" font-family="sans-serif" font-size="13" lengthAdjust="spacing" textLength="199" x="71.5" y="213.8525">Pede para escolher uma disciplina</text><polygon fill="#181818" points="690.5,246.4063,700.5,250.4063,690.5,254.4063,694.5,250.4063" style="stroke:#181818;stroke-width:1.0;"/><line style="stroke:#181818;stroke-width:1.0;" x1="43.5" x2="696.5" y1="250.4063" y2="250.4063"/><text fill="#000000" font-family="sans-serif" font-size="13" font-weight="bold" lengthAdjust="spacing" textLength="7" x="50.5" y="245.1436">4</text><text fill="#000000" font-family="sans-serif" font-size="13" lengthAdjust="spacing" textLength="134" x="61.5" y="245.1436">Escolhe uma disciplina</text><polygon fill="#181818" points="54.5,277.6973,44.5,281.6973,54.5,285.6973,50.5,281.6973" style="stroke:#181818;stroke-width:1.0;"/><line style="stroke:#181818;stroke-width:1.0;stroke-dasharray:2.0,2.0;" x1="48.5" x2="706.5" y1="281.6973" y2="281.6973"/><text fill="#000000" font-family="sans-serif" font-size="13" font-weight="bold" lengthAdjust="spacing" textLength="7" x="60.5" y="276.4346">5</text><text fill="#000000" font-family="sans-serif" font-size="13" lengthAdjust="spacing" textLength="510" x="71.5" y="276.4346">Pede para inserir o caminho at&#233; ao ficheiro com a informa&#231;&#227;o do exame formativo a criar</text><polygon fill="#181818" points="690.5,308.9883,700.5,312.9883,690.5,316.9883,694.5,312.9883" style="stroke:#181818;stroke-width:1.0;"/><line style="stroke:#181818;stroke-width:1.0;" x1="43.5" x2="696.5" y1="312.9883" y2="312.9883"/><text fill="#000000" font-family="sans-serif" font-size="13" font-weight="bold" lengthAdjust="spacing" textLength="7" x="50.5" y="307.7256">6</text><text fill="#000000" font-family="sans-serif" font-size="13" lengthAdjust="spacing" textLength="184" x="61.5" y="307.7256">Insere o caminho at&#233; ao ficheiro</text><polygon fill="#181818" points="54.5,340.2793,44.5,344.2793,54.5,348.2793,50.5,344.2793" style="stroke:#181818;stroke-width:1.0;"/><line style="stroke:#181818;stroke-width:1.0;stroke-dasharray:2.0,2.0;" x1="48.5" x2="706.5" y1="344.2793" y2="344.2793"/><text fill="#000000" font-family="sans-serif" font-size="13" font-weight="bold" lengthAdjust="spacing" textLength="7" x="60.5" y="339.0166">7</text><text fill="#000000" font-family="sans-serif" font-size="13" lengthAdjust="spacing" textLength="378" x="71.5" y="339.0166">Mostra o conte&#250;do a ser guardado do ficheiro e pede confirma&#231;&#227;o</text><polygon fill="#181818" points="690.5,371.5703,700.5,375.5703,690.5,379.5703,694.5,375.5703" style="stroke:#181818;stroke-width:1.0;"/><line style="stroke:#181818;stroke-width:1.0;" x1="43.5" x2="696.5" y1="375.5703" y2="375.5703"/><text fill="#000000" font-family="sans-serif" font-size="13" font-weight="bold" lengthAdjust="spacing" textLength="7" x="50.5" y="370.3076">8</text><text fill="#000000" font-family="sans-serif" font-size="13" lengthAdjust="spacing" textLength="119" x="61.5" y="370.3076">Confirma a opera&#231;&#227;o</text><polygon fill="#181818" points="49.5,402.8613,39.5,406.8613,49.5,410.8613,45.5,406.8613" style="stroke:#181818;stroke-width:1.0;"/><line style="stroke:#181818;stroke-width:1.0;stroke-dasharray:2.0,2.0;" x1="43.5" x2="706.5" y1="406.8613" y2="406.8613"/><text fill="#000000" font-family="sans-serif" font-size="13" font-weight="bold" lengthAdjust="spacing" textLength="7" x="55.5" y="401.5986">9</text><text fill="#000000" font-family="sans-serif" font-size="13" lengthAdjust="spacing" textLength="181" x="66.5" y="401.5986">Informa o sucesso da opera&#231;&#227;o</text><!--SRC=[fLEnZjGm4Etp5QEjxeeL9ogq1Gr7SGNIIO4Q3VOaExhO4yREmV4tY09HKD7HviSOPvFTbVOujCALOxzvxyqR9zrnx54nG90eRgiI2B8ELANzJO_k3bkgyqD7eEGonhOx1gGjUld4iOK6kqHLbJaRj7v8cGBKz76Ww0Yk6Ti2lwZhwqjOmxiQdbzTlQXmo1A7y86qgj1bKLZTgZIKakWACC5RGhUrMrFBxBZ7c66rgRdGuuIOzrCztsEcVKq5jkOFMBzSaB21M_84fG5mogZFC0_OyHTK60BGPxGW6j60HYXGF8RngydBnBZNMPHXNWl_shGMsGsyaPHD2A6pQmGJzfoiauwZkRTzBt7yUK-Su28Aa86y0CVtlKghbiGb45YCaCPl0XqvbeZUIdlg17eTV_NAPJF7zWyxXzOfEUdAuM2WWwUftjD9btzFy_MEw36UCxCwcEEOI5b1m67WkBKnvF47e4331cQr2mbGWDEankyb7GlkP7gx4P_VrKrnG4yO-8_7KCp7JEDlNmoQ3hG3gY-3zqSTMXOb4CCslFHuVYElvd9JafxqYEPCypUxgCrz6bnvQ-1FA1znTdIq_9b_0000]--></g></svg>