<?xml version="1.0" encoding="us-ascii" standalone="no"?><svg xmlns="http://www.w3.org/2000/svg" xmlns:xlink="http://www.w3.org/1999/xlink" contentStyleType="text/css" height="470px" preserveAspectRatio="none" style="width:408px;height:470px;background:#FFFFFF;" version="1.1" viewBox="0 0 408 470" width="408px" zoomAndPan="magnify"><defs/><g><!--class OpenCloseEnrollmentUI--><g id="elem_OpenCloseEnrollmentUI"><rect codeLine="2" fill="#F1F1F1" height="72.5625" id="OpenCloseEnrollmentUI" rx="2.5" ry="2.5" style="stroke:#181818;stroke-width:0.5;" width="203" x="7" y="7"/><ellipse cx="22" cy="27.1328" fill="#ADD1B2" rx="11" ry="11" style="stroke:#181818;stroke-width:1.0;"/><path d="M24.3438,22.8047 C23.4063,22.3672 22.8125,22.2266 21.9375,22.2266 C19.3125,22.2266 17.3125,24.3047 17.3125,27.0234 L17.3125,28.1484 C17.3125,30.7266 19.4219,32.6172 22.3125,32.6172 C23.5313,32.6172 24.6875,32.3203 25.4375,31.7734 C26.0156,31.3672 26.3438,30.9141 26.3438,30.5234 C26.3438,30.0703 25.9531,29.6797 25.4844,29.6797 C25.2656,29.6797 25.0625,29.7578 24.875,29.9453 C24.4219,30.4297 24.4219,30.4297 24.2344,30.5234 C23.8125,30.7891 23.125,30.9141 22.3594,30.9141 C20.3125,30.9141 19.0156,29.8203 19.0156,28.1172 L19.0156,27.0234 C19.0156,25.2422 20.2656,23.9297 22,23.9297 C22.5781,23.9297 23.1875,24.0859 23.6563,24.3359 C24.1406,24.6172 24.3125,24.8359 24.4063,25.2422 C24.4688,25.6484 24.5,25.7734 24.6406,25.8984 C24.7813,26.0391 25.0156,26.1484 25.2344,26.1484 C25.5,26.1484 25.7656,26.0078 25.9375,25.7891 C26.0469,25.6328 26.0781,25.4453 26.0781,25.0234 L26.0781,23.6016 C26.0781,23.1641 26.0625,23.0391 25.9688,22.8828 C25.8125,22.6172 25.5313,22.4766 25.2344,22.4766 C24.9375,22.4766 24.7344,22.5703 24.5156,22.8828 L24.3438,22.8047 Z " fill="#000000"/><text fill="#000000" font-family="sans-serif" font-size="12" font-style="italic" lengthAdjust="spacing" textLength="90" x="76.5" y="23.1387">&#171;presentation&#187;</text><text fill="#000000" font-family="sans-serif" font-size="14" lengthAdjust="spacing" textLength="171" x="36" y="38.9639">OpenCloseEnrollmentUI</text><line style="stroke:#181818;stroke-width:0.5;" x1="8" x2="209" y1="47.2656" y2="47.2656"/><line style="stroke:#181818;stroke-width:0.5;" x1="8" x2="209" y1="55.2656" y2="55.2656"/><text fill="#000000" font-family="sans-serif" font-size="14" lengthAdjust="spacing" textLength="66" x="13" y="72.2607">doShow()</text></g><!--class Course--><g id="elem_Course"><rect codeLine="6" fill="#F1F1F1" height="56.2656" id="Course" rx="2.5" ry="2.5" style="stroke:#181818;stroke-width:0.5;" width="88" x="12.5" y="290"/><ellipse cx="27.5" cy="310.1328" fill="#ADD1B2" rx="11" ry="11" style="stroke:#181818;stroke-width:1.0;"/><path d="M29.8438,305.8047 C28.9063,305.3672 28.3125,305.2266 27.4375,305.2266 C24.8125,305.2266 22.8125,307.3047 22.8125,310.0234 L22.8125,311.1484 C22.8125,313.7266 24.9219,315.6172 27.8125,315.6172 C29.0313,315.6172 30.1875,315.3203 30.9375,314.7734 C31.5156,314.3672 31.8438,313.9141 31.8438,313.5234 C31.8438,313.0703 31.4531,312.6797 30.9844,312.6797 C30.7656,312.6797 30.5625,312.7578 30.375,312.9453 C29.9219,313.4297 29.9219,313.4297 29.7344,313.5234 C29.3125,313.7891 28.625,313.9141 27.8594,313.9141 C25.8125,313.9141 24.5156,312.8203 24.5156,311.1172 L24.5156,310.0234 C24.5156,308.2422 25.7656,306.9297 27.5,306.9297 C28.0781,306.9297 28.6875,307.0859 29.1563,307.3359 C29.6406,307.6172 29.8125,307.8359 29.9063,308.2422 C29.9688,308.6484 30,308.7734 30.1406,308.8984 C30.2813,309.0391 30.5156,309.1484 30.7344,309.1484 C31,309.1484 31.2656,309.0078 31.4375,308.7891 C31.5469,308.6328 31.5781,308.4453 31.5781,308.0234 L31.5781,306.6016 C31.5781,306.1641 31.5625,306.0391 31.4688,305.8828 C31.3125,305.6172 31.0313,305.4766 30.7344,305.4766 C30.4375,305.4766 30.2344,305.5703 30.0156,305.8828 L29.8438,305.8047 Z " fill="#000000"/><text fill="#000000" font-family="sans-serif" font-size="12" font-style="italic" lengthAdjust="spacing" textLength="60" x="39.5" y="306.1387">&#171;Domain&#187;</text><text fill="#000000" font-family="sans-serif" font-size="14" lengthAdjust="spacing" textLength="49" x="45" y="321.9639">Course</text><line style="stroke:#181818;stroke-width:0.5;" x1="13.5" x2="99.5" y1="330.2656" y2="330.2656"/><line style="stroke:#181818;stroke-width:0.5;" x1="13.5" x2="99.5" y1="338.2656" y2="338.2656"/></g><!--class OpenCloseEnrollmentController--><g id="elem_OpenCloseEnrollmentController"><rect codeLine="8" fill="#F1F1F1" height="56.2656" id="OpenCloseEnrollmentController" rx="2.5" ry="2.5" style="stroke:#181818;stroke-width:0.5;" width="263" x="102" y="157"/><ellipse cx="117" cy="177.1328" fill="#ADD1B2" rx="11" ry="11" style="stroke:#181818;stroke-width:1.0;"/><path d="M119.3438,172.8047 C118.4063,172.3672 117.8125,172.2266 116.9375,172.2266 C114.3125,172.2266 112.3125,174.3047 112.3125,177.0234 L112.3125,178.1484 C112.3125,180.7266 114.4219,182.6172 117.3125,182.6172 C118.5313,182.6172 119.6875,182.3203 120.4375,181.7734 C121.0156,181.3672 121.3438,180.9141 121.3438,180.5234 C121.3438,180.0703 120.9531,179.6797 120.4844,179.6797 C120.2656,179.6797 120.0625,179.7578 119.875,179.9453 C119.4219,180.4297 119.4219,180.4297 119.2344,180.5234 C118.8125,180.7891 118.125,180.9141 117.3594,180.9141 C115.3125,180.9141 114.0156,179.8203 114.0156,178.1172 L114.0156,177.0234 C114.0156,175.2422 115.2656,173.9297 117,173.9297 C117.5781,173.9297 118.1875,174.0859 118.6563,174.3359 C119.1406,174.6172 119.3125,174.8359 119.4063,175.2422 C119.4688,175.6484 119.5,175.7734 119.6406,175.8984 C119.7813,176.0391 120.0156,176.1484 120.2344,176.1484 C120.5,176.1484 120.7656,176.0078 120.9375,175.7891 C121.0469,175.6328 121.0781,175.4453 121.0781,175.0234 L121.0781,173.6016 C121.0781,173.1641 121.0625,173.0391 120.9688,172.8828 C120.8125,172.6172 120.5313,172.4766 120.2344,172.4766 C119.9375,172.4766 119.7344,172.5703 119.5156,172.8828 L119.3438,172.8047 Z " fill="#000000"/><text fill="#000000" font-family="sans-serif" font-size="12" font-style="italic" lengthAdjust="spacing" textLength="81" x="206" y="173.1387">&#171;Application&#187;</text><text fill="#000000" font-family="sans-serif" font-size="14" lengthAdjust="spacing" textLength="231" x="131" y="188.9639">OpenCloseEnrollmentController</text><line style="stroke:#181818;stroke-width:0.5;" x1="103" x2="364" y1="197.2656" y2="197.2656"/><line style="stroke:#181818;stroke-width:0.5;" x1="103" x2="364" y1="205.2656" y2="205.2656"/></g><!--class ListCourseService--><g id="elem_ListCourseService"><rect codeLine="9" fill="#F1F1F1" height="56.2656" id="ListCourseService" rx="2.5" ry="2.5" style="stroke:#181818;stroke-width:0.5;" width="160" x="139.5" y="290"/><ellipse cx="154.5" cy="310.1328" fill="#ADD1B2" rx="11" ry="11" style="stroke:#181818;stroke-width:1.0;"/><path d="M156.8438,305.8047 C155.9063,305.3672 155.3125,305.2266 154.4375,305.2266 C151.8125,305.2266 149.8125,307.3047 149.8125,310.0234 L149.8125,311.1484 C149.8125,313.7266 151.9219,315.6172 154.8125,315.6172 C156.0313,315.6172 157.1875,315.3203 157.9375,314.7734 C158.5156,314.3672 158.8438,313.9141 158.8438,313.5234 C158.8438,313.0703 158.4531,312.6797 157.9844,312.6797 C157.7656,312.6797 157.5625,312.7578 157.375,312.9453 C156.9219,313.4297 156.9219,313.4297 156.7344,313.5234 C156.3125,313.7891 155.625,313.9141 154.8594,313.9141 C152.8125,313.9141 151.5156,312.8203 151.5156,311.1172 L151.5156,310.0234 C151.5156,308.2422 152.7656,306.9297 154.5,306.9297 C155.0781,306.9297 155.6875,307.0859 156.1563,307.3359 C156.6406,307.6172 156.8125,307.8359 156.9063,308.2422 C156.9688,308.6484 157,308.7734 157.1406,308.8984 C157.2813,309.0391 157.5156,309.1484 157.7344,309.1484 C158,309.1484 158.2656,309.0078 158.4375,308.7891 C158.5469,308.6328 158.5781,308.4453 158.5781,308.0234 L158.5781,306.6016 C158.5781,306.1641 158.5625,306.0391 158.4688,305.8828 C158.3125,305.6172 158.0313,305.4766 157.7344,305.4766 C157.4375,305.4766 157.2344,305.5703 157.0156,305.8828 L156.8438,305.8047 Z " fill="#000000"/><text fill="#000000" font-family="sans-serif" font-size="12" font-style="italic" lengthAdjust="spacing" textLength="81" x="192" y="306.1387">&#171;Application&#187;</text><text fill="#000000" font-family="sans-serif" font-size="14" lengthAdjust="spacing" textLength="128" x="168.5" y="321.9639">ListCourseService</text><line style="stroke:#181818;stroke-width:0.5;" x1="140.5" x2="298.5" y1="330.2656" y2="330.2656"/><line style="stroke:#181818;stroke-width:0.5;" x1="140.5" x2="298.5" y1="338.2656" y2="338.2656"/></g><!--class CourseRepository--><g id="elem_CourseRepository"><rect codeLine="11" fill="#F1F1F1" height="56.2656" id="CourseRepository" rx="2.5" ry="2.5" style="stroke:#181818;stroke-width:0.5;" width="160" x="241.5" y="407"/><ellipse cx="256.5" cy="427.1328" fill="#ADD1B2" rx="11" ry="11" style="stroke:#181818;stroke-width:1.0;"/><path d="M258.8438,422.8047 C257.9063,422.3672 257.3125,422.2266 256.4375,422.2266 C253.8125,422.2266 251.8125,424.3047 251.8125,427.0234 L251.8125,428.1484 C251.8125,430.7266 253.9219,432.6172 256.8125,432.6172 C258.0313,432.6172 259.1875,432.3203 259.9375,431.7734 C260.5156,431.3672 260.8438,430.9141 260.8438,430.5234 C260.8438,430.0703 260.4531,429.6797 259.9844,429.6797 C259.7656,429.6797 259.5625,429.7578 259.375,429.9453 C258.9219,430.4297 258.9219,430.4297 258.7344,430.5234 C258.3125,430.7891 257.625,430.9141 256.8594,430.9141 C254.8125,430.9141 253.5156,429.8203 253.5156,428.1172 L253.5156,427.0234 C253.5156,425.2422 254.7656,423.9297 256.5,423.9297 C257.0781,423.9297 257.6875,424.0859 258.1563,424.3359 C258.6406,424.6172 258.8125,424.8359 258.9063,425.2422 C258.9688,425.6484 259,425.7734 259.1406,425.8984 C259.2813,426.0391 259.5156,426.1484 259.7344,426.1484 C260,426.1484 260.2656,426.0078 260.4375,425.7891 C260.5469,425.6328 260.5781,425.4453 260.5781,425.0234 L260.5781,423.6016 C260.5781,423.1641 260.5625,423.0391 260.4688,422.8828 C260.3125,422.6172 260.0313,422.4766 259.7344,422.4766 C259.4375,422.4766 259.2344,422.5703 259.0156,422.8828 L258.8438,422.8047 Z " fill="#000000"/><text fill="#000000" font-family="sans-serif" font-size="12" font-style="italic" lengthAdjust="spacing" textLength="86" x="291.5" y="423.1387">&#171;Repositories&#187;</text><text fill="#000000" font-family="sans-serif" font-size="14" lengthAdjust="spacing" textLength="128" x="270.5" y="438.9639">CourseRepository</text><line style="stroke:#181818;stroke-width:0.5;" x1="242.5" x2="400.5" y1="447.2656" y2="447.2656"/><line style="stroke:#181818;stroke-width:0.5;" x1="242.5" x2="400.5" y1="455.2656" y2="455.2656"/></g><!--link OpenCloseEnrollmentUI to Course--><g id="link_OpenCloseEnrollmentUI_Course"><path codeLine="14" d="M100.5426,80.151 C95.6997,102.24 89.5039,131.22 84.5,157 C75.9313,201.146 67.1729,252.378 61.7861,284.738 " fill="none" id="OpenCloseEnrollmentUI-to-Course" style="stroke:#181818;stroke-width:1.0;stroke-dasharray:7.0,7.0;"/><polygon fill="#181818" points="60.9511,289.766,66.3706,281.5423,61.7697,284.8335,58.4785,280.2326,60.9511,289.766" style="stroke:#181818;stroke-width:1.0;"/></g><!--link ListCourseService to CourseRepository--><g id="link_ListCourseService_CourseRepository"><path codeLine="15" d="M243.673,346.253 C258.789,363.2964 278.301,385.2954 294.006,403.0023 " fill="none" id="ListCourseService-to-CourseRepository" style="stroke:#181818;stroke-width:1.0;stroke-dasharray:7.0,7.0;"/><polygon fill="#181818" points="297.501,406.9422,294.5206,397.5551,294.1829,403.2019,288.5361,402.8641,297.501,406.9422" style="stroke:#181818;stroke-width:1.0;"/></g><!--link OpenCloseEnrollmentUI to OpenCloseEnrollmentController--><g id="link_OpenCloseEnrollmentUI_OpenCloseEnrollmentController"><path codeLine="18" d="M140.366,80.063 C160.522,102.557 186.325,131.353 205.658,152.929 " fill="none" id="OpenCloseEnrollmentUI-to-OpenCloseEnrollmentController" style="stroke:#181818;stroke-width:1.0;"/><polygon fill="#181818" points="209.19,156.87,206.165,147.4972,205.8541,153.1455,200.2058,152.8346,209.19,156.87" style="stroke:#181818;stroke-width:1.0;"/><text fill="#000000" font-family="sans-serif" font-size="13" lengthAdjust="spacing" textLength="83" x="183.5" y="123.0669">theController</text></g><!--link OpenCloseEnrollmentController to CourseRepository--><g id="link_OpenCloseEnrollmentController_CourseRepository"><path codeLine="19" d="M264.11,213.073 C283.378,232.318 306.442,259.993 316.5,290 C328.863,326.882 328.051,372.0905 325.509,401.9007 " fill="none" id="OpenCloseEnrollmentController-to-CourseRepository" style="stroke:#181818;stroke-width:1.0;"/><polygon fill="#181818" points="325.053,406.9151,329.8524,398.3147,325.5062,401.9357,321.8853,397.5896,325.053,406.9151" style="stroke:#181818;stroke-width:1.0;"/><text fill="#000000" font-family="sans-serif" font-size="13" lengthAdjust="spacing" textLength="29" x="327.5" y="322.5669">repo</text></g><!--link OpenCloseEnrollmentController to ListCourseService--><g id="link_OpenCloseEnrollmentController_ListCourseService"><path codeLine="20" d="M230.599,213.143 C228.375,233.957 225.298,262.75 222.947,284.741 " fill="none" id="OpenCloseEnrollmentController-to-ListCourseService" style="stroke:#181818;stroke-width:1.0;"/><polygon fill="#181818" points="222.397,289.891,227.3307,281.367,222.9283,284.9193,219.376,280.5169,222.397,289.891" style="stroke:#181818;stroke-width:1.0;"/><text fill="#000000" font-family="sans-serif" font-size="13" lengthAdjust="spacing" textLength="46" x="228.5" y="256.0669">service</text></g><!--link OpenCloseEnrollmentController to Course--><g id="link_OpenCloseEnrollmentController_Course"><path codeLine="21" d="M193.024,213.022 C179.381,222.334 164.157,232.951 150.5,243 C131.685,256.844 111.259,272.806 94.2689,286.354 " fill="none" id="OpenCloseEnrollmentController-to-Course" style="stroke:#181818;stroke-width:1.0;"/><polygon fill="#181818" points="90.0265,289.744,99.5549,287.252,93.9331,286.6233,94.5618,281.0015,90.0265,289.744" style="stroke:#181818;stroke-width:1.0;"/><text fill="#000000" font-family="sans-serif" font-size="13" lengthAdjust="spacing" textLength="66" x="151.5" y="256.0669">theCourse</text></g><!--SRC=[ZL2z2i8m4Dxp5DcgGrz0Ia6gWo0A5YTn2ErX0p4NSb4HyTszQgr8Qp5Blak-loJAZ2824aMzoxK3cnaac5kFnXp1Xkr29edpG8nLq6ZJLDw4v5LYNk5bD1PtqSWpF7a2vi_mgFIJsTxrM6TeGut1isJgdD55ct1lP4jDuMMRWp_h0lgeN_4RS4WweByojHqqKCEDPi1LIh05dud-5yUxKb45vJvE6rVHBT8bVQ8vPgNE-l0i-Ik4TSE_Cf6XWiyiXjbnJm-sy3pyeUo-RoBfXVxEVHUkyGC0]--></g></svg>