<?xml version="1.0" encoding="us-ascii" standalone="no"?><svg xmlns="http://www.w3.org/2000/svg" xmlns:xlink="http://www.w3.org/1999/xlink" contentStyleType="text/css" height="478px" preserveAspectRatio="none" style="width:1363px;height:478px;background:#FFFFFF;" version="1.1" viewBox="0 0 1363 478" width="1363px" zoomAndPan="magnify"><defs/><g><text fill="#000000" font-family="sans-serif" font-size="25" font-weight="bold" lengthAdjust="spacing" text-decoration="underline" textLength="501" x="424" y="33.2056">Classes de Dom&#237;nio para a US 1003</text><!--cluster <<aggregate>> Manager--><g id="cluster_&lt;&lt;aggregate&gt;&gt; Manager"><path d="M932.5,224.1016 L1109.5,224.1016 A3.75,3.75 0 0 1 1112,226.6016 L1119,246.3984 L1119.5,246.3984 A2.5,2.5 0 0 1 1122,248.8984 L1122,342.6016 A2.5,2.5 0 0 1 1119.5,345.1016 L932.5,345.1016 A2.5,2.5 0 0 1 930,342.6016 L930,226.6016 A2.5,2.5 0 0 1 932.5,224.1016 " fill="none" style="stroke:#000000;stroke-width:1.5;"/><line style="stroke:#000000;stroke-width:1.5;" x1="930" x2="1119" y1="246.3984" y2="246.3984"/><text fill="#000000" font-family="sans-serif" font-size="14" font-weight="bold" lengthAdjust="spacing" textLength="176" x="934" y="239.0967">&#171;aggregate&#187; Manager</text></g><!--cluster <<aggregate>> Course--><g id="cluster_&lt;&lt;aggregate&gt;&gt; Course"><path d="M8.5,56.1016 L170.5,56.1016 A3.75,3.75 0 0 1 173,58.6016 L180,78.3984 L903.5,78.3984 A2.5,2.5 0 0 1 906,80.8984 L906,468.6016 A2.5,2.5 0 0 1 903.5,471.1016 L8.5,471.1016 A2.5,2.5 0 0 1 6,468.6016 L6,58.6016 A2.5,2.5 0 0 1 8.5,56.1016 " fill="none" style="stroke:#000000;stroke-width:1.5;"/><line style="stroke:#000000;stroke-width:1.5;" x1="6" x2="180" y1="78.3984" y2="78.3984"/><text fill="#000000" font-family="sans-serif" font-size="14" font-weight="bold" lengthAdjust="spacing" textLength="161" x="10" y="71.0967">&#171;aggregate&#187; Course</text></g><!--cluster <<aggregate>> Enrollment--><g id="cluster_&lt;&lt;aggregate&gt;&gt; Enrollment"><path d="M1148.5,224.1016 L1343.5,224.1016 A3.75,3.75 0 0 1 1346,226.6016 L1353,246.3984 L1353.5,246.3984 A2.5,2.5 0 0 1 1356,248.8984 L1356,469.1016 A2.5,2.5 0 0 1 1353.5,471.6016 L1148.5,471.6016 A2.5,2.5 0 0 1 1146,469.1016 L1146,226.6016 A2.5,2.5 0 0 1 1148.5,224.1016 " fill="none" style="stroke:#000000;stroke-width:1.5;"/><line style="stroke:#000000;stroke-width:1.5;" x1="1146" x2="1353" y1="246.3984" y2="246.3984"/><text fill="#000000" font-family="sans-serif" font-size="14" font-weight="bold" lengthAdjust="spacing" textLength="194" x="1150" y="239.0967">&#171;aggregate&#187; Enrollment</text></g><!--class Manager--><g id="elem_Manager"><rect codeLine="8" fill="#F1F1F1" height="70.2344" id="Manager" rx="2.5" ry="2.5" style="stroke:#181818;stroke-width:0.5;" width="93" x="946.5" y="259.1016"/><ellipse cx="961.5" cy="286.2188" fill="#ADD1B2" rx="11" ry="11" style="stroke:#181818;stroke-width:1.0;"/><path d="M960.2969,287.0938 L961.75,287.0938 L961.75,287.2031 C961.75,287.6094 961.7813,287.7656 961.8594,287.9219 C962.0156,288.1719 962.2969,288.3281 962.5938,288.3281 C962.8438,288.3281 963.1094,288.1875 963.2656,287.9688 C963.3906,287.8125 963.4219,287.6563 963.4219,287.2031 L963.4219,285.2813 C963.4219,285.125 963.4219,285.0781 963.4063,284.9219 C963.3438,284.4531 963.0313,284.1406 962.5781,284.1406 C962.3281,284.1406 962.0625,284.2813 961.8906,284.5 C961.7813,284.6719 961.75,284.8281 961.75,285.2813 L961.75,285.4063 L960.2969,285.4063 L960.2969,283 L964.2813,283 L964.2813,283.8594 C964.2813,284.2656 964.3125,284.4375 964.3906,284.5938 C964.5625,284.8438 964.8438,285 965.125,285 C965.3906,285 965.6563,284.8594 965.8281,284.6406 C965.9375,284.4688 965.9688,284.3281 965.9688,283.8594 L965.9688,281.3125 L958.3438,281.3125 C957.9063,281.3125 957.7813,281.3281 957.625,281.4219 C957.375,281.5781 957.2188,281.875 957.2188,282.1563 C957.2188,282.4375 957.3594,282.6875 957.5781,282.8594 C957.7344,282.9688 957.9219,283 958.3438,283 L958.5938,283 L958.5938,289.5156 L958.3438,289.5156 C957.9375,289.5156 957.7813,289.5313 957.625,289.6406 C957.375,289.8125 957.2188,290.0781 957.2188,290.375 C957.2188,290.6406 957.3594,290.8906 957.5781,291.0469 C957.7188,291.1719 957.9531,291.2188 958.3438,291.2188 L966.3438,291.2188 L966.3438,288.6406 C966.3438,288.2031 966.3125,288.0625 966.2344,287.9063 C966.0625,287.6563 965.7813,287.5 965.5,287.5 C965.2344,287.5 964.9688,287.6094 964.7969,287.8594 C964.6875,288.0156 964.6563,288.1563 964.6563,288.6406 L964.6563,289.5156 L960.2969,289.5156 L960.2969,287.0938 Z " fill="#000000"/><text fill="#000000" font-family="sans-serif" font-size="12" font-style="italic" lengthAdjust="spacing" textLength="49" x="981.5" y="275.2402">&#171;entity&#187;</text><text fill="#000000" font-family="sans-serif" font-size="12" font-style="italic" lengthAdjust="spacing" textLength="38" x="987" y="289.209">&#171;root&#187;</text><text fill="#000000" font-family="sans-serif" font-size="14" lengthAdjust="spacing" textLength="61" x="975.5" y="305.0342">Manager</text><line style="stroke:#181818;stroke-width:0.5;" x1="947.5" x2="1038.5" y1="313.3359" y2="313.3359"/><line style="stroke:#181818;stroke-width:0.5;" x1="947.5" x2="1038.5" y1="321.3359" y2="321.3359"/></g><!--class Course--><g id="elem_Course"><rect codeLine="13" fill="#F1F1F1" height="70.2344" id="Course" rx="2.5" ry="2.5" style="stroke:#181818;stroke-width:0.5;" width="81" x="549.5" y="91.1016"/><ellipse cx="564.5" cy="118.2188" fill="#ADD1B2" rx="11" ry="11" style="stroke:#181818;stroke-width:1.0;"/><path d="M563.2969,119.0938 L564.75,119.0938 L564.75,119.2031 C564.75,119.6094 564.7813,119.7656 564.8594,119.9219 C565.0156,120.1719 565.2969,120.3281 565.5938,120.3281 C565.8438,120.3281 566.1094,120.1875 566.2656,119.9688 C566.3906,119.8125 566.4219,119.6563 566.4219,119.2031 L566.4219,117.2813 C566.4219,117.125 566.4219,117.0781 566.4063,116.9219 C566.3438,116.4531 566.0313,116.1406 565.5781,116.1406 C565.3281,116.1406 565.0625,116.2813 564.8906,116.5 C564.7813,116.6719 564.75,116.8281 564.75,117.2813 L564.75,117.4063 L563.2969,117.4063 L563.2969,115 L567.2813,115 L567.2813,115.8594 C567.2813,116.2656 567.3125,116.4375 567.3906,116.5938 C567.5625,116.8438 567.8438,117 568.125,117 C568.3906,117 568.6563,116.8594 568.8281,116.6406 C568.9375,116.4688 568.9688,116.3281 568.9688,115.8594 L568.9688,113.3125 L561.3438,113.3125 C560.9063,113.3125 560.7813,113.3281 560.625,113.4219 C560.375,113.5781 560.2188,113.875 560.2188,114.1563 C560.2188,114.4375 560.3594,114.6875 560.5781,114.8594 C560.7344,114.9688 560.9219,115 561.3438,115 L561.5938,115 L561.5938,121.5156 L561.3438,121.5156 C560.9375,121.5156 560.7813,121.5313 560.625,121.6406 C560.375,121.8125 560.2188,122.0781 560.2188,122.375 C560.2188,122.6406 560.3594,122.8906 560.5781,123.0469 C560.7188,123.1719 560.9531,123.2188 561.3438,123.2188 L569.3438,123.2188 L569.3438,120.6406 C569.3438,120.2031 569.3125,120.0625 569.2344,119.9063 C569.0625,119.6563 568.7813,119.5 568.5,119.5 C568.2344,119.5 567.9688,119.6094 567.7969,119.8594 C567.6875,120.0156 567.6563,120.1563 567.6563,120.6406 L567.6563,121.5156 L563.2969,121.5156 L563.2969,119.0938 Z " fill="#000000"/><text fill="#000000" font-family="sans-serif" font-size="12" font-style="italic" lengthAdjust="spacing" textLength="49" x="578.5" y="107.2402">&#171;entity&#187;</text><text fill="#000000" font-family="sans-serif" font-size="12" font-style="italic" lengthAdjust="spacing" textLength="38" x="584" y="121.209">&#171;root&#187;</text><text fill="#000000" font-family="sans-serif" font-size="14" lengthAdjust="spacing" textLength="49" x="578.5" y="137.0342">Course</text><line style="stroke:#181818;stroke-width:0.5;" x1="550.5" x2="629.5" y1="145.3359" y2="145.3359"/><line style="stroke:#181818;stroke-width:0.5;" x1="550.5" x2="629.5" y1="153.3359" y2="153.3359"/></g><!--class CourseTitle--><g id="elem_CourseTitle"><rect codeLine="14" fill="#F1F1F1" height="56.2656" id="CourseTitle" rx="2.5" ry="2.5" style="stroke:#181818;stroke-width:0.5;" width="115" x="22.5" y="266.1016"/><ellipse cx="37.5" cy="286.2344" fill="#FF8B40" rx="11" ry="11" style="stroke:#181818;stroke-width:1.0;"/><path d="M37.6563,289.7813 L35.2031,284.0156 L35.5313,284.0156 C35.9375,284.0156 36.0938,283.9844 36.2344,283.9063 C36.5,283.75 36.6406,283.4688 36.6406,283.1719 C36.6406,282.9063 36.5156,282.6406 36.3125,282.4688 C36.1406,282.3594 35.9688,282.3281 35.5313,282.3281 L33.2656,282.3281 C32.8281,282.3281 32.7031,282.3438 32.5469,282.4375 C32.2969,282.5938 32.1406,282.8906 32.1406,283.1719 C32.1406,283.5156 32.375,283.8594 32.6719,283.9531 C32.8281,284 32.9531,284.0156 33.2969,284.0156 L36.7344,292.2344 L38.4219,292.2344 L41.9063,284.0156 C42.2656,284.0156 42.375,284 42.5313,283.9531 C42.8125,283.8594 43.0625,283.5156 43.0625,283.1719 C43.0625,282.9063 42.9219,282.6406 42.7031,282.4688 C42.5469,282.3594 42.375,282.3281 41.9375,282.3281 L39.6875,282.3281 C39.25,282.3281 39.125,282.3438 38.9844,282.4375 C38.7188,282.5938 38.5625,282.8906 38.5625,283.1719 C38.5625,283.4531 38.7031,283.7031 38.9063,283.875 C39.0938,283.9844 39.2344,284.0156 39.6875,284.0156 L40.0938,284.0156 L37.6563,289.7813 Z " fill="#000000"/><text fill="#000000" font-family="sans-serif" font-size="12" font-style="italic" lengthAdjust="spacing" textLength="87" x="49.5" y="282.2402">&#171;value object&#187;</text><text fill="#000000" font-family="sans-serif" font-size="14" lengthAdjust="spacing" textLength="82" x="52" y="298.0654">CourseTitle</text><line style="stroke:#181818;stroke-width:0.5;" x1="23.5" x2="136.5" y1="306.3672" y2="306.3672"/><line style="stroke:#181818;stroke-width:0.5;" x1="23.5" x2="136.5" y1="314.3672" y2="314.3672"/></g><!--class CourseCode--><g id="elem_CourseCode"><rect codeLine="15" fill="#F1F1F1" height="56.2656" id="CourseCode" rx="2.5" ry="2.5" style="stroke:#181818;stroke-width:0.5;" width="118" x="173" y="266.1016"/><ellipse cx="188" cy="286.2344" fill="#FF8B40" rx="11" ry="11" style="stroke:#181818;stroke-width:1.0;"/><path d="M188.1563,289.7813 L185.7031,284.0156 L186.0313,284.0156 C186.4375,284.0156 186.5938,283.9844 186.7344,283.9063 C187,283.75 187.1406,283.4688 187.1406,283.1719 C187.1406,282.9063 187.0156,282.6406 186.8125,282.4688 C186.6406,282.3594 186.4688,282.3281 186.0313,282.3281 L183.7656,282.3281 C183.3281,282.3281 183.2031,282.3438 183.0469,282.4375 C182.7969,282.5938 182.6406,282.8906 182.6406,283.1719 C182.6406,283.5156 182.875,283.8594 183.1719,283.9531 C183.3281,284 183.4531,284.0156 183.7969,284.0156 L187.2344,292.2344 L188.9219,292.2344 L192.4063,284.0156 C192.7656,284.0156 192.875,284 193.0313,283.9531 C193.3125,283.8594 193.5625,283.5156 193.5625,283.1719 C193.5625,282.9063 193.4219,282.6406 193.2031,282.4688 C193.0469,282.3594 192.875,282.3281 192.4375,282.3281 L190.1875,282.3281 C189.75,282.3281 189.625,282.3438 189.4844,282.4375 C189.2188,282.5938 189.0625,282.8906 189.0625,283.1719 C189.0625,283.4531 189.2031,283.7031 189.4063,283.875 C189.5938,283.9844 189.7344,284.0156 190.1875,284.0156 L190.5938,284.0156 L188.1563,289.7813 Z " fill="#000000"/><text fill="#000000" font-family="sans-serif" font-size="12" font-style="italic" lengthAdjust="spacing" textLength="87" x="201.5" y="282.2402">&#171;value object&#187;</text><text fill="#000000" font-family="sans-serif" font-size="14" lengthAdjust="spacing" textLength="86" x="202" y="298.0654">CourseCode</text><line style="stroke:#181818;stroke-width:0.5;" x1="174" x2="290" y1="306.3672" y2="306.3672"/><line style="stroke:#181818;stroke-width:0.5;" x1="174" x2="290" y1="314.3672" y2="314.3672"/></g><!--class CourseDescription--><g id="elem_CourseDescription"><rect codeLine="16" fill="#F1F1F1" height="56.2656" id="CourseDescription" rx="2.5" ry="2.5" style="stroke:#181818;stroke-width:0.5;" width="165" x="326.5" y="266.1016"/><ellipse cx="341.5" cy="286.2344" fill="#FF8B40" rx="11" ry="11" style="stroke:#181818;stroke-width:1.0;"/><path d="M341.6563,289.7813 L339.2031,284.0156 L339.5313,284.0156 C339.9375,284.0156 340.0938,283.9844 340.2344,283.9063 C340.5,283.75 340.6406,283.4688 340.6406,283.1719 C340.6406,282.9063 340.5156,282.6406 340.3125,282.4688 C340.1406,282.3594 339.9688,282.3281 339.5313,282.3281 L337.2656,282.3281 C336.8281,282.3281 336.7031,282.3438 336.5469,282.4375 C336.2969,282.5938 336.1406,282.8906 336.1406,283.1719 C336.1406,283.5156 336.375,283.8594 336.6719,283.9531 C336.8281,284 336.9531,284.0156 337.2969,284.0156 L340.7344,292.2344 L342.4219,292.2344 L345.9063,284.0156 C346.2656,284.0156 346.375,284 346.5313,283.9531 C346.8125,283.8594 347.0625,283.5156 347.0625,283.1719 C347.0625,282.9063 346.9219,282.6406 346.7031,282.4688 C346.5469,282.3594 346.375,282.3281 345.9375,282.3281 L343.6875,282.3281 C343.25,282.3281 343.125,282.3438 342.9844,282.4375 C342.7188,282.5938 342.5625,282.8906 342.5625,283.1719 C342.5625,283.4531 342.7031,283.7031 342.9063,283.875 C343.0938,283.9844 343.2344,284.0156 343.6875,284.0156 L344.0938,284.0156 L341.6563,289.7813 Z " fill="#000000"/><text fill="#000000" font-family="sans-serif" font-size="12" font-style="italic" lengthAdjust="spacing" textLength="87" x="378.5" y="282.2402">&#171;value object&#187;</text><text fill="#000000" font-family="sans-serif" font-size="14" lengthAdjust="spacing" textLength="133" x="355.5" y="298.0654">CourseDescription</text><line style="stroke:#181818;stroke-width:0.5;" x1="327.5" x2="490.5" y1="306.3672" y2="306.3672"/><line style="stroke:#181818;stroke-width:0.5;" x1="327.5" x2="490.5" y1="314.3672" y2="314.3672"/></g><!--class CourseStatus--><g id="elem_CourseStatus"><rect codeLine="17" fill="#F1F1F1" height="56.2656" id="CourseStatus" rx="2.5" ry="2.5" style="stroke:#181818;stroke-width:0.5;" width="127" x="526.5" y="266.1016"/><ellipse cx="541.5" cy="286.2344" fill="#FF8B40" rx="11" ry="11" style="stroke:#181818;stroke-width:1.0;"/><path d="M541.6563,289.7813 L539.2031,284.0156 L539.5313,284.0156 C539.9375,284.0156 540.0938,283.9844 540.2344,283.9063 C540.5,283.75 540.6406,283.4688 540.6406,283.1719 C540.6406,282.9063 540.5156,282.6406 540.3125,282.4688 C540.1406,282.3594 539.9688,282.3281 539.5313,282.3281 L537.2656,282.3281 C536.8281,282.3281 536.7031,282.3438 536.5469,282.4375 C536.2969,282.5938 536.1406,282.8906 536.1406,283.1719 C536.1406,283.5156 536.375,283.8594 536.6719,283.9531 C536.8281,284 536.9531,284.0156 537.2969,284.0156 L540.7344,292.2344 L542.4219,292.2344 L545.9063,284.0156 C546.2656,284.0156 546.375,284 546.5313,283.9531 C546.8125,283.8594 547.0625,283.5156 547.0625,283.1719 C547.0625,282.9063 546.9219,282.6406 546.7031,282.4688 C546.5469,282.3594 546.375,282.3281 545.9375,282.3281 L543.6875,282.3281 C543.25,282.3281 543.125,282.3438 542.9844,282.4375 C542.7188,282.5938 542.5625,282.8906 542.5625,283.1719 C542.5625,283.4531 542.7031,283.7031 542.9063,283.875 C543.0938,283.9844 543.2344,284.0156 543.6875,284.0156 L544.0938,284.0156 L541.6563,289.7813 Z " fill="#000000"/><text fill="#000000" font-family="sans-serif" font-size="12" font-style="italic" lengthAdjust="spacing" textLength="87" x="559.5" y="282.2402">&#171;value object&#187;</text><text fill="#000000" font-family="sans-serif" font-size="14" lengthAdjust="spacing" textLength="95" x="555.5" y="298.0654">CourseStatus</text><line style="stroke:#181818;stroke-width:0.5;" x1="527.5" x2="652.5" y1="306.3672" y2="306.3672"/><line style="stroke:#181818;stroke-width:0.5;" x1="527.5" x2="652.5" y1="314.3672" y2="314.3672"/></g><g id="elem_GMN10"><path d="M490,400.1016 L490,455.5 A0,0 0 0 0 490,455.5 L690,455.5 A0,0 0 0 0 690,455.5 L690,410.1016 L680,400.1016 L594,400.1016 L590,322.3486 L586,400.1016 L490,400.1016 A0,0 0 0 0 490,400.1016 " fill="#FEFFDD" style="stroke:#181818;stroke-width:0.5;"/><path d="M680,400.1016 L680,410.1016 L690,410.1016 L680,400.1016 " fill="#FEFFDD" style="stroke:#181818;stroke-width:0.5;"/><text fill="#000000" font-family="sans-serif" font-size="13" lengthAdjust="spacing" textLength="138" x="496" y="417.1685">Diagrama de estados</text><text fill="#000000" font-family="sans-serif" font-size="13" lengthAdjust="spacing" textLength="149" x="496" y="432.3013">dispon&#237;vel com o nome</text><text fill="#000000" font-family="sans-serif" font-size="13" lengthAdjust="spacing" textLength="179" x="496" y="447.4341">"course-status-user-stories"</text></g><!--class CourseEnrolmentLimits--><g id="elem_CourseEnrolmentLimits"><rect codeLine="23" fill="#F1F1F1" height="88.8594" id="CourseEnrolmentLimits" rx="2.5" ry="2.5" style="stroke:#181818;stroke-width:0.5;" width="201" x="688.5" y="249.6016"/><ellipse cx="703.5" cy="269.7344" fill="#FF8B40" rx="11" ry="11" style="stroke:#181818;stroke-width:1.0;"/><path d="M703.6563,273.2813 L701.2031,267.5156 L701.5313,267.5156 C701.9375,267.5156 702.0938,267.4844 702.2344,267.4063 C702.5,267.25 702.6406,266.9688 702.6406,266.6719 C702.6406,266.4063 702.5156,266.1406 702.3125,265.9688 C702.1406,265.8594 701.9688,265.8281 701.5313,265.8281 L699.2656,265.8281 C698.8281,265.8281 698.7031,265.8438 698.5469,265.9375 C698.2969,266.0938 698.1406,266.3906 698.1406,266.6719 C698.1406,267.0156 698.375,267.3594 698.6719,267.4531 C698.8281,267.5 698.9531,267.5156 699.2969,267.5156 L702.7344,275.7344 L704.4219,275.7344 L707.9063,267.5156 C708.2656,267.5156 708.375,267.5 708.5313,267.4531 C708.8125,267.3594 709.0625,267.0156 709.0625,266.6719 C709.0625,266.4063 708.9219,266.1406 708.7031,265.9688 C708.5469,265.8594 708.375,265.8281 707.9375,265.8281 L705.6875,265.8281 C705.25,265.8281 705.125,265.8438 704.9844,265.9375 C704.7188,266.0938 704.5625,266.3906 704.5625,266.6719 C704.5625,266.9531 704.7031,267.2031 704.9063,267.375 C705.0938,267.4844 705.2344,267.5156 705.6875,267.5156 L706.0938,267.5156 L703.6563,273.2813 Z " fill="#000000"/><text fill="#000000" font-family="sans-serif" font-size="12" font-style="italic" lengthAdjust="spacing" textLength="87" x="758.5" y="265.7402">&#171;value object&#187;</text><text fill="#000000" font-family="sans-serif" font-size="14" lengthAdjust="spacing" textLength="169" x="717.5" y="281.5654">CourseEnrolmentLimits</text><line style="stroke:#181818;stroke-width:0.5;" x1="689.5" x2="888.5" y1="289.8672" y2="289.8672"/><text fill="#000000" font-family="sans-serif" font-size="14" lengthAdjust="spacing" textLength="150" x="694.5" y="306.8623">minimumEnrolments</text><text fill="#000000" font-family="sans-serif" font-size="14" lengthAdjust="spacing" textLength="153" x="694.5" y="323.1592">maximumEnrolments</text><line style="stroke:#181818;stroke-width:0.5;" x1="689.5" x2="888.5" y1="330.4609" y2="330.4609"/></g><!--class Enrollment--><g id="elem_Enrollment"><rect codeLine="31" fill="#F1F1F1" height="70.2344" id="Enrollment" rx="2.5" ry="2.5" style="stroke:#181818;stroke-width:0.5;" width="112" x="1173" y="259.1016"/><ellipse cx="1188" cy="286.2188" fill="#ADD1B2" rx="11" ry="11" style="stroke:#181818;stroke-width:1.0;"/><path d="M1186.7969,287.0938 L1188.25,287.0938 L1188.25,287.2031 C1188.25,287.6094 1188.2813,287.7656 1188.3594,287.9219 C1188.5156,288.1719 1188.7969,288.3281 1189.0938,288.3281 C1189.3438,288.3281 1189.6094,288.1875 1189.7656,287.9688 C1189.8906,287.8125 1189.9219,287.6563 1189.9219,287.2031 L1189.9219,285.2813 C1189.9219,285.125 1189.9219,285.0781 1189.9063,284.9219 C1189.8438,284.4531 1189.5313,284.1406 1189.0781,284.1406 C1188.8281,284.1406 1188.5625,284.2813 1188.3906,284.5 C1188.2813,284.6719 1188.25,284.8281 1188.25,285.2813 L1188.25,285.4063 L1186.7969,285.4063 L1186.7969,283 L1190.7813,283 L1190.7813,283.8594 C1190.7813,284.2656 1190.8125,284.4375 1190.8906,284.5938 C1191.0625,284.8438 1191.3438,285 1191.625,285 C1191.8906,285 1192.1563,284.8594 1192.3281,284.6406 C1192.4375,284.4688 1192.4688,284.3281 1192.4688,283.8594 L1192.4688,281.3125 L1184.8438,281.3125 C1184.4063,281.3125 1184.2813,281.3281 1184.125,281.4219 C1183.875,281.5781 1183.7188,281.875 1183.7188,282.1563 C1183.7188,282.4375 1183.8594,282.6875 1184.0781,282.8594 C1184.2344,282.9688 1184.4219,283 1184.8438,283 L1185.0938,283 L1185.0938,289.5156 L1184.8438,289.5156 C1184.4375,289.5156 1184.2813,289.5313 1184.125,289.6406 C1183.875,289.8125 1183.7188,290.0781 1183.7188,290.375 C1183.7188,290.6406 1183.8594,290.8906 1184.0781,291.0469 C1184.2188,291.1719 1184.4531,291.2188 1184.8438,291.2188 L1192.8438,291.2188 L1192.8438,288.6406 C1192.8438,288.2031 1192.8125,288.0625 1192.7344,287.9063 C1192.5625,287.6563 1192.2813,287.5 1192,287.5 C1191.7344,287.5 1191.4688,287.6094 1191.2969,287.8594 C1191.1875,288.0156 1191.1563,288.1563 1191.1563,288.6406 L1191.1563,289.5156 L1186.7969,289.5156 L1186.7969,287.0938 Z " fill="#000000"/><text fill="#000000" font-family="sans-serif" font-size="12" font-style="italic" lengthAdjust="spacing" textLength="49" x="1217.5" y="275.2402">&#171;entity&#187;</text><text fill="#000000" font-family="sans-serif" font-size="12" font-style="italic" lengthAdjust="spacing" textLength="38" x="1223" y="289.209">&#171;root&#187;</text><text fill="#000000" font-family="sans-serif" font-size="14" lengthAdjust="spacing" textLength="80" x="1202" y="305.0342">Enrollment</text><line style="stroke:#181818;stroke-width:0.5;" x1="1174" x2="1284" y1="313.3359" y2="313.3359"/><line style="stroke:#181818;stroke-width:0.5;" x1="1174" x2="1284" y1="321.3359" y2="321.3359"/></g><!--class EnrollmentStatus--><g id="elem_EnrollmentStatus"><rect codeLine="32" fill="#F1F1F1" height="56.2656" id="EnrollmentStatus" rx="2.5" ry="2.5" style="stroke:#181818;stroke-width:0.5;" width="158" x="1162" y="399.6016"/><ellipse cx="1177" cy="419.7344" fill="#FF8B40" rx="11" ry="11" style="stroke:#181818;stroke-width:1.0;"/><path d="M1177.1563,423.2813 L1174.7031,417.5156 L1175.0313,417.5156 C1175.4375,417.5156 1175.5938,417.4844 1175.7344,417.4063 C1176,417.25 1176.1406,416.9688 1176.1406,416.6719 C1176.1406,416.4063 1176.0156,416.1406 1175.8125,415.9688 C1175.6406,415.8594 1175.4688,415.8281 1175.0313,415.8281 L1172.7656,415.8281 C1172.3281,415.8281 1172.2031,415.8438 1172.0469,415.9375 C1171.7969,416.0938 1171.6406,416.3906 1171.6406,416.6719 C1171.6406,417.0156 1171.875,417.3594 1172.1719,417.4531 C1172.3281,417.5 1172.4531,417.5156 1172.7969,417.5156 L1176.2344,425.7344 L1177.9219,425.7344 L1181.4063,417.5156 C1181.7656,417.5156 1181.875,417.5 1182.0313,417.4531 C1182.3125,417.3594 1182.5625,417.0156 1182.5625,416.6719 C1182.5625,416.4063 1182.4219,416.1406 1182.2031,415.9688 C1182.0469,415.8594 1181.875,415.8281 1181.4375,415.8281 L1179.1875,415.8281 C1178.75,415.8281 1178.625,415.8438 1178.4844,415.9375 C1178.2188,416.0938 1178.0625,416.3906 1178.0625,416.6719 C1178.0625,416.9531 1178.2031,417.2031 1178.4063,417.375 C1178.5938,417.4844 1178.7344,417.5156 1179.1875,417.5156 L1179.5938,417.5156 L1177.1563,423.2813 Z " fill="#000000"/><text fill="#000000" font-family="sans-serif" font-size="12" font-style="italic" lengthAdjust="spacing" textLength="87" x="1210.5" y="415.7402">&#171;value object&#187;</text><text fill="#000000" font-family="sans-serif" font-size="14" lengthAdjust="spacing" textLength="126" x="1191" y="431.5654">EnrollmentStatus</text><line style="stroke:#181818;stroke-width:0.5;" x1="1163" x2="1319" y1="439.8672" y2="439.8672"/><line style="stroke:#181818;stroke-width:0.5;" x1="1163" x2="1319" y1="447.8672" y2="447.8672"/></g><!--link Course to CourseTitle--><g id="link_Course_CourseTitle"><path codeLine="36" d="M549.216,127.6036 C468.844,130.2146 286.394,144.2896 155,216.1016 C134.62,227.2396 116.33,245.7466 102.915,261.8246 " fill="none" id="Course-to-CourseTitle" style="stroke:#181818;stroke-width:1.0;"/><polygon fill="#181818" points="99.611,265.8546,108.4109,261.4316,102.7815,261.9883,102.2248,256.3589,99.611,265.8546" style="stroke:#181818;stroke-width:1.0;"/></g><!--link Course to CourseCode--><g id="link_Course_CourseCode"><path codeLine="37" d="M549.316,133.6786 C492.287,144.2476 386.842,168.7966 309,216.1016 C289.191,228.1396 270.694,246.3096 256.796,261.9756 " fill="none" id="Course-to-CourseCode" style="stroke:#181818;stroke-width:1.0;"/><polygon fill="#181818" points="253.364,265.8996,262.3011,261.7609,256.6567,262.1369,256.2807,256.4925,253.364,265.8996" style="stroke:#181818;stroke-width:1.0;"/></g><!--link Course to CourseDescription--><g id="link_Course_CourseDescription"><path codeLine="38" d="M552.497,161.4966 C520.059,191.2466 473.596,233.8586 442.414,262.4566 " fill="none" id="Course-to-CourseDescription" style="stroke:#181818;stroke-width:1.0;"/><polygon fill="#181818" points="438.689,265.8726,448.0256,262.7377,442.3741,262.4932,442.6186,256.8416,438.689,265.8726" style="stroke:#181818;stroke-width:1.0;"/></g><!--link Course to CourseStatus--><g id="link_Course_CourseStatus"><path codeLine="39" d="M590,161.4966 C590,190.6416 590,232.1316 590,260.6956 " fill="none" id="Course-to-CourseStatus" style="stroke:#181818;stroke-width:1.0;"/><polygon fill="#181818" points="590,265.8726,594,256.8726,590,260.8726,586,256.8726,590,265.8726" style="stroke:#181818;stroke-width:1.0;"/></g><!--link Course to CourseEnrolmentLimits--><g id="link_Course_CourseEnrolmentLimits"><path codeLine="40" d="M630.751,161.0946 C660.144,185.6136 700.194,219.0226 732.649,246.0946 " fill="none" id="Course-to-CourseEnrolmentLimits" style="stroke:#181818;stroke-width:1.0;"/><polygon fill="#181818" points="736.568,249.3646,732.2202,240.5273,732.7289,246.1613,727.0949,246.6699,736.568,249.3646" style="stroke:#181818;stroke-width:1.0;"/></g><!--link Course to Manager--><g id="link_Course_Manager"><path codeLine="41" d="M630.608,132.5766 C692.974,142.2606 814.693,166.2776 906,216.1016 C924.771,226.3446 942.915,241.3086 957.733,255.3276 " fill="none" id="Course-to-Manager" style="stroke:#181818;stroke-width:1.0;"/><polygon fill="#181818" points="961.427,258.8686,957.6973,249.7532,957.8173,255.4088,952.1617,255.5288,961.427,258.8686" style="stroke:#181818;stroke-width:1.0;"/><polygon fill="#000000" points="900.6813,201.4246,893.2453,195.4953,891.1803,200.9984,900.6813,201.4246" style="stroke:#000000;stroke-width:1.0;"/><text fill="#000000" font-family="sans-serif" font-size="13" lengthAdjust="spacing" textLength="95" x="905" y="204.1685">is managed by</text><text fill="#000000" font-family="sans-serif" font-size="13" lengthAdjust="spacing" textLength="23" x="638.587" y="146.7756">0..*</text><text fill="#000000" font-family="sans-serif" font-size="13" lengthAdjust="spacing" textLength="23" x="930.4854" y="248.0472">1..*</text></g><!--link Course to Enrollment--><g id="link_Course_Enrollment"><path codeLine="42" d="M630.698,129.4956 C706.552,134.7896 874.081,150.4206 1009,191.1016 C1065,207.9876 1125.02,236.5886 1168.2,259.2156 " fill="none" id="Course-to-Enrollment" style="stroke:#181818;stroke-width:1.0;"/><polygon fill="#181818" points="1172.85,261.6636,1166.7487,253.9322,1168.4254,259.3348,1163.0228,261.0115,1172.85,261.6636" style="stroke:#181818;stroke-width:1.0;"/><polygon fill="#000000" points="1062.8605,200.841,1054.7573,195.8621,1053.3783,201.5759,1062.8605,200.841" style="stroke:#000000;stroke-width:1.0;"/><text fill="#000000" font-family="sans-serif" font-size="13" lengthAdjust="spacing" textLength="23" x="1067" y="204.1685">has</text><text fill="#000000" font-family="sans-serif" font-size="13" lengthAdjust="spacing" textLength="8" x="638.3805" y="125.848">1</text><text fill="#000000" font-family="sans-serif" font-size="13" lengthAdjust="spacing" textLength="23" x="1142.028" y="254.1068">0..*</text></g><!--link Enrollment to EnrollmentStatus--><g id="link_Enrollment_EnrollmentStatus"><path codeLine="44" d="M1232.12,329.3086 C1233.94,349.2876 1236.23,374.3586 1238.03,394.047 " fill="none" id="Enrollment-to-EnrollmentStatus" style="stroke:#181818;stroke-width:1.0;"/><polygon fill="#181818" points="1238.5,399.1887,1241.6663,389.8626,1238.046,394.2093,1233.6993,390.589,1238.5,399.1887" style="stroke:#181818;stroke-width:1.0;"/></g><!--SRC=[bLF9JiCm4BtxAqRXm282BOk4a9K3BJt1gS3TJKR147iYss4LdyHNy6FOJhgef09ySkQzDpEUUN5KWoEOaNEae906SoT9CsOVfQw54GgST1LEIBkfV4CuEcKn0Bp9HfMm5YqK26DINvzQ4WGD2BYTmd0mEEQ7JSROzhNGeaJ3Qf4_-Wiad8koD5WAXra67Pp0EmD_KFiAh_CeSDu6F95pG-IoZ7tuf2DgZCLDELjqBMKRxCqOM7buJqUwQH_9T-xsOMioERiu6Up2awWQ19ez-2drQ4PK_5SoHfiRMOUP_rCvTS8rzWyYJGwx1SVlSCPIb7wt8gmEhHC5sGLMI5kJ_lfymWfoRmho6HGku2IFvLCRwwUDHUFlP2JQf9jr4Ml-wFXI6wgK7_sLLDBzqdgtk72Kr58rQY5Vjgh4Im_o4UqHWp6woI9BnffDbi0lLbaI_xGDtnRhB9WMzApJRDLi_L3mL3-oOfr-GjjJFxQsYpaf6HmSx2MGUbuoZDVvNtWEqlfvXuy2Pg-GBIJ3ZjzALsPt3lV2UY9RYSsxM9_SDm00]--></g></svg>