<?xml version="1.0" encoding="us-ascii" standalone="no"?><svg xmlns="http://www.w3.org/2000/svg" xmlns:xlink="http://www.w3.org/1999/xlink" contentStyleType="text/css" height="815px" preserveAspectRatio="none" style="width:1712px;height:815px;background:#FFFFFF;" version="1.1" viewBox="0 0 1712 815" width="1712px" zoomAndPan="magnify"><defs/><g><text fill="#000000" font-family="sans-serif" font-size="14" font-weight="bold" lengthAdjust="spacing" textLength="270" x="722.75" y="27.9951">Sequence Diagram (SD) - US 1003</text><rect fill="#FFFFFF" height="572.3906" style="stroke:#181818;stroke-width:1.0;" width="10" x="33" y="130.8906"/><rect fill="#FFFFFF" height="551.2578" style="stroke:#181818;stroke-width:1.0;" width="10" x="448" y="152.0234"/><rect fill="#FFFFFF" height="29.1328" style="stroke:#181818;stroke-width:1.0;" width="10" x="1126" y="239.4219"/><rect fill="#FFFFFF" height="29.1328" style="stroke:#181818;stroke-width:1.0;" width="10" x="1126" y="297.6875"/><rect fill="#FFFFFF" height="117.3984" style="stroke:#181818;stroke-width:1.0;" width="10" x="1126" y="556.75"/><rect fill="#FFFFFF" height="30" style="stroke:#181818;stroke-width:1.0;" width="10" x="1485.5" y="585.8828"/><line style="stroke:#181818;stroke-width:0.5;stroke-dasharray:5.0,5.0;" x1="38" x2="38" y1="120.8906" y2="721.2813"/><line style="stroke:#181818;stroke-width:0.5;stroke-dasharray:5.0,5.0;" x1="452.5" x2="452.5" y1="120.8906" y2="721.2813"/><line style="stroke:#181818;stroke-width:0.5;stroke-dasharray:5.0,5.0;" x1="1130.5" x2="1130.5" y1="120.8906" y2="721.2813"/><line style="stroke:#181818;stroke-width:0.5;stroke-dasharray:5.0,5.0;" x1="1334.5" x2="1334.5" y1="120.8906" y2="721.2813"/><line style="stroke:#181818;stroke-width:0.5;stroke-dasharray:5.0,5.0;" x1="1490.5" x2="1490.5" y1="120.8906" y2="721.2813"/><line style="stroke:#181818;stroke-width:0.5;stroke-dasharray:5.0,5.0;" x1="1642.5" x2="1642.5" y1="120.8906" y2="721.2813"/><text fill="#000000" font-family="sans-serif" font-size="14" lengthAdjust="spacing" textLength="60" x="5" y="117.5889">Gerente</text><ellipse cx="38" cy="53.0938" fill="#E3E3E3" rx="8" ry="8" style="stroke:#181818;stroke-width:0.5;"/><path d="M38,61.0938 L38,88.0938 M25,69.0938 L51,69.0938 M38,88.0938 L25,103.0938 M38,88.0938 L51,103.0938 " fill="none" style="stroke:#181818;stroke-width:0.5;"/><text fill="#000000" font-family="sans-serif" font-size="14" lengthAdjust="spacing" textLength="60" x="5" y="733.2764">Gerente</text><ellipse cx="38" cy="745.0781" fill="#E3E3E3" rx="8" ry="8" style="stroke:#181818;stroke-width:0.5;"/><path d="M38,753.0781 L38,780.0781 M25,761.0781 L51,761.0781 M38,780.0781 L25,795.0781 M38,780.0781 L51,795.0781 " fill="none" style="stroke:#181818;stroke-width:0.5;"/><rect fill="#E3E3E3" height="46.5938" rx="2.5" ry="2.5" style="stroke:#181818;stroke-width:0.5;" width="189" x="358.5" y="73.2969"/><text fill="#000000" font-family="sans-serif" font-size="14" lengthAdjust="spacing" textLength="110" x="396" y="93.292">&#171;presentation&#187;</text><text fill="#000000" font-family="sans-serif" font-size="14" lengthAdjust="spacing" textLength="171" x="369.5" y="109.5889">OpenCloseEnrollmentUI</text><rect fill="#E3E3E3" height="46.5938" rx="2.5" ry="2.5" style="stroke:#181818;stroke-width:0.5;" width="189" x="358.5" y="720.2813"/><text fill="#000000" font-family="sans-serif" font-size="14" lengthAdjust="spacing" textLength="110" x="396" y="740.2764">&#171;presentation&#187;</text><text fill="#000000" font-family="sans-serif" font-size="14" lengthAdjust="spacing" textLength="171" x="369.5" y="756.5732">OpenCloseEnrollmentUI</text><text fill="#000000" font-family="sans-serif" font-size="14" lengthAdjust="spacing" textLength="97" x="1077.5" y="101.292">&#171;application&#187;</text><text fill="#000000" font-family="sans-serif" font-size="14" lengthAdjust="spacing" textLength="231" x="1014.5" y="117.5889">OpenCloseEnrollmentController</text><ellipse cx="1131" cy="72.2969" fill="#E3E3E3" rx="12" ry="12" style="stroke:#181818;stroke-width:0.5;"/><polygon fill="#181818" points="1127,60.2969,1133,55.2969,1131,60.2969,1133,65.2969,1127,60.2969" style="stroke:#181818;stroke-width:1.0;"/><text fill="#000000" font-family="sans-serif" font-size="14" lengthAdjust="spacing" textLength="97" x="1077.5" y="733.2764">&#171;application&#187;</text><text fill="#000000" font-family="sans-serif" font-size="14" lengthAdjust="spacing" textLength="231" x="1014.5" y="749.5732">OpenCloseEnrollmentController</text><ellipse cx="1131" cy="768.875" fill="#E3E3E3" rx="12" ry="12" style="stroke:#181818;stroke-width:0.5;"/><polygon fill="#181818" points="1127,756.875,1133,751.875,1131,756.875,1133,761.875,1127,756.875" style="stroke:#181818;stroke-width:1.0;"/><rect fill="#E3E3E3" height="46.5938" rx="2.5" ry="2.5" style="stroke:#181818;stroke-width:0.5;" width="146" x="1261.5" y="73.2969"/><text fill="#000000" font-family="sans-serif" font-size="14" lengthAdjust="spacing" textLength="97" x="1284" y="93.292">&#171;application&#187;</text><text fill="#000000" font-family="sans-serif" font-size="14" lengthAdjust="spacing" textLength="128" x="1272.5" y="109.5889">ListCourseService</text><rect fill="#E3E3E3" height="46.5938" rx="2.5" ry="2.5" style="stroke:#181818;stroke-width:0.5;" width="146" x="1261.5" y="720.2813"/><text fill="#000000" font-family="sans-serif" font-size="14" lengthAdjust="spacing" textLength="97" x="1284" y="740.2764">&#171;application&#187;</text><text fill="#000000" font-family="sans-serif" font-size="14" lengthAdjust="spacing" textLength="128" x="1272.5" y="756.5732">ListCourseService</text><rect fill="#E3E3E3" height="46.5938" rx="2.5" ry="2.5" style="stroke:#181818;stroke-width:0.5;" width="146" x="1417.5" y="73.2969"/><text fill="#000000" font-family="sans-serif" font-size="14" lengthAdjust="spacing" textLength="69" x="1454" y="93.292">&#171;domain&#187;</text><text fill="#000000" font-family="sans-serif" font-size="14" lengthAdjust="spacing" textLength="128" x="1428.5" y="109.5889">theCourse:Course</text><rect fill="#E3E3E3" height="46.5938" rx="2.5" ry="2.5" style="stroke:#181818;stroke-width:0.5;" width="146" x="1417.5" y="720.2813"/><text fill="#000000" font-family="sans-serif" font-size="14" lengthAdjust="spacing" textLength="69" x="1454" y="740.2764">&#171;domain&#187;</text><text fill="#000000" font-family="sans-serif" font-size="14" lengthAdjust="spacing" textLength="128" x="1428.5" y="756.5732">theCourse:Course</text><text fill="#000000" font-family="sans-serif" font-size="14" lengthAdjust="spacing" textLength="91" x="1592" y="101.292">&#171;repository&#187;</text><text fill="#000000" font-family="sans-serif" font-size="14" lengthAdjust="spacing" textLength="128" x="1577.5" y="117.5889">CourseRepository</text><path d="M1624.5,52.2969 C1624.5,42.2969 1642.5,42.2969 1642.5,42.2969 C1642.5,42.2969 1660.5,42.2969 1660.5,52.2969 L1660.5,78.2969 C1660.5,88.2969 1642.5,88.2969 1642.5,88.2969 C1642.5,88.2969 1624.5,88.2969 1624.5,78.2969 L1624.5,52.2969 " fill="#E3E3E3" style="stroke:#181818;stroke-width:1.5;"/><path d="M1624.5,52.2969 C1624.5,62.2969 1642.5,62.2969 1642.5,62.2969 C1642.5,62.2969 1660.5,62.2969 1660.5,52.2969 " fill="none" style="stroke:#181818;stroke-width:1.5;"/><text fill="#000000" font-family="sans-serif" font-size="14" lengthAdjust="spacing" textLength="91" x="1592" y="733.2764">&#171;repository&#187;</text><text fill="#000000" font-family="sans-serif" font-size="14" lengthAdjust="spacing" textLength="128" x="1577.5" y="749.5732">CourseRepository</text><path d="M1624.5,762.875 C1624.5,752.875 1642.5,752.875 1642.5,752.875 C1642.5,752.875 1660.5,752.875 1660.5,762.875 L1660.5,788.875 C1660.5,798.875 1642.5,798.875 1642.5,798.875 C1642.5,798.875 1624.5,798.875 1624.5,788.875 L1624.5,762.875 " fill="#E3E3E3" style="stroke:#181818;stroke-width:1.5;"/><path d="M1624.5,762.875 C1624.5,772.875 1642.5,772.875 1642.5,772.875 C1642.5,772.875 1660.5,772.875 1660.5,762.875 " fill="none" style="stroke:#181818;stroke-width:1.5;"/><rect fill="#FFFFFF" height="572.3906" style="stroke:#181818;stroke-width:1.0;" width="10" x="33" y="130.8906"/><rect fill="#FFFFFF" height="551.2578" style="stroke:#181818;stroke-width:1.0;" width="10" x="448" y="152.0234"/><rect fill="#FFFFFF" height="29.1328" style="stroke:#181818;stroke-width:1.0;" width="10" x="1126" y="239.4219"/><rect fill="#FFFFFF" height="29.1328" style="stroke:#181818;stroke-width:1.0;" width="10" x="1126" y="297.6875"/><rect fill="#FFFFFF" height="117.3984" style="stroke:#181818;stroke-width:1.0;" width="10" x="1126" y="556.75"/><rect fill="#FFFFFF" height="30" style="stroke:#181818;stroke-width:1.0;" width="10" x="1485.5" y="585.8828"/><polygon fill="#181818" points="436,148.0234,446,152.0234,436,156.0234,440,152.0234" style="stroke:#181818;stroke-width:1.0;"/><line style="stroke:#181818;stroke-width:1.0;" x1="43" x2="442" y1="152.0234" y2="152.0234"/><text fill="#000000" font-family="sans-serif" font-size="13" font-weight="bold" lengthAdjust="spacing" textLength="9" x="50" y="146.9575">1</text><text fill="#000000" font-family="sans-serif" font-size="13" lengthAdjust="spacing" textLength="308" x="63" y="146.9575">Pede para abrir/fechar uma inscri&#231;&#227;o num curso</text><polygon fill="#181818" points="1119,177.1563,1129,181.1563,1119,185.1563,1123,181.1563" style="stroke:#181818;stroke-width:1.0;"/><line style="stroke:#181818;stroke-width:1.0;" x1="458" x2="1125" y1="181.1563" y2="181.1563"/><text fill="#000000" font-family="sans-serif" font-size="13" font-weight="bold" lengthAdjust="spacing" textLength="9" x="465" y="176.0903">2</text><text fill="#000000" font-family="sans-serif" font-size="13" lengthAdjust="spacing" textLength="41" x="478" y="176.0903">create</text><polygon fill="#181818" points="1322.5,206.2891,1332.5,210.2891,1322.5,214.2891,1326.5,210.2891" style="stroke:#181818;stroke-width:1.0;"/><line style="stroke:#181818;stroke-width:1.0;" x1="1131" x2="1328.5" y1="210.2891" y2="210.2891"/><text fill="#000000" font-family="sans-serif" font-size="13" font-weight="bold" lengthAdjust="spacing" textLength="8" x="1138" y="205.2231">3</text><text fill="#000000" font-family="sans-serif" font-size="13" lengthAdjust="spacing" textLength="41" x="1150" y="205.2231">create</text><polygon fill="#181818" points="1114,235.4219,1124,239.4219,1114,243.4219,1118,239.4219" style="stroke:#181818;stroke-width:1.0;"/><line style="stroke:#181818;stroke-width:1.0;" x1="458" x2="1120" y1="239.4219" y2="239.4219"/><text fill="#000000" font-family="sans-serif" font-size="13" font-weight="bold" lengthAdjust="spacing" textLength="9" x="465" y="234.356">4</text><text fill="#000000" font-family="sans-serif" font-size="13" lengthAdjust="spacing" textLength="232" x="478" y="234.356">allOpenCourses = listOpenCourses()</text><polygon fill="#181818" points="1322.5,264.5547,1332.5,268.5547,1322.5,272.5547,1326.5,268.5547" style="stroke:#181818;stroke-width:1.0;"/><line style="stroke:#181818;stroke-width:1.0;" x1="1131" x2="1328.5" y1="268.5547" y2="268.5547"/><text fill="#000000" font-family="sans-serif" font-size="13" font-weight="bold" lengthAdjust="spacing" textLength="9" x="1138" y="263.4888">5</text><text fill="#000000" font-family="sans-serif" font-size="13" lengthAdjust="spacing" textLength="110" x="1151" y="263.4888">allOpenCourses()</text><polygon fill="#181818" points="1114,293.6875,1124,297.6875,1114,301.6875,1118,297.6875" style="stroke:#181818;stroke-width:1.0;"/><line style="stroke:#181818;stroke-width:1.0;" x1="458" x2="1120" y1="297.6875" y2="297.6875"/><text fill="#000000" font-family="sans-serif" font-size="13" font-weight="bold" lengthAdjust="spacing" textLength="9" x="465" y="292.6216">6</text><text fill="#000000" font-family="sans-serif" font-size="13" lengthAdjust="spacing" textLength="234" x="478" y="292.6216">allEnrollCourses = listEnrollCourses()</text><polygon fill="#181818" points="1322.5,322.8203,1332.5,326.8203,1322.5,330.8203,1326.5,326.8203" style="stroke:#181818;stroke-width:1.0;"/><line style="stroke:#181818;stroke-width:1.0;" x1="1131" x2="1328.5" y1="326.8203" y2="326.8203"/><text fill="#000000" font-family="sans-serif" font-size="13" font-weight="bold" lengthAdjust="spacing" textLength="9" x="1138" y="321.7544">7</text><text fill="#000000" font-family="sans-serif" font-size="13" lengthAdjust="spacing" textLength="111" x="1151" y="321.7544">allEnrollCourses()</text><line style="stroke:#181818;stroke-width:1.0;" x1="458" x2="500" y1="355.9531" y2="355.9531"/><line style="stroke:#181818;stroke-width:1.0;" x1="500" x2="500" y1="355.9531" y2="368.9531"/><line style="stroke:#181818;stroke-width:1.0;" x1="459" x2="500" y1="368.9531" y2="368.9531"/><polygon fill="#181818" points="469,364.9531,459,368.9531,469,372.9531,465,368.9531" style="stroke:#181818;stroke-width:1.0;"/><text fill="#000000" font-family="sans-serif" font-size="13" font-weight="bold" lengthAdjust="spacing" textLength="9" x="465" y="350.8872">8</text><text fill="#000000" font-family="sans-serif" font-size="13" lengthAdjust="spacing" textLength="641" x="478" y="350.8872">Mostra a informa&#231;&#227;o das disciplinas que se encontram no estado open e disciplinas no estado enroll</text><polygon fill="#181818" points="54,394.0859,44,398.0859,54,402.0859,50,398.0859" style="stroke:#181818;stroke-width:1.0;"/><line style="stroke:#181818;stroke-width:1.0;stroke-dasharray:2.0,2.0;" x1="48" x2="447" y1="398.0859" y2="398.0859"/><text fill="#000000" font-family="sans-serif" font-size="13" font-weight="bold" lengthAdjust="spacing" textLength="9" x="60" y="393.02">9</text><text fill="#000000" font-family="sans-serif" font-size="13" lengthAdjust="spacing" textLength="197" x="73" y="393.02">Pede para escolher a disciplina</text><polygon fill="#181818" points="436,423.2188,446,427.2188,436,431.2188,440,427.2188" style="stroke:#181818;stroke-width:1.0;"/><line style="stroke:#181818;stroke-width:1.0;" x1="43" x2="442" y1="427.2188" y2="427.2188"/><text fill="#000000" font-family="sans-serif" font-size="13" font-weight="bold" lengthAdjust="spacing" textLength="19" x="50" y="422.1528">10</text><text fill="#000000" font-family="sans-serif" font-size="13" lengthAdjust="spacing" textLength="358" x="73" y="422.1528">Escolhe a disciplina que pretende abrir/fechar inscri&#231;&#245;es</text><line style="stroke:#181818;stroke-width:1.0;" x1="458" x2="500" y1="456.3516" y2="456.3516"/><line style="stroke:#181818;stroke-width:1.0;" x1="500" x2="500" y1="456.3516" y2="469.3516"/><line style="stroke:#181818;stroke-width:1.0;" x1="459" x2="500" y1="469.3516" y2="469.3516"/><polygon fill="#181818" points="469,465.3516,459,469.3516,469,473.3516,465,469.3516" style="stroke:#181818;stroke-width:1.0;"/><text fill="#000000" font-family="sans-serif" font-size="13" font-weight="bold" lengthAdjust="spacing" textLength="18" x="465" y="451.2856">11</text><text fill="#000000" font-family="sans-serif" font-size="13" lengthAdjust="spacing" textLength="244" x="487" y="451.2856">Mostra os dados do curso selecionado</text><polygon fill="#181818" points="54,494.4844,44,498.4844,54,502.4844,50,498.4844" style="stroke:#181818;stroke-width:1.0;"/><line style="stroke:#181818;stroke-width:1.0;" x1="48" x2="447" y1="498.4844" y2="498.4844"/><text fill="#000000" font-family="sans-serif" font-size="13" font-weight="bold" lengthAdjust="spacing" textLength="18" x="60" y="493.4185">12</text><text fill="#000000" font-family="sans-serif" font-size="13" lengthAdjust="spacing" textLength="275" x="82" y="493.4185">Pede a confirma&#231;&#227;o da opera&#231;&#227;o a realizar</text><polygon fill="#181818" points="436,523.6172,446,527.6172,436,531.6172,440,527.6172" style="stroke:#181818;stroke-width:1.0;"/><line style="stroke:#181818;stroke-width:1.0;" x1="43" x2="442" y1="527.6172" y2="527.6172"/><text fill="#000000" font-family="sans-serif" font-size="13" font-weight="bold" lengthAdjust="spacing" textLength="17" x="50" y="522.5513">13</text><text fill="#000000" font-family="sans-serif" font-size="13" lengthAdjust="spacing" textLength="135" x="71" y="522.5513">Confirma a opera&#231;&#227;o</text><polygon fill="#181818" points="1114,552.75,1124,556.75,1114,560.75,1118,556.75" style="stroke:#181818;stroke-width:1.0;"/><line style="stroke:#181818;stroke-width:1.0;" x1="458" x2="1120" y1="556.75" y2="556.75"/><text fill="#000000" font-family="sans-serif" font-size="13" font-weight="bold" lengthAdjust="spacing" textLength="18" x="465" y="551.6841">14</text><text fill="#000000" font-family="sans-serif" font-size="13" lengthAdjust="spacing" textLength="212" x="487" y="551.6841">openCloseEnrollment(theCourse)</text><polygon fill="#181818" points="1473.5,581.8828,1483.5,585.8828,1473.5,589.8828,1477.5,585.8828" style="stroke:#181818;stroke-width:1.0;"/><line style="stroke:#181818;stroke-width:1.0;" x1="1136" x2="1479.5" y1="585.8828" y2="585.8828"/><text fill="#000000" font-family="sans-serif" font-size="13" font-weight="bold" lengthAdjust="spacing" textLength="18" x="1143" y="580.8169">15</text><text fill="#000000" font-family="sans-serif" font-size="13" lengthAdjust="spacing" textLength="73" x="1165" y="580.8169">nextState()</text><polygon fill="#181818" points="1630.5,641.0156,1640.5,645.0156,1630.5,649.0156,1634.5,645.0156" style="stroke:#181818;stroke-width:1.0;"/><line style="stroke:#181818;stroke-width:1.0;" x1="1136" x2="1636.5" y1="645.0156" y2="645.0156"/><text fill="#000000" font-family="sans-serif" font-size="13" font-weight="bold" lengthAdjust="spacing" textLength="18" x="1143" y="639.9497">16</text><text fill="#000000" font-family="sans-serif" font-size="13" lengthAdjust="spacing" textLength="107" x="1165" y="639.9497">save(theCourse)</text><polygon fill="#181818" points="469,670.1484,459,674.1484,469,678.1484,465,674.1484" style="stroke:#181818;stroke-width:1.0;"/><line style="stroke:#181818;stroke-width:1.0;stroke-dasharray:2.0,2.0;" x1="463" x2="1130" y1="674.1484" y2="674.1484"/><text fill="#000000" font-family="sans-serif" font-size="13" font-weight="bold" lengthAdjust="spacing" textLength="18" x="475" y="669.0825">17</text><text fill="#000000" font-family="sans-serif" font-size="13" lengthAdjust="spacing" textLength="66" x="497" y="669.0825">theCourse</text><polygon fill="#181818" points="49,699.2813,39,703.2813,49,707.2813,45,703.2813" style="stroke:#181818;stroke-width:1.0;"/><line style="stroke:#181818;stroke-width:1.0;stroke-dasharray:2.0,2.0;" x1="43" x2="452" y1="703.2813" y2="703.2813"/><text fill="#000000" font-family="sans-serif" font-size="13" font-weight="bold" lengthAdjust="spacing" textLength="18" x="55" y="698.2153">18</text><text fill="#000000" font-family="sans-serif" font-size="13" lengthAdjust="spacing" textLength="202" x="77" y="698.2153">Informa o sucesso da opera&#231;&#227;o</text><!--SRC=[jLIzRjim4Dxv58TCzX0qHJSZzU84HO0MBIfawtAcpZOHYbH9octwEXtw17s2l5YFeYfJiXndYGQRFDvzz_VT-GTbQdHOGMMDbJjdAuBW6XA-VwbHFk2MYl2e2Hp9W6QhSmM_mzB-K6OB6zIUX0Wgi6f1tnioak16uJRgpOgRELp2VG5lhwxU2Mo2DKsr9YS4oc0TN7mWHoRG1Q27xYpOHr1IrMW2N5nVruuyop4eQvPB-6RWSqrcfQsdM-EirXM_tj-r48qIqfh0qcY9TQsLVDvmbTGrkHP0zjTn64TW7vLdwyPvAiZjbKn9w95m35FQ2bM747QKT1VfhuiW7aM90TVeATeuggrNNA_7P9Uql_RIP7UujzLLUmpKrnJuwyvmkUGwBU0BbGIndu1hfzoR3SaTEcWg16MyTEhfpzDl2zmmaEpFjXWzC5SwtXiLuGvLMu1qX9t3WpWgZIi3lMwh_FyR8x8QQjrshhNsy1uqbpwJpEO3X3x6h9am-iw6DlGvyb3IEH_JMIJQ3VCOo5ufa-TyJEUIDJTovPFr8HA5cR6nhi94ZP9fLohFvDRAy9cd7vYnl08Y4C-_iK0-yAu0oxK46cWV7gaDhtV9FZkgvYGbBwtUSPQOeOWfOjycpO5Y6njlaa260GU4xyd-b_nqsfRJv3ZvrwPHu2mrITu4BCrCXb5ZhET6PTMALN3T3NcnebQ_q4tciEfC8JSwCN7sUAlD-jKo5-U8D2HGMZyBCFGp5BnqAQDBXjBkg14JZwXvYcLJngSfdIqsPhF7FOspUm5CMrOsxot5Im8TZiCnFndmBWq4C2SQITwF-dngr7XzYWbnX_iF]--></g></svg>