<?xml version="1.0" encoding="UTF-8" standalone="no"?><svg xmlns="http://www.w3.org/2000/svg" xmlns:xlink="http://www.w3.org/1999/xlink" contentStyleType="text/css" height="425px" preserveAspectRatio="none" style="width:633px;height:425px;background:#FFFFFF;" version="1.1" viewBox="0 0 633 425" width="633px" zoomAndPan="magnify"><defs/><g><rect fill="none" height="26.4883" id="_title" style="stroke:none;stroke-width:1.0;" width="319" x="156.25" y="10"/><text fill="#000000" font-family="sans-serif" font-size="14" font-weight="bold" lengthAdjust="spacing" textLength="309" x="161.25" y="28.5352">System Sequence Diagram (SSD) - US 1003</text><rect fill="#FFFFFF" height="197.1738" style="stroke:#181818;stroke-width:1.0;" width="10" x="30" y="128.9766"/><rect fill="#FFFFFF" height="58.6211" style="stroke:#181818;stroke-width:1.0;" width="10" x="587" y="150.2871"/><rect fill="#FFFFFF" height="29.3105" style="stroke:#181818;stroke-width:1.0;" width="10" x="587" y="238.2188"/><rect fill="#FFFFFF" height="29.3105" style="stroke:#181818;stroke-width:1.0;" width="10" x="587" y="296.8398"/><line style="stroke:#181818;stroke-width:0.5;stroke-dasharray:5.0,5.0;" x1="35" x2="35" y1="118.9766" y2="344.1504"/><line style="stroke:#181818;stroke-width:0.5;stroke-dasharray:5.0,5.0;" x1="591.5" x2="591.5" y1="118.9766" y2="344.1504"/><text fill="#000000" font-family="sans-serif" font-size="14" lengthAdjust="spacing" textLength="54" x="5" y="116.0234">Gerente</text><ellipse cx="35" cy="50.9883" fill="#E3E3E3" rx="8" ry="8" style="stroke:#181818;stroke-width:0.5;"/><path d="M35,58.9883 L35,85.9883 M22,66.9883 L48,66.9883 M35,85.9883 L22,100.9883 M35,85.9883 L48,100.9883 " fill="none" style="stroke:#181818;stroke-width:0.5;"/><text fill="#000000" font-family="sans-serif" font-size="14" lengthAdjust="spacing" textLength="54" x="5" y="356.6855">Gerente</text><ellipse cx="35" cy="368.1387" fill="#E3E3E3" rx="8" ry="8" style="stroke:#181818;stroke-width:0.5;"/><path d="M35,376.1387 L35,403.1387 M22,384.1387 L48,384.1387 M35,403.1387 L22,418.1387 M35,403.1387 L48,418.1387 " fill="none" style="stroke:#181818;stroke-width:0.5;"/><rect fill="#E3E3E3" height="30.4883" rx="2.5" ry="2.5" style="stroke:#181818;stroke-width:0.5;" width="71" x="556.5" y="87.4883"/><text fill="#000000" font-family="sans-serif" font-size="14" lengthAdjust="spacing" textLength="57" x="563.5" y="108.0234">:Sistema</text><rect fill="#E3E3E3" height="30.4883" rx="2.5" ry="2.5" style="stroke:#181818;stroke-width:0.5;" width="71" x="556.5" y="343.1504"/><text fill="#000000" font-family="sans-serif" font-size="14" lengthAdjust="spacing" textLength="57" x="563.5" y="363.6855">:Sistema</text><rect fill="#FFFFFF" height="197.1738" style="stroke:#181818;stroke-width:1.0;" width="10" x="30" y="128.9766"/><rect fill="#FFFFFF" height="58.6211" style="stroke:#181818;stroke-width:1.0;" width="10" x="587" y="150.2871"/><rect fill="#FFFFFF" height="29.3105" style="stroke:#181818;stroke-width:1.0;" width="10" x="587" y="238.2188"/><rect fill="#FFFFFF" height="29.3105" style="stroke:#181818;stroke-width:1.0;" width="10" x="587" y="296.8398"/><polygon fill="#181818" points="575,146.2871,585,150.2871,575,154.2871,579,150.2871" style="stroke:#181818;stroke-width:1.0;"/><line style="stroke:#181818;stroke-width:1.0;" x1="40" x2="581" y1="150.2871" y2="150.2871"/><text fill="#000000" font-family="sans-serif" font-size="13" font-weight="bold" lengthAdjust="spacing" textLength="9" x="47" y="145.5449">1</text><text fill="#000000" font-family="sans-serif" font-size="13" lengthAdjust="spacing" textLength="295" x="60" y="145.5449">Pede para abrir/fechar uma incrição num curso</text><polygon fill="#181818" points="51,175.5977,41,179.5977,51,183.5977,47,179.5977" style="stroke:#181818;stroke-width:1.0;"/><line style="stroke:#181818;stroke-width:1.0;stroke-dasharray:2.0,2.0;" x1="45" x2="586" y1="179.5977" y2="179.5977"/><text fill="#000000" font-family="sans-serif" font-size="13" font-weight="bold" lengthAdjust="spacing" textLength="9" x="57" y="174.8555">2</text><text fill="#000000" font-family="sans-serif" font-size="13" lengthAdjust="spacing" textLength="453" x="70" y="174.8555">Mostra a informação das disciplinas que se encontram no estado aberto</text><polygon fill="#181818" points="51,204.9082,41,208.9082,51,212.9082,47,208.9082" style="stroke:#181818;stroke-width:1.0;"/><line style="stroke:#181818;stroke-width:1.0;stroke-dasharray:2.0,2.0;" x1="45" x2="591" y1="208.9082" y2="208.9082"/><text fill="#000000" font-family="sans-serif" font-size="13" font-weight="bold" lengthAdjust="spacing" textLength="9" x="57" y="204.166">3</text><text fill="#000000" font-family="sans-serif" font-size="13" lengthAdjust="spacing" textLength="193" x="70" y="204.166">Pede para escolher a disciplina</text><polygon fill="#181818" points="575,234.2188,585,238.2188,575,242.2188,579,238.2188" style="stroke:#181818;stroke-width:1.0;"/><line style="stroke:#181818;stroke-width:1.0;" x1="40" x2="581" y1="238.2188" y2="238.2188"/><text fill="#000000" font-family="sans-serif" font-size="13" font-weight="bold" lengthAdjust="spacing" textLength="9" x="47" y="233.4766">4</text><text fill="#000000" font-family="sans-serif" font-size="13" lengthAdjust="spacing" textLength="353" x="60" y="233.4766">Escolhe a disciplna que pretende abrir/fechar inscrições</text><polygon fill="#181818" points="51,263.5293,41,267.5293,51,271.5293,47,267.5293" style="stroke:#181818;stroke-width:1.0;"/><line style="stroke:#181818;stroke-width:1.0;stroke-dasharray:2.0,2.0;" x1="45" x2="591" y1="267.5293" y2="267.5293"/><text fill="#000000" font-family="sans-serif" font-size="13" font-weight="bold" lengthAdjust="spacing" textLength="9" x="57" y="262.7871">5</text><text fill="#000000" font-family="sans-serif" font-size="13" lengthAdjust="spacing" textLength="510" x="70" y="262.7871">Mostra os dados do curso selecionado e pede confirmação da operação a realizar</text><polygon fill="#181818" points="575,292.8398,585,296.8398,575,300.8398,579,296.8398" style="stroke:#181818;stroke-width:1.0;"/><line style="stroke:#181818;stroke-width:1.0;" x1="40" x2="581" y1="296.8398" y2="296.8398"/><text fill="#000000" font-family="sans-serif" font-size="13" font-weight="bold" lengthAdjust="spacing" textLength="9" x="47" y="292.0977">6</text><text fill="#000000" font-family="sans-serif" font-size="13" lengthAdjust="spacing" textLength="130" x="60" y="292.0977">Confirma a operação</text><polygon fill="#181818" points="46,322.1504,36,326.1504,46,330.1504,42,326.1504" style="stroke:#181818;stroke-width:1.0;"/><line style="stroke:#181818;stroke-width:1.0;stroke-dasharray:2.0,2.0;" x1="40" x2="591" y1="326.1504" y2="326.1504"/><text fill="#000000" font-family="sans-serif" font-size="13" font-weight="bold" lengthAdjust="spacing" textLength="9" x="52" y="321.4082">7</text><text fill="#000000" font-family="sans-serif" font-size="13" lengthAdjust="spacing" textLength="196" x="65" y="321.4082">Informa o sucesso da operação</text><!--MD5=[35a6d970d5eab74f260a7ef09ac06966]
@startuml
skinparam monochrome true
skinparam packageStyle rectangle
skinparam shadowing false

title System Sequence Diagram (SSD) - US 1003
autonumber

actor "Gerente" as Gerente
participant ":Sistema" as Sistema

activate Gerente
    Gerente -> Sistema : Pede para abrir/fechar uma incrição num curso
    activate Sistema
        Sistema - -> Gerente : Mostra a informação das disciplinas que se encontram no estado aberto
        Sistema - -> Gerente : Pede para escolher a disciplina
    deactivate Sistema

    Gerente -> Sistema : Escolhe a disciplna que pretende abrir/fechar inscrições
    activate Sistema
        Sistema - -> Gerente : Mostra os dados do curso selecionado e pede confirmação da operação a realizar
    deactivate Sistema

    Gerente -> Sistema : Confirma a operação
    activate Sistema
        Sistema - -> Gerente : Informa o sucesso da operação
    deactivate Sistema

deactivate Gerente

@enduml

PlantUML version 1.2022.12(Sun Oct 23 19:12:26 WEST 2022)
(GPL source distribution)
Java Runtime: OpenJDK Runtime Environment
JVM: OpenJDK 64-Bit Server VM
Default Encoding: UTF-8
Language: pt
Country: PT
--></g></svg>