<?xml version="1.0" encoding="us-ascii" standalone="no"?><svg xmlns="http://www.w3.org/2000/svg" xmlns:xlink="http://www.w3.org/1999/xlink" contentStyleType="text/css" height="717px" preserveAspectRatio="none" style="width:2371px;height:717px;background:#FFFFFF;" version="1.1" viewBox="0 0 2371 717" width="2371px" zoomAndPan="magnify"><defs/><g><!--class TakeAutomaticFormativeExamUI--><g id="elem_TakeAutomaticFormativeExamUI"><rect codeLine="3" fill="#F1F1F1" height="60.582" id="TakeAutomaticFormativeExamUI" rx="2.5" ry="2.5" style="stroke:#181818;stroke-width:0.5;" width="235" x="1330.5" y="7"/><ellipse cx="1345.5" cy="29.291" fill="#ADD1B2" rx="11" ry="11" style="stroke:#181818;stroke-width:1.0;"/><path d="M1348.2656,25.166 Q1348.4219,24.9473 1348.6094,24.8379 Q1348.7969,24.7285 1349.0156,24.7285 Q1349.3906,24.7285 1349.625,24.9941 Q1349.8594,25.2441 1349.8594,25.8535 L1349.8594,27.3066 Q1349.8594,27.916 1349.625,28.1816 Q1349.3906,28.4473 1349.0156,28.4473 Q1348.6719,28.4473 1348.4688,28.2441 Q1348.2656,28.0566 1348.1563,27.541 Q1348.1094,27.1816 1347.9219,26.9941 Q1347.5938,26.6191 1346.9844,26.4004 Q1346.375,26.1816 1345.75,26.1816 Q1344.9844,26.1816 1344.3438,26.5098 Q1343.7188,26.8379 1343.2188,27.5879 Q1342.7344,28.3379 1342.7344,29.3691 L1342.7344,30.4629 Q1342.7344,31.6973 1343.625,32.5254 Q1344.5156,33.3379 1346.1094,33.3379 Q1347.0469,33.3379 1347.7031,33.0879 Q1348.0938,32.9316 1348.5156,32.4941 Q1348.7813,32.2285 1348.9219,32.1504 Q1349.0781,32.0723 1349.2813,32.0723 Q1349.6094,32.0723 1349.8594,32.3379 Q1350.125,32.5879 1350.125,32.9316 Q1350.125,33.2754 1349.7813,33.6816 Q1349.2813,34.2598 1348.4844,34.5879 Q1347.4063,35.041 1346.1094,35.041 Q1344.5938,35.041 1343.3906,34.416 Q1342.4063,33.916 1341.7188,32.8535 Q1341.0313,31.7754 1341.0313,30.4941 L1341.0313,29.3379 Q1341.0313,28.0098 1341.6406,26.8691 Q1342.2656,25.7129 1343.3594,25.1035 Q1344.4531,24.4785 1345.6875,24.4785 Q1346.4219,24.4785 1347.0625,24.6504 Q1347.7188,24.8066 1348.2656,25.166 Z " fill="#000000"/><text fill="#000000" font-family="sans-serif" font-size="12" font-style="italic" lengthAdjust="spacing" textLength="82" x="1420" y="24.9492">&#171;presentation&#187;</text><text fill="#000000" font-family="sans-serif" font-size="14" lengthAdjust="spacing" textLength="203" x="1359.5" y="43.0684">TakeAutomaticFormativeExamUI</text><line style="stroke:#181818;stroke-width:0.5;" x1="1331.5" x2="1564.5" y1="51.582" y2="51.582"/><line style="stroke:#181818;stroke-width:0.5;" x1="1331.5" x2="1564.5" y1="59.582" y2="59.582"/></g><!--class TakeAutomaticFormativeExamController--><g id="elem_TakeAutomaticFormativeExamController"><rect codeLine="6" fill="#F1F1F1" height="172.3086" id="TakeAutomaticFormativeExamController" rx="2.5" ry="2.5" style="stroke:#181818;stroke-width:0.5;" width="589" x="794.5" y="147"/><ellipse cx="958.25" cy="169.291" fill="#ADD1B2" rx="11" ry="11" style="stroke:#181818;stroke-width:1.0;"/><path d="M961.0156,165.166 Q961.1719,164.9473 961.3594,164.8379 Q961.5469,164.7285 961.7656,164.7285 Q962.1406,164.7285 962.375,164.9941 Q962.6094,165.2441 962.6094,165.8535 L962.6094,167.3066 Q962.6094,167.916 962.375,168.1816 Q962.1406,168.4473 961.7656,168.4473 Q961.4219,168.4473 961.2188,168.2441 Q961.0156,168.0566 960.9063,167.541 Q960.8594,167.1816 960.6719,166.9941 Q960.3438,166.6191 959.7344,166.4004 Q959.125,166.1816 958.5,166.1816 Q957.7344,166.1816 957.0938,166.5098 Q956.4688,166.8379 955.9688,167.5879 Q955.4844,168.3379 955.4844,169.3691 L955.4844,170.4629 Q955.4844,171.6973 956.375,172.5254 Q957.2656,173.3379 958.8594,173.3379 Q959.7969,173.3379 960.4531,173.0879 Q960.8438,172.9316 961.2656,172.4941 Q961.5313,172.2285 961.6719,172.1504 Q961.8281,172.0723 962.0313,172.0723 Q962.3594,172.0723 962.6094,172.3379 Q962.875,172.5879 962.875,172.9316 Q962.875,173.2754 962.5313,173.6816 Q962.0313,174.2598 961.2344,174.5879 Q960.1563,175.041 958.8594,175.041 Q957.3438,175.041 956.1406,174.416 Q955.1563,173.916 954.4688,172.8535 Q953.7813,171.7754 953.7813,170.4941 L953.7813,169.3379 Q953.7813,168.0098 954.3906,166.8691 Q955.0156,165.7129 956.1094,165.1035 Q957.2031,164.4785 958.4375,164.4785 Q959.1719,164.4785 959.8125,164.6504 Q960.4688,164.8066 961.0156,165.166 Z " fill="#000000"/><text fill="#000000" font-family="sans-serif" font-size="12" font-style="italic" lengthAdjust="spacing" textLength="74" x="1068.25" y="164.9492">&#171;application&#187;</text><text fill="#000000" font-family="sans-serif" font-size="14" lengthAdjust="spacing" textLength="253" x="978.75" y="183.0684">TakeAutomaticFormativeExamController</text><line style="stroke:#181818;stroke-width:0.5;" x1="795.5" x2="1382.5" y1="191.582" y2="191.582"/><line style="stroke:#181818;stroke-width:0.5;" x1="795.5" x2="1382.5" y1="199.582" y2="199.582"/><ellipse cx="805.5" cy="214.3926" fill="#84BE84" rx="3" ry="3" style="stroke:#038048;stroke-width:1.0;"/><text fill="#000000" font-family="sans-serif" font-size="14" lengthAdjust="spacing" textLength="563" x="814.5" y="218.6895">Iterable&lt;Course&gt; findAllStudentApprovedCoursesInProgressWithActualFormativeExams()</text><ellipse cx="805.5" cy="233.0137" fill="#84BE84" rx="3" ry="3" style="stroke:#038048;stroke-width:1.0;"/><text fill="#000000" font-family="sans-serif" font-size="14" lengthAdjust="spacing" textLength="523" x="814.5" y="237.3105">Iterable&lt;FormativeExam&gt; listAllAvailableFormativeExamsOfTheCourse( theCourse)</text><ellipse cx="805.5" cy="251.6348" fill="#84BE84" rx="3" ry="3" style="stroke:#038048;stroke-width:1.0;"/><text fill="#000000" font-family="sans-serif" font-size="14" lengthAdjust="spacing" textLength="480" x="814.5" y="255.9316">Exam transformFormativeExamDataInExam(theCourse, theFormativeExam) {</text><ellipse cx="805.5" cy="270.2559" fill="#84BE84" rx="3" ry="3" style="stroke:#038048;stroke-width:1.0;"/><text fill="#000000" font-family="sans-serif" font-size="14" lengthAdjust="spacing" textLength="260" x="814.5" y="274.5527">String getExamQuestionsString(theExam)</text><ellipse cx="805.5" cy="288.877" fill="#84BE84" rx="3" ry="3" style="stroke:#038048;stroke-width:1.0;"/><text fill="#000000" font-family="sans-serif" font-size="14" lengthAdjust="spacing" textLength="336" x="814.5" y="293.1738">float parseFormativeExamAnswers(filePath, theExam)</text><ellipse cx="805.5" cy="307.498" fill="#84BE84" rx="3" ry="3" style="stroke:#038048;stroke-width:1.0;"/><text fill="#000000" font-family="sans-serif" font-size="14" lengthAdjust="spacing" textLength="222" x="814.5" y="311.7949">String getExamFeedback(theExam)</text></g><!--class FormativeExamService--><g id="elem_FormativeExamService"><rect codeLine="15" fill="#F1F1F1" height="153.6875" id="FormativeExamService" rx="2.5" ry="2.5" style="stroke:#181818;stroke-width:0.5;" width="624" x="1480" y="398"/><ellipse cx="1715.75" cy="420.291" fill="#ADD1B2" rx="11" ry="11" style="stroke:#181818;stroke-width:1.0;"/><path d="M1718.5156,416.166 Q1718.6719,415.9473 1718.8594,415.8379 Q1719.0469,415.7285 1719.2656,415.7285 Q1719.6406,415.7285 1719.875,415.9941 Q1720.1094,416.2441 1720.1094,416.8535 L1720.1094,418.3066 Q1720.1094,418.916 1719.875,419.1816 Q1719.6406,419.4473 1719.2656,419.4473 Q1718.9219,419.4473 1718.7188,419.2441 Q1718.5156,419.0566 1718.4063,418.541 Q1718.3594,418.1816 1718.1719,417.9941 Q1717.8438,417.6191 1717.2344,417.4004 Q1716.625,417.1816 1716,417.1816 Q1715.2344,417.1816 1714.5938,417.5098 Q1713.9688,417.8379 1713.4688,418.5879 Q1712.9844,419.3379 1712.9844,420.3691 L1712.9844,421.4629 Q1712.9844,422.6973 1713.875,423.5254 Q1714.7656,424.3379 1716.3594,424.3379 Q1717.2969,424.3379 1717.9531,424.0879 Q1718.3438,423.9316 1718.7656,423.4941 Q1719.0313,423.2285 1719.1719,423.1504 Q1719.3281,423.0723 1719.5313,423.0723 Q1719.8594,423.0723 1720.1094,423.3379 Q1720.375,423.5879 1720.375,423.9316 Q1720.375,424.2754 1720.0313,424.6816 Q1719.5313,425.2598 1718.7344,425.5879 Q1717.6563,426.041 1716.3594,426.041 Q1714.8438,426.041 1713.6406,425.416 Q1712.6563,424.916 1711.9688,423.8535 Q1711.2813,422.7754 1711.2813,421.4941 L1711.2813,420.3379 Q1711.2813,419.0098 1711.8906,417.8691 Q1712.5156,416.7129 1713.6094,416.1035 Q1714.7031,415.4785 1715.9375,415.4785 Q1716.6719,415.4785 1717.3125,415.6504 Q1717.9688,415.8066 1718.5156,416.166 Z " fill="#000000"/><text fill="#000000" font-family="sans-serif" font-size="12" font-style="italic" lengthAdjust="spacing" textLength="53" x="1781.75" y="415.9492">&#171;service&#187;</text><text fill="#000000" font-family="sans-serif" font-size="14" lengthAdjust="spacing" textLength="144" x="1736.25" y="434.0684">FormativeExamService</text><line style="stroke:#181818;stroke-width:0.5;" x1="1481" x2="2103" y1="442.582" y2="442.582"/><line style="stroke:#181818;stroke-width:0.5;" x1="1481" x2="2103" y1="450.582" y2="450.582"/><ellipse cx="1491" cy="465.3926" fill="#84BE84" rx="3" ry="3" style="stroke:#038048;stroke-width:1.0;"/><text fill="#000000" font-family="sans-serif" font-size="14" lengthAdjust="spacing" textLength="482" x="1500" y="469.6895">Exam transformFormativeExamDataInExam(courseCode, theFormativeExam)</text><ellipse cx="1491" cy="484.0137" fill="#84BE84" rx="3" ry="3" style="stroke:#038048;stroke-width:1.0;"/><text fill="#000000" font-family="sans-serif" font-size="14" lengthAdjust="spacing" textLength="392" x="1500" y="488.3105">float parseAndHandleFormativeExamGrade(filePath, theExam)</text><ellipse cx="1491" cy="502.6348" fill="#84BE84" rx="3" ry="3" style="stroke:#038048;stroke-width:1.0;"/><text fill="#000000" font-family="sans-serif" font-size="14" lengthAdjust="spacing" textLength="598" x="1500" y="506.9316">Map&lt;String, Iterable&lt;Question&gt;&gt; generateRandomQuestions(courseCode, theFormativeExam)</text><ellipse cx="1491" cy="521.2559" fill="#84BE84" rx="3" ry="3" style="stroke:#038048;stroke-width:1.0;"/><text fill="#000000" font-family="sans-serif" font-size="14" lengthAdjust="spacing" textLength="570" x="1500" y="525.5527">Map&lt;String, Integer&gt; countAllTypeQuestionsQuantityInFormativeExam(theFormativeExam)</text><ellipse cx="1491" cy="539.877" fill="#84BE84" rx="3" ry="3" style="stroke:#038048;stroke-width:1.0;"/><text fill="#000000" font-family="sans-serif" font-size="14" lengthAdjust="spacing" textLength="313" x="1500" y="544.1738">float calculateFormativeExamMaxGrade(theExam)</text></g><!--class Student--><g id="elem_Student"><rect codeLine="23" fill="#F1F1F1" height="60.582" id="Student" rx="2.5" ry="2.5" style="stroke:#181818;stroke-width:0.5;" width="84" x="7" y="444.5"/><ellipse cx="22" cy="466.791" fill="#ADD1B2" rx="11" ry="11" style="stroke:#181818;stroke-width:1.0;"/><path d="M24.7656,462.666 Q24.9219,462.4473 25.1094,462.3379 Q25.2969,462.2285 25.5156,462.2285 Q25.8906,462.2285 26.125,462.4941 Q26.3594,462.7441 26.3594,463.3535 L26.3594,464.8066 Q26.3594,465.416 26.125,465.6816 Q25.8906,465.9473 25.5156,465.9473 Q25.1719,465.9473 24.9688,465.7441 Q24.7656,465.5566 24.6563,465.041 Q24.6094,464.6816 24.4219,464.4941 Q24.0938,464.1191 23.4844,463.9004 Q22.875,463.6816 22.25,463.6816 Q21.4844,463.6816 20.8438,464.0098 Q20.2188,464.3379 19.7188,465.0879 Q19.2344,465.8379 19.2344,466.8691 L19.2344,467.9629 Q19.2344,469.1973 20.125,470.0254 Q21.0156,470.8379 22.6094,470.8379 Q23.5469,470.8379 24.2031,470.5879 Q24.5938,470.4316 25.0156,469.9941 Q25.2813,469.7285 25.4219,469.6504 Q25.5781,469.5723 25.7813,469.5723 Q26.1094,469.5723 26.3594,469.8379 Q26.625,470.0879 26.625,470.4316 Q26.625,470.7754 26.2813,471.1816 Q25.7813,471.7598 24.9844,472.0879 Q23.9063,472.541 22.6094,472.541 Q21.0938,472.541 19.8906,471.916 Q18.9063,471.416 18.2188,470.3535 Q17.5313,469.2754 17.5313,467.9941 L17.5313,466.8379 Q17.5313,465.5098 18.1406,464.3691 Q18.7656,463.2129 19.8594,462.6035 Q20.9531,461.9785 22.1875,461.9785 Q22.9219,461.9785 23.5625,462.1504 Q24.2188,462.3066 24.7656,462.666 Z " fill="#000000"/><text fill="#000000" font-family="sans-serif" font-size="12" font-style="italic" lengthAdjust="spacing" textLength="56" x="34" y="462.4492">&#171;domain&#187;</text><text fill="#000000" font-family="sans-serif" font-size="14" lengthAdjust="spacing" textLength="49" x="37.5" y="480.5684">Student</text><line style="stroke:#181818;stroke-width:0.5;" x1="8" x2="90" y1="489.082" y2="489.082"/><line style="stroke:#181818;stroke-width:0.5;" x1="8" x2="90" y1="497.082" y2="497.082"/></g><!--class Course--><g id="elem_Course"><rect codeLine="26" fill="#F1F1F1" height="60.582" id="Course" rx="2.5" ry="2.5" style="stroke:#181818;stroke-width:0.5;" width="84" x="126" y="444.5"/><ellipse cx="141" cy="466.791" fill="#ADD1B2" rx="11" ry="11" style="stroke:#181818;stroke-width:1.0;"/><path d="M143.7656,462.666 Q143.9219,462.4473 144.1094,462.3379 Q144.2969,462.2285 144.5156,462.2285 Q144.8906,462.2285 145.125,462.4941 Q145.3594,462.7441 145.3594,463.3535 L145.3594,464.8066 Q145.3594,465.416 145.125,465.6816 Q144.8906,465.9473 144.5156,465.9473 Q144.1719,465.9473 143.9688,465.7441 Q143.7656,465.5566 143.6563,465.041 Q143.6094,464.6816 143.4219,464.4941 Q143.0938,464.1191 142.4844,463.9004 Q141.875,463.6816 141.25,463.6816 Q140.4844,463.6816 139.8438,464.0098 Q139.2188,464.3379 138.7188,465.0879 Q138.2344,465.8379 138.2344,466.8691 L138.2344,467.9629 Q138.2344,469.1973 139.125,470.0254 Q140.0156,470.8379 141.6094,470.8379 Q142.5469,470.8379 143.2031,470.5879 Q143.5938,470.4316 144.0156,469.9941 Q144.2813,469.7285 144.4219,469.6504 Q144.5781,469.5723 144.7813,469.5723 Q145.1094,469.5723 145.3594,469.8379 Q145.625,470.0879 145.625,470.4316 Q145.625,470.7754 145.2813,471.1816 Q144.7813,471.7598 143.9844,472.0879 Q142.9063,472.541 141.6094,472.541 Q140.0938,472.541 138.8906,471.916 Q137.9063,471.416 137.2188,470.3535 Q136.5313,469.2754 136.5313,467.9941 L136.5313,466.8379 Q136.5313,465.5098 137.1406,464.3691 Q137.7656,463.2129 138.8594,462.6035 Q139.9531,461.9785 141.1875,461.9785 Q141.9219,461.9785 142.5625,462.1504 Q143.2188,462.3066 143.7656,462.666 Z " fill="#000000"/><text fill="#000000" font-family="sans-serif" font-size="12" font-style="italic" lengthAdjust="spacing" textLength="56" x="153" y="462.4492">&#171;domain&#187;</text><text fill="#000000" font-family="sans-serif" font-size="14" lengthAdjust="spacing" textLength="46" x="158" y="480.5684">Course</text><line style="stroke:#181818;stroke-width:0.5;" x1="127" x2="209" y1="489.082" y2="489.082"/><line style="stroke:#181818;stroke-width:0.5;" x1="127" x2="209" y1="497.082" y2="497.082"/></g><!--class FormativeExam--><g id="elem_FormativeExam"><rect codeLine="29" fill="#F1F1F1" height="79.2031" id="FormativeExam" rx="2.5" ry="2.5" style="stroke:#181818;stroke-width:0.5;" width="220" x="2139" y="435.5"/><ellipse cx="2196.25" cy="457.791" fill="#ADD1B2" rx="11" ry="11" style="stroke:#181818;stroke-width:1.0;"/><path d="M2199.0156,453.666 Q2199.1719,453.4473 2199.3594,453.3379 Q2199.5469,453.2285 2199.7656,453.2285 Q2200.1406,453.2285 2200.375,453.4941 Q2200.6094,453.7441 2200.6094,454.3535 L2200.6094,455.8066 Q2200.6094,456.416 2200.375,456.6816 Q2200.1406,456.9473 2199.7656,456.9473 Q2199.4219,456.9473 2199.2188,456.7441 Q2199.0156,456.5566 2198.9063,456.041 Q2198.8594,455.6816 2198.6719,455.4941 Q2198.3438,455.1191 2197.7344,454.9004 Q2197.125,454.6816 2196.5,454.6816 Q2195.7344,454.6816 2195.0938,455.0098 Q2194.4688,455.3379 2193.9688,456.0879 Q2193.4844,456.8379 2193.4844,457.8691 L2193.4844,458.9629 Q2193.4844,460.1973 2194.375,461.0254 Q2195.2656,461.8379 2196.8594,461.8379 Q2197.7969,461.8379 2198.4531,461.5879 Q2198.8438,461.4316 2199.2656,460.9941 Q2199.5313,460.7285 2199.6719,460.6504 Q2199.8281,460.5723 2200.0313,460.5723 Q2200.3594,460.5723 2200.6094,460.8379 Q2200.875,461.0879 2200.875,461.4316 Q2200.875,461.7754 2200.5313,462.1816 Q2200.0313,462.7598 2199.2344,463.0879 Q2198.1563,463.541 2196.8594,463.541 Q2195.3438,463.541 2194.1406,462.916 Q2193.1563,462.416 2192.4688,461.3535 Q2191.7813,460.2754 2191.7813,458.9941 L2191.7813,457.8379 Q2191.7813,456.5098 2192.3906,455.3691 Q2193.0156,454.2129 2194.1094,453.6035 Q2195.2031,452.9785 2196.4375,452.9785 Q2197.1719,452.9785 2197.8125,453.1504 Q2198.4688,453.3066 2199.0156,453.666 Z " fill="#000000"/><text fill="#000000" font-family="sans-serif" font-size="12" font-style="italic" lengthAdjust="spacing" textLength="56" x="2237.25" y="453.4492">&#171;domain&#187;</text><text fill="#000000" font-family="sans-serif" font-size="14" lengthAdjust="spacing" textLength="97" x="2216.75" y="471.5684">FormativeExam</text><line style="stroke:#181818;stroke-width:0.5;" x1="2140" x2="2358" y1="480.082" y2="480.082"/><line style="stroke:#181818;stroke-width:0.5;" x1="2140" x2="2358" y1="488.082" y2="488.082"/><ellipse cx="2150" cy="502.8926" fill="#84BE84" rx="3" ry="3" style="stroke:#038048;stroke-width:1.0;"/><text fill="#000000" font-family="sans-serif" font-size="14" lengthAdjust="spacing" textLength="194" x="2159" y="507.1895">Exam transformInExamObject()</text></g><!--class Exam--><g id="elem_Exam"><rect codeLine="33" fill="#F1F1F1" height="79.2031" id="Exam" rx="2.5" ry="2.5" style="stroke:#181818;stroke-width:0.5;" width="228" x="245" y="435.5"/><ellipse cx="328.75" cy="457.791" fill="#ADD1B2" rx="11" ry="11" style="stroke:#181818;stroke-width:1.0;"/><path d="M331.5156,453.666 Q331.6719,453.4473 331.8594,453.3379 Q332.0469,453.2285 332.2656,453.2285 Q332.6406,453.2285 332.875,453.4941 Q333.1094,453.7441 333.1094,454.3535 L333.1094,455.8066 Q333.1094,456.416 332.875,456.6816 Q332.6406,456.9473 332.2656,456.9473 Q331.9219,456.9473 331.7188,456.7441 Q331.5156,456.5566 331.4063,456.041 Q331.3594,455.6816 331.1719,455.4941 Q330.8438,455.1191 330.2344,454.9004 Q329.625,454.6816 329,454.6816 Q328.2344,454.6816 327.5938,455.0098 Q326.9688,455.3379 326.4688,456.0879 Q325.9844,456.8379 325.9844,457.8691 L325.9844,458.9629 Q325.9844,460.1973 326.875,461.0254 Q327.7656,461.8379 329.3594,461.8379 Q330.2969,461.8379 330.9531,461.5879 Q331.3438,461.4316 331.7656,460.9941 Q332.0313,460.7285 332.1719,460.6504 Q332.3281,460.5723 332.5313,460.5723 Q332.8594,460.5723 333.1094,460.8379 Q333.375,461.0879 333.375,461.4316 Q333.375,461.7754 333.0313,462.1816 Q332.5313,462.7598 331.7344,463.0879 Q330.6563,463.541 329.3594,463.541 Q327.8438,463.541 326.6406,462.916 Q325.6563,462.416 324.9688,461.3535 Q324.2813,460.2754 324.2813,458.9941 L324.2813,457.8379 Q324.2813,456.5098 324.8906,455.3691 Q325.5156,454.2129 326.6094,453.6035 Q327.7031,452.9785 328.9375,452.9785 Q329.6719,452.9785 330.3125,453.1504 Q330.9688,453.3066 331.5156,453.666 Z " fill="#000000"/><text fill="#000000" font-family="sans-serif" font-size="12" font-style="italic" lengthAdjust="spacing" textLength="56" x="347.25" y="453.4492">&#171;domain&#187;</text><text fill="#000000" font-family="sans-serif" font-size="14" lengthAdjust="spacing" textLength="34" x="358.25" y="471.5684">Exam</text><line style="stroke:#181818;stroke-width:0.5;" x1="246" x2="472" y1="480.082" y2="480.082"/><line style="stroke:#181818;stroke-width:0.5;" x1="246" x2="472" y1="488.082" y2="488.082"/><ellipse cx="256" cy="502.8926" fill="#84BE84" rx="3" ry="3" style="stroke:#038048;stroke-width:1.0;"/><text fill="#000000" font-family="sans-serif" font-size="14" lengthAdjust="spacing" textLength="202" x="265" y="507.1895">String examQuestionsToString()</text></g><!--class ResolutionMain--><g id="elem_ResolutionMain"><rect codeLine="37" fill="#F1F1F1" height="79.2031" id="ResolutionMain" rx="2.5" ry="2.5" style="stroke:#181818;stroke-width:0.5;" width="265" x="508.5" y="435.5"/><ellipse cx="588.25" cy="457.791" fill="#ADD1B2" rx="11" ry="11" style="stroke:#181818;stroke-width:1.0;"/><path d="M591.0156,453.666 Q591.1719,453.4473 591.3594,453.3379 Q591.5469,453.2285 591.7656,453.2285 Q592.1406,453.2285 592.375,453.4941 Q592.6094,453.7441 592.6094,454.3535 L592.6094,455.8066 Q592.6094,456.416 592.375,456.6816 Q592.1406,456.9473 591.7656,456.9473 Q591.4219,456.9473 591.2188,456.7441 Q591.0156,456.5566 590.9063,456.041 Q590.8594,455.6816 590.6719,455.4941 Q590.3438,455.1191 589.7344,454.9004 Q589.125,454.6816 588.5,454.6816 Q587.7344,454.6816 587.0938,455.0098 Q586.4688,455.3379 585.9688,456.0879 Q585.4844,456.8379 585.4844,457.8691 L585.4844,458.9629 Q585.4844,460.1973 586.375,461.0254 Q587.2656,461.8379 588.8594,461.8379 Q589.7969,461.8379 590.4531,461.5879 Q590.8438,461.4316 591.2656,460.9941 Q591.5313,460.7285 591.6719,460.6504 Q591.8281,460.5723 592.0313,460.5723 Q592.3594,460.5723 592.6094,460.8379 Q592.875,461.0879 592.875,461.4316 Q592.875,461.7754 592.5313,462.1816 Q592.0313,462.7598 591.2344,463.0879 Q590.1563,463.541 588.8594,463.541 Q587.3438,463.541 586.1406,462.916 Q585.1563,462.416 584.4688,461.3535 Q583.7813,460.2754 583.7813,458.9941 L583.7813,457.8379 Q583.7813,456.5098 584.3906,455.3691 Q585.0156,454.2129 586.1094,453.6035 Q587.2031,452.9785 588.4375,452.9785 Q589.1719,452.9785 589.8125,453.1504 Q590.4688,453.3066 591.0156,453.666 Z " fill="#000000"/><text fill="#000000" font-family="sans-serif" font-size="12" font-style="italic" lengthAdjust="spacing" textLength="42" x="636.25" y="453.4492">&#171;lprog&#187;</text><text fill="#000000" font-family="sans-serif" font-size="14" lengthAdjust="spacing" textLength="97" x="608.75" y="471.5684">ResolutionMain</text><line style="stroke:#181818;stroke-width:0.5;" x1="509.5" x2="772.5" y1="480.082" y2="480.082"/><line style="stroke:#181818;stroke-width:0.5;" x1="509.5" x2="772.5" y1="488.082" y2="488.082"/><ellipse cx="519.5" cy="502.8926" fill="#84BE84" rx="3" ry="3" style="stroke:#038048;stroke-width:1.0;"/><text fill="#000000" font-family="sans-serif" font-size="14" lengthAdjust="spacing" textLength="239" x="528.5" y="507.1895">parseWithVisitor(fileToPath, theExam)</text></g><!--class CourseRepository--><g id="elem_CourseRepository"><rect codeLine="42" fill="#F1F1F1" height="79.2031" id="CourseRepository" rx="2.5" ry="2.5" style="stroke:#181818;stroke-width:0.5;" width="636" x="809" y="435.5"/><ellipse cx="1065.75" cy="457.791" fill="#ADD1B2" rx="11" ry="11" style="stroke:#181818;stroke-width:1.0;"/><path d="M1068.5156,453.666 Q1068.6719,453.4473 1068.8594,453.3379 Q1069.0469,453.2285 1069.2656,453.2285 Q1069.6406,453.2285 1069.875,453.4941 Q1070.1094,453.7441 1070.1094,454.3535 L1070.1094,455.8066 Q1070.1094,456.416 1069.875,456.6816 Q1069.6406,456.9473 1069.2656,456.9473 Q1068.9219,456.9473 1068.7188,456.7441 Q1068.5156,456.5566 1068.4063,456.041 Q1068.3594,455.6816 1068.1719,455.4941 Q1067.8438,455.1191 1067.2344,454.9004 Q1066.625,454.6816 1066,454.6816 Q1065.2344,454.6816 1064.5938,455.0098 Q1063.9688,455.3379 1063.4688,456.0879 Q1062.9844,456.8379 1062.9844,457.8691 L1062.9844,458.9629 Q1062.9844,460.1973 1063.875,461.0254 Q1064.7656,461.8379 1066.3594,461.8379 Q1067.2969,461.8379 1067.9531,461.5879 Q1068.3438,461.4316 1068.7656,460.9941 Q1069.0313,460.7285 1069.1719,460.6504 Q1069.3281,460.5723 1069.5313,460.5723 Q1069.8594,460.5723 1070.1094,460.8379 Q1070.375,461.0879 1070.375,461.4316 Q1070.375,461.7754 1070.0313,462.1816 Q1069.5313,462.7598 1068.7344,463.0879 Q1067.6563,463.541 1066.3594,463.541 Q1064.8438,463.541 1063.6406,462.916 Q1062.6563,462.416 1061.9688,461.3535 Q1061.2813,460.2754 1061.2813,458.9941 L1061.2813,457.8379 Q1061.2813,456.5098 1061.8906,455.3691 Q1062.5156,454.2129 1063.6094,453.6035 Q1064.7031,452.9785 1065.9375,452.9785 Q1066.6719,452.9785 1067.3125,453.1504 Q1067.9688,453.3066 1068.5156,453.666 Z " fill="#000000"/><text fill="#000000" font-family="sans-serif" font-size="12" font-style="italic" lengthAdjust="spacing" textLength="68" x="1109.25" y="453.4492">&#171;repository&#187;</text><text fill="#000000" font-family="sans-serif" font-size="14" lengthAdjust="spacing" textLength="114" x="1086.25" y="471.5684">CourseRepository</text><line style="stroke:#181818;stroke-width:0.5;" x1="810" x2="1444" y1="480.082" y2="480.082"/><line style="stroke:#181818;stroke-width:0.5;" x1="810" x2="1444" y1="488.082" y2="488.082"/><ellipse cx="820" cy="502.8926" fill="#84BE84" rx="3" ry="3" style="stroke:#038048;stroke-width:1.0;"/><text fill="#000000" font-family="sans-serif" font-size="14" lengthAdjust="spacing" textLength="610" x="829" y="507.1895">Iterable&lt;Course&gt; findAllStudentApprovedCoursesInProgressWithActualFormativeExams(student)</text></g><!--class QuestionRepository--><g id="elem_QuestionRepository"><rect codeLine="46" fill="#F1F1F1" height="79.2031" id="QuestionRepository" rx="2.5" ry="2.5" style="stroke:#181818;stroke-width:0.5;" width="600" x="1189" y="631"/><ellipse cx="1422.25" cy="653.291" fill="#ADD1B2" rx="11" ry="11" style="stroke:#181818;stroke-width:1.0;"/><path d="M1425.0156,649.166 Q1425.1719,648.9473 1425.3594,648.8379 Q1425.5469,648.7285 1425.7656,648.7285 Q1426.1406,648.7285 1426.375,648.9941 Q1426.6094,649.2441 1426.6094,649.8535 L1426.6094,651.3066 Q1426.6094,651.916 1426.375,652.1816 Q1426.1406,652.4473 1425.7656,652.4473 Q1425.4219,652.4473 1425.2188,652.2441 Q1425.0156,652.0566 1424.9063,651.541 Q1424.8594,651.1816 1424.6719,650.9941 Q1424.3438,650.6191 1423.7344,650.4004 Q1423.125,650.1816 1422.5,650.1816 Q1421.7344,650.1816 1421.0938,650.5098 Q1420.4688,650.8379 1419.9688,651.5879 Q1419.4844,652.3379 1419.4844,653.3691 L1419.4844,654.4629 Q1419.4844,655.6973 1420.375,656.5254 Q1421.2656,657.3379 1422.8594,657.3379 Q1423.7969,657.3379 1424.4531,657.0879 Q1424.8438,656.9316 1425.2656,656.4941 Q1425.5313,656.2285 1425.6719,656.1504 Q1425.8281,656.0723 1426.0313,656.0723 Q1426.3594,656.0723 1426.6094,656.3379 Q1426.875,656.5879 1426.875,656.9316 Q1426.875,657.2754 1426.5313,657.6816 Q1426.0313,658.2598 1425.2344,658.5879 Q1424.1563,659.041 1422.8594,659.041 Q1421.3438,659.041 1420.1406,658.416 Q1419.1563,657.916 1418.4688,656.8535 Q1417.7813,655.7754 1417.7813,654.4941 L1417.7813,653.3379 Q1417.7813,652.0098 1418.3906,650.8691 Q1419.0156,649.7129 1420.1094,649.1035 Q1421.2031,648.4785 1422.4375,648.4785 Q1423.1719,648.4785 1423.8125,648.6504 Q1424.4688,648.8066 1425.0156,649.166 Z " fill="#000000"/><text fill="#000000" font-family="sans-serif" font-size="12" font-style="italic" lengthAdjust="spacing" textLength="68" x="1471.25" y="648.9492">&#171;repository&#187;</text><text fill="#000000" font-family="sans-serif" font-size="14" lengthAdjust="spacing" textLength="125" x="1442.75" y="667.0684">QuestionRepository</text><line style="stroke:#181818;stroke-width:0.5;" x1="1190" x2="1788" y1="675.582" y2="675.582"/><line style="stroke:#181818;stroke-width:0.5;" x1="1190" x2="1788" y1="683.582" y2="683.582"/><ellipse cx="1200" cy="698.3926" fill="#84BE84" rx="3" ry="3" style="stroke:#038048;stroke-width:1.0;"/><text fill="#000000" font-family="sans-serif" font-size="14" lengthAdjust="spacing" textLength="574" x="1209" y="702.6895">Iterable&lt;Question&gt; generateRandomQuestions(courseCode, typeQuestion, typeQuestion))</text></g><!--class FormativeExamRepository--><g id="elem_FormativeExamRepository"><rect codeLine="50" fill="#F1F1F1" height="79.2031" id="FormativeExamRepository" rx="2.5" ry="2.5" style="stroke:#181818;stroke-width:0.5;" width="540" x="1824" y="631"/><ellipse cx="2007.25" cy="653.291" fill="#ADD1B2" rx="11" ry="11" style="stroke:#181818;stroke-width:1.0;"/><path d="M2010.0156,649.166 Q2010.1719,648.9473 2010.3594,648.8379 Q2010.5469,648.7285 2010.7656,648.7285 Q2011.1406,648.7285 2011.375,648.9941 Q2011.6094,649.2441 2011.6094,649.8535 L2011.6094,651.3066 Q2011.6094,651.916 2011.375,652.1816 Q2011.1406,652.4473 2010.7656,652.4473 Q2010.4219,652.4473 2010.2188,652.2441 Q2010.0156,652.0566 2009.9063,651.541 Q2009.8594,651.1816 2009.6719,650.9941 Q2009.3438,650.6191 2008.7344,650.4004 Q2008.125,650.1816 2007.5,650.1816 Q2006.7344,650.1816 2006.0938,650.5098 Q2005.4688,650.8379 2004.9688,651.5879 Q2004.4844,652.3379 2004.4844,653.3691 L2004.4844,654.4629 Q2004.4844,655.6973 2005.375,656.5254 Q2006.2656,657.3379 2007.8594,657.3379 Q2008.7969,657.3379 2009.4531,657.0879 Q2009.8438,656.9316 2010.2656,656.4941 Q2010.5313,656.2285 2010.6719,656.1504 Q2010.8281,656.0723 2011.0313,656.0723 Q2011.3594,656.0723 2011.6094,656.3379 Q2011.875,656.5879 2011.875,656.9316 Q2011.875,657.2754 2011.5313,657.6816 Q2011.0313,658.2598 2010.2344,658.5879 Q2009.1563,659.041 2007.8594,659.041 Q2006.3438,659.041 2005.1406,658.416 Q2004.1563,657.916 2003.4688,656.8535 Q2002.7813,655.7754 2002.7813,654.4941 L2002.7813,653.3379 Q2002.7813,652.0098 2003.3906,650.8691 Q2004.0156,649.7129 2005.1094,649.1035 Q2006.2031,648.4785 2007.4375,648.4785 Q2008.1719,648.4785 2008.8125,648.6504 Q2009.4688,648.8066 2010.0156,649.166 Z " fill="#000000"/><text fill="#000000" font-family="sans-serif" font-size="12" font-style="italic" lengthAdjust="spacing" textLength="68" x="2076.25" y="648.9492">&#171;repository&#187;</text><text fill="#000000" font-family="sans-serif" font-size="14" lengthAdjust="spacing" textLength="165" x="2027.75" y="667.0684">FormativeExamRepository</text><line style="stroke:#181818;stroke-width:0.5;" x1="1825" x2="2363" y1="675.582" y2="675.582"/><line style="stroke:#181818;stroke-width:0.5;" x1="1825" x2="2363" y1="683.582" y2="683.582"/><ellipse cx="1835" cy="698.3926" fill="#84BE84" rx="3" ry="3" style="stroke:#038048;stroke-width:1.0;"/><text fill="#000000" font-family="sans-serif" font-size="14" lengthAdjust="spacing" textLength="514" x="1844" y="702.6895">Iterable&lt;FormativeExam&gt; listAllAvailableFormativeExamsOfACourse(courseCode)</text></g><!--link TakeAutomaticFormativeExamUI to FormativeExam--><g id="link_TakeAutomaticFormativeExamUI_FormativeExam"><path codeLine="55" d="M1505.77,68.09 C1622.95,128.39 1896.6,270.55 2122,398 C2141.55,409.05 2162.55,421.42 2181.73,432.91 " fill="none" id="TakeAutomaticFormativeExamUI-to-FormativeExam" style="stroke:#181818;stroke-width:1.0;stroke-dasharray:7.0,7.0;"/><polygon fill="#181818" points="2186.05,435.5,2180.3905,427.4396,2181.7625,432.9275,2176.2746,434.2995,2186.05,435.5" style="stroke:#181818;stroke-width:1.0;"/></g><!--link TakeAutomaticFormativeExamUI to TakeAutomaticFormativeExamController--><g id="link_TakeAutomaticFormativeExamUI_TakeAutomaticFormativeExamController"><path codeLine="58" d="M1393.08,68.1 C1355.05,88.6 1302.28,117.04 1251.37,144.48 " fill="none" id="TakeAutomaticFormativeExamUI-to-TakeAutomaticFormativeExamController" style="stroke:#181818;stroke-width:1.0;"/><polygon fill="#181818" points="1246.77,146.96,1256.5904,146.2112,1251.1714,144.5878,1252.7948,139.1689,1246.77,146.96" style="stroke:#181818;stroke-width:1.0;"/><text fill="#000000" font-family="sans-serif" font-size="13" lengthAdjust="spacing" textLength="73" x="1332" y="113.0283">theController</text></g><!--link TakeAutomaticFormativeExamController to Student--><g id="link_TakeAutomaticFormativeExamController_Student"><path codeLine="61" d="M794.24,256.52 C628.16,273.47 417.95,302.08 235,349 C176.4,364.03 156.55,361.9 108,398 C92.82,409.29 79.52,425.47 69.41,440 " fill="none" id="TakeAutomaticFormativeExamController-to-Student" style="stroke:#181818;stroke-width:1.0;"/><polygon fill="#181818" points="66.38,444.45,74.7544,439.2664,69.1962,440.3186,68.1441,434.7604,66.38,444.45" style="stroke:#181818;stroke-width:1.0;"/><text fill="#000000" font-family="sans-serif" font-size="13" lengthAdjust="spacing" textLength="63" x="236" y="364.0283">theStudent</text></g><!--link TakeAutomaticFormativeExamController to Course--><g id="link_TakeAutomaticFormativeExamController_Course"><path codeLine="62" d="M794.3,267.53 C583.41,295.69 320.87,340.53 227,398 C210.33,408.2 196.58,424.96 186.55,440.14 " fill="none" id="TakeAutomaticFormativeExamController-to-Course" style="stroke:#181818;stroke-width:1.0;"/><polygon fill="#181818" points="183.82,444.37,192.0645,438.9822,186.5339,440.1706,185.3455,434.64,183.82,444.37" style="stroke:#181818;stroke-width:1.0;"/><text fill="#000000" font-family="sans-serif" font-size="13" lengthAdjust="spacing" textLength="59" x="344" y="364.0283">theCourse</text></g><!--link TakeAutomaticFormativeExamController to FormativeExam--><g id="link_TakeAutomaticFormativeExamController_FormativeExam"><path codeLine="63" d="M1323.06,319.01 C1389.12,341.65 1452.18,361.62 1486,368 C1625.04,394.21 1986.55,357.11 2122,398 C2147.02,405.55 2172.21,419.1 2193.48,432.69 " fill="none" id="TakeAutomaticFormativeExamController-to-FormativeExam" style="stroke:#181818;stroke-width:1.0;"/><polygon fill="#181818" points="2197.68,435.41,2192.2922,427.1655,2193.4806,432.6961,2187.95,433.8845,2197.68,435.41" style="stroke:#181818;stroke-width:1.0;"/><text fill="#000000" font-family="sans-serif" font-size="13" lengthAdjust="spacing" textLength="108" x="1487" y="364.0283">theFormativeExam</text></g><!--link TakeAutomaticFormativeExamController to Exam--><g id="link_TakeAutomaticFormativeExamController_Exam"><path codeLine="64" d="M794.28,298.9 C696.02,324.71 587.13,357.92 491,398 C467.99,407.6 444.02,420.43 422.92,432.82 " fill="none" id="TakeAutomaticFormativeExamController-to-Exam" style="stroke:#181818;stroke-width:1.0;"/><polygon fill="#181818" points="418.46,435.46,428.2429,434.3219,422.7638,432.9149,424.1707,427.4358,418.46,435.46" style="stroke:#181818;stroke-width:1.0;"/><text fill="#000000" font-family="sans-serif" font-size="13" lengthAdjust="spacing" textLength="52" x="620" y="364.0283">theExam</text></g><!--link TakeAutomaticFormativeExamController to ResolutionMain--><g id="link_TakeAutomaticFormativeExamController_ResolutionMain"><path codeLine="65" d="M930.11,319.12 C857.89,357.81 775.79,401.79 717.58,432.98 " fill="none" id="TakeAutomaticFormativeExamController-to-ResolutionMain" style="stroke:#181818;stroke-width:1.0;"/><polygon fill="#181818" points="713.07,435.39,722.8932,434.6792,717.4806,433.0348,719.1249,427.6222,713.07,435.39" style="stroke:#181818;stroke-width:1.0;"/></g><!--link TakeAutomaticFormativeExamController to FormativeExamService--><g id="link_TakeAutomaticFormativeExamController_FormativeExamService"><path codeLine="66" d="M1280.61,319.17 C1322.22,336.35 1366.28,353.55 1408,368 C1436.46,377.86 1466.34,387.43 1496.35,396.53 " fill="none" id="TakeAutomaticFormativeExamController-to-FormativeExamService" style="stroke:#181818;stroke-width:1.0;"/><polygon fill="#181818" points="1501.17,397.98,1493.7253,391.532,1496.3868,396.5236,1491.3951,399.1851,1501.17,397.98" style="stroke:#181818;stroke-width:1.0;"/></g><!--link TakeAutomaticFormativeExamController to CourseRepository--><g id="link_TakeAutomaticFormativeExamController_CourseRepository"><path codeLine="67" d="M1102.5,319.29 C1108.43,356.74 1115.14,399.11 1120.04,430.04 " fill="none" id="TakeAutomaticFormativeExamController-to-CourseRepository" style="stroke:#181818;stroke-width:1.0;"/><polygon fill="#181818" points="1120.87,435.29,1123.4075,425.7736,1120.0851,430.352,1115.5067,427.0296,1120.87,435.29" style="stroke:#181818;stroke-width:1.0;"/></g><!--link FormativeExamService to QuestionRepository--><g id="link_FormativeExamService_QuestionRepository"><path codeLine="68" d="M1672.68,552.2 C1632.27,578.01 1588.65,605.86 1554.06,627.95 " fill="none" id="FormativeExamService-to-QuestionRepository" style="stroke:#181818;stroke-width:1.0;"/><polygon fill="#181818" points="1549.46,630.89,1559.1995,629.4264,1553.6765,628.2028,1554.9001,622.6799,1549.46,630.89" style="stroke:#181818;stroke-width:1.0;"/></g><!--link FormativeExamService to FormativeExamRepository--><g id="link_FormativeExamService_FormativeExamRepository"><path codeLine="70" d="M1910.92,552.2 C1951.21,578.01 1994.68,605.86 2029.15,627.95 " fill="none" id="FormativeExamService-to-FormativeExamRepository" style="stroke:#181818;stroke-width:1.0;"/><polygon fill="#181818" points="2033.74,630.89,2028.3197,622.6668,2029.5299,628.1927,2024.0041,629.4029,2033.74,630.89" style="stroke:#181818;stroke-width:1.0;"/><text fill="#000000" font-family="sans-serif" font-size="13" lengthAdjust="spacing" textLength="115" x="1979" y="597.0283">formativeExamRepo</text></g><!--SRC=[jLNBRjim4BphAtYBZ2O_O1W21ATfVN2Js6vxA79OIskP3KCA9EN6AFhlNUfXYRATo0LwaiZT6UxiWxoQ2Z06JP2uBrl1CyQ5LIzWUNAdjFlkyEChl7oTiSaarsXGMjfKCehOx-1Fy2vmggJLIWZKH01vBdZIuZ-mcKKDQu6JgIgqmOXjk4nZ8PQsIEceEC-rsc5QMSrCFcYLKHJcExVREB452Eyq4uwwf9ujOe8RIzpn3hXmTXzwlrbjiJeePBRvTNpEpAm6QJQ4y52tO64ctLzuW5mxjESrAhKkhUOoOnbQj_TOe769CDMsWvUkvBWH2YpBWRWycbYQNwXDkE427y1kouCQaCz-XvYk8NbkQG-ryYYNg7SyGQgDgVxgkWoJd9HwfoezfTaN4ilqCyYqb_HF6b8yhMSE-QJITDqMj4aQHPcXf4sB2s9LRJRVZSdZbHOpr14Za7IjiThdUA1wB41QRlSpwP64vvKc8992K52UVGwlbSxZMjHjJkad3S1xKrMrqncZTuJlqozVLQtxzKzCRDWv_HIoRYFiTkXArJtQmIxGA54uyvp0n29eKhEQfAou6z5lt72hT5dXbUhLk2zqWRagtVT4fm-B_tLJc0hOqTG87XZ8eHc7zMAdjVpLwDnmlXt7FrzpSNt9jT6L0LpTOewIKf9mUX3UV0fkVgHWjfW-tKH-nCJo1NOyAw_uTpW8E-ZP65UNSRCEWc0GpF4turLIr8lXw7hynkrZC1pR6y_nqLLq0LNBS1dG7z7Xk5CFnALPQritEFdUaEVnj0LdVS_EnPXj-fOW-0i0]--></g></svg>