<?xml version="1.0" encoding="us-ascii" standalone="no"?><svg xmlns="http://www.w3.org/2000/svg" xmlns:xlink="http://www.w3.org/1999/xlink" contentStyleType="text/css" height="691px" preserveAspectRatio="none" style="width:2696px;height:691px;background:#FFFFFF;" version="1.1" viewBox="0 0 2696 691" width="2696px" zoomAndPan="magnify"><defs/><g><text fill="#000000" font-family="sans-serif" font-size="14" font-weight="bold" lengthAdjust="spacing" textLength="213" x="1234.75" y="25.1074">Domain Classes (DC) - US 2009</text><!--cluster <<aggregate>> Student--><g id="cluster_&lt;&lt;aggregate&gt;&gt; Student"><path d="M1374.5,389.6348 L1522.5,389.6348 A3.75,3.75 0 0 1 1525,392.1348 L1532,414.2559 L1587.5,414.2559 A2.5,2.5 0 0 1 1590,416.7559 L1590,660.1348 A2.5,2.5 0 0 1 1587.5,662.6348 L1374.5,662.6348 A2.5,2.5 0 0 1 1372,660.1348 L1372,392.1348 A2.5,2.5 0 0 1 1374.5,389.6348 " fill="none" style="stroke:#000000;stroke-width:1.5;"/><line style="stroke:#000000;stroke-width:1.5;" x1="1372" x2="1532" y1="414.2559" y2="414.2559"/><text fill="#000000" font-family="sans-serif" font-size="14" font-weight="bold" lengthAdjust="spacing" textLength="147" x="1376" y="406.7422">&#171;aggregate&#187; Student</text></g><!--cluster <<aggregate>> Course--><g id="cluster_&lt;&lt;aggregate&gt;&gt; Course"><path d="M8.5,45.6348 L152.5,45.6348 A3.75,3.75 0 0 1 155,48.1348 L162,70.2559 L300.5,70.2559 A2.5,2.5 0 0 1 303,72.7559 L303,522.6348 A2.5,2.5 0 0 1 300.5,525.1348 L8.5,525.1348 A2.5,2.5 0 0 1 6,522.6348 L6,48.1348 A2.5,2.5 0 0 1 8.5,45.6348 " fill="none" style="stroke:#000000;stroke-width:1.5;"/><line style="stroke:#000000;stroke-width:1.5;" x1="6" x2="162" y1="70.2559" y2="70.2559"/><text fill="#000000" font-family="sans-serif" font-size="14" font-weight="bold" lengthAdjust="spacing" textLength="143" x="10" y="62.7422">&#171;aggregate&#187; Course</text></g><!--cluster <<aggregate>> Enrollment--><g id="cluster_&lt;&lt;aggregate&gt;&gt; Enrollment"><path d="M1616.5,217.6348 L1785.5,217.6348 A3.75,3.75 0 0 1 1788,220.1348 L1795,242.2559 L1797.5,242.2559 A2.5,2.5 0 0 1 1800,244.7559 L1800,681.6348 A2.5,2.5 0 0 1 1797.5,684.1348 L1616.5,684.1348 A2.5,2.5 0 0 1 1614,681.6348 L1614,220.1348 A2.5,2.5 0 0 1 1616.5,217.6348 " fill="none" style="stroke:#000000;stroke-width:1.5;"/><line style="stroke:#000000;stroke-width:1.5;" x1="1614" x2="1795" y1="242.2559" y2="242.2559"/><text fill="#000000" font-family="sans-serif" font-size="14" font-weight="bold" lengthAdjust="spacing" textLength="168" x="1618" y="234.7422">&#171;aggregate&#187; Enrollment</text></g><!--cluster <<aggregate>> FormativeExam--><g id="cluster_&lt;&lt;aggregate&gt;&gt; FormativeExam"><path d="M1826.5,217.6348 L2027.5,217.6348 A3.75,3.75 0 0 1 2030,220.1348 L2037,242.2559 L2051.5,242.2559 A2.5,2.5 0 0 1 2054,244.7559 L2054,510.1348 A2.5,2.5 0 0 1 2051.5,512.6348 L1826.5,512.6348 A2.5,2.5 0 0 1 1824,510.1348 L1824,220.1348 A2.5,2.5 0 0 1 1826.5,217.6348 " fill="none" style="stroke:#000000;stroke-width:1.5;"/><line style="stroke:#000000;stroke-width:1.5;" x1="1824" x2="2037" y1="242.2559" y2="242.2559"/><text fill="#000000" font-family="sans-serif" font-size="14" font-weight="bold" lengthAdjust="spacing" textLength="200" x="1828" y="234.7422">&#171;aggregate&#187; FormativeExam</text></g><!--cluster <<aggregate>> Question--><g id="cluster_&lt;&lt;aggregate&gt;&gt; Question"><path d="M329.5,216.6348 L486.5,216.6348 A3.75,3.75 0 0 1 489,219.1348 L496,241.2559 L1345.5,241.2559 A2.5,2.5 0 0 1 1348,243.7559 L1348,519.6348 A2.5,2.5 0 0 1 1345.5,522.1348 L329.5,522.1348 A2.5,2.5 0 0 1 327,519.6348 L327,219.1348 A2.5,2.5 0 0 1 329.5,216.6348 " fill="none" style="stroke:#000000;stroke-width:1.5;"/><line style="stroke:#000000;stroke-width:1.5;" x1="327" x2="496" y1="241.2559" y2="241.2559"/><text fill="#000000" font-family="sans-serif" font-size="14" font-weight="bold" lengthAdjust="spacing" textLength="156" x="331" y="233.7422">&#171;aggregate&#187; Question</text></g><!--class Student--><g id="elem_Student"><rect codeLine="11" fill="#F1F1F1" height="68.543" id="Student" rx="2.5" ry="2.5" style="stroke:#181818;stroke-width:0.5;" width="81" x="1479.5" y="426.6348"/><ellipse cx="1494.5" cy="456.9063" fill="#ADD1B2" rx="11" ry="11" style="stroke:#181818;stroke-width:1.0;"/><path d="M1493.3594,457.7031 L1493.3594,460.2031 L1497.6875,460.2031 L1497.6875,459.2813 Q1497.6875,458.6719 1497.9219,458.4063 Q1498.1719,458.1406 1498.5469,458.1406 Q1498.9219,458.1406 1499.1563,458.4063 Q1499.3906,458.6719 1499.3906,459.2813 L1499.3906,461.9063 L1491.3906,461.9063 Q1490.7656,461.9063 1490.5,461.6719 Q1490.25,461.4375 1490.25,461.0469 Q1490.25,460.6719 1490.5156,460.4375 Q1490.7813,460.2031 1491.3906,460.2031 L1491.6563,460.2031 L1491.6563,453.5469 L1491.3906,453.5469 Q1490.7656,453.5469 1490.5,453.3125 Q1490.25,453.0781 1490.25,452.6875 Q1490.25,452.3125 1490.5,452.0781 Q1490.7656,451.8438 1491.3906,451.8438 L1499.0156,451.8438 L1499.0156,454.4375 Q1499.0156,455.0469 1498.7813,455.3125 Q1498.5625,455.5625 1498.1719,455.5625 Q1497.7969,455.5625 1497.5625,455.3125 Q1497.3281,455.0469 1497.3281,454.4375 L1497.3281,453.5469 L1493.3594,453.5469 L1493.3594,456 L1494.8438,456 Q1494.8438,455.3438 1494.9688,455.1563 Q1495.2344,454.75 1495.7031,454.75 Q1496.0781,454.75 1496.3125,455.0156 Q1496.5469,455.2656 1496.5469,455.875 L1496.5469,457.8438 Q1496.5469,458.3906 1496.4219,458.5781 Q1496.1563,458.9688 1495.7031,458.9688 Q1495.2344,458.9688 1494.9688,458.5625 Q1494.8438,458.375 1494.8438,457.7031 L1493.3594,457.7031 Z " fill="#000000"/><text fill="#000000" font-family="sans-serif" font-size="12" font-style="italic" lengthAdjust="spacing" textLength="43" x="1511.5" y="444.584">&#171;entity&#187;</text><text fill="#000000" font-family="sans-serif" font-size="12" font-style="italic" lengthAdjust="spacing" textLength="35" x="1515.5" y="460.5449">&#171;root&#187;</text><text fill="#000000" font-family="sans-serif" font-size="14" lengthAdjust="spacing" textLength="49" x="1508.5" y="478.6641">Student</text><line style="stroke:#181818;stroke-width:0.5;" x1="1480.5" x2="1559.5" y1="487.1777" y2="487.1777"/></g><!--class MechanographicNumber--><g id="elem_MechanographicNumber"><rect codeLine="12" fill="#F1F1F1" height="52.582" id="MechanographicNumber" rx="2.5" ry="2.5" style="stroke:#181818;stroke-width:0.5;" width="186" x="1388" y="593.6348"/><ellipse cx="1403" cy="615.9258" fill="#FF8B40" rx="11" ry="11" style="stroke:#181818;stroke-width:1.0;"/><path d="M1403.5938,619.1914 L1406.0625,613.3164 L1405.6719,613.3164 Q1405.0625,613.3164 1404.7969,613.082 Q1404.5313,612.8477 1404.5313,612.457 Q1404.5313,612.082 1404.7969,611.8477 Q1405.0625,611.6133 1405.6719,611.6133 L1407.9531,611.6133 Q1408.5625,611.6133 1408.8281,611.8477 Q1409.0938,612.082 1409.0938,612.457 Q1409.0938,612.9258 1408.6875,613.1914 Q1408.5,613.3164 1407.9063,613.3164 L1404.4219,621.6758 L1402.7813,621.6758 L1399.2969,613.3164 Q1398.7031,613.3164 1398.5156,613.1914 Q1398.1094,612.9258 1398.1094,612.457 Q1398.1094,612.082 1398.375,611.8477 Q1398.6406,611.6133 1399.25,611.6133 L1401.5469,611.6133 Q1402.1563,611.6133 1402.4063,611.8477 Q1402.6719,612.082 1402.6719,612.457 Q1402.6719,612.8477 1402.4063,613.082 Q1402.1563,613.3164 1401.5469,613.3164 L1401.1406,613.3164 L1403.5938,619.1914 Z " fill="#000000"/><text fill="#000000" font-family="sans-serif" font-size="12" font-style="italic" lengthAdjust="spacing" textLength="81" x="1453.5" y="611.584">&#171;value object&#187;</text><text fill="#000000" font-family="sans-serif" font-size="14" lengthAdjust="spacing" textLength="154" x="1417" y="629.7031">MechanographicNumber</text><line style="stroke:#181818;stroke-width:0.5;" x1="1389" x2="1573" y1="638.2168" y2="638.2168"/></g><!--class Course--><g id="elem_Course"><rect codeLine="17" fill="#F1F1F1" height="68.543" id="Course" rx="2.5" ry="2.5" style="stroke:#181818;stroke-width:0.5;" width="78" x="209" y="82.6348"/><ellipse cx="224" cy="112.9063" fill="#ADD1B2" rx="11" ry="11" style="stroke:#181818;stroke-width:1.0;"/><path d="M222.8594,113.7031 L222.8594,116.2031 L227.1875,116.2031 L227.1875,115.2813 Q227.1875,114.6719 227.4219,114.4063 Q227.6719,114.1406 228.0469,114.1406 Q228.4219,114.1406 228.6563,114.4063 Q228.8906,114.6719 228.8906,115.2813 L228.8906,117.9063 L220.8906,117.9063 Q220.2656,117.9063 220,117.6719 Q219.75,117.4375 219.75,117.0469 Q219.75,116.6719 220.0156,116.4375 Q220.2813,116.2031 220.8906,116.2031 L221.1563,116.2031 L221.1563,109.5469 L220.8906,109.5469 Q220.2656,109.5469 220,109.3125 Q219.75,109.0781 219.75,108.6875 Q219.75,108.3125 220,108.0781 Q220.2656,107.8438 220.8906,107.8438 L228.5156,107.8438 L228.5156,110.4375 Q228.5156,111.0469 228.2813,111.3125 Q228.0625,111.5625 227.6719,111.5625 Q227.2969,111.5625 227.0625,111.3125 Q226.8281,111.0469 226.8281,110.4375 L226.8281,109.5469 L222.8594,109.5469 L222.8594,112 L224.3438,112 Q224.3438,111.3438 224.4688,111.1563 Q224.7344,110.75 225.2031,110.75 Q225.5781,110.75 225.8125,111.0156 Q226.0469,111.2656 226.0469,111.875 L226.0469,113.8438 Q226.0469,114.3906 225.9219,114.5781 Q225.6563,114.9688 225.2031,114.9688 Q224.7344,114.9688 224.4688,114.5625 Q224.3438,114.375 224.3438,113.7031 L222.8594,113.7031 Z " fill="#000000"/><text fill="#000000" font-family="sans-serif" font-size="12" font-style="italic" lengthAdjust="spacing" textLength="43" x="239.5" y="100.584">&#171;entity&#187;</text><text fill="#000000" font-family="sans-serif" font-size="12" font-style="italic" lengthAdjust="spacing" textLength="35" x="243.5" y="116.5449">&#171;root&#187;</text><text fill="#000000" font-family="sans-serif" font-size="14" lengthAdjust="spacing" textLength="46" x="238" y="134.6641">Course</text><line style="stroke:#181818;stroke-width:0.5;" x1="210" x2="286" y1="143.1777" y2="143.1777"/></g><!--class CourseCode--><g id="elem_CourseCode"><rect codeLine="18" fill="#F1F1F1" height="52.582" id="CourseCode" rx="2.5" ry="2.5" style="stroke:#181818;stroke-width:0.5;" width="112" x="22" y="262.6348"/><ellipse cx="37" cy="284.9258" fill="#FF8B40" rx="11" ry="11" style="stroke:#181818;stroke-width:1.0;"/><path d="M37.5938,288.1914 L40.0625,282.3164 L39.6719,282.3164 Q39.0625,282.3164 38.7969,282.082 Q38.5313,281.8477 38.5313,281.457 Q38.5313,281.082 38.7969,280.8477 Q39.0625,280.6133 39.6719,280.6133 L41.9531,280.6133 Q42.5625,280.6133 42.8281,280.8477 Q43.0938,281.082 43.0938,281.457 Q43.0938,281.9258 42.6875,282.1914 Q42.5,282.3164 41.9063,282.3164 L38.4219,290.6758 L36.7813,290.6758 L33.2969,282.3164 Q32.7031,282.3164 32.5156,282.1914 Q32.1094,281.9258 32.1094,281.457 Q32.1094,281.082 32.375,280.8477 Q32.6406,280.6133 33.25,280.6133 L35.5469,280.6133 Q36.1563,280.6133 36.4063,280.8477 Q36.6719,281.082 36.6719,281.457 Q36.6719,281.8477 36.4063,282.082 Q36.1563,282.3164 35.5469,282.3164 L35.1406,282.3164 L37.5938,288.1914 Z " fill="#000000"/><text fill="#000000" font-family="sans-serif" font-size="12" font-style="italic" lengthAdjust="spacing" textLength="81" x="50.5" y="280.584">&#171;value object&#187;</text><text fill="#000000" font-family="sans-serif" font-size="14" lengthAdjust="spacing" textLength="80" x="51" y="298.7031">CourseCode</text><line style="stroke:#181818;stroke-width:0.5;" x1="23" x2="133" y1="307.2168" y2="307.2168"/></g><!--class CourseStatus--><g id="elem_CourseStatus"><rect codeLine="19" fill="#F1F1F1" height="52.582" id="CourseStatus" rx="2.5" ry="2.5" style="stroke:#181818;stroke-width:0.5;" width="118" x="169" y="262.6348"/><ellipse cx="184" cy="284.9258" fill="#FF8B40" rx="11" ry="11" style="stroke:#181818;stroke-width:1.0;"/><path d="M184.5938,288.1914 L187.0625,282.3164 L186.6719,282.3164 Q186.0625,282.3164 185.7969,282.082 Q185.5313,281.8477 185.5313,281.457 Q185.5313,281.082 185.7969,280.8477 Q186.0625,280.6133 186.6719,280.6133 L188.9531,280.6133 Q189.5625,280.6133 189.8281,280.8477 Q190.0938,281.082 190.0938,281.457 Q190.0938,281.9258 189.6875,282.1914 Q189.5,282.3164 188.9063,282.3164 L185.4219,290.6758 L183.7813,290.6758 L180.2969,282.3164 Q179.7031,282.3164 179.5156,282.1914 Q179.1094,281.9258 179.1094,281.457 Q179.1094,281.082 179.375,280.8477 Q179.6406,280.6133 180.25,280.6133 L182.5469,280.6133 Q183.1563,280.6133 183.4063,280.8477 Q183.6719,281.082 183.6719,281.457 Q183.6719,281.8477 183.4063,282.082 Q183.1563,282.3164 182.5469,282.3164 L182.1406,282.3164 L184.5938,288.1914 Z " fill="#000000"/><text fill="#000000" font-family="sans-serif" font-size="12" font-style="italic" lengthAdjust="spacing" textLength="81" x="200.5" y="280.584">&#171;value object&#187;</text><text fill="#000000" font-family="sans-serif" font-size="14" lengthAdjust="spacing" textLength="86" x="198" y="298.7031">CourseStatus</text><line style="stroke:#181818;stroke-width:0.5;" x1="170" x2="286" y1="307.2168" y2="307.2168"/></g><g id="elem_GMN9"><path d="M141,413.1348 L141,509.5898 A0,0 0 0 0 141,509.5898 L287,509.5898 A0,0 0 0 0 287,509.5898 L287,423.1348 L277,413.1348 L221.9,413.1348 L225.87,315.9548 L213.9,413.1348 L141,413.1348 A0,0 0 0 0 141,413.1348 " fill="#FEFFDD" style="stroke:#181818;stroke-width:0.5;"/><path d="M277,413.1348 L277,423.1348 L287,423.1348 L277,413.1348 " fill="#FEFFDD" style="stroke:#181818;stroke-width:0.5;"/><text fill="#000000" font-family="sans-serif" font-size="13" lengthAdjust="spacing" textLength="123" x="147" y="432.1631">Diagrama de estados</text><text fill="#000000" font-family="sans-serif" font-size="13" lengthAdjust="spacing" textLength="96" x="147" y="449.4541">dispon&#237;vel com o</text><text fill="#000000" font-family="sans-serif" font-size="13" lengthAdjust="spacing" textLength="125" x="147" y="466.7451">nome "course-status"</text><text fill="#000000" font-family="sans-serif" font-size="13" lengthAdjust="spacing" textLength="121" x="147" y="484.0361">na documenta&#231;&#227;o da</text><text fill="#000000" font-family="sans-serif" font-size="13" lengthAdjust="spacing" textLength="53" x="147" y="501.3271">US G002</text></g><!--class Enrollment--><g id="elem_Enrollment"><rect codeLine="31" fill="#F1F1F1" height="68.543" id="Enrollment" rx="2.5" ry="2.5" style="stroke:#181818;stroke-width:0.5;" width="99" x="1630.5" y="254.6348"/><ellipse cx="1645.5" cy="284.9063" fill="#ADD1B2" rx="11" ry="11" style="stroke:#181818;stroke-width:1.0;"/><path d="M1644.3594,285.7031 L1644.3594,288.2031 L1648.6875,288.2031 L1648.6875,287.2813 Q1648.6875,286.6719 1648.9219,286.4063 Q1649.1719,286.1406 1649.5469,286.1406 Q1649.9219,286.1406 1650.1563,286.4063 Q1650.3906,286.6719 1650.3906,287.2813 L1650.3906,289.9063 L1642.3906,289.9063 Q1641.7656,289.9063 1641.5,289.6719 Q1641.25,289.4375 1641.25,289.0469 Q1641.25,288.6719 1641.5156,288.4375 Q1641.7813,288.2031 1642.3906,288.2031 L1642.6563,288.2031 L1642.6563,281.5469 L1642.3906,281.5469 Q1641.7656,281.5469 1641.5,281.3125 Q1641.25,281.0781 1641.25,280.6875 Q1641.25,280.3125 1641.5,280.0781 Q1641.7656,279.8438 1642.3906,279.8438 L1650.0156,279.8438 L1650.0156,282.4375 Q1650.0156,283.0469 1649.7813,283.3125 Q1649.5625,283.5625 1649.1719,283.5625 Q1648.7969,283.5625 1648.5625,283.3125 Q1648.3281,283.0469 1648.3281,282.4375 L1648.3281,281.5469 L1644.3594,281.5469 L1644.3594,284 L1645.8438,284 Q1645.8438,283.3438 1645.9688,283.1563 Q1646.2344,282.75 1646.7031,282.75 Q1647.0781,282.75 1647.3125,283.0156 Q1647.5469,283.2656 1647.5469,283.875 L1647.5469,285.8438 Q1647.5469,286.3906 1647.4219,286.5781 Q1647.1563,286.9688 1646.7031,286.9688 Q1646.2344,286.9688 1645.9688,286.5625 Q1645.8438,286.375 1645.8438,285.7031 L1644.3594,285.7031 Z " fill="#000000"/><text fill="#000000" font-family="sans-serif" font-size="12" font-style="italic" lengthAdjust="spacing" textLength="43" x="1671.5" y="272.584">&#171;entity&#187;</text><text fill="#000000" font-family="sans-serif" font-size="12" font-style="italic" lengthAdjust="spacing" textLength="35" x="1675.5" y="288.5449">&#171;root&#187;</text><text fill="#000000" font-family="sans-serif" font-size="14" lengthAdjust="spacing" textLength="67" x="1659.5" y="306.6641">Enrollment</text><line style="stroke:#181818;stroke-width:0.5;" x1="1631.5" x2="1728.5" y1="315.1777" y2="315.1777"/></g><!--class EnrollmentStatus--><g id="elem_EnrollmentStatus"><rect codeLine="32" fill="#F1F1F1" height="52.582" id="EnrollmentStatus" rx="2.5" ry="2.5" style="stroke:#181818;stroke-width:0.5;" width="139" x="1633.5" y="434.6348"/><ellipse cx="1648.5" cy="456.9258" fill="#FF8B40" rx="11" ry="11" style="stroke:#181818;stroke-width:1.0;"/><path d="M1649.0938,460.1914 L1651.5625,454.3164 L1651.1719,454.3164 Q1650.5625,454.3164 1650.2969,454.082 Q1650.0313,453.8477 1650.0313,453.457 Q1650.0313,453.082 1650.2969,452.8477 Q1650.5625,452.6133 1651.1719,452.6133 L1653.4531,452.6133 Q1654.0625,452.6133 1654.3281,452.8477 Q1654.5938,453.082 1654.5938,453.457 Q1654.5938,453.9258 1654.1875,454.1914 Q1654,454.3164 1653.4063,454.3164 L1649.9219,462.6758 L1648.2813,462.6758 L1644.7969,454.3164 Q1644.2031,454.3164 1644.0156,454.1914 Q1643.6094,453.9258 1643.6094,453.457 Q1643.6094,453.082 1643.875,452.8477 Q1644.1406,452.6133 1644.75,452.6133 L1647.0469,452.6133 Q1647.6563,452.6133 1647.9063,452.8477 Q1648.1719,453.082 1648.1719,453.457 Q1648.1719,453.8477 1647.9063,454.082 Q1647.6563,454.3164 1647.0469,454.3164 L1646.6406,454.3164 L1649.0938,460.1914 Z " fill="#000000"/><text fill="#000000" font-family="sans-serif" font-size="12" font-style="italic" lengthAdjust="spacing" textLength="81" x="1675.5" y="452.584">&#171;value object&#187;</text><text fill="#000000" font-family="sans-serif" font-size="14" lengthAdjust="spacing" textLength="107" x="1662.5" y="470.7031">EnrollmentStatus</text><line style="stroke:#181818;stroke-width:0.5;" x1="1634.5" x2="1771.5" y1="479.2168" y2="479.2168"/></g><g id="elem_GMN15"><path d="M1630.5,572.1348 L1630.5,668.5898 A0,0 0 0 0 1630.5,668.5898 L1783.5,668.5898 A0,0 0 0 0 1783.5,668.5898 L1783.5,582.1348 L1773.5,572.1348 L1709.8,572.1348 L1703.65,487.7048 L1701.8,572.1348 L1630.5,572.1348 A0,0 0 0 0 1630.5,572.1348 " fill="#FEFFDD" style="stroke:#181818;stroke-width:0.5;"/><path d="M1773.5,572.1348 L1773.5,582.1348 L1783.5,582.1348 L1773.5,572.1348 " fill="#FEFFDD" style="stroke:#181818;stroke-width:0.5;"/><text fill="#000000" font-family="sans-serif" font-size="13" lengthAdjust="spacing" textLength="123" x="1636.5" y="591.1631">Diagrama de estados</text><text fill="#000000" font-family="sans-serif" font-size="13" lengthAdjust="spacing" textLength="132" x="1636.5" y="608.4541">dispon&#237;vel com o nome</text><text fill="#000000" font-family="sans-serif" font-size="13" lengthAdjust="spacing" textLength="110" x="1636.5" y="625.7451">"enrollment-status"</text><text fill="#000000" font-family="sans-serif" font-size="13" lengthAdjust="spacing" textLength="121" x="1636.5" y="643.0361">na documenta&#231;&#227;o da</text><text fill="#000000" font-family="sans-serif" font-size="13" lengthAdjust="spacing" textLength="53" x="1636.5" y="660.3271">US G002</text></g><!--class FormativeExam--><g id="elem_FormativeExam"><rect codeLine="44" fill="#F1F1F1" height="68.543" id="FormativeExam" rx="2.5" ry="2.5" style="stroke:#181818;stroke-width:0.5;" width="129" x="1908.5" y="254.6348"/><ellipse cx="1923.5" cy="284.9063" fill="#ADD1B2" rx="11" ry="11" style="stroke:#181818;stroke-width:1.0;"/><path d="M1922.3594,285.7031 L1922.3594,288.2031 L1926.6875,288.2031 L1926.6875,287.2813 Q1926.6875,286.6719 1926.9219,286.4063 Q1927.1719,286.1406 1927.5469,286.1406 Q1927.9219,286.1406 1928.1563,286.4063 Q1928.3906,286.6719 1928.3906,287.2813 L1928.3906,289.9063 L1920.3906,289.9063 Q1919.7656,289.9063 1919.5,289.6719 Q1919.25,289.4375 1919.25,289.0469 Q1919.25,288.6719 1919.5156,288.4375 Q1919.7813,288.2031 1920.3906,288.2031 L1920.6563,288.2031 L1920.6563,281.5469 L1920.3906,281.5469 Q1919.7656,281.5469 1919.5,281.3125 Q1919.25,281.0781 1919.25,280.6875 Q1919.25,280.3125 1919.5,280.0781 Q1919.7656,279.8438 1920.3906,279.8438 L1928.0156,279.8438 L1928.0156,282.4375 Q1928.0156,283.0469 1927.7813,283.3125 Q1927.5625,283.5625 1927.1719,283.5625 Q1926.7969,283.5625 1926.5625,283.3125 Q1926.3281,283.0469 1926.3281,282.4375 L1926.3281,281.5469 L1922.3594,281.5469 L1922.3594,284 L1923.8438,284 Q1923.8438,283.3438 1923.9688,283.1563 Q1924.2344,282.75 1924.7031,282.75 Q1925.0781,282.75 1925.3125,283.0156 Q1925.5469,283.2656 1925.5469,283.875 L1925.5469,285.8438 Q1925.5469,286.3906 1925.4219,286.5781 Q1925.1563,286.9688 1924.7031,286.9688 Q1924.2344,286.9688 1923.9688,286.5625 Q1923.8438,286.375 1923.8438,285.7031 L1922.3594,285.7031 Z " fill="#000000"/><text fill="#000000" font-family="sans-serif" font-size="12" font-style="italic" lengthAdjust="spacing" textLength="43" x="1964.5" y="272.584">&#171;entity&#187;</text><text fill="#000000" font-family="sans-serif" font-size="12" font-style="italic" lengthAdjust="spacing" textLength="35" x="1968.5" y="288.5449">&#171;root&#187;</text><text fill="#000000" font-family="sans-serif" font-size="14" lengthAdjust="spacing" textLength="97" x="1937.5" y="306.6641">FormativeExam</text><line style="stroke:#181818;stroke-width:0.5;" x1="1909.5" x2="2036.5" y1="315.1777" y2="315.1777"/></g><!--class FormativeExamSection--><g id="elem_FormativeExamSection"><rect codeLine="47" fill="#F1F1F1" height="71.2031" id="FormativeExamSection" rx="2.5" ry="2.5" style="stroke:#181818;stroke-width:0.5;" width="198" x="1840" y="425.6348"/><ellipse cx="1864.9" cy="447.9258" fill="#ADD1B2" rx="11" ry="11" style="stroke:#181818;stroke-width:1.0;"/><path d="M1863.7594,448.7227 L1863.7594,451.2227 L1868.0875,451.2227 L1868.0875,450.3008 Q1868.0875,449.6914 1868.3219,449.4258 Q1868.5719,449.1602 1868.9469,449.1602 Q1869.3219,449.1602 1869.5563,449.4258 Q1869.7906,449.6914 1869.7906,450.3008 L1869.7906,452.9258 L1861.7906,452.9258 Q1861.1656,452.9258 1860.9,452.6914 Q1860.65,452.457 1860.65,452.0664 Q1860.65,451.6914 1860.9156,451.457 Q1861.1813,451.2227 1861.7906,451.2227 L1862.0563,451.2227 L1862.0563,444.5664 L1861.7906,444.5664 Q1861.1656,444.5664 1860.9,444.332 Q1860.65,444.0977 1860.65,443.707 Q1860.65,443.332 1860.9,443.0977 Q1861.1656,442.8633 1861.7906,442.8633 L1869.4156,442.8633 L1869.4156,445.457 Q1869.4156,446.0664 1869.1813,446.332 Q1868.9625,446.582 1868.5719,446.582 Q1868.1969,446.582 1867.9625,446.332 Q1867.7281,446.0664 1867.7281,445.457 L1867.7281,444.5664 L1863.7594,444.5664 L1863.7594,447.0195 L1865.2438,447.0195 Q1865.2438,446.3633 1865.3688,446.1758 Q1865.6344,445.7695 1866.1031,445.7695 Q1866.4781,445.7695 1866.7125,446.0352 Q1866.9469,446.2852 1866.9469,446.8945 L1866.9469,448.8633 Q1866.9469,449.4102 1866.8219,449.5977 Q1866.5563,449.9883 1866.1031,449.9883 Q1865.6344,449.9883 1865.3688,449.582 Q1865.2438,449.3945 1865.2438,448.7227 L1863.7594,448.7227 Z " fill="#000000"/><text fill="#000000" font-family="sans-serif" font-size="12" font-style="italic" lengthAdjust="spacing" textLength="43" x="1931.6" y="443.584">&#171;entity&#187;</text><text fill="#000000" font-family="sans-serif" font-size="14" lengthAdjust="spacing" textLength="144" x="1881.1" y="461.7031">FormativeExamSection</text><line style="stroke:#181818;stroke-width:0.5;" x1="1841" x2="2037" y1="470.2168" y2="470.2168"/><text fill="#000000" font-family="sans-serif" font-size="14" lengthAdjust="spacing" textLength="186" x="1846" y="489.3242">questionAndRequiredNumber</text></g><!--class Answer--><g id="elem_Answer"><rect codeLine="70" fill="#F1F1F1" height="89.8242" id="Answer" rx="2.5" ry="2.5" style="stroke:#181818;stroke-width:0.5;" width="102" x="343" y="416.1348"/><ellipse cx="368.8" cy="438.4258" fill="#ADD1B2" rx="11" ry="11" style="stroke:#181818;stroke-width:1.0;"/><path d="M367.6594,439.2227 L367.6594,441.7227 L371.9875,441.7227 L371.9875,440.8008 Q371.9875,440.1914 372.2219,439.9258 Q372.4719,439.6602 372.8469,439.6602 Q373.2219,439.6602 373.4563,439.9258 Q373.6906,440.1914 373.6906,440.8008 L373.6906,443.4258 L365.6906,443.4258 Q365.0656,443.4258 364.8,443.1914 Q364.55,442.957 364.55,442.5664 Q364.55,442.1914 364.8156,441.957 Q365.0813,441.7227 365.6906,441.7227 L365.9563,441.7227 L365.9563,435.0664 L365.6906,435.0664 Q365.0656,435.0664 364.8,434.832 Q364.55,434.5977 364.55,434.207 Q364.55,433.832 364.8,433.5977 Q365.0656,433.3633 365.6906,433.3633 L373.3156,433.3633 L373.3156,435.957 Q373.3156,436.5664 373.0813,436.832 Q372.8625,437.082 372.4719,437.082 Q372.0969,437.082 371.8625,436.832 Q371.6281,436.5664 371.6281,435.957 L371.6281,435.0664 L367.6594,435.0664 L367.6594,437.5195 L369.1438,437.5195 Q369.1438,436.8633 369.2688,436.6758 Q369.5344,436.2695 370.0031,436.2695 Q370.3781,436.2695 370.6125,436.5352 Q370.8469,436.7852 370.8469,437.3945 L370.8469,439.3633 Q370.8469,439.9102 370.7219,440.0977 Q370.4563,440.4883 370.0031,440.4883 Q369.5344,440.4883 369.2688,440.082 Q369.1438,439.8945 369.1438,439.2227 L367.6594,439.2227 Z " fill="#000000"/><text fill="#000000" font-family="sans-serif" font-size="12" font-style="italic" lengthAdjust="spacing" textLength="50" x="383.2" y="434.084">&#171;entity&gt;&#187;</text><text fill="#000000" font-family="sans-serif" font-size="14" lengthAdjust="spacing" textLength="46" x="385.2" y="452.2031">Answer</text><line style="stroke:#181818;stroke-width:0.5;" x1="344" x2="444" y1="460.7168" y2="460.7168"/><text fill="#000000" font-family="sans-serif" font-size="14" lengthAdjust="spacing" textLength="90" x="349" y="479.8242">correctAnswer</text><text fill="#000000" font-family="sans-serif" font-size="14" lengthAdjust="spacing" textLength="58" x="349" y="498.4453">feedback</text></g><!--class Question--><g id="elem_Question"><rect codeLine="76" fill="#F1F1F1" height="71.2031" id="Question" rx="2.5" ry="2.5" style="stroke:#181818;stroke-width:0.5;" width="93" x="696.5" y="253.6348"/><ellipse cx="711.5" cy="275.9258" fill="#A9DCDF" rx="11" ry="11" style="stroke:#181818;stroke-width:1.0;"/><path d="M713.6875,277.6914 L709.5469,277.6914 L709.125,278.7227 L709.5469,278.7227 Q710.1563,278.7227 710.4219,278.957 Q710.6875,279.1914 710.6875,279.582 Q710.6875,279.957 710.4219,280.1914 Q710.1563,280.4258 709.5469,280.4258 L707.25,280.4258 Q706.6406,280.4258 706.3906,280.1914 Q706.125,279.957 706.125,279.5664 Q706.125,279.1914 706.4063,278.957 Q706.6719,278.707 707.2969,278.7227 L709.9688,272.0664 L708.8594,272.0664 Q708.25,272.0664 707.9844,271.832 Q707.7188,271.5977 707.7188,271.207 Q707.7188,270.832 707.9844,270.5977 Q708.25,270.3633 708.8594,270.3633 L712.5313,270.3633 L715.9219,278.7227 Q716.5156,278.7227 716.7031,278.8633 Q717.0938,279.1289 717.0938,279.582 Q717.0938,279.957 716.8281,280.1914 Q716.5781,280.4258 715.9688,280.4258 L713.6719,280.4258 Q713.0625,280.4258 712.7969,280.1914 Q712.5313,279.957 712.5313,279.5664 Q712.5313,279.1914 712.7969,278.957 Q713.0625,278.7227 713.6719,278.7227 L714.0938,278.7227 L713.6875,277.6914 Z M712.9688,275.9883 L711.6094,272.6133 L710.2344,275.9883 L712.9688,275.9883 Z " fill="#000000"/><text fill="#000000" font-family="sans-serif" font-size="12" font-style="italic" lengthAdjust="spacing" textLength="65" x="723.5" y="271.584">&#171;abstract&gt;&#187;</text><text fill="#000000" font-family="sans-serif" font-size="14" font-style="italic" lengthAdjust="spacing" textLength="57" x="727.5" y="289.7031">Question</text><line style="stroke:#181818;stroke-width:0.5;" x1="697.5" x2="788.5" y1="298.2168" y2="298.2168"/><text fill="#000000" font-family="sans-serif" font-size="14" lengthAdjust="spacing" textLength="22" x="702.5" y="317.3242">text</text></g><!--class QuestionScore--><g id="elem_QuestionScore"><rect codeLine="79" fill="#F1F1F1" height="52.582" id="QuestionScore" rx="2.5" ry="2.5" style="stroke:#181818;stroke-width:0.5;" width="126" x="535" y="262.6348"/><ellipse cx="550" cy="284.9258" fill="#FF8B40" rx="11" ry="11" style="stroke:#181818;stroke-width:1.0;"/><path d="M550.5938,288.1914 L553.0625,282.3164 L552.6719,282.3164 Q552.0625,282.3164 551.7969,282.082 Q551.5313,281.8477 551.5313,281.457 Q551.5313,281.082 551.7969,280.8477 Q552.0625,280.6133 552.6719,280.6133 L554.9531,280.6133 Q555.5625,280.6133 555.8281,280.8477 Q556.0938,281.082 556.0938,281.457 Q556.0938,281.9258 555.6875,282.1914 Q555.5,282.3164 554.9063,282.3164 L551.4219,290.6758 L549.7813,290.6758 L546.2969,282.3164 Q545.7031,282.3164 545.5156,282.1914 Q545.1094,281.9258 545.1094,281.457 Q545.1094,281.082 545.375,280.8477 Q545.6406,280.6133 546.25,280.6133 L548.5469,280.6133 Q549.1563,280.6133 549.4063,280.8477 Q549.6719,281.082 549.6719,281.457 Q549.6719,281.8477 549.4063,282.082 Q549.1563,282.3164 548.5469,282.3164 L548.1406,282.3164 L550.5938,288.1914 Z " fill="#000000"/><text fill="#000000" font-family="sans-serif" font-size="12" font-style="italic" lengthAdjust="spacing" textLength="81" x="570.5" y="280.584">&#171;value object&#187;</text><text fill="#000000" font-family="sans-serif" font-size="14" lengthAdjust="spacing" textLength="94" x="564" y="298.7031">QuestionScore</text><line style="stroke:#181818;stroke-width:0.5;" x1="536" x2="660" y1="307.2168" y2="307.2168"/></g><!--class Matching--><g id="elem_Matching"><rect codeLine="81" fill="#F1F1F1" height="52.582" id="Matching" rx="2.5" ry="2.5" style="stroke:#181818;stroke-width:0.5;" width="89" x="480.5" y="434.6348"/><ellipse cx="495.5" cy="456.9258" fill="#ADD1B2" rx="11" ry="11" style="stroke:#181818;stroke-width:1.0;"/><path d="M494.3594,457.7227 L494.3594,460.2227 L498.6875,460.2227 L498.6875,459.3008 Q498.6875,458.6914 498.9219,458.4258 Q499.1719,458.1602 499.5469,458.1602 Q499.9219,458.1602 500.1563,458.4258 Q500.3906,458.6914 500.3906,459.3008 L500.3906,461.9258 L492.3906,461.9258 Q491.7656,461.9258 491.5,461.6914 Q491.25,461.457 491.25,461.0664 Q491.25,460.6914 491.5156,460.457 Q491.7813,460.2227 492.3906,460.2227 L492.6563,460.2227 L492.6563,453.5664 L492.3906,453.5664 Q491.7656,453.5664 491.5,453.332 Q491.25,453.0977 491.25,452.707 Q491.25,452.332 491.5,452.0977 Q491.7656,451.8633 492.3906,451.8633 L500.0156,451.8633 L500.0156,454.457 Q500.0156,455.0664 499.7813,455.332 Q499.5625,455.582 499.1719,455.582 Q498.7969,455.582 498.5625,455.332 Q498.3281,455.0664 498.3281,454.457 L498.3281,453.5664 L494.3594,453.5664 L494.3594,456.0195 L495.8438,456.0195 Q495.8438,455.3633 495.9688,455.1758 Q496.2344,454.7695 496.7031,454.7695 Q497.0781,454.7695 497.3125,455.0352 Q497.5469,455.2852 497.5469,455.8945 L497.5469,457.8633 Q497.5469,458.4102 497.4219,458.5977 Q497.1563,458.9883 496.7031,458.9883 Q496.2344,458.9883 495.9688,458.582 Q495.8438,458.3945 495.8438,457.7227 L494.3594,457.7227 Z " fill="#000000"/><text fill="#000000" font-family="sans-serif" font-size="12" font-style="italic" lengthAdjust="spacing" textLength="50" x="513" y="452.584">&#171;entity&gt;&#187;</text><text fill="#000000" font-family="sans-serif" font-size="14" lengthAdjust="spacing" textLength="57" x="509.5" y="470.7031">Matching</text><line style="stroke:#181818;stroke-width:0.5;" x1="481.5" x2="568.5" y1="479.2168" y2="479.2168"/></g><!--class MultipleChoice--><g id="elem_MultipleChoice"><rect codeLine="82" fill="#F1F1F1" height="52.582" id="MultipleChoice" rx="2.5" ry="2.5" style="stroke:#181818;stroke-width:0.5;" width="124" x="605" y="434.6348"/><ellipse cx="620" cy="456.9258" fill="#ADD1B2" rx="11" ry="11" style="stroke:#181818;stroke-width:1.0;"/><path d="M618.8594,457.7227 L618.8594,460.2227 L623.1875,460.2227 L623.1875,459.3008 Q623.1875,458.6914 623.4219,458.4258 Q623.6719,458.1602 624.0469,458.1602 Q624.4219,458.1602 624.6563,458.4258 Q624.8906,458.6914 624.8906,459.3008 L624.8906,461.9258 L616.8906,461.9258 Q616.2656,461.9258 616,461.6914 Q615.75,461.457 615.75,461.0664 Q615.75,460.6914 616.0156,460.457 Q616.2813,460.2227 616.8906,460.2227 L617.1563,460.2227 L617.1563,453.5664 L616.8906,453.5664 Q616.2656,453.5664 616,453.332 Q615.75,453.0977 615.75,452.707 Q615.75,452.332 616,452.0977 Q616.2656,451.8633 616.8906,451.8633 L624.5156,451.8633 L624.5156,454.457 Q624.5156,455.0664 624.2813,455.332 Q624.0625,455.582 623.6719,455.582 Q623.2969,455.582 623.0625,455.332 Q622.8281,455.0664 622.8281,454.457 L622.8281,453.5664 L618.8594,453.5664 L618.8594,456.0195 L620.3438,456.0195 Q620.3438,455.3633 620.4688,455.1758 Q620.7344,454.7695 621.2031,454.7695 Q621.5781,454.7695 621.8125,455.0352 Q622.0469,455.2852 622.0469,455.8945 L622.0469,457.8633 Q622.0469,458.4102 621.9219,458.5977 Q621.6563,458.9883 621.2031,458.9883 Q620.7344,458.9883 620.4688,458.582 Q620.3438,458.3945 620.3438,457.7227 L618.8594,457.7227 Z " fill="#000000"/><text fill="#000000" font-family="sans-serif" font-size="12" font-style="italic" lengthAdjust="spacing" textLength="50" x="655" y="452.584">&#171;entity&gt;&#187;</text><text fill="#000000" font-family="sans-serif" font-size="14" lengthAdjust="spacing" textLength="92" x="634" y="470.7031">MultipleChoice</text><line style="stroke:#181818;stroke-width:0.5;" x1="606" x2="728" y1="479.2168" y2="479.2168"/></g><!--class ShortAnswer--><g id="elem_ShortAnswer"><rect codeLine="83" fill="#F1F1F1" height="52.582" id="ShortAnswer" rx="2.5" ry="2.5" style="stroke:#181818;stroke-width:0.5;" width="112" x="764" y="434.6348"/><ellipse cx="779" cy="456.9258" fill="#ADD1B2" rx="11" ry="11" style="stroke:#181818;stroke-width:1.0;"/><path d="M777.8594,457.7227 L777.8594,460.2227 L782.1875,460.2227 L782.1875,459.3008 Q782.1875,458.6914 782.4219,458.4258 Q782.6719,458.1602 783.0469,458.1602 Q783.4219,458.1602 783.6563,458.4258 Q783.8906,458.6914 783.8906,459.3008 L783.8906,461.9258 L775.8906,461.9258 Q775.2656,461.9258 775,461.6914 Q774.75,461.457 774.75,461.0664 Q774.75,460.6914 775.0156,460.457 Q775.2813,460.2227 775.8906,460.2227 L776.1563,460.2227 L776.1563,453.5664 L775.8906,453.5664 Q775.2656,453.5664 775,453.332 Q774.75,453.0977 774.75,452.707 Q774.75,452.332 775,452.0977 Q775.2656,451.8633 775.8906,451.8633 L783.5156,451.8633 L783.5156,454.457 Q783.5156,455.0664 783.2813,455.332 Q783.0625,455.582 782.6719,455.582 Q782.2969,455.582 782.0625,455.332 Q781.8281,455.0664 781.8281,454.457 L781.8281,453.5664 L777.8594,453.5664 L777.8594,456.0195 L779.3438,456.0195 Q779.3438,455.3633 779.4688,455.1758 Q779.7344,454.7695 780.2031,454.7695 Q780.5781,454.7695 780.8125,455.0352 Q781.0469,455.2852 781.0469,455.8945 L781.0469,457.8633 Q781.0469,458.4102 780.9219,458.5977 Q780.6563,458.9883 780.2031,458.9883 Q779.7344,458.9883 779.4688,458.582 Q779.3438,458.3945 779.3438,457.7227 L777.8594,457.7227 Z " fill="#000000"/><text fill="#000000" font-family="sans-serif" font-size="12" font-style="italic" lengthAdjust="spacing" textLength="50" x="808" y="452.584">&#171;entity&gt;&#187;</text><text fill="#000000" font-family="sans-serif" font-size="14" lengthAdjust="spacing" textLength="80" x="793" y="470.7031">ShortAnswer</text><line style="stroke:#181818;stroke-width:0.5;" x1="765" x2="875" y1="479.2168" y2="479.2168"/></g><!--class Numerical--><g id="elem_Numerical"><rect codeLine="84" fill="#F1F1F1" height="52.582" id="Numerical" rx="2.5" ry="2.5" style="stroke:#181818;stroke-width:0.5;" width="94" x="911" y="434.6348"/><ellipse cx="926" cy="456.9258" fill="#ADD1B2" rx="11" ry="11" style="stroke:#181818;stroke-width:1.0;"/><path d="M924.8594,457.7227 L924.8594,460.2227 L929.1875,460.2227 L929.1875,459.3008 Q929.1875,458.6914 929.4219,458.4258 Q929.6719,458.1602 930.0469,458.1602 Q930.4219,458.1602 930.6563,458.4258 Q930.8906,458.6914 930.8906,459.3008 L930.8906,461.9258 L922.8906,461.9258 Q922.2656,461.9258 922,461.6914 Q921.75,461.457 921.75,461.0664 Q921.75,460.6914 922.0156,460.457 Q922.2813,460.2227 922.8906,460.2227 L923.1563,460.2227 L923.1563,453.5664 L922.8906,453.5664 Q922.2656,453.5664 922,453.332 Q921.75,453.0977 921.75,452.707 Q921.75,452.332 922,452.0977 Q922.2656,451.8633 922.8906,451.8633 L930.5156,451.8633 L930.5156,454.457 Q930.5156,455.0664 930.2813,455.332 Q930.0625,455.582 929.6719,455.582 Q929.2969,455.582 929.0625,455.332 Q928.8281,455.0664 928.8281,454.457 L928.8281,453.5664 L924.8594,453.5664 L924.8594,456.0195 L926.3438,456.0195 Q926.3438,455.3633 926.4688,455.1758 Q926.7344,454.7695 927.2031,454.7695 Q927.5781,454.7695 927.8125,455.0352 Q928.0469,455.2852 928.0469,455.8945 L928.0469,457.8633 Q928.0469,458.4102 927.9219,458.5977 Q927.6563,458.9883 927.2031,458.9883 Q926.7344,458.9883 926.4688,458.582 Q926.3438,458.3945 926.3438,457.7227 L924.8594,457.7227 Z " fill="#000000"/><text fill="#000000" font-family="sans-serif" font-size="12" font-style="italic" lengthAdjust="spacing" textLength="50" x="946" y="452.584">&#171;entity&gt;&#187;</text><text fill="#000000" font-family="sans-serif" font-size="14" lengthAdjust="spacing" textLength="62" x="940" y="470.7031">Numerical</text><line style="stroke:#181818;stroke-width:0.5;" x1="912" x2="1004" y1="479.2168" y2="479.2168"/></g><!--class SelectMissingWords--><g id="elem_SelectMissingWords"><rect codeLine="85" fill="#F1F1F1" height="52.582" id="SelectMissingWords" rx="2.5" ry="2.5" style="stroke:#181818;stroke-width:0.5;" width="159" x="1040.5" y="434.6348"/><ellipse cx="1055.5" cy="456.9258" fill="#ADD1B2" rx="11" ry="11" style="stroke:#181818;stroke-width:1.0;"/><path d="M1054.3594,457.7227 L1054.3594,460.2227 L1058.6875,460.2227 L1058.6875,459.3008 Q1058.6875,458.6914 1058.9219,458.4258 Q1059.1719,458.1602 1059.5469,458.1602 Q1059.9219,458.1602 1060.1563,458.4258 Q1060.3906,458.6914 1060.3906,459.3008 L1060.3906,461.9258 L1052.3906,461.9258 Q1051.7656,461.9258 1051.5,461.6914 Q1051.25,461.457 1051.25,461.0664 Q1051.25,460.6914 1051.5156,460.457 Q1051.7813,460.2227 1052.3906,460.2227 L1052.6563,460.2227 L1052.6563,453.5664 L1052.3906,453.5664 Q1051.7656,453.5664 1051.5,453.332 Q1051.25,453.0977 1051.25,452.707 Q1051.25,452.332 1051.5,452.0977 Q1051.7656,451.8633 1052.3906,451.8633 L1060.0156,451.8633 L1060.0156,454.457 Q1060.0156,455.0664 1059.7813,455.332 Q1059.5625,455.582 1059.1719,455.582 Q1058.7969,455.582 1058.5625,455.332 Q1058.3281,455.0664 1058.3281,454.457 L1058.3281,453.5664 L1054.3594,453.5664 L1054.3594,456.0195 L1055.8438,456.0195 Q1055.8438,455.3633 1055.9688,455.1758 Q1056.2344,454.7695 1056.7031,454.7695 Q1057.0781,454.7695 1057.3125,455.0352 Q1057.5469,455.2852 1057.5469,455.8945 L1057.5469,457.8633 Q1057.5469,458.4102 1057.4219,458.5977 Q1057.1563,458.9883 1056.7031,458.9883 Q1056.2344,458.9883 1055.9688,458.582 Q1055.8438,458.3945 1055.8438,457.7227 L1054.3594,457.7227 Z " fill="#000000"/><text fill="#000000" font-family="sans-serif" font-size="12" font-style="italic" lengthAdjust="spacing" textLength="50" x="1108" y="452.584">&#171;entity&gt;&#187;</text><text fill="#000000" font-family="sans-serif" font-size="14" lengthAdjust="spacing" textLength="127" x="1069.5" y="470.7031">SelectMissingWords</text><line style="stroke:#181818;stroke-width:0.5;" x1="1041.5" x2="1198.5" y1="479.2168" y2="479.2168"/></g><!--class TrueFalse--><g id="elem_TrueFalse"><rect codeLine="86" fill="#F1F1F1" height="52.582" id="TrueFalse" rx="2.5" ry="2.5" style="stroke:#181818;stroke-width:0.5;" width="97" x="1234.5" y="434.6348"/><ellipse cx="1249.5" cy="456.9258" fill="#ADD1B2" rx="11" ry="11" style="stroke:#181818;stroke-width:1.0;"/><path d="M1248.3594,457.7227 L1248.3594,460.2227 L1252.6875,460.2227 L1252.6875,459.3008 Q1252.6875,458.6914 1252.9219,458.4258 Q1253.1719,458.1602 1253.5469,458.1602 Q1253.9219,458.1602 1254.1563,458.4258 Q1254.3906,458.6914 1254.3906,459.3008 L1254.3906,461.9258 L1246.3906,461.9258 Q1245.7656,461.9258 1245.5,461.6914 Q1245.25,461.457 1245.25,461.0664 Q1245.25,460.6914 1245.5156,460.457 Q1245.7813,460.2227 1246.3906,460.2227 L1246.6563,460.2227 L1246.6563,453.5664 L1246.3906,453.5664 Q1245.7656,453.5664 1245.5,453.332 Q1245.25,453.0977 1245.25,452.707 Q1245.25,452.332 1245.5,452.0977 Q1245.7656,451.8633 1246.3906,451.8633 L1254.0156,451.8633 L1254.0156,454.457 Q1254.0156,455.0664 1253.7813,455.332 Q1253.5625,455.582 1253.1719,455.582 Q1252.7969,455.582 1252.5625,455.332 Q1252.3281,455.0664 1252.3281,454.457 L1252.3281,453.5664 L1248.3594,453.5664 L1248.3594,456.0195 L1249.8438,456.0195 Q1249.8438,455.3633 1249.9688,455.1758 Q1250.2344,454.7695 1250.7031,454.7695 Q1251.0781,454.7695 1251.3125,455.0352 Q1251.5469,455.2852 1251.5469,455.8945 L1251.5469,457.8633 Q1251.5469,458.4102 1251.4219,458.5977 Q1251.1563,458.9883 1250.7031,458.9883 Q1250.2344,458.9883 1249.9688,458.582 Q1249.8438,458.3945 1249.8438,457.7227 L1248.3594,457.7227 Z " fill="#000000"/><text fill="#000000" font-family="sans-serif" font-size="12" font-style="italic" lengthAdjust="spacing" textLength="50" x="1271" y="452.584">&#171;entity&gt;&#187;</text><text fill="#000000" font-family="sans-serif" font-size="14" lengthAdjust="spacing" textLength="65" x="1263.5" y="470.7031">TrueFalse</text><line style="stroke:#181818;stroke-width:0.5;" x1="1235.5" x2="1330.5" y1="479.2168" y2="479.2168"/></g><!--class ExamTitle--><g id="elem_ExamTitle"><rect codeLine="52" fill="#F1F1F1" height="52.582" id="ExamTitle" rx="2.5" ry="2.5" style="stroke:#181818;stroke-width:0.5;" width="109" x="2073.5" y="434.6348"/><ellipse cx="2088.5" cy="456.9258" fill="#FF8B40" rx="11" ry="11" style="stroke:#181818;stroke-width:1.0;"/><path d="M2089.0938,460.1914 L2091.5625,454.3164 L2091.1719,454.3164 Q2090.5625,454.3164 2090.2969,454.082 Q2090.0313,453.8477 2090.0313,453.457 Q2090.0313,453.082 2090.2969,452.8477 Q2090.5625,452.6133 2091.1719,452.6133 L2093.4531,452.6133 Q2094.0625,452.6133 2094.3281,452.8477 Q2094.5938,453.082 2094.5938,453.457 Q2094.5938,453.9258 2094.1875,454.1914 Q2094,454.3164 2093.4063,454.3164 L2089.9219,462.6758 L2088.2813,462.6758 L2084.7969,454.3164 Q2084.2031,454.3164 2084.0156,454.1914 Q2083.6094,453.9258 2083.6094,453.457 Q2083.6094,453.082 2083.875,452.8477 Q2084.1406,452.6133 2084.75,452.6133 L2087.0469,452.6133 Q2087.6563,452.6133 2087.9063,452.8477 Q2088.1719,453.082 2088.1719,453.457 Q2088.1719,453.8477 2087.9063,454.082 Q2087.6563,454.3164 2087.0469,454.3164 L2086.6406,454.3164 L2089.0938,460.1914 Z " fill="#000000"/><text fill="#000000" font-family="sans-serif" font-size="12" font-style="italic" lengthAdjust="spacing" textLength="81" x="2100.5" y="452.584">&#171;value object&#187;</text><text fill="#000000" font-family="sans-serif" font-size="14" lengthAdjust="spacing" textLength="61" x="2110.5" y="470.7031">ExamTitle</text><line style="stroke:#181818;stroke-width:0.5;" x1="2074.5" x2="2181.5" y1="479.2168" y2="479.2168"/></g><!--class ExamDateTime--><g id="elem_ExamDateTime"><rect codeLine="53" fill="#F1F1F1" height="89.8242" id="ExamDateTime" rx="2.5" ry="2.5" style="stroke:#181818;stroke-width:0.5;" width="127" x="2217.5" y="416.1348"/><ellipse cx="2232.5" cy="438.4258" fill="#FF8B40" rx="11" ry="11" style="stroke:#181818;stroke-width:1.0;"/><path d="M2233.0938,441.6914 L2235.5625,435.8164 L2235.1719,435.8164 Q2234.5625,435.8164 2234.2969,435.582 Q2234.0313,435.3477 2234.0313,434.957 Q2234.0313,434.582 2234.2969,434.3477 Q2234.5625,434.1133 2235.1719,434.1133 L2237.4531,434.1133 Q2238.0625,434.1133 2238.3281,434.3477 Q2238.5938,434.582 2238.5938,434.957 Q2238.5938,435.4258 2238.1875,435.6914 Q2238,435.8164 2237.4063,435.8164 L2233.9219,444.1758 L2232.2813,444.1758 L2228.7969,435.8164 Q2228.2031,435.8164 2228.0156,435.6914 Q2227.6094,435.4258 2227.6094,434.957 Q2227.6094,434.582 2227.875,434.3477 Q2228.1406,434.1133 2228.75,434.1133 L2231.0469,434.1133 Q2231.6563,434.1133 2231.9063,434.3477 Q2232.1719,434.582 2232.1719,434.957 Q2232.1719,435.3477 2231.9063,435.582 Q2231.6563,435.8164 2231.0469,435.8164 L2230.6406,435.8164 L2233.0938,441.6914 Z " fill="#000000"/><text fill="#000000" font-family="sans-serif" font-size="12" font-style="italic" lengthAdjust="spacing" textLength="81" x="2253.5" y="434.084">&#171;value object&#187;</text><text fill="#000000" font-family="sans-serif" font-size="14" lengthAdjust="spacing" textLength="95" x="2246.5" y="452.2031">ExamDateTime</text><line style="stroke:#181818;stroke-width:0.5;" x1="2218.5" x2="2343.5" y1="460.7168" y2="460.7168"/><text fill="#000000" font-family="sans-serif" font-size="14" lengthAdjust="spacing" textLength="112" x="2223.5" y="479.8242">openingDateTime</text><text fill="#000000" font-family="sans-serif" font-size="14" lengthAdjust="spacing" textLength="105" x="2223.5" y="498.4453">closingDateTime</text></g><!--class Header--><g id="elem_Header"><rect codeLine="59" fill="#F1F1F1" height="52.582" id="Header" rx="2.5" ry="2.5" style="stroke:#181818;stroke-width:0.5;" width="78" x="2380" y="434.6348"/><ellipse cx="2395" cy="456.9258" fill="#ADD1B2" rx="11" ry="11" style="stroke:#181818;stroke-width:1.0;"/><path d="M2393.8594,457.7227 L2393.8594,460.2227 L2398.1875,460.2227 L2398.1875,459.3008 Q2398.1875,458.6914 2398.4219,458.4258 Q2398.6719,458.1602 2399.0469,458.1602 Q2399.4219,458.1602 2399.6563,458.4258 Q2399.8906,458.6914 2399.8906,459.3008 L2399.8906,461.9258 L2391.8906,461.9258 Q2391.2656,461.9258 2391,461.6914 Q2390.75,461.457 2390.75,461.0664 Q2390.75,460.6914 2391.0156,460.457 Q2391.2813,460.2227 2391.8906,460.2227 L2392.1563,460.2227 L2392.1563,453.5664 L2391.8906,453.5664 Q2391.2656,453.5664 2391,453.332 Q2390.75,453.0977 2390.75,452.707 Q2390.75,452.332 2391,452.0977 Q2391.2656,451.8633 2391.8906,451.8633 L2399.5156,451.8633 L2399.5156,454.457 Q2399.5156,455.0664 2399.2813,455.332 Q2399.0625,455.582 2398.6719,455.582 Q2398.2969,455.582 2398.0625,455.332 Q2397.8281,455.0664 2397.8281,454.457 L2397.8281,453.5664 L2393.8594,453.5664 L2393.8594,456.0195 L2395.3438,456.0195 Q2395.3438,455.3633 2395.4688,455.1758 Q2395.7344,454.7695 2396.2031,454.7695 Q2396.5781,454.7695 2396.8125,455.0352 Q2397.0469,455.2852 2397.0469,455.8945 L2397.0469,457.8633 Q2397.0469,458.4102 2396.9219,458.5977 Q2396.6563,458.9883 2396.2031,458.9883 Q2395.7344,458.9883 2395.4688,458.582 Q2395.3438,458.3945 2395.3438,457.7227 L2393.8594,457.7227 Z " fill="#000000"/><text fill="#000000" font-family="sans-serif" font-size="12" font-style="italic" lengthAdjust="spacing" textLength="50" x="2407" y="452.584">&#171;entity&gt;&#187;</text><text fill="#000000" font-family="sans-serif" font-size="14" lengthAdjust="spacing" textLength="46" x="2409" y="470.7031">Header</text><line style="stroke:#181818;stroke-width:0.5;" x1="2381" x2="2457" y1="479.2168" y2="479.2168"/></g><!--class HeaderTypeNote--><g id="elem_HeaderTypeNote"><rect codeLine="60" fill="#F1F1F1" height="52.582" id="HeaderTypeNote" rx="2.5" ry="2.5" style="stroke:#181818;stroke-width:0.5;" width="139" x="2158.5" y="593.6348"/><ellipse cx="2173.5" cy="615.9258" fill="#FF8B40" rx="11" ry="11" style="stroke:#181818;stroke-width:1.0;"/><path d="M2174.0938,619.1914 L2176.5625,613.3164 L2176.1719,613.3164 Q2175.5625,613.3164 2175.2969,613.082 Q2175.0313,612.8477 2175.0313,612.457 Q2175.0313,612.082 2175.2969,611.8477 Q2175.5625,611.6133 2176.1719,611.6133 L2178.4531,611.6133 Q2179.0625,611.6133 2179.3281,611.8477 Q2179.5938,612.082 2179.5938,612.457 Q2179.5938,612.9258 2179.1875,613.1914 Q2179,613.3164 2178.4063,613.3164 L2174.9219,621.6758 L2173.2813,621.6758 L2169.7969,613.3164 Q2169.2031,613.3164 2169.0156,613.1914 Q2168.6094,612.9258 2168.6094,612.457 Q2168.6094,612.082 2168.875,611.8477 Q2169.1406,611.6133 2169.75,611.6133 L2172.0469,611.6133 Q2172.6563,611.6133 2172.9063,611.8477 Q2173.1719,612.082 2173.1719,612.457 Q2173.1719,612.8477 2172.9063,613.082 Q2172.6563,613.3164 2172.0469,613.3164 L2171.6406,613.3164 L2174.0938,619.1914 Z " fill="#000000"/><text fill="#000000" font-family="sans-serif" font-size="12" font-style="italic" lengthAdjust="spacing" textLength="81" x="2200.5" y="611.584">&#171;value object&#187;</text><text fill="#000000" font-family="sans-serif" font-size="14" lengthAdjust="spacing" textLength="107" x="2187.5" y="629.7031">HeaderTypeNote</text><line style="stroke:#181818;stroke-width:0.5;" x1="2159.5" x2="2296.5" y1="638.2168" y2="638.2168"/></g><!--class HeaderTypeFeedback--><g id="elem_HeaderTypeFeedback"><rect codeLine="61" fill="#F1F1F1" height="52.582" id="HeaderTypeFeedback" rx="2.5" ry="2.5" style="stroke:#181818;stroke-width:0.5;" width="173" x="2332.5" y="593.6348"/><ellipse cx="2347.5" cy="615.9258" fill="#FF8B40" rx="11" ry="11" style="stroke:#181818;stroke-width:1.0;"/><path d="M2348.0938,619.1914 L2350.5625,613.3164 L2350.1719,613.3164 Q2349.5625,613.3164 2349.2969,613.082 Q2349.0313,612.8477 2349.0313,612.457 Q2349.0313,612.082 2349.2969,611.8477 Q2349.5625,611.6133 2350.1719,611.6133 L2352.4531,611.6133 Q2353.0625,611.6133 2353.3281,611.8477 Q2353.5938,612.082 2353.5938,612.457 Q2353.5938,612.9258 2353.1875,613.1914 Q2353,613.3164 2352.4063,613.3164 L2348.9219,621.6758 L2347.2813,621.6758 L2343.7969,613.3164 Q2343.2031,613.3164 2343.0156,613.1914 Q2342.6094,612.9258 2342.6094,612.457 Q2342.6094,612.082 2342.875,611.8477 Q2343.1406,611.6133 2343.75,611.6133 L2346.0469,611.6133 Q2346.6563,611.6133 2346.9063,611.8477 Q2347.1719,612.082 2347.1719,612.457 Q2347.1719,612.8477 2346.9063,613.082 Q2346.6563,613.3164 2346.0469,613.3164 L2345.6406,613.3164 L2348.0938,619.1914 Z " fill="#000000"/><text fill="#000000" font-family="sans-serif" font-size="12" font-style="italic" lengthAdjust="spacing" textLength="81" x="2391.5" y="611.584">&#171;value object&#187;</text><text fill="#000000" font-family="sans-serif" font-size="14" lengthAdjust="spacing" textLength="141" x="2361.5" y="629.7031">HeaderTypeFeedback</text><line style="stroke:#181818;stroke-width:0.5;" x1="2333.5" x2="2504.5" y1="638.2168" y2="638.2168"/></g><!--class HeaderDescription--><g id="elem_HeaderDescription"><rect codeLine="62" fill="#F1F1F1" height="52.582" id="HeaderDescription" rx="2.5" ry="2.5" style="stroke:#181818;stroke-width:0.5;" width="149" x="2540.5" y="593.6348"/><ellipse cx="2555.5" cy="615.9258" fill="#FF8B40" rx="11" ry="11" style="stroke:#181818;stroke-width:1.0;"/><path d="M2556.0938,619.1914 L2558.5625,613.3164 L2558.1719,613.3164 Q2557.5625,613.3164 2557.2969,613.082 Q2557.0313,612.8477 2557.0313,612.457 Q2557.0313,612.082 2557.2969,611.8477 Q2557.5625,611.6133 2558.1719,611.6133 L2560.4531,611.6133 Q2561.0625,611.6133 2561.3281,611.8477 Q2561.5938,612.082 2561.5938,612.457 Q2561.5938,612.9258 2561.1875,613.1914 Q2561,613.3164 2560.4063,613.3164 L2556.9219,621.6758 L2555.2813,621.6758 L2551.7969,613.3164 Q2551.2031,613.3164 2551.0156,613.1914 Q2550.6094,612.9258 2550.6094,612.457 Q2550.6094,612.082 2550.875,611.8477 Q2551.1406,611.6133 2551.75,611.6133 L2554.0469,611.6133 Q2554.6563,611.6133 2554.9063,611.8477 Q2555.1719,612.082 2555.1719,612.457 Q2555.1719,612.8477 2554.9063,613.082 Q2554.6563,613.3164 2554.0469,613.3164 L2553.6406,613.3164 L2556.0938,619.1914 Z " fill="#000000"/><text fill="#000000" font-family="sans-serif" font-size="12" font-style="italic" lengthAdjust="spacing" textLength="81" x="2587.5" y="611.584">&#171;value object&#187;</text><text fill="#000000" font-family="sans-serif" font-size="14" lengthAdjust="spacing" textLength="117" x="2569.5" y="629.7031">HeaderDescription</text><line style="stroke:#181818;stroke-width:0.5;" x1="2541.5" x2="2688.5" y1="638.2168" y2="638.2168"/></g><!--class SectionDescription--><g id="elem_SectionDescription"><rect codeLine="65" fill="#F1F1F1" height="52.582" id="SectionDescription" rx="2.5" ry="2.5" style="stroke:#181818;stroke-width:0.5;" width="150" x="1864" y="593.6348"/><ellipse cx="1879" cy="615.9258" fill="#FF8B40" rx="11" ry="11" style="stroke:#181818;stroke-width:1.0;"/><path d="M1879.5938,619.1914 L1882.0625,613.3164 L1881.6719,613.3164 Q1881.0625,613.3164 1880.7969,613.082 Q1880.5313,612.8477 1880.5313,612.457 Q1880.5313,612.082 1880.7969,611.8477 Q1881.0625,611.6133 1881.6719,611.6133 L1883.9531,611.6133 Q1884.5625,611.6133 1884.8281,611.8477 Q1885.0938,612.082 1885.0938,612.457 Q1885.0938,612.9258 1884.6875,613.1914 Q1884.5,613.3164 1883.9063,613.3164 L1880.4219,621.6758 L1878.7813,621.6758 L1875.2969,613.3164 Q1874.7031,613.3164 1874.5156,613.1914 Q1874.1094,612.9258 1874.1094,612.457 Q1874.1094,612.082 1874.375,611.8477 Q1874.6406,611.6133 1875.25,611.6133 L1877.5469,611.6133 Q1878.1563,611.6133 1878.4063,611.8477 Q1878.6719,612.082 1878.6719,612.457 Q1878.6719,612.8477 1878.4063,613.082 Q1878.1563,613.3164 1877.5469,613.3164 L1877.1406,613.3164 L1879.5938,619.1914 Z " fill="#000000"/><text fill="#000000" font-family="sans-serif" font-size="12" font-style="italic" lengthAdjust="spacing" textLength="81" x="1911.5" y="611.584">&#171;value object&#187;</text><text fill="#000000" font-family="sans-serif" font-size="14" lengthAdjust="spacing" textLength="118" x="1893" y="629.7031">SectionDescription</text><line style="stroke:#181818;stroke-width:0.5;" x1="1865" x2="2013" y1="638.2168" y2="638.2168"/></g><!--link Student to MechanographicNumber--><g id="link_Student_MechanographicNumber"><path codeLine="90" d="M1511.63,495.8148 C1504.84,523.1848 1495.32,561.4848 1488.71,588.1048 " fill="none" id="Student-to-MechanographicNumber" style="stroke:#181818;stroke-width:1.0;"/><polygon fill="#181818" points="1487.42,593.2748,1493.4834,585.5136,1488.6327,588.4241,1485.7223,583.5733,1487.42,593.2748" style="stroke:#181818;stroke-width:1.0;"/></g><!--link Course to CourseCode--><g id="link_Course_CourseCode"><path codeLine="92" d="M210.51,151.8548 C192.25,168.6048 170.14,189.3448 151,208.6348 C134.94,224.8248 117.65,243.5848 103.94,258.8148 " fill="none" id="Course-to-CourseCode" style="stroke:#181818;stroke-width:1.0;"/><polygon fill="#181818" points="100.53,262.6048,109.5239,258.591,103.8748,258.8883,103.5775,253.2393,100.53,262.6048" style="stroke:#181818;stroke-width:1.0;"/></g><!--link Course to CourseStatus--><g id="link_Course_CourseStatus"><path codeLine="93" d="M244.05,151.7248 C240.43,182.4548 235.13,227.5548 231.62,257.3648 " fill="none" id="Course-to-CourseStatus" style="stroke:#181818;stroke-width:1.0;"/><polygon fill="#181818" points="231.03,262.3848,236.0584,253.9163,231.6167,257.4193,228.1137,252.9776,231.03,262.3848" style="stroke:#181818;stroke-width:1.0;"/></g><!--link Enrollment to EnrollmentStatus--><g id="link_Enrollment_EnrollmentStatus"><path codeLine="95" d="M1684.54,323.7248 C1688.7,354.4548 1694.8,399.5548 1698.84,429.3648 " fill="none" id="Enrollment-to-EnrollmentStatus" style="stroke:#181818;stroke-width:1.0;"/><polygon fill="#181818" points="1699.52,434.3848,1702.2758,424.9293,1698.8489,429.43,1694.3482,426.0031,1699.52,434.3848" style="stroke:#181818;stroke-width:1.0;"/></g><!--link FormativeExam to ExamTitle--><g id="link_FormativeExam_ExamTitle"><path codeLine="97" d="M2003.62,323.7248 C2031.99,354.8348 2073.79,400.6748 2100.95,430.4748 " fill="none" id="FormativeExam-to-ExamTitle" style="stroke:#181818;stroke-width:1.0;"/><polygon fill="#181818" points="2104.52,434.3848,2101.4347,425.0316,2101.1602,430.6818,2095.51,430.4073,2104.52,434.3848" style="stroke:#181818;stroke-width:1.0;"/></g><!--link FormativeExam to ExamDateTime--><g id="link_FormativeExam_ExamDateTime"><path codeLine="98" d="M2037.86,308.8448 C2085.1,324.1948 2149.41,348.7448 2200,381.6348 C2213.28,390.2648 2226.25,401.2748 2237.78,412.3048 " fill="none" id="FormativeExam-to-ExamDateTime" style="stroke:#181818;stroke-width:1.0;"/><polygon fill="#181818" points="2241.63,416.0348,2237.9461,406.9008,2238.0377,412.5569,2232.3816,412.6485,2241.63,416.0348" style="stroke:#181818;stroke-width:1.0;"/></g><!--link FormativeExam to Header--><g id="link_FormativeExam_Header"><path codeLine="99" d="M2037.64,291.7948 C2119.55,296.7448 2262.06,315.1648 2362,381.6348 C2379.95,393.5748 2394.19,413.1848 2403.96,429.8248 " fill="none" id="FormativeExam-to-Header" style="stroke:#181818;stroke-width:1.0;"/><polygon fill="#181818" points="2406.59,434.4348,2405.5908,424.6367,2404.1062,430.0953,2398.6477,428.6108,2406.59,434.4348" style="stroke:#181818;stroke-width:1.0;"/></g><!--link FormativeExamSection to SectionDescription--><g id="link_FormativeExamSection_SectionDescription"><path codeLine="101" d="M1939,496.9748 C1939,524.2448 1939,561.8248 1939,588.0748 " fill="none" id="FormativeExamSection-to-SectionDescription" style="stroke:#181818;stroke-width:1.0;"/><polygon fill="#181818" points="1939,593.1748,1943,584.1748,1939,588.1748,1935,584.1748,1939,593.1748" style="stroke:#181818;stroke-width:1.0;"/></g><!--link Header to HeaderTypeNote--><g id="link_Header_HeaderTypeNote"><path codeLine="103" d="M2401.54,487.8248 C2391.07,502.1348 2376.93,519.7148 2362,533.1348 C2337.32,555.3248 2306.32,575.6148 2280.36,590.9148 " fill="none" id="Header-to-HeaderTypeNote" style="stroke:#181818;stroke-width:1.0;"/><polygon fill="#181818" points="2275.9,593.5148,2285.6873,592.4149,2280.2137,590.9865,2281.6421,585.513,2275.9,593.5148" style="stroke:#181818;stroke-width:1.0;"/></g><!--link Header to HeaderTypeFeedback--><g id="link_Header_HeaderTypeFeedback"><path codeLine="104" d="M2419,487.7048 C2419,515.1948 2419,558.8848 2419,588.2548 " fill="none" id="Header-to-HeaderTypeFeedback" style="stroke:#181818;stroke-width:1.0;"/><polygon fill="#181818" points="2419,593.5748,2423,584.5748,2419,588.5748,2415,584.5748,2419,593.5748" style="stroke:#181818;stroke-width:1.0;"/></g><!--link Header to HeaderDescription--><g id="link_Header_HeaderDescription"><path codeLine="105" d="M2450.93,487.7048 C2486.09,515.8748 2542.51,561.0648 2579.16,590.4248 " fill="none" id="Header-to-HeaderDescription" style="stroke:#181818;stroke-width:1.0;"/><polygon fill="#181818" points="2583.09,593.5748,2578.5571,584.8311,2579.1843,590.453,2573.5623,591.0802,2583.09,593.5748" style="stroke:#181818;stroke-width:1.0;"/></g><!--reverse link QuestionScore to Question--><g id="link_QuestionScore_Question"><path codeLine="107" d="M666.37,289.1348 C676.36,289.1348 686.34,289.1348 696.32,289.1348 " fill="none" id="QuestionScore-backto-Question" style="stroke:#181818;stroke-width:1.0;"/><polygon fill="#181818" points="661.15,289.1348,670.15,293.1348,666.15,289.1348,670.15,285.1348,661.15,289.1348" style="stroke:#181818;stroke-width:1.0;"/></g><!--reverse link Question to Matching--><g id="link_Question_Matching"><path codeLine="109" d="M678.74,324.6648 C642.93,344.5248 602.5,368.1448 587,381.6348 C569.32,397.0348 553.04,418.0148 541.61,434.4148 " fill="none" id="Question-backto-Matching" style="stroke:#181818;stroke-width:1.0;"/><polygon fill="none" points="675.46,318.4848,696.36,314.9948,682.2,330.7548,675.46,318.4848" style="stroke:#181818;stroke-width:1.0;"/></g><!--reverse link Question to MultipleChoice--><g id="link_Question_MultipleChoice"><path codeLine="110" d="M719.21,343.3448 C705.63,373.7248 689.21,410.4548 678.46,434.5048 " fill="none" id="Question-backto-MultipleChoice" style="stroke:#181818;stroke-width:1.0;"/><polygon fill="none" points="712.88,340.3448,727.44,324.9448,725.66,346.0648,712.88,340.3448" style="stroke:#181818;stroke-width:1.0;"/></g><!--reverse link Question to ShortAnswer--><g id="link_Question_ShortAnswer"><path codeLine="111" d="M767.1,343.3448 C780.86,373.7248 797.5,410.4548 808.39,434.5048 " fill="none" id="Question-backto-ShortAnswer" style="stroke:#181818;stroke-width:1.0;"/><polygon fill="none" points="760.64,346.0548,758.77,324.9448,773.4,340.2748,760.64,346.0548" style="stroke:#181818;stroke-width:1.0;"/></g><!--reverse link Question to Numerical--><g id="link_Question_Numerical"><path codeLine="112" d="M807.18,323.0348 C835.01,338.8248 867.08,359.1948 893,381.6348 C911.06,397.2648 928.15,418.2448 940.27,434.5748 " fill="none" id="Question-backto-Numerical" style="stroke:#181818;stroke-width:1.0;"/><polygon fill="none" points="803.75,329.1348,789.62,313.3348,810.51,316.8748,803.75,329.1348" style="stroke:#181818;stroke-width:1.0;"/></g><!--reverse link Question to SelectMissingWords--><g id="link_Question_SelectMissingWords"><path codeLine="113" d="M809.52,304.7948 C867.82,319.2748 953.68,344.6548 1022,381.6348 C1048.46,395.9548 1074.87,417.6448 1093.59,434.6048 " fill="none" id="Question-backto-SelectMissingWords" style="stroke:#181818;stroke-width:1.0;"/><polygon fill="none" points="807.55,311.5148,789.75,300.0348,810.83,297.9048,807.55,311.5148" style="stroke:#181818;stroke-width:1.0;"/></g><!--reverse link Question to TrueFalse--><g id="link_Question_TrueFalse"><path codeLine="114" d="M809.75,289.3448 C906.2,291.0848 1087.2,305.3748 1217,381.6348 C1238.65,394.3548 1256.47,416.8748 1268.11,434.5448 " fill="none" id="Question-backto-TrueFalse" style="stroke:#181818;stroke-width:1.0;"/><polygon fill="none" points="809.58,296.3448,789.65,289.1448,809.72,282.3448,809.58,296.3448" style="stroke:#181818;stroke-width:1.0;"/></g><!--link Course to Enrollment--><g id="link_Course_Enrollment"><path codeLine="117" d="M287.23,119.1948 C430.2,123.5148 936.46,142.8248 1348,208.6348 C1446.96,224.4548 1560.04,254.0648 1625.41,272.3448 " fill="none" id="Course-to-Enrollment" style="stroke:#181818;stroke-width:1.0;"/><polygon fill="#181818" points="1630.42,273.7448,1622.8429,267.4529,1625.6076,272.3881,1620.6723,275.1528,1630.42,273.7448" style="stroke:#181818;stroke-width:1.0;"/><polygon fill="#000000" points="1299.9676,191.8488,1291.3153,187.9005,1290.647,193.7402,1299.9676,191.8488" style="stroke:#000000;stroke-width:1.0;"/><text fill="#000000" font-family="sans-serif" font-size="13" lengthAdjust="spacing" textLength="21" x="1304" y="196.6631">has</text><text fill="#000000" font-family="sans-serif" font-size="13" lengthAdjust="spacing" textLength="7" x="295.1083" y="135.239">1</text><text fill="#000000" font-family="sans-serif" font-size="13" lengthAdjust="spacing" textLength="20" x="1602.4139" y="267.6131">0..*</text></g><!--link Course to FormativeExam--><g id="link_Course_FormativeExam"><path codeLine="118" d="M287.18,118.4548 C498.15,120.4848 1500.64,133.9448 1800,208.6348 C1837.9,218.0948 1877.68,235.7648 1909.53,252.0448 " fill="none" id="Course-to-FormativeExam" style="stroke:#181818;stroke-width:1.0;"/><polygon fill="#181818" points="1914.17,254.4348,1907.9869,246.7686,1909.7209,252.1532,1904.3364,253.8872,1914.17,254.4348" style="stroke:#181818;stroke-width:1.0;"/><polygon fill="#000000" points="1765.9831,191.6906,1757.2097,188.0193,1756.7274,193.8773,1765.9831,191.6906" style="stroke:#000000;stroke-width:1.0;"/><text fill="#000000" font-family="sans-serif" font-size="13" lengthAdjust="spacing" textLength="21" x="1770" y="196.6631">has</text><text fill="#000000" font-family="sans-serif" font-size="13" lengthAdjust="spacing" textLength="7" x="295.1891" y="135.4776">1</text><text fill="#000000" font-family="sans-serif" font-size="13" lengthAdjust="spacing" textLength="20" x="1881.0493" y="243.2994">0..*</text></g><!--link Course to Question--><g id="link_Course_Question"><path codeLine="119" d="M287.04,117.9148 C366.53,119.1948 550.41,131.0348 678,208.6348 C694.43,218.6248 708.55,234.3148 719.4,249.1148 " fill="none" id="Course-to-Question" style="stroke:#181818;stroke-width:1.0;"/><polygon fill="#181818" points="722.37,253.2648,720.3842,243.6182,719.4598,249.199,713.879,248.2746,722.37,253.2648" style="stroke:#181818;stroke-width:1.0;"/><polygon fill="#000000" points="667.7846,192.7322,659.9826,187.2934,658.2758,192.918,667.7846,192.7322" style="stroke:#000000;stroke-width:1.0;"/><text fill="#000000" font-family="sans-serif" font-size="13" lengthAdjust="spacing" textLength="21" x="672" y="196.6631">has</text><text fill="#000000" font-family="sans-serif" font-size="13" lengthAdjust="spacing" textLength="7" x="294.8833" y="113.5887">1</text><text fill="#000000" font-family="sans-serif" font-size="13" lengthAdjust="spacing" textLength="20" x="696.914" y="242.3975">0..*</text></g><!--link Enrollment to Student--><g id="link_Enrollment_Student"><path codeLine="121" d="M1648.39,323.7248 C1621.54,352.2448 1583.06,393.1348 1555.23,422.7048 " fill="none" id="Enrollment-to-Student" style="stroke:#181818;stroke-width:1.0;"/><polygon fill="#181818" points="1551.55,426.6148,1560.6311,422.8024,1554.9768,422.9738,1554.8055,417.3195,1551.55,426.6148" style="stroke:#181818;stroke-width:1.0;"/><polygon fill="#000000" points="1621.5731,367.9212,1629.9125,363.3489,1625.6323,359.3204,1621.5731,367.9212" style="stroke:#000000;stroke-width:1.0;"/><text fill="#000000" font-family="sans-serif" font-size="13" lengthAdjust="spacing" textLength="21" x="1634" y="369.6631">has</text><text fill="#000000" font-family="sans-serif" font-size="13" lengthAdjust="spacing" textLength="20" x="1621.2383" y="345.2235">1..*</text><text fill="#000000" font-family="sans-serif" font-size="13" lengthAdjust="spacing" textLength="7" x="1550.0723" y="415.2472">1</text></g><!--link FormativeExam to FormativeExamSection--><g id="link_FormativeExam_FormativeExamSection"><path codeLine="123" d="M1966.28,323.7248 C1960.72,351.5248 1952.81,391.0948 1946.93,420.4648 " fill="none" id="FormativeExam-to-FormativeExamSection" style="stroke:#181818;stroke-width:1.0;"/><polygon fill="#181818" points="1945.94,425.4548,1951.6364,417.4204,1946.9261,420.553,1943.7935,415.8427,1945.94,425.4548" style="stroke:#181818;stroke-width:1.0;"/><polygon fill="#000000" points="1964.0193,369.1832,1968.6752,360.8902,1962.9115,359.7373,1964.0193,369.1832" style="stroke:#000000;stroke-width:1.0;"/><text fill="#000000" font-family="sans-serif" font-size="13" lengthAdjust="spacing" textLength="21" x="1974" y="369.6631">has</text><text fill="#000000" font-family="sans-serif" font-size="13" lengthAdjust="spacing" textLength="7" x="1957.5234" y="345.2235">1</text><text fill="#000000" font-family="sans-serif" font-size="13" lengthAdjust="spacing" textLength="20" x="1925.3758" y="414.3455">1..*</text></g><!--link Question to Answer--><g id="link_Question_Answer"><path codeLine="125" d="M696.43,316.6148 C690.33,319.5548 684.09,322.3148 678,324.6348 C585.61,359.7948 546.36,328.4848 463,381.6348 C450.35,389.6948 438.68,400.7348 428.67,411.9948 " fill="none" id="Question-to-Answer" style="stroke:#181818;stroke-width:1.0;"/><polygon fill="#181818" points="425.34,415.8148,434.2679,411.6564,428.6244,412.0448,428.236,406.4013,425.34,415.8148" style="stroke:#181818;stroke-width:1.0;"/><polygon fill="#000000" points="521.2899,365.9581,530.7967,365.6914,528.8244,360.1544,521.2899,365.9581" style="stroke:#000000;stroke-width:1.0;"/><text fill="#000000" font-family="sans-serif" font-size="13" lengthAdjust="spacing" textLength="21" x="535" y="369.6631">has</text><text fill="#000000" font-family="sans-serif" font-size="13" lengthAdjust="spacing" textLength="7" x="681.4501" y="316.675">1</text><text fill="#000000" font-family="sans-serif" font-size="13" lengthAdjust="spacing" textLength="20" x="408.4743" y="404.9726">1..*</text></g><!--SRC=[lLNBSjCm5DthApHcqPR1dRJ30fXCPahI08jsXYQKjMBVngAsvKfo7nI-XWKhlY8_nhKjoO_4IJl3a5MiS-v3HqTNMcHK2xeGMek4Xbn2eBb82T5Snq0d8c4yfUEOAGMAxa_61zIdNsRqU31uIqZ4Gw09w4Y4YgXhdcPCieG61Vr4QyaNkOPFWKXd_3lG0I5xCvs7a6gIiU2QBO5wmo5RBYKicORHY1hOeu-4uW__SlrWL-bmM2qWSJYKGkZHgAILzUWP115BnLAoBEB1UPuiG29l__8LVJ6Tldd_Ud10RrcS0nMBRxXD3Fw97Or5BXNqDLIXdNwgnHtjLAIn26574zsGcMOwLqy8IeK6StBbT_6RS8O298nYML2QXK8vBEGg4-dgpot4DC3J5Wv9HO8x3yholYhhUpM8oKIG9xXPjlgz-YLeo1o8LlWm61mRTSAofrBMqrIAE4wsd7NDwCXR0piahed_JxDIAmTxu5huHxfDXKoOvhTmUi-IFkbQf8vwBMoJW8QEnVgYPjKGQ0O_kivlSjG8qPCql82R72T6MDqranNpcjF1JFDoYcm_bfezmTtDUR8ZmFGYCaXvkhGnnXP2DTSAGJy22x4viy_ggx4pMxy2vWyPd1SMUKhBTSWK85pWKJqZR08ga3mpEc-Bmg5fXd8LRxwUa-2pERC-FrdSMcdl95LtvaIDSDLAKxY69m8XYuUZ4LNyhemgJRlLhHHVRA6qP85s3M1-kzQkeE5Ucppr_RTHCwo_wyYQUpbZEeZG9oqRDF4yrZoBOHm97a0VQnO9gTTbQLBmOe3a0OjxSq2CxPrnLTZsgv2XwcFEPGvJ5gjsEuN1BniRLSI-bNuexb9_jF5L9CIyO9PKlrMRaMgy4jAOp9RGdS64j0UGuzbfi0LtztOpnTnaid5MMTBwxI34NFfs7dlL-r5xgpSpMXMSV_qOhhG_QbkJ4ESuFy_y7pLCEbRhmasFTR7QN6jHwwxgKcexTH6oTm4nA_ugQmRloAC-RieR71w-z9hlypiQCKL7FSJsCMxdEWKjhMasxwZab7GCinvtr7OXb_belGjh5nVgwdQYZEYEznS0]--></g></svg>