<?xml version="1.0" encoding="us-ascii" standalone="no"?><svg xmlns="http://www.w3.org/2000/svg" xmlns:xlink="http://www.w3.org/1999/xlink" contentStyleType="text/css" height="1539px" preserveAspectRatio="none" style="width:3420px;height:1539px;background:#FFFFFF;" version="1.1" viewBox="0 0 3420 1539" width="3420px" zoomAndPan="magnify"><defs/><g><text fill="#000000" font-family="sans-serif" font-size="14" font-weight="bold" lengthAdjust="spacing" textLength="296" x="1563.75" y="30.1074">System Sequence Diagram (SSD) - US 2009</text><rect fill="#FFFFFF" height="1284.4766" style="stroke:#181818;stroke-width:1.0;" width="10" x="27.5" y="137.8633"/><rect fill="#FFFFFF" height="1261.1855" style="stroke:#181818;stroke-width:1.0;" width="10" x="616.5" y="161.1543"/><rect fill="#FFFFFF" height="31.291" style="stroke:#181818;stroke-width:1.0;" width="10" x="1190.5" y="255.0273"/><rect fill="#FFFFFF" height="31.291" style="stroke:#181818;stroke-width:1.0;" width="10" x="1190.5" y="424.4824"/><rect fill="#FFFFFF" height="253.7461" style="stroke:#181818;stroke-width:1.0;" width="10" x="1190.5" y="593.9375"/><rect fill="#FFFFFF" height="31.291" style="stroke:#181818;stroke-width:1.0;" width="10" x="1190.5" y="870.9746"/><rect fill="#FFFFFF" height="129.873" style="stroke:#181818;stroke-width:1.0;" width="10" x="1190.5" y="1040.4297"/><rect fill="#FFFFFF" height="31.291" style="stroke:#181818;stroke-width:1.0;" width="10" x="1190.5" y="1315.4668"/><rect fill="#FFFFFF" height="222.4551" style="stroke:#181818;stroke-width:1.0;" width="10" x="1645.5" y="625.2285"/><rect fill="#FFFFFF" height="151.873" style="stroke:#181818;stroke-width:1.0;" width="10" x="1650.5" y="695.8105"/><rect fill="#FFFFFF" height="28" style="stroke:#181818;stroke-width:1.0;" width="10" x="1655.5" y="740.1016"/><rect fill="#FFFFFF" height="98.582" style="stroke:#181818;stroke-width:1.0;" width="10" x="1645.5" y="1071.7207"/><rect fill="#FFFFFF" height="28" style="stroke:#181818;stroke-width:1.0;" width="10" x="1650.5" y="1142.3027"/><rect fill="none" height="50.582" style="stroke:#000000;stroke-width:1.5;" width="1687" x="1561.5" y="790.1016"/><line style="stroke:#181818;stroke-width:0.5;stroke-dasharray:5.0,5.0;" x1="32" x2="32" y1="127.8633" y2="1440.3398"/><line style="stroke:#181818;stroke-width:0.5;stroke-dasharray:5.0,5.0;" x1="621" x2="621" y1="127.8633" y2="1440.3398"/><line style="stroke:#181818;stroke-width:0.5;stroke-dasharray:5.0,5.0;" x1="1195" x2="1195" y1="127.8633" y2="1440.3398"/><line style="stroke:#181818;stroke-width:0.5;stroke-dasharray:5.0,5.0;" x1="1650.5" x2="1650.5" y1="127.8633" y2="1440.3398"/><line style="stroke:#181818;stroke-width:0.5;stroke-dasharray:5.0,5.0;" x1="2280.5" x2="2280.5" y1="127.8633" y2="1440.3398"/><line style="stroke:#181818;stroke-width:0.5;stroke-dasharray:5.0,5.0;" x1="2423.5" x2="2423.5" y1="127.8633" y2="1440.3398"/><line style="stroke:#181818;stroke-width:0.5;stroke-dasharray:5.0,5.0;" x1="2614.5" x2="2614.5" y1="127.8633" y2="1440.3398"/><line style="stroke:#181818;stroke-width:0.5;stroke-dasharray:5.0,5.0;" x1="2793.5" x2="2793.5" y1="127.8633" y2="1440.3398"/><line style="stroke:#181818;stroke-width:0.5;stroke-dasharray:5.0,5.0;" x1="2911.5" x2="2911.5" y1="127.8633" y2="1440.3398"/><line style="stroke:#181818;stroke-width:0.5;stroke-dasharray:5.0,5.0;" x1="3037.5" x2="3037.5" y1="127.8633" y2="1440.3398"/><line style="stroke:#181818;stroke-width:0.5;stroke-dasharray:5.0,5.0;" x1="3172.5" x2="3172.5" y1="127.8633" y2="1440.3398"/><line style="stroke:#181818;stroke-width:0.5;stroke-dasharray:5.0,5.0;" x1="3333.5" x2="3333.5" y1="127.8633" y2="1440.3398"/><text fill="#000000" font-family="sans-serif" font-size="14" lengthAdjust="spacing" textLength="49" x="5" y="124.3496">Student</text><ellipse cx="32.5" cy="57.7422" fill="#E3E3E3" rx="8" ry="8" style="stroke:#181818;stroke-width:0.5;"/><path d="M32.5,65.7422 L32.5,92.7422 M19.5,73.7422 L45.5,73.7422 M32.5,92.7422 L19.5,107.7422 M32.5,92.7422 L45.5,107.7422 " fill="none" style="stroke:#181818;stroke-width:0.5;"/><text fill="#000000" font-family="sans-serif" font-size="14" lengthAdjust="spacing" textLength="49" x="5" y="1454.4473">Student</text><ellipse cx="32.5" cy="1466.4609" fill="#E3E3E3" rx="8" ry="8" style="stroke:#181818;stroke-width:0.5;"/><path d="M32.5,1474.4609 L32.5,1501.4609 M19.5,1482.4609 L45.5,1482.4609 M32.5,1501.4609 L19.5,1516.4609 M32.5,1501.4609 L45.5,1516.4609 " fill="none" style="stroke:#181818;stroke-width:0.5;"/><rect fill="#E3E3E3" height="51.2422" rx="2.5" ry="2.5" style="stroke:#181818;stroke-width:0.5;" width="217" x="513" y="75.6211"/><text fill="#000000" font-family="sans-serif" font-size="14" font-style="italic" lengthAdjust="spacing" textLength="95" x="574" y="97.7285">&#171;presentation&#187;</text><text fill="#000000" font-family="sans-serif" font-size="14" lengthAdjust="spacing" textLength="203" x="520" y="116.3496">TakeAutomaticFormativeExamUI</text><rect fill="#E3E3E3" height="51.2422" rx="2.5" ry="2.5" style="stroke:#181818;stroke-width:0.5;" width="217" x="513" y="1439.3398"/><text fill="#000000" font-family="sans-serif" font-size="14" font-style="italic" lengthAdjust="spacing" textLength="95" x="574" y="1461.4473">&#171;presentation&#187;</text><text fill="#000000" font-family="sans-serif" font-size="14" lengthAdjust="spacing" textLength="203" x="520" y="1480.0684">TakeAutomaticFormativeExamUI</text><text fill="#000000" font-family="sans-serif" font-size="14" font-style="italic" lengthAdjust="spacing" textLength="84" x="1150.5" y="105.7285">&#171;application&#187;</text><text fill="#000000" font-family="sans-serif" font-size="14" lengthAdjust="spacing" textLength="253" x="1066" y="124.3496">TakeAutomaticFormativeExamController</text><ellipse cx="1195.5" cy="74.6211" fill="#E3E3E3" rx="12" ry="12" style="stroke:#181818;stroke-width:0.5;"/><polygon fill="#181818" points="1191.5,62.6211,1197.5,57.6211,1195.5,62.6211,1197.5,67.6211,1191.5,62.6211" style="stroke:#181818;stroke-width:1.0;"/><text fill="#000000" font-family="sans-serif" font-size="14" font-style="italic" lengthAdjust="spacing" textLength="84" x="1150.5" y="1454.4473">&#171;application&#187;</text><text fill="#000000" font-family="sans-serif" font-size="14" lengthAdjust="spacing" textLength="253" x="1066" y="1473.0684">TakeAutomaticFormativeExamController</text><ellipse cx="1195.5" cy="1492.582" fill="#E3E3E3" rx="12" ry="12" style="stroke:#181818;stroke-width:0.5;"/><polygon fill="#181818" points="1191.5,1480.582,1197.5,1475.582,1195.5,1480.582,1197.5,1485.582,1191.5,1480.582" style="stroke:#181818;stroke-width:1.0;"/><rect fill="#E3E3E3" height="51.2422" rx="2.5" ry="2.5" style="stroke:#181818;stroke-width:0.5;" width="158" x="1571.5" y="75.6211"/><text fill="#000000" font-family="sans-serif" font-size="14" font-style="italic" lengthAdjust="spacing" textLength="84" x="1608.5" y="97.7285">&#171;application&#187;</text><text fill="#000000" font-family="sans-serif" font-size="14" lengthAdjust="spacing" textLength="144" x="1578.5" y="116.3496">FormativeExamService</text><rect fill="#E3E3E3" height="51.2422" rx="2.5" ry="2.5" style="stroke:#181818;stroke-width:0.5;" width="158" x="1571.5" y="1439.3398"/><text fill="#000000" font-family="sans-serif" font-size="14" font-style="italic" lengthAdjust="spacing" textLength="84" x="1608.5" y="1461.4473">&#171;application&#187;</text><text fill="#000000" font-family="sans-serif" font-size="14" lengthAdjust="spacing" textLength="144" x="1578.5" y="1480.0684">FormativeExamService</text><rect fill="#E3E3E3" height="51.2422" rx="2.5" ry="2.5" style="stroke:#181818;stroke-width:0.5;" width="136" x="2212.5" y="75.6211"/><text fill="#000000" font-family="sans-serif" font-size="14" font-style="italic" lengthAdjust="spacing" textLength="62" x="2249.5" y="97.7285">&#171;domain&#187;</text><text fill="#000000" font-family="sans-serif" font-size="14" lengthAdjust="spacing" textLength="122" x="2219.5" y="116.3496">theStudent:Student</text><rect fill="#E3E3E3" height="51.2422" rx="2.5" ry="2.5" style="stroke:#181818;stroke-width:0.5;" width="136" x="2212.5" y="1439.3398"/><text fill="#000000" font-family="sans-serif" font-size="14" font-style="italic" lengthAdjust="spacing" textLength="62" x="2249.5" y="1461.4473">&#171;domain&#187;</text><text fill="#000000" font-family="sans-serif" font-size="14" lengthAdjust="spacing" textLength="122" x="2219.5" y="1480.0684">theStudent:Student</text><rect fill="#E3E3E3" height="51.2422" rx="2.5" ry="2.5" style="stroke:#181818;stroke-width:0.5;" width="130" x="2358.5" y="75.6211"/><text fill="#000000" font-family="sans-serif" font-size="14" font-style="italic" lengthAdjust="spacing" textLength="62" x="2392.5" y="97.7285">&#171;domain&#187;</text><text fill="#000000" font-family="sans-serif" font-size="14" lengthAdjust="spacing" textLength="116" x="2365.5" y="116.3496">theCourse:Course</text><rect fill="#E3E3E3" height="51.2422" rx="2.5" ry="2.5" style="stroke:#181818;stroke-width:0.5;" width="130" x="2358.5" y="1439.3398"/><text fill="#000000" font-family="sans-serif" font-size="14" font-style="italic" lengthAdjust="spacing" textLength="62" x="2392.5" y="1461.4473">&#171;domain&#187;</text><text fill="#000000" font-family="sans-serif" font-size="14" lengthAdjust="spacing" textLength="116" x="2365.5" y="1480.0684">theCourse:Course</text><rect fill="#E3E3E3" height="51.2422" rx="2.5" ry="2.5" style="stroke:#181818;stroke-width:0.5;" width="232" x="2498.5" y="75.6211"/><text fill="#000000" font-family="sans-serif" font-size="14" font-style="italic" lengthAdjust="spacing" textLength="62" x="2583.5" y="97.7285">&#171;domain&#187;</text><text fill="#000000" font-family="sans-serif" font-size="14" lengthAdjust="spacing" textLength="218" x="2505.5" y="116.3496">theFormativeExam:FormativeExam</text><rect fill="#E3E3E3" height="51.2422" rx="2.5" ry="2.5" style="stroke:#181818;stroke-width:0.5;" width="232" x="2498.5" y="1439.3398"/><text fill="#000000" font-family="sans-serif" font-size="14" font-style="italic" lengthAdjust="spacing" textLength="62" x="2583.5" y="1461.4473">&#171;domain&#187;</text><text fill="#000000" font-family="sans-serif" font-size="14" lengthAdjust="spacing" textLength="218" x="2505.5" y="1480.0684">theFormativeExam:FormativeExam</text><rect fill="#E3E3E3" height="51.2422" rx="2.5" ry="2.5" style="stroke:#181818;stroke-width:0.5;" width="106" x="2740.5" y="75.6211"/><text fill="#000000" font-family="sans-serif" font-size="14" font-style="italic" lengthAdjust="spacing" textLength="62" x="2762.5" y="97.7285">&#171;domain&#187;</text><text fill="#000000" font-family="sans-serif" font-size="14" lengthAdjust="spacing" textLength="92" x="2747.5" y="116.3496">theExam:Exam</text><rect fill="#E3E3E3" height="51.2422" rx="2.5" ry="2.5" style="stroke:#181818;stroke-width:0.5;" width="106" x="2740.5" y="1439.3398"/><text fill="#000000" font-family="sans-serif" font-size="14" font-style="italic" lengthAdjust="spacing" textLength="62" x="2762.5" y="1461.4473">&#171;domain&#187;</text><text fill="#000000" font-family="sans-serif" font-size="14" lengthAdjust="spacing" textLength="92" x="2747.5" y="1480.0684">theExam:Exam</text><rect fill="#E3E3E3" height="51.2422" rx="2.5" ry="2.5" style="stroke:#181818;stroke-width:0.5;" width="111" x="2856.5" y="75.6211"/><text fill="#000000" font-family="sans-serif" font-size="14" font-style="italic" lengthAdjust="spacing" textLength="48" x="2888" y="97.7285">&#171;lprog&#187;</text><text fill="#000000" font-family="sans-serif" font-size="14" lengthAdjust="spacing" textLength="97" x="2863.5" y="116.3496">ResolutionMain</text><rect fill="#E3E3E3" height="51.2422" rx="2.5" ry="2.5" style="stroke:#181818;stroke-width:0.5;" width="111" x="2856.5" y="1439.3398"/><text fill="#000000" font-family="sans-serif" font-size="14" font-style="italic" lengthAdjust="spacing" textLength="48" x="2888" y="1461.4473">&#171;lprog&#187;</text><text fill="#000000" font-family="sans-serif" font-size="14" lengthAdjust="spacing" textLength="97" x="2863.5" y="1480.0684">ResolutionMain</text><text fill="#000000" font-family="sans-serif" font-size="14" font-style="italic" lengthAdjust="spacing" textLength="79" x="2995" y="105.7285">&#171;repository&#187;</text><text fill="#000000" font-family="sans-serif" font-size="14" lengthAdjust="spacing" textLength="114" x="2977.5" y="124.3496">CourseRepository</text><path d="M3019.5,54.6211 C3019.5,44.6211 3037.5,44.6211 3037.5,44.6211 C3037.5,44.6211 3055.5,44.6211 3055.5,54.6211 L3055.5,80.6211 C3055.5,90.6211 3037.5,90.6211 3037.5,90.6211 C3037.5,90.6211 3019.5,90.6211 3019.5,80.6211 L3019.5,54.6211 " fill="#E3E3E3" style="stroke:#181818;stroke-width:1.5;"/><path d="M3019.5,54.6211 C3019.5,64.6211 3037.5,64.6211 3037.5,64.6211 C3037.5,64.6211 3055.5,64.6211 3055.5,54.6211 " fill="none" style="stroke:#181818;stroke-width:1.5;"/><text fill="#000000" font-family="sans-serif" font-size="14" font-style="italic" lengthAdjust="spacing" textLength="79" x="2995" y="1454.4473">&#171;repository&#187;</text><text fill="#000000" font-family="sans-serif" font-size="14" lengthAdjust="spacing" textLength="114" x="2977.5" y="1473.0684">CourseRepository</text><path d="M3019.5,1486.582 C3019.5,1476.582 3037.5,1476.582 3037.5,1476.582 C3037.5,1476.582 3055.5,1476.582 3055.5,1486.582 L3055.5,1512.582 C3055.5,1522.582 3037.5,1522.582 3037.5,1522.582 C3037.5,1522.582 3019.5,1522.582 3019.5,1512.582 L3019.5,1486.582 " fill="#E3E3E3" style="stroke:#181818;stroke-width:1.5;"/><path d="M3019.5,1486.582 C3019.5,1496.582 3037.5,1496.582 3037.5,1496.582 C3037.5,1496.582 3055.5,1496.582 3055.5,1486.582 " fill="none" style="stroke:#181818;stroke-width:1.5;"/><text fill="#000000" font-family="sans-serif" font-size="14" font-style="italic" lengthAdjust="spacing" textLength="79" x="3130.5" y="105.7285">&#171;repository&#187;</text><text fill="#000000" font-family="sans-serif" font-size="14" lengthAdjust="spacing" textLength="125" x="3107.5" y="124.3496">QuestionRepository</text><path d="M3155,54.6211 C3155,44.6211 3173,44.6211 3173,44.6211 C3173,44.6211 3191,44.6211 3191,54.6211 L3191,80.6211 C3191,90.6211 3173,90.6211 3173,90.6211 C3173,90.6211 3155,90.6211 3155,80.6211 L3155,54.6211 " fill="#E3E3E3" style="stroke:#181818;stroke-width:1.5;"/><path d="M3155,54.6211 C3155,64.6211 3173,64.6211 3173,64.6211 C3173,64.6211 3191,64.6211 3191,54.6211 " fill="none" style="stroke:#181818;stroke-width:1.5;"/><text fill="#000000" font-family="sans-serif" font-size="14" font-style="italic" lengthAdjust="spacing" textLength="79" x="3130.5" y="1454.4473">&#171;repository&#187;</text><text fill="#000000" font-family="sans-serif" font-size="14" lengthAdjust="spacing" textLength="125" x="3107.5" y="1473.0684">QuestionRepository</text><path d="M3155,1486.582 C3155,1476.582 3173,1476.582 3173,1476.582 C3173,1476.582 3191,1476.582 3191,1486.582 L3191,1512.582 C3191,1522.582 3173,1522.582 3173,1522.582 C3173,1522.582 3155,1522.582 3155,1512.582 L3155,1486.582 " fill="#E3E3E3" style="stroke:#181818;stroke-width:1.5;"/><path d="M3155,1486.582 C3155,1496.582 3173,1496.582 3173,1496.582 C3173,1496.582 3191,1496.582 3191,1486.582 " fill="none" style="stroke:#181818;stroke-width:1.5;"/><text fill="#000000" font-family="sans-serif" font-size="14" font-style="italic" lengthAdjust="spacing" textLength="79" x="3291.5" y="105.7285">&#171;repository&#187;</text><text fill="#000000" font-family="sans-serif" font-size="14" lengthAdjust="spacing" textLength="165" x="3248.5" y="124.3496">FormativeExamRepository</text><path d="M3316,54.6211 C3316,44.6211 3334,44.6211 3334,44.6211 C3334,44.6211 3352,44.6211 3352,54.6211 L3352,80.6211 C3352,90.6211 3334,90.6211 3334,90.6211 C3334,90.6211 3316,90.6211 3316,80.6211 L3316,54.6211 " fill="#E3E3E3" style="stroke:#181818;stroke-width:1.5;"/><path d="M3316,54.6211 C3316,64.6211 3334,64.6211 3334,64.6211 C3334,64.6211 3352,64.6211 3352,54.6211 " fill="none" style="stroke:#181818;stroke-width:1.5;"/><text fill="#000000" font-family="sans-serif" font-size="14" font-style="italic" lengthAdjust="spacing" textLength="79" x="3291.5" y="1454.4473">&#171;repository&#187;</text><text fill="#000000" font-family="sans-serif" font-size="14" lengthAdjust="spacing" textLength="165" x="3248.5" y="1473.0684">FormativeExamRepository</text><path d="M3316,1486.582 C3316,1476.582 3334,1476.582 3334,1476.582 C3334,1476.582 3352,1476.582 3352,1486.582 L3352,1512.582 C3352,1522.582 3334,1522.582 3334,1522.582 C3334,1522.582 3316,1522.582 3316,1512.582 L3316,1486.582 " fill="#E3E3E3" style="stroke:#181818;stroke-width:1.5;"/><path d="M3316,1486.582 C3316,1496.582 3334,1496.582 3334,1496.582 C3334,1496.582 3352,1496.582 3352,1486.582 " fill="none" style="stroke:#181818;stroke-width:1.5;"/><rect fill="#FFFFFF" height="1284.4766" style="stroke:#181818;stroke-width:1.0;" width="10" x="27.5" y="137.8633"/><rect fill="#FFFFFF" height="1261.1855" style="stroke:#181818;stroke-width:1.0;" width="10" x="616.5" y="161.1543"/><rect fill="#FFFFFF" height="31.291" style="stroke:#181818;stroke-width:1.0;" width="10" x="1190.5" y="255.0273"/><rect fill="#FFFFFF" height="31.291" style="stroke:#181818;stroke-width:1.0;" width="10" x="1190.5" y="424.4824"/><rect fill="#FFFFFF" height="253.7461" style="stroke:#181818;stroke-width:1.0;" width="10" x="1190.5" y="593.9375"/><rect fill="#FFFFFF" height="31.291" style="stroke:#181818;stroke-width:1.0;" width="10" x="1190.5" y="870.9746"/><rect fill="#FFFFFF" height="129.873" style="stroke:#181818;stroke-width:1.0;" width="10" x="1190.5" y="1040.4297"/><rect fill="#FFFFFF" height="31.291" style="stroke:#181818;stroke-width:1.0;" width="10" x="1190.5" y="1315.4668"/><rect fill="#FFFFFF" height="222.4551" style="stroke:#181818;stroke-width:1.0;" width="10" x="1645.5" y="625.2285"/><rect fill="#FFFFFF" height="151.873" style="stroke:#181818;stroke-width:1.0;" width="10" x="1650.5" y="695.8105"/><rect fill="#FFFFFF" height="28" style="stroke:#181818;stroke-width:1.0;" width="10" x="1655.5" y="740.1016"/><rect fill="#FFFFFF" height="98.582" style="stroke:#181818;stroke-width:1.0;" width="10" x="1645.5" y="1071.7207"/><rect fill="#FFFFFF" height="28" style="stroke:#181818;stroke-width:1.0;" width="10" x="1650.5" y="1142.3027"/><polygon fill="#181818" points="604.5,157.1543,614.5,161.1543,604.5,165.1543,608.5,161.1543" style="stroke:#181818;stroke-width:1.0;"/><line style="stroke:#181818;stroke-width:1.0;" x1="37.5" x2="610.5" y1="161.1543" y2="161.1543"/><text fill="#000000" font-family="sans-serif" font-size="13" font-weight="bold" lengthAdjust="spacing" textLength="7" x="44.5" y="155.8916">1</text><text fill="#000000" font-family="sans-serif" font-size="13" lengthAdjust="spacing" textLength="319" x="55.5" y="155.8916">Pede para responder a um exame formativo autom&#225;tico</text><polygon fill="#181818" points="1183.5,188.4453,1193.5,192.4453,1183.5,196.4453,1187.5,192.4453" style="stroke:#181818;stroke-width:1.0;"/><line style="stroke:#181818;stroke-width:1.0;" x1="626.5" x2="1189.5" y1="192.4453" y2="192.4453"/><text fill="#000000" font-family="sans-serif" font-size="13" font-weight="bold" lengthAdjust="spacing" textLength="7" x="633.5" y="187.1826">2</text><text fill="#000000" font-family="sans-serif" font-size="13" lengthAdjust="spacing" textLength="36" x="644.5" y="187.1826">create</text><polygon fill="#181818" points="1638.5,219.7363,1648.5,223.7363,1638.5,227.7363,1642.5,223.7363" style="stroke:#181818;stroke-width:1.0;"/><line style="stroke:#181818;stroke-width:1.0;" x1="1195.5" x2="1644.5" y1="223.7363" y2="223.7363"/><text fill="#000000" font-family="sans-serif" font-size="13" font-weight="bold" lengthAdjust="spacing" textLength="7" x="1202.5" y="218.4736">3</text><text fill="#000000" font-family="sans-serif" font-size="13" lengthAdjust="spacing" textLength="36" x="1213.5" y="218.4736">create</text><polygon fill="#181818" points="1178.5,251.0273,1188.5,255.0273,1178.5,259.0273,1182.5,255.0273" style="stroke:#181818;stroke-width:1.0;"/><line style="stroke:#181818;stroke-width:1.0;" x1="626.5" x2="1184.5" y1="255.0273" y2="255.0273"/><text fill="#000000" font-family="sans-serif" font-size="13" font-weight="bold" lengthAdjust="spacing" textLength="7" x="633.5" y="249.7646">4</text><text fill="#000000" font-family="sans-serif" font-size="13" lengthAdjust="spacing" textLength="534" x="644.5" y="249.7646">allStudentCourses = findAllStudentApprovedCoursesInProgressWithActualFormativeExams()</text><polygon fill="#181818" points="3025.5,282.3184,3035.5,286.3184,3025.5,290.3184,3029.5,286.3184" style="stroke:#181818;stroke-width:1.0;"/><line style="stroke:#181818;stroke-width:1.0;" x1="1195.5" x2="3031.5" y1="286.3184" y2="286.3184"/><text fill="#000000" font-family="sans-serif" font-size="13" font-weight="bold" lengthAdjust="spacing" textLength="7" x="1202.5" y="281.0557">5</text><text fill="#000000" font-family="sans-serif" font-size="13" lengthAdjust="spacing" textLength="475" x="1213.5" y="281.0557">findAllStudentApprovedCoursesInProgressWithActualFormativeExams(theStudent)</text><line style="stroke:#181818;stroke-width:1.0;" x1="626.5" x2="668.5" y1="317.6094" y2="317.6094"/><line style="stroke:#181818;stroke-width:1.0;" x1="668.5" x2="668.5" y1="317.6094" y2="330.6094"/><line style="stroke:#181818;stroke-width:1.0;" x1="627.5" x2="668.5" y1="330.6094" y2="330.6094"/><polygon fill="#181818" points="637.5,326.6094,627.5,330.6094,637.5,334.6094,633.5,330.6094" style="stroke:#181818;stroke-width:1.0;"/><text fill="#000000" font-family="sans-serif" font-size="13" font-weight="bold" lengthAdjust="spacing" textLength="7" x="633.5" y="312.3467">6</text><text fill="#000000" font-family="sans-serif" font-size="13" lengthAdjust="spacing" textLength="356" x="644.5" y="312.3467">Mostra a lista de disciplinas em que o estudante est&#225; inscrito</text><polygon fill="#181818" points="48.5,357.9004,38.5,361.9004,48.5,365.9004,44.5,361.9004" style="stroke:#181818;stroke-width:1.0;"/><line style="stroke:#181818;stroke-width:1.0;stroke-dasharray:2.0,2.0;" x1="42.5" x2="615.5" y1="361.9004" y2="361.9004"/><text fill="#000000" font-family="sans-serif" font-size="13" font-weight="bold" lengthAdjust="spacing" textLength="7" x="54.5" y="356.6377">7</text><text fill="#000000" font-family="sans-serif" font-size="13" lengthAdjust="spacing" textLength="433" x="65.5" y="356.6377">Pede para escolher a disciplina da qual pretende fazer um exame formativo</text><polygon fill="#181818" points="604.5,389.1914,614.5,393.1914,604.5,397.1914,608.5,393.1914" style="stroke:#181818;stroke-width:1.0;"/><line style="stroke:#181818;stroke-width:1.0;" x1="37.5" x2="610.5" y1="393.1914" y2="393.1914"/><text fill="#000000" font-family="sans-serif" font-size="13" font-weight="bold" lengthAdjust="spacing" textLength="7" x="44.5" y="387.9287">8</text><text fill="#000000" font-family="sans-serif" font-size="13" lengthAdjust="spacing" textLength="116" x="55.5" y="387.9287">Escolhe a disciplina</text><polygon fill="#181818" points="1178.5,420.4824,1188.5,424.4824,1178.5,428.4824,1182.5,424.4824" style="stroke:#181818;stroke-width:1.0;"/><line style="stroke:#181818;stroke-width:1.0;" x1="626.5" x2="1184.5" y1="424.4824" y2="424.4824"/><text fill="#000000" font-family="sans-serif" font-size="13" font-weight="bold" lengthAdjust="spacing" textLength="7" x="633.5" y="419.2197">9</text><text fill="#000000" font-family="sans-serif" font-size="13" lengthAdjust="spacing" textLength="523" x="644.5" y="419.2197">allFormativeExamsOfTheCourse = listAllAvailableFormativeExamsOfTheCourse(theCourse)</text><polygon fill="#181818" points="3322,451.7734,3332,455.7734,3322,459.7734,3326,455.7734" style="stroke:#181818;stroke-width:1.0;"/><line style="stroke:#181818;stroke-width:1.0;" x1="1195.5" x2="3328" y1="455.7734" y2="455.7734"/><text fill="#000000" font-family="sans-serif" font-size="13" font-weight="bold" lengthAdjust="spacing" textLength="14" x="1202.5" y="450.5107">10</text><text fill="#000000" font-family="sans-serif" font-size="13" lengthAdjust="spacing" textLength="320" x="1220.5" y="450.5107">listAllAvailableFormativeExamsOfACourse(courseCode)</text><line style="stroke:#181818;stroke-width:1.0;stroke-dasharray:2.0,2.0;" x1="626.5" x2="668.5" y1="487.0645" y2="487.0645"/><line style="stroke:#181818;stroke-width:1.0;stroke-dasharray:2.0,2.0;" x1="668.5" x2="668.5" y1="487.0645" y2="500.0645"/><line style="stroke:#181818;stroke-width:1.0;stroke-dasharray:2.0,2.0;" x1="627.5" x2="668.5" y1="500.0645" y2="500.0645"/><polygon fill="#181818" points="637.5,496.0645,627.5,500.0645,637.5,504.0645,633.5,500.0645" style="stroke:#181818;stroke-width:1.0;"/><text fill="#000000" font-family="sans-serif" font-size="13" font-weight="bold" lengthAdjust="spacing" textLength="14" x="633.5" y="481.8018">11</text><text fill="#000000" font-family="sans-serif" font-size="13" lengthAdjust="spacing" textLength="485" x="651.5" y="481.8018">Lista todos os exames formativos autom&#225;ticos dispon&#237;veis da disciplina selecionada</text><polygon fill="#181818" points="48.5,527.3555,38.5,531.3555,48.5,535.3555,44.5,531.3555" style="stroke:#181818;stroke-width:1.0;"/><line style="stroke:#181818;stroke-width:1.0;stroke-dasharray:2.0,2.0;" x1="42.5" x2="615.5" y1="531.3555" y2="531.3555"/><text fill="#000000" font-family="sans-serif" font-size="13" font-weight="bold" lengthAdjust="spacing" textLength="14" x="54.5" y="526.0928">12</text><text fill="#000000" font-family="sans-serif" font-size="13" lengthAdjust="spacing" textLength="356" x="72.5" y="526.0928">Pede para selecionar o exame formativo que pretende realizar</text><polygon fill="#181818" points="604.5,558.6465,614.5,562.6465,604.5,566.6465,608.5,562.6465" style="stroke:#181818;stroke-width:1.0;"/><line style="stroke:#181818;stroke-width:1.0;" x1="37.5" x2="610.5" y1="562.6465" y2="562.6465"/><text fill="#000000" font-family="sans-serif" font-size="13" font-weight="bold" lengthAdjust="spacing" textLength="14" x="44.5" y="557.3838">13</text><text fill="#000000" font-family="sans-serif" font-size="13" lengthAdjust="spacing" textLength="281" x="62.5" y="557.3838">Escolhe o exame formativo que pretende realizar</text><polygon fill="#181818" points="1178.5,589.9375,1188.5,593.9375,1178.5,597.9375,1182.5,593.9375" style="stroke:#181818;stroke-width:1.0;"/><line style="stroke:#181818;stroke-width:1.0;" x1="626.5" x2="1184.5" y1="593.9375" y2="593.9375"/><text fill="#000000" font-family="sans-serif" font-size="13" font-weight="bold" lengthAdjust="spacing" textLength="14" x="633.5" y="588.6748">14</text><text fill="#000000" font-family="sans-serif" font-size="13" lengthAdjust="spacing" textLength="466" x="651.5" y="588.6748">theExam = transformFormativeExamDataInExam(theCourse, theFormativeExam)</text><polygon fill="#181818" points="1633.5,621.2285,1643.5,625.2285,1633.5,629.2285,1637.5,625.2285" style="stroke:#181818;stroke-width:1.0;"/><line style="stroke:#181818;stroke-width:1.0;" x1="1200.5" x2="1639.5" y1="625.2285" y2="625.2285"/><text fill="#000000" font-family="sans-serif" font-size="13" font-weight="bold" lengthAdjust="spacing" textLength="14" x="1207.5" y="619.9658">15</text><text fill="#000000" font-family="sans-serif" font-size="13" lengthAdjust="spacing" textLength="408" x="1225.5" y="619.9658">transformFormativeExamDataInExam(courseCode, theFormativeExam)</text><polygon fill="#181818" points="2602.5,652.5195,2612.5,656.5195,2602.5,660.5195,2606.5,656.5195" style="stroke:#181818;stroke-width:1.0;"/><line style="stroke:#181818;stroke-width:1.0;" x1="1655.5" x2="2608.5" y1="656.5195" y2="656.5195"/><text fill="#000000" font-family="sans-serif" font-size="13" font-weight="bold" lengthAdjust="spacing" textLength="14" x="1662.5" y="651.2568">16</text><text fill="#000000" font-family="sans-serif" font-size="13" lengthAdjust="spacing" textLength="212" x="1680.5" y="651.2568">theExam = transformInExamObject()</text><line style="stroke:#181818;stroke-width:1.0;" x1="1655.5" x2="1702.5" y1="682.8105" y2="682.8105"/><line style="stroke:#181818;stroke-width:1.0;" x1="1702.5" x2="1702.5" y1="682.8105" y2="695.8105"/><line style="stroke:#181818;stroke-width:1.0;" x1="1661.5" x2="1702.5" y1="695.8105" y2="695.8105"/><polygon fill="#181818" points="1671.5,691.8105,1661.5,695.8105,1671.5,699.8105,1667.5,695.8105" style="stroke:#181818;stroke-width:1.0;"/><text fill="#000000" font-family="sans-serif" font-size="13" font-weight="bold" lengthAdjust="spacing" textLength="14" x="1667.5" y="677.5479">17</text><text fill="#000000" font-family="sans-serif" font-size="13" lengthAdjust="spacing" textLength="482" x="1685.5" y="677.5479">generatedQuestions = generateRandomQuestions(courseCode, theFormativeExam)</text><line style="stroke:#181818;stroke-width:1.0;" x1="1665.5" x2="1707.5" y1="732.1016" y2="732.1016"/><line style="stroke:#181818;stroke-width:1.0;" x1="1707.5" x2="1707.5" y1="732.1016" y2="745.1016"/><line style="stroke:#181818;stroke-width:1.0;" x1="1666.5" x2="1707.5" y1="745.1016" y2="745.1016"/><polygon fill="#181818" points="1676.5,741.1016,1666.5,745.1016,1676.5,749.1016,1672.5,745.1016" style="stroke:#181818;stroke-width:1.0;"/><text fill="#000000" font-family="sans-serif" font-size="13" font-weight="bold" lengthAdjust="spacing" textLength="14" x="1672.5" y="726.8389">18</text><text fill="#000000" font-family="sans-serif" font-size="13" lengthAdjust="spacing" textLength="583" x="1690.5" y="726.8389">questionAndRequiredNumber = countAllTypeQuestionsQuantityInFormativeExam(theFormativeExam)</text><path d="M1561.5,790.1016 L1634.5,790.1016 L1634.5,799.3926 L1624.5,809.3926 L1561.5,809.3926 L1561.5,790.1016 " fill="#EEEEEE" style="stroke:#000000;stroke-width:1.5;"/><rect fill="none" height="50.582" style="stroke:#000000;stroke-width:1.5;" width="1687" x="1561.5" y="790.1016"/><text fill="#000000" font-family="sans-serif" font-size="13" font-weight="bold" lengthAdjust="spacing" textLength="28" x="1576.5" y="805.1299">loop</text><text fill="#000000" font-family="sans-serif" font-size="11" font-weight="bold" lengthAdjust="spacing" textLength="149" x="1649.5" y="803.9717">[Para cada tipo de quest&#227;o]</text><polygon fill="#181818" points="3161,828.6836,3171,832.6836,3161,836.6836,3165,832.6836" style="stroke:#181818;stroke-width:1.0;"/><line style="stroke:#181818;stroke-width:1.0;" x1="1660.5" x2="3167" y1="832.6836" y2="832.6836"/><text fill="#000000" font-family="sans-serif" font-size="13" font-weight="bold" lengthAdjust="spacing" textLength="14" x="1667.5" y="827.4209">19</text><text fill="#000000" font-family="sans-serif" font-size="13" lengthAdjust="spacing" textLength="408" x="1685.5" y="827.4209">generateRandomQuestions(courseCode, typeQuestion, typeQuestion))</text><polygon fill="#181818" points="1178.5,866.9746,1188.5,870.9746,1178.5,874.9746,1182.5,870.9746" style="stroke:#181818;stroke-width:1.0;"/><line style="stroke:#181818;stroke-width:1.0;" x1="626.5" x2="1184.5" y1="870.9746" y2="870.9746"/><text fill="#000000" font-family="sans-serif" font-size="13" font-weight="bold" lengthAdjust="spacing" textLength="14" x="633.5" y="865.7119">20</text><text fill="#000000" font-family="sans-serif" font-size="13" lengthAdjust="spacing" textLength="280" x="651.5" y="865.7119">examData = getExamQuestionsString(theExam)</text><polygon fill="#181818" points="2781.5,898.2656,2791.5,902.2656,2781.5,906.2656,2785.5,902.2656" style="stroke:#181818;stroke-width:1.0;"/><line style="stroke:#181818;stroke-width:1.0;" x1="1195.5" x2="2787.5" y1="902.2656" y2="902.2656"/><text fill="#000000" font-family="sans-serif" font-size="13" font-weight="bold" lengthAdjust="spacing" textLength="14" x="1202.5" y="897.0029">21</text><text fill="#000000" font-family="sans-serif" font-size="13" lengthAdjust="spacing" textLength="147" x="1220.5" y="897.0029">examQuestionsToString()</text><line style="stroke:#181818;stroke-width:1.0;" x1="626.5" x2="668.5" y1="933.5566" y2="933.5566"/><line style="stroke:#181818;stroke-width:1.0;" x1="668.5" x2="668.5" y1="933.5566" y2="946.5566"/><line style="stroke:#181818;stroke-width:1.0;" x1="627.5" x2="668.5" y1="946.5566" y2="946.5566"/><polygon fill="#181818" points="637.5,942.5566,627.5,946.5566,637.5,950.5566,633.5,946.5566" style="stroke:#181818;stroke-width:1.0;"/><text fill="#000000" font-family="sans-serif" font-size="13" font-weight="bold" lengthAdjust="spacing" textLength="14" x="633.5" y="928.2939">22</text><text fill="#000000" font-family="sans-serif" font-size="13" lengthAdjust="spacing" textLength="168" x="651.5" y="928.2939">Apresenta o exame formativo</text><polygon fill="#181818" points="48.5,973.8477,38.5,977.8477,48.5,981.8477,44.5,977.8477" style="stroke:#181818;stroke-width:1.0;"/><line style="stroke:#181818;stroke-width:1.0;stroke-dasharray:2.0,2.0;" x1="42.5" x2="615.5" y1="977.8477" y2="977.8477"/><text fill="#000000" font-family="sans-serif" font-size="13" font-weight="bold" lengthAdjust="spacing" textLength="14" x="54.5" y="972.585">23</text><text fill="#000000" font-family="sans-serif" font-size="13" lengthAdjust="spacing" textLength="537" x="72.5" y="972.585">Pede ao utilizador para inserir o caminho at&#233; ao ficheiro com a resolu&#231;&#227;o do exame formativo</text><polygon fill="#181818" points="604.5,1005.1387,614.5,1009.1387,604.5,1013.1387,608.5,1009.1387" style="stroke:#181818;stroke-width:1.0;"/><line style="stroke:#181818;stroke-width:1.0;" x1="37.5" x2="610.5" y1="1009.1387" y2="1009.1387"/><text fill="#000000" font-family="sans-serif" font-size="13" font-weight="bold" lengthAdjust="spacing" textLength="14" x="44.5" y="1003.876">24</text><text fill="#000000" font-family="sans-serif" font-size="13" lengthAdjust="spacing" textLength="378" x="62.5" y="1003.876">Insere o caminho do ficheiro com a resolu&#231;&#227;o do exame formativo</text><polygon fill="#181818" points="1178.5,1036.4297,1188.5,1040.4297,1178.5,1044.4297,1182.5,1040.4297" style="stroke:#181818;stroke-width:1.0;"/><line style="stroke:#181818;stroke-width:1.0;" x1="626.5" x2="1184.5" y1="1040.4297" y2="1040.4297"/><text fill="#000000" font-family="sans-serif" font-size="13" font-weight="bold" lengthAdjust="spacing" textLength="14" x="633.5" y="1035.167">25</text><text fill="#000000" font-family="sans-serif" font-size="13" lengthAdjust="spacing" textLength="397" x="651.5" y="1035.167">obtainedGrade = parseFormativeExamAnswers(fileToPath, theExam)</text><polygon fill="#181818" points="1633.5,1067.7207,1643.5,1071.7207,1633.5,1075.7207,1637.5,1071.7207" style="stroke:#181818;stroke-width:1.0;"/><line style="stroke:#181818;stroke-width:1.0;" x1="1200.5" x2="1639.5" y1="1071.7207" y2="1071.7207"/><text fill="#000000" font-family="sans-serif" font-size="13" font-weight="bold" lengthAdjust="spacing" textLength="14" x="1207.5" y="1066.458">26</text><text fill="#000000" font-family="sans-serif" font-size="13" lengthAdjust="spacing" textLength="331" x="1225.5" y="1066.458">parseAndHandleFormativeExamGrade(filePath, theExam)</text><polygon fill="#181818" points="2900,1099.0117,2910,1103.0117,2900,1107.0117,2904,1103.0117" style="stroke:#181818;stroke-width:1.0;"/><line style="stroke:#181818;stroke-width:1.0;" x1="1655.5" x2="2906" y1="1103.0117" y2="1103.0117"/><text fill="#000000" font-family="sans-serif" font-size="13" font-weight="bold" lengthAdjust="spacing" textLength="14" x="1662.5" y="1097.749">27</text><text fill="#000000" font-family="sans-serif" font-size="13" lengthAdjust="spacing" textLength="221" x="1680.5" y="1097.749">parseWithVisitor(fileToPath, theExam)</text><line style="stroke:#181818;stroke-width:1.0;" x1="1660.5" x2="1702.5" y1="1134.3027" y2="1134.3027"/><line style="stroke:#181818;stroke-width:1.0;" x1="1702.5" x2="1702.5" y1="1134.3027" y2="1147.3027"/><line style="stroke:#181818;stroke-width:1.0;" x1="1661.5" x2="1702.5" y1="1147.3027" y2="1147.3027"/><polygon fill="#181818" points="1671.5,1143.3027,1661.5,1147.3027,1671.5,1151.3027,1667.5,1147.3027" style="stroke:#181818;stroke-width:1.0;"/><text fill="#000000" font-family="sans-serif" font-size="13" font-weight="bold" lengthAdjust="spacing" textLength="14" x="1667.5" y="1129.04">28</text><text fill="#000000" font-family="sans-serif" font-size="13" lengthAdjust="spacing" textLength="262" x="1685.5" y="1129.04">calculateFormativeExamMaxGrade(theExam)</text><line style="stroke:#181818;stroke-width:1.0;" x1="626.5" x2="668.5" y1="1208.5938" y2="1208.5938"/><line style="stroke:#181818;stroke-width:1.0;" x1="668.5" x2="668.5" y1="1208.5938" y2="1221.5938"/><line style="stroke:#181818;stroke-width:1.0;" x1="627.5" x2="668.5" y1="1221.5938" y2="1221.5938"/><polygon fill="#181818" points="637.5,1217.5938,627.5,1221.5938,637.5,1225.5938,633.5,1221.5938" style="stroke:#181818;stroke-width:1.0;"/><text fill="#000000" font-family="sans-serif" font-size="13" font-weight="bold" lengthAdjust="spacing" textLength="14" x="633.5" y="1203.3311">29</text><text fill="#000000" font-family="sans-serif" font-size="13" lengthAdjust="spacing" textLength="420" x="651.5" y="1203.3311">Imprime as respostas do estudante que ser&#227;o dadas ao exame formativo</text><polygon fill="#181818" points="48.5,1248.8848,38.5,1252.8848,48.5,1256.8848,44.5,1252.8848" style="stroke:#181818;stroke-width:1.0;"/><line style="stroke:#181818;stroke-width:1.0;stroke-dasharray:2.0,2.0;" x1="42.5" x2="615.5" y1="1252.8848" y2="1252.8848"/><text fill="#000000" font-family="sans-serif" font-size="13" font-weight="bold" lengthAdjust="spacing" textLength="14" x="54.5" y="1247.6221">30</text><text fill="#000000" font-family="sans-serif" font-size="13" lengthAdjust="spacing" textLength="325" x="72.5" y="1247.6221">Pede confirma&#231;&#227;o para a finaliza&#231;&#227;o do exame formativo</text><polygon fill="#181818" points="604.5,1280.1758,614.5,1284.1758,604.5,1288.1758,608.5,1284.1758" style="stroke:#181818;stroke-width:1.0;"/><line style="stroke:#181818;stroke-width:1.0;" x1="37.5" x2="610.5" y1="1284.1758" y2="1284.1758"/><text fill="#000000" font-family="sans-serif" font-size="13" font-weight="bold" lengthAdjust="spacing" textLength="14" x="44.5" y="1278.9131">31</text><text fill="#000000" font-family="sans-serif" font-size="13" lengthAdjust="spacing" textLength="108" x="62.5" y="1278.9131">Confirma opera&#231;&#227;o</text><polygon fill="#181818" points="1178.5,1311.4668,1188.5,1315.4668,1178.5,1319.4668,1182.5,1315.4668" style="stroke:#181818;stroke-width:1.0;"/><line style="stroke:#181818;stroke-width:1.0;" x1="626.5" x2="1184.5" y1="1315.4668" y2="1315.4668"/><text fill="#000000" font-family="sans-serif" font-size="13" font-weight="bold" lengthAdjust="spacing" textLength="14" x="633.5" y="1310.2041">32</text><text fill="#000000" font-family="sans-serif" font-size="13" lengthAdjust="spacing" textLength="274" x="651.5" y="1310.2041">examFeedback = getExamFeedback(theExam)</text><polygon fill="#181818" points="2781.5,1342.7578,2791.5,1346.7578,2781.5,1350.7578,2785.5,1346.7578" style="stroke:#181818;stroke-width:1.0;"/><line style="stroke:#181818;stroke-width:1.0;" x1="1195.5" x2="2787.5" y1="1346.7578" y2="1346.7578"/><text fill="#000000" font-family="sans-serif" font-size="13" font-weight="bold" lengthAdjust="spacing" textLength="14" x="1202.5" y="1341.4951">33</text><text fill="#000000" font-family="sans-serif" font-size="13" lengthAdjust="spacing" textLength="60" x="1220.5" y="1341.4951">feedback()</text><line style="stroke:#181818;stroke-width:1.0;" x1="626.5" x2="668.5" y1="1378.0488" y2="1378.0488"/><line style="stroke:#181818;stroke-width:1.0;" x1="668.5" x2="668.5" y1="1378.0488" y2="1391.0488"/><line style="stroke:#181818;stroke-width:1.0;" x1="627.5" x2="668.5" y1="1391.0488" y2="1391.0488"/><polygon fill="#181818" points="637.5,1387.0488,627.5,1391.0488,637.5,1395.0488,633.5,1391.0488" style="stroke:#181818;stroke-width:1.0;"/><text fill="#000000" font-family="sans-serif" font-size="13" font-weight="bold" lengthAdjust="spacing" textLength="14" x="633.5" y="1372.7861">34</text><text fill="#000000" font-family="sans-serif" font-size="13" lengthAdjust="spacing" textLength="387" x="651.5" y="1372.7861">Apresenta a nota obtida no exame formativo e o respetivo feedback</text><polygon fill="#181818" points="43.5,1418.3398,33.5,1422.3398,43.5,1426.3398,39.5,1422.3398" style="stroke:#181818;stroke-width:1.0;"/><line style="stroke:#181818;stroke-width:1.0;stroke-dasharray:2.0,2.0;" x1="37.5" x2="620.5" y1="1422.3398" y2="1422.3398"/><text fill="#000000" font-family="sans-serif" font-size="13" font-weight="bold" lengthAdjust="spacing" textLength="14" x="49.5" y="1417.0771">35</text><text fill="#000000" font-family="sans-serif" font-size="13" lengthAdjust="spacing" textLength="181" x="67.5" y="1417.0771">Informa o sucesso da opera&#231;&#227;o</text><!--SRC=[nLVRRXit47tVho3y90C94EIjWcn0i9DKGDqubjC-KykHn9fBRaYk4kLlWZuKUUXNwCSwmxrITya6AXZmyZA7Spap7BedgNDkUSOoeqqwjoO3vcq1YMjMSfu-yHcC_L81iv1whcUgky7DkJ1VfPwnALSEaiHBZrl7I-SXOsFuKe1EWTrAFgFjlV7uzfAzPf_7xEsRDxyalF165za4R9Bmr1lBBiQ-4A3z1UEELTy9dkLbAdEkFNlaJp14iOpZr7jZwVy2tdtZsUSHoHII3GQv1OU2k6JqzNMI6ksjKNjaRyeT2YnXfEreCE1vhcHQGqMwH11Zi0k9jgByTDlyNgGBFuVAsdxN0-qqoWjKN9BekkIDAQo3VlclbYj7-yGYzVlHg0Q99lTX1OYkvBf09F40pgY27767goHXuvd1GENMp4XESCyd72qf3Ng0t3Y9L5cMaLgR6mniCq3fHlXJ0OxGO_4lcxEx029Fn2ZJ7KjhKCHmkU0U6bud37zrV5zV4tVxx1u4CCekyabkj21EiY9ZWEZG76OO9K-s-e5EDG6eWIza6DCF4H6tm-S-IotWfcP7PmrtRcLk8xCFbYjLMLB6oR4hDfLQ39lvOOuXNO2eraVw7YECDhe_fPyFKrzm5JdPzIwR0nlRsZERjKqhDbZHVxOgRIAsIWdOfjQQaq9Cxupp653Eb7IUeo0Jqc4kAAcHFrWfaOZCC2HZ8J0_WBvMFvZKBhLeGGI9c3LbkcG1bner3rnfiPdW2CqLmuBe0Qc4PVexxjbaKwlsEX_VbS0HxW4YnBxxE7rigj5Ly006OhZWKl69WfrxUqqDEvS6k_AoVr29OQL2IQGR8-2agDUk-or4snjX7CE_uFAsNE1C9uKTkHVJVVNl0gIZm7N2w411YdMA2tuC5vhjbaYrLZQ8QWqTCA-L_CxjuV0V2xI76VMjS8Lj1jUEa2B7tsAj7MdwQcF_QkCMUX4sjANje2ej1_Rf4kcpxQXe9_ssweDwRjowMnrNAlTnyXSsPRtBey5tE6466YngBkfhagftFVd0DTxYpSe93ZdTAMVeNj_XGoqUiD-K5iJleQL44r1LJOd-kCoXCU1JWILM-kL8Hwht3jjodZsTWd6qZ38cP_UKoodcFFCoDtHh15jNVvkjCljyjwNHwHyNu8xduj7bTlzWDGZQ9yznmx5xZxg1ene4LN87Vdl2REmUUuiFcLwLREUMcJfNowCQy4TJmP_JFWphzync5Jvm7N33iAccoYpmSHKk1smgm4gw6LAUIJt7HjAlVjBEgKpd82qkc8pngYLV_ODyOy8Stp2Cw03eu8jJeVV4pqmylWz0VB1SK3k19hauROVQVGNhUbEfuD7SSpz_nPuPqnsL9voDPUTNp9-r7YAe5rJOeS3BtHThBwTABMfa_v0XrVTxuiogctAL5WgLZyo-uzzAotSUSvhD_rlDA8cSvLPcK3rFiN1w_1BTDfrQ82Hxe37MQKTPT5g2eWfJYLlBN0W9okcn4hgfqtFlfe9Z9iVI7kGFbiFt06B2qwUs9DOpBrSBfpNYyyeVPzfG5PnuAUXxeoUbiaEnWZ2gJzqTWv4EiYZbYXJVVnJ7hk_M5CMNTT8Prk_u_m00]--></g></svg>