<?xml version="1.0" encoding="us-ascii" standalone="no"?><svg xmlns="http://www.w3.org/2000/svg" xmlns:xlink="http://www.w3.org/1999/xlink" contentStyleType="text/css" height="664px" preserveAspectRatio="none" style="width:654px;height:664px;background:#FFFFFF;" version="1.1" viewBox="0 0 654 664" width="654px" zoomAndPan="magnify"><defs/><g><text fill="#000000" font-family="sans-serif" font-size="14" font-weight="bold" lengthAdjust="spacing" textLength="296" x="178.25" y="30.1074">System Sequence Diagram (SSD) - US 2009</text><rect fill="#FFFFFF" height="430.0742" style="stroke:#181818;stroke-width:1.0;" width="10" x="27.5" y="133.2422"/><rect fill="#FFFFFF" height="62.582" style="stroke:#181818;stroke-width:1.0;" width="10" x="609.5" y="156.5332"/><rect fill="#FFFFFF" height="62.582" style="stroke:#181818;stroke-width:1.0;" width="10" x="609.5" y="250.4063"/><rect fill="#FFFFFF" height="62.582" style="stroke:#181818;stroke-width:1.0;" width="10" x="609.5" y="344.2793"/><rect fill="#FFFFFF" height="62.582" style="stroke:#181818;stroke-width:1.0;" width="10" x="609.5" y="438.1523"/><rect fill="#FFFFFF" height="31.291" style="stroke:#181818;stroke-width:1.0;" width="10" x="609.5" y="532.0254"/><line style="stroke:#181818;stroke-width:0.5;stroke-dasharray:5.0,5.0;" x1="32" x2="32" y1="123.2422" y2="581.3164"/><line style="stroke:#181818;stroke-width:0.5;stroke-dasharray:5.0,5.0;" x1="614.5" x2="614.5" y1="123.2422" y2="581.3164"/><text fill="#000000" font-family="sans-serif" font-size="14" lengthAdjust="spacing" textLength="49" x="5" y="119.7285">Student</text><ellipse cx="32.5" cy="53.1211" fill="#E3E3E3" rx="8" ry="8" style="stroke:#181818;stroke-width:0.5;"/><path d="M32.5,61.1211 L32.5,88.1211 M19.5,69.1211 L45.5,69.1211 M32.5,88.1211 L19.5,103.1211 M32.5,88.1211 L45.5,103.1211 " fill="none" style="stroke:#181818;stroke-width:0.5;"/><text fill="#000000" font-family="sans-serif" font-size="14" lengthAdjust="spacing" textLength="49" x="5" y="595.4238">Student</text><ellipse cx="32.5" cy="607.4375" fill="#E3E3E3" rx="8" ry="8" style="stroke:#181818;stroke-width:0.5;"/><path d="M32.5,615.4375 L32.5,642.4375 M19.5,623.4375 L45.5,623.4375 M32.5,642.4375 L19.5,657.4375 M32.5,642.4375 L45.5,657.4375 " fill="none" style="stroke:#181818;stroke-width:0.5;"/><rect fill="#E3E3E3" height="32.6211" rx="2.5" ry="2.5" style="stroke:#181818;stroke-width:0.5;" width="68" x="580.5" y="89.6211"/><text fill="#000000" font-family="sans-serif" font-size="14" lengthAdjust="spacing" textLength="54" x="587.5" y="111.7285">:Sistema</text><rect fill="#E3E3E3" height="32.6211" rx="2.5" ry="2.5" style="stroke:#181818;stroke-width:0.5;" width="68" x="580.5" y="580.3164"/><text fill="#000000" font-family="sans-serif" font-size="14" lengthAdjust="spacing" textLength="54" x="587.5" y="602.4238">:Sistema</text><rect fill="#FFFFFF" height="430.0742" style="stroke:#181818;stroke-width:1.0;" width="10" x="27.5" y="133.2422"/><rect fill="#FFFFFF" height="62.582" style="stroke:#181818;stroke-width:1.0;" width="10" x="609.5" y="156.5332"/><rect fill="#FFFFFF" height="62.582" style="stroke:#181818;stroke-width:1.0;" width="10" x="609.5" y="250.4063"/><rect fill="#FFFFFF" height="62.582" style="stroke:#181818;stroke-width:1.0;" width="10" x="609.5" y="344.2793"/><rect fill="#FFFFFF" height="62.582" style="stroke:#181818;stroke-width:1.0;" width="10" x="609.5" y="438.1523"/><rect fill="#FFFFFF" height="31.291" style="stroke:#181818;stroke-width:1.0;" width="10" x="609.5" y="532.0254"/><polygon fill="#181818" points="597.5,152.5332,607.5,156.5332,597.5,160.5332,601.5,156.5332" style="stroke:#181818;stroke-width:1.0;"/><line style="stroke:#181818;stroke-width:1.0;" x1="37.5" x2="603.5" y1="156.5332" y2="156.5332"/><text fill="#000000" font-family="sans-serif" font-size="13" font-weight="bold" lengthAdjust="spacing" textLength="7" x="44.5" y="151.2705">1</text><text fill="#000000" font-family="sans-serif" font-size="13" lengthAdjust="spacing" textLength="319" x="55.5" y="151.2705">Pede para responder a um exame formativo autom&#225;tico</text><polygon fill="#181818" points="48.5,183.8242,38.5,187.8242,48.5,191.8242,44.5,187.8242" style="stroke:#181818;stroke-width:1.0;"/><line style="stroke:#181818;stroke-width:1.0;stroke-dasharray:2.0,2.0;" x1="42.5" x2="608.5" y1="187.8242" y2="187.8242"/><text fill="#000000" font-family="sans-serif" font-size="13" font-weight="bold" lengthAdjust="spacing" textLength="7" x="54.5" y="182.5615">2</text><text fill="#000000" font-family="sans-serif" font-size="13" lengthAdjust="spacing" textLength="356" x="65.5" y="182.5615">Mostra a lista de disciplinas em que o estudante est&#225; inscrito</text><polygon fill="#181818" points="48.5,215.1152,38.5,219.1152,48.5,223.1152,44.5,219.1152" style="stroke:#181818;stroke-width:1.0;"/><line style="stroke:#181818;stroke-width:1.0;stroke-dasharray:2.0,2.0;" x1="42.5" x2="613.5" y1="219.1152" y2="219.1152"/><text fill="#000000" font-family="sans-serif" font-size="13" font-weight="bold" lengthAdjust="spacing" textLength="7" x="54.5" y="213.8525">3</text><text fill="#000000" font-family="sans-serif" font-size="13" lengthAdjust="spacing" textLength="433" x="65.5" y="213.8525">Pede para escolher a disciplina da qual pretende fazer um exame formativo</text><polygon fill="#181818" points="597.5,246.4063,607.5,250.4063,597.5,254.4063,601.5,250.4063" style="stroke:#181818;stroke-width:1.0;"/><line style="stroke:#181818;stroke-width:1.0;" x1="37.5" x2="603.5" y1="250.4063" y2="250.4063"/><text fill="#000000" font-family="sans-serif" font-size="13" font-weight="bold" lengthAdjust="spacing" textLength="7" x="44.5" y="245.1436">4</text><text fill="#000000" font-family="sans-serif" font-size="13" lengthAdjust="spacing" textLength="116" x="55.5" y="245.1436">Escolhe a disciplina</text><polygon fill="#181818" points="48.5,277.6973,38.5,281.6973,48.5,285.6973,44.5,281.6973" style="stroke:#181818;stroke-width:1.0;"/><line style="stroke:#181818;stroke-width:1.0;stroke-dasharray:2.0,2.0;" x1="42.5" x2="608.5" y1="281.6973" y2="281.6973"/><text fill="#000000" font-family="sans-serif" font-size="13" font-weight="bold" lengthAdjust="spacing" textLength="7" x="54.5" y="276.4346">5</text><text fill="#000000" font-family="sans-serif" font-size="13" lengthAdjust="spacing" textLength="485" x="65.5" y="276.4346">Lista todos os exames formativos autom&#225;ticos dispon&#237;veis da disciplina selecionada</text><polygon fill="#181818" points="48.5,308.9883,38.5,312.9883,48.5,316.9883,44.5,312.9883" style="stroke:#181818;stroke-width:1.0;"/><line style="stroke:#181818;stroke-width:1.0;stroke-dasharray:2.0,2.0;" x1="42.5" x2="613.5" y1="312.9883" y2="312.9883"/><text fill="#000000" font-family="sans-serif" font-size="13" font-weight="bold" lengthAdjust="spacing" textLength="7" x="54.5" y="307.7256">6</text><text fill="#000000" font-family="sans-serif" font-size="13" lengthAdjust="spacing" textLength="356" x="65.5" y="307.7256">Pede para selecionar o exame formativo que pretende realizar</text><polygon fill="#181818" points="597.5,340.2793,607.5,344.2793,597.5,348.2793,601.5,344.2793" style="stroke:#181818;stroke-width:1.0;"/><line style="stroke:#181818;stroke-width:1.0;" x1="37.5" x2="603.5" y1="344.2793" y2="344.2793"/><text fill="#000000" font-family="sans-serif" font-size="13" font-weight="bold" lengthAdjust="spacing" textLength="7" x="44.5" y="339.0166">7</text><text fill="#000000" font-family="sans-serif" font-size="13" lengthAdjust="spacing" textLength="281" x="55.5" y="339.0166">Escolhe o exame formativo que pretende realizar</text><polygon fill="#181818" points="48.5,371.5703,38.5,375.5703,48.5,379.5703,44.5,375.5703" style="stroke:#181818;stroke-width:1.0;"/><line style="stroke:#181818;stroke-width:1.0;stroke-dasharray:2.0,2.0;" x1="42.5" x2="608.5" y1="375.5703" y2="375.5703"/><text fill="#000000" font-family="sans-serif" font-size="13" font-weight="bold" lengthAdjust="spacing" textLength="7" x="54.5" y="370.3076">8</text><text fill="#000000" font-family="sans-serif" font-size="13" lengthAdjust="spacing" textLength="168" x="65.5" y="370.3076">Apresenta o exame formativo</text><polygon fill="#181818" points="48.5,402.8613,38.5,406.8613,48.5,410.8613,44.5,406.8613" style="stroke:#181818;stroke-width:1.0;"/><line style="stroke:#181818;stroke-width:1.0;stroke-dasharray:2.0,2.0;" x1="42.5" x2="613.5" y1="406.8613" y2="406.8613"/><text fill="#000000" font-family="sans-serif" font-size="13" font-weight="bold" lengthAdjust="spacing" textLength="7" x="54.5" y="401.5986">9</text><text fill="#000000" font-family="sans-serif" font-size="13" lengthAdjust="spacing" textLength="537" x="65.5" y="401.5986">Pede ao utilizador para inserir o caminho at&#233; ao ficheiro com a resolu&#231;&#227;o do exame formativo</text><polygon fill="#181818" points="597.5,434.1523,607.5,438.1523,597.5,442.1523,601.5,438.1523" style="stroke:#181818;stroke-width:1.0;"/><line style="stroke:#181818;stroke-width:1.0;" x1="37.5" x2="603.5" y1="438.1523" y2="438.1523"/><text fill="#000000" font-family="sans-serif" font-size="13" font-weight="bold" lengthAdjust="spacing" textLength="14" x="44.5" y="432.8896">10</text><text fill="#000000" font-family="sans-serif" font-size="13" lengthAdjust="spacing" textLength="378" x="62.5" y="432.8896">Insere o caminho do ficheiro com a resolu&#231;&#227;o do exame formativo</text><polygon fill="#181818" points="48.5,465.4434,38.5,469.4434,48.5,473.4434,44.5,469.4434" style="stroke:#181818;stroke-width:1.0;"/><line style="stroke:#181818;stroke-width:1.0;stroke-dasharray:2.0,2.0;" x1="42.5" x2="608.5" y1="469.4434" y2="469.4434"/><text fill="#000000" font-family="sans-serif" font-size="13" font-weight="bold" lengthAdjust="spacing" textLength="14" x="54.5" y="464.1807">11</text><text fill="#000000" font-family="sans-serif" font-size="13" lengthAdjust="spacing" textLength="420" x="72.5" y="464.1807">Imprime as respostas do estudante que ser&#227;o dadas ao exame formativo</text><polygon fill="#181818" points="48.5,496.7344,38.5,500.7344,48.5,504.7344,44.5,500.7344" style="stroke:#181818;stroke-width:1.0;"/><line style="stroke:#181818;stroke-width:1.0;stroke-dasharray:2.0,2.0;" x1="42.5" x2="613.5" y1="500.7344" y2="500.7344"/><text fill="#000000" font-family="sans-serif" font-size="13" font-weight="bold" lengthAdjust="spacing" textLength="14" x="54.5" y="495.4717">12</text><text fill="#000000" font-family="sans-serif" font-size="13" lengthAdjust="spacing" textLength="325" x="72.5" y="495.4717">Pede confirma&#231;&#227;o para a finaliza&#231;&#227;o do exame formativo</text><polygon fill="#181818" points="597.5,528.0254,607.5,532.0254,597.5,536.0254,601.5,532.0254" style="stroke:#181818;stroke-width:1.0;"/><line style="stroke:#181818;stroke-width:1.0;" x1="37.5" x2="603.5" y1="532.0254" y2="532.0254"/><text fill="#000000" font-family="sans-serif" font-size="13" font-weight="bold" lengthAdjust="spacing" textLength="14" x="44.5" y="526.7627">13</text><text fill="#000000" font-family="sans-serif" font-size="13" lengthAdjust="spacing" textLength="108" x="62.5" y="526.7627">Confirma opera&#231;&#227;o</text><polygon fill="#181818" points="43.5,559.3164,33.5,563.3164,43.5,567.3164,39.5,563.3164" style="stroke:#181818;stroke-width:1.0;"/><line style="stroke:#181818;stroke-width:1.0;stroke-dasharray:2.0,2.0;" x1="37.5" x2="613.5" y1="563.3164" y2="563.3164"/><text fill="#000000" font-family="sans-serif" font-size="13" font-weight="bold" lengthAdjust="spacing" textLength="14" x="49.5" y="558.0537">14</text><text fill="#000000" font-family="sans-serif" font-size="13" lengthAdjust="spacing" textLength="181" x="67.5" y="558.0537">Informa o sucesso da opera&#231;&#227;o</text><!--SRC=[hPJ1RXD138Rl-nHMJd28L74Z1oH4ELG22Md50vWP9x6wCzwEPmljsrGS40UUObyCpsIRXAQ89dILmsp6uy__x_7g9SSU4mO84iMjamI2d0PgTBlJexl45RNvfYD8v3B6LRSVe6lqyfNZ2fROAJLDvcoXxOrc2j3IrK3H4PmphahuYxOzVmbp-Dp2gxEprmqEMU8Glb1g6dHP4ipQF7YAUGQeCAqROsLst6FCC5kqN9BZ9cAphgVv6ZDjppHWp_G2ypVtaR20J-G9IlccI7k9dX8W307e6ve5Iqa1BPb0gIwCTuQMcct7cAWmFVUvvuKp8HVmKJGR1A6pRGI3UbPJqN6qoiqUCmS4IEs4AQEo6k-0exh4MVwHVQU2r4cthY9s0F1e-R63Fb4cqsWDkhMOGvcLu-b0tDyDVBy1_i4xnQ0FrPSiNXJiL-lINM6wtm0jB6lM-EkQM8kwFQrA7JcMY1wVxDhsJ2ezUD3vqfcjSOcmurjCfnjr3E183zzQ5hKb7aAUOWKA39aBtTlmLMFi_b7Yueh3m75jSv37doLooMvDd6n30jJfaMuOVupV1Rpy_xMwA63Qu_fJa4VwTn7wn9R49h9-3Un6QaszdShIAYki8ks2QN7Y1AUTn2LR_ARuwZIQl5XR_tmclfim83sbJTwJR8cr1ck63evKY_Q7AH-hQ_-_wKFy6m00]--></g></svg>