<?xml version="1.0" encoding="us-ascii" standalone="no"?><svg xmlns="http://www.w3.org/2000/svg" xmlns:xlink="http://www.w3.org/1999/xlink" contentStyleType="text/css" height="722.7px" preserveAspectRatio="none" style="width:907px;height:722px;background:#FFFFFF;" version="1.1" viewBox="0 0 907 722" width="907.2px" zoomAndPan="magnify"><defs/><g><text fill="#000000" font-family="sans-serif" font-size="12.6" font-weight="bold" lengthAdjust="spacing" textLength="195.3" x="350.055" y="22.5967">Class Diagram (CD) - US 1001_2</text><!--class ActivateDeactivateUserUI--><g id="elem_ActivateDeactivateUserUI"><rect codeLine="4" fill="#F1F1F1" height="71.2828" id="ActivateDeactivateUserUI" rx="2.25" ry="2.25" style="stroke:#181818;stroke-width:0.45;" width="171" x="484.56" y="41.959"/><ellipse cx="498.06" cy="62.0209" fill="#ADD1B2" rx="9.9" ry="9.9" style="stroke:#181818;stroke-width:0.9;"/><path d="M500.5491,58.3084 Q500.6897,58.1115 500.8584,58.0131 Q501.0272,57.9146 501.2241,57.9146 Q501.5616,57.9146 501.7725,58.1537 Q501.9834,58.3787 501.9834,58.9271 L501.9834,60.235 Q501.9834,60.7834 501.7725,61.0225 Q501.5616,61.2615 501.2241,61.2615 Q500.9147,61.2615 500.7319,61.0787 Q500.5491,60.91 500.4506,60.4459 Q500.4084,60.1225 500.2397,59.9537 Q499.9444,59.6162 499.3959,59.4193 Q498.8475,59.2225 498.285,59.2225 Q497.5959,59.2225 497.0194,59.5178 Q496.4569,59.8131 496.0069,60.4881 Q495.5709,61.1631 495.5709,62.0912 L495.5709,63.0756 Q495.5709,64.1865 496.3725,64.9318 Q497.1741,65.6631 498.6084,65.6631 Q499.4522,65.6631 500.0428,65.4381 Q500.3944,65.2975 500.7741,64.9037 Q501.0131,64.6646 501.1397,64.5943 Q501.2803,64.524 501.4631,64.524 Q501.7584,64.524 501.9834,64.7631 Q502.2225,64.9881 502.2225,65.2975 Q502.2225,65.6068 501.9131,65.9725 Q501.4631,66.4928 500.7459,66.7881 Q499.7756,67.1959 498.6084,67.1959 Q497.2444,67.1959 496.1616,66.6334 Q495.2756,66.1834 494.6569,65.2271 Q494.0381,64.2568 494.0381,63.1037 L494.0381,62.0631 Q494.0381,60.8678 494.5866,59.8412 Q495.1491,58.8006 496.1334,58.2521 Q497.1178,57.6896 498.2288,57.6896 Q498.8897,57.6896 499.4663,57.8443 Q500.0569,57.985 500.5491,58.3084 Z " fill="#000000"/><text fill="#000000" font-family="sans-serif" font-size="10.8" font-style="italic" lengthAdjust="spacing" textLength="73.8" x="544.86" y="58.1133">&#171;presentation&#187;</text><text fill="#000000" font-family="sans-serif" font-size="12.6" lengthAdjust="spacing" textLength="142.2" x="510.66" y="74.4205">ActivateDeactivateUserUI</text><line style="stroke:#181818;stroke-width:0.45;" x1="485.46" x2="654.66" y1="82.0828" y2="82.0828"/><line style="stroke:#181818;stroke-width:0.45;" x1="485.46" x2="654.66" y1="89.2828" y2="89.2828"/><text fill="#000000" font-family="sans-serif" font-size="12.6" lengthAdjust="spacing" textLength="54" x="489.96" y="106.4795">doShow()</text></g><!--class RepositoryFactory--><g id="elem_RepositoryFactory"><rect codeLine="8" fill="#F1F1F1" height="54.5238" id="RepositoryFactory" rx="2.25" ry="2.25" style="stroke:#181818;stroke-width:0.45;" width="133.2" x="180.36" y="384.409"/><ellipse cx="193.86" cy="404.4709" fill="#B4A7E5" rx="9.9" ry="9.9" style="stroke:#181818;stroke-width:0.9;"/><path d="M194.7178,401.4475 L194.7178,407.4381 L196.2647,407.4381 Q196.8131,407.4381 197.0522,407.649 Q197.2913,407.86 197.2913,408.2115 Q197.2913,408.549 197.0522,408.76 Q196.8131,408.9709 196.2647,408.9709 L191.6381,408.9709 Q191.0897,408.9709 190.8506,408.76 Q190.6116,408.549 190.6116,408.1975 Q190.6116,407.86 190.8506,407.649 Q191.0897,407.4381 191.6381,407.4381 L193.185,407.4381 L193.185,401.4475 L191.6381,401.4475 Q191.0897,401.4475 190.8506,401.2365 Q190.6116,401.0256 190.6116,400.674 Q190.6116,400.3365 190.8506,400.1256 Q191.0897,399.9146 191.6381,399.9146 L196.2647,399.9146 Q196.8131,399.9146 197.0522,400.1256 Q197.2913,400.3365 197.2913,400.674 Q197.2913,401.0256 197.0522,401.2365 Q196.8131,401.4475 196.2647,401.4475 L194.7178,401.4475 Z " fill="#000000"/><text fill="#000000" font-family="sans-serif" font-size="10.8" font-style="italic" lengthAdjust="spacing" textLength="45" x="236.16" y="400.5633">&#171;factory&#187;</text><text fill="#000000" font-family="sans-serif" font-size="12.6" font-style="italic" lengthAdjust="spacing" textLength="104.4" x="206.46" y="416.8705">RepositoryFactory</text><line style="stroke:#181818;stroke-width:0.45;" x1="181.26" x2="312.66" y1="424.5328" y2="424.5328"/><line style="stroke:#181818;stroke-width:0.45;" x1="181.26" x2="312.66" y1="431.7328" y2="431.7328"/></g><!--class PersistenceContext--><g id="elem_PersistenceContext"><rect codeLine="9" fill="#F1F1F1" height="54.5238" id="PersistenceContext" rx="2.25" ry="2.25" style="stroke:#181818;stroke-width:0.45;" width="138.6" x="500.76" y="662.059"/><ellipse cx="514.26" cy="682.1209" fill="#ADD1B2" rx="9.9" ry="9.9" style="stroke:#181818;stroke-width:0.9;"/><path d="M516.7491,678.4084 Q516.8897,678.2115 517.0584,678.1131 Q517.2272,678.0146 517.4241,678.0146 Q517.7616,678.0146 517.9725,678.2537 Q518.1834,678.4787 518.1834,679.0271 L518.1834,680.335 Q518.1834,680.8834 517.9725,681.1225 Q517.7616,681.3615 517.4241,681.3615 Q517.1147,681.3615 516.9319,681.1787 Q516.7491,681.01 516.6506,680.5459 Q516.6084,680.2225 516.4397,680.0537 Q516.1444,679.7162 515.5959,679.5193 Q515.0475,679.3225 514.485,679.3225 Q513.7959,679.3225 513.2194,679.6178 Q512.6569,679.9131 512.2069,680.5881 Q511.7709,681.2631 511.7709,682.1912 L511.7709,683.1756 Q511.7709,684.2865 512.5725,685.0318 Q513.3741,685.7631 514.8084,685.7631 Q515.6522,685.7631 516.2428,685.5381 Q516.5944,685.3975 516.9741,685.0037 Q517.2131,684.7646 517.3397,684.6943 Q517.4803,684.624 517.6631,684.624 Q517.9584,684.624 518.1834,684.8631 Q518.4225,685.0881 518.4225,685.3975 Q518.4225,685.7068 518.1131,686.0725 Q517.6631,686.5928 516.9459,686.8881 Q515.9756,687.2959 514.8084,687.2959 Q513.4444,687.2959 512.3616,686.7334 Q511.4756,686.2834 510.8569,685.3271 Q510.2381,684.3568 510.2381,683.2037 L510.2381,682.1631 Q510.2381,680.9678 510.7866,679.9412 Q511.3491,678.9006 512.3334,678.3521 Q513.3178,677.7896 514.4288,677.7896 Q515.0897,677.7896 515.6663,677.9443 Q516.2569,678.085 516.7491,678.4084 Z " fill="#000000"/><text fill="#000000" font-family="sans-serif" font-size="10.8" font-style="italic" lengthAdjust="spacing" textLength="69.3" x="547.11" y="678.2133">&#171;persistence&#187;</text><text fill="#000000" font-family="sans-serif" font-size="12.6" lengthAdjust="spacing" textLength="109.8" x="526.86" y="694.5205">PersistenceContext</text><line style="stroke:#181818;stroke-width:0.45;" x1="501.66" x2="638.46" y1="702.1828" y2="702.1828"/><line style="stroke:#181818;stroke-width:0.45;" x1="501.66" x2="638.46" y1="709.3828" y2="709.3828"/></g><!--class JpaAutoTxUserRepository--><g id="elem_JpaAutoTxUserRepository"><rect codeLine="10" fill="#F1F1F1" height="54.5238" id="JpaAutoTxUserRepository" rx="2.25" ry="2.25" style="stroke:#181818;stroke-width:0.45;" width="175.5" x="46.71" y="535.609"/><ellipse cx="60.21" cy="555.6709" fill="#ADD1B2" rx="9.9" ry="9.9" style="stroke:#181818;stroke-width:0.9;"/><path d="M62.6991,551.9584 Q62.8397,551.7615 63.0084,551.6631 Q63.1772,551.5646 63.3741,551.5646 Q63.7116,551.5646 63.9225,551.8037 Q64.1334,552.0287 64.1334,552.5771 L64.1334,553.885 Q64.1334,554.4334 63.9225,554.6725 Q63.7116,554.9115 63.3741,554.9115 Q63.0647,554.9115 62.8819,554.7287 Q62.6991,554.56 62.6006,554.0959 Q62.5584,553.7725 62.3897,553.6037 Q62.0944,553.2662 61.5459,553.0693 Q60.9975,552.8725 60.435,552.8725 Q59.7459,552.8725 59.1694,553.1678 Q58.6069,553.4631 58.1569,554.1381 Q57.7209,554.8131 57.7209,555.7412 L57.7209,556.7256 Q57.7209,557.8365 58.5225,558.5818 Q59.3241,559.3131 60.7584,559.3131 Q61.6022,559.3131 62.1928,559.0881 Q62.5444,558.9475 62.9241,558.5537 Q63.1631,558.3146 63.2897,558.2443 Q63.4303,558.174 63.6131,558.174 Q63.9084,558.174 64.1334,558.4131 Q64.3725,558.6381 64.3725,558.9475 Q64.3725,559.2568 64.0631,559.6225 Q63.6131,560.1428 62.8959,560.4381 Q61.9256,560.8459 60.7584,560.8459 Q59.3944,560.8459 58.3116,560.2834 Q57.4256,559.8334 56.8069,558.8771 Q56.1881,557.9068 56.1881,556.7537 L56.1881,555.7131 Q56.1881,554.5178 56.7366,553.4912 Q57.2991,552.4506 58.2834,551.9021 Q59.2678,551.3396 60.3788,551.3396 Q61.0397,551.3396 61.6163,551.4943 Q62.2069,551.635 62.6991,551.9584 Z " fill="#000000"/><text fill="#000000" font-family="sans-serif" font-size="10.8" font-style="italic" lengthAdjust="spacing" textLength="69.3" x="111.51" y="551.7633">&#171;persistence&#187;</text><text fill="#000000" font-family="sans-serif" font-size="12.6" lengthAdjust="spacing" textLength="146.7" x="72.81" y="568.0705">JpaAutoTxUserRepository</text><line style="stroke:#181818;stroke-width:0.45;" x1="47.61" x2="221.31" y1="575.7328" y2="575.7328"/><line style="stroke:#181818;stroke-width:0.45;" x1="47.61" x2="221.31" y1="582.9328" y2="582.9328"/></g><!--class InMemoryUserRepository--><g id="elem_InMemoryUserRepository"><rect codeLine="11" fill="#F1F1F1" height="54.5238" id="InMemoryUserRepository" rx="2.25" ry="2.25" style="stroke:#181818;stroke-width:0.45;" width="171" x="254.16" y="535.609"/><ellipse cx="267.66" cy="555.6709" fill="#ADD1B2" rx="9.9" ry="9.9" style="stroke:#181818;stroke-width:0.9;"/><path d="M270.1491,551.9584 Q270.2897,551.7615 270.4584,551.6631 Q270.6272,551.5646 270.8241,551.5646 Q271.1616,551.5646 271.3725,551.8037 Q271.5834,552.0287 271.5834,552.5771 L271.5834,553.885 Q271.5834,554.4334 271.3725,554.6725 Q271.1616,554.9115 270.8241,554.9115 Q270.5147,554.9115 270.3319,554.7287 Q270.1491,554.56 270.0506,554.0959 Q270.0084,553.7725 269.8397,553.6037 Q269.5444,553.2662 268.9959,553.0693 Q268.4475,552.8725 267.885,552.8725 Q267.1959,552.8725 266.6194,553.1678 Q266.0569,553.4631 265.6069,554.1381 Q265.1709,554.8131 265.1709,555.7412 L265.1709,556.7256 Q265.1709,557.8365 265.9725,558.5818 Q266.7741,559.3131 268.2084,559.3131 Q269.0522,559.3131 269.6428,559.0881 Q269.9944,558.9475 270.3741,558.5537 Q270.6131,558.3146 270.7397,558.2443 Q270.8803,558.174 271.0631,558.174 Q271.3584,558.174 271.5834,558.4131 Q271.8225,558.6381 271.8225,558.9475 Q271.8225,559.2568 271.5131,559.6225 Q271.0631,560.1428 270.3459,560.4381 Q269.3756,560.8459 268.2084,560.8459 Q266.8444,560.8459 265.7616,560.2834 Q264.8756,559.8334 264.2569,558.8771 Q263.6381,557.9068 263.6381,556.7537 L263.6381,555.7131 Q263.6381,554.5178 264.1866,553.4912 Q264.7491,552.4506 265.7334,551.9021 Q266.7178,551.3396 267.8288,551.3396 Q268.4897,551.3396 269.0662,551.4943 Q269.6569,551.635 270.1491,551.9584 Z " fill="#000000"/><text fill="#000000" font-family="sans-serif" font-size="10.8" font-style="italic" lengthAdjust="spacing" textLength="69.3" x="316.71" y="551.7633">&#171;persistence&#187;</text><text fill="#000000" font-family="sans-serif" font-size="12.6" lengthAdjust="spacing" textLength="142.2" x="280.26" y="568.0705">InMemoryUserRepository</text><line style="stroke:#181818;stroke-width:0.45;" x1="255.06" x2="424.26" y1="575.7328" y2="575.7328"/><line style="stroke:#181818;stroke-width:0.45;" x1="255.06" x2="424.26" y1="582.9328" y2="582.9328"/></g><!--class SystemUser--><g id="elem_SystemUser"><rect codeLine="13" fill="#F1F1F1" height="88.0418" id="SystemUser" rx="2.25" ry="2.25" style="stroke:#181818;stroke-width:0.45;" width="96.3" x="804.51" y="367.759"/><ellipse cx="818.01" cy="387.8209" fill="#ADD1B2" rx="9.9" ry="9.9" style="stroke:#181818;stroke-width:0.9;"/><path d="M820.4991,384.1084 Q820.6397,383.9115 820.8084,383.8131 Q820.9772,383.7146 821.1741,383.7146 Q821.5116,383.7146 821.7225,383.9537 Q821.9334,384.1787 821.9334,384.7271 L821.9334,386.035 Q821.9334,386.5834 821.7225,386.8225 Q821.5116,387.0615 821.1741,387.0615 Q820.8647,387.0615 820.6819,386.8787 Q820.4991,386.71 820.4006,386.2459 Q820.3584,385.9225 820.1897,385.7537 Q819.8944,385.4162 819.3459,385.2193 Q818.7975,385.0225 818.235,385.0225 Q817.5459,385.0225 816.9694,385.3178 Q816.4069,385.6131 815.9569,386.2881 Q815.5209,386.9631 815.5209,387.8912 L815.5209,388.8756 Q815.5209,389.9865 816.3225,390.7318 Q817.1241,391.4631 818.5584,391.4631 Q819.4022,391.4631 819.9928,391.2381 Q820.3444,391.0975 820.7241,390.7037 Q820.9631,390.4646 821.0897,390.3943 Q821.2303,390.324 821.4131,390.324 Q821.7084,390.324 821.9334,390.5631 Q822.1725,390.7881 822.1725,391.0975 Q822.1725,391.4068 821.8631,391.7725 Q821.4131,392.2928 820.6959,392.5881 Q819.7256,392.9959 818.5584,392.9959 Q817.1944,392.9959 816.1116,392.4334 Q815.2256,391.9834 814.6069,391.0271 Q813.9881,390.0568 813.9881,388.9037 L813.9881,387.8631 Q813.9881,386.6678 814.5366,385.6412 Q815.0991,384.6006 816.0834,384.0521 Q817.0678,383.4896 818.1788,383.4896 Q818.8397,383.4896 819.4163,383.6443 Q820.0069,383.785 820.4991,384.1084 Z " fill="#000000"/><text fill="#000000" font-family="sans-serif" font-size="10.8" font-style="italic" lengthAdjust="spacing" textLength="52.2" x="838.26" y="383.9133">&#171;Domain&#187;</text><text fill="#000000" font-family="sans-serif" font-size="12.6" lengthAdjust="spacing" textLength="67.5" x="830.61" y="400.2205">SystemUser</text><line style="stroke:#181818;stroke-width:0.45;" x1="805.41" x2="899.91" y1="407.8828" y2="407.8828"/><line style="stroke:#181818;stroke-width:0.45;" x1="805.41" x2="899.91" y1="415.0828" y2="415.0828"/><ellipse cx="814.41" cy="428.4123" fill="#84BE84" rx="2.7" ry="2.7" style="stroke:#038048;stroke-width:0.9;"/><text fill="#000000" font-family="sans-serif" font-size="12.6" lengthAdjust="spacing" textLength="53.1" x="822.51" y="432.2795">activate()</text><ellipse cx="814.41" cy="445.1713" fill="#84BE84" rx="2.7" ry="2.7" style="stroke:#038048;stroke-width:0.9;"/><text fill="#000000" font-family="sans-serif" font-size="12.6" lengthAdjust="spacing" textLength="67.5" x="822.51" y="449.0385">deactivate()</text></g><!--class Username--><g id="elem_Username"><rect codeLine="17" fill="#F1F1F1" height="54.5238" id="Username" rx="2.25" ry="2.25" style="stroke:#181818;stroke-width:0.45;" width="98.1" x="803.61" y="535.609"/><ellipse cx="817.11" cy="555.6709" fill="#FF8B40" rx="9.9" ry="9.9" style="stroke:#181818;stroke-width:0.9;"/><path d="M817.6444,558.61 L819.8663,553.3225 L819.5147,553.3225 Q818.9663,553.3225 818.7272,553.1115 Q818.4881,552.9006 818.4881,552.549 Q818.4881,552.2115 818.7272,552.0006 Q818.9663,551.7896 819.5147,551.7896 L821.5678,551.7896 Q822.1163,551.7896 822.3553,552.0006 Q822.5944,552.2115 822.5944,552.549 Q822.5944,552.9709 822.2288,553.21 Q822.06,553.3225 821.5256,553.3225 L818.3897,560.8459 L816.9131,560.8459 L813.7772,553.3225 Q813.2428,553.3225 813.0741,553.21 Q812.7084,552.9709 812.7084,552.549 Q812.7084,552.2115 812.9475,552.0006 Q813.1866,551.7896 813.735,551.7896 L815.8022,551.7896 Q816.3506,551.7896 816.5756,552.0006 Q816.8147,552.2115 816.8147,552.549 Q816.8147,552.9006 816.5756,553.1115 Q816.3506,553.3225 815.8022,553.3225 L815.4366,553.3225 L817.6444,558.61 Z " fill="#000000"/><text fill="#000000" font-family="sans-serif" font-size="10.8" font-style="italic" lengthAdjust="spacing" textLength="72.9" x="827.91" y="551.7633">&#171;value object&#187;</text><text fill="#000000" font-family="sans-serif" font-size="12.6" lengthAdjust="spacing" textLength="57.6" x="835.56" y="568.0705">Username</text><line style="stroke:#181818;stroke-width:0.45;" x1="804.51" x2="900.81" y1="575.7328" y2="575.7328"/><line style="stroke:#181818;stroke-width:0.45;" x1="804.51" x2="900.81" y1="582.9328" y2="582.9328"/></g><!--class ActivateDeactivateUserController--><g id="elem_ActivateDeactivateUserController"><rect codeLine="19" fill="#F1F1F1" height="104.8008" id="ActivateDeactivateUserController" rx="2.25" ry="2.25" style="stroke:#181818;stroke-width:0.45;" width="274.5" x="432.81" y="184.159"/><ellipse cx="472.635" cy="204.2209" fill="#ADD1B2" rx="9.9" ry="9.9" style="stroke:#181818;stroke-width:0.9;"/><path d="M475.1241,200.5084 Q475.2647,200.3115 475.4334,200.2131 Q475.6022,200.1146 475.7991,200.1146 Q476.1366,200.1146 476.3475,200.3537 Q476.5584,200.5787 476.5584,201.1271 L476.5584,202.435 Q476.5584,202.9834 476.3475,203.2225 Q476.1366,203.4615 475.7991,203.4615 Q475.4897,203.4615 475.3069,203.2787 Q475.1241,203.11 475.0256,202.6459 Q474.9834,202.3225 474.8147,202.1537 Q474.5194,201.8162 473.9709,201.6193 Q473.4225,201.4225 472.86,201.4225 Q472.1709,201.4225 471.5944,201.7178 Q471.0319,202.0131 470.5819,202.6881 Q470.1459,203.3631 470.1459,204.2912 L470.1459,205.2756 Q470.1459,206.3865 470.9475,207.1318 Q471.7491,207.8631 473.1834,207.8631 Q474.0272,207.8631 474.6178,207.6381 Q474.9694,207.4975 475.3491,207.1037 Q475.5881,206.8646 475.7147,206.7943 Q475.8553,206.724 476.0381,206.724 Q476.3334,206.724 476.5584,206.9631 Q476.7975,207.1881 476.7975,207.4975 Q476.7975,207.8068 476.4881,208.1725 Q476.0381,208.6928 475.3209,208.9881 Q474.3506,209.3959 473.1834,209.3959 Q471.8194,209.3959 470.7366,208.8334 Q469.8506,208.3834 469.2319,207.4271 Q468.6131,206.4568 468.6131,205.3037 L468.6131,204.2631 Q468.6131,203.0678 469.1616,202.0412 Q469.7241,201.0006 470.7084,200.4521 Q471.6928,199.8896 472.8038,199.8896 Q473.4647,199.8896 474.0413,200.0443 Q474.6319,200.185 475.1241,200.5084 Z " fill="#000000"/><text fill="#000000" font-family="sans-serif" font-size="10.8" font-style="italic" lengthAdjust="spacing" textLength="67.5" x="550.935" y="200.3133">&#171;Application&#187;</text><text fill="#000000" font-family="sans-serif" font-size="12.6" lengthAdjust="spacing" textLength="187.2" x="491.085" y="216.6205">ActivateDeactivateUserController</text><line style="stroke:#181818;stroke-width:0.45;" x1="433.71" x2="706.41" y1="224.2828" y2="224.2828"/><line style="stroke:#181818;stroke-width:0.45;" x1="433.71" x2="706.41" y1="231.4828" y2="231.4828"/><ellipse cx="442.71" cy="244.8123" fill="#84BE84" rx="2.7" ry="2.7" style="stroke:#038048;stroke-width:0.9;"/><text fill="#000000" font-family="sans-serif" font-size="12.6" lengthAdjust="spacing" textLength="198" x="450.81" y="248.6795">Iterable&lt;SystemUser&gt; listAllUsers()</text><ellipse cx="442.71" cy="261.5713" fill="#84BE84" rx="2.7" ry="2.7" style="stroke:#038048;stroke-width:0.9;"/><text fill="#000000" font-family="sans-serif" font-size="12.6" lengthAdjust="spacing" textLength="236.7" x="450.81" y="265.4385">SystemUser activateUser(Username user)</text><ellipse cx="442.71" cy="278.3303" fill="#84BE84" rx="2.7" ry="2.7" style="stroke:#038048;stroke-width:0.9;"/><text fill="#000000" font-family="sans-serif" font-size="12.6" lengthAdjust="spacing" textLength="251.1" x="450.81" y="282.1975">SystemUser deactivateUser(Username user)</text></g><!--class UserManagementService--><g id="elem_UserManagementService"><rect codeLine="24" fill="#F1F1F1" height="104.8008" id="UserManagementService" rx="2.25" ry="2.25" style="stroke:#181818;stroke-width:0.45;" width="274.5" x="432.81" y="359.659"/><ellipse cx="495.135" cy="379.7209" fill="#ADD1B2" rx="9.9" ry="9.9" style="stroke:#181818;stroke-width:0.9;"/><path d="M497.6241,376.0084 Q497.7647,375.8115 497.9334,375.7131 Q498.1022,375.6146 498.2991,375.6146 Q498.6366,375.6146 498.8475,375.8537 Q499.0584,376.0787 499.0584,376.6271 L499.0584,377.935 Q499.0584,378.4834 498.8475,378.7225 Q498.6366,378.9615 498.2991,378.9615 Q497.9897,378.9615 497.8069,378.7787 Q497.6241,378.61 497.5256,378.1459 Q497.4834,377.8225 497.3147,377.6537 Q497.0194,377.3162 496.4709,377.1193 Q495.9225,376.9225 495.36,376.9225 Q494.6709,376.9225 494.0944,377.2178 Q493.5319,377.5131 493.0819,378.1881 Q492.6459,378.8631 492.6459,379.7912 L492.6459,380.7756 Q492.6459,381.8865 493.4475,382.6318 Q494.2491,383.3631 495.6834,383.3631 Q496.5272,383.3631 497.1178,383.1381 Q497.4694,382.9975 497.8491,382.6037 Q498.0881,382.3646 498.2147,382.2943 Q498.3553,382.224 498.5381,382.224 Q498.8334,382.224 499.0584,382.4631 Q499.2975,382.6881 499.2975,382.9975 Q499.2975,383.3068 498.9881,383.6725 Q498.5381,384.1928 497.8209,384.4881 Q496.8506,384.8959 495.6834,384.8959 Q494.3194,384.8959 493.2366,384.3334 Q492.3506,383.8834 491.7319,382.9271 Q491.1131,381.9568 491.1131,380.8037 L491.1131,379.7631 Q491.1131,378.5678 491.6616,377.5412 Q492.2241,376.5006 493.2084,375.9521 Q494.1928,375.3896 495.3038,375.3896 Q495.9647,375.3896 496.5413,375.5443 Q497.1319,375.685 497.6241,376.0084 Z " fill="#000000"/><text fill="#000000" font-family="sans-serif" font-size="10.8" font-style="italic" lengthAdjust="spacing" textLength="67.5" x="550.935" y="375.8133">&#171;Application&#187;</text><text fill="#000000" font-family="sans-serif" font-size="12.6" lengthAdjust="spacing" textLength="142.2" x="513.585" y="392.1205">UserManagementService</text><line style="stroke:#181818;stroke-width:0.45;" x1="433.71" x2="706.41" y1="399.7828" y2="399.7828"/><line style="stroke:#181818;stroke-width:0.45;" x1="433.71" x2="706.41" y1="406.9828" y2="406.9828"/><ellipse cx="442.71" cy="420.3123" fill="#84BE84" rx="2.7" ry="2.7" style="stroke:#038048;stroke-width:0.9;"/><text fill="#000000" font-family="sans-serif" font-size="12.6" lengthAdjust="spacing" textLength="181.8" x="450.81" y="424.1795">Iterable&lt;SystemUser&gt; allUsers()</text><ellipse cx="442.71" cy="437.0713" fill="#84BE84" rx="2.7" ry="2.7" style="stroke:#038048;stroke-width:0.9;"/><text fill="#000000" font-family="sans-serif" font-size="12.6" lengthAdjust="spacing" textLength="236.7" x="450.81" y="440.9385">SystemUser activateUser(Username user)</text><ellipse cx="442.71" cy="453.8303" fill="#84BE84" rx="2.7" ry="2.7" style="stroke:#038048;stroke-width:0.9;"/><text fill="#000000" font-family="sans-serif" font-size="12.6" lengthAdjust="spacing" textLength="251.1" x="450.81" y="457.6975">SystemUser deactivateUser(Username user)</text></g><!--class UserRepository--><g id="elem_UserRepository"><rect codeLine="30" fill="#F1F1F1" height="88.0418" id="UserRepository" rx="2.25" ry="2.25" style="stroke:#181818;stroke-width:0.45;" width="226.8" x="456.66" y="518.959"/><ellipse cx="522.135" cy="539.0209" fill="#B4A7E5" rx="9.9" ry="9.9" style="stroke:#181818;stroke-width:0.9;"/><path d="M522.9928,535.9975 L522.9928,541.9881 L524.5397,541.9881 Q525.0881,541.9881 525.3272,542.199 Q525.5663,542.41 525.5663,542.7615 Q525.5663,543.099 525.3272,543.31 Q525.0881,543.5209 524.5397,543.5209 L519.9131,543.5209 Q519.3647,543.5209 519.1256,543.31 Q518.8866,543.099 518.8866,542.7475 Q518.8866,542.41 519.1256,542.199 Q519.3647,541.9881 519.9131,541.9881 L521.46,541.9881 L521.46,535.9975 L519.9131,535.9975 Q519.3647,535.9975 519.1256,535.7865 Q518.8866,535.5756 518.8866,535.224 Q518.8866,534.8865 519.1256,534.6756 Q519.3647,534.4646 519.9131,534.4646 L524.5397,534.4646 Q525.0881,534.4646 525.3272,534.6756 Q525.5663,534.8865 525.5663,535.224 Q525.5663,535.5756 525.3272,535.7865 Q525.0881,535.9975 524.5397,535.9975 L522.9928,535.9975 Z " fill="#000000"/><text fill="#000000" font-family="sans-serif" font-size="10.8" font-style="italic" lengthAdjust="spacing" textLength="74.7" x="547.335" y="535.1133">&#171;Repositories&#187;</text><text fill="#000000" font-family="sans-serif" font-size="12.6" font-style="italic" lengthAdjust="spacing" textLength="88.2" x="540.585" y="551.4205">UserRepository</text><line style="stroke:#181818;stroke-width:0.45;" x1="457.56" x2="682.56" y1="559.0828" y2="559.0828"/><line style="stroke:#181818;stroke-width:0.45;" x1="457.56" x2="682.56" y1="566.2828" y2="566.2828"/><ellipse cx="466.56" cy="579.6123" fill="#84BE84" rx="2.7" ry="2.7" style="stroke:#038048;stroke-width:0.9;"/><text fill="#000000" font-family="sans-serif" font-size="12.6" lengthAdjust="spacing" textLength="171" x="474.66" y="583.4795">Iterable&lt;SystemUser&gt; findAll()</text><ellipse cx="466.56" cy="596.3713" fill="#84BE84" rx="2.7" ry="2.7" style="stroke:#038048;stroke-width:0.9;"/><text fill="#000000" font-family="sans-serif" font-size="12.6" lengthAdjust="spacing" textLength="203.4" x="474.66" y="600.2385">SystemUser save(SystemUser user)</text></g><!--link ActivateDeactivateUserUI to ActivateDeactivateUserController--><g id="link_ActivateDeactivateUserUI_ActivateDeactivateUserController"><path codeLine="36" d="M570.06,113.266 C570.06,132.67 570.06,157.285 570.06,179.335 " fill="none" id="ActivateDeactivateUserUI-to-ActivateDeactivateUserController" style="stroke:#181818;stroke-width:0.9;"/><polygon fill="#181818" points="570.06,183.997,573.66,175.897,570.06,179.497,566.46,175.897,570.06,183.997" style="stroke:#181818;stroke-width:0.9;"/><text fill="#000000" font-family="sans-serif" font-size="11.7" lengthAdjust="spacing" textLength="65.7" x="570.96" y="153.5845">theController</text></g><!--link ActivateDeactivateUserController to UserRepository--><g id="link_ActivateDeactivateUserController_UserRepository"><path codeLine="37" d="M460.737,288.712 C433.638,307.072 408.015,330.598 392.76,359.659 C371.196,400.744 369.198,424.09 392.76,464.059 C406.692,487.693 428.598,506.035 452.313,520.111 " fill="none" id="ActivateDeactivateUserController-to-UserRepository" style="stroke:#181818;stroke-width:0.9;"/><polygon fill="#181818" points="456.444,522.505,451.248,515.3236,452.5528,520.2448,447.6317,521.5495,456.444,522.505" style="stroke:#181818;stroke-width:0.9;"/><text fill="#000000" font-family="sans-serif" font-size="11.7" lengthAdjust="spacing" textLength="22.5" x="393.66" y="416.8345">repo</text></g><!--link ActivateDeactivateUserController to UserManagementService--><g id="link_ActivateDeactivateUserController_UserManagementService"><path codeLine="38" d="M570.06,288.667 C570.06,309.412 570.06,333.406 570.06,354.619 " fill="none" id="ActivateDeactivateUserController-to-UserManagementService" style="stroke:#181818;stroke-width:0.9;"/><polygon fill="#181818" points="570.06,359.38,573.66,351.28,570.06,354.88,566.46,351.28,570.06,359.38" style="stroke:#181818;stroke-width:0.9;"/><text fill="#000000" font-family="sans-serif" font-size="11.7" lengthAdjust="spacing" textLength="36" x="570.96" y="329.0845">service</text></g><!--link ActivateDeactivateUserController to SystemUser--><g id="link_ActivateDeactivateUserController_SystemUser"><path codeLine="39" d="M707.391,276.292 C732.465,286.795 757.44,299.755 778.86,315.559 C796.41,328.501 811.89,346.699 824.085,363.736 " fill="none" id="ActivateDeactivateUserController-to-SystemUser" style="stroke:#181818;stroke-width:0.9;"/><polygon fill="#181818" points="826.794,367.579,825.0616,358.886,824.1979,363.9033,819.1805,363.0397,826.794,367.579" style="stroke:#181818;stroke-width:0.9;"/><text fill="#000000" font-family="sans-serif" font-size="11.7" lengthAdjust="spacing" textLength="22.5" x="796.86" y="329.0845">user</text></g><!--link SystemUser to Username--><g id="link_SystemUser_Username"><path codeLine="40" d="M852.66,455.968 C852.66,479.944 852.66,509.221 852.66,530.956 " fill="none" id="SystemUser-to-Username" style="stroke:#181818;stroke-width:0.9;"/><polygon fill="#181818" points="852.66,535.474,856.26,527.374,852.66,530.974,849.06,527.374,852.66,535.474" style="stroke:#181818;stroke-width:0.9;"/></g><!--link JpaAutoTxUserRepository to UserRepository--><g id="link_JpaAutoTxUserRepository_UserRepository"><path codeLine="41" d="M168.912,535.501 C191.556,519.202 222.651,500.113 253.71,491.509 C326.952,471.223 350.694,474.274 424.71,491.509 C447.696,496.864 471.231,506.386 492.48,516.781 " fill="none" id="JpaAutoTxUserRepository-to-UserRepository" style="stroke:#181818;stroke-width:0.9;"/><polygon fill="#181818" points="496.701,518.869,491.0399,512.0483,492.6684,516.872,487.8447,518.5005,496.701,518.869" style="stroke:#181818;stroke-width:0.9;"/></g><!--link InMemoryUserRepository to UserRepository--><g id="link_InMemoryUserRepository_UserRepository"><path codeLine="42" d="M425.385,563.059 C434.205,563.059 443.034,563.059 451.854,563.059 " fill="none" id="InMemoryUserRepository-to-UserRepository" style="stroke:#181818;stroke-width:0.9;"/><polygon fill="#181818" points="456.471,563.059,448.371,559.459,451.971,563.059,448.371,566.659,456.471,563.059" style="stroke:#181818;stroke-width:0.9;"/></g><!--link ActivateDeactivateUserController to RepositoryFactory--><g id="link_ActivateDeactivateUserController_RepositoryFactory"><path codeLine="45" d="M432.747,277.75 C405.486,288.271 377.73,300.862 353.16,315.559 C323.28,333.433 294.219,360.424 274.068,381.133 " fill="none" id="ActivateDeactivateUserController-to-RepositoryFactory" style="stroke:#181818;stroke-width:0.9;stroke-dasharray:7.0,7.0;"/><polygon fill="#181818" points="270.909,384.4,279.1295,381.0845,274.039,381.1669,273.9566,376.0764,270.909,384.4" style="stroke:#181818;stroke-width:0.9;"/></g><!--link ActivateDeactivateUserController to PersistenceContext--><g id="link_ActivateDeactivateUserController_PersistenceContext"><path codeLine="46" d="M660.888,288.559 C685.674,307.45 709.434,331.3 723.06,359.659 C770.922,459.244 760.761,515.098 699.66,607.159 C684.801,629.56 661.446,646.966 638.64,659.845 " fill="none" id="ActivateDeactivateUserController-to-PersistenceContext" style="stroke:#181818;stroke-width:0.9;stroke-dasharray:7.0,7.0;"/><polygon fill="#181818" points="634.689,662.032,643.5191,661.2575,638.6257,659.852,640.0312,654.9587,634.689,662.032" style="stroke:#181818;stroke-width:0.9;"/></g><!--link RepositoryFactory to UserRepository--><g id="link_RepositoryFactory_UserRepository"><path codeLine="47" d="M276.93,439.498 C297.252,456.472 325.377,477.838 353.16,491.959 C389.367,510.364 401.796,506.539 440.46,518.959 C444.195,520.156 447.984,521.38 451.809,522.622 " fill="none" id="RepositoryFactory-to-UserRepository" style="stroke:#181818;stroke-width:0.9;stroke-dasharray:7.0,7.0;"/><polygon fill="#181818" points="456.318,524.089,449.7398,518.1478,452.0413,522.6891,447.5,524.9906,456.318,524.089" style="stroke:#181818;stroke-width:0.9;"/></g><!--link RepositoryFactory to PersistenceContext--><g id="link_RepositoryFactory_PersistenceContext"><path codeLine="48" d="M180.234,425.836 C129.609,439.633 63.378,466.903 30.96,518.959 C10.242,552.232 5.4,577.441 30.96,607.159 C90.063,675.856 362.358,687.358 495.855,688.789 " fill="none" id="RepositoryFactory-to-PersistenceContext" style="stroke:#181818;stroke-width:0.9;stroke-dasharray:7.0,7.0;"/><polygon fill="#181818" points="500.544,688.834,492.4857,685.1417,496.0443,688.7826,492.4034,692.3412,500.544,688.834" style="stroke:#181818;stroke-width:0.9;"/></g><!--link UserRepository to PersistenceContext--><g id="link_UserRepository_PersistenceContext"><path codeLine="49" d="M570.06,607.204 C570.06,623.647 570.06,642.052 570.06,657.19 " fill="none" id="UserRepository-to-PersistenceContext" style="stroke:#181818;stroke-width:0.9;stroke-dasharray:7.0,7.0;"/><polygon fill="#181818" points="570.06,661.78,573.66,653.68,570.06,657.28,566.46,653.68,570.06,661.78" style="stroke:#181818;stroke-width:0.9;"/></g><!--link UserManagementService to UserRepository--><g id="link_UserManagementService_UserRepository"><path codeLine="50" d="M570.06,464.176 C570.06,480.313 570.06,498.07 570.06,513.973 " fill="none" id="UserManagementService-to-UserRepository" style="stroke:#181818;stroke-width:0.9;stroke-dasharray:7.0,7.0;"/><polygon fill="#181818" points="570.06,518.851,573.66,510.751,570.06,514.351,566.46,510.751,570.06,518.851" style="stroke:#181818;stroke-width:0.9;"/></g><!--SRC=[lLJ1QXin4BthAmGzP4rgS4eEnPW5rul1XPHIrxc4K2QxOrj5AosIl4ae-VUEDhPNjMAlSwalgv7Vctdpf94JJYAVIB2MPm9M1agUJB8Ux_F5d5yD1bU_FZ6MD_-FSoTgS9WXR5SBYsOnuwDHPT2YSk24LcdA_p1ElqBFr_enwR4NneHoQ9QG8_-1bRR2QVCyfJJq8VhoTUMPBzjYtz5OOHsg72UQo4_EbsatG-pN2iORfty-UJrj_kE4cRh1aX3T-2rX_aoRfOSJADCbYBRDovqRr6aJ5nZix4fwhe8IYP_SVkGVfjFFNwu7FLw3t23N3xynTsbwscflXD5IDYh6LIL5_g_ZbpDo6HuaZbh1APVKqLXA7zYTng2Xi4AobxcXHOmjy1GwxFK65Aomf4inHrEB7Dyb6VwFtE1QHbTX7mYq7MgNGXLay1jYBTIO1F6-yCKtgCMgiO8TdQj-F-s-2KFkrjZ6h9FWinvqE-I6WlEfyU4EkNrTdPSai6JOcCA2dLqLVrJis6n7JR0ZGnq3sKM65Qg2ffpEzWp1TmNODHRtb2fwlTv7Zryr5h-78U50-cdm6zaFpUX6nsTxGizV]--></g></svg>