<?xml version="1.0" encoding="us-ascii" standalone="no"?><svg xmlns="http://www.w3.org/2000/svg" xmlns:xlink="http://www.w3.org/1999/xlink" contentStyleType="text/css" height="1264px" preserveAspectRatio="none" style="width:1360px;height:1264px;background:#FFFFFF;" version="1.1" viewBox="0 0 1360 1264" width="1360px" zoomAndPan="magnify"><defs/><g><text fill="#000000" font-family="sans-serif" font-size="14" font-weight="bold" lengthAdjust="spacing" textLength="249" x="556.5" y="30.1074">Sequence Diagram (SD) - US 1001_2</text><rect fill="#FFFFFF" height="1009.3613" style="stroke:#181818;stroke-width:1.0;" width="10" x="29" y="137.8633"/><rect fill="#FFFFFF" height="995.0703" style="stroke:#181818;stroke-width:1.0;" width="10" x="316" y="161.1543"/><rect fill="#FFFFFF" height="312.9102" style="stroke:#181818;stroke-width:1.0;" width="10" x="519" y="255.0273"/><rect fill="#FFFFFF" height="186.4551" style="stroke:#181818;stroke-width:1.0;" width="10" x="519" y="688.1016"/><rect fill="#FFFFFF" height="186.4551" style="stroke:#181818;stroke-width:1.0;" width="10" x="519" y="922.4785"/><rect fill="#FFFFFF" height="250.3281" style="stroke:#181818;stroke-width:1.0;" width="10" x="722" y="286.3184"/><rect fill="#FFFFFF" height="123.873" style="stroke:#181818;stroke-width:1.0;" width="10" x="722" y="719.3926"/><rect fill="#FFFFFF" height="123.873" style="stroke:#181818;stroke-width:1.0;" width="10" x="722" y="953.7695"/><rect fill="#FFFFFF" height="30" style="stroke:#181818;stroke-width:1.0;" width="10" x="878.5" y="750.6836"/><rect fill="#FFFFFF" height="30" style="stroke:#181818;stroke-width:1.0;" width="10" x="878.5" y="985.0605"/><rect fill="#FFFFFF" height="62.582" style="stroke:#181818;stroke-width:1.0;" width="10" x="1017" y="317.6094"/><rect fill="#FFFFFF" height="31.291" style="stroke:#181818;stroke-width:1.0;" width="10" x="1160" y="411.4824"/><rect fill="#FFFFFF" height="31.291" style="stroke:#181818;stroke-width:1.0;" width="10" x="1286.5" y="474.0645"/><rect fill="none" height="471.4141" style="stroke:#000000;stroke-width:1.5;" width="1128" x="225" y="645.5195"/><line style="stroke:#181818;stroke-width:0.5;stroke-dasharray:5.0,5.0;" x1="34" x2="34" y1="127.8633" y2="1165.2246"/><line style="stroke:#181818;stroke-width:0.5;stroke-dasharray:5.0,5.0;" x1="321" x2="321" y1="127.8633" y2="1165.2246"/><line style="stroke:#181818;stroke-width:0.5;stroke-dasharray:5.0,5.0;" x1="524" x2="524" y1="127.8633" y2="1165.2246"/><line style="stroke:#181818;stroke-width:0.5;stroke-dasharray:5.0,5.0;" x1="727" x2="727" y1="127.8633" y2="1165.2246"/><line style="stroke:#181818;stroke-width:0.5;stroke-dasharray:5.0,5.0;" x1="883" x2="883" y1="127.8633" y2="1165.2246"/><line style="stroke:#181818;stroke-width:0.5;stroke-dasharray:5.0,5.0;" x1="1022" x2="1022" y1="127.8633" y2="1165.2246"/><line style="stroke:#181818;stroke-width:0.5;stroke-dasharray:5.0,5.0;" x1="1165" x2="1165" y1="127.8633" y2="1165.2246"/><line style="stroke:#181818;stroke-width:0.5;stroke-dasharray:5.0,5.0;" x1="1291" x2="1291" y1="127.8633" y2="1165.2246"/><text fill="#000000" font-family="sans-serif" font-size="14" lengthAdjust="spacing" textLength="52" x="5" y="124.3496">Gerente</text><ellipse cx="34" cy="57.7422" fill="#E3E3E3" rx="8" ry="8" style="stroke:#181818;stroke-width:0.5;"/><path d="M34,65.7422 L34,92.7422 M21,73.7422 L47,73.7422 M34,92.7422 L21,107.7422 M34,92.7422 L47,107.7422 " fill="none" style="stroke:#181818;stroke-width:0.5;"/><text fill="#000000" font-family="sans-serif" font-size="14" lengthAdjust="spacing" textLength="52" x="5" y="1179.332">Gerente</text><ellipse cx="34" cy="1191.3457" fill="#E3E3E3" rx="8" ry="8" style="stroke:#181818;stroke-width:0.5;"/><path d="M34,1199.3457 L34,1226.3457 M21,1207.3457 L47,1207.3457 M34,1226.3457 L21,1241.3457 M34,1226.3457 L47,1241.3457 " fill="none" style="stroke:#181818;stroke-width:0.5;"/><rect fill="#E3E3E3" height="51.2422" rx="2.5" ry="2.5" style="stroke:#181818;stroke-width:0.5;" width="172" x="235" y="75.6211"/><text fill="#000000" font-family="sans-serif" font-size="14" font-style="italic" lengthAdjust="spacing" textLength="95" x="273.5" y="97.7285">&#171;presentation&#187;</text><text fill="#000000" font-family="sans-serif" font-size="14" lengthAdjust="spacing" textLength="158" x="242" y="116.3496">ActivateDeactivateUserUI</text><rect fill="#E3E3E3" height="51.2422" rx="2.5" ry="2.5" style="stroke:#181818;stroke-width:0.5;" width="172" x="235" y="1164.2246"/><text fill="#000000" font-family="sans-serif" font-size="14" font-style="italic" lengthAdjust="spacing" textLength="95" x="273.5" y="1186.332">&#171;presentation&#187;</text><text fill="#000000" font-family="sans-serif" font-size="14" lengthAdjust="spacing" textLength="158" x="242" y="1204.9531">ActivateDeactivateUserUI</text><text fill="#000000" font-family="sans-serif" font-size="14" font-style="italic" lengthAdjust="spacing" textLength="84" x="479" y="105.7285">&#171;application&#187;</text><text fill="#000000" font-family="sans-serif" font-size="14" lengthAdjust="spacing" textLength="208" x="417" y="124.3496">ActivateDeactivateUserController</text><ellipse cx="524" cy="74.6211" fill="#E3E3E3" rx="12" ry="12" style="stroke:#181818;stroke-width:0.5;"/><polygon fill="#181818" points="520,62.6211,526,57.6211,524,62.6211,526,67.6211,520,62.6211" style="stroke:#181818;stroke-width:1.0;"/><text fill="#000000" font-family="sans-serif" font-size="14" font-style="italic" lengthAdjust="spacing" textLength="84" x="479" y="1179.332">&#171;application&#187;</text><text fill="#000000" font-family="sans-serif" font-size="14" lengthAdjust="spacing" textLength="208" x="417" y="1197.9531">ActivateDeactivateUserController</text><ellipse cx="524" cy="1217.4668" fill="#E3E3E3" rx="12" ry="12" style="stroke:#181818;stroke-width:0.5;"/><polygon fill="#181818" points="520,1205.4668,526,1200.4668,524,1205.4668,526,1210.4668,520,1205.4668" style="stroke:#181818;stroke-width:1.0;"/><rect fill="#E3E3E3" height="51.2422" rx="2.5" ry="2.5" style="stroke:#181818;stroke-width:0.5;" width="172" x="641" y="75.6211"/><text fill="#000000" font-family="sans-serif" font-size="14" font-style="italic" lengthAdjust="spacing" textLength="84" x="685" y="97.7285">&#171;application&#187;</text><text fill="#000000" font-family="sans-serif" font-size="14" lengthAdjust="spacing" textLength="158" x="648" y="116.3496">UserManagementService</text><rect fill="#E3E3E3" height="51.2422" rx="2.5" ry="2.5" style="stroke:#181818;stroke-width:0.5;" width="172" x="641" y="1164.2246"/><text fill="#000000" font-family="sans-serif" font-size="14" font-style="italic" lengthAdjust="spacing" textLength="84" x="685" y="1186.332">&#171;application&#187;</text><text fill="#000000" font-family="sans-serif" font-size="14" lengthAdjust="spacing" textLength="158" x="648" y="1204.9531">UserManagementService</text><rect fill="#E3E3E3" height="51.2422" rx="2.5" ry="2.5" style="stroke:#181818;stroke-width:0.5;" width="121" x="823" y="75.6211"/><text fill="#000000" font-family="sans-serif" font-size="14" font-style="italic" lengthAdjust="spacing" textLength="62" x="852.5" y="97.7285">&#171;domain&#187;</text><text fill="#000000" font-family="sans-serif" font-size="14" lengthAdjust="spacing" textLength="107" x="830" y="116.3496">user:SystemUser</text><rect fill="#E3E3E3" height="51.2422" rx="2.5" ry="2.5" style="stroke:#181818;stroke-width:0.5;" width="121" x="823" y="1164.2246"/><text fill="#000000" font-family="sans-serif" font-size="14" font-style="italic" lengthAdjust="spacing" textLength="62" x="852.5" y="1186.332">&#171;domain&#187;</text><text fill="#000000" font-family="sans-serif" font-size="14" lengthAdjust="spacing" textLength="107" x="830" y="1204.9531">user:SystemUser</text><rect fill="#E3E3E3" height="51.2422" rx="2.5" ry="2.5" style="stroke:#181818;stroke-width:0.5;" width="136" x="954" y="75.6211"/><text fill="#000000" font-family="sans-serif" font-size="14" font-style="italic" lengthAdjust="spacing" textLength="89" x="977.5" y="97.7285">&#171;persistence&#187;</text><text fill="#000000" font-family="sans-serif" font-size="14" lengthAdjust="spacing" textLength="122" x="961" y="116.3496">PersistenceContext</text><rect fill="#E3E3E3" height="51.2422" rx="2.5" ry="2.5" style="stroke:#181818;stroke-width:0.5;" width="136" x="954" y="1164.2246"/><text fill="#000000" font-family="sans-serif" font-size="14" font-style="italic" lengthAdjust="spacing" textLength="89" x="977.5" y="1186.332">&#171;persistence&#187;</text><text fill="#000000" font-family="sans-serif" font-size="14" lengthAdjust="spacing" textLength="122" x="961" y="1204.9531">PersistenceContext</text><rect fill="#E3E3E3" height="51.2422" rx="2.5" ry="2.5" style="stroke:#181818;stroke-width:0.5;" width="130" x="1100" y="75.6211"/><text fill="#000000" font-family="sans-serif" font-size="14" font-style="italic" lengthAdjust="spacing" textLength="59" x="1135.5" y="97.7285">&#171;factory&#187;</text><text fill="#000000" font-family="sans-serif" font-size="14" lengthAdjust="spacing" textLength="116" x="1107" y="116.3496">RepositoryFactory</text><rect fill="#E3E3E3" height="51.2422" rx="2.5" ry="2.5" style="stroke:#181818;stroke-width:0.5;" width="130" x="1100" y="1164.2246"/><text fill="#000000" font-family="sans-serif" font-size="14" font-style="italic" lengthAdjust="spacing" textLength="59" x="1135.5" y="1186.332">&#171;factory&#187;</text><text fill="#000000" font-family="sans-serif" font-size="14" lengthAdjust="spacing" textLength="116" x="1107" y="1204.9531">RepositoryFactory</text><text fill="#000000" font-family="sans-serif" font-size="14" font-style="italic" lengthAdjust="spacing" textLength="79" x="1249" y="105.7285">&#171;repository&#187;</text><text fill="#000000" font-family="sans-serif" font-size="14" lengthAdjust="spacing" textLength="97" x="1240" y="124.3496">UserRepository</text><path d="M1273.5,54.6211 C1273.5,44.6211 1291.5,44.6211 1291.5,44.6211 C1291.5,44.6211 1309.5,44.6211 1309.5,54.6211 L1309.5,80.6211 C1309.5,90.6211 1291.5,90.6211 1291.5,90.6211 C1291.5,90.6211 1273.5,90.6211 1273.5,80.6211 L1273.5,54.6211 " fill="#E3E3E3" style="stroke:#181818;stroke-width:1.5;"/><path d="M1273.5,54.6211 C1273.5,64.6211 1291.5,64.6211 1291.5,64.6211 C1291.5,64.6211 1309.5,64.6211 1309.5,54.6211 " fill="none" style="stroke:#181818;stroke-width:1.5;"/><text fill="#000000" font-family="sans-serif" font-size="14" font-style="italic" lengthAdjust="spacing" textLength="79" x="1249" y="1179.332">&#171;repository&#187;</text><text fill="#000000" font-family="sans-serif" font-size="14" lengthAdjust="spacing" textLength="97" x="1240" y="1197.9531">UserRepository</text><path d="M1273.5,1211.4668 C1273.5,1201.4668 1291.5,1201.4668 1291.5,1201.4668 C1291.5,1201.4668 1309.5,1201.4668 1309.5,1211.4668 L1309.5,1237.4668 C1309.5,1247.4668 1291.5,1247.4668 1291.5,1247.4668 C1291.5,1247.4668 1273.5,1247.4668 1273.5,1237.4668 L1273.5,1211.4668 " fill="#E3E3E3" style="stroke:#181818;stroke-width:1.5;"/><path d="M1273.5,1211.4668 C1273.5,1221.4668 1291.5,1221.4668 1291.5,1221.4668 C1291.5,1221.4668 1309.5,1221.4668 1309.5,1211.4668 " fill="none" style="stroke:#181818;stroke-width:1.5;"/><rect fill="#FFFFFF" height="1009.3613" style="stroke:#181818;stroke-width:1.0;" width="10" x="29" y="137.8633"/><rect fill="#FFFFFF" height="995.0703" style="stroke:#181818;stroke-width:1.0;" width="10" x="316" y="161.1543"/><rect fill="#FFFFFF" height="312.9102" style="stroke:#181818;stroke-width:1.0;" width="10" x="519" y="255.0273"/><rect fill="#FFFFFF" height="186.4551" style="stroke:#181818;stroke-width:1.0;" width="10" x="519" y="688.1016"/><rect fill="#FFFFFF" height="186.4551" style="stroke:#181818;stroke-width:1.0;" width="10" x="519" y="922.4785"/><rect fill="#FFFFFF" height="250.3281" style="stroke:#181818;stroke-width:1.0;" width="10" x="722" y="286.3184"/><rect fill="#FFFFFF" height="123.873" style="stroke:#181818;stroke-width:1.0;" width="10" x="722" y="719.3926"/><rect fill="#FFFFFF" height="123.873" style="stroke:#181818;stroke-width:1.0;" width="10" x="722" y="953.7695"/><rect fill="#FFFFFF" height="30" style="stroke:#181818;stroke-width:1.0;" width="10" x="878.5" y="750.6836"/><rect fill="#FFFFFF" height="30" style="stroke:#181818;stroke-width:1.0;" width="10" x="878.5" y="985.0605"/><rect fill="#FFFFFF" height="62.582" style="stroke:#181818;stroke-width:1.0;" width="10" x="1017" y="317.6094"/><rect fill="#FFFFFF" height="31.291" style="stroke:#181818;stroke-width:1.0;" width="10" x="1160" y="411.4824"/><rect fill="#FFFFFF" height="31.291" style="stroke:#181818;stroke-width:1.0;" width="10" x="1286.5" y="474.0645"/><polygon fill="#181818" points="304,157.1543,314,161.1543,304,165.1543,308,161.1543" style="stroke:#181818;stroke-width:1.0;"/><line style="stroke:#181818;stroke-width:1.0;" x1="39" x2="310" y1="161.1543" y2="161.1543"/><text fill="#000000" font-family="sans-serif" font-size="13" font-weight="bold" lengthAdjust="spacing" textLength="7" x="46" y="155.8916">1</text><text fill="#000000" font-family="sans-serif" font-size="13" lengthAdjust="spacing" textLength="226" x="57" y="155.8916">Pede para ativar/desativar um utilizador</text><polygon fill="#181818" points="512,188.4453,522,192.4453,512,196.4453,516,192.4453" style="stroke:#181818;stroke-width:1.0;"/><line style="stroke:#181818;stroke-width:1.0;" x1="326" x2="518" y1="192.4453" y2="192.4453"/><text fill="#000000" font-family="sans-serif" font-size="13" font-weight="bold" lengthAdjust="spacing" textLength="7" x="333" y="187.1826">2</text><text fill="#000000" font-family="sans-serif" font-size="13" lengthAdjust="spacing" textLength="36" x="344" y="187.1826">create</text><polygon fill="#181818" points="715,219.7363,725,223.7363,715,227.7363,719,223.7363" style="stroke:#181818;stroke-width:1.0;"/><line style="stroke:#181818;stroke-width:1.0;" x1="524" x2="721" y1="223.7363" y2="223.7363"/><text fill="#000000" font-family="sans-serif" font-size="13" font-weight="bold" lengthAdjust="spacing" textLength="7" x="531" y="218.4736">3</text><text fill="#000000" font-family="sans-serif" font-size="13" lengthAdjust="spacing" textLength="36" x="542" y="218.4736">create</text><polygon fill="#181818" points="507,251.0273,517,255.0273,507,259.0273,511,255.0273" style="stroke:#181818;stroke-width:1.0;"/><line style="stroke:#181818;stroke-width:1.0;" x1="326" x2="513" y1="255.0273" y2="255.0273"/><text fill="#000000" font-family="sans-serif" font-size="13" font-weight="bold" lengthAdjust="spacing" textLength="7" x="333" y="249.7646">4</text><text fill="#000000" font-family="sans-serif" font-size="13" lengthAdjust="spacing" textLength="55" x="344" y="249.7646">allUsers()</text><polygon fill="#181818" points="710,282.3184,720,286.3184,710,290.3184,714,286.3184" style="stroke:#181818;stroke-width:1.0;"/><line style="stroke:#181818;stroke-width:1.0;" x1="529" x2="716" y1="286.3184" y2="286.3184"/><text fill="#000000" font-family="sans-serif" font-size="13" font-weight="bold" lengthAdjust="spacing" textLength="7" x="536" y="281.0557">5</text><text fill="#000000" font-family="sans-serif" font-size="13" lengthAdjust="spacing" textLength="55" x="547" y="281.0557">allUsers()</text><polygon fill="#181818" points="1005,313.6094,1015,317.6094,1005,321.6094,1009,317.6094" style="stroke:#181818;stroke-width:1.0;"/><line style="stroke:#181818;stroke-width:1.0;" x1="732" x2="1011" y1="317.6094" y2="317.6094"/><text fill="#000000" font-family="sans-serif" font-size="13" font-weight="bold" lengthAdjust="spacing" textLength="7" x="739" y="312.3467">6</text><text fill="#000000" font-family="sans-serif" font-size="13" lengthAdjust="spacing" textLength="75" x="750" y="312.3467">repositories()</text><polygon fill="#181818" points="1153,344.9004,1163,348.9004,1153,352.9004,1157,348.9004" style="stroke:#181818;stroke-width:1.0;"/><line style="stroke:#181818;stroke-width:1.0;" x1="1027" x2="1159" y1="348.9004" y2="348.9004"/><text fill="#000000" font-family="sans-serif" font-size="13" font-weight="bold" lengthAdjust="spacing" textLength="7" x="1034" y="343.6377">7</text><text fill="#000000" font-family="sans-serif" font-size="13" lengthAdjust="spacing" textLength="36" x="1045" y="343.6377">create</text><polygon fill="#181818" points="743,376.1914,733,380.1914,743,384.1914,739,380.1914" style="stroke:#181818;stroke-width:1.0;"/><line style="stroke:#181818;stroke-width:1.0;" x1="737" x2="1021" y1="380.1914" y2="380.1914"/><text fill="#000000" font-family="sans-serif" font-size="13" font-weight="bold" lengthAdjust="spacing" textLength="7" x="749" y="374.9287">8</text><text fill="#000000" font-family="sans-serif" font-size="13" lengthAdjust="spacing" textLength="39" x="760" y="374.9287">factory</text><polygon fill="#181818" points="1148,407.4824,1158,411.4824,1148,415.4824,1152,411.4824" style="stroke:#181818;stroke-width:1.0;"/><line style="stroke:#181818;stroke-width:1.0;" x1="732" x2="1154" y1="411.4824" y2="411.4824"/><text fill="#000000" font-family="sans-serif" font-size="13" font-weight="bold" lengthAdjust="spacing" textLength="7" x="739" y="406.2197">9</text><text fill="#000000" font-family="sans-serif" font-size="13" lengthAdjust="spacing" textLength="40" x="750" y="406.2197">users()</text><polygon fill="#181818" points="1279.5,438.7734,1289.5,442.7734,1279.5,446.7734,1283.5,442.7734" style="stroke:#181818;stroke-width:1.0;"/><line style="stroke:#181818;stroke-width:1.0;" x1="1165" x2="1285.5" y1="442.7734" y2="442.7734"/><text fill="#000000" font-family="sans-serif" font-size="13" font-weight="bold" lengthAdjust="spacing" textLength="14" x="1172" y="437.5107">10</text><text fill="#000000" font-family="sans-serif" font-size="13" lengthAdjust="spacing" textLength="36" x="1190" y="437.5107">create</text><polygon fill="#181818" points="1274.5,470.0645,1284.5,474.0645,1274.5,478.0645,1278.5,474.0645" style="stroke:#181818;stroke-width:1.0;"/><line style="stroke:#181818;stroke-width:1.0;" x1="732" x2="1280.5" y1="474.0645" y2="474.0645"/><text fill="#000000" font-family="sans-serif" font-size="13" font-weight="bold" lengthAdjust="spacing" textLength="14" x="739" y="468.8018">11</text><text fill="#000000" font-family="sans-serif" font-size="13" lengthAdjust="spacing" textLength="76" x="757" y="468.8018">list = findAll()</text><polygon fill="#181818" points="743,501.3555,733,505.3555,743,509.3555,739,505.3555" style="stroke:#181818;stroke-width:1.0;"/><line style="stroke:#181818;stroke-width:1.0;stroke-dasharray:2.0,2.0;" x1="737" x2="1290.5" y1="505.3555" y2="505.3555"/><text fill="#000000" font-family="sans-serif" font-size="13" font-weight="bold" lengthAdjust="spacing" textLength="14" x="749" y="500.0928">12</text><text fill="#000000" font-family="sans-serif" font-size="13" lengthAdjust="spacing" textLength="4" x="767" y="500.0928">&#160;</text><polygon fill="#181818" points="540,532.6465,530,536.6465,540,540.6465,536,536.6465" style="stroke:#181818;stroke-width:1.0;"/><line style="stroke:#181818;stroke-width:1.0;stroke-dasharray:2.0,2.0;" x1="534" x2="726" y1="536.6465" y2="536.6465"/><text fill="#000000" font-family="sans-serif" font-size="13" font-weight="bold" lengthAdjust="spacing" textLength="14" x="546" y="531.3838">13</text><text fill="#000000" font-family="sans-serif" font-size="13" lengthAdjust="spacing" textLength="17" x="564" y="531.3838">list</text><polygon fill="#181818" points="337,563.9375,327,567.9375,337,571.9375,333,567.9375" style="stroke:#181818;stroke-width:1.0;"/><line style="stroke:#181818;stroke-width:1.0;stroke-dasharray:2.0,2.0;" x1="331" x2="523" y1="567.9375" y2="567.9375"/><text fill="#000000" font-family="sans-serif" font-size="13" font-weight="bold" lengthAdjust="spacing" textLength="14" x="343" y="562.6748">14</text><text fill="#000000" font-family="sans-serif" font-size="13" lengthAdjust="spacing" textLength="17" x="361" y="562.6748">list</text><polygon fill="#181818" points="50,595.2285,40,599.2285,50,603.2285,46,599.2285" style="stroke:#181818;stroke-width:1.0;"/><line style="stroke:#181818;stroke-width:1.0;stroke-dasharray:2.0,2.0;" x1="44" x2="315" y1="599.2285" y2="599.2285"/><text fill="#000000" font-family="sans-serif" font-size="13" font-weight="bold" lengthAdjust="spacing" textLength="14" x="56" y="593.9658">15</text><text fill="#000000" font-family="sans-serif" font-size="13" lengthAdjust="spacing" textLength="235" x="74" y="593.9658">Mostra a lista de utilizadores do sistema</text><polygon fill="#181818" points="304,626.5195,314,630.5195,304,634.5195,308,630.5195" style="stroke:#181818;stroke-width:1.0;"/><line style="stroke:#181818;stroke-width:1.0;" x1="39" x2="310" y1="630.5195" y2="630.5195"/><text fill="#000000" font-family="sans-serif" font-size="13" font-weight="bold" lengthAdjust="spacing" textLength="14" x="46" y="625.2568">16</text><text fill="#000000" font-family="sans-serif" font-size="13" lengthAdjust="spacing" textLength="124" x="64" y="625.2568">Seleciona o utilizador</text><path d="M225,645.5195 L286,645.5195 L286,654.8105 L276,664.8105 L225,664.8105 L225,645.5195 " fill="#EEEEEE" style="stroke:#000000;stroke-width:1.5;"/><rect fill="none" height="471.4141" style="stroke:#000000;stroke-width:1.5;" width="1128" x="225" y="645.5195"/><text fill="#000000" font-family="sans-serif" font-size="13" font-weight="bold" lengthAdjust="spacing" textLength="16" x="240" y="660.5479">alt</text><text fill="#000000" font-family="sans-serif" font-size="11" font-weight="bold" lengthAdjust="spacing" textLength="119" x="301" y="659.3896">[Se ativar o utilizador]</text><polygon fill="#181818" points="507,684.1016,517,688.1016,507,692.1016,511,688.1016" style="stroke:#181818;stroke-width:1.0;"/><line style="stroke:#181818;stroke-width:1.0;" x1="326" x2="513" y1="688.1016" y2="688.1016"/><text fill="#000000" font-family="sans-serif" font-size="13" font-weight="bold" lengthAdjust="spacing" textLength="14" x="333" y="682.8389">17</text><text fill="#000000" font-family="sans-serif" font-size="13" lengthAdjust="spacing" textLength="104" x="351" y="682.8389">activateUser(user)</text><polygon fill="#181818" points="710,715.3926,720,719.3926,710,723.3926,714,719.3926" style="stroke:#181818;stroke-width:1.0;"/><line style="stroke:#181818;stroke-width:1.0;" x1="529" x2="716" y1="719.3926" y2="719.3926"/><text fill="#000000" font-family="sans-serif" font-size="13" font-weight="bold" lengthAdjust="spacing" textLength="14" x="536" y="714.1299">18</text><text fill="#000000" font-family="sans-serif" font-size="13" lengthAdjust="spacing" textLength="104" x="554" y="714.1299">activateUser(user)</text><polygon fill="#181818" points="866.5,746.6836,876.5,750.6836,866.5,754.6836,870.5,750.6836" style="stroke:#181818;stroke-width:1.0;"/><line style="stroke:#181818;stroke-width:1.0;" x1="732" x2="872.5" y1="750.6836" y2="750.6836"/><text fill="#000000" font-family="sans-serif" font-size="13" font-weight="bold" lengthAdjust="spacing" textLength="14" x="739" y="745.4209">19</text><text fill="#000000" font-family="sans-serif" font-size="13" lengthAdjust="spacing" textLength="52" x="757" y="745.4209">activate()</text><polygon fill="#181818" points="1279.5,807.9746,1289.5,811.9746,1279.5,815.9746,1283.5,811.9746" style="stroke:#181818;stroke-width:1.0;"/><line style="stroke:#181818;stroke-width:1.0;" x1="732" x2="1285.5" y1="811.9746" y2="811.9746"/><text fill="#000000" font-family="sans-serif" font-size="13" font-weight="bold" lengthAdjust="spacing" textLength="14" x="739" y="806.7119">20</text><text fill="#000000" font-family="sans-serif" font-size="13" lengthAdjust="spacing" textLength="59" x="757" y="806.7119">save(user)</text><polygon fill="#181818" points="540,839.2656,530,843.2656,540,847.2656,536,843.2656" style="stroke:#181818;stroke-width:1.0;"/><line style="stroke:#181818;stroke-width:1.0;" x1="534" x2="726" y1="843.2656" y2="843.2656"/><text fill="#000000" font-family="sans-serif" font-size="13" font-weight="bold" lengthAdjust="spacing" textLength="14" x="546" y="838.0029">21</text><text fill="#000000" font-family="sans-serif" font-size="13" lengthAdjust="spacing" textLength="25" x="564" y="838.0029">user</text><polygon fill="#181818" points="337,870.5566,327,874.5566,337,878.5566,333,874.5566" style="stroke:#181818;stroke-width:1.0;"/><line style="stroke:#181818;stroke-width:1.0;stroke-dasharray:2.0,2.0;" x1="331" x2="523" y1="874.5566" y2="874.5566"/><text fill="#000000" font-family="sans-serif" font-size="13" font-weight="bold" lengthAdjust="spacing" textLength="14" x="343" y="869.2939">22</text><text fill="#000000" font-family="sans-serif" font-size="13" lengthAdjust="spacing" textLength="25" x="361" y="869.2939">user</text><line style="stroke:#000000;stroke-width:1.0;stroke-dasharray:2.0,2.0;" x1="225" x2="1353" y1="883.5566" y2="883.5566"/><text fill="#000000" font-family="sans-serif" font-size="11" font-weight="bold" lengthAdjust="spacing" textLength="140" x="230" y="895.4268">[Se desativar o utilizador]</text><polygon fill="#181818" points="507,918.4785,517,922.4785,507,926.4785,511,922.4785" style="stroke:#181818;stroke-width:1.0;"/><line style="stroke:#181818;stroke-width:1.0;" x1="326" x2="513" y1="922.4785" y2="922.4785"/><text fill="#000000" font-family="sans-serif" font-size="13" font-weight="bold" lengthAdjust="spacing" textLength="14" x="333" y="917.2158">23</text><text fill="#000000" font-family="sans-serif" font-size="13" lengthAdjust="spacing" textLength="118" x="351" y="917.2158">deactivateUser(user)</text><polygon fill="#181818" points="710,949.7695,720,953.7695,710,957.7695,714,953.7695" style="stroke:#181818;stroke-width:1.0;"/><line style="stroke:#181818;stroke-width:1.0;" x1="529" x2="716" y1="953.7695" y2="953.7695"/><text fill="#000000" font-family="sans-serif" font-size="13" font-weight="bold" lengthAdjust="spacing" textLength="14" x="536" y="948.5068">24</text><text fill="#000000" font-family="sans-serif" font-size="13" lengthAdjust="spacing" textLength="118" x="554" y="948.5068">deactivateUser(user)</text><polygon fill="#181818" points="866.5,981.0605,876.5,985.0605,866.5,989.0605,870.5,985.0605" style="stroke:#181818;stroke-width:1.0;"/><line style="stroke:#181818;stroke-width:1.0;" x1="732" x2="872.5" y1="985.0605" y2="985.0605"/><text fill="#000000" font-family="sans-serif" font-size="13" font-weight="bold" lengthAdjust="spacing" textLength="14" x="739" y="979.7979">25</text><text fill="#000000" font-family="sans-serif" font-size="13" lengthAdjust="spacing" textLength="66" x="757" y="979.7979">deactivate()</text><polygon fill="#181818" points="1279.5,1042.3516,1289.5,1046.3516,1279.5,1050.3516,1283.5,1046.3516" style="stroke:#181818;stroke-width:1.0;"/><line style="stroke:#181818;stroke-width:1.0;" x1="732" x2="1285.5" y1="1046.3516" y2="1046.3516"/><text fill="#000000" font-family="sans-serif" font-size="13" font-weight="bold" lengthAdjust="spacing" textLength="14" x="739" y="1041.0889">26</text><text fill="#000000" font-family="sans-serif" font-size="13" lengthAdjust="spacing" textLength="59" x="757" y="1041.0889">save(user)</text><polygon fill="#181818" points="540,1073.6426,530,1077.6426,540,1081.6426,536,1077.6426" style="stroke:#181818;stroke-width:1.0;"/><line style="stroke:#181818;stroke-width:1.0;" x1="534" x2="726" y1="1077.6426" y2="1077.6426"/><text fill="#000000" font-family="sans-serif" font-size="13" font-weight="bold" lengthAdjust="spacing" textLength="14" x="546" y="1072.3799">27</text><text fill="#000000" font-family="sans-serif" font-size="13" lengthAdjust="spacing" textLength="25" x="564" y="1072.3799">user</text><polygon fill="#181818" points="337,1104.9336,327,1108.9336,337,1112.9336,333,1108.9336" style="stroke:#181818;stroke-width:1.0;"/><line style="stroke:#181818;stroke-width:1.0;stroke-dasharray:2.0,2.0;" x1="331" x2="523" y1="1108.9336" y2="1108.9336"/><text fill="#000000" font-family="sans-serif" font-size="13" font-weight="bold" lengthAdjust="spacing" textLength="14" x="343" y="1103.6709">28</text><text fill="#000000" font-family="sans-serif" font-size="13" lengthAdjust="spacing" textLength="25" x="361" y="1103.6709">user</text><polygon fill="#181818" points="45,1143.2246,35,1147.2246,45,1151.2246,41,1147.2246" style="stroke:#181818;stroke-width:1.0;"/><line style="stroke:#181818;stroke-width:1.0;stroke-dasharray:2.0,2.0;" x1="39" x2="315" y1="1147.2246" y2="1147.2246"/><text fill="#000000" font-family="sans-serif" font-size="13" font-weight="bold" lengthAdjust="spacing" textLength="14" x="51" y="1141.9619">29</text><text fill="#000000" font-family="sans-serif" font-size="13" lengthAdjust="spacing" textLength="181" x="69" y="1141.9619">Informa o sucesso da opera&#231;&#227;o</text><!--SRC=[vLQxRjim5Dtr5HUPd25eqj5G0mGnKcG8K5JmNDn8rmuHYbH9ogtxEntw8VcnNkf5MfPLT-XK3GOfddDuU1-qxAjG5HeieTHAvoz6bmJEr9JOOQN2_1MtbBcz932KErHR6GFi2nRwcr1RsA2qb2HEE8PczBKcbHEi16uzRf6jBk4ArXdSN5_VV7cVOEsqgijdCac2kTC6Ff8XvGZGmfr_aV0EJkIYGkNy6x53Hol2RhIsPDQF7is_QLePian79xIwlKrohPpHyWJllbsLP3m_cgKfLfKKUIyJM_349rGSZf8toiZiHDwuxOTpv8kQsSjiRnsLNkZ24rUwHA6OLpI34UKJ6IiOps7q3kcxyvpehJzrc8tOdwdILd0OzmzDUFUUt0_JTDEEc5IWmsUqr9mli3mycgMf6IPCQdBMXBFB5V3JZE3grYTaoKOB0byaW1vftXLasn7K9THEIF63QwUb3chhnsRk7rPXhIWvIyWDCMX0H6kCxDCmmEQKK4f_Nhku7523Xm1C_hZLd4w72Y8zZHNYD2vXYAsWIQK87THY2LRiStiKfH4kUEzgO00MDBzXP3ziLdUdFpRzC9BlEKoF2kiuMv6DNcBAme66PBFm0JP25NTIJeKmm8DQ974LHsRAIiG_CZCkBkzcIgClYAcYwjlc57UgA7rTCw_jkoKyQUjykpKQoEIeoyX2eQ79QOb1uR1bCvAKyzs5eCSDsiHIEePqxJmDcUgs9SHNxy8NpEK1OVQCiyrtfkvH8uvAgRk7W-3YX50BF5YBKjIjdjhbe60jxcZ2SWG_g2YFFBNjvEccIcjEP2hqn7_eFk7XulwBd1Vqhx9-llBPUG-I_tNcOmIfukH5ywWssfJ-bh1rJjPgA7Z2toBuzkljfqwIIBxzFFWD]--></g></svg>