<?xml version="1.0" encoding="us-ascii" standalone="no"?><svg xmlns="http://www.w3.org/2000/svg" xmlns:xlink="http://www.w3.org/1999/xlink" contentStyleType="text/css" height="663px" preserveAspectRatio="none" style="width:963px;height:663px;background:#FFFFFF;" version="1.1" viewBox="0 0 963 663" width="963px" zoomAndPan="magnify"><defs/><g><text fill="#000000" font-family="sans-serif" font-size="14" font-weight="bold" lengthAdjust="spacing" textLength="201" x="374.25" y="25.1074">Class Diagram (CD) - US 3010</text><!--class ArchiveBoardUI--><g id="elem_ArchiveBoardUI"><rect codeLine="5" fill="#F1F1F1" height="79.2031" id="ArchiveBoardUI" rx="2.5" ry="2.5" style="stroke:#181818;stroke-width:0.5;" width="129" x="471.5" y="46.6211"/><ellipse cx="486.5" cy="68.9121" fill="#ADD1B2" rx="11" ry="11" style="stroke:#181818;stroke-width:1.0;"/><path d="M489.2656,64.7871 Q489.4219,64.5684 489.6094,64.459 Q489.7969,64.3496 490.0156,64.3496 Q490.3906,64.3496 490.625,64.6152 Q490.8594,64.8652 490.8594,65.4746 L490.8594,66.9277 Q490.8594,67.5371 490.625,67.8027 Q490.3906,68.0684 490.0156,68.0684 Q489.6719,68.0684 489.4688,67.8652 Q489.2656,67.6777 489.1563,67.1621 Q489.1094,66.8027 488.9219,66.6152 Q488.5938,66.2402 487.9844,66.0215 Q487.375,65.8027 486.75,65.8027 Q485.9844,65.8027 485.3438,66.1309 Q484.7188,66.459 484.2188,67.209 Q483.7344,67.959 483.7344,68.9902 L483.7344,70.084 Q483.7344,71.3184 484.625,72.1465 Q485.5156,72.959 487.1094,72.959 Q488.0469,72.959 488.7031,72.709 Q489.0938,72.5527 489.5156,72.1152 Q489.7813,71.8496 489.9219,71.7715 Q490.0781,71.6934 490.2813,71.6934 Q490.6094,71.6934 490.8594,71.959 Q491.125,72.209 491.125,72.5527 Q491.125,72.8965 490.7813,73.3027 Q490.2813,73.8809 489.4844,74.209 Q488.4063,74.6621 487.1094,74.6621 Q485.5938,74.6621 484.3906,74.0371 Q483.4063,73.5371 482.7188,72.4746 Q482.0313,71.3965 482.0313,70.1152 L482.0313,68.959 Q482.0313,67.6309 482.6406,66.4902 Q483.2656,65.334 484.3594,64.7246 Q485.4531,64.0996 486.6875,64.0996 Q487.4219,64.0996 488.0625,64.2715 Q488.7188,64.4277 489.2656,64.7871 Z " fill="#000000"/><text fill="#000000" font-family="sans-serif" font-size="12" font-style="italic" lengthAdjust="spacing" textLength="82" x="508" y="64.5703">&#171;presentation&#187;</text><text fill="#000000" font-family="sans-serif" font-size="14" lengthAdjust="spacing" textLength="97" x="500.5" y="82.6895">ArchiveBoardUI</text><line style="stroke:#181818;stroke-width:0.5;" x1="472.5" x2="599.5" y1="91.2031" y2="91.2031"/><line style="stroke:#181818;stroke-width:0.5;" x1="472.5" x2="599.5" y1="99.2031" y2="99.2031"/><text fill="#000000" font-family="sans-serif" font-size="14" lengthAdjust="spacing" textLength="60" x="477.5" y="118.3105">doShow()</text></g><!--class JpaBoardRepository--><g id="elem_JpaBoardRepository"><rect codeLine="9" fill="#F1F1F1" height="60.582" id="JpaBoardRepository" rx="2.5" ry="2.5" style="stroke:#181818;stroke-width:0.5;" width="160" x="7" y="577.1211"/><ellipse cx="22" cy="599.4121" fill="#ADD1B2" rx="11" ry="11" style="stroke:#181818;stroke-width:1.0;"/><path d="M24.7656,595.2871 Q24.9219,595.0684 25.1094,594.959 Q25.2969,594.8496 25.5156,594.8496 Q25.8906,594.8496 26.125,595.1152 Q26.3594,595.3652 26.3594,595.9746 L26.3594,597.4277 Q26.3594,598.0371 26.125,598.3027 Q25.8906,598.5684 25.5156,598.5684 Q25.1719,598.5684 24.9688,598.3652 Q24.7656,598.1777 24.6563,597.6621 Q24.6094,597.3027 24.4219,597.1152 Q24.0938,596.7402 23.4844,596.5215 Q22.875,596.3027 22.25,596.3027 Q21.4844,596.3027 20.8438,596.6309 Q20.2188,596.959 19.7188,597.709 Q19.2344,598.459 19.2344,599.4902 L19.2344,600.584 Q19.2344,601.8184 20.125,602.6465 Q21.0156,603.459 22.6094,603.459 Q23.5469,603.459 24.2031,603.209 Q24.5938,603.0527 25.0156,602.6152 Q25.2813,602.3496 25.4219,602.2715 Q25.5781,602.1934 25.7813,602.1934 Q26.1094,602.1934 26.3594,602.459 Q26.625,602.709 26.625,603.0527 Q26.625,603.3965 26.2813,603.8027 Q25.7813,604.3809 24.9844,604.709 Q23.9063,605.1621 22.6094,605.1621 Q21.0938,605.1621 19.8906,604.5371 Q18.9063,604.0371 18.2188,602.9746 Q17.5313,601.8965 17.5313,600.6152 L17.5313,599.459 Q17.5313,598.1309 18.1406,596.9902 Q18.7656,595.834 19.8594,595.2246 Q20.9531,594.5996 22.1875,594.5996 Q22.9219,594.5996 23.5625,594.7715 Q24.2188,594.9277 24.7656,595.2871 Z " fill="#000000"/><text fill="#000000" font-family="sans-serif" font-size="12" font-style="italic" lengthAdjust="spacing" textLength="77" x="61.5" y="595.0703">&#171;persistence&#187;</text><text fill="#000000" font-family="sans-serif" font-size="14" lengthAdjust="spacing" textLength="128" x="36" y="613.1895">JpaBoardRepository</text><line style="stroke:#181818;stroke-width:0.5;" x1="8" x2="166" y1="621.7031" y2="621.7031"/><line style="stroke:#181818;stroke-width:0.5;" x1="8" x2="166" y1="629.7031" y2="629.7031"/></g><!--class InMemoryBoardRepository--><g id="elem_InMemoryBoardRepository"><rect codeLine="10" fill="#F1F1F1" height="60.582" id="InMemoryBoardRepository" rx="2.5" ry="2.5" style="stroke:#181818;stroke-width:0.5;" width="199" x="613.5" y="577.1211"/><ellipse cx="628.5" cy="599.4121" fill="#ADD1B2" rx="11" ry="11" style="stroke:#181818;stroke-width:1.0;"/><path d="M631.2656,595.2871 Q631.4219,595.0684 631.6094,594.959 Q631.7969,594.8496 632.0156,594.8496 Q632.3906,594.8496 632.625,595.1152 Q632.8594,595.3652 632.8594,595.9746 L632.8594,597.4277 Q632.8594,598.0371 632.625,598.3027 Q632.3906,598.5684 632.0156,598.5684 Q631.6719,598.5684 631.4688,598.3652 Q631.2656,598.1777 631.1563,597.6621 Q631.1094,597.3027 630.9219,597.1152 Q630.5938,596.7402 629.9844,596.5215 Q629.375,596.3027 628.75,596.3027 Q627.9844,596.3027 627.3438,596.6309 Q626.7188,596.959 626.2188,597.709 Q625.7344,598.459 625.7344,599.4902 L625.7344,600.584 Q625.7344,601.8184 626.625,602.6465 Q627.5156,603.459 629.1094,603.459 Q630.0469,603.459 630.7031,603.209 Q631.0938,603.0527 631.5156,602.6152 Q631.7813,602.3496 631.9219,602.2715 Q632.0781,602.1934 632.2813,602.1934 Q632.6094,602.1934 632.8594,602.459 Q633.125,602.709 633.125,603.0527 Q633.125,603.3965 632.7813,603.8027 Q632.2813,604.3809 631.4844,604.709 Q630.4063,605.1621 629.1094,605.1621 Q627.5938,605.1621 626.3906,604.5371 Q625.4063,604.0371 624.7188,602.9746 Q624.0313,601.8965 624.0313,600.6152 L624.0313,599.459 Q624.0313,598.1309 624.6406,596.9902 Q625.2656,595.834 626.3594,595.2246 Q627.4531,594.5996 628.6875,594.5996 Q629.4219,594.5996 630.0625,594.7715 Q630.7188,594.9277 631.2656,595.2871 Z " fill="#000000"/><text fill="#000000" font-family="sans-serif" font-size="12" font-style="italic" lengthAdjust="spacing" textLength="77" x="687.5" y="595.0703">&#171;persistence&#187;</text><text fill="#000000" font-family="sans-serif" font-size="14" lengthAdjust="spacing" textLength="167" x="642.5" y="613.1895">InMemoryBoardRepository</text><line style="stroke:#181818;stroke-width:0.5;" x1="614.5" x2="811.5" y1="621.7031" y2="621.7031"/><line style="stroke:#181818;stroke-width:0.5;" x1="614.5" x2="811.5" y1="629.7031" y2="629.7031"/></g><!--class Board--><g id="elem_Board"><rect codeLine="12" fill="#F1F1F1" height="97.8242" id="Board" rx="2.5" ry="2.5" style="stroke:#181818;stroke-width:0.5;" width="158" x="210" y="381.6211"/><ellipse cx="258.75" cy="403.9121" fill="#ADD1B2" rx="11" ry="11" style="stroke:#181818;stroke-width:1.0;"/><path d="M261.5156,399.7871 Q261.6719,399.5684 261.8594,399.459 Q262.0469,399.3496 262.2656,399.3496 Q262.6406,399.3496 262.875,399.6152 Q263.1094,399.8652 263.1094,400.4746 L263.1094,401.9277 Q263.1094,402.5371 262.875,402.8027 Q262.6406,403.0684 262.2656,403.0684 Q261.9219,403.0684 261.7188,402.8652 Q261.5156,402.6777 261.4063,402.1621 Q261.3594,401.8027 261.1719,401.6152 Q260.8438,401.2402 260.2344,401.0215 Q259.625,400.8027 259,400.8027 Q258.2344,400.8027 257.5938,401.1309 Q256.9688,401.459 256.4688,402.209 Q255.9844,402.959 255.9844,403.9902 L255.9844,405.084 Q255.9844,406.3184 256.875,407.1465 Q257.7656,407.959 259.3594,407.959 Q260.2969,407.959 260.9531,407.709 Q261.3438,407.5527 261.7656,407.1152 Q262.0313,406.8496 262.1719,406.7715 Q262.3281,406.6934 262.5313,406.6934 Q262.8594,406.6934 263.1094,406.959 Q263.375,407.209 263.375,407.5527 Q263.375,407.8965 263.0313,408.3027 Q262.5313,408.8809 261.7344,409.209 Q260.6563,409.6621 259.3594,409.6621 Q257.8438,409.6621 256.6406,409.0371 Q255.6563,408.5371 254.9688,407.4746 Q254.2813,406.3965 254.2813,405.1152 L254.2813,403.959 Q254.2813,402.6309 254.8906,401.4902 Q255.5156,400.334 256.6094,399.7246 Q257.7031,399.0996 258.9375,399.0996 Q259.6719,399.0996 260.3125,399.2715 Q260.9688,399.4277 261.5156,399.7871 Z " fill="#000000"/><text fill="#000000" font-family="sans-serif" font-size="12" font-style="italic" lengthAdjust="spacing" textLength="56" x="277.25" y="399.5703">&#171;domain&#187;</text><text fill="#000000" font-family="sans-serif" font-size="14" lengthAdjust="spacing" textLength="38" x="286.25" y="417.6895">Board</text><line style="stroke:#181818;stroke-width:0.5;" x1="211" x2="367" y1="426.2031" y2="426.2031"/><rect fill="none" height="6" style="stroke:#C82930;stroke-width:1.0;" width="6" x="218" y="438.0137"/><text fill="#000000" font-family="sans-serif" font-size="14" lengthAdjust="spacing" textLength="117" x="230" y="445.3105">archived : boolean</text><line style="stroke:#181818;stroke-width:0.5;" x1="211" x2="367" y1="452.8242" y2="452.8242"/><ellipse cx="221" cy="467.6348" fill="#84BE84" rx="3" ry="3" style="stroke:#038048;stroke-width:1.0;"/><text fill="#000000" font-family="sans-serif" font-size="14" lengthAdjust="spacing" textLength="132" x="230" y="471.9316">void archivedBoard()</text></g><!--class SystemUser--><g id="elem_SystemUser"><rect codeLine="16" fill="#F1F1F1" height="60.582" id="SystemUser" rx="2.5" ry="2.5" style="stroke:#181818;stroke-width:0.5;" width="107" x="703.5" y="400.1211"/><ellipse cx="718.5" cy="422.4121" fill="#ADD1B2" rx="11" ry="11" style="stroke:#181818;stroke-width:1.0;"/><path d="M721.2656,418.2871 Q721.4219,418.0684 721.6094,417.959 Q721.7969,417.8496 722.0156,417.8496 Q722.3906,417.8496 722.625,418.1152 Q722.8594,418.3652 722.8594,418.9746 L722.8594,420.4277 Q722.8594,421.0371 722.625,421.3027 Q722.3906,421.5684 722.0156,421.5684 Q721.6719,421.5684 721.4688,421.3652 Q721.2656,421.1777 721.1563,420.6621 Q721.1094,420.3027 720.9219,420.1152 Q720.5938,419.7402 719.9844,419.5215 Q719.375,419.3027 718.75,419.3027 Q717.9844,419.3027 717.3438,419.6309 Q716.7188,419.959 716.2188,420.709 Q715.7344,421.459 715.7344,422.4902 L715.7344,423.584 Q715.7344,424.8184 716.625,425.6465 Q717.5156,426.459 719.1094,426.459 Q720.0469,426.459 720.7031,426.209 Q721.0938,426.0527 721.5156,425.6152 Q721.7813,425.3496 721.9219,425.2715 Q722.0781,425.1934 722.2813,425.1934 Q722.6094,425.1934 722.8594,425.459 Q723.125,425.709 723.125,426.0527 Q723.125,426.3965 722.7813,426.8027 Q722.2813,427.3809 721.4844,427.709 Q720.4063,428.1621 719.1094,428.1621 Q717.5938,428.1621 716.3906,427.5371 Q715.4063,427.0371 714.7188,425.9746 Q714.0313,424.8965 714.0313,423.6152 L714.0313,422.459 Q714.0313,421.1309 714.6406,419.9902 Q715.2656,418.834 716.3594,418.2246 Q717.4531,417.5996 718.6875,417.5996 Q719.4219,417.5996 720.0625,417.7715 Q720.7188,417.9277 721.2656,418.2871 Z " fill="#000000"/><text fill="#000000" font-family="sans-serif" font-size="12" font-style="italic" lengthAdjust="spacing" textLength="56" x="742" y="418.0703">&#171;domain&#187;</text><text fill="#000000" font-family="sans-serif" font-size="14" lengthAdjust="spacing" textLength="75" x="732.5" y="436.1895">SystemUser</text><line style="stroke:#181818;stroke-width:0.5;" x1="704.5" x2="809.5" y1="444.7031" y2="444.7031"/><line style="stroke:#181818;stroke-width:0.5;" x1="704.5" x2="809.5" y1="452.7031" y2="452.7031"/></g><!--class Username--><g id="elem_Username"><rect codeLine="17" fill="#F1F1F1" height="60.582" id="Username" rx="2.5" ry="2.5" style="stroke:#181818;stroke-width:0.5;" width="109" x="847.5" y="577.1211"/><ellipse cx="862.5" cy="599.4121" fill="#FF8B40" rx="11" ry="11" style="stroke:#181818;stroke-width:1.0;"/><path d="M863.0938,602.6777 L865.5625,596.8027 L865.1719,596.8027 Q864.5625,596.8027 864.2969,596.5684 Q864.0313,596.334 864.0313,595.9434 Q864.0313,595.5684 864.2969,595.334 Q864.5625,595.0996 865.1719,595.0996 L867.4531,595.0996 Q868.0625,595.0996 868.3281,595.334 Q868.5938,595.5684 868.5938,595.9434 Q868.5938,596.4121 868.1875,596.6777 Q868,596.8027 867.4063,596.8027 L863.9219,605.1621 L862.2813,605.1621 L858.7969,596.8027 Q858.2031,596.8027 858.0156,596.6777 Q857.6094,596.4121 857.6094,595.9434 Q857.6094,595.5684 857.875,595.334 Q858.1406,595.0996 858.75,595.0996 L861.0469,595.0996 Q861.6563,595.0996 861.9063,595.334 Q862.1719,595.5684 862.1719,595.9434 Q862.1719,596.334 861.9063,596.5684 Q861.6563,596.8027 861.0469,596.8027 L860.6406,596.8027 L863.0938,602.6777 Z " fill="#000000"/><text fill="#000000" font-family="sans-serif" font-size="12" font-style="italic" lengthAdjust="spacing" textLength="81" x="874.5" y="595.0703">&#171;value object&#187;</text><text fill="#000000" font-family="sans-serif" font-size="14" lengthAdjust="spacing" textLength="64" x="883" y="613.1895">Username</text><line style="stroke:#181818;stroke-width:0.5;" x1="848.5" x2="955.5" y1="621.7031" y2="621.7031"/><line style="stroke:#181818;stroke-width:0.5;" x1="848.5" x2="955.5" y1="629.7031" y2="629.7031"/></g><!--class ArchiveBoardController--><g id="elem_ArchiveBoardController"><rect codeLine="19" fill="#F1F1F1" height="97.8242" id="ArchiveBoardController" rx="2.5" ry="2.5" style="stroke:#181818;stroke-width:0.5;" width="270" x="401" y="204.6211"/><ellipse cx="458.25" cy="226.9121" fill="#ADD1B2" rx="11" ry="11" style="stroke:#181818;stroke-width:1.0;"/><path d="M461.0156,222.7871 Q461.1719,222.5684 461.3594,222.459 Q461.5469,222.3496 461.7656,222.3496 Q462.1406,222.3496 462.375,222.6152 Q462.6094,222.8652 462.6094,223.4746 L462.6094,224.9277 Q462.6094,225.5371 462.375,225.8027 Q462.1406,226.0684 461.7656,226.0684 Q461.4219,226.0684 461.2188,225.8652 Q461.0156,225.6777 460.9063,225.1621 Q460.8594,224.8027 460.6719,224.6152 Q460.3438,224.2402 459.7344,224.0215 Q459.125,223.8027 458.5,223.8027 Q457.7344,223.8027 457.0938,224.1309 Q456.4688,224.459 455.9688,225.209 Q455.4844,225.959 455.4844,226.9902 L455.4844,228.084 Q455.4844,229.3184 456.375,230.1465 Q457.2656,230.959 458.8594,230.959 Q459.7969,230.959 460.4531,230.709 Q460.8438,230.5527 461.2656,230.1152 Q461.5313,229.8496 461.6719,229.7715 Q461.8281,229.6934 462.0313,229.6934 Q462.3594,229.6934 462.6094,229.959 Q462.875,230.209 462.875,230.5527 Q462.875,230.8965 462.5313,231.3027 Q462.0313,231.8809 461.2344,232.209 Q460.1563,232.6621 458.8594,232.6621 Q457.3438,232.6621 456.1406,232.0371 Q455.1563,231.5371 454.4688,230.4746 Q453.7813,229.3965 453.7813,228.1152 L453.7813,226.959 Q453.7813,225.6309 454.3906,224.4902 Q455.0156,223.334 456.1094,222.7246 Q457.2031,222.0996 458.4375,222.0996 Q459.1719,222.0996 459.8125,222.2715 Q460.4688,222.4277 461.0156,222.7871 Z " fill="#000000"/><text fill="#000000" font-family="sans-serif" font-size="12" font-style="italic" lengthAdjust="spacing" textLength="74" x="515.25" y="222.5703">&#171;application&#187;</text><text fill="#000000" font-family="sans-serif" font-size="14" lengthAdjust="spacing" textLength="147" x="478.75" y="240.6895">ArchiveBoardController</text><line style="stroke:#181818;stroke-width:0.5;" x1="402" x2="670" y1="249.2031" y2="249.2031"/><line style="stroke:#181818;stroke-width:0.5;" x1="402" x2="670" y1="257.2031" y2="257.2031"/><ellipse cx="412" cy="272.0137" fill="#84BE84" rx="3" ry="3" style="stroke:#038048;stroke-width:1.0;"/><text fill="#000000" font-family="sans-serif" font-size="14" lengthAdjust="spacing" textLength="240" x="421" y="276.3105">Iterable&lt;Board&gt; listAllBoardsOwned();</text><ellipse cx="412" cy="290.6348" fill="#84BE84" rx="3" ry="3" style="stroke:#038048;stroke-width:1.0;"/><text fill="#000000" font-family="sans-serif" font-size="14" lengthAdjust="spacing" textLength="244" x="421" y="294.9316">Board archiveBoard(theBoard : Board)</text></g><!--class BoardRepository--><g id="elem_BoardRepository"><rect codeLine="24" fill="#F1F1F1" height="97.8242" id="BoardRepository" rx="2.5" ry="2.5" style="stroke:#181818;stroke-width:0.5;" width="376" x="202" y="558.6211"/><ellipse cx="332.75" cy="580.9121" fill="#B4A7E5" rx="11" ry="11" style="stroke:#181818;stroke-width:1.0;"/><path d="M333.7031,577.5527 L333.7031,584.209 L335.4219,584.209 Q336.0313,584.209 336.2969,584.4434 Q336.5625,584.6777 336.5625,585.0684 Q336.5625,585.4434 336.2969,585.6777 Q336.0313,585.9121 335.4219,585.9121 L330.2813,585.9121 Q329.6719,585.9121 329.4063,585.6777 Q329.1406,585.4434 329.1406,585.0527 Q329.1406,584.6777 329.4063,584.4434 Q329.6719,584.209 330.2813,584.209 L332,584.209 L332,577.5527 L330.2813,577.5527 Q329.6719,577.5527 329.4063,577.3184 Q329.1406,577.084 329.1406,576.6934 Q329.1406,576.3184 329.4063,576.084 Q329.6719,575.8496 330.2813,575.8496 L335.4219,575.8496 Q336.0313,575.8496 336.2969,576.084 Q336.5625,576.3184 336.5625,576.6934 Q336.5625,577.084 336.2969,577.3184 Q336.0313,577.5527 335.4219,577.5527 L333.7031,577.5527 Z " fill="#000000"/><text fill="#000000" font-family="sans-serif" font-size="12" font-style="italic" lengthAdjust="spacing" textLength="78" x="367.25" y="576.5703">&#171;repositories&#187;</text><text fill="#000000" font-family="sans-serif" font-size="14" font-style="italic" lengthAdjust="spacing" textLength="106" x="353.25" y="594.6895">BoardRepository</text><line style="stroke:#181818;stroke-width:0.5;" x1="203" x2="577" y1="603.2031" y2="603.2031"/><line style="stroke:#181818;stroke-width:0.5;" x1="203" x2="577" y1="611.2031" y2="611.2031"/><ellipse cx="213" cy="626.0137" fill="#84BE84" rx="3" ry="3" style="stroke:#038048;stroke-width:1.0;"/><text fill="#000000" font-family="sans-serif" font-size="14" lengthAdjust="spacing" textLength="350" x="222" y="630.3105">Iterable&lt;Board&gt; findAllBoardsOwned(user : Username);</text><ellipse cx="213" cy="644.6348" fill="#84BE84" rx="3" ry="3" style="stroke:#038048;stroke-width:1.0;"/><text fill="#000000" font-family="sans-serif" font-size="14" lengthAdjust="spacing" textLength="190" x="222" y="648.9316">Board save(theBoard : Board)</text></g><!--class CsvSharedBoardProtocolProxy--><g id="elem_CsvSharedBoardProtocolProxy"><rect codeLine="29" fill="#F1F1F1" height="97.8242" id="CsvSharedBoardProtocolProxy" rx="2.5" ry="2.5" style="stroke:#181818;stroke-width:0.5;" width="265" x="403.5" y="381.6211"/><ellipse cx="435.6" cy="403.9121" fill="#ADD1B2" rx="11" ry="11" style="stroke:#181818;stroke-width:1.0;"/><path d="M438.3656,399.7871 Q438.5219,399.5684 438.7094,399.459 Q438.8969,399.3496 439.1156,399.3496 Q439.4906,399.3496 439.725,399.6152 Q439.9594,399.8652 439.9594,400.4746 L439.9594,401.9277 Q439.9594,402.5371 439.725,402.8027 Q439.4906,403.0684 439.1156,403.0684 Q438.7719,403.0684 438.5688,402.8652 Q438.3656,402.6777 438.2563,402.1621 Q438.2094,401.8027 438.0219,401.6152 Q437.6938,401.2402 437.0844,401.0215 Q436.475,400.8027 435.85,400.8027 Q435.0844,400.8027 434.4438,401.1309 Q433.8188,401.459 433.3188,402.209 Q432.8344,402.959 432.8344,403.9902 L432.8344,405.084 Q432.8344,406.3184 433.725,407.1465 Q434.6156,407.959 436.2094,407.959 Q437.1469,407.959 437.8031,407.709 Q438.1938,407.5527 438.6156,407.1152 Q438.8813,406.8496 439.0219,406.7715 Q439.1781,406.6934 439.3813,406.6934 Q439.7094,406.6934 439.9594,406.959 Q440.225,407.209 440.225,407.5527 Q440.225,407.8965 439.8813,408.3027 Q439.3813,408.8809 438.5844,409.209 Q437.5063,409.6621 436.2094,409.6621 Q434.6938,409.6621 433.4906,409.0371 Q432.5063,408.5371 431.8188,407.4746 Q431.1313,406.3965 431.1313,405.1152 L431.1313,403.959 Q431.1313,402.6309 431.7406,401.4902 Q432.3656,400.334 433.4594,399.7246 Q434.5531,399.0996 435.7875,399.0996 Q436.5219,399.0996 437.1625,399.2715 Q437.8188,399.4277 438.3656,399.7871 Z " fill="#000000"/><text fill="#000000" font-family="sans-serif" font-size="12" font-style="italic" lengthAdjust="spacing" textLength="76" x="512.9" y="399.5703">&#171;csvprotocol&#187;</text><text fill="#000000" font-family="sans-serif" font-size="14" lengthAdjust="spacing" textLength="195" x="453.4" y="417.6895">CsvSharedBoardProtocolProxy</text><line style="stroke:#181818;stroke-width:0.5;" x1="404.5" x2="667.5" y1="426.2031" y2="426.2031"/><line style="stroke:#181818;stroke-width:0.5;" x1="404.5" x2="667.5" y1="434.2031" y2="434.2031"/><ellipse cx="414.5" cy="449.0137" fill="#84BE84" rx="3" ry="3" style="stroke:#038048;stroke-width:1.0;"/><text fill="#000000" font-family="sans-serif" font-size="14" lengthAdjust="spacing" textLength="239" x="423.5" y="453.3105">Iterable&lt;Board&gt; getAllBoardsOwned()</text><ellipse cx="414.5" cy="467.6348" fill="#84BE84" rx="3" ry="3" style="stroke:#038048;stroke-width:1.0;"/><text fill="#000000" font-family="sans-serif" font-size="14" lengthAdjust="spacing" textLength="228" x="423.5" y="471.9316">Board saveBoard(theBoard : Board)</text></g><!--link ArchiveBoardUI to ArchiveBoardController--><g id="link_ArchiveBoardUI_ArchiveBoardController"><path codeLine="35" d="M536,125.9211 C536,147.8611 536,175.6111 536,199.5511 " fill="none" id="ArchiveBoardUI-to-ArchiveBoardController" style="stroke:#181818;stroke-width:1.0;"/><polygon fill="#181818" points="536,204.5911,540,195.5911,536,199.5911,532,195.5911,536,204.5911" style="stroke:#181818;stroke-width:1.0;"/><text fill="#000000" font-family="sans-serif" font-size="13" lengthAdjust="spacing" textLength="73" x="537" y="170.6494">theController</text></g><!--link ArchiveBoardController to CsvSharedBoardProtocolProxy--><g id="link_ArchiveBoardController_CsvSharedBoardProtocolProxy"><path codeLine="36" d="M536,302.9011 C536,325.6611 536,352.8911 536,376.2611 " fill="none" id="ArchiveBoardController-to-CsvSharedBoardProtocolProxy" style="stroke:#181818;stroke-width:1.0;"/><polygon fill="#181818" points="536,381.4911,540,372.4911,536,376.4911,532,372.4911,536,381.4911" style="stroke:#181818;stroke-width:1.0;"/><text fill="#000000" font-family="sans-serif" font-size="13" lengthAdjust="spacing" textLength="32" x="537" y="347.6494">proxy</text></g><!--link ArchiveBoardController to SystemUser--><g id="link_ArchiveBoardController_SystemUser"><path codeLine="37" d="M596.68,302.6711 C634.5,332.6211 682.17,370.3611 715.66,396.8811 " fill="none" id="ArchiveBoardController-to-SystemUser" style="stroke:#181818;stroke-width:1.0;"/><polygon fill="#181818" points="719.67,400.0611,715.098,391.3377,715.7504,396.9568,710.1312,397.6092,719.67,400.0611" style="stroke:#181818;stroke-width:1.0;"/><text fill="#000000" font-family="sans-serif" font-size="13" lengthAdjust="spacing" textLength="25" x="655" y="347.6494">user</text></g><!--link ArchiveBoardController to Board--><g id="link_ArchiveBoardController_Board"><path codeLine="38" d="M468.18,302.6711 C434.97,326.2011 394.96,354.5511 361.19,378.4811 " fill="none" id="ArchiveBoardController-to-Board" style="stroke:#181818;stroke-width:1.0;"/><polygon fill="#181818" points="357.1,381.3711,366.7589,379.4462,361.184,378.4866,362.1437,372.9117,357.1,381.3711" style="stroke:#181818;stroke-width:1.0;"/><text fill="#000000" font-family="sans-serif" font-size="13" lengthAdjust="spacing" textLength="52" x="421" y="347.6494">theBoard</text></g><!--link CsvSharedBoardProtocolProxy to BoardRepository--><g id="link_CsvSharedBoardProtocolProxy_BoardRepository"><path codeLine="39" d="M495.72,479.9011 C476.41,503.0511 453.25,530.8111 433.54,554.4411 " fill="none" id="CsvSharedBoardProtocolProxy-to-BoardRepository" style="stroke:#181818;stroke-width:1.0;"/><polygon fill="#181818" points="430.15,558.4911,438.9925,554.154,433.3579,554.6558,432.8561,549.0213,430.15,558.4911" style="stroke:#181818;stroke-width:1.0;"/><text fill="#000000" font-family="sans-serif" font-size="13" lengthAdjust="spacing" textLength="62" x="469" y="524.6494">boardRepo</text></g><!--link SystemUser to Username--><g id="link_SystemUser_Username"><path codeLine="40" d="M781.6,461.3111 C807.3,492.3211 847.53,540.8811 874.33,573.2211 " fill="none" id="SystemUser-to-Username" style="stroke:#181818;stroke-width:1.0;"/><polygon fill="#181818" points="877.52,577.0811,874.8347,567.6054,874.3205,573.2388,868.687,572.7246,877.52,577.0811" style="stroke:#181818;stroke-width:1.0;"/></g><!--link JpaBoardRepository to BoardRepository--><g id="link_JpaBoardRepository_BoardRepository"><path codeLine="41" d="M167.19,607.6211 C176.95,607.6211 186.71,607.6211 196.46,607.6211 " fill="none" id="JpaBoardRepository-to-BoardRepository" style="stroke:#181818;stroke-width:1.0;"/><polygon fill="#181818" points="201.57,607.6211,192.57,603.6211,196.57,607.6211,192.57,611.6211,201.57,607.6211" style="stroke:#181818;stroke-width:1.0;"/></g><!--link InMemoryBoardRepository to BoardRepository--><g id="link_InMemoryBoardRepository_BoardRepository"><path codeLine="42" d="M613.3,607.6211 C603.37,607.6211 593.44,607.6211 583.5,607.6211 " fill="none" id="InMemoryBoardRepository-to-BoardRepository" style="stroke:#181818;stroke-width:1.0;"/><polygon fill="#181818" points="578.31,607.6211,587.31,611.6211,583.31,607.6211,587.31,603.6211,578.31,607.6211" style="stroke:#181818;stroke-width:1.0;"/></g><!--link ArchiveBoardUI to SystemUser--><g id="link_ArchiveBoardUI_SystemUser"><path codeLine="45" d="M600.6,124.0111 C630.99,144.2911 665.42,171.9811 688,204.6211 C728.93,263.7911 746.2,348.0111 752.99,394.8311 " fill="none" id="ArchiveBoardUI-to-SystemUser" style="stroke:#181818;stroke-width:1.0;stroke-dasharray:7.0,7.0;"/><polygon fill="#181818" points="753.69,399.7911,756.3923,390.3202,752.9909,394.8402,748.4709,391.4388,753.69,399.7911" style="stroke:#181818;stroke-width:1.0;"/></g><!--link ArchiveBoardUI to Board--><g id="link_ArchiveBoardUI_Board"><path codeLine="46" d="M471.18,125.7011 C441.2,146.1211 407,173.4311 383,204.6211 C342.94,256.6811 316.91,328.3011 302.62,376.6311 " fill="none" id="ArchiveBoardUI-to-Board" style="stroke:#181818;stroke-width:1.0;stroke-dasharray:7.0,7.0;"/><polygon fill="#181818" points="301.19,381.5311,307.55,374.0111,302.59,376.7311,299.87,371.7711,301.19,381.5311" style="stroke:#181818;stroke-width:1.0;"/></g><!--SRC=[ZLDDJ-Cm5BpxLpo9Grj1fQBbi0fL96Y5LAHbLrJbWZYyne_6oB4ZsuH5A_xxsau2_Kf4BexzPiRpnhOJJXBC95eBSu4RWmKCP_CHZ66rX1-JymbZWrWcox88kp9PBYgwrcZuQW7JQMd8adBeX5Pf2lyO-8_hPQxVXYFsmHhUROcHSq-bji9fynwuPAomZbH6WVhHO1Vg5nKUyGr2muX8N-UwG57R66Fjb4C2QwqbeOhMJYijEBJ5I8m-Qw7bkrSlLfRCZbfR3WM51VdYyE4CJcvkVbvVJ4PGeNmbqEiNoboQiYDPpRHoHaiPXR4ifSXs8pjTE3AubZID-1IaR_HAoZYplzyKUP-NDRHk5xVaXowlVtotSOpH2-Krdp4ZE8pIj1D1jjl4ir1ypyHh22VvZ6BNayMAZdkf8vdPQfcZQOB_OxJJcPP-_1iyPROgcwLkIniwY6NVGKyaWpkin2P6p_RkydYSTXrP0bxiQyuwO46XhyC4oZ3sqRSkO08XwZvmsrxRAUlR_9EmTGt2qsXMsDRE0TgUBploSW-LMDURFG9bWpcLfBX_nVxk7Pp28qUR4t_Q2QCFLRV-7m00]--></g></svg>