<?xml version="1.0" encoding="us-ascii" standalone="no"?><svg xmlns="http://www.w3.org/2000/svg" xmlns:xlink="http://www.w3.org/1999/xlink" contentStyleType="text/css" height="525px" preserveAspectRatio="none" style="width:1012px;height:525px;background:#FFFFFF;" version="1.1" viewBox="0 0 1012 525" width="1012px" zoomAndPan="magnify"><defs/><g><text fill="#000000" font-family="sans-serif" font-size="14" font-weight="bold" lengthAdjust="spacing" textLength="213" x="392.5" y="25.1074">Domain Classes (DC) - US 3010</text><!--cluster <<aggregate>> SystemUser--><g id="cluster_&lt;&lt;aggregate&gt;&gt; SystemUser"><path d="M816.5,253.6348 L992.5,253.6348 A3.75,3.75 0 0 1 995,256.1348 L1002,278.2559 L1002.5,278.2559 A2.5,2.5 0 0 1 1005,280.7559 L1005,506.6348 A2.5,2.5 0 0 1 1002.5,509.1348 L816.5,509.1348 A2.5,2.5 0 0 1 814,506.6348 L814,256.1348 A2.5,2.5 0 0 1 816.5,253.6348 " fill="none" style="stroke:#000000;stroke-width:1.5;"/><line style="stroke:#000000;stroke-width:1.5;" x1="814" x2="1002" y1="278.2559" y2="278.2559"/><text fill="#000000" font-family="sans-serif" font-size="14" font-weight="bold" lengthAdjust="spacing" textLength="175" x="818" y="270.7422">&#171;aggregate&#187; SystemUser</text></g><!--cluster <<aggregate>> Board--><g id="cluster_&lt;&lt;aggregate&gt;&gt; Board"><path d="M8.5,45.6348 L143.5,45.6348 A3.75,3.75 0 0 1 146,48.1348 L153,70.2559 L787.5,70.2559 A2.5,2.5 0 0 1 790,72.7559 L790,515.6348 A2.5,2.5 0 0 1 787.5,518.1348 L8.5,518.1348 A2.5,2.5 0 0 1 6,515.6348 L6,48.1348 A2.5,2.5 0 0 1 8.5,45.6348 " fill="none" style="stroke:#000000;stroke-width:1.5;"/><line style="stroke:#000000;stroke-width:1.5;" x1="6" x2="153" y1="70.2559" y2="70.2559"/><text fill="#000000" font-family="sans-serif" font-size="14" font-weight="bold" lengthAdjust="spacing" textLength="134" x="10" y="62.7422">&#171;aggregate&#187; Board</text></g><!--class SystemUser--><g id="elem_SystemUser"><rect codeLine="10" fill="#F1F1F1" height="68.543" id="SystemUser" rx="2.5" ry="2.5" style="stroke:#181818;stroke-width:0.5;" width="107" x="830.5" y="290.6348"/><ellipse cx="845.5" cy="320.9063" fill="#ADD1B2" rx="11" ry="11" style="stroke:#181818;stroke-width:1.0;"/><path d="M844.3594,321.7031 L844.3594,324.2031 L848.6875,324.2031 L848.6875,323.2813 Q848.6875,322.6719 848.9219,322.4063 Q849.1719,322.1406 849.5469,322.1406 Q849.9219,322.1406 850.1563,322.4063 Q850.3906,322.6719 850.3906,323.2813 L850.3906,325.9063 L842.3906,325.9063 Q841.7656,325.9063 841.5,325.6719 Q841.25,325.4375 841.25,325.0469 Q841.25,324.6719 841.5156,324.4375 Q841.7813,324.2031 842.3906,324.2031 L842.6563,324.2031 L842.6563,317.5469 L842.3906,317.5469 Q841.7656,317.5469 841.5,317.3125 Q841.25,317.0781 841.25,316.6875 Q841.25,316.3125 841.5,316.0781 Q841.7656,315.8438 842.3906,315.8438 L850.0156,315.8438 L850.0156,318.4375 Q850.0156,319.0469 849.7813,319.3125 Q849.5625,319.5625 849.1719,319.5625 Q848.7969,319.5625 848.5625,319.3125 Q848.3281,319.0469 848.3281,318.4375 L848.3281,317.5469 L844.3594,317.5469 L844.3594,320 L845.8438,320 Q845.8438,319.3438 845.9688,319.1563 Q846.2344,318.75 846.7031,318.75 Q847.0781,318.75 847.3125,319.0156 Q847.5469,319.2656 847.5469,319.875 L847.5469,321.8438 Q847.5469,322.3906 847.4219,322.5781 Q847.1563,322.9688 846.7031,322.9688 Q846.2344,322.9688 845.9688,322.5625 Q845.8438,322.375 845.8438,321.7031 L844.3594,321.7031 Z " fill="#000000"/><text fill="#000000" font-family="sans-serif" font-size="12" font-style="italic" lengthAdjust="spacing" textLength="43" x="875.5" y="308.584">&#171;entity&#187;</text><text fill="#000000" font-family="sans-serif" font-size="12" font-style="italic" lengthAdjust="spacing" textLength="35" x="879.5" y="324.5449">&#171;root&#187;</text><text fill="#000000" font-family="sans-serif" font-size="14" lengthAdjust="spacing" textLength="75" x="859.5" y="342.6641">SystemUser</text><line style="stroke:#181818;stroke-width:0.5;" x1="831.5" x2="936.5" y1="351.1777" y2="351.1777"/></g><!--class Username--><g id="elem_Username"><rect codeLine="11" fill="#F1F1F1" height="52.582" id="Username" rx="2.5" ry="2.5" style="stroke:#181818;stroke-width:0.5;" width="109" x="830.5" y="440.1348"/><ellipse cx="845.5" cy="462.4258" fill="#FF8B40" rx="11" ry="11" style="stroke:#181818;stroke-width:1.0;"/><path d="M846.0938,465.6914 L848.5625,459.8164 L848.1719,459.8164 Q847.5625,459.8164 847.2969,459.582 Q847.0313,459.3477 847.0313,458.957 Q847.0313,458.582 847.2969,458.3477 Q847.5625,458.1133 848.1719,458.1133 L850.4531,458.1133 Q851.0625,458.1133 851.3281,458.3477 Q851.5938,458.582 851.5938,458.957 Q851.5938,459.4258 851.1875,459.6914 Q851,459.8164 850.4063,459.8164 L846.9219,468.1758 L845.2813,468.1758 L841.7969,459.8164 Q841.2031,459.8164 841.0156,459.6914 Q840.6094,459.4258 840.6094,458.957 Q840.6094,458.582 840.875,458.3477 Q841.1406,458.1133 841.75,458.1133 L844.0469,458.1133 Q844.6563,458.1133 844.9063,458.3477 Q845.1719,458.582 845.1719,458.957 Q845.1719,459.3477 844.9063,459.582 Q844.6563,459.8164 844.0469,459.8164 L843.6406,459.8164 L846.0938,465.6914 Z " fill="#000000"/><text fill="#000000" font-family="sans-serif" font-size="12" font-style="italic" lengthAdjust="spacing" textLength="81" x="857.5" y="458.084">&#171;value object&#187;</text><text fill="#000000" font-family="sans-serif" font-size="14" lengthAdjust="spacing" textLength="64" x="866" y="476.2031">Username</text><line style="stroke:#181818;stroke-width:0.5;" x1="831.5" x2="938.5" y1="484.7168" y2="484.7168"/></g><!--class Board--><g id="elem_Board"><rect codeLine="16" fill="#F1F1F1" height="105.7852" id="Board" rx="2.5" ry="2.5" style="stroke:#181818;stroke-width:0.5;" width="71" x="459.5" y="82.6348"/><ellipse cx="474.5" cy="112.9063" fill="#ADD1B2" rx="11" ry="11" style="stroke:#181818;stroke-width:1.0;"/><path d="M473.3594,113.7031 L473.3594,116.2031 L477.6875,116.2031 L477.6875,115.2813 Q477.6875,114.6719 477.9219,114.4063 Q478.1719,114.1406 478.5469,114.1406 Q478.9219,114.1406 479.1563,114.4063 Q479.3906,114.6719 479.3906,115.2813 L479.3906,117.9063 L471.3906,117.9063 Q470.7656,117.9063 470.5,117.6719 Q470.25,117.4375 470.25,117.0469 Q470.25,116.6719 470.5156,116.4375 Q470.7813,116.2031 471.3906,116.2031 L471.6563,116.2031 L471.6563,109.5469 L471.3906,109.5469 Q470.7656,109.5469 470.5,109.3125 Q470.25,109.0781 470.25,108.6875 Q470.25,108.3125 470.5,108.0781 Q470.7656,107.8438 471.3906,107.8438 L479.0156,107.8438 L479.0156,110.4375 Q479.0156,111.0469 478.7813,111.3125 Q478.5625,111.5625 478.1719,111.5625 Q477.7969,111.5625 477.5625,111.3125 Q477.3281,111.0469 477.3281,110.4375 L477.3281,109.5469 L473.3594,109.5469 L473.3594,112 L474.8438,112 Q474.8438,111.3438 474.9688,111.1563 Q475.2344,110.75 475.7031,110.75 Q476.0781,110.75 476.3125,111.0156 Q476.5469,111.2656 476.5469,111.875 L476.5469,113.8438 Q476.5469,114.3906 476.4219,114.5781 Q476.1563,114.9688 475.7031,114.9688 Q475.2344,114.9688 474.9688,114.5625 Q474.8438,114.375 474.8438,113.7031 L473.3594,113.7031 Z " fill="#000000"/><text fill="#000000" font-family="sans-serif" font-size="12" font-style="italic" lengthAdjust="spacing" textLength="43" x="486.5" y="100.584">&#171;entity&#187;</text><text fill="#000000" font-family="sans-serif" font-size="12" font-style="italic" lengthAdjust="spacing" textLength="35" x="490.5" y="116.5449">&#171;root&#187;</text><text fill="#000000" font-family="sans-serif" font-size="14" lengthAdjust="spacing" textLength="38" x="489" y="134.6641">Board</text><line style="stroke:#181818;stroke-width:0.5;" x1="460.5" x2="529.5" y1="143.1777" y2="143.1777"/><text fill="#000000" font-family="sans-serif" font-size="14" lengthAdjust="spacing" textLength="22" x="465.5" y="162.2852">title</text><text fill="#000000" font-family="sans-serif" font-size="14" lengthAdjust="spacing" textLength="54" x="465.5" y="180.9063">archived</text></g><!--class BoardCreationDateTime--><g id="elem_BoardCreationDateTime"><rect codeLine="21" fill="#F1F1F1" height="71.2031" id="BoardCreationDateTime" rx="2.5" ry="2.5" style="stroke:#181818;stroke-width:0.5;" width="185" x="22.5" y="289.6348"/><ellipse cx="37.5" cy="311.9258" fill="#FF8B40" rx="11" ry="11" style="stroke:#181818;stroke-width:1.0;"/><path d="M38.0938,315.1914 L40.5625,309.3164 L40.1719,309.3164 Q39.5625,309.3164 39.2969,309.082 Q39.0313,308.8477 39.0313,308.457 Q39.0313,308.082 39.2969,307.8477 Q39.5625,307.6133 40.1719,307.6133 L42.4531,307.6133 Q43.0625,307.6133 43.3281,307.8477 Q43.5938,308.082 43.5938,308.457 Q43.5938,308.9258 43.1875,309.1914 Q43,309.3164 42.4063,309.3164 L38.9219,317.6758 L37.2813,317.6758 L33.7969,309.3164 Q33.2031,309.3164 33.0156,309.1914 Q32.6094,308.9258 32.6094,308.457 Q32.6094,308.082 32.875,307.8477 Q33.1406,307.6133 33.75,307.6133 L36.0469,307.6133 Q36.6563,307.6133 36.9063,307.8477 Q37.1719,308.082 37.1719,308.457 Q37.1719,308.8477 36.9063,309.082 Q36.6563,309.3164 36.0469,309.3164 L35.6406,309.3164 L38.0938,315.1914 Z " fill="#000000"/><text fill="#000000" font-family="sans-serif" font-size="12" font-style="italic" lengthAdjust="spacing" textLength="81" x="87.5" y="307.584">&#171;value object&#187;</text><text fill="#000000" font-family="sans-serif" font-size="14" lengthAdjust="spacing" textLength="153" x="51.5" y="325.7031">BoardCreationDateTime</text><line style="stroke:#181818;stroke-width:0.5;" x1="23.5" x2="206.5" y1="334.2168" y2="334.2168"/><text fill="#000000" font-family="sans-serif" font-size="14" lengthAdjust="spacing" textLength="59" x="28.5" y="353.3242">dateTime</text></g><!--class BoardDimensions--><g id="elem_BoardDimensions"><rect codeLine="25" fill="#F1F1F1" height="89.8242" id="BoardDimensions" rx="2.5" ry="2.5" style="stroke:#181818;stroke-width:0.5;" width="143" x="242.5" y="280.1348"/><ellipse cx="257.5" cy="302.4258" fill="#FF8B40" rx="11" ry="11" style="stroke:#181818;stroke-width:1.0;"/><path d="M258.0938,305.6914 L260.5625,299.8164 L260.1719,299.8164 Q259.5625,299.8164 259.2969,299.582 Q259.0313,299.3477 259.0313,298.957 Q259.0313,298.582 259.2969,298.3477 Q259.5625,298.1133 260.1719,298.1133 L262.4531,298.1133 Q263.0625,298.1133 263.3281,298.3477 Q263.5938,298.582 263.5938,298.957 Q263.5938,299.4258 263.1875,299.6914 Q263,299.8164 262.4063,299.8164 L258.9219,308.1758 L257.2813,308.1758 L253.7969,299.8164 Q253.2031,299.8164 253.0156,299.6914 Q252.6094,299.4258 252.6094,298.957 Q252.6094,298.582 252.875,298.3477 Q253.1406,298.1133 253.75,298.1133 L256.0469,298.1133 Q256.6563,298.1133 256.9063,298.3477 Q257.1719,298.582 257.1719,298.957 Q257.1719,299.3477 256.9063,299.582 Q256.6563,299.8164 256.0469,299.8164 L255.6406,299.8164 L258.0938,305.6914 Z " fill="#000000"/><text fill="#000000" font-family="sans-serif" font-size="12" font-style="italic" lengthAdjust="spacing" textLength="81" x="286.5" y="298.084">&#171;value object&#187;</text><text fill="#000000" font-family="sans-serif" font-size="14" lengthAdjust="spacing" textLength="111" x="271.5" y="316.2031">BoardDimensions</text><line style="stroke:#181818;stroke-width:0.5;" x1="243.5" x2="384.5" y1="324.7168" y2="324.7168"/><text fill="#000000" font-family="sans-serif" font-size="14" lengthAdjust="spacing" textLength="82" x="248.5" y="343.8242">numColumns</text><text fill="#000000" font-family="sans-serif" font-size="14" lengthAdjust="spacing" textLength="61" x="248.5" y="362.4453">numLines</text></g><!--class BoardElement--><g id="elem_BoardElement"><rect codeLine="31" fill="#F1F1F1" height="71.2031" id="BoardElement" rx="2.5" ry="2.5" style="stroke:#181818;stroke-width:0.5;" width="121" x="531.5" y="431.1348"/><ellipse cx="546.5" cy="453.4258" fill="#A9DCDF" rx="11" ry="11" style="stroke:#181818;stroke-width:1.0;"/><path d="M548.6875,455.1914 L544.5469,455.1914 L544.125,456.2227 L544.5469,456.2227 Q545.1563,456.2227 545.4219,456.457 Q545.6875,456.6914 545.6875,457.082 Q545.6875,457.457 545.4219,457.6914 Q545.1563,457.9258 544.5469,457.9258 L542.25,457.9258 Q541.6406,457.9258 541.3906,457.6914 Q541.125,457.457 541.125,457.0664 Q541.125,456.6914 541.4063,456.457 Q541.6719,456.207 542.2969,456.2227 L544.9688,449.5664 L543.8594,449.5664 Q543.25,449.5664 542.9844,449.332 Q542.7188,449.0977 542.7188,448.707 Q542.7188,448.332 542.9844,448.0977 Q543.25,447.8633 543.8594,447.8633 L547.5313,447.8633 L550.9219,456.2227 Q551.5156,456.2227 551.7031,456.3633 Q552.0938,456.6289 552.0938,457.082 Q552.0938,457.457 551.8281,457.6914 Q551.5781,457.9258 550.9688,457.9258 L548.6719,457.9258 Q548.0625,457.9258 547.7969,457.6914 Q547.5313,457.457 547.5313,457.0664 Q547.5313,456.6914 547.7969,456.457 Q548.0625,456.2227 548.6719,456.2227 L549.0938,456.2227 L548.6875,455.1914 Z M547.9688,453.4883 L546.6094,450.1133 L545.2344,453.4883 L547.9688,453.4883 Z " fill="#000000"/><text fill="#000000" font-family="sans-serif" font-size="12" font-style="italic" lengthAdjust="spacing" textLength="58" x="576" y="449.084">&#171;abstract&#187;</text><text fill="#000000" font-family="sans-serif" font-size="14" font-style="italic" lengthAdjust="spacing" textLength="89" x="560.5" y="467.2031">BoardElement</text><line style="stroke:#181818;stroke-width:0.5;" x1="532.5" x2="651.5" y1="475.7168" y2="475.7168"/><text fill="#000000" font-family="sans-serif" font-size="14" lengthAdjust="spacing" textLength="22" x="537.5" y="494.8242">title</text></g><!--class BoardElementLine--><g id="elem_BoardElementLine"><rect codeLine="35" fill="#F1F1F1" height="52.582" id="BoardElementLine" rx="2.5" ry="2.5" style="stroke:#181818;stroke-width:0.5;" width="148" x="421" y="298.6348"/><ellipse cx="436" cy="320.9258" fill="#ADD1B2" rx="11" ry="11" style="stroke:#181818;stroke-width:1.0;"/><path d="M434.8594,321.7227 L434.8594,324.2227 L439.1875,324.2227 L439.1875,323.3008 Q439.1875,322.6914 439.4219,322.4258 Q439.6719,322.1602 440.0469,322.1602 Q440.4219,322.1602 440.6563,322.4258 Q440.8906,322.6914 440.8906,323.3008 L440.8906,325.9258 L432.8906,325.9258 Q432.2656,325.9258 432,325.6914 Q431.75,325.457 431.75,325.0664 Q431.75,324.6914 432.0156,324.457 Q432.2813,324.2227 432.8906,324.2227 L433.1563,324.2227 L433.1563,317.5664 L432.8906,317.5664 Q432.2656,317.5664 432,317.332 Q431.75,317.0977 431.75,316.707 Q431.75,316.332 432,316.0977 Q432.2656,315.8633 432.8906,315.8633 L440.5156,315.8633 L440.5156,318.457 Q440.5156,319.0664 440.2813,319.332 Q440.0625,319.582 439.6719,319.582 Q439.2969,319.582 439.0625,319.332 Q438.8281,319.0664 438.8281,318.457 L438.8281,317.5664 L434.8594,317.5664 L434.8594,320.0195 L436.3438,320.0195 Q436.3438,319.3633 436.4688,319.1758 Q436.7344,318.7695 437.2031,318.7695 Q437.5781,318.7695 437.8125,319.0352 Q438.0469,319.2852 438.0469,319.8945 L438.0469,321.8633 Q438.0469,322.4102 437.9219,322.5977 Q437.6563,322.9883 437.2031,322.9883 Q436.7344,322.9883 436.4688,322.582 Q436.3438,322.3945 436.3438,321.7227 L434.8594,321.7227 Z " fill="#000000"/><text fill="#000000" font-family="sans-serif" font-size="12" font-style="italic" lengthAdjust="spacing" textLength="43" x="486.5" y="316.584">&#171;entity&#187;</text><text fill="#000000" font-family="sans-serif" font-size="14" lengthAdjust="spacing" textLength="116" x="450" y="334.7031">BoardElementLine</text><line style="stroke:#181818;stroke-width:0.5;" x1="422" x2="568" y1="343.2168" y2="343.2168"/></g><!--class BoardElementColumn--><g id="elem_BoardElementColumn"><rect codeLine="36" fill="#F1F1F1" height="52.582" id="BoardElementColumn" rx="2.5" ry="2.5" style="stroke:#181818;stroke-width:0.5;" width="169" x="604.5" y="298.6348"/><ellipse cx="619.5" cy="320.9258" fill="#ADD1B2" rx="11" ry="11" style="stroke:#181818;stroke-width:1.0;"/><path d="M618.3594,321.7227 L618.3594,324.2227 L622.6875,324.2227 L622.6875,323.3008 Q622.6875,322.6914 622.9219,322.4258 Q623.1719,322.1602 623.5469,322.1602 Q623.9219,322.1602 624.1563,322.4258 Q624.3906,322.6914 624.3906,323.3008 L624.3906,325.9258 L616.3906,325.9258 Q615.7656,325.9258 615.5,325.6914 Q615.25,325.457 615.25,325.0664 Q615.25,324.6914 615.5156,324.457 Q615.7813,324.2227 616.3906,324.2227 L616.6563,324.2227 L616.6563,317.5664 L616.3906,317.5664 Q615.7656,317.5664 615.5,317.332 Q615.25,317.0977 615.25,316.707 Q615.25,316.332 615.5,316.0977 Q615.7656,315.8633 616.3906,315.8633 L624.0156,315.8633 L624.0156,318.457 Q624.0156,319.0664 623.7813,319.332 Q623.5625,319.582 623.1719,319.582 Q622.7969,319.582 622.5625,319.332 Q622.3281,319.0664 622.3281,318.457 L622.3281,317.5664 L618.3594,317.5664 L618.3594,320.0195 L619.8438,320.0195 Q619.8438,319.3633 619.9688,319.1758 Q620.2344,318.7695 620.7031,318.7695 Q621.0781,318.7695 621.3125,319.0352 Q621.5469,319.2852 621.5469,319.8945 L621.5469,321.8633 Q621.5469,322.4102 621.4219,322.5977 Q621.1563,322.9883 620.7031,322.9883 Q620.2344,322.9883 619.9688,322.582 Q619.8438,322.3945 619.8438,321.7227 L618.3594,321.7227 Z " fill="#000000"/><text fill="#000000" font-family="sans-serif" font-size="12" font-style="italic" lengthAdjust="spacing" textLength="43" x="680.5" y="316.584">&#171;entity&#187;</text><text fill="#000000" font-family="sans-serif" font-size="14" lengthAdjust="spacing" textLength="137" x="633.5" y="334.7031">BoardElementColumn</text><line style="stroke:#181818;stroke-width:0.5;" x1="605.5" x2="772.5" y1="343.2168" y2="343.2168"/></g><!--link SystemUser to Username--><g id="link_SystemUser_Username"><path codeLine="39" d="M884.24,359.9048 C884.41,382.7448 884.62,412.6848 884.78,434.8648 " fill="none" id="SystemUser-to-Username" style="stroke:#181818;stroke-width:1.0;"/><polygon fill="#181818" points="884.82,440.0448,888.7685,431.0221,884.7914,435.0448,880.7686,431.0678,884.82,440.0448" style="stroke:#181818;stroke-width:1.0;"/></g><!--link Board to BoardDimensions--><g id="link_Board_BoardDimensions"><path codeLine="41" d="M459.24,173.6748 C430.93,203.0148 391.16,244.2048 360.4,276.0748 " fill="none" id="Board-to-BoardDimensions" style="stroke:#181818;stroke-width:1.0;"/><polygon fill="#181818" points="356.69,279.9148,365.8166,276.2127,360.1607,276.3155,360.0578,270.6596,356.69,279.9148" style="stroke:#181818;stroke-width:1.0;"/></g><!--link Board to BoardCreationDateTime--><g id="link_Board_BoardCreationDateTime"><path codeLine="42" d="M459.27,148.0348 C406.41,165.5648 305,201.7448 225,245.6348 C203.58,257.3848 181.39,272.5648 162.59,286.4348 " fill="none" id="Board-to-BoardCreationDateTime" style="stroke:#181818;stroke-width:1.0;"/><polygon fill="#181818" points="158.39,289.5648,167.9987,287.4032,162.402,286.5808,163.2243,280.984,158.39,289.5648" style="stroke:#181818;stroke-width:1.0;"/></g><!--link Board to BoardElementLine--><g id="link_Board_BoardElementLine"><path codeLine="43" d="M495,188.8648 C495,222.5248 495,265.1448 495,293.4548 " fill="none" id="Board-to-BoardElementLine" style="stroke:#181818;stroke-width:1.0;"/><polygon fill="#181818" points="495,298.5648,499,289.5648,495,293.5648,491,289.5648,495,298.5648" style="stroke:#181818;stroke-width:1.0;"/><polygon fill="#000000" points="500,233.2803,502.9389,224.2352,497.0611,224.2352,500,233.2803" style="stroke:#000000;stroke-width:1.0;"/><text fill="#000000" font-family="sans-serif" font-size="13" lengthAdjust="spacing" textLength="21" x="509" y="233.6631">has</text><text fill="#000000" font-family="sans-serif" font-size="13" lengthAdjust="spacing" textLength="7" x="487.5734" y="210.4473">1</text><text fill="#000000" font-family="sans-serif" font-size="13" lengthAdjust="spacing" textLength="20" x="472.6875" y="287.5651">1..*</text></g><!--link Board to BoardElementColumn--><g id="link_Board_BoardElementColumn"><path codeLine="44" d="M530.58,171.0248 C567.31,206.5248 624,261.3048 658.67,294.8148 " fill="none" id="Board-to-BoardElementColumn" style="stroke:#181818;stroke-width:1.0;"/><polygon fill="#181818" points="662.37,298.3948,658.6861,289.2608,658.7777,294.9169,653.1216,295.0085,662.37,298.3948" style="stroke:#181818;stroke-width:1.0;"/><polygon fill="#000000" points="605.5954,231.7549,601.1336,223.3559,597.0489,227.5825,605.5954,231.7549" style="stroke:#000000;stroke-width:1.0;"/><text fill="#000000" font-family="sans-serif" font-size="13" lengthAdjust="spacing" textLength="21" x="611" y="233.6631">has</text><text fill="#000000" font-family="sans-serif" font-size="13" lengthAdjust="spacing" textLength="7" x="538.6403" y="173.6513">1</text><text fill="#000000" font-family="sans-serif" font-size="13" lengthAdjust="spacing" textLength="20" x="633.8993" y="287.3558">1..*</text></g><!--link Board to SystemUser--><g id="link_Board_SystemUser"><path codeLine="45" d="M530.78,145.5848 C588.08,160.8248 702.82,195.1548 790,245.6348 C809.68,257.0248 829.32,272.6048 845.52,286.8748 " fill="none" id="Board-to-SystemUser" style="stroke:#181818;stroke-width:1.0;"/><polygon fill="#181818" points="849.56,290.4748,845.4929,281.5049,845.8237,287.1521,840.1766,287.4829,849.56,290.4748" style="stroke:#181818;stroke-width:1.0;"/><polygon fill="#000000" points="784.5615,230.328,777.5133,223.9425,775.1061,229.3048,784.5615,230.328" style="stroke:#000000;stroke-width:1.0;"/><text fill="#000000" font-family="sans-serif" font-size="13" lengthAdjust="spacing" textLength="61" x="789" y="233.6631">created by</text><text fill="#000000" font-family="sans-serif" font-size="13" lengthAdjust="spacing" textLength="20" x="538.3623" y="142.8951">0..*</text><text fill="#000000" font-family="sans-serif" font-size="13" lengthAdjust="spacing" textLength="7" x="835.3277" y="279.347">1</text></g><!--link BoardElementLine to BoardElement--><g id="link_BoardElementLine_BoardElement"><path codeLine="47" d="M512.79,351.7248 C525,369.2848 541.63,393.1948 556.5,414.5748 " fill="none" id="BoardElementLine-to-BoardElement" style="stroke:#181818;stroke-width:1.0;"/><polygon fill="none" points="562.26,410.5948,567.93,431.0148,550.76,418.5948,562.26,410.5948" style="stroke:#181818;stroke-width:1.0;"/></g><!--link BoardElementColumn to BoardElement--><g id="link_BoardElementColumn_BoardElement"><path codeLine="48" d="M671.21,351.7248 C659,369.2848 642.37,393.1948 627.5,414.5748 " fill="none" id="BoardElementColumn-to-BoardElement" style="stroke:#181818;stroke-width:1.0;"/><polygon fill="none" points="633.24,418.5948,616.07,431.0148,621.74,410.5948,633.24,418.5948" style="stroke:#181818;stroke-width:1.0;"/></g><!--SRC=[ZP9FJy904CNl-oaczI0QIqhqO4ZJHAWa9juGxzjs0YljBjaTC8XyTxVR2Yj_WZsrCxzvxtLsIIs056IAI5LG28qv2IKP8q4bGgegBYGCIsuC6kYamni8OJA6-wWNCJOJ1KA5D5E5OMOkv89hNa5Uuqz4McHBmfTSoR7uGh03r-Er8Qmc1ZLRy7pEfmX17FFfLEEK4oO9x8a0DWpiWzA6MNiDYEEcPl4uragHVTbi7UoyeQOahz2sE-ztS3KQFGuUeXjOyNA9eB8F-vj9mhOsqK1nNPmBuve7ELpjT0I7rO_RtkwBwtmcLbYuWlNSvtHQGusyNdfgFT_4fT2UIz4EdD5DRKiQAsp-hIYNrL2LoqeQl_Gg91hVf5dQSudMW5o5PuOqpmdyZhNzhP_PJgldRxQThJsz9P_3chG-Q2MzcnA6oUuoCDOSNLYeJnacXqiwrJqycfO9Ue5J3dhTxcrmdBiFCsuWkKotyG_uo77DIE3V-pxaTI0i85jRd1qPD-6_apycx8JZQV07]--></g></svg>