<?xml version="1.0" encoding="us-ascii" standalone="no"?><svg xmlns="http://www.w3.org/2000/svg" xmlns:xlink="http://www.w3.org/1999/xlink" contentStyleType="text/css" height="805px" preserveAspectRatio="none" style="width:1204px;height:805px;background:#FFFFFF;" version="1.1" viewBox="0 0 1204 805" width="1204px" zoomAndPan="magnify"><defs/><g><text fill="#000000" font-family="sans-serif" font-size="14" font-weight="bold" lengthAdjust="spacing" textLength="233" x="487" y="30.1074">Sequence Diagram (SD) - US 3010</text><rect fill="#FFFFFF" height="549.9473" style="stroke:#181818;stroke-width:1.0;" width="10" x="31.5" y="137.8633"/><rect fill="#FFFFFF" height="526.6563" style="stroke:#181818;stroke-width:1.0;" width="10" x="294.5" y="161.1543"/><rect fill="#FFFFFF" height="31.291" style="stroke:#181818;stroke-width:1.0;" width="10" x="656.5" y="223.7363"/><rect fill="#FFFFFF" height="125.1641" style="stroke:#181818;stroke-width:1.0;" width="10" x="656.5" y="531.3555"/><rect fill="#FFFFFF" height="31.291" style="stroke:#181818;stroke-width:1.0;" width="10" x="847.5" y="255.0273"/><rect fill="#FFFFFF" height="31.291" style="stroke:#181818;stroke-width:1.0;" width="10" x="847.5" y="593.9375"/><line style="stroke:#181818;stroke-width:0.5;stroke-dasharray:5.0,5.0;" x1="36" x2="36" y1="127.8633" y2="705.8105"/><line style="stroke:#181818;stroke-width:0.5;stroke-dasharray:5.0,5.0;" x1="299" x2="299" y1="127.8633" y2="705.8105"/><line style="stroke:#181818;stroke-width:0.5;stroke-dasharray:5.0,5.0;" x1="661" x2="661" y1="127.8633" y2="705.8105"/><line style="stroke:#181818;stroke-width:0.5;stroke-dasharray:5.0,5.0;" x1="852" x2="852" y1="127.8633" y2="705.8105"/><line style="stroke:#181818;stroke-width:0.5;stroke-dasharray:5.0,5.0;" x1="1024" x2="1024" y1="127.8633" y2="705.8105"/><line style="stroke:#181818;stroke-width:0.5;stroke-dasharray:5.0,5.0;" x1="1147" x2="1147" y1="127.8633" y2="705.8105"/><text fill="#000000" font-family="sans-serif" font-size="14" lengthAdjust="spacing" textLength="57" x="5" y="124.3496">Utilizador</text><ellipse cx="36.5" cy="57.7422" fill="#E3E3E3" rx="8" ry="8" style="stroke:#181818;stroke-width:0.5;"/><path d="M36.5,65.7422 L36.5,92.7422 M23.5,73.7422 L49.5,73.7422 M36.5,92.7422 L23.5,107.7422 M36.5,92.7422 L49.5,107.7422 " fill="none" style="stroke:#181818;stroke-width:0.5;"/><text fill="#000000" font-family="sans-serif" font-size="14" lengthAdjust="spacing" textLength="57" x="5" y="719.918">Utilizador</text><ellipse cx="36.5" cy="731.9316" fill="#E3E3E3" rx="8" ry="8" style="stroke:#181818;stroke-width:0.5;"/><path d="M36.5,739.9316 L36.5,766.9316 M23.5,747.9316 L49.5,747.9316 M36.5,766.9316 L23.5,781.9316 M36.5,766.9316 L49.5,781.9316 " fill="none" style="stroke:#181818;stroke-width:0.5;"/><rect fill="#E3E3E3" height="51.2422" rx="2.5" ry="2.5" style="stroke:#181818;stroke-width:0.5;" width="111" x="244" y="75.6211"/><text fill="#000000" font-family="sans-serif" font-size="14" font-style="italic" lengthAdjust="spacing" textLength="95" x="252" y="97.7285">&#171;presentation&#187;</text><text fill="#000000" font-family="sans-serif" font-size="14" lengthAdjust="spacing" textLength="97" x="251" y="116.3496">ArchiveBoardUI</text><rect fill="#E3E3E3" height="51.2422" rx="2.5" ry="2.5" style="stroke:#181818;stroke-width:0.5;" width="111" x="244" y="704.8105"/><text fill="#000000" font-family="sans-serif" font-size="14" font-style="italic" lengthAdjust="spacing" textLength="95" x="252" y="726.918">&#171;presentation&#187;</text><text fill="#000000" font-family="sans-serif" font-size="14" lengthAdjust="spacing" textLength="97" x="251" y="745.5391">ArchiveBoardUI</text><text fill="#000000" font-family="sans-serif" font-size="14" font-style="italic" lengthAdjust="spacing" textLength="84" x="616.5" y="105.7285">&#171;application&#187;</text><text fill="#000000" font-family="sans-serif" font-size="14" lengthAdjust="spacing" textLength="147" x="585" y="124.3496">ArchiveBoardController</text><ellipse cx="661.5" cy="74.6211" fill="#E3E3E3" rx="12" ry="12" style="stroke:#181818;stroke-width:0.5;"/><polygon fill="#181818" points="657.5,62.6211,663.5,57.6211,661.5,62.6211,663.5,67.6211,657.5,62.6211" style="stroke:#181818;stroke-width:1.0;"/><text fill="#000000" font-family="sans-serif" font-size="14" font-style="italic" lengthAdjust="spacing" textLength="84" x="616.5" y="719.918">&#171;application&#187;</text><text fill="#000000" font-family="sans-serif" font-size="14" lengthAdjust="spacing" textLength="147" x="585" y="738.5391">ArchiveBoardController</text><ellipse cx="661.5" cy="758.0527" fill="#E3E3E3" rx="12" ry="12" style="stroke:#181818;stroke-width:0.5;"/><polygon fill="#181818" points="657.5,746.0527,663.5,741.0527,661.5,746.0527,663.5,751.0527,657.5,746.0527" style="stroke:#181818;stroke-width:1.0;"/><rect fill="#E3E3E3" height="51.2422" rx="2.5" ry="2.5" style="stroke:#181818;stroke-width:0.5;" width="209" x="748" y="75.6211"/><text fill="#000000" font-family="sans-serif" font-size="14" font-style="italic" lengthAdjust="spacing" textLength="87" x="809" y="97.7285">&#171;csvprotocol&#187;</text><text fill="#000000" font-family="sans-serif" font-size="14" lengthAdjust="spacing" textLength="195" x="755" y="116.3496">CsvSharedBoardProtocolProxy</text><rect fill="#E3E3E3" height="51.2422" rx="2.5" ry="2.5" style="stroke:#181818;stroke-width:0.5;" width="209" x="748" y="704.8105"/><text fill="#000000" font-family="sans-serif" font-size="14" font-style="italic" lengthAdjust="spacing" textLength="87" x="809" y="726.918">&#171;csvprotocol&#187;</text><text fill="#000000" font-family="sans-serif" font-size="14" lengthAdjust="spacing" textLength="195" x="755" y="745.5391">CsvSharedBoardProtocolProxy</text><rect fill="#E3E3E3" height="51.2422" rx="2.5" ry="2.5" style="stroke:#181818;stroke-width:0.5;" width="114" x="967" y="75.6211"/><text fill="#000000" font-family="sans-serif" font-size="14" font-style="italic" lengthAdjust="spacing" textLength="62" x="993" y="97.7285">&#171;domain&#187;</text><text fill="#000000" font-family="sans-serif" font-size="14" lengthAdjust="spacing" textLength="100" x="974" y="116.3496">theBoard:Board</text><rect fill="#E3E3E3" height="51.2422" rx="2.5" ry="2.5" style="stroke:#181818;stroke-width:0.5;" width="114" x="967" y="704.8105"/><text fill="#000000" font-family="sans-serif" font-size="14" font-style="italic" lengthAdjust="spacing" textLength="62" x="993" y="726.918">&#171;domain&#187;</text><text fill="#000000" font-family="sans-serif" font-size="14" lengthAdjust="spacing" textLength="100" x="974" y="745.5391">theBoard:Board</text><text fill="#000000" font-family="sans-serif" font-size="14" font-style="italic" lengthAdjust="spacing" textLength="79" x="1104.5" y="105.7285">&#171;repository&#187;</text><text fill="#000000" font-family="sans-serif" font-size="14" lengthAdjust="spacing" textLength="106" x="1091" y="124.3496">BoardRepository</text><path d="M1129,54.6211 C1129,44.6211 1147,44.6211 1147,44.6211 C1147,44.6211 1165,44.6211 1165,54.6211 L1165,80.6211 C1165,90.6211 1147,90.6211 1147,90.6211 C1147,90.6211 1129,90.6211 1129,80.6211 L1129,54.6211 " fill="#E3E3E3" style="stroke:#181818;stroke-width:1.5;"/><path d="M1129,54.6211 C1129,64.6211 1147,64.6211 1147,64.6211 C1147,64.6211 1165,64.6211 1165,54.6211 " fill="none" style="stroke:#181818;stroke-width:1.5;"/><text fill="#000000" font-family="sans-serif" font-size="14" font-style="italic" lengthAdjust="spacing" textLength="79" x="1104.5" y="719.918">&#171;repository&#187;</text><text fill="#000000" font-family="sans-serif" font-size="14" lengthAdjust="spacing" textLength="106" x="1091" y="738.5391">BoardRepository</text><path d="M1129,752.0527 C1129,742.0527 1147,742.0527 1147,742.0527 C1147,742.0527 1165,742.0527 1165,752.0527 L1165,778.0527 C1165,788.0527 1147,788.0527 1147,788.0527 C1147,788.0527 1129,788.0527 1129,778.0527 L1129,752.0527 " fill="#E3E3E3" style="stroke:#181818;stroke-width:1.5;"/><path d="M1129,752.0527 C1129,762.0527 1147,762.0527 1147,762.0527 C1147,762.0527 1165,762.0527 1165,752.0527 " fill="none" style="stroke:#181818;stroke-width:1.5;"/><rect fill="#FFFFFF" height="549.9473" style="stroke:#181818;stroke-width:1.0;" width="10" x="31.5" y="137.8633"/><rect fill="#FFFFFF" height="526.6563" style="stroke:#181818;stroke-width:1.0;" width="10" x="294.5" y="161.1543"/><rect fill="#FFFFFF" height="31.291" style="stroke:#181818;stroke-width:1.0;" width="10" x="656.5" y="223.7363"/><rect fill="#FFFFFF" height="125.1641" style="stroke:#181818;stroke-width:1.0;" width="10" x="656.5" y="531.3555"/><rect fill="#FFFFFF" height="31.291" style="stroke:#181818;stroke-width:1.0;" width="10" x="847.5" y="255.0273"/><rect fill="#FFFFFF" height="31.291" style="stroke:#181818;stroke-width:1.0;" width="10" x="847.5" y="593.9375"/><polygon fill="#181818" points="282.5,157.1543,292.5,161.1543,282.5,165.1543,286.5,161.1543" style="stroke:#181818;stroke-width:1.0;"/><line style="stroke:#181818;stroke-width:1.0;" x1="41.5" x2="288.5" y1="161.1543" y2="161.1543"/><text fill="#000000" font-family="sans-serif" font-size="13" font-weight="bold" lengthAdjust="spacing" textLength="7" x="48.5" y="155.8916">1</text><text fill="#000000" font-family="sans-serif" font-size="13" lengthAdjust="spacing" textLength="172" x="59.5" y="155.8916">Pede para arquivar uma board</text><polygon fill="#181818" points="649.5,188.4453,659.5,192.4453,649.5,196.4453,653.5,192.4453" style="stroke:#181818;stroke-width:1.0;"/><line style="stroke:#181818;stroke-width:1.0;" x1="304.5" x2="655.5" y1="192.4453" y2="192.4453"/><text fill="#000000" font-family="sans-serif" font-size="13" font-weight="bold" lengthAdjust="spacing" textLength="7" x="311.5" y="187.1826">2</text><text fill="#000000" font-family="sans-serif" font-size="13" lengthAdjust="spacing" textLength="36" x="322.5" y="187.1826">create</text><polygon fill="#181818" points="644.5,219.7363,654.5,223.7363,644.5,227.7363,648.5,223.7363" style="stroke:#181818;stroke-width:1.0;"/><line style="stroke:#181818;stroke-width:1.0;" x1="304.5" x2="650.5" y1="223.7363" y2="223.7363"/><text fill="#000000" font-family="sans-serif" font-size="13" font-weight="bold" lengthAdjust="spacing" textLength="7" x="311.5" y="218.4736">3</text><text fill="#000000" font-family="sans-serif" font-size="13" lengthAdjust="spacing" textLength="121" x="322.5" y="218.4736">listAllBoardsOwned()</text><polygon fill="#181818" points="835.5,251.0273,845.5,255.0273,835.5,259.0273,839.5,255.0273" style="stroke:#181818;stroke-width:1.0;"/><line style="stroke:#181818;stroke-width:1.0;" x1="661.5" x2="841.5" y1="255.0273" y2="255.0273"/><text fill="#000000" font-family="sans-serif" font-size="13" font-weight="bold" lengthAdjust="spacing" textLength="7" x="668.5" y="249.7646">4</text><text fill="#000000" font-family="sans-serif" font-size="13" lengthAdjust="spacing" textLength="122" x="679.5" y="249.7646">getAllBoardsOwned()</text><polygon fill="#181818" points="1135,282.3184,1145,286.3184,1135,290.3184,1139,286.3184" style="stroke:#181818;stroke-width:1.0;"/><line style="stroke:#181818;stroke-width:1.0;" x1="852.5" x2="1141" y1="286.3184" y2="286.3184"/><text fill="#000000" font-family="sans-serif" font-size="13" font-weight="bold" lengthAdjust="spacing" textLength="7" x="859.5" y="281.0557">5</text><text fill="#000000" font-family="sans-serif" font-size="13" lengthAdjust="spacing" textLength="149" x="870.5" y="281.0557">findAllBoardsOwned(user)</text><line style="stroke:#181818;stroke-width:1.0;stroke-dasharray:2.0,2.0;" x1="304.5" x2="346.5" y1="317.6094" y2="317.6094"/><line style="stroke:#181818;stroke-width:1.0;stroke-dasharray:2.0,2.0;" x1="346.5" x2="346.5" y1="317.6094" y2="330.6094"/><line style="stroke:#181818;stroke-width:1.0;stroke-dasharray:2.0,2.0;" x1="305.5" x2="346.5" y1="330.6094" y2="330.6094"/><polygon fill="#181818" points="315.5,326.6094,305.5,330.6094,315.5,334.6094,311.5,330.6094" style="stroke:#181818;stroke-width:1.0;"/><text fill="#000000" font-family="sans-serif" font-size="13" font-weight="bold" lengthAdjust="spacing" textLength="7" x="311.5" y="312.3467">6</text><text fill="#000000" font-family="sans-serif" font-size="13" lengthAdjust="spacing" textLength="327" x="322.5" y="312.3467">Mostra a lista de board ativas em que o utilizador &#233; dono</text><polygon fill="#181818" points="52.5,357.9004,42.5,361.9004,52.5,365.9004,48.5,361.9004" style="stroke:#181818;stroke-width:1.0;"/><line style="stroke:#181818;stroke-width:1.0;stroke-dasharray:2.0,2.0;" x1="46.5" x2="293.5" y1="361.9004" y2="361.9004"/><text fill="#000000" font-family="sans-serif" font-size="13" font-weight="bold" lengthAdjust="spacing" textLength="7" x="58.5" y="356.6377">7</text><text fill="#000000" font-family="sans-serif" font-size="13" lengthAdjust="spacing" textLength="218" x="69.5" y="356.6377">Pede para escolher a board a arquivar</text><polygon fill="#181818" points="282.5,389.1914,292.5,393.1914,282.5,397.1914,286.5,393.1914" style="stroke:#181818;stroke-width:1.0;"/><line style="stroke:#181818;stroke-width:1.0;" x1="41.5" x2="288.5" y1="393.1914" y2="393.1914"/><text fill="#000000" font-family="sans-serif" font-size="13" font-weight="bold" lengthAdjust="spacing" textLength="7" x="48.5" y="387.9287">8</text><text fill="#000000" font-family="sans-serif" font-size="13" lengthAdjust="spacing" textLength="153" x="59.5" y="387.9287">Escolhe a board a arquivar</text><line style="stroke:#181818;stroke-width:1.0;stroke-dasharray:2.0,2.0;" x1="304.5" x2="346.5" y1="424.4824" y2="424.4824"/><line style="stroke:#181818;stroke-width:1.0;stroke-dasharray:2.0,2.0;" x1="346.5" x2="346.5" y1="424.4824" y2="437.4824"/><line style="stroke:#181818;stroke-width:1.0;stroke-dasharray:2.0,2.0;" x1="305.5" x2="346.5" y1="437.4824" y2="437.4824"/><polygon fill="#181818" points="315.5,433.4824,305.5,437.4824,315.5,441.4824,311.5,437.4824" style="stroke:#181818;stroke-width:1.0;"/><text fill="#000000" font-family="sans-serif" font-size="13" font-weight="bold" lengthAdjust="spacing" textLength="7" x="311.5" y="419.2197">9</text><text fill="#000000" font-family="sans-serif" font-size="13" lengthAdjust="spacing" textLength="210" x="322.5" y="419.2197">Mostra os dados da board a arquivar</text><polygon fill="#181818" points="52.5,464.7734,42.5,468.7734,52.5,472.7734,48.5,468.7734" style="stroke:#181818;stroke-width:1.0;"/><line style="stroke:#181818;stroke-width:1.0;stroke-dasharray:2.0,2.0;" x1="46.5" x2="293.5" y1="468.7734" y2="468.7734"/><text fill="#000000" font-family="sans-serif" font-size="13" font-weight="bold" lengthAdjust="spacing" textLength="14" x="58.5" y="463.5107">10</text><text fill="#000000" font-family="sans-serif" font-size="13" lengthAdjust="spacing" textLength="179" x="76.5" y="463.5107">Pede confirma&#231;&#227;o da opera&#231;&#227;o</text><polygon fill="#181818" points="282.5,496.0645,292.5,500.0645,282.5,504.0645,286.5,500.0645" style="stroke:#181818;stroke-width:1.0;"/><line style="stroke:#181818;stroke-width:1.0;" x1="41.5" x2="288.5" y1="500.0645" y2="500.0645"/><text fill="#000000" font-family="sans-serif" font-size="13" font-weight="bold" lengthAdjust="spacing" textLength="14" x="48.5" y="494.8018">11</text><text fill="#000000" font-family="sans-serif" font-size="13" lengthAdjust="spacing" textLength="119" x="66.5" y="494.8018">Confirma a opera&#231;&#227;o</text><polygon fill="#181818" points="644.5,527.3555,654.5,531.3555,644.5,535.3555,648.5,531.3555" style="stroke:#181818;stroke-width:1.0;"/><line style="stroke:#181818;stroke-width:1.0;" x1="304.5" x2="650.5" y1="531.3555" y2="531.3555"/><text fill="#000000" font-family="sans-serif" font-size="13" font-weight="bold" lengthAdjust="spacing" textLength="14" x="311.5" y="526.0928">12</text><text fill="#000000" font-family="sans-serif" font-size="13" lengthAdjust="spacing" textLength="134" x="329.5" y="526.0928">archiveBoard(theBoard)</text><polygon fill="#181818" points="1012,558.6465,1022,562.6465,1012,566.6465,1016,562.6465" style="stroke:#181818;stroke-width:1.0;"/><line style="stroke:#181818;stroke-width:1.0;" x1="666.5" x2="1018" y1="562.6465" y2="562.6465"/><text fill="#000000" font-family="sans-serif" font-size="13" font-weight="bold" lengthAdjust="spacing" textLength="14" x="673.5" y="557.3838">13</text><text fill="#000000" font-family="sans-serif" font-size="13" lengthAdjust="spacing" textLength="82" x="691.5" y="557.3838">archiveBoard()</text><polygon fill="#181818" points="835.5,589.9375,845.5,593.9375,835.5,597.9375,839.5,593.9375" style="stroke:#181818;stroke-width:1.0;"/><line style="stroke:#181818;stroke-width:1.0;" x1="666.5" x2="841.5" y1="593.9375" y2="593.9375"/><text fill="#000000" font-family="sans-serif" font-size="13" font-weight="bold" lengthAdjust="spacing" textLength="14" x="673.5" y="588.6748">14</text><text fill="#000000" font-family="sans-serif" font-size="13" lengthAdjust="spacing" textLength="120" x="691.5" y="588.6748">saveBoard(theBoard)</text><polygon fill="#181818" points="1135,621.2285,1145,625.2285,1135,629.2285,1139,625.2285" style="stroke:#181818;stroke-width:1.0;"/><line style="stroke:#181818;stroke-width:1.0;" x1="852.5" x2="1141" y1="625.2285" y2="625.2285"/><text fill="#000000" font-family="sans-serif" font-size="13" font-weight="bold" lengthAdjust="spacing" textLength="14" x="859.5" y="619.9658">15</text><text fill="#000000" font-family="sans-serif" font-size="13" lengthAdjust="spacing" textLength="86" x="877.5" y="619.9658">save(theBoard)</text><polygon fill="#181818" points="315.5,652.5195,305.5,656.5195,315.5,660.5195,311.5,656.5195" style="stroke:#181818;stroke-width:1.0;"/><line style="stroke:#181818;stroke-width:1.0;stroke-dasharray:2.0,2.0;" x1="309.5" x2="660.5" y1="656.5195" y2="656.5195"/><text fill="#000000" font-family="sans-serif" font-size="13" font-weight="bold" lengthAdjust="spacing" textLength="14" x="321.5" y="651.2568">16</text><text fill="#000000" font-family="sans-serif" font-size="13" lengthAdjust="spacing" textLength="52" x="339.5" y="651.2568">theBoard</text><polygon fill="#181818" points="47.5,683.8105,37.5,687.8105,47.5,691.8105,43.5,687.8105" style="stroke:#181818;stroke-width:1.0;"/><line style="stroke:#181818;stroke-width:1.0;stroke-dasharray:2.0,2.0;" x1="41.5" x2="298.5" y1="687.8105" y2="687.8105"/><text fill="#000000" font-family="sans-serif" font-size="13" font-weight="bold" lengthAdjust="spacing" textLength="14" x="53.5" y="682.5479">17</text><text fill="#000000" font-family="sans-serif" font-size="13" lengthAdjust="spacing" textLength="181" x="71.5" y="682.5479">Informa o sucesso da opera&#231;&#227;o</text><!--SRC=[dLJ1Rk8m4BtxAqOzmQ5ILxsX28c5FN1OjLh41mpEGAmcTcexTBk_iuVLVWS_jcE7f8O6McqEnexVUpEycObxKhf6YnLKHXjPM5CHUDkGSFrDZV89TxJohoM19UbHxyeKu0hCpOlIEzXYwKW8hpn3L_JSa9O42uMxW1kj5cEuXVKAxk- -t0bilD5DjI4h14flBAozAjKl5hE03cRXdU0GNabLe_Omix9GU_fgqERhPS3mccMr9KVQerT6JwT26ksjAK_Gy_PTIL4vEMKPrdMfP4TEmytTVbMWfJnAF5hZZJGb__vy3Ihj9ikaszV7kpE16r-quITnlGciXQbGQQRbSSEC73rkq154q0-gZLFypsECv9HbjZymArYczkZfw1Fm4tTmEmssJE2HSe9G8K3xt33MGbCXR4AK2EyLriju3WypcPyOD05fYK7N4ALoVbQMCN_tyA8f7ur5J-Z3l77wk_0aKYpSkZg17RsNx1WvNTFixwBKIQXMdACalavWgtH-5gjnP0VZjPgYCwBp-hjnFXWThK0cj3O31fe3ge1d0GmqRnr- -0ivpzo9Lbl0j7JakAsAqBQTObzDCL3pRoty8deWP-CWvuJ2UfrqaXmFsLRP2Wz_3hzDe9gQR7iQocj-XCDxu8MUmcHwHzqS_NTN7QVkJ7RyYJvqU2M93zhjSii5rKGm9Gmtsr2IdRcTpWVpCLJBfTwQK1O3hf7at7afpzJuGv6SsW_FFm00]--></g></svg>