<?xml version="1.0" encoding="us-ascii" standalone="no"?><svg xmlns="http://www.w3.org/2000/svg" xmlns:xlink="http://www.w3.org/1999/xlink" contentStyleType="text/css" height="136.5px" preserveAspectRatio="none" style="width:361px;height:136px;background:#FFFFFF;" version="1.1" viewBox="0 0 361 136" width="361.5px" zoomAndPan="magnify"><defs/><g><ellipse cx="8" cy="16" fill="#222222" rx="5" ry="5" style="stroke:none;stroke-width:0.5;"/><g id="created"><rect fill="#F1F1F1" height="25" rx="6.25" ry="6.25" style="stroke:#181818;stroke-width:0.25;" width="34" x="74.5" y="3.5"/><line style="stroke:#181818;stroke-width:0.25;" x1="74.5" x2="108.5" y1="17.8105" y2="17.8105"/><text fill="#000000" font-family="sans-serif" font-size="7" lengthAdjust="spacing" textLength="24" x="79.5" y="13.5537">created</text></g><g id="canceled"><rect fill="#F1F1F1" height="25" rx="6.25" ry="6.25" style="stroke:#181818;stroke-width:0.25;" width="38.5" x="99.25" y="68"/><line style="stroke:#181818;stroke-width:0.25;" x1="99.25" x2="137.75" y1="82.3105" y2="82.3105"/><text fill="#000000" font-family="sans-serif" font-size="7" lengthAdjust="spacing" textLength="28.5" x="104.25" y="78.0537">canceled</text></g><ellipse cx="199" cy="128.5" fill="none" rx="5" ry="5" style="stroke:#222222;stroke-width:0.5;"/><ellipse cx="199.25" cy="128.75" fill="#222222" rx="3" ry="3" style="stroke:none;stroke-width:0.5;"/><g id="invited"><rect fill="#F1F1F1" height="25" rx="6.25" ry="6.25" style="stroke:#181818;stroke-width:0.25;" width="30.5" x="223.75" y="3.5"/><line style="stroke:#181818;stroke-width:0.25;" x1="223.75" x2="254.25" y1="17.8105" y2="17.8105"/><text fill="#000000" font-family="sans-serif" font-size="7" lengthAdjust="spacing" textLength="20.5" x="228.75" y="13.5537">invited</text></g><g id="refused"><rect fill="#F1F1F1" height="25" rx="6.25" ry="6.25" style="stroke:#181818;stroke-width:0.25;" width="34" x="182" y="68"/><line style="stroke:#181818;stroke-width:0.25;" x1="182" x2="216" y1="82.3105" y2="82.3105"/><text fill="#000000" font-family="sans-serif" font-size="7" lengthAdjust="spacing" textLength="24" x="187" y="78.0537">refused</text></g><g id="accepted"><rect fill="#F1F1F1" height="25" rx="6.25" ry="6.25" style="stroke:#181818;stroke-width:0.25;" width="39" x="255.5" y="68"/><line style="stroke:#181818;stroke-width:0.25;" x1="255.5" x2="294.5" y1="82.3105" y2="82.3105"/><text fill="#000000" font-family="sans-serif" font-size="7" lengthAdjust="spacing" textLength="29" x="260.5" y="78.0537">accepted</text></g><!--link *start* to created--><g id="link_*start*_created"><path d="M13.1,16 C24.515,16 52.66,16 71.925,16 " fill="none" id="*start*-to-created" style="stroke:#181818;stroke-width:0.5;"/><polygon fill="#181818" points="74.465,16,69.965,14,71.965,16,69.965,18,74.465,16" style="stroke:#181818;stroke-width:0.5;"/><text fill="#000000" font-family="sans-serif" font-size="6.5" lengthAdjust="spacing" textLength="43" x="22.25" y="12.5142">meeting create</text></g><!--link created to canceled--><g id="link_created_canceled"><path d="M88.43,28.65 C87.185,35.99 86.715,45.37 90,53 C92.105,57.895 95.585,62.32 99.4,66.105 " fill="none" id="created-to-canceled" style="stroke:#181818;stroke-width:0.5;"/><polygon fill="#181818" points="101.3,67.91,99.4211,63.3581,99.4898,66.1857,96.6622,66.2544,101.3,67.91" style="stroke:#181818;stroke-width:0.5;"/><text fill="#000000" font-family="sans-serif" font-size="6.5" lengthAdjust="spacing" textLength="86.5" x="90.5" y="51.0142">User has overlapped schedule</text></g><!--link canceled to *end*--><g id="link_canceled_*end*"><path d="M137.78,92.26 C155.5,102.6 180.735,117.335 192.5,124.205 " fill="none" id="canceled-to-*end*" style="stroke:#181818;stroke-width:0.5;"/><polygon fill="#181818" points="194.8,125.545,191.929,121.5441,192.6431,124.2809,189.9064,124.9951,194.8,125.545" style="stroke:#181818;stroke-width:0.5;"/></g><!--link created to invited--><g id="link_created_invited"><path d="M108.565,16 C136.685,16 192.49,16 221.13,16 " fill="none" id="created-to-invited" style="stroke:#181818;stroke-width:0.5;"/><polygon fill="#181818" points="223.645,16,219.145,14,221.145,16,219.145,18,223.645,16" style="stroke:#181818;stroke-width:0.5;"/><text fill="#000000" font-family="sans-serif" font-size="6.5" lengthAdjust="spacing" textLength="97" x="117.625" y="12.5142">User has no overlapping schedule</text></g><!--link invited to refused--><g id="link_invited_refused"><path d="M223.595,21.59 C213.64,25.77 201.465,32.78 195.5,43.5 C191.835,50.09 192.31,58.395 193.88,65.42 " fill="none" id="invited-to-refused" style="stroke:#181818;stroke-width:0.5;"/><polygon fill="#181818" points="194.5,67.945,195.3623,63.0967,193.9004,65.518,191.4791,64.056,194.5,67.945" style="stroke:#181818;stroke-width:0.5;"/><text fill="#000000" font-family="sans-serif" font-size="6.5" lengthAdjust="spacing" textLength="77.5" x="196" y="51.0142">User declines the invitation</text></g><!--link invited to accepted--><g id="link_invited_accepted"><path d="M254.43,22.79 C263.05,27.205 273.03,34.015 278,43.5 C281.47,50.12 281.12,58.36 279.725,65.33 " fill="none" id="invited-to-accepted" style="stroke:#181818;stroke-width:0.5;"/><polygon fill="#181818" points="279.17,67.84,282.0899,63.8747,279.707,65.3984,278.1833,63.0154,279.17,67.84" style="stroke:#181818;stroke-width:0.5;"/><text fill="#000000" font-family="sans-serif" font-size="6.5" lengthAdjust="spacing" textLength="76.5" x="281" y="51.0142">User accepts the invitation</text></g><!--link refused to *end*--><g id="link_refused_*end*"><path d="M199,93.105 C199,101.92 199,113.565 199,120.92 " fill="none" id="refused-to-*end*" style="stroke:#181818;stroke-width:0.5;"/><polygon fill="#181818" points="199,123.42,201,118.92,199,120.92,197,118.92,199,123.42" style="stroke:#181818;stroke-width:0.5;"/></g><!--link accepted to *end*--><g id="link_accepted_*end*"><path d="M255.43,93.105 C238.91,103.32 216.26,117.325 205.365,124.065 " fill="none" id="accepted-to-*end*" style="stroke:#181818;stroke-width:0.5;"/><polygon fill="#181818" points="203.1,125.465,207.9781,124.7907,205.224,124.1464,205.8683,121.3924,203.1,125.465" style="stroke:#181818;stroke-width:0.5;"/></g><!--SRC=[RO-x3i8m34NtV4Ks9AJIlKF_WWanMAbf8kMbnEs2-7VwY0EYZBxsFISvQQAOkxQD5ZnDpbvKS6qc86m60sC29yJjV9TDBrN29Hva9nqY6J-MH8ZjlkwVuYK43yrQ1A_GRirhnYGrP1bcJ1PYNDAiD0wJ_N3uV0Vnj9AMb_2LyRCvslgQVxbygBhrrR- -X8yfCudhguqN1JMWiiPZbgIB7iW4pnXG2YFzuzHD0UtpaSC-_cdjSV06]--></g></svg>