<?xml version="1.0" encoding="us-ascii" standalone="no"?><svg xmlns="http://www.w3.org/2000/svg" xmlns:xlink="http://www.w3.org/1999/xlink" contentStyleType="text/css" height="557px" preserveAspectRatio="none" style="width:1473px;height:557px;background:#FFFFFF;" version="1.1" viewBox="0 0 1473 557" width="1473px" zoomAndPan="magnify"><defs/><g><text fill="#000000" font-family="sans-serif" font-size="14" font-weight="bold" lengthAdjust="spacing" textLength="237" x="611.25" y="22.9951">Class Diagram (CD) - US 4004</text><!--class ListParticipationMeetingUI--><g id="elem_ListParticipationMeetingUI"><rect codeLine="4" fill="#F1F1F1" height="72.5625" id="ListParticipationMeetingUI" rx="2.5" ry="2.5" style="stroke:#181818;stroke-width:0.5;" width="223" x="1005.5" y="44.2969"/><ellipse cx="1020.5" cy="64.4297" fill="#ADD1B2" rx="11" ry="11" style="stroke:#181818;stroke-width:1.0;"/><path d="M1022.8438,60.1016 C1021.9063,59.6641 1021.3125,59.5234 1020.4375,59.5234 C1017.8125,59.5234 1015.8125,61.6016 1015.8125,64.3203 L1015.8125,65.4453 C1015.8125,68.0234 1017.9219,69.9141 1020.8125,69.9141 C1022.0313,69.9141 1023.1875,69.6172 1023.9375,69.0703 C1024.5156,68.6641 1024.8438,68.2109 1024.8438,67.8203 C1024.8438,67.3672 1024.4531,66.9766 1023.9844,66.9766 C1023.7656,66.9766 1023.5625,67.0547 1023.375,67.2422 C1022.9219,67.7266 1022.9219,67.7266 1022.7344,67.8203 C1022.3125,68.0859 1021.625,68.2109 1020.8594,68.2109 C1018.8125,68.2109 1017.5156,67.1172 1017.5156,65.4141 L1017.5156,64.3203 C1017.5156,62.5391 1018.7656,61.2266 1020.5,61.2266 C1021.0781,61.2266 1021.6875,61.3828 1022.1563,61.6328 C1022.6406,61.9141 1022.8125,62.1328 1022.9063,62.5391 C1022.9688,62.9453 1023,63.0703 1023.1406,63.1953 C1023.2813,63.3359 1023.5156,63.4453 1023.7344,63.4453 C1024,63.4453 1024.2656,63.3047 1024.4375,63.0859 C1024.5469,62.9297 1024.5781,62.7422 1024.5781,62.3203 L1024.5781,60.8984 C1024.5781,60.4609 1024.5625,60.3359 1024.4688,60.1797 C1024.3125,59.9141 1024.0313,59.7734 1023.7344,59.7734 C1023.4375,59.7734 1023.2344,59.8672 1023.0156,60.1797 L1022.8438,60.1016 Z " fill="#000000"/><text fill="#000000" font-family="sans-serif" font-size="12" font-style="italic" lengthAdjust="spacing" textLength="90" x="1085" y="60.4355">&#171;presentation&#187;</text><text fill="#000000" font-family="sans-serif" font-size="14" lengthAdjust="spacing" textLength="191" x="1034.5" y="76.2607">ListParticipationMeetingUI</text><line style="stroke:#181818;stroke-width:0.5;" x1="1006.5" x2="1227.5" y1="84.5625" y2="84.5625"/><line style="stroke:#181818;stroke-width:0.5;" x1="1006.5" x2="1227.5" y1="92.5625" y2="92.5625"/><text fill="#000000" font-family="sans-serif" font-size="14" lengthAdjust="spacing" textLength="66" x="1011.5" y="109.5576">doShow()</text></g><!--class JpaMeetingRepository--><g id="elem_JpaMeetingRepository"><rect codeLine="8" fill="#F1F1F1" height="56.2656" id="JpaMeetingRepository" rx="2.5" ry="2.5" style="stroke:#181818;stroke-width:0.5;" width="192" x="416" y="368.7969"/><ellipse cx="431" cy="388.9297" fill="#ADD1B2" rx="11" ry="11" style="stroke:#181818;stroke-width:1.0;"/><path d="M433.3438,384.6016 C432.4063,384.1641 431.8125,384.0234 430.9375,384.0234 C428.3125,384.0234 426.3125,386.1016 426.3125,388.8203 L426.3125,389.9453 C426.3125,392.5234 428.4219,394.4141 431.3125,394.4141 C432.5313,394.4141 433.6875,394.1172 434.4375,393.5703 C435.0156,393.1641 435.3438,392.7109 435.3438,392.3203 C435.3438,391.8672 434.9531,391.4766 434.4844,391.4766 C434.2656,391.4766 434.0625,391.5547 433.875,391.7422 C433.4219,392.2266 433.4219,392.2266 433.2344,392.3203 C432.8125,392.5859 432.125,392.7109 431.3594,392.7109 C429.3125,392.7109 428.0156,391.6172 428.0156,389.9141 L428.0156,388.8203 C428.0156,387.0391 429.2656,385.7266 431,385.7266 C431.5781,385.7266 432.1875,385.8828 432.6563,386.1328 C433.1406,386.4141 433.3125,386.6328 433.4063,387.0391 C433.4688,387.4453 433.5,387.5703 433.6406,387.6953 C433.7813,387.8359 434.0156,387.9453 434.2344,387.9453 C434.5,387.9453 434.7656,387.8047 434.9375,387.5859 C435.0469,387.4297 435.0781,387.2422 435.0781,386.8203 L435.0781,385.3984 C435.0781,384.9609 435.0625,384.8359 434.9688,384.6797 C434.8125,384.4141 434.5313,384.2734 434.2344,384.2734 C433.9375,384.2734 433.7344,384.3672 433.5156,384.6797 L433.3438,384.6016 Z " fill="#000000"/><text fill="#000000" font-family="sans-serif" font-size="12" font-style="italic" lengthAdjust="spacing" textLength="83" x="483.5" y="384.9355">&#171;persistence&#187;</text><text fill="#000000" font-family="sans-serif" font-size="14" lengthAdjust="spacing" textLength="160" x="445" y="400.7607">JpaMeetingRepository</text><line style="stroke:#181818;stroke-width:0.5;" x1="417" x2="607" y1="409.0625" y2="409.0625"/><line style="stroke:#181818;stroke-width:0.5;" x1="417" x2="607" y1="417.0625" y2="417.0625"/></g><!--class InMemoryMeetingRepository--><g id="elem_InMemoryMeetingRepository"><rect codeLine="9" fill="#F1F1F1" height="56.2656" id="InMemoryMeetingRepository" rx="2.5" ry="2.5" style="stroke:#181818;stroke-width:0.5;" width="241" x="643.5" y="368.7969"/><ellipse cx="658.5" cy="388.9297" fill="#ADD1B2" rx="11" ry="11" style="stroke:#181818;stroke-width:1.0;"/><path d="M660.8438,384.6016 C659.9063,384.1641 659.3125,384.0234 658.4375,384.0234 C655.8125,384.0234 653.8125,386.1016 653.8125,388.8203 L653.8125,389.9453 C653.8125,392.5234 655.9219,394.4141 658.8125,394.4141 C660.0313,394.4141 661.1875,394.1172 661.9375,393.5703 C662.5156,393.1641 662.8438,392.7109 662.8438,392.3203 C662.8438,391.8672 662.4531,391.4766 661.9844,391.4766 C661.7656,391.4766 661.5625,391.5547 661.375,391.7422 C660.9219,392.2266 660.9219,392.2266 660.7344,392.3203 C660.3125,392.5859 659.625,392.7109 658.8594,392.7109 C656.8125,392.7109 655.5156,391.6172 655.5156,389.9141 L655.5156,388.8203 C655.5156,387.0391 656.7656,385.7266 658.5,385.7266 C659.0781,385.7266 659.6875,385.8828 660.1563,386.1328 C660.6406,386.4141 660.8125,386.6328 660.9063,387.0391 C660.9688,387.4453 661,387.5703 661.1406,387.6953 C661.2813,387.8359 661.5156,387.9453 661.7344,387.9453 C662,387.9453 662.2656,387.8047 662.4375,387.5859 C662.5469,387.4297 662.5781,387.2422 662.5781,386.8203 L662.5781,385.3984 C662.5781,384.9609 662.5625,384.8359 662.4688,384.6797 C662.3125,384.4141 662.0313,384.2734 661.7344,384.2734 C661.4375,384.2734 661.2344,384.3672 661.0156,384.6797 L660.8438,384.6016 Z " fill="#000000"/><text fill="#000000" font-family="sans-serif" font-size="12" font-style="italic" lengthAdjust="spacing" textLength="83" x="735.5" y="384.9355">&#171;persistence&#187;</text><text fill="#000000" font-family="sans-serif" font-size="14" lengthAdjust="spacing" textLength="209" x="672.5" y="400.7607">InMemoryMeetingRepository</text><line style="stroke:#181818;stroke-width:0.5;" x1="644.5" x2="883.5" y1="409.0625" y2="409.0625"/><line style="stroke:#181818;stroke-width:0.5;" x1="644.5" x2="883.5" y1="417.0625" y2="417.0625"/></g><!--class Meeting--><g id="elem_Meeting"><rect codeLine="11" fill="#F1F1F1" height="72.5625" id="Meeting" rx="2.5" ry="2.5" style="stroke:#181818;stroke-width:0.5;" width="374" x="7" y="360.2969"/><ellipse cx="160.25" cy="380.4297" fill="#ADD1B2" rx="11" ry="11" style="stroke:#181818;stroke-width:1.0;"/><path d="M162.5938,376.1016 C161.6563,375.6641 161.0625,375.5234 160.1875,375.5234 C157.5625,375.5234 155.5625,377.6016 155.5625,380.3203 L155.5625,381.4453 C155.5625,384.0234 157.6719,385.9141 160.5625,385.9141 C161.7813,385.9141 162.9375,385.6172 163.6875,385.0703 C164.2656,384.6641 164.5938,384.2109 164.5938,383.8203 C164.5938,383.3672 164.2031,382.9766 163.7344,382.9766 C163.5156,382.9766 163.3125,383.0547 163.125,383.2422 C162.6719,383.7266 162.6719,383.7266 162.4844,383.8203 C162.0625,384.0859 161.375,384.2109 160.6094,384.2109 C158.5625,384.2109 157.2656,383.1172 157.2656,381.4141 L157.2656,380.3203 C157.2656,378.5391 158.5156,377.2266 160.25,377.2266 C160.8281,377.2266 161.4375,377.3828 161.9063,377.6328 C162.3906,377.9141 162.5625,378.1328 162.6563,378.5391 C162.7188,378.9453 162.75,379.0703 162.8906,379.1953 C163.0313,379.3359 163.2656,379.4453 163.4844,379.4453 C163.75,379.4453 164.0156,379.3047 164.1875,379.0859 C164.2969,378.9297 164.3281,378.7422 164.3281,378.3203 L164.3281,376.8984 C164.3281,376.4609 164.3125,376.3359 164.2188,376.1797 C164.0625,375.9141 163.7813,375.7734 163.4844,375.7734 C163.1875,375.7734 162.9844,375.8672 162.7656,376.1797 L162.5938,376.1016 Z " fill="#000000"/><text fill="#000000" font-family="sans-serif" font-size="12" font-style="italic" lengthAdjust="spacing" textLength="59" x="180.75" y="376.4355">&#171;domain&#187;</text><text fill="#000000" font-family="sans-serif" font-size="14" lengthAdjust="spacing" textLength="59" x="180.75" y="392.2607">Meeting</text><line style="stroke:#181818;stroke-width:0.5;" x1="8" x2="380" y1="400.5625" y2="400.5625"/><line style="stroke:#181818;stroke-width:0.5;" x1="8" x2="380" y1="408.5625" y2="408.5625"/><ellipse cx="18" cy="422.2109" fill="#84BE84" rx="3" ry="3" style="stroke:#038048;stroke-width:1.0;"/><text fill="#000000" font-family="sans-serif" font-size="14" lengthAdjust="spacing" textLength="348" x="27" y="425.5576">Iterable&lt;ParticipationMeeting&gt; allParticipants()</text></g><!--class SystemUser--><g id="elem_SystemUser"><rect codeLine="14" fill="#F1F1F1" height="56.2656" id="SystemUser" rx="2.5" ry="2.5" style="stroke:#181818;stroke-width:0.5;" width="117" x="1349.5" y="368.7969"/><ellipse cx="1364.5" cy="388.9297" fill="#ADD1B2" rx="11" ry="11" style="stroke:#181818;stroke-width:1.0;"/><path d="M1366.8438,384.6016 C1365.9063,384.1641 1365.3125,384.0234 1364.4375,384.0234 C1361.8125,384.0234 1359.8125,386.1016 1359.8125,388.8203 L1359.8125,389.9453 C1359.8125,392.5234 1361.9219,394.4141 1364.8125,394.4141 C1366.0313,394.4141 1367.1875,394.1172 1367.9375,393.5703 C1368.5156,393.1641 1368.8438,392.7109 1368.8438,392.3203 C1368.8438,391.8672 1368.4531,391.4766 1367.9844,391.4766 C1367.7656,391.4766 1367.5625,391.5547 1367.375,391.7422 C1366.9219,392.2266 1366.9219,392.2266 1366.7344,392.3203 C1366.3125,392.5859 1365.625,392.7109 1364.8594,392.7109 C1362.8125,392.7109 1361.5156,391.6172 1361.5156,389.9141 L1361.5156,388.8203 C1361.5156,387.0391 1362.7656,385.7266 1364.5,385.7266 C1365.0781,385.7266 1365.6875,385.8828 1366.1563,386.1328 C1366.6406,386.4141 1366.8125,386.6328 1366.9063,387.0391 C1366.9688,387.4453 1367,387.5703 1367.1406,387.6953 C1367.2813,387.8359 1367.5156,387.9453 1367.7344,387.9453 C1368,387.9453 1368.2656,387.8047 1368.4375,387.5859 C1368.5469,387.4297 1368.5781,387.2422 1368.5781,386.8203 L1368.5781,385.3984 C1368.5781,384.9609 1368.5625,384.8359 1368.4688,384.6797 C1368.3125,384.4141 1368.0313,384.2734 1367.7344,384.2734 C1367.4375,384.2734 1367.2344,384.3672 1367.0156,384.6797 L1366.8438,384.6016 Z " fill="#000000"/><text fill="#000000" font-family="sans-serif" font-size="12" font-style="italic" lengthAdjust="spacing" textLength="59" x="1391.5" y="384.9355">&#171;domain&#187;</text><text fill="#000000" font-family="sans-serif" font-size="14" lengthAdjust="spacing" textLength="85" x="1378.5" y="400.7607">SystemUser</text><line style="stroke:#181818;stroke-width:0.5;" x1="1350.5" x2="1465.5" y1="409.0625" y2="409.0625"/><line style="stroke:#181818;stroke-width:0.5;" x1="1350.5" x2="1465.5" y1="417.0625" y2="417.0625"/></g><!--class Username--><g id="elem_Username"><rect codeLine="15" fill="#F1F1F1" height="56.2656" id="Username" rx="2.5" ry="2.5" style="stroke:#181818;stroke-width:0.5;" width="115" x="1350.5" y="494.2969"/><ellipse cx="1365.5" cy="514.4297" fill="#FF8B40" rx="11" ry="11" style="stroke:#181818;stroke-width:1.0;"/><path d="M1365.6563,517.9766 L1363.2031,512.2109 L1363.5313,512.2109 C1363.9375,512.2109 1364.0938,512.1797 1364.2344,512.1016 C1364.5,511.9453 1364.6406,511.6641 1364.6406,511.3672 C1364.6406,511.1016 1364.5156,510.8359 1364.3125,510.6641 C1364.1406,510.5547 1363.9688,510.5234 1363.5313,510.5234 L1361.2656,510.5234 C1360.8281,510.5234 1360.7031,510.5391 1360.5469,510.6328 C1360.2969,510.7891 1360.1406,511.0859 1360.1406,511.3672 C1360.1406,511.7109 1360.375,512.0547 1360.6719,512.1484 C1360.8281,512.1953 1360.9531,512.2109 1361.2969,512.2109 L1364.7344,520.4297 L1366.4219,520.4297 L1369.9063,512.2109 C1370.2656,512.2109 1370.375,512.1953 1370.5313,512.1484 C1370.8125,512.0547 1371.0625,511.7109 1371.0625,511.3672 C1371.0625,511.1016 1370.9219,510.8359 1370.7031,510.6641 C1370.5469,510.5547 1370.375,510.5234 1369.9375,510.5234 L1367.6875,510.5234 C1367.25,510.5234 1367.125,510.5391 1366.9844,510.6328 C1366.7188,510.7891 1366.5625,511.0859 1366.5625,511.3672 C1366.5625,511.6484 1366.7031,511.8984 1366.9063,512.0703 C1367.0938,512.1797 1367.2344,512.2109 1367.6875,512.2109 L1368.0938,512.2109 L1365.6563,517.9766 Z " fill="#000000"/><text fill="#000000" font-family="sans-serif" font-size="12" font-style="italic" lengthAdjust="spacing" textLength="87" x="1377.5" y="510.4355">&#171;value object&#187;</text><text fill="#000000" font-family="sans-serif" font-size="14" lengthAdjust="spacing" textLength="71" x="1385.5" y="526.2607">Username</text><line style="stroke:#181818;stroke-width:0.5;" x1="1351.5" x2="1464.5" y1="534.5625" y2="534.5625"/><line style="stroke:#181818;stroke-width:0.5;" x1="1351.5" x2="1464.5" y1="542.5625" y2="542.5625"/></g><!--class ListParticipationMeetingController--><g id="elem_ListParticipationMeetingController"><rect codeLine="18" fill="#F1F1F1" height="88.8594" id="ListParticipationMeetingController" rx="2.5" ry="2.5" style="stroke:#181818;stroke-width:0.5;" width="321" x="956.5" y="194.2969"/><ellipse cx="988.6" cy="214.4297" fill="#ADD1B2" rx="11" ry="11" style="stroke:#181818;stroke-width:1.0;"/><path d="M990.9438,210.1016 C990.0063,209.6641 989.4125,209.5234 988.5375,209.5234 C985.9125,209.5234 983.9125,211.6016 983.9125,214.3203 L983.9125,215.4453 C983.9125,218.0234 986.0219,219.9141 988.9125,219.9141 C990.1313,219.9141 991.2875,219.6172 992.0375,219.0703 C992.6156,218.6641 992.9438,218.2109 992.9438,217.8203 C992.9438,217.3672 992.5531,216.9766 992.0844,216.9766 C991.8656,216.9766 991.6625,217.0547 991.475,217.2422 C991.0219,217.7266 991.0219,217.7266 990.8344,217.8203 C990.4125,218.0859 989.725,218.2109 988.9594,218.2109 C986.9125,218.2109 985.6156,217.1172 985.6156,215.4141 L985.6156,214.3203 C985.6156,212.5391 986.8656,211.2266 988.6,211.2266 C989.1781,211.2266 989.7875,211.3828 990.2563,211.6328 C990.7406,211.9141 990.9125,212.1328 991.0063,212.5391 C991.0688,212.9453 991.1,213.0703 991.2406,213.1953 C991.3813,213.3359 991.6156,213.4453 991.8344,213.4453 C992.1,213.4453 992.3656,213.3047 992.5375,213.0859 C992.6469,212.9297 992.6781,212.7422 992.6781,212.3203 L992.6781,210.8984 C992.6781,210.4609 992.6625,210.3359 992.5688,210.1797 C992.4125,209.9141 992.1313,209.7734 991.8344,209.7734 C991.5375,209.7734 991.3344,209.8672 991.1156,210.1797 L990.9438,210.1016 Z " fill="#000000"/><text fill="#000000" font-family="sans-serif" font-size="12" font-style="italic" lengthAdjust="spacing" textLength="80" x="1091.9" y="210.4355">&#171;application&#187;</text><text fill="#000000" font-family="sans-serif" font-size="14" lengthAdjust="spacing" textLength="251" x="1006.4" y="226.2607">ListParticipationMeetingController</text><line style="stroke:#181818;stroke-width:0.5;" x1="957.5" x2="1276.5" y1="234.5625" y2="234.5625"/><line style="stroke:#181818;stroke-width:0.5;" x1="957.5" x2="1276.5" y1="242.5625" y2="242.5625"/><ellipse cx="967.5" cy="256.2109" fill="#84BE84" rx="3" ry="3" style="stroke:#038048;stroke-width:1.0;"/><text fill="#000000" font-family="sans-serif" font-size="14" lengthAdjust="spacing" textLength="263" x="976.5" y="259.5576">Iterable&lt;Meeting&gt; listAllMeetings();</text><ellipse cx="967.5" cy="272.5078" fill="#84BE84" rx="3" ry="3" style="stroke:#038048;stroke-width:1.0;"/><text fill="#000000" font-family="sans-serif" font-size="14" lengthAdjust="spacing" textLength="295" x="976.5" y="275.8545">void listAllParticipants(Meeting meeting)</text></g><!--class MeetingRepository--><g id="elem_MeetingRepository"><rect codeLine="23" fill="#F1F1F1" height="72.5625" id="MeetingRepository" rx="2.5" ry="2.5" style="stroke:#181818;stroke-width:0.5;" width="395" x="919.5" y="360.2969"/><ellipse cx="1046.25" cy="380.4297" fill="#B4A7E5" rx="11" ry="11" style="stroke:#181818;stroke-width:1.0;"/><path d="M1047.2031,377.2109 L1048.9219,377.2109 C1049.3125,377.2109 1049.5,377.1797 1049.625,377.1016 C1049.8906,376.9453 1050.0313,376.6641 1050.0313,376.3672 C1050.0313,376.1016 1049.9219,375.8359 1049.6875,375.6641 C1049.5156,375.5547 1049.375,375.5234 1048.9219,375.5234 L1043.7813,375.5234 C1043.3438,375.5234 1043.2188,375.5391 1043.0625,375.6328 C1042.8125,375.7891 1042.6563,376.0859 1042.6563,376.3672 C1042.6563,376.6484 1042.7969,376.8984 1043.0156,377.0703 C1043.1719,377.1797 1043.3594,377.2109 1043.7813,377.2109 L1045.5,377.2109 L1045.5,383.7266 L1043.7813,383.7266 C1043.3438,383.7266 1043.2188,383.7422 1043.0625,383.8516 C1042.8125,384.0078 1042.6563,384.2891 1042.6563,384.5859 C1042.6563,384.8359 1042.7969,385.1016 1043.0156,385.2578 C1043.1719,385.3828 1043.375,385.4297 1043.7813,385.4297 L1048.9219,385.4297 C1049.6719,385.4297 1050.0313,385.1484 1050.0313,384.5859 C1050.0313,384.3047 1049.9219,384.0547 1049.6875,383.8828 C1049.5156,383.7578 1049.375,383.7266 1048.9219,383.7266 L1047.2031,383.7266 L1047.2031,377.2109 Z " fill="#000000"/><text fill="#000000" font-family="sans-serif" font-size="12" font-style="italic" lengthAdjust="spacing" textLength="83" x="1091.75" y="376.4355">&#171;repositories&#187;</text><text fill="#000000" font-family="sans-serif" font-size="14" font-style="italic" lengthAdjust="spacing" textLength="133" x="1066.75" y="392.2607">MeetingRepository</text><line style="stroke:#181818;stroke-width:0.5;" x1="920.5" x2="1313.5" y1="400.5625" y2="400.5625"/><line style="stroke:#181818;stroke-width:0.5;" x1="920.5" x2="1313.5" y1="408.5625" y2="408.5625"/><ellipse cx="930.5" cy="422.2109" fill="#84BE84" rx="3" ry="3" style="stroke:#038048;stroke-width:1.0;"/><text fill="#000000" font-family="sans-serif" font-size="14" lengthAdjust="spacing" textLength="369" x="939.5" y="425.5576">Iterable&lt;Meeting&gt; findAllMeetings(Username user)</text></g><!--link ListParticipationMeetingUI to ListParticipationMeetingController--><g id="link_ListParticipationMeetingUI_ListParticipationMeetingController"><path codeLine="28" d="M1117,117.5869 C1117,138.7449 1117,165.8329 1117,188.9369 " fill="none" id="ListParticipationMeetingUI-to-ListParticipationMeetingController" style="stroke:#181818;stroke-width:1.0;"/><polygon fill="#181818" points="1117,194.1059,1121,185.1059,1117,189.1059,1113,185.1059,1117,194.1059" style="stroke:#181818;stroke-width:1.0;"/><text fill="#000000" font-family="sans-serif" font-size="13" lengthAdjust="spacing" textLength="83" x="1118" y="160.3638">theController</text></g><!--link ListParticipationMeetingController to MeetingRepository--><g id="link_ListParticipationMeetingController_MeetingRepository"><path codeLine="29" d="M1117,283.6669 C1117,306.0259 1117,333.0459 1117,354.9599 " fill="none" id="ListParticipationMeetingController-to-MeetingRepository" style="stroke:#181818;stroke-width:1.0;"/><polygon fill="#181818" points="1117,360.1269,1121,351.1269,1117,355.1269,1113,351.1269,1117,360.1269" style="stroke:#181818;stroke-width:1.0;"/><text fill="#000000" font-family="sans-serif" font-size="13" lengthAdjust="spacing" textLength="29" x="1118" y="326.3638">repo</text></g><!--link ListParticipationMeetingController to SystemUser--><g id="link_ListParticipationMeetingController_SystemUser"><path codeLine="30" d="M1198.45,283.4589 C1247.7,309.8639 1309.19,342.8279 1352.79,366.2019 " fill="none" id="ListParticipationMeetingController-to-SystemUser" style="stroke:#181818;stroke-width:1.0;"/><polygon fill="#181818" points="1357.22,368.5749,1351.1714,360.8022,1352.8113,366.2161,1347.3974,367.8561,1357.22,368.5749" style="stroke:#181818;stroke-width:1.0;"/><text fill="#000000" font-family="sans-serif" font-size="13" lengthAdjust="spacing" textLength="28" x="1281" y="326.3638">user</text></g><!--link SystemUser to Username--><g id="link_SystemUser_Username"><path codeLine="31" d="M1408,424.8999 C1408,443.8019 1408,469.1079 1408,489.0486 " fill="none" id="SystemUser-to-Username" style="stroke:#181818;stroke-width:1.0;"/><polygon fill="#181818" points="1408,494.2575,1412,485.2575,1408,489.2575,1404,485.2575,1408,494.2575" style="stroke:#181818;stroke-width:1.0;"/></g><!--link ListParticipationMeetingController to Meeting--><g id="link_ListParticipationMeetingController_Meeting"><path codeLine="32" d="M956.487,266.5779 C778.461,296.3019 502.565,342.4369 398,360.2969 C394.076,360.9669 390.109,361.6459 386.112,362.3309 " fill="none" id="ListParticipationMeetingController-to-Meeting" style="stroke:#181818;stroke-width:1.0;"/><polygon fill="#181818" points="381.032,363.2019,390.5788,365.6222,385.96,362.3563,389.2259,357.7374,381.032,363.2019" style="stroke:#181818;stroke-width:1.0;"/><text fill="#000000" font-family="sans-serif" font-size="13" lengthAdjust="spacing" textLength="53" x="663" y="326.3638">meeting</text></g><!--link JpaMeetingRepository to MeetingRepository--><g id="link_JpaMeetingRepository_MeetingRepository"><path codeLine="33" d="M549.097,368.6549 C574.254,351.3999 609.077,330.9229 643.5,321.7969 C772.061,287.7119 924.624,325.4049 1021.13,358.5459 " fill="none" id="JpaMeetingRepository-to-MeetingRepository" style="stroke:#181818;stroke-width:1.0;"/><polygon fill="#181818" points="1025.97,360.2199,1018.765,353.5051,1021.243,358.5904,1016.1578,361.0684,1025.97,360.2199" style="stroke:#181818;stroke-width:1.0;"/></g><!--link InMemoryMeetingRepository to MeetingRepository--><g id="link_InMemoryMeetingRepository_MeetingRepository"><path codeLine="34" d="M884.654,396.7969 C894.444,396.7969 904.234,396.7969 914.024,396.7969 " fill="none" id="InMemoryMeetingRepository-to-MeetingRepository" style="stroke:#181818;stroke-width:1.0;"/><polygon fill="#181818" points="919.143,396.7969,910.143,392.7969,914.143,396.7969,910.143,400.7969,919.143,396.7969" style="stroke:#181818;stroke-width:1.0;"/></g><!--link ListParticipationMeetingUI to SystemUser--><g id="link_ListParticipationMeetingUI_SystemUser"><path codeLine="37" d="M1190.52,117.3449 C1225.17,136.6559 1265.31,163.0029 1295,194.2969 C1343.51,245.4259 1378.67,321.3069 1395.95,363.8669 " fill="none" id="ListParticipationMeetingUI-to-SystemUser" style="stroke:#181818;stroke-width:1.0;stroke-dasharray:7.0,7.0;"/><polygon fill="#181818" points="1397.86,368.6359,1398.2157,358.7934,1395.9957,363.9965,1390.7927,361.7764,1397.86,368.6359" style="stroke:#181818;stroke-width:1.0;"/></g><!--link ListParticipationMeetingUI to Meeting--><g id="link_ListParticipationMeetingUI_Meeting"><path codeLine="38" d="M1012.47,117.3589 C836.532,177.2109 482.946,297.4989 303.639,358.4979 " fill="none" id="ListParticipationMeetingUI-to-Meeting" style="stroke:#181818;stroke-width:1.0;stroke-dasharray:7.0,7.0;"/><polygon fill="#181818" points="298.648,360.1959,308.4566,361.0852,303.3818,358.5861,305.8809,353.5112,298.648,360.1959" style="stroke:#181818;stroke-width:1.0;"/></g><!--SRC=[bLFHJi8m57tlLzp41o1AmWCF1iaIXP1Wr1W9lXWVBji5QhfsQGk66FxThdICnObpBrjxppdtdDlLSYi8HWADWJ77bSOKsgDn1xemdq6_r-iprl9bCYpsi0Tkx3DgosEUeULAFX9PBbVpAGo7cIP3qlhzA88l1kv9r6ojFjiTjcT1upx3m7gXJ1bkbTxbRDB6gPECAIVl0thgMgGEqOWIE07h48bAaPTcBgUMD2u43Uj2H81270lI6k_w83dRkJxft92kg1Rbl20n9LTilrx1nMHoVTVlTM2BOaEW5XyKsoXYx8ynZfIqMWdXks2M2HvNfra6E7eMJkjMYB1sdcyEoAtYIL6iX2gcanxU_cIuTBfBZ0dgvgoB1ITppigIo-JKod4g6_VX-xIUSCjNFXCxyozrkr6J6Gt0hgbSimQKNFbdn07a4PloJ_w5WO_6JdPoG97xduQSMZWJLdj7wgopt-z7BPornfIHJDoTSOTvzWpU4ZHhIjuhYPiomkut]--></g></svg>