<?xml version="1.0" encoding="us-ascii" standalone="no"?><svg xmlns="http://www.w3.org/2000/svg" xmlns:xlink="http://www.w3.org/1999/xlink" contentStyleType="text/css" height="566px" preserveAspectRatio="none" style="width:819px;height:566px;background:#FFFFFF;" version="1.1" viewBox="0 0 819 566" width="819px" zoomAndPan="magnify"><defs/><g><text fill="#000000" font-family="sans-serif" font-size="14" font-weight="bold" lengthAdjust="spacing" textLength="248" x="278.75" y="22.9951">Domain Classes (DC) - US 4004</text><!--cluster <<aggregate>> SystemUser--><g id="cluster_&lt;&lt;aggregate&gt;&gt; SystemUser"><path d="M294.5,328.2969 L497.5,328.2969 A3.75,3.75 0 0 1 500,330.7969 L507,350.5938 L507.5,350.5938 A2.5,2.5 0 0 1 510,353.0938 L510,438.7969 A2.5,2.5 0 0 1 507.5,441.2969 L294.5,441.2969 A2.5,2.5 0 0 1 292,438.7969 L292,330.7969 A2.5,2.5 0 0 1 294.5,328.2969 " fill="none" style="stroke:#000000;stroke-width:1.5;"/><line style="stroke:#000000;stroke-width:1.5;" x1="292" x2="507" y1="350.5938" y2="350.5938"/><text fill="#000000" font-family="sans-serif" font-size="14" font-weight="bold" lengthAdjust="spacing" textLength="202" x="296" y="343.292">&#171;aggregate&#187; SystemUser</text></g><!--cluster <<aggregate>> Meeting--><g id="cluster_&lt;&lt;aggregate&gt;&gt; Meeting"><path d="M8.5,43.2969 L180.5,43.2969 A3.75,3.75 0 0 1 183,45.7969 L190,65.5938 L265.5,65.5938 A2.5,2.5 0 0 1 268,68.0938 L268,556.7969 A2.5,2.5 0 0 1 265.5,559.2969 L8.5,559.2969 A2.5,2.5 0 0 1 6,556.7969 L6,45.7969 A2.5,2.5 0 0 1 8.5,43.2969 " fill="none" style="stroke:#000000;stroke-width:1.5;"/><line style="stroke:#000000;stroke-width:1.5;" x1="6" x2="190" y1="65.5938" y2="65.5938"/><text fill="#000000" font-family="sans-serif" font-size="14" font-weight="bold" lengthAdjust="spacing" textLength="171" x="10" y="58.292">&#171;aggregate&#187; Meeting</text></g><!--class SystemUser--><g id="elem_SystemUser"><rect codeLine="10" fill="#F1F1F1" height="62.2344" id="SystemUser" rx="2.5" ry="2.5" style="stroke:#181818;stroke-width:0.5;" width="117" x="308.5" y="363.2969"/><ellipse cx="323.5" cy="390.4141" fill="#ADD1B2" rx="11" ry="11" style="stroke:#181818;stroke-width:1.0;"/><path d="M322.2969,391.2891 L323.75,391.2891 L323.75,391.3984 C323.75,391.8047 323.7813,391.9609 323.8594,392.1172 C324.0156,392.3672 324.2969,392.5234 324.5938,392.5234 C324.8438,392.5234 325.1094,392.3828 325.2656,392.1641 C325.3906,392.0078 325.4219,391.8516 325.4219,391.3984 L325.4219,389.4766 C325.4219,389.3203 325.4219,389.2734 325.4063,389.1172 C325.3438,388.6484 325.0313,388.3359 324.5781,388.3359 C324.3281,388.3359 324.0625,388.4766 323.8906,388.6953 C323.7813,388.8672 323.75,389.0234 323.75,389.4766 L323.75,389.6016 L322.2969,389.6016 L322.2969,387.1953 L326.2813,387.1953 L326.2813,388.0547 C326.2813,388.4609 326.3125,388.6328 326.3906,388.7891 C326.5625,389.0391 326.8438,389.1953 327.125,389.1953 C327.3906,389.1953 327.6563,389.0547 327.8281,388.8359 C327.9375,388.6641 327.9688,388.5234 327.9688,388.0547 L327.9688,385.5078 L320.3438,385.5078 C319.9063,385.5078 319.7813,385.5234 319.625,385.6172 C319.375,385.7734 319.2188,386.0703 319.2188,386.3516 C319.2188,386.6328 319.3594,386.8828 319.5781,387.0547 C319.7344,387.1641 319.9219,387.1953 320.3438,387.1953 L320.5938,387.1953 L320.5938,393.7109 L320.3438,393.7109 C319.9375,393.7109 319.7813,393.7266 319.625,393.8359 C319.375,394.0078 319.2188,394.2734 319.2188,394.5703 C319.2188,394.8359 319.3594,395.0859 319.5781,395.2422 C319.7188,395.3672 319.9531,395.4141 320.3438,395.4141 L328.3438,395.4141 L328.3438,392.8359 C328.3438,392.3984 328.3125,392.2578 328.2344,392.1016 C328.0625,391.8516 327.7813,391.6953 327.5,391.6953 C327.2344,391.6953 326.9688,391.8047 326.7969,392.0547 C326.6875,392.2109 326.6563,392.3516 326.6563,392.8359 L326.6563,393.7109 L322.2969,393.7109 L322.2969,391.2891 Z " fill="#000000"/><text fill="#000000" font-family="sans-serif" font-size="12" font-style="italic" lengthAdjust="spacing" textLength="49" x="355.5" y="379.4355">&#171;entity&#187;</text><text fill="#000000" font-family="sans-serif" font-size="12" font-style="italic" lengthAdjust="spacing" textLength="38" x="361" y="393.4043">&#171;root&#187;</text><text fill="#000000" font-family="sans-serif" font-size="14" lengthAdjust="spacing" textLength="85" x="337.5" y="409.2295">SystemUser</text><line style="stroke:#181818;stroke-width:0.5;" x1="309.5" x2="424.5" y1="417.5313" y2="417.5313"/></g><!--class Meeting--><g id="elem_Meeting"><rect codeLine="16" fill="#F1F1F1" height="62.2344" id="Meeting" rx="2.5" ry="2.5" style="stroke:#181818;stroke-width:0.5;" width="91" x="148.5" y="78.2969"/><ellipse cx="163.5" cy="105.4141" fill="#ADD1B2" rx="11" ry="11" style="stroke:#181818;stroke-width:1.0;"/><path d="M162.2969,106.2891 L163.75,106.2891 L163.75,106.3984 C163.75,106.8047 163.7813,106.9609 163.8594,107.1172 C164.0156,107.3672 164.2969,107.5234 164.5938,107.5234 C164.8438,107.5234 165.1094,107.3828 165.2656,107.1641 C165.3906,107.0078 165.4219,106.8516 165.4219,106.3984 L165.4219,104.4766 C165.4219,104.3203 165.4219,104.2734 165.4063,104.1172 C165.3438,103.6484 165.0313,103.3359 164.5781,103.3359 C164.3281,103.3359 164.0625,103.4766 163.8906,103.6953 C163.7813,103.8672 163.75,104.0234 163.75,104.4766 L163.75,104.6016 L162.2969,104.6016 L162.2969,102.1953 L166.2813,102.1953 L166.2813,103.0547 C166.2813,103.4609 166.3125,103.6328 166.3906,103.7891 C166.5625,104.0391 166.8438,104.1953 167.125,104.1953 C167.3906,104.1953 167.6563,104.0547 167.8281,103.8359 C167.9375,103.6641 167.9688,103.5234 167.9688,103.0547 L167.9688,100.5078 L160.3438,100.5078 C159.9063,100.5078 159.7813,100.5234 159.625,100.6172 C159.375,100.7734 159.2188,101.0703 159.2188,101.3516 C159.2188,101.6328 159.3594,101.8828 159.5781,102.0547 C159.7344,102.1641 159.9219,102.1953 160.3438,102.1953 L160.5938,102.1953 L160.5938,108.7109 L160.3438,108.7109 C159.9375,108.7109 159.7813,108.7266 159.625,108.8359 C159.375,109.0078 159.2188,109.2734 159.2188,109.5703 C159.2188,109.8359 159.3594,110.0859 159.5781,110.2422 C159.7188,110.3672 159.9531,110.4141 160.3438,110.4141 L168.3438,110.4141 L168.3438,107.8359 C168.3438,107.3984 168.3125,107.2578 168.2344,107.1016 C168.0625,106.8516 167.7813,106.6953 167.5,106.6953 C167.2344,106.6953 166.9688,106.8047 166.7969,107.0547 C166.6875,107.2109 166.6563,107.3516 166.6563,107.8359 L166.6563,108.7109 L162.2969,108.7109 L162.2969,106.2891 Z " fill="#000000"/><text fill="#000000" font-family="sans-serif" font-size="12" font-style="italic" lengthAdjust="spacing" textLength="49" x="182.5" y="94.4355">&#171;entity&#187;</text><text fill="#000000" font-family="sans-serif" font-size="12" font-style="italic" lengthAdjust="spacing" textLength="38" x="188" y="108.4043">&#171;root&#187;</text><text fill="#000000" font-family="sans-serif" font-size="14" lengthAdjust="spacing" textLength="59" x="177.5" y="124.2295">Meeting</text><line style="stroke:#181818;stroke-width:0.5;" x1="149.5" x2="238.5" y1="132.5313" y2="132.5313"/></g><!--class ParticipationMeeting--><g id="elem_ParticipationMeeting"><rect codeLine="17" fill="#F1F1F1" height="48.2656" id="ParticipationMeeting" rx="2.5" ry="2.5" style="stroke:#181818;stroke-width:0.5;" width="184" x="68" y="217.2969"/><ellipse cx="83" cy="237.4297" fill="#ADD1B2" rx="11" ry="11" style="stroke:#181818;stroke-width:1.0;"/><path d="M81.7969,238.3047 L83.25,238.3047 L83.25,238.4141 C83.25,238.8203 83.2813,238.9766 83.3594,239.1328 C83.5156,239.3828 83.7969,239.5391 84.0938,239.5391 C84.3438,239.5391 84.6094,239.3984 84.7656,239.1797 C84.8906,239.0234 84.9219,238.8672 84.9219,238.4141 L84.9219,236.4922 C84.9219,236.3359 84.9219,236.2891 84.9063,236.1328 C84.8438,235.6641 84.5313,235.3516 84.0781,235.3516 C83.8281,235.3516 83.5625,235.4922 83.3906,235.7109 C83.2813,235.8828 83.25,236.0391 83.25,236.4922 L83.25,236.6172 L81.7969,236.6172 L81.7969,234.2109 L85.7813,234.2109 L85.7813,235.0703 C85.7813,235.4766 85.8125,235.6484 85.8906,235.8047 C86.0625,236.0547 86.3438,236.2109 86.625,236.2109 C86.8906,236.2109 87.1563,236.0703 87.3281,235.8516 C87.4375,235.6797 87.4688,235.5391 87.4688,235.0703 L87.4688,232.5234 L79.8438,232.5234 C79.4063,232.5234 79.2813,232.5391 79.125,232.6328 C78.875,232.7891 78.7188,233.0859 78.7188,233.3672 C78.7188,233.6484 78.8594,233.8984 79.0781,234.0703 C79.2344,234.1797 79.4219,234.2109 79.8438,234.2109 L80.0938,234.2109 L80.0938,240.7266 L79.8438,240.7266 C79.4375,240.7266 79.2813,240.7422 79.125,240.8516 C78.875,241.0234 78.7188,241.2891 78.7188,241.5859 C78.7188,241.8516 78.8594,242.1016 79.0781,242.2578 C79.2188,242.3828 79.4531,242.4297 79.8438,242.4297 L87.8438,242.4297 L87.8438,239.8516 C87.8438,239.4141 87.8125,239.2734 87.7344,239.1172 C87.5625,238.8672 87.2813,238.7109 87,238.7109 C86.7344,238.7109 86.4688,238.8203 86.2969,239.0703 C86.1875,239.2266 86.1563,239.3672 86.1563,239.8516 L86.1563,240.7266 L81.7969,240.7266 L81.7969,238.3047 Z " fill="#000000"/><text fill="#000000" font-family="sans-serif" font-size="12" font-style="italic" lengthAdjust="spacing" textLength="49" x="148.5" y="233.4355">&#171;entity&#187;</text><text fill="#000000" font-family="sans-serif" font-size="14" lengthAdjust="spacing" textLength="152" x="97" y="249.2607">ParticipationMeeting</text><line style="stroke:#181818;stroke-width:0.5;" x1="69" x2="251" y1="257.5625" y2="257.5625"/></g><!--class ParticipationMeetingStatus--><g id="elem_ParticipationMeetingStatus"><rect codeLine="18" fill="#F1F1F1" height="48.2656" id="ParticipationMeetingStatus" rx="2.5" ry="2.5" style="stroke:#181818;stroke-width:0.5;" width="230" x="22" y="370.2969"/><ellipse cx="37" cy="390.4297" fill="#FF8B40" rx="11" ry="11" style="stroke:#181818;stroke-width:1.0;"/><path d="M37.1563,393.9766 L34.7031,388.2109 L35.0313,388.2109 C35.4375,388.2109 35.5938,388.1797 35.7344,388.1016 C36,387.9453 36.1406,387.6641 36.1406,387.3672 C36.1406,387.1016 36.0156,386.8359 35.8125,386.6641 C35.6406,386.5547 35.4688,386.5234 35.0313,386.5234 L32.7656,386.5234 C32.3281,386.5234 32.2031,386.5391 32.0469,386.6328 C31.7969,386.7891 31.6406,387.0859 31.6406,387.3672 C31.6406,387.7109 31.875,388.0547 32.1719,388.1484 C32.3281,388.1953 32.4531,388.2109 32.7969,388.2109 L36.2344,396.4297 L37.9219,396.4297 L41.4063,388.2109 C41.7656,388.2109 41.875,388.1953 42.0313,388.1484 C42.3125,388.0547 42.5625,387.7109 42.5625,387.3672 C42.5625,387.1016 42.4219,386.8359 42.2031,386.6641 C42.0469,386.5547 41.875,386.5234 41.4375,386.5234 L39.1875,386.5234 C38.75,386.5234 38.625,386.5391 38.4844,386.6328 C38.2188,386.7891 38.0625,387.0859 38.0625,387.3672 C38.0625,387.6484 38.2031,387.8984 38.4063,388.0703 C38.5938,388.1797 38.7344,388.2109 39.1875,388.2109 L39.5938,388.2109 L37.1563,393.9766 Z " fill="#000000"/><text fill="#000000" font-family="sans-serif" font-size="12" font-style="italic" lengthAdjust="spacing" textLength="87" x="106.5" y="386.4355">&#171;value object&#187;</text><text fill="#000000" font-family="sans-serif" font-size="14" lengthAdjust="spacing" textLength="198" x="51" y="402.2607">ParticipationMeetingStatus</text><line style="stroke:#181818;stroke-width:0.5;" x1="23" x2="251" y1="410.5625" y2="410.5625"/></g><g id="elem_GMN8"><path d="M30.5,488.2969 L30.5,543.6953 A0,0 0 0 0 30.5,543.6953 L243.5,543.6953 A0,0 0 0 0 243.5,543.6953 L243.5,498.2969 L233.5,488.2969 L141,488.2969 L137,418.3379 L133,488.2969 L30.5,488.2969 A0,0 0 0 0 30.5,488.2969 " fill="#FEFFDD" style="stroke:#181818;stroke-width:0.5;"/><path d="M233.5,488.2969 L233.5,498.2969 L243.5,498.2969 L233.5,488.2969 " fill="#FEFFDD" style="stroke:#181818;stroke-width:0.5;"/><text fill="#000000" font-family="sans-serif" font-size="13" lengthAdjust="spacing" textLength="138" x="36.5" y="505.3638">Diagrama de estados</text><text fill="#000000" font-family="sans-serif" font-size="13" lengthAdjust="spacing" textLength="149" x="36.5" y="520.4966">dispon&#237;vel com o nome</text><text fill="#000000" font-family="sans-serif" font-size="13" lengthAdjust="spacing" textLength="192" x="36.5" y="535.6294">"participation-meeting-status"</text></g><!--class Event--><g id="elem_Event"><rect codeLine="27" fill="#F1F1F1" height="48.2656" id="Event" rx="2.5" ry="2.5" style="stroke:#181818;stroke-width:0.5;" width="92" x="548" y="217.2969"/><ellipse cx="563" cy="237.4297" fill="#A9DCDF" rx="11" ry="11" style="stroke:#181818;stroke-width:1.0;"/><path d="M565.0781,239.2422 L565.4688,240.2266 L565.0781,240.2266 C564.625,240.2266 564.5156,240.2422 564.3594,240.3516 C564.1094,240.5078 563.9531,240.7891 563.9531,241.0859 C563.9531,241.3516 564.0938,241.6016 564.3125,241.7578 C564.4531,241.8828 564.6563,241.9297 565.0781,241.9297 L567.4375,241.9297 C567.7969,241.9297 568.0156,241.8984 568.1563,241.8047 C568.4063,241.6641 568.5625,241.3672 568.5625,241.0859 C568.5625,240.8047 568.4219,240.5547 568.2031,240.3984 C568.0313,240.2578 567.875,240.2266 567.4063,240.2266 L564.0156,232.0234 L560.3438,232.0234 C559.8906,232.0234 559.7656,232.0391 559.6094,232.1328 C559.3594,232.3047 559.2031,232.5859 559.2031,232.8672 C559.2031,233.1484 559.3438,233.3984 559.5625,233.5703 C559.7344,233.6797 559.9063,233.7109 560.3438,233.7109 L561.4219,233.7109 L558.7813,240.2266 C558.3594,240.2266 558.2031,240.2422 558.0469,240.3516 C557.7969,240.5078 557.6406,240.7891 557.6406,241.0859 C557.6406,241.6484 558.0156,241.9297 558.7656,241.9297 L561.0313,241.9297 C561.3906,241.9297 561.6094,241.8984 561.7344,241.8047 C562,241.6641 562.1406,241.3672 562.1406,241.0859 C562.1406,240.8047 562.0156,240.5547 561.7969,240.3828 C561.625,240.2578 561.4844,240.2266 561.0313,240.2266 L560.6406,240.2266 L561.0313,239.2422 L565.0781,239.2422 Z M564.375,237.5391 L561.7031,237.5391 L563.0469,234.2734 L564.375,237.5391 Z " fill="#000000"/><text fill="#000000" font-family="sans-serif" font-size="12" font-style="italic" lengthAdjust="spacing" textLength="64" x="575" y="233.4355">&#171;abstract&#187;</text><text fill="#000000" font-family="sans-serif" font-size="14" font-style="italic" lengthAdjust="spacing" textLength="40" x="587" y="249.2607">Event</text><line style="stroke:#181818;stroke-width:0.5;" x1="549" x2="639" y1="257.5625" y2="257.5625"/></g><!--class EventDuration--><g id="elem_EventDuration"><rect codeLine="28" fill="#F1F1F1" height="48.2656" id="EventDuration" rx="2.5" ry="2.5" style="stroke:#181818;stroke-width:0.5;" width="136" x="526" y="370.2969"/><ellipse cx="541" cy="390.4297" fill="#FF8B40" rx="11" ry="11" style="stroke:#181818;stroke-width:1.0;"/><path d="M541.1563,393.9766 L538.7031,388.2109 L539.0313,388.2109 C539.4375,388.2109 539.5938,388.1797 539.7344,388.1016 C540,387.9453 540.1406,387.6641 540.1406,387.3672 C540.1406,387.1016 540.0156,386.8359 539.8125,386.6641 C539.6406,386.5547 539.4688,386.5234 539.0313,386.5234 L536.7656,386.5234 C536.3281,386.5234 536.2031,386.5391 536.0469,386.6328 C535.7969,386.7891 535.6406,387.0859 535.6406,387.3672 C535.6406,387.7109 535.875,388.0547 536.1719,388.1484 C536.3281,388.1953 536.4531,388.2109 536.7969,388.2109 L540.2344,396.4297 L541.9219,396.4297 L545.4063,388.2109 C545.7656,388.2109 545.875,388.1953 546.0313,388.1484 C546.3125,388.0547 546.5625,387.7109 546.5625,387.3672 C546.5625,387.1016 546.4219,386.8359 546.2031,386.6641 C546.0469,386.5547 545.875,386.5234 545.4375,386.5234 L543.1875,386.5234 C542.75,386.5234 542.625,386.5391 542.4844,386.6328 C542.2188,386.7891 542.0625,387.0859 542.0625,387.3672 C542.0625,387.6484 542.2031,387.8984 542.4063,388.0703 C542.5938,388.1797 542.7344,388.2109 543.1875,388.2109 L543.5938,388.2109 L541.1563,393.9766 Z " fill="#000000"/><text fill="#000000" font-family="sans-serif" font-size="12" font-style="italic" lengthAdjust="spacing" textLength="87" x="563.5" y="386.4355">&#171;value object&#187;</text><text fill="#000000" font-family="sans-serif" font-size="14" lengthAdjust="spacing" textLength="104" x="555" y="402.2607">EventDuration</text><line style="stroke:#181818;stroke-width:0.5;" x1="527" x2="661" y1="410.5625" y2="410.5625"/></g><!--class EventDate--><g id="elem_EventDate"><rect codeLine="29" fill="#F1F1F1" height="48.2656" id="EventDate" rx="2.5" ry="2.5" style="stroke:#181818;stroke-width:0.5;" width="115" x="697.5" y="370.2969"/><ellipse cx="712.5" cy="390.4297" fill="#FF8B40" rx="11" ry="11" style="stroke:#181818;stroke-width:1.0;"/><path d="M712.6563,393.9766 L710.2031,388.2109 L710.5313,388.2109 C710.9375,388.2109 711.0938,388.1797 711.2344,388.1016 C711.5,387.9453 711.6406,387.6641 711.6406,387.3672 C711.6406,387.1016 711.5156,386.8359 711.3125,386.6641 C711.1406,386.5547 710.9688,386.5234 710.5313,386.5234 L708.2656,386.5234 C707.8281,386.5234 707.7031,386.5391 707.5469,386.6328 C707.2969,386.7891 707.1406,387.0859 707.1406,387.3672 C707.1406,387.7109 707.375,388.0547 707.6719,388.1484 C707.8281,388.1953 707.9531,388.2109 708.2969,388.2109 L711.7344,396.4297 L713.4219,396.4297 L716.9063,388.2109 C717.2656,388.2109 717.375,388.1953 717.5313,388.1484 C717.8125,388.0547 718.0625,387.7109 718.0625,387.3672 C718.0625,387.1016 717.9219,386.8359 717.7031,386.6641 C717.5469,386.5547 717.375,386.5234 716.9375,386.5234 L714.6875,386.5234 C714.25,386.5234 714.125,386.5391 713.9844,386.6328 C713.7188,386.7891 713.5625,387.0859 713.5625,387.3672 C713.5625,387.6484 713.7031,387.8984 713.9063,388.0703 C714.0938,388.1797 714.2344,388.2109 714.6875,388.2109 L715.0938,388.2109 L712.6563,393.9766 Z " fill="#000000"/><text fill="#000000" font-family="sans-serif" font-size="12" font-style="italic" lengthAdjust="spacing" textLength="87" x="724.5" y="386.4355">&#171;value object&#187;</text><text fill="#000000" font-family="sans-serif" font-size="14" lengthAdjust="spacing" textLength="77" x="729.5" y="402.2607">EventDate</text><line style="stroke:#181818;stroke-width:0.5;" x1="698.5" x2="811.5" y1="410.5625" y2="410.5625"/></g><!--link Event to EventDuration--><g id="link_Event_EventDuration"><path codeLine="32" d="M594,265.5599 C594,292.3509 594,336.3539 594,365.0779 " fill="none" id="Event-to-EventDuration" style="stroke:#181818;stroke-width:1.0;"/><polygon fill="#181818" points="594,370.2559,598,361.2559,594,365.2559,590,361.2559,594,370.2559" style="stroke:#181818;stroke-width:1.0;"/></g><!--link Event to EventDate--><g id="link_Event_EventDate"><path codeLine="33" d="M620.185,265.6129 C637.338,280.9909 660.169,301.6639 680,320.2969 C695.977,335.3089 713.554,352.3869 727.674,366.2479 " fill="none" id="Event-to-EventDate" style="stroke:#181818;stroke-width:1.0;"/><polygon fill="#181818" points="731.56,370.0669,727.9429,360.9063,727.9932,366.5629,722.3365,366.6132,731.56,370.0669" style="stroke:#181818;stroke-width:1.0;"/></g><!--link ParticipationMeeting to ParticipationMeetingStatus--><g id="link_ParticipationMeeting_ParticipationMeetingStatus"><path codeLine="35" d="M156.457,265.5599 C152.376,292.3509 145.673,336.3539 141.298,365.0779 " fill="none" id="ParticipationMeeting-to-ParticipationMeetingStatus" style="stroke:#181818;stroke-width:1.0;"/><polygon fill="#181818" points="140.51,370.2559,145.8196,361.9608,141.2629,365.3129,137.9108,360.7562,140.51,370.2559" style="stroke:#181818;stroke-width:1.0;"/></g><!--link Meeting to Event--><g id="link_Meeting_Event"><path codeLine="38" d="M239.885,125.2099 C310.807,148.2589 447.333,192.6299 528.58,219.0359 " fill="none" id="Meeting-to-Event" style="stroke:#181818;stroke-width:1.0;"/><polygon fill="none" points="530.87,212.4189,547.727,225.2579,526.543,225.7339,530.87,212.4189" style="stroke:#181818;stroke-width:1.0;"/></g><!--link ParticipationMeeting to SystemUser--><g id="link_ParticipationMeeting_SystemUser"><path codeLine="41" d="M192.195,265.4229 C213.699,280.8999 242.591,301.7549 268,320.2969 C285.652,333.1789 305.01,347.4259 321.889,359.8889 " fill="none" id="ParticipationMeeting-to-SystemUser" style="stroke:#181818;stroke-width:1.0;"/><polygon fill="#181818" points="326.125,363.0169,321.2637,354.4514,322.1037,360.0455,316.5095,360.8855,326.125,363.0169" style="stroke:#181818;stroke-width:1.0;"/><polygon fill="#000000" points="266.0416,306.8071,260.4606,299.1061,257,303.8573,266.0416,306.8071" style="stroke:#000000;stroke-width:1.0;"/><text fill="#000000" font-family="sans-serif" font-size="13" lengthAdjust="spacing" textLength="23" x="271" y="308.3638">has</text><text fill="#000000" font-family="sans-serif" font-size="13" lengthAdjust="spacing" textLength="23" x="174.4981" y="285.5769">0..*</text><text fill="#000000" font-family="sans-serif" font-size="13" lengthAdjust="spacing" textLength="23" x="292.3227" y="352.0749">1..*</text></g><!--link Meeting to ParticipationMeeting--><g id="link_Meeting_ParticipationMeeting"><path codeLine="42" d="M186.114,140.4479 C180.448,162.1139 172.864,191.1119 167.329,212.2749 " fill="none" id="Meeting-to-ParticipationMeeting" style="stroke:#181818;stroke-width:1.0;"/><polygon fill="#181818" points="166.039,217.2049,172.1864,209.5101,167.3044,212.3676,164.4469,207.4856,166.039,217.2049" style="stroke:#181818;stroke-width:1.0;"/><polygon fill="#000000" points="182.7349,183.7006,187.8668,175.6934,182.1802,174.2062,182.7349,183.7006" style="stroke:#000000;stroke-width:1.0;"/><text fill="#000000" font-family="sans-serif" font-size="13" lengthAdjust="spacing" textLength="48" x="193" y="183.3638">creates</text><text fill="#000000" font-family="sans-serif" font-size="13" lengthAdjust="spacing" textLength="8" x="175.6625" y="160.4761">1</text><text fill="#000000" font-family="sans-serif" font-size="13" lengthAdjust="spacing" textLength="23" x="141.6396" y="206.1593">1..*</text></g><!--SRC=[XLB1Rjim3BthAmZlaBQe0nV8OIWC0rso03aCAnQqTqOc72ssP4XCXcxh9_KhzcDZP3TrDnVLII8VttianQu5Th1npAw1qdZIR9nLYWtN10lNeB4mhp442d2sc9z32dThc6NPJAcjAGaQugqhWmexOrlqs80-mc-OlTdicLRQsRNvIP0fDLa_1ARcBf1NBUeTLWH9dcDLUQgGgIZW1P70BmLoo8gPXq42yhoB2JpFlNCibmxxg1v5vGiH6rkz9T6d_-7lesFaGzWjUZRQj7YSq_yr4He7C8fSC_8-2Fxi_X8-B9SVFysoSpXWlITmc-yo_Px2EgP-BV5zF0k3bSmNGQPEWR5quPGhJMYT_VDqe1gqhD89GqEdTD8EpQHDvoODqKxIzrT6rJZ1pmTfIE4ci4VD49_Y-ZaW9hiUOsAnzv7sdRQ65RA8Tz1gSXy3NsCWgCv2MheVDYrUwuxcH46fqMKzuzxUZuYlx9QyORIQrAam_Tsp2-0RrR4mZ8iasNHwaKX90SbLl0x-xpLiCK1n8awkNY572Qz1UvAcfEul]--></g></svg>