<?xml version="1.0" encoding="us-ascii" standalone="no"?><svg xmlns="http://www.w3.org/2000/svg" xmlns:xlink="http://www.w3.org/1999/xlink" contentStyleType="text/css" height="271px" preserveAspectRatio="none" style="width:794px;height:271px;background:#FFFFFF;" version="1.1" viewBox="0 0 794 271" width="794px" zoomAndPan="magnify"><defs/><g><ellipse cx="16" cy="32" fill="#181818" rx="10" ry="10" style="stroke:none;stroke-width:1.0;"/><g id="created"><rect fill="#F1F1F1" height="50" rx="12.5" ry="12.5" style="stroke:#181818;stroke-width:0.5;" width="76" x="161" y="7"/><line style="stroke:#181818;stroke-width:0.5;" x1="161" x2="237" y1="33.2969" y2="33.2969"/><text fill="#000000" font-family="sans-serif" font-size="14" lengthAdjust="spacing" textLength="56" x="171" y="24.9951">created</text></g><g id="canceled"><rect fill="#F1F1F1" height="50" rx="12.5" ry="12.5" style="stroke:#181818;stroke-width:0.5;" width="84" x="205" y="134"/><line style="stroke:#181818;stroke-width:0.5;" x1="205" x2="289" y1="160.2969" y2="160.2969"/><text fill="#000000" font-family="sans-serif" font-size="14" lengthAdjust="spacing" textLength="64" x="215" y="151.9951">canceled</text></g><ellipse cx="434" cy="255" fill="none" rx="10" ry="10" style="stroke:#181818;stroke-width:1.0;"/><ellipse cx="434.5" cy="255.5" fill="#181818" rx="6" ry="6" style="stroke:none;stroke-width:1.0;"/><g id="invited"><rect fill="#F1F1F1" height="50" rx="12.5" ry="12.5" style="stroke:#181818;stroke-width:0.5;" width="70" x="490" y="7"/><line style="stroke:#181818;stroke-width:0.5;" x1="490" x2="560" y1="33.2969" y2="33.2969"/><text fill="#000000" font-family="sans-serif" font-size="14" lengthAdjust="spacing" textLength="50" x="500" y="24.9951">invited</text></g><g id="refused"><rect fill="#F1F1F1" height="50" rx="12.5" ry="12.5" style="stroke:#181818;stroke-width:0.5;" width="74" x="397" y="134"/><line style="stroke:#181818;stroke-width:0.5;" x1="397" x2="471" y1="160.2969" y2="160.2969"/><text fill="#000000" font-family="sans-serif" font-size="14" lengthAdjust="spacing" textLength="54" x="407" y="151.9951">refused</text></g><g id="accepted"><rect fill="#F1F1F1" height="50" rx="12.5" ry="12.5" style="stroke:#181818;stroke-width:0.5;" width="88" x="555" y="134"/><line style="stroke:#181818;stroke-width:0.5;" x1="555" x2="643" y1="160.2969" y2="160.2969"/><text fill="#000000" font-family="sans-serif" font-size="14" lengthAdjust="spacing" textLength="68" x="565" y="151.9951">accepted</text></g><!--link *start* to created--><g id="link_*start*_created"><path d="M26.0995,32 C50.2924,32 112.731,32 155.557,32 " fill="none" id="*start*-to-created" style="stroke:#181818;stroke-width:1.0;"/><polygon fill="#181818" points="160.679,32,151.679,28,155.679,32,151.679,36,160.679,32" style="stroke:#181818;stroke-width:1.0;"/><text fill="#000000" font-family="sans-serif" font-size="13" lengthAdjust="spacing" textLength="98" x="44.5" y="25.0669">meeting create</text></g><!--link created to canceled--><g id="link_created_canceled"><path d="M193.176,57.165 C190.928,71.298 190.12,89.211 196,104 C199.808,113.577 206.209,122.437 213.212,130.095 " fill="none" id="created-to-canceled" style="stroke:#181818;stroke-width:1.0;"/><polygon fill="#181818" points="216.69,133.756,213.3896,124.4766,213.2456,130.1316,207.5906,129.9876,216.69,133.756" style="stroke:#181818;stroke-width:1.0;"/><text fill="#000000" font-family="sans-serif" font-size="13" lengthAdjust="spacing" textLength="193" x="197" y="100.0669">User has overlapped schedule</text></g><!--link canceled to *end*--><g id="link_canceled_*end*"><path d="M289.433,181.3301 C331.634,202.5435 393.857,233.8213 420.783,247.3559 " fill="none" id="canceled-to-*end*" style="stroke:#181818;stroke-width:1.0;"/><polygon fill="#181818" points="425.387,249.6703,419.1423,242.0542,420.9197,247.4246,415.5493,249.202,425.387,249.6703" style="stroke:#181818;stroke-width:1.0;"/></g><!--link created to invited--><g id="link_created_invited"><path d="M237.034,32 C298.95,32 420.987,32 484.474,32 " fill="none" id="created-to-invited" style="stroke:#181818;stroke-width:1.0;"/><polygon fill="#181818" points="489.687,32,480.687,28,484.687,32,480.687,36,489.687,32" style="stroke:#181818;stroke-width:1.0;"/><text fill="#000000" font-family="sans-serif" font-size="13" lengthAdjust="spacing" textLength="216" x="255.5" y="25.0669">User has no overlapping schedule</text></g><!--link invited to refused--><g id="link_invited_refused"><path d="M489.934,42.303 C467.651,50.232 440.536,64.086 427,87 C419.65,99.442 420.453,115.291 423.505,128.856 " fill="none" id="invited-to-refused" style="stroke:#181818;stroke-width:1.0;"/><polygon fill="#181818" points="424.72,133.74,426.4285,124.0405,423.5127,128.8879,418.6652,125.9721,424.72,133.74" style="stroke:#181818;stroke-width:1.0;"/><text fill="#000000" font-family="sans-serif" font-size="13" lengthAdjust="spacing" textLength="173" x="428" y="100.0669">User declines the invitation</text></g><!--link invited to accepted--><g id="link_invited_accepted"><path d="M560.29,45.697 C578.635,54.31 599.392,67.694 610,87 C617.008,99.755 615.343,115.631 611.456,129.134 " fill="none" id="invited-to-accepted" style="stroke:#181818;stroke-width:1.0;"/><polygon fill="#181818" points="609.935,133.991,616.4419,126.5978,611.4293,129.2195,608.8076,124.2069,609.935,133.991" style="stroke:#181818;stroke-width:1.0;"/><text fill="#000000" font-family="sans-serif" font-size="13" lengthAdjust="spacing" textLength="171" x="615" y="100.0669">User accepts the invitation</text></g><!--link refused to *end*--><g id="link_refused_*end*"><path d="M434,184.2073 C434,201.8423 434,225.1261 434,239.8351 " fill="none" id="refused-to-*end*" style="stroke:#181818;stroke-width:1.0;"/><polygon fill="#181818" points="434,244.8399,438,235.8399,434,239.8399,430,235.8399,434,244.8399" style="stroke:#181818;stroke-width:1.0;"/></g><!--link accepted to *end*--><g id="link_accepted_*end*"><path d="M556.508,184.2073 C520.138,204.9277 470.078,233.4463 446.828,246.6918 " fill="none" id="accepted-to-*end*" style="stroke:#181818;stroke-width:1.0;"/><polygon fill="#181818" points="442.288,249.2781,452.0882,248.2999,446.6328,246.8036,448.129,241.3482,442.288,249.2781" style="stroke:#181818;stroke-width:1.0;"/></g><!--SRC=[ROyn3iCW34LtJi5MgLAQFKDkqQdgO84Ra0X1u6IfUlU61DEgwUXl__VWP8X2wjesEF0qZ-wYfh5D18IDjZ1468MudU-owQMAkCPQTd949Ek7aWYntTVzKxo4uA79HV0AtTQy9epIG9BJWj5126kQb44zkm-7ptSGJvcqleIlh5_iqTRN_ClbfwhBh_xrHNpCYKbSppPU59H6vQp79CaKFP2TF6D0AGpqZrCt1RJFHmxx-AUrLu8t]--></g></svg>