<?xml version="1.0" encoding="us-ascii" standalone="no"?><svg xmlns="http://www.w3.org/2000/svg" xmlns:xlink="http://www.w3.org/1999/xlink" contentStyleType="text/css" height="630px" preserveAspectRatio="none" style="width:1478px;height:630px;background:#FFFFFF;" version="1.1" viewBox="0 0 1478 630" width="1478px" zoomAndPan="magnify"><defs/><g><text fill="#000000" font-family="sans-serif" font-size="14" font-weight="bold" lengthAdjust="spacing" textLength="270" x="605.75" y="27.9951">Sequence Diagram (SD) - US 4004</text><rect fill="#FFFFFF" height="386.7266" style="stroke:#181818;stroke-width:1.0;" width="10" x="37" y="130.8906"/><rect fill="#FFFFFF" height="365.5938" style="stroke:#181818;stroke-width:1.0;" width="10" x="656" y="152.0234"/><rect fill="#FFFFFF" height="87.3984" style="stroke:#181818;stroke-width:1.0;" width="10" x="897" y="210.2891"/><rect fill="#FFFFFF" height="88.2656" style="stroke:#181818;stroke-width:1.0;" width="10" x="897" y="400.2188"/><rect fill="#FFFFFF" height="30" style="stroke:#181818;stroke-width:1.0;" width="10" x="1249" y="429.3516"/><rect fill="#FFFFFF" height="29.1328" style="stroke:#181818;stroke-width:1.0;" width="10" x="1400.5" y="239.4219"/><line style="stroke:#181818;stroke-width:0.5;stroke-dasharray:5.0,5.0;" x1="42" x2="42" y1="120.8906" y2="535.6172"/><line style="stroke:#181818;stroke-width:0.5;stroke-dasharray:5.0,5.0;" x1="660.5" x2="660.5" y1="120.8906" y2="535.6172"/><line style="stroke:#181818;stroke-width:0.5;stroke-dasharray:5.0,5.0;" x1="901.5" x2="901.5" y1="120.8906" y2="535.6172"/><line style="stroke:#181818;stroke-width:0.5;stroke-dasharray:5.0,5.0;" x1="1107.5" x2="1107.5" y1="120.8906" y2="535.6172"/><line style="stroke:#181818;stroke-width:0.5;stroke-dasharray:5.0,5.0;" x1="1253.5" x2="1253.5" y1="120.8906" y2="535.6172"/><line style="stroke:#181818;stroke-width:0.5;stroke-dasharray:5.0,5.0;" x1="1405.5" x2="1405.5" y1="120.8906" y2="535.6172"/><text fill="#000000" font-family="sans-serif" font-size="14" lengthAdjust="spacing" textLength="68" x="5" y="117.5889">Utilizador</text><ellipse cx="42" cy="53.0938" fill="#E3E3E3" rx="8" ry="8" style="stroke:#181818;stroke-width:0.5;"/><path d="M42,61.0938 L42,88.0938 M29,69.0938 L55,69.0938 M42,88.0938 L29,103.0938 M42,88.0938 L55,103.0938 " fill="none" style="stroke:#181818;stroke-width:0.5;"/><text fill="#000000" font-family="sans-serif" font-size="14" lengthAdjust="spacing" textLength="68" x="5" y="547.6123">Utilizador</text><ellipse cx="42" cy="559.4141" fill="#E3E3E3" rx="8" ry="8" style="stroke:#181818;stroke-width:0.5;"/><path d="M42,567.4141 L42,594.4141 M29,575.4141 L55,575.4141 M42,594.4141 L29,609.4141 M42,594.4141 L55,609.4141 " fill="none" style="stroke:#181818;stroke-width:0.5;"/><rect fill="#E3E3E3" height="46.5938" rx="2.5" ry="2.5" style="stroke:#181818;stroke-width:0.5;" width="205" x="558.5" y="73.2969"/><text fill="#000000" font-family="sans-serif" font-size="14" font-style="italic" lengthAdjust="spacing" textLength="108" x="607" y="93.292">&#171;presentation&#187;</text><text fill="#000000" font-family="sans-serif" font-size="14" lengthAdjust="spacing" textLength="191" x="565.5" y="109.5889">ListParticipationMeetingUI</text><rect fill="#E3E3E3" height="46.5938" rx="2.5" ry="2.5" style="stroke:#181818;stroke-width:0.5;" width="205" x="558.5" y="534.6172"/><text fill="#000000" font-family="sans-serif" font-size="14" font-style="italic" lengthAdjust="spacing" textLength="108" x="607" y="554.6123">&#171;presentation&#187;</text><text fill="#000000" font-family="sans-serif" font-size="14" lengthAdjust="spacing" textLength="191" x="565.5" y="570.9092">ListParticipationMeetingUI</text><text fill="#000000" font-family="sans-serif" font-size="14" font-style="italic" lengthAdjust="spacing" textLength="97" x="850.5" y="101.292">&#171;application&#187;</text><text fill="#000000" font-family="sans-serif" font-size="14" lengthAdjust="spacing" textLength="251" x="773.5" y="117.5889">ListParticipationMeetingController</text><ellipse cx="902" cy="72.2969" fill="#E3E3E3" rx="12" ry="12" style="stroke:#181818;stroke-width:0.5;"/><polygon fill="#181818" points="898,60.2969,904,55.2969,902,60.2969,904,65.2969,898,60.2969" style="stroke:#181818;stroke-width:1.0;"/><text fill="#000000" font-family="sans-serif" font-size="14" font-style="italic" lengthAdjust="spacing" textLength="97" x="850.5" y="547.6123">&#171;application&#187;</text><text fill="#000000" font-family="sans-serif" font-size="14" lengthAdjust="spacing" textLength="251" x="773.5" y="563.9092">ListParticipationMeetingController</text><ellipse cx="902" cy="583.2109" fill="#E3E3E3" rx="12" ry="12" style="stroke:#181818;stroke-width:0.5;"/><polygon fill="#181818" points="898,571.2109,904,566.2109,902,571.2109,904,576.2109,898,571.2109" style="stroke:#181818;stroke-width:1.0;"/><rect fill="#E3E3E3" height="46.5938" rx="2.5" ry="2.5" style="stroke:#181818;stroke-width:0.5;" width="134" x="1040.5" y="73.2969"/><text fill="#000000" font-family="sans-serif" font-size="14" font-style="italic" lengthAdjust="spacing" textLength="72" x="1071.5" y="93.292">&#171;domain&#187;</text><text fill="#000000" font-family="sans-serif" font-size="14" lengthAdjust="spacing" textLength="120" x="1047.5" y="109.5889">user:SystemUser</text><rect fill="#E3E3E3" height="46.5938" rx="2.5" ry="2.5" style="stroke:#181818;stroke-width:0.5;" width="134" x="1040.5" y="534.6172"/><text fill="#000000" font-family="sans-serif" font-size="14" font-style="italic" lengthAdjust="spacing" textLength="72" x="1071.5" y="554.6123">&#171;domain&#187;</text><text fill="#000000" font-family="sans-serif" font-size="14" lengthAdjust="spacing" textLength="120" x="1047.5" y="570.9092">user:SystemUser</text><rect fill="#E3E3E3" height="46.5938" rx="2.5" ry="2.5" style="stroke:#181818;stroke-width:0.5;" width="139" x="1184.5" y="73.2969"/><text fill="#000000" font-family="sans-serif" font-size="14" font-style="italic" lengthAdjust="spacing" textLength="72" x="1218" y="93.292">&#171;domain&#187;</text><text fill="#000000" font-family="sans-serif" font-size="14" lengthAdjust="spacing" textLength="125" x="1191.5" y="109.5889">meeting:Meeting</text><rect fill="#E3E3E3" height="46.5938" rx="2.5" ry="2.5" style="stroke:#181818;stroke-width:0.5;" width="139" x="1184.5" y="534.6172"/><text fill="#000000" font-family="sans-serif" font-size="14" font-style="italic" lengthAdjust="spacing" textLength="72" x="1218" y="554.6123">&#171;domain&#187;</text><text fill="#000000" font-family="sans-serif" font-size="14" lengthAdjust="spacing" textLength="125" x="1191.5" y="570.9092">meeting:Meeting</text><text fill="#000000" font-family="sans-serif" font-size="14" font-style="italic" lengthAdjust="spacing" textLength="90" x="1357.5" y="101.292">&#171;repository&#187;</text><text fill="#000000" font-family="sans-serif" font-size="14" lengthAdjust="spacing" textLength="138" x="1333.5" y="117.5889">MeetingRepository</text><path d="M1387.5,52.2969 C1387.5,42.2969 1405.5,42.2969 1405.5,42.2969 C1405.5,42.2969 1423.5,42.2969 1423.5,52.2969 L1423.5,78.2969 C1423.5,88.2969 1405.5,88.2969 1405.5,88.2969 C1405.5,88.2969 1387.5,88.2969 1387.5,78.2969 L1387.5,52.2969 " fill="#E3E3E3" style="stroke:#181818;stroke-width:1.5;"/><path d="M1387.5,52.2969 C1387.5,62.2969 1405.5,62.2969 1405.5,62.2969 C1405.5,62.2969 1423.5,62.2969 1423.5,52.2969 " fill="none" style="stroke:#181818;stroke-width:1.5;"/><text fill="#000000" font-family="sans-serif" font-size="14" font-style="italic" lengthAdjust="spacing" textLength="90" x="1357.5" y="547.6123">&#171;repository&#187;</text><text fill="#000000" font-family="sans-serif" font-size="14" lengthAdjust="spacing" textLength="138" x="1333.5" y="563.9092">MeetingRepository</text><path d="M1387.5,577.2109 C1387.5,567.2109 1405.5,567.2109 1405.5,567.2109 C1405.5,567.2109 1423.5,567.2109 1423.5,577.2109 L1423.5,603.2109 C1423.5,613.2109 1405.5,613.2109 1405.5,613.2109 C1405.5,613.2109 1387.5,613.2109 1387.5,603.2109 L1387.5,577.2109 " fill="#E3E3E3" style="stroke:#181818;stroke-width:1.5;"/><path d="M1387.5,577.2109 C1387.5,587.2109 1405.5,587.2109 1405.5,587.2109 C1405.5,587.2109 1423.5,587.2109 1423.5,577.2109 " fill="none" style="stroke:#181818;stroke-width:1.5;"/><rect fill="#FFFFFF" height="386.7266" style="stroke:#181818;stroke-width:1.0;" width="10" x="37" y="130.8906"/><rect fill="#FFFFFF" height="365.5938" style="stroke:#181818;stroke-width:1.0;" width="10" x="656" y="152.0234"/><rect fill="#FFFFFF" height="87.3984" style="stroke:#181818;stroke-width:1.0;" width="10" x="897" y="210.2891"/><rect fill="#FFFFFF" height="88.2656" style="stroke:#181818;stroke-width:1.0;" width="10" x="897" y="400.2188"/><rect fill="#FFFFFF" height="30" style="stroke:#181818;stroke-width:1.0;" width="10" x="1249" y="429.3516"/><rect fill="#FFFFFF" height="29.1328" style="stroke:#181818;stroke-width:1.0;" width="10" x="1400.5" y="239.4219"/><polygon fill="#181818" points="644,148.0234,654,152.0234,644,156.0234,648,152.0234" style="stroke:#181818;stroke-width:1.0;"/><line style="stroke:#181818;stroke-width:1.0;" x1="47" x2="650" y1="152.0234" y2="152.0234"/><text fill="#000000" font-family="sans-serif" font-size="13" font-weight="bold" lengthAdjust="spacing" textLength="9" x="54" y="146.9575">1</text><text fill="#000000" font-family="sans-serif" font-size="13" lengthAdjust="spacing" textLength="318" x="67" y="146.9575">Pede para listar todos os participantes na reuni&#227;o</text><polygon fill="#181818" points="890,177.1563,900,181.1563,890,185.1563,894,181.1563" style="stroke:#181818;stroke-width:1.0;"/><line style="stroke:#181818;stroke-width:1.0;" x1="666" x2="896" y1="181.1563" y2="181.1563"/><text fill="#000000" font-family="sans-serif" font-size="13" font-weight="bold" lengthAdjust="spacing" textLength="9" x="673" y="176.0903">2</text><text fill="#000000" font-family="sans-serif" font-size="13" lengthAdjust="spacing" textLength="41" x="686" y="176.0903">create</text><polygon fill="#181818" points="885,206.2891,895,210.2891,885,214.2891,889,210.2891" style="stroke:#181818;stroke-width:1.0;"/><line style="stroke:#181818;stroke-width:1.0;" x1="666" x2="891" y1="210.2891" y2="210.2891"/><text fill="#000000" font-family="sans-serif" font-size="13" font-weight="bold" lengthAdjust="spacing" textLength="8" x="673" y="205.2231">3</text><text fill="#000000" font-family="sans-serif" font-size="13" lengthAdjust="spacing" textLength="100" x="685" y="205.2231">listAllMeetings()</text><polygon fill="#181818" points="1388.5,235.4219,1398.5,239.4219,1388.5,243.4219,1392.5,239.4219" style="stroke:#181818;stroke-width:1.0;"/><line style="stroke:#181818;stroke-width:1.0;" x1="907" x2="1394.5" y1="239.4219" y2="239.4219"/><text fill="#000000" font-family="sans-serif" font-size="13" font-weight="bold" lengthAdjust="spacing" textLength="9" x="914" y="234.356">4</text><text fill="#000000" font-family="sans-serif" font-size="13" lengthAdjust="spacing" textLength="170" x="927" y="234.356">list = findAllMeetings(user)</text><polygon fill="#181818" points="918,264.5547,908,268.5547,918,272.5547,914,268.5547" style="stroke:#181818;stroke-width:1.0;"/><line style="stroke:#181818;stroke-width:1.0;stroke-dasharray:2.0,2.0;" x1="912" x2="1404.5" y1="268.5547" y2="268.5547"/><text fill="#000000" font-family="sans-serif" font-size="13" font-weight="bold" lengthAdjust="spacing" textLength="9" x="924" y="263.4888">5</text><text fill="#000000" font-family="sans-serif" font-size="13" lengthAdjust="spacing" textLength="4" x="937" y="263.4888">&#160;</text><polygon fill="#181818" points="677,293.6875,667,297.6875,677,301.6875,673,297.6875" style="stroke:#181818;stroke-width:1.0;"/><line style="stroke:#181818;stroke-width:1.0;stroke-dasharray:2.0,2.0;" x1="671" x2="901" y1="297.6875" y2="297.6875"/><text fill="#000000" font-family="sans-serif" font-size="13" font-weight="bold" lengthAdjust="spacing" textLength="9" x="683" y="292.6216">6</text><text fill="#000000" font-family="sans-serif" font-size="13" lengthAdjust="spacing" textLength="18" x="696" y="292.6216">list</text><polygon fill="#181818" points="58,322.8203,48,326.8203,58,330.8203,54,326.8203" style="stroke:#181818;stroke-width:1.0;"/><line style="stroke:#181818;stroke-width:1.0;stroke-dasharray:2.0,2.0;" x1="52" x2="655" y1="326.8203" y2="326.8203"/><text fill="#000000" font-family="sans-serif" font-size="13" font-weight="bold" lengthAdjust="spacing" textLength="9" x="64" y="321.7544">7</text><text fill="#000000" font-family="sans-serif" font-size="13" lengthAdjust="spacing" textLength="310" x="77" y="321.7544">Mostra a lista de todas as reuni&#245;es que participa</text><polygon fill="#181818" points="644,367.0859,654,371.0859,644,375.0859,648,371.0859" style="stroke:#181818;stroke-width:1.0;"/><line style="stroke:#181818;stroke-width:1.0;" x1="47" x2="650" y1="371.0859" y2="371.0859"/><text fill="#000000" font-family="sans-serif" font-size="13" font-weight="bold" lengthAdjust="spacing" textLength="9" x="54" y="358.4536">8</text><text fill="#000000" font-family="sans-serif" font-size="13" lengthAdjust="spacing" textLength="568" x="67" y="350.8872">Seleciona a reuni&#227;o que pretende saber a lista de todos os participantes numa reuni&#227;o e</text><text fill="#000000" font-family="sans-serif" font-size="13" lengthAdjust="spacing" textLength="116" x="71" y="366.02">o respetivo status</text><polygon fill="#181818" points="885,396.2188,895,400.2188,885,404.2188,889,400.2188" style="stroke:#181818;stroke-width:1.0;"/><line style="stroke:#181818;stroke-width:1.0;" x1="666" x2="891" y1="400.2188" y2="400.2188"/><text fill="#000000" font-family="sans-serif" font-size="13" font-weight="bold" lengthAdjust="spacing" textLength="9" x="673" y="395.1528">9</text><text fill="#000000" font-family="sans-serif" font-size="13" lengthAdjust="spacing" textLength="171" x="686" y="395.1528">listAllParticipants(meeting)</text><polygon fill="#181818" points="1237,425.3516,1247,429.3516,1237,433.3516,1241,429.3516" style="stroke:#181818;stroke-width:1.0;"/><line style="stroke:#181818;stroke-width:1.0;" x1="907" x2="1243" y1="429.3516" y2="429.3516"/><text fill="#000000" font-family="sans-serif" font-size="13" font-weight="bold" lengthAdjust="spacing" textLength="19" x="914" y="424.2856">10</text><text fill="#000000" font-family="sans-serif" font-size="13" lengthAdjust="spacing" textLength="135" x="937" y="424.2856">list = allParticipants()</text><polygon fill="#181818" points="677,484.4844,667,488.4844,677,492.4844,673,488.4844" style="stroke:#181818;stroke-width:1.0;"/><line style="stroke:#181818;stroke-width:1.0;stroke-dasharray:2.0,2.0;" x1="671" x2="901" y1="488.4844" y2="488.4844"/><text fill="#000000" font-family="sans-serif" font-size="13" font-weight="bold" lengthAdjust="spacing" textLength="18" x="683" y="483.4185">11</text><text fill="#000000" font-family="sans-serif" font-size="13" lengthAdjust="spacing" textLength="18" x="705" y="483.4185">list</text><polygon fill="#181818" points="53,513.6172,43,517.6172,53,521.6172,49,517.6172" style="stroke:#181818;stroke-width:1.0;"/><line style="stroke:#181818;stroke-width:1.0;stroke-dasharray:2.0,2.0;" x1="47" x2="660" y1="517.6172" y2="517.6172"/><text fill="#000000" font-family="sans-serif" font-size="13" font-weight="bold" lengthAdjust="spacing" textLength="18" x="59" y="512.5513">12</text><text fill="#000000" font-family="sans-serif" font-size="13" lengthAdjust="spacing" textLength="319" x="81" y="512.5513">Mostra a lista de todos os participantes e o status</text><!--SRC=[lLFBRjim4BppAnOvEGS3EUGag0Q2-XAW0Om8klMobZOE4OfKo5KAztVw3Vs2_bYNUfbHrQBeeO9WSCsTcTKC6LwqRT5Z0usphdhshY5Wtv4AyqwBrGkUgE2p8V1KCTgJIHl2CzRkYxOdU48JI2dMBAq5lNPaAuAznbFisnJxQzX2MS3jpSsjmewTxPeZUQMmOkUXP6tqLo7pW07kudzA95XNkaNBy4a7FamrQsSVY5Xqo_lOBxzvtdeAPBdVtUrKvInxPtwB_3Zi6-eLaohFiMsDhYQYT8ohBf3FYdDWQafPNlNgijYx1hKLRDqlbh1cqCn6xHushdz5riXun41JnoErBcXnv1nXIPNdVYu45wtKRyWq-WVoz2lOxg956Hoe9eZ9WH5Nq0ExsWMGDvcM0bYKj3khVtnpFSjCNDxtTNo4K6WJtpAeF4dJdpgYx9qnuuU5pVNSF4jS-jMycN08O-B0m0WVu4dREYMEEQsGNw0NyeHkkvXtxgbfZM9jlCdgEDSQVFbvqIJ133bbyE02IpnZG0AC4KdgyWw9V9Tuv79T0bChEHTag9BJ6ucc80UK9oOhh06FyU2_araz2LsJK11yjk2a3gtu_EP0mDm5K7-H-U726pRZVVYd-1SNPpu2kD1O8NyFLMlvB5h-LyHhtXDC1WyyYOJSmwJgcNy2]--></g></svg>