<?xml version="1.0" encoding="us-ascii" standalone="no"?><svg xmlns="http://www.w3.org/2000/svg" xmlns:xlink="http://www.w3.org/1999/xlink" contentStyleType="text/css" height="924px" preserveAspectRatio="none" style="width:1643px;height:924px;background:#FFFFFF;" version="1.1" viewBox="0 0 1643 924" width="1643px" zoomAndPan="magnify"><defs/><g><text fill="#000000" font-family="sans-serif" font-size="14" font-weight="bold" lengthAdjust="spacing" textLength="201" x="714" y="25.1074">Class Diagram (CD) - US 3002</text><!--class CreateBoardUI--><g id="elem_CreateBoardUI"><rect codeLine="3" fill="#F1F1F1" height="79.2031" id="CreateBoardUI" rx="2.5" ry="2.5" style="stroke:#181818;stroke-width:0.5;" width="125" x="415" y="46.6211"/><ellipse cx="430" cy="68.9121" fill="#ADD1B2" rx="11" ry="11" style="stroke:#181818;stroke-width:1.0;"/><path d="M432.7656,64.7871 Q432.9219,64.5684 433.1094,64.459 Q433.2969,64.3496 433.5156,64.3496 Q433.8906,64.3496 434.125,64.6152 Q434.3594,64.8652 434.3594,65.4746 L434.3594,66.9277 Q434.3594,67.5371 434.125,67.8027 Q433.8906,68.0684 433.5156,68.0684 Q433.1719,68.0684 432.9688,67.8652 Q432.7656,67.6777 432.6563,67.1621 Q432.6094,66.8027 432.4219,66.6152 Q432.0938,66.2402 431.4844,66.0215 Q430.875,65.8027 430.25,65.8027 Q429.4844,65.8027 428.8438,66.1309 Q428.2188,66.459 427.7188,67.209 Q427.2344,67.959 427.2344,68.9902 L427.2344,70.084 Q427.2344,71.3184 428.125,72.1465 Q429.0156,72.959 430.6094,72.959 Q431.5469,72.959 432.2031,72.709 Q432.5938,72.5527 433.0156,72.1152 Q433.2813,71.8496 433.4219,71.7715 Q433.5781,71.6934 433.7813,71.6934 Q434.1094,71.6934 434.3594,71.959 Q434.625,72.209 434.625,72.5527 Q434.625,72.8965 434.2813,73.3027 Q433.7813,73.8809 432.9844,74.209 Q431.9063,74.6621 430.6094,74.6621 Q429.0938,74.6621 427.8906,74.0371 Q426.9063,73.5371 426.2188,72.4746 Q425.5313,71.3965 425.5313,70.1152 L425.5313,68.959 Q425.5313,67.6309 426.1406,66.4902 Q426.7656,65.334 427.8594,64.7246 Q428.9531,64.0996 430.1875,64.0996 Q430.9219,64.0996 431.5625,64.2715 Q432.2188,64.4277 432.7656,64.7871 Z " fill="#000000"/><text fill="#000000" font-family="sans-serif" font-size="12" font-style="italic" lengthAdjust="spacing" textLength="82" x="449.5" y="64.5703">&#171;presentation&#187;</text><text fill="#000000" font-family="sans-serif" font-size="14" lengthAdjust="spacing" textLength="93" x="444" y="82.6895">CreateBoardUI</text><line style="stroke:#181818;stroke-width:0.5;" x1="416" x2="539" y1="91.2031" y2="91.2031"/><line style="stroke:#181818;stroke-width:0.5;" x1="416" x2="539" y1="99.2031" y2="99.2031"/><text fill="#000000" font-family="sans-serif" font-size="14" lengthAdjust="spacing" textLength="60" x="421" y="118.3105">doShow()</text></g><!--class Board--><g id="elem_Board"><rect codeLine="7" fill="#F1F1F1" height="228.1719" id="Board" rx="2.5" ry="2.5" style="stroke:#181818;stroke-width:0.5;" width="711" x="610" y="530.6211"/><ellipse cx="934.25" cy="552.9121" fill="#ADD1B2" rx="11" ry="11" style="stroke:#181818;stroke-width:1.0;"/><path d="M937.0156,548.7871 Q937.1719,548.5684 937.3594,548.459 Q937.5469,548.3496 937.7656,548.3496 Q938.1406,548.3496 938.375,548.6152 Q938.6094,548.8652 938.6094,549.4746 L938.6094,550.9277 Q938.6094,551.5371 938.375,551.8027 Q938.1406,552.0684 937.7656,552.0684 Q937.4219,552.0684 937.2188,551.8652 Q937.0156,551.6777 936.9063,551.1621 Q936.8594,550.8027 936.6719,550.6152 Q936.3438,550.2402 935.7344,550.0215 Q935.125,549.8027 934.5,549.8027 Q933.7344,549.8027 933.0938,550.1309 Q932.4688,550.459 931.9688,551.209 Q931.4844,551.959 931.4844,552.9902 L931.4844,554.084 Q931.4844,555.3184 932.375,556.1465 Q933.2656,556.959 934.8594,556.959 Q935.7969,556.959 936.4531,556.709 Q936.8438,556.5527 937.2656,556.1152 Q937.5313,555.8496 937.6719,555.7715 Q937.8281,555.6934 938.0313,555.6934 Q938.3594,555.6934 938.6094,555.959 Q938.875,556.209 938.875,556.5527 Q938.875,556.8965 938.5313,557.3027 Q938.0313,557.8809 937.2344,558.209 Q936.1563,558.6621 934.8594,558.6621 Q933.3438,558.6621 932.1406,558.0371 Q931.1563,557.5371 930.4688,556.4746 Q929.7813,555.3965 929.7813,554.1152 L929.7813,552.959 Q929.7813,551.6309 930.3906,550.4902 Q931.0156,549.334 932.1094,548.7246 Q933.2031,548.0996 934.4375,548.0996 Q935.1719,548.0996 935.8125,548.2715 Q936.4688,548.4277 937.0156,548.7871 Z " fill="#000000"/><text fill="#000000" font-family="sans-serif" font-size="12" font-style="italic" lengthAdjust="spacing" textLength="58" x="952.75" y="548.5703">&#171;Domain&#187;</text><text fill="#000000" font-family="sans-serif" font-size="14" lengthAdjust="spacing" textLength="38" x="962.75" y="566.6895">Board</text><line style="stroke:#181818;stroke-width:0.5;" x1="611" x2="1320" y1="575.2031" y2="575.2031"/><rect fill="none" height="6" style="stroke:#C82930;stroke-width:1.0;" width="6" x="618" y="587.0137"/><text fill="#000000" font-family="sans-serif" font-size="14" lengthAdjust="spacing" textLength="71" x="630" y="594.3105">title : String</text><rect fill="none" height="6" style="stroke:#C82930;stroke-width:1.0;" width="6" x="618" y="605.6348"/><text fill="#000000" font-family="sans-serif" font-size="14" lengthAdjust="spacing" textLength="117" x="630" y="612.9316">archived : boolean</text><rect fill="none" height="6" style="stroke:#C82930;stroke-width:1.0;" width="6" x="618" y="624.2559"/><text fill="#000000" font-family="sans-serif" font-size="14" lengthAdjust="spacing" textLength="317" x="630" y="631.5527">boardCreationDateTime : BoardCreationDateTime</text><rect fill="none" height="6" style="stroke:#C82930;stroke-width:1.0;" width="6" x="618" y="642.877"/><text fill="#000000" font-family="sans-serif" font-size="14" lengthAdjust="spacing" textLength="233" x="630" y="650.1738">boardDimensions : BoardDimensions</text><rect fill="none" height="6" style="stroke:#C82930;stroke-width:1.0;" width="6" x="618" y="661.498"/><text fill="#000000" font-family="sans-serif" font-size="14" lengthAdjust="spacing" textLength="301" x="630" y="668.7949">boardElementLineSet : Set&lt;BoardElementLine&gt;</text><rect fill="none" height="6" style="stroke:#C82930;stroke-width:1.0;" width="6" x="618" y="680.1191"/><text fill="#000000" font-family="sans-serif" font-size="14" lengthAdjust="spacing" textLength="343" x="630" y="687.416">boardElementColumnSet : Set&lt;BoardElementColumn&gt;</text><line style="stroke:#181818;stroke-width:0.5;" x1="611" x2="1320" y1="694.9297" y2="694.9297"/><polygon fill="#FFFF44" points="621,704.7402,625,708.7402,621,712.7402,617,708.7402" style="stroke:#B38D22;stroke-width:1.0;"/><text fill="#000000" font-family="sans-serif" font-size="14" lengthAdjust="spacing" textLength="685" x="630" y="714.0371">Board(title : String, boardCreationDateTime : BoardCreationDateTime, boardDimensions : BoardDimensions)</text><ellipse cx="621" cy="728.3613" fill="#84BE84" rx="3" ry="3" style="stroke:#038048;stroke-width:1.0;"/><text fill="#000000" font-family="sans-serif" font-size="14" lengthAdjust="spacing" textLength="333" x="630" y="732.6582">boolean addBoardElementLine(title : String, line : int)</text><ellipse cx="621" cy="746.9824" fill="#84BE84" rx="3" ry="3" style="stroke:#038048;stroke-width:1.0;"/><text fill="#000000" font-family="sans-serif" font-size="14" lengthAdjust="spacing" textLength="377" x="630" y="751.2793">boolean addBoardElementColumn(title : String, column : int)</text></g><!--class BoardBuilder--><g id="elem_BoardBuilder"><rect codeLine="19" fill="#F1F1F1" height="246.793" id="BoardBuilder" rx="2.5" ry="2.5" style="stroke:#181818;stroke-width:0.5;" width="613" x="1023" y="204.6211"/><ellipse cx="1284.25" cy="226.9121" fill="#ADD1B2" rx="11" ry="11" style="stroke:#181818;stroke-width:1.0;"/><path d="M1287.0156,222.7871 Q1287.1719,222.5684 1287.3594,222.459 Q1287.5469,222.3496 1287.7656,222.3496 Q1288.1406,222.3496 1288.375,222.6152 Q1288.6094,222.8652 1288.6094,223.4746 L1288.6094,224.9277 Q1288.6094,225.5371 1288.375,225.8027 Q1288.1406,226.0684 1287.7656,226.0684 Q1287.4219,226.0684 1287.2188,225.8652 Q1287.0156,225.6777 1286.9063,225.1621 Q1286.8594,224.8027 1286.6719,224.6152 Q1286.3438,224.2402 1285.7344,224.0215 Q1285.125,223.8027 1284.5,223.8027 Q1283.7344,223.8027 1283.0938,224.1309 Q1282.4688,224.459 1281.9688,225.209 Q1281.4844,225.959 1281.4844,226.9902 L1281.4844,228.084 Q1281.4844,229.3184 1282.375,230.1465 Q1283.2656,230.959 1284.8594,230.959 Q1285.7969,230.959 1286.4531,230.709 Q1286.8438,230.5527 1287.2656,230.1152 Q1287.5313,229.8496 1287.6719,229.7715 Q1287.8281,229.6934 1288.0313,229.6934 Q1288.3594,229.6934 1288.6094,229.959 Q1288.875,230.209 1288.875,230.5527 Q1288.875,230.8965 1288.5313,231.3027 Q1288.0313,231.8809 1287.2344,232.209 Q1286.1563,232.6621 1284.8594,232.6621 Q1283.3438,232.6621 1282.1406,232.0371 Q1281.1563,231.5371 1280.4688,230.4746 Q1279.7813,229.3965 1279.7813,228.1152 L1279.7813,226.959 Q1279.7813,225.6309 1280.3906,224.4902 Q1281.0156,223.334 1282.1094,222.7246 Q1283.2031,222.0996 1284.4375,222.0996 Q1285.1719,222.0996 1285.8125,222.2715 Q1286.4688,222.4277 1287.0156,222.7871 Z " fill="#000000"/><text fill="#000000" font-family="sans-serif" font-size="12" font-style="italic" lengthAdjust="spacing" textLength="58" x="1316.75" y="222.5703">&#171;Domain&#187;</text><text fill="#000000" font-family="sans-serif" font-size="14" lengthAdjust="spacing" textLength="82" x="1304.75" y="240.6895">BoardBuilder</text><line style="stroke:#181818;stroke-width:0.5;" x1="1024" x2="1635" y1="249.2031" y2="249.2031"/><rect fill="none" height="6" style="stroke:#C82930;stroke-width:1.0;" width="6" x="1031" y="261.0137"/><text fill="#000000" font-family="sans-serif" font-size="14" lengthAdjust="spacing" textLength="108" x="1043" y="268.3105">theBoard : Board</text><rect fill="none" height="6" style="stroke:#C82930;stroke-width:1.0;" width="6" x="1031" y="279.6348"/><text fill="#000000" font-family="sans-serif" font-size="14" lengthAdjust="spacing" textLength="71" x="1043" y="286.9316">title : String</text><rect fill="none" height="6" style="stroke:#C82930;stroke-width:1.0;" width="6" x="1031" y="298.2559"/><text fill="#000000" font-family="sans-serif" font-size="14" lengthAdjust="spacing" textLength="317" x="1043" y="305.5527">boardCreationDateTime : BoardCreationDateTime</text><rect fill="none" height="6" style="stroke:#C82930;stroke-width:1.0;" width="6" x="1031" y="316.877"/><text fill="#000000" font-family="sans-serif" font-size="14" lengthAdjust="spacing" textLength="233" x="1043" y="324.1738">boardDimensions : BoardDimensions</text><line style="stroke:#181818;stroke-width:0.5;" x1="1024" x2="1635" y1="331.6875" y2="331.6875"/><ellipse cx="1034" cy="346.498" fill="#84BE84" rx="3" ry="3" style="stroke:#038048;stroke-width:1.0;"/><text fill="#000000" font-family="sans-serif" font-size="14" lengthAdjust="spacing" textLength="205" x="1043" y="350.7949">BoardBuilder entitle(title : String)</text><ellipse cx="1034" cy="365.1191" fill="#84BE84" rx="3" ry="3" style="stroke:#038048;stroke-width:1.0;"/><text fill="#000000" font-family="sans-serif" font-size="14" lengthAdjust="spacing" textLength="400" x="1043" y="369.416">BoardBuilder dimensions(boardDimensions : BoardDimensions)</text><ellipse cx="1034" cy="383.7402" fill="#84BE84" rx="3" ry="3" style="stroke:#038048;stroke-width:1.0;"/><text fill="#000000" font-family="sans-serif" font-size="14" lengthAdjust="spacing" textLength="521" x="1043" y="388.0371">BoardBuildercreationDateTime(boardCreationDateTime : BoardCreationDateTime)</text><ellipse cx="1034" cy="402.3613" fill="#84BE84" rx="3" ry="3" style="stroke:#038048;stroke-width:1.0;"/><text fill="#000000" font-family="sans-serif" font-size="14" lengthAdjust="spacing" textLength="587" x="1043" y="406.6582">BoardBuilder withBoardElementColumns(boardElementColumns : List&lt;Pair&lt;String, Integer&gt;&gt;)</text><ellipse cx="1034" cy="420.9824" fill="#84BE84" rx="3" ry="3" style="stroke:#038048;stroke-width:1.0;"/><text fill="#000000" font-family="sans-serif" font-size="14" lengthAdjust="spacing" textLength="545" x="1043" y="425.2793">BoardBuilder withBoardElementLines(boardElementLines : List&lt;Pair&lt;String, Integer&gt;&gt;)</text><ellipse cx="1034" cy="439.6035" fill="#84BE84" rx="3" ry="3" style="stroke:#038048;stroke-width:1.0;"/><text fill="#000000" font-family="sans-serif" font-size="14" lengthAdjust="spacing" textLength="82" x="1043" y="443.9004">Board build()</text></g><!--class BoardCreationDateTime--><g id="elem_BoardCreationDateTime"><rect codeLine="32" fill="#F1F1F1" height="79.2031" id="BoardCreationDateTime" rx="2.5" ry="2.5" style="stroke:#181818;stroke-width:0.5;" width="343" x="933" y="829.1211"/><ellipse cx="1023.75" cy="851.4121" fill="#ADD1B2" rx="11" ry="11" style="stroke:#181818;stroke-width:1.0;"/><path d="M1026.5156,847.2871 Q1026.6719,847.0684 1026.8594,846.959 Q1027.0469,846.8496 1027.2656,846.8496 Q1027.6406,846.8496 1027.875,847.1152 Q1028.1094,847.3652 1028.1094,847.9746 L1028.1094,849.4277 Q1028.1094,850.0371 1027.875,850.3027 Q1027.6406,850.5684 1027.2656,850.5684 Q1026.9219,850.5684 1026.7188,850.3652 Q1026.5156,850.1777 1026.4063,849.6621 Q1026.3594,849.3027 1026.1719,849.1152 Q1025.8438,848.7402 1025.2344,848.5215 Q1024.625,848.3027 1024,848.3027 Q1023.2344,848.3027 1022.5938,848.6309 Q1021.9688,848.959 1021.4688,849.709 Q1020.9844,850.459 1020.9844,851.4902 L1020.9844,852.584 Q1020.9844,853.8184 1021.875,854.6465 Q1022.7656,855.459 1024.3594,855.459 Q1025.2969,855.459 1025.9531,855.209 Q1026.3438,855.0527 1026.7656,854.6152 Q1027.0313,854.3496 1027.1719,854.2715 Q1027.3281,854.1934 1027.5313,854.1934 Q1027.8594,854.1934 1028.1094,854.459 Q1028.375,854.709 1028.375,855.0527 Q1028.375,855.3965 1028.0313,855.8027 Q1027.5313,856.3809 1026.7344,856.709 Q1025.6563,857.1621 1024.3594,857.1621 Q1022.8438,857.1621 1021.6406,856.5371 Q1020.6563,856.0371 1019.9688,854.9746 Q1019.2813,853.8965 1019.2813,852.6152 L1019.2813,851.459 Q1019.2813,850.1309 1019.8906,848.9902 Q1020.5156,847.834 1021.6094,847.2246 Q1022.7031,846.5996 1023.9375,846.5996 Q1024.6719,846.5996 1025.3125,846.7715 Q1025.9688,846.9277 1026.5156,847.2871 Z " fill="#000000"/><text fill="#000000" font-family="sans-serif" font-size="12" font-style="italic" lengthAdjust="spacing" textLength="58" x="1091.75" y="847.0703">&#171;Domain&#187;</text><text fill="#000000" font-family="sans-serif" font-size="14" lengthAdjust="spacing" textLength="153" x="1044.25" y="865.1895">BoardCreationDateTime</text><line style="stroke:#181818;stroke-width:0.5;" x1="934" x2="1275" y1="873.7031" y2="873.7031"/><rect fill="none" height="6" style="stroke:#C82930;stroke-width:1.0;" width="6" x="941" y="885.5137"/><text fill="#000000" font-family="sans-serif" font-size="14" lengthAdjust="spacing" textLength="317" x="953" y="892.8105">boardCreationDateTime : BoardCreationDateTime</text><line style="stroke:#181818;stroke-width:0.5;" x1="934" x2="1275" y1="900.3242" y2="900.3242"/></g><!--class BoardDimensions--><g id="elem_BoardDimensions"><rect codeLine="36" fill="#F1F1F1" height="97.8242" id="BoardDimensions" rx="2.5" ry="2.5" style="stroke:#181818;stroke-width:0.5;" width="143" x="755" y="819.6211"/><ellipse cx="770" cy="841.9121" fill="#ADD1B2" rx="11" ry="11" style="stroke:#181818;stroke-width:1.0;"/><path d="M772.7656,837.7871 Q772.9219,837.5684 773.1094,837.459 Q773.2969,837.3496 773.5156,837.3496 Q773.8906,837.3496 774.125,837.6152 Q774.3594,837.8652 774.3594,838.4746 L774.3594,839.9277 Q774.3594,840.5371 774.125,840.8027 Q773.8906,841.0684 773.5156,841.0684 Q773.1719,841.0684 772.9688,840.8652 Q772.7656,840.6777 772.6563,840.1621 Q772.6094,839.8027 772.4219,839.6152 Q772.0938,839.2402 771.4844,839.0215 Q770.875,838.8027 770.25,838.8027 Q769.4844,838.8027 768.8438,839.1309 Q768.2188,839.459 767.7188,840.209 Q767.2344,840.959 767.2344,841.9902 L767.2344,843.084 Q767.2344,844.3184 768.125,845.1465 Q769.0156,845.959 770.6094,845.959 Q771.5469,845.959 772.2031,845.709 Q772.5938,845.5527 773.0156,845.1152 Q773.2813,844.8496 773.4219,844.7715 Q773.5781,844.6934 773.7813,844.6934 Q774.1094,844.6934 774.3594,844.959 Q774.625,845.209 774.625,845.5527 Q774.625,845.8965 774.2813,846.3027 Q773.7813,846.8809 772.9844,847.209 Q771.9063,847.6621 770.6094,847.6621 Q769.0938,847.6621 767.8906,847.0371 Q766.9063,846.5371 766.2188,845.4746 Q765.5313,844.3965 765.5313,843.1152 L765.5313,841.959 Q765.5313,840.6309 766.1406,839.4902 Q766.7656,838.334 767.8594,837.7246 Q768.9531,837.0996 770.1875,837.0996 Q770.9219,837.0996 771.5625,837.2715 Q772.2188,837.4277 772.7656,837.7871 Z " fill="#000000"/><text fill="#000000" font-family="sans-serif" font-size="12" font-style="italic" lengthAdjust="spacing" textLength="58" x="810.5" y="837.5703">&#171;Domain&#187;</text><text fill="#000000" font-family="sans-serif" font-size="14" lengthAdjust="spacing" textLength="111" x="784" y="855.6895">BoardDimensions</text><line style="stroke:#181818;stroke-width:0.5;" x1="756" x2="897" y1="864.2031" y2="864.2031"/><rect fill="none" height="6" style="stroke:#C82930;stroke-width:1.0;" width="6" x="763" y="876.0137"/><text fill="#000000" font-family="sans-serif" font-size="14" lengthAdjust="spacing" textLength="109" x="775" y="883.3105">numColumns : int</text><rect fill="none" height="6" style="stroke:#C82930;stroke-width:1.0;" width="6" x="763" y="894.6348"/><text fill="#000000" font-family="sans-serif" font-size="14" lengthAdjust="spacing" textLength="88" x="775" y="901.9316">numLines : int</text><line style="stroke:#181818;stroke-width:0.5;" x1="756" x2="897" y1="909.4453" y2="909.4453"/></g><!--class BoardElement--><g id="elem_BoardElement"><rect codeLine="41" fill="#F1F1F1" height="79.2031" id="BoardElement" rx="2.5" ry="2.5" style="stroke:#181818;stroke-width:0.5;" width="121" x="224" y="605.1211"/><ellipse cx="239" cy="627.4121" fill="#ADD1B2" rx="11" ry="11" style="stroke:#181818;stroke-width:1.0;"/><path d="M241.7656,623.2871 Q241.9219,623.0684 242.1094,622.959 Q242.2969,622.8496 242.5156,622.8496 Q242.8906,622.8496 243.125,623.1152 Q243.3594,623.3652 243.3594,623.9746 L243.3594,625.4277 Q243.3594,626.0371 243.125,626.3027 Q242.8906,626.5684 242.5156,626.5684 Q242.1719,626.5684 241.9688,626.3652 Q241.7656,626.1777 241.6563,625.6621 Q241.6094,625.3027 241.4219,625.1152 Q241.0938,624.7402 240.4844,624.5215 Q239.875,624.3027 239.25,624.3027 Q238.4844,624.3027 237.8438,624.6309 Q237.2188,624.959 236.7188,625.709 Q236.2344,626.459 236.2344,627.4902 L236.2344,628.584 Q236.2344,629.8184 237.125,630.6465 Q238.0156,631.459 239.6094,631.459 Q240.5469,631.459 241.2031,631.209 Q241.5938,631.0527 242.0156,630.6152 Q242.2813,630.3496 242.4219,630.2715 Q242.5781,630.1934 242.7813,630.1934 Q243.1094,630.1934 243.3594,630.459 Q243.625,630.709 243.625,631.0527 Q243.625,631.3965 243.2813,631.8027 Q242.7813,632.3809 241.9844,632.709 Q240.9063,633.1621 239.6094,633.1621 Q238.0938,633.1621 236.8906,632.5371 Q235.9063,632.0371 235.2188,630.9746 Q234.5313,629.8965 234.5313,628.6152 L234.5313,627.459 Q234.5313,626.1309 235.1406,624.9902 Q235.7656,623.834 236.8594,623.2246 Q237.9531,622.5996 239.1875,622.5996 Q239.9219,622.5996 240.5625,622.7715 Q241.2188,622.9277 241.7656,623.2871 Z " fill="#000000"/><text fill="#000000" font-family="sans-serif" font-size="12" font-style="italic" lengthAdjust="spacing" textLength="58" x="268.5" y="623.0703">&#171;Domain&#187;</text><text fill="#000000" font-family="sans-serif" font-size="14" lengthAdjust="spacing" textLength="89" x="253" y="641.1895">BoardElement</text><line style="stroke:#181818;stroke-width:0.5;" x1="225" x2="344" y1="649.7031" y2="649.7031"/><rect fill="none" height="6" style="stroke:#C82930;stroke-width:1.0;" width="6" x="232" y="661.5137"/><text fill="#000000" font-family="sans-serif" font-size="14" lengthAdjust="spacing" textLength="71" x="244" y="668.8105">title : String</text><line style="stroke:#181818;stroke-width:0.5;" x1="225" x2="344" y1="676.3242" y2="676.3242"/></g><!--class BoardElementColumn--><g id="elem_BoardElementColumn"><rect codeLine="45" fill="#F1F1F1" height="79.2031" id="BoardElementColumn" rx="2.5" ry="2.5" style="stroke:#181818;stroke-width:0.5;" width="169" x="549" y="829.1211"/><ellipse cx="564" cy="851.4121" fill="#ADD1B2" rx="11" ry="11" style="stroke:#181818;stroke-width:1.0;"/><path d="M566.7656,847.2871 Q566.9219,847.0684 567.1094,846.959 Q567.2969,846.8496 567.5156,846.8496 Q567.8906,846.8496 568.125,847.1152 Q568.3594,847.3652 568.3594,847.9746 L568.3594,849.4277 Q568.3594,850.0371 568.125,850.3027 Q567.8906,850.5684 567.5156,850.5684 Q567.1719,850.5684 566.9688,850.3652 Q566.7656,850.1777 566.6563,849.6621 Q566.6094,849.3027 566.4219,849.1152 Q566.0938,848.7402 565.4844,848.5215 Q564.875,848.3027 564.25,848.3027 Q563.4844,848.3027 562.8438,848.6309 Q562.2188,848.959 561.7188,849.709 Q561.2344,850.459 561.2344,851.4902 L561.2344,852.584 Q561.2344,853.8184 562.125,854.6465 Q563.0156,855.459 564.6094,855.459 Q565.5469,855.459 566.2031,855.209 Q566.5938,855.0527 567.0156,854.6152 Q567.2813,854.3496 567.4219,854.2715 Q567.5781,854.1934 567.7813,854.1934 Q568.1094,854.1934 568.3594,854.459 Q568.625,854.709 568.625,855.0527 Q568.625,855.3965 568.2813,855.8027 Q567.7813,856.3809 566.9844,856.709 Q565.9063,857.1621 564.6094,857.1621 Q563.0938,857.1621 561.8906,856.5371 Q560.9063,856.0371 560.2188,854.9746 Q559.5313,853.8965 559.5313,852.6152 L559.5313,851.459 Q559.5313,850.1309 560.1406,848.9902 Q560.7656,847.834 561.8594,847.2246 Q562.9531,846.5996 564.1875,846.5996 Q564.9219,846.5996 565.5625,846.7715 Q566.2188,846.9277 566.7656,847.2871 Z " fill="#000000"/><text fill="#000000" font-family="sans-serif" font-size="12" font-style="italic" lengthAdjust="spacing" textLength="58" x="617.5" y="847.0703">&#171;Domain&#187;</text><text fill="#000000" font-family="sans-serif" font-size="14" lengthAdjust="spacing" textLength="137" x="578" y="865.1895">BoardElementColumn</text><line style="stroke:#181818;stroke-width:0.5;" x1="550" x2="717" y1="873.7031" y2="873.7031"/><rect fill="none" height="6" style="stroke:#C82930;stroke-width:1.0;" width="6" x="557" y="885.5137"/><text fill="#000000" font-family="sans-serif" font-size="14" lengthAdjust="spacing" textLength="72" x="569" y="892.8105">column : int</text><line style="stroke:#181818;stroke-width:0.5;" x1="550" x2="717" y1="900.3242" y2="900.3242"/></g><!--class BoardElementLine--><g id="elem_BoardElementLine"><rect codeLine="49" fill="#F1F1F1" height="79.2031" id="BoardElementLine" rx="2.5" ry="2.5" style="stroke:#181818;stroke-width:0.5;" width="148" x="361.5" y="829.1211"/><ellipse cx="376.5" cy="851.4121" fill="#ADD1B2" rx="11" ry="11" style="stroke:#181818;stroke-width:1.0;"/><path d="M379.2656,847.2871 Q379.4219,847.0684 379.6094,846.959 Q379.7969,846.8496 380.0156,846.8496 Q380.3906,846.8496 380.625,847.1152 Q380.8594,847.3652 380.8594,847.9746 L380.8594,849.4277 Q380.8594,850.0371 380.625,850.3027 Q380.3906,850.5684 380.0156,850.5684 Q379.6719,850.5684 379.4688,850.3652 Q379.2656,850.1777 379.1563,849.6621 Q379.1094,849.3027 378.9219,849.1152 Q378.5938,848.7402 377.9844,848.5215 Q377.375,848.3027 376.75,848.3027 Q375.9844,848.3027 375.3438,848.6309 Q374.7188,848.959 374.2188,849.709 Q373.7344,850.459 373.7344,851.4902 L373.7344,852.584 Q373.7344,853.8184 374.625,854.6465 Q375.5156,855.459 377.1094,855.459 Q378.0469,855.459 378.7031,855.209 Q379.0938,855.0527 379.5156,854.6152 Q379.7813,854.3496 379.9219,854.2715 Q380.0781,854.1934 380.2813,854.1934 Q380.6094,854.1934 380.8594,854.459 Q381.125,854.709 381.125,855.0527 Q381.125,855.3965 380.7813,855.8027 Q380.2813,856.3809 379.4844,856.709 Q378.4063,857.1621 377.1094,857.1621 Q375.5938,857.1621 374.3906,856.5371 Q373.4063,856.0371 372.7188,854.9746 Q372.0313,853.8965 372.0313,852.6152 L372.0313,851.459 Q372.0313,850.1309 372.6406,848.9902 Q373.2656,847.834 374.3594,847.2246 Q375.4531,846.5996 376.6875,846.5996 Q377.4219,846.5996 378.0625,846.7715 Q378.7188,846.9277 379.2656,847.2871 Z " fill="#000000"/><text fill="#000000" font-family="sans-serif" font-size="12" font-style="italic" lengthAdjust="spacing" textLength="58" x="419.5" y="847.0703">&#171;Domain&#187;</text><text fill="#000000" font-family="sans-serif" font-size="14" lengthAdjust="spacing" textLength="116" x="390.5" y="865.1895">BoardElementLine</text><line style="stroke:#181818;stroke-width:0.5;" x1="362.5" x2="508.5" y1="873.7031" y2="873.7031"/><rect fill="none" height="6" style="stroke:#C82930;stroke-width:1.0;" width="6" x="369.5" y="885.5137"/><text fill="#000000" font-family="sans-serif" font-size="14" lengthAdjust="spacing" textLength="49" x="381.5" y="892.8105">line : int</text><line style="stroke:#181818;stroke-width:0.5;" x1="362.5" x2="508.5" y1="900.3242" y2="900.3242"/></g><!--class CreateBoardController--><g id="elem_CreateBoardController"><rect codeLine="53" fill="#F1F1F1" height="153.6875" id="CreateBoardController" rx="2.5" ry="2.5" style="stroke:#181818;stroke-width:0.5;" width="941" x="7" y="251.1211"/><ellipse cx="401.75" cy="273.4121" fill="#ADD1B2" rx="11" ry="11" style="stroke:#181818;stroke-width:1.0;"/><path d="M404.5156,269.2871 Q404.6719,269.0684 404.8594,268.959 Q405.0469,268.8496 405.2656,268.8496 Q405.6406,268.8496 405.875,269.1152 Q406.1094,269.3652 406.1094,269.9746 L406.1094,271.4277 Q406.1094,272.0371 405.875,272.3027 Q405.6406,272.5684 405.2656,272.5684 Q404.9219,272.5684 404.7188,272.3652 Q404.5156,272.1777 404.4063,271.6621 Q404.3594,271.3027 404.1719,271.1152 Q403.8438,270.7402 403.2344,270.5215 Q402.625,270.3027 402,270.3027 Q401.2344,270.3027 400.5938,270.6309 Q399.9688,270.959 399.4688,271.709 Q398.9844,272.459 398.9844,273.4902 L398.9844,274.584 Q398.9844,275.8184 399.875,276.6465 Q400.7656,277.459 402.3594,277.459 Q403.2969,277.459 403.9531,277.209 Q404.3438,277.0527 404.7656,276.6152 Q405.0313,276.3496 405.1719,276.2715 Q405.3281,276.1934 405.5313,276.1934 Q405.8594,276.1934 406.1094,276.459 Q406.375,276.709 406.375,277.0527 Q406.375,277.3965 406.0313,277.8027 Q405.5313,278.3809 404.7344,278.709 Q403.6563,279.1621 402.3594,279.1621 Q400.8438,279.1621 399.6406,278.5371 Q398.6563,278.0371 397.9688,276.9746 Q397.2813,275.8965 397.2813,274.6152 L397.2813,273.459 Q397.2813,272.1309 397.8906,270.9902 Q398.5156,269.834 399.6094,269.2246 Q400.7031,268.5996 401.9375,268.5996 Q402.6719,268.5996 403.3125,268.7715 Q403.9688,268.9277 404.5156,269.2871 Z " fill="#000000"/><text fill="#000000" font-family="sans-serif" font-size="12" font-style="italic" lengthAdjust="spacing" textLength="75" x="456.25" y="269.0703">&#171;Application&#187;</text><text fill="#000000" font-family="sans-serif" font-size="14" lengthAdjust="spacing" textLength="143" x="422.25" y="287.1895">CreateBoardController</text><line style="stroke:#181818;stroke-width:0.5;" x1="8" x2="947" y1="295.7031" y2="295.7031"/><line style="stroke:#181818;stroke-width:0.5;" x1="8" x2="947" y1="303.7031" y2="303.7031"/><ellipse cx="18" cy="318.5137" fill="#84BE84" rx="3" ry="3" style="stroke:#038048;stroke-width:1.0;"/><text fill="#000000" font-family="sans-serif" font-size="14" lengthAdjust="spacing" textLength="327" x="27" y="322.8105">boolean validColumnsForABoard(numColumns : int)</text><ellipse cx="18" cy="337.1348" fill="#84BE84" rx="3" ry="3" style="stroke:#038048;stroke-width:1.0;"/><text fill="#000000" font-family="sans-serif" font-size="14" lengthAdjust="spacing" textLength="285" x="27" y="341.4316">boolean validLinesForABoard(numLines : int)</text><ellipse cx="18" cy="355.7559" fill="#84BE84" rx="3" ry="3" style="stroke:#038048;stroke-width:1.0;"/><text fill="#000000" font-family="sans-serif" font-size="14" lengthAdjust="spacing" textLength="231" x="27" y="360.0527">int getMaximumColumnsForABoard()</text><ellipse cx="18" cy="374.377" fill="#84BE84" rx="3" ry="3" style="stroke:#038048;stroke-width:1.0;"/><text fill="#000000" font-family="sans-serif" font-size="14" lengthAdjust="spacing" textLength="210" x="27" y="378.6738">int getMaximumLinesForABoard()</text><ellipse cx="18" cy="392.998" fill="#84BE84" rx="3" ry="3" style="stroke:#038048;stroke-width:1.0;"/><text fill="#000000" font-family="sans-serif" font-size="14" lengthAdjust="spacing" textLength="915" x="27" y="397.2949">Board addBoard(title : String, numLines : int, numColumns : int, linesData : List&lt;Pair&lt;String, Integer&gt;&gt;, columnsData : List&lt;Pair&lt;String, Integer&gt;&gt;)</text></g><!--class BoardRepository--><g id="elem_BoardRepository"><rect codeLine="61" fill="#F1F1F1" height="79.2031" id="BoardRepository" rx="2.5" ry="2.5" style="stroke:#181818;stroke-width:0.5;" width="195" x="380" y="605.1211"/><ellipse cx="420.65" cy="627.4121" fill="#B4A7E5" rx="11" ry="11" style="stroke:#181818;stroke-width:1.0;"/><path d="M421.6031,624.0527 L421.6031,630.709 L423.3219,630.709 Q423.9313,630.709 424.1969,630.9434 Q424.4625,631.1777 424.4625,631.5684 Q424.4625,631.9434 424.1969,632.1777 Q423.9313,632.4121 423.3219,632.4121 L418.1813,632.4121 Q417.5719,632.4121 417.3063,632.1777 Q417.0406,631.9434 417.0406,631.5527 Q417.0406,631.1777 417.3063,630.9434 Q417.5719,630.709 418.1813,630.709 L419.9,630.709 L419.9,624.0527 L418.1813,624.0527 Q417.5719,624.0527 417.3063,623.8184 Q417.0406,623.584 417.0406,623.1934 Q417.0406,622.8184 417.3063,622.584 Q417.5719,622.3496 418.1813,622.3496 L423.3219,622.3496 Q423.9313,622.3496 424.1969,622.584 Q424.4625,622.8184 424.4625,623.1934 Q424.4625,623.584 424.1969,623.8184 Q423.9313,624.0527 423.3219,624.0527 L421.6031,624.0527 Z " fill="#000000"/><text fill="#000000" font-family="sans-serif" font-size="12" font-style="italic" lengthAdjust="spacing" textLength="83" x="451.85" y="623.0703">&#171;Repositories&#187;</text><text fill="#000000" font-family="sans-serif" font-size="14" font-style="italic" lengthAdjust="spacing" textLength="106" x="440.35" y="641.1895">BoardRepository</text><line style="stroke:#181818;stroke-width:0.5;" x1="381" x2="574" y1="649.7031" y2="649.7031"/><line style="stroke:#181818;stroke-width:0.5;" x1="381" x2="574" y1="657.7031" y2="657.7031"/><ellipse cx="391" cy="672.5137" fill="#84BE84" rx="3" ry="3" style="stroke:#038048;stroke-width:1.0;"/><text fill="#000000" font-family="sans-serif" font-size="14" lengthAdjust="spacing" textLength="169" x="400" y="676.8105">Board save(board : Board)</text></g><!--link Board to BoardCreationDateTime--><g id="link_Board_BoardCreationDateTime"><path codeLine="65" d="M1036.43,758.9011 C1050.99,782.1511 1065.46,805.2811 1077.3,824.1811 " fill="none" id="Board-to-BoardCreationDateTime" style="stroke:#181818;stroke-width:1.0;"/><polygon fill="#181818" points="1080.25,828.8911,1078.872,819.1391,1077.6,824.6511,1072.088,823.3791,1080.25,828.8911" style="stroke:#181818;stroke-width:1.0;"/></g><!--link Board to BoardDimensions--><g id="link_Board_BoardDimensions"><path codeLine="66" d="M894.57,758.9011 C882.23,778.6111 869.95,798.2211 859.29,815.2511 " fill="none" id="Board-to-BoardDimensions" style="stroke:#181818;stroke-width:1.0;"/><polygon fill="#181818" points="856.62,819.5211,864.782,814.0091,859.27,815.2811,857.998,809.7691,856.62,819.5211" style="stroke:#181818;stroke-width:1.0;"/></g><!--link Board to BoardElementLine--><g id="link_Board_BoardElementLine"><path codeLine="67" d="M674.04,758.6311 C626.13,778.3111 577.22,799.0711 531.5,819.6211 C525.92,822.1311 520.2,824.7811 514.46,827.5011 " fill="none" id="Board-to-BoardElementLine" style="stroke:#181818;stroke-width:1.0;"/><polygon fill="#181818" points="509.63,829.8011,519.4751,829.5298,514.1414,827.6453,516.0259,822.3116,509.63,829.8011" style="stroke:#181818;stroke-width:1.0;"/></g><!--link Board to BoardElementColumn--><g id="link_Board_BoardElementColumn"><path codeLine="68" d="M796.1,758.9011 C760.14,782.9411 724.39,806.8411 695.61,826.0911 " fill="none" id="Board-to-BoardElementColumn" style="stroke:#181818;stroke-width:1.0;"/><polygon fill="#181818" points="691.42,828.8911,701.1233,827.2039,695.5737,826.1077,696.6699,820.5581,691.42,828.8911" style="stroke:#181818;stroke-width:1.0;"/></g><!--reverse link BoardElement to BoardElementColumn--><g id="link_BoardElement_BoardElementColumn"><path codeLine="70" d="M313.5,701.4811 C326.26,721.7211 342.86,743.3311 362.5,758.6211 C423.87,806.3811 454.54,790.1311 526.5,819.6211 C533.85,822.6311 541.44,825.8411 549.03,829.1111 " fill="none" id="BoardElement-backto-BoardElementColumn" style="stroke:#181818;stroke-width:1.0;"/><polygon fill="none" points="307.46,705.0211,303.28,684.2411,319.5,697.8811,307.46,705.0211" style="stroke:#181818;stroke-width:1.0;"/></g><!--reverse link BoardElement to BoardElementLine--><g id="link_BoardElement_BoardElementLine"><path codeLine="71" d="M322.2,701.0411 C349.31,740.9111 385.19,793.6611 409.25,829.0211 " fill="none" id="BoardElement-backto-BoardElementLine" style="stroke:#181818;stroke-width:1.0;"/><polygon fill="none" points="316.26,704.7611,310.8,684.2911,327.84,696.8911,316.26,704.7611" style="stroke:#181818;stroke-width:1.0;"/></g><!--link CreateBoardUI to CreateBoardController--><g id="link_CreateBoardUI_CreateBoardController"><path codeLine="73" d="M477.5,125.6811 C477.5,157.8911 477.5,204.9211 477.5,245.4411 " fill="none" id="CreateBoardUI-to-CreateBoardController" style="stroke:#181818;stroke-width:1.0;"/><polygon fill="#181818" points="477.5,250.8611,481.5,241.8611,477.5,245.8611,473.5,241.8611,477.5,250.8611" style="stroke:#181818;stroke-width:1.0;"/><text fill="#000000" font-family="sans-serif" font-size="13" lengthAdjust="spacing" textLength="73" x="478.5" y="170.6494">theController</text></g><!--link CreateBoardController to BoardRepository--><g id="link_CreateBoardController_BoardRepository"><path codeLine="75" d="M477.5,405.2511 C477.5,466.2411 477.5,549.6411 477.5,599.9011 " fill="none" id="CreateBoardController-to-BoardRepository" style="stroke:#181818;stroke-width:1.0;"/><polygon fill="#181818" points="477.5,604.9611,481.5,595.9611,477.5,599.9611,473.5,595.9611,477.5,604.9611" style="stroke:#181818;stroke-width:1.0;"/><text fill="#000000" font-family="sans-serif" font-size="13" lengthAdjust="spacing" textLength="25" x="478.5" y="496.6494">repo</text></g><!--link CreateBoardController to Board--><g id="link_CreateBoardController_Board"><path codeLine="76" d="M595.63,405.2511 C652.52,441.9111 721.97,486.6711 785.26,527.4611 " fill="none" id="CreateBoardController-to-Board" style="stroke:#181818;stroke-width:1.0;"/><polygon fill="#181818" points="789.81,530.3911,784.4095,522.1549,785.6064,527.6837,780.0777,528.8807,789.81,530.3911" style="stroke:#181818;stroke-width:1.0;"/><text fill="#000000" font-family="sans-serif" font-size="13" lengthAdjust="spacing" textLength="32" x="736.5" y="496.6494">board</text></g><!--link BoardBuilder to Board--><g id="link_BoardBuilder_Board"><path codeLine="78" d="M1187.47,451.8411 C1158.73,476.6711 1128.6,502.7011 1100.12,527.3011 " fill="none" id="BoardBuilder-to-Board" style="stroke:#181818;stroke-width:1.0;stroke-dasharray:7.0,7.0;"/><polygon fill="#181818" points="1096.3,530.6111,1105.7197,527.7354,1100.077,527.3348,1100.4776,521.6922,1096.3,530.6111" style="stroke:#181818;stroke-width:1.0;"/></g><!--link CreateBoardController to BoardBuilder--><g id="link_CreateBoardController_BoardBuilder"><path codeLine="79" d="M948.05,328.1211 C971.49,328.1211 994.76,328.1211 1017.56,328.1211 " fill="none" id="CreateBoardController-to-BoardBuilder" style="stroke:#181818;stroke-width:1.0;"/><polygon fill="#181818" points="1022.72,328.1211,1013.72,324.1211,1017.72,328.1211,1013.72,332.1211,1022.72,328.1211" style="stroke:#181818;stroke-width:1.0;"/><text fill="#000000" font-family="sans-serif" font-size="13" lengthAdjust="spacing" textLength="38" x="966.5" y="321.1494">builder</text></g><!--SRC=[jLPBYzim4BxxLmXwiTaQblOMZ67ZjB2mXT9qJwK7nL9ZWIm5IScsjFtlrSEo9Ll99eVc5CtCzyrJ8okYA0ODXLA23O5x0NkGDvi2bE1v2zxVtx_BijPg6u6XmciE1Nf-15Lr45XYfg0YdDKr-9q1_KDys_6NlCZ-UfW5QFCDxo6P34jb7Q_0LWd2zau6HTkH4qPQlEESOiYSV6Suh7_jQwEZ-4fwWrsdv05aeuzCQftqnfCaCFj0iPQg9yBm5YiJ4rRLUgQfbu26qsFFqX2dSw0tLf776Ry5DsKrc5_AgB3ExeRA0OZGF8T525GBzP4mTHdiibd0Mols177BrqT24HQfpdTkYdm6v-VXl_NzBWfH9sYSpz8h4fPefCclRKU8RsSXvpSbc0heXQXksQWXkbYcQP-8LDLdI4JbE_Z85DvZKTVNa9iHYgcjv7fYi3FCY-smAC1oPcwRX9W-QDAIc1txgJvwZ4UfJyt8OhuXzzTtMXBcl2N0uMLAGqr82U1qYITOiAmRpfJWbDgx-70uKDB6Etkyz2T82HggyP6B1xUsvXKg4Y1Rh0WIb6y0w7zWZzKd-9Fq8-M4ILhDUADPyYjgiPLYx_OS9U3MdjJJ0Y-FhbzmLvZQaTRSMFo0BNPT-u8FN1B5nIzT-F50i9mgxpAHy3Ii0Z_Hbiufox8-C-KpVR3YPffWVCweN7q6b-Dy_odBbDLb8-ibYpyMZBlqHAw0VWscSmGCpCPuWvgkWD27rm3sKy8yCbcqsifl2CeEe-_UxXnF7RzcAxV2JAJ_0000]--></g></svg>