<?xml version="1.0" encoding="us-ascii" standalone="no"?><svg xmlns="http://www.w3.org/2000/svg" xmlns:xlink="http://www.w3.org/1999/xlink" contentStyleType="text/css" height="357px" preserveAspectRatio="none" style="width:565px;height:357px;background:#FFFFFF;" version="1.1" viewBox="0 0 565 357" width="565px" zoomAndPan="magnify"><defs/><g><!--cluster <<aggregate>> Board--><g id="cluster_&lt;&lt;aggregate&gt;&gt; Board"><path d="M8.5,6.0137 L143.5,6.0137 A3.75,3.75 0 0 1 146,8.5137 L153,30.6348 L555.5,30.6348 A2.5,2.5 0 0 1 558,33.1348 L558,347.5137 A2.5,2.5 0 0 1 555.5,350.0137 L8.5,350.0137 A2.5,2.5 0 0 1 6,347.5137 L6,8.5137 A2.5,2.5 0 0 1 8.5,6.0137 " fill="none" style="stroke:#000000;stroke-width:1.5;"/><line style="stroke:#000000;stroke-width:1.5;" x1="6" x2="153" y1="30.6348" y2="30.6348"/><text fill="#000000" font-family="sans-serif" font-size="14" font-weight="bold" lengthAdjust="spacing" textLength="134" x="10" y="23.1211">&#171;aggregate&#187; Board</text></g><!--class Board--><g id="elem_Board"><rect codeLine="4" fill="#F1F1F1" height="113.7852" id="Board" rx="2.5" ry="2.5" style="stroke:#181818;stroke-width:0.5;" width="71" x="410.5" y="43.0137"/><ellipse cx="425.5" cy="73.2852" fill="#ADD1B2" rx="11" ry="11" style="stroke:#181818;stroke-width:1.0;"/><path d="M424.3594,74.082 L424.3594,76.582 L428.6875,76.582 L428.6875,75.6602 Q428.6875,75.0508 428.9219,74.7852 Q429.1719,74.5195 429.5469,74.5195 Q429.9219,74.5195 430.1563,74.7852 Q430.3906,75.0508 430.3906,75.6602 L430.3906,78.2852 L422.3906,78.2852 Q421.7656,78.2852 421.5,78.0508 Q421.25,77.8164 421.25,77.4258 Q421.25,77.0508 421.5156,76.8164 Q421.7813,76.582 422.3906,76.582 L422.6563,76.582 L422.6563,69.9258 L422.3906,69.9258 Q421.7656,69.9258 421.5,69.6914 Q421.25,69.457 421.25,69.0664 Q421.25,68.6914 421.5,68.457 Q421.7656,68.2227 422.3906,68.2227 L430.0156,68.2227 L430.0156,70.8164 Q430.0156,71.4258 429.7813,71.6914 Q429.5625,71.9414 429.1719,71.9414 Q428.7969,71.9414 428.5625,71.6914 Q428.3281,71.4258 428.3281,70.8164 L428.3281,69.9258 L424.3594,69.9258 L424.3594,72.3789 L425.8438,72.3789 Q425.8438,71.7227 425.9688,71.5352 Q426.2344,71.1289 426.7031,71.1289 Q427.0781,71.1289 427.3125,71.3945 Q427.5469,71.6445 427.5469,72.2539 L427.5469,74.2227 Q427.5469,74.7695 427.4219,74.957 Q427.1563,75.3477 426.7031,75.3477 Q426.2344,75.3477 425.9688,74.9414 Q425.8438,74.7539 425.8438,74.082 L424.3594,74.082 Z " fill="#000000"/><text fill="#000000" font-family="sans-serif" font-size="12" font-style="italic" lengthAdjust="spacing" textLength="43" x="437.5" y="60.9629">&#171;entity&#187;</text><text fill="#000000" font-family="sans-serif" font-size="12" font-style="italic" lengthAdjust="spacing" textLength="35" x="441.5" y="76.9238">&#171;root&#187;</text><text fill="#000000" font-family="sans-serif" font-size="14" lengthAdjust="spacing" textLength="38" x="440" y="95.043">Board</text><line style="stroke:#181818;stroke-width:0.5;" x1="411.5" x2="480.5" y1="103.5566" y2="103.5566"/><text fill="#000000" font-family="sans-serif" font-size="14" lengthAdjust="spacing" textLength="22" x="416.5" y="122.6641">title</text><text fill="#000000" font-family="sans-serif" font-size="14" lengthAdjust="spacing" textLength="54" x="416.5" y="141.2852">archived</text><line style="stroke:#181818;stroke-width:0.5;" x1="411.5" x2="480.5" y1="148.7988" y2="148.7988"/></g><!--class BoardCreationDateTime--><g id="elem_BoardCreationDateTime"><rect codeLine="9" fill="#F1F1F1" height="79.2031" id="BoardCreationDateTime" rx="2.5" ry="2.5" style="stroke:#181818;stroke-width:0.5;" width="185" x="178.5" y="245.5137"/><ellipse cx="193.5" cy="267.8047" fill="#FF8B40" rx="11" ry="11" style="stroke:#181818;stroke-width:1.0;"/><path d="M194.0938,271.0703 L196.5625,265.1953 L196.1719,265.1953 Q195.5625,265.1953 195.2969,264.9609 Q195.0313,264.7266 195.0313,264.3359 Q195.0313,263.9609 195.2969,263.7266 Q195.5625,263.4922 196.1719,263.4922 L198.4531,263.4922 Q199.0625,263.4922 199.3281,263.7266 Q199.5938,263.9609 199.5938,264.3359 Q199.5938,264.8047 199.1875,265.0703 Q199,265.1953 198.4063,265.1953 L194.9219,273.5547 L193.2813,273.5547 L189.7969,265.1953 Q189.2031,265.1953 189.0156,265.0703 Q188.6094,264.8047 188.6094,264.3359 Q188.6094,263.9609 188.875,263.7266 Q189.1406,263.4922 189.75,263.4922 L192.0469,263.4922 Q192.6563,263.4922 192.9063,263.7266 Q193.1719,263.9609 193.1719,264.3359 Q193.1719,264.7266 192.9063,264.9609 Q192.6563,265.1953 192.0469,265.1953 L191.6406,265.1953 L194.0938,271.0703 Z " fill="#000000"/><text fill="#000000" font-family="sans-serif" font-size="12" font-style="italic" lengthAdjust="spacing" textLength="81" x="243.5" y="263.4629">&#171;value object&#187;</text><text fill="#000000" font-family="sans-serif" font-size="14" lengthAdjust="spacing" textLength="153" x="207.5" y="281.582">BoardCreationDateTime</text><line style="stroke:#181818;stroke-width:0.5;" x1="179.5" x2="362.5" y1="290.0957" y2="290.0957"/><text fill="#000000" font-family="sans-serif" font-size="14" lengthAdjust="spacing" textLength="59" x="184.5" y="309.2031">dateTime</text><line style="stroke:#181818;stroke-width:0.5;" x1="179.5" x2="362.5" y1="316.7168" y2="316.7168"/></g><!--class BoardDimensions--><g id="elem_BoardDimensions"><rect codeLine="13" fill="#F1F1F1" height="97.8242" id="BoardDimensions" rx="2.5" ry="2.5" style="stroke:#181818;stroke-width:0.5;" width="143" x="398.5" y="236.0137"/><ellipse cx="413.5" cy="258.3047" fill="#FF8B40" rx="11" ry="11" style="stroke:#181818;stroke-width:1.0;"/><path d="M414.0938,261.5703 L416.5625,255.6953 L416.1719,255.6953 Q415.5625,255.6953 415.2969,255.4609 Q415.0313,255.2266 415.0313,254.8359 Q415.0313,254.4609 415.2969,254.2266 Q415.5625,253.9922 416.1719,253.9922 L418.4531,253.9922 Q419.0625,253.9922 419.3281,254.2266 Q419.5938,254.4609 419.5938,254.8359 Q419.5938,255.3047 419.1875,255.5703 Q419,255.6953 418.4063,255.6953 L414.9219,264.0547 L413.2813,264.0547 L409.7969,255.6953 Q409.2031,255.6953 409.0156,255.5703 Q408.6094,255.3047 408.6094,254.8359 Q408.6094,254.4609 408.875,254.2266 Q409.1406,253.9922 409.75,253.9922 L412.0469,253.9922 Q412.6563,253.9922 412.9063,254.2266 Q413.1719,254.4609 413.1719,254.8359 Q413.1719,255.2266 412.9063,255.4609 Q412.6563,255.6953 412.0469,255.6953 L411.6406,255.6953 L414.0938,261.5703 Z " fill="#000000"/><text fill="#000000" font-family="sans-serif" font-size="12" font-style="italic" lengthAdjust="spacing" textLength="81" x="442.5" y="253.9629">&#171;value object&#187;</text><text fill="#000000" font-family="sans-serif" font-size="14" lengthAdjust="spacing" textLength="111" x="427.5" y="272.082">BoardDimensions</text><line style="stroke:#181818;stroke-width:0.5;" x1="399.5" x2="540.5" y1="280.5957" y2="280.5957"/><text fill="#000000" font-family="sans-serif" font-size="14" lengthAdjust="spacing" textLength="45" x="404.5" y="299.7031">column</text><text fill="#000000" font-family="sans-serif" font-size="14" lengthAdjust="spacing" textLength="22" x="404.5" y="318.3242">line</text><line style="stroke:#181818;stroke-width:0.5;" x1="399.5" x2="540.5" y1="325.8379" y2="325.8379"/></g><!--class BoardElement--><g id="elem_BoardElement"><rect codeLine="19" fill="#F1F1F1" height="79.2031" id="BoardElement" rx="2.5" ry="2.5" style="stroke:#181818;stroke-width:0.5;" width="121" x="22.5" y="245.5137"/><ellipse cx="37.5" cy="267.8047" fill="#A9DCDF" rx="11" ry="11" style="stroke:#181818;stroke-width:1.0;"/><path d="M39.6875,269.5703 L35.5469,269.5703 L35.125,270.6016 L35.5469,270.6016 Q36.1563,270.6016 36.4219,270.8359 Q36.6875,271.0703 36.6875,271.4609 Q36.6875,271.8359 36.4219,272.0703 Q36.1563,272.3047 35.5469,272.3047 L33.25,272.3047 Q32.6406,272.3047 32.3906,272.0703 Q32.125,271.8359 32.125,271.4453 Q32.125,271.0703 32.4063,270.8359 Q32.6719,270.5859 33.2969,270.6016 L35.9688,263.9453 L34.8594,263.9453 Q34.25,263.9453 33.9844,263.7109 Q33.7188,263.4766 33.7188,263.0859 Q33.7188,262.7109 33.9844,262.4766 Q34.25,262.2422 34.8594,262.2422 L38.5313,262.2422 L41.9219,270.6016 Q42.5156,270.6016 42.7031,270.7422 Q43.0938,271.0078 43.0938,271.4609 Q43.0938,271.8359 42.8281,272.0703 Q42.5781,272.3047 41.9688,272.3047 L39.6719,272.3047 Q39.0625,272.3047 38.7969,272.0703 Q38.5313,271.8359 38.5313,271.4453 Q38.5313,271.0703 38.7969,270.8359 Q39.0625,270.6016 39.6719,270.6016 L40.0938,270.6016 L39.6875,269.5703 Z M38.9688,267.8672 L37.6094,264.4922 L36.2344,267.8672 L38.9688,267.8672 Z " fill="#000000"/><text fill="#000000" font-family="sans-serif" font-size="12" font-style="italic" lengthAdjust="spacing" textLength="58" x="67" y="263.4629">&#171;abstract&#187;</text><text fill="#000000" font-family="sans-serif" font-size="14" font-style="italic" lengthAdjust="spacing" textLength="89" x="51.5" y="281.582">BoardElement</text><line style="stroke:#181818;stroke-width:0.5;" x1="23.5" x2="142.5" y1="290.0957" y2="290.0957"/><text fill="#000000" font-family="sans-serif" font-size="14" lengthAdjust="spacing" textLength="22" x="28.5" y="309.2031">title</text><line style="stroke:#181818;stroke-width:0.5;" x1="23.5" x2="142.5" y1="316.7168" y2="316.7168"/></g><!--class BoardElementLine--><g id="elem_BoardElementLine"><rect codeLine="23" fill="#F1F1F1" height="60.582" id="BoardElementLine" rx="2.5" ry="2.5" style="stroke:#181818;stroke-width:0.5;" width="148" x="227" y="69.5137"/><ellipse cx="242" cy="91.8047" fill="#ADD1B2" rx="11" ry="11" style="stroke:#181818;stroke-width:1.0;"/><path d="M240.8594,92.6016 L240.8594,95.1016 L245.1875,95.1016 L245.1875,94.1797 Q245.1875,93.5703 245.4219,93.3047 Q245.6719,93.0391 246.0469,93.0391 Q246.4219,93.0391 246.6563,93.3047 Q246.8906,93.5703 246.8906,94.1797 L246.8906,96.8047 L238.8906,96.8047 Q238.2656,96.8047 238,96.5703 Q237.75,96.3359 237.75,95.9453 Q237.75,95.5703 238.0156,95.3359 Q238.2813,95.1016 238.8906,95.1016 L239.1563,95.1016 L239.1563,88.4453 L238.8906,88.4453 Q238.2656,88.4453 238,88.2109 Q237.75,87.9766 237.75,87.5859 Q237.75,87.2109 238,86.9766 Q238.2656,86.7422 238.8906,86.7422 L246.5156,86.7422 L246.5156,89.3359 Q246.5156,89.9453 246.2813,90.2109 Q246.0625,90.4609 245.6719,90.4609 Q245.2969,90.4609 245.0625,90.2109 Q244.8281,89.9453 244.8281,89.3359 L244.8281,88.4453 L240.8594,88.4453 L240.8594,90.8984 L242.3438,90.8984 Q242.3438,90.2422 242.4688,90.0547 Q242.7344,89.6484 243.2031,89.6484 Q243.5781,89.6484 243.8125,89.9141 Q244.0469,90.1641 244.0469,90.7734 L244.0469,92.7422 Q244.0469,93.2891 243.9219,93.4766 Q243.6563,93.8672 243.2031,93.8672 Q242.7344,93.8672 242.4688,93.4609 Q242.3438,93.2734 242.3438,92.6016 L240.8594,92.6016 Z " fill="#000000"/><text fill="#000000" font-family="sans-serif" font-size="12" font-style="italic" lengthAdjust="spacing" textLength="43" x="292.5" y="87.4629">&#171;entity&#187;</text><text fill="#000000" font-family="sans-serif" font-size="14" lengthAdjust="spacing" textLength="116" x="256" y="105.582">BoardElementLine</text><line style="stroke:#181818;stroke-width:0.5;" x1="228" x2="374" y1="114.0957" y2="114.0957"/><line style="stroke:#181818;stroke-width:0.5;" x1="228" x2="374" y1="122.0957" y2="122.0957"/></g><!--class BoardElementColumn--><g id="elem_BoardElementColumn"><rect codeLine="24" fill="#F1F1F1" height="60.582" id="BoardElementColumn" rx="2.5" ry="2.5" style="stroke:#181818;stroke-width:0.5;" width="169" x="22.5" y="69.5137"/><ellipse cx="37.5" cy="91.8047" fill="#ADD1B2" rx="11" ry="11" style="stroke:#181818;stroke-width:1.0;"/><path d="M36.3594,92.6016 L36.3594,95.1016 L40.6875,95.1016 L40.6875,94.1797 Q40.6875,93.5703 40.9219,93.3047 Q41.1719,93.0391 41.5469,93.0391 Q41.9219,93.0391 42.1563,93.3047 Q42.3906,93.5703 42.3906,94.1797 L42.3906,96.8047 L34.3906,96.8047 Q33.7656,96.8047 33.5,96.5703 Q33.25,96.3359 33.25,95.9453 Q33.25,95.5703 33.5156,95.3359 Q33.7813,95.1016 34.3906,95.1016 L34.6563,95.1016 L34.6563,88.4453 L34.3906,88.4453 Q33.7656,88.4453 33.5,88.2109 Q33.25,87.9766 33.25,87.5859 Q33.25,87.2109 33.5,86.9766 Q33.7656,86.7422 34.3906,86.7422 L42.0156,86.7422 L42.0156,89.3359 Q42.0156,89.9453 41.7813,90.2109 Q41.5625,90.4609 41.1719,90.4609 Q40.7969,90.4609 40.5625,90.2109 Q40.3281,89.9453 40.3281,89.3359 L40.3281,88.4453 L36.3594,88.4453 L36.3594,90.8984 L37.8438,90.8984 Q37.8438,90.2422 37.9688,90.0547 Q38.2344,89.6484 38.7031,89.6484 Q39.0781,89.6484 39.3125,89.9141 Q39.5469,90.1641 39.5469,90.7734 L39.5469,92.7422 Q39.5469,93.2891 39.4219,93.4766 Q39.1563,93.8672 38.7031,93.8672 Q38.2344,93.8672 37.9688,93.4609 Q37.8438,93.2734 37.8438,92.6016 L36.3594,92.6016 Z " fill="#000000"/><text fill="#000000" font-family="sans-serif" font-size="12" font-style="italic" lengthAdjust="spacing" textLength="43" x="98.5" y="87.4629">&#171;entity&#187;</text><text fill="#000000" font-family="sans-serif" font-size="14" lengthAdjust="spacing" textLength="137" x="51.5" y="105.582">BoardElementColumn</text><line style="stroke:#181818;stroke-width:0.5;" x1="23.5" x2="190.5" y1="114.0957" y2="114.0957"/><line style="stroke:#181818;stroke-width:0.5;" x1="23.5" x2="190.5" y1="122.0957" y2="122.0957"/></g><!--link Board to BoardDimensions--><g id="link_Board_BoardDimensions"><path codeLine="27" d="M453.4,157.4137 C456.46,180.7437 459.99,207.6737 463,230.6737 " fill="none" id="Board-to-BoardDimensions" style="stroke:#181818;stroke-width:1.0;"/><polygon fill="#181818" points="463.68,235.8237,466.4928,226.385,463.0388,230.865,458.5588,227.411,463.68,235.8237" style="stroke:#181818;stroke-width:1.0;"/></g><!--link Board to BoardCreationDateTime--><g id="link_Board_BoardCreationDateTime"><path codeLine="28" d="M410.4,138.7037 C404.59,144.8337 398.63,151.1037 393,157.0137 C366.06,185.2637 335.65,216.9237 311.93,241.5637 " fill="none" id="Board-to-BoardCreationDateTime" style="stroke:#181818;stroke-width:1.0;"/><polygon fill="#181818" points="308.18,245.4537,317.3066,241.7516,311.6507,241.8545,311.5478,236.1985,308.18,245.4537" style="stroke:#181818;stroke-width:1.0;"/></g><!--link Board to BoardElement--><g id="link_Board_BoardElement"><path codeLine="29" d="M410.48,143.3537 C404.99,148.4037 399.1,153.1437 393,157.0137 C357.05,179.8437 342.34,173.3537 302,187.0137 C239.16,208.2937 220.94,207.5737 161,236.0137 C156.47,238.1637 151.88,240.5037 147.31,242.9737 " fill="none" id="Board-to-BoardElement" style="stroke:#181818;stroke-width:1.0;"/><polygon fill="#181818" points="142.74,245.4637,152.5554,244.6522,147.1262,243.0634,148.7149,237.6342,142.74,245.4637" style="stroke:#181818;stroke-width:1.0;"/><polygon fill="#000000" points="302.3238,198.4293,311.8236,197.9757,309.7427,192.4785,302.3238,198.4293" style="stroke:#000000;stroke-width:1.0;"/><text fill="#000000" font-family="sans-serif" font-size="13" lengthAdjust="spacing" textLength="21" x="316" y="202.042">has</text><text fill="#000000" font-family="sans-serif" font-size="13" lengthAdjust="spacing" textLength="7" x="395.4321" y="147.6199">1</text><text fill="#000000" font-family="sans-serif" font-size="13" lengthAdjust="spacing" textLength="20" x="131.2891" y="234.241">1..*</text></g><!--link BoardElementLine to BoardElement--><g id="link_BoardElementLine_BoardElement"><path codeLine="31" d="M265.49,130.8237 C232.83,158.2437 183.69,199.4837 144.63,232.2737 " fill="none" id="BoardElementLine-to-BoardElement" style="stroke:#181818;stroke-width:1.0;"/><polygon fill="none" points="148.95,237.7937,129.13,245.2937,139.95,227.0737,148.95,237.7937" style="stroke:#181818;stroke-width:1.0;"/></g><!--link BoardElementColumn to BoardElement--><g id="link_BoardElementColumn_BoardElement"><path codeLine="32" d="M103.09,130.8237 C99.75,156.2937 94.85,193.6937 90.72,225.1637 " fill="none" id="BoardElementColumn-to-BoardElement" style="stroke:#181818;stroke-width:1.0;"/><polygon fill="none" points="97.62,226.3737,88.08,245.2937,83.74,224.5537,97.62,226.3737" style="stroke:#181818;stroke-width:1.0;"/></g><!--SRC=[ZP4nJyCm48Nt_8gJ6Gg8L5HYGCZAq9PEZ8ZzwfnIWsiZsor2m7_di4sLb4R2It9tpz-xl4pc3drRlQ9wmOv0I8bTvwd3I4q3QIZWem8-PAEExxa7KkQIHL9wvoA_PDdFuOcXGuLURVIUsjJugj936GmXinQUC6fdb-pvgBV4mFEdApXRhMxdDzSNi4Up8t3hPr93bxPS6E4kUMG3WyE_YSgPtTOUIgFj03v9t7j338wfW-iGFQe8_GdR_VP7KYcyVgBbxWDRzi8TaotIedqX8_EVgLltPklcE8DJq-FaYqRC1DIi4RFfz58CF-qEDXYWAMRzfUlwinbegnCB_nLz0m00]--></g></svg>