<?xml version="1.0" encoding="us-ascii" standalone="no"?><svg xmlns="http://www.w3.org/2000/svg" xmlns:xlink="http://www.w3.org/1999/xlink" contentStyleType="text/css" height="1545px" preserveAspectRatio="none" style="width:1809px;height:1545px;background:#FFFFFF;" version="1.1" viewBox="0 0 1809 1545" width="1809px" zoomAndPan="magnify"><defs/><g><text fill="#000000" font-family="sans-serif" font-size="14" font-weight="bold" lengthAdjust="spacing" textLength="233" x="789.5" y="30.1074">Sequence Diagram (SD) - US 3002</text><rect fill="#FFFFFF" height="1289.9316" style="stroke:#181818;stroke-width:1.0;" width="10" x="32.5" y="137.8633"/><rect fill="#FFFFFF" height="1266.6406" style="stroke:#181818;stroke-width:1.0;" width="10" x="428.5" y="161.1543"/><rect fill="#FFFFFF" height="62.582" style="stroke:#181818;stroke-width:1.0;" width="10" x="853.5" y="348.9004"/><rect fill="#FFFFFF" height="62.582" style="stroke:#181818;stroke-width:1.0;" width="10" x="853.5" y="662.8105"/><rect fill="#FFFFFF" height="375.4922" style="stroke:#181818;stroke-width:1.0;" width="10" x="853.5" y="1021.0117"/><rect fill="#FFFFFF" height="93.873" style="stroke:#181818;stroke-width:1.0;" width="10" x="1147.5" y="1240.0488"/><rect fill="none" height="81.873" style="stroke:#000000;stroke-width:1.5;" width="488" x="10" y="488.0645"/><rect fill="none" height="81.873" style="stroke:#000000;stroke-width:1.5;" width="488" x="10" y="801.9746"/><line style="stroke:#181818;stroke-width:0.5;stroke-dasharray:5.0,5.0;" x1="37" x2="37" y1="127.8633" y2="1445.7949"/><line style="stroke:#181818;stroke-width:0.5;stroke-dasharray:5.0,5.0;" x1="433" x2="433" y1="127.8633" y2="1445.7949"/><line style="stroke:#181818;stroke-width:0.5;stroke-dasharray:5.0,5.0;" x1="858" x2="858" y1="127.8633" y2="1445.7949"/><line style="stroke:#181818;stroke-width:0.5;stroke-dasharray:5.0,5.0;" x1="1152.5" x2="1152.5" y1="127.8633" y2="1445.7949"/><line style="stroke:#181818;stroke-width:0.5;stroke-dasharray:5.0,5.0;" x1="1515" x2="1515" y1="127.8633" y2="1445.7949"/><line style="stroke:#181818;stroke-width:0.5;stroke-dasharray:5.0,5.0;" x1="1629" x2="1629" y1="127.8633" y2="1445.7949"/><line style="stroke:#181818;stroke-width:0.5;stroke-dasharray:5.0,5.0;" x1="1752" x2="1752" y1="127.8633" y2="1445.7949"/><text fill="#000000" font-family="sans-serif" font-size="14" lengthAdjust="spacing" textLength="29" x="20" y="124.3496">User</text><ellipse cx="37.5" cy="57.7422" fill="#E3E3E3" rx="8" ry="8" style="stroke:#181818;stroke-width:0.5;"/><path d="M37.5,65.7422 L37.5,92.7422 M24.5,73.7422 L50.5,73.7422 M37.5,92.7422 L24.5,107.7422 M37.5,92.7422 L50.5,107.7422 " fill="none" style="stroke:#181818;stroke-width:0.5;"/><text fill="#000000" font-family="sans-serif" font-size="14" lengthAdjust="spacing" textLength="29" x="20" y="1459.9023">User</text><ellipse cx="37.5" cy="1471.916" fill="#E3E3E3" rx="8" ry="8" style="stroke:#181818;stroke-width:0.5;"/><path d="M37.5,1479.916 L37.5,1506.916 M24.5,1487.916 L50.5,1487.916 M37.5,1506.916 L24.5,1521.916 M37.5,1506.916 L50.5,1521.916 " fill="none" style="stroke:#181818;stroke-width:0.5;"/><rect fill="#E3E3E3" height="51.2422" rx="2.5" ry="2.5" style="stroke:#181818;stroke-width:0.5;" width="109" x="379" y="75.6211"/><text fill="#000000" font-family="sans-serif" font-size="14" font-style="italic" lengthAdjust="spacing" textLength="95" x="386" y="97.7285">&#171;presentation&#187;</text><text fill="#000000" font-family="sans-serif" font-size="14" lengthAdjust="spacing" textLength="93" x="387" y="116.3496">CreateBoardUI</text><rect fill="#E3E3E3" height="51.2422" rx="2.5" ry="2.5" style="stroke:#181818;stroke-width:0.5;" width="109" x="379" y="1444.7949"/><text fill="#000000" font-family="sans-serif" font-size="14" font-style="italic" lengthAdjust="spacing" textLength="95" x="386" y="1466.9023">&#171;presentation&#187;</text><text fill="#000000" font-family="sans-serif" font-size="14" lengthAdjust="spacing" textLength="93" x="387" y="1485.5234">CreateBoardUI</text><text fill="#000000" font-family="sans-serif" font-size="14" font-style="italic" lengthAdjust="spacing" textLength="84" x="813.5" y="105.7285">&#171;application&#187;</text><text fill="#000000" font-family="sans-serif" font-size="14" lengthAdjust="spacing" textLength="143" x="784" y="124.3496">CreateBoardController</text><ellipse cx="858.5" cy="74.6211" fill="#E3E3E3" rx="12" ry="12" style="stroke:#181818;stroke-width:0.5;"/><polygon fill="#181818" points="854.5,62.6211,860.5,57.6211,858.5,62.6211,860.5,67.6211,854.5,62.6211" style="stroke:#181818;stroke-width:1.0;"/><text fill="#000000" font-family="sans-serif" font-size="14" font-style="italic" lengthAdjust="spacing" textLength="84" x="813.5" y="1459.9023">&#171;application&#187;</text><text fill="#000000" font-family="sans-serif" font-size="14" lengthAdjust="spacing" textLength="143" x="784" y="1478.5234">CreateBoardController</text><ellipse cx="858.5" cy="1498.0371" fill="#E3E3E3" rx="12" ry="12" style="stroke:#181818;stroke-width:0.5;"/><polygon fill="#181818" points="854.5,1486.0371,860.5,1481.0371,858.5,1486.0371,860.5,1491.0371,854.5,1486.0371" style="stroke:#181818;stroke-width:1.0;"/><rect fill="#E3E3E3" height="51.2422" rx="2.5" ry="2.5" style="stroke:#181818;stroke-width:0.5;" width="96" x="1104.5" y="75.6211"/><text fill="#000000" font-family="sans-serif" font-size="14" font-style="italic" lengthAdjust="spacing" textLength="59" x="1123" y="97.7285">&#171;builder&#187;</text><text fill="#000000" font-family="sans-serif" font-size="14" lengthAdjust="spacing" textLength="82" x="1111.5" y="116.3496">BoardBuilder</text><rect fill="#E3E3E3" height="51.2422" rx="2.5" ry="2.5" style="stroke:#181818;stroke-width:0.5;" width="96" x="1104.5" y="1444.7949"/><text fill="#000000" font-family="sans-serif" font-size="14" font-style="italic" lengthAdjust="spacing" textLength="59" x="1123" y="1466.9023">&#171;builder&#187;</text><text fill="#000000" font-family="sans-serif" font-size="14" lengthAdjust="spacing" textLength="82" x="1111.5" y="1485.5234">BoardBuilder</text><rect fill="#E3E3E3" height="51.2422" rx="2.5" ry="2.5" style="stroke:#181818;stroke-width:0.5;" width="93" x="1469" y="75.6211"/><text fill="#000000" font-family="sans-serif" font-size="14" font-style="italic" lengthAdjust="spacing" textLength="62" x="1484.5" y="97.7285">&#171;domain&#187;</text><text fill="#000000" font-family="sans-serif" font-size="14" lengthAdjust="spacing" textLength="79" x="1476" y="116.3496">board:Board</text><rect fill="#E3E3E3" height="51.2422" rx="2.5" ry="2.5" style="stroke:#181818;stroke-width:0.5;" width="93" x="1469" y="1444.7949"/><text fill="#000000" font-family="sans-serif" font-size="14" font-style="italic" lengthAdjust="spacing" textLength="62" x="1484.5" y="1466.9023">&#171;domain&#187;</text><text fill="#000000" font-family="sans-serif" font-size="14" lengthAdjust="spacing" textLength="79" x="1476" y="1485.5234">board:Board</text><rect fill="#E3E3E3" height="51.2422" rx="2.5" ry="2.5" style="stroke:#181818;stroke-width:0.5;" width="114" x="1572" y="75.6211"/><text fill="#000000" font-family="sans-serif" font-size="14" font-style="italic" lengthAdjust="spacing" textLength="100" x="1579" y="97.7285">&#171;infrastructure&#187;</text><text fill="#000000" font-family="sans-serif" font-size="14" lengthAdjust="spacing" textLength="76" x="1591" y="116.3496">AppSettings</text><rect fill="#E3E3E3" height="51.2422" rx="2.5" ry="2.5" style="stroke:#181818;stroke-width:0.5;" width="114" x="1572" y="1444.7949"/><text fill="#000000" font-family="sans-serif" font-size="14" font-style="italic" lengthAdjust="spacing" textLength="100" x="1579" y="1466.9023">&#171;infrastructure&#187;</text><text fill="#000000" font-family="sans-serif" font-size="14" lengthAdjust="spacing" textLength="76" x="1591" y="1485.5234">AppSettings</text><text fill="#000000" font-family="sans-serif" font-size="14" font-style="italic" lengthAdjust="spacing" textLength="79" x="1709.5" y="105.7285">&#171;repository&#187;</text><text fill="#000000" font-family="sans-serif" font-size="14" lengthAdjust="spacing" textLength="106" x="1696" y="124.3496">BoardRepository</text><path d="M1734,54.6211 C1734,44.6211 1752,44.6211 1752,44.6211 C1752,44.6211 1770,44.6211 1770,54.6211 L1770,80.6211 C1770,90.6211 1752,90.6211 1752,90.6211 C1752,90.6211 1734,90.6211 1734,80.6211 L1734,54.6211 " fill="#E3E3E3" style="stroke:#181818;stroke-width:1.5;"/><path d="M1734,54.6211 C1734,64.6211 1752,64.6211 1752,64.6211 C1752,64.6211 1770,64.6211 1770,54.6211 " fill="none" style="stroke:#181818;stroke-width:1.5;"/><text fill="#000000" font-family="sans-serif" font-size="14" font-style="italic" lengthAdjust="spacing" textLength="79" x="1709.5" y="1459.9023">&#171;repository&#187;</text><text fill="#000000" font-family="sans-serif" font-size="14" lengthAdjust="spacing" textLength="106" x="1696" y="1478.5234">BoardRepository</text><path d="M1734,1492.0371 C1734,1482.0371 1752,1482.0371 1752,1482.0371 C1752,1482.0371 1770,1482.0371 1770,1492.0371 L1770,1518.0371 C1770,1528.0371 1752,1528.0371 1752,1528.0371 C1752,1528.0371 1734,1528.0371 1734,1518.0371 L1734,1492.0371 " fill="#E3E3E3" style="stroke:#181818;stroke-width:1.5;"/><path d="M1734,1492.0371 C1734,1502.0371 1752,1502.0371 1752,1502.0371 C1752,1502.0371 1770,1502.0371 1770,1492.0371 " fill="none" style="stroke:#181818;stroke-width:1.5;"/><rect fill="#FFFFFF" height="1289.9316" style="stroke:#181818;stroke-width:1.0;" width="10" x="32.5" y="137.8633"/><rect fill="#FFFFFF" height="1266.6406" style="stroke:#181818;stroke-width:1.0;" width="10" x="428.5" y="161.1543"/><rect fill="#FFFFFF" height="62.582" style="stroke:#181818;stroke-width:1.0;" width="10" x="853.5" y="348.9004"/><rect fill="#FFFFFF" height="62.582" style="stroke:#181818;stroke-width:1.0;" width="10" x="853.5" y="662.8105"/><rect fill="#FFFFFF" height="375.4922" style="stroke:#181818;stroke-width:1.0;" width="10" x="853.5" y="1021.0117"/><rect fill="#FFFFFF" height="93.873" style="stroke:#181818;stroke-width:1.0;" width="10" x="1147.5" y="1240.0488"/><polygon fill="#181818" points="416.5,157.1543,426.5,161.1543,416.5,165.1543,420.5,161.1543" style="stroke:#181818;stroke-width:1.0;"/><line style="stroke:#181818;stroke-width:1.0;" x1="42.5" x2="422.5" y1="161.1543" y2="161.1543"/><text fill="#000000" font-family="sans-serif" font-size="13" font-weight="bold" lengthAdjust="spacing" textLength="7" x="49.5" y="155.8916">1</text><text fill="#000000" font-family="sans-serif" font-size="13" lengthAdjust="spacing" textLength="197" x="60.5" y="155.8916">Pede para criar um quadro (board)</text><polygon fill="#181818" points="846.5,188.4453,856.5,192.4453,846.5,196.4453,850.5,192.4453" style="stroke:#181818;stroke-width:1.0;"/><line style="stroke:#181818;stroke-width:1.0;" x1="438.5" x2="852.5" y1="192.4453" y2="192.4453"/><text fill="#000000" font-family="sans-serif" font-size="13" font-weight="bold" lengthAdjust="spacing" textLength="7" x="445.5" y="187.1826">2</text><text fill="#000000" font-family="sans-serif" font-size="13" lengthAdjust="spacing" textLength="36" x="456.5" y="187.1826">create</text><polygon fill="#181818" points="53.5,219.7363,43.5,223.7363,53.5,227.7363,49.5,223.7363" style="stroke:#181818;stroke-width:1.0;"/><line style="stroke:#181818;stroke-width:1.0;stroke-dasharray:2.0,2.0;" x1="47.5" x2="427.5" y1="223.7363" y2="223.7363"/><text fill="#000000" font-family="sans-serif" font-size="13" font-weight="bold" lengthAdjust="spacing" textLength="7" x="59.5" y="218.4736">3</text><text fill="#000000" font-family="sans-serif" font-size="13" lengthAdjust="spacing" textLength="259" x="70.5" y="218.4736">Pede para inserir o t&#237;tulo &#250;nico para o quadro</text><polygon fill="#181818" points="416.5,251.0273,426.5,255.0273,416.5,259.0273,420.5,255.0273" style="stroke:#181818;stroke-width:1.0;"/><line style="stroke:#181818;stroke-width:1.0;" x1="42.5" x2="422.5" y1="255.0273" y2="255.0273"/><text fill="#000000" font-family="sans-serif" font-size="13" font-weight="bold" lengthAdjust="spacing" textLength="7" x="49.5" y="249.7646">4</text><text fill="#000000" font-family="sans-serif" font-size="13" lengthAdjust="spacing" textLength="196" x="60.5" y="249.7646">Insere o t&#237;tulo &#250;nico para o quadro</text><polygon fill="#181818" points="53.5,282.3184,43.5,286.3184,53.5,290.3184,49.5,286.3184" style="stroke:#181818;stroke-width:1.0;"/><line style="stroke:#181818;stroke-width:1.0;stroke-dasharray:2.0,2.0;" x1="47.5" x2="427.5" y1="286.3184" y2="286.3184"/><text fill="#000000" font-family="sans-serif" font-size="13" font-weight="bold" lengthAdjust="spacing" textLength="7" x="59.5" y="281.0557">5</text><text fill="#000000" font-family="sans-serif" font-size="13" lengthAdjust="spacing" textLength="351" x="70.5" y="281.0557">Pede para inserir o n&#250;mero de colunas que o quadro deve ter</text><polygon fill="#181818" points="416.5,313.6094,426.5,317.6094,416.5,321.6094,420.5,317.6094" style="stroke:#181818;stroke-width:1.0;"/><line style="stroke:#181818;stroke-width:1.0;" x1="42.5" x2="422.5" y1="317.6094" y2="317.6094"/><text fill="#000000" font-family="sans-serif" font-size="13" font-weight="bold" lengthAdjust="spacing" textLength="7" x="49.5" y="312.3467">6</text><text fill="#000000" font-family="sans-serif" font-size="13" lengthAdjust="spacing" textLength="243" x="60.5" y="312.3467">Insere o n&#250;mero de colunas para o quadro</text><polygon fill="#181818" points="841.5,344.9004,851.5,348.9004,841.5,352.9004,845.5,348.9004" style="stroke:#181818;stroke-width:1.0;"/><line style="stroke:#181818;stroke-width:1.0;" x1="438.5" x2="847.5" y1="348.9004" y2="348.9004"/><text fill="#000000" font-family="sans-serif" font-size="13" font-weight="bold" lengthAdjust="spacing" textLength="7" x="445.5" y="343.6377">7</text><text fill="#000000" font-family="sans-serif" font-size="13" lengthAdjust="spacing" textLength="222" x="456.5" y="343.6377">validColumnsForABoard(numColumns)</text><polygon fill="#181818" points="1617,376.1914,1627,380.1914,1617,384.1914,1621,380.1914" style="stroke:#181818;stroke-width:1.0;"/><line style="stroke:#181818;stroke-width:1.0;" x1="863.5" x2="1623" y1="380.1914" y2="380.1914"/><text fill="#000000" font-family="sans-serif" font-size="13" font-weight="bold" lengthAdjust="spacing" textLength="7" x="870.5" y="374.9287">8</text><text fill="#000000" font-family="sans-serif" font-size="13" lengthAdjust="spacing" textLength="227" x="881.5" y="374.9287">maximumNumberOfColumnsInABoard()</text><polygon fill="#181818" points="449.5,407.4824,439.5,411.4824,449.5,415.4824,445.5,411.4824" style="stroke:#181818;stroke-width:1.0;"/><line style="stroke:#181818;stroke-width:1.0;stroke-dasharray:2.0,2.0;" x1="443.5" x2="857.5" y1="411.4824" y2="411.4824"/><text fill="#000000" font-family="sans-serif" font-size="13" font-weight="bold" lengthAdjust="spacing" textLength="7" x="455.5" y="406.2197">9</text><text fill="#000000" font-family="sans-serif" font-size="13" lengthAdjust="spacing" textLength="25" x="466.5" y="406.2197">valid</text><line style="stroke:#181818;stroke-width:1.0;" x1="438.5" x2="480.5" y1="460.0645" y2="460.0645"/><line style="stroke:#181818;stroke-width:1.0;" x1="480.5" x2="480.5" y1="460.0645" y2="473.0645"/><line style="stroke:#181818;stroke-width:1.0;" x1="439.5" x2="480.5" y1="473.0645" y2="473.0645"/><polygon fill="#181818" points="449.5,469.0645,439.5,473.0645,449.5,477.0645,445.5,473.0645" style="stroke:#181818;stroke-width:1.0;"/><text fill="#000000" font-family="sans-serif" font-size="13" font-weight="bold" lengthAdjust="spacing" textLength="14" x="445.5" y="446.1563">10</text><text fill="#000000" font-family="sans-serif" font-size="13" lengthAdjust="spacing" textLength="162" x="463.5" y="437.5107">Verifica o valor inserido com</text><text fill="#000000" font-family="sans-serif" font-size="13" lengthAdjust="spacing" textLength="135" x="467.5" y="454.8018">o valor m&#225;ximo definido</text><path d="M10,488.0645 L83,488.0645 L83,497.3555 L73,507.3555 L10,507.3555 L10,488.0645 " fill="#EEEEEE" style="stroke:#000000;stroke-width:1.5;"/><rect fill="none" height="81.873" style="stroke:#000000;stroke-width:1.5;" width="488" x="10" y="488.0645"/><text fill="#000000" font-family="sans-serif" font-size="13" font-weight="bold" lengthAdjust="spacing" textLength="28" x="25" y="503.0928">loop</text><text fill="#000000" font-family="sans-serif" font-size="11" font-weight="bold" lengthAdjust="spacing" textLength="175" x="98" y="501.9346">[Para cada coluna do quadro (y)]</text><polygon fill="#181818" points="53.5,526.6465,43.5,530.6465,53.5,534.6465,49.5,530.6465" style="stroke:#181818;stroke-width:1.0;"/><line style="stroke:#181818;stroke-width:1.0;stroke-dasharray:2.0,2.0;" x1="47.5" x2="427.5" y1="530.6465" y2="530.6465"/><text fill="#000000" font-family="sans-serif" font-size="13" font-weight="bold" lengthAdjust="spacing" textLength="14" x="59.5" y="525.3838">11</text><text fill="#000000" font-family="sans-serif" font-size="13" lengthAdjust="spacing" textLength="234" x="77.5" y="525.3838">Pede para inserir o t&#237;tulo para a coluna y</text><polygon fill="#181818" points="416.5,557.9375,426.5,561.9375,416.5,565.9375,420.5,561.9375" style="stroke:#181818;stroke-width:1.0;"/><line style="stroke:#181818;stroke-width:1.0;" x1="42.5" x2="422.5" y1="561.9375" y2="561.9375"/><text fill="#000000" font-family="sans-serif" font-size="13" font-weight="bold" lengthAdjust="spacing" textLength="14" x="49.5" y="556.6748">12</text><text fill="#000000" font-family="sans-serif" font-size="13" lengthAdjust="spacing" textLength="171" x="67.5" y="556.6748">Insere o t&#237;tulo para a coluna y</text><polygon fill="#181818" points="53.5,596.2285,43.5,600.2285,53.5,604.2285,49.5,600.2285" style="stroke:#181818;stroke-width:1.0;"/><line style="stroke:#181818;stroke-width:1.0;stroke-dasharray:2.0,2.0;" x1="47.5" x2="427.5" y1="600.2285" y2="600.2285"/><text fill="#000000" font-family="sans-serif" font-size="13" font-weight="bold" lengthAdjust="spacing" textLength="14" x="59.5" y="594.9658">13</text><text fill="#000000" font-family="sans-serif" font-size="13" lengthAdjust="spacing" textLength="340" x="77.5" y="594.9658">Pede para inserir o n&#250;mero de linhas que o quadro deve ter</text><polygon fill="#181818" points="416.5,627.5195,426.5,631.5195,416.5,635.5195,420.5,631.5195" style="stroke:#181818;stroke-width:1.0;"/><line style="stroke:#181818;stroke-width:1.0;" x1="42.5" x2="422.5" y1="631.5195" y2="631.5195"/><text fill="#000000" font-family="sans-serif" font-size="13" font-weight="bold" lengthAdjust="spacing" textLength="14" x="49.5" y="626.2568">14</text><text fill="#000000" font-family="sans-serif" font-size="13" lengthAdjust="spacing" textLength="232" x="67.5" y="626.2568">Insere o n&#250;mero de linhas para o quadro</text><polygon fill="#181818" points="841.5,658.8105,851.5,662.8105,841.5,666.8105,845.5,662.8105" style="stroke:#181818;stroke-width:1.0;"/><line style="stroke:#181818;stroke-width:1.0;" x1="438.5" x2="847.5" y1="662.8105" y2="662.8105"/><text fill="#000000" font-family="sans-serif" font-size="13" font-weight="bold" lengthAdjust="spacing" textLength="14" x="445.5" y="657.5479">15</text><text fill="#000000" font-family="sans-serif" font-size="13" lengthAdjust="spacing" textLength="182" x="463.5" y="657.5479">validLinesForABoard(numLines)</text><polygon fill="#181818" points="1617,690.1016,1627,694.1016,1617,698.1016,1621,694.1016" style="stroke:#181818;stroke-width:1.0;"/><line style="stroke:#181818;stroke-width:1.0;" x1="863.5" x2="1623" y1="694.1016" y2="694.1016"/><text fill="#000000" font-family="sans-serif" font-size="13" font-weight="bold" lengthAdjust="spacing" textLength="14" x="870.5" y="688.8389">16</text><text fill="#000000" font-family="sans-serif" font-size="13" lengthAdjust="spacing" textLength="207" x="888.5" y="688.8389">maximumNumberOfLinesInABoard()</text><polygon fill="#181818" points="449.5,721.3926,439.5,725.3926,449.5,729.3926,445.5,725.3926" style="stroke:#181818;stroke-width:1.0;"/><line style="stroke:#181818;stroke-width:1.0;stroke-dasharray:2.0,2.0;" x1="443.5" x2="857.5" y1="725.3926" y2="725.3926"/><text fill="#000000" font-family="sans-serif" font-size="13" font-weight="bold" lengthAdjust="spacing" textLength="14" x="455.5" y="720.1299">17</text><text fill="#000000" font-family="sans-serif" font-size="13" lengthAdjust="spacing" textLength="25" x="473.5" y="720.1299">valid</text><line style="stroke:#181818;stroke-width:1.0;" x1="438.5" x2="480.5" y1="773.9746" y2="773.9746"/><line style="stroke:#181818;stroke-width:1.0;" x1="480.5" x2="480.5" y1="773.9746" y2="786.9746"/><line style="stroke:#181818;stroke-width:1.0;" x1="439.5" x2="480.5" y1="786.9746" y2="786.9746"/><polygon fill="#181818" points="449.5,782.9746,439.5,786.9746,449.5,790.9746,445.5,786.9746" style="stroke:#181818;stroke-width:1.0;"/><text fill="#000000" font-family="sans-serif" font-size="13" font-weight="bold" lengthAdjust="spacing" textLength="14" x="445.5" y="760.0664">18</text><text fill="#000000" font-family="sans-serif" font-size="13" lengthAdjust="spacing" textLength="162" x="463.5" y="751.4209">Verifica o valor inserido com</text><text fill="#000000" font-family="sans-serif" font-size="13" lengthAdjust="spacing" textLength="135" x="467.5" y="768.7119">o valor m&#225;ximo definido</text><path d="M10,801.9746 L83,801.9746 L83,811.2656 L73,821.2656 L10,821.2656 L10,801.9746 " fill="#EEEEEE" style="stroke:#000000;stroke-width:1.5;"/><rect fill="none" height="81.873" style="stroke:#000000;stroke-width:1.5;" width="488" x="10" y="801.9746"/><text fill="#000000" font-family="sans-serif" font-size="13" font-weight="bold" lengthAdjust="spacing" textLength="28" x="25" y="817.0029">loop</text><text fill="#000000" font-family="sans-serif" font-size="11" font-weight="bold" lengthAdjust="spacing" textLength="165" x="98" y="815.8447">[Para cada linha do quadro (x)]</text><polygon fill="#181818" points="53.5,840.5566,43.5,844.5566,53.5,848.5566,49.5,844.5566" style="stroke:#181818;stroke-width:1.0;"/><line style="stroke:#181818;stroke-width:1.0;stroke-dasharray:2.0,2.0;" x1="47.5" x2="427.5" y1="844.5566" y2="844.5566"/><text fill="#000000" font-family="sans-serif" font-size="13" font-weight="bold" lengthAdjust="spacing" textLength="14" x="59.5" y="839.2939">19</text><text fill="#000000" font-family="sans-serif" font-size="13" lengthAdjust="spacing" textLength="223" x="77.5" y="839.2939">Pede para inserir o t&#237;tulo para a linha x</text><polygon fill="#181818" points="416.5,871.8477,426.5,875.8477,416.5,879.8477,420.5,875.8477" style="stroke:#181818;stroke-width:1.0;"/><line style="stroke:#181818;stroke-width:1.0;" x1="42.5" x2="422.5" y1="875.8477" y2="875.8477"/><text fill="#000000" font-family="sans-serif" font-size="13" font-weight="bold" lengthAdjust="spacing" textLength="14" x="49.5" y="870.585">20</text><text fill="#000000" font-family="sans-serif" font-size="13" lengthAdjust="spacing" textLength="160" x="67.5" y="870.585">Insere o t&#237;tulo para a linha x</text><line style="stroke:#181818;stroke-width:1.0;" x1="438.5" x2="480.5" y1="914.1387" y2="914.1387"/><line style="stroke:#181818;stroke-width:1.0;" x1="480.5" x2="480.5" y1="914.1387" y2="927.1387"/><line style="stroke:#181818;stroke-width:1.0;" x1="439.5" x2="480.5" y1="927.1387" y2="927.1387"/><polygon fill="#181818" points="449.5,923.1387,439.5,927.1387,449.5,931.1387,445.5,927.1387" style="stroke:#181818;stroke-width:1.0;"/><text fill="#000000" font-family="sans-serif" font-size="13" font-weight="bold" lengthAdjust="spacing" textLength="14" x="445.5" y="908.876">21</text><text fill="#000000" font-family="sans-serif" font-size="13" lengthAdjust="spacing" textLength="219" x="463.5" y="908.876">Mostra a informa&#231;&#227;o do quadro a criar</text><polygon fill="#181818" points="53.5,954.4297,43.5,958.4297,53.5,962.4297,49.5,958.4297" style="stroke:#181818;stroke-width:1.0;"/><line style="stroke:#181818;stroke-width:1.0;stroke-dasharray:2.0,2.0;" x1="47.5" x2="427.5" y1="958.4297" y2="958.4297"/><text fill="#000000" font-family="sans-serif" font-size="13" font-weight="bold" lengthAdjust="spacing" textLength="14" x="59.5" y="953.167">22</text><text fill="#000000" font-family="sans-serif" font-size="13" lengthAdjust="spacing" textLength="179" x="77.5" y="953.167">Pede confirma&#231;&#227;o da opera&#231;&#227;o</text><polygon fill="#181818" points="416.5,985.7207,426.5,989.7207,416.5,993.7207,420.5,989.7207" style="stroke:#181818;stroke-width:1.0;"/><line style="stroke:#181818;stroke-width:1.0;" x1="42.5" x2="422.5" y1="989.7207" y2="989.7207"/><text fill="#000000" font-family="sans-serif" font-size="13" font-weight="bold" lengthAdjust="spacing" textLength="14" x="49.5" y="984.458">23</text><text fill="#000000" font-family="sans-serif" font-size="13" lengthAdjust="spacing" textLength="119" x="67.5" y="984.458">Confirma a opera&#231;&#227;o</text><polygon fill="#181818" points="841.5,1017.0117,851.5,1021.0117,841.5,1025.0117,845.5,1021.0117" style="stroke:#181818;stroke-width:1.0;"/><line style="stroke:#181818;stroke-width:1.0;" x1="438.5" x2="847.5" y1="1021.0117" y2="1021.0117"/><text fill="#000000" font-family="sans-serif" font-size="13" font-weight="bold" lengthAdjust="spacing" textLength="14" x="445.5" y="1015.749">24</text><text fill="#000000" font-family="sans-serif" font-size="13" lengthAdjust="spacing" textLength="378" x="463.5" y="1015.749">addBoard(title, numLines, numColumns, linesData, columnsData)</text><polygon fill="#181818" points="1140.5,1048.3027,1150.5,1052.3027,1140.5,1056.3027,1144.5,1052.3027" style="stroke:#181818;stroke-width:1.0;"/><line style="stroke:#181818;stroke-width:1.0;" x1="863.5" x2="1146.5" y1="1052.3027" y2="1052.3027"/><text fill="#000000" font-family="sans-serif" font-size="13" font-weight="bold" lengthAdjust="spacing" textLength="14" x="870.5" y="1047.04">25</text><text fill="#000000" font-family="sans-serif" font-size="13" lengthAdjust="spacing" textLength="36" x="888.5" y="1047.04">create</text><polygon fill="#181818" points="1140.5,1079.5938,1150.5,1083.5938,1140.5,1087.5938,1144.5,1083.5938" style="stroke:#181818;stroke-width:1.0;"/><line style="stroke:#181818;stroke-width:1.0;" x1="863.5" x2="1146.5" y1="1083.5938" y2="1083.5938"/><text fill="#000000" font-family="sans-serif" font-size="13" font-weight="bold" lengthAdjust="spacing" textLength="14" x="870.5" y="1078.3311">26</text><text fill="#000000" font-family="sans-serif" font-size="13" lengthAdjust="spacing" textLength="71" x="888.5" y="1078.3311">entitled(title)</text><polygon fill="#181818" points="1140.5,1110.8848,1150.5,1114.8848,1140.5,1118.8848,1144.5,1114.8848" style="stroke:#181818;stroke-width:1.0;"/><line style="stroke:#181818;stroke-width:1.0;" x1="863.5" x2="1146.5" y1="1114.8848" y2="1114.8848"/><text fill="#000000" font-family="sans-serif" font-size="13" font-weight="bold" lengthAdjust="spacing" textLength="14" x="870.5" y="1109.6221">27</text><text fill="#000000" font-family="sans-serif" font-size="13" lengthAdjust="spacing" textLength="174" x="888.5" y="1109.6221">dimensions(boardDimensions)</text><polygon fill="#181818" points="1140.5,1142.1758,1150.5,1146.1758,1140.5,1150.1758,1144.5,1146.1758" style="stroke:#181818;stroke-width:1.0;"/><line style="stroke:#181818;stroke-width:1.0;" x1="863.5" x2="1146.5" y1="1146.1758" y2="1146.1758"/><text fill="#000000" font-family="sans-serif" font-size="13" font-weight="bold" lengthAdjust="spacing" textLength="14" x="870.5" y="1140.9131">28</text><text fill="#000000" font-family="sans-serif" font-size="13" lengthAdjust="spacing" textLength="244" x="888.5" y="1140.9131">creationDateTime(boardCreationDateTime)</text><polygon fill="#181818" points="1140.5,1173.4668,1150.5,1177.4668,1140.5,1181.4668,1144.5,1177.4668" style="stroke:#181818;stroke-width:1.0;"/><line style="stroke:#181818;stroke-width:1.0;" x1="863.5" x2="1146.5" y1="1177.4668" y2="1177.4668"/><text fill="#000000" font-family="sans-serif" font-size="13" font-weight="bold" lengthAdjust="spacing" textLength="14" x="870.5" y="1172.2041">29</text><text fill="#000000" font-family="sans-serif" font-size="13" lengthAdjust="spacing" textLength="205" x="888.5" y="1172.2041">withBoardElementsLines(linesData)</text><polygon fill="#181818" points="1140.5,1204.7578,1150.5,1208.7578,1140.5,1212.7578,1144.5,1208.7578" style="stroke:#181818;stroke-width:1.0;"/><line style="stroke:#181818;stroke-width:1.0;" x1="863.5" x2="1146.5" y1="1208.7578" y2="1208.7578"/><text fill="#000000" font-family="sans-serif" font-size="13" font-weight="bold" lengthAdjust="spacing" textLength="14" x="870.5" y="1203.4951">30</text><text fill="#000000" font-family="sans-serif" font-size="13" lengthAdjust="spacing" textLength="247" x="888.5" y="1203.4951">withBoardElementsColumns(columnsData)</text><polygon fill="#181818" points="1135.5,1236.0488,1145.5,1240.0488,1135.5,1244.0488,1139.5,1240.0488" style="stroke:#181818;stroke-width:1.0;"/><line style="stroke:#181818;stroke-width:1.0;" x1="863.5" x2="1141.5" y1="1240.0488" y2="1240.0488"/><text fill="#000000" font-family="sans-serif" font-size="13" font-weight="bold" lengthAdjust="spacing" textLength="14" x="870.5" y="1234.7861">31</text><text fill="#000000" font-family="sans-serif" font-size="13" lengthAdjust="spacing" textLength="35" x="888.5" y="1234.7861">build()</text><polygon fill="#181818" points="1503.5,1267.3398,1513.5,1271.3398,1503.5,1275.3398,1507.5,1271.3398" style="stroke:#181818;stroke-width:1.0;"/><line style="stroke:#181818;stroke-width:1.0;" x1="1157.5" x2="1509.5" y1="1271.3398" y2="1271.3398"/><text fill="#000000" font-family="sans-serif" font-size="13" font-weight="bold" lengthAdjust="spacing" textLength="14" x="1164.5" y="1266.0771">32</text><text fill="#000000" font-family="sans-serif" font-size="13" lengthAdjust="spacing" textLength="316" x="1182.5" y="1266.0771">create(title, boardCreationDateTime, boardDimensions)</text><polygon fill="#181818" points="1168.5,1298.6309,1158.5,1302.6309,1168.5,1306.6309,1164.5,1302.6309" style="stroke:#181818;stroke-width:1.0;"/><line style="stroke:#181818;stroke-width:1.0;stroke-dasharray:2.0,2.0;" x1="1162.5" x2="1514.5" y1="1302.6309" y2="1302.6309"/><text fill="#000000" font-family="sans-serif" font-size="13" font-weight="bold" lengthAdjust="spacing" textLength="14" x="1174.5" y="1297.3682">33</text><text fill="#000000" font-family="sans-serif" font-size="13" lengthAdjust="spacing" textLength="32" x="1192.5" y="1297.3682">board</text><polygon fill="#181818" points="874.5,1329.9219,864.5,1333.9219,874.5,1337.9219,870.5,1333.9219" style="stroke:#181818;stroke-width:1.0;"/><line style="stroke:#181818;stroke-width:1.0;stroke-dasharray:2.0,2.0;" x1="868.5" x2="1151.5" y1="1333.9219" y2="1333.9219"/><text fill="#000000" font-family="sans-serif" font-size="13" font-weight="bold" lengthAdjust="spacing" textLength="14" x="880.5" y="1328.6592">34</text><text fill="#000000" font-family="sans-serif" font-size="13" lengthAdjust="spacing" textLength="32" x="898.5" y="1328.6592">board</text><polygon fill="#181818" points="1740,1361.2129,1750,1365.2129,1740,1369.2129,1744,1365.2129" style="stroke:#181818;stroke-width:1.0;"/><line style="stroke:#181818;stroke-width:1.0;" x1="863.5" x2="1746" y1="1365.2129" y2="1365.2129"/><text fill="#000000" font-family="sans-serif" font-size="13" font-weight="bold" lengthAdjust="spacing" textLength="14" x="870.5" y="1359.9502">35</text><text fill="#000000" font-family="sans-serif" font-size="13" lengthAdjust="spacing" textLength="66" x="888.5" y="1359.9502">save(board)</text><polygon fill="#181818" points="449.5,1392.5039,439.5,1396.5039,449.5,1400.5039,445.5,1396.5039" style="stroke:#181818;stroke-width:1.0;"/><line style="stroke:#181818;stroke-width:1.0;stroke-dasharray:2.0,2.0;" x1="443.5" x2="857.5" y1="1396.5039" y2="1396.5039"/><text fill="#000000" font-family="sans-serif" font-size="13" font-weight="bold" lengthAdjust="spacing" textLength="14" x="455.5" y="1391.2412">36</text><text fill="#000000" font-family="sans-serif" font-size="13" lengthAdjust="spacing" textLength="32" x="473.5" y="1391.2412">board</text><polygon fill="#181818" points="48.5,1423.7949,38.5,1427.7949,48.5,1431.7949,44.5,1427.7949" style="stroke:#181818;stroke-width:1.0;"/><line style="stroke:#181818;stroke-width:1.0;stroke-dasharray:2.0,2.0;" x1="42.5" x2="432.5" y1="1427.7949" y2="1427.7949"/><text fill="#000000" font-family="sans-serif" font-size="13" font-weight="bold" lengthAdjust="spacing" textLength="14" x="54.5" y="1422.5322">37</text><text fill="#000000" font-family="sans-serif" font-size="13" lengthAdjust="spacing" textLength="181" x="72.5" y="1422.5322">Informa o sucesso da opera&#231;&#227;o</text><!--SRC=[rLOzRzim4DtrAmwPR201WdOpX029dG86-X7KJQSkj7IsYKYaGb9E_7EA3ftw1xBwZ_L8KRIaH8wJPgacydZlyVZuI57VS54mnNB8fP39IiaSmQWI8nr62fRSi2NEp2P3K9WO9fPPCq6lM2hlk5Z2WcKQeyXmGwapl2rH90WJpfOsRp2R3E44hcVm_lJqNSHA8qMPpr554KkCL71qhL4T0TDGKYCYTiCJNZ1XOAoG6RoGJANNKvV18OuBXHg5OOPBSNOM9L8O9RDcyhWAPQWiADdrufWLHSQJ6jkSp24lIfwb5Mpkct7iMvtyexa5Z1pCbU_wb9xAdF4k-tbHpD0OqalRN5stuvYBXMAQv4zCgP1WAJDipZHM5Nt5GcfEGctS78rk7AlG8PYLawz9Waf7eCysuEJCoZQ2AqmHxDv1eZXJKEPmMx9KIHYuoeSEiYFXhkzek2Lfo3WY2Yjsr4gn4satkfkA2ufm1HBCzeyfCmdR1y4JMOrANq63frdnr8BnEUpX9OZjGuwqNXf9P5OAqfFC6fWelgPpO9svlvmdUFfBwWYtPXadVsPbBlG7gSxT7W_eHFZOC833JkpmOSn-3LgQ91Xg13cxvtcPVtQdxCl24q-5dslOor8lrDKOibBSLqcrn9AFu3kflA2ZHJ8G0HtiIlXK4Yo77oB4y-rFAj3Aj-22ndToPr8MSEKiobBcnOKqRD1Wqox-SDUvS63Sj5dsUguFYIADNkUzZ8lL6rZFqxpCUH-vmBRlNEJjNUTe_qFFELMRbhl_HyjLXFSlTrmN-CXm7lz9qi_30kX78bNEjh-tlsHZ1Vw-t-TLqdZ1Tr2Iiq1LzNeCEVO8wCbzR3-MffKNt3lX66hhkPQ_euxjeb5Fw0Tux4uSnMpdjVQiV-7XVtL8AZqjR8M-qE51c9JdA3IzANJrBvs4_l3myYYT5elV25knZ3lHmxZkk5avfIypf2gCTZ8FWhAlPF5RD6Xjoq5KhjMv0i8- -hJMeFrgk6Loxwfw3sl_FAcG3_V9xuWTsqcxGXlhBw5hvSVfZVkgNj0-QHgFk15ejiRw1VRiDTcU-kbhikUaJwlhWIuQNIQeTVUWTmZf_TVisIVbNm00]--></g></svg>