<?xml version="1.0" encoding="us-ascii" standalone="no"?><svg xmlns="http://www.w3.org/2000/svg" xmlns:xlink="http://www.w3.org/1999/xlink" contentStyleType="text/css" height="679px" preserveAspectRatio="none" style="width:784px;height:679px;background:#FFFFFF;" version="1.1" viewBox="0 0 784 679" width="784px" zoomAndPan="magnify"><defs/><g><!--class OpenCloseCourseUI--><g id="elem_OpenCloseCourseUI"><rect codeLine="3" fill="#F1F1F1" height="79.2031" id="OpenCloseCourseUI" rx="2.5" ry="2.5" style="stroke:#181818;stroke-width:0.5;" width="161" x="386.5" y="7"/><ellipse cx="401.5" cy="29.291" fill="#ADD1B2" rx="11" ry="11" style="stroke:#181818;stroke-width:1.0;"/><path d="M404.2656,25.166 Q404.4219,24.9473 404.6094,24.8379 Q404.7969,24.7285 405.0156,24.7285 Q405.3906,24.7285 405.625,24.9941 Q405.8594,25.2441 405.8594,25.8535 L405.8594,27.3066 Q405.8594,27.916 405.625,28.1816 Q405.3906,28.4473 405.0156,28.4473 Q404.6719,28.4473 404.4688,28.2441 Q404.2656,28.0566 404.1563,27.541 Q404.1094,27.1816 403.9219,26.9941 Q403.5938,26.6191 402.9844,26.4004 Q402.375,26.1816 401.75,26.1816 Q400.9844,26.1816 400.3438,26.5098 Q399.7188,26.8379 399.2188,27.5879 Q398.7344,28.3379 398.7344,29.3691 L398.7344,30.4629 Q398.7344,31.6973 399.625,32.5254 Q400.5156,33.3379 402.1094,33.3379 Q403.0469,33.3379 403.7031,33.0879 Q404.0938,32.9316 404.5156,32.4941 Q404.7813,32.2285 404.9219,32.1504 Q405.0781,32.0723 405.2813,32.0723 Q405.6094,32.0723 405.8594,32.3379 Q406.125,32.5879 406.125,32.9316 Q406.125,33.2754 405.7813,33.6816 Q405.2813,34.2598 404.4844,34.5879 Q403.4063,35.041 402.1094,35.041 Q400.5938,35.041 399.3906,34.416 Q398.4063,33.916 397.7188,32.8535 Q397.0313,31.7754 397.0313,30.4941 L397.0313,29.3379 Q397.0313,28.0098 397.6406,26.8691 Q398.2656,25.7129 399.3594,25.1035 Q400.4531,24.4785 401.6875,24.4785 Q402.4219,24.4785 403.0625,24.6504 Q403.7188,24.8066 404.2656,25.166 Z " fill="#000000"/><text fill="#000000" font-family="sans-serif" font-size="12" font-style="italic" lengthAdjust="spacing" textLength="82" x="439" y="24.9492">&#171;presentation&#187;</text><text fill="#000000" font-family="sans-serif" font-size="14" lengthAdjust="spacing" textLength="129" x="415.5" y="43.0684">OpenCloseCourseUI</text><line style="stroke:#181818;stroke-width:0.5;" x1="387.5" x2="546.5" y1="51.582" y2="51.582"/><line style="stroke:#181818;stroke-width:0.5;" x1="387.5" x2="546.5" y1="59.582" y2="59.582"/><text fill="#000000" font-family="sans-serif" font-size="14" lengthAdjust="spacing" textLength="60" x="392.5" y="78.6895">doShow()</text></g><!--class OpenCloseCourseController--><g id="elem_OpenCloseCourseController"><rect codeLine="7" fill="#F1F1F1" height="116.4453" id="OpenCloseCourseController" rx="2.5" ry="2.5" style="stroke:#181818;stroke-width:0.5;" width="316" x="203" y="165"/><ellipse cx="267.25" cy="187.291" fill="#ADD1B2" rx="11" ry="11" style="stroke:#181818;stroke-width:1.0;"/><path d="M270.0156,183.166 Q270.1719,182.9473 270.3594,182.8379 Q270.5469,182.7285 270.7656,182.7285 Q271.1406,182.7285 271.375,182.9941 Q271.6094,183.2441 271.6094,183.8535 L271.6094,185.3066 Q271.6094,185.916 271.375,186.1816 Q271.1406,186.4473 270.7656,186.4473 Q270.4219,186.4473 270.2188,186.2441 Q270.0156,186.0566 269.9063,185.541 Q269.8594,185.1816 269.6719,184.9941 Q269.3438,184.6191 268.7344,184.4004 Q268.125,184.1816 267.5,184.1816 Q266.7344,184.1816 266.0938,184.5098 Q265.4688,184.8379 264.9688,185.5879 Q264.4844,186.3379 264.4844,187.3691 L264.4844,188.4629 Q264.4844,189.6973 265.375,190.5254 Q266.2656,191.3379 267.8594,191.3379 Q268.7969,191.3379 269.4531,191.0879 Q269.8438,190.9316 270.2656,190.4941 Q270.5313,190.2285 270.6719,190.1504 Q270.8281,190.0723 271.0313,190.0723 Q271.3594,190.0723 271.6094,190.3379 Q271.875,190.5879 271.875,190.9316 Q271.875,191.2754 271.5313,191.6816 Q271.0313,192.2598 270.2344,192.5879 Q269.1563,193.041 267.8594,193.041 Q266.3438,193.041 265.1406,192.416 Q264.1563,191.916 263.4688,190.8535 Q262.7813,189.7754 262.7813,188.4941 L262.7813,187.3379 Q262.7813,186.0098 263.3906,184.8691 Q264.0156,183.7129 265.1094,183.1035 Q266.2031,182.4785 267.4375,182.4785 Q268.1719,182.4785 268.8125,182.6504 Q269.4688,182.8066 270.0156,183.166 Z " fill="#000000"/><text fill="#000000" font-family="sans-serif" font-size="12" font-style="italic" lengthAdjust="spacing" textLength="75" x="339.75" y="182.9492">&#171;Application&#187;</text><text fill="#000000" font-family="sans-serif" font-size="14" lengthAdjust="spacing" textLength="179" x="287.75" y="201.0684">OpenCloseCourseController</text><line style="stroke:#181818;stroke-width:0.5;" x1="204" x2="518" y1="209.582" y2="209.582"/><line style="stroke:#181818;stroke-width:0.5;" x1="204" x2="518" y1="217.582" y2="217.582"/><ellipse cx="214" cy="232.3926" fill="#84BE84" rx="3" ry="3" style="stroke:#038048;stroke-width:1.0;"/><text fill="#000000" font-family="sans-serif" font-size="14" lengthAdjust="spacing" textLength="229" x="223" y="236.6895">Iterable&lt;Course&gt; listCloseCourses()</text><ellipse cx="214" cy="251.0137" fill="#84BE84" rx="3" ry="3" style="stroke:#038048;stroke-width:1.0;"/><text fill="#000000" font-family="sans-serif" font-size="14" lengthAdjust="spacing" textLength="261" x="223" y="255.3105">Iterable&lt;Course&gt; listInProgressCourses()</text><ellipse cx="214" cy="269.6348" fill="#84BE84" rx="3" ry="3" style="stroke:#038048;stroke-width:1.0;"/><text fill="#000000" font-family="sans-serif" font-size="14" lengthAdjust="spacing" textLength="290" x="223" y="273.9316">Course openCloseCourse(Course theCourse)</text></g><!--class Course--><g id="elem_Course"><rect codeLine="13" fill="#F1F1F1" height="153.6875" id="Course" rx="2.5" ry="2.5" style="stroke:#181818;stroke-width:0.5;" width="253" x="445.5" y="360"/><ellipse cx="540.75" cy="382.291" fill="#ADD1B2" rx="11" ry="11" style="stroke:#181818;stroke-width:1.0;"/><path d="M543.5156,378.166 Q543.6719,377.9473 543.8594,377.8379 Q544.0469,377.7285 544.2656,377.7285 Q544.6406,377.7285 544.875,377.9941 Q545.1094,378.2441 545.1094,378.8535 L545.1094,380.3066 Q545.1094,380.916 544.875,381.1816 Q544.6406,381.4473 544.2656,381.4473 Q543.9219,381.4473 543.7188,381.2441 Q543.5156,381.0566 543.4063,380.541 Q543.3594,380.1816 543.1719,379.9941 Q542.8438,379.6191 542.2344,379.4004 Q541.625,379.1816 541,379.1816 Q540.2344,379.1816 539.5938,379.5098 Q538.9688,379.8379 538.4688,380.5879 Q537.9844,381.3379 537.9844,382.3691 L537.9844,383.4629 Q537.9844,384.6973 538.875,385.5254 Q539.7656,386.3379 541.3594,386.3379 Q542.2969,386.3379 542.9531,386.0879 Q543.3438,385.9316 543.7656,385.4941 Q544.0313,385.2285 544.1719,385.1504 Q544.3281,385.0723 544.5313,385.0723 Q544.8594,385.0723 545.1094,385.3379 Q545.375,385.5879 545.375,385.9316 Q545.375,386.2754 545.0313,386.6816 Q544.5313,387.2598 543.7344,387.5879 Q542.6563,388.041 541.3594,388.041 Q539.8438,388.041 538.6406,387.416 Q537.6563,386.916 536.9688,385.8535 Q536.2813,384.7754 536.2813,383.4941 L536.2813,382.3379 Q536.2813,381.0098 536.8906,379.8691 Q537.5156,378.7129 538.6094,378.1035 Q539.7031,377.4785 540.9375,377.4785 Q541.6719,377.4785 542.3125,377.6504 Q542.9688,377.8066 543.5156,378.166 Z " fill="#000000"/><text fill="#000000" font-family="sans-serif" font-size="12" font-style="italic" lengthAdjust="spacing" textLength="58" x="559.25" y="377.9492">&#171;Domain&#187;</text><text fill="#000000" font-family="sans-serif" font-size="14" lengthAdjust="spacing" textLength="46" x="565.25" y="396.0684">Course</text><line style="stroke:#181818;stroke-width:0.5;" x1="446.5" x2="697.5" y1="404.582" y2="404.582"/><line style="stroke:#181818;stroke-width:0.5;" x1="446.5" x2="697.5" y1="412.582" y2="412.582"/><ellipse cx="456.5" cy="427.3926" fill="#84BE84" rx="3" ry="3" style="stroke:#038048;stroke-width:1.0;"/><text fill="#000000" font-family="sans-serif" font-size="14" lengthAdjust="spacing" textLength="99" x="465.5" y="431.6895">void nextState()</text><rect fill="#F24D5C" height="6" style="stroke:#C82930;stroke-width:1.0;" width="6" x="453.5" y="443.0137"/><text fill="#000000" font-family="sans-serif" font-size="14" lengthAdjust="spacing" textLength="146" x="465.5" y="450.3105">void checkIfCanClose()</text><rect fill="#F24D5C" height="6" style="stroke:#C82930;stroke-width:1.0;" width="6" x="453.5" y="461.6348"/><text fill="#000000" font-family="sans-serif" font-size="14" lengthAdjust="spacing" textLength="171" x="465.5" y="468.9316">boolean hasFutureExams()</text><rect fill="#F24D5C" height="6" style="stroke:#C82930;stroke-width:1.0;" width="6" x="453.5" y="480.2559"/><text fill="#000000" font-family="sans-serif" font-size="14" lengthAdjust="spacing" textLength="197" x="465.5" y="487.5527">boolean hasFutureExtraClass()</text><rect fill="#F24D5C" height="6" style="stroke:#C82930;stroke-width:1.0;" width="6" x="453.5" y="498.877"/><text fill="#000000" font-family="sans-serif" font-size="14" lengthAdjust="spacing" textLength="227" x="465.5" y="506.1738">boolean hasFutureRecurringClass()</text></g><!--class Exam--><g id="elem_Exam"><rect codeLine="21" fill="#F1F1F1" height="76.543" id="Exam" rx="2.5" ry="2.5" style="stroke:#181818;stroke-width:0.5;" width="113" x="516.5" y="594"/><ellipse cx="531.5" cy="624.2715" fill="#ADD1B2" rx="11" ry="11" style="stroke:#181818;stroke-width:1.0;"/><path d="M534.2656,620.1465 Q534.4219,619.9277 534.6094,619.8184 Q534.7969,619.709 535.0156,619.709 Q535.3906,619.709 535.625,619.9746 Q535.8594,620.2246 535.8594,620.834 L535.8594,622.2871 Q535.8594,622.8965 535.625,623.1621 Q535.3906,623.4277 535.0156,623.4277 Q534.6719,623.4277 534.4688,623.2246 Q534.2656,623.0371 534.1563,622.5215 Q534.1094,622.1621 533.9219,621.9746 Q533.5938,621.5996 532.9844,621.3809 Q532.375,621.1621 531.75,621.1621 Q530.9844,621.1621 530.3438,621.4902 Q529.7188,621.8184 529.2188,622.5684 Q528.7344,623.3184 528.7344,624.3496 L528.7344,625.4434 Q528.7344,626.6777 529.625,627.5059 Q530.5156,628.3184 532.1094,628.3184 Q533.0469,628.3184 533.7031,628.0684 Q534.0938,627.9121 534.5156,627.4746 Q534.7813,627.209 534.9219,627.1309 Q535.0781,627.0527 535.2813,627.0527 Q535.6094,627.0527 535.8594,627.3184 Q536.125,627.5684 536.125,627.9121 Q536.125,628.2559 535.7813,628.6621 Q535.2813,629.2402 534.4844,629.5684 Q533.4063,630.0215 532.1094,630.0215 Q530.5938,630.0215 529.3906,629.3965 Q528.4063,628.8965 527.7188,627.834 Q527.0313,626.7559 527.0313,625.4746 L527.0313,624.3184 Q527.0313,622.9902 527.6406,621.8496 Q528.2656,620.6934 529.3594,620.084 Q530.4531,619.459 531.6875,619.459 Q532.4219,619.459 533.0625,619.6309 Q533.7188,619.7871 534.2656,620.1465 Z " fill="#000000"/><text fill="#000000" font-family="sans-serif" font-size="12" font-style="italic" lengthAdjust="spacing" textLength="58" x="557" y="611.9492">&#171;Domain&#187;</text><text fill="#000000" font-family="sans-serif" font-size="12" font-style="italic" lengthAdjust="spacing" textLength="85" x="543.5" y="627.9102">&#171;Value Object&#187;</text><text fill="#000000" font-family="sans-serif" font-size="14" lengthAdjust="spacing" textLength="34" x="569" y="646.0293">Exam</text><line style="stroke:#181818;stroke-width:0.5;" x1="517.5" x2="628.5" y1="654.543" y2="654.543"/><line style="stroke:#181818;stroke-width:0.5;" x1="517.5" x2="628.5" y1="662.543" y2="662.543"/></g><!--class ExtraClass--><g id="elem_ExtraClass"><rect codeLine="24" fill="#F1F1F1" height="76.543" id="ExtraClass" rx="2.5" ry="2.5" style="stroke:#181818;stroke-width:0.5;" width="113" x="664.5" y="594"/><ellipse cx="679.5" cy="624.2715" fill="#ADD1B2" rx="11" ry="11" style="stroke:#181818;stroke-width:1.0;"/><path d="M682.2656,620.1465 Q682.4219,619.9277 682.6094,619.8184 Q682.7969,619.709 683.0156,619.709 Q683.3906,619.709 683.625,619.9746 Q683.8594,620.2246 683.8594,620.834 L683.8594,622.2871 Q683.8594,622.8965 683.625,623.1621 Q683.3906,623.4277 683.0156,623.4277 Q682.6719,623.4277 682.4688,623.2246 Q682.2656,623.0371 682.1563,622.5215 Q682.1094,622.1621 681.9219,621.9746 Q681.5938,621.5996 680.9844,621.3809 Q680.375,621.1621 679.75,621.1621 Q678.9844,621.1621 678.3438,621.4902 Q677.7188,621.8184 677.2188,622.5684 Q676.7344,623.3184 676.7344,624.3496 L676.7344,625.4434 Q676.7344,626.6777 677.625,627.5059 Q678.5156,628.3184 680.1094,628.3184 Q681.0469,628.3184 681.7031,628.0684 Q682.0938,627.9121 682.5156,627.4746 Q682.7813,627.209 682.9219,627.1309 Q683.0781,627.0527 683.2813,627.0527 Q683.6094,627.0527 683.8594,627.3184 Q684.125,627.5684 684.125,627.9121 Q684.125,628.2559 683.7813,628.6621 Q683.2813,629.2402 682.4844,629.5684 Q681.4063,630.0215 680.1094,630.0215 Q678.5938,630.0215 677.3906,629.3965 Q676.4063,628.8965 675.7188,627.834 Q675.0313,626.7559 675.0313,625.4746 L675.0313,624.3184 Q675.0313,622.9902 675.6406,621.8496 Q676.2656,620.6934 677.3594,620.084 Q678.4531,619.459 679.6875,619.459 Q680.4219,619.459 681.0625,619.6309 Q681.7188,619.7871 682.2656,620.1465 Z " fill="#000000"/><text fill="#000000" font-family="sans-serif" font-size="12" font-style="italic" lengthAdjust="spacing" textLength="58" x="705" y="611.9492">&#171;Domain&#187;</text><text fill="#000000" font-family="sans-serif" font-size="12" font-style="italic" lengthAdjust="spacing" textLength="85" x="691.5" y="627.9102">&#171;Value Object&#187;</text><text fill="#000000" font-family="sans-serif" font-size="14" lengthAdjust="spacing" textLength="67" x="700.5" y="646.0293">ExtraClass</text><line style="stroke:#181818;stroke-width:0.5;" x1="665.5" x2="776.5" y1="654.543" y2="654.543"/><line style="stroke:#181818;stroke-width:0.5;" x1="665.5" x2="776.5" y1="662.543" y2="662.543"/></g><!--class RecurringClass--><g id="elem_RecurringClass"><rect codeLine="27" fill="#F1F1F1" height="76.543" id="RecurringClass" rx="2.5" ry="2.5" style="stroke:#181818;stroke-width:0.5;" width="129" x="352.5" y="594"/><ellipse cx="367.5" cy="624.2715" fill="#ADD1B2" rx="11" ry="11" style="stroke:#181818;stroke-width:1.0;"/><path d="M370.2656,620.1465 Q370.4219,619.9277 370.6094,619.8184 Q370.7969,619.709 371.0156,619.709 Q371.3906,619.709 371.625,619.9746 Q371.8594,620.2246 371.8594,620.834 L371.8594,622.2871 Q371.8594,622.8965 371.625,623.1621 Q371.3906,623.4277 371.0156,623.4277 Q370.6719,623.4277 370.4688,623.2246 Q370.2656,623.0371 370.1563,622.5215 Q370.1094,622.1621 369.9219,621.9746 Q369.5938,621.5996 368.9844,621.3809 Q368.375,621.1621 367.75,621.1621 Q366.9844,621.1621 366.3438,621.4902 Q365.7188,621.8184 365.2188,622.5684 Q364.7344,623.3184 364.7344,624.3496 L364.7344,625.4434 Q364.7344,626.6777 365.625,627.5059 Q366.5156,628.3184 368.1094,628.3184 Q369.0469,628.3184 369.7031,628.0684 Q370.0938,627.9121 370.5156,627.4746 Q370.7813,627.209 370.9219,627.1309 Q371.0781,627.0527 371.2813,627.0527 Q371.6094,627.0527 371.8594,627.3184 Q372.125,627.5684 372.125,627.9121 Q372.125,628.2559 371.7813,628.6621 Q371.2813,629.2402 370.4844,629.5684 Q369.4063,630.0215 368.1094,630.0215 Q366.5938,630.0215 365.3906,629.3965 Q364.4063,628.8965 363.7188,627.834 Q363.0313,626.7559 363.0313,625.4746 L363.0313,624.3184 Q363.0313,622.9902 363.6406,621.8496 Q364.2656,620.6934 365.3594,620.084 Q366.4531,619.459 367.6875,619.459 Q368.4219,619.459 369.0625,619.6309 Q369.7188,619.7871 370.2656,620.1465 Z " fill="#000000"/><text fill="#000000" font-family="sans-serif" font-size="12" font-style="italic" lengthAdjust="spacing" textLength="58" x="401" y="611.9492">&#171;Domain&#187;</text><text fill="#000000" font-family="sans-serif" font-size="12" font-style="italic" lengthAdjust="spacing" textLength="85" x="387.5" y="627.9102">&#171;Value Object&#187;</text><text fill="#000000" font-family="sans-serif" font-size="14" lengthAdjust="spacing" textLength="97" x="381.5" y="646.0293">RecurringClass</text><line style="stroke:#181818;stroke-width:0.5;" x1="353.5" x2="480.5" y1="654.543" y2="654.543"/><line style="stroke:#181818;stroke-width:0.5;" x1="353.5" x2="480.5" y1="662.543" y2="662.543"/></g><!--class ListCourseService--><g id="elem_ListCourseService"><rect codeLine="30" fill="#F1F1F1" height="97.8242" id="ListCourseService" rx="2.5" ry="2.5" style="stroke:#181818;stroke-width:0.5;" width="284" x="7" y="388"/><ellipse cx="87.25" cy="410.291" fill="#ADD1B2" rx="11" ry="11" style="stroke:#181818;stroke-width:1.0;"/><path d="M90.0156,406.166 Q90.1719,405.9473 90.3594,405.8379 Q90.5469,405.7285 90.7656,405.7285 Q91.1406,405.7285 91.375,405.9941 Q91.6094,406.2441 91.6094,406.8535 L91.6094,408.3066 Q91.6094,408.916 91.375,409.1816 Q91.1406,409.4473 90.7656,409.4473 Q90.4219,409.4473 90.2188,409.2441 Q90.0156,409.0566 89.9063,408.541 Q89.8594,408.1816 89.6719,407.9941 Q89.3438,407.6191 88.7344,407.4004 Q88.125,407.1816 87.5,407.1816 Q86.7344,407.1816 86.0938,407.5098 Q85.4688,407.8379 84.9688,408.5879 Q84.4844,409.3379 84.4844,410.3691 L84.4844,411.4629 Q84.4844,412.6973 85.375,413.5254 Q86.2656,414.3379 87.8594,414.3379 Q88.7969,414.3379 89.4531,414.0879 Q89.8438,413.9316 90.2656,413.4941 Q90.5313,413.2285 90.6719,413.1504 Q90.8281,413.0723 91.0313,413.0723 Q91.3594,413.0723 91.6094,413.3379 Q91.875,413.5879 91.875,413.9316 Q91.875,414.2754 91.5313,414.6816 Q91.0313,415.2598 90.2344,415.5879 Q89.1563,416.041 87.8594,416.041 Q86.3438,416.041 85.1406,415.416 Q84.1563,414.916 83.4688,413.8535 Q82.7813,412.7754 82.7813,411.4941 L82.7813,410.3379 Q82.7813,409.0098 83.3906,407.8691 Q84.0156,406.7129 85.1094,406.1035 Q86.2031,405.4785 87.4375,405.4785 Q88.1719,405.4785 88.8125,405.6504 Q89.4688,405.8066 90.0156,406.166 Z " fill="#000000"/><text fill="#000000" font-family="sans-serif" font-size="12" font-style="italic" lengthAdjust="spacing" textLength="75" x="127.75" y="405.9492">&#171;Application&#187;</text><text fill="#000000" font-family="sans-serif" font-size="14" lengthAdjust="spacing" textLength="115" x="107.75" y="424.0684">ListCourseService</text><line style="stroke:#181818;stroke-width:0.5;" x1="8" x2="290" y1="432.582" y2="432.582"/><line style="stroke:#181818;stroke-width:0.5;" x1="8" x2="290" y1="440.582" y2="440.582"/><ellipse cx="18" cy="455.3926" fill="#84BE84" rx="3" ry="3" style="stroke:#038048;stroke-width:1.0;"/><text fill="#000000" font-family="sans-serif" font-size="14" lengthAdjust="spacing" textLength="226" x="27" y="459.6895">Iterable&lt;Course&gt; allCloseCourses()</text><ellipse cx="18" cy="474.0137" fill="#84BE84" rx="3" ry="3" style="stroke:#038048;stroke-width:1.0;"/><text fill="#000000" font-family="sans-serif" font-size="14" lengthAdjust="spacing" textLength="258" x="27" y="478.3105">Iterable&lt;Course&gt; allInProgressCourses()</text></g><!--class CourseRepository--><g id="elem_CourseRepository"><rect codeLine="35" fill="#F1F1F1" height="79.2031" id="CourseRepository" rx="2.5" ry="2.5" style="stroke:#181818;stroke-width:0.5;" width="232" x="72" y="593"/><ellipse cx="126.75" cy="615.291" fill="#ADD1B2" rx="11" ry="11" style="stroke:#181818;stroke-width:1.0;"/><path d="M129.5156,611.166 Q129.6719,610.9473 129.8594,610.8379 Q130.0469,610.7285 130.2656,610.7285 Q130.6406,610.7285 130.875,610.9941 Q131.1094,611.2441 131.1094,611.8535 L131.1094,613.3066 Q131.1094,613.916 130.875,614.1816 Q130.6406,614.4473 130.2656,614.4473 Q129.9219,614.4473 129.7188,614.2441 Q129.5156,614.0566 129.4063,613.541 Q129.3594,613.1816 129.1719,612.9941 Q128.8438,612.6191 128.2344,612.4004 Q127.625,612.1816 127,612.1816 Q126.2344,612.1816 125.5938,612.5098 Q124.9688,612.8379 124.4688,613.5879 Q123.9844,614.3379 123.9844,615.3691 L123.9844,616.4629 Q123.9844,617.6973 124.875,618.5254 Q125.7656,619.3379 127.3594,619.3379 Q128.2969,619.3379 128.9531,619.0879 Q129.3438,618.9316 129.7656,618.4941 Q130.0313,618.2285 130.1719,618.1504 Q130.3281,618.0723 130.5313,618.0723 Q130.8594,618.0723 131.1094,618.3379 Q131.375,618.5879 131.375,618.9316 Q131.375,619.2754 131.0313,619.6816 Q130.5313,620.2598 129.7344,620.5879 Q128.6563,621.041 127.3594,621.041 Q125.8438,621.041 124.6406,620.416 Q123.6563,619.916 122.9688,618.8535 Q122.2813,617.7754 122.2813,616.4941 L122.2813,615.3379 Q122.2813,614.0098 122.8906,612.8691 Q123.5156,611.7129 124.6094,611.1035 Q125.7031,610.4785 126.9375,610.4785 Q127.6719,610.4785 128.3125,610.6504 Q128.9688,610.8066 129.5156,611.166 Z " fill="#000000"/><text fill="#000000" font-family="sans-serif" font-size="12" font-style="italic" lengthAdjust="spacing" textLength="83" x="162.75" y="610.9492">&#171;Repositories&#187;</text><text fill="#000000" font-family="sans-serif" font-size="14" lengthAdjust="spacing" textLength="114" x="147.25" y="629.0684">CourseRepository</text><line style="stroke:#181818;stroke-width:0.5;" x1="73" x2="303" y1="637.582" y2="637.582"/><line style="stroke:#181818;stroke-width:0.5;" x1="73" x2="303" y1="645.582" y2="645.582"/><ellipse cx="83" cy="660.3926" fill="#84BE84" rx="3" ry="3" style="stroke:#038048;stroke-width:1.0;"/><text fill="#000000" font-family="sans-serif" font-size="14" lengthAdjust="spacing" textLength="206" x="92" y="664.6895">Course save(Course theCourse)</text></g><!--link OpenCloseCourseUI to Course--><g id="link_OpenCloseCourseUI_Course"><path codeLine="40" d="M495.43,86.01 C510.25,108.05 527.26,136.84 537,165 C558.25,226.46 566.78,299.8 570.11,354.68 " fill="none" id="OpenCloseCourseUI-to-Course" style="stroke:#181818;stroke-width:1.0;stroke-dasharray:7.0,7.0;"/><polygon fill="#181818" points="570.42,359.93,573.9,350.7165,570.1348,354.9381,565.9131,351.1729,570.42,359.93" style="stroke:#181818;stroke-width:1.0;"/></g><!--link ListCourseService to CourseRepository--><g id="link_ListCourseService_CourseRepository"><path codeLine="41" d="M158.74,486.33 C165.01,517.44 173.1,557.55 179.18,587.72 " fill="none" id="ListCourseService-to-CourseRepository" style="stroke:#181818;stroke-width:1.0;stroke-dasharray:7.0,7.0;"/><polygon fill="#181818" points="180.21,592.86,182.3565,583.2479,179.2239,587.9582,174.5136,584.8256,180.21,592.86" style="stroke:#181818;stroke-width:1.0;"/></g><!--link OpenCloseCourseUI to OpenCloseCourseController--><g id="link_OpenCloseCourseUI_OpenCloseCourseController"><path codeLine="44" d="M443.48,86.23 C430.27,107.97 413.48,135.6 398.51,160.26 " fill="none" id="OpenCloseCourseUI-to-OpenCloseCourseController" style="stroke:#181818;stroke-width:1.0;"/><polygon fill="#181818" points="395.73,164.82,403.8263,159.212,398.3297,160.549,396.9927,155.0524,395.73,164.82" style="stroke:#181818;stroke-width:1.0;"/><text fill="#000000" font-family="sans-serif" font-size="13" lengthAdjust="spacing" textLength="73" x="424" y="131.0283">theController</text></g><!--link OpenCloseCourseController to CourseRepository--><g id="link_OpenCloseCourseController_CourseRepository"><path codeLine="45" d="M360.63,281 C358.02,342.01 347.32,439.99 308,514 C292.61,542.97 267.58,569.16 244.34,589.43 " fill="none" id="OpenCloseCourseController-to-CourseRepository" style="stroke:#181818;stroke-width:1.0;"/><polygon fill="#181818" points="240.33,592.89,249.7612,590.0523,244.1202,589.629,244.5436,583.988,240.33,592.89" style="stroke:#181818;stroke-width:1.0;"/><text fill="#000000" font-family="sans-serif" font-size="13" lengthAdjust="spacing" textLength="25" x="354" y="442.5283">repo</text></g><!--link OpenCloseCourseController to ListCourseService--><g id="link_OpenCloseCourseController_ListCourseService"><path codeLine="46" d="M303.91,281.09 C271.85,313.15 232.16,352.84 200.97,384.03 " fill="none" id="OpenCloseCourseController-to-ListCourseService" style="stroke:#181818;stroke-width:1.0;"/><polygon fill="#181818" points="197.21,387.79,206.4024,384.2545,200.7455,384.2545,200.7455,378.5976,197.21,387.79" style="stroke:#181818;stroke-width:1.0;"/><text fill="#000000" font-family="sans-serif" font-size="13" lengthAdjust="spacing" textLength="40" x="275" y="326.0283">service</text></g><!--link OpenCloseCourseController to Course--><g id="link_OpenCloseCourseController_Course"><path codeLine="47" d="M417.82,281.09 C440.74,304.12 467.58,331.09 492.39,356.02 " fill="none" id="OpenCloseCourseController-to-Course" style="stroke:#181818;stroke-width:1.0;"/><polygon fill="#181818" points="496.04,359.68,492.523,350.4805,492.5116,356.1373,486.8548,356.1259,496.04,359.68" style="stroke:#181818;stroke-width:1.0;"/><text fill="#000000" font-family="sans-serif" font-size="13" lengthAdjust="spacing" textLength="52" x="467" y="326.0283">theCours</text></g><!--link Course to Exam--><g id="link_Course_Exam"><path codeLine="49" d="M572.39,514.2 C572.52,539.56 572.67,566.89 572.78,588.79 " fill="none" id="Course-to-Exam" style="stroke:#181818;stroke-width:1.0;"/><polygon fill="#181818" points="572.81,593.95,576.7843,584.9386,572.7957,588.95,568.7843,584.9615,572.81,593.95" style="stroke:#181818;stroke-width:1.0;"/><text fill="#000000" font-family="sans-serif" font-size="13" lengthAdjust="spacing" textLength="39" x="573" y="559.0283">exams</text><text fill="#000000" font-family="sans-serif" font-size="13" lengthAdjust="spacing" textLength="5" x="567.3308" y="582.6642">*</text></g><!--link Course to ExtraClass--><g id="link_Course_ExtraClass"><path codeLine="50" d="M630.67,514.2 C650.53,539.99 671.96,567.81 688.96,589.89 " fill="none" id="Course-to-ExtraClass" style="stroke:#181818;stroke-width:1.0;"/><polygon fill="#181818" points="692.08,593.95,689.7814,584.3731,689.039,589.981,683.4311,589.2387,692.08,593.95" style="stroke:#181818;stroke-width:1.0;"/><text fill="#000000" font-family="sans-serif" font-size="13" lengthAdjust="spacing" textLength="76" x="665" y="559.0283">extraClasses</text><text fill="#000000" font-family="sans-serif" font-size="13" lengthAdjust="spacing" textLength="5" x="681.4833" y="582.6642">*</text></g><!--link Course to RecurringClass--><g id="link_Course_RecurringClass"><path codeLine="51" d="M490.11,514.07 C481.22,523.78 472.63,533.87 465,544 C454.51,557.92 444.85,574.41 436.99,589.3 " fill="none" id="Course-to-RecurringClass" style="stroke:#181818;stroke-width:1.0;"/><polygon fill="#181818" points="434.61,593.87,442.3235,587.7461,436.9258,589.4386,435.2333,584.0409,434.61,593.87" style="stroke:#181818;stroke-width:1.0;"/><text fill="#000000" font-family="sans-serif" font-size="13" lengthAdjust="spacing" textLength="97" x="466" y="559.0283">recurringClasses</text><text fill="#000000" font-family="sans-serif" font-size="13" lengthAdjust="spacing" textLength="5" x="432.207" y="582.8621">*</text></g><!--SRC=[ZLDDJyCm3BtdLqIxR83w1wQg4kg6L0anj0akY4EMcZMG9LMSbY74VoVzshgrXVRIs7xFVewTQIWP8Y3XnP-kKb2Xr0YXpWp2KqHzFpM0e2opGgiWeD-4kY_McqH_pgx83-cdXbfPewK4urBSfgaK_3p3JMJ1iAq4lo84L0gqhGpeiWy38_LezCv9mmjqPL9zBcTMksrIErhAwv3lB_IUYPR2N8kOAZZOZUiUwW9UwUK9y8_eBMHLaIQsrLe2KpHXU9VPpC3omFRuHzGQLavW4B86dXaZrAw17MKNgTkYVV-PoGpeQliEt9PTjB1DeR6CyxfZMVV52Clht8391OVHmsTIZfgzm_MD_cAOQqWr2glDbnDmD0JWIK4zTMJvm79C5-1sA0R57OzqNuRt4ZDC87xrWhegwRRV1PsakH8FB1Uxychw2ZZEyAkQLt8RcmmZlPxQZcwSyG-hsy-SOdKQLQyHwSw4rAuYEhcULEixfr0ya6xikAu5eZ6W0xpOqgAfjiCHo2y0]--></g></svg>