<?xml version="1.0" encoding="us-ascii" standalone="no"?><svg xmlns="http://www.w3.org/2000/svg" xmlns:xlink="http://www.w3.org/1999/xlink" contentStyleType="text/css" height="493px" preserveAspectRatio="none" style="width:1047px;height:493px;background:#FFFFFF;" version="1.1" viewBox="0 0 1047 493" width="1047px" zoomAndPan="magnify"><defs/><g><text fill="#000000" font-family="sans-serif" font-size="25" font-weight="bold" lengthAdjust="spacing" text-decoration="underline" textLength="422" x="305.5" y="36.9775">Classes de Dom&#237;nio para a US 1004</text><!--cluster <<aggregate>> Course--><g id="cluster_&lt;&lt;aggregate&gt;&gt; Course"><path d="M8.5,60.2656 L152.5,60.2656 A3.75,3.75 0 0 1 155,62.7656 L162,84.8867 L843.5,84.8867 A2.5,2.5 0 0 1 846,87.3867 L846,484.2656 A2.5,2.5 0 0 1 843.5,486.7656 L8.5,486.7656 A2.5,2.5 0 0 1 6,484.2656 L6,62.7656 A2.5,2.5 0 0 1 8.5,60.2656 " fill="none" style="stroke:#000000;stroke-width:1.5;"/><line style="stroke:#000000;stroke-width:1.5;" x1="6" x2="162" y1="84.8867" y2="84.8867"/><text fill="#000000" font-family="sans-serif" font-size="14" font-weight="bold" lengthAdjust="spacing" textLength="143" x="10" y="77.373">&#171;aggregate&#187; Course</text></g><!--cluster <<aggregate>> Manager--><g id="cluster_&lt;&lt;aggregate&gt;&gt; Manager"><path d="M872.5,231.2656 L1027.5,231.2656 A3.75,3.75 0 0 1 1030,233.7656 L1037,255.8867 L1037.5,255.8867 A2.5,2.5 0 0 1 1040,258.3867 L1040,350.7656 A2.5,2.5 0 0 1 1037.5,353.2656 L872.5,353.2656 A2.5,2.5 0 0 1 870,350.7656 L870,233.7656 A2.5,2.5 0 0 1 872.5,231.2656 " fill="none" style="stroke:#000000;stroke-width:1.5;"/><line style="stroke:#000000;stroke-width:1.5;" x1="870" x2="1037" y1="255.8867" y2="255.8867"/><text fill="#000000" font-family="sans-serif" font-size="14" font-weight="bold" lengthAdjust="spacing" textLength="154" x="874" y="248.373">&#171;aggregate&#187; Manager</text></g><!--class Course--><g id="elem_Course"><rect codeLine="14" fill="#F1F1F1" height="68.543" id="Course" rx="2.5" ry="2.5" style="stroke:#181818;stroke-width:0.5;" width="78" x="434" y="97.2656"/><ellipse cx="449" cy="127.5371" fill="#ADD1B2" rx="11" ry="11" style="stroke:#181818;stroke-width:1.0;"/><path d="M447.8594,128.334 L447.8594,130.834 L452.1875,130.834 L452.1875,129.9121 Q452.1875,129.3027 452.4219,129.0371 Q452.6719,128.7715 453.0469,128.7715 Q453.4219,128.7715 453.6563,129.0371 Q453.8906,129.3027 453.8906,129.9121 L453.8906,132.5371 L445.8906,132.5371 Q445.2656,132.5371 445,132.3027 Q444.75,132.0684 444.75,131.6777 Q444.75,131.3027 445.0156,131.0684 Q445.2813,130.834 445.8906,130.834 L446.1563,130.834 L446.1563,124.1777 L445.8906,124.1777 Q445.2656,124.1777 445,123.9434 Q444.75,123.709 444.75,123.3184 Q444.75,122.9434 445,122.709 Q445.2656,122.4746 445.8906,122.4746 L453.5156,122.4746 L453.5156,125.0684 Q453.5156,125.6777 453.2813,125.9434 Q453.0625,126.1934 452.6719,126.1934 Q452.2969,126.1934 452.0625,125.9434 Q451.8281,125.6777 451.8281,125.0684 L451.8281,124.1777 L447.8594,124.1777 L447.8594,126.6309 L449.3438,126.6309 Q449.3438,125.9746 449.4688,125.7871 Q449.7344,125.3809 450.2031,125.3809 Q450.5781,125.3809 450.8125,125.6465 Q451.0469,125.8965 451.0469,126.5059 L451.0469,128.4746 Q451.0469,129.0215 450.9219,129.209 Q450.6563,129.5996 450.2031,129.5996 Q449.7344,129.5996 449.4688,129.1934 Q449.3438,129.0059 449.3438,128.334 L447.8594,128.334 Z " fill="#000000"/><text fill="#000000" font-family="sans-serif" font-size="12" font-style="italic" lengthAdjust="spacing" textLength="43" x="464.5" y="115.2148">&#171;entity&#187;</text><text fill="#000000" font-family="sans-serif" font-size="12" font-style="italic" lengthAdjust="spacing" textLength="35" x="468.5" y="131.1758">&#171;root&#187;</text><text fill="#000000" font-family="sans-serif" font-size="14" lengthAdjust="spacing" textLength="46" x="463" y="149.2949">Course</text><line style="stroke:#181818;stroke-width:0.5;" x1="435" x2="511" y1="157.8086" y2="157.8086"/></g><!--class CourseTitle--><g id="elem_CourseTitle"><rect codeLine="15" fill="#F1F1F1" height="52.582" id="CourseTitle" rx="2.5" ry="2.5" style="stroke:#181818;stroke-width:0.5;" width="109" x="22.5" y="276.2656"/><ellipse cx="37.5" cy="298.5566" fill="#FF8B40" rx="11" ry="11" style="stroke:#181818;stroke-width:1.0;"/><path d="M38.0938,301.8223 L40.5625,295.9473 L40.1719,295.9473 Q39.5625,295.9473 39.2969,295.7129 Q39.0313,295.4785 39.0313,295.0879 Q39.0313,294.7129 39.2969,294.4785 Q39.5625,294.2441 40.1719,294.2441 L42.4531,294.2441 Q43.0625,294.2441 43.3281,294.4785 Q43.5938,294.7129 43.5938,295.0879 Q43.5938,295.5566 43.1875,295.8223 Q43,295.9473 42.4063,295.9473 L38.9219,304.3066 L37.2813,304.3066 L33.7969,295.9473 Q33.2031,295.9473 33.0156,295.8223 Q32.6094,295.5566 32.6094,295.0879 Q32.6094,294.7129 32.875,294.4785 Q33.1406,294.2441 33.75,294.2441 L36.0469,294.2441 Q36.6563,294.2441 36.9063,294.4785 Q37.1719,294.7129 37.1719,295.0879 Q37.1719,295.4785 36.9063,295.7129 Q36.6563,295.9473 36.0469,295.9473 L35.6406,295.9473 L38.0938,301.8223 Z " fill="#000000"/><text fill="#000000" font-family="sans-serif" font-size="12" font-style="italic" lengthAdjust="spacing" textLength="81" x="49.5" y="294.2148">&#171;value object&#187;</text><text fill="#000000" font-family="sans-serif" font-size="14" lengthAdjust="spacing" textLength="73" x="53.5" y="312.334">CourseTitle</text><line style="stroke:#181818;stroke-width:0.5;" x1="23.5" x2="130.5" y1="320.8477" y2="320.8477"/></g><!--class CourseCode--><g id="elem_CourseCode"><rect codeLine="16" fill="#F1F1F1" height="52.582" id="CourseCode" rx="2.5" ry="2.5" style="stroke:#181818;stroke-width:0.5;" width="112" x="167" y="276.2656"/><ellipse cx="182" cy="298.5566" fill="#FF8B40" rx="11" ry="11" style="stroke:#181818;stroke-width:1.0;"/><path d="M182.5938,301.8223 L185.0625,295.9473 L184.6719,295.9473 Q184.0625,295.9473 183.7969,295.7129 Q183.5313,295.4785 183.5313,295.0879 Q183.5313,294.7129 183.7969,294.4785 Q184.0625,294.2441 184.6719,294.2441 L186.9531,294.2441 Q187.5625,294.2441 187.8281,294.4785 Q188.0938,294.7129 188.0938,295.0879 Q188.0938,295.5566 187.6875,295.8223 Q187.5,295.9473 186.9063,295.9473 L183.4219,304.3066 L181.7813,304.3066 L178.2969,295.9473 Q177.7031,295.9473 177.5156,295.8223 Q177.1094,295.5566 177.1094,295.0879 Q177.1094,294.7129 177.375,294.4785 Q177.6406,294.2441 178.25,294.2441 L180.5469,294.2441 Q181.1563,294.2441 181.4063,294.4785 Q181.6719,294.7129 181.6719,295.0879 Q181.6719,295.4785 181.4063,295.7129 Q181.1563,295.9473 180.5469,295.9473 L180.1406,295.9473 L182.5938,301.8223 Z " fill="#000000"/><text fill="#000000" font-family="sans-serif" font-size="12" font-style="italic" lengthAdjust="spacing" textLength="81" x="195.5" y="294.2148">&#171;value object&#187;</text><text fill="#000000" font-family="sans-serif" font-size="14" lengthAdjust="spacing" textLength="80" x="196" y="312.334">CourseCode</text><line style="stroke:#181818;stroke-width:0.5;" x1="168" x2="278" y1="320.8477" y2="320.8477"/></g><!--class CourseDescription--><g id="elem_CourseDescription"><rect codeLine="17" fill="#F1F1F1" height="52.582" id="CourseDescription" rx="2.5" ry="2.5" style="stroke:#181818;stroke-width:0.5;" width="149" x="314.5" y="276.2656"/><ellipse cx="329.5" cy="298.5566" fill="#FF8B40" rx="11" ry="11" style="stroke:#181818;stroke-width:1.0;"/><path d="M330.0938,301.8223 L332.5625,295.9473 L332.1719,295.9473 Q331.5625,295.9473 331.2969,295.7129 Q331.0313,295.4785 331.0313,295.0879 Q331.0313,294.7129 331.2969,294.4785 Q331.5625,294.2441 332.1719,294.2441 L334.4531,294.2441 Q335.0625,294.2441 335.3281,294.4785 Q335.5938,294.7129 335.5938,295.0879 Q335.5938,295.5566 335.1875,295.8223 Q335,295.9473 334.4063,295.9473 L330.9219,304.3066 L329.2813,304.3066 L325.7969,295.9473 Q325.2031,295.9473 325.0156,295.8223 Q324.6094,295.5566 324.6094,295.0879 Q324.6094,294.7129 324.875,294.4785 Q325.1406,294.2441 325.75,294.2441 L328.0469,294.2441 Q328.6563,294.2441 328.9063,294.4785 Q329.1719,294.7129 329.1719,295.0879 Q329.1719,295.4785 328.9063,295.7129 Q328.6563,295.9473 328.0469,295.9473 L327.6406,295.9473 L330.0938,301.8223 Z " fill="#000000"/><text fill="#000000" font-family="sans-serif" font-size="12" font-style="italic" lengthAdjust="spacing" textLength="81" x="361.5" y="294.2148">&#171;value object&#187;</text><text fill="#000000" font-family="sans-serif" font-size="14" lengthAdjust="spacing" textLength="117" x="343.5" y="312.334">CourseDescription</text><line style="stroke:#181818;stroke-width:0.5;" x1="315.5" x2="462.5" y1="320.8477" y2="320.8477"/></g><!--class CourseStatus--><g id="elem_CourseStatus"><rect codeLine="18" fill="#F1F1F1" height="52.582" id="CourseStatus" rx="2.5" ry="2.5" style="stroke:#181818;stroke-width:0.5;" width="118" x="499" y="276.2656"/><ellipse cx="514" cy="298.5566" fill="#FF8B40" rx="11" ry="11" style="stroke:#181818;stroke-width:1.0;"/><path d="M514.5938,301.8223 L517.0625,295.9473 L516.6719,295.9473 Q516.0625,295.9473 515.7969,295.7129 Q515.5313,295.4785 515.5313,295.0879 Q515.5313,294.7129 515.7969,294.4785 Q516.0625,294.2441 516.6719,294.2441 L518.9531,294.2441 Q519.5625,294.2441 519.8281,294.4785 Q520.0938,294.7129 520.0938,295.0879 Q520.0938,295.5566 519.6875,295.8223 Q519.5,295.9473 518.9063,295.9473 L515.4219,304.3066 L513.7813,304.3066 L510.2969,295.9473 Q509.7031,295.9473 509.5156,295.8223 Q509.1094,295.5566 509.1094,295.0879 Q509.1094,294.7129 509.375,294.4785 Q509.6406,294.2441 510.25,294.2441 L512.5469,294.2441 Q513.1563,294.2441 513.4063,294.4785 Q513.6719,294.7129 513.6719,295.0879 Q513.6719,295.4785 513.4063,295.7129 Q513.1563,295.9473 512.5469,295.9473 L512.1406,295.9473 L514.5938,301.8223 Z " fill="#000000"/><text fill="#000000" font-family="sans-serif" font-size="12" font-style="italic" lengthAdjust="spacing" textLength="81" x="530.5" y="294.2148">&#171;value object&#187;</text><text fill="#000000" font-family="sans-serif" font-size="14" lengthAdjust="spacing" textLength="86" x="528" y="312.334">CourseStatus</text><line style="stroke:#181818;stroke-width:0.5;" x1="500" x2="616" y1="320.8477" y2="320.8477"/></g><g id="elem_GMN8"><path d="M467,408.7656 L467,470.6387 A0,0 0 0 0 467,470.6387 L649,470.6387 A0,0 0 0 0 649,470.6387 L649,418.7656 L639,408.7656 L562,408.7656 L558,329.4756 L554,408.7656 L467,408.7656 A0,0 0 0 0 467,408.7656 " fill="#FEFFDD" style="stroke:#181818;stroke-width:0.5;"/><path d="M639,408.7656 L639,418.7656 L649,418.7656 L639,408.7656 " fill="#FEFFDD" style="stroke:#181818;stroke-width:0.5;"/><text fill="#000000" font-family="sans-serif" font-size="13" lengthAdjust="spacing" textLength="123" x="473" y="427.7939">Diagrama de estados</text><text fill="#000000" font-family="sans-serif" font-size="13" lengthAdjust="spacing" textLength="132" x="473" y="445.085">dispon&#237;vel com o nome</text><text fill="#000000" font-family="sans-serif" font-size="13" lengthAdjust="spacing" textLength="161" x="473" y="462.376">"course-status-user-stories"</text></g><!--class CourseEnrolmentLimits--><g id="elem_CourseEnrolmentLimits"><rect codeLine="24" fill="#F1F1F1" height="89.8242" id="CourseEnrolmentLimits" rx="2.5" ry="2.5" style="stroke:#181818;stroke-width:0.5;" width="178" x="652" y="257.7656"/><ellipse cx="667" cy="280.0566" fill="#FF8B40" rx="11" ry="11" style="stroke:#181818;stroke-width:1.0;"/><path d="M667.5938,283.3223 L670.0625,277.4473 L669.6719,277.4473 Q669.0625,277.4473 668.7969,277.2129 Q668.5313,276.9785 668.5313,276.5879 Q668.5313,276.2129 668.7969,275.9785 Q669.0625,275.7441 669.6719,275.7441 L671.9531,275.7441 Q672.5625,275.7441 672.8281,275.9785 Q673.0938,276.2129 673.0938,276.5879 Q673.0938,277.0566 672.6875,277.3223 Q672.5,277.4473 671.9063,277.4473 L668.4219,285.8066 L666.7813,285.8066 L663.2969,277.4473 Q662.7031,277.4473 662.5156,277.3223 Q662.1094,277.0566 662.1094,276.5879 Q662.1094,276.2129 662.375,275.9785 Q662.6406,275.7441 663.25,275.7441 L665.5469,275.7441 Q666.1563,275.7441 666.4063,275.9785 Q666.6719,276.2129 666.6719,276.5879 Q666.6719,276.9785 666.4063,277.2129 Q666.1563,277.4473 665.5469,277.4473 L665.1406,277.4473 L667.5938,283.3223 Z " fill="#000000"/><text fill="#000000" font-family="sans-serif" font-size="12" font-style="italic" lengthAdjust="spacing" textLength="81" x="713.5" y="275.7148">&#171;value object&#187;</text><text fill="#000000" font-family="sans-serif" font-size="14" lengthAdjust="spacing" textLength="146" x="681" y="293.834">CourseEnrolmentLimits</text><line style="stroke:#181818;stroke-width:0.5;" x1="653" x2="829" y1="302.3477" y2="302.3477"/><text fill="#000000" font-family="sans-serif" font-size="14" lengthAdjust="spacing" textLength="119" x="658" y="321.4551">minimumEnrolment</text><text fill="#000000" font-family="sans-serif" font-size="14" lengthAdjust="spacing" textLength="122" x="658" y="340.0762">maximumEnrolment</text></g><!--class Manager--><g id="elem_Manager"><rect codeLine="32" fill="#F1F1F1" height="68.543" id="Manager" rx="2.5" ry="2.5" style="stroke:#181818;stroke-width:0.5;" width="88" x="886" y="268.2656"/><ellipse cx="901" cy="298.5371" fill="#ADD1B2" rx="11" ry="11" style="stroke:#181818;stroke-width:1.0;"/><path d="M899.8594,299.334 L899.8594,301.834 L904.1875,301.834 L904.1875,300.9121 Q904.1875,300.3027 904.4219,300.0371 Q904.6719,299.7715 905.0469,299.7715 Q905.4219,299.7715 905.6563,300.0371 Q905.8906,300.3027 905.8906,300.9121 L905.8906,303.5371 L897.8906,303.5371 Q897.2656,303.5371 897,303.3027 Q896.75,303.0684 896.75,302.6777 Q896.75,302.3027 897.0156,302.0684 Q897.2813,301.834 897.8906,301.834 L898.1563,301.834 L898.1563,295.1777 L897.8906,295.1777 Q897.2656,295.1777 897,294.9434 Q896.75,294.709 896.75,294.3184 Q896.75,293.9434 897,293.709 Q897.2656,293.4746 897.8906,293.4746 L905.5156,293.4746 L905.5156,296.0684 Q905.5156,296.6777 905.2813,296.9434 Q905.0625,297.1934 904.6719,297.1934 Q904.2969,297.1934 904.0625,296.9434 Q903.8281,296.6777 903.8281,296.0684 L903.8281,295.1777 L899.8594,295.1777 L899.8594,297.6309 L901.3438,297.6309 Q901.3438,296.9746 901.4688,296.7871 Q901.7344,296.3809 902.2031,296.3809 Q902.5781,296.3809 902.8125,296.6465 Q903.0469,296.8965 903.0469,297.5059 L903.0469,299.4746 Q903.0469,300.0215 902.9219,300.209 Q902.6563,300.5996 902.2031,300.5996 Q901.7344,300.5996 901.4688,300.1934 Q901.3438,300.0059 901.3438,299.334 L899.8594,299.334 Z " fill="#000000"/><text fill="#000000" font-family="sans-serif" font-size="12" font-style="italic" lengthAdjust="spacing" textLength="43" x="921.5" y="286.2148">&#171;entity&#187;</text><text fill="#000000" font-family="sans-serif" font-size="12" font-style="italic" lengthAdjust="spacing" textLength="35" x="925.5" y="302.1758">&#171;root&#187;</text><text fill="#000000" font-family="sans-serif" font-size="14" lengthAdjust="spacing" textLength="56" x="915" y="320.2949">Manager</text><line style="stroke:#181818;stroke-width:0.5;" x1="887" x2="973" y1="328.8086" y2="328.8086"/></g><!--link Course to CourseTitle--><g id="link_Course_CourseTitle"><path codeLine="35" d="M433.99,136.7856 C370.4,144.7756 242.24,167.0356 150,223.2656 C129.64,235.6756 111.37,255.3356 98.2,271.8656 " fill="none" id="Course-to-CourseTitle" style="stroke:#181818;stroke-width:1.0;"/><polygon fill="#181818" points="94.97,275.9956,103.6668,271.3733,98.0515,272.0581,97.3668,266.4428,94.97,275.9956" style="stroke:#181818;stroke-width:1.0;"/></g><!--link Course to CourseCode--><g id="link_Course_CourseCode"><path codeLine="36" d="M433.74,148.3556 C396.54,164.1456 340.11,190.8356 297,223.2656 C278.37,237.2756 260.37,256.2156 246.78,271.9856 " fill="none" id="Course-to-CourseCode" style="stroke:#181818;stroke-width:1.0;"/><polygon fill="#181818" points="243.43,275.9156,252.3149,271.6662,246.6757,272.1123,246.2296,266.473,243.43,275.9156" style="stroke:#181818;stroke-width:1.0;"/></g><!--link Course to CourseDescription--><g id="link_Course_CourseDescription"><path codeLine="37" d="M456.2,166.5556 C440.98,197.1856 418.74,241.9256 404.08,271.4356 " fill="none" id="Course-to-CourseDescription" style="stroke:#181818;stroke-width:1.0;"/><polygon fill="#181818" points="401.79,276.0356,409.3846,269.7649,404.0203,271.5606,402.2246,266.1964,401.79,276.0356" style="stroke:#181818;stroke-width:1.0;"/></g><!--link Course to CourseStatus--><g id="link_Course_CourseStatus"><path codeLine="38" d="M490,166.5556 C505.4,197.1856 527.9,241.9256 542.74,271.4356 " fill="none" id="Course-to-CourseStatus" style="stroke:#181818;stroke-width:1.0;"/><polygon fill="#181818" points="545.06,276.0356,544.5625,266.1993,542.8011,271.575,537.4254,269.8136,545.06,276.0356" style="stroke:#181818;stroke-width:1.0;"/></g><!--link Course to CourseEnrolmentLimits--><g id="link_Course_CourseEnrolmentLimits"><path codeLine="39" d="M512.11,152.8056 C545.44,170.3056 594.27,196.9656 635,223.2656 C649.95,232.9156 665.58,243.9456 680.12,254.6156 " fill="none" id="Course-to-CourseEnrolmentLimits" style="stroke:#181818;stroke-width:1.0;"/><polygon fill="#181818" points="684.18,257.6156,679.326,249.046,680.1612,254.6409,674.5663,255.4761,684.18,257.6156" style="stroke:#181818;stroke-width:1.0;"/></g><!--link Course to Manager--><g id="link_Course_Manager"><path codeLine="40" d="M512.1,135.6956 C582.68,142.3556 734.43,163.0656 846,223.2656 C865.27,233.6656 883.45,249.5656 897.94,264.3456 " fill="none" id="Course-to-Manager" style="stroke:#181818;stroke-width:1.0;"/><polygon fill="#181818" points="901.54,268.0756,898.1538,258.8272,898.0622,264.4833,892.4061,264.3917,901.54,268.0756" style="stroke:#181818;stroke-width:1.0;"/><polygon fill="#000000" points="836.7433,207.4927,829.0922,201.8436,827.233,207.4197,836.7433,207.4927" style="stroke:#000000;stroke-width:1.0;"/><text fill="#000000" font-family="sans-serif" font-size="13" lengthAdjust="spacing" textLength="85" x="841" y="211.2939">is managed by</text><text fill="#000000" font-family="sans-serif" font-size="13" lengthAdjust="spacing" textLength="20" x="519.9253" y="132.0552">0..*</text><text fill="#000000" font-family="sans-serif" font-size="13" lengthAdjust="spacing" textLength="20" x="874.2086" y="256.9421">1..*</text></g><!--SRC=[bLBRRjGm47ttLupI1ouY9KL5GiYArEwo4X8yRU7T6u_IQMDFP4yA1VMJ-XNzCHnlkgpQL50_sJxdpDXdZd0Fmh1X4NPWAM0Zn5ufUGg8b-Hx4um38UbmnLxMz0lXtNkLBq0FzQ8pCM84Yx1aTtVhYM7KW85lQpYggcFzTgYLEgV4S2ZdREDUuMQKduW4sWo2dnlskKEbr8i53o6YwarpQLg4GclJjW5R8rZNi4KB-AqWBVJfGTVJ9MYzFIUQre5PwZgpShE9TBRzW7xv_GqSh5OVJe-hLt1bkW61DnV9WHdDWkrp9KkCJQ1-zFEPohKO6U9_Y3mBJiFBvt4joRJ9NZEE1QCOot67MOez-xlRA-oWIGFdLC7X3YwQtBwCkNyvH0nfpu4m5fFNDlTyzE9FFd3dalLVo97yu-dJuCRbo9CRt4x-5p0_7mCtwYQ5uwlnAHJXgNHCy8DuJBUp-KX5f_IKbd_uijxFoJmqnc4UsPlwF64xt7diWOttfA8wF7nTG9bunL7Utd_d8r1CNeq72vjhgDKV]--></g></svg>