<?xml version="1.0" encoding="us-ascii" standalone="no"?><svg xmlns="http://www.w3.org/2000/svg" xmlns:xlink="http://www.w3.org/1999/xlink" contentStyleType="text/css" height="1430px" preserveAspectRatio="none" style="width:2342px;height:1430px;background:#FFFFFF;" version="1.1" viewBox="0 0 2342 1430" width="2342px" zoomAndPan="magnify"><defs/><g><text fill="#000000" font-family="sans-serif" font-size="14" font-weight="bold" lengthAdjust="spacing" textLength="233" x="1056" y="30.1074">Sequence Diagram (SD) - US 1004</text><rect fill="#FFFFFF" height="1175.3613" style="stroke:#181818;stroke-width:1.0;" width="10" x="29" y="137.8633"/><rect fill="#FFFFFF" height="1152.0703" style="stroke:#181818;stroke-width:1.0;" width="10" x="402" y="161.1543"/><rect fill="#FFFFFF" height="31.291" style="stroke:#181818;stroke-width:1.0;" width="10" x="949" y="255.0273"/><rect fill="#FFFFFF" height="31.291" style="stroke:#181818;stroke-width:1.0;" width="10" x="949" y="317.6094"/><rect fill="#FFFFFF" height="486.9102" style="stroke:#181818;stroke-width:1.0;" width="10" x="949" y="795.0234"/><rect fill="#FFFFFF" height="401.0371" style="stroke:#181818;stroke-width:1.0;" width="10" x="1263.5" y="826.3145"/><rect fill="#FFFFFF" height="220.873" style="stroke:#181818;stroke-width:1.0;" width="10" x="1268.5" y="891.8965"/><rect fill="#FFFFFF" height="28" style="stroke:#181818;stroke-width:1.0;" width="10" x="1273.5" y="936.1875"/><rect fill="#FFFFFF" height="28" style="stroke:#181818;stroke-width:1.0;" width="10" x="1273.5" y="1010.4785"/><rect fill="#FFFFFF" height="28" style="stroke:#181818;stroke-width:1.0;" width="10" x="1273.5" y="1084.7695"/><rect fill="#FFFFFF" height="30" style="stroke:#181818;stroke-width:1.0;" width="10" x="1626.5" y="1151.0605"/><rect fill="none" height="124.5039" style="stroke:#000000;stroke-width:1.5;" width="479.5" x="323.5" y="470.7734"/><rect fill="none" height="379.0371" style="stroke:#000000;stroke-width:1.5;" width="540.5" x="1191.5" y="841.3145"/><line style="stroke:#181818;stroke-width:0.5;stroke-dasharray:5.0,5.0;" x1="34" x2="34" y1="127.8633" y2="1331.2246"/><line style="stroke:#181818;stroke-width:0.5;stroke-dasharray:5.0,5.0;" x1="406.5" x2="406.5" y1="127.8633" y2="1331.2246"/><line style="stroke:#181818;stroke-width:0.5;stroke-dasharray:5.0,5.0;" x1="953.5" x2="953.5" y1="127.8633" y2="1331.2246"/><line style="stroke:#181818;stroke-width:0.5;stroke-dasharray:5.0,5.0;" x1="1124.5" x2="1124.5" y1="127.8633" y2="1331.2246"/><line style="stroke:#181818;stroke-width:0.5;stroke-dasharray:5.0,5.0;" x1="1268.5" x2="1268.5" y1="127.8633" y2="1331.2246"/><line style="stroke:#181818;stroke-width:0.5;stroke-dasharray:5.0,5.0;" x1="1631" x2="1631" y1="127.8633" y2="1331.2246"/><line style="stroke:#181818;stroke-width:0.5;stroke-dasharray:5.0,5.0;" x1="1776" x2="1776" y1="127.8633" y2="1331.2246"/><line style="stroke:#181818;stroke-width:0.5;stroke-dasharray:5.0,5.0;" x1="1908" x2="1908" y1="127.8633" y2="1331.2246"/><line style="stroke:#181818;stroke-width:0.5;stroke-dasharray:5.0,5.0;" x1="2101" x2="2101" y1="127.8633" y2="1331.2246"/><line style="stroke:#181818;stroke-width:0.5;stroke-dasharray:5.0,5.0;" x1="2279" x2="2279" y1="127.8633" y2="1331.2246"/><text fill="#000000" font-family="sans-serif" font-size="14" lengthAdjust="spacing" textLength="52" x="5" y="124.3496">Gerente</text><ellipse cx="34" cy="57.7422" fill="#E3E3E3" rx="8" ry="8" style="stroke:#181818;stroke-width:0.5;"/><path d="M34,65.7422 L34,92.7422 M21,73.7422 L47,73.7422 M34,92.7422 L21,107.7422 M34,92.7422 L47,107.7422 " fill="none" style="stroke:#181818;stroke-width:0.5;"/><text fill="#000000" font-family="sans-serif" font-size="14" lengthAdjust="spacing" textLength="52" x="5" y="1345.332">Gerente</text><ellipse cx="34" cy="1357.3457" fill="#E3E3E3" rx="8" ry="8" style="stroke:#181818;stroke-width:0.5;"/><path d="M34,1365.3457 L34,1392.3457 M21,1373.3457 L47,1373.3457 M34,1392.3457 L21,1407.3457 M34,1392.3457 L47,1407.3457 " fill="none" style="stroke:#181818;stroke-width:0.5;"/><rect fill="#E3E3E3" height="51.2422" rx="2.5" ry="2.5" style="stroke:#181818;stroke-width:0.5;" width="147" x="333.5" y="75.6211"/><text fill="#000000" font-family="sans-serif" font-size="14" lengthAdjust="spacing" textLength="95" x="357.5" y="97.7285">&#171;presentation&#187;</text><text fill="#000000" font-family="sans-serif" font-size="14" lengthAdjust="spacing" textLength="129" x="344.5" y="116.3496">OpenCloseCourseUI</text><rect fill="#E3E3E3" height="51.2422" rx="2.5" ry="2.5" style="stroke:#181818;stroke-width:0.5;" width="147" x="333.5" y="1330.2246"/><text fill="#000000" font-family="sans-serif" font-size="14" lengthAdjust="spacing" textLength="95" x="357.5" y="1352.332">&#171;presentation&#187;</text><text fill="#000000" font-family="sans-serif" font-size="14" lengthAdjust="spacing" textLength="129" x="344.5" y="1370.9531">OpenCloseCourseUI</text><text fill="#000000" font-family="sans-serif" font-size="14" lengthAdjust="spacing" textLength="84" x="907" y="105.7285">&#171;application&#187;</text><text fill="#000000" font-family="sans-serif" font-size="14" lengthAdjust="spacing" textLength="179" x="863.5" y="124.3496">OpenCloseCourseController</text><ellipse cx="954" cy="74.6211" fill="#E3E3E3" rx="12" ry="12" style="stroke:#181818;stroke-width:0.5;"/><polygon fill="#181818" points="950,62.6211,956,57.6211,954,62.6211,956,67.6211,950,62.6211" style="stroke:#181818;stroke-width:1.0;"/><text fill="#000000" font-family="sans-serif" font-size="14" lengthAdjust="spacing" textLength="84" x="907" y="1345.332">&#171;application&#187;</text><text fill="#000000" font-family="sans-serif" font-size="14" lengthAdjust="spacing" textLength="179" x="863.5" y="1363.9531">OpenCloseCourseController</text><ellipse cx="954" cy="1383.4668" fill="#E3E3E3" rx="12" ry="12" style="stroke:#181818;stroke-width:0.5;"/><polygon fill="#181818" points="950,1371.4668,956,1366.4668,954,1371.4668,956,1376.4668,950,1371.4668" style="stroke:#181818;stroke-width:1.0;"/><rect fill="#E3E3E3" height="51.2422" rx="2.5" ry="2.5" style="stroke:#181818;stroke-width:0.5;" width="133" x="1058.5" y="75.6211"/><text fill="#000000" font-family="sans-serif" font-size="14" lengthAdjust="spacing" textLength="84" x="1081" y="97.7285">&#171;application&#187;</text><text fill="#000000" font-family="sans-serif" font-size="14" lengthAdjust="spacing" textLength="115" x="1069.5" y="116.3496">ListCourseService</text><rect fill="#E3E3E3" height="51.2422" rx="2.5" ry="2.5" style="stroke:#181818;stroke-width:0.5;" width="133" x="1058.5" y="1330.2246"/><text fill="#000000" font-family="sans-serif" font-size="14" lengthAdjust="spacing" textLength="84" x="1081" y="1352.332">&#171;application&#187;</text><text fill="#000000" font-family="sans-serif" font-size="14" lengthAdjust="spacing" textLength="115" x="1069.5" y="1370.9531">ListCourseService</text><rect fill="#E3E3E3" height="51.2422" rx="2.5" ry="2.5" style="stroke:#181818;stroke-width:0.5;" width="134" x="1201.5" y="75.6211"/><text fill="#000000" font-family="sans-serif" font-size="14" lengthAdjust="spacing" textLength="62" x="1235.5" y="97.7285">&#171;domain&#187;</text><text fill="#000000" font-family="sans-serif" font-size="14" lengthAdjust="spacing" textLength="116" x="1212.5" y="116.3496">theCourse:Course</text><rect fill="#E3E3E3" height="51.2422" rx="2.5" ry="2.5" style="stroke:#181818;stroke-width:0.5;" width="134" x="1201.5" y="1330.2246"/><text fill="#000000" font-family="sans-serif" font-size="14" lengthAdjust="spacing" textLength="62" x="1235.5" y="1352.332">&#171;domain&#187;</text><text fill="#000000" font-family="sans-serif" font-size="14" lengthAdjust="spacing" textLength="116" x="1212.5" y="1370.9531">theCourse:Course</text><rect fill="#E3E3E3" height="51.2422" rx="2.5" ry="2.5" style="stroke:#181818;stroke-width:0.5;" width="181" x="1541" y="75.6211"/><text fill="#000000" font-family="sans-serif" font-size="14" lengthAdjust="spacing" textLength="163" x="1548" y="97.7285">&#171;domain&#187; &#171;Value Object&#187;</text><text fill="#000000" font-family="sans-serif" font-size="14" lengthAdjust="spacing" textLength="153" x="1557" y="116.3496">courseDate:CourseDate</text><rect fill="#E3E3E3" height="51.2422" rx="2.5" ry="2.5" style="stroke:#181818;stroke-width:0.5;" width="181" x="1541" y="1330.2246"/><text fill="#000000" font-family="sans-serif" font-size="14" lengthAdjust="spacing" textLength="163" x="1548" y="1352.332">&#171;domain&#187; &#171;Value Object&#187;</text><text fill="#000000" font-family="sans-serif" font-size="14" lengthAdjust="spacing" textLength="153" x="1557" y="1370.9531">courseDate:CourseDate</text><rect fill="#E3E3E3" height="51.2422" rx="2.5" ry="2.5" style="stroke:#181818;stroke-width:0.5;" width="89" x="1732" y="75.6211"/><text fill="#000000" font-family="sans-serif" font-size="14" lengthAdjust="spacing" textLength="62" x="1743.5" y="97.7285">&#171;domain&#187;</text><text fill="#000000" font-family="sans-serif" font-size="14" lengthAdjust="spacing" textLength="71" x="1743" y="116.3496">exam:Exam</text><rect fill="#E3E3E3" height="51.2422" rx="2.5" ry="2.5" style="stroke:#181818;stroke-width:0.5;" width="89" x="1732" y="1330.2246"/><text fill="#000000" font-family="sans-serif" font-size="14" lengthAdjust="spacing" textLength="62" x="1743.5" y="1352.332">&#171;domain&#187;</text><text fill="#000000" font-family="sans-serif" font-size="14" lengthAdjust="spacing" textLength="71" x="1743" y="1370.9531">exam:Exam</text><rect fill="#E3E3E3" height="51.2422" rx="2.5" ry="2.5" style="stroke:#181818;stroke-width:0.5;" width="155" x="1831" y="75.6211"/><text fill="#000000" font-family="sans-serif" font-size="14" lengthAdjust="spacing" textLength="62" x="1875.5" y="97.7285">&#171;domain&#187;</text><text fill="#000000" font-family="sans-serif" font-size="14" lengthAdjust="spacing" textLength="137" x="1842" y="116.3496">extraClass:ExtraClass</text><rect fill="#E3E3E3" height="51.2422" rx="2.5" ry="2.5" style="stroke:#181818;stroke-width:0.5;" width="155" x="1831" y="1330.2246"/><text fill="#000000" font-family="sans-serif" font-size="14" lengthAdjust="spacing" textLength="62" x="1875.5" y="1352.332">&#171;domain&#187;</text><text fill="#000000" font-family="sans-serif" font-size="14" lengthAdjust="spacing" textLength="137" x="1842" y="1370.9531">extraClass:ExtraClass</text><rect fill="#E3E3E3" height="51.2422" rx="2.5" ry="2.5" style="stroke:#181818;stroke-width:0.5;" width="211" x="1996" y="75.6211"/><text fill="#000000" font-family="sans-serif" font-size="14" lengthAdjust="spacing" textLength="62" x="2068.5" y="97.7285">&#171;domain&#187;</text><text fill="#000000" font-family="sans-serif" font-size="14" lengthAdjust="spacing" textLength="193" x="2007" y="116.3496">recurringClass:RecurringClass</text><rect fill="#E3E3E3" height="51.2422" rx="2.5" ry="2.5" style="stroke:#181818;stroke-width:0.5;" width="211" x="1996" y="1330.2246"/><text fill="#000000" font-family="sans-serif" font-size="14" lengthAdjust="spacing" textLength="62" x="2068.5" y="1352.332">&#171;domain&#187;</text><text fill="#000000" font-family="sans-serif" font-size="14" lengthAdjust="spacing" textLength="193" x="2007" y="1370.9531">recurringClass:RecurringClass</text><text fill="#000000" font-family="sans-serif" font-size="14" lengthAdjust="spacing" textLength="79" x="2234.5" y="105.7285">&#171;repository&#187;</text><text fill="#000000" font-family="sans-serif" font-size="14" lengthAdjust="spacing" textLength="114" x="2221" y="124.3496">CourseRepository</text><path d="M2261,54.6211 C2261,44.6211 2279,44.6211 2279,44.6211 C2279,44.6211 2297,44.6211 2297,54.6211 L2297,80.6211 C2297,90.6211 2279,90.6211 2279,90.6211 C2279,90.6211 2261,90.6211 2261,80.6211 L2261,54.6211 " fill="#E3E3E3" style="stroke:#181818;stroke-width:1.5;"/><path d="M2261,54.6211 C2261,64.6211 2279,64.6211 2279,64.6211 C2279,64.6211 2297,64.6211 2297,54.6211 " fill="none" style="stroke:#181818;stroke-width:1.5;"/><text fill="#000000" font-family="sans-serif" font-size="14" lengthAdjust="spacing" textLength="79" x="2234.5" y="1345.332">&#171;repository&#187;</text><text fill="#000000" font-family="sans-serif" font-size="14" lengthAdjust="spacing" textLength="114" x="2221" y="1363.9531">CourseRepository</text><path d="M2261,1377.4668 C2261,1367.4668 2279,1367.4668 2279,1367.4668 C2279,1367.4668 2297,1367.4668 2297,1377.4668 L2297,1403.4668 C2297,1413.4668 2279,1413.4668 2279,1413.4668 C2279,1413.4668 2261,1413.4668 2261,1403.4668 L2261,1377.4668 " fill="#E3E3E3" style="stroke:#181818;stroke-width:1.5;"/><path d="M2261,1377.4668 C2261,1387.4668 2279,1387.4668 2279,1387.4668 C2279,1387.4668 2297,1387.4668 2297,1377.4668 " fill="none" style="stroke:#181818;stroke-width:1.5;"/><rect fill="#FFFFFF" height="1175.3613" style="stroke:#181818;stroke-width:1.0;" width="10" x="29" y="137.8633"/><rect fill="#FFFFFF" height="1152.0703" style="stroke:#181818;stroke-width:1.0;" width="10" x="402" y="161.1543"/><rect fill="#FFFFFF" height="31.291" style="stroke:#181818;stroke-width:1.0;" width="10" x="949" y="255.0273"/><rect fill="#FFFFFF" height="31.291" style="stroke:#181818;stroke-width:1.0;" width="10" x="949" y="317.6094"/><rect fill="#FFFFFF" height="486.9102" style="stroke:#181818;stroke-width:1.0;" width="10" x="949" y="795.0234"/><rect fill="#FFFFFF" height="401.0371" style="stroke:#181818;stroke-width:1.0;" width="10" x="1263.5" y="826.3145"/><rect fill="#FFFFFF" height="220.873" style="stroke:#181818;stroke-width:1.0;" width="10" x="1268.5" y="891.8965"/><rect fill="#FFFFFF" height="28" style="stroke:#181818;stroke-width:1.0;" width="10" x="1273.5" y="936.1875"/><rect fill="#FFFFFF" height="28" style="stroke:#181818;stroke-width:1.0;" width="10" x="1273.5" y="1010.4785"/><rect fill="#FFFFFF" height="28" style="stroke:#181818;stroke-width:1.0;" width="10" x="1273.5" y="1084.7695"/><rect fill="#FFFFFF" height="30" style="stroke:#181818;stroke-width:1.0;" width="10" x="1626.5" y="1151.0605"/><polygon fill="#181818" points="390,157.1543,400,161.1543,390,165.1543,394,161.1543" style="stroke:#181818;stroke-width:1.0;"/><line style="stroke:#181818;stroke-width:1.0;" x1="39" x2="396" y1="161.1543" y2="161.1543"/><text fill="#000000" font-family="sans-serif" font-size="13" font-weight="bold" lengthAdjust="spacing" textLength="7" x="46" y="155.8916">1</text><text fill="#000000" font-family="sans-serif" font-size="13" lengthAdjust="spacing" textLength="214" x="57" y="155.8916">Pede para abrir/fechar uma disciplina</text><polygon fill="#181818" points="942,188.4453,952,192.4453,942,196.4453,946,192.4453" style="stroke:#181818;stroke-width:1.0;"/><line style="stroke:#181818;stroke-width:1.0;" x1="412" x2="948" y1="192.4453" y2="192.4453"/><text fill="#000000" font-family="sans-serif" font-size="13" font-weight="bold" lengthAdjust="spacing" textLength="7" x="419" y="187.1826">2</text><text fill="#000000" font-family="sans-serif" font-size="13" lengthAdjust="spacing" textLength="36" x="430" y="187.1826">create</text><polygon fill="#181818" points="1113,219.7363,1123,223.7363,1113,227.7363,1117,223.7363" style="stroke:#181818;stroke-width:1.0;"/><line style="stroke:#181818;stroke-width:1.0;" x1="954" x2="1119" y1="223.7363" y2="223.7363"/><text fill="#000000" font-family="sans-serif" font-size="13" font-weight="bold" lengthAdjust="spacing" textLength="7" x="961" y="218.4736">3</text><text fill="#000000" font-family="sans-serif" font-size="13" lengthAdjust="spacing" textLength="36" x="972" y="218.4736">create</text><polygon fill="#181818" points="937,251.0273,947,255.0273,937,259.0273,941,255.0273" style="stroke:#181818;stroke-width:1.0;"/><line style="stroke:#181818;stroke-width:1.0;" x1="412" x2="943" y1="255.0273" y2="255.0273"/><text fill="#000000" font-family="sans-serif" font-size="13" font-weight="bold" lengthAdjust="spacing" textLength="7" x="419" y="249.7646">4</text><text fill="#000000" font-family="sans-serif" font-size="13" lengthAdjust="spacing" textLength="216" x="430" y="249.7646">allCloseCourses = listCloseCourses()</text><polygon fill="#181818" points="1113,282.3184,1123,286.3184,1113,290.3184,1117,286.3184" style="stroke:#181818;stroke-width:1.0;"/><line style="stroke:#181818;stroke-width:1.0;" x1="954" x2="1119" y1="286.3184" y2="286.3184"/><text fill="#000000" font-family="sans-serif" font-size="13" font-weight="bold" lengthAdjust="spacing" textLength="7" x="961" y="281.0557">5</text><text fill="#000000" font-family="sans-serif" font-size="13" lengthAdjust="spacing" textLength="102" x="972" y="281.0557">allCloseCourses()</text><polygon fill="#181818" points="937,313.6094,947,317.6094,937,321.6094,941,317.6094" style="stroke:#181818;stroke-width:1.0;"/><line style="stroke:#181818;stroke-width:1.0;" x1="412" x2="943" y1="317.6094" y2="317.6094"/><text fill="#000000" font-family="sans-serif" font-size="13" font-weight="bold" lengthAdjust="spacing" textLength="7" x="419" y="312.3467">6</text><text fill="#000000" font-family="sans-serif" font-size="13" lengthAdjust="spacing" textLength="274" x="430" y="312.3467">allInProgressCourses = listInProgressCourses()</text><polygon fill="#181818" points="1113,344.9004,1123,348.9004,1113,352.9004,1117,348.9004" style="stroke:#181818;stroke-width:1.0;"/><line style="stroke:#181818;stroke-width:1.0;" x1="954" x2="1119" y1="348.9004" y2="348.9004"/><text fill="#000000" font-family="sans-serif" font-size="13" font-weight="bold" lengthAdjust="spacing" textLength="7" x="961" y="343.6377">7</text><text fill="#000000" font-family="sans-serif" font-size="13" lengthAdjust="spacing" textLength="131" x="972" y="343.6377">allInProgressCourses()</text><line style="stroke:#181818;stroke-width:1.0;" x1="412" x2="454" y1="380.1914" y2="380.1914"/><line style="stroke:#181818;stroke-width:1.0;" x1="454" x2="454" y1="380.1914" y2="393.1914"/><line style="stroke:#181818;stroke-width:1.0;" x1="413" x2="454" y1="393.1914" y2="393.1914"/><polygon fill="#181818" points="423,389.1914,413,393.1914,423,397.1914,419,393.1914" style="stroke:#181818;stroke-width:1.0;"/><text fill="#000000" font-family="sans-serif" font-size="13" font-weight="bold" lengthAdjust="spacing" textLength="7" x="419" y="374.9287">8</text><text fill="#000000" font-family="sans-serif" font-size="13" lengthAdjust="spacing" textLength="512" x="430" y="374.9287">Mostra informa&#231;&#227;o sobre disciplinas no estado close e disciplinas no estado in_progress</text><polygon fill="#181818" points="50,420.4824,40,424.4824,50,428.4824,46,424.4824" style="stroke:#181818;stroke-width:1.0;"/><line style="stroke:#181818;stroke-width:1.0;stroke-dasharray:2.0,2.0;" x1="44" x2="401" y1="424.4824" y2="424.4824"/><text fill="#000000" font-family="sans-serif" font-size="13" font-weight="bold" lengthAdjust="spacing" textLength="7" x="56" y="419.2197">9</text><text fill="#000000" font-family="sans-serif" font-size="13" lengthAdjust="spacing" textLength="328" x="67" y="419.2197">Pede para escolher se pretende abrir ou fechar um curso</text><polygon fill="#181818" points="390,451.7734,400,455.7734,390,459.7734,394,455.7734" style="stroke:#181818;stroke-width:1.0;"/><line style="stroke:#181818;stroke-width:1.0;" x1="39" x2="396" y1="455.7734" y2="455.7734"/><text fill="#000000" font-family="sans-serif" font-size="13" font-weight="bold" lengthAdjust="spacing" textLength="14" x="46" y="450.5107">10</text><text fill="#000000" font-family="sans-serif" font-size="13" lengthAdjust="spacing" textLength="240" x="64" y="450.5107">Escolhe a opera&#231;&#227;o que pretende realizar</text><path d="M323.5,470.7734 L384.5,470.7734 L384.5,480.0645 L374.5,490.0645 L323.5,490.0645 L323.5,470.7734 " fill="#EEEEEE" style="stroke:#000000;stroke-width:1.5;"/><rect fill="none" height="124.5039" style="stroke:#000000;stroke-width:1.5;" width="479.5" x="323.5" y="470.7734"/><text fill="#000000" font-family="sans-serif" font-size="13" font-weight="bold" lengthAdjust="spacing" textLength="16" x="338.5" y="485.8018">alt</text><text fill="#000000" font-family="sans-serif" font-size="11" font-weight="bold" lengthAdjust="spacing" textLength="244" x="399.5" y="484.6436">[Se o gerente pretende abrir uma disciplina]</text><line style="stroke:#181818;stroke-width:1.0;" x1="412" x2="454" y1="513.3555" y2="513.3555"/><line style="stroke:#181818;stroke-width:1.0;" x1="454" x2="454" y1="513.3555" y2="526.3555"/><line style="stroke:#181818;stroke-width:1.0;" x1="413" x2="454" y1="526.3555" y2="526.3555"/><polygon fill="#181818" points="423,522.3555,413,526.3555,423,530.3555,419,526.3555" style="stroke:#181818;stroke-width:1.0;"/><text fill="#000000" font-family="sans-serif" font-size="13" font-weight="bold" lengthAdjust="spacing" textLength="14" x="419" y="508.0928">11</text><text fill="#000000" font-family="sans-serif" font-size="13" lengthAdjust="spacing" textLength="345" x="437" y="508.0928">Mostra informa&#231;&#227;o sobre disciplinas que podem ser abertas</text><line style="stroke:#000000;stroke-width:1.0;stroke-dasharray:2.0,2.0;" x1="323.5" x2="803" y1="535.3555" y2="535.3555"/><text fill="#000000" font-family="sans-serif" font-size="11" font-weight="bold" lengthAdjust="spacing" textLength="253" x="328.5" y="547.2256">[Se o gerente pretende fechar uma disciplina]</text><line style="stroke:#181818;stroke-width:1.0;" x1="412" x2="454" y1="574.2773" y2="574.2773"/><line style="stroke:#181818;stroke-width:1.0;" x1="454" x2="454" y1="574.2773" y2="587.2773"/><line style="stroke:#181818;stroke-width:1.0;" x1="413" x2="454" y1="587.2773" y2="587.2773"/><polygon fill="#181818" points="423,583.2773,413,587.2773,423,591.2773,419,587.2773" style="stroke:#181818;stroke-width:1.0;"/><text fill="#000000" font-family="sans-serif" font-size="13" font-weight="bold" lengthAdjust="spacing" textLength="14" x="419" y="569.0146">12</text><text fill="#000000" font-family="sans-serif" font-size="13" lengthAdjust="spacing" textLength="354" x="437" y="569.0146">Mostra informa&#231;&#227;o sobre disciplinas que podem ser fechadas</text><polygon fill="#181818" points="50,621.5684,40,625.5684,50,629.5684,46,625.5684" style="stroke:#181818;stroke-width:1.0;"/><line style="stroke:#181818;stroke-width:1.0;stroke-dasharray:2.0,2.0;" x1="44" x2="401" y1="625.5684" y2="625.5684"/><text fill="#000000" font-family="sans-serif" font-size="13" font-weight="bold" lengthAdjust="spacing" textLength="14" x="56" y="620.3057">13</text><text fill="#000000" font-family="sans-serif" font-size="13" lengthAdjust="spacing" textLength="181" x="74" y="620.3057">Pede para escolher a disciplina</text><polygon fill="#181818" points="390,652.8594,400,656.8594,390,660.8594,394,656.8594" style="stroke:#181818;stroke-width:1.0;"/><line style="stroke:#181818;stroke-width:1.0;" x1="39" x2="396" y1="656.8594" y2="656.8594"/><text fill="#000000" font-family="sans-serif" font-size="13" font-weight="bold" lengthAdjust="spacing" textLength="14" x="46" y="651.5967">14</text><text fill="#000000" font-family="sans-serif" font-size="13" lengthAdjust="spacing" textLength="263" x="64" y="651.5967">Escolhe a disciplina que pretende abrir/fechar</text><line style="stroke:#181818;stroke-width:1.0;" x1="412" x2="454" y1="688.1504" y2="688.1504"/><line style="stroke:#181818;stroke-width:1.0;" x1="454" x2="454" y1="688.1504" y2="701.1504"/><line style="stroke:#181818;stroke-width:1.0;" x1="413" x2="454" y1="701.1504" y2="701.1504"/><polygon fill="#181818" points="423,697.1504,413,701.1504,423,705.1504,419,701.1504" style="stroke:#181818;stroke-width:1.0;"/><text fill="#000000" font-family="sans-serif" font-size="13" font-weight="bold" lengthAdjust="spacing" textLength="14" x="419" y="682.8877">15</text><text fill="#000000" font-family="sans-serif" font-size="13" lengthAdjust="spacing" textLength="224" x="437" y="682.8877">Mostra os dados do curso selecionado</text><polygon fill="#181818" points="50,728.4414,40,732.4414,50,736.4414,46,732.4414" style="stroke:#181818;stroke-width:1.0;"/><line style="stroke:#181818;stroke-width:1.0;stroke-dasharray:2.0,2.0;" x1="44" x2="401" y1="732.4414" y2="732.4414"/><text fill="#000000" font-family="sans-serif" font-size="13" font-weight="bold" lengthAdjust="spacing" textLength="14" x="56" y="727.1787">16</text><text fill="#000000" font-family="sans-serif" font-size="13" lengthAdjust="spacing" textLength="236" x="74" y="727.1787">Pede confirma&#231;&#227;o da opera&#231;&#227;o a realizar</text><polygon fill="#181818" points="390,759.7324,400,763.7324,390,767.7324,394,763.7324" style="stroke:#181818;stroke-width:1.0;"/><line style="stroke:#181818;stroke-width:1.0;" x1="39" x2="396" y1="763.7324" y2="763.7324"/><text fill="#000000" font-family="sans-serif" font-size="13" font-weight="bold" lengthAdjust="spacing" textLength="14" x="46" y="758.4697">17</text><text fill="#000000" font-family="sans-serif" font-size="13" lengthAdjust="spacing" textLength="119" x="64" y="758.4697">Confirma a opera&#231;&#227;o</text><polygon fill="#181818" points="937,791.0234,947,795.0234,937,799.0234,941,795.0234" style="stroke:#181818;stroke-width:1.0;"/><line style="stroke:#181818;stroke-width:1.0;" x1="412" x2="943" y1="795.0234" y2="795.0234"/><text fill="#000000" font-family="sans-serif" font-size="13" font-weight="bold" lengthAdjust="spacing" textLength="14" x="419" y="789.7607">18</text><text fill="#000000" font-family="sans-serif" font-size="13" lengthAdjust="spacing" textLength="169" x="437" y="789.7607">openCloseCourse(theCourse)</text><polygon fill="#181818" points="1251.5,822.3145,1261.5,826.3145,1251.5,830.3145,1255.5,826.3145" style="stroke:#181818;stroke-width:1.0;"/><line style="stroke:#181818;stroke-width:1.0;" x1="959" x2="1257.5" y1="826.3145" y2="826.3145"/><text fill="#000000" font-family="sans-serif" font-size="13" font-weight="bold" lengthAdjust="spacing" textLength="14" x="966" y="821.0518">19</text><text fill="#000000" font-family="sans-serif" font-size="13" lengthAdjust="spacing" textLength="64" x="984" y="821.0518">nextState()</text><path d="M1191.5,841.3145 L1252.5,841.3145 L1252.5,850.6055 L1242.5,860.6055 L1191.5,860.6055 L1191.5,841.3145 " fill="#EEEEEE" style="stroke:#000000;stroke-width:1.5;"/><rect fill="none" height="379.0371" style="stroke:#000000;stroke-width:1.5;" width="540.5" x="1191.5" y="841.3145"/><text fill="#000000" font-family="sans-serif" font-size="13" font-weight="bold" lengthAdjust="spacing" textLength="16" x="1206.5" y="856.3428">alt</text><text fill="#000000" font-family="sans-serif" font-size="11" font-weight="bold" lengthAdjust="spacing" textLength="143" x="1267.5" y="855.1846">[Se for fechar a disciplina]</text><line style="stroke:#181818;stroke-width:1.0;" x1="1273.5" x2="1320.5" y1="878.8965" y2="878.8965"/><line style="stroke:#181818;stroke-width:1.0;" x1="1320.5" x2="1320.5" y1="878.8965" y2="891.8965"/><line style="stroke:#181818;stroke-width:1.0;" x1="1279.5" x2="1320.5" y1="891.8965" y2="891.8965"/><polygon fill="#181818" points="1289.5,887.8965,1279.5,891.8965,1289.5,895.8965,1285.5,891.8965" style="stroke:#181818;stroke-width:1.0;"/><text fill="#000000" font-family="sans-serif" font-size="13" font-weight="bold" lengthAdjust="spacing" textLength="14" x="1285.5" y="873.6338">20</text><text fill="#000000" font-family="sans-serif" font-size="13" lengthAdjust="spacing" textLength="105" x="1303.5" y="873.6338">checkIfCanClose()</text><line style="stroke:#181818;stroke-width:1.0;" x1="1283.5" x2="1325.5" y1="928.1875" y2="928.1875"/><line style="stroke:#181818;stroke-width:1.0;" x1="1325.5" x2="1325.5" y1="928.1875" y2="941.1875"/><line style="stroke:#181818;stroke-width:1.0;" x1="1284.5" x2="1325.5" y1="941.1875" y2="941.1875"/><polygon fill="#181818" points="1294.5,937.1875,1284.5,941.1875,1294.5,945.1875,1290.5,941.1875" style="stroke:#181818;stroke-width:1.0;"/><text fill="#000000" font-family="sans-serif" font-size="13" font-weight="bold" lengthAdjust="spacing" textLength="14" x="1290.5" y="922.9248">21</text><text fill="#000000" font-family="sans-serif" font-size="13" lengthAdjust="spacing" textLength="222" x="1308.5" y="922.9248">hasFutureExams = hasFutureExams()</text><line style="stroke:#181818;stroke-width:1.0;" x1="1283.5" x2="1325.5" y1="1002.4785" y2="1002.4785"/><line style="stroke:#181818;stroke-width:1.0;" x1="1325.5" x2="1325.5" y1="1002.4785" y2="1015.4785"/><line style="stroke:#181818;stroke-width:1.0;" x1="1284.5" x2="1325.5" y1="1015.4785" y2="1015.4785"/><polygon fill="#181818" points="1294.5,1011.4785,1284.5,1015.4785,1294.5,1019.4785,1290.5,1015.4785" style="stroke:#181818;stroke-width:1.0;"/><text fill="#000000" font-family="sans-serif" font-size="13" font-weight="bold" lengthAdjust="spacing" textLength="14" x="1290.5" y="997.2158">22</text><text fill="#000000" font-family="sans-serif" font-size="13" lengthAdjust="spacing" textLength="268" x="1308.5" y="997.2158">hasFutureExtraClass = hasFutureExtraClass()</text><line style="stroke:#181818;stroke-width:1.0;" x1="1283.5" x2="1325.5" y1="1076.7695" y2="1076.7695"/><line style="stroke:#181818;stroke-width:1.0;" x1="1325.5" x2="1325.5" y1="1076.7695" y2="1089.7695"/><line style="stroke:#181818;stroke-width:1.0;" x1="1284.5" x2="1325.5" y1="1089.7695" y2="1089.7695"/><polygon fill="#181818" points="1294.5,1085.7695,1284.5,1089.7695,1294.5,1093.7695,1290.5,1089.7695" style="stroke:#181818;stroke-width:1.0;"/><text fill="#000000" font-family="sans-serif" font-size="13" font-weight="bold" lengthAdjust="spacing" textLength="14" x="1290.5" y="1071.5068">23</text><text fill="#000000" font-family="sans-serif" font-size="13" lengthAdjust="spacing" textLength="316" x="1308.5" y="1071.5068">hasFutureRecurringClass = hasFutureRecurringClass()</text><polygon fill="#181818" points="1614.5,1147.0605,1624.5,1151.0605,1614.5,1155.0605,1618.5,1151.0605" style="stroke:#181818;stroke-width:1.0;"/><line style="stroke:#181818;stroke-width:1.0;" x1="1273.5" x2="1620.5" y1="1151.0605" y2="1151.0605"/><text fill="#000000" font-family="sans-serif" font-size="13" font-weight="bold" lengthAdjust="spacing" textLength="14" x="1280.5" y="1145.7979">24</text><text fill="#000000" font-family="sans-serif" font-size="13" lengthAdjust="spacing" textLength="163" x="1298.5" y="1145.7979">startDate = cloneStartDate()</text><polygon fill="#181818" points="1619.5,1208.3516,1629.5,1212.3516,1619.5,1216.3516,1623.5,1212.3516" style="stroke:#181818;stroke-width:1.0;"/><line style="stroke:#181818;stroke-width:1.0;" x1="1273.5" x2="1625.5" y1="1212.3516" y2="1212.3516"/><text fill="#000000" font-family="sans-serif" font-size="13" font-weight="bold" lengthAdjust="spacing" textLength="14" x="1280.5" y="1207.0889">25</text><text fill="#000000" font-family="sans-serif" font-size="13" lengthAdjust="spacing" textLength="125" x="1298.5" y="1207.0889">create(startDate, null)</text><polygon fill="#181818" points="2267,1246.6426,2277,1250.6426,2267,1254.6426,2271,1250.6426" style="stroke:#181818;stroke-width:1.0;"/><line style="stroke:#181818;stroke-width:1.0;" x1="959" x2="2273" y1="1250.6426" y2="1250.6426"/><text fill="#000000" font-family="sans-serif" font-size="13" font-weight="bold" lengthAdjust="spacing" textLength="14" x="966" y="1245.3799">26</text><text fill="#000000" font-family="sans-serif" font-size="13" lengthAdjust="spacing" textLength="93" x="984" y="1245.3799">save(theCourse)</text><polygon fill="#181818" points="423,1277.9336,413,1281.9336,423,1285.9336,419,1281.9336" style="stroke:#181818;stroke-width:1.0;"/><line style="stroke:#181818;stroke-width:1.0;stroke-dasharray:2.0,2.0;" x1="417" x2="953" y1="1281.9336" y2="1281.9336"/><text fill="#000000" font-family="sans-serif" font-size="13" font-weight="bold" lengthAdjust="spacing" textLength="14" x="429" y="1276.6709">27</text><text fill="#000000" font-family="sans-serif" font-size="13" lengthAdjust="spacing" textLength="59" x="447" y="1276.6709">theCourse</text><polygon fill="#181818" points="45,1309.2246,35,1313.2246,45,1317.2246,41,1313.2246" style="stroke:#181818;stroke-width:1.0;"/><line style="stroke:#181818;stroke-width:1.0;stroke-dasharray:2.0,2.0;" x1="39" x2="406" y1="1313.2246" y2="1313.2246"/><text fill="#000000" font-family="sans-serif" font-size="13" font-weight="bold" lengthAdjust="spacing" textLength="14" x="51" y="1307.9619">28</text><text fill="#000000" font-family="sans-serif" font-size="13" lengthAdjust="spacing" textLength="181" x="69" y="1307.9619">Informa o sucesso da opera&#231;&#227;o</text><!--SRC=[pLRDRjim3BxxAOYUMc33Ec2dekqbxOO26reqw4u31aPc4gsAv4boj-vrTjY3zCL6MROZgt7wWmwO3uaaany_ofz8kMkfAxIuWfNHHYojMH5uMrFX-ZSLYcjSqDJVAW9BmgDUgDJ0BR4qFwHUm1oLewBmqhFfbBxNf0N1YSH5iDkTdkp1QxYQmjlz_NS5rjxeUZKZMnGelB6myu4iQKyxW0xQSS4nl1IoGkrXv_2mikHu7Rqq-lWOlcWuhqXFb74qCRLrT7NMkDUo44PxQrJmmgfIKemxJQAf8jiuYtwQXxy7z54w7p6cP6-aYEHLjfZ3b6Q5iaNmovR4GVnh6OJXgDlXuMTKDS7vx1j_a8WJNKxGTq1Xc825wJOUz1DN1wVyq_Y4sNPhRt6Yq3dswOQjPpVTviz2ggrbqKICoy6qmHbQ52LwdA6Z06IfCawoP6uZMCptib-DMQ_dZS3a3Mz0BolWfnt3wsEM2np01PK4GTE0Coljcpc99LgeLmYbT9o7aXeRpnwEPGRjmn0Cj9OE0mfBsCOAJ_AEBNEDtBVVW8XA9R9rS0Gg231Psjth_NkMYPuXUHxaaqLBe4lQ1Fu0ypDzOSs23x0Rqh-t_i8vRCCVIIJBf9779-DOsI3rtDWLtlsv-st0cPcbH1qEj05odYiYYB1rCFPMwgzLoseOZSDrmambIKuOjUGq6PEBe2VDRngTWgcXbohmeN6c1ymbVXfH0C5KPDiak4wl8Lc2Ilx2v6EYybpCmS2Y1Sl2RpWVpzwzXeefYRiAfuhS73ow7fAulOnG6J-hByIb2L2cP7Jvj0ytOFQ8BxIs7dwXj3XjqQbnKBBG-DT4KN0QYWHtBbuT9nwPyrcOotvloe5SS8D6yYmchVz0QDlAWnasvDs-Apwt5CIcnyYQ6zAKBmoKdFeChkcra3sjx5aYdRX6fRLcqCHCeuibYUkp-GHZTXc7ntBP4c29xdtjQqkXTOUAEbmO2VYKe8CIsLW-arztBnYIx5R_7wR3oqZATlZcdp1-lbMUKhZmSLhSRgnlnaUX9Mc-oRSBZnFZINebsSfgr7A4MRpkxFO4Nu6kbRfFAbJQnsz7LWRMjy2m5tYpiRJaVbqPwqsVSl4PbDEps6EuPRbQSA_FYccHOV9ziYYIUNTT_Gi0]--></g></svg>