<?xml version="1.0" encoding="us-ascii" standalone="no"?><svg xmlns="http://www.w3.org/2000/svg" xmlns:xlink="http://www.w3.org/1999/xlink" contentStyleType="text/css" height="445px" preserveAspectRatio="none" style="width:786px;height:445px;background:#FFFFFF;" version="1.1" viewBox="0 0 786 445" width="786px" zoomAndPan="magnify"><defs/><g><text fill="#000000" font-family="sans-serif" font-size="14" font-weight="bold" lengthAdjust="spacing" textLength="369" x="207.5" y="30.1074">System Sequence Diagram (SSD) - US 1004 (Option 2)</text><rect fill="#FFFFFF" height="211.0371" style="stroke:#181818;stroke-width:1.0;" width="10" x="29" y="133.2422"/><rect fill="#FFFFFF" height="62.582" style="stroke:#181818;stroke-width:1.0;" width="10" x="741" y="156.5332"/><rect fill="#FFFFFF" height="31.291" style="stroke:#181818;stroke-width:1.0;" width="10" x="741" y="250.4063"/><rect fill="#FFFFFF" height="31.291" style="stroke:#181818;stroke-width:1.0;" width="10" x="741" y="312.9883"/><line style="stroke:#181818;stroke-width:0.5;stroke-dasharray:5.0,5.0;" x1="34" x2="34" y1="123.2422" y2="362.2793"/><line style="stroke:#181818;stroke-width:0.5;stroke-dasharray:5.0,5.0;" x1="746" x2="746" y1="123.2422" y2="362.2793"/><text fill="#000000" font-family="sans-serif" font-size="14" lengthAdjust="spacing" textLength="52" x="5" y="119.7285">Gerente</text><ellipse cx="34" cy="53.1211" fill="#E3E3E3" rx="8" ry="8" style="stroke:#181818;stroke-width:0.5;"/><path d="M34,61.1211 L34,88.1211 M21,69.1211 L47,69.1211 M34,88.1211 L21,103.1211 M34,88.1211 L47,103.1211 " fill="none" style="stroke:#181818;stroke-width:0.5;"/><text fill="#000000" font-family="sans-serif" font-size="14" lengthAdjust="spacing" textLength="52" x="5" y="376.3867">Gerente</text><ellipse cx="34" cy="388.4004" fill="#E3E3E3" rx="8" ry="8" style="stroke:#181818;stroke-width:0.5;"/><path d="M34,396.4004 L34,423.4004 M21,404.4004 L47,404.4004 M34,423.4004 L21,438.4004 M34,423.4004 L47,438.4004 " fill="none" style="stroke:#181818;stroke-width:0.5;"/><rect fill="#E3E3E3" height="32.6211" rx="2.5" ry="2.5" style="stroke:#181818;stroke-width:0.5;" width="68" x="712" y="89.6211"/><text fill="#000000" font-family="sans-serif" font-size="14" lengthAdjust="spacing" textLength="54" x="719" y="111.7285">:Sistema</text><rect fill="#E3E3E3" height="32.6211" rx="2.5" ry="2.5" style="stroke:#181818;stroke-width:0.5;" width="68" x="712" y="361.2793"/><text fill="#000000" font-family="sans-serif" font-size="14" lengthAdjust="spacing" textLength="54" x="719" y="383.3867">:Sistema</text><rect fill="#FFFFFF" height="211.0371" style="stroke:#181818;stroke-width:1.0;" width="10" x="29" y="133.2422"/><rect fill="#FFFFFF" height="62.582" style="stroke:#181818;stroke-width:1.0;" width="10" x="741" y="156.5332"/><rect fill="#FFFFFF" height="31.291" style="stroke:#181818;stroke-width:1.0;" width="10" x="741" y="250.4063"/><rect fill="#FFFFFF" height="31.291" style="stroke:#181818;stroke-width:1.0;" width="10" x="741" y="312.9883"/><polygon fill="#181818" points="729,152.5332,739,156.5332,729,160.5332,733,156.5332" style="stroke:#181818;stroke-width:1.0;"/><line style="stroke:#181818;stroke-width:1.0;" x1="39" x2="735" y1="156.5332" y2="156.5332"/><text fill="#000000" font-family="sans-serif" font-size="13" font-weight="bold" lengthAdjust="spacing" textLength="7" x="46" y="151.2705">1</text><text fill="#000000" font-family="sans-serif" font-size="13" lengthAdjust="spacing" textLength="214" x="57" y="151.2705">Pede para abrir/fechar uma disciplina</text><polygon fill="#181818" points="50,183.8242,40,187.8242,50,191.8242,46,187.8242" style="stroke:#181818;stroke-width:1.0;"/><line style="stroke:#181818;stroke-width:1.0;stroke-dasharray:2.0,2.0;" x1="44" x2="740" y1="187.8242" y2="187.8242"/><text fill="#000000" font-family="sans-serif" font-size="13" font-weight="bold" lengthAdjust="spacing" textLength="7" x="56" y="182.5615">2</text><text fill="#000000" font-family="sans-serif" font-size="13" lengthAdjust="spacing" textLength="667" x="67" y="182.5615">Mostra informa&#231;&#227;o sobre disciplinas apenas criadas (estado close) e disciplinas em progresso (estado in_progress)</text><polygon fill="#181818" points="50,215.1152,40,219.1152,50,223.1152,46,219.1152" style="stroke:#181818;stroke-width:1.0;"/><line style="stroke:#181818;stroke-width:1.0;stroke-dasharray:2.0,2.0;" x1="44" x2="745" y1="219.1152" y2="219.1152"/><text fill="#000000" font-family="sans-serif" font-size="13" font-weight="bold" lengthAdjust="spacing" textLength="7" x="56" y="213.8525">3</text><text fill="#000000" font-family="sans-serif" font-size="13" lengthAdjust="spacing" textLength="181" x="67" y="213.8525">Pede para escolher a disciplina</text><polygon fill="#181818" points="729,246.4063,739,250.4063,729,254.4063,733,250.4063" style="stroke:#181818;stroke-width:1.0;"/><line style="stroke:#181818;stroke-width:1.0;" x1="39" x2="735" y1="250.4063" y2="250.4063"/><text fill="#000000" font-family="sans-serif" font-size="13" font-weight="bold" lengthAdjust="spacing" textLength="7" x="46" y="245.1436">4</text><text fill="#000000" font-family="sans-serif" font-size="13" lengthAdjust="spacing" textLength="263" x="57" y="245.1436">Escolhe a disciplina que pretende abrir/fechar</text><polygon fill="#181818" points="50,277.6973,40,281.6973,50,285.6973,46,281.6973" style="stroke:#181818;stroke-width:1.0;"/><line style="stroke:#181818;stroke-width:1.0;stroke-dasharray:2.0,2.0;" x1="44" x2="745" y1="281.6973" y2="281.6973"/><text fill="#000000" font-family="sans-serif" font-size="13" font-weight="bold" lengthAdjust="spacing" textLength="7" x="56" y="276.4346">5</text><text fill="#000000" font-family="sans-serif" font-size="13" lengthAdjust="spacing" textLength="495" x="67" y="276.4346">Mostra os dados da disciplina selecionada e pede confirma&#231;&#227;o da opera&#231;&#227;o a realizar</text><polygon fill="#181818" points="729,308.9883,739,312.9883,729,316.9883,733,312.9883" style="stroke:#181818;stroke-width:1.0;"/><line style="stroke:#181818;stroke-width:1.0;" x1="39" x2="735" y1="312.9883" y2="312.9883"/><text fill="#000000" font-family="sans-serif" font-size="13" font-weight="bold" lengthAdjust="spacing" textLength="7" x="46" y="307.7256">6</text><text fill="#000000" font-family="sans-serif" font-size="13" lengthAdjust="spacing" textLength="119" x="57" y="307.7256">Confirma a opera&#231;&#227;o</text><polygon fill="#181818" points="45,340.2793,35,344.2793,45,348.2793,41,344.2793" style="stroke:#181818;stroke-width:1.0;"/><line style="stroke:#181818;stroke-width:1.0;stroke-dasharray:2.0,2.0;" x1="39" x2="745" y1="344.2793" y2="344.2793"/><text fill="#000000" font-family="sans-serif" font-size="13" font-weight="bold" lengthAdjust="spacing" textLength="7" x="51" y="339.0166">7</text><text fill="#000000" font-family="sans-serif" font-size="13" lengthAdjust="spacing" textLength="181" x="62" y="339.0166">Informa o sucesso da opera&#231;&#227;o</text><!--SRC=[fLBBRjim4BphAnO-sGSZ3_JaGozD4UGGj82GSx6cLlB24bVPfHAalzD3FYG_bfKZAJBSecZ3WqYHmvcTuTgUOukA3JGI9UnK6eAa7MKsdRGOzbXHdfvg0gMGC5Rr760xBEIHOmKbraPPbZWvD7-oH0taTDzH30HNZ5KFN-RvrGhMS9V3nVdv9rX-QnDBXCjLXbsIs3LRqYp3a4HXSKrACT42q61OPowRE72BCS5YatElWmV4i3xSvWTCDDq17yCQrfz786pWEnK4lH70hRAUbHHsgD3vOS7cAZL7F5oVE4SL6CP8jdRYKMC3jsB9MJcMeWs-FB_y4Z3PAiru3R2bVWhAMFYy94kU9eHQZ5PmZFKqMvLAoKmc9CSVu-RgBnMzMoKBKkz8uSHaGISs_vpTrpUQ8nRmv_OoAL5qjNcc7mXH30etst_dKaOr1UyTZywZQdjxGMB9Kzw-Botfy8VUlbZppw6KVxBwPU25EUF_EBfvwmVmPkZ2uIMB4yhVLJRR6tlw5G00]--></g></svg>