<?xml version="1.0" encoding="us-ascii" standalone="no"?><svg xmlns="http://www.w3.org/2000/svg" xmlns:xlink="http://www.w3.org/1999/xlink" contentStyleType="text/css" height="979px" preserveAspectRatio="none" style="width:1408px;height:979px;background:#FFFFFF;" version="1.1" viewBox="0 0 1408 979" width="1408px" zoomAndPan="magnify"><defs/><g><text fill="#000000" font-family="sans-serif" font-size="14" font-weight="bold" lengthAdjust="spacing" textLength="201" x="596.75" y="25.1074">Class Diagram (CD) - US 3006</text><!--class CreatePostItUI--><g id="elem_CreatePostItUI"><rect codeLine="5" fill="#F1F1F1" height="79.2031" id="CreatePostItUI" rx="2.5" ry="2.5" style="stroke:#181818;stroke-width:0.5;" width="141" x="458" y="46.6211"/><ellipse cx="481.55" cy="68.9121" fill="#ADD1B2" rx="11" ry="11" style="stroke:#181818;stroke-width:1.0;"/><path d="M484.3156,64.7871 Q484.4719,64.5684 484.6594,64.459 Q484.8469,64.3496 485.0656,64.3496 Q485.4406,64.3496 485.675,64.6152 Q485.9094,64.8652 485.9094,65.4746 L485.9094,66.9277 Q485.9094,67.5371 485.675,67.8027 Q485.4406,68.0684 485.0656,68.0684 Q484.7219,68.0684 484.5188,67.8652 Q484.3156,67.6777 484.2063,67.1621 Q484.1594,66.8027 483.9719,66.6152 Q483.6438,66.2402 483.0344,66.0215 Q482.425,65.8027 481.8,65.8027 Q481.0344,65.8027 480.3938,66.1309 Q479.7688,66.459 479.2688,67.209 Q478.7844,67.959 478.7844,68.9902 L478.7844,70.084 Q478.7844,71.3184 479.675,72.1465 Q480.5656,72.959 482.1594,72.959 Q483.0969,72.959 483.7531,72.709 Q484.1438,72.5527 484.5656,72.1152 Q484.8313,71.8496 484.9719,71.7715 Q485.1281,71.6934 485.3313,71.6934 Q485.6594,71.6934 485.9094,71.959 Q486.175,72.209 486.175,72.5527 Q486.175,72.8965 485.8313,73.3027 Q485.3313,73.8809 484.5344,74.209 Q483.4563,74.6621 482.1594,74.6621 Q480.6438,74.6621 479.4406,74.0371 Q478.4563,73.5371 477.7688,72.4746 Q477.0813,71.3965 477.0813,70.1152 L477.0813,68.959 Q477.0813,67.6309 477.6906,66.4902 Q478.3156,65.334 479.4094,64.7246 Q480.5031,64.0996 481.7375,64.0996 Q482.4719,64.0996 483.1125,64.2715 Q483.7688,64.4277 484.3156,64.7871 Z " fill="#000000"/><text fill="#000000" font-family="sans-serif" font-size="12" font-style="italic" lengthAdjust="spacing" textLength="82" x="501.45" y="64.5703">&#171;presentation&#187;</text><text fill="#000000" font-family="sans-serif" font-size="14" lengthAdjust="spacing" textLength="90" x="497.45" y="82.6895">CreatePostItUI</text><line style="stroke:#181818;stroke-width:0.5;" x1="459" x2="598" y1="91.2031" y2="91.2031"/><line style="stroke:#181818;stroke-width:0.5;" x1="459" x2="598" y1="99.2031" y2="99.2031"/><polygon fill="#FFFF44" points="469,109.0137,473,113.0137,469,117.0137,465,113.0137" style="stroke:#B38D22;stroke-width:1.0;"/><text fill="#000000" font-family="sans-serif" font-size="14" lengthAdjust="spacing" textLength="115" x="478" y="118.3105">boolean doShow()</text></g><!--class Board--><g id="elem_Board"><rect codeLine="9" fill="#F1F1F1" height="284.0352" id="Board" rx="2.5" ry="2.5" style="stroke:#181818;stroke-width:0.5;" width="369" x="7" y="511.6211"/><ellipse cx="161.25" cy="533.9121" fill="#ADD1B2" rx="11" ry="11" style="stroke:#181818;stroke-width:1.0;"/><path d="M164.0156,529.7871 Q164.1719,529.5684 164.3594,529.459 Q164.5469,529.3496 164.7656,529.3496 Q165.1406,529.3496 165.375,529.6152 Q165.6094,529.8652 165.6094,530.4746 L165.6094,531.9277 Q165.6094,532.5371 165.375,532.8027 Q165.1406,533.0684 164.7656,533.0684 Q164.4219,533.0684 164.2188,532.8652 Q164.0156,532.6777 163.9063,532.1621 Q163.8594,531.8027 163.6719,531.6152 Q163.3438,531.2402 162.7344,531.0215 Q162.125,530.8027 161.5,530.8027 Q160.7344,530.8027 160.0938,531.1309 Q159.4688,531.459 158.9688,532.209 Q158.4844,532.959 158.4844,533.9902 L158.4844,535.084 Q158.4844,536.3184 159.375,537.1465 Q160.2656,537.959 161.8594,537.959 Q162.7969,537.959 163.4531,537.709 Q163.8438,537.5527 164.2656,537.1152 Q164.5313,536.8496 164.6719,536.7715 Q164.8281,536.6934 165.0313,536.6934 Q165.3594,536.6934 165.6094,536.959 Q165.875,537.209 165.875,537.5527 Q165.875,537.8965 165.5313,538.3027 Q165.0313,538.8809 164.2344,539.209 Q163.1563,539.6621 161.8594,539.6621 Q160.3438,539.6621 159.1406,539.0371 Q158.1563,538.5371 157.4688,537.4746 Q156.7813,536.3965 156.7813,535.1152 L156.7813,533.959 Q156.7813,532.6309 157.3906,531.4902 Q158.0156,530.334 159.1094,529.7246 Q160.2031,529.0996 161.4375,529.0996 Q162.1719,529.0996 162.8125,529.2715 Q163.4688,529.4277 164.0156,529.7871 Z " fill="#000000"/><text fill="#000000" font-family="sans-serif" font-size="12" font-style="italic" lengthAdjust="spacing" textLength="56" x="179.75" y="529.5703">&#171;domain&#187;</text><text fill="#000000" font-family="sans-serif" font-size="14" lengthAdjust="spacing" textLength="38" x="188.75" y="547.6895">Board</text><line style="stroke:#181818;stroke-width:0.5;" x1="8" x2="375" y1="556.2031" y2="556.2031"/><rect fill="none" height="6" style="stroke:#C82930;stroke-width:1.0;" width="6" x="15" y="568.0137"/><text fill="#000000" font-family="sans-serif" font-size="14" lengthAdjust="spacing" textLength="71" x="27" y="575.3105">title : String</text><rect fill="none" height="6" style="stroke:#C82930;stroke-width:1.0;" width="6" x="15" y="586.6348"/><text fill="#000000" font-family="sans-serif" font-size="14" lengthAdjust="spacing" textLength="117" x="27" y="593.9316">archived : boolean</text><rect fill="none" height="6" style="stroke:#C82930;stroke-width:1.0;" width="6" x="15" y="605.2559"/><text fill="#000000" font-family="sans-serif" font-size="14" lengthAdjust="spacing" textLength="317" x="27" y="612.5527">boardCreationDateTime : BoardCreationDateTime</text><rect fill="none" height="6" style="stroke:#C82930;stroke-width:1.0;" width="6" x="15" y="623.877"/><text fill="#000000" font-family="sans-serif" font-size="14" lengthAdjust="spacing" textLength="233" x="27" y="631.1738">boardDimensions : BoardDimensions</text><rect fill="none" height="6" style="stroke:#C82930;stroke-width:1.0;" width="6" x="15" y="642.498"/><text fill="#000000" font-family="sans-serif" font-size="14" lengthAdjust="spacing" textLength="154" x="27" y="649.7949">ownerUser: SystemUser;</text><rect fill="none" height="6" style="stroke:#C82930;stroke-width:1.0;" width="6" x="15" y="661.1191"/><text fill="#000000" font-family="sans-serif" font-size="14" lengthAdjust="spacing" textLength="301" x="27" y="668.416">boardElementLineSet : Set&lt;BoardElementLine&gt;</text><rect fill="none" height="6" style="stroke:#C82930;stroke-width:1.0;" width="6" x="15" y="679.7402"/><text fill="#000000" font-family="sans-serif" font-size="14" lengthAdjust="spacing" textLength="343" x="27" y="687.0371">boardElementColumnSet : Set&lt;BoardElementColumn&gt;</text><rect fill="none" height="6" style="stroke:#C82930;stroke-width:1.0;" width="6" x="15" y="698.3613"/><text fill="#000000" font-family="sans-serif" font-size="14" lengthAdjust="spacing" textLength="240" x="27" y="705.6582">boardMembers : Set&lt;BoardMembers&gt;</text><rect fill="none" height="6" style="stroke:#C82930;stroke-width:1.0;" width="6" x="15" y="716.9824"/><text fill="#000000" font-family="sans-serif" font-size="14" lengthAdjust="spacing" textLength="126" x="27" y="724.2793">postIts : List&lt;PostIt&gt;</text><line style="stroke:#181818;stroke-width:0.5;" x1="8" x2="375" y1="731.793" y2="731.793"/><ellipse cx="18" cy="746.6035" fill="#84BE84" rx="3" ry="3" style="stroke:#038048;stroke-width:1.0;"/><text fill="#000000" font-family="sans-serif" font-size="14" lengthAdjust="spacing" textLength="180" x="27" y="750.9004">void addPostIt(postIt : PostIt)</text><ellipse cx="18" cy="765.2246" fill="#84BE84" rx="3" ry="3" style="stroke:#038048;stroke-width:1.0;"/><text fill="#000000" font-family="sans-serif" font-size="14" lengthAdjust="spacing" textLength="282" x="27" y="769.5215">Set&lt;BoardElementLine&gt; boardElementLine()</text><ellipse cx="18" cy="783.8457" fill="#84BE84" rx="3" ry="3" style="stroke:#038048;stroke-width:1.0;"/><text fill="#000000" font-family="sans-serif" font-size="14" lengthAdjust="spacing" textLength="324" x="27" y="788.1426">Set&lt;BoardElementColumn&gt; boardElementColumn()</text></g><!--class PostIt--><g id="elem_PostIt"><rect codeLine="24" fill="#F1F1F1" height="172.3086" id="PostIt" rx="2.5" ry="2.5" style="stroke:#181818;stroke-width:0.5;" width="435" x="939" y="567.6211"/><ellipse cx="1126.25" cy="589.9121" fill="#ADD1B2" rx="11" ry="11" style="stroke:#181818;stroke-width:1.0;"/><path d="M1129.0156,585.7871 Q1129.1719,585.5684 1129.3594,585.459 Q1129.5469,585.3496 1129.7656,585.3496 Q1130.1406,585.3496 1130.375,585.6152 Q1130.6094,585.8652 1130.6094,586.4746 L1130.6094,587.9277 Q1130.6094,588.5371 1130.375,588.8027 Q1130.1406,589.0684 1129.7656,589.0684 Q1129.4219,589.0684 1129.2188,588.8652 Q1129.0156,588.6777 1128.9063,588.1621 Q1128.8594,587.8027 1128.6719,587.6152 Q1128.3438,587.2402 1127.7344,587.0215 Q1127.125,586.8027 1126.5,586.8027 Q1125.7344,586.8027 1125.0938,587.1309 Q1124.4688,587.459 1123.9688,588.209 Q1123.4844,588.959 1123.4844,589.9902 L1123.4844,591.084 Q1123.4844,592.3184 1124.375,593.1465 Q1125.2656,593.959 1126.8594,593.959 Q1127.7969,593.959 1128.4531,593.709 Q1128.8438,593.5527 1129.2656,593.1152 Q1129.5313,592.8496 1129.6719,592.7715 Q1129.8281,592.6934 1130.0313,592.6934 Q1130.3594,592.6934 1130.6094,592.959 Q1130.875,593.209 1130.875,593.5527 Q1130.875,593.8965 1130.5313,594.3027 Q1130.0313,594.8809 1129.2344,595.209 Q1128.1563,595.6621 1126.8594,595.6621 Q1125.3438,595.6621 1124.1406,595.0371 Q1123.1563,594.5371 1122.4688,593.4746 Q1121.7813,592.3965 1121.7813,591.1152 L1121.7813,589.959 Q1121.7813,588.6309 1122.3906,587.4902 Q1123.0156,586.334 1124.1094,585.7246 Q1125.2031,585.0996 1126.4375,585.0996 Q1127.1719,585.0996 1127.8125,585.2715 Q1128.4688,585.4277 1129.0156,585.7871 Z " fill="#000000"/><text fill="#000000" font-family="sans-serif" font-size="12" font-style="italic" lengthAdjust="spacing" textLength="56" x="1144.75" y="585.5703">&#171;domain&#187;</text><text fill="#000000" font-family="sans-serif" font-size="14" lengthAdjust="spacing" textLength="35" x="1155.25" y="603.6895">PostIt</text><line style="stroke:#181818;stroke-width:0.5;" x1="940" x2="1373" y1="612.2031" y2="612.2031"/><rect fill="none" height="6" style="stroke:#C82930;stroke-width:1.0;" width="6" x="947" y="624.0137"/><text fill="#000000" font-family="sans-serif" font-size="14" lengthAdjust="spacing" textLength="100" x="959" y="631.3105">content : String;</text><rect fill="none" height="6" style="stroke:#C82930;stroke-width:1.0;" width="6" x="947" y="642.6348"/><text fill="#000000" font-family="sans-serif" font-size="14" lengthAdjust="spacing" textLength="144" x="959" y="649.9316">time: PostItTimeStamp;</text><rect fill="none" height="6" style="stroke:#C82930;stroke-width:1.0;" width="6" x="947" y="661.2559"/><text fill="#000000" font-family="sans-serif" font-size="14" lengthAdjust="spacing" textLength="150" x="959" y="668.5527">position : PostItPosition;</text><rect fill="none" height="6" style="stroke:#C82930;stroke-width:1.0;" width="6" x="947" y="679.877"/><text fill="#000000" font-family="sans-serif" font-size="14" lengthAdjust="spacing" textLength="110" x="959" y="687.1738">type : PostItType;</text><rect fill="none" height="6" style="stroke:#C82930;stroke-width:1.0;" width="6" x="947" y="698.498"/><text fill="#000000" font-family="sans-serif" font-size="14" lengthAdjust="spacing" textLength="125" x="959" y="705.7949">status: PostItStatus;</text><line style="stroke:#181818;stroke-width:0.5;" x1="940" x2="1373" y1="713.3086" y2="713.3086"/><polygon fill="#FFFF44" points="950,723.1191,954,727.1191,950,731.1191,946,727.1191" style="stroke:#B38D22;stroke-width:1.0;"/><text fill="#000000" font-family="sans-serif" font-size="14" lengthAdjust="spacing" textLength="409" x="959" y="732.416">PostIt(content : String, position : PostItPosition, type : PostItType)</text></g><!--class SystemUser--><g id="elem_SystemUser"><rect codeLine="33" fill="#F1F1F1" height="60.582" id="SystemUser" rx="2.5" ry="2.5" style="stroke:#181818;stroke-width:0.5;" width="107" x="411" y="623.1211"/><ellipse cx="426" cy="645.4121" fill="#ADD1B2" rx="11" ry="11" style="stroke:#181818;stroke-width:1.0;"/><path d="M428.7656,641.2871 Q428.9219,641.0684 429.1094,640.959 Q429.2969,640.8496 429.5156,640.8496 Q429.8906,640.8496 430.125,641.1152 Q430.3594,641.3652 430.3594,641.9746 L430.3594,643.4277 Q430.3594,644.0371 430.125,644.3027 Q429.8906,644.5684 429.5156,644.5684 Q429.1719,644.5684 428.9688,644.3652 Q428.7656,644.1777 428.6563,643.6621 Q428.6094,643.3027 428.4219,643.1152 Q428.0938,642.7402 427.4844,642.5215 Q426.875,642.3027 426.25,642.3027 Q425.4844,642.3027 424.8438,642.6309 Q424.2188,642.959 423.7188,643.709 Q423.2344,644.459 423.2344,645.4902 L423.2344,646.584 Q423.2344,647.8184 424.125,648.6465 Q425.0156,649.459 426.6094,649.459 Q427.5469,649.459 428.2031,649.209 Q428.5938,649.0527 429.0156,648.6152 Q429.2813,648.3496 429.4219,648.2715 Q429.5781,648.1934 429.7813,648.1934 Q430.1094,648.1934 430.3594,648.459 Q430.625,648.709 430.625,649.0527 Q430.625,649.3965 430.2813,649.8027 Q429.7813,650.3809 428.9844,650.709 Q427.9063,651.1621 426.6094,651.1621 Q425.0938,651.1621 423.8906,650.5371 Q422.9063,650.0371 422.2188,648.9746 Q421.5313,647.8965 421.5313,646.6152 L421.5313,645.459 Q421.5313,644.1309 422.1406,642.9902 Q422.7656,641.834 423.8594,641.2246 Q424.9531,640.5996 426.1875,640.5996 Q426.9219,640.5996 427.5625,640.7715 Q428.2188,640.9277 428.7656,641.2871 Z " fill="#000000"/><text fill="#000000" font-family="sans-serif" font-size="12" font-style="italic" lengthAdjust="spacing" textLength="56" x="449.5" y="641.0703">&#171;domain&#187;</text><text fill="#000000" font-family="sans-serif" font-size="14" lengthAdjust="spacing" textLength="75" x="440" y="659.1895">SystemUser</text><line style="stroke:#181818;stroke-width:0.5;" x1="412" x2="517" y1="667.7031" y2="667.7031"/><line style="stroke:#181818;stroke-width:0.5;" x1="412" x2="517" y1="675.7031" y2="675.7031"/></g><!--class Username--><g id="elem_Username"><rect codeLine="34" fill="#F1F1F1" height="60.582" id="Username" rx="2.5" ry="2.5" style="stroke:#181818;stroke-width:0.5;" width="96" x="296.5" y="893.1211"/><ellipse cx="311.5" cy="915.4121" fill="#ADD1B2" rx="11" ry="11" style="stroke:#181818;stroke-width:1.0;"/><path d="M314.2656,911.2871 Q314.4219,911.0684 314.6094,910.959 Q314.7969,910.8496 315.0156,910.8496 Q315.3906,910.8496 315.625,911.1152 Q315.8594,911.3652 315.8594,911.9746 L315.8594,913.4277 Q315.8594,914.0371 315.625,914.3027 Q315.3906,914.5684 315.0156,914.5684 Q314.6719,914.5684 314.4688,914.3652 Q314.2656,914.1777 314.1563,913.6621 Q314.1094,913.3027 313.9219,913.1152 Q313.5938,912.7402 312.9844,912.5215 Q312.375,912.3027 311.75,912.3027 Q310.9844,912.3027 310.3438,912.6309 Q309.7188,912.959 309.2188,913.709 Q308.7344,914.459 308.7344,915.4902 L308.7344,916.584 Q308.7344,917.8184 309.625,918.6465 Q310.5156,919.459 312.1094,919.459 Q313.0469,919.459 313.7031,919.209 Q314.0938,919.0527 314.5156,918.6152 Q314.7813,918.3496 314.9219,918.2715 Q315.0781,918.1934 315.2813,918.1934 Q315.6094,918.1934 315.8594,918.459 Q316.125,918.709 316.125,919.0527 Q316.125,919.3965 315.7813,919.8027 Q315.2813,920.3809 314.4844,920.709 Q313.4063,921.1621 312.1094,921.1621 Q310.5938,921.1621 309.3906,920.5371 Q308.4063,920.0371 307.7188,918.9746 Q307.0313,917.8965 307.0313,916.6152 L307.0313,915.459 Q307.0313,914.1309 307.6406,912.9902 Q308.2656,911.834 309.3594,911.2246 Q310.4531,910.5996 311.6875,910.5996 Q312.4219,910.5996 313.0625,910.7715 Q313.7188,910.9277 314.2656,911.2871 Z " fill="#000000"/><text fill="#000000" font-family="sans-serif" font-size="12" font-style="italic" lengthAdjust="spacing" textLength="56" x="329.5" y="911.0703">&#171;domain&#187;</text><text fill="#000000" font-family="sans-serif" font-size="14" lengthAdjust="spacing" textLength="64" x="325.5" y="929.1895">Username</text><line style="stroke:#181818;stroke-width:0.5;" x1="297.5" x2="391.5" y1="937.7031" y2="937.7031"/><line style="stroke:#181818;stroke-width:0.5;" x1="297.5" x2="391.5" y1="945.7031" y2="945.7031"/></g><!--class PostItBuilder--><g id="elem_PostItBuilder"><rect codeLine="37" fill="#F1F1F1" height="228.1719" id="PostItBuilder" rx="2.5" ry="2.5" style="stroke:#181818;stroke-width:0.5;" width="490" x="911.5" y="204.6211"/><ellipse cx="1112.75" cy="226.9121" fill="#ADD1B2" rx="11" ry="11" style="stroke:#181818;stroke-width:1.0;"/><path d="M1115.5156,222.7871 Q1115.6719,222.5684 1115.8594,222.459 Q1116.0469,222.3496 1116.2656,222.3496 Q1116.6406,222.3496 1116.875,222.6152 Q1117.1094,222.8652 1117.1094,223.4746 L1117.1094,224.9277 Q1117.1094,225.5371 1116.875,225.8027 Q1116.6406,226.0684 1116.2656,226.0684 Q1115.9219,226.0684 1115.7188,225.8652 Q1115.5156,225.6777 1115.4063,225.1621 Q1115.3594,224.8027 1115.1719,224.6152 Q1114.8438,224.2402 1114.2344,224.0215 Q1113.625,223.8027 1113,223.8027 Q1112.2344,223.8027 1111.5938,224.1309 Q1110.9688,224.459 1110.4688,225.209 Q1109.9844,225.959 1109.9844,226.9902 L1109.9844,228.084 Q1109.9844,229.3184 1110.875,230.1465 Q1111.7656,230.959 1113.3594,230.959 Q1114.2969,230.959 1114.9531,230.709 Q1115.3438,230.5527 1115.7656,230.1152 Q1116.0313,229.8496 1116.1719,229.7715 Q1116.3281,229.6934 1116.5313,229.6934 Q1116.8594,229.6934 1117.1094,229.959 Q1117.375,230.209 1117.375,230.5527 Q1117.375,230.8965 1117.0313,231.3027 Q1116.5313,231.8809 1115.7344,232.209 Q1114.6563,232.6621 1113.3594,232.6621 Q1111.8438,232.6621 1110.6406,232.0371 Q1109.6563,231.5371 1108.9688,230.4746 Q1108.2813,229.3965 1108.2813,228.1152 L1108.2813,226.959 Q1108.2813,225.6309 1108.8906,224.4902 Q1109.5156,223.334 1110.6094,222.7246 Q1111.7031,222.0996 1112.9375,222.0996 Q1113.6719,222.0996 1114.3125,222.2715 Q1114.9688,222.4277 1115.5156,222.7871 Z " fill="#000000"/><text fill="#000000" font-family="sans-serif" font-size="12" font-style="italic" lengthAdjust="spacing" textLength="56" x="1144.75" y="222.5703">&#171;domain&#187;</text><text fill="#000000" font-family="sans-serif" font-size="14" lengthAdjust="spacing" textLength="79" x="1133.25" y="240.6895">PostItBuilder</text><line style="stroke:#181818;stroke-width:0.5;" x1="912.5" x2="1400.5" y1="249.2031" y2="249.2031"/><rect fill="none" height="6" style="stroke:#C82930;stroke-width:1.0;" width="6" x="919.5" y="261.0137"/><text fill="#000000" font-family="sans-serif" font-size="14" lengthAdjust="spacing" textLength="100" x="931.5" y="268.3105">content : String;</text><rect fill="none" height="6" style="stroke:#C82930;stroke-width:1.0;" width="6" x="919.5" y="279.6348"/><text fill="#000000" font-family="sans-serif" font-size="14" lengthAdjust="spacing" textLength="150" x="931.5" y="286.9316">position : PostItPosition;</text><rect fill="none" height="6" style="stroke:#C82930;stroke-width:1.0;" width="6" x="919.5" y="298.2559"/><text fill="#000000" font-family="sans-serif" font-size="14" lengthAdjust="spacing" textLength="110" x="931.5" y="305.5527">type : PostItType;</text><line style="stroke:#181818;stroke-width:0.5;" x1="912.5" x2="1400.5" y1="313.0664" y2="313.0664"/><ellipse cx="922.5" cy="327.877" fill="#84BE84" rx="3" ry="3" style="stroke:#038048;stroke-width:1.0;"/><text fill="#000000" font-family="sans-serif" font-size="14" lengthAdjust="spacing" textLength="464" x="931.5" y="332.1738">PostItBuilder with(content : String, line : int, column : int, type : PostItType)</text><ellipse cx="922.5" cy="346.498" fill="#84BE84" rx="3" ry="3" style="stroke:#038048;stroke-width:1.0;"/><text fill="#000000" font-family="sans-serif" font-size="14" lengthAdjust="spacing" textLength="263" x="931.5" y="350.7949">PostItBuilder withContent(content : String)</text><ellipse cx="922.5" cy="365.1191" fill="#84BE84" rx="3" ry="3" style="stroke:#038048;stroke-width:1.0;"/><text fill="#000000" font-family="sans-serif" font-size="14" lengthAdjust="spacing" textLength="296" x="931.5" y="369.416">PostItBuilder withPosition(line : int, column : int)</text><ellipse cx="922.5" cy="383.7402" fill="#84BE84" rx="3" ry="3" style="stroke:#038048;stroke-width:1.0;"/><text fill="#000000" font-family="sans-serif" font-size="14" lengthAdjust="spacing" textLength="255" x="931.5" y="388.0371">PostItBuilder withType(type : PostItType)</text><ellipse cx="922.5" cy="402.3613" fill="#84BE84" rx="3" ry="3" style="stroke:#038048;stroke-width:1.0;"/><text fill="#000000" font-family="sans-serif" font-size="14" lengthAdjust="spacing" textLength="297" x="931.5" y="406.6582">PostItBuilder withCreator(creator : SystemUser)</text><ellipse cx="922.5" cy="420.9824" fill="#84BE84" rx="3" ry="3" style="stroke:#038048;stroke-width:1.0;"/><text fill="#000000" font-family="sans-serif" font-size="14" lengthAdjust="spacing" textLength="79" x="931.5" y="425.2793">PostIt build()</text></g><!--class CreatePostItController--><g id="elem_CreatePostItController"><rect codeLine="49" fill="#F1F1F1" height="135.0664" id="CreatePostItController" rx="2.5" ry="2.5" style="stroke:#181818;stroke-width:0.5;" width="616" x="220.5" y="251.1211"/><ellipse cx="454.25" cy="273.4121" fill="#ADD1B2" rx="11" ry="11" style="stroke:#181818;stroke-width:1.0;"/><path d="M457.0156,269.2871 Q457.1719,269.0684 457.3594,268.959 Q457.5469,268.8496 457.7656,268.8496 Q458.1406,268.8496 458.375,269.1152 Q458.6094,269.3652 458.6094,269.9746 L458.6094,271.4277 Q458.6094,272.0371 458.375,272.3027 Q458.1406,272.5684 457.7656,272.5684 Q457.4219,272.5684 457.2188,272.3652 Q457.0156,272.1777 456.9063,271.6621 Q456.8594,271.3027 456.6719,271.1152 Q456.3438,270.7402 455.7344,270.5215 Q455.125,270.3027 454.5,270.3027 Q453.7344,270.3027 453.0938,270.6309 Q452.4688,270.959 451.9688,271.709 Q451.4844,272.459 451.4844,273.4902 L451.4844,274.584 Q451.4844,275.8184 452.375,276.6465 Q453.2656,277.459 454.8594,277.459 Q455.7969,277.459 456.4531,277.209 Q456.8438,277.0527 457.2656,276.6152 Q457.5313,276.3496 457.6719,276.2715 Q457.8281,276.1934 458.0313,276.1934 Q458.3594,276.1934 458.6094,276.459 Q458.875,276.709 458.875,277.0527 Q458.875,277.3965 458.5313,277.8027 Q458.0313,278.3809 457.2344,278.709 Q456.1563,279.1621 454.8594,279.1621 Q453.3438,279.1621 452.1406,278.5371 Q451.1563,278.0371 450.4688,276.9746 Q449.7813,275.8965 449.7813,274.6152 L449.7813,273.459 Q449.7813,272.1309 450.3906,270.9902 Q451.0156,269.834 452.1094,269.2246 Q453.2031,268.5996 454.4375,268.5996 Q455.1719,268.5996 455.8125,268.7715 Q456.4688,268.9277 457.0156,269.2871 Z " fill="#000000"/><text fill="#000000" font-family="sans-serif" font-size="12" font-style="italic" lengthAdjust="spacing" textLength="74" x="507.75" y="269.0703">&#171;application&#187;</text><text fill="#000000" font-family="sans-serif" font-size="14" lengthAdjust="spacing" textLength="140" x="474.75" y="287.1895">CreatePostItController</text><line style="stroke:#181818;stroke-width:0.5;" x1="221.5" x2="835.5" y1="295.7031" y2="295.7031"/><line style="stroke:#181818;stroke-width:0.5;" x1="221.5" x2="835.5" y1="303.7031" y2="303.7031"/><ellipse cx="231.5" cy="318.5137" fill="#84BE84" rx="3" ry="3" style="stroke:#038048;stroke-width:1.0;"/><text fill="#000000" font-family="sans-serif" font-size="14" lengthAdjust="spacing" textLength="322" x="240.5" y="322.8105">Iterable&lt;Board&gt; listAllBoardsWithPermissionWrite()</text><ellipse cx="231.5" cy="337.1348" fill="#84BE84" rx="3" ry="3" style="stroke:#038048;stroke-width:1.0;"/><text fill="#000000" font-family="sans-serif" font-size="14" lengthAdjust="spacing" textLength="456" x="240.5" y="341.4316">Iterable&lt;BoardElementLine&gt; listAllBoardElementLines(theBoard : Board)</text><ellipse cx="231.5" cy="355.7559" fill="#84BE84" rx="3" ry="3" style="stroke:#038048;stroke-width:1.0;"/><text fill="#000000" font-family="sans-serif" font-size="14" lengthAdjust="spacing" textLength="498" x="240.5" y="360.0527">Iterable&lt;BoardElementColumn&gt; listAllBoardElementColumns(theBoard : Board)</text><ellipse cx="231.5" cy="374.377" fill="#84BE84" rx="3" ry="3" style="stroke:#038048;stroke-width:1.0;"/><text fill="#000000" font-family="sans-serif" font-size="14" lengthAdjust="spacing" textLength="590" x="240.5" y="378.6738">Board createPostIt(theBoard : Board, content : String, line : int, column : int, type : PostItType)</text></g><!--class BoardRepository--><g id="elem_BoardRepository"><rect codeLine="56" fill="#F1F1F1" height="97.8242" id="BoardRepository" rx="2.5" ry="2.5" style="stroke:#181818;stroke-width:0.5;" width="462" x="857.5" y="874.6211"/><ellipse cx="1031.25" cy="896.9121" fill="#B4A7E5" rx="11" ry="11" style="stroke:#181818;stroke-width:1.0;"/><path d="M1032.2031,893.5527 L1032.2031,900.209 L1033.9219,900.209 Q1034.5313,900.209 1034.7969,900.4434 Q1035.0625,900.6777 1035.0625,901.0684 Q1035.0625,901.4434 1034.7969,901.6777 Q1034.5313,901.9121 1033.9219,901.9121 L1028.7813,901.9121 Q1028.1719,901.9121 1027.9063,901.6777 Q1027.6406,901.4434 1027.6406,901.0527 Q1027.6406,900.6777 1027.9063,900.4434 Q1028.1719,900.209 1028.7813,900.209 L1030.5,900.209 L1030.5,893.5527 L1028.7813,893.5527 Q1028.1719,893.5527 1027.9063,893.3184 Q1027.6406,893.084 1027.6406,892.6934 Q1027.6406,892.3184 1027.9063,892.084 Q1028.1719,891.8496 1028.7813,891.8496 L1033.9219,891.8496 Q1034.5313,891.8496 1034.7969,892.084 Q1035.0625,892.3184 1035.0625,892.6934 Q1035.0625,893.084 1034.7969,893.3184 Q1034.5313,893.5527 1033.9219,893.5527 L1032.2031,893.5527 Z " fill="#000000"/><text fill="#000000" font-family="sans-serif" font-size="12" font-style="italic" lengthAdjust="spacing" textLength="78" x="1065.75" y="892.5703">&#171;repositories&#187;</text><text fill="#000000" font-family="sans-serif" font-size="14" font-style="italic" lengthAdjust="spacing" textLength="106" x="1051.75" y="910.6895">BoardRepository</text><line style="stroke:#181818;stroke-width:0.5;" x1="858.5" x2="1318.5" y1="919.2031" y2="919.2031"/><line style="stroke:#181818;stroke-width:0.5;" x1="858.5" x2="1318.5" y1="927.2031" y2="927.2031"/><ellipse cx="868.5" cy="942.0137" fill="#84BE84" rx="3" ry="3" style="stroke:#038048;stroke-width:1.0;"/><text fill="#000000" font-family="sans-serif" font-size="14" lengthAdjust="spacing" textLength="436" x="877.5" y="946.3105">Iterable&lt;Board&gt; findAllBoardsWithPermissionWrite(user : Username);</text><ellipse cx="868.5" cy="960.6348" fill="#84BE84" rx="3" ry="3" style="stroke:#038048;stroke-width:1.0;"/><text fill="#000000" font-family="sans-serif" font-size="14" lengthAdjust="spacing" textLength="190" x="877.5" y="964.9316">Board save(theBoard : Board)</text></g><!--class JpaBoardRepository--><g id="elem_JpaBoardRepository"><rect codeLine="61" fill="#F1F1F1" height="60.582" id="JpaBoardRepository" rx="2.5" ry="2.5" style="stroke:#181818;stroke-width:0.5;" width="160" x="427.5" y="893.1211"/><ellipse cx="442.5" cy="915.4121" fill="#ADD1B2" rx="11" ry="11" style="stroke:#181818;stroke-width:1.0;"/><path d="M445.2656,911.2871 Q445.4219,911.0684 445.6094,910.959 Q445.7969,910.8496 446.0156,910.8496 Q446.3906,910.8496 446.625,911.1152 Q446.8594,911.3652 446.8594,911.9746 L446.8594,913.4277 Q446.8594,914.0371 446.625,914.3027 Q446.3906,914.5684 446.0156,914.5684 Q445.6719,914.5684 445.4688,914.3652 Q445.2656,914.1777 445.1563,913.6621 Q445.1094,913.3027 444.9219,913.1152 Q444.5938,912.7402 443.9844,912.5215 Q443.375,912.3027 442.75,912.3027 Q441.9844,912.3027 441.3438,912.6309 Q440.7188,912.959 440.2188,913.709 Q439.7344,914.459 439.7344,915.4902 L439.7344,916.584 Q439.7344,917.8184 440.625,918.6465 Q441.5156,919.459 443.1094,919.459 Q444.0469,919.459 444.7031,919.209 Q445.0938,919.0527 445.5156,918.6152 Q445.7813,918.3496 445.9219,918.2715 Q446.0781,918.1934 446.2813,918.1934 Q446.6094,918.1934 446.8594,918.459 Q447.125,918.709 447.125,919.0527 Q447.125,919.3965 446.7813,919.8027 Q446.2813,920.3809 445.4844,920.709 Q444.4063,921.1621 443.1094,921.1621 Q441.5938,921.1621 440.3906,920.5371 Q439.4063,920.0371 438.7188,918.9746 Q438.0313,917.8965 438.0313,916.6152 L438.0313,915.459 Q438.0313,914.1309 438.6406,912.9902 Q439.2656,911.834 440.3594,911.2246 Q441.4531,910.5996 442.6875,910.5996 Q443.4219,910.5996 444.0625,910.7715 Q444.7188,910.9277 445.2656,911.2871 Z " fill="#000000"/><text fill="#000000" font-family="sans-serif" font-size="12" font-style="italic" lengthAdjust="spacing" textLength="77" x="482" y="911.0703">&#171;persistence&#187;</text><text fill="#000000" font-family="sans-serif" font-size="14" lengthAdjust="spacing" textLength="128" x="456.5" y="929.1895">JpaBoardRepository</text><line style="stroke:#181818;stroke-width:0.5;" x1="428.5" x2="586.5" y1="937.7031" y2="937.7031"/><line style="stroke:#181818;stroke-width:0.5;" x1="428.5" x2="586.5" y1="945.7031" y2="945.7031"/></g><!--class InMemoryBoardRepository--><g id="elem_InMemoryBoardRepository"><rect codeLine="62" fill="#F1F1F1" height="60.582" id="InMemoryBoardRepository" rx="2.5" ry="2.5" style="stroke:#181818;stroke-width:0.5;" width="199" x="623" y="893.1211"/><ellipse cx="638" cy="915.4121" fill="#ADD1B2" rx="11" ry="11" style="stroke:#181818;stroke-width:1.0;"/><path d="M640.7656,911.2871 Q640.9219,911.0684 641.1094,910.959 Q641.2969,910.8496 641.5156,910.8496 Q641.8906,910.8496 642.125,911.1152 Q642.3594,911.3652 642.3594,911.9746 L642.3594,913.4277 Q642.3594,914.0371 642.125,914.3027 Q641.8906,914.5684 641.5156,914.5684 Q641.1719,914.5684 640.9688,914.3652 Q640.7656,914.1777 640.6563,913.6621 Q640.6094,913.3027 640.4219,913.1152 Q640.0938,912.7402 639.4844,912.5215 Q638.875,912.3027 638.25,912.3027 Q637.4844,912.3027 636.8438,912.6309 Q636.2188,912.959 635.7188,913.709 Q635.2344,914.459 635.2344,915.4902 L635.2344,916.584 Q635.2344,917.8184 636.125,918.6465 Q637.0156,919.459 638.6094,919.459 Q639.5469,919.459 640.2031,919.209 Q640.5938,919.0527 641.0156,918.6152 Q641.2813,918.3496 641.4219,918.2715 Q641.5781,918.1934 641.7813,918.1934 Q642.1094,918.1934 642.3594,918.459 Q642.625,918.709 642.625,919.0527 Q642.625,919.3965 642.2813,919.8027 Q641.7813,920.3809 640.9844,920.709 Q639.9063,921.1621 638.6094,921.1621 Q637.0938,921.1621 635.8906,920.5371 Q634.9063,920.0371 634.2188,918.9746 Q633.5313,917.8965 633.5313,916.6152 L633.5313,915.459 Q633.5313,914.1309 634.1406,912.9902 Q634.7656,911.834 635.8594,911.2246 Q636.9531,910.5996 638.1875,910.5996 Q638.9219,910.5996 639.5625,910.7715 Q640.2188,910.9277 640.7656,911.2871 Z " fill="#000000"/><text fill="#000000" font-family="sans-serif" font-size="12" font-style="italic" lengthAdjust="spacing" textLength="77" x="697" y="911.0703">&#171;persistence&#187;</text><text fill="#000000" font-family="sans-serif" font-size="14" lengthAdjust="spacing" textLength="167" x="652" y="929.1895">InMemoryBoardRepository</text><line style="stroke:#181818;stroke-width:0.5;" x1="624" x2="821" y1="937.7031" y2="937.7031"/><line style="stroke:#181818;stroke-width:0.5;" x1="624" x2="821" y1="945.7031" y2="945.7031"/></g><!--class CsvSharedBoardProtocolProxy--><g id="elem_CsvSharedBoardProtocolProxy"><rect codeLine="64" fill="#F1F1F1" height="97.8242" id="CsvSharedBoardProtocolProxy" rx="2.5" ry="2.5" style="stroke:#181818;stroke-width:0.5;" width="351" x="553" y="604.6211"/><ellipse cx="626.75" cy="626.9121" fill="#ADD1B2" rx="11" ry="11" style="stroke:#181818;stroke-width:1.0;"/><path d="M629.5156,622.7871 Q629.6719,622.5684 629.8594,622.459 Q630.0469,622.3496 630.2656,622.3496 Q630.6406,622.3496 630.875,622.6152 Q631.1094,622.8652 631.1094,623.4746 L631.1094,624.9277 Q631.1094,625.5371 630.875,625.8027 Q630.6406,626.0684 630.2656,626.0684 Q629.9219,626.0684 629.7188,625.8652 Q629.5156,625.6777 629.4063,625.1621 Q629.3594,624.8027 629.1719,624.6152 Q628.8438,624.2402 628.2344,624.0215 Q627.625,623.8027 627,623.8027 Q626.2344,623.8027 625.5938,624.1309 Q624.9688,624.459 624.4688,625.209 Q623.9844,625.959 623.9844,626.9902 L623.9844,628.084 Q623.9844,629.3184 624.875,630.1465 Q625.7656,630.959 627.3594,630.959 Q628.2969,630.959 628.9531,630.709 Q629.3438,630.5527 629.7656,630.1152 Q630.0313,629.8496 630.1719,629.7715 Q630.3281,629.6934 630.5313,629.6934 Q630.8594,629.6934 631.1094,629.959 Q631.375,630.209 631.375,630.5527 Q631.375,630.8965 631.0313,631.3027 Q630.5313,631.8809 629.7344,632.209 Q628.6563,632.6621 627.3594,632.6621 Q625.8438,632.6621 624.6406,632.0371 Q623.6563,631.5371 622.9688,630.4746 Q622.2813,629.3965 622.2813,628.1152 L622.2813,626.959 Q622.2813,625.6309 622.8906,624.4902 Q623.5156,623.334 624.6094,622.7246 Q625.7031,622.0996 626.9375,622.0996 Q627.6719,622.0996 628.3125,622.2715 Q628.9688,622.4277 629.5156,622.7871 Z " fill="#000000"/><text fill="#000000" font-family="sans-serif" font-size="12" font-style="italic" lengthAdjust="spacing" textLength="76" x="706.75" y="622.5703">&#171;csvprotocol&#187;</text><text fill="#000000" font-family="sans-serif" font-size="14" lengthAdjust="spacing" textLength="195" x="647.25" y="640.6895">CsvSharedBoardProtocolProxy</text><line style="stroke:#181818;stroke-width:0.5;" x1="554" x2="903" y1="649.2031" y2="649.2031"/><line style="stroke:#181818;stroke-width:0.5;" x1="554" x2="903" y1="657.2031" y2="657.2031"/><ellipse cx="564" cy="672.0137" fill="#84BE84" rx="3" ry="3" style="stroke:#038048;stroke-width:1.0;"/><text fill="#000000" font-family="sans-serif" font-size="14" lengthAdjust="spacing" textLength="325" x="573" y="676.3105">Iterable&lt;Board&gt; getAllBoardsWithPermissionWrite()</text><ellipse cx="564" cy="690.6348" fill="#84BE84" rx="3" ry="3" style="stroke:#038048;stroke-width:1.0;"/><text fill="#000000" font-family="sans-serif" font-size="14" lengthAdjust="spacing" textLength="228" x="573" y="694.9316">Board saveBoard(theBoard : Board)</text></g><!--link CreatePostItUI to CreatePostItController--><g id="link_CreatePostItUI_CreatePostItController"><path codeLine="70" d="M528.5,125.7011 C528.5,158.3311 528.5,205.9511 528.5,245.6011 " fill="none" id="CreatePostItUI-to-CreatePostItController" style="stroke:#181818;stroke-width:1.0;"/><polygon fill="#181818" points="528.5,250.8911,532.5,241.8911,528.5,245.8911,524.5,241.8911,528.5,250.8911" style="stroke:#181818;stroke-width:1.0;"/><text fill="#000000" font-family="sans-serif" font-size="13" lengthAdjust="spacing" textLength="73" x="529.5" y="170.6494">theController</text></g><!--link CreatePostItController to CsvSharedBoardProtocolProxy--><g id="link_CreatePostItController_CsvSharedBoardProtocolProxy"><path codeLine="71" d="M568.49,386.2111 C606.27,449.1011 662.17,542.1811 696.91,600.0211 " fill="none" id="CreatePostItController-to-CsvSharedBoardProtocolProxy" style="stroke:#181818;stroke-width:1.0;"/><polygon fill="#181818" points="699.58,604.4711,698.3556,594.6986,696.997,600.1899,691.5057,598.8314,699.58,604.4711" style="stroke:#181818;stroke-width:1.0;"/><text fill="#000000" font-family="sans-serif" font-size="13" lengthAdjust="spacing" textLength="32" x="624.5" y="477.6494">proxy</text></g><!--link CreatePostItController to Board--><g id="link_CreatePostItController_Board"><path codeLine="72" d="M461.11,386.2111 C425.71,421.1911 380.85,465.5111 337.94,507.9211 " fill="none" id="CreatePostItController-to-Board" style="stroke:#181818;stroke-width:1.0;"/><polygon fill="#181818" points="334.33,511.4911,343.5436,508.0113,337.8869,507.9771,337.9212,502.3203,334.33,511.4911" style="stroke:#181818;stroke-width:1.0;"/><text fill="#000000" font-family="sans-serif" font-size="13" lengthAdjust="spacing" textLength="52" x="381.5" y="477.6494">theBoard</text></g><!--link CreatePostItController to PostIt--><g id="link_CreatePostItController_PostIt"><path codeLine="73" d="M672.35,386.2511 C747.4,421.9211 840.25,467.5011 921.5,511.6211 C951.99,528.1711 984.17,546.7411 1014.61,564.8211 " fill="none" id="CreatePostItController-to-PostIt" style="stroke:#181818;stroke-width:1.0;"/><polygon fill="#181818" points="1019.09,567.4811,1013.399,559.4429,1014.7925,564.9254,1009.31,566.3189,1019.09,567.4811" style="stroke:#181818;stroke-width:1.0;"/><text fill="#000000" font-family="sans-serif" font-size="13" lengthAdjust="spacing" textLength="52" x="859.5" y="477.6494">thePostIt</text></g><!--link CreatePostItController to PostItBuilder--><g id="link_CreatePostItController_PostItBuilder"><path codeLine="74" d="M836.52,318.6211 C859.9,318.6211 883.33,318.6211 906.28,318.6211 " fill="none" id="CreatePostItController-to-PostItBuilder" style="stroke:#181818;stroke-width:1.0;"/><polygon fill="#181818" points="911.48,318.6211,902.48,314.6211,906.48,318.6211,902.48,322.6211,911.48,318.6211" style="stroke:#181818;stroke-width:1.0;"/><text fill="#000000" font-family="sans-serif" font-size="13" lengthAdjust="spacing" textLength="38" x="855" y="311.6494">builder</text></g><!--link CreatePostItController to SystemUser--><g id="link_CreatePostItController_SystemUser"><path codeLine="75" d="M515.7,386.2111 C502.27,456.0811 481.69,563.2011 471.18,617.8811 " fill="none" id="CreatePostItController-to-SystemUser" style="stroke:#181818;stroke-width:1.0;"/><polygon fill="#181818" points="470.19,623.0111,475.8185,614.929,471.1348,618.1012,467.9626,613.4174,470.19,623.0111" style="stroke:#181818;stroke-width:1.0;"/><text fill="#000000" font-family="sans-serif" font-size="13" lengthAdjust="spacing" textLength="25" x="501.5" y="477.6494">user</text></g><!--link CsvSharedBoardProtocolProxy to BoardRepository--><g id="link_CsvSharedBoardProtocolProxy_BoardRepository"><path codeLine="76" d="M793.28,702.8411 C857.16,750.4011 954.45,822.8211 1019.69,871.3911 " fill="none" id="CsvSharedBoardProtocolProxy-to-BoardRepository" style="stroke:#181818;stroke-width:1.0;"/><polygon fill="#181818" points="1023.94,874.5611,1019.1057,865.9804,1019.928,871.5771,1014.3313,872.3995,1023.94,874.5611" style="stroke:#181818;stroke-width:1.0;"/><text fill="#000000" font-family="sans-serif" font-size="13" lengthAdjust="spacing" textLength="62" x="982.5" y="840.6494">boardRepo</text></g><!--link SystemUser to Username--><g id="link_SystemUser_Username"><path codeLine="77" d="M451.2,684.3211 C428.81,734.3311 383.71,835.0511 359.95,888.1111 " fill="none" id="SystemUser-to-Username" style="stroke:#181818;stroke-width:1.0;"/><polygon fill="#181818" points="357.86,892.7811,365.1915,886.2047,359.9053,888.2185,357.8915,882.9323,357.86,892.7811" style="stroke:#181818;stroke-width:1.0;"/></g><!--link JpaBoardRepository to BoardRepository--><g id="link_JpaBoardRepository_BoardRepository"><path codeLine="78" d="M536.06,893.0111 C557.66,872.2411 589.27,846.5611 623,835.1211 C742.33,794.6611 885.5,834.2911 981.27,872.6611 " fill="none" id="JpaBoardRepository-to-BoardRepository" style="stroke:#181818;stroke-width:1.0;"/><polygon fill="#181818" points="986.08,874.6111,979.2467,867.5184,981.4475,872.7296,976.2363,874.9304,986.08,874.6111" style="stroke:#181818;stroke-width:1.0;"/></g><!--link InMemoryBoardRepository to BoardRepository--><g id="link_InMemoryBoardRepository_BoardRepository"><path codeLine="79" d="M822.22,923.6211 C832.19,923.6211 842.15,923.6211 852.11,923.6211 " fill="none" id="InMemoryBoardRepository-to-BoardRepository" style="stroke:#181818;stroke-width:1.0;"/><polygon fill="#181818" points="857.33,923.6211,848.33,919.6211,852.33,923.6211,848.33,927.6211,857.33,923.6211" style="stroke:#181818;stroke-width:1.0;"/></g><!--link PostItBuilder to PostIt--><g id="link_PostItBuilder_PostIt"><path codeLine="82" d="M1156.5,432.8211 C1156.5,475.0511 1156.5,522.3911 1156.5,562.2811 " fill="none" id="PostItBuilder-to-PostIt" style="stroke:#181818;stroke-width:1.0;stroke-dasharray:7.0,7.0;"/><polygon fill="#181818" points="1156.5,567.6111,1160.5,558.6111,1156.5,562.6111,1152.5,558.6111,1156.5,567.6111" style="stroke:#181818;stroke-width:1.0;"/></g><!--SRC=[fLRDQzim5B_hhn3qK8SsK1Ziu8J0akoGqOqmj_GmTb3irqHWIqPIqfNH_trFbkN8yGVTbekjztw_f_Vj66voeAkSQKtNdEqLAsYqMa_eb3uczCFTtKT2hYirQ99Mi9K2Pc0hjTcOnmsTpqi56eHXXaknMD3VXEBlQYTb3apGJ2O7-H9Do1kf3ImbKndoCbamVcPCJULBJ1EZkDWx6LFfWPyWGt5jqCbtraRb2LwwHdyUU66vopvvG5dZKMZKQGy-InnClWXGZneKElAg3HJsVHQO-9m3Cimz5v20iVw2cIylD8ikOINpOo7wAKuNahv2iGEbGsmjgb5bLG0BkEVQp5qzdExc97b6MPOvOUIWY7JdYGFrkaqlGum6qBN7j1jXM6ftOK-jKoaCCffgptmB5E3Tj9LB32lAMHCmjrLjujZM0izzBQ7HFU2XbclipAFsYgGwETLLdPzBPsxfu5stj7DD4EwvOLeXlzLggn0C-xIjR2ThUUHvTc5WD6V_c9URzdKlt1nw4f5Z2-2H2tDBqwgy_jIJXm6pAsUrOtsGu0E8XcuVP5e_eh_mp2uAgQBKFMauyYqItLbMsDdX5hG1AfddLTLOMUOyRI_3cuq1nNOvk15QO5gr-PJdrKa_sP115LpRDVIak6cchirh3Mfe8b3eo1p0RTXwmOsPybFSOyof1iqvMHfaeOEqDVklVi9aemhKCql1cVmELRTBzOgPLlx0GG-d-fcBR3JLHpkkSJESaraOe6Odw4b1qmPVIjPrhCGjZGa5aK8u_Xk16nmHxo3u9jEdvC0KP1LbgwIHc3Hy_hAiL9_AMZGS_XxUrMZdQAkt_f2llx4JtrUjJIx-1KodYw6HY2aQEv_90AooC19lJ4lx7ADxZxtpOzYj_oOYsBqFeXSNcpbsss0ybE1J45FROcGikCRxe2rYzssr4X9Oir3VgwId_RgMo53ZzK39zHfA41cs8auLQGS-_P4nVO3iPvCIyWS0]--></g></svg>