<?xml version="1.0" encoding="us-ascii" standalone="no"?><svg xmlns="http://www.w3.org/2000/svg" xmlns:xlink="http://www.w3.org/1999/xlink" contentStyleType="text/css" height="706px" preserveAspectRatio="none" style="width:1888px;height:706px;background:#FFFFFF;" version="1.1" viewBox="0 0 1888 706" width="1888px" zoomAndPan="magnify"><defs/><g><text fill="#000000" font-family="sans-serif" font-size="14" font-weight="bold" lengthAdjust="spacing" textLength="213" x="830.5" y="25.1074">Domain Classes (DC) - US 3006</text><!--cluster <<aggregate>> SystemUser--><g id="cluster_&lt;&lt;aggregate&gt;&gt; SystemUser"><path d="M644.5,444.1348 L820.5,444.1348 A3.75,3.75 0 0 1 823,446.6348 L830,468.7559 L830.5,468.7559 A2.5,2.5 0 0 1 833,471.2559 L833,692.6348 A2.5,2.5 0 0 1 830.5,695.1348 L644.5,695.1348 A2.5,2.5 0 0 1 642,692.6348 L642,446.6348 A2.5,2.5 0 0 1 644.5,444.1348 " fill="none" style="stroke:#000000;stroke-width:1.5;"/><line style="stroke:#000000;stroke-width:1.5;" x1="642" x2="830" y1="468.7559" y2="468.7559"/><text fill="#000000" font-family="sans-serif" font-size="14" font-weight="bold" lengthAdjust="spacing" textLength="175" x="646" y="461.2422">&#171;aggregate&#187; SystemUser</text></g><!--cluster <<aggregate>> PostIt--><g id="cluster_&lt;&lt;aggregate&gt;&gt; PostIt"><path d="M8.5,253.6348 L141.5,253.6348 A3.75,3.75 0 0 1 144,256.1348 L151,278.2559 L615.5,278.2559 A2.5,2.5 0 0 1 618,280.7559 L618,697.1348 A2.5,2.5 0 0 1 615.5,699.6348 L8.5,699.6348 A2.5,2.5 0 0 1 6,697.1348 L6,256.1348 A2.5,2.5 0 0 1 8.5,253.6348 " fill="none" style="stroke:#000000;stroke-width:1.5;"/><line style="stroke:#000000;stroke-width:1.5;" x1="6" x2="151" y1="278.2559" y2="278.2559"/><text fill="#000000" font-family="sans-serif" font-size="14" font-weight="bold" lengthAdjust="spacing" textLength="132" x="10" y="270.7422">&#171;aggregate&#187; PostIt</text></g><!--cluster <<aggregate>> Board--><g id="cluster_&lt;&lt;aggregate&gt;&gt; Board"><path d="M1099.5,45.6348 L1234.5,45.6348 A3.75,3.75 0 0 1 1237,48.1348 L1244,70.2559 L1878.5,70.2559 A2.5,2.5 0 0 1 1881,72.7559 L1881,564.6348 A2.5,2.5 0 0 1 1878.5,567.1348 L1099.5,567.1348 A2.5,2.5 0 0 1 1097,564.6348 L1097,48.1348 A2.5,2.5 0 0 1 1099.5,45.6348 " fill="none" style="stroke:#000000;stroke-width:1.5;"/><line style="stroke:#000000;stroke-width:1.5;" x1="1097" x2="1244" y1="70.2559" y2="70.2559"/><text fill="#000000" font-family="sans-serif" font-size="14" font-weight="bold" lengthAdjust="spacing" textLength="134" x="1101" y="62.7422">&#171;aggregate&#187; Board</text></g><!--cluster <<aggregate>> BoardMembers--><g id="cluster_&lt;&lt;aggregate&gt;&gt; BoardMembers"><path d="M859.5,253.6348 L1060.5,253.6348 A3.75,3.75 0 0 1 1063,256.1348 L1070,278.2559 L1070.5,278.2559 A2.5,2.5 0 0 1 1073,280.7559 L1073,555.6348 A2.5,2.5 0 0 1 1070.5,558.1348 L859.5,558.1348 A2.5,2.5 0 0 1 857,555.6348 L857,256.1348 A2.5,2.5 0 0 1 859.5,253.6348 " fill="none" style="stroke:#000000;stroke-width:1.5;"/><line style="stroke:#000000;stroke-width:1.5;" x1="857" x2="1070" y1="278.2559" y2="278.2559"/><text fill="#000000" font-family="sans-serif" font-size="14" font-weight="bold" lengthAdjust="spacing" textLength="200" x="861" y="270.7422">&#171;aggregate&#187; BoardMembers</text></g><!--class SystemUser--><g id="elem_SystemUser"><rect codeLine="10" fill="#F1F1F1" height="68.543" id="SystemUser" rx="2.5" ry="2.5" style="stroke:#181818;stroke-width:0.5;" width="107" x="709.5" y="481.1348"/><ellipse cx="724.5" cy="511.4063" fill="#ADD1B2" rx="11" ry="11" style="stroke:#181818;stroke-width:1.0;"/><path d="M723.3594,512.2031 L723.3594,514.7031 L727.6875,514.7031 L727.6875,513.7813 Q727.6875,513.1719 727.9219,512.9063 Q728.1719,512.6406 728.5469,512.6406 Q728.9219,512.6406 729.1563,512.9063 Q729.3906,513.1719 729.3906,513.7813 L729.3906,516.4063 L721.3906,516.4063 Q720.7656,516.4063 720.5,516.1719 Q720.25,515.9375 720.25,515.5469 Q720.25,515.1719 720.5156,514.9375 Q720.7813,514.7031 721.3906,514.7031 L721.6563,514.7031 L721.6563,508.0469 L721.3906,508.0469 Q720.7656,508.0469 720.5,507.8125 Q720.25,507.5781 720.25,507.1875 Q720.25,506.8125 720.5,506.5781 Q720.7656,506.3438 721.3906,506.3438 L729.0156,506.3438 L729.0156,508.9375 Q729.0156,509.5469 728.7813,509.8125 Q728.5625,510.0625 728.1719,510.0625 Q727.7969,510.0625 727.5625,509.8125 Q727.3281,509.5469 727.3281,508.9375 L727.3281,508.0469 L723.3594,508.0469 L723.3594,510.5 L724.8438,510.5 Q724.8438,509.8438 724.9688,509.6563 Q725.2344,509.25 725.7031,509.25 Q726.0781,509.25 726.3125,509.5156 Q726.5469,509.7656 726.5469,510.375 L726.5469,512.3438 Q726.5469,512.8906 726.4219,513.0781 Q726.1563,513.4688 725.7031,513.4688 Q725.2344,513.4688 724.9688,513.0625 Q724.8438,512.875 724.8438,512.2031 L723.3594,512.2031 Z " fill="#000000"/><text fill="#000000" font-family="sans-serif" font-size="12" font-style="italic" lengthAdjust="spacing" textLength="43" x="754.5" y="499.084">&#171;entity&#187;</text><text fill="#000000" font-family="sans-serif" font-size="12" font-style="italic" lengthAdjust="spacing" textLength="35" x="758.5" y="515.0449">&#171;root&#187;</text><text fill="#000000" font-family="sans-serif" font-size="14" lengthAdjust="spacing" textLength="75" x="738.5" y="533.1641">SystemUser</text><line style="stroke:#181818;stroke-width:0.5;" x1="710.5" x2="815.5" y1="541.6777" y2="541.6777"/></g><!--class Username--><g id="elem_Username"><rect codeLine="11" fill="#F1F1F1" height="52.582" id="Username" rx="2.5" ry="2.5" style="stroke:#181818;stroke-width:0.5;" width="109" x="707.5" y="626.1348"/><ellipse cx="722.5" cy="648.4258" fill="#FF8B40" rx="11" ry="11" style="stroke:#181818;stroke-width:1.0;"/><path d="M723.0938,651.6914 L725.5625,645.8164 L725.1719,645.8164 Q724.5625,645.8164 724.2969,645.582 Q724.0313,645.3477 724.0313,644.957 Q724.0313,644.582 724.2969,644.3477 Q724.5625,644.1133 725.1719,644.1133 L727.4531,644.1133 Q728.0625,644.1133 728.3281,644.3477 Q728.5938,644.582 728.5938,644.957 Q728.5938,645.4258 728.1875,645.6914 Q728,645.8164 727.4063,645.8164 L723.9219,654.1758 L722.2813,654.1758 L718.7969,645.8164 Q718.2031,645.8164 718.0156,645.6914 Q717.6094,645.4258 717.6094,644.957 Q717.6094,644.582 717.875,644.3477 Q718.1406,644.1133 718.75,644.1133 L721.0469,644.1133 Q721.6563,644.1133 721.9063,644.3477 Q722.1719,644.582 722.1719,644.957 Q722.1719,645.3477 721.9063,645.582 Q721.6563,645.8164 721.0469,645.8164 L720.6406,645.8164 L723.0938,651.6914 Z " fill="#000000"/><text fill="#000000" font-family="sans-serif" font-size="12" font-style="italic" lengthAdjust="spacing" textLength="81" x="734.5" y="644.084">&#171;value object&#187;</text><text fill="#000000" font-family="sans-serif" font-size="14" lengthAdjust="spacing" textLength="64" x="743" y="662.2031">Username</text><line style="stroke:#181818;stroke-width:0.5;" x1="708.5" x2="815.5" y1="670.7168" y2="670.7168"/></g><!--class PostIt--><g id="elem_PostIt"><rect codeLine="16" fill="#F1F1F1" height="87.1641" id="PostIt" rx="2.5" ry="2.5" style="stroke:#181818;stroke-width:0.5;" width="71" x="397.5" y="290.6348"/><ellipse cx="412.5" cy="320.9063" fill="#ADD1B2" rx="11" ry="11" style="stroke:#181818;stroke-width:1.0;"/><path d="M411.3594,321.7031 L411.3594,324.2031 L415.6875,324.2031 L415.6875,323.2813 Q415.6875,322.6719 415.9219,322.4063 Q416.1719,322.1406 416.5469,322.1406 Q416.9219,322.1406 417.1563,322.4063 Q417.3906,322.6719 417.3906,323.2813 L417.3906,325.9063 L409.3906,325.9063 Q408.7656,325.9063 408.5,325.6719 Q408.25,325.4375 408.25,325.0469 Q408.25,324.6719 408.5156,324.4375 Q408.7813,324.2031 409.3906,324.2031 L409.6563,324.2031 L409.6563,317.5469 L409.3906,317.5469 Q408.7656,317.5469 408.5,317.3125 Q408.25,317.0781 408.25,316.6875 Q408.25,316.3125 408.5,316.0781 Q408.7656,315.8438 409.3906,315.8438 L417.0156,315.8438 L417.0156,318.4375 Q417.0156,319.0469 416.7813,319.3125 Q416.5625,319.5625 416.1719,319.5625 Q415.7969,319.5625 415.5625,319.3125 Q415.3281,319.0469 415.3281,318.4375 L415.3281,317.5469 L411.3594,317.5469 L411.3594,320 L412.8438,320 Q412.8438,319.3438 412.9688,319.1563 Q413.2344,318.75 413.7031,318.75 Q414.0781,318.75 414.3125,319.0156 Q414.5469,319.2656 414.5469,319.875 L414.5469,321.8438 Q414.5469,322.3906 414.4219,322.5781 Q414.1563,322.9688 413.7031,322.9688 Q413.2344,322.9688 412.9688,322.5625 Q412.8438,322.375 412.8438,321.7031 L411.3594,321.7031 Z " fill="#000000"/><text fill="#000000" font-family="sans-serif" font-size="12" font-style="italic" lengthAdjust="spacing" textLength="43" x="424.5" y="308.584">&#171;entity&#187;</text><text fill="#000000" font-family="sans-serif" font-size="12" font-style="italic" lengthAdjust="spacing" textLength="35" x="428.5" y="324.5449">&#171;root&#187;</text><text fill="#000000" font-family="sans-serif" font-size="14" lengthAdjust="spacing" textLength="35" x="428.5" y="342.6641">PostIt</text><line style="stroke:#181818;stroke-width:0.5;" x1="398.5" x2="467.5" y1="351.1777" y2="351.1777"/><text fill="#000000" font-family="sans-serif" font-size="14" lengthAdjust="spacing" textLength="47" x="403.5" y="370.2852">content</text></g><!--class PostItPosition--><g id="elem_PostItPosition"><rect codeLine="19" fill="#F1F1F1" height="89.8242" id="PostItPosition" rx="2.5" ry="2.5" style="stroke:#181818;stroke-width:0.5;" width="117" x="22.5" y="470.6348"/><ellipse cx="37.5" cy="492.9258" fill="#FF8B40" rx="11" ry="11" style="stroke:#181818;stroke-width:1.0;"/><path d="M38.0938,496.1914 L40.5625,490.3164 L40.1719,490.3164 Q39.5625,490.3164 39.2969,490.082 Q39.0313,489.8477 39.0313,489.457 Q39.0313,489.082 39.2969,488.8477 Q39.5625,488.6133 40.1719,488.6133 L42.4531,488.6133 Q43.0625,488.6133 43.3281,488.8477 Q43.5938,489.082 43.5938,489.457 Q43.5938,489.9258 43.1875,490.1914 Q43,490.3164 42.4063,490.3164 L38.9219,498.6758 L37.2813,498.6758 L33.7969,490.3164 Q33.2031,490.3164 33.0156,490.1914 Q32.6094,489.9258 32.6094,489.457 Q32.6094,489.082 32.875,488.8477 Q33.1406,488.6133 33.75,488.6133 L36.0469,488.6133 Q36.6563,488.6133 36.9063,488.8477 Q37.1719,489.082 37.1719,489.457 Q37.1719,489.8477 36.9063,490.082 Q36.6563,490.3164 36.0469,490.3164 L35.6406,490.3164 L38.0938,496.1914 Z " fill="#000000"/><text fill="#000000" font-family="sans-serif" font-size="12" font-style="italic" lengthAdjust="spacing" textLength="81" x="53.5" y="488.584">&#171;value object&#187;</text><text fill="#000000" font-family="sans-serif" font-size="14" lengthAdjust="spacing" textLength="85" x="51.5" y="506.7031">PostItPosition</text><line style="stroke:#181818;stroke-width:0.5;" x1="23.5" x2="138.5" y1="515.2168" y2="515.2168"/><text fill="#000000" font-family="sans-serif" font-size="14" lengthAdjust="spacing" textLength="45" x="28.5" y="534.3242">column</text><text fill="#000000" font-family="sans-serif" font-size="14" lengthAdjust="spacing" textLength="22" x="28.5" y="552.9453">line</text></g><!--class PostItType--><g id="elem_PostItType"><rect codeLine="24" fill="#F1F1F1" height="52.582" id="PostItType" rx="2.5" ry="2.5" style="stroke:#181818;stroke-width:0.5;" width="109" x="174.5" y="489.1348"/><ellipse cx="189.5" cy="511.4258" fill="#FF8B40" rx="11" ry="11" style="stroke:#181818;stroke-width:1.0;"/><path d="M190.0938,514.6914 L192.5625,508.8164 L192.1719,508.8164 Q191.5625,508.8164 191.2969,508.582 Q191.0313,508.3477 191.0313,507.957 Q191.0313,507.582 191.2969,507.3477 Q191.5625,507.1133 192.1719,507.1133 L194.4531,507.1133 Q195.0625,507.1133 195.3281,507.3477 Q195.5938,507.582 195.5938,507.957 Q195.5938,508.4258 195.1875,508.6914 Q195,508.8164 194.4063,508.8164 L190.9219,517.1758 L189.2813,517.1758 L185.7969,508.8164 Q185.2031,508.8164 185.0156,508.6914 Q184.6094,508.4258 184.6094,507.957 Q184.6094,507.582 184.875,507.3477 Q185.1406,507.1133 185.75,507.1133 L188.0469,507.1133 Q188.6563,507.1133 188.9063,507.3477 Q189.1719,507.582 189.1719,507.957 Q189.1719,508.3477 188.9063,508.582 Q188.6563,508.8164 188.0469,508.8164 L187.6406,508.8164 L190.0938,514.6914 Z " fill="#000000"/><text fill="#000000" font-family="sans-serif" font-size="12" font-style="italic" lengthAdjust="spacing" textLength="81" x="201.5" y="507.084">&#171;value object&#187;</text><text fill="#000000" font-family="sans-serif" font-size="14" lengthAdjust="spacing" textLength="67" x="208.5" y="525.2031">PostItType</text><line style="stroke:#181818;stroke-width:0.5;" x1="175.5" x2="282.5" y1="533.7168" y2="533.7168"/></g><!--class PostItTimeStamp--><g id="elem_PostItTimeStamp"><rect codeLine="25" fill="#F1F1F1" height="52.582" id="PostItTimeStamp" rx="2.5" ry="2.5" style="stroke:#181818;stroke-width:0.5;" width="138" x="319" y="489.1348"/><ellipse cx="334" cy="511.4258" fill="#FF8B40" rx="11" ry="11" style="stroke:#181818;stroke-width:1.0;"/><path d="M334.5938,514.6914 L337.0625,508.8164 L336.6719,508.8164 Q336.0625,508.8164 335.7969,508.582 Q335.5313,508.3477 335.5313,507.957 Q335.5313,507.582 335.7969,507.3477 Q336.0625,507.1133 336.6719,507.1133 L338.9531,507.1133 Q339.5625,507.1133 339.8281,507.3477 Q340.0938,507.582 340.0938,507.957 Q340.0938,508.4258 339.6875,508.6914 Q339.5,508.8164 338.9063,508.8164 L335.4219,517.1758 L333.7813,517.1758 L330.2969,508.8164 Q329.7031,508.8164 329.5156,508.6914 Q329.1094,508.4258 329.1094,507.957 Q329.1094,507.582 329.375,507.3477 Q329.6406,507.1133 330.25,507.1133 L332.5469,507.1133 Q333.1563,507.1133 333.4063,507.3477 Q333.6719,507.582 333.6719,507.957 Q333.6719,508.3477 333.4063,508.582 Q333.1563,508.8164 332.5469,508.8164 L332.1406,508.8164 L334.5938,514.6914 Z " fill="#000000"/><text fill="#000000" font-family="sans-serif" font-size="12" font-style="italic" lengthAdjust="spacing" textLength="81" x="360.5" y="507.084">&#171;value object&#187;</text><text fill="#000000" font-family="sans-serif" font-size="14" lengthAdjust="spacing" textLength="106" x="348" y="525.2031">PostItTimeStamp</text><line style="stroke:#181818;stroke-width:0.5;" x1="320" x2="456" y1="533.7168" y2="533.7168"/></g><!--class PostItStatus--><g id="elem_PostItStatus"><rect codeLine="26" fill="#F1F1F1" height="52.582" id="PostItStatus" rx="2.5" ry="2.5" style="stroke:#181818;stroke-width:0.5;" width="109" x="492.5" y="489.1348"/><ellipse cx="507.5" cy="511.4258" fill="#FF8B40" rx="11" ry="11" style="stroke:#181818;stroke-width:1.0;"/><path d="M508.0938,514.6914 L510.5625,508.8164 L510.1719,508.8164 Q509.5625,508.8164 509.2969,508.582 Q509.0313,508.3477 509.0313,507.957 Q509.0313,507.582 509.2969,507.3477 Q509.5625,507.1133 510.1719,507.1133 L512.4531,507.1133 Q513.0625,507.1133 513.3281,507.3477 Q513.5938,507.582 513.5938,507.957 Q513.5938,508.4258 513.1875,508.6914 Q513,508.8164 512.4063,508.8164 L508.9219,517.1758 L507.2813,517.1758 L503.7969,508.8164 Q503.2031,508.8164 503.0156,508.6914 Q502.6094,508.4258 502.6094,507.957 Q502.6094,507.582 502.875,507.3477 Q503.1406,507.1133 503.75,507.1133 L506.0469,507.1133 Q506.6563,507.1133 506.9063,507.3477 Q507.1719,507.582 507.1719,507.957 Q507.1719,508.3477 506.9063,508.582 Q506.6563,508.8164 506.0469,508.8164 L505.6406,508.8164 L508.0938,514.6914 Z " fill="#000000"/><text fill="#000000" font-family="sans-serif" font-size="12" font-style="italic" lengthAdjust="spacing" textLength="81" x="519.5" y="507.084">&#171;value object&#187;</text><text fill="#000000" font-family="sans-serif" font-size="14" lengthAdjust="spacing" textLength="75" x="522.5" y="525.2031">PostItStatus</text><line style="stroke:#181818;stroke-width:0.5;" x1="493.5" x2="600.5" y1="533.7168" y2="533.7168"/></g><g id="elem_GMN11"><path d="M458,621.6348 L458,683.5078 A0,0 0 0 0 458,683.5078 L602,683.5078 A0,0 0 0 0 602,683.5078 L602,631.6348 L592,621.6348 L537.82,621.6348 L543.76,542.3448 L529.82,621.6348 L458,621.6348 A0,0 0 0 0 458,621.6348 " fill="#FEFFDD" style="stroke:#181818;stroke-width:0.5;"/><path d="M592,621.6348 L592,631.6348 L602,631.6348 L592,621.6348 " fill="#FEFFDD" style="stroke:#181818;stroke-width:0.5;"/><text fill="#000000" font-family="sans-serif" font-size="13" lengthAdjust="spacing" textLength="123" x="464" y="640.6631">Diagrama de estados</text><text fill="#000000" font-family="sans-serif" font-size="13" lengthAdjust="spacing" textLength="96" x="464" y="657.9541">dispon&#237;vel com o</text><text fill="#000000" font-family="sans-serif" font-size="13" lengthAdjust="spacing" textLength="122" x="464" y="675.2451">nome "post-it-status"</text></g><!--class Board--><g id="elem_Board"><rect codeLine="36" fill="#F1F1F1" height="105.7852" id="Board" rx="2.5" ry="2.5" style="stroke:#181818;stroke-width:0.5;" width="71" x="1170.5" y="82.6348"/><ellipse cx="1185.5" cy="112.9063" fill="#ADD1B2" rx="11" ry="11" style="stroke:#181818;stroke-width:1.0;"/><path d="M1184.3594,113.7031 L1184.3594,116.2031 L1188.6875,116.2031 L1188.6875,115.2813 Q1188.6875,114.6719 1188.9219,114.4063 Q1189.1719,114.1406 1189.5469,114.1406 Q1189.9219,114.1406 1190.1563,114.4063 Q1190.3906,114.6719 1190.3906,115.2813 L1190.3906,117.9063 L1182.3906,117.9063 Q1181.7656,117.9063 1181.5,117.6719 Q1181.25,117.4375 1181.25,117.0469 Q1181.25,116.6719 1181.5156,116.4375 Q1181.7813,116.2031 1182.3906,116.2031 L1182.6563,116.2031 L1182.6563,109.5469 L1182.3906,109.5469 Q1181.7656,109.5469 1181.5,109.3125 Q1181.25,109.0781 1181.25,108.6875 Q1181.25,108.3125 1181.5,108.0781 Q1181.7656,107.8438 1182.3906,107.8438 L1190.0156,107.8438 L1190.0156,110.4375 Q1190.0156,111.0469 1189.7813,111.3125 Q1189.5625,111.5625 1189.1719,111.5625 Q1188.7969,111.5625 1188.5625,111.3125 Q1188.3281,111.0469 1188.3281,110.4375 L1188.3281,109.5469 L1184.3594,109.5469 L1184.3594,112 L1185.8438,112 Q1185.8438,111.3438 1185.9688,111.1563 Q1186.2344,110.75 1186.7031,110.75 Q1187.0781,110.75 1187.3125,111.0156 Q1187.5469,111.2656 1187.5469,111.875 L1187.5469,113.8438 Q1187.5469,114.3906 1187.4219,114.5781 Q1187.1563,114.9688 1186.7031,114.9688 Q1186.2344,114.9688 1185.9688,114.5625 Q1185.8438,114.375 1185.8438,113.7031 L1184.3594,113.7031 Z " fill="#000000"/><text fill="#000000" font-family="sans-serif" font-size="12" font-style="italic" lengthAdjust="spacing" textLength="43" x="1197.5" y="100.584">&#171;entity&#187;</text><text fill="#000000" font-family="sans-serif" font-size="12" font-style="italic" lengthAdjust="spacing" textLength="35" x="1201.5" y="116.5449">&#171;root&#187;</text><text fill="#000000" font-family="sans-serif" font-size="14" lengthAdjust="spacing" textLength="38" x="1200" y="134.6641">Board</text><line style="stroke:#181818;stroke-width:0.5;" x1="1171.5" x2="1240.5" y1="143.1777" y2="143.1777"/><text fill="#000000" font-family="sans-serif" font-size="14" lengthAdjust="spacing" textLength="22" x="1176.5" y="162.2852">title</text><text fill="#000000" font-family="sans-serif" font-size="14" lengthAdjust="spacing" textLength="54" x="1176.5" y="180.9063">archived</text></g><!--class BoardCreationDateTime--><g id="elem_BoardCreationDateTime"><rect codeLine="41" fill="#F1F1F1" height="71.2031" id="BoardCreationDateTime" rx="2.5" ry="2.5" style="stroke:#181818;stroke-width:0.5;" width="185" x="1113.5" y="298.6348"/><ellipse cx="1128.5" cy="320.9258" fill="#FF8B40" rx="11" ry="11" style="stroke:#181818;stroke-width:1.0;"/><path d="M1129.0938,324.1914 L1131.5625,318.3164 L1131.1719,318.3164 Q1130.5625,318.3164 1130.2969,318.082 Q1130.0313,317.8477 1130.0313,317.457 Q1130.0313,317.082 1130.2969,316.8477 Q1130.5625,316.6133 1131.1719,316.6133 L1133.4531,316.6133 Q1134.0625,316.6133 1134.3281,316.8477 Q1134.5938,317.082 1134.5938,317.457 Q1134.5938,317.9258 1134.1875,318.1914 Q1134,318.3164 1133.4063,318.3164 L1129.9219,326.6758 L1128.2813,326.6758 L1124.7969,318.3164 Q1124.2031,318.3164 1124.0156,318.1914 Q1123.6094,317.9258 1123.6094,317.457 Q1123.6094,317.082 1123.875,316.8477 Q1124.1406,316.6133 1124.75,316.6133 L1127.0469,316.6133 Q1127.6563,316.6133 1127.9063,316.8477 Q1128.1719,317.082 1128.1719,317.457 Q1128.1719,317.8477 1127.9063,318.082 Q1127.6563,318.3164 1127.0469,318.3164 L1126.6406,318.3164 L1129.0938,324.1914 Z " fill="#000000"/><text fill="#000000" font-family="sans-serif" font-size="12" font-style="italic" lengthAdjust="spacing" textLength="81" x="1178.5" y="316.584">&#171;value object&#187;</text><text fill="#000000" font-family="sans-serif" font-size="14" lengthAdjust="spacing" textLength="153" x="1142.5" y="334.7031">BoardCreationDateTime</text><line style="stroke:#181818;stroke-width:0.5;" x1="1114.5" x2="1297.5" y1="343.2168" y2="343.2168"/><text fill="#000000" font-family="sans-serif" font-size="14" lengthAdjust="spacing" textLength="59" x="1119.5" y="362.3242">dateTime</text></g><!--class BoardDimensions--><g id="elem_BoardDimensions"><rect codeLine="45" fill="#F1F1F1" height="89.8242" id="BoardDimensions" rx="2.5" ry="2.5" style="stroke:#181818;stroke-width:0.5;" width="143" x="1333.5" y="289.1348"/><ellipse cx="1348.5" cy="311.4258" fill="#FF8B40" rx="11" ry="11" style="stroke:#181818;stroke-width:1.0;"/><path d="M1349.0938,314.6914 L1351.5625,308.8164 L1351.1719,308.8164 Q1350.5625,308.8164 1350.2969,308.582 Q1350.0313,308.3477 1350.0313,307.957 Q1350.0313,307.582 1350.2969,307.3477 Q1350.5625,307.1133 1351.1719,307.1133 L1353.4531,307.1133 Q1354.0625,307.1133 1354.3281,307.3477 Q1354.5938,307.582 1354.5938,307.957 Q1354.5938,308.4258 1354.1875,308.6914 Q1354,308.8164 1353.4063,308.8164 L1349.9219,317.1758 L1348.2813,317.1758 L1344.7969,308.8164 Q1344.2031,308.8164 1344.0156,308.6914 Q1343.6094,308.4258 1343.6094,307.957 Q1343.6094,307.582 1343.875,307.3477 Q1344.1406,307.1133 1344.75,307.1133 L1347.0469,307.1133 Q1347.6563,307.1133 1347.9063,307.3477 Q1348.1719,307.582 1348.1719,307.957 Q1348.1719,308.3477 1347.9063,308.582 Q1347.6563,308.8164 1347.0469,308.8164 L1346.6406,308.8164 L1349.0938,314.6914 Z " fill="#000000"/><text fill="#000000" font-family="sans-serif" font-size="12" font-style="italic" lengthAdjust="spacing" textLength="81" x="1377.5" y="307.084">&#171;value object&#187;</text><text fill="#000000" font-family="sans-serif" font-size="14" lengthAdjust="spacing" textLength="111" x="1362.5" y="325.2031">BoardDimensions</text><line style="stroke:#181818;stroke-width:0.5;" x1="1334.5" x2="1475.5" y1="333.7168" y2="333.7168"/><text fill="#000000" font-family="sans-serif" font-size="14" lengthAdjust="spacing" textLength="82" x="1339.5" y="352.8242">numColumns</text><text fill="#000000" font-family="sans-serif" font-size="14" lengthAdjust="spacing" textLength="61" x="1339.5" y="371.4453">numLines</text></g><!--class BoardElement--><g id="elem_BoardElement"><rect codeLine="51" fill="#F1F1F1" height="71.2031" id="BoardElement" rx="2.5" ry="2.5" style="stroke:#181818;stroke-width:0.5;" width="121" x="1622.5" y="480.1348"/><ellipse cx="1637.5" cy="502.4258" fill="#A9DCDF" rx="11" ry="11" style="stroke:#181818;stroke-width:1.0;"/><path d="M1639.6875,504.1914 L1635.5469,504.1914 L1635.125,505.2227 L1635.5469,505.2227 Q1636.1563,505.2227 1636.4219,505.457 Q1636.6875,505.6914 1636.6875,506.082 Q1636.6875,506.457 1636.4219,506.6914 Q1636.1563,506.9258 1635.5469,506.9258 L1633.25,506.9258 Q1632.6406,506.9258 1632.3906,506.6914 Q1632.125,506.457 1632.125,506.0664 Q1632.125,505.6914 1632.4063,505.457 Q1632.6719,505.207 1633.2969,505.2227 L1635.9688,498.5664 L1634.8594,498.5664 Q1634.25,498.5664 1633.9844,498.332 Q1633.7188,498.0977 1633.7188,497.707 Q1633.7188,497.332 1633.9844,497.0977 Q1634.25,496.8633 1634.8594,496.8633 L1638.5313,496.8633 L1641.9219,505.2227 Q1642.5156,505.2227 1642.7031,505.3633 Q1643.0938,505.6289 1643.0938,506.082 Q1643.0938,506.457 1642.8281,506.6914 Q1642.5781,506.9258 1641.9688,506.9258 L1639.6719,506.9258 Q1639.0625,506.9258 1638.7969,506.6914 Q1638.5313,506.457 1638.5313,506.0664 Q1638.5313,505.6914 1638.7969,505.457 Q1639.0625,505.2227 1639.6719,505.2227 L1640.0938,505.2227 L1639.6875,504.1914 Z M1638.9688,502.4883 L1637.6094,499.1133 L1636.2344,502.4883 L1638.9688,502.4883 Z " fill="#000000"/><text fill="#000000" font-family="sans-serif" font-size="12" font-style="italic" lengthAdjust="spacing" textLength="58" x="1667" y="498.084">&#171;abstract&#187;</text><text fill="#000000" font-family="sans-serif" font-size="14" font-style="italic" lengthAdjust="spacing" textLength="89" x="1651.5" y="516.2031">BoardElement</text><line style="stroke:#181818;stroke-width:0.5;" x1="1623.5" x2="1742.5" y1="524.7168" y2="524.7168"/><text fill="#000000" font-family="sans-serif" font-size="14" lengthAdjust="spacing" textLength="22" x="1628.5" y="543.8242">title</text></g><!--class BoardElementLine--><g id="elem_BoardElementLine"><rect codeLine="55" fill="#F1F1F1" height="52.582" id="BoardElementLine" rx="2.5" ry="2.5" style="stroke:#181818;stroke-width:0.5;" width="148" x="1512" y="307.6348"/><ellipse cx="1527" cy="329.9258" fill="#ADD1B2" rx="11" ry="11" style="stroke:#181818;stroke-width:1.0;"/><path d="M1525.8594,330.7227 L1525.8594,333.2227 L1530.1875,333.2227 L1530.1875,332.3008 Q1530.1875,331.6914 1530.4219,331.4258 Q1530.6719,331.1602 1531.0469,331.1602 Q1531.4219,331.1602 1531.6563,331.4258 Q1531.8906,331.6914 1531.8906,332.3008 L1531.8906,334.9258 L1523.8906,334.9258 Q1523.2656,334.9258 1523,334.6914 Q1522.75,334.457 1522.75,334.0664 Q1522.75,333.6914 1523.0156,333.457 Q1523.2813,333.2227 1523.8906,333.2227 L1524.1563,333.2227 L1524.1563,326.5664 L1523.8906,326.5664 Q1523.2656,326.5664 1523,326.332 Q1522.75,326.0977 1522.75,325.707 Q1522.75,325.332 1523,325.0977 Q1523.2656,324.8633 1523.8906,324.8633 L1531.5156,324.8633 L1531.5156,327.457 Q1531.5156,328.0664 1531.2813,328.332 Q1531.0625,328.582 1530.6719,328.582 Q1530.2969,328.582 1530.0625,328.332 Q1529.8281,328.0664 1529.8281,327.457 L1529.8281,326.5664 L1525.8594,326.5664 L1525.8594,329.0195 L1527.3438,329.0195 Q1527.3438,328.3633 1527.4688,328.1758 Q1527.7344,327.7695 1528.2031,327.7695 Q1528.5781,327.7695 1528.8125,328.0352 Q1529.0469,328.2852 1529.0469,328.8945 L1529.0469,330.8633 Q1529.0469,331.4102 1528.9219,331.5977 Q1528.6563,331.9883 1528.2031,331.9883 Q1527.7344,331.9883 1527.4688,331.582 Q1527.3438,331.3945 1527.3438,330.7227 L1525.8594,330.7227 Z " fill="#000000"/><text fill="#000000" font-family="sans-serif" font-size="12" font-style="italic" lengthAdjust="spacing" textLength="43" x="1577.5" y="325.584">&#171;entity&#187;</text><text fill="#000000" font-family="sans-serif" font-size="14" lengthAdjust="spacing" textLength="116" x="1541" y="343.7031">BoardElementLine</text><line style="stroke:#181818;stroke-width:0.5;" x1="1513" x2="1659" y1="352.2168" y2="352.2168"/></g><!--class BoardElementColumn--><g id="elem_BoardElementColumn"><rect codeLine="56" fill="#F1F1F1" height="52.582" id="BoardElementColumn" rx="2.5" ry="2.5" style="stroke:#181818;stroke-width:0.5;" width="169" x="1695.5" y="307.6348"/><ellipse cx="1710.5" cy="329.9258" fill="#ADD1B2" rx="11" ry="11" style="stroke:#181818;stroke-width:1.0;"/><path d="M1709.3594,330.7227 L1709.3594,333.2227 L1713.6875,333.2227 L1713.6875,332.3008 Q1713.6875,331.6914 1713.9219,331.4258 Q1714.1719,331.1602 1714.5469,331.1602 Q1714.9219,331.1602 1715.1563,331.4258 Q1715.3906,331.6914 1715.3906,332.3008 L1715.3906,334.9258 L1707.3906,334.9258 Q1706.7656,334.9258 1706.5,334.6914 Q1706.25,334.457 1706.25,334.0664 Q1706.25,333.6914 1706.5156,333.457 Q1706.7813,333.2227 1707.3906,333.2227 L1707.6563,333.2227 L1707.6563,326.5664 L1707.3906,326.5664 Q1706.7656,326.5664 1706.5,326.332 Q1706.25,326.0977 1706.25,325.707 Q1706.25,325.332 1706.5,325.0977 Q1706.7656,324.8633 1707.3906,324.8633 L1715.0156,324.8633 L1715.0156,327.457 Q1715.0156,328.0664 1714.7813,328.332 Q1714.5625,328.582 1714.1719,328.582 Q1713.7969,328.582 1713.5625,328.332 Q1713.3281,328.0664 1713.3281,327.457 L1713.3281,326.5664 L1709.3594,326.5664 L1709.3594,329.0195 L1710.8438,329.0195 Q1710.8438,328.3633 1710.9688,328.1758 Q1711.2344,327.7695 1711.7031,327.7695 Q1712.0781,327.7695 1712.3125,328.0352 Q1712.5469,328.2852 1712.5469,328.8945 L1712.5469,330.8633 Q1712.5469,331.4102 1712.4219,331.5977 Q1712.1563,331.9883 1711.7031,331.9883 Q1711.2344,331.9883 1710.9688,331.582 Q1710.8438,331.3945 1710.8438,330.7227 L1709.3594,330.7227 Z " fill="#000000"/><text fill="#000000" font-family="sans-serif" font-size="12" font-style="italic" lengthAdjust="spacing" textLength="43" x="1771.5" y="325.584">&#171;entity&#187;</text><text fill="#000000" font-family="sans-serif" font-size="14" lengthAdjust="spacing" textLength="137" x="1724.5" y="343.7031">BoardElementColumn</text><line style="stroke:#181818;stroke-width:0.5;" x1="1696.5" x2="1863.5" y1="352.2168" y2="352.2168"/></g><!--class BoardMembers--><g id="elem_BoardMembers"><rect codeLine="61" fill="#F1F1F1" height="87.1641" id="BoardMembers" rx="2.5" ry="2.5" style="stroke:#181818;stroke-width:0.5;" width="128" x="901" y="290.6348"/><ellipse cx="916" cy="320.9063" fill="#ADD1B2" rx="11" ry="11" style="stroke:#181818;stroke-width:1.0;"/><path d="M914.8594,321.7031 L914.8594,324.2031 L919.1875,324.2031 L919.1875,323.2813 Q919.1875,322.6719 919.4219,322.4063 Q919.6719,322.1406 920.0469,322.1406 Q920.4219,322.1406 920.6563,322.4063 Q920.8906,322.6719 920.8906,323.2813 L920.8906,325.9063 L912.8906,325.9063 Q912.2656,325.9063 912,325.6719 Q911.75,325.4375 911.75,325.0469 Q911.75,324.6719 912.0156,324.4375 Q912.2813,324.2031 912.8906,324.2031 L913.1563,324.2031 L913.1563,317.5469 L912.8906,317.5469 Q912.2656,317.5469 912,317.3125 Q911.75,317.0781 911.75,316.6875 Q911.75,316.3125 912,316.0781 Q912.2656,315.8438 912.8906,315.8438 L920.5156,315.8438 L920.5156,318.4375 Q920.5156,319.0469 920.2813,319.3125 Q920.0625,319.5625 919.6719,319.5625 Q919.2969,319.5625 919.0625,319.3125 Q918.8281,319.0469 918.8281,318.4375 L918.8281,317.5469 L914.8594,317.5469 L914.8594,320 L916.3438,320 Q916.3438,319.3438 916.4688,319.1563 Q916.7344,318.75 917.2031,318.75 Q917.5781,318.75 917.8125,319.0156 Q918.0469,319.2656 918.0469,319.875 L918.0469,321.8438 Q918.0469,322.3906 917.9219,322.5781 Q917.6563,322.9688 917.2031,322.9688 Q916.7344,322.9688 916.4688,322.5625 Q916.3438,322.375 916.3438,321.7031 L914.8594,321.7031 Z " fill="#000000"/><text fill="#000000" font-family="sans-serif" font-size="12" font-style="italic" lengthAdjust="spacing" textLength="43" x="956.5" y="308.584">&#171;entity&#187;</text><text fill="#000000" font-family="sans-serif" font-size="12" font-style="italic" lengthAdjust="spacing" textLength="35" x="960.5" y="324.5449">&#171;root&#187;</text><text fill="#000000" font-family="sans-serif" font-size="14" lengthAdjust="spacing" textLength="96" x="930" y="342.6641">BoardMembers</text><line style="stroke:#181818;stroke-width:0.5;" x1="902" x2="1028" y1="351.1777" y2="351.1777"/><text fill="#000000" font-family="sans-serif" font-size="14" lengthAdjust="spacing" textLength="68" x="907" y="370.2852">joinedDate</text></g><!--class AccessPermission--><g id="elem_AccessPermission"><rect codeLine="65" fill="#F1F1F1" height="52.582" id="AccessPermission" rx="2.5" ry="2.5" style="stroke:#181818;stroke-width:0.5;" width="146" x="892" y="489.1348"/><ellipse cx="907" cy="511.4258" fill="#FF8B40" rx="11" ry="11" style="stroke:#181818;stroke-width:1.0;"/><path d="M907.5938,514.6914 L910.0625,508.8164 L909.6719,508.8164 Q909.0625,508.8164 908.7969,508.582 Q908.5313,508.3477 908.5313,507.957 Q908.5313,507.582 908.7969,507.3477 Q909.0625,507.1133 909.6719,507.1133 L911.9531,507.1133 Q912.5625,507.1133 912.8281,507.3477 Q913.0938,507.582 913.0938,507.957 Q913.0938,508.4258 912.6875,508.6914 Q912.5,508.8164 911.9063,508.8164 L908.4219,517.1758 L906.7813,517.1758 L903.2969,508.8164 Q902.7031,508.8164 902.5156,508.6914 Q902.1094,508.4258 902.1094,507.957 Q902.1094,507.582 902.375,507.3477 Q902.6406,507.1133 903.25,507.1133 L905.5469,507.1133 Q906.1563,507.1133 906.4063,507.3477 Q906.6719,507.582 906.6719,507.957 Q906.6719,508.3477 906.4063,508.582 Q906.1563,508.8164 905.5469,508.8164 L905.1406,508.8164 L907.5938,514.6914 Z " fill="#000000"/><text fill="#000000" font-family="sans-serif" font-size="12" font-style="italic" lengthAdjust="spacing" textLength="81" x="937.5" y="507.084">&#171;value object&#187;</text><text fill="#000000" font-family="sans-serif" font-size="14" lengthAdjust="spacing" textLength="114" x="921" y="525.2031">AccessPermission</text><line style="stroke:#181818;stroke-width:0.5;" x1="893" x2="1037" y1="533.7168" y2="533.7168"/></g><!--link SystemUser to Username--><g id="link_SystemUser_Username"><path codeLine="68" d="M762.75,550.3548 C762.59,571.9548 762.38,599.7648 762.23,620.7848 " fill="none" id="SystemUser-to-Username" style="stroke:#181818;stroke-width:1.0;"/><polygon fill="#181818" points="762.19,625.9748,766.267,617.0094,762.2329,620.9749,758.2673,616.9408,762.19,625.9748" style="stroke:#181818;stroke-width:1.0;"/></g><!--link PostIt to PostItPosition--><g id="link_PostIt_PostItPosition"><path codeLine="70" d="M397.12,342.7848 C342.1,355.6748 235.08,385.4048 157,436.1348 C144,444.5848 131.55,455.6448 120.62,466.7848 " fill="none" id="PostIt-to-PostItPosition" style="stroke:#181818;stroke-width:1.0;"/><polygon fill="#181818" points="116.98,470.5648,126.1066,466.8627,120.4507,466.9655,120.3478,461.3096,116.98,470.5648" style="stroke:#181818;stroke-width:1.0;"/></g><!--link PostIt to PostItType--><g id="link_PostIt_PostItType"><path codeLine="71" d="M397.48,359.7048 C370.12,379.2448 331.87,407.8948 301,436.1348 C284.39,451.3248 267.31,469.8048 253.95,485.0248 " fill="none" id="PostIt-to-PostItType" style="stroke:#181818;stroke-width:1.0;"/><polygon fill="#181818" points="250.63,488.8248,259.5657,484.6832,253.9215,485.061,253.5437,479.4168,250.63,488.8248" style="stroke:#181818;stroke-width:1.0;"/></g><!--link PostIt to PostItTimeStamp--><g id="link_PostIt_PostItTimeStamp"><path codeLine="72" d="M422.34,377.6748 C414.13,410.4048 402.99,454.8548 395.65,484.1148 " fill="none" id="PostIt-to-PostItTimeStamp" style="stroke:#181818;stroke-width:1.0;"/><polygon fill="#181818" points="394.42,489.0348,400.4888,481.2778,395.636,484.1849,392.729,479.3322,394.42,489.0348" style="stroke:#181818;stroke-width:1.0;"/></g><!--link PostIt to PostItStatus--><g id="link_PostIt_PostItStatus"><path codeLine="73" d="M460.02,377.6748 C480.89,410.5448 509.27,455.2248 527.85,484.4748 " fill="none" id="PostIt-to-PostItStatus" style="stroke:#181818;stroke-width:1.0;"/><polygon fill="#181818" points="530.74,489.0348,529.2999,479.2918,528.063,484.8117,522.5431,483.5749,530.74,489.0348" style="stroke:#181818;stroke-width:1.0;"/></g><!--link PostIt to PostIt--><g id="link_PostIt_PostIt"><path codeLine="74" d="M468.55,318.9348 C486.93,316.6048 503.5,321.6648 503.5,334.1348 C503.5,345.4348 489.89,350.6548 473.66,349.7948 " fill="none" id="PostIt-to-PostIt" style="stroke:#181818;stroke-width:1.0;"/><polygon fill="#181818" points="468.55,349.3348,477.1472,354.1398,473.5291,349.7913,477.8776,346.1732,468.55,349.3348" style="stroke:#181818;stroke-width:1.0;"/><polygon fill="#000000" points="507.8712,339.2406,511.9243,330.6369,506.0931,329.8977,507.8712,339.2406" style="stroke:#000000;stroke-width:1.0;"/><text fill="#000000" font-family="sans-serif" font-size="13" lengthAdjust="spacing" textLength="53" x="522.5" y="339.6631">precedes</text><text fill="#000000" font-family="sans-serif" font-size="13" lengthAdjust="spacing" textLength="7" x="476.6041" y="311.0881">1</text><text fill="#000000" font-family="sans-serif" font-size="13" lengthAdjust="spacing" textLength="7" x="476.6041" y="368.2643">1</text></g><!--link PostIt to SystemUser--><g id="link_PostIt_SystemUser"><path codeLine="75" d="M468.63,354.5148 C525.3,385.3448 636.53,445.8448 704.86,483.0148 " fill="none" id="PostIt-to-SystemUser" style="stroke:#181818;stroke-width:1.0;"/><polygon fill="#181818" points="709.3,485.4248,703.2948,477.6185,704.9045,483.0415,699.4816,484.6513,709.3,485.4248" style="stroke:#181818;stroke-width:1.0;"/><polygon fill="#000000" points="607.3922,421.1695,600.8509,414.2657,598.0423,419.4291,607.3922,421.1695" style="stroke:#000000;stroke-width:1.0;"/><text fill="#000000" font-family="sans-serif" font-size="13" lengthAdjust="spacing" textLength="71" x="612" y="424.1631">managed by</text><text fill="#000000" font-family="sans-serif" font-size="13" lengthAdjust="spacing" textLength="20" x="476.4727" y="353.5959">0..*</text><text fill="#000000" font-family="sans-serif" font-size="13" lengthAdjust="spacing" textLength="20" x="681.5366" y="477.7809">1..*</text></g><!--link Board to BoardDimensions--><g id="link_Board_BoardDimensions"><path codeLine="77" d="M1241.58,171.7648 C1273.61,203.3948 1320.98,250.1748 1356.48,285.2248 " fill="none" id="Board-to-BoardDimensions" style="stroke:#181818;stroke-width:1.0;"/><polygon fill="#181818" points="1360.32,289.0148,1356.7288,279.844,1356.7631,285.5007,1351.1064,285.535,1360.32,289.0148" style="stroke:#181818;stroke-width:1.0;"/></g><!--link Board to BoardCreationDateTime--><g id="link_Board_BoardCreationDateTime"><path codeLine="78" d="M1206,188.7748 C1206,221.5548 1206,263.1948 1206,293.3248 " fill="none" id="Board-to-BoardCreationDateTime" style="stroke:#181818;stroke-width:1.0;"/><polygon fill="#181818" points="1206,298.4348,1210,289.4348,1206,293.4348,1202,289.4348,1206,298.4348" style="stroke:#181818;stroke-width:1.0;"/></g><!--link Board to BoardElementLine--><g id="link_Board_BoardElementLine"><path codeLine="79" d="M1241.76,145.2348 C1298.37,159.8848 1410.71,193.2948 1494,245.6348 C1518.99,261.3348 1543,284.5448 1560.22,303.1148 " fill="none" id="Board-to-BoardElementLine" style="stroke:#181818;stroke-width:1.0;"/><polygon fill="#181818" points="1564.01,307.2448,1560.8673,297.9108,1560.6275,303.5626,1554.9757,303.3228,1564.01,307.2448" style="stroke:#181818;stroke-width:1.0;"/><polygon fill="#000000" points="1488.4797,230.5011,1481.6812,223.8505,1479.0705,229.1167,1488.4797,230.5011" style="stroke:#000000;stroke-width:1.0;"/><text fill="#000000" font-family="sans-serif" font-size="13" lengthAdjust="spacing" textLength="21" x="1493" y="233.6631">has</text><text fill="#000000" font-family="sans-serif" font-size="13" lengthAdjust="spacing" textLength="7" x="1249.4893" y="142.5294">1</text><text fill="#000000" font-family="sans-serif" font-size="13" lengthAdjust="spacing" textLength="20" x="1536.6123" y="296.1711">1..*</text></g><!--link Board to BoardElementColumn--><g id="link_Board_BoardElementColumn"><path codeLine="80" d="M1241.71,139.0548 C1323.22,145.7948 1527.51,169.5748 1678,245.6348 C1706.7,260.1348 1734.06,284.3848 1753.2,303.6848 " fill="none" id="Board-to-BoardElementColumn" style="stroke:#181818;stroke-width:1.0;"/><polygon fill="#181818" points="1756.92,307.4648,1753.4775,298.2371,1753.4204,303.8937,1747.7638,303.8366,1756.92,307.4648" style="stroke:#181818;stroke-width:1.0;"/><polygon fill="#000000" points="1663.7595,229.8122,1656.0499,224.2433,1654.249,229.8385,1663.7595,229.8122" style="stroke:#000000;stroke-width:1.0;"/><text fill="#000000" font-family="sans-serif" font-size="13" lengthAdjust="spacing" textLength="21" x="1668" y="233.6631">has</text><text fill="#000000" font-family="sans-serif" font-size="13" lengthAdjust="spacing" textLength="7" x="1249.4295" y="155.4796">1</text><text fill="#000000" font-family="sans-serif" font-size="13" lengthAdjust="spacing" textLength="20" x="1729.2703" y="296.442">1..*</text></g><!--link Board to BoardMembers--><g id="link_Board_BoardMembers"><path codeLine="81" d="M1170.44,165.6248 C1131.17,197.6548 1067.4,249.6448 1021.32,287.2148 " fill="none" id="Board-to-BoardMembers" style="stroke:#181818;stroke-width:1.0;"/><polygon fill="#181818" points="1017.2,290.5748,1026.7027,287.9867,1021.0749,287.4148,1021.6468,281.7869,1017.2,290.5748" style="stroke:#181818;stroke-width:1.0;"/><polygon fill="#000000" points="1100.1249,231.44,1108.9922,228.0018,1105.2778,223.4463,1100.1249,231.44" style="stroke:#000000;stroke-width:1.0;"/><text fill="#000000" font-family="sans-serif" font-size="13" lengthAdjust="spacing" textLength="21" x="1113" y="233.6631">has</text><text fill="#000000" font-family="sans-serif" font-size="13" lengthAdjust="spacing" textLength="7" x="1155.3839" y="187.6438">1</text><text fill="#000000" font-family="sans-serif" font-size="13" lengthAdjust="spacing" textLength="20" x="1003.9256" y="279.3161">1..*</text></g><!--link Board to PostIt--><g id="link_Board_PostIt"><path codeLine="82" d="M1170.22,139.4748 C1086.78,146.7348 873.37,169.0148 702,218.6348 C617.76,243.0248 524.69,286.6548 473.09,312.4348 " fill="none" id="Board-to-PostIt" style="stroke:#181818;stroke-width:1.0;"/><polygon fill="#181818" points="468.53,314.7248,478.3681,314.265,472.9993,312.483,474.7813,307.1141,468.53,314.7248" style="stroke:#181818;stroke-width:1.0;"/><polygon fill="#000000" points="702.1471,229.4843,711.6338,230.1587,710.2184,224.4538,702.1471,229.4843" style="stroke:#000000;stroke-width:1.0;"/><text fill="#000000" font-family="sans-serif" font-size="13" lengthAdjust="spacing" textLength="21" x="716" y="233.6631">has</text><text fill="#000000" font-family="sans-serif" font-size="13" lengthAdjust="spacing" textLength="7" x="1155.4868" y="135.6354">1</text><text fill="#000000" font-family="sans-serif" font-size="13" lengthAdjust="spacing" textLength="20" x="476.64" y="326.821">0..*</text></g><!--link Board to SystemUser--><g id="link_Board_SystemUser"><path codeLine="83" d="M1170.3,141.1648 C1080.62,153.2948 849.53,189.4548 800,245.6348 C743.41,309.8248 748.47,418.2248 756.2,475.8748 " fill="none" id="Board-to-SystemUser" style="stroke:#181818;stroke-width:1.0;"/><polygon fill="#181818" points="756.91,480.9548,759.6353,471.4905,756.2229,476.0022,751.7112,472.5898,756.91,480.9548" style="stroke:#181818;stroke-width:1.0;"/><polygon fill="#000000" points="801.1114,337.4233,809.9934,334.0231,806.2985,329.4518,801.1114,337.4233" style="stroke:#000000;stroke-width:1.0;"/><text fill="#000000" font-family="sans-serif" font-size="13" lengthAdjust="spacing" textLength="61" x="814" y="339.6631">created by</text><text fill="#000000" font-family="sans-serif" font-size="13" lengthAdjust="spacing" textLength="20" x="1142.4453" y="157.648">0..*</text><text fill="#000000" font-family="sans-serif" font-size="13" lengthAdjust="spacing" textLength="7" x="748.0819" y="469.8232">1</text></g><!--link BoardElementLine to BoardElement--><g id="link_BoardElementLine_BoardElement"><path codeLine="85" d="M1599.9,360.8548 C1614.11,387.1448 1636.59,428.7448 1654.59,462.0548 " fill="none" id="BoardElementLine-to-BoardElement" style="stroke:#181818;stroke-width:1.0;"/><polygon fill="none" points="1660.96,459.1148,1664.31,480.0448,1648.64,465.7748,1660.96,459.1148" style="stroke:#181818;stroke-width:1.0;"/></g><!--link BoardElementColumn to BoardElement--><g id="link_BoardElementColumn_BoardElement"><path codeLine="86" d="M1766.1,360.8548 C1751.89,387.1448 1729.41,428.7448 1711.41,462.0548 " fill="none" id="BoardElementColumn-to-BoardElement" style="stroke:#181818;stroke-width:1.0;"/><polygon fill="none" points="1717.36,465.7748,1701.69,480.0448,1705.04,459.1148,1717.36,465.7748" style="stroke:#181818;stroke-width:1.0;"/></g><!--link BoardMembers to AccessPermission--><g id="link_BoardMembers_AccessPermission"><path codeLine="88" d="M965,377.6748 C965,410.2748 965,454.4848 965,483.7548 " fill="none" id="BoardMembers-to-AccessPermission" style="stroke:#181818;stroke-width:1.0;"/><polygon fill="#181818" points="965,489.0348,969,480.0348,965,484.0348,961,480.0348,965,489.0348" style="stroke:#181818;stroke-width:1.0;"/></g><!--link BoardMembers to SystemUser--><g id="link_BoardMembers_SystemUser"><path codeLine="89" d="M917.13,377.6748 C882.94,408.0548 837.38,448.5348 804.68,477.5948 " fill="none" id="BoardMembers-to-SystemUser" style="stroke:#181818;stroke-width:1.0;"/><polygon fill="#181818" points="800.76,481.0848,810.1377,478.0751,804.4899,477.755,804.8101,472.1072,800.76,481.0848" style="stroke:#181818;stroke-width:1.0;"/><polygon fill="#000000" points="877.2624,422.1014,885.9759,418.2903,882.0717,413.8965,877.2624,422.1014" style="stroke:#000000;stroke-width:1.0;"/><text fill="#000000" font-family="sans-serif" font-size="13" lengthAdjust="spacing" textLength="21" x="890" y="424.1631">has</text><text fill="#000000" font-family="sans-serif" font-size="13" lengthAdjust="spacing" textLength="20" x="888.2687" y="399.6814">0..*</text><text fill="#000000" font-family="sans-serif" font-size="13" lengthAdjust="spacing" textLength="20" x="786.0518" y="469.978">1..*</text></g><!--SRC=[bLJRRjim37tNLn3PmzfXBZ9i68R0CD0cAr1W0mgatRji4ObQIp8i9KFMzPFs5VknqVAbjcFNMHuSMpma3tb8EPE1Cn0Rvum28NDCd3IQCITTYh0oYaiDovHRYnRELijp2E1-3H_dyy-CRQL0KEYsHbXc7wNEUCuL90NyqhbSnZk7DudHQ_aBOSxOs_N1EbJt5dEMyUIHRn1cOSWtcnmtt64KmGjY1ayCw8UQo1nQ1WZ3yepWOPWRu-ZbwTc3VMueK9eh9FFPZ_VmvlhwozMd-JdiURf3CF43bHb5x9aOtHhhRjmOczBQOr8U3hFmE4_4Q4Ts_zscLZhJKnQDVfrW9rowKxhvJAN6AlHHxBj3DbNuaOjKk7PSPV_fHpvkPqzmqiPXDMLD3Il9DpGk76Y8q3ekZ6riGjhCwBz_zfXIwGfCOz66P9rbb3wGBh2UmAnIH_WyNjOhmtCnfgetzaJrPnEQ-gLeldYUREKUnR4EFjOoHrv8lAASHNzFbbfK3YDnLsJIbWBRaoFgdLhw-R7jesyqGxQTf6pQrnHLFRWyjYxdYOEsXTBMvoFTgUArErlv5ZbRJHw3bMpRm4RJxwXYpEshqbQO8OKhquJG3uPuYaAvOn4kamIjlSLSIMidLxWWthgvWY1gBYV6geia4EQd3gBUrJ1iBPPxn5BlyB2vNDNQDlimyroA_-fe0HdT_YZedeyQsFpYubsDzA-jMXQWk2O91CG7Sc7b1jLPUxCwPErlI8LvuUOp7etF0hQyu3Y9hgPe6byFnGYoR4BJfWwctQ1UTvAYl6vtscMKhVWTTIYp0Vx3GDPXNlUrFvnTr8ISPM7_0000]--></g></svg>