<?xml version="1.0" encoding="us-ascii" standalone="no"?><svg xmlns="http://www.w3.org/2000/svg" xmlns:xlink="http://www.w3.org/1999/xlink" contentStyleType="text/css" height="63px" preserveAspectRatio="none" style="width:871px;height:63px;background:#FFFFFF;" version="1.1" viewBox="0 0 871 63" width="871px" zoomAndPan="magnify"><defs/><g><ellipse cx="16" cy="32" fill="#181818" rx="10" ry="10" style="stroke:none;stroke-width:1.0;"/><g id="exist"><rect fill="#F1F1F1" height="50" rx="12.5" ry="12.5" style="stroke:#181818;stroke-width:0.5;" width="50" x="385" y="7"/><line style="stroke:#181818;stroke-width:0.5;" x1="385" x2="435" y1="35.6211" y2="35.6211"/><text fill="#000000" font-family="sans-serif" font-size="14" lengthAdjust="spacing" textLength="28" x="396" y="27.1074">exist</text></g><g id="removed"><rect fill="#F1F1F1" height="50" rx="12.5" ry="12.5" style="stroke:#181818;stroke-width:0.5;" width="75" x="734.5" y="7"/><line style="stroke:#181818;stroke-width:0.5;" x1="734.5" x2="809.5" y1="35.6211" y2="35.6211"/><text fill="#000000" font-family="sans-serif" font-size="14" lengthAdjust="spacing" textLength="55" x="744.5" y="27.1074">removed</text></g><ellipse cx="855" cy="32" fill="none" rx="10" ry="10" style="stroke:#181818;stroke-width:1.0;"/><ellipse cx="855.5" cy="32.5" fill="#181818" rx="6" ry="6" style="stroke:none;stroke-width:1.0;"/><!--link *start* to exist--><g id="link_*start*_exist"><path d="M26.14,32 C76.23,32 298.2,32 379.78,32 " fill="none" id="*start*-to-exist" style="stroke:#181818;stroke-width:1.0;"/><polygon fill="#181818" points="384.95,32,375.95,28,379.95,32,375.95,36,384.95,32" style="stroke:#181818;stroke-width:1.0;"/><text fill="#000000" font-family="sans-serif" font-size="13" lengthAdjust="spacing" textLength="322" x="44.5" y="25.0283">US 3006 - As User, I want to create a post-it on a board</text></g><!--link exist to removed--><g id="link_exist_removed"><path d="M435.17,32 C496.23,32 652.83,32 729.05,32 " fill="none" id="exist-to-removed" style="stroke:#181818;stroke-width:1.0;"/><polygon fill="#181818" points="734.39,32,725.39,28,729.39,32,725.39,36,734.39,32" style="stroke:#181818;stroke-width:1.0;"/><text fill="#000000" font-family="sans-serif" font-size="13" lengthAdjust="spacing" textLength="263" x="453.25" y="25.0283">US 3007 - As User, I want to change a post-it</text></g><!--link removed to *end*--><g id="link_removed_*end*"><path d="M809.61,32 C819.57,32 829.54,32 839.51,32 " fill="none" id="removed-to-*end*" style="stroke:#181818;stroke-width:1.0;"/><polygon fill="#181818" points="844.72,32,835.72,28,839.72,32,835.72,36,844.72,32" style="stroke:#181818;stroke-width:1.0;"/></g><!--SRC=[TSuz2y8m4CRn_Jx5imbYJ45Gw20uEaidSJYRq1QQ9YJd2uZVtL2jkBZTC_n_tAmL2QdKElGyoCNrozexdOJ5AjDn4zaH7USdg2tilKk24jK1gw9OGs6NK2KR5zZZbdE8HnrjRi48Fedg17x8u-mv6gBH_JWFUXAzpsn7w_pLcg- - -QEtF3G_-aHE-OXE8xFvSte1]--></g></svg>