<?xml version="1.0" encoding="us-ascii" standalone="no"?><svg xmlns="http://www.w3.org/2000/svg" xmlns:xlink="http://www.w3.org/1999/xlink" contentStyleType="text/css" height="1488px" preserveAspectRatio="none" style="width:1894px;height:1488px;background:#FFFFFF;" version="1.1" viewBox="0 0 1894 1488" width="1894px" zoomAndPan="magnify"><defs/><g><text fill="#000000" font-family="sans-serif" font-size="14" font-weight="bold" lengthAdjust="spacing" textLength="233" x="832.25" y="30.1074">Sequence Diagram (SD) - US 3006</text><rect fill="#FFFFFF" height="1233.0586" style="stroke:#181818;stroke-width:1.0;" width="10" x="31.5" y="137.8633"/><rect fill="#FFFFFF" height="1209.7676" style="stroke:#181818;stroke-width:1.0;" width="10" x="410.5" y="161.1543"/><rect fill="#FFFFFF" height="31.291" style="stroke:#181818;stroke-width:1.0;" width="10" x="962.5" y="223.7363"/><rect fill="#FFFFFF" height="31.291" style="stroke:#181818;stroke-width:1.0;" width="10" x="962.5" y="487.0645"/><rect fill="#FFFFFF" height="31.291" style="stroke:#181818;stroke-width:1.0;" width="10" x="962.5" y="656.5195"/><rect fill="#FFFFFF" height="406.7832" style="stroke:#181818;stroke-width:1.0;" width="10" x="962.5" y="932.8477"/><rect fill="#FFFFFF" height="31.291" style="stroke:#181818;stroke-width:1.0;" width="10" x="1207.5" y="255.0273"/><rect fill="#FFFFFF" height="31.291" style="stroke:#181818;stroke-width:1.0;" width="10" x="1207.5" y="1277.0488"/><rect fill="#FFFFFF" height="93.873" style="stroke:#181818;stroke-width:1.0;" width="10" x="1368.5" y="1120.5938"/><line style="stroke:#181818;stroke-width:0.5;stroke-dasharray:5.0,5.0;" x1="36" x2="36" y1="127.8633" y2="1388.9219"/><line style="stroke:#181818;stroke-width:0.5;stroke-dasharray:5.0,5.0;" x1="415" x2="415" y1="127.8633" y2="1388.9219"/><line style="stroke:#181818;stroke-width:0.5;stroke-dasharray:5.0,5.0;" x1="967.5" x2="967.5" y1="127.8633" y2="1388.9219"/><line style="stroke:#181818;stroke-width:0.5;stroke-dasharray:5.0,5.0;" x1="1212" x2="1212" y1="127.8633" y2="1388.9219"/><line style="stroke:#181818;stroke-width:0.5;stroke-dasharray:5.0,5.0;" x1="1373" x2="1373" y1="127.8633" y2="1388.9219"/><line style="stroke:#181818;stroke-width:0.5;stroke-dasharray:5.0,5.0;" x1="1593.5" x2="1593.5" y1="127.8633" y2="1388.9219"/><line style="stroke:#181818;stroke-width:0.5;stroke-dasharray:5.0,5.0;" x1="1714.5" x2="1714.5" y1="127.8633" y2="1388.9219"/><line style="stroke:#181818;stroke-width:0.5;stroke-dasharray:5.0,5.0;" x1="1837.5" x2="1837.5" y1="127.8633" y2="1388.9219"/><text fill="#000000" font-family="sans-serif" font-size="14" lengthAdjust="spacing" textLength="57" x="5" y="124.3496">Utilizador</text><ellipse cx="36.5" cy="57.7422" fill="#E3E3E3" rx="8" ry="8" style="stroke:#181818;stroke-width:0.5;"/><path d="M36.5,65.7422 L36.5,92.7422 M23.5,73.7422 L49.5,73.7422 M36.5,92.7422 L23.5,107.7422 M36.5,92.7422 L49.5,107.7422 " fill="none" style="stroke:#181818;stroke-width:0.5;"/><text fill="#000000" font-family="sans-serif" font-size="14" lengthAdjust="spacing" textLength="57" x="5" y="1403.0293">Utilizador</text><ellipse cx="36.5" cy="1415.043" fill="#E3E3E3" rx="8" ry="8" style="stroke:#181818;stroke-width:0.5;"/><path d="M36.5,1423.043 L36.5,1450.043 M23.5,1431.043 L49.5,1431.043 M36.5,1450.043 L23.5,1465.043 M36.5,1450.043 L49.5,1465.043 " fill="none" style="stroke:#181818;stroke-width:0.5;"/><rect fill="#E3E3E3" height="51.2422" rx="2.5" ry="2.5" style="stroke:#181818;stroke-width:0.5;" width="109" x="361" y="75.6211"/><text fill="#000000" font-family="sans-serif" font-size="14" font-style="italic" lengthAdjust="spacing" textLength="95" x="368" y="97.7285">&#171;presentation&#187;</text><text fill="#000000" font-family="sans-serif" font-size="14" lengthAdjust="spacing" textLength="90" x="370.5" y="116.3496">CreatePostItUI</text><rect fill="#E3E3E3" height="51.2422" rx="2.5" ry="2.5" style="stroke:#181818;stroke-width:0.5;" width="109" x="361" y="1387.9219"/><text fill="#000000" font-family="sans-serif" font-size="14" font-style="italic" lengthAdjust="spacing" textLength="95" x="368" y="1410.0293">&#171;presentation&#187;</text><text fill="#000000" font-family="sans-serif" font-size="14" lengthAdjust="spacing" textLength="90" x="370.5" y="1428.6504">CreatePostItUI</text><text fill="#000000" font-family="sans-serif" font-size="14" font-style="italic" lengthAdjust="spacing" textLength="84" x="922.5" y="105.7285">&#171;application&#187;</text><text fill="#000000" font-family="sans-serif" font-size="14" lengthAdjust="spacing" textLength="140" x="894.5" y="124.3496">CreatePostItController</text><ellipse cx="967.5" cy="74.6211" fill="#E3E3E3" rx="12" ry="12" style="stroke:#181818;stroke-width:0.5;"/><polygon fill="#181818" points="963.5,62.6211,969.5,57.6211,967.5,62.6211,969.5,67.6211,963.5,62.6211" style="stroke:#181818;stroke-width:1.0;"/><text fill="#000000" font-family="sans-serif" font-size="14" font-style="italic" lengthAdjust="spacing" textLength="84" x="922.5" y="1403.0293">&#171;application&#187;</text><text fill="#000000" font-family="sans-serif" font-size="14" lengthAdjust="spacing" textLength="140" x="894.5" y="1421.6504">CreatePostItController</text><ellipse cx="967.5" cy="1441.1641" fill="#E3E3E3" rx="12" ry="12" style="stroke:#181818;stroke-width:0.5;"/><polygon fill="#181818" points="963.5,1429.1641,969.5,1424.1641,967.5,1429.1641,969.5,1434.1641,963.5,1429.1641" style="stroke:#181818;stroke-width:1.0;"/><rect fill="#E3E3E3" height="51.2422" rx="2.5" ry="2.5" style="stroke:#181818;stroke-width:0.5;" width="209" x="1108" y="75.6211"/><text fill="#000000" font-family="sans-serif" font-size="14" font-style="italic" lengthAdjust="spacing" textLength="87" x="1169" y="97.7285">&#171;csvprotocol&#187;</text><text fill="#000000" font-family="sans-serif" font-size="14" lengthAdjust="spacing" textLength="195" x="1115" y="116.3496">CsvSharedBoardProtocolProxy</text><rect fill="#E3E3E3" height="51.2422" rx="2.5" ry="2.5" style="stroke:#181818;stroke-width:0.5;" width="209" x="1108" y="1387.9219"/><text fill="#000000" font-family="sans-serif" font-size="14" font-style="italic" lengthAdjust="spacing" textLength="87" x="1169" y="1410.0293">&#171;csvprotocol&#187;</text><text fill="#000000" font-family="sans-serif" font-size="14" lengthAdjust="spacing" textLength="195" x="1115" y="1428.6504">CsvSharedBoardProtocolProxy</text><rect fill="#E3E3E3" height="51.2422" rx="2.5" ry="2.5" style="stroke:#181818;stroke-width:0.5;" width="93" x="1327" y="75.6211"/><text fill="#000000" font-family="sans-serif" font-size="14" font-style="italic" lengthAdjust="spacing" textLength="62" x="1342.5" y="97.7285">&#171;domain&#187;</text><text fill="#000000" font-family="sans-serif" font-size="14" lengthAdjust="spacing" textLength="79" x="1334" y="116.3496">PostItBuilder</text><rect fill="#E3E3E3" height="51.2422" rx="2.5" ry="2.5" style="stroke:#181818;stroke-width:0.5;" width="93" x="1327" y="1387.9219"/><text fill="#000000" font-family="sans-serif" font-size="14" font-style="italic" lengthAdjust="spacing" textLength="62" x="1342.5" y="1410.0293">&#171;domain&#187;</text><text fill="#000000" font-family="sans-serif" font-size="14" lengthAdjust="spacing" textLength="79" x="1334" y="1428.6504">PostItBuilder</text><rect fill="#E3E3E3" height="51.2422" rx="2.5" ry="2.5" style="stroke:#181818;stroke-width:0.5;" width="108" x="1539.5" y="75.6211"/><text fill="#000000" font-family="sans-serif" font-size="14" font-style="italic" lengthAdjust="spacing" textLength="62" x="1562.5" y="97.7285">&#171;domain&#187;</text><text fill="#000000" font-family="sans-serif" font-size="14" lengthAdjust="spacing" textLength="94" x="1546.5" y="116.3496">thePostIt:PostIt</text><rect fill="#E3E3E3" height="51.2422" rx="2.5" ry="2.5" style="stroke:#181818;stroke-width:0.5;" width="108" x="1539.5" y="1387.9219"/><text fill="#000000" font-family="sans-serif" font-size="14" font-style="italic" lengthAdjust="spacing" textLength="62" x="1562.5" y="1410.0293">&#171;domain&#187;</text><text fill="#000000" font-family="sans-serif" font-size="14" lengthAdjust="spacing" textLength="94" x="1546.5" y="1428.6504">thePostIt:PostIt</text><rect fill="#E3E3E3" height="51.2422" rx="2.5" ry="2.5" style="stroke:#181818;stroke-width:0.5;" width="114" x="1657.5" y="75.6211"/><text fill="#000000" font-family="sans-serif" font-size="14" font-style="italic" lengthAdjust="spacing" textLength="62" x="1683.5" y="97.7285">&#171;domain&#187;</text><text fill="#000000" font-family="sans-serif" font-size="14" lengthAdjust="spacing" textLength="100" x="1664.5" y="116.3496">theBoard:Board</text><rect fill="#E3E3E3" height="51.2422" rx="2.5" ry="2.5" style="stroke:#181818;stroke-width:0.5;" width="114" x="1657.5" y="1387.9219"/><text fill="#000000" font-family="sans-serif" font-size="14" font-style="italic" lengthAdjust="spacing" textLength="62" x="1683.5" y="1410.0293">&#171;domain&#187;</text><text fill="#000000" font-family="sans-serif" font-size="14" lengthAdjust="spacing" textLength="100" x="1664.5" y="1428.6504">theBoard:Board</text><text fill="#000000" font-family="sans-serif" font-size="14" font-style="italic" lengthAdjust="spacing" textLength="79" x="1795" y="105.7285">&#171;repository&#187;</text><text fill="#000000" font-family="sans-serif" font-size="14" lengthAdjust="spacing" textLength="106" x="1781.5" y="124.3496">BoardRepository</text><path d="M1819.5,54.6211 C1819.5,44.6211 1837.5,44.6211 1837.5,44.6211 C1837.5,44.6211 1855.5,44.6211 1855.5,54.6211 L1855.5,80.6211 C1855.5,90.6211 1837.5,90.6211 1837.5,90.6211 C1837.5,90.6211 1819.5,90.6211 1819.5,80.6211 L1819.5,54.6211 " fill="#E3E3E3" style="stroke:#181818;stroke-width:1.5;"/><path d="M1819.5,54.6211 C1819.5,64.6211 1837.5,64.6211 1837.5,64.6211 C1837.5,64.6211 1855.5,64.6211 1855.5,54.6211 " fill="none" style="stroke:#181818;stroke-width:1.5;"/><text fill="#000000" font-family="sans-serif" font-size="14" font-style="italic" lengthAdjust="spacing" textLength="79" x="1795" y="1403.0293">&#171;repository&#187;</text><text fill="#000000" font-family="sans-serif" font-size="14" lengthAdjust="spacing" textLength="106" x="1781.5" y="1421.6504">BoardRepository</text><path d="M1819.5,1435.1641 C1819.5,1425.1641 1837.5,1425.1641 1837.5,1425.1641 C1837.5,1425.1641 1855.5,1425.1641 1855.5,1435.1641 L1855.5,1461.1641 C1855.5,1471.1641 1837.5,1471.1641 1837.5,1471.1641 C1837.5,1471.1641 1819.5,1471.1641 1819.5,1461.1641 L1819.5,1435.1641 " fill="#E3E3E3" style="stroke:#181818;stroke-width:1.5;"/><path d="M1819.5,1435.1641 C1819.5,1445.1641 1837.5,1445.1641 1837.5,1445.1641 C1837.5,1445.1641 1855.5,1445.1641 1855.5,1435.1641 " fill="none" style="stroke:#181818;stroke-width:1.5;"/><rect fill="#FFFFFF" height="1233.0586" style="stroke:#181818;stroke-width:1.0;" width="10" x="31.5" y="137.8633"/><rect fill="#FFFFFF" height="1209.7676" style="stroke:#181818;stroke-width:1.0;" width="10" x="410.5" y="161.1543"/><rect fill="#FFFFFF" height="31.291" style="stroke:#181818;stroke-width:1.0;" width="10" x="962.5" y="223.7363"/><rect fill="#FFFFFF" height="31.291" style="stroke:#181818;stroke-width:1.0;" width="10" x="962.5" y="487.0645"/><rect fill="#FFFFFF" height="31.291" style="stroke:#181818;stroke-width:1.0;" width="10" x="962.5" y="656.5195"/><rect fill="#FFFFFF" height="406.7832" style="stroke:#181818;stroke-width:1.0;" width="10" x="962.5" y="932.8477"/><rect fill="#FFFFFF" height="31.291" style="stroke:#181818;stroke-width:1.0;" width="10" x="1207.5" y="255.0273"/><rect fill="#FFFFFF" height="31.291" style="stroke:#181818;stroke-width:1.0;" width="10" x="1207.5" y="1277.0488"/><rect fill="#FFFFFF" height="93.873" style="stroke:#181818;stroke-width:1.0;" width="10" x="1368.5" y="1120.5938"/><polygon fill="#181818" points="398.5,157.1543,408.5,161.1543,398.5,165.1543,402.5,161.1543" style="stroke:#181818;stroke-width:1.0;"/><line style="stroke:#181818;stroke-width:1.0;" x1="41.5" x2="404.5" y1="161.1543" y2="161.1543"/><text fill="#000000" font-family="sans-serif" font-size="13" font-weight="bold" lengthAdjust="spacing" textLength="7" x="48.5" y="155.8916">1</text><text fill="#000000" font-family="sans-serif" font-size="13" lengthAdjust="spacing" textLength="266" x="59.5" y="155.8916">Pede para criar um post-it num quadro (board)</text><polygon fill="#181818" points="955.5,188.4453,965.5,192.4453,955.5,196.4453,959.5,192.4453" style="stroke:#181818;stroke-width:1.0;"/><line style="stroke:#181818;stroke-width:1.0;" x1="420.5" x2="961.5" y1="192.4453" y2="192.4453"/><text fill="#000000" font-family="sans-serif" font-size="13" font-weight="bold" lengthAdjust="spacing" textLength="7" x="427.5" y="187.1826">2</text><text fill="#000000" font-family="sans-serif" font-size="13" lengthAdjust="spacing" textLength="36" x="438.5" y="187.1826">create</text><polygon fill="#181818" points="950.5,219.7363,960.5,223.7363,950.5,227.7363,954.5,223.7363" style="stroke:#181818;stroke-width:1.0;"/><line style="stroke:#181818;stroke-width:1.0;" x1="420.5" x2="956.5" y1="223.7363" y2="223.7363"/><text fill="#000000" font-family="sans-serif" font-size="13" font-weight="bold" lengthAdjust="spacing" textLength="7" x="427.5" y="218.4736">3</text><text fill="#000000" font-family="sans-serif" font-size="13" lengthAdjust="spacing" textLength="204" x="438.5" y="218.4736">listAllBoardsWithPermissionWrite()</text><polygon fill="#181818" points="1195.5,251.0273,1205.5,255.0273,1195.5,259.0273,1199.5,255.0273" style="stroke:#181818;stroke-width:1.0;"/><line style="stroke:#181818;stroke-width:1.0;" x1="967.5" x2="1201.5" y1="255.0273" y2="255.0273"/><text fill="#000000" font-family="sans-serif" font-size="13" font-weight="bold" lengthAdjust="spacing" textLength="7" x="974.5" y="249.7646">4</text><text fill="#000000" font-family="sans-serif" font-size="13" lengthAdjust="spacing" textLength="205" x="985.5" y="249.7646">getAllBoardsWithPermissionWrite()</text><polygon fill="#181818" points="1825.5,282.3184,1835.5,286.3184,1825.5,290.3184,1829.5,286.3184" style="stroke:#181818;stroke-width:1.0;"/><line style="stroke:#181818;stroke-width:1.0;" x1="1212.5" x2="1831.5" y1="286.3184" y2="286.3184"/><text fill="#000000" font-family="sans-serif" font-size="13" font-weight="bold" lengthAdjust="spacing" textLength="7" x="1219.5" y="281.0557">5</text><text fill="#000000" font-family="sans-serif" font-size="13" lengthAdjust="spacing" textLength="232" x="1230.5" y="281.0557">findAllBoardsWithPermissionWrite(user)</text><line style="stroke:#181818;stroke-width:1.0;stroke-dasharray:2.0,2.0;" x1="420.5" x2="462.5" y1="317.6094" y2="317.6094"/><line style="stroke:#181818;stroke-width:1.0;stroke-dasharray:2.0,2.0;" x1="462.5" x2="462.5" y1="317.6094" y2="330.6094"/><line style="stroke:#181818;stroke-width:1.0;stroke-dasharray:2.0,2.0;" x1="421.5" x2="462.5" y1="330.6094" y2="330.6094"/><polygon fill="#181818" points="431.5,326.6094,421.5,330.6094,431.5,334.6094,427.5,330.6094" style="stroke:#181818;stroke-width:1.0;"/><text fill="#000000" font-family="sans-serif" font-size="13" font-weight="bold" lengthAdjust="spacing" textLength="7" x="427.5" y="312.3467">6</text><text fill="#000000" font-family="sans-serif" font-size="13" lengthAdjust="spacing" textLength="517" x="438.5" y="312.3467">Mostra a lista de quadros ativos em que o utilizador &#233; dono ou tem permiss&#245;es de escrita</text><polygon fill="#181818" points="52.5,357.9004,42.5,361.9004,52.5,365.9004,48.5,361.9004" style="stroke:#181818;stroke-width:1.0;"/><line style="stroke:#181818;stroke-width:1.0;stroke-dasharray:2.0,2.0;" x1="46.5" x2="409.5" y1="361.9004" y2="361.9004"/><text fill="#000000" font-family="sans-serif" font-size="13" font-weight="bold" lengthAdjust="spacing" textLength="7" x="58.5" y="356.6377">7</text><text fill="#000000" font-family="sans-serif" font-size="13" lengthAdjust="spacing" textLength="257" x="69.5" y="356.6377">Pede para escolher o quadro a criar o post-it</text><polygon fill="#181818" points="398.5,389.1914,408.5,393.1914,398.5,397.1914,402.5,393.1914" style="stroke:#181818;stroke-width:1.0;"/><line style="stroke:#181818;stroke-width:1.0;" x1="41.5" x2="404.5" y1="393.1914" y2="393.1914"/><text fill="#000000" font-family="sans-serif" font-size="13" font-weight="bold" lengthAdjust="spacing" textLength="7" x="48.5" y="387.9287">8</text><text fill="#000000" font-family="sans-serif" font-size="13" lengthAdjust="spacing" textLength="192" x="59.5" y="387.9287">Escolhe o quadro a criar o post-it</text><polygon fill="#181818" points="52.5,420.4824,42.5,424.4824,52.5,428.4824,48.5,424.4824" style="stroke:#181818;stroke-width:1.0;"/><line style="stroke:#181818;stroke-width:1.0;stroke-dasharray:2.0,2.0;" x1="46.5" x2="409.5" y1="424.4824" y2="424.4824"/><text fill="#000000" font-family="sans-serif" font-size="13" font-weight="bold" lengthAdjust="spacing" textLength="7" x="58.5" y="419.2197">9</text><text fill="#000000" font-family="sans-serif" font-size="13" lengthAdjust="spacing" textLength="260" x="69.5" y="419.2197">Pede para inserir o conte&#250;do e tipo do post-it</text><polygon fill="#181818" points="398.5,451.7734,408.5,455.7734,398.5,459.7734,402.5,455.7734" style="stroke:#181818;stroke-width:1.0;"/><line style="stroke:#181818;stroke-width:1.0;" x1="41.5" x2="404.5" y1="455.7734" y2="455.7734"/><text fill="#000000" font-family="sans-serif" font-size="13" font-weight="bold" lengthAdjust="spacing" textLength="14" x="48.5" y="450.5107">10</text><text fill="#000000" font-family="sans-serif" font-size="13" lengthAdjust="spacing" textLength="197" x="66.5" y="450.5107">Insere o conte&#250;do e tipo do post-it</text><polygon fill="#181818" points="950.5,483.0645,960.5,487.0645,950.5,491.0645,954.5,487.0645" style="stroke:#181818;stroke-width:1.0;"/><line style="stroke:#181818;stroke-width:1.0;" x1="420.5" x2="956.5" y1="487.0645" y2="487.0645"/><text fill="#000000" font-family="sans-serif" font-size="13" font-weight="bold" lengthAdjust="spacing" textLength="14" x="427.5" y="481.8018">11</text><text fill="#000000" font-family="sans-serif" font-size="13" lengthAdjust="spacing" textLength="205" x="445.5" y="481.8018">listAllBoardElementLines(theBoard)</text><polygon fill="#181818" points="1702.5,514.3555,1712.5,518.3555,1702.5,522.3555,1706.5,518.3555" style="stroke:#181818;stroke-width:1.0;"/><line style="stroke:#181818;stroke-width:1.0;" x1="967.5" x2="1708.5" y1="518.3555" y2="518.3555"/><text fill="#000000" font-family="sans-serif" font-size="13" font-weight="bold" lengthAdjust="spacing" textLength="14" x="974.5" y="513.0928">12</text><text fill="#000000" font-family="sans-serif" font-size="13" lengthAdjust="spacing" textLength="112" x="992.5" y="513.0928">boardElementLine()</text><line style="stroke:#181818;stroke-width:1.0;stroke-dasharray:2.0,2.0;" x1="420.5" x2="462.5" y1="549.6465" y2="549.6465"/><line style="stroke:#181818;stroke-width:1.0;stroke-dasharray:2.0,2.0;" x1="462.5" x2="462.5" y1="549.6465" y2="562.6465"/><line style="stroke:#181818;stroke-width:1.0;stroke-dasharray:2.0,2.0;" x1="421.5" x2="462.5" y1="562.6465" y2="562.6465"/><polygon fill="#181818" points="431.5,558.6465,421.5,562.6465,431.5,566.6465,427.5,562.6465" style="stroke:#181818;stroke-width:1.0;"/><text fill="#000000" font-family="sans-serif" font-size="13" font-weight="bold" lengthAdjust="spacing" textLength="14" x="427.5" y="544.3838">13</text><text fill="#000000" font-family="sans-serif" font-size="13" lengthAdjust="spacing" textLength="196" x="445.5" y="544.3838">Mostra a lista de linhas do quadro</text><polygon fill="#181818" points="52.5,589.9375,42.5,593.9375,52.5,597.9375,48.5,593.9375" style="stroke:#181818;stroke-width:1.0;"/><line style="stroke:#181818;stroke-width:1.0;stroke-dasharray:2.0,2.0;" x1="46.5" x2="409.5" y1="593.9375" y2="593.9375"/><text fill="#000000" font-family="sans-serif" font-size="13" font-weight="bold" lengthAdjust="spacing" textLength="14" x="58.5" y="588.6748">14</text><text fill="#000000" font-family="sans-serif" font-size="13" lengthAdjust="spacing" textLength="316" x="76.5" y="588.6748">Pede para escolher a linha da posi&#231;&#227;o inicial do post-it</text><polygon fill="#181818" points="398.5,621.2285,408.5,625.2285,398.5,629.2285,402.5,625.2285" style="stroke:#181818;stroke-width:1.0;"/><line style="stroke:#181818;stroke-width:1.0;" x1="41.5" x2="404.5" y1="625.2285" y2="625.2285"/><text fill="#000000" font-family="sans-serif" font-size="13" font-weight="bold" lengthAdjust="spacing" textLength="14" x="48.5" y="619.9658">15</text><text fill="#000000" font-family="sans-serif" font-size="13" lengthAdjust="spacing" textLength="251" x="66.5" y="619.9658">Escolhe a linha da posi&#231;&#227;o inicial do post-it</text><polygon fill="#181818" points="950.5,652.5195,960.5,656.5195,950.5,660.5195,954.5,656.5195" style="stroke:#181818;stroke-width:1.0;"/><line style="stroke:#181818;stroke-width:1.0;" x1="420.5" x2="956.5" y1="656.5195" y2="656.5195"/><text fill="#000000" font-family="sans-serif" font-size="13" font-weight="bold" lengthAdjust="spacing" textLength="14" x="427.5" y="651.2568">16</text><text fill="#000000" font-family="sans-serif" font-size="13" lengthAdjust="spacing" textLength="225" x="445.5" y="651.2568">listAllBoardElementColumns(theBoard)</text><polygon fill="#181818" points="1702.5,683.8105,1712.5,687.8105,1702.5,691.8105,1706.5,687.8105" style="stroke:#181818;stroke-width:1.0;"/><line style="stroke:#181818;stroke-width:1.0;" x1="967.5" x2="1708.5" y1="687.8105" y2="687.8105"/><text fill="#000000" font-family="sans-serif" font-size="13" font-weight="bold" lengthAdjust="spacing" textLength="14" x="974.5" y="682.5479">17</text><text fill="#000000" font-family="sans-serif" font-size="13" lengthAdjust="spacing" textLength="132" x="992.5" y="682.5479">boardElementColumn()</text><line style="stroke:#181818;stroke-width:1.0;stroke-dasharray:2.0,2.0;" x1="420.5" x2="462.5" y1="719.1016" y2="719.1016"/><line style="stroke:#181818;stroke-width:1.0;stroke-dasharray:2.0,2.0;" x1="462.5" x2="462.5" y1="719.1016" y2="732.1016"/><line style="stroke:#181818;stroke-width:1.0;stroke-dasharray:2.0,2.0;" x1="421.5" x2="462.5" y1="732.1016" y2="732.1016"/><polygon fill="#181818" points="431.5,728.1016,421.5,732.1016,431.5,736.1016,427.5,732.1016" style="stroke:#181818;stroke-width:1.0;"/><text fill="#000000" font-family="sans-serif" font-size="13" font-weight="bold" lengthAdjust="spacing" textLength="14" x="427.5" y="713.8389">18</text><text fill="#000000" font-family="sans-serif" font-size="13" lengthAdjust="spacing" textLength="207" x="445.5" y="713.8389">Mostra a lista de colunas do quadro</text><polygon fill="#181818" points="52.5,759.3926,42.5,763.3926,52.5,767.3926,48.5,763.3926" style="stroke:#181818;stroke-width:1.0;"/><line style="stroke:#181818;stroke-width:1.0;stroke-dasharray:2.0,2.0;" x1="46.5" x2="409.5" y1="763.3926" y2="763.3926"/><text fill="#000000" font-family="sans-serif" font-size="13" font-weight="bold" lengthAdjust="spacing" textLength="14" x="58.5" y="758.1299">19</text><text fill="#000000" font-family="sans-serif" font-size="13" lengthAdjust="spacing" textLength="327" x="76.5" y="758.1299">Pede para escolher a coluna da posi&#231;&#227;o inicial do post-it</text><polygon fill="#181818" points="398.5,790.6836,408.5,794.6836,398.5,798.6836,402.5,794.6836" style="stroke:#181818;stroke-width:1.0;"/><line style="stroke:#181818;stroke-width:1.0;" x1="41.5" x2="404.5" y1="794.6836" y2="794.6836"/><text fill="#000000" font-family="sans-serif" font-size="13" font-weight="bold" lengthAdjust="spacing" textLength="14" x="48.5" y="789.4209">20</text><text fill="#000000" font-family="sans-serif" font-size="13" lengthAdjust="spacing" textLength="262" x="66.5" y="789.4209">Escolhe a coluna da posi&#231;&#227;o inicial do post-it</text><line style="stroke:#181818;stroke-width:1.0;stroke-dasharray:2.0,2.0;" x1="420.5" x2="462.5" y1="825.9746" y2="825.9746"/><line style="stroke:#181818;stroke-width:1.0;stroke-dasharray:2.0,2.0;" x1="462.5" x2="462.5" y1="825.9746" y2="838.9746"/><line style="stroke:#181818;stroke-width:1.0;stroke-dasharray:2.0,2.0;" x1="421.5" x2="462.5" y1="838.9746" y2="838.9746"/><polygon fill="#181818" points="431.5,834.9746,421.5,838.9746,431.5,842.9746,427.5,838.9746" style="stroke:#181818;stroke-width:1.0;"/><text fill="#000000" font-family="sans-serif" font-size="13" font-weight="bold" lengthAdjust="spacing" textLength="14" x="427.5" y="820.7119">21</text><text fill="#000000" font-family="sans-serif" font-size="13" lengthAdjust="spacing" textLength="216" x="445.5" y="820.7119">Mostra a informa&#231;&#227;o do post-it a criar</text><polygon fill="#181818" points="52.5,866.2656,42.5,870.2656,52.5,874.2656,48.5,870.2656" style="stroke:#181818;stroke-width:1.0;"/><line style="stroke:#181818;stroke-width:1.0;stroke-dasharray:2.0,2.0;" x1="46.5" x2="409.5" y1="870.2656" y2="870.2656"/><text fill="#000000" font-family="sans-serif" font-size="13" font-weight="bold" lengthAdjust="spacing" textLength="14" x="58.5" y="865.0029">22</text><text fill="#000000" font-family="sans-serif" font-size="13" lengthAdjust="spacing" textLength="179" x="76.5" y="865.0029">Pede confirma&#231;&#227;o da opera&#231;&#227;o</text><polygon fill="#181818" points="398.5,897.5566,408.5,901.5566,398.5,905.5566,402.5,901.5566" style="stroke:#181818;stroke-width:1.0;"/><line style="stroke:#181818;stroke-width:1.0;" x1="41.5" x2="404.5" y1="901.5566" y2="901.5566"/><text fill="#000000" font-family="sans-serif" font-size="13" font-weight="bold" lengthAdjust="spacing" textLength="14" x="48.5" y="896.2939">23</text><text fill="#000000" font-family="sans-serif" font-size="13" lengthAdjust="spacing" textLength="119" x="66.5" y="896.2939">Confirma a opera&#231;&#227;o</text><polygon fill="#181818" points="950.5,928.8477,960.5,932.8477,950.5,936.8477,954.5,932.8477" style="stroke:#181818;stroke-width:1.0;"/><line style="stroke:#181818;stroke-width:1.0;" x1="420.5" x2="956.5" y1="932.8477" y2="932.8477"/><text fill="#000000" font-family="sans-serif" font-size="13" font-weight="bold" lengthAdjust="spacing" textLength="14" x="427.5" y="927.585">24</text><text fill="#000000" font-family="sans-serif" font-size="13" lengthAdjust="spacing" textLength="277" x="445.5" y="927.585">addPostIt(theBoard, content, line, column, type)</text><polygon fill="#181818" points="1361.5,960.1387,1371.5,964.1387,1361.5,968.1387,1365.5,964.1387" style="stroke:#181818;stroke-width:1.0;"/><line style="stroke:#181818;stroke-width:1.0;" x1="972.5" x2="1367.5" y1="964.1387" y2="964.1387"/><text fill="#000000" font-family="sans-serif" font-size="13" font-weight="bold" lengthAdjust="spacing" textLength="14" x="979.5" y="958.876">25</text><text fill="#000000" font-family="sans-serif" font-size="13" lengthAdjust="spacing" textLength="36" x="997.5" y="958.876">create</text><polygon fill="#181818" points="1361.5,991.4297,1371.5,995.4297,1361.5,999.4297,1365.5,995.4297" style="stroke:#181818;stroke-width:1.0;"/><line style="stroke:#181818;stroke-width:1.0;" x1="972.5" x2="1367.5" y1="995.4297" y2="995.4297"/><text fill="#000000" font-family="sans-serif" font-size="13" font-weight="bold" lengthAdjust="spacing" textLength="14" x="979.5" y="990.167">26</text><text fill="#000000" font-family="sans-serif" font-size="13" lengthAdjust="spacing" textLength="119" x="997.5" y="990.167">withContent(content)</text><polygon fill="#181818" points="1361.5,1022.7207,1371.5,1026.7207,1361.5,1030.7207,1365.5,1026.7207" style="stroke:#181818;stroke-width:1.0;"/><line style="stroke:#181818;stroke-width:1.0;" x1="972.5" x2="1367.5" y1="1026.7207" y2="1026.7207"/><text fill="#000000" font-family="sans-serif" font-size="13" font-weight="bold" lengthAdjust="spacing" textLength="14" x="979.5" y="1021.458">27</text><text fill="#000000" font-family="sans-serif" font-size="13" lengthAdjust="spacing" textLength="148" x="997.5" y="1021.458">withPosition(line, column)</text><polygon fill="#181818" points="1361.5,1054.0117,1371.5,1058.0117,1361.5,1062.0117,1365.5,1058.0117" style="stroke:#181818;stroke-width:1.0;"/><line style="stroke:#181818;stroke-width:1.0;" x1="972.5" x2="1367.5" y1="1058.0117" y2="1058.0117"/><text fill="#000000" font-family="sans-serif" font-size="13" font-weight="bold" lengthAdjust="spacing" textLength="14" x="979.5" y="1052.749">28</text><text fill="#000000" font-family="sans-serif" font-size="13" lengthAdjust="spacing" textLength="84" x="997.5" y="1052.749">withType(type)</text><polygon fill="#181818" points="1361.5,1085.3027,1371.5,1089.3027,1361.5,1093.3027,1365.5,1089.3027" style="stroke:#181818;stroke-width:1.0;"/><line style="stroke:#181818;stroke-width:1.0;" x1="972.5" x2="1367.5" y1="1089.3027" y2="1089.3027"/><text fill="#000000" font-family="sans-serif" font-size="13" font-weight="bold" lengthAdjust="spacing" textLength="14" x="979.5" y="1084.04">29</text><text fill="#000000" font-family="sans-serif" font-size="13" lengthAdjust="spacing" textLength="113" x="997.5" y="1084.04">withCreator(creator)</text><polygon fill="#181818" points="1356.5,1116.5938,1366.5,1120.5938,1356.5,1124.5938,1360.5,1120.5938" style="stroke:#181818;stroke-width:1.0;"/><line style="stroke:#181818;stroke-width:1.0;" x1="972.5" x2="1362.5" y1="1120.5938" y2="1120.5938"/><text fill="#000000" font-family="sans-serif" font-size="13" font-weight="bold" lengthAdjust="spacing" textLength="14" x="979.5" y="1115.3311">30</text><text fill="#000000" font-family="sans-serif" font-size="13" lengthAdjust="spacing" textLength="35" x="997.5" y="1115.3311">build()</text><polygon fill="#181818" points="1581.5,1147.8848,1591.5,1151.8848,1581.5,1155.8848,1585.5,1151.8848" style="stroke:#181818;stroke-width:1.0;"/><line style="stroke:#181818;stroke-width:1.0;" x1="1378.5" x2="1587.5" y1="1151.8848" y2="1151.8848"/><text fill="#000000" font-family="sans-serif" font-size="13" font-weight="bold" lengthAdjust="spacing" textLength="14" x="1385.5" y="1146.6221">31</text><text fill="#000000" font-family="sans-serif" font-size="13" lengthAdjust="spacing" textLength="173" x="1403.5" y="1146.6221">create(content, position, type)</text><polygon fill="#181818" points="1389.5,1179.1758,1379.5,1183.1758,1389.5,1187.1758,1385.5,1183.1758" style="stroke:#181818;stroke-width:1.0;"/><line style="stroke:#181818;stroke-width:1.0;stroke-dasharray:2.0,2.0;" x1="1383.5" x2="1592.5" y1="1183.1758" y2="1183.1758"/><text fill="#000000" font-family="sans-serif" font-size="13" font-weight="bold" lengthAdjust="spacing" textLength="14" x="1395.5" y="1177.9131">32</text><text fill="#000000" font-family="sans-serif" font-size="13" lengthAdjust="spacing" textLength="52" x="1413.5" y="1177.9131">thePostIt</text><polygon fill="#181818" points="983.5,1210.4668,973.5,1214.4668,983.5,1218.4668,979.5,1214.4668" style="stroke:#181818;stroke-width:1.0;"/><line style="stroke:#181818;stroke-width:1.0;stroke-dasharray:2.0,2.0;" x1="977.5" x2="1372.5" y1="1214.4668" y2="1214.4668"/><text fill="#000000" font-family="sans-serif" font-size="13" font-weight="bold" lengthAdjust="spacing" textLength="14" x="989.5" y="1209.2041">33</text><text fill="#000000" font-family="sans-serif" font-size="13" lengthAdjust="spacing" textLength="52" x="1007.5" y="1209.2041">thePostIt</text><polygon fill="#181818" points="1702.5,1241.7578,1712.5,1245.7578,1702.5,1249.7578,1706.5,1245.7578" style="stroke:#181818;stroke-width:1.0;"/><line style="stroke:#181818;stroke-width:1.0;" x1="972.5" x2="1708.5" y1="1245.7578" y2="1245.7578"/><text fill="#000000" font-family="sans-serif" font-size="13" font-weight="bold" lengthAdjust="spacing" textLength="14" x="979.5" y="1240.4951">34</text><text fill="#000000" font-family="sans-serif" font-size="13" lengthAdjust="spacing" textLength="115" x="997.5" y="1240.4951">addPostIt(thePostIt)</text><polygon fill="#181818" points="1195.5,1273.0488,1205.5,1277.0488,1195.5,1281.0488,1199.5,1277.0488" style="stroke:#181818;stroke-width:1.0;"/><line style="stroke:#181818;stroke-width:1.0;" x1="972.5" x2="1201.5" y1="1277.0488" y2="1277.0488"/><text fill="#000000" font-family="sans-serif" font-size="13" font-weight="bold" lengthAdjust="spacing" textLength="14" x="979.5" y="1271.7861">35</text><text fill="#000000" font-family="sans-serif" font-size="13" lengthAdjust="spacing" textLength="120" x="997.5" y="1271.7861">saveBoard(theBoard)</text><polygon fill="#181818" points="1825.5,1304.3398,1835.5,1308.3398,1825.5,1312.3398,1829.5,1308.3398" style="stroke:#181818;stroke-width:1.0;"/><line style="stroke:#181818;stroke-width:1.0;" x1="1212.5" x2="1831.5" y1="1308.3398" y2="1308.3398"/><text fill="#000000" font-family="sans-serif" font-size="13" font-weight="bold" lengthAdjust="spacing" textLength="14" x="1219.5" y="1303.0771">36</text><text fill="#000000" font-family="sans-serif" font-size="13" lengthAdjust="spacing" textLength="86" x="1237.5" y="1303.0771">save(theBoard)</text><polygon fill="#181818" points="431.5,1335.6309,421.5,1339.6309,431.5,1343.6309,427.5,1339.6309" style="stroke:#181818;stroke-width:1.0;"/><line style="stroke:#181818;stroke-width:1.0;stroke-dasharray:2.0,2.0;" x1="425.5" x2="966.5" y1="1339.6309" y2="1339.6309"/><text fill="#000000" font-family="sans-serif" font-size="13" font-weight="bold" lengthAdjust="spacing" textLength="14" x="437.5" y="1334.3682">37</text><text fill="#000000" font-family="sans-serif" font-size="13" lengthAdjust="spacing" textLength="52" x="455.5" y="1334.3682">theBoard</text><polygon fill="#181818" points="47.5,1366.9219,37.5,1370.9219,47.5,1374.9219,43.5,1370.9219" style="stroke:#181818;stroke-width:1.0;"/><line style="stroke:#181818;stroke-width:1.0;stroke-dasharray:2.0,2.0;" x1="41.5" x2="414.5" y1="1370.9219" y2="1370.9219"/><text fill="#000000" font-family="sans-serif" font-size="13" font-weight="bold" lengthAdjust="spacing" textLength="14" x="53.5" y="1365.6592">38</text><text fill="#000000" font-family="sans-serif" font-size="13" lengthAdjust="spacing" textLength="181" x="71.5" y="1365.6592">Informa o sucesso da opera&#231;&#227;o</text><!--SRC=[jLRDZjCm4BxdAKQSKcbNMWc9GnMj15qEbK2gA2lEqsIsjN3iO3k5vNKu81w02zU-6ECupYRT_eG5SaZiUBxv_Jos_IXKXGPBABNI-SReai2PcXBRhLIOVyGrBTsz932KErHhsHUm6opqPw7MS8VIKf8uuLXqIPzgKZd1ZS2rbqkNDnEuXDibFB-wUf5WxRIgonMP9C7SQGEtJaZnbPKPG0il_R-4JJYHYmgLWvaXTBJGritTxTpBy3lBAaEMb4CdjBg-JdAjdD5o83qB_oGrcdkpBCEgaYAFu84vkrrkq53nIgCf5aOxdMl9to_tNaiOP5bkjrMxjgSWs7vL2ra4mt6OPOKkKUmRVEOshR_Jy7dMs6c6DmtW5BBnSjgy6rmpUWmhqE4ABONrTrHfApZHJKYzMPQPRi8eNo6nvNosPG5-cX5SNligJ6511O4d1EH6e86QcSEUNme7N6NuL6DXDAGhRtNIu3kLj_DcxXzMnGfx1PgoEb_7Kn9IMFTIoYOW-q6upO9CAQpbadummb4wIJfuP_H1GxVcdvvYDXDgF8KrdJCGyGMTij2jDOe7XeCfjjahmXJkX2fEMgujcOFMWuKafYoMwItNX6k4JTAG0MrbBF0MsFA7VAq8DDGFkt7t0mhk3w1hSBnU1HzsFybw1MIvuWu7jW8t-gnWAIqtd5OTkH2PeYDHaWEqUXrWPr77St_QBQ4uWSAhyts3ThyA3Tm2HQKvv5EEpJsGnk16iFQrf99Rs1kXoAPnBq-UIDh-nf_2Qa__MQwEe8mKQiFjeeX56Ljw34Weq6T8xBxllcck07Snb6VI7NdmHoh6PtwcPLsg_vdxOE5VP9yJKQkdfJz0_ox_VwBZO212tMbJOa0-8EBEFXuDxxGxyO14qDo9mkoGoxDM71uB7Y465aKuRJiUN8JjhTo5vnrTDD6NwWBSVKLF9abx3NXqjfqI_SpDVnPyILkV9gE12t-Yy9cHzeCO3t_FmQR3YC-wwYFJ9it3TnnmvKVzqtgGsrPkiEYVYFVdTV-k5DERTYMisZJibwyxW_lmou5htTNikFbzDXs6zBPz36XqFndmCumc8sul5hU1pRtsTZZ5ZwybnwycNkk1Vddy6dB8oRXNevuddENpq4xu9BPrJjRkTuOzRNpPxCt2RVOt]--></g></svg>