<?xml version="1.0" encoding="us-ascii" standalone="no"?><svg xmlns="http://www.w3.org/2000/svg" xmlns:xlink="http://www.w3.org/1999/xlink" contentStyleType="text/css" height="581.6px" preserveAspectRatio="none" style="width:510px;height:581px;background:#FFFFFF;" version="1.1" viewBox="0 0 510 581" width="510.4px" zoomAndPan="magnify"><defs/><g><text fill="#000000" font-family="sans-serif" font-size="11.2" font-weight="bold" lengthAdjust="spacing" textLength="236.8" x="136.2" y="24.0859">System Sequence Diagram (SSD) - US 3006</text><rect fill="#FFFFFF" height="394.125" style="stroke:#181818;stroke-width:0.8000000000000002;" width="8" x="25.2" y="106.5938"/><rect fill="#FFFFFF" height="50.0656" style="stroke:#181818;stroke-width:0.8000000000000002;" width="8" x="474.8" y="125.2266"/><rect fill="#FFFFFF" height="25.0328" style="stroke:#181818;stroke-width:0.8000000000000002;" width="8" x="474.8" y="200.325"/><rect fill="#FFFFFF" height="50.0656" style="stroke:#181818;stroke-width:0.8000000000000002;" width="8" x="474.8" y="250.3906"/><rect fill="#FFFFFF" height="50.0656" style="stroke:#181818;stroke-width:0.8000000000000002;" width="8" x="474.8" y="325.4891"/><rect fill="#FFFFFF" height="50.0656" style="stroke:#181818;stroke-width:0.8000000000000002;" width="8" x="474.8" y="400.5875"/><rect fill="#FFFFFF" height="25.0328" style="stroke:#181818;stroke-width:0.8000000000000002;" width="8" x="474.8" y="475.6859"/><line style="stroke:#181818;stroke-width:0.4000000000000001;stroke-dasharray:5.0,5.0;" x1="28.8" x2="28.8" y1="98.5938" y2="515.1188"/><line style="stroke:#181818;stroke-width:0.4000000000000001;stroke-dasharray:5.0,5.0;" x1="478.8" x2="478.8" y1="98.5938" y2="515.1188"/><text fill="#000000" font-family="sans-serif" font-size="11.2" lengthAdjust="spacing" textLength="45.6" x="4" y="95.7828">Utilizador</text><ellipse cx="29.2" cy="42.4969" fill="#E3E3E3" rx="6.4" ry="6.4" style="stroke:#181818;stroke-width:0.4000000000000001;"/><path d="M29.2,48.8969 L29.2,70.4969 M18.8,55.2969 L39.6,55.2969 M29.2,70.4969 L18.8,82.4969 M29.2,70.4969 L39.6,82.4969 " fill="none" style="stroke:#181818;stroke-width:0.4000000000000001;"/><text fill="#000000" font-family="sans-serif" font-size="11.2" lengthAdjust="spacing" textLength="45.6" x="4" y="526.4047">Utilizador</text><ellipse cx="29.2" cy="536.0156" fill="#E3E3E3" rx="6.4" ry="6.4" style="stroke:#181818;stroke-width:0.4000000000000001;"/><path d="M29.2,542.4156 L29.2,564.0156 M18.8,548.8156 L39.6,548.8156 M29.2,564.0156 L18.8,576.0156 M29.2,564.0156 L39.6,576.0156 " fill="none" style="stroke:#181818;stroke-width:0.4000000000000001;"/><rect fill="#E3E3E3" height="26.0969" rx="2" ry="2" style="stroke:#181818;stroke-width:0.4000000000000001;" width="54.4" x="451.6" y="71.6969"/><text fill="#000000" font-family="sans-serif" font-size="11.2" lengthAdjust="spacing" textLength="43.2" x="457.2" y="89.3828">:Sistema</text><rect fill="#E3E3E3" height="26.0969" rx="2" ry="2" style="stroke:#181818;stroke-width:0.4000000000000001;" width="54.4" x="451.6" y="514.3188"/><text fill="#000000" font-family="sans-serif" font-size="11.2" lengthAdjust="spacing" textLength="43.2" x="457.2" y="532.0047">:Sistema</text><rect fill="#FFFFFF" height="394.125" style="stroke:#181818;stroke-width:0.8000000000000002;" width="8" x="25.2" y="106.5938"/><rect fill="#FFFFFF" height="50.0656" style="stroke:#181818;stroke-width:0.8000000000000002;" width="8" x="474.8" y="125.2266"/><rect fill="#FFFFFF" height="25.0328" style="stroke:#181818;stroke-width:0.8000000000000002;" width="8" x="474.8" y="200.325"/><rect fill="#FFFFFF" height="50.0656" style="stroke:#181818;stroke-width:0.8000000000000002;" width="8" x="474.8" y="250.3906"/><rect fill="#FFFFFF" height="50.0656" style="stroke:#181818;stroke-width:0.8000000000000002;" width="8" x="474.8" y="325.4891"/><rect fill="#FFFFFF" height="50.0656" style="stroke:#181818;stroke-width:0.8000000000000002;" width="8" x="474.8" y="400.5875"/><rect fill="#FFFFFF" height="25.0328" style="stroke:#181818;stroke-width:0.8000000000000002;" width="8" x="474.8" y="475.6859"/><polygon fill="#181818" points="465.2,122.0266,473.2,125.2266,465.2,128.4266,468.4,125.2266" style="stroke:#181818;stroke-width:0.8000000000000002;"/><line style="stroke:#181818;stroke-width:0.8000000000000002;" x1="33.2" x2="470" y1="125.2266" y2="125.2266"/><text fill="#000000" font-family="sans-serif" font-size="10.4" font-weight="bold" lengthAdjust="spacing" textLength="5.6" x="38.8" y="121.0164">1</text><text fill="#000000" font-family="sans-serif" font-size="10.4" lengthAdjust="spacing" textLength="212.8" x="47.6" y="121.0164">Pede para criar um post-it num quadro (board)</text><polygon fill="#181818" points="42,147.0594,34,150.2594,42,153.4594,38.8,150.2594" style="stroke:#181818;stroke-width:0.8000000000000002;"/><line style="stroke:#181818;stroke-width:0.8000000000000002;stroke-dasharray:2.0,2.0;" x1="37.2" x2="474" y1="150.2594" y2="150.2594"/><text fill="#000000" font-family="sans-serif" font-size="10.4" font-weight="bold" lengthAdjust="spacing" textLength="5.6" x="46.8" y="146.0492">2</text><text fill="#000000" font-family="sans-serif" font-size="10.4" lengthAdjust="spacing" textLength="413.6" x="55.6" y="146.0492">Mostra a lista de quadros ativos em que o utilizador &#233; dono ou tem permiss&#245;es de escrita</text><polygon fill="#181818" points="42,172.0922,34,175.2922,42,178.4922,38.8,175.2922" style="stroke:#181818;stroke-width:0.8000000000000002;"/><line style="stroke:#181818;stroke-width:0.8000000000000002;stroke-dasharray:2.0,2.0;" x1="37.2" x2="478" y1="175.2922" y2="175.2922"/><text fill="#000000" font-family="sans-serif" font-size="10.4" font-weight="bold" lengthAdjust="spacing" textLength="5.6" x="46.8" y="171.082">3</text><text fill="#000000" font-family="sans-serif" font-size="10.4" lengthAdjust="spacing" textLength="205.6" x="55.6" y="171.082">Pede para escolher o quadro a criar o post-it</text><polygon fill="#181818" points="465.2,197.125,473.2,200.325,465.2,203.525,468.4,200.325" style="stroke:#181818;stroke-width:0.8000000000000002;"/><line style="stroke:#181818;stroke-width:0.8000000000000002;" x1="33.2" x2="470" y1="200.325" y2="200.325"/><text fill="#000000" font-family="sans-serif" font-size="10.4" font-weight="bold" lengthAdjust="spacing" textLength="5.6" x="38.8" y="196.1148">4</text><text fill="#000000" font-family="sans-serif" font-size="10.4" lengthAdjust="spacing" textLength="153.6" x="47.6" y="196.1148">Escolhe o quadro a criar o post-it</text><polygon fill="#181818" points="42,222.1578,34,225.3578,42,228.5578,38.8,225.3578" style="stroke:#181818;stroke-width:0.8000000000000002;"/><line style="stroke:#181818;stroke-width:0.8000000000000002;stroke-dasharray:2.0,2.0;" x1="37.2" x2="478" y1="225.3578" y2="225.3578"/><text fill="#000000" font-family="sans-serif" font-size="10.4" font-weight="bold" lengthAdjust="spacing" textLength="5.6" x="46.8" y="221.1477">5</text><text fill="#000000" font-family="sans-serif" font-size="10.4" lengthAdjust="spacing" textLength="208" x="55.6" y="221.1477">Pede para inserir o conte&#250;do e tipo do post-it</text><polygon fill="#181818" points="465.2,247.1906,473.2,250.3906,465.2,253.5906,468.4,250.3906" style="stroke:#181818;stroke-width:0.8000000000000002;"/><line style="stroke:#181818;stroke-width:0.8000000000000002;" x1="33.2" x2="470" y1="250.3906" y2="250.3906"/><text fill="#000000" font-family="sans-serif" font-size="10.4" font-weight="bold" lengthAdjust="spacing" textLength="5.6" x="38.8" y="246.1805">6</text><text fill="#000000" font-family="sans-serif" font-size="10.4" lengthAdjust="spacing" textLength="157.6" x="47.6" y="246.1805">Insere o conte&#250;do e tipo do post-it</text><polygon fill="#181818" points="42,272.2234,34,275.4234,42,278.6234,38.8,275.4234" style="stroke:#181818;stroke-width:0.8000000000000002;"/><line style="stroke:#181818;stroke-width:0.8000000000000002;stroke-dasharray:2.0,2.0;" x1="37.2" x2="474" y1="275.4234" y2="275.4234"/><text fill="#000000" font-family="sans-serif" font-size="10.4" font-weight="bold" lengthAdjust="spacing" textLength="5.6" x="46.8" y="271.2133">7</text><text fill="#000000" font-family="sans-serif" font-size="10.4" lengthAdjust="spacing" textLength="156.8" x="55.6" y="271.2133">Mostra a lista de linhas do quadro</text><polygon fill="#181818" points="42,297.2563,34,300.4563,42,303.6563,38.8,300.4563" style="stroke:#181818;stroke-width:0.8000000000000002;"/><line style="stroke:#181818;stroke-width:0.8000000000000002;stroke-dasharray:2.0,2.0;" x1="37.2" x2="478" y1="300.4563" y2="300.4563"/><text fill="#000000" font-family="sans-serif" font-size="10.4" font-weight="bold" lengthAdjust="spacing" textLength="5.6" x="46.8" y="296.2461">8</text><text fill="#000000" font-family="sans-serif" font-size="10.4" lengthAdjust="spacing" textLength="252.8" x="55.6" y="296.2461">Pede para escolher a linha da posi&#231;&#227;o inicial do post-it</text><polygon fill="#181818" points="465.2,322.2891,473.2,325.4891,465.2,328.6891,468.4,325.4891" style="stroke:#181818;stroke-width:0.8000000000000002;"/><line style="stroke:#181818;stroke-width:0.8000000000000002;" x1="33.2" x2="470" y1="325.4891" y2="325.4891"/><text fill="#000000" font-family="sans-serif" font-size="10.4" font-weight="bold" lengthAdjust="spacing" textLength="5.6" x="38.8" y="321.2789">9</text><text fill="#000000" font-family="sans-serif" font-size="10.4" lengthAdjust="spacing" textLength="200.8" x="47.6" y="321.2789">Escolhe a linha da posi&#231;&#227;o inicial do post-it</text><polygon fill="#181818" points="42,347.3219,34,350.5219,42,353.7219,38.8,350.5219" style="stroke:#181818;stroke-width:0.8000000000000002;"/><line style="stroke:#181818;stroke-width:0.8000000000000002;stroke-dasharray:2.0,2.0;" x1="37.2" x2="474" y1="350.5219" y2="350.5219"/><text fill="#000000" font-family="sans-serif" font-size="10.4" font-weight="bold" lengthAdjust="spacing" textLength="11.2" x="46.8" y="346.3117">10</text><text fill="#000000" font-family="sans-serif" font-size="10.4" lengthAdjust="spacing" textLength="165.6" x="61.2" y="346.3117">Mostra a lista de colunas do quadro</text><polygon fill="#181818" points="42,372.3547,34,375.5547,42,378.7547,38.8,375.5547" style="stroke:#181818;stroke-width:0.8000000000000002;"/><line style="stroke:#181818;stroke-width:0.8000000000000002;stroke-dasharray:2.0,2.0;" x1="37.2" x2="478" y1="375.5547" y2="375.5547"/><text fill="#000000" font-family="sans-serif" font-size="10.4" font-weight="bold" lengthAdjust="spacing" textLength="11.2" x="46.8" y="371.3445">11</text><text fill="#000000" font-family="sans-serif" font-size="10.4" lengthAdjust="spacing" textLength="261.6" x="61.2" y="371.3445">Pede para escolher a coluna da posi&#231;&#227;o inicial do post-it</text><polygon fill="#181818" points="465.2,397.3875,473.2,400.5875,465.2,403.7875,468.4,400.5875" style="stroke:#181818;stroke-width:0.8000000000000002;"/><line style="stroke:#181818;stroke-width:0.8000000000000002;" x1="33.2" x2="470" y1="400.5875" y2="400.5875"/><text fill="#000000" font-family="sans-serif" font-size="10.4" font-weight="bold" lengthAdjust="spacing" textLength="11.2" x="38.8" y="396.3773">12</text><text fill="#000000" font-family="sans-serif" font-size="10.4" lengthAdjust="spacing" textLength="209.6" x="53.2" y="396.3773">Escolhe a coluna da posi&#231;&#227;o inicial do post-it</text><polygon fill="#181818" points="42,422.4203,34,425.6203,42,428.8203,38.8,425.6203" style="stroke:#181818;stroke-width:0.8000000000000002;"/><line style="stroke:#181818;stroke-width:0.8000000000000002;stroke-dasharray:2.0,2.0;" x1="37.2" x2="474" y1="425.6203" y2="425.6203"/><text fill="#000000" font-family="sans-serif" font-size="10.4" font-weight="bold" lengthAdjust="spacing" textLength="11.2" x="46.8" y="421.4102">13</text><text fill="#000000" font-family="sans-serif" font-size="10.4" lengthAdjust="spacing" textLength="172.8" x="61.2" y="421.4102">Mostra a informa&#231;&#227;o do post-it a criar</text><polygon fill="#181818" points="42,447.4531,34,450.6531,42,453.8531,38.8,450.6531" style="stroke:#181818;stroke-width:0.8000000000000002;"/><line style="stroke:#181818;stroke-width:0.8000000000000002;stroke-dasharray:2.0,2.0;" x1="37.2" x2="478" y1="450.6531" y2="450.6531"/><text fill="#000000" font-family="sans-serif" font-size="10.4" font-weight="bold" lengthAdjust="spacing" textLength="11.2" x="46.8" y="446.443">14</text><text fill="#000000" font-family="sans-serif" font-size="10.4" lengthAdjust="spacing" textLength="143.2" x="61.2" y="446.443">Pede confirma&#231;&#227;o da opera&#231;&#227;o</text><polygon fill="#181818" points="465.2,472.4859,473.2,475.6859,465.2,478.8859,468.4,475.6859" style="stroke:#181818;stroke-width:0.8000000000000002;"/><line style="stroke:#181818;stroke-width:0.8000000000000002;" x1="33.2" x2="470" y1="475.6859" y2="475.6859"/><text fill="#000000" font-family="sans-serif" font-size="10.4" font-weight="bold" lengthAdjust="spacing" textLength="11.2" x="38.8" y="471.4758">15</text><text fill="#000000" font-family="sans-serif" font-size="10.4" lengthAdjust="spacing" textLength="95.2" x="53.2" y="471.4758">Confirma a opera&#231;&#227;o</text><polygon fill="#181818" points="38,497.5188,30,500.7188,38,503.9188,34.8,500.7188" style="stroke:#181818;stroke-width:0.8000000000000002;"/><line style="stroke:#181818;stroke-width:0.8000000000000002;stroke-dasharray:2.0,2.0;" x1="33.2" x2="478" y1="500.7188" y2="500.7188"/><text fill="#000000" font-family="sans-serif" font-size="10.4" font-weight="bold" lengthAdjust="spacing" textLength="11.2" x="42.8" y="496.5086">16</text><text fill="#000000" font-family="sans-serif" font-size="10.4" lengthAdjust="spacing" textLength="144.8" x="57.2" y="496.5086">Informa o sucesso da opera&#231;&#227;o</text><!--SRC=[hPGzRjmm48LxdcAmbLqiO220Yoq2174A5m4C23x0c9pT7LZYoFn9u5p7XP43k76hYsMuN5aEd3ZQHIf29Dytxur6YhViUmpOGITUx3P8Hv129XDVJdgqjxYX9jst185iGhzfNr-8MtJodVq6rjX6CYPnqglDVKpKGKDtcRmbk63SbEidJNDn2akuRk33sTcvmPp4v-w6WZ5eamHON2Tk-OTImm8mmgUoQxHOOiiz-WIBLSE5ZhlpMccdvc-OQ2ymkmMM7qShAxWYHr1SWmsC0RB6avYMd40jm5r65mHERWI3EvruOu4zPwd8obx1LvKh3g5LGmYAhv08g69Tg6091F9BA1X-WjD-WsGel9v2np4EJnGBWAAQI_YdQfD_lIJjbeA2zwx7J396CexU97ZRaYyLz1vdJXycP-mZ1IvwApxHyEm4TAYu5mrzcBVBWg9_a8vxIotxhOwE6sFFx3PM8JWizNbu71v44-jSOdjmlB7rSw779TKQsHyLjIh_TzQPr8F2ibzBwB329iWuotzDh7Ervac88FejrgTviJxl0V2RT8xtosfPXpjcIp7EAFzgg_xXVW40]--></g></svg>