<?xml version="1.0" encoding="us-ascii" standalone="no"?><svg xmlns="http://www.w3.org/2000/svg" xmlns:xlink="http://www.w3.org/1999/xlink" contentStyleType="text/css" height="507px" preserveAspectRatio="none" style="width:1669px;height:507px;background:#FFFFFF;" version="1.1" viewBox="0 0 1669 507" width="1669px" zoomAndPan="magnify"><defs/><g><text fill="#000000" font-family="sans-serif" font-size="14" font-weight="bold" lengthAdjust="spacing" textLength="247" x="704" y="22.9951">Class Diagram (SSD) - US 1012</text><!--class UpdateClassScheduleUI--><g id="elem_UpdateClassScheduleUI"><rect codeLine="4" fill="#F1F1F1" height="72.5625" id="UpdateClassScheduleUI" rx="2.5" ry="2.5" style="stroke:#181818;stroke-width:0.5;" width="198" x="1322.5" y="44.2969"/><ellipse cx="1337.5" cy="64.4297" fill="#ADD1B2" rx="11" ry="11" style="stroke:#181818;stroke-width:1.0;"/><path d="M1339.8438,60.1016 C1338.9063,59.6641 1338.3125,59.5234 1337.4375,59.5234 C1334.8125,59.5234 1332.8125,61.6016 1332.8125,64.3203 L1332.8125,65.4453 C1332.8125,68.0234 1334.9219,69.9141 1337.8125,69.9141 C1339.0313,69.9141 1340.1875,69.6172 1340.9375,69.0703 C1341.5156,68.6641 1341.8438,68.2109 1341.8438,67.8203 C1341.8438,67.3672 1341.4531,66.9766 1340.9844,66.9766 C1340.7656,66.9766 1340.5625,67.0547 1340.375,67.2422 C1339.9219,67.7266 1339.9219,67.7266 1339.7344,67.8203 C1339.3125,68.0859 1338.625,68.2109 1337.8594,68.2109 C1335.8125,68.2109 1334.5156,67.1172 1334.5156,65.4141 L1334.5156,64.3203 C1334.5156,62.5391 1335.7656,61.2266 1337.5,61.2266 C1338.0781,61.2266 1338.6875,61.3828 1339.1563,61.6328 C1339.6406,61.9141 1339.8125,62.1328 1339.9063,62.5391 C1339.9688,62.9453 1340,63.0703 1340.1406,63.1953 C1340.2813,63.3359 1340.5156,63.4453 1340.7344,63.4453 C1341,63.4453 1341.2656,63.3047 1341.4375,63.0859 C1341.5469,62.9297 1341.5781,62.7422 1341.5781,62.3203 L1341.5781,60.8984 C1341.5781,60.4609 1341.5625,60.3359 1341.4688,60.1797 C1341.3125,59.9141 1341.0313,59.7734 1340.7344,59.7734 C1340.4375,59.7734 1340.2344,59.8672 1340.0156,60.1797 L1339.8438,60.1016 Z " fill="#000000"/><text fill="#000000" font-family="sans-serif" font-size="12" font-style="italic" lengthAdjust="spacing" textLength="90" x="1389.5" y="60.4355">&#171;presentation&#187;</text><text fill="#000000" font-family="sans-serif" font-size="14" lengthAdjust="spacing" textLength="166" x="1351.5" y="76.2607">UpdateClassScheduleUI</text><line style="stroke:#181818;stroke-width:0.5;" x1="1323.5" x2="1519.5" y1="84.5625" y2="84.5625"/><line style="stroke:#181818;stroke-width:0.5;" x1="1323.5" x2="1519.5" y1="92.5625" y2="92.5625"/><text fill="#000000" font-family="sans-serif" font-size="14" lengthAdjust="spacing" textLength="66" x="1328.5" y="109.5576">doShow()</text></g><!--class JpaRecurringClassRepository--><g id="elem_JpaRecurringClassRepository"><rect codeLine="8" fill="#F1F1F1" height="56.2656" id="JpaRecurringClassRepository" rx="2.5" ry="2.5" style="stroke:#181818;stroke-width:0.5;" width="238" x="329.5" y="444.2969"/><ellipse cx="344.5" cy="464.4297" fill="#ADD1B2" rx="11" ry="11" style="stroke:#181818;stroke-width:1.0;"/><path d="M346.8438,460.1016 C345.9063,459.6641 345.3125,459.5234 344.4375,459.5234 C341.8125,459.5234 339.8125,461.6016 339.8125,464.3203 L339.8125,465.4453 C339.8125,468.0234 341.9219,469.9141 344.8125,469.9141 C346.0313,469.9141 347.1875,469.6172 347.9375,469.0703 C348.5156,468.6641 348.8438,468.2109 348.8438,467.8203 C348.8438,467.3672 348.4531,466.9766 347.9844,466.9766 C347.7656,466.9766 347.5625,467.0547 347.375,467.2422 C346.9219,467.7266 346.9219,467.7266 346.7344,467.8203 C346.3125,468.0859 345.625,468.2109 344.8594,468.2109 C342.8125,468.2109 341.5156,467.1172 341.5156,465.4141 L341.5156,464.3203 C341.5156,462.5391 342.7656,461.2266 344.5,461.2266 C345.0781,461.2266 345.6875,461.3828 346.1563,461.6328 C346.6406,461.9141 346.8125,462.1328 346.9063,462.5391 C346.9688,462.9453 347,463.0703 347.1406,463.1953 C347.2813,463.3359 347.5156,463.4453 347.7344,463.4453 C348,463.4453 348.2656,463.3047 348.4375,463.0859 C348.5469,462.9297 348.5781,462.7422 348.5781,462.3203 L348.5781,460.8984 C348.5781,460.4609 348.5625,460.3359 348.4688,460.1797 C348.3125,459.9141 348.0313,459.7734 347.7344,459.7734 C347.4375,459.7734 347.2344,459.8672 347.0156,460.1797 L346.8438,460.1016 Z " fill="#000000"/><text fill="#000000" font-family="sans-serif" font-size="12" font-style="italic" lengthAdjust="spacing" textLength="83" x="420" y="460.4355">&#171;persistence&#187;</text><text fill="#000000" font-family="sans-serif" font-size="14" lengthAdjust="spacing" textLength="206" x="358.5" y="476.2607">JpaRecurringClassRepository</text><line style="stroke:#181818;stroke-width:0.5;" x1="330.5" x2="566.5" y1="484.5625" y2="484.5625"/><line style="stroke:#181818;stroke-width:0.5;" x1="330.5" x2="566.5" y1="492.5625" y2="492.5625"/></g><!--class JpaCourseRepository--><g id="elem_JpaCourseRepository"><rect codeLine="9" fill="#F1F1F1" height="56.2656" id="JpaCourseRepository" rx="2.5" ry="2.5" style="stroke:#181818;stroke-width:0.5;" width="182" x="1119.5" y="444.2969"/><ellipse cx="1134.5" cy="464.4297" fill="#ADD1B2" rx="11" ry="11" style="stroke:#181818;stroke-width:1.0;"/><path d="M1136.8438,460.1016 C1135.9063,459.6641 1135.3125,459.5234 1134.4375,459.5234 C1131.8125,459.5234 1129.8125,461.6016 1129.8125,464.3203 L1129.8125,465.4453 C1129.8125,468.0234 1131.9219,469.9141 1134.8125,469.9141 C1136.0313,469.9141 1137.1875,469.6172 1137.9375,469.0703 C1138.5156,468.6641 1138.8438,468.2109 1138.8438,467.8203 C1138.8438,467.3672 1138.4531,466.9766 1137.9844,466.9766 C1137.7656,466.9766 1137.5625,467.0547 1137.375,467.2422 C1136.9219,467.7266 1136.9219,467.7266 1136.7344,467.8203 C1136.3125,468.0859 1135.625,468.2109 1134.8594,468.2109 C1132.8125,468.2109 1131.5156,467.1172 1131.5156,465.4141 L1131.5156,464.3203 C1131.5156,462.5391 1132.7656,461.2266 1134.5,461.2266 C1135.0781,461.2266 1135.6875,461.3828 1136.1563,461.6328 C1136.6406,461.9141 1136.8125,462.1328 1136.9063,462.5391 C1136.9688,462.9453 1137,463.0703 1137.1406,463.1953 C1137.2813,463.3359 1137.5156,463.4453 1137.7344,463.4453 C1138,463.4453 1138.2656,463.3047 1138.4375,463.0859 C1138.5469,462.9297 1138.5781,462.7422 1138.5781,462.3203 L1138.5781,460.8984 C1138.5781,460.4609 1138.5625,460.3359 1138.4688,460.1797 C1138.3125,459.9141 1138.0313,459.7734 1137.7344,459.7734 C1137.4375,459.7734 1137.2344,459.8672 1137.0156,460.1797 L1136.8438,460.1016 Z " fill="#000000"/><text fill="#000000" font-family="sans-serif" font-size="12" font-style="italic" lengthAdjust="spacing" textLength="83" x="1182" y="460.4355">&#171;persistence&#187;</text><text fill="#000000" font-family="sans-serif" font-size="14" lengthAdjust="spacing" textLength="150" x="1148.5" y="476.2607">JpaCourseRepository</text><line style="stroke:#181818;stroke-width:0.5;" x1="1120.5" x2="1300.5" y1="484.5625" y2="484.5625"/><line style="stroke:#181818;stroke-width:0.5;" x1="1120.5" x2="1300.5" y1="492.5625" y2="492.5625"/></g><!--class InMemoryRecurringClassRepository--><g id="elem_InMemoryRecurringClassRepository"><rect codeLine="10" fill="#F1F1F1" height="56.2656" id="InMemoryRecurringClassRepository" rx="2.5" ry="2.5" style="stroke:#181818;stroke-width:0.5;" width="287" x="7" y="444.2969"/><ellipse cx="22" cy="464.4297" fill="#ADD1B2" rx="11" ry="11" style="stroke:#181818;stroke-width:1.0;"/><path d="M24.3438,460.1016 C23.4063,459.6641 22.8125,459.5234 21.9375,459.5234 C19.3125,459.5234 17.3125,461.6016 17.3125,464.3203 L17.3125,465.4453 C17.3125,468.0234 19.4219,469.9141 22.3125,469.9141 C23.5313,469.9141 24.6875,469.6172 25.4375,469.0703 C26.0156,468.6641 26.3438,468.2109 26.3438,467.8203 C26.3438,467.3672 25.9531,466.9766 25.4844,466.9766 C25.2656,466.9766 25.0625,467.0547 24.875,467.2422 C24.4219,467.7266 24.4219,467.7266 24.2344,467.8203 C23.8125,468.0859 23.125,468.2109 22.3594,468.2109 C20.3125,468.2109 19.0156,467.1172 19.0156,465.4141 L19.0156,464.3203 C19.0156,462.5391 20.2656,461.2266 22,461.2266 C22.5781,461.2266 23.1875,461.3828 23.6563,461.6328 C24.1406,461.9141 24.3125,462.1328 24.4063,462.5391 C24.4688,462.9453 24.5,463.0703 24.6406,463.1953 C24.7813,463.3359 25.0156,463.4453 25.2344,463.4453 C25.5,463.4453 25.7656,463.3047 25.9375,463.0859 C26.0469,462.9297 26.0781,462.7422 26.0781,462.3203 L26.0781,460.8984 C26.0781,460.4609 26.0625,460.3359 25.9688,460.1797 C25.8125,459.9141 25.5313,459.7734 25.2344,459.7734 C24.9375,459.7734 24.7344,459.8672 24.5156,460.1797 L24.3438,460.1016 Z " fill="#000000"/><text fill="#000000" font-family="sans-serif" font-size="12" font-style="italic" lengthAdjust="spacing" textLength="83" x="122" y="460.4355">&#171;persistence&#187;</text><text fill="#000000" font-family="sans-serif" font-size="14" lengthAdjust="spacing" textLength="255" x="36" y="476.2607">InMemoryRecurringClassRepository</text><line style="stroke:#181818;stroke-width:0.5;" x1="8" x2="293" y1="484.5625" y2="484.5625"/><line style="stroke:#181818;stroke-width:0.5;" x1="8" x2="293" y1="492.5625" y2="492.5625"/></g><!--class InMemoryCourseRepository--><g id="elem_InMemoryCourseRepository"><rect codeLine="11" fill="#F1F1F1" height="56.2656" id="InMemoryCourseRepository" rx="2.5" ry="2.5" style="stroke:#181818;stroke-width:0.5;" width="231" x="853" y="444.2969"/><ellipse cx="868" cy="464.4297" fill="#ADD1B2" rx="11" ry="11" style="stroke:#181818;stroke-width:1.0;"/><path d="M870.3438,460.1016 C869.4063,459.6641 868.8125,459.5234 867.9375,459.5234 C865.3125,459.5234 863.3125,461.6016 863.3125,464.3203 L863.3125,465.4453 C863.3125,468.0234 865.4219,469.9141 868.3125,469.9141 C869.5313,469.9141 870.6875,469.6172 871.4375,469.0703 C872.0156,468.6641 872.3438,468.2109 872.3438,467.8203 C872.3438,467.3672 871.9531,466.9766 871.4844,466.9766 C871.2656,466.9766 871.0625,467.0547 870.875,467.2422 C870.4219,467.7266 870.4219,467.7266 870.2344,467.8203 C869.8125,468.0859 869.125,468.2109 868.3594,468.2109 C866.3125,468.2109 865.0156,467.1172 865.0156,465.4141 L865.0156,464.3203 C865.0156,462.5391 866.2656,461.2266 868,461.2266 C868.5781,461.2266 869.1875,461.3828 869.6563,461.6328 C870.1406,461.9141 870.3125,462.1328 870.4063,462.5391 C870.4688,462.9453 870.5,463.0703 870.6406,463.1953 C870.7813,463.3359 871.0156,463.4453 871.2344,463.4453 C871.5,463.4453 871.7656,463.3047 871.9375,463.0859 C872.0469,462.9297 872.0781,462.7422 872.0781,462.3203 L872.0781,460.8984 C872.0781,460.4609 872.0625,460.3359 871.9688,460.1797 C871.8125,459.9141 871.5313,459.7734 871.2344,459.7734 C870.9375,459.7734 870.7344,459.8672 870.5156,460.1797 L870.3438,460.1016 Z " fill="#000000"/><text fill="#000000" font-family="sans-serif" font-size="12" font-style="italic" lengthAdjust="spacing" textLength="83" x="940" y="460.4355">&#171;persistence&#187;</text><text fill="#000000" font-family="sans-serif" font-size="14" lengthAdjust="spacing" textLength="199" x="882" y="476.2607">InMemoryCourseRepository</text><line style="stroke:#181818;stroke-width:0.5;" x1="854" x2="1083" y1="484.5625" y2="484.5625"/><line style="stroke:#181818;stroke-width:0.5;" x1="854" x2="1083" y1="492.5625" y2="492.5625"/></g><!--class ClassInstance--><g id="elem_ClassInstance"><rect codeLine="14" fill="#F1F1F1" height="56.2656" id="ClassInstance" rx="2.5" ry="2.5" style="stroke:#181818;stroke-width:0.5;" width="129" x="573" y="327.2969"/><ellipse cx="588" cy="347.4297" fill="#ADD1B2" rx="11" ry="11" style="stroke:#181818;stroke-width:1.0;"/><path d="M590.3438,343.1016 C589.4063,342.6641 588.8125,342.5234 587.9375,342.5234 C585.3125,342.5234 583.3125,344.6016 583.3125,347.3203 L583.3125,348.4453 C583.3125,351.0234 585.4219,352.9141 588.3125,352.9141 C589.5313,352.9141 590.6875,352.6172 591.4375,352.0703 C592.0156,351.6641 592.3438,351.2109 592.3438,350.8203 C592.3438,350.3672 591.9531,349.9766 591.4844,349.9766 C591.2656,349.9766 591.0625,350.0547 590.875,350.2422 C590.4219,350.7266 590.4219,350.7266 590.2344,350.8203 C589.8125,351.0859 589.125,351.2109 588.3594,351.2109 C586.3125,351.2109 585.0156,350.1172 585.0156,348.4141 L585.0156,347.3203 C585.0156,345.5391 586.2656,344.2266 588,344.2266 C588.5781,344.2266 589.1875,344.3828 589.6563,344.6328 C590.1406,344.9141 590.3125,345.1328 590.4063,345.5391 C590.4688,345.9453 590.5,346.0703 590.6406,346.1953 C590.7813,346.3359 591.0156,346.4453 591.2344,346.4453 C591.5,346.4453 591.7656,346.3047 591.9375,346.0859 C592.0469,345.9297 592.0781,345.7422 592.0781,345.3203 L592.0781,343.8984 C592.0781,343.4609 592.0625,343.3359 591.9688,343.1797 C591.8125,342.9141 591.5313,342.7734 591.2344,342.7734 C590.9375,342.7734 590.7344,342.8672 590.5156,343.1797 L590.3438,343.1016 Z " fill="#000000"/><text fill="#000000" font-family="sans-serif" font-size="12" font-style="italic" lengthAdjust="spacing" textLength="59" x="621" y="343.4355">&#171;domain&#187;</text><text fill="#000000" font-family="sans-serif" font-size="14" lengthAdjust="spacing" textLength="97" x="602" y="359.2607">ClassInstance</text><line style="stroke:#181818;stroke-width:0.5;" x1="574" x2="701" y1="367.5625" y2="367.5625"/><line style="stroke:#181818;stroke-width:0.5;" x1="574" x2="701" y1="375.5625" y2="375.5625"/></g><!--class Course--><g id="elem_Course"><rect codeLine="15" fill="#F1F1F1" height="56.2656" id="Course" rx="2.5" ry="2.5" style="stroke:#181818;stroke-width:0.5;" width="87" x="1403" y="327.2969"/><ellipse cx="1418" cy="347.4297" fill="#ADD1B2" rx="11" ry="11" style="stroke:#181818;stroke-width:1.0;"/><path d="M1420.3438,343.1016 C1419.4063,342.6641 1418.8125,342.5234 1417.9375,342.5234 C1415.3125,342.5234 1413.3125,344.6016 1413.3125,347.3203 L1413.3125,348.4453 C1413.3125,351.0234 1415.4219,352.9141 1418.3125,352.9141 C1419.5313,352.9141 1420.6875,352.6172 1421.4375,352.0703 C1422.0156,351.6641 1422.3438,351.2109 1422.3438,350.8203 C1422.3438,350.3672 1421.9531,349.9766 1421.4844,349.9766 C1421.2656,349.9766 1421.0625,350.0547 1420.875,350.2422 C1420.4219,350.7266 1420.4219,350.7266 1420.2344,350.8203 C1419.8125,351.0859 1419.125,351.2109 1418.3594,351.2109 C1416.3125,351.2109 1415.0156,350.1172 1415.0156,348.4141 L1415.0156,347.3203 C1415.0156,345.5391 1416.2656,344.2266 1418,344.2266 C1418.5781,344.2266 1419.1875,344.3828 1419.6563,344.6328 C1420.1406,344.9141 1420.3125,345.1328 1420.4063,345.5391 C1420.4688,345.9453 1420.5,346.0703 1420.6406,346.1953 C1420.7813,346.3359 1421.0156,346.4453 1421.2344,346.4453 C1421.5,346.4453 1421.7656,346.3047 1421.9375,346.0859 C1422.0469,345.9297 1422.0781,345.7422 1422.0781,345.3203 L1422.0781,343.8984 C1422.0781,343.4609 1422.0625,343.3359 1421.9688,343.1797 C1421.8125,342.9141 1421.5313,342.7734 1421.2344,342.7734 C1420.9375,342.7734 1420.7344,342.8672 1420.5156,343.1797 L1420.3438,343.1016 Z " fill="#000000"/><text fill="#000000" font-family="sans-serif" font-size="12" font-style="italic" lengthAdjust="spacing" textLength="59" x="1430" y="343.4355">&#171;domain&#187;</text><text fill="#000000" font-family="sans-serif" font-size="14" lengthAdjust="spacing" textLength="49" x="1435" y="359.2607">Course</text><line style="stroke:#181818;stroke-width:0.5;" x1="1404" x2="1489" y1="367.5625" y2="367.5625"/><line style="stroke:#181818;stroke-width:0.5;" x1="1404" x2="1489" y1="375.5625" y2="375.5625"/></g><!--class RecurringClass--><g id="elem_RecurringClass"><rect codeLine="16" fill="#F1F1F1" height="56.2656" id="RecurringClass" rx="2.5" ry="2.5" style="stroke:#181818;stroke-width:0.5;" width="137" x="1525" y="327.2969"/><ellipse cx="1540" cy="347.4297" fill="#ADD1B2" rx="11" ry="11" style="stroke:#181818;stroke-width:1.0;"/><path d="M1542.3438,343.1016 C1541.4063,342.6641 1540.8125,342.5234 1539.9375,342.5234 C1537.3125,342.5234 1535.3125,344.6016 1535.3125,347.3203 L1535.3125,348.4453 C1535.3125,351.0234 1537.4219,352.9141 1540.3125,352.9141 C1541.5313,352.9141 1542.6875,352.6172 1543.4375,352.0703 C1544.0156,351.6641 1544.3438,351.2109 1544.3438,350.8203 C1544.3438,350.3672 1543.9531,349.9766 1543.4844,349.9766 C1543.2656,349.9766 1543.0625,350.0547 1542.875,350.2422 C1542.4219,350.7266 1542.4219,350.7266 1542.2344,350.8203 C1541.8125,351.0859 1541.125,351.2109 1540.3594,351.2109 C1538.3125,351.2109 1537.0156,350.1172 1537.0156,348.4141 L1537.0156,347.3203 C1537.0156,345.5391 1538.2656,344.2266 1540,344.2266 C1540.5781,344.2266 1541.1875,344.3828 1541.6563,344.6328 C1542.1406,344.9141 1542.3125,345.1328 1542.4063,345.5391 C1542.4688,345.9453 1542.5,346.0703 1542.6406,346.1953 C1542.7813,346.3359 1543.0156,346.4453 1543.2344,346.4453 C1543.5,346.4453 1543.7656,346.3047 1543.9375,346.0859 C1544.0469,345.9297 1544.0781,345.7422 1544.0781,345.3203 L1544.0781,343.8984 C1544.0781,343.4609 1544.0625,343.3359 1543.9688,343.1797 C1543.8125,342.9141 1543.5313,342.7734 1543.2344,342.7734 C1542.9375,342.7734 1542.7344,342.8672 1542.5156,343.1797 L1542.3438,343.1016 Z " fill="#000000"/><text fill="#000000" font-family="sans-serif" font-size="12" font-style="italic" lengthAdjust="spacing" textLength="59" x="1577" y="343.4355">&#171;domain&#187;</text><text fill="#000000" font-family="sans-serif" font-size="14" lengthAdjust="spacing" textLength="105" x="1554" y="359.2607">RecurringClass</text><line style="stroke:#181818;stroke-width:0.5;" x1="1526" x2="1661" y1="367.5625" y2="367.5625"/><line style="stroke:#181818;stroke-width:0.5;" x1="1526" x2="1661" y1="375.5625" y2="375.5625"/></g><!--class UpdateClassScheduleController--><g id="elem_UpdateClassScheduleController"><rect codeLine="18" fill="#F1F1F1" height="56.2656" id="UpdateClassScheduleController" rx="2.5" ry="2.5" style="stroke:#181818;stroke-width:0.5;" width="258" x="1097.5" y="194.2969"/><ellipse cx="1112.5" cy="214.4297" fill="#ADD1B2" rx="11" ry="11" style="stroke:#181818;stroke-width:1.0;"/><path d="M1114.8438,210.1016 C1113.9063,209.6641 1113.3125,209.5234 1112.4375,209.5234 C1109.8125,209.5234 1107.8125,211.6016 1107.8125,214.3203 L1107.8125,215.4453 C1107.8125,218.0234 1109.9219,219.9141 1112.8125,219.9141 C1114.0313,219.9141 1115.1875,219.6172 1115.9375,219.0703 C1116.5156,218.6641 1116.8438,218.2109 1116.8438,217.8203 C1116.8438,217.3672 1116.4531,216.9766 1115.9844,216.9766 C1115.7656,216.9766 1115.5625,217.0547 1115.375,217.2422 C1114.9219,217.7266 1114.9219,217.7266 1114.7344,217.8203 C1114.3125,218.0859 1113.625,218.2109 1112.8594,218.2109 C1110.8125,218.2109 1109.5156,217.1172 1109.5156,215.4141 L1109.5156,214.3203 C1109.5156,212.5391 1110.7656,211.2266 1112.5,211.2266 C1113.0781,211.2266 1113.6875,211.3828 1114.1563,211.6328 C1114.6406,211.9141 1114.8125,212.1328 1114.9063,212.5391 C1114.9688,212.9453 1115,213.0703 1115.1406,213.1953 C1115.2813,213.3359 1115.5156,213.4453 1115.7344,213.4453 C1116,213.4453 1116.2656,213.3047 1116.4375,213.0859 C1116.5469,212.9297 1116.5781,212.7422 1116.5781,212.3203 L1116.5781,210.8984 C1116.5781,210.4609 1116.5625,210.3359 1116.4688,210.1797 C1116.3125,209.9141 1116.0313,209.7734 1115.7344,209.7734 C1115.4375,209.7734 1115.2344,209.8672 1115.0156,210.1797 L1114.8438,210.1016 Z " fill="#000000"/><text fill="#000000" font-family="sans-serif" font-size="12" font-style="italic" lengthAdjust="spacing" textLength="80" x="1199.5" y="210.4355">&#171;application&#187;</text><text fill="#000000" font-family="sans-serif" font-size="14" lengthAdjust="spacing" textLength="226" x="1126.5" y="226.2607">UpdateClassScheduleController</text><line style="stroke:#181818;stroke-width:0.5;" x1="1098.5" x2="1354.5" y1="234.5625" y2="234.5625"/><line style="stroke:#181818;stroke-width:0.5;" x1="1098.5" x2="1354.5" y1="242.5625" y2="242.5625"/></g><!--class ListRecurringClassService--><g id="elem_ListRecurringClassService"><rect codeLine="19" fill="#F1F1F1" height="56.2656" id="ListRecurringClassService" rx="2.5" ry="2.5" style="stroke:#181818;stroke-width:0.5;" width="216" x="855.5" y="327.2969"/><ellipse cx="870.5" cy="347.4297" fill="#ADD1B2" rx="11" ry="11" style="stroke:#181818;stroke-width:1.0;"/><path d="M872.8438,343.1016 C871.9063,342.6641 871.3125,342.5234 870.4375,342.5234 C867.8125,342.5234 865.8125,344.6016 865.8125,347.3203 L865.8125,348.4453 C865.8125,351.0234 867.9219,352.9141 870.8125,352.9141 C872.0313,352.9141 873.1875,352.6172 873.9375,352.0703 C874.5156,351.6641 874.8438,351.2109 874.8438,350.8203 C874.8438,350.3672 874.4531,349.9766 873.9844,349.9766 C873.7656,349.9766 873.5625,350.0547 873.375,350.2422 C872.9219,350.7266 872.9219,350.7266 872.7344,350.8203 C872.3125,351.0859 871.625,351.2109 870.8594,351.2109 C868.8125,351.2109 867.5156,350.1172 867.5156,348.4141 L867.5156,347.3203 C867.5156,345.5391 868.7656,344.2266 870.5,344.2266 C871.0781,344.2266 871.6875,344.3828 872.1563,344.6328 C872.6406,344.9141 872.8125,345.1328 872.9063,345.5391 C872.9688,345.9453 873,346.0703 873.1406,346.1953 C873.2813,346.3359 873.5156,346.4453 873.7344,346.4453 C874,346.4453 874.2656,346.3047 874.4375,346.0859 C874.5469,345.9297 874.5781,345.7422 874.5781,345.3203 L874.5781,343.8984 C874.5781,343.4609 874.5625,343.3359 874.4688,343.1797 C874.3125,342.9141 874.0313,342.7734 873.7344,342.7734 C873.4375,342.7734 873.2344,342.8672 873.0156,343.1797 L872.8438,343.1016 Z " fill="#000000"/><text fill="#000000" font-family="sans-serif" font-size="12" font-style="italic" lengthAdjust="spacing" textLength="80" x="936.5" y="343.4355">&#171;application&#187;</text><text fill="#000000" font-family="sans-serif" font-size="14" lengthAdjust="spacing" textLength="184" x="884.5" y="359.2607">ListRecurringClassService</text><line style="stroke:#181818;stroke-width:0.5;" x1="856.5" x2="1070.5" y1="367.5625" y2="367.5625"/><line style="stroke:#181818;stroke-width:0.5;" x1="856.5" x2="1070.5" y1="375.5625" y2="375.5625"/></g><!--class ListCourseService--><g id="elem_ListCourseService"><rect codeLine="20" fill="#F1F1F1" height="56.2656" id="ListCourseService" rx="2.5" ry="2.5" style="stroke:#181818;stroke-width:0.5;" width="160" x="1106.5" y="327.2969"/><ellipse cx="1121.5" cy="347.4297" fill="#ADD1B2" rx="11" ry="11" style="stroke:#181818;stroke-width:1.0;"/><path d="M1123.8438,343.1016 C1122.9063,342.6641 1122.3125,342.5234 1121.4375,342.5234 C1118.8125,342.5234 1116.8125,344.6016 1116.8125,347.3203 L1116.8125,348.4453 C1116.8125,351.0234 1118.9219,352.9141 1121.8125,352.9141 C1123.0313,352.9141 1124.1875,352.6172 1124.9375,352.0703 C1125.5156,351.6641 1125.8438,351.2109 1125.8438,350.8203 C1125.8438,350.3672 1125.4531,349.9766 1124.9844,349.9766 C1124.7656,349.9766 1124.5625,350.0547 1124.375,350.2422 C1123.9219,350.7266 1123.9219,350.7266 1123.7344,350.8203 C1123.3125,351.0859 1122.625,351.2109 1121.8594,351.2109 C1119.8125,351.2109 1118.5156,350.1172 1118.5156,348.4141 L1118.5156,347.3203 C1118.5156,345.5391 1119.7656,344.2266 1121.5,344.2266 C1122.0781,344.2266 1122.6875,344.3828 1123.1563,344.6328 C1123.6406,344.9141 1123.8125,345.1328 1123.9063,345.5391 C1123.9688,345.9453 1124,346.0703 1124.1406,346.1953 C1124.2813,346.3359 1124.5156,346.4453 1124.7344,346.4453 C1125,346.4453 1125.2656,346.3047 1125.4375,346.0859 C1125.5469,345.9297 1125.5781,345.7422 1125.5781,345.3203 L1125.5781,343.8984 C1125.5781,343.4609 1125.5625,343.3359 1125.4688,343.1797 C1125.3125,342.9141 1125.0313,342.7734 1124.7344,342.7734 C1124.4375,342.7734 1124.2344,342.8672 1124.0156,343.1797 L1123.8438,343.1016 Z " fill="#000000"/><text fill="#000000" font-family="sans-serif" font-size="12" font-style="italic" lengthAdjust="spacing" textLength="80" x="1159.5" y="343.4355">&#171;application&#187;</text><text fill="#000000" font-family="sans-serif" font-size="14" lengthAdjust="spacing" textLength="128" x="1135.5" y="359.2607">ListCourseService</text><line style="stroke:#181818;stroke-width:0.5;" x1="1107.5" x2="1265.5" y1="367.5625" y2="367.5625"/><line style="stroke:#181818;stroke-width:0.5;" x1="1107.5" x2="1265.5" y1="375.5625" y2="375.5625"/></g><!--class RecurringClassRepository--><g id="elem_RecurringClassRepository"><rect codeLine="22" fill="#F1F1F1" height="56.2656" id="RecurringClassRepository" rx="2.5" ry="2.5" style="stroke:#181818;stroke-width:0.5;" width="215" x="603" y="444.2969"/><ellipse cx="618" cy="464.4297" fill="#B4A7E5" rx="11" ry="11" style="stroke:#181818;stroke-width:1.0;"/><path d="M618.9531,461.2109 L620.6719,461.2109 C621.0625,461.2109 621.25,461.1797 621.375,461.1016 C621.6406,460.9453 621.7813,460.6641 621.7813,460.3672 C621.7813,460.1016 621.6719,459.8359 621.4375,459.6641 C621.2656,459.5547 621.125,459.5234 620.6719,459.5234 L615.5313,459.5234 C615.0938,459.5234 614.9688,459.5391 614.8125,459.6328 C614.5625,459.7891 614.4063,460.0859 614.4063,460.3672 C614.4063,460.6484 614.5469,460.8984 614.7656,461.0703 C614.9219,461.1797 615.1094,461.2109 615.5313,461.2109 L617.25,461.2109 L617.25,467.7266 L615.5313,467.7266 C615.0938,467.7266 614.9688,467.7422 614.8125,467.8516 C614.5625,468.0078 614.4063,468.2891 614.4063,468.5859 C614.4063,468.8359 614.5469,469.1016 614.7656,469.2578 C614.9219,469.3828 615.125,469.4297 615.5313,469.4297 L620.6719,469.4297 C621.4219,469.4297 621.7813,469.1484 621.7813,468.5859 C621.7813,468.3047 621.6719,468.0547 621.4375,467.8828 C621.2656,467.7578 621.125,467.7266 620.6719,467.7266 L618.9531,467.7266 L618.9531,461.2109 Z " fill="#000000"/><text fill="#000000" font-family="sans-serif" font-size="12" font-style="italic" lengthAdjust="spacing" textLength="83" x="682" y="460.4355">&#171;repositories&#187;</text><text fill="#000000" font-family="sans-serif" font-size="14" font-style="italic" lengthAdjust="spacing" textLength="183" x="632" y="476.2607">RecurringClassRepository</text><line style="stroke:#181818;stroke-width:0.5;" x1="604" x2="817" y1="484.5625" y2="484.5625"/><line style="stroke:#181818;stroke-width:0.5;" x1="604" x2="817" y1="492.5625" y2="492.5625"/></g><!--class CourseRepository--><g id="elem_CourseRepository"><rect codeLine="23" fill="#F1F1F1" height="56.2656" id="CourseRepository" rx="2.5" ry="2.5" style="stroke:#181818;stroke-width:0.5;" width="158" x="1336.5" y="444.2969"/><ellipse cx="1351.5" cy="464.4297" fill="#B4A7E5" rx="11" ry="11" style="stroke:#181818;stroke-width:1.0;"/><path d="M1352.4531,461.2109 L1354.1719,461.2109 C1354.5625,461.2109 1354.75,461.1797 1354.875,461.1016 C1355.1406,460.9453 1355.2813,460.6641 1355.2813,460.3672 C1355.2813,460.1016 1355.1719,459.8359 1354.9375,459.6641 C1354.7656,459.5547 1354.625,459.5234 1354.1719,459.5234 L1349.0313,459.5234 C1348.5938,459.5234 1348.4688,459.5391 1348.3125,459.6328 C1348.0625,459.7891 1347.9063,460.0859 1347.9063,460.3672 C1347.9063,460.6484 1348.0469,460.8984 1348.2656,461.0703 C1348.4219,461.1797 1348.6094,461.2109 1349.0313,461.2109 L1350.75,461.2109 L1350.75,467.7266 L1349.0313,467.7266 C1348.5938,467.7266 1348.4688,467.7422 1348.3125,467.8516 C1348.0625,468.0078 1347.9063,468.2891 1347.9063,468.5859 C1347.9063,468.8359 1348.0469,469.1016 1348.2656,469.2578 C1348.4219,469.3828 1348.625,469.4297 1349.0313,469.4297 L1354.1719,469.4297 C1354.9219,469.4297 1355.2813,469.1484 1355.2813,468.5859 C1355.2813,468.3047 1355.1719,468.0547 1354.9375,467.8828 C1354.7656,467.7578 1354.625,467.7266 1354.1719,467.7266 L1352.4531,467.7266 L1352.4531,461.2109 Z " fill="#000000"/><text fill="#000000" font-family="sans-serif" font-size="12" font-style="italic" lengthAdjust="spacing" textLength="83" x="1387" y="460.4355">&#171;repositories&#187;</text><text fill="#000000" font-family="sans-serif" font-size="14" font-style="italic" lengthAdjust="spacing" textLength="126" x="1365.5" y="476.2607">CourseRepository</text><line style="stroke:#181818;stroke-width:0.5;" x1="1337.5" x2="1493.5" y1="484.5625" y2="484.5625"/><line style="stroke:#181818;stroke-width:0.5;" x1="1337.5" x2="1493.5" y1="492.5625" y2="492.5625"/></g><!--link UpdateClassScheduleUI to UpdateClassScheduleController--><g id="link_UpdateClassScheduleUI_UpdateClassScheduleController"><path codeLine="26" d="M1371.79,117.3599 C1339.95,140.1339 1299.09,169.3679 1268.81,191.0279 " fill="none" id="UpdateClassScheduleUI-to-UpdateClassScheduleController" style="stroke:#181818;stroke-width:1.0;"/><polygon fill="#181818" points="1264.42,194.1669,1274.0653,192.1747,1268.4838,191.2539,1269.4046,185.6725,1264.42,194.1669" style="stroke:#181818;stroke-width:1.0;"/><text fill="#000000" font-family="sans-serif" font-size="13" lengthAdjust="spacing" textLength="83" x="1330.5" y="160.3638">theController</text></g><!--link UpdateClassScheduleController to RecurringClassRepository--><g id="link_UpdateClassScheduleController_RecurringClassRepository"><path codeLine="27" d="M1097.42,231.1769 C1009.05,242.0329 892.853,267.5599 807.5,327.2969 C767.133,355.5489 738.768,406.4321 723.537,439.5267 " fill="none" id="UpdateClassScheduleController-to-RecurringClassRepository" style="stroke:#181818;stroke-width:1.0;"/><polygon fill="#181818" points="721.385,444.2756,728.7431,437.7289,723.4487,439.7213,721.4563,434.427,721.385,444.2756" style="stroke:#181818;stroke-width:1.0;"/><text fill="#000000" font-family="sans-serif" font-size="13" lengthAdjust="spacing" textLength="29" x="808.5" y="359.8638">repo</text></g><!--link UpdateClassScheduleController to CourseRepository--><g id="link_UpdateClassScheduleController_CourseRepository"><path codeLine="28" d="M1247.09,250.3089 C1282.35,296.5879 1354.14,390.7839 1391.58,439.9063 " fill="none" id="UpdateClassScheduleController-to-CourseRepository" style="stroke:#181818;stroke-width:1.0;"/><polygon fill="#181818" points="1394.65,443.9403,1392.3699,434.359,1391.6167,439.9655,1386.0102,439.2123,1394.65,443.9403" style="stroke:#181818;stroke-width:1.0;"/><text fill="#000000" font-family="sans-serif" font-size="13" lengthAdjust="spacing" textLength="29" x="1346.5" y="359.8638">repo</text></g><!--link UpdateClassScheduleController to ListRecurringClassService--><g id="link_UpdateClassScheduleController_ListRecurringClassService"><path codeLine="29" d="M1172.01,250.4399 C1128.37,272.1769 1067.26,302.6139 1022.48,324.9199 " fill="none" id="UpdateClassScheduleController-to-ListRecurringClassService" style="stroke:#181818;stroke-width:1.0;"/><polygon fill="#181818" points="1017.92,327.1879,1027.7594,326.757,1022.3958,324.9592,1024.1936,319.5957,1017.92,327.1879" style="stroke:#181818;stroke-width:1.0;"/><text fill="#000000" font-family="sans-serif" font-size="13" lengthAdjust="spacing" textLength="46" x="1111.5" y="293.3638">service</text></g><!--link UpdateClassScheduleController to ListCourseService--><g id="link_UpdateClassScheduleController_ListCourseService"><path codeLine="30" d="M1204.65,250.4789 C1198.62,259.4599 1192.83,269.8419 1189.5,280.2969 C1185.3,293.4929 1184.1,308.6839 1184.13,321.8549 " fill="none" id="UpdateClassScheduleController-to-ListCourseService" style="stroke:#181818;stroke-width:1.0;"/><polygon fill="#181818" points="1184.19,326.9839,1188.0688,317.931,1184.1229,321.9843,1180.0695,318.0384,1184.19,326.9839" style="stroke:#181818;stroke-width:1.0;"/><text fill="#000000" font-family="sans-serif" font-size="13" lengthAdjust="spacing" textLength="46" x="1190.5" y="293.3638">service</text></g><!--link UpdateClassScheduleController to ClassInstance--><g id="link_UpdateClassScheduleController_ClassInstance"><path codeLine="32" d="M1097.37,222.7359 C956.391,224.5099 741.838,234.9379 675.5,280.2969 C661.254,290.0369 652.029,306.8069 646.24,321.9219 " fill="none" id="UpdateClassScheduleController-to-ClassInstance" style="stroke:#181818;stroke-width:1.0;"/><polygon fill="#181818" points="644.406,326.9719,651.2383,319.8782,646.113,322.2723,643.7189,317.147,644.406,326.9719" style="stroke:#181818;stroke-width:1.0;"/><text fill="#000000" font-family="sans-serif" font-size="13" lengthAdjust="spacing" textLength="86" x="676.5" y="293.3638">classInstance</text></g><!--link UpdateClassScheduleController to RecurringClass--><g id="link_UpdateClassScheduleController_RecurringClass"><path codeLine="33" d="M1302.54,250.4399 C1366.39,273.2289 1457.02,305.5809 1520.11,328.0999 " fill="none" id="UpdateClassScheduleController-to-RecurringClass" style="stroke:#181818;stroke-width:1.0;"/><polygon fill="#181818" points="1524.98,329.8389,1517.8542,323.0401,1520.2724,328.154,1515.1585,330.5722,1524.98,329.8389" style="stroke:#181818;stroke-width:1.0;"/><text fill="#000000" font-family="sans-serif" font-size="13" lengthAdjust="spacing" textLength="91" x="1432.5" y="293.3638">recurringClass</text></g><!--link UpdateClassScheduleController to Course--><g id="link_UpdateClassScheduleController_Course"><path codeLine="34" d="M1256.11,250.3959 C1273.47,265.4129 1296.28,283.7309 1318.5,297.2969 C1343.51,312.5689 1373.33,326.0899 1397.89,336.1259 " fill="none" id="UpdateClassScheduleController-to-Course" style="stroke:#181818;stroke-width:1.0;"/><polygon fill="#181818" points="1402.73,338.0859,1395.8825,331.0069,1398.0938,336.2137,1392.887,338.4249,1402.73,338.0859" style="stroke:#181818;stroke-width:1.0;"/><text fill="#000000" font-family="sans-serif" font-size="13" lengthAdjust="spacing" textLength="43" x="1319.5" y="293.3638">course</text></g><!--link JpaRecurringClassRepository to RecurringClassRepository--><g id="link_JpaRecurringClassRepository_RecurringClassRepository"><path codeLine="35" d="M567.73,472.2969 C577.704,472.2969 587.677,472.2969 597.65,472.2969 " fill="none" id="JpaRecurringClassRepository-to-RecurringClassRepository" style="stroke:#181818;stroke-width:1.0;"/><polygon fill="#181818" points="602.865,472.2969,593.865,468.2969,597.865,472.2969,593.865,476.2969,602.865,472.2969" style="stroke:#181818;stroke-width:1.0;"/></g><!--link JpaCourseRepository to CourseRepository--><g id="link_JpaCourseRepository_CourseRepository"><path codeLine="36" d="M1301.79,472.2969 C1311.62,472.2969 1321.46,472.2969 1331.29,472.2969 " fill="none" id="JpaCourseRepository-to-CourseRepository" style="stroke:#181818;stroke-width:1.0;"/><polygon fill="#181818" points="1336.44,472.2969,1327.44,468.2969,1331.44,472.2969,1327.44,476.2969,1336.44,472.2969" style="stroke:#181818;stroke-width:1.0;"/></g><!--link InMemoryRecurringClassRepository to RecurringClassRepository--><g id="link_InMemoryRecurringClassRepository_RecurringClassRepository"><path codeLine="37" d="M219.57,444.1423 C252.422,432.2237 292.612,419.7357 330,413.7969 C434.468,397.2029 464.222,393.3239 568,413.7969 C596.529,419.4249 626.53,430.8255 651.607,442.0798 " fill="none" id="InMemoryRecurringClassRepository-to-RecurringClassRepository" style="stroke:#181818;stroke-width:1.0;"/><polygon fill="#181818" points="656.23,444.178,649.6867,436.8169,651.6767,442.1122,646.3814,444.1022,656.23,444.178" style="stroke:#181818;stroke-width:1.0;"/></g><!--link InMemoryCourseRepository to CourseRepository--><g id="link_InMemoryCourseRepository_CourseRepository"><path codeLine="38" d="M1026.38,444.1671 C1054.02,432.2538 1087.99,419.7631 1120,413.7969 C1199.52,398.9769 1223.39,394.7299 1302,413.7969 C1325.13,419.4078 1348.83,430.6041 1368.55,441.713 " fill="none" id="InMemoryCourseRepository-to-CourseRepository" style="stroke:#181818;stroke-width:1.0;"/><polygon fill="#181818" points="1372.95,444.2296,1367.1273,436.2862,1368.611,441.7451,1363.1521,443.2287,1372.95,444.2296" style="stroke:#181818;stroke-width:1.0;"/></g><!--link UpdateClassScheduleUI to ClassInstance--><g id="link_UpdateClassScheduleUI_ClassInstance"><path codeLine="41" d="M1322.19,94.1329 C1135.5,119.3749 742.751,182.8819 651.5,280.2969 C641.151,291.3449 637.299,307.5369 636.185,321.9589 " fill="none" id="UpdateClassScheduleUI-to-ClassInstance" style="stroke:#181818;stroke-width:1.0;stroke-dasharray:7.0,7.0;"/><polygon fill="#181818" points="635.891,327.1799,640.3913,318.4193,636.1725,322.1878,632.404,317.969,635.891,327.1799" style="stroke:#181818;stroke-width:1.0;"/></g><!--link UpdateClassScheduleUI to Course--><g id="link_UpdateClassScheduleUI_Course"><path codeLine="42" d="M1440.52,117.4879 C1460.03,156.2879 1489.08,220.7379 1500.5,280.2969 C1501.92,287.7169 1503.3,290.2779 1500.5,297.2969 C1496.68,306.8739 1490.41,315.7659 1483.46,323.5439 " fill="none" id="UpdateClassScheduleUI-to-Course" style="stroke:#181818;stroke-width:1.0;stroke-dasharray:7.0,7.0;"/><polygon fill="#181818" points="1480.01,327.2699,1489.06,323.3844,1483.4073,323.6013,1483.1904,317.9486,1480.01,327.2699" style="stroke:#181818;stroke-width:1.0;"/></g><!--link UpdateClassScheduleUI to RecurringClass--><g id="link_UpdateClassScheduleUI_RecurringClass"><path codeLine="43" d="M1458.31,117.4239 C1467.05,126.7449 1476.01,137.0609 1483.5,147.2969 C1525.5,204.6979 1561.42,280.1979 1579.99,322.3339 " fill="none" id="UpdateClassScheduleUI-to-RecurringClass" style="stroke:#181818;stroke-width:1.0;stroke-dasharray:7.0,7.0;"/><polygon fill="#181818" points="1582.06,327.0539,1582.1044,317.2051,1580.0499,322.4757,1574.7793,320.4213,1582.06,327.0539" style="stroke:#181818;stroke-width:1.0;"/></g><!--link ListRecurringClassService to RecurringClassRepository--><g id="link_ListRecurringClassService_RecurringClassRepository"><path codeLine="44" d="M903.863,383.4049 C865.117,401.0164 814.627,423.9662 774.957,441.9981 " fill="none" id="ListRecurringClassService-to-RecurringClassRepository" style="stroke:#181818;stroke-width:1.0;stroke-dasharray:7.0,7.0;"/><polygon fill="#181818" points="770.175,444.1721,780.0235,444.0875,774.7264,442.1022,776.7117,436.8051,770.175,444.1721" style="stroke:#181818;stroke-width:1.0;"/></g><!--link ListCourseService to CourseRepository--><g id="link_ListCourseService_CourseRepository"><path codeLine="45" d="M1240.48,383.4049 C1275.41,400.9448 1320.88,423.7797 1356.72,441.778 " fill="none" id="ListCourseService-to-CourseRepository" style="stroke:#181818;stroke-width:1.0;stroke-dasharray:7.0,7.0;"/><polygon fill="#181818" points="1361.49,444.1721,1355.241,436.5596,1357.0214,441.929,1351.652,443.7094,1361.49,444.1721" style="stroke:#181818;stroke-width:1.0;"/></g><!--SRC=[bLGzRy8m4DtlLtW31gJICK8ii83Q3aHCLGShkOAbnBPiGrLL_FSwJjF490ucKyxtthjFdM6cGB8kgDPam-XHqP9CqtGp8tDoICdYQV4CC75-r90vt47crA1xIxCJvkS23rkoN4g56hcXXWc-Mf4V8FRBHNeINzCPNE6FlfDqZzbPASQFJcIFKcXcXFgkH51ffWto32kDQqjQYxFI60FUybSiBUBnC0qp9bPJZnFVScseTLbWBahAU5UrLXjq-IdUGCBzNWjkb2WAL9P2fInOzj_sHlh5PklBfwWkpENeKJn6dMiO2OmRL9_KEaVQgng3eQvpQca3lUt3OV96B-peuiBmmitdgpkjIOWvTMmOHrTwmP8IKkKOeT2hBfePdbT2TFqNgUBFi6N7fEyjSqAohlrm0rtntOVe1bQXtG-CdOkHYS7GnHYO3zmz5cD1WlTYA19CDYYHv_Q4s3qFRVLxJhMrFcw74OElEtOVwDS3uSqBapfrzLUkdrGB_mK0]--></g></svg>