<?xml version="1.0" encoding="us-ascii" standalone="no"?><svg xmlns="http://www.w3.org/2000/svg" xmlns:xlink="http://www.w3.org/1999/xlink" contentStyleType="text/css" height="1081px" preserveAspectRatio="none" style="width:2573px;height:1081px;background:#FFFFFF;" version="1.1" viewBox="0 0 2573 1081" width="2573px" zoomAndPan="magnify"><defs/><g><text fill="#000000" font-family="sans-serif" font-size="14" font-weight="bold" lengthAdjust="spacing" textLength="270" x="1153" y="27.9951">Sequence Diagram (SD) - US 1012</text><rect fill="#FFFFFF" height="837.7188" style="stroke:#181818;stroke-width:1.0;" width="10" x="37" y="130.8906"/><rect fill="#FFFFFF" height="816.5859" style="stroke:#181818;stroke-width:1.0;" width="10" x="556" y="152.0234"/><rect fill="#FFFFFF" height="145.6641" style="stroke:#181818;stroke-width:1.0;" width="10" x="1079" y="268.5547"/><rect fill="#FFFFFF" height="145.6641" style="stroke:#181818;stroke-width:1.0;" width="10" x="1079" y="501.6172"/><rect fill="#FFFFFF" height="146.5313" style="stroke:#181818;stroke-width:1.0;" width="10" x="1079" y="792.9453"/><rect fill="#FFFFFF" height="87.3984" style="stroke:#181818;stroke-width:1.0;" width="10" x="1363" y="297.6875"/><rect fill="#FFFFFF" height="87.3984" style="stroke:#181818;stroke-width:1.0;" width="10" x="1543" y="530.75"/><rect fill="#FFFFFF" height="30" style="stroke:#181818;stroke-width:1.0;" width="10" x="2110.5" y="851.2109"/><rect fill="#FFFFFF" height="29.1328" style="stroke:#181818;stroke-width:1.0;" width="10" x="2300" y="326.8203"/><rect fill="#FFFFFF" height="29.1328" style="stroke:#181818;stroke-width:1.0;" width="10" x="2472" y="559.8828"/><line style="stroke:#181818;stroke-width:0.5;stroke-dasharray:5.0,5.0;" x1="42" x2="42" y1="120.8906" y2="986.6094"/><line style="stroke:#181818;stroke-width:0.5;stroke-dasharray:5.0,5.0;" x1="561" x2="561" y1="120.8906" y2="986.6094"/><line style="stroke:#181818;stroke-width:0.5;stroke-dasharray:5.0,5.0;" x1="1084" x2="1084" y1="120.8906" y2="986.6094"/><line style="stroke:#181818;stroke-width:0.5;stroke-dasharray:5.0,5.0;" x1="1368" x2="1368" y1="120.8906" y2="986.6094"/><line style="stroke:#181818;stroke-width:0.5;stroke-dasharray:5.0,5.0;" x1="1548" x2="1548" y1="120.8906" y2="986.6094"/><line style="stroke:#181818;stroke-width:0.5;stroke-dasharray:5.0,5.0;" x1="1714" x2="1714" y1="120.8906" y2="986.6094"/><line style="stroke:#181818;stroke-width:0.5;stroke-dasharray:5.0,5.0;" x1="1887" x2="1887" y1="120.8906" y2="986.6094"/><line style="stroke:#181818;stroke-width:0.5;stroke-dasharray:5.0,5.0;" x1="2115" x2="2115" y1="120.8906" y2="986.6094"/><line style="stroke:#181818;stroke-width:0.5;stroke-dasharray:5.0,5.0;" x1="2305" x2="2305" y1="120.8906" y2="986.6094"/><line style="stroke:#181818;stroke-width:0.5;stroke-dasharray:5.0,5.0;" x1="2477" x2="2477" y1="120.8906" y2="986.6094"/><text fill="#000000" font-family="sans-serif" font-size="14" lengthAdjust="spacing" textLength="68" x="5" y="117.5889">Professor</text><ellipse cx="42" cy="53.0938" fill="#E3E3E3" rx="8" ry="8" style="stroke:#181818;stroke-width:0.5;"/><path d="M42,61.0938 L42,88.0938 M29,69.0938 L55,69.0938 M42,88.0938 L29,103.0938 M42,88.0938 L55,103.0938 " fill="none" style="stroke:#181818;stroke-width:0.5;"/><text fill="#000000" font-family="sans-serif" font-size="14" lengthAdjust="spacing" textLength="68" x="5" y="998.6045">Professor</text><ellipse cx="42" cy="1010.4063" fill="#E3E3E3" rx="8" ry="8" style="stroke:#181818;stroke-width:0.5;"/><path d="M42,1018.4063 L42,1045.4063 M29,1026.4063 L55,1026.4063 M42,1045.4063 L29,1060.4063 M42,1045.4063 L55,1060.4063 " fill="none" style="stroke:#181818;stroke-width:0.5;"/><rect fill="#E3E3E3" height="46.5938" rx="2.5" ry="2.5" style="stroke:#181818;stroke-width:0.5;" width="180" x="471" y="73.2969"/><text fill="#000000" font-family="sans-serif" font-size="14" font-style="italic" lengthAdjust="spacing" textLength="108" x="507" y="93.292">&#171;presentation&#187;</text><text fill="#000000" font-family="sans-serif" font-size="14" lengthAdjust="spacing" textLength="166" x="478" y="109.5889">UpdateClassScheduleUI</text><rect fill="#E3E3E3" height="46.5938" rx="2.5" ry="2.5" style="stroke:#181818;stroke-width:0.5;" width="180" x="471" y="985.6094"/><text fill="#000000" font-family="sans-serif" font-size="14" font-style="italic" lengthAdjust="spacing" textLength="108" x="507" y="1005.6045">&#171;presentation&#187;</text><text fill="#000000" font-family="sans-serif" font-size="14" lengthAdjust="spacing" textLength="166" x="478" y="1021.9014">UpdateClassScheduleUI</text><text fill="#000000" font-family="sans-serif" font-size="14" font-style="italic" lengthAdjust="spacing" textLength="97" x="1032.5" y="101.292">&#171;application&#187;</text><text fill="#000000" font-family="sans-serif" font-size="14" lengthAdjust="spacing" textLength="226" x="968" y="117.5889">UpdateClassScheduleController</text><ellipse cx="1084" cy="72.2969" fill="#E3E3E3" rx="12" ry="12" style="stroke:#181818;stroke-width:0.5;"/><polygon fill="#181818" points="1080,60.2969,1086,55.2969,1084,60.2969,1086,65.2969,1080,60.2969" style="stroke:#181818;stroke-width:1.0;"/><text fill="#000000" font-family="sans-serif" font-size="14" font-style="italic" lengthAdjust="spacing" textLength="97" x="1032.5" y="998.6045">&#171;application&#187;</text><text fill="#000000" font-family="sans-serif" font-size="14" lengthAdjust="spacing" textLength="226" x="968" y="1014.9014">UpdateClassScheduleController</text><ellipse cx="1084" cy="1034.2031" fill="#E3E3E3" rx="12" ry="12" style="stroke:#181818;stroke-width:0.5;"/><polygon fill="#181818" points="1080,1022.2031,1086,1017.2031,1084,1022.2031,1086,1027.2031,1080,1022.2031" style="stroke:#181818;stroke-width:1.0;"/><rect fill="#E3E3E3" height="46.5938" rx="2.5" ry="2.5" style="stroke:#181818;stroke-width:0.5;" width="142" x="1297" y="73.2969"/><text fill="#000000" font-family="sans-serif" font-size="14" font-style="italic" lengthAdjust="spacing" textLength="97" x="1319.5" y="93.292">&#171;application&#187;</text><text fill="#000000" font-family="sans-serif" font-size="14" lengthAdjust="spacing" textLength="128" x="1304" y="109.5889">ListCourseService</text><rect fill="#E3E3E3" height="46.5938" rx="2.5" ry="2.5" style="stroke:#181818;stroke-width:0.5;" width="142" x="1297" y="985.6094"/><text fill="#000000" font-family="sans-serif" font-size="14" font-style="italic" lengthAdjust="spacing" textLength="97" x="1319.5" y="1005.6045">&#171;application&#187;</text><text fill="#000000" font-family="sans-serif" font-size="14" lengthAdjust="spacing" textLength="128" x="1304" y="1021.9014">ListCourseService</text><rect fill="#E3E3E3" height="46.5938" rx="2.5" ry="2.5" style="stroke:#181818;stroke-width:0.5;" width="198" x="1449" y="73.2969"/><text fill="#000000" font-family="sans-serif" font-size="14" font-style="italic" lengthAdjust="spacing" textLength="97" x="1499.5" y="93.292">&#171;application&#187;</text><text fill="#000000" font-family="sans-serif" font-size="14" lengthAdjust="spacing" textLength="184" x="1456" y="109.5889">ListRecurringClassService</text><rect fill="#E3E3E3" height="46.5938" rx="2.5" ry="2.5" style="stroke:#181818;stroke-width:0.5;" width="198" x="1449" y="985.6094"/><text fill="#000000" font-family="sans-serif" font-size="14" font-style="italic" lengthAdjust="spacing" textLength="97" x="1499.5" y="1005.6045">&#171;application&#187;</text><text fill="#000000" font-family="sans-serif" font-size="14" lengthAdjust="spacing" textLength="184" x="1456" y="1021.9014">ListRecurringClassService</text><rect fill="#E3E3E3" height="46.5938" rx="2.5" ry="2.5" style="stroke:#181818;stroke-width:0.5;" width="115" x="1657" y="73.2969"/><text fill="#000000" font-family="sans-serif" font-size="14" font-style="italic" lengthAdjust="spacing" textLength="72" x="1678.5" y="93.292">&#171;domain&#187;</text><text fill="#000000" font-family="sans-serif" font-size="14" lengthAdjust="spacing" textLength="101" x="1664" y="109.5889">course:Course</text><rect fill="#E3E3E3" height="46.5938" rx="2.5" ry="2.5" style="stroke:#181818;stroke-width:0.5;" width="115" x="1657" y="985.6094"/><text fill="#000000" font-family="sans-serif" font-size="14" font-style="italic" lengthAdjust="spacing" textLength="72" x="1678.5" y="1005.6045">&#171;domain&#187;</text><text fill="#000000" font-family="sans-serif" font-size="14" lengthAdjust="spacing" textLength="101" x="1664" y="1021.9014">course:Course</text><rect fill="#E3E3E3" height="46.5938" rx="2.5" ry="2.5" style="stroke:#181818;stroke-width:0.5;" width="211" x="1782" y="73.2969"/><text fill="#000000" font-family="sans-serif" font-size="14" font-style="italic" lengthAdjust="spacing" textLength="72" x="1851.5" y="93.292">&#171;domain&#187;</text><text fill="#000000" font-family="sans-serif" font-size="14" lengthAdjust="spacing" textLength="197" x="1789" y="109.5889">classInstance:ClassInstance</text><rect fill="#E3E3E3" height="46.5938" rx="2.5" ry="2.5" style="stroke:#181818;stroke-width:0.5;" width="211" x="1782" y="985.6094"/><text fill="#000000" font-family="sans-serif" font-size="14" font-style="italic" lengthAdjust="spacing" textLength="72" x="1851.5" y="1005.6045">&#171;domain&#187;</text><text fill="#000000" font-family="sans-serif" font-size="14" lengthAdjust="spacing" textLength="197" x="1789" y="1021.9014">classInstance:ClassInstance</text><rect fill="#E3E3E3" height="46.5938" rx="2.5" ry="2.5" style="stroke:#181818;stroke-width:0.5;" width="225" x="2003" y="73.2969"/><text fill="#000000" font-family="sans-serif" font-size="14" font-style="italic" lengthAdjust="spacing" textLength="72" x="2079.5" y="93.292">&#171;domain&#187;</text><text fill="#000000" font-family="sans-serif" font-size="14" lengthAdjust="spacing" textLength="211" x="2010" y="109.5889">recurringClass:RecurringClass</text><rect fill="#E3E3E3" height="46.5938" rx="2.5" ry="2.5" style="stroke:#181818;stroke-width:0.5;" width="225" x="2003" y="985.6094"/><text fill="#000000" font-family="sans-serif" font-size="14" font-style="italic" lengthAdjust="spacing" textLength="72" x="2079.5" y="1005.6045">&#171;domain&#187;</text><text fill="#000000" font-family="sans-serif" font-size="14" lengthAdjust="spacing" textLength="211" x="2010" y="1021.9014">recurringClass:RecurringClass</text><text fill="#000000" font-family="sans-serif" font-size="14" font-style="italic" lengthAdjust="spacing" textLength="90" x="2257" y="101.292">&#171;repository&#187;</text><text fill="#000000" font-family="sans-serif" font-size="14" lengthAdjust="spacing" textLength="128" x="2238" y="117.5889">CourseRepository</text><path d="M2287,52.2969 C2287,42.2969 2305,42.2969 2305,42.2969 C2305,42.2969 2323,42.2969 2323,52.2969 L2323,78.2969 C2323,88.2969 2305,88.2969 2305,88.2969 C2305,88.2969 2287,88.2969 2287,78.2969 L2287,52.2969 " fill="#E3E3E3" style="stroke:#181818;stroke-width:1.5;"/><path d="M2287,52.2969 C2287,62.2969 2305,62.2969 2305,62.2969 C2305,62.2969 2323,62.2969 2323,52.2969 " fill="none" style="stroke:#181818;stroke-width:1.5;"/><text fill="#000000" font-family="sans-serif" font-size="14" font-style="italic" lengthAdjust="spacing" textLength="90" x="2257" y="998.6045">&#171;repository&#187;</text><text fill="#000000" font-family="sans-serif" font-size="14" lengthAdjust="spacing" textLength="128" x="2238" y="1014.9014">CourseRepository</text><path d="M2287,1028.2031 C2287,1018.2031 2305,1018.2031 2305,1018.2031 C2305,1018.2031 2323,1018.2031 2323,1028.2031 L2323,1054.2031 C2323,1064.2031 2305,1064.2031 2305,1064.2031 C2305,1064.2031 2287,1064.2031 2287,1054.2031 L2287,1028.2031 " fill="#E3E3E3" style="stroke:#181818;stroke-width:1.5;"/><path d="M2287,1028.2031 C2287,1038.2031 2305,1038.2031 2305,1038.2031 C2305,1038.2031 2323,1038.2031 2323,1028.2031 " fill="none" style="stroke:#181818;stroke-width:1.5;"/><text fill="#000000" font-family="sans-serif" font-size="14" font-style="italic" lengthAdjust="spacing" textLength="90" x="2429" y="101.292">&#171;repository&#187;</text><text fill="#000000" font-family="sans-serif" font-size="14" lengthAdjust="spacing" textLength="184" x="2382" y="117.5889">RecurringClassRepository</text><path d="M2459,52.2969 C2459,42.2969 2477,42.2969 2477,42.2969 C2477,42.2969 2495,42.2969 2495,52.2969 L2495,78.2969 C2495,88.2969 2477,88.2969 2477,88.2969 C2477,88.2969 2459,88.2969 2459,78.2969 L2459,52.2969 " fill="#E3E3E3" style="stroke:#181818;stroke-width:1.5;"/><path d="M2459,52.2969 C2459,62.2969 2477,62.2969 2477,62.2969 C2477,62.2969 2495,62.2969 2495,52.2969 " fill="none" style="stroke:#181818;stroke-width:1.5;"/><text fill="#000000" font-family="sans-serif" font-size="14" font-style="italic" lengthAdjust="spacing" textLength="90" x="2429" y="998.6045">&#171;repository&#187;</text><text fill="#000000" font-family="sans-serif" font-size="14" lengthAdjust="spacing" textLength="184" x="2382" y="1014.9014">RecurringClassRepository</text><path d="M2459,1028.2031 C2459,1018.2031 2477,1018.2031 2477,1018.2031 C2477,1018.2031 2495,1018.2031 2495,1028.2031 L2495,1054.2031 C2495,1064.2031 2477,1064.2031 2477,1064.2031 C2477,1064.2031 2459,1064.2031 2459,1054.2031 L2459,1028.2031 " fill="#E3E3E3" style="stroke:#181818;stroke-width:1.5;"/><path d="M2459,1028.2031 C2459,1038.2031 2477,1038.2031 2477,1038.2031 C2477,1038.2031 2495,1038.2031 2495,1028.2031 " fill="none" style="stroke:#181818;stroke-width:1.5;"/><rect fill="#FFFFFF" height="837.7188" style="stroke:#181818;stroke-width:1.0;" width="10" x="37" y="130.8906"/><rect fill="#FFFFFF" height="816.5859" style="stroke:#181818;stroke-width:1.0;" width="10" x="556" y="152.0234"/><rect fill="#FFFFFF" height="145.6641" style="stroke:#181818;stroke-width:1.0;" width="10" x="1079" y="268.5547"/><rect fill="#FFFFFF" height="145.6641" style="stroke:#181818;stroke-width:1.0;" width="10" x="1079" y="501.6172"/><rect fill="#FFFFFF" height="146.5313" style="stroke:#181818;stroke-width:1.0;" width="10" x="1079" y="792.9453"/><rect fill="#FFFFFF" height="87.3984" style="stroke:#181818;stroke-width:1.0;" width="10" x="1363" y="297.6875"/><rect fill="#FFFFFF" height="87.3984" style="stroke:#181818;stroke-width:1.0;" width="10" x="1543" y="530.75"/><rect fill="#FFFFFF" height="30" style="stroke:#181818;stroke-width:1.0;" width="10" x="2110.5" y="851.2109"/><rect fill="#FFFFFF" height="29.1328" style="stroke:#181818;stroke-width:1.0;" width="10" x="2300" y="326.8203"/><rect fill="#FFFFFF" height="29.1328" style="stroke:#181818;stroke-width:1.0;" width="10" x="2472" y="559.8828"/><polygon fill="#181818" points="544,148.0234,554,152.0234,544,156.0234,548,152.0234" style="stroke:#181818;stroke-width:1.0;"/><line style="stroke:#181818;stroke-width:1.0;" x1="47" x2="550" y1="152.0234" y2="152.0234"/><text fill="#000000" font-family="sans-serif" font-size="13" font-weight="bold" lengthAdjust="spacing" textLength="9" x="54" y="146.9575">1</text><text fill="#000000" font-family="sans-serif" font-size="13" lengthAdjust="spacing" textLength="298" x="67" y="146.9575">Pede para atualizar a data e hora de uma aula</text><polygon fill="#181818" points="1072,177.1563,1082,181.1563,1072,185.1563,1076,181.1563" style="stroke:#181818;stroke-width:1.0;"/><line style="stroke:#181818;stroke-width:1.0;" x1="566" x2="1078" y1="181.1563" y2="181.1563"/><text fill="#000000" font-family="sans-serif" font-size="13" font-weight="bold" lengthAdjust="spacing" textLength="9" x="573" y="176.0903">2</text><text fill="#000000" font-family="sans-serif" font-size="13" lengthAdjust="spacing" textLength="41" x="586" y="176.0903">create</text><polygon fill="#181818" points="1356,206.2891,1366,210.2891,1356,214.2891,1360,210.2891" style="stroke:#181818;stroke-width:1.0;"/><line style="stroke:#181818;stroke-width:1.0;" x1="1084" x2="1362" y1="210.2891" y2="210.2891"/><text fill="#000000" font-family="sans-serif" font-size="13" font-weight="bold" lengthAdjust="spacing" textLength="8" x="1091" y="205.2231">3</text><text fill="#000000" font-family="sans-serif" font-size="13" lengthAdjust="spacing" textLength="41" x="1103" y="205.2231">create</text><polygon fill="#181818" points="1536,235.4219,1546,239.4219,1536,243.4219,1540,239.4219" style="stroke:#181818;stroke-width:1.0;"/><line style="stroke:#181818;stroke-width:1.0;" x1="1084" x2="1542" y1="239.4219" y2="239.4219"/><text fill="#000000" font-family="sans-serif" font-size="13" font-weight="bold" lengthAdjust="spacing" textLength="9" x="1091" y="234.356">4</text><text fill="#000000" font-family="sans-serif" font-size="13" lengthAdjust="spacing" textLength="41" x="1104" y="234.356">create</text><polygon fill="#181818" points="1067,264.5547,1077,268.5547,1067,272.5547,1071,268.5547" style="stroke:#181818;stroke-width:1.0;"/><line style="stroke:#181818;stroke-width:1.0;" x1="566" x2="1073" y1="268.5547" y2="268.5547"/><text fill="#000000" font-family="sans-serif" font-size="13" font-weight="bold" lengthAdjust="spacing" textLength="9" x="573" y="263.4888">5</text><text fill="#000000" font-family="sans-serif" font-size="13" lengthAdjust="spacing" textLength="212" x="586" y="263.4888">listAllTeacherCoursesNotClosed()</text><polygon fill="#181818" points="1351,293.6875,1361,297.6875,1351,301.6875,1355,297.6875" style="stroke:#181818;stroke-width:1.0;"/><line style="stroke:#181818;stroke-width:1.0;" x1="1089" x2="1357" y1="297.6875" y2="297.6875"/><text fill="#000000" font-family="sans-serif" font-size="13" font-weight="bold" lengthAdjust="spacing" textLength="9" x="1096" y="292.6216">6</text><text fill="#000000" font-family="sans-serif" font-size="13" lengthAdjust="spacing" textLength="242" x="1109" y="292.6216">allTeacherCoursesNotClosed(teacher)</text><polygon fill="#181818" points="2288,322.8203,2298,326.8203,2288,330.8203,2292,326.8203" style="stroke:#181818;stroke-width:1.0;"/><line style="stroke:#181818;stroke-width:1.0;" x1="1373" x2="2294" y1="326.8203" y2="326.8203"/><text fill="#000000" font-family="sans-serif" font-size="13" font-weight="bold" lengthAdjust="spacing" textLength="9" x="1380" y="321.7544">7</text><text fill="#000000" font-family="sans-serif" font-size="13" lengthAdjust="spacing" textLength="303" x="1393" y="321.7544">list = findAllTeacherCoursesNotClosed(teacher)</text><polygon fill="#181818" points="1384,351.9531,1374,355.9531,1384,359.9531,1380,355.9531" style="stroke:#181818;stroke-width:1.0;"/><line style="stroke:#181818;stroke-width:1.0;stroke-dasharray:2.0,2.0;" x1="1378" x2="2304" y1="355.9531" y2="355.9531"/><text fill="#000000" font-family="sans-serif" font-size="13" font-weight="bold" lengthAdjust="spacing" textLength="9" x="1390" y="350.8872">8</text><text fill="#000000" font-family="sans-serif" font-size="13" lengthAdjust="spacing" textLength="4" x="1403" y="350.8872">&#160;</text><polygon fill="#181818" points="1100,381.0859,1090,385.0859,1100,389.0859,1096,385.0859" style="stroke:#181818;stroke-width:1.0;"/><line style="stroke:#181818;stroke-width:1.0;stroke-dasharray:2.0,2.0;" x1="1094" x2="1367" y1="385.0859" y2="385.0859"/><text fill="#000000" font-family="sans-serif" font-size="13" font-weight="bold" lengthAdjust="spacing" textLength="9" x="1106" y="380.02">9</text><text fill="#000000" font-family="sans-serif" font-size="13" lengthAdjust="spacing" textLength="18" x="1119" y="380.02">list</text><polygon fill="#181818" points="577,410.2188,567,414.2188,577,418.2188,573,414.2188" style="stroke:#181818;stroke-width:1.0;"/><line style="stroke:#181818;stroke-width:1.0;stroke-dasharray:2.0,2.0;" x1="571" x2="1083" y1="414.2188" y2="414.2188"/><text fill="#000000" font-family="sans-serif" font-size="13" font-weight="bold" lengthAdjust="spacing" textLength="19" x="583" y="409.1528">10</text><text fill="#000000" font-family="sans-serif" font-size="13" lengthAdjust="spacing" textLength="18" x="606" y="409.1528">list</text><polygon fill="#181818" points="58,439.3516,48,443.3516,58,447.3516,54,443.3516" style="stroke:#181818;stroke-width:1.0;"/><line style="stroke:#181818;stroke-width:1.0;stroke-dasharray:2.0,2.0;" x1="52" x2="555" y1="443.3516" y2="443.3516"/><text fill="#000000" font-family="sans-serif" font-size="13" font-weight="bold" lengthAdjust="spacing" textLength="18" x="64" y="438.2856">11</text><text fill="#000000" font-family="sans-serif" font-size="13" lengthAdjust="spacing" textLength="463" x="86" y="438.2856">Mostra a lista de disciplinas que leciona que n&#227;o se encontram fechadas</text><polygon fill="#181818" points="544,468.4844,554,472.4844,544,476.4844,548,472.4844" style="stroke:#181818;stroke-width:1.0;"/><line style="stroke:#181818;stroke-width:1.0;" x1="47" x2="550" y1="472.4844" y2="472.4844"/><text fill="#000000" font-family="sans-serif" font-size="13" font-weight="bold" lengthAdjust="spacing" textLength="18" x="54" y="467.4185">12</text><text fill="#000000" font-family="sans-serif" font-size="13" lengthAdjust="spacing" textLength="112" x="76" y="467.4185">Seleciona o curso</text><polygon fill="#181818" points="1067,497.6172,1077,501.6172,1067,505.6172,1071,501.6172" style="stroke:#181818;stroke-width:1.0;"/><line style="stroke:#181818;stroke-width:1.0;" x1="566" x2="1073" y1="501.6172" y2="501.6172"/><text fill="#000000" font-family="sans-serif" font-size="13" font-weight="bold" lengthAdjust="spacing" textLength="17" x="573" y="496.5513">13</text><text fill="#000000" font-family="sans-serif" font-size="13" lengthAdjust="spacing" textLength="190" x="594" y="496.5513">listAllTeacherRecurringClass()</text><polygon fill="#181818" points="1531,526.75,1541,530.75,1531,534.75,1535,530.75" style="stroke:#181818;stroke-width:1.0;"/><line style="stroke:#181818;stroke-width:1.0;" x1="1089" x2="1537" y1="530.75" y2="530.75"/><text fill="#000000" font-family="sans-serif" font-size="13" font-weight="bold" lengthAdjust="spacing" textLength="18" x="1096" y="525.6841">14</text><text fill="#000000" font-family="sans-serif" font-size="13" lengthAdjust="spacing" textLength="220" x="1118" y="525.6841">allTeacherRecurringClass(teacher)</text><polygon fill="#181818" points="2460,555.8828,2470,559.8828,2460,563.8828,2464,559.8828" style="stroke:#181818;stroke-width:1.0;"/><line style="stroke:#181818;stroke-width:1.0;" x1="1553" x2="2466" y1="559.8828" y2="559.8828"/><text fill="#000000" font-family="sans-serif" font-size="13" font-weight="bold" lengthAdjust="spacing" textLength="18" x="1560" y="554.8169">15</text><text fill="#000000" font-family="sans-serif" font-size="13" lengthAdjust="spacing" textLength="229" x="1582" y="554.8169">list = findAllRecurringClass(teacher)</text><polygon fill="#181818" points="1564,585.0156,1554,589.0156,1564,593.0156,1560,589.0156" style="stroke:#181818;stroke-width:1.0;"/><line style="stroke:#181818;stroke-width:1.0;stroke-dasharray:2.0,2.0;" x1="1558" x2="2476" y1="589.0156" y2="589.0156"/><text fill="#000000" font-family="sans-serif" font-size="13" font-weight="bold" lengthAdjust="spacing" textLength="18" x="1570" y="583.9497">16</text><text fill="#000000" font-family="sans-serif" font-size="13" lengthAdjust="spacing" textLength="4" x="1592" y="583.9497">&#160;</text><polygon fill="#181818" points="1100,614.1484,1090,618.1484,1100,622.1484,1096,618.1484" style="stroke:#181818;stroke-width:1.0;"/><line style="stroke:#181818;stroke-width:1.0;stroke-dasharray:2.0,2.0;" x1="1094" x2="1547" y1="618.1484" y2="618.1484"/><text fill="#000000" font-family="sans-serif" font-size="13" font-weight="bold" lengthAdjust="spacing" textLength="18" x="1106" y="613.0825">17</text><text fill="#000000" font-family="sans-serif" font-size="13" lengthAdjust="spacing" textLength="18" x="1128" y="613.0825">list</text><polygon fill="#181818" points="577,643.2813,567,647.2813,577,651.2813,573,647.2813" style="stroke:#181818;stroke-width:1.0;"/><line style="stroke:#181818;stroke-width:1.0;stroke-dasharray:2.0,2.0;" x1="571" x2="1083" y1="647.2813" y2="647.2813"/><text fill="#000000" font-family="sans-serif" font-size="13" font-weight="bold" lengthAdjust="spacing" textLength="18" x="583" y="642.2153">18</text><text fill="#000000" font-family="sans-serif" font-size="13" lengthAdjust="spacing" textLength="18" x="605" y="642.2153">list</text><polygon fill="#181818" points="58,672.4141,48,676.4141,58,680.4141,54,676.4141" style="stroke:#181818;stroke-width:1.0;"/><line style="stroke:#181818;stroke-width:1.0;stroke-dasharray:2.0,2.0;" x1="52" x2="555" y1="676.4141" y2="676.4141"/><text fill="#000000" font-family="sans-serif" font-size="13" font-weight="bold" lengthAdjust="spacing" textLength="18" x="64" y="671.3481">19</text><text fill="#000000" font-family="sans-serif" font-size="13" lengthAdjust="spacing" textLength="200" x="86" y="671.3481">Mostra a lista aulas que leciona</text><polygon fill="#181818" points="544,701.5469,554,705.5469,544,709.5469,548,705.5469" style="stroke:#181818;stroke-width:1.0;"/><line style="stroke:#181818;stroke-width:1.0;" x1="47" x2="550" y1="705.5469" y2="705.5469"/><text fill="#000000" font-family="sans-serif" font-size="13" font-weight="bold" lengthAdjust="spacing" textLength="19" x="54" y="700.481">20</text><text fill="#000000" font-family="sans-serif" font-size="13" lengthAdjust="spacing" textLength="194" x="77" y="700.481">Seleciona a aula que pretende</text><polygon fill="#181818" points="58,730.6797,48,734.6797,58,738.6797,54,734.6797" style="stroke:#181818;stroke-width:1.0;"/><line style="stroke:#181818;stroke-width:1.0;stroke-dasharray:2.0,2.0;" x1="52" x2="555" y1="734.6797" y2="734.6797"/><text fill="#000000" font-family="sans-serif" font-size="13" font-weight="bold" lengthAdjust="spacing" textLength="18" x="64" y="729.6138">21</text><text fill="#000000" font-family="sans-serif" font-size="13" lengthAdjust="spacing" textLength="279" x="86" y="729.6138">Pede o dia e a hora da nova aula agendada</text><polygon fill="#181818" points="544,759.8125,554,763.8125,544,767.8125,548,763.8125" style="stroke:#181818;stroke-width:1.0;"/><line style="stroke:#181818;stroke-width:1.0;" x1="47" x2="550" y1="763.8125" y2="763.8125"/><text fill="#000000" font-family="sans-serif" font-size="13" font-weight="bold" lengthAdjust="spacing" textLength="18" x="54" y="758.7466">22</text><text fill="#000000" font-family="sans-serif" font-size="13" lengthAdjust="spacing" textLength="192" x="76" y="758.7466">Escreve a data e hora da aula</text><polygon fill="#181818" points="1067,788.9453,1077,792.9453,1067,796.9453,1071,792.9453" style="stroke:#181818;stroke-width:1.0;"/><line style="stroke:#181818;stroke-width:1.0;" x1="566" x2="1073" y1="792.9453" y2="792.9453"/><text fill="#000000" font-family="sans-serif" font-size="13" font-weight="bold" lengthAdjust="spacing" textLength="17" x="573" y="787.8794">23</text><text fill="#000000" font-family="sans-serif" font-size="13" lengthAdjust="spacing" textLength="473" x="594" y="787.8794">addClassInstanceToRecurringClass(course, recurringClass, newDateTime)</text><polygon fill="#181818" points="1702.5,818.0781,1712.5,822.0781,1702.5,826.0781,1706.5,822.0781" style="stroke:#181818;stroke-width:1.0;"/><line style="stroke:#181818;stroke-width:1.0;" x1="1089" x2="1708.5" y1="822.0781" y2="822.0781"/><text fill="#000000" font-family="sans-serif" font-size="13" font-weight="bold" lengthAdjust="spacing" textLength="18" x="1096" y="817.0122">24</text><text fill="#000000" font-family="sans-serif" font-size="13" lengthAdjust="spacing" textLength="350" x="1118" y="817.0122">checkCourseAvailability(newDateTime, recurringClass)</text><polygon fill="#181818" points="2098.5,847.2109,2108.5,851.2109,2098.5,855.2109,2102.5,851.2109" style="stroke:#181818;stroke-width:1.0;"/><line style="stroke:#181818;stroke-width:1.0;" x1="1089" x2="2104.5" y1="851.2109" y2="851.2109"/><text fill="#000000" font-family="sans-serif" font-size="13" font-weight="bold" lengthAdjust="spacing" textLength="18" x="1096" y="846.145">25</text><text fill="#000000" font-family="sans-serif" font-size="13" lengthAdjust="spacing" textLength="208" x="1118" y="846.145">addClassInstance(classInstance)</text><polygon fill="#181818" points="2293,906.3438,2303,910.3438,2293,914.3438,2297,910.3438" style="stroke:#181818;stroke-width:1.0;"/><line style="stroke:#181818;stroke-width:1.0;" x1="1089" x2="2299" y1="910.3438" y2="910.3438"/><text fill="#000000" font-family="sans-serif" font-size="13" font-weight="bold" lengthAdjust="spacing" textLength="18" x="1096" y="905.2778">26</text><text fill="#000000" font-family="sans-serif" font-size="13" lengthAdjust="spacing" textLength="84" x="1118" y="905.2778">save(course)</text><polygon fill="#181818" points="577,935.4766,567,939.4766,577,943.4766,573,939.4766" style="stroke:#181818;stroke-width:1.0;"/><line style="stroke:#181818;stroke-width:1.0;stroke-dasharray:2.0,2.0;" x1="571" x2="1083" y1="939.4766" y2="939.4766"/><text fill="#000000" font-family="sans-serif" font-size="13" font-weight="bold" lengthAdjust="spacing" textLength="18" x="583" y="934.4106">27</text><text fill="#000000" font-family="sans-serif" font-size="13" lengthAdjust="spacing" textLength="43" x="605" y="934.4106">course</text><polygon fill="#181818" points="53,964.6094,43,968.6094,53,972.6094,49,968.6094" style="stroke:#181818;stroke-width:1.0;"/><line style="stroke:#181818;stroke-width:1.0;stroke-dasharray:2.0,2.0;" x1="47" x2="560" y1="968.6094" y2="968.6094"/><text fill="#000000" font-family="sans-serif" font-size="13" font-weight="bold" lengthAdjust="spacing" textLength="18" x="59" y="963.5435">28</text><text fill="#000000" font-family="sans-serif" font-size="13" lengthAdjust="spacing" textLength="202" x="81" y="963.5435">Informa o sucesso da opera&#231;&#227;o</text><!--SRC=[lPR1Zjem48RlUOhHda3gIjqU4Lrf1JqWjTLgMHvWrXd0MiTEROVLzdLww8FiYtNiG70W0RgLoW75pip_P-BFuxXdgKkqM41Xj15hQme2RolAN7EdHF6CAvhxLqLWINZKAvK6k3NcvaNg5InHESeoBps7pkb7HLeGJ2MkGjnWFXt2DIpcSFFnvbE6bJUwAfx8PXaARopSMxCav_WA7To5gOmTl1IoHErXKUReQQBGkRbOKrufMin2AF-FnwKbHzgZbqRVtcR2Q6-DwagQrBSKHPzaD1vZMIefTXgf-LVf_CHKrj6Sx4PoMJ4tdJYN_a2YifRVK_qqUvbB1Av4z1hLbbTxzwafK6hEpUF5KLhmccd7goOuEntL8kdC6ItRAc3KhYUgjQUEvNWjy0aTRP_zWKhZ9A_pwxwUP6uyjiqWJMwxj4NwqmDaSiCmRD42_iKhkBuD28tWddA2m3IWhr39dyY4GB05WhNXURvV5NoxKXZp6yd5B8x3ZwLOCC5g1C8I1pKHoRqOcK9q9hWthCDLCNDtIZqIClYsjd7VZPyeuoWV39lSfefzUdRXmsA_lg_dEsqIaTGfrMxCaXMjQuBFi9Gwltk_zLxoq3qnkpukjmdEgL-nfvokrUdNsxsShbNOuTglSBoA0G_EgtaVmJVZVC0yQaIiS-bucokfUGzntmP5WfiGnclzzii0xplkva6QM_cI13TzT7k3zawQqoxV0EzLPxBBGMtlxlTXsWNeWMu_8qTW9aYUWF5Y_Ixw3hWxILm7QtzDsV_bA_JB5bRdkQcJOWwVx9vqJhrkiMyRHZZqQTnsQWHjDbiL_dpHEVFQP_l5SJVTq66ptpRwa-nYdhUEq4Tpm45zRd-0zk7v0JIzJFbjFig2_g4JRuzOFWxM99xhkRiDIeLFKad_EaXi3fzXs2VTUOeVbpfeVLjqWdwiqmrqHzp9iblRqE66jgzvU1BeEYPx9zCplJIs21tDLI9yfWP0J4aMttvpWyooH8u_1rhZgF47]--></g></svg>