<?xml version="1.0" encoding="us-ascii" standalone="no"?><svg xmlns="http://www.w3.org/2000/svg" xmlns:xlink="http://www.w3.org/1999/xlink" contentStyleType="text/css" height="467px" preserveAspectRatio="none" style="width:426px;height:467px;background:#FFFFFF;" version="1.1" viewBox="0 0 426 467" width="426px" zoomAndPan="magnify"><defs/><g><text fill="#000000" font-family="sans-serif" font-size="14" font-weight="bold" lengthAdjust="spacing" textLength="345" x="39.75" y="27.9951">System Sequence Diagram (SSD) - US 1012</text><rect fill="#FFFFFF" height="240.1953" style="stroke:#181818;stroke-width:1.0;" width="10" x="37" y="128.5938"/><rect fill="#FFFFFF" height="44.2656" style="stroke:#181818;stroke-width:1.0;" width="10" x="377" y="149.7266"/><rect fill="#FFFFFF" height="29.1328" style="stroke:#181818;stroke-width:1.0;" width="10" x="377" y="223.125"/><rect fill="#FFFFFF" height="29.1328" style="stroke:#181818;stroke-width:1.0;" width="10" x="377" y="281.3906"/><rect fill="#FFFFFF" height="29.1328" style="stroke:#181818;stroke-width:1.0;" width="10" x="377" y="339.6563"/><line style="stroke:#181818;stroke-width:0.5;stroke-dasharray:5.0,5.0;" x1="42" x2="42" y1="118.5938" y2="386.7891"/><line style="stroke:#181818;stroke-width:0.5;stroke-dasharray:5.0,5.0;" x1="381.5" x2="381.5" y1="118.5938" y2="386.7891"/><text fill="#000000" font-family="sans-serif" font-size="14" lengthAdjust="spacing" textLength="68" x="5" y="115.292">Professor</text><ellipse cx="42" cy="50.7969" fill="#E3E3E3" rx="8" ry="8" style="stroke:#181818;stroke-width:0.5;"/><path d="M42,58.7969 L42,85.7969 M29,66.7969 L55,66.7969 M42,85.7969 L29,100.7969 M42,85.7969 L55,100.7969 " fill="none" style="stroke:#181818;stroke-width:0.5;"/><text fill="#000000" font-family="sans-serif" font-size="14" lengthAdjust="spacing" textLength="68" x="5" y="398.7842">Professor</text><ellipse cx="42" cy="410.5859" fill="#E3E3E3" rx="8" ry="8" style="stroke:#181818;stroke-width:0.5;"/><path d="M42,418.5859 L42,445.5859 M29,426.5859 L55,426.5859 M42,445.5859 L29,460.5859 M42,445.5859 L55,460.5859 " fill="none" style="stroke:#181818;stroke-width:0.5;"/><rect fill="#E3E3E3" height="30.2969" rx="2.5" ry="2.5" style="stroke:#181818;stroke-width:0.5;" width="77" x="343.5" y="87.2969"/><text fill="#000000" font-family="sans-serif" font-size="14" lengthAdjust="spacing" textLength="63" x="350.5" y="107.292">:Sistema</text><rect fill="#E3E3E3" height="30.2969" rx="2.5" ry="2.5" style="stroke:#181818;stroke-width:0.5;" width="77" x="343.5" y="385.7891"/><text fill="#000000" font-family="sans-serif" font-size="14" lengthAdjust="spacing" textLength="63" x="350.5" y="405.7842">:Sistema</text><rect fill="#FFFFFF" height="240.1953" style="stroke:#181818;stroke-width:1.0;" width="10" x="37" y="128.5938"/><rect fill="#FFFFFF" height="44.2656" style="stroke:#181818;stroke-width:1.0;" width="10" x="377" y="149.7266"/><rect fill="#FFFFFF" height="29.1328" style="stroke:#181818;stroke-width:1.0;" width="10" x="377" y="223.125"/><rect fill="#FFFFFF" height="29.1328" style="stroke:#181818;stroke-width:1.0;" width="10" x="377" y="281.3906"/><rect fill="#FFFFFF" height="29.1328" style="stroke:#181818;stroke-width:1.0;" width="10" x="377" y="339.6563"/><polygon fill="#181818" points="365,145.7266,375,149.7266,365,153.7266,369,149.7266" style="stroke:#181818;stroke-width:1.0;"/><line style="stroke:#181818;stroke-width:1.0;" x1="47" x2="371" y1="149.7266" y2="149.7266"/><text fill="#000000" font-family="sans-serif" font-size="13" font-weight="bold" lengthAdjust="spacing" textLength="9" x="54" y="144.6606">1</text><text fill="#000000" font-family="sans-serif" font-size="13" lengthAdjust="spacing" textLength="298" x="67" y="144.6606">Pede para atualizar a data e hora de uma aula</text><polygon fill="#181818" points="58,189.9922,48,193.9922,58,197.9922,54,193.9922" style="stroke:#181818;stroke-width:1.0;"/><line style="stroke:#181818;stroke-width:1.0;stroke-dasharray:2.0,2.0;" x1="52" x2="381" y1="193.9922" y2="193.9922"/><text fill="#000000" font-family="sans-serif" font-size="13" font-weight="bold" lengthAdjust="spacing" textLength="9" x="64" y="181.3599">2</text><text fill="#000000" font-family="sans-serif" font-size="13" lengthAdjust="spacing" textLength="202" x="77" y="173.7935">Mostra a lista de disciplinas que</text><text fill="#000000" font-family="sans-serif" font-size="13" lengthAdjust="spacing" textLength="257" x="81" y="188.9263">leciona que n&#227;o se encontram fechadas</text><polygon fill="#181818" points="365,219.125,375,223.125,365,227.125,369,223.125" style="stroke:#181818;stroke-width:1.0;"/><line style="stroke:#181818;stroke-width:1.0;" x1="47" x2="371" y1="223.125" y2="223.125"/><text fill="#000000" font-family="sans-serif" font-size="13" font-weight="bold" lengthAdjust="spacing" textLength="8" x="54" y="218.0591">3</text><text fill="#000000" font-family="sans-serif" font-size="13" lengthAdjust="spacing" textLength="112" x="66" y="218.0591">Seleciona o curso</text><polygon fill="#181818" points="58,248.2578,48,252.2578,58,256.2578,54,252.2578" style="stroke:#181818;stroke-width:1.0;"/><line style="stroke:#181818;stroke-width:1.0;stroke-dasharray:2.0,2.0;" x1="52" x2="381" y1="252.2578" y2="252.2578"/><text fill="#000000" font-family="sans-serif" font-size="13" font-weight="bold" lengthAdjust="spacing" textLength="9" x="64" y="247.1919">4</text><text fill="#000000" font-family="sans-serif" font-size="13" lengthAdjust="spacing" textLength="227" x="77" y="247.1919">Mostra a lista das aulas que leciona</text><polygon fill="#181818" points="365,277.3906,375,281.3906,365,285.3906,369,281.3906" style="stroke:#181818;stroke-width:1.0;"/><line style="stroke:#181818;stroke-width:1.0;" x1="47" x2="371" y1="281.3906" y2="281.3906"/><text fill="#000000" font-family="sans-serif" font-size="13" font-weight="bold" lengthAdjust="spacing" textLength="9" x="54" y="276.3247">5</text><text fill="#000000" font-family="sans-serif" font-size="13" lengthAdjust="spacing" textLength="194" x="67" y="276.3247">Seleciona a aula que pretende</text><polygon fill="#181818" points="58,306.5234,48,310.5234,58,314.5234,54,310.5234" style="stroke:#181818;stroke-width:1.0;"/><line style="stroke:#181818;stroke-width:1.0;stroke-dasharray:2.0,2.0;" x1="52" x2="381" y1="310.5234" y2="310.5234"/><text fill="#000000" font-family="sans-serif" font-size="13" font-weight="bold" lengthAdjust="spacing" textLength="9" x="64" y="305.4575">6</text><text fill="#000000" font-family="sans-serif" font-size="13" lengthAdjust="spacing" textLength="279" x="77" y="305.4575">Pede o dia e a hora da nova aula agendada</text><polygon fill="#181818" points="365,335.6563,375,339.6563,365,343.6563,369,339.6563" style="stroke:#181818;stroke-width:1.0;"/><line style="stroke:#181818;stroke-width:1.0;" x1="47" x2="371" y1="339.6563" y2="339.6563"/><text fill="#000000" font-family="sans-serif" font-size="13" font-weight="bold" lengthAdjust="spacing" textLength="9" x="54" y="334.5903">7</text><text fill="#000000" font-family="sans-serif" font-size="13" lengthAdjust="spacing" textLength="228" x="67" y="334.5903">Escreve a nova data e hora da aula</text><polygon fill="#181818" points="53,364.7891,43,368.7891,53,372.7891,49,368.7891" style="stroke:#181818;stroke-width:1.0;"/><line style="stroke:#181818;stroke-width:1.0;stroke-dasharray:2.0,2.0;" x1="47" x2="381" y1="368.7891" y2="368.7891"/><text fill="#000000" font-family="sans-serif" font-size="13" font-weight="bold" lengthAdjust="spacing" textLength="9" x="59" y="363.7231">8</text><text fill="#000000" font-family="sans-serif" font-size="13" lengthAdjust="spacing" textLength="202" x="72" y="363.7231">Informa o sucesso da opera&#231;&#227;o</text><!--SRC=[dP8xJWCn48PxdsAK2ef8X3854b8eA90YMNGqWtUoiUBrB7u4XUjGS91SZB5t0m6b25IhdSSt__pZkB6-nu0TTEpPh0Dt12baKl4hqwFPO4iwxHn189FGj-wu8AwnuLVhMrYXYwHKiabAzIucwa3JIoPl21OMsr9-eVNY4gRmg65sDRjMc1Fxt3rJK0fDuW2JPU0LnSXX0XZXjWILp4hMs1vzWibSsmB7cXy6rMQxnKHZWweVcDuSbCnXIGr14GsOCZhxXW4G6am816kMkEHp9-diy9it3XWnKo4Ew3ayS4o51axqrEx6HX7fh1TXiZWyUN1aB7kiltx_pX09n17sgTYn8YF-OLGD_HvuOWDD1ng3oI7oVrIAjBBW873a_NNyu54bz84I-OREaL8lmE9ISHn7pn4yRqUWl3JVY1_dwRcB9j2sa2hXnoNFl-AzNt7eYgKnc_BkIZFt573_8VSw9UKeL2cV]--></g></svg>