<?xml version="1.0" encoding="us-ascii" standalone="no"?><svg xmlns="http://www.w3.org/2000/svg" xmlns:xlink="http://www.w3.org/1999/xlink" contentStyleType="text/css" height="605px" preserveAspectRatio="none" style="width:927px;height:605px;background:#FFFFFF;" version="1.1" viewBox="0 0 927 605" width="927px" zoomAndPan="magnify"><defs/><g><!--class AcceptRejectMeetingRequestUI--><g id="elem_AcceptRejectMeetingRequestUI"><rect codeLine="3" fill="#F1F1F1" height="79.2031" id="AcceptRejectMeetingRequestUI" rx="2.5" ry="2.5" style="stroke:#181818;stroke-width:0.5;" width="230" x="424" y="7"/><ellipse cx="439" cy="29.291" fill="#ADD1B2" rx="11" ry="11" style="stroke:#181818;stroke-width:1.0;"/><path d="M441.7656,25.166 Q441.9219,24.9473 442.1094,24.8379 Q442.2969,24.7285 442.5156,24.7285 Q442.8906,24.7285 443.125,24.9941 Q443.3594,25.2441 443.3594,25.8535 L443.3594,27.3066 Q443.3594,27.916 443.125,28.1816 Q442.8906,28.4473 442.5156,28.4473 Q442.1719,28.4473 441.9688,28.2441 Q441.7656,28.0566 441.6563,27.541 Q441.6094,27.1816 441.4219,26.9941 Q441.0938,26.6191 440.4844,26.4004 Q439.875,26.1816 439.25,26.1816 Q438.4844,26.1816 437.8438,26.5098 Q437.2188,26.8379 436.7188,27.5879 Q436.2344,28.3379 436.2344,29.3691 L436.2344,30.4629 Q436.2344,31.6973 437.125,32.5254 Q438.0156,33.3379 439.6094,33.3379 Q440.5469,33.3379 441.2031,33.0879 Q441.5938,32.9316 442.0156,32.4941 Q442.2813,32.2285 442.4219,32.1504 Q442.5781,32.0723 442.7813,32.0723 Q443.1094,32.0723 443.3594,32.3379 Q443.625,32.5879 443.625,32.9316 Q443.625,33.2754 443.2813,33.6816 Q442.7813,34.2598 441.9844,34.5879 Q440.9063,35.041 439.6094,35.041 Q438.0938,35.041 436.8906,34.416 Q435.9063,33.916 435.2188,32.8535 Q434.5313,31.7754 434.5313,30.4941 L434.5313,29.3379 Q434.5313,28.0098 435.1406,26.8691 Q435.7656,25.7129 436.8594,25.1035 Q437.9531,24.4785 439.1875,24.4785 Q439.9219,24.4785 440.5625,24.6504 Q441.2188,24.8066 441.7656,25.166 Z " fill="#000000"/><text fill="#000000" font-family="sans-serif" font-size="12" font-style="italic" lengthAdjust="spacing" textLength="82" x="511" y="24.9492">&#171;presentation&#187;</text><text fill="#000000" font-family="sans-serif" font-size="14" lengthAdjust="spacing" textLength="198" x="453" y="43.0684">AcceptRejectMeetingRequestUI</text><line style="stroke:#181818;stroke-width:0.5;" x1="425" x2="653" y1="51.582" y2="51.582"/><line style="stroke:#181818;stroke-width:0.5;" x1="425" x2="653" y1="59.582" y2="59.582"/><text fill="#000000" font-family="sans-serif" font-size="14" lengthAdjust="spacing" textLength="60" x="430" y="78.6895">doShow()</text></g><!--class AcceptRejectMeetingRequestController--><g id="elem_AcceptRejectMeetingRequestController"><rect codeLine="7" fill="#F1F1F1" height="97.8242" id="AcceptRejectMeetingRequestController" rx="2.5" ry="2.5" style="stroke:#181818;stroke-width:0.5;" width="674" x="7" y="165"/><ellipse cx="215.75" cy="187.291" fill="#ADD1B2" rx="11" ry="11" style="stroke:#181818;stroke-width:1.0;"/><path d="M218.5156,183.166 Q218.6719,182.9473 218.8594,182.8379 Q219.0469,182.7285 219.2656,182.7285 Q219.6406,182.7285 219.875,182.9941 Q220.1094,183.2441 220.1094,183.8535 L220.1094,185.3066 Q220.1094,185.916 219.875,186.1816 Q219.6406,186.4473 219.2656,186.4473 Q218.9219,186.4473 218.7188,186.2441 Q218.5156,186.0566 218.4063,185.541 Q218.3594,185.1816 218.1719,184.9941 Q217.8438,184.6191 217.2344,184.4004 Q216.625,184.1816 216,184.1816 Q215.2344,184.1816 214.5938,184.5098 Q213.9688,184.8379 213.4688,185.5879 Q212.9844,186.3379 212.9844,187.3691 L212.9844,188.4629 Q212.9844,189.6973 213.875,190.5254 Q214.7656,191.3379 216.3594,191.3379 Q217.2969,191.3379 217.9531,191.0879 Q218.3438,190.9316 218.7656,190.4941 Q219.0313,190.2285 219.1719,190.1504 Q219.3281,190.0723 219.5313,190.0723 Q219.8594,190.0723 220.1094,190.3379 Q220.375,190.5879 220.375,190.9316 Q220.375,191.2754 220.0313,191.6816 Q219.5313,192.2598 218.7344,192.5879 Q217.6563,193.041 216.3594,193.041 Q214.8438,193.041 213.6406,192.416 Q212.6563,191.916 211.9688,190.8535 Q211.2813,189.7754 211.2813,188.4941 L211.2813,187.3379 Q211.2813,186.0098 211.8906,184.8691 Q212.5156,183.7129 213.6094,183.1035 Q214.7031,182.4785 215.9375,182.4785 Q216.6719,182.4785 217.3125,182.6504 Q217.9688,182.8066 218.5156,183.166 Z " fill="#000000"/><text fill="#000000" font-family="sans-serif" font-size="12" font-style="italic" lengthAdjust="spacing" textLength="75" x="322.75" y="182.9492">&#171;Application&#187;</text><text fill="#000000" font-family="sans-serif" font-size="14" lengthAdjust="spacing" textLength="248" x="236.25" y="201.0684">AcceptRejectMeetingRequestController</text><line style="stroke:#181818;stroke-width:0.5;" x1="8" x2="680" y1="209.582" y2="209.582"/><line style="stroke:#181818;stroke-width:0.5;" x1="8" x2="680" y1="217.582" y2="217.582"/><ellipse cx="18" cy="232.3926" fill="#84BE84" rx="3" ry="3" style="stroke:#038048;stroke-width:1.0;"/><text fill="#000000" font-family="sans-serif" font-size="14" lengthAdjust="spacing" textLength="328" x="27" y="236.6895">Iterable&lt;Object[]&gt; listUserPendentMeetingRequest()</text><ellipse cx="18" cy="251.0137" fill="#84BE84" rx="3" ry="3" style="stroke:#038048;stroke-width:1.0;"/><text fill="#000000" font-family="sans-serif" font-size="14" lengthAdjust="spacing" textLength="648" x="27" y="255.3105">ParticipationMeeting acceptMeeting(theParticipationMeeting : ParticipationMeeting, yesOrNo : boolean)</text></g><!--class ParticipationMeeting--><g id="elem_ParticipationMeeting"><rect codeLine="12" fill="#F1F1F1" height="97.8242" id="ParticipationMeeting" rx="2.5" ry="2.5" style="stroke:#181818;stroke-width:0.5;" width="373" x="547.5" y="342"/><ellipse cx="665.75" cy="364.291" fill="#ADD1B2" rx="11" ry="11" style="stroke:#181818;stroke-width:1.0;"/><path d="M668.5156,360.166 Q668.6719,359.9473 668.8594,359.8379 Q669.0469,359.7285 669.2656,359.7285 Q669.6406,359.7285 669.875,359.9941 Q670.1094,360.2441 670.1094,360.8535 L670.1094,362.3066 Q670.1094,362.916 669.875,363.1816 Q669.6406,363.4473 669.2656,363.4473 Q668.9219,363.4473 668.7188,363.2441 Q668.5156,363.0566 668.4063,362.541 Q668.3594,362.1816 668.1719,361.9941 Q667.8438,361.6191 667.2344,361.4004 Q666.625,361.1816 666,361.1816 Q665.2344,361.1816 664.5938,361.5098 Q663.9688,361.8379 663.4688,362.5879 Q662.9844,363.3379 662.9844,364.3691 L662.9844,365.4629 Q662.9844,366.6973 663.875,367.5254 Q664.7656,368.3379 666.3594,368.3379 Q667.2969,368.3379 667.9531,368.0879 Q668.3438,367.9316 668.7656,367.4941 Q669.0313,367.2285 669.1719,367.1504 Q669.3281,367.0723 669.5313,367.0723 Q669.8594,367.0723 670.1094,367.3379 Q670.375,367.5879 670.375,367.9316 Q670.375,368.2754 670.0313,368.6816 Q669.5313,369.2598 668.7344,369.5879 Q667.6563,370.041 666.3594,370.041 Q664.8438,370.041 663.6406,369.416 Q662.6563,368.916 661.9688,367.8535 Q661.2813,366.7754 661.2813,365.4941 L661.2813,364.3379 Q661.2813,363.0098 661.8906,361.8691 Q662.5156,360.7129 663.6094,360.1035 Q664.7031,359.4785 665.9375,359.4785 Q666.6719,359.4785 667.3125,359.6504 Q667.9688,359.8066 668.5156,360.166 Z " fill="#000000"/><text fill="#000000" font-family="sans-serif" font-size="12" font-style="italic" lengthAdjust="spacing" textLength="58" x="721.25" y="359.9492">&#171;Domain&#187;</text><text fill="#000000" font-family="sans-serif" font-size="14" lengthAdjust="spacing" textLength="128" x="686.25" y="378.0684">ParticipationMeeting</text><line style="stroke:#181818;stroke-width:0.5;" x1="548.5" x2="919.5" y1="386.582" y2="386.582"/><rect fill="none" height="6" style="stroke:#C82930;stroke-width:1.0;" width="6" x="555.5" y="398.3926"/><text fill="#000000" font-family="sans-serif" font-size="14" lengthAdjust="spacing" textLength="347" x="567.5" y="405.6895">participationMeetingStatus : ParticipationMeetingStatus</text><line style="stroke:#181818;stroke-width:0.5;" x1="548.5" x2="919.5" y1="413.2031" y2="413.2031"/><ellipse cx="558.5" cy="428.0137" fill="#84BE84" rx="3" ry="3" style="stroke:#038048;stroke-width:1.0;"/><text fill="#000000" font-family="sans-serif" font-size="14" lengthAdjust="spacing" textLength="220" x="567.5" y="432.3105">acceptMeeting(yesOrNo : boolean)</text></g><!--class ParticipationMeetingStatus--><g id="elem_ParticipationMeetingStatus"><rect codeLine="17" fill="#F1F1F1" height="76.543" id="ParticipationMeetingStatus" rx="2.5" ry="2.5" style="stroke:#181818;stroke-width:0.5;" width="200" x="539" y="520"/><ellipse cx="554" cy="550.2715" fill="#EB937F" rx="11" ry="11" style="stroke:#181818;stroke-width:1.0;"/><path d="M552.8594,551.0684 L552.8594,553.5684 L557.1875,553.5684 L557.1875,552.6465 Q557.1875,552.0371 557.4219,551.7715 Q557.6719,551.5059 558.0469,551.5059 Q558.4219,551.5059 558.6563,551.7715 Q558.8906,552.0371 558.8906,552.6465 L558.8906,555.2715 L550.8906,555.2715 Q550.2656,555.2715 550,555.0371 Q549.75,554.8027 549.75,554.4121 Q549.75,554.0371 550.0156,553.8027 Q550.2813,553.5684 550.8906,553.5684 L551.1563,553.5684 L551.1563,546.9121 L550.8906,546.9121 Q550.2656,546.9121 550,546.6777 Q549.75,546.4434 549.75,546.0527 Q549.75,545.6777 550,545.4434 Q550.2656,545.209 550.8906,545.209 L558.5156,545.209 L558.5156,547.8027 Q558.5156,548.4121 558.2813,548.6777 Q558.0625,548.9277 557.6719,548.9277 Q557.2969,548.9277 557.0625,548.6777 Q556.8281,548.4121 556.8281,547.8027 L556.8281,546.9121 L552.8594,546.9121 L552.8594,549.3652 L554.3438,549.3652 Q554.3438,548.709 554.4688,548.5215 Q554.7344,548.1152 555.2031,548.1152 Q555.5781,548.1152 555.8125,548.3809 Q556.0469,548.6309 556.0469,549.2402 L556.0469,551.209 Q556.0469,551.7559 555.9219,551.9434 Q555.6563,552.334 555.2031,552.334 Q554.7344,552.334 554.4688,551.9277 Q554.3438,551.7402 554.3438,551.0684 L552.8594,551.0684 Z " fill="#000000"/><text fill="#000000" font-family="sans-serif" font-size="12" font-style="italic" lengthAdjust="spacing" textLength="58" x="623" y="537.9492">&#171;Domain&#187;</text><text fill="#000000" font-family="sans-serif" font-size="12" font-style="italic" lengthAdjust="spacing" textLength="85" x="609.5" y="553.9102">&#171;Value Object&#187;</text><text fill="#000000" font-family="sans-serif" font-size="14" lengthAdjust="spacing" textLength="168" x="568" y="572.0293">ParticipationMeetingStatus</text><line style="stroke:#181818;stroke-width:0.5;" x1="540" x2="738" y1="580.543" y2="580.543"/><line style="stroke:#181818;stroke-width:0.5;" x1="540" x2="738" y1="588.543" y2="588.543"/></g><!--class SystemUser--><g id="elem_SystemUser"><rect codeLine="20" fill="#F1F1F1" height="79.2031" id="SystemUser" rx="2.5" ry="2.5" style="stroke:#181818;stroke-width:0.5;" width="107" x="774.5" y="519"/><ellipse cx="789.5" cy="541.291" fill="#ADD1B2" rx="11" ry="11" style="stroke:#181818;stroke-width:1.0;"/><path d="M792.2656,537.166 Q792.4219,536.9473 792.6094,536.8379 Q792.7969,536.7285 793.0156,536.7285 Q793.3906,536.7285 793.625,536.9941 Q793.8594,537.2441 793.8594,537.8535 L793.8594,539.3066 Q793.8594,539.916 793.625,540.1816 Q793.3906,540.4473 793.0156,540.4473 Q792.6719,540.4473 792.4688,540.2441 Q792.2656,540.0566 792.1563,539.541 Q792.1094,539.1816 791.9219,538.9941 Q791.5938,538.6191 790.9844,538.4004 Q790.375,538.1816 789.75,538.1816 Q788.9844,538.1816 788.3438,538.5098 Q787.7188,538.8379 787.2188,539.5879 Q786.7344,540.3379 786.7344,541.3691 L786.7344,542.4629 Q786.7344,543.6973 787.625,544.5254 Q788.5156,545.3379 790.1094,545.3379 Q791.0469,545.3379 791.7031,545.0879 Q792.0938,544.9316 792.5156,544.4941 Q792.7813,544.2285 792.9219,544.1504 Q793.0781,544.0723 793.2813,544.0723 Q793.6094,544.0723 793.8594,544.3379 Q794.125,544.5879 794.125,544.9316 Q794.125,545.2754 793.7813,545.6816 Q793.2813,546.2598 792.4844,546.5879 Q791.4063,547.041 790.1094,547.041 Q788.5938,547.041 787.3906,546.416 Q786.4063,545.916 785.7188,544.8535 Q785.0313,543.7754 785.0313,542.4941 L785.0313,541.3379 Q785.0313,540.0098 785.6406,538.8691 Q786.2656,537.7129 787.3594,537.1035 Q788.4531,536.4785 789.6875,536.4785 Q790.4219,536.4785 791.0625,536.6504 Q791.7188,536.8066 792.2656,537.166 Z " fill="#000000"/><text fill="#000000" font-family="sans-serif" font-size="12" font-style="italic" lengthAdjust="spacing" textLength="58" x="812" y="536.9492">&#171;Domain&#187;</text><text fill="#000000" font-family="sans-serif" font-size="14" lengthAdjust="spacing" textLength="75" x="803.5" y="555.0684">SystemUser</text><line style="stroke:#181818;stroke-width:0.5;" x1="775.5" x2="880.5" y1="563.582" y2="563.582"/><rect fill="none" height="6" style="stroke:#C82930;stroke-width:1.0;" width="6" x="782.5" y="575.3926"/><text fill="#000000" font-family="sans-serif" font-size="14" lengthAdjust="spacing" textLength="63" x="794.5" y="582.6895">username</text><line style="stroke:#181818;stroke-width:0.5;" x1="775.5" x2="880.5" y1="590.2031" y2="590.2031"/></g><!--class ParticipationMeetingRepository--><g id="elem_ParticipationMeetingRepository"><rect codeLine="24" fill="#F1F1F1" height="79.2031" id="ParticipationMeetingRepository" rx="2.5" ry="2.5" style="stroke:#181818;stroke-width:0.5;" width="486" x="26" y="351.5"/><ellipse cx="166.75" cy="373.791" fill="#ADD1B2" rx="11" ry="11" style="stroke:#181818;stroke-width:1.0;"/><path d="M169.5156,369.666 Q169.6719,369.4473 169.8594,369.3379 Q170.0469,369.2285 170.2656,369.2285 Q170.6406,369.2285 170.875,369.4941 Q171.1094,369.7441 171.1094,370.3535 L171.1094,371.8066 Q171.1094,372.416 170.875,372.6816 Q170.6406,372.9473 170.2656,372.9473 Q169.9219,372.9473 169.7188,372.7441 Q169.5156,372.5566 169.4063,372.041 Q169.3594,371.6816 169.1719,371.4941 Q168.8438,371.1191 168.2344,370.9004 Q167.625,370.6816 167,370.6816 Q166.2344,370.6816 165.5938,371.0098 Q164.9688,371.3379 164.4688,372.0879 Q163.9844,372.8379 163.9844,373.8691 L163.9844,374.9629 Q163.9844,376.1973 164.875,377.0254 Q165.7656,377.8379 167.3594,377.8379 Q168.2969,377.8379 168.9531,377.5879 Q169.3438,377.4316 169.7656,376.9941 Q170.0313,376.7285 170.1719,376.6504 Q170.3281,376.5723 170.5313,376.5723 Q170.8594,376.5723 171.1094,376.8379 Q171.375,377.0879 171.375,377.4316 Q171.375,377.7754 171.0313,378.1816 Q170.5313,378.7598 169.7344,379.0879 Q168.6563,379.541 167.3594,379.541 Q165.8438,379.541 164.6406,378.916 Q163.6563,378.416 162.9688,377.3535 Q162.2813,376.2754 162.2813,374.9941 L162.2813,373.8379 Q162.2813,372.5098 162.8906,371.3691 Q163.5156,370.2129 164.6094,369.6035 Q165.7031,368.9785 166.9375,368.9785 Q167.6719,368.9785 168.3125,369.1504 Q168.9688,369.3066 169.5156,369.666 Z " fill="#000000"/><text fill="#000000" font-family="sans-serif" font-size="12" font-style="italic" lengthAdjust="spacing" textLength="83" x="243.75" y="369.4492">&#171;Repositories&#187;</text><text fill="#000000" font-family="sans-serif" font-size="14" lengthAdjust="spacing" textLength="196" x="187.25" y="387.5684">ParticipationMeetingRepository</text><line style="stroke:#181818;stroke-width:0.5;" x1="27" x2="511" y1="396.082" y2="396.082"/><line style="stroke:#181818;stroke-width:0.5;" x1="27" x2="511" y1="404.082" y2="404.082"/><ellipse cx="37" cy="418.8926" fill="#84BE84" rx="3" ry="3" style="stroke:#038048;stroke-width:1.0;"/><text fill="#000000" font-family="sans-serif" font-size="14" lengthAdjust="spacing" textLength="460" x="46" y="423.1895">ParticipationMeeting save(theParticipationMeeting : ParticipationMeeting)</text></g><!--link ParticipationMeeting to ParticipationMeetingStatus--><g id="link_ParticipationMeeting_ParticipationMeetingStatus"><path codeLine="29" d="M706.27,440.31 C692.61,464.11 676.3,492.52 663.16,515.41 " fill="none" id="ParticipationMeeting-to-ParticipationMeetingStatus" style="stroke:#181818;stroke-width:1.0;"/><polygon fill="#181818" points="660.57,519.91,668.5206,514.0973,663.0599,515.5741,661.5831,510.1134,660.57,519.91" style="stroke:#181818;stroke-width:1.0;"/></g><!--link AcceptRejectMeetingRequestUI to ParticipationMeeting--><g id="link_AcceptRejectMeetingRequestUI_ParticipationMeeting"><path codeLine="32" d="M615.32,86.15 C646.13,105.63 679.05,132.16 699,165 C730.68,217.16 736.88,288.23 736.81,336.44 " fill="none" id="AcceptRejectMeetingRequestUI-to-ParticipationMeeting" style="stroke:#181818;stroke-width:1.0;stroke-dasharray:7.0,7.0;"/><polygon fill="#181818" points="736.78,341.62,740.857,332.6546,736.8229,336.6202,732.8573,332.586,736.78,341.62" style="stroke:#181818;stroke-width:1.0;"/></g><!--link AcceptRejectMeetingRequestUI to AcceptRejectMeetingRequestController--><g id="link_AcceptRejectMeetingRequestUI_AcceptRejectMeetingRequestController"><path codeLine="35" d="M493.28,86.3 C466.78,108.8 433.09,137.39 404.42,161.72 " fill="none" id="AcceptRejectMeetingRequestUI-to-AcceptRejectMeetingRequestController" style="stroke:#181818;stroke-width:1.0;"/><polygon fill="#181818" points="400.59,164.97,410.0438,162.2085,404.4064,161.7396,404.8752,156.1023,400.59,164.97" style="stroke:#181818;stroke-width:1.0;"/><text fill="#000000" font-family="sans-serif" font-size="13" lengthAdjust="spacing" textLength="73" x="454" y="131.0283">theController</text></g><!--link AcceptRejectMeetingRequestController to ParticipationMeetingRepository--><g id="link_AcceptRejectMeetingRequestController_ParticipationMeetingRepository"><path codeLine="36" d="M323.31,263.28 C312.12,289.38 298.42,321.34 287.58,346.64 " fill="none" id="AcceptRejectMeetingRequestController-to-ParticipationMeetingRepository" style="stroke:#181818;stroke-width:1.0;"/><polygon fill="#181818" points="285.59,351.28,292.8119,344.5834,287.5596,346.6843,285.4587,341.432,285.59,351.28" style="stroke:#181818;stroke-width:1.0;"/><text fill="#000000" font-family="sans-serif" font-size="13" lengthAdjust="spacing" textLength="25" x="310" y="308.0283">repo</text></g><!--link AcceptRejectMeetingRequestController to ParticipationMeeting--><g id="link_AcceptRejectMeetingRequestController_ParticipationMeeting"><path codeLine="37" d="M451.09,263.05 C504.17,286.87 568.24,315.62 621.98,339.73 " fill="none" id="AcceptRejectMeetingRequestController-to-ParticipationMeeting" style="stroke:#181818;stroke-width:1.0;"/><polygon fill="#181818" points="626.82,341.9,620.2436,334.5685,622.2575,339.8547,616.9712,341.8685,626.82,341.9" style="stroke:#181818;stroke-width:1.0;"/><text fill="#000000" font-family="sans-serif" font-size="13" lengthAdjust="spacing" textLength="136" x="551" y="308.0283">theParticipationMeeting</text></g><!--link ParticipationMeeting to SystemUser--><g id="link_ParticipationMeeting_SystemUser"><path codeLine="39" d="M761.44,440.31 C774.75,463.75 790.61,491.67 803.51,514.38 " fill="none" id="ParticipationMeeting-to-SystemUser" style="stroke:#181818;stroke-width:1.0;"/><polygon fill="#181818" points="806.05,518.85,805.0889,509.0481,803.5831,514.5009,798.1304,512.9951,806.05,518.85" style="stroke:#181818;stroke-width:1.0;"/><text fill="#000000" font-family="sans-serif" font-size="13" lengthAdjust="spacing" textLength="25" x="787" y="485.0283">user</text><text fill="#000000" font-family="sans-serif" font-size="13" lengthAdjust="spacing" textLength="5" x="759.6354" y="461.7751">*</text><text fill="#000000" font-family="sans-serif" font-size="13" lengthAdjust="spacing" textLength="7" x="794.6758" y="507.6101">1</text></g><!--SRC=[fPCzRy8m48Pt_meh2_GZGzV8YeIW0qC1WTe5CHZd1AuSsxKTAbJrlzTn40J9152pHEVSFVU-vqjlAAYrO16httZ066WtXqzWxWt0SRcPmrS5rhsFCI7QW0NfgEDAvZd-GTW_XLfirNV_0VsYgvIXaiue8S1usa1hmTavx6dimD2r039Tr-NBLOu5z-qjc1d8mdS_9_g-eMv6ZUECwu0xf60QX1oYljj2D2l3iUDdl0SxDHFblw-L4a1bos8KHCX8bPIVtAGwahRmywliXQxDnyRIkVgucbTPbHsWjYH2FgYe03U33HgFTXPxww2iXnmnKVbZIKleTZy7hIntokmzuXXmiAUxZGxDqXtSUJN1UQ_jng9eUPhcNLD6lH7ei5JCwqITovyk2sgtKAmk83riGdTy4ywke3pYfbyamtukfnZTL7J9S-j-Ccnyy3zS8ou-YMX-yfW4MFAIjDSjm_LweJy0]--></g></svg>