<?xml version="1.0" encoding="us-ascii" standalone="no"?><svg xmlns="http://www.w3.org/2000/svg" xmlns:xlink="http://www.w3.org/1999/xlink" contentStyleType="text/css" height="602px" preserveAspectRatio="none" style="width:742px;height:602px;background:#FFFFFF;" version="1.1" viewBox="0 0 742 602" width="742px" zoomAndPan="magnify"><defs/><g><text fill="#000000" font-family="sans-serif" font-size="14" font-weight="bold" lengthAdjust="spacing" textLength="213" x="257.75" y="25.1074">Domain Classes (DC) - US 4003</text><!--cluster <<aggregate>> SystemUser--><g id="cluster_&lt;&lt;aggregate&gt;&gt; SystemUser"><path d="M264.5,348.6348 L440.5,348.6348 A3.75,3.75 0 0 1 443,351.1348 L450,373.2559 L450.5,373.2559 A2.5,2.5 0 0 1 453,375.7559 L453,468.1348 A2.5,2.5 0 0 1 450.5,470.6348 L264.5,470.6348 A2.5,2.5 0 0 1 262,468.1348 L262,351.1348 A2.5,2.5 0 0 1 264.5,348.6348 " fill="none" style="stroke:#000000;stroke-width:1.5;"/><line style="stroke:#000000;stroke-width:1.5;" x1="262" x2="450" y1="373.2559" y2="373.2559"/><text fill="#000000" font-family="sans-serif" font-size="14" font-weight="bold" lengthAdjust="spacing" textLength="175" x="266" y="365.7422">&#171;aggregate&#187; SystemUser</text></g><!--cluster <<aggregate>> Meeting--><g id="cluster_&lt;&lt;aggregate&gt;&gt; Meeting"><path d="M8.5,45.6348 L159.5,45.6348 A3.75,3.75 0 0 1 162,48.1348 L169,70.2559 L235.5,70.2559 A2.5,2.5 0 0 1 238,72.7559 L238,593.1348 A2.5,2.5 0 0 1 235.5,595.6348 L8.5,595.6348 A2.5,2.5 0 0 1 6,593.1348 L6,48.1348 A2.5,2.5 0 0 1 8.5,45.6348 " fill="none" style="stroke:#000000;stroke-width:1.5;"/><line style="stroke:#000000;stroke-width:1.5;" x1="6" x2="169" y1="70.2559" y2="70.2559"/><text fill="#000000" font-family="sans-serif" font-size="14" font-weight="bold" lengthAdjust="spacing" textLength="150" x="10" y="62.7422">&#171;aggregate&#187; Meeting</text></g><!--class SystemUser--><g id="elem_SystemUser"><rect codeLine="11" fill="#F1F1F1" height="68.543" id="SystemUser" rx="2.5" ry="2.5" style="stroke:#181818;stroke-width:0.5;" width="107" x="278.5" y="385.6348"/><ellipse cx="293.5" cy="415.9063" fill="#ADD1B2" rx="11" ry="11" style="stroke:#181818;stroke-width:1.0;"/><path d="M292.3594,416.7031 L292.3594,419.2031 L296.6875,419.2031 L296.6875,418.2813 Q296.6875,417.6719 296.9219,417.4063 Q297.1719,417.1406 297.5469,417.1406 Q297.9219,417.1406 298.1563,417.4063 Q298.3906,417.6719 298.3906,418.2813 L298.3906,420.9063 L290.3906,420.9063 Q289.7656,420.9063 289.5,420.6719 Q289.25,420.4375 289.25,420.0469 Q289.25,419.6719 289.5156,419.4375 Q289.7813,419.2031 290.3906,419.2031 L290.6563,419.2031 L290.6563,412.5469 L290.3906,412.5469 Q289.7656,412.5469 289.5,412.3125 Q289.25,412.0781 289.25,411.6875 Q289.25,411.3125 289.5,411.0781 Q289.7656,410.8438 290.3906,410.8438 L298.0156,410.8438 L298.0156,413.4375 Q298.0156,414.0469 297.7813,414.3125 Q297.5625,414.5625 297.1719,414.5625 Q296.7969,414.5625 296.5625,414.3125 Q296.3281,414.0469 296.3281,413.4375 L296.3281,412.5469 L292.3594,412.5469 L292.3594,415 L293.8438,415 Q293.8438,414.3438 293.9688,414.1563 Q294.2344,413.75 294.7031,413.75 Q295.0781,413.75 295.3125,414.0156 Q295.5469,414.2656 295.5469,414.875 L295.5469,416.8438 Q295.5469,417.3906 295.4219,417.5781 Q295.1563,417.9688 294.7031,417.9688 Q294.2344,417.9688 293.9688,417.5625 Q293.8438,417.375 293.8438,416.7031 L292.3594,416.7031 Z " fill="#000000"/><text fill="#000000" font-family="sans-serif" font-size="12" font-style="italic" lengthAdjust="spacing" textLength="43" x="323.5" y="403.584">&#171;entity&#187;</text><text fill="#000000" font-family="sans-serif" font-size="12" font-style="italic" lengthAdjust="spacing" textLength="35" x="327.5" y="419.5449">&#171;root&#187;</text><text fill="#000000" font-family="sans-serif" font-size="14" lengthAdjust="spacing" textLength="75" x="307.5" y="437.6641">SystemUser</text><line style="stroke:#181818;stroke-width:0.5;" x1="279.5" x2="384.5" y1="446.1777" y2="446.1777"/></g><!--class Meeting--><g id="elem_Meeting"><rect codeLine="17" fill="#F1F1F1" height="68.543" id="Meeting" rx="2.5" ry="2.5" style="stroke:#181818;stroke-width:0.5;" width="82" x="130" y="82.6348"/><ellipse cx="145" cy="112.9063" fill="#ADD1B2" rx="11" ry="11" style="stroke:#181818;stroke-width:1.0;"/><path d="M143.8594,113.7031 L143.8594,116.2031 L148.1875,116.2031 L148.1875,115.2813 Q148.1875,114.6719 148.4219,114.4063 Q148.6719,114.1406 149.0469,114.1406 Q149.4219,114.1406 149.6563,114.4063 Q149.8906,114.6719 149.8906,115.2813 L149.8906,117.9063 L141.8906,117.9063 Q141.2656,117.9063 141,117.6719 Q140.75,117.4375 140.75,117.0469 Q140.75,116.6719 141.0156,116.4375 Q141.2813,116.2031 141.8906,116.2031 L142.1563,116.2031 L142.1563,109.5469 L141.8906,109.5469 Q141.2656,109.5469 141,109.3125 Q140.75,109.0781 140.75,108.6875 Q140.75,108.3125 141,108.0781 Q141.2656,107.8438 141.8906,107.8438 L149.5156,107.8438 L149.5156,110.4375 Q149.5156,111.0469 149.2813,111.3125 Q149.0625,111.5625 148.6719,111.5625 Q148.2969,111.5625 148.0625,111.3125 Q147.8281,111.0469 147.8281,110.4375 L147.8281,109.5469 L143.8594,109.5469 L143.8594,112 L145.3438,112 Q145.3438,111.3438 145.4688,111.1563 Q145.7344,110.75 146.2031,110.75 Q146.5781,110.75 146.8125,111.0156 Q147.0469,111.2656 147.0469,111.875 L147.0469,113.8438 Q147.0469,114.3906 146.9219,114.5781 Q146.6563,114.9688 146.2031,114.9688 Q145.7344,114.9688 145.4688,114.5625 Q145.3438,114.375 145.3438,113.7031 L143.8594,113.7031 Z " fill="#000000"/><text fill="#000000" font-family="sans-serif" font-size="12" font-style="italic" lengthAdjust="spacing" textLength="43" x="162.5" y="100.584">&#171;entity&#187;</text><text fill="#000000" font-family="sans-serif" font-size="12" font-style="italic" lengthAdjust="spacing" textLength="35" x="166.5" y="116.5449">&#171;root&#187;</text><text fill="#000000" font-family="sans-serif" font-size="14" lengthAdjust="spacing" textLength="50" x="159" y="134.6641">Meeting</text><line style="stroke:#181818;stroke-width:0.5;" x1="131" x2="211" y1="143.1777" y2="143.1777"/></g><!--class ParticipationMeeting--><g id="elem_ParticipationMeeting"><rect codeLine="18" fill="#F1F1F1" height="52.582" id="ParticipationMeeting" rx="2.5" ry="2.5" style="stroke:#181818;stroke-width:0.5;" width="160" x="62" y="230.6348"/><ellipse cx="77" cy="252.9258" fill="#ADD1B2" rx="11" ry="11" style="stroke:#181818;stroke-width:1.0;"/><path d="M75.8594,253.7227 L75.8594,256.2227 L80.1875,256.2227 L80.1875,255.3008 Q80.1875,254.6914 80.4219,254.4258 Q80.6719,254.1602 81.0469,254.1602 Q81.4219,254.1602 81.6563,254.4258 Q81.8906,254.6914 81.8906,255.3008 L81.8906,257.9258 L73.8906,257.9258 Q73.2656,257.9258 73,257.6914 Q72.75,257.457 72.75,257.0664 Q72.75,256.6914 73.0156,256.457 Q73.2813,256.2227 73.8906,256.2227 L74.1563,256.2227 L74.1563,249.5664 L73.8906,249.5664 Q73.2656,249.5664 73,249.332 Q72.75,249.0977 72.75,248.707 Q72.75,248.332 73,248.0977 Q73.2656,247.8633 73.8906,247.8633 L81.5156,247.8633 L81.5156,250.457 Q81.5156,251.0664 81.2813,251.332 Q81.0625,251.582 80.6719,251.582 Q80.2969,251.582 80.0625,251.332 Q79.8281,251.0664 79.8281,250.457 L79.8281,249.5664 L75.8594,249.5664 L75.8594,252.0195 L77.3438,252.0195 Q77.3438,251.3633 77.4688,251.1758 Q77.7344,250.7695 78.2031,250.7695 Q78.5781,250.7695 78.8125,251.0352 Q79.0469,251.2852 79.0469,251.8945 L79.0469,253.8633 Q79.0469,254.4102 78.9219,254.5977 Q78.6563,254.9883 78.2031,254.9883 Q77.7344,254.9883 77.4688,254.582 Q77.3438,254.3945 77.3438,253.7227 L75.8594,253.7227 Z " fill="#000000"/><text fill="#000000" font-family="sans-serif" font-size="12" font-style="italic" lengthAdjust="spacing" textLength="43" x="133.5" y="248.584">&#171;entity&#187;</text><text fill="#000000" font-family="sans-serif" font-size="14" lengthAdjust="spacing" textLength="128" x="91" y="266.7031">ParticipationMeeting</text><line style="stroke:#181818;stroke-width:0.5;" x1="63" x2="221" y1="275.2168" y2="275.2168"/></g><!--class ParticipationMeetingStatus--><g id="elem_ParticipationMeetingStatus"><rect codeLine="19" fill="#F1F1F1" height="52.582" id="ParticipationMeetingStatus" rx="2.5" ry="2.5" style="stroke:#181818;stroke-width:0.5;" width="200" x="22" y="393.6348"/><ellipse cx="37" cy="415.9258" fill="#FF8B40" rx="11" ry="11" style="stroke:#181818;stroke-width:1.0;"/><path d="M37.5938,419.1914 L40.0625,413.3164 L39.6719,413.3164 Q39.0625,413.3164 38.7969,413.082 Q38.5313,412.8477 38.5313,412.457 Q38.5313,412.082 38.7969,411.8477 Q39.0625,411.6133 39.6719,411.6133 L41.9531,411.6133 Q42.5625,411.6133 42.8281,411.8477 Q43.0938,412.082 43.0938,412.457 Q43.0938,412.9258 42.6875,413.1914 Q42.5,413.3164 41.9063,413.3164 L38.4219,421.6758 L36.7813,421.6758 L33.2969,413.3164 Q32.7031,413.3164 32.5156,413.1914 Q32.1094,412.9258 32.1094,412.457 Q32.1094,412.082 32.375,411.8477 Q32.6406,411.6133 33.25,411.6133 L35.5469,411.6133 Q36.1563,411.6133 36.4063,411.8477 Q36.6719,412.082 36.6719,412.457 Q36.6719,412.8477 36.4063,413.082 Q36.1563,413.3164 35.5469,413.3164 L35.1406,413.3164 L37.5938,419.1914 Z " fill="#000000"/><text fill="#000000" font-family="sans-serif" font-size="12" font-style="italic" lengthAdjust="spacing" textLength="81" x="94.5" y="411.584">&#171;value object&#187;</text><text fill="#000000" font-family="sans-serif" font-size="14" lengthAdjust="spacing" textLength="168" x="51" y="429.7031">ParticipationMeetingStatus</text><line style="stroke:#181818;stroke-width:0.5;" x1="23" x2="221" y1="438.2168" y2="438.2168"/></g><g id="elem_GMN8"><path d="M26.5,517.6348 L26.5,579.5078 A0,0 0 0 0 26.5,579.5078 L217.5,579.5078 A0,0 0 0 0 217.5,579.5078 L217.5,527.6348 L207.5,517.6348 L126,517.6348 L122,446.7348 L118,517.6348 L26.5,517.6348 A0,0 0 0 0 26.5,517.6348 " fill="#FEFFDD" style="stroke:#181818;stroke-width:0.5;"/><path d="M207.5,517.6348 L207.5,527.6348 L217.5,527.6348 L207.5,517.6348 " fill="#FEFFDD" style="stroke:#181818;stroke-width:0.5;"/><text fill="#000000" font-family="sans-serif" font-size="13" lengthAdjust="spacing" textLength="123" x="32.5" y="536.6631">Diagrama de estados</text><text fill="#000000" font-family="sans-serif" font-size="13" lengthAdjust="spacing" textLength="132" x="32.5" y="553.9541">dispon&#237;vel com o nome</text><text fill="#000000" font-family="sans-serif" font-size="13" lengthAdjust="spacing" textLength="170" x="32.5" y="571.2451">"participation-meeting-status"</text></g><!--class Event--><g id="elem_Event"><rect codeLine="28" fill="#F1F1F1" height="52.582" id="Event" rx="2.5" ry="2.5" style="stroke:#181818;stroke-width:0.5;" width="86" x="487" y="230.6348"/><ellipse cx="502" cy="252.9258" fill="#A9DCDF" rx="11" ry="11" style="stroke:#181818;stroke-width:1.0;"/><path d="M504.1875,254.6914 L500.0469,254.6914 L499.625,255.7227 L500.0469,255.7227 Q500.6563,255.7227 500.9219,255.957 Q501.1875,256.1914 501.1875,256.582 Q501.1875,256.957 500.9219,257.1914 Q500.6563,257.4258 500.0469,257.4258 L497.75,257.4258 Q497.1406,257.4258 496.8906,257.1914 Q496.625,256.957 496.625,256.5664 Q496.625,256.1914 496.9063,255.957 Q497.1719,255.707 497.7969,255.7227 L500.4688,249.0664 L499.3594,249.0664 Q498.75,249.0664 498.4844,248.832 Q498.2188,248.5977 498.2188,248.207 Q498.2188,247.832 498.4844,247.5977 Q498.75,247.3633 499.3594,247.3633 L503.0313,247.3633 L506.4219,255.7227 Q507.0156,255.7227 507.2031,255.8633 Q507.5938,256.1289 507.5938,256.582 Q507.5938,256.957 507.3281,257.1914 Q507.0781,257.4258 506.4688,257.4258 L504.1719,257.4258 Q503.5625,257.4258 503.2969,257.1914 Q503.0313,256.957 503.0313,256.5664 Q503.0313,256.1914 503.2969,255.957 Q503.5625,255.7227 504.1719,255.7227 L504.5938,255.7227 L504.1875,254.6914 Z M503.4688,252.9883 L502.1094,249.6133 L500.7344,252.9883 L503.4688,252.9883 Z " fill="#000000"/><text fill="#000000" font-family="sans-serif" font-size="12" font-style="italic" lengthAdjust="spacing" textLength="58" x="514" y="248.584">&#171;abstract&#187;</text><text fill="#000000" font-family="sans-serif" font-size="14" font-style="italic" lengthAdjust="spacing" textLength="35" x="525.5" y="266.7031">Event</text><line style="stroke:#181818;stroke-width:0.5;" x1="488" x2="572" y1="275.2168" y2="275.2168"/></g><!--class EventDuration--><g id="elem_EventDuration"><rect codeLine="29" fill="#F1F1F1" height="52.582" id="EventDuration" rx="2.5" ry="2.5" style="stroke:#181818;stroke-width:0.5;" width="122" x="469" y="393.6348"/><ellipse cx="484" cy="415.9258" fill="#FF8B40" rx="11" ry="11" style="stroke:#181818;stroke-width:1.0;"/><path d="M484.5938,419.1914 L487.0625,413.3164 L486.6719,413.3164 Q486.0625,413.3164 485.7969,413.082 Q485.5313,412.8477 485.5313,412.457 Q485.5313,412.082 485.7969,411.8477 Q486.0625,411.6133 486.6719,411.6133 L488.9531,411.6133 Q489.5625,411.6133 489.8281,411.8477 Q490.0938,412.082 490.0938,412.457 Q490.0938,412.9258 489.6875,413.1914 Q489.5,413.3164 488.9063,413.3164 L485.4219,421.6758 L483.7813,421.6758 L480.2969,413.3164 Q479.7031,413.3164 479.5156,413.1914 Q479.1094,412.9258 479.1094,412.457 Q479.1094,412.082 479.375,411.8477 Q479.6406,411.6133 480.25,411.6133 L482.5469,411.6133 Q483.1563,411.6133 483.4063,411.8477 Q483.6719,412.082 483.6719,412.457 Q483.6719,412.8477 483.4063,413.082 Q483.1563,413.3164 482.5469,413.3164 L482.1406,413.3164 L484.5938,419.1914 Z " fill="#000000"/><text fill="#000000" font-family="sans-serif" font-size="12" font-style="italic" lengthAdjust="spacing" textLength="81" x="502.5" y="411.584">&#171;value object&#187;</text><text fill="#000000" font-family="sans-serif" font-size="14" lengthAdjust="spacing" textLength="90" x="498" y="429.7031">EventDuration</text><line style="stroke:#181818;stroke-width:0.5;" x1="470" x2="590" y1="438.2168" y2="438.2168"/></g><!--class EventDate--><g id="elem_EventDate"><rect codeLine="30" fill="#F1F1F1" height="52.582" id="EventDate" rx="2.5" ry="2.5" style="stroke:#181818;stroke-width:0.5;" width="109" x="626.5" y="393.6348"/><ellipse cx="641.5" cy="415.9258" fill="#FF8B40" rx="11" ry="11" style="stroke:#181818;stroke-width:1.0;"/><path d="M642.0938,419.1914 L644.5625,413.3164 L644.1719,413.3164 Q643.5625,413.3164 643.2969,413.082 Q643.0313,412.8477 643.0313,412.457 Q643.0313,412.082 643.2969,411.8477 Q643.5625,411.6133 644.1719,411.6133 L646.4531,411.6133 Q647.0625,411.6133 647.3281,411.8477 Q647.5938,412.082 647.5938,412.457 Q647.5938,412.9258 647.1875,413.1914 Q647,413.3164 646.4063,413.3164 L642.9219,421.6758 L641.2813,421.6758 L637.7969,413.3164 Q637.2031,413.3164 637.0156,413.1914 Q636.6094,412.9258 636.6094,412.457 Q636.6094,412.082 636.875,411.8477 Q637.1406,411.6133 637.75,411.6133 L640.0469,411.6133 Q640.6563,411.6133 640.9063,411.8477 Q641.1719,412.082 641.1719,412.457 Q641.1719,412.8477 640.9063,413.082 Q640.6563,413.3164 640.0469,413.3164 L639.6406,413.3164 L642.0938,419.1914 Z " fill="#000000"/><text fill="#000000" font-family="sans-serif" font-size="12" font-style="italic" lengthAdjust="spacing" textLength="81" x="653.5" y="411.584">&#171;value object&#187;</text><text fill="#000000" font-family="sans-serif" font-size="14" lengthAdjust="spacing" textLength="66" x="661" y="429.7031">EventDate</text><line style="stroke:#181818;stroke-width:0.5;" x1="627.5" x2="734.5" y1="438.2168" y2="438.2168"/></g><!--link Event to EventDuration--><g id="link_Event_EventDuration"><path codeLine="33" d="M530,283.6448 C530,312.0648 530,357.9848 530,388.3648 " fill="none" id="Event-to-EventDuration" style="stroke:#181818;stroke-width:1.0;"/><polygon fill="#181818" points="530,393.4748,534,384.4748,530,388.4748,526,384.4748,530,393.4748" style="stroke:#181818;stroke-width:1.0;"/></g><!--link Event to EventDate--><g id="link_Event_EventDate"><path codeLine="34" d="M554.7,283.6448 C570.35,299.8748 590.96,321.3948 609,340.6348 C624.03,356.6648 640.62,374.7348 654.08,389.4848 " fill="none" id="Event-to-EventDate" style="stroke:#181818;stroke-width:1.0;"/><polygon fill="#181818" points="657.79,393.5548,654.6669,384.2142,654.4153,389.8654,648.764,389.6138,657.79,393.5548" style="stroke:#181818;stroke-width:1.0;"/></g><!--link ParticipationMeeting to ParticipationMeetingStatus--><g id="link_ParticipationMeeting_ParticipationMeetingStatus"><path codeLine="36" d="M138.83,283.6448 C135.3,312.0648 129.6,357.9848 125.82,388.3648 " fill="none" id="ParticipationMeeting-to-ParticipationMeetingStatus" style="stroke:#181818;stroke-width:1.0;"/><polygon fill="#181818" points="125.19,393.4748,130.2904,385.0494,125.819,388.5145,122.3539,384.0431,125.19,393.4748" style="stroke:#181818;stroke-width:1.0;"/></g><!--link Meeting to Event--><g id="link_Meeting_Event"><path codeLine="39" d="M212.18,133.9648 C274.86,158.0548 394.62,204.0948 467.89,232.2648 " fill="none" id="Meeting-to-Event" style="stroke:#181818;stroke-width:1.0;"/><polygon fill="none" points="470.64,225.8148,486.79,239.5248,465.61,238.8848,470.64,225.8148" style="stroke:#181818;stroke-width:1.0;"/></g><!--link ParticipationMeeting to SystemUser--><g id="link_ParticipationMeeting_SystemUser"><path codeLine="42" d="M172.11,283.6448 C203.4,310.1648 252.7,351.9348 288.29,382.0948 " fill="none" id="ParticipationMeeting-to-SystemUser" style="stroke:#181818;stroke-width:1.0;"/><polygon fill="#181818" points="292.12,385.3448,287.8541,376.4677,288.3107,382.1061,282.6723,382.5627,292.12,385.3448" style="stroke:#181818;stroke-width:1.0;"/><polygon fill="#000000" points="233.8146,326.5127,228.8139,318.423,225.0139,322.9073,233.8146,326.5127" style="stroke:#000000;stroke-width:1.0;"/><text fill="#000000" font-family="sans-serif" font-size="13" lengthAdjust="spacing" textLength="21" x="239" y="328.6631">has</text><text fill="#000000" font-family="sans-serif" font-size="13" lengthAdjust="spacing" textLength="20" x="156.5091" y="305.4091">0..*</text><text fill="#000000" font-family="sans-serif" font-size="13" lengthAdjust="spacing" textLength="20" x="262.9234" y="374.4605">1..*</text></g><!--link Meeting to ParticipationMeeting--><g id="link_Meeting_ParticipationMeeting"><path codeLine="43" d="M163.91,151.8948 C159.19,174.3548 153.04,203.6148 148.45,225.4148 " fill="none" id="Meeting-to-ParticipationMeeting" style="stroke:#181818;stroke-width:1.0;"/><polygon fill="#181818" points="147.38,230.5148,153.1436,222.5285,148.4072,225.6214,145.3142,220.885,147.38,230.5148" style="stroke:#181818;stroke-width:1.0;"/><polygon fill="#000000" points="160.9711,196.1733,165.7084,187.9265,159.9564,186.717,160.9711,196.1733" style="stroke:#000000;stroke-width:1.0;"/><text fill="#000000" font-family="sans-serif" font-size="13" lengthAdjust="spacing" textLength="43" x="171" y="196.6631">creates</text><text fill="#000000" font-family="sans-serif" font-size="13" lengthAdjust="spacing" textLength="7" x="155.156" y="173.15">1</text><text fill="#000000" font-family="sans-serif" font-size="13" lengthAdjust="spacing" textLength="20" x="126.3116" y="219.5036">1..*</text></g><!--SRC=[XLB1Jjn03BtxAwpq05GD2Ye7XA98BLia3bMhhk3kdLZPASbCDEFTYhPyKh-YFrRl96m3136d6VlvlMTxnFSe7bTUn7TOsy16h7S0OgLbNFYEhCEBbcBaY8UBYoFCyNg9fqNn7c1jQyQEPUth2F7Mkfu2TMXsy0yYmQusmbV6kwNzoLW072pled1t7Jb0J-QM6iQiBAbf0ZSaN5Nu7v7XBq0zxDJCtII1PJd455wMmNlHou2zXtjL-SmirZKlIOpf9_nZT8vy2ljAGQonFUtczBmcGTC0Pf5B8Tb4nH_UlCCtbvTd7q-B8znIks7qg-yw_P72UU5nBUczEmjBZSwNKAVEKQZsSP-hRUoz-_jdooqQNQLNXextwQoVcicxmKqUavrixAzEgcc2dxRQ4D0gIY0Zc9xg-Y6W9eSUKsAn2OdsbRQc5Rg8Lz1mS9C2Nr8Wmc0Xh_qFbrUFTMTpgW0mkwm7tClxKV4hj-PWXPnXs1VclqTs1NpZDXN6UP6iE3v-csb9XTb9kax-xpckAMAr9yvE7Y5d2S_H1DQcTdNm3m00]--></g></svg>