<?xml version="1.0" encoding="us-ascii" standalone="no"?><svg xmlns="http://www.w3.org/2000/svg" xmlns:xlink="http://www.w3.org/1999/xlink" contentStyleType="text/css" height="273px" preserveAspectRatio="none" style="width:723px;height:273px;background:#FFFFFF;" version="1.1" viewBox="0 0 723 273" width="723px" zoomAndPan="magnify"><defs/><g><ellipse cx="16" cy="32" fill="#181818" rx="10" ry="10" style="stroke:none;stroke-width:1.0;"/><g id="created"><rect fill="#F1F1F1" height="50" rx="12.5" ry="12.5" style="stroke:#181818;stroke-width:0.5;" width="68" x="149" y="7"/><line style="stroke:#181818;stroke-width:0.5;" x1="149" x2="217" y1="35.6211" y2="35.6211"/><text fill="#000000" font-family="sans-serif" font-size="14" lengthAdjust="spacing" textLength="48" x="159" y="27.1074">created</text></g><g id="canceled"><rect fill="#F1F1F1" height="50" rx="12.5" ry="12.5" style="stroke:#181818;stroke-width:0.5;" width="77" x="198.5" y="136"/><line style="stroke:#181818;stroke-width:0.5;" x1="198.5" x2="275.5" y1="164.6211" y2="164.6211"/><text fill="#000000" font-family="sans-serif" font-size="14" lengthAdjust="spacing" textLength="57" x="208.5" y="156.1074">canceled</text></g><ellipse cx="398" cy="257" fill="none" rx="10" ry="10" style="stroke:#181818;stroke-width:1.0;"/><ellipse cx="398.5" cy="257.5" fill="#181818" rx="6" ry="6" style="stroke:none;stroke-width:1.0;"/><g id="invited"><rect fill="#F1F1F1" height="50" rx="12.5" ry="12.5" style="stroke:#181818;stroke-width:0.5;" width="61" x="447.5" y="7"/><line style="stroke:#181818;stroke-width:0.5;" x1="447.5" x2="508.5" y1="35.6211" y2="35.6211"/><text fill="#000000" font-family="sans-serif" font-size="14" lengthAdjust="spacing" textLength="41" x="457.5" y="27.1074">invited</text></g><g id="refused"><rect fill="#F1F1F1" height="50" rx="12.5" ry="12.5" style="stroke:#181818;stroke-width:0.5;" width="68" x="364" y="136"/><line style="stroke:#181818;stroke-width:0.5;" x1="364" x2="432" y1="164.6211" y2="164.6211"/><text fill="#000000" font-family="sans-serif" font-size="14" lengthAdjust="spacing" textLength="48" x="374" y="156.1074">refused</text></g><g id="accepted"><rect fill="#F1F1F1" height="50" rx="12.5" ry="12.5" style="stroke:#181818;stroke-width:0.5;" width="78" x="511" y="136"/><line style="stroke:#181818;stroke-width:0.5;" x1="511" x2="589" y1="164.6211" y2="164.6211"/><text fill="#000000" font-family="sans-serif" font-size="14" lengthAdjust="spacing" textLength="58" x="521" y="156.1074">accepted</text></g><!--link *start* to created--><g id="link_*start*_created"><path d="M26.2,32 C49.03,32 105.32,32 143.85,32 " fill="none" id="*start*-to-created" style="stroke:#181818;stroke-width:1.0;"/><polygon fill="#181818" points="148.93,32,139.93,28,143.93,32,139.93,36,148.93,32" style="stroke:#181818;stroke-width:1.0;"/><text fill="#000000" font-family="sans-serif" font-size="13" lengthAdjust="spacing" textLength="86" x="44.5" y="25.0283">meeting create</text></g><!--link created to canceled--><g id="link_created_canceled"><path d="M176.86,57.3 C174.37,71.98 173.43,90.74 180,106 C184.21,115.79 191.17,124.64 198.8,132.21 " fill="none" id="created-to-canceled" style="stroke:#181818;stroke-width:1.0;"/><polygon fill="#181818" points="202.6,135.82,198.8423,126.7162,198.9797,132.3714,193.3245,132.5087,202.6,135.82" style="stroke:#181818;stroke-width:1.0;"/><text fill="#000000" font-family="sans-serif" font-size="13" lengthAdjust="spacing" textLength="173" x="181" y="102.0283">User has overlapped schedule</text></g><!--link canceled to *end*--><g id="link_canceled_*end*"><path d="M275.56,184.52 C311,205.2 361.47,234.67 385,248.41 " fill="none" id="canceled-to-*end*" style="stroke:#181818;stroke-width:1.0;"/><polygon fill="#181818" points="389.6,251.09,383.8579,243.0882,385.2863,248.5618,379.8127,249.9901,389.6,251.09" style="stroke:#181818;stroke-width:1.0;"/></g><!--link created to invited--><g id="link_created_invited"><path d="M217.13,32 C273.37,32 384.98,32 442.26,32 " fill="none" id="created-to-invited" style="stroke:#181818;stroke-width:1.0;"/><polygon fill="#181818" points="447.29,32,438.29,28,442.29,32,438.29,36,447.29,32" style="stroke:#181818;stroke-width:1.0;"/><text fill="#000000" font-family="sans-serif" font-size="13" lengthAdjust="spacing" textLength="194" x="235.25" y="25.0283">User has no overlapping schedule</text></g><!--link invited to refused--><g id="link_invited_refused"><path d="M447.19,43.18 C427.28,51.54 402.93,65.56 391,87 C383.67,100.18 384.62,116.79 387.76,130.84 " fill="none" id="invited-to-refused" style="stroke:#181818;stroke-width:1.0;"/><polygon fill="#181818" points="389,135.89,390.7246,126.1933,387.8008,131.0359,382.9581,128.1121,389,135.89" style="stroke:#181818;stroke-width:1.0;"/><text fill="#000000" font-family="sans-serif" font-size="13" lengthAdjust="spacing" textLength="155" x="392" y="102.0283">User declines the invitation</text></g><!--link invited to accepted--><g id="link_invited_accepted"><path d="M508.86,45.58 C526.1,54.41 546.06,68.03 556,87 C562.94,100.24 562.24,116.72 559.45,130.66 " fill="none" id="invited-to-accepted" style="stroke:#181818;stroke-width:1.0;"/><polygon fill="#181818" points="558.34,135.68,564.1799,127.7493,559.414,130.7967,556.3666,126.0309,558.34,135.68" style="stroke:#181818;stroke-width:1.0;"/><text fill="#000000" font-family="sans-serif" font-size="13" lengthAdjust="spacing" textLength="153" x="562" y="102.0283">User accepts the invitation</text></g><!--link refused to *end*--><g id="link_refused_*end*"><path d="M398,186.21 C398,203.84 398,227.13 398,241.84 " fill="none" id="refused-to-*end*" style="stroke:#181818;stroke-width:1.0;"/><polygon fill="#181818" points="398,246.84,402,237.84,398,241.84,394,237.84,398,246.84" style="stroke:#181818;stroke-width:1.0;"/></g><!--link accepted to *end*--><g id="link_accepted_*end*"><path d="M510.86,186.21 C477.82,206.64 432.52,234.65 410.73,248.13 " fill="none" id="accepted-to-*end*" style="stroke:#181818;stroke-width:1.0;"/><polygon fill="#181818" points="406.2,250.93,415.9561,249.5815,410.448,248.2928,411.7366,242.7847,406.2,250.93" style="stroke:#181818;stroke-width:1.0;"/></g><!--SRC=[RO-x3i8m34NtV4Ks9AJIlKF_WWanMAbf8kMbnEs2-7VwY0EYZBxsFISvQQAOkxQD5ZnDpbvKS6qc86m60sC29yJjV9TDBrN29Hva9nqY6J-MH8ZjlkwVuYK43yrQ1A_GRirhnYGrP1bcJ1PYNDAiD0wJ_N3uV0Vnj9AMb_2LyRCvslgQVxbygBhrrR- -X8yfCudhguqN1JMWiiPZbgIB7iW4pnXG2YFzuzHD0UtpaSC-_cdjSV06]--></g></svg>