<?xml version="1.0" encoding="us-ascii" standalone="no"?><svg xmlns="http://www.w3.org/2000/svg" xmlns:xlink="http://www.w3.org/1999/xlink" contentStyleType="text/css" height="835px" preserveAspectRatio="none" style="width:1637px;height:835px;background:#FFFFFF;" version="1.1" viewBox="0 0 1637 835" width="1637px" zoomAndPan="magnify"><defs/><g><text fill="#000000" font-family="sans-serif" font-size="14" font-weight="bold" lengthAdjust="spacing" textLength="296" x="672.25" y="30.1074">System Sequence Diagram (SSD) - US 4003</text><rect fill="#FFFFFF" height="579.9473" style="stroke:#181818;stroke-width:1.0;" width="10" x="17.5" y="137.8633"/><rect fill="#FFFFFF" height="556.6563" style="stroke:#181818;stroke-width:1.0;" width="10" x="433.5" y="161.1543"/><rect fill="#FFFFFF" height="31.291" style="stroke:#181818;stroke-width:1.0;" width="10" x="988.5" y="223.7363"/><rect fill="#FFFFFF" height="123.873" style="stroke:#181818;stroke-width:1.0;" width="10" x="988.5" y="562.6465"/><rect fill="#FFFFFF" height="30" style="stroke:#181818;stroke-width:1.0;" width="10" x="1272.5" y="593.9375"/><line style="stroke:#181818;stroke-width:0.5;stroke-dasharray:5.0,5.0;" x1="22" x2="22" y1="127.8633" y2="735.8105"/><line style="stroke:#181818;stroke-width:0.5;stroke-dasharray:5.0,5.0;" x1="438.5" x2="438.5" y1="127.8633" y2="735.8105"/><line style="stroke:#181818;stroke-width:0.5;stroke-dasharray:5.0,5.0;" x1="993.5" x2="993.5" y1="127.8633" y2="735.8105"/><line style="stroke:#181818;stroke-width:0.5;stroke-dasharray:5.0,5.0;" x1="1277.5" x2="1277.5" y1="127.8633" y2="735.8105"/><line style="stroke:#181818;stroke-width:0.5;stroke-dasharray:5.0,5.0;" x1="1535.5" x2="1535.5" y1="127.8633" y2="735.8105"/><text fill="#000000" font-family="sans-serif" font-size="14" lengthAdjust="spacing" textLength="29" x="5" y="124.3496">User</text><ellipse cx="22.5" cy="57.7422" fill="#E3E3E3" rx="8" ry="8" style="stroke:#181818;stroke-width:0.5;"/><path d="M22.5,65.7422 L22.5,92.7422 M9.5,73.7422 L35.5,73.7422 M22.5,92.7422 L9.5,107.7422 M22.5,92.7422 L35.5,107.7422 " fill="none" style="stroke:#181818;stroke-width:0.5;"/><text fill="#000000" font-family="sans-serif" font-size="14" lengthAdjust="spacing" textLength="29" x="5" y="749.918">User</text><ellipse cx="22.5" cy="761.9316" fill="#E3E3E3" rx="8" ry="8" style="stroke:#181818;stroke-width:0.5;"/><path d="M22.5,769.9316 L22.5,796.9316 M9.5,777.9316 L35.5,777.9316 M22.5,796.9316 L9.5,811.9316 M22.5,796.9316 L35.5,811.9316 " fill="none" style="stroke:#181818;stroke-width:0.5;"/><rect fill="#E3E3E3" height="51.2422" rx="2.5" ry="2.5" style="stroke:#181818;stroke-width:0.5;" width="212" x="332.5" y="75.6211"/><text fill="#000000" font-family="sans-serif" font-size="14" font-style="italic" lengthAdjust="spacing" textLength="95" x="391" y="97.7285">&#171;presentation&#187;</text><text fill="#000000" font-family="sans-serif" font-size="14" lengthAdjust="spacing" textLength="198" x="339.5" y="116.3496">AcceptRejectMeetingRequestUI</text><rect fill="#E3E3E3" height="51.2422" rx="2.5" ry="2.5" style="stroke:#181818;stroke-width:0.5;" width="212" x="332.5" y="734.8105"/><text fill="#000000" font-family="sans-serif" font-size="14" font-style="italic" lengthAdjust="spacing" textLength="95" x="391" y="756.918">&#171;presentation&#187;</text><text fill="#000000" font-family="sans-serif" font-size="14" lengthAdjust="spacing" textLength="198" x="339.5" y="775.5391">AcceptRejectMeetingRequestUI</text><text fill="#000000" font-family="sans-serif" font-size="14" font-style="italic" lengthAdjust="spacing" textLength="84" x="948.5" y="105.7285">&#171;application&#187;</text><text fill="#000000" font-family="sans-serif" font-size="14" lengthAdjust="spacing" textLength="248" x="866.5" y="124.3496">AcceptRejectMeetingRequestController</text><ellipse cx="993.5" cy="74.6211" fill="#E3E3E3" rx="12" ry="12" style="stroke:#181818;stroke-width:0.5;"/><polygon fill="#181818" points="989.5,62.6211,995.5,57.6211,993.5,62.6211,995.5,67.6211,989.5,62.6211" style="stroke:#181818;stroke-width:1.0;"/><text fill="#000000" font-family="sans-serif" font-size="14" font-style="italic" lengthAdjust="spacing" textLength="84" x="948.5" y="749.918">&#171;application&#187;</text><text fill="#000000" font-family="sans-serif" font-size="14" lengthAdjust="spacing" textLength="248" x="866.5" y="768.5391">AcceptRejectMeetingRequestController</text><ellipse cx="993.5" cy="788.0527" fill="#E3E3E3" rx="12" ry="12" style="stroke:#181818;stroke-width:0.5;"/><polygon fill="#181818" points="989.5,776.0527,995.5,771.0527,993.5,776.0527,995.5,781.0527,989.5,776.0527" style="stroke:#181818;stroke-width:1.0;"/><rect fill="#E3E3E3" height="51.2422" rx="2.5" ry="2.5" style="stroke:#181818;stroke-width:0.5;" width="294" x="1130.5" y="75.6211"/><text fill="#000000" font-family="sans-serif" font-size="14" font-style="italic" lengthAdjust="spacing" textLength="62" x="1246.5" y="97.7285">&#171;domain&#187;</text><text fill="#000000" font-family="sans-serif" font-size="14" lengthAdjust="spacing" textLength="280" x="1137.5" y="116.3496">theParticipationMeeting:ParticipationMeeting</text><rect fill="#E3E3E3" height="51.2422" rx="2.5" ry="2.5" style="stroke:#181818;stroke-width:0.5;" width="294" x="1130.5" y="734.8105"/><text fill="#000000" font-family="sans-serif" font-size="14" font-style="italic" lengthAdjust="spacing" textLength="62" x="1246.5" y="756.918">&#171;domain&#187;</text><text fill="#000000" font-family="sans-serif" font-size="14" lengthAdjust="spacing" textLength="280" x="1137.5" y="775.5391">theParticipationMeeting:ParticipationMeeting</text><text fill="#000000" font-family="sans-serif" font-size="14" font-style="italic" lengthAdjust="spacing" textLength="79" x="1493" y="105.7285">&#171;repository&#187;</text><text fill="#000000" font-family="sans-serif" font-size="14" lengthAdjust="spacing" textLength="196" x="1434.5" y="124.3496">ParticipationMeetingRepository</text><path d="M1517.5,54.6211 C1517.5,44.6211 1535.5,44.6211 1535.5,44.6211 C1535.5,44.6211 1553.5,44.6211 1553.5,54.6211 L1553.5,80.6211 C1553.5,90.6211 1535.5,90.6211 1535.5,90.6211 C1535.5,90.6211 1517.5,90.6211 1517.5,80.6211 L1517.5,54.6211 " fill="#E3E3E3" style="stroke:#181818;stroke-width:1.5;"/><path d="M1517.5,54.6211 C1517.5,64.6211 1535.5,64.6211 1535.5,64.6211 C1535.5,64.6211 1553.5,64.6211 1553.5,54.6211 " fill="none" style="stroke:#181818;stroke-width:1.5;"/><text fill="#000000" font-family="sans-serif" font-size="14" font-style="italic" lengthAdjust="spacing" textLength="79" x="1493" y="749.918">&#171;repository&#187;</text><text fill="#000000" font-family="sans-serif" font-size="14" lengthAdjust="spacing" textLength="196" x="1434.5" y="768.5391">ParticipationMeetingRepository</text><path d="M1517.5,782.0527 C1517.5,772.0527 1535.5,772.0527 1535.5,772.0527 C1535.5,772.0527 1553.5,772.0527 1553.5,782.0527 L1553.5,808.0527 C1553.5,818.0527 1535.5,818.0527 1535.5,818.0527 C1535.5,818.0527 1517.5,818.0527 1517.5,808.0527 L1517.5,782.0527 " fill="#E3E3E3" style="stroke:#181818;stroke-width:1.5;"/><path d="M1517.5,782.0527 C1517.5,792.0527 1535.5,792.0527 1535.5,792.0527 C1535.5,792.0527 1553.5,792.0527 1553.5,782.0527 " fill="none" style="stroke:#181818;stroke-width:1.5;"/><rect fill="#FFFFFF" height="579.9473" style="stroke:#181818;stroke-width:1.0;" width="10" x="17.5" y="137.8633"/><rect fill="#FFFFFF" height="556.6563" style="stroke:#181818;stroke-width:1.0;" width="10" x="433.5" y="161.1543"/><rect fill="#FFFFFF" height="31.291" style="stroke:#181818;stroke-width:1.0;" width="10" x="988.5" y="223.7363"/><rect fill="#FFFFFF" height="123.873" style="stroke:#181818;stroke-width:1.0;" width="10" x="988.5" y="562.6465"/><rect fill="#FFFFFF" height="30" style="stroke:#181818;stroke-width:1.0;" width="10" x="1272.5" y="593.9375"/><polygon fill="#181818" points="421.5,157.1543,431.5,161.1543,421.5,165.1543,425.5,161.1543" style="stroke:#181818;stroke-width:1.0;"/><line style="stroke:#181818;stroke-width:1.0;" x1="27.5" x2="427.5" y1="161.1543" y2="161.1543"/><text fill="#000000" font-family="sans-serif" font-size="13" font-weight="bold" lengthAdjust="spacing" textLength="7" x="34.5" y="155.8916">1</text><text fill="#000000" font-family="sans-serif" font-size="13" lengthAdjust="spacing" textLength="376" x="45.5" y="155.8916">Pede para aceitar/recusar um convite recebido para uma meeting</text><polygon fill="#181818" points="981.5,188.4453,991.5,192.4453,981.5,196.4453,985.5,192.4453" style="stroke:#181818;stroke-width:1.0;"/><line style="stroke:#181818;stroke-width:1.0;" x1="443.5" x2="987.5" y1="192.4453" y2="192.4453"/><text fill="#000000" font-family="sans-serif" font-size="13" font-weight="bold" lengthAdjust="spacing" textLength="7" x="450.5" y="187.1826">2</text><text fill="#000000" font-family="sans-serif" font-size="13" lengthAdjust="spacing" textLength="36" x="461.5" y="187.1826">create</text><polygon fill="#181818" points="976.5,219.7363,986.5,223.7363,976.5,227.7363,980.5,223.7363" style="stroke:#181818;stroke-width:1.0;"/><line style="stroke:#181818;stroke-width:1.0;" x1="443.5" x2="982.5" y1="223.7363" y2="223.7363"/><text fill="#000000" font-family="sans-serif" font-size="13" font-weight="bold" lengthAdjust="spacing" textLength="7" x="450.5" y="218.4736">3</text><text fill="#000000" font-family="sans-serif" font-size="13" lengthAdjust="spacing" textLength="371" x="461.5" y="218.4736">pendentMeetingRequestList = listUserPendentMeetingRequest()</text><polygon fill="#181818" points="1523.5,251.0273,1533.5,255.0273,1523.5,259.0273,1527.5,255.0273" style="stroke:#181818;stroke-width:1.0;"/><line style="stroke:#181818;stroke-width:1.0;" x1="993.5" x2="1529.5" y1="255.0273" y2="255.0273"/><text fill="#000000" font-family="sans-serif" font-size="13" font-weight="bold" lengthAdjust="spacing" textLength="7" x="1000.5" y="249.7646">4</text><text fill="#000000" font-family="sans-serif" font-size="13" lengthAdjust="spacing" textLength="298" x="1011.5" y="249.7646">findPendentMeetingRequestOfUser(username, now)</text><line style="stroke:#181818;stroke-width:1.0;" x1="443.5" x2="485.5" y1="286.3184" y2="286.3184"/><line style="stroke:#181818;stroke-width:1.0;" x1="485.5" x2="485.5" y1="286.3184" y2="299.3184"/><line style="stroke:#181818;stroke-width:1.0;" x1="444.5" x2="485.5" y1="299.3184" y2="299.3184"/><polygon fill="#181818" points="454.5,295.3184,444.5,299.3184,454.5,303.3184,450.5,299.3184" style="stroke:#181818;stroke-width:1.0;"/><text fill="#000000" font-family="sans-serif" font-size="13" font-weight="bold" lengthAdjust="spacing" textLength="7" x="450.5" y="281.0557">5</text><text fill="#000000" font-family="sans-serif" font-size="13" lengthAdjust="spacing" textLength="520" x="461.5" y="281.0557">Mostra a lista de convites recebidos para participar em meetings que ainda n&#227;o ocorreram</text><polygon fill="#181818" points="38.5,326.6094,28.5,330.6094,38.5,334.6094,34.5,330.6094" style="stroke:#181818;stroke-width:1.0;"/><line style="stroke:#181818;stroke-width:1.0;stroke-dasharray:2.0,2.0;" x1="32.5" x2="432.5" y1="330.6094" y2="330.6094"/><text fill="#000000" font-family="sans-serif" font-size="13" font-weight="bold" lengthAdjust="spacing" textLength="7" x="44.5" y="325.3467">6</text><text fill="#000000" font-family="sans-serif" font-size="13" lengthAdjust="spacing" textLength="339" x="55.5" y="325.3467">Pede para escolher um convite recebido para uma meeting</text><polygon fill="#181818" points="421.5,357.9004,431.5,361.9004,421.5,365.9004,425.5,361.9004" style="stroke:#181818;stroke-width:1.0;"/><line style="stroke:#181818;stroke-width:1.0;" x1="27.5" x2="427.5" y1="361.9004" y2="361.9004"/><text fill="#000000" font-family="sans-serif" font-size="13" font-weight="bold" lengthAdjust="spacing" textLength="7" x="34.5" y="356.6377">7</text><text fill="#000000" font-family="sans-serif" font-size="13" lengthAdjust="spacing" textLength="253" x="45.5" y="356.6377">Escolhe um convite para uma dada meeting</text><polygon fill="#181818" points="38.5,389.1914,28.5,393.1914,38.5,397.1914,34.5,393.1914" style="stroke:#181818;stroke-width:1.0;"/><line style="stroke:#181818;stroke-width:1.0;stroke-dasharray:2.0,2.0;" x1="32.5" x2="432.5" y1="393.1914" y2="393.1914"/><text fill="#000000" font-family="sans-serif" font-size="13" font-weight="bold" lengthAdjust="spacing" textLength="7" x="44.5" y="387.9287">8</text><text fill="#000000" font-family="sans-serif" font-size="13" lengthAdjust="spacing" textLength="357" x="55.5" y="387.9287">Pede para selecionar se pretende aceitar ou recusar o convite</text><polygon fill="#181818" points="421.5,420.4824,431.5,424.4824,421.5,428.4824,425.5,424.4824" style="stroke:#181818;stroke-width:1.0;"/><line style="stroke:#181818;stroke-width:1.0;" x1="27.5" x2="427.5" y1="424.4824" y2="424.4824"/><text fill="#000000" font-family="sans-serif" font-size="13" font-weight="bold" lengthAdjust="spacing" textLength="7" x="34.5" y="419.2197">9</text><text fill="#000000" font-family="sans-serif" font-size="13" lengthAdjust="spacing" textLength="292" x="45.5" y="419.2197">Seleciona se pretende aceitar ou recusar o convite</text><line style="stroke:#181818;stroke-width:1.0;" x1="443.5" x2="485.5" y1="455.7734" y2="455.7734"/><line style="stroke:#181818;stroke-width:1.0;" x1="485.5" x2="485.5" y1="455.7734" y2="468.7734"/><line style="stroke:#181818;stroke-width:1.0;" x1="444.5" x2="485.5" y1="468.7734" y2="468.7734"/><polygon fill="#181818" points="454.5,464.7734,444.5,468.7734,454.5,472.7734,450.5,468.7734" style="stroke:#181818;stroke-width:1.0;"/><text fill="#000000" font-family="sans-serif" font-size="13" font-weight="bold" lengthAdjust="spacing" textLength="14" x="450.5" y="450.5107">10</text><text fill="#000000" font-family="sans-serif" font-size="13" lengthAdjust="spacing" textLength="229" x="468.5" y="450.5107">Mostra os dados da opera&#231;&#227;o a realizar</text><polygon fill="#181818" points="38.5,496.0645,28.5,500.0645,38.5,504.0645,34.5,500.0645" style="stroke:#181818;stroke-width:1.0;"/><line style="stroke:#181818;stroke-width:1.0;stroke-dasharray:2.0,2.0;" x1="32.5" x2="432.5" y1="500.0645" y2="500.0645"/><text fill="#000000" font-family="sans-serif" font-size="13" font-weight="bold" lengthAdjust="spacing" textLength="14" x="44.5" y="494.8018">11</text><text fill="#000000" font-family="sans-serif" font-size="13" lengthAdjust="spacing" textLength="104" x="62.5" y="494.8018">Pede confirma&#231;&#227;o</text><polygon fill="#181818" points="421.5,527.3555,431.5,531.3555,421.5,535.3555,425.5,531.3555" style="stroke:#181818;stroke-width:1.0;"/><line style="stroke:#181818;stroke-width:1.0;" x1="27.5" x2="427.5" y1="531.3555" y2="531.3555"/><text fill="#000000" font-family="sans-serif" font-size="13" font-weight="bold" lengthAdjust="spacing" textLength="14" x="34.5" y="526.0928">12</text><text fill="#000000" font-family="sans-serif" font-size="13" lengthAdjust="spacing" textLength="119" x="52.5" y="526.0928">Confirma a opera&#231;&#227;o</text><polygon fill="#181818" points="976.5,558.6465,986.5,562.6465,976.5,566.6465,980.5,562.6465" style="stroke:#181818;stroke-width:1.0;"/><line style="stroke:#181818;stroke-width:1.0;" x1="443.5" x2="982.5" y1="562.6465" y2="562.6465"/><text fill="#000000" font-family="sans-serif" font-size="13" font-weight="bold" lengthAdjust="spacing" textLength="14" x="450.5" y="557.3838">13</text><text fill="#000000" font-family="sans-serif" font-size="13" lengthAdjust="spacing" textLength="288" x="468.5" y="557.3838">acceptMeeting(theParticipationMeeting, yesOrNo)</text><polygon fill="#181818" points="1260.5,589.9375,1270.5,593.9375,1260.5,597.9375,1264.5,593.9375" style="stroke:#181818;stroke-width:1.0;"/><line style="stroke:#181818;stroke-width:1.0;" x1="998.5" x2="1266.5" y1="593.9375" y2="593.9375"/><text fill="#000000" font-family="sans-serif" font-size="13" font-weight="bold" lengthAdjust="spacing" textLength="14" x="1005.5" y="588.6748">14</text><text fill="#000000" font-family="sans-serif" font-size="13" lengthAdjust="spacing" textLength="144" x="1023.5" y="588.6748">acceptMeeting(yesOrNo)</text><polygon fill="#181818" points="1523.5,651.2285,1533.5,655.2285,1523.5,659.2285,1527.5,655.2285" style="stroke:#181818;stroke-width:1.0;"/><line style="stroke:#181818;stroke-width:1.0;" x1="998.5" x2="1529.5" y1="655.2285" y2="655.2285"/><text fill="#000000" font-family="sans-serif" font-size="13" font-weight="bold" lengthAdjust="spacing" textLength="14" x="1005.5" y="649.9658">15</text><text fill="#000000" font-family="sans-serif" font-size="13" lengthAdjust="spacing" textLength="170" x="1023.5" y="649.9658">save(theParticipationMeeting)</text><polygon fill="#181818" points="454.5,682.5195,444.5,686.5195,454.5,690.5195,450.5,686.5195" style="stroke:#181818;stroke-width:1.0;"/><line style="stroke:#181818;stroke-width:1.0;stroke-dasharray:2.0,2.0;" x1="448.5" x2="992.5" y1="686.5195" y2="686.5195"/><text fill="#000000" font-family="sans-serif" font-size="13" font-weight="bold" lengthAdjust="spacing" textLength="14" x="460.5" y="681.2568">16</text><text fill="#000000" font-family="sans-serif" font-size="13" lengthAdjust="spacing" textLength="136" x="478.5" y="681.2568">theParticipationMeeting</text><polygon fill="#181818" points="33.5,713.8105,23.5,717.8105,33.5,721.8105,29.5,717.8105" style="stroke:#181818;stroke-width:1.0;"/><line style="stroke:#181818;stroke-width:1.0;stroke-dasharray:2.0,2.0;" x1="27.5" x2="437.5" y1="717.8105" y2="717.8105"/><text fill="#000000" font-family="sans-serif" font-size="13" font-weight="bold" lengthAdjust="spacing" textLength="14" x="39.5" y="712.5479">17</text><text fill="#000000" font-family="sans-serif" font-size="13" lengthAdjust="spacing" textLength="181" x="57.5" y="712.5479">Informa o sucesso da opera&#231;&#227;o</text><!--SRC=[bLJ1Rjim3BthAuYS4g352cod82imj3iKMDUWHZw0bPb4gorwafmY-vqTzY7ziL5sx3YDdRG-E5P4laUzHye_6rkWmnnojgpNZdE2u4fIljqfK3_ZYfAmpGWSwO1sbNK3_1fJVZ5s1KlCF2aLJ93GPEi3vP3GxvAi9hWrk8hXuoIvdS0bB1BuSdNrMM4Ps9Rv4pcbK0TsC5fuSYD03_532KimsXHe0tpJcehmIB-aZdkY8AoFaS27nLrCA0tCPeKZJpPWC6olhvLc6nnd9t9lweYCNCJG-zLiXaMH6Tr0TKiPXJNDctNSts5E-_wiJbFqR0X5oZcQY9vYm2Vq17q8ZrImDoBFTWYg4p6RkNOXm55Niy50jQ0Av8bVS7aT5Pl2d5AAc0YeoGHqdyJeqgE3CezwR4oelASdat8TMEO8UKrSuRKKfQdMyH5iOUZeEGNjI8BKgP22R2hs7Lhqm_W0No6JdrZvl2zcF6bXsshsoErUz-aGInbdL9t2qjYqb_fX6QiQb_AocDC5M7wP736cr5VN6oqgG-xPX-X6TM2KnCO5tzhWQn_QcXt8jEqSyI1LWNHLYc1V_pAmPkT8nk-GJUYgFkXs07dDsPhUQNqBTz1FtskCBaIRcM9ws3cdYl6KaHOpv7Go5pBO8QhVT2bm2KsZSiCqK5BI8BqVQDWN4L-EKRs12z7rzLzK6GK4C_C7tQc32VpIkBpE6QZsPXS3NVoJKuFLxRRhol70tNG1M_8FxYU_VrBEJyWH-H770KyVX1gOahEn7vnVZniQqcOo2DoOCf2eFZ3U-rQuiqkE1ZFuKfFtVDXBwWsWtAggiwpkyVy0]--></g></svg>