<?xml version="1.0" encoding="us-ascii" standalone="no"?><svg xmlns="http://www.w3.org/2000/svg" xmlns:xlink="http://www.w3.org/1999/xlink" contentStyleType="text/css" height="1040px" preserveAspectRatio="none" style="width:1653px;height:1040px;background:#FFFFFF;" version="1.1" viewBox="0 0 1653 1040" width="1653px" zoomAndPan="magnify"><defs/><g><text fill="#000000" font-family="sans-serif" font-size="14" font-weight="bold" lengthAdjust="spacing" textLength="296" x="679.75" y="30.1074">System Sequence Diagram (SSD) - US 4003</text><rect fill="#FFFFFF" height="785.0332" style="stroke:#181818;stroke-width:1.0;" width="10" x="17.5" y="137.8633"/><rect fill="#FFFFFF" height="761.7422" style="stroke:#181818;stroke-width:1.0;" width="10" x="433.5" y="161.1543"/><rect fill="#FFFFFF" height="31.291" style="stroke:#181818;stroke-width:1.0;" width="10" x="988.5" y="223.7363"/><rect fill="#FFFFFF" height="123.873" style="stroke:#181818;stroke-width:1.0;" width="10" x="988.5" y="588.9375"/><rect fill="#FFFFFF" height="123.873" style="stroke:#181818;stroke-width:1.0;" width="10" x="988.5" y="760.7324"/><rect fill="#FFFFFF" height="30" style="stroke:#181818;stroke-width:1.0;" width="10" x="1272.5" y="620.2285"/><rect fill="#FFFFFF" height="30" style="stroke:#181818;stroke-width:1.0;" width="10" x="1272.5" y="792.0234"/><rect fill="none" height="346.25" style="stroke:#000000;stroke-width:1.5;" width="1324" x="322.5" y="546.3555"/><line style="stroke:#181818;stroke-width:0.5;stroke-dasharray:5.0,5.0;" x1="22" x2="22" y1="127.8633" y2="940.8965"/><line style="stroke:#181818;stroke-width:0.5;stroke-dasharray:5.0,5.0;" x1="438.5" x2="438.5" y1="127.8633" y2="940.8965"/><line style="stroke:#181818;stroke-width:0.5;stroke-dasharray:5.0,5.0;" x1="993.5" x2="993.5" y1="127.8633" y2="940.8965"/><line style="stroke:#181818;stroke-width:0.5;stroke-dasharray:5.0,5.0;" x1="1277.5" x2="1277.5" y1="127.8633" y2="940.8965"/><line style="stroke:#181818;stroke-width:0.5;stroke-dasharray:5.0,5.0;" x1="1535.5" x2="1535.5" y1="127.8633" y2="940.8965"/><text fill="#000000" font-family="sans-serif" font-size="14" lengthAdjust="spacing" textLength="29" x="5" y="124.3496">User</text><ellipse cx="22.5" cy="57.7422" fill="#E3E3E3" rx="8" ry="8" style="stroke:#181818;stroke-width:0.5;"/><path d="M22.5,65.7422 L22.5,92.7422 M9.5,73.7422 L35.5,73.7422 M22.5,92.7422 L9.5,107.7422 M22.5,92.7422 L35.5,107.7422 " fill="none" style="stroke:#181818;stroke-width:0.5;"/><text fill="#000000" font-family="sans-serif" font-size="14" lengthAdjust="spacing" textLength="29" x="5" y="955.0039">User</text><ellipse cx="22.5" cy="967.0176" fill="#E3E3E3" rx="8" ry="8" style="stroke:#181818;stroke-width:0.5;"/><path d="M22.5,975.0176 L22.5,1002.0176 M9.5,983.0176 L35.5,983.0176 M22.5,1002.0176 L9.5,1017.0176 M22.5,1002.0176 L35.5,1017.0176 " fill="none" style="stroke:#181818;stroke-width:0.5;"/><rect fill="#E3E3E3" height="51.2422" rx="2.5" ry="2.5" style="stroke:#181818;stroke-width:0.5;" width="212" x="332.5" y="75.6211"/><text fill="#000000" font-family="sans-serif" font-size="14" font-style="italic" lengthAdjust="spacing" textLength="95" x="391" y="97.7285">&#171;presentation&#187;</text><text fill="#000000" font-family="sans-serif" font-size="14" lengthAdjust="spacing" textLength="198" x="339.5" y="116.3496">AcceptRejectMeetingRequestUI</text><rect fill="#E3E3E3" height="51.2422" rx="2.5" ry="2.5" style="stroke:#181818;stroke-width:0.5;" width="212" x="332.5" y="939.8965"/><text fill="#000000" font-family="sans-serif" font-size="14" font-style="italic" lengthAdjust="spacing" textLength="95" x="391" y="962.0039">&#171;presentation&#187;</text><text fill="#000000" font-family="sans-serif" font-size="14" lengthAdjust="spacing" textLength="198" x="339.5" y="980.625">AcceptRejectMeetingRequestUI</text><text fill="#000000" font-family="sans-serif" font-size="14" font-style="italic" lengthAdjust="spacing" textLength="84" x="948.5" y="105.7285">&#171;application&#187;</text><text fill="#000000" font-family="sans-serif" font-size="14" lengthAdjust="spacing" textLength="248" x="866.5" y="124.3496">AcceptRejectMeetingRequestController</text><ellipse cx="993.5" cy="74.6211" fill="#E3E3E3" rx="12" ry="12" style="stroke:#181818;stroke-width:0.5;"/><polygon fill="#181818" points="989.5,62.6211,995.5,57.6211,993.5,62.6211,995.5,67.6211,989.5,62.6211" style="stroke:#181818;stroke-width:1.0;"/><text fill="#000000" font-family="sans-serif" font-size="14" font-style="italic" lengthAdjust="spacing" textLength="84" x="948.5" y="955.0039">&#171;application&#187;</text><text fill="#000000" font-family="sans-serif" font-size="14" lengthAdjust="spacing" textLength="248" x="866.5" y="973.625">AcceptRejectMeetingRequestController</text><ellipse cx="993.5" cy="993.1387" fill="#E3E3E3" rx="12" ry="12" style="stroke:#181818;stroke-width:0.5;"/><polygon fill="#181818" points="989.5,981.1387,995.5,976.1387,993.5,981.1387,995.5,986.1387,989.5,981.1387" style="stroke:#181818;stroke-width:1.0;"/><rect fill="#E3E3E3" height="51.2422" rx="2.5" ry="2.5" style="stroke:#181818;stroke-width:0.5;" width="294" x="1130.5" y="75.6211"/><text fill="#000000" font-family="sans-serif" font-size="14" font-style="italic" lengthAdjust="spacing" textLength="62" x="1246.5" y="97.7285">&#171;domain&#187;</text><text fill="#000000" font-family="sans-serif" font-size="14" lengthAdjust="spacing" textLength="280" x="1137.5" y="116.3496">theParticipationMeeting:ParticipationMeeting</text><rect fill="#E3E3E3" height="51.2422" rx="2.5" ry="2.5" style="stroke:#181818;stroke-width:0.5;" width="294" x="1130.5" y="939.8965"/><text fill="#000000" font-family="sans-serif" font-size="14" font-style="italic" lengthAdjust="spacing" textLength="62" x="1246.5" y="962.0039">&#171;domain&#187;</text><text fill="#000000" font-family="sans-serif" font-size="14" lengthAdjust="spacing" textLength="280" x="1137.5" y="980.625">theParticipationMeeting:ParticipationMeeting</text><text fill="#000000" font-family="sans-serif" font-size="14" font-style="italic" lengthAdjust="spacing" textLength="79" x="1493" y="105.7285">&#171;repository&#187;</text><text fill="#000000" font-family="sans-serif" font-size="14" lengthAdjust="spacing" textLength="196" x="1434.5" y="124.3496">ParticipationMeetingRepository</text><path d="M1517.5,54.6211 C1517.5,44.6211 1535.5,44.6211 1535.5,44.6211 C1535.5,44.6211 1553.5,44.6211 1553.5,54.6211 L1553.5,80.6211 C1553.5,90.6211 1535.5,90.6211 1535.5,90.6211 C1535.5,90.6211 1517.5,90.6211 1517.5,80.6211 L1517.5,54.6211 " fill="#E3E3E3" style="stroke:#181818;stroke-width:1.5;"/><path d="M1517.5,54.6211 C1517.5,64.6211 1535.5,64.6211 1535.5,64.6211 C1535.5,64.6211 1553.5,64.6211 1553.5,54.6211 " fill="none" style="stroke:#181818;stroke-width:1.5;"/><text fill="#000000" font-family="sans-serif" font-size="14" font-style="italic" lengthAdjust="spacing" textLength="79" x="1493" y="955.0039">&#171;repository&#187;</text><text fill="#000000" font-family="sans-serif" font-size="14" lengthAdjust="spacing" textLength="196" x="1434.5" y="973.625">ParticipationMeetingRepository</text><path d="M1517.5,987.1387 C1517.5,977.1387 1535.5,977.1387 1535.5,977.1387 C1535.5,977.1387 1553.5,977.1387 1553.5,987.1387 L1553.5,1013.1387 C1553.5,1023.1387 1535.5,1023.1387 1535.5,1023.1387 C1535.5,1023.1387 1517.5,1023.1387 1517.5,1013.1387 L1517.5,987.1387 " fill="#E3E3E3" style="stroke:#181818;stroke-width:1.5;"/><path d="M1517.5,987.1387 C1517.5,997.1387 1535.5,997.1387 1535.5,997.1387 C1535.5,997.1387 1553.5,997.1387 1553.5,987.1387 " fill="none" style="stroke:#181818;stroke-width:1.5;"/><rect fill="#FFFFFF" height="785.0332" style="stroke:#181818;stroke-width:1.0;" width="10" x="17.5" y="137.8633"/><rect fill="#FFFFFF" height="761.7422" style="stroke:#181818;stroke-width:1.0;" width="10" x="433.5" y="161.1543"/><rect fill="#FFFFFF" height="31.291" style="stroke:#181818;stroke-width:1.0;" width="10" x="988.5" y="223.7363"/><rect fill="#FFFFFF" height="123.873" style="stroke:#181818;stroke-width:1.0;" width="10" x="988.5" y="588.9375"/><rect fill="#FFFFFF" height="123.873" style="stroke:#181818;stroke-width:1.0;" width="10" x="988.5" y="760.7324"/><rect fill="#FFFFFF" height="30" style="stroke:#181818;stroke-width:1.0;" width="10" x="1272.5" y="620.2285"/><rect fill="#FFFFFF" height="30" style="stroke:#181818;stroke-width:1.0;" width="10" x="1272.5" y="792.0234"/><polygon fill="#181818" points="421.5,157.1543,431.5,161.1543,421.5,165.1543,425.5,161.1543" style="stroke:#181818;stroke-width:1.0;"/><line style="stroke:#181818;stroke-width:1.0;" x1="27.5" x2="427.5" y1="161.1543" y2="161.1543"/><text fill="#000000" font-family="sans-serif" font-size="13" font-weight="bold" lengthAdjust="spacing" textLength="7" x="34.5" y="155.8916">1</text><text fill="#000000" font-family="sans-serif" font-size="13" lengthAdjust="spacing" textLength="376" x="45.5" y="155.8916">Pede para aceitar/recusar um convite recebido para uma meeting</text><polygon fill="#181818" points="981.5,188.4453,991.5,192.4453,981.5,196.4453,985.5,192.4453" style="stroke:#181818;stroke-width:1.0;"/><line style="stroke:#181818;stroke-width:1.0;" x1="443.5" x2="987.5" y1="192.4453" y2="192.4453"/><text fill="#000000" font-family="sans-serif" font-size="13" font-weight="bold" lengthAdjust="spacing" textLength="7" x="450.5" y="187.1826">2</text><text fill="#000000" font-family="sans-serif" font-size="13" lengthAdjust="spacing" textLength="36" x="461.5" y="187.1826">create</text><polygon fill="#181818" points="976.5,219.7363,986.5,223.7363,976.5,227.7363,980.5,223.7363" style="stroke:#181818;stroke-width:1.0;"/><line style="stroke:#181818;stroke-width:1.0;" x1="443.5" x2="982.5" y1="223.7363" y2="223.7363"/><text fill="#000000" font-family="sans-serif" font-size="13" font-weight="bold" lengthAdjust="spacing" textLength="7" x="450.5" y="218.4736">3</text><text fill="#000000" font-family="sans-serif" font-size="13" lengthAdjust="spacing" textLength="364" x="461.5" y="218.4736">pendentMeetingRquestList = listUserPendentMeetingRequest()</text><polygon fill="#181818" points="1523.5,251.0273,1533.5,255.0273,1523.5,259.0273,1527.5,255.0273" style="stroke:#181818;stroke-width:1.0;"/><line style="stroke:#181818;stroke-width:1.0;" x1="993.5" x2="1529.5" y1="255.0273" y2="255.0273"/><text fill="#000000" font-family="sans-serif" font-size="13" font-weight="bold" lengthAdjust="spacing" textLength="7" x="1000.5" y="249.7646">4</text><text fill="#000000" font-family="sans-serif" font-size="13" lengthAdjust="spacing" textLength="298" x="1011.5" y="249.7646">findPendentMeetingRequestOfUser(username, now)</text><line style="stroke:#181818;stroke-width:1.0;" x1="443.5" x2="485.5" y1="286.3184" y2="286.3184"/><line style="stroke:#181818;stroke-width:1.0;" x1="485.5" x2="485.5" y1="286.3184" y2="299.3184"/><line style="stroke:#181818;stroke-width:1.0;" x1="444.5" x2="485.5" y1="299.3184" y2="299.3184"/><polygon fill="#181818" points="454.5,295.3184,444.5,299.3184,454.5,303.3184,450.5,299.3184" style="stroke:#181818;stroke-width:1.0;"/><text fill="#000000" font-family="sans-serif" font-size="13" font-weight="bold" lengthAdjust="spacing" textLength="7" x="450.5" y="281.0557">5</text><text fill="#000000" font-family="sans-serif" font-size="13" lengthAdjust="spacing" textLength="520" x="461.5" y="281.0557">Mostra a lista de convites recebidos para participar em meetings que ainda n&#227;o ocorreram</text><polygon fill="#181818" points="38.5,326.6094,28.5,330.6094,38.5,334.6094,34.5,330.6094" style="stroke:#181818;stroke-width:1.0;"/><line style="stroke:#181818;stroke-width:1.0;stroke-dasharray:2.0,2.0;" x1="32.5" x2="432.5" y1="330.6094" y2="330.6094"/><text fill="#000000" font-family="sans-serif" font-size="13" font-weight="bold" lengthAdjust="spacing" textLength="7" x="44.5" y="325.3467">6</text><text fill="#000000" font-family="sans-serif" font-size="13" lengthAdjust="spacing" textLength="339" x="55.5" y="325.3467">Pede para escolher um convite recebido para uma meeting</text><polygon fill="#181818" points="421.5,357.9004,431.5,361.9004,421.5,365.9004,425.5,361.9004" style="stroke:#181818;stroke-width:1.0;"/><line style="stroke:#181818;stroke-width:1.0;" x1="27.5" x2="427.5" y1="361.9004" y2="361.9004"/><text fill="#000000" font-family="sans-serif" font-size="13" font-weight="bold" lengthAdjust="spacing" textLength="7" x="34.5" y="356.6377">7</text><text fill="#000000" font-family="sans-serif" font-size="13" lengthAdjust="spacing" textLength="253" x="45.5" y="356.6377">Escolhe um convite para uma dada meeting</text><polygon fill="#181818" points="38.5,389.1914,28.5,393.1914,38.5,397.1914,34.5,393.1914" style="stroke:#181818;stroke-width:1.0;"/><line style="stroke:#181818;stroke-width:1.0;stroke-dasharray:2.0,2.0;" x1="32.5" x2="432.5" y1="393.1914" y2="393.1914"/><text fill="#000000" font-family="sans-serif" font-size="13" font-weight="bold" lengthAdjust="spacing" textLength="7" x="44.5" y="387.9287">8</text><text fill="#000000" font-family="sans-serif" font-size="13" lengthAdjust="spacing" textLength="357" x="55.5" y="387.9287">Pede para selecionar se pretende aceitar ou recusar o convite</text><polygon fill="#181818" points="421.5,420.4824,431.5,424.4824,421.5,428.4824,425.5,424.4824" style="stroke:#181818;stroke-width:1.0;"/><line style="stroke:#181818;stroke-width:1.0;" x1="27.5" x2="427.5" y1="424.4824" y2="424.4824"/><text fill="#000000" font-family="sans-serif" font-size="13" font-weight="bold" lengthAdjust="spacing" textLength="7" x="34.5" y="419.2197">9</text><text fill="#000000" font-family="sans-serif" font-size="13" lengthAdjust="spacing" textLength="292" x="45.5" y="419.2197">Seleciona se pretende aceitar ou recusar o convite</text><line style="stroke:#181818;stroke-width:1.0;" x1="443.5" x2="485.5" y1="455.7734" y2="455.7734"/><line style="stroke:#181818;stroke-width:1.0;" x1="485.5" x2="485.5" y1="455.7734" y2="468.7734"/><line style="stroke:#181818;stroke-width:1.0;" x1="444.5" x2="485.5" y1="468.7734" y2="468.7734"/><polygon fill="#181818" points="454.5,464.7734,444.5,468.7734,454.5,472.7734,450.5,468.7734" style="stroke:#181818;stroke-width:1.0;"/><text fill="#000000" font-family="sans-serif" font-size="13" font-weight="bold" lengthAdjust="spacing" textLength="14" x="450.5" y="450.5107">10</text><text fill="#000000" font-family="sans-serif" font-size="13" lengthAdjust="spacing" textLength="229" x="468.5" y="450.5107">Mostra os dados da opera&#231;&#227;o a realizar</text><polygon fill="#181818" points="38.5,496.0645,28.5,500.0645,38.5,504.0645,34.5,500.0645" style="stroke:#181818;stroke-width:1.0;"/><line style="stroke:#181818;stroke-width:1.0;stroke-dasharray:2.0,2.0;" x1="32.5" x2="432.5" y1="500.0645" y2="500.0645"/><text fill="#000000" font-family="sans-serif" font-size="13" font-weight="bold" lengthAdjust="spacing" textLength="14" x="44.5" y="494.8018">11</text><text fill="#000000" font-family="sans-serif" font-size="13" lengthAdjust="spacing" textLength="104" x="62.5" y="494.8018">Pede confirma&#231;&#227;o</text><polygon fill="#181818" points="421.5,527.3555,431.5,531.3555,421.5,535.3555,425.5,531.3555" style="stroke:#181818;stroke-width:1.0;"/><line style="stroke:#181818;stroke-width:1.0;" x1="27.5" x2="427.5" y1="531.3555" y2="531.3555"/><text fill="#000000" font-family="sans-serif" font-size="13" font-weight="bold" lengthAdjust="spacing" textLength="14" x="34.5" y="526.0928">12</text><text fill="#000000" font-family="sans-serif" font-size="13" lengthAdjust="spacing" textLength="119" x="52.5" y="526.0928">Confirma a opera&#231;&#227;o</text><path d="M322.5,546.3555 L383.5,546.3555 L383.5,555.6465 L373.5,565.6465 L322.5,565.6465 L322.5,546.3555 " fill="#EEEEEE" style="stroke:#000000;stroke-width:1.5;"/><rect fill="none" height="346.25" style="stroke:#000000;stroke-width:1.5;" width="1324" x="322.5" y="546.3555"/><text fill="#000000" font-family="sans-serif" font-size="13" font-weight="bold" lengthAdjust="spacing" textLength="16" x="337.5" y="561.3838">alt</text><text fill="#000000" font-family="sans-serif" font-size="11" font-weight="bold" lengthAdjust="spacing" textLength="172" x="398.5" y="560.2256">[Se escolher aceitar a meeting]</text><polygon fill="#181818" points="976.5,584.9375,986.5,588.9375,976.5,592.9375,980.5,588.9375" style="stroke:#181818;stroke-width:1.0;"/><line style="stroke:#181818;stroke-width:1.0;" x1="443.5" x2="982.5" y1="588.9375" y2="588.9375"/><text fill="#000000" font-family="sans-serif" font-size="13" font-weight="bold" lengthAdjust="spacing" textLength="14" x="450.5" y="583.6748">13</text><text fill="#000000" font-family="sans-serif" font-size="13" lengthAdjust="spacing" textLength="229" x="468.5" y="583.6748">acceptMeeting(theParticipationMeeting)</text><polygon fill="#181818" points="1260.5,616.2285,1270.5,620.2285,1260.5,624.2285,1264.5,620.2285" style="stroke:#181818;stroke-width:1.0;"/><line style="stroke:#181818;stroke-width:1.0;" x1="998.5" x2="1266.5" y1="620.2285" y2="620.2285"/><text fill="#000000" font-family="sans-serif" font-size="13" font-weight="bold" lengthAdjust="spacing" textLength="14" x="1005.5" y="614.9658">14</text><text fill="#000000" font-family="sans-serif" font-size="13" lengthAdjust="spacing" textLength="93" x="1023.5" y="614.9658">acceptMeeting()</text><polygon fill="#181818" points="1523.5,677.5195,1533.5,681.5195,1523.5,685.5195,1527.5,681.5195" style="stroke:#181818;stroke-width:1.0;"/><line style="stroke:#181818;stroke-width:1.0;" x1="998.5" x2="1529.5" y1="681.5195" y2="681.5195"/><text fill="#000000" font-family="sans-serif" font-size="13" font-weight="bold" lengthAdjust="spacing" textLength="14" x="1005.5" y="676.2568">15</text><text fill="#000000" font-family="sans-serif" font-size="13" lengthAdjust="spacing" textLength="170" x="1023.5" y="676.2568">save(theParticipationMeeting)</text><polygon fill="#181818" points="454.5,708.8105,444.5,712.8105,454.5,716.8105,450.5,712.8105" style="stroke:#181818;stroke-width:1.0;"/><line style="stroke:#181818;stroke-width:1.0;stroke-dasharray:2.0,2.0;" x1="448.5" x2="992.5" y1="712.8105" y2="712.8105"/><text fill="#000000" font-family="sans-serif" font-size="13" font-weight="bold" lengthAdjust="spacing" textLength="14" x="460.5" y="707.5479">16</text><text fill="#000000" font-family="sans-serif" font-size="13" lengthAdjust="spacing" textLength="136" x="478.5" y="707.5479">theParticipationMeeting</text><line style="stroke:#000000;stroke-width:1.0;stroke-dasharray:2.0,2.0;" x1="322.5" x2="1646.5" y1="721.8105" y2="721.8105"/><text fill="#000000" font-family="sans-serif" font-size="11" font-weight="bold" lengthAdjust="spacing" textLength="178" x="327.5" y="733.6807">[Se escolher recusar a meeting]</text><polygon fill="#181818" points="976.5,756.7324,986.5,760.7324,976.5,764.7324,980.5,760.7324" style="stroke:#181818;stroke-width:1.0;"/><line style="stroke:#181818;stroke-width:1.0;" x1="443.5" x2="982.5" y1="760.7324" y2="760.7324"/><text fill="#000000" font-family="sans-serif" font-size="13" font-weight="bold" lengthAdjust="spacing" textLength="14" x="450.5" y="755.4697">17</text><text fill="#000000" font-family="sans-serif" font-size="13" lengthAdjust="spacing" textLength="225" x="468.5" y="755.4697">refuseMeeting(theParticipationMeeting)</text><polygon fill="#181818" points="1260.5,788.0234,1270.5,792.0234,1260.5,796.0234,1264.5,792.0234" style="stroke:#181818;stroke-width:1.0;"/><line style="stroke:#181818;stroke-width:1.0;" x1="998.5" x2="1266.5" y1="792.0234" y2="792.0234"/><text fill="#000000" font-family="sans-serif" font-size="13" font-weight="bold" lengthAdjust="spacing" textLength="14" x="1005.5" y="786.7607">18</text><text fill="#000000" font-family="sans-serif" font-size="13" lengthAdjust="spacing" textLength="89" x="1023.5" y="786.7607">refuseMeeting()</text><polygon fill="#181818" points="1523.5,849.3145,1533.5,853.3145,1523.5,857.3145,1527.5,853.3145" style="stroke:#181818;stroke-width:1.0;"/><line style="stroke:#181818;stroke-width:1.0;" x1="998.5" x2="1529.5" y1="853.3145" y2="853.3145"/><text fill="#000000" font-family="sans-serif" font-size="13" font-weight="bold" lengthAdjust="spacing" textLength="14" x="1005.5" y="848.0518">19</text><text fill="#000000" font-family="sans-serif" font-size="13" lengthAdjust="spacing" textLength="170" x="1023.5" y="848.0518">save(theParticipationMeeting)</text><polygon fill="#181818" points="454.5,880.6055,444.5,884.6055,454.5,888.6055,450.5,884.6055" style="stroke:#181818;stroke-width:1.0;"/><line style="stroke:#181818;stroke-width:1.0;stroke-dasharray:2.0,2.0;" x1="448.5" x2="992.5" y1="884.6055" y2="884.6055"/><text fill="#000000" font-family="sans-serif" font-size="13" font-weight="bold" lengthAdjust="spacing" textLength="14" x="460.5" y="879.3428">20</text><text fill="#000000" font-family="sans-serif" font-size="13" lengthAdjust="spacing" textLength="136" x="478.5" y="879.3428">theParticipationMeeting</text><polygon fill="#181818" points="33.5,918.8965,23.5,922.8965,33.5,926.8965,29.5,922.8965" style="stroke:#181818;stroke-width:1.0;"/><line style="stroke:#181818;stroke-width:1.0;stroke-dasharray:2.0,2.0;" x1="27.5" x2="437.5" y1="922.8965" y2="922.8965"/><text fill="#000000" font-family="sans-serif" font-size="13" font-weight="bold" lengthAdjust="spacing" textLength="14" x="39.5" y="917.6338">21</text><text fill="#000000" font-family="sans-serif" font-size="13" lengthAdjust="spacing" textLength="181" x="57.5" y="917.6338">Informa o sucesso da opera&#231;&#227;o</text><!--SRC=[xLL1Rjim4Bpp5GkVRA110xGdmmrG93q4QD30WX-meTOs6ubKoLK2zpizz27vM9UI9KknvBYdNgg3B9hBcTqPBXaUZItGOmwviqvllSi9s9UaGZjJe7x43IMyomWyQKQxoRe1OOkfUpPs0slC0Yd5XYKqsGMc71BwKPBL13S6Dp5ycYGtCxY0LG8VBoy_A2pPsJ9_8AyKQdOU9gj0VW8O87ueOM6ZJO6MuRFMLF2IlaiUTqGihCj847Xr6nUK1XQBmbCWoyZ6sQihfPrbxx8JQw_hY8nynD27qMA1HP4PtK1rKvdmbkwRSPpVOyw7_gogAGOcX29rEPg8dYBZ0mQ28OGb5IuOaMSt1jM9M2nyEn3WgAjvGgPQK0Non2-uk8gApU6UKegO2AZ9CFhtOdGPq4EPHpsU35VUquD9NHrOvWXvJLpXjHIbgSRn4MnXwEWv1-r9WjIfa89iAlOrLLKEVJM1uHDayXCJl- -7r2vEPorgcym1k9sBJuTFsDyGSmvhOzD1oc_hcCsqb9V5dDw1TS-7B58QokDLwPN-Tovm5Byg46LX8tfeLG-rx6sk7gIvzWO4a6n0Db6AO5z-EN3QUK_IRNqseQjixnfEGRjiIsSwtSBrji-N6gCBqQvCCUrlb5F91Cf8YmbIdRI1z357rPjD2Qw4Pb-wXcaafQH1EXzet1SHNygetk0AqVNbTrGP1GGpynFzgS84VcryNgyPoVPw7mDT_4CiPYm57QngoZWMTgIbi3hwzdjtEd9mpNeeRxNGUMrqn3qx0cc9XjOVHNTwwgpul-pqW4zqdZwlmHihHnQhaI86r2MvH7jsDrlrRBizhUL8-ZTszxd_s_sstJOTEwLlxTh5Ky51A3M5uFe7a7e5BZUlwWohk_uF]--></g></svg>