<?xml version="1.0" encoding="us-ascii" standalone="no"?><svg xmlns="http://www.w3.org/2000/svg" xmlns:xlink="http://www.w3.org/1999/xlink" contentStyleType="text/css" height="1102px" preserveAspectRatio="none" style="width:1884px;height:1102px;background:#FFFFFF;" version="1.1" viewBox="0 0 1884 1102" width="1884px" zoomAndPan="magnify"><defs/><g><text fill="#000000" font-family="sans-serif" font-size="14" font-weight="bold" lengthAdjust="spacing" textLength="296" x="795" y="30.1074">System Sequence Diagram (SSD) - US 4003</text><rect fill="#FFFFFF" height="847.6152" style="stroke:#181818;stroke-width:1.0;" width="10" x="17.5" y="137.8633"/><rect fill="#FFFFFF" height="824.3242" style="stroke:#181818;stroke-width:1.0;" width="10" x="433.5" y="161.1543"/><rect fill="#FFFFFF" height="62.582" style="stroke:#181818;stroke-width:1.0;" width="10" x="988.5" y="255.0273"/><rect fill="#FFFFFF" height="123.873" style="stroke:#181818;stroke-width:1.0;" width="10" x="988.5" y="651.5195"/><rect fill="#FFFFFF" height="123.873" style="stroke:#181818;stroke-width:1.0;" width="10" x="988.5" y="823.3145"/><rect fill="#FFFFFF" height="31.291" style="stroke:#181818;stroke-width:1.0;" width="10" x="1279.5" y="286.3184"/><rect fill="#FFFFFF" height="30" style="stroke:#181818;stroke-width:1.0;" width="10" x="1503" y="682.8105"/><rect fill="#FFFFFF" height="30" style="stroke:#181818;stroke-width:1.0;" width="10" x="1503" y="854.6055"/><rect fill="none" height="346.25" style="stroke:#000000;stroke-width:1.5;" width="1554.5" x="322.5" y="608.9375"/><line style="stroke:#181818;stroke-width:0.5;stroke-dasharray:5.0,5.0;" x1="22" x2="22" y1="127.8633" y2="1003.4785"/><line style="stroke:#181818;stroke-width:0.5;stroke-dasharray:5.0,5.0;" x1="438.5" x2="438.5" y1="127.8633" y2="1003.4785"/><line style="stroke:#181818;stroke-width:0.5;stroke-dasharray:5.0,5.0;" x1="993.5" x2="993.5" y1="127.8633" y2="1003.4785"/><line style="stroke:#181818;stroke-width:0.5;stroke-dasharray:5.0,5.0;" x1="1284" x2="1284" y1="127.8633" y2="1003.4785"/><line style="stroke:#181818;stroke-width:0.5;stroke-dasharray:5.0,5.0;" x1="1508" x2="1508" y1="127.8633" y2="1003.4785"/><line style="stroke:#181818;stroke-width:0.5;stroke-dasharray:5.0,5.0;" x1="1766" x2="1766" y1="127.8633" y2="1003.4785"/><text fill="#000000" font-family="sans-serif" font-size="14" lengthAdjust="spacing" textLength="29" x="5" y="124.3496">User</text><ellipse cx="22.5" cy="57.7422" fill="#E3E3E3" rx="8" ry="8" style="stroke:#181818;stroke-width:0.5;"/><path d="M22.5,65.7422 L22.5,92.7422 M9.5,73.7422 L35.5,73.7422 M22.5,92.7422 L9.5,107.7422 M22.5,92.7422 L35.5,107.7422 " fill="none" style="stroke:#181818;stroke-width:0.5;"/><text fill="#000000" font-family="sans-serif" font-size="14" lengthAdjust="spacing" textLength="29" x="5" y="1017.5859">User</text><ellipse cx="22.5" cy="1029.5996" fill="#E3E3E3" rx="8" ry="8" style="stroke:#181818;stroke-width:0.5;"/><path d="M22.5,1037.5996 L22.5,1064.5996 M9.5,1045.5996 L35.5,1045.5996 M22.5,1064.5996 L9.5,1079.5996 M22.5,1064.5996 L35.5,1079.5996 " fill="none" style="stroke:#181818;stroke-width:0.5;"/><rect fill="#E3E3E3" height="51.2422" rx="2.5" ry="2.5" style="stroke:#181818;stroke-width:0.5;" width="212" x="332.5" y="75.6211"/><text fill="#000000" font-family="sans-serif" font-size="14" font-style="italic" lengthAdjust="spacing" textLength="95" x="391" y="97.7285">&#171;presentation&#187;</text><text fill="#000000" font-family="sans-serif" font-size="14" lengthAdjust="spacing" textLength="198" x="339.5" y="116.3496">AcceptRejectMeetingRequestUI</text><rect fill="#E3E3E3" height="51.2422" rx="2.5" ry="2.5" style="stroke:#181818;stroke-width:0.5;" width="212" x="332.5" y="1002.4785"/><text fill="#000000" font-family="sans-serif" font-size="14" font-style="italic" lengthAdjust="spacing" textLength="95" x="391" y="1024.5859">&#171;presentation&#187;</text><text fill="#000000" font-family="sans-serif" font-size="14" lengthAdjust="spacing" textLength="198" x="339.5" y="1043.207">AcceptRejectMeetingRequestUI</text><text fill="#000000" font-family="sans-serif" font-size="14" font-style="italic" lengthAdjust="spacing" textLength="84" x="948.5" y="105.7285">&#171;application&#187;</text><text fill="#000000" font-family="sans-serif" font-size="14" lengthAdjust="spacing" textLength="248" x="866.5" y="124.3496">AcceptRejectMeetingRequestController</text><ellipse cx="993.5" cy="74.6211" fill="#E3E3E3" rx="12" ry="12" style="stroke:#181818;stroke-width:0.5;"/><polygon fill="#181818" points="989.5,62.6211,995.5,57.6211,993.5,62.6211,995.5,67.6211,989.5,62.6211" style="stroke:#181818;stroke-width:1.0;"/><text fill="#000000" font-family="sans-serif" font-size="14" font-style="italic" lengthAdjust="spacing" textLength="84" x="948.5" y="1017.5859">&#171;application&#187;</text><text fill="#000000" font-family="sans-serif" font-size="14" lengthAdjust="spacing" textLength="248" x="866.5" y="1036.207">AcceptRejectMeetingRequestController</text><ellipse cx="993.5" cy="1055.7207" fill="#E3E3E3" rx="12" ry="12" style="stroke:#181818;stroke-width:0.5;"/><polygon fill="#181818" points="989.5,1043.7207,995.5,1038.7207,993.5,1043.7207,995.5,1048.7207,989.5,1043.7207" style="stroke:#181818;stroke-width:1.0;"/><rect fill="#E3E3E3" height="51.2422" rx="2.5" ry="2.5" style="stroke:#181818;stroke-width:0.5;" width="133" x="1218" y="75.6211"/><text fill="#000000" font-family="sans-serif" font-size="14" font-style="italic" lengthAdjust="spacing" textLength="84" x="1242.5" y="97.7285">&#171;application&#187;</text><text fill="#000000" font-family="sans-serif" font-size="14" lengthAdjust="spacing" textLength="119" x="1225" y="116.3496">ListMeetingService</text><rect fill="#E3E3E3" height="51.2422" rx="2.5" ry="2.5" style="stroke:#181818;stroke-width:0.5;" width="133" x="1218" y="1002.4785"/><text fill="#000000" font-family="sans-serif" font-size="14" font-style="italic" lengthAdjust="spacing" textLength="84" x="1242.5" y="1024.5859">&#171;application&#187;</text><text fill="#000000" font-family="sans-serif" font-size="14" lengthAdjust="spacing" textLength="119" x="1225" y="1043.207">ListMeetingService</text><rect fill="#E3E3E3" height="51.2422" rx="2.5" ry="2.5" style="stroke:#181818;stroke-width:0.5;" width="294" x="1361" y="75.6211"/><text fill="#000000" font-family="sans-serif" font-size="14" font-style="italic" lengthAdjust="spacing" textLength="62" x="1477" y="97.7285">&#171;domain&#187;</text><text fill="#000000" font-family="sans-serif" font-size="14" lengthAdjust="spacing" textLength="280" x="1368" y="116.3496">theParticipationMeeting:ParticipationMeeting</text><rect fill="#E3E3E3" height="51.2422" rx="2.5" ry="2.5" style="stroke:#181818;stroke-width:0.5;" width="294" x="1361" y="1002.4785"/><text fill="#000000" font-family="sans-serif" font-size="14" font-style="italic" lengthAdjust="spacing" textLength="62" x="1477" y="1024.5859">&#171;domain&#187;</text><text fill="#000000" font-family="sans-serif" font-size="14" lengthAdjust="spacing" textLength="280" x="1368" y="1043.207">theParticipationMeeting:ParticipationMeeting</text><text fill="#000000" font-family="sans-serif" font-size="14" font-style="italic" lengthAdjust="spacing" textLength="79" x="1723.5" y="105.7285">&#171;repository&#187;</text><text fill="#000000" font-family="sans-serif" font-size="14" lengthAdjust="spacing" textLength="196" x="1665" y="124.3496">ParticipationMeetingRepository</text><path d="M1748,54.6211 C1748,44.6211 1766,44.6211 1766,44.6211 C1766,44.6211 1784,44.6211 1784,54.6211 L1784,80.6211 C1784,90.6211 1766,90.6211 1766,90.6211 C1766,90.6211 1748,90.6211 1748,80.6211 L1748,54.6211 " fill="#E3E3E3" style="stroke:#181818;stroke-width:1.5;"/><path d="M1748,54.6211 C1748,64.6211 1766,64.6211 1766,64.6211 C1766,64.6211 1784,64.6211 1784,54.6211 " fill="none" style="stroke:#181818;stroke-width:1.5;"/><text fill="#000000" font-family="sans-serif" font-size="14" font-style="italic" lengthAdjust="spacing" textLength="79" x="1723.5" y="1017.5859">&#171;repository&#187;</text><text fill="#000000" font-family="sans-serif" font-size="14" lengthAdjust="spacing" textLength="196" x="1665" y="1036.207">ParticipationMeetingRepository</text><path d="M1748,1049.7207 C1748,1039.7207 1766,1039.7207 1766,1039.7207 C1766,1039.7207 1784,1039.7207 1784,1049.7207 L1784,1075.7207 C1784,1085.7207 1766,1085.7207 1766,1085.7207 C1766,1085.7207 1748,1085.7207 1748,1075.7207 L1748,1049.7207 " fill="#E3E3E3" style="stroke:#181818;stroke-width:1.5;"/><path d="M1748,1049.7207 C1748,1059.7207 1766,1059.7207 1766,1059.7207 C1766,1059.7207 1784,1059.7207 1784,1049.7207 " fill="none" style="stroke:#181818;stroke-width:1.5;"/><rect fill="#FFFFFF" height="847.6152" style="stroke:#181818;stroke-width:1.0;" width="10" x="17.5" y="137.8633"/><rect fill="#FFFFFF" height="824.3242" style="stroke:#181818;stroke-width:1.0;" width="10" x="433.5" y="161.1543"/><rect fill="#FFFFFF" height="62.582" style="stroke:#181818;stroke-width:1.0;" width="10" x="988.5" y="255.0273"/><rect fill="#FFFFFF" height="123.873" style="stroke:#181818;stroke-width:1.0;" width="10" x="988.5" y="651.5195"/><rect fill="#FFFFFF" height="123.873" style="stroke:#181818;stroke-width:1.0;" width="10" x="988.5" y="823.3145"/><rect fill="#FFFFFF" height="31.291" style="stroke:#181818;stroke-width:1.0;" width="10" x="1279.5" y="286.3184"/><rect fill="#FFFFFF" height="30" style="stroke:#181818;stroke-width:1.0;" width="10" x="1503" y="682.8105"/><rect fill="#FFFFFF" height="30" style="stroke:#181818;stroke-width:1.0;" width="10" x="1503" y="854.6055"/><polygon fill="#181818" points="421.5,157.1543,431.5,161.1543,421.5,165.1543,425.5,161.1543" style="stroke:#181818;stroke-width:1.0;"/><line style="stroke:#181818;stroke-width:1.0;" x1="27.5" x2="427.5" y1="161.1543" y2="161.1543"/><text fill="#000000" font-family="sans-serif" font-size="13" font-weight="bold" lengthAdjust="spacing" textLength="7" x="34.5" y="155.8916">1</text><text fill="#000000" font-family="sans-serif" font-size="13" lengthAdjust="spacing" textLength="376" x="45.5" y="155.8916">Pede para aceitar/recusar um convite recebido para uma meeting</text><polygon fill="#181818" points="981.5,188.4453,991.5,192.4453,981.5,196.4453,985.5,192.4453" style="stroke:#181818;stroke-width:1.0;"/><line style="stroke:#181818;stroke-width:1.0;" x1="443.5" x2="987.5" y1="192.4453" y2="192.4453"/><text fill="#000000" font-family="sans-serif" font-size="13" font-weight="bold" lengthAdjust="spacing" textLength="7" x="450.5" y="187.1826">2</text><text fill="#000000" font-family="sans-serif" font-size="13" lengthAdjust="spacing" textLength="36" x="461.5" y="187.1826">create</text><polygon fill="#181818" points="1272.5,219.7363,1282.5,223.7363,1272.5,227.7363,1276.5,223.7363" style="stroke:#181818;stroke-width:1.0;"/><line style="stroke:#181818;stroke-width:1.0;" x1="993.5" x2="1278.5" y1="223.7363" y2="223.7363"/><text fill="#000000" font-family="sans-serif" font-size="13" font-weight="bold" lengthAdjust="spacing" textLength="7" x="1000.5" y="218.4736">3</text><text fill="#000000" font-family="sans-serif" font-size="13" lengthAdjust="spacing" textLength="36" x="1011.5" y="218.4736">create</text><polygon fill="#181818" points="976.5,251.0273,986.5,255.0273,976.5,259.0273,980.5,255.0273" style="stroke:#181818;stroke-width:1.0;"/><line style="stroke:#181818;stroke-width:1.0;" x1="443.5" x2="982.5" y1="255.0273" y2="255.0273"/><text fill="#000000" font-family="sans-serif" font-size="13" font-weight="bold" lengthAdjust="spacing" textLength="7" x="450.5" y="249.7646">4</text><text fill="#000000" font-family="sans-serif" font-size="13" lengthAdjust="spacing" textLength="364" x="461.5" y="249.7646">pendentMeetingRquestList = listUserPendentMeetingRequest()</text><polygon fill="#181818" points="1267.5,282.3184,1277.5,286.3184,1267.5,290.3184,1271.5,286.3184" style="stroke:#181818;stroke-width:1.0;"/><line style="stroke:#181818;stroke-width:1.0;" x1="998.5" x2="1273.5" y1="286.3184" y2="286.3184"/><text fill="#000000" font-family="sans-serif" font-size="13" font-weight="bold" lengthAdjust="spacing" textLength="7" x="1005.5" y="281.0557">5</text><text fill="#000000" font-family="sans-serif" font-size="13" lengthAdjust="spacing" textLength="251" x="1016.5" y="281.0557">listUserPendentMeetingRequest(username)</text><polygon fill="#181818" points="1754,313.6094,1764,317.6094,1754,321.6094,1758,317.6094" style="stroke:#181818;stroke-width:1.0;"/><line style="stroke:#181818;stroke-width:1.0;" x1="1284.5" x2="1760" y1="317.6094" y2="317.6094"/><text fill="#000000" font-family="sans-serif" font-size="13" font-weight="bold" lengthAdjust="spacing" textLength="7" x="1291.5" y="312.3467">6</text><text fill="#000000" font-family="sans-serif" font-size="13" lengthAdjust="spacing" textLength="267" x="1302.5" y="312.3467">findPendentMeetingRequestOfUser(username)</text><line style="stroke:#181818;stroke-width:1.0;" x1="443.5" x2="485.5" y1="348.9004" y2="348.9004"/><line style="stroke:#181818;stroke-width:1.0;" x1="485.5" x2="485.5" y1="348.9004" y2="361.9004"/><line style="stroke:#181818;stroke-width:1.0;" x1="444.5" x2="485.5" y1="361.9004" y2="361.9004"/><polygon fill="#181818" points="454.5,357.9004,444.5,361.9004,454.5,365.9004,450.5,361.9004" style="stroke:#181818;stroke-width:1.0;"/><text fill="#000000" font-family="sans-serif" font-size="13" font-weight="bold" lengthAdjust="spacing" textLength="7" x="450.5" y="343.6377">7</text><text fill="#000000" font-family="sans-serif" font-size="13" lengthAdjust="spacing" textLength="520" x="461.5" y="343.6377">Mostra a lista de convites recebidos para participar em meetings que ainda n&#227;o ocorreram</text><polygon fill="#181818" points="38.5,389.1914,28.5,393.1914,38.5,397.1914,34.5,393.1914" style="stroke:#181818;stroke-width:1.0;"/><line style="stroke:#181818;stroke-width:1.0;stroke-dasharray:2.0,2.0;" x1="32.5" x2="432.5" y1="393.1914" y2="393.1914"/><text fill="#000000" font-family="sans-serif" font-size="13" font-weight="bold" lengthAdjust="spacing" textLength="7" x="44.5" y="387.9287">8</text><text fill="#000000" font-family="sans-serif" font-size="13" lengthAdjust="spacing" textLength="339" x="55.5" y="387.9287">Pede para escolher um convite recebido para uma meeting</text><polygon fill="#181818" points="421.5,420.4824,431.5,424.4824,421.5,428.4824,425.5,424.4824" style="stroke:#181818;stroke-width:1.0;"/><line style="stroke:#181818;stroke-width:1.0;" x1="27.5" x2="427.5" y1="424.4824" y2="424.4824"/><text fill="#000000" font-family="sans-serif" font-size="13" font-weight="bold" lengthAdjust="spacing" textLength="7" x="34.5" y="419.2197">9</text><text fill="#000000" font-family="sans-serif" font-size="13" lengthAdjust="spacing" textLength="253" x="45.5" y="419.2197">Escolhe um convite para uma dada meeting</text><polygon fill="#181818" points="38.5,451.7734,28.5,455.7734,38.5,459.7734,34.5,455.7734" style="stroke:#181818;stroke-width:1.0;"/><line style="stroke:#181818;stroke-width:1.0;stroke-dasharray:2.0,2.0;" x1="32.5" x2="432.5" y1="455.7734" y2="455.7734"/><text fill="#000000" font-family="sans-serif" font-size="13" font-weight="bold" lengthAdjust="spacing" textLength="14" x="44.5" y="450.5107">10</text><text fill="#000000" font-family="sans-serif" font-size="13" lengthAdjust="spacing" textLength="357" x="62.5" y="450.5107">Pede para selecionar se pretende aceitar ou recusar o convite</text><polygon fill="#181818" points="421.5,483.0645,431.5,487.0645,421.5,491.0645,425.5,487.0645" style="stroke:#181818;stroke-width:1.0;"/><line style="stroke:#181818;stroke-width:1.0;" x1="27.5" x2="427.5" y1="487.0645" y2="487.0645"/><text fill="#000000" font-family="sans-serif" font-size="13" font-weight="bold" lengthAdjust="spacing" textLength="14" x="34.5" y="481.8018">11</text><text fill="#000000" font-family="sans-serif" font-size="13" lengthAdjust="spacing" textLength="292" x="52.5" y="481.8018">Seleciona se pretende aceitar ou recusar o convite</text><line style="stroke:#181818;stroke-width:1.0;" x1="443.5" x2="485.5" y1="518.3555" y2="518.3555"/><line style="stroke:#181818;stroke-width:1.0;" x1="485.5" x2="485.5" y1="518.3555" y2="531.3555"/><line style="stroke:#181818;stroke-width:1.0;" x1="444.5" x2="485.5" y1="531.3555" y2="531.3555"/><polygon fill="#181818" points="454.5,527.3555,444.5,531.3555,454.5,535.3555,450.5,531.3555" style="stroke:#181818;stroke-width:1.0;"/><text fill="#000000" font-family="sans-serif" font-size="13" font-weight="bold" lengthAdjust="spacing" textLength="14" x="450.5" y="513.0928">12</text><text fill="#000000" font-family="sans-serif" font-size="13" lengthAdjust="spacing" textLength="229" x="468.5" y="513.0928">Mostra os dados da opera&#231;&#227;o a realizar</text><polygon fill="#181818" points="38.5,558.6465,28.5,562.6465,38.5,566.6465,34.5,562.6465" style="stroke:#181818;stroke-width:1.0;"/><line style="stroke:#181818;stroke-width:1.0;stroke-dasharray:2.0,2.0;" x1="32.5" x2="432.5" y1="562.6465" y2="562.6465"/><text fill="#000000" font-family="sans-serif" font-size="13" font-weight="bold" lengthAdjust="spacing" textLength="14" x="44.5" y="557.3838">13</text><text fill="#000000" font-family="sans-serif" font-size="13" lengthAdjust="spacing" textLength="104" x="62.5" y="557.3838">Pede confirma&#231;&#227;o</text><polygon fill="#181818" points="421.5,589.9375,431.5,593.9375,421.5,597.9375,425.5,593.9375" style="stroke:#181818;stroke-width:1.0;"/><line style="stroke:#181818;stroke-width:1.0;" x1="27.5" x2="427.5" y1="593.9375" y2="593.9375"/><text fill="#000000" font-family="sans-serif" font-size="13" font-weight="bold" lengthAdjust="spacing" textLength="14" x="34.5" y="588.6748">14</text><text fill="#000000" font-family="sans-serif" font-size="13" lengthAdjust="spacing" textLength="119" x="52.5" y="588.6748">Confirma a opera&#231;&#227;o</text><path d="M322.5,608.9375 L383.5,608.9375 L383.5,618.2285 L373.5,628.2285 L322.5,628.2285 L322.5,608.9375 " fill="#EEEEEE" style="stroke:#000000;stroke-width:1.5;"/><rect fill="none" height="346.25" style="stroke:#000000;stroke-width:1.5;" width="1554.5" x="322.5" y="608.9375"/><text fill="#000000" font-family="sans-serif" font-size="13" font-weight="bold" lengthAdjust="spacing" textLength="16" x="337.5" y="623.9658">alt</text><text fill="#000000" font-family="sans-serif" font-size="11" font-weight="bold" lengthAdjust="spacing" textLength="172" x="398.5" y="622.8076">[Se escolher aceitar a meeting]</text><polygon fill="#181818" points="976.5,647.5195,986.5,651.5195,976.5,655.5195,980.5,651.5195" style="stroke:#181818;stroke-width:1.0;"/><line style="stroke:#181818;stroke-width:1.0;" x1="443.5" x2="982.5" y1="651.5195" y2="651.5195"/><text fill="#000000" font-family="sans-serif" font-size="13" font-weight="bold" lengthAdjust="spacing" textLength="14" x="450.5" y="646.2568">15</text><text fill="#000000" font-family="sans-serif" font-size="13" lengthAdjust="spacing" textLength="229" x="468.5" y="646.2568">acceptMeeting(theParticipationMeeting)</text><polygon fill="#181818" points="1491,678.8105,1501,682.8105,1491,686.8105,1495,682.8105" style="stroke:#181818;stroke-width:1.0;"/><line style="stroke:#181818;stroke-width:1.0;" x1="998.5" x2="1497" y1="682.8105" y2="682.8105"/><text fill="#000000" font-family="sans-serif" font-size="13" font-weight="bold" lengthAdjust="spacing" textLength="14" x="1005.5" y="677.5479">16</text><text fill="#000000" font-family="sans-serif" font-size="13" lengthAdjust="spacing" textLength="93" x="1023.5" y="677.5479">acceptMeeting()</text><polygon fill="#181818" points="1754,740.1016,1764,744.1016,1754,748.1016,1758,744.1016" style="stroke:#181818;stroke-width:1.0;"/><line style="stroke:#181818;stroke-width:1.0;" x1="998.5" x2="1760" y1="744.1016" y2="744.1016"/><text fill="#000000" font-family="sans-serif" font-size="13" font-weight="bold" lengthAdjust="spacing" textLength="14" x="1005.5" y="738.8389">17</text><text fill="#000000" font-family="sans-serif" font-size="13" lengthAdjust="spacing" textLength="170" x="1023.5" y="738.8389">save(theParticipationMeeting)</text><polygon fill="#181818" points="454.5,771.3926,444.5,775.3926,454.5,779.3926,450.5,775.3926" style="stroke:#181818;stroke-width:1.0;"/><line style="stroke:#181818;stroke-width:1.0;stroke-dasharray:2.0,2.0;" x1="448.5" x2="992.5" y1="775.3926" y2="775.3926"/><text fill="#000000" font-family="sans-serif" font-size="13" font-weight="bold" lengthAdjust="spacing" textLength="14" x="460.5" y="770.1299">18</text><text fill="#000000" font-family="sans-serif" font-size="13" lengthAdjust="spacing" textLength="136" x="478.5" y="770.1299">theParticipationMeeting</text><line style="stroke:#000000;stroke-width:1.0;stroke-dasharray:2.0,2.0;" x1="322.5" x2="1877" y1="784.3926" y2="784.3926"/><text fill="#000000" font-family="sans-serif" font-size="11" font-weight="bold" lengthAdjust="spacing" textLength="178" x="327.5" y="796.2627">[Se escolher recusar a meeting]</text><polygon fill="#181818" points="976.5,819.3145,986.5,823.3145,976.5,827.3145,980.5,823.3145" style="stroke:#181818;stroke-width:1.0;"/><line style="stroke:#181818;stroke-width:1.0;" x1="443.5" x2="982.5" y1="823.3145" y2="823.3145"/><text fill="#000000" font-family="sans-serif" font-size="13" font-weight="bold" lengthAdjust="spacing" textLength="14" x="450.5" y="818.0518">19</text><text fill="#000000" font-family="sans-serif" font-size="13" lengthAdjust="spacing" textLength="225" x="468.5" y="818.0518">refuseMeeting(theParticipationMeeting)</text><polygon fill="#181818" points="1491,850.6055,1501,854.6055,1491,858.6055,1495,854.6055" style="stroke:#181818;stroke-width:1.0;"/><line style="stroke:#181818;stroke-width:1.0;" x1="998.5" x2="1497" y1="854.6055" y2="854.6055"/><text fill="#000000" font-family="sans-serif" font-size="13" font-weight="bold" lengthAdjust="spacing" textLength="14" x="1005.5" y="849.3428">20</text><text fill="#000000" font-family="sans-serif" font-size="13" lengthAdjust="spacing" textLength="89" x="1023.5" y="849.3428">refuseMeeting()</text><polygon fill="#181818" points="1754,911.8965,1764,915.8965,1754,919.8965,1758,915.8965" style="stroke:#181818;stroke-width:1.0;"/><line style="stroke:#181818;stroke-width:1.0;" x1="998.5" x2="1760" y1="915.8965" y2="915.8965"/><text fill="#000000" font-family="sans-serif" font-size="13" font-weight="bold" lengthAdjust="spacing" textLength="14" x="1005.5" y="910.6338">21</text><text fill="#000000" font-family="sans-serif" font-size="13" lengthAdjust="spacing" textLength="170" x="1023.5" y="910.6338">save(theParticipationMeeting)</text><polygon fill="#181818" points="454.5,943.1875,444.5,947.1875,454.5,951.1875,450.5,947.1875" style="stroke:#181818;stroke-width:1.0;"/><line style="stroke:#181818;stroke-width:1.0;stroke-dasharray:2.0,2.0;" x1="448.5" x2="992.5" y1="947.1875" y2="947.1875"/><text fill="#000000" font-family="sans-serif" font-size="13" font-weight="bold" lengthAdjust="spacing" textLength="14" x="460.5" y="941.9248">22</text><text fill="#000000" font-family="sans-serif" font-size="13" lengthAdjust="spacing" textLength="136" x="478.5" y="941.9248">theParticipationMeeting</text><polygon fill="#181818" points="33.5,981.4785,23.5,985.4785,33.5,989.4785,29.5,985.4785" style="stroke:#181818;stroke-width:1.0;"/><line style="stroke:#181818;stroke-width:1.0;stroke-dasharray:2.0,2.0;" x1="27.5" x2="437.5" y1="985.4785" y2="985.4785"/><text fill="#000000" font-family="sans-serif" font-size="13" font-weight="bold" lengthAdjust="spacing" textLength="14" x="39.5" y="980.2158">23</text><text fill="#000000" font-family="sans-serif" font-size="13" lengthAdjust="spacing" textLength="181" x="57.5" y="980.2158">Informa o sucesso da opera&#231;&#227;o</text><!--SRC=[xLRDRjf04BxxAKOvmI5gfFQ4A5ALz12fKH4M3p2i1zZ4tdLtrrJqTNheW-J5EclZnSOs-DPBVKXOzfjl_huPRD-aoj5W1fbMMkoDpWYSAIYouIP7yOOxYjqn9J0a7AfTsWJOFIRwfrGxs69gAOgST0oDZzPH1Z7zA4W9WYU9Em-VnF7J5EvX7SEdXuUF4HPEgoBRa8aY54uRk5jRCdU05lo7YBquAMIEoi4N8IXtAthbE5w877jTUGVMhP-zGI5XFiyDML8EdTHgiOY4Lixez8hjOuL8oNWESJxDvvZdgHGrLJEKRzBMD36PW-GKsJZjV7cDuyxjQLcV_Vt9TjRtPLcHlEU2NIGwG-dP4tIuGKlGnx2YN5l99JuEKJKGyxa91oRslP47T5Gr9G9-_2UuN_Ygps192NbE11Ga7PeFB9R2ee4YypKzI5VgXpOoqHMmo12ood795rmKiZpxXxdPGwCdCn2661GGZJj6TXiG3AvnvgGIranTXb8MliFm6LB-vpDTjY6LT2RJm1gYFnE7kt5nNlTKy8t2ZAOjrk2rGzY2-QVhakEueO8PRALAUWFwllMn3eILq8Z06g16pIxQL8hhHLldbLMM2DcmLfGDahALfa8-1dZxdDHbWIC6df04GRt_rg25DePu7RMziRjIqqqranKwtTD86GUwrcnyhJYQ5C4omQGz1TU2iPIIu4PnTZpZlEYSxqmzSQ0Bg8TErvu6Gefhfl54mttXudCQvL_GETVr_O-lCZ89fl8Ncck9CVrMcgoo6OZsyOI19lyPYwdZXCwjgjFe5dPW_B7yRJZ9T3AmbGS6Rs3SkoFVkxilVKyx9C5Hdtq7tPYfKVZR8RQsWSK3ZQlF9NdToW7ZeUtHKrtYjunMkskfZcwteIslhN_JxhRl_-s-tMwL36tfPxNLVYjei8KWQtLx0KKNvFnQ4JMEvOlCNm00]--></g></svg>