<?xml version="1.0" encoding="us-ascii" standalone="no"?><svg xmlns="http://www.w3.org/2000/svg" xmlns:xlink="http://www.w3.org/1999/xlink" contentStyleType="text/css" height="507px" preserveAspectRatio="none" style="width:627px;height:507px;background:#FFFFFF;" version="1.1" viewBox="0 0 627 507" width="627px" zoomAndPan="magnify"><defs/><g><text fill="#000000" font-family="sans-serif" font-size="14" font-weight="bold" lengthAdjust="spacing" textLength="296" x="164.75" y="30.1074">System Sequence Diagram (SSD) - US 4003</text><rect fill="#FFFFFF" height="273.6191" style="stroke:#181818;stroke-width:1.0;" width="10" x="17.5" y="133.2422"/><rect fill="#FFFFFF" height="62.582" style="stroke:#181818;stroke-width:1.0;" width="10" x="582.5" y="156.5332"/><rect fill="#FFFFFF" height="31.291" style="stroke:#181818;stroke-width:1.0;" width="10" x="582.5" y="250.4063"/><rect fill="#FFFFFF" height="31.291" style="stroke:#181818;stroke-width:1.0;" width="10" x="582.5" y="312.9883"/><rect fill="#FFFFFF" height="31.291" style="stroke:#181818;stroke-width:1.0;" width="10" x="582.5" y="375.5703"/><line style="stroke:#181818;stroke-width:0.5;stroke-dasharray:5.0,5.0;" x1="22" x2="22" y1="123.2422" y2="424.8613"/><line style="stroke:#181818;stroke-width:0.5;stroke-dasharray:5.0,5.0;" x1="587.5" x2="587.5" y1="123.2422" y2="424.8613"/><text fill="#000000" font-family="sans-serif" font-size="14" lengthAdjust="spacing" textLength="29" x="5" y="119.7285">User</text><ellipse cx="22.5" cy="53.1211" fill="#E3E3E3" rx="8" ry="8" style="stroke:#181818;stroke-width:0.5;"/><path d="M22.5,61.1211 L22.5,88.1211 M9.5,69.1211 L35.5,69.1211 M22.5,88.1211 L9.5,103.1211 M22.5,88.1211 L35.5,103.1211 " fill="none" style="stroke:#181818;stroke-width:0.5;"/><text fill="#000000" font-family="sans-serif" font-size="14" lengthAdjust="spacing" textLength="29" x="5" y="438.9688">User</text><ellipse cx="22.5" cy="450.9824" fill="#E3E3E3" rx="8" ry="8" style="stroke:#181818;stroke-width:0.5;"/><path d="M22.5,458.9824 L22.5,485.9824 M9.5,466.9824 L35.5,466.9824 M22.5,485.9824 L9.5,500.9824 M22.5,485.9824 L35.5,500.9824 " fill="none" style="stroke:#181818;stroke-width:0.5;"/><rect fill="#E3E3E3" height="32.6211" rx="2.5" ry="2.5" style="stroke:#181818;stroke-width:0.5;" width="68" x="553.5" y="89.6211"/><text fill="#000000" font-family="sans-serif" font-size="14" lengthAdjust="spacing" textLength="54" x="560.5" y="111.7285">:Sistema</text><rect fill="#E3E3E3" height="32.6211" rx="2.5" ry="2.5" style="stroke:#181818;stroke-width:0.5;" width="68" x="553.5" y="423.8613"/><text fill="#000000" font-family="sans-serif" font-size="14" lengthAdjust="spacing" textLength="54" x="560.5" y="445.9688">:Sistema</text><rect fill="#FFFFFF" height="273.6191" style="stroke:#181818;stroke-width:1.0;" width="10" x="17.5" y="133.2422"/><rect fill="#FFFFFF" height="62.582" style="stroke:#181818;stroke-width:1.0;" width="10" x="582.5" y="156.5332"/><rect fill="#FFFFFF" height="31.291" style="stroke:#181818;stroke-width:1.0;" width="10" x="582.5" y="250.4063"/><rect fill="#FFFFFF" height="31.291" style="stroke:#181818;stroke-width:1.0;" width="10" x="582.5" y="312.9883"/><rect fill="#FFFFFF" height="31.291" style="stroke:#181818;stroke-width:1.0;" width="10" x="582.5" y="375.5703"/><polygon fill="#181818" points="570.5,152.5332,580.5,156.5332,570.5,160.5332,574.5,156.5332" style="stroke:#181818;stroke-width:1.0;"/><line style="stroke:#181818;stroke-width:1.0;" x1="27.5" x2="576.5" y1="156.5332" y2="156.5332"/><text fill="#000000" font-family="sans-serif" font-size="13" font-weight="bold" lengthAdjust="spacing" textLength="7" x="34.5" y="151.2705">1</text><text fill="#000000" font-family="sans-serif" font-size="13" lengthAdjust="spacing" textLength="376" x="45.5" y="151.2705">Pede para aceitar/recusar um convite recebido para uma meeting</text><polygon fill="#181818" points="38.5,183.8242,28.5,187.8242,38.5,191.8242,34.5,187.8242" style="stroke:#181818;stroke-width:1.0;"/><line style="stroke:#181818;stroke-width:1.0;stroke-dasharray:2.0,2.0;" x1="32.5" x2="581.5" y1="187.8242" y2="187.8242"/><text fill="#000000" font-family="sans-serif" font-size="13" font-weight="bold" lengthAdjust="spacing" textLength="7" x="44.5" y="182.5615">2</text><text fill="#000000" font-family="sans-serif" font-size="13" lengthAdjust="spacing" textLength="520" x="55.5" y="182.5615">Mostra a lista de convites recebidos para participar em meetings que ainda n&#227;o ocorreram</text><polygon fill="#181818" points="38.5,215.1152,28.5,219.1152,38.5,223.1152,34.5,219.1152" style="stroke:#181818;stroke-width:1.0;"/><line style="stroke:#181818;stroke-width:1.0;stroke-dasharray:2.0,2.0;" x1="32.5" x2="586.5" y1="219.1152" y2="219.1152"/><text fill="#000000" font-family="sans-serif" font-size="13" font-weight="bold" lengthAdjust="spacing" textLength="7" x="44.5" y="213.8525">3</text><text fill="#000000" font-family="sans-serif" font-size="13" lengthAdjust="spacing" textLength="339" x="55.5" y="213.8525">Pede para escolher um convite recebido para uma meeting</text><polygon fill="#181818" points="570.5,246.4063,580.5,250.4063,570.5,254.4063,574.5,250.4063" style="stroke:#181818;stroke-width:1.0;"/><line style="stroke:#181818;stroke-width:1.0;" x1="27.5" x2="576.5" y1="250.4063" y2="250.4063"/><text fill="#000000" font-family="sans-serif" font-size="13" font-weight="bold" lengthAdjust="spacing" textLength="7" x="34.5" y="245.1436">4</text><text fill="#000000" font-family="sans-serif" font-size="13" lengthAdjust="spacing" textLength="253" x="45.5" y="245.1436">Escolhe um convite para uma dada meeting</text><polygon fill="#181818" points="38.5,277.6973,28.5,281.6973,38.5,285.6973,34.5,281.6973" style="stroke:#181818;stroke-width:1.0;"/><line style="stroke:#181818;stroke-width:1.0;stroke-dasharray:2.0,2.0;" x1="32.5" x2="586.5" y1="281.6973" y2="281.6973"/><text fill="#000000" font-family="sans-serif" font-size="13" font-weight="bold" lengthAdjust="spacing" textLength="7" x="44.5" y="276.4346">5</text><text fill="#000000" font-family="sans-serif" font-size="13" lengthAdjust="spacing" textLength="357" x="55.5" y="276.4346">Pede para selecionar se pretende aceitar ou recusar o convite</text><polygon fill="#181818" points="570.5,308.9883,580.5,312.9883,570.5,316.9883,574.5,312.9883" style="stroke:#181818;stroke-width:1.0;"/><line style="stroke:#181818;stroke-width:1.0;" x1="27.5" x2="576.5" y1="312.9883" y2="312.9883"/><text fill="#000000" font-family="sans-serif" font-size="13" font-weight="bold" lengthAdjust="spacing" textLength="7" x="34.5" y="307.7256">6</text><text fill="#000000" font-family="sans-serif" font-size="13" lengthAdjust="spacing" textLength="292" x="45.5" y="307.7256">Seleciona se pretende aceitar ou recusar o convite</text><polygon fill="#181818" points="38.5,340.2793,28.5,344.2793,38.5,348.2793,34.5,344.2793" style="stroke:#181818;stroke-width:1.0;"/><line style="stroke:#181818;stroke-width:1.0;stroke-dasharray:2.0,2.0;" x1="32.5" x2="586.5" y1="344.2793" y2="344.2793"/><text fill="#000000" font-family="sans-serif" font-size="13" font-weight="bold" lengthAdjust="spacing" textLength="7" x="44.5" y="339.0166">7</text><text fill="#000000" font-family="sans-serif" font-size="13" lengthAdjust="spacing" textLength="346" x="55.5" y="339.0166">Mostra os dados da opera&#231;&#227;o a realizar e pede confirma&#231;&#227;o</text><polygon fill="#181818" points="570.5,371.5703,580.5,375.5703,570.5,379.5703,574.5,375.5703" style="stroke:#181818;stroke-width:1.0;"/><line style="stroke:#181818;stroke-width:1.0;" x1="27.5" x2="576.5" y1="375.5703" y2="375.5703"/><text fill="#000000" font-family="sans-serif" font-size="13" font-weight="bold" lengthAdjust="spacing" textLength="7" x="34.5" y="370.3076">8</text><text fill="#000000" font-family="sans-serif" font-size="13" lengthAdjust="spacing" textLength="119" x="45.5" y="370.3076">Confirma a opera&#231;&#227;o</text><polygon fill="#181818" points="33.5,402.8613,23.5,406.8613,33.5,410.8613,29.5,406.8613" style="stroke:#181818;stroke-width:1.0;"/><line style="stroke:#181818;stroke-width:1.0;stroke-dasharray:2.0,2.0;" x1="27.5" x2="586.5" y1="406.8613" y2="406.8613"/><text fill="#000000" font-family="sans-serif" font-size="13" font-weight="bold" lengthAdjust="spacing" textLength="7" x="39.5" y="401.5986">9</text><text fill="#000000" font-family="sans-serif" font-size="13" lengthAdjust="spacing" textLength="181" x="50.5" y="401.5986">Informa o sucesso da opera&#231;&#227;o</text><!--SRC=[dPCxRXmn38RxESMFhPnYaGMSQeiqSGeN1W8CV01QmzqLF2DEHCc1VHqNEOWl5cfUti2mWR6A0I4-FlwaHkzzw2bIXqw2k5EKZf5YvaeNJq_kdevSfyUM4Tab2iVsF41FrCWV7uuuKAjSLSad2wqVDN67cdzd3evnvUbOmY_g-keBjhYjyMstkwme9mcvk-DOLUIIH6nkbUC6f2X6PPJadUyf96psjIzbQN1Fzf3d7oZnc531Jh6m_Jx7O8zVt31Aoo37Fb7yQcgoKaJku2Gy-3G8v3lVo1YOBR5ZJYPkABfmPZAcCrEsHXp8Uzo8fi92Qpw2iIU6BX0TAOl021lOn5FOt40-D8JmyYmG9p6oJV0ZwAj6LYVjYLU8Q_YDl7Sc-NEiVLvwgTXGy_cPlRQltBBp4cmcQbUH4mVpJPk3PCpBaxc7bIBgcR0Ey8adO7ksgGnVI6yhVFbR5af6eDO_bRMZv_6177piHlzAEJ-cN9mpLdTy7GvIYWWqErQL_tj-jwUpk-4N_0S0]--></g></svg>