<?xml version="1.0" encoding="us-ascii" standalone="no"?><svg xmlns="http://www.w3.org/2000/svg" xmlns:xlink="http://www.w3.org/1999/xlink" contentStyleType="text/css" height="31.5px" preserveAspectRatio="none" style="width:261px;height:31px;background:#FFFFFF;" version="1.1" viewBox="0 0 261 31" width="261.5px" zoomAndPan="magnify"><defs/><g><ellipse cx="8" cy="16" fill="#222222" rx="5" ry="5" style="stroke:none;stroke-width:0.5;"/><g id="exist"><rect fill="#F1F1F1" height="25" rx="6.25" ry="6.25" style="stroke:#181818;stroke-width:0.25;" width="25" x="72.5" y="3.5"/><line style="stroke:#181818;stroke-width:0.25;" x1="72.5" x2="97.5" y1="17.8105" y2="17.8105"/><text fill="#000000" font-family="sans-serif" font-size="7" lengthAdjust="spacing" textLength="14" x="78" y="13.5537">exist</text></g><g id="removed"><rect fill="#F1F1F1" height="25" rx="6.25" ry="6.25" style="stroke:#181818;stroke-width:0.25;" width="37.5" x="193.25" y="3.5"/><line style="stroke:#181818;stroke-width:0.25;" x1="193.25" x2="230.75" y1="17.8105" y2="17.8105"/><text fill="#000000" font-family="sans-serif" font-size="7" lengthAdjust="spacing" textLength="27.5" x="198.25" y="13.5537">removed</text></g><ellipse cx="253.5" cy="16" fill="none" rx="5" ry="5" style="stroke:#222222;stroke-width:0.5;"/><ellipse cx="253.75" cy="16.25" fill="#222222" rx="3" ry="3" style="stroke:none;stroke-width:0.5;"/><!--link *start* to exist--><g id="link_*start*_exist"><path d="M13.05,16 C24.435,16 52.465,16 69.99,16 " fill="none" id="*start*-to-exist" style="stroke:#181818;stroke-width:0.5;"/><polygon fill="#181818" points="72.495,16,67.995,14,69.995,16,67.995,18,72.495,16" style="stroke:#181818;stroke-width:0.5;"/><text fill="#000000" font-family="sans-serif" font-size="6.5" lengthAdjust="spacing" textLength="41" x="22.25" y="12.5142">object created</text></g><!--link exist to removed--><g id="link_exist_removed"><path d="M97.64,16 C119.34,16 163.905,16 190.54,16 " fill="none" id="exist-to-removed" style="stroke:#181818;stroke-width:0.5;"/><polygon fill="#181818" points="193.06,16,188.56,14,190.56,16,188.56,18,193.06,16" style="stroke:#181818;stroke-width:0.5;"/><text fill="#000000" font-family="sans-serif" font-size="6.5" lengthAdjust="spacing" textLength="77.5" x="106.625" y="12.5142">Post-it removed from board</text></g><!--link removed to *end*--><g id="link_removed_*end*"><path d="M230.805,16 C235.785,16 240.77,16 245.755,16 " fill="none" id="removed-to-*end*" style="stroke:#181818;stroke-width:0.5;"/><polygon fill="#181818" points="248.36,16,243.86,14,245.86,16,243.86,18,248.36,16" style="stroke:#181818;stroke-width:0.5;"/></g><!--SRC=[FOsn3i8m34HtVuKt9AIGlGFVm8uOtCI5e1fNYK58Y7-lLMYtyzszy-vcDhKknccaXprbF2ILs8oCGovqhIG0v_q5mn7vNPfXXzhVEHccojxA04lxdtxW2_2JJbGMVN5svgJDGh7D6QeAzafruzTaMLWFt_3dC0C0]--></g></svg>