<?xml version="1.0" encoding="us-ascii" standalone="no"?><svg xmlns="http://www.w3.org/2000/svg" xmlns:xlink="http://www.w3.org/1999/xlink" contentStyleType="text/css" height="515.2px" preserveAspectRatio="none" style="width:1700px;height:515px;background:#FFFFFF;" version="1.1" viewBox="0 0 1700 515" width="1700px" zoomAndPan="magnify"><defs/><g><text fill="#000000" font-family="sans-serif" font-size="11.2" font-weight="bold" lengthAdjust="spacing" textLength="160.8" x="764.2" y="20.0859">Class Diagram (CD) - US 2007</text><!--class AddExamQuestionUI--><g id="elem_AddExamQuestionUI"><rect codeLine="5" fill="#F1F1F1" height="63.3625" id="AddExamQuestionUI" rx="2" ry="2" style="stroke:#181818;stroke-width:0.4000000000000001;" width="128" x="7.2" y="37.2969"/><ellipse cx="19.2" cy="55.1297" fill="#ADD1B2" rx="8.8" ry="8.8" style="stroke:#181818;stroke-width:0.8000000000000002;"/><path d="M21.4125,51.8297 Q21.5375,51.6547 21.6875,51.5672 Q21.8375,51.4797 22.0125,51.4797 Q22.3125,51.4797 22.5,51.6922 Q22.6875,51.8922 22.6875,52.3797 L22.6875,53.5422 Q22.6875,54.0297 22.5,54.2422 Q22.3125,54.4547 22.0125,54.4547 Q21.7375,54.4547 21.575,54.2922 Q21.4125,54.1422 21.325,53.7297 Q21.2875,53.4422 21.1375,53.2922 Q20.875,52.9922 20.3875,52.8172 Q19.9,52.6422 19.4,52.6422 Q18.7875,52.6422 18.275,52.9047 Q17.775,53.1672 17.375,53.7672 Q16.9875,54.3672 16.9875,55.1922 L16.9875,56.0672 Q16.9875,57.0547 17.7,57.7172 Q18.4125,58.3672 19.6875,58.3672 Q20.4375,58.3672 20.9625,58.1672 Q21.275,58.0422 21.6125,57.6922 Q21.825,57.4797 21.9375,57.4172 Q22.0625,57.3547 22.225,57.3547 Q22.4875,57.3547 22.6875,57.5672 Q22.9,57.7672 22.9,58.0422 Q22.9,58.3172 22.625,58.6422 Q22.225,59.1047 21.5875,59.3672 Q20.725,59.7297 19.6875,59.7297 Q18.475,59.7297 17.5125,59.2297 Q16.725,58.8297 16.175,57.9797 Q15.625,57.1172 15.625,56.0922 L15.625,55.1672 Q15.625,54.1047 16.1125,53.1922 Q16.6125,52.2672 17.4875,51.7797 Q18.3625,51.2797 19.35,51.2797 Q19.9375,51.2797 20.45,51.4172 Q20.975,51.5422 21.4125,51.8297 Z " fill="#000000"/><text fill="#000000" font-family="sans-serif" font-size="9.6" font-style="italic" lengthAdjust="spacing" textLength="65.6" x="48.8" y="51.6563">&#171;presentation&#187;</text><text fill="#000000" font-family="sans-serif" font-size="11.2" lengthAdjust="spacing" textLength="102.4" x="30.4" y="66.1516">AddExamQuestionUI</text><line style="stroke:#181818;stroke-width:0.4000000000000001;" x1="8" x2="134.4" y1="72.9625" y2="72.9625"/><line style="stroke:#181818;stroke-width:0.4000000000000001;" x1="8" x2="134.4" y1="79.3625" y2="79.3625"/><polygon fill="#FFFF44" points="16,87.2109,19.2,90.4109,16,93.6109,12.8,90.4109" style="stroke:#B38D22;stroke-width:0.8000000000000002;"/><text fill="#000000" font-family="sans-serif" font-size="11.2" lengthAdjust="spacing" textLength="92" x="23.2" y="94.6484">boolean doShow()</text></g><!--class JpaCourseRepository--><g id="elem_JpaCourseRepository"><rect codeLine="9" fill="#F1F1F1" height="48.4656" id="JpaCourseRepository" rx="2" ry="2" style="stroke:#181818;stroke-width:0.4000000000000001;" width="134.4" x="939.2" y="334.4969"/><ellipse cx="951.2" cy="352.3297" fill="#ADD1B2" rx="8.8" ry="8.8" style="stroke:#181818;stroke-width:0.8000000000000002;"/><path d="M953.4125,349.0297 Q953.5375,348.8547 953.6875,348.7672 Q953.8375,348.6797 954.0125,348.6797 Q954.3125,348.6797 954.5,348.8922 Q954.6875,349.0922 954.6875,349.5797 L954.6875,350.7422 Q954.6875,351.2297 954.5,351.4422 Q954.3125,351.6547 954.0125,351.6547 Q953.7375,351.6547 953.575,351.4922 Q953.4125,351.3422 953.325,350.9297 Q953.2875,350.6422 953.1375,350.4922 Q952.875,350.1922 952.3875,350.0172 Q951.9,349.8422 951.4,349.8422 Q950.7875,349.8422 950.275,350.1047 Q949.775,350.3672 949.375,350.9672 Q948.9875,351.5672 948.9875,352.3922 L948.9875,353.2672 Q948.9875,354.2547 949.7,354.9172 Q950.4125,355.5672 951.6875,355.5672 Q952.4375,355.5672 952.9625,355.3672 Q953.275,355.2422 953.6125,354.8922 Q953.825,354.6797 953.9375,354.6172 Q954.0625,354.5547 954.225,354.5547 Q954.4875,354.5547 954.6875,354.7672 Q954.9,354.9672 954.9,355.2422 Q954.9,355.5172 954.625,355.8422 Q954.225,356.3047 953.5875,356.5672 Q952.725,356.9297 951.6875,356.9297 Q950.475,356.9297 949.5125,356.4297 Q948.725,356.0297 948.175,355.1797 Q947.625,354.3172 947.625,353.2922 L947.625,352.3672 Q947.625,351.3047 948.1125,350.3922 Q948.6125,349.4672 949.4875,348.9797 Q950.3625,348.4797 951.35,348.4797 Q951.9375,348.4797 952.45,348.6172 Q952.975,348.7422 953.4125,349.0297 Z " fill="#000000"/><text fill="#000000" font-family="sans-serif" font-size="9.6" font-style="italic" lengthAdjust="spacing" textLength="61.6" x="986" y="348.8563">&#171;persistence&#187;</text><text fill="#000000" font-family="sans-serif" font-size="11.2" lengthAdjust="spacing" textLength="108.8" x="962.4" y="363.3516">JpaCourseRepository</text><line style="stroke:#181818;stroke-width:0.4000000000000001;" x1="940" x2="1072.8" y1="370.1625" y2="370.1625"/><line style="stroke:#181818;stroke-width:0.4000000000000001;" x1="940" x2="1072.8" y1="376.5625" y2="376.5625"/></g><!--class InMemoryCourseRepository--><g id="elem_InMemoryCourseRepository"><rect codeLine="10" fill="#F1F1F1" height="48.4656" id="InMemoryCourseRepository" rx="2" ry="2" style="stroke:#181818;stroke-width:0.4000000000000001;" width="165.6" x="1102" y="334.4969"/><ellipse cx="1114" cy="352.3297" fill="#ADD1B2" rx="8.8" ry="8.8" style="stroke:#181818;stroke-width:0.8000000000000002;"/><path d="M1116.2125,349.0297 Q1116.3375,348.8547 1116.4875,348.7672 Q1116.6375,348.6797 1116.8125,348.6797 Q1117.1125,348.6797 1117.3,348.8922 Q1117.4875,349.0922 1117.4875,349.5797 L1117.4875,350.7422 Q1117.4875,351.2297 1117.3,351.4422 Q1117.1125,351.6547 1116.8125,351.6547 Q1116.5375,351.6547 1116.375,351.4922 Q1116.2125,351.3422 1116.125,350.9297 Q1116.0875,350.6422 1115.9375,350.4922 Q1115.675,350.1922 1115.1875,350.0172 Q1114.7,349.8422 1114.2,349.8422 Q1113.5875,349.8422 1113.075,350.1047 Q1112.575,350.3672 1112.175,350.9672 Q1111.7875,351.5672 1111.7875,352.3922 L1111.7875,353.2672 Q1111.7875,354.2547 1112.5,354.9172 Q1113.2125,355.5672 1114.4875,355.5672 Q1115.2375,355.5672 1115.7625,355.3672 Q1116.075,355.2422 1116.4125,354.8922 Q1116.625,354.6797 1116.7375,354.6172 Q1116.8625,354.5547 1117.025,354.5547 Q1117.2875,354.5547 1117.4875,354.7672 Q1117.7,354.9672 1117.7,355.2422 Q1117.7,355.5172 1117.425,355.8422 Q1117.025,356.3047 1116.3875,356.5672 Q1115.525,356.9297 1114.4875,356.9297 Q1113.275,356.9297 1112.3125,356.4297 Q1111.525,356.0297 1110.975,355.1797 Q1110.425,354.3172 1110.425,353.2922 L1110.425,352.3672 Q1110.425,351.3047 1110.9125,350.3922 Q1111.4125,349.4672 1112.2875,348.9797 Q1113.1625,348.4797 1114.15,348.4797 Q1114.7375,348.4797 1115.25,348.6172 Q1115.775,348.7422 1116.2125,349.0297 Z " fill="#000000"/><text fill="#000000" font-family="sans-serif" font-size="9.6" font-style="italic" lengthAdjust="spacing" textLength="61.6" x="1164.4" y="348.8563">&#171;persistence&#187;</text><text fill="#000000" font-family="sans-serif" font-size="11.2" lengthAdjust="spacing" textLength="140" x="1125.2" y="363.3516">InMemoryCourseRepository</text><line style="stroke:#181818;stroke-width:0.4000000000000001;" x1="1102.8" x2="1266.8" y1="370.1625" y2="370.1625"/><line style="stroke:#181818;stroke-width:0.4000000000000001;" x1="1102.8" x2="1266.8" y1="376.5625" y2="376.5625"/></g><!--class Teacher--><g id="elem_Teacher"><rect codeLine="12" fill="#F1F1F1" height="48.4656" id="Teacher" rx="2" ry="2" style="stroke:#181818;stroke-width:0.4000000000000001;" width="68" x="90.8" y="334.4969"/><ellipse cx="102.8" cy="352.3297" fill="#ADD1B2" rx="8.8" ry="8.8" style="stroke:#181818;stroke-width:0.8000000000000002;"/><path d="M105.0125,349.0297 Q105.1375,348.8547 105.2875,348.7672 Q105.4375,348.6797 105.6125,348.6797 Q105.9125,348.6797 106.1,348.8922 Q106.2875,349.0922 106.2875,349.5797 L106.2875,350.7422 Q106.2875,351.2297 106.1,351.4422 Q105.9125,351.6547 105.6125,351.6547 Q105.3375,351.6547 105.175,351.4922 Q105.0125,351.3422 104.925,350.9297 Q104.8875,350.6422 104.7375,350.4922 Q104.475,350.1922 103.9875,350.0172 Q103.5,349.8422 103,349.8422 Q102.3875,349.8422 101.875,350.1047 Q101.375,350.3672 100.975,350.9672 Q100.5875,351.5672 100.5875,352.3922 L100.5875,353.2672 Q100.5875,354.2547 101.3,354.9172 Q102.0125,355.5672 103.2875,355.5672 Q104.0375,355.5672 104.5625,355.3672 Q104.875,355.2422 105.2125,354.8922 Q105.425,354.6797 105.5375,354.6172 Q105.6625,354.5547 105.825,354.5547 Q106.0875,354.5547 106.2875,354.7672 Q106.5,354.9672 106.5,355.2422 Q106.5,355.5172 106.225,355.8422 Q105.825,356.3047 105.1875,356.5672 Q104.325,356.9297 103.2875,356.9297 Q102.075,356.9297 101.1125,356.4297 Q100.325,356.0297 99.775,355.1797 Q99.225,354.3172 99.225,353.2922 L99.225,352.3672 Q99.225,351.3047 99.7125,350.3922 Q100.2125,349.4672 101.0875,348.9797 Q101.9625,348.4797 102.95,348.4797 Q103.5375,348.4797 104.05,348.6172 Q104.575,348.7422 105.0125,349.0297 Z " fill="#000000"/><text fill="#000000" font-family="sans-serif" font-size="9.6" font-style="italic" lengthAdjust="spacing" textLength="44.8" x="112.8" y="348.8563">&#171;domain&#187;</text><text fill="#000000" font-family="sans-serif" font-size="11.2" lengthAdjust="spacing" textLength="42.4" x="114" y="363.3516">Teacher</text><line style="stroke:#181818;stroke-width:0.4000000000000001;" x1="91.6" x2="158" y1="370.1625" y2="370.1625"/><line style="stroke:#181818;stroke-width:0.4000000000000001;" x1="91.6" x2="158" y1="376.5625" y2="376.5625"/></g><!--class Course--><g id="elem_Course"><rect codeLine="15" fill="#F1F1F1" height="78.2594" id="Course" rx="2" ry="2" style="stroke:#181818;stroke-width:0.4000000000000001;" width="295.2" x="186.8" y="319.6969"/><ellipse cx="310.2" cy="337.5297" fill="#ADD1B2" rx="8.8" ry="8.8" style="stroke:#181818;stroke-width:0.8000000000000002;"/><path d="M312.4125,334.2297 Q312.5375,334.0547 312.6875,333.9672 Q312.8375,333.8797 313.0125,333.8797 Q313.3125,333.8797 313.5,334.0922 Q313.6875,334.2922 313.6875,334.7797 L313.6875,335.9422 Q313.6875,336.4297 313.5,336.6422 Q313.3125,336.8547 313.0125,336.8547 Q312.7375,336.8547 312.575,336.6922 Q312.4125,336.5422 312.325,336.1297 Q312.2875,335.8422 312.1375,335.6922 Q311.875,335.3922 311.3875,335.2172 Q310.9,335.0422 310.4,335.0422 Q309.7875,335.0422 309.275,335.3047 Q308.775,335.5672 308.375,336.1672 Q307.9875,336.7672 307.9875,337.5922 L307.9875,338.4672 Q307.9875,339.4547 308.7,340.1172 Q309.4125,340.7672 310.6875,340.7672 Q311.4375,340.7672 311.9625,340.5672 Q312.275,340.4422 312.6125,340.0922 Q312.825,339.8797 312.9375,339.8172 Q313.0625,339.7547 313.225,339.7547 Q313.4875,339.7547 313.6875,339.9672 Q313.9,340.1672 313.9,340.4422 Q313.9,340.7172 313.625,341.0422 Q313.225,341.5047 312.5875,341.7672 Q311.725,342.1297 310.6875,342.1297 Q309.475,342.1297 308.5125,341.6297 Q307.725,341.2297 307.175,340.3797 Q306.625,339.5172 306.625,338.4922 L306.625,337.5672 Q306.625,336.5047 307.1125,335.5922 Q307.6125,334.6672 308.4875,334.1797 Q309.3625,333.6797 310.35,333.6797 Q310.9375,333.6797 311.45,333.8172 Q311.975,333.9422 312.4125,334.2297 Z " fill="#000000"/><text fill="#000000" font-family="sans-serif" font-size="9.6" font-style="italic" lengthAdjust="spacing" textLength="44.8" x="325" y="334.0563">&#171;domain&#187;</text><text fill="#000000" font-family="sans-serif" font-size="11.2" lengthAdjust="spacing" textLength="36.8" x="329" y="348.5516">Course</text><line style="stroke:#181818;stroke-width:0.4000000000000001;" x1="187.6" x2="481.2" y1="355.3625" y2="355.3625"/><rect fill="none" height="4.8" style="stroke:#C82930;stroke-width:0.8000000000000002;" width="4.8" x="193.2" y="364.8109"/><text fill="#000000" font-family="sans-serif" font-size="11.2" lengthAdjust="spacing" textLength="127.2" x="202.8" y="370.6484">Set&lt;Question&gt; questions</text><line style="stroke:#181818;stroke-width:0.4000000000000001;" x1="187.6" x2="481.2" y1="376.6594" y2="376.6594"/><ellipse cx="195.6" cy="388.5078" fill="#84BE84" rx="2.4" ry="2.4" style="stroke:#038048;stroke-width:0.8000000000000002;"/><text fill="#000000" font-family="sans-serif" font-size="11.2" lengthAdjust="spacing" textLength="274.4" x="202.8" y="391.9453">void addListQuestions(questions : Iterable&lt;Question&gt;)</text></g><!--class Question--><g id="elem_Question"><rect codeLine="19" fill="#F1F1F1" height="48.4656" id="Question" rx="2" ry="2" style="stroke:#181818;stroke-width:0.4000000000000001;" width="71.2" x="427.6" y="454.0969"/><ellipse cx="439.6" cy="471.9297" fill="#ADD1B2" rx="8.8" ry="8.8" style="stroke:#181818;stroke-width:0.8000000000000002;"/><path d="M441.8125,468.6297 Q441.9375,468.4547 442.0875,468.3672 Q442.2375,468.2797 442.4125,468.2797 Q442.7125,468.2797 442.9,468.4922 Q443.0875,468.6922 443.0875,469.1797 L443.0875,470.3422 Q443.0875,470.8297 442.9,471.0422 Q442.7125,471.2547 442.4125,471.2547 Q442.1375,471.2547 441.975,471.0922 Q441.8125,470.9422 441.725,470.5297 Q441.6875,470.2422 441.5375,470.0922 Q441.275,469.7922 440.7875,469.6172 Q440.3,469.4422 439.8,469.4422 Q439.1875,469.4422 438.675,469.7047 Q438.175,469.9672 437.775,470.5672 Q437.3875,471.1672 437.3875,471.9922 L437.3875,472.8672 Q437.3875,473.8547 438.1,474.5172 Q438.8125,475.1672 440.0875,475.1672 Q440.8375,475.1672 441.3625,474.9672 Q441.675,474.8422 442.0125,474.4922 Q442.225,474.2797 442.3375,474.2172 Q442.4625,474.1547 442.625,474.1547 Q442.8875,474.1547 443.0875,474.3672 Q443.3,474.5672 443.3,474.8422 Q443.3,475.1172 443.025,475.4422 Q442.625,475.9047 441.9875,476.1672 Q441.125,476.5297 440.0875,476.5297 Q438.875,476.5297 437.9125,476.0297 Q437.125,475.6297 436.575,474.7797 Q436.025,473.9172 436.025,472.8922 L436.025,471.9672 Q436.025,470.9047 436.5125,469.9922 Q437.0125,469.0672 437.8875,468.5797 Q438.7625,468.0797 439.75,468.0797 Q440.3375,468.0797 440.85,468.2172 Q441.375,468.3422 441.8125,468.6297 Z " fill="#000000"/><text fill="#000000" font-family="sans-serif" font-size="9.6" font-style="italic" lengthAdjust="spacing" textLength="44.8" x="451.2" y="468.4563">&#171;domain&#187;</text><text fill="#000000" font-family="sans-serif" font-size="11.2" lengthAdjust="spacing" textLength="45.6" x="450.8" y="482.9516">Question</text><line style="stroke:#181818;stroke-width:0.4000000000000001;" x1="428.4" x2="498" y1="489.7625" y2="489.7625"/><line style="stroke:#181818;stroke-width:0.4000000000000001;" x1="428.4" x2="498" y1="496.1625" y2="496.1625"/></g><!--class AddExamQuestionController--><g id="elem_AddExamQuestionController"><rect codeLine="22" fill="#F1F1F1" height="93.1563" id="AddExamQuestionController" rx="2" ry="2" style="stroke:#181818;stroke-width:0.4000000000000001;" width="399.2" x="237.2" y="163.6969"/><ellipse cx="362.2" cy="181.5297" fill="#ADD1B2" rx="8.8" ry="8.8" style="stroke:#181818;stroke-width:0.8000000000000002;"/><path d="M364.4125,178.2297 Q364.5375,178.0547 364.6875,177.9672 Q364.8375,177.8797 365.0125,177.8797 Q365.3125,177.8797 365.5,178.0922 Q365.6875,178.2922 365.6875,178.7797 L365.6875,179.9422 Q365.6875,180.4297 365.5,180.6422 Q365.3125,180.8547 365.0125,180.8547 Q364.7375,180.8547 364.575,180.6922 Q364.4125,180.5422 364.325,180.1297 Q364.2875,179.8422 364.1375,179.6922 Q363.875,179.3922 363.3875,179.2172 Q362.9,179.0422 362.4,179.0422 Q361.7875,179.0422 361.275,179.3047 Q360.775,179.5672 360.375,180.1672 Q359.9875,180.7672 359.9875,181.5922 L359.9875,182.4672 Q359.9875,183.4547 360.7,184.1172 Q361.4125,184.7672 362.6875,184.7672 Q363.4375,184.7672 363.9625,184.5672 Q364.275,184.4422 364.6125,184.0922 Q364.825,183.8797 364.9375,183.8172 Q365.0625,183.7547 365.225,183.7547 Q365.4875,183.7547 365.6875,183.9672 Q365.9,184.1672 365.9,184.4422 Q365.9,184.7172 365.625,185.0422 Q365.225,185.5047 364.5875,185.7672 Q363.725,186.1297 362.6875,186.1297 Q361.475,186.1297 360.5125,185.6297 Q359.725,185.2297 359.175,184.3797 Q358.625,183.5172 358.625,182.4922 L358.625,181.5672 Q358.625,180.5047 359.1125,179.5922 Q359.6125,178.6672 360.4875,178.1797 Q361.3625,177.6797 362.35,177.6797 Q362.9375,177.6797 363.45,177.8172 Q363.975,177.9422 364.4125,178.2297 Z " fill="#000000"/><text fill="#000000" font-family="sans-serif" font-size="9.6" font-style="italic" lengthAdjust="spacing" textLength="59.2" x="420.2" y="178.0563">&#171;application&#187;</text><text fill="#000000" font-family="sans-serif" font-size="11.2" lengthAdjust="spacing" textLength="142.4" x="378.6" y="192.5516">AddExamQuestionController</text><line style="stroke:#181818;stroke-width:0.4000000000000001;" x1="238" x2="635.6" y1="199.3625" y2="199.3625"/><line style="stroke:#181818;stroke-width:0.4000000000000001;" x1="238" x2="635.6" y1="205.7625" y2="205.7625"/><ellipse cx="246" cy="217.6109" fill="#84BE84" rx="2.4" ry="2.4" style="stroke:#038048;stroke-width:0.8000000000000002;"/><text fill="#000000" font-family="sans-serif" font-size="11.2" lengthAdjust="spacing" textLength="263.2" x="253.2" y="221.0484">Iterable&lt;Course&gt; listAllTeacherCoursesInProgress()</text><ellipse cx="246" cy="232.5078" fill="#84BE84" rx="2.4" ry="2.4" style="stroke:#038048;stroke-width:0.8000000000000002;"/><text fill="#000000" font-family="sans-serif" font-size="11.2" lengthAdjust="spacing" textLength="280.8" x="253.2" y="235.9453">Iterable&lt;Question&gt; parseQuestions(pathToFile : String)</text><ellipse cx="246" cy="247.4047" fill="#84BE84" rx="2.4" ry="2.4" style="stroke:#038048;stroke-width:0.8000000000000002;"/><text fill="#000000" font-family="sans-serif" font-size="11.2" lengthAdjust="spacing" textLength="378.4" x="253.2" y="250.8422">Course addQuestions(theCourse : Course, questions : Iterable&lt;Question&gt;)</text></g><!--class CourseRepository--><g id="elem_CourseRepository"><rect codeLine="28" fill="#F1F1F1" height="78.2594" id="CourseRepository" rx="2" ry="2" style="stroke:#181818;stroke-width:0.4000000000000001;" width="399.2" x="1295.6" y="319.6969"/><ellipse cx="1446.2" cy="337.5297" fill="#B4A7E5" rx="8.8" ry="8.8" style="stroke:#181818;stroke-width:0.8000000000000002;"/><path d="M1446.9625,334.8422 L1446.9625,340.1672 L1448.3375,340.1672 Q1448.825,340.1672 1449.0375,340.3547 Q1449.25,340.5422 1449.25,340.8547 Q1449.25,341.1547 1449.0375,341.3422 Q1448.825,341.5297 1448.3375,341.5297 L1444.225,341.5297 Q1443.7375,341.5297 1443.525,341.3422 Q1443.3125,341.1547 1443.3125,340.8422 Q1443.3125,340.5422 1443.525,340.3547 Q1443.7375,340.1672 1444.225,340.1672 L1445.6,340.1672 L1445.6,334.8422 L1444.225,334.8422 Q1443.7375,334.8422 1443.525,334.6547 Q1443.3125,334.4672 1443.3125,334.1547 Q1443.3125,333.8547 1443.525,333.6672 Q1443.7375,333.4797 1444.225,333.4797 L1448.3375,333.4797 Q1448.825,333.4797 1449.0375,333.6672 Q1449.25,333.8547 1449.25,334.1547 Q1449.25,334.4672 1449.0375,334.6547 Q1448.825,334.8422 1448.3375,334.8422 L1446.9625,334.8422 Z " fill="#000000"/><text fill="#000000" font-family="sans-serif" font-size="9.6" font-style="italic" lengthAdjust="spacing" textLength="62.4" x="1477" y="334.0563">&#171;repositories&#187;</text><text fill="#000000" font-family="sans-serif" font-size="11.2" font-style="italic" lengthAdjust="spacing" textLength="91.2" x="1462.6" y="348.5516">CourseRepository</text><line style="stroke:#181818;stroke-width:0.4000000000000001;" x1="1296.4" x2="1694" y1="355.3625" y2="355.3625"/><line style="stroke:#181818;stroke-width:0.4000000000000001;" x1="1296.4" x2="1694" y1="361.7625" y2="361.7625"/><ellipse cx="1304.4" cy="373.6109" fill="#84BE84" rx="2.4" ry="2.4" style="stroke:#038048;stroke-width:0.8000000000000002;"/><text fill="#000000" font-family="sans-serif" font-size="11.2" lengthAdjust="spacing" textLength="378.4" x="1311.6" y="377.0484">Iterable&lt;Course&gt; findAllTeacherCoursesInProgress(theTeacher : Teacher)</text><ellipse cx="1304.4" cy="388.5078" fill="#84BE84" rx="2.4" ry="2.4" style="stroke:#038048;stroke-width:0.8000000000000002;"/><text fill="#000000" font-family="sans-serif" font-size="11.2" lengthAdjust="spacing" textLength="171.2" x="1311.6" y="391.9453">Course save(theCourse : Course)</text></g><!--class ExamQuestionMain--><g id="elem_ExamQuestionMain"><rect codeLine="33" fill="#F1F1F1" height="63.3625" id="ExamQuestionMain" rx="2" ry="2" style="stroke:#181818;stroke-width:0.4000000000000001;" width="304" x="607.2" y="327.2969"/><ellipse cx="707.4" cy="345.1297" fill="#ADD1B2" rx="8.8" ry="8.8" style="stroke:#181818;stroke-width:0.8000000000000002;"/><path d="M709.6125,341.8297 Q709.7375,341.6547 709.8875,341.5672 Q710.0375,341.4797 710.2125,341.4797 Q710.5125,341.4797 710.7,341.6922 Q710.8875,341.8922 710.8875,342.3797 L710.8875,343.5422 Q710.8875,344.0297 710.7,344.2422 Q710.5125,344.4547 710.2125,344.4547 Q709.9375,344.4547 709.775,344.2922 Q709.6125,344.1422 709.525,343.7297 Q709.4875,343.4422 709.3375,343.2922 Q709.075,342.9922 708.5875,342.8172 Q708.1,342.6422 707.6,342.6422 Q706.9875,342.6422 706.475,342.9047 Q705.975,343.1672 705.575,343.7672 Q705.1875,344.3672 705.1875,345.1922 L705.1875,346.0672 Q705.1875,347.0547 705.9,347.7172 Q706.6125,348.3672 707.8875,348.3672 Q708.6375,348.3672 709.1625,348.1672 Q709.475,348.0422 709.8125,347.6922 Q710.025,347.4797 710.1375,347.4172 Q710.2625,347.3547 710.425,347.3547 Q710.6875,347.3547 710.8875,347.5672 Q711.1,347.7672 711.1,348.0422 Q711.1,348.3172 710.825,348.6422 Q710.425,349.1047 709.7875,349.3672 Q708.925,349.7297 707.8875,349.7297 Q706.675,349.7297 705.7125,349.2297 Q704.925,348.8297 704.375,347.9797 Q703.825,347.1172 703.825,346.0922 L703.825,345.1672 Q703.825,344.1047 704.3125,343.1922 Q704.8125,342.2672 705.6875,341.7797 Q706.5625,341.2797 707.55,341.2797 Q708.1375,341.2797 708.65,341.4172 Q709.175,341.5422 709.6125,341.8297 Z " fill="#000000"/><text fill="#000000" font-family="sans-serif" font-size="9.6" font-style="italic" lengthAdjust="spacing" textLength="33.6" x="755.4" y="341.6563">&#171;lprog&#187;</text><text fill="#000000" font-family="sans-serif" font-size="11.2" lengthAdjust="spacing" textLength="96.8" x="723.8" y="356.1516">ExamQuestionMain</text><line style="stroke:#181818;stroke-width:0.4000000000000001;" x1="608" x2="910.4" y1="362.9625" y2="362.9625"/><line style="stroke:#181818;stroke-width:0.4000000000000001;" x1="608" x2="910.4" y1="369.3625" y2="369.3625"/><ellipse cx="616" cy="381.2109" fill="#84BE84" rx="2.4" ry="2.4" style="stroke:#038048;stroke-width:0.8000000000000002;"/><text fill="#000000" font-family="sans-serif" font-size="11.2" lengthAdjust="spacing" text-decoration="underline" textLength="283.2" x="623.2" y="384.6484">Iterable&lt;Question&gt; parseWithVisitor(pathToFile : String)</text></g><!--class ExamQuestionLexer--><g id="elem_ExamQuestionLexer"><rect codeLine="36" fill="#F1F1F1" height="48.4656" id="ExamQuestionLexer" rx="2" ry="2" style="stroke:#181818;stroke-width:0.4000000000000001;" width="126.4" x="1165.6" y="454.0969"/><ellipse cx="1177.6" cy="471.9297" fill="#ADD1B2" rx="8.8" ry="8.8" style="stroke:#181818;stroke-width:0.8000000000000002;"/><path d="M1179.8125,468.6297 Q1179.9375,468.4547 1180.0875,468.3672 Q1180.2375,468.2797 1180.4125,468.2797 Q1180.7125,468.2797 1180.9,468.4922 Q1181.0875,468.6922 1181.0875,469.1797 L1181.0875,470.3422 Q1181.0875,470.8297 1180.9,471.0422 Q1180.7125,471.2547 1180.4125,471.2547 Q1180.1375,471.2547 1179.975,471.0922 Q1179.8125,470.9422 1179.725,470.5297 Q1179.6875,470.2422 1179.5375,470.0922 Q1179.275,469.7922 1178.7875,469.6172 Q1178.3,469.4422 1177.8,469.4422 Q1177.1875,469.4422 1176.675,469.7047 Q1176.175,469.9672 1175.775,470.5672 Q1175.3875,471.1672 1175.3875,471.9922 L1175.3875,472.8672 Q1175.3875,473.8547 1176.1,474.5172 Q1176.8125,475.1672 1178.0875,475.1672 Q1178.8375,475.1672 1179.3625,474.9672 Q1179.675,474.8422 1180.0125,474.4922 Q1180.225,474.2797 1180.3375,474.2172 Q1180.4625,474.1547 1180.625,474.1547 Q1180.8875,474.1547 1181.0875,474.3672 Q1181.3,474.5672 1181.3,474.8422 Q1181.3,475.1172 1181.025,475.4422 Q1180.625,475.9047 1179.9875,476.1672 Q1179.125,476.5297 1178.0875,476.5297 Q1176.875,476.5297 1175.9125,476.0297 Q1175.125,475.6297 1174.575,474.7797 Q1174.025,473.9172 1174.025,472.8922 L1174.025,471.9672 Q1174.025,470.9047 1174.5125,469.9922 Q1175.0125,469.0672 1175.8875,468.5797 Q1176.7625,468.0797 1177.75,468.0797 Q1178.3375,468.0797 1178.85,468.2172 Q1179.375,468.3422 1179.8125,468.6297 Z " fill="#000000"/><text fill="#000000" font-family="sans-serif" font-size="9.6" font-style="italic" lengthAdjust="spacing" textLength="33.6" x="1222.4" y="468.4563">&#171;lprog&#187;</text><text fill="#000000" font-family="sans-serif" font-size="11.2" lengthAdjust="spacing" textLength="100.8" x="1188.8" y="482.9516">ExamQuestionLexer</text><line style="stroke:#181818;stroke-width:0.4000000000000001;" x1="1166.4" x2="1291.2" y1="489.7625" y2="489.7625"/><line style="stroke:#181818;stroke-width:0.4000000000000001;" x1="1166.4" x2="1291.2" y1="496.1625" y2="496.1625"/></g><!--class CommonTokenStream--><g id="elem_CommonTokenStream"><rect codeLine="37" fill="#F1F1F1" height="48.4656" id="CommonTokenStream" rx="2" ry="2" style="stroke:#181818;stroke-width:0.4000000000000001;" width="138.4" x="526.8" y="454.0969"/><ellipse cx="538.8" cy="471.9297" fill="#ADD1B2" rx="8.8" ry="8.8" style="stroke:#181818;stroke-width:0.8000000000000002;"/><path d="M541.0125,468.6297 Q541.1375,468.4547 541.2875,468.3672 Q541.4375,468.2797 541.6125,468.2797 Q541.9125,468.2797 542.1,468.4922 Q542.2875,468.6922 542.2875,469.1797 L542.2875,470.3422 Q542.2875,470.8297 542.1,471.0422 Q541.9125,471.2547 541.6125,471.2547 Q541.3375,471.2547 541.175,471.0922 Q541.0125,470.9422 540.925,470.5297 Q540.8875,470.2422 540.7375,470.0922 Q540.475,469.7922 539.9875,469.6172 Q539.5,469.4422 539,469.4422 Q538.3875,469.4422 537.875,469.7047 Q537.375,469.9672 536.975,470.5672 Q536.5875,471.1672 536.5875,471.9922 L536.5875,472.8672 Q536.5875,473.8547 537.3,474.5172 Q538.0125,475.1672 539.2875,475.1672 Q540.0375,475.1672 540.5625,474.9672 Q540.875,474.8422 541.2125,474.4922 Q541.425,474.2797 541.5375,474.2172 Q541.6625,474.1547 541.825,474.1547 Q542.0875,474.1547 542.2875,474.3672 Q542.5,474.5672 542.5,474.8422 Q542.5,475.1172 542.225,475.4422 Q541.825,475.9047 541.1875,476.1672 Q540.325,476.5297 539.2875,476.5297 Q538.075,476.5297 537.1125,476.0297 Q536.325,475.6297 535.775,474.7797 Q535.225,473.9172 535.225,472.8922 L535.225,471.9672 Q535.225,470.9047 535.7125,469.9922 Q536.2125,469.0672 537.0875,468.5797 Q537.9625,468.0797 538.95,468.0797 Q539.5375,468.0797 540.05,468.2172 Q540.575,468.3422 541.0125,468.6297 Z " fill="#000000"/><text fill="#000000" font-family="sans-serif" font-size="9.6" font-style="italic" lengthAdjust="spacing" textLength="33.6" x="589.6" y="468.4563">&#171;lprog&#187;</text><text fill="#000000" font-family="sans-serif" font-size="11.2" lengthAdjust="spacing" textLength="112.8" x="550" y="482.9516">CommonTokenStream</text><line style="stroke:#181818;stroke-width:0.4000000000000001;" x1="527.6" x2="664.4" y1="489.7625" y2="489.7625"/><line style="stroke:#181818;stroke-width:0.4000000000000001;" x1="527.6" x2="664.4" y1="496.1625" y2="496.1625"/></g><!--class ExamQuestionParser--><g id="elem_ExamQuestionParser"><rect codeLine="38" fill="#F1F1F1" height="48.4656" id="ExamQuestionParser" rx="2" ry="2" style="stroke:#181818;stroke-width:0.4000000000000001;" width="132" x="693.2" y="454.0969"/><ellipse cx="705.2" cy="471.9297" fill="#ADD1B2" rx="8.8" ry="8.8" style="stroke:#181818;stroke-width:0.8000000000000002;"/><path d="M707.4125,468.6297 Q707.5375,468.4547 707.6875,468.3672 Q707.8375,468.2797 708.0125,468.2797 Q708.3125,468.2797 708.5,468.4922 Q708.6875,468.6922 708.6875,469.1797 L708.6875,470.3422 Q708.6875,470.8297 708.5,471.0422 Q708.3125,471.2547 708.0125,471.2547 Q707.7375,471.2547 707.575,471.0922 Q707.4125,470.9422 707.325,470.5297 Q707.2875,470.2422 707.1375,470.0922 Q706.875,469.7922 706.3875,469.6172 Q705.9,469.4422 705.4,469.4422 Q704.7875,469.4422 704.275,469.7047 Q703.775,469.9672 703.375,470.5672 Q702.9875,471.1672 702.9875,471.9922 L702.9875,472.8672 Q702.9875,473.8547 703.7,474.5172 Q704.4125,475.1672 705.6875,475.1672 Q706.4375,475.1672 706.9625,474.9672 Q707.275,474.8422 707.6125,474.4922 Q707.825,474.2797 707.9375,474.2172 Q708.0625,474.1547 708.225,474.1547 Q708.4875,474.1547 708.6875,474.3672 Q708.9,474.5672 708.9,474.8422 Q708.9,475.1172 708.625,475.4422 Q708.225,475.9047 707.5875,476.1672 Q706.725,476.5297 705.6875,476.5297 Q704.475,476.5297 703.5125,476.0297 Q702.725,475.6297 702.175,474.7797 Q701.625,473.9172 701.625,472.8922 L701.625,471.9672 Q701.625,470.9047 702.1125,469.9922 Q702.6125,469.0672 703.4875,468.5797 Q704.3625,468.0797 705.35,468.0797 Q705.9375,468.0797 706.45,468.2172 Q706.975,468.3422 707.4125,468.6297 Z " fill="#000000"/><text fill="#000000" font-family="sans-serif" font-size="9.6" font-style="italic" lengthAdjust="spacing" textLength="33.6" x="752.8" y="468.4563">&#171;lprog&#187;</text><text fill="#000000" font-family="sans-serif" font-size="11.2" lengthAdjust="spacing" textLength="106.4" x="716.4" y="482.9516">ExamQuestionParser</text><line style="stroke:#181818;stroke-width:0.4000000000000001;" x1="694" x2="824.4" y1="489.7625" y2="489.7625"/><line style="stroke:#181818;stroke-width:0.4000000000000001;" x1="694" x2="824.4" y1="496.1625" y2="496.1625"/></g><!--class ParseTree--><g id="elem_ParseTree"><rect codeLine="39" fill="#F1F1F1" height="48.4656" id="ParseTree" rx="2" ry="2" style="stroke:#181818;stroke-width:0.4000000000000001;" width="79.2" x="853.2" y="454.0969"/><ellipse cx="865.2" cy="471.9297" fill="#ADD1B2" rx="8.8" ry="8.8" style="stroke:#181818;stroke-width:0.8000000000000002;"/><path d="M867.4125,468.6297 Q867.5375,468.4547 867.6875,468.3672 Q867.8375,468.2797 868.0125,468.2797 Q868.3125,468.2797 868.5,468.4922 Q868.6875,468.6922 868.6875,469.1797 L868.6875,470.3422 Q868.6875,470.8297 868.5,471.0422 Q868.3125,471.2547 868.0125,471.2547 Q867.7375,471.2547 867.575,471.0922 Q867.4125,470.9422 867.325,470.5297 Q867.2875,470.2422 867.1375,470.0922 Q866.875,469.7922 866.3875,469.6172 Q865.9,469.4422 865.4,469.4422 Q864.7875,469.4422 864.275,469.7047 Q863.775,469.9672 863.375,470.5672 Q862.9875,471.1672 862.9875,471.9922 L862.9875,472.8672 Q862.9875,473.8547 863.7,474.5172 Q864.4125,475.1672 865.6875,475.1672 Q866.4375,475.1672 866.9625,474.9672 Q867.275,474.8422 867.6125,474.4922 Q867.825,474.2797 867.9375,474.2172 Q868.0625,474.1547 868.225,474.1547 Q868.4875,474.1547 868.6875,474.3672 Q868.9,474.5672 868.9,474.8422 Q868.9,475.1172 868.625,475.4422 Q868.225,475.9047 867.5875,476.1672 Q866.725,476.5297 865.6875,476.5297 Q864.475,476.5297 863.5125,476.0297 Q862.725,475.6297 862.175,474.7797 Q861.625,473.9172 861.625,472.8922 L861.625,471.9672 Q861.625,470.9047 862.1125,469.9922 Q862.6125,469.0672 863.4875,468.5797 Q864.3625,468.0797 865.35,468.0797 Q865.9375,468.0797 866.45,468.2172 Q866.975,468.3422 867.4125,468.6297 Z " fill="#000000"/><text fill="#000000" font-family="sans-serif" font-size="9.6" font-style="italic" lengthAdjust="spacing" textLength="33.6" x="886.4" y="468.4563">&#171;lprog&#187;</text><text fill="#000000" font-family="sans-serif" font-size="11.2" lengthAdjust="spacing" textLength="53.6" x="876.4" y="482.9516">ParseTree</text><line style="stroke:#181818;stroke-width:0.4000000000000001;" x1="854" x2="931.6" y1="489.7625" y2="489.7625"/><line style="stroke:#181818;stroke-width:0.4000000000000001;" x1="854" x2="931.6" y1="496.1625" y2="496.1625"/></g><!--class EvalVisitor--><g id="elem_EvalVisitor"><rect codeLine="40" fill="#F1F1F1" height="63.3625" id="EvalVisitor" rx="2" ry="2" style="stroke:#181818;stroke-width:0.4000000000000001;" width="176.8" x="960.4" y="446.8969"/><ellipse cx="1019" cy="464.7297" fill="#ADD1B2" rx="8.8" ry="8.8" style="stroke:#181818;stroke-width:0.8000000000000002;"/><path d="M1021.2125,461.4297 Q1021.3375,461.2547 1021.4875,461.1672 Q1021.6375,461.0797 1021.8125,461.0797 Q1022.1125,461.0797 1022.3,461.2922 Q1022.4875,461.4922 1022.4875,461.9797 L1022.4875,463.1422 Q1022.4875,463.6297 1022.3,463.8422 Q1022.1125,464.0547 1021.8125,464.0547 Q1021.5375,464.0547 1021.375,463.8922 Q1021.2125,463.7422 1021.125,463.3297 Q1021.0875,463.0422 1020.9375,462.8922 Q1020.675,462.5922 1020.1875,462.4172 Q1019.7,462.2422 1019.2,462.2422 Q1018.5875,462.2422 1018.075,462.5047 Q1017.575,462.7672 1017.175,463.3672 Q1016.7875,463.9672 1016.7875,464.7922 L1016.7875,465.6672 Q1016.7875,466.6547 1017.5,467.3172 Q1018.2125,467.9672 1019.4875,467.9672 Q1020.2375,467.9672 1020.7625,467.7672 Q1021.075,467.6422 1021.4125,467.2922 Q1021.625,467.0797 1021.7375,467.0172 Q1021.8625,466.9547 1022.025,466.9547 Q1022.2875,466.9547 1022.4875,467.1672 Q1022.7,467.3672 1022.7,467.6422 Q1022.7,467.9172 1022.425,468.2422 Q1022.025,468.7047 1021.3875,468.9672 Q1020.525,469.3297 1019.4875,469.3297 Q1018.275,469.3297 1017.3125,468.8297 Q1016.525,468.4297 1015.975,467.5797 Q1015.425,466.7172 1015.425,465.6922 L1015.425,464.7672 Q1015.425,463.7047 1015.9125,462.7922 Q1016.4125,461.8672 1017.2875,461.3797 Q1018.1625,460.8797 1019.15,460.8797 Q1019.7375,460.8797 1020.25,461.0172 Q1020.775,461.1422 1021.2125,461.4297 Z " fill="#000000"/><text fill="#000000" font-family="sans-serif" font-size="9.6" font-style="italic" lengthAdjust="spacing" textLength="33.6" x="1045" y="461.2563">&#171;lprog&#187;</text><text fill="#000000" font-family="sans-serif" font-size="11.2" lengthAdjust="spacing" textLength="52.8" x="1035.4" y="475.7516">EvalVisitor</text><line style="stroke:#181818;stroke-width:0.4000000000000001;" x1="961.2" x2="1136.4" y1="482.5625" y2="482.5625"/><line style="stroke:#181818;stroke-width:0.4000000000000001;" x1="961.2" x2="1136.4" y1="488.9625" y2="488.9625"/><ellipse cx="969.2" cy="500.8109" fill="#84BE84" rx="2.4" ry="2.4" style="stroke:#038048;stroke-width:0.8000000000000002;"/><text fill="#000000" font-family="sans-serif" font-size="11.2" lengthAdjust="spacing" textLength="156" x="976.4" y="504.2484">Iterable&lt;Question&gt; questions()</text></g><!--link AddExamQuestionUI to AddExamQuestionController--><g id="link_AddExamQuestionUI_AddExamQuestionController"><path codeLine="45" d="M135.304,94.1769 C184.4,112.9209 253.616,139.3529 313.352,162.1609 " fill="none" id="AddExamQuestionUI-to-AddExamQuestionController" style="stroke:#181818;stroke-width:0.8000000000000002;"/><polygon fill="#181818" points="317.272,163.6569,311.6892,158.097,313.5357,162.2286,309.404,164.0751,317.272,163.6569" style="stroke:#181818;stroke-width:0.8000000000000002;"/><text fill="#000000" font-family="sans-serif" font-size="10.4" lengthAdjust="spacing" textLength="58.4" x="255.2" y="136.5195">theController</text></g><!--link AddExamQuestionController to CourseRepository--><g id="link_AddExamQuestionController_CourseRepository"><path codeLine="46" d="M636.48,233.7689 C807.912,254.0889 1061.464,285.7529 1281.6,319.6969 C1284.808,320.1929 1288.04,320.6969 1291.296,321.2089 " fill="none" id="AddExamQuestionController-to-CourseRepository" style="stroke:#181818;stroke-width:0.8000000000000002;"/><polygon fill="#181818" points="1295.424,321.8649,1288.8156,317.5742,1291.4736,321.2369,1287.8109,323.8949,1295.424,321.8649" style="stroke:#181818;stroke-width:0.8000000000000002;"/><text fill="#000000" font-family="sans-serif" font-size="10.4" lengthAdjust="spacing" textLength="55.2" x="1097.6" y="292.5195">courseRepo</text></g><!--link AddExamQuestionController to Teacher--><g id="link_AddExamQuestionController_Teacher"><path codeLine="47" d="M305.384,256.5369 C261.904,273.8489 214.112,295.3369 172.8,319.6969 C166.864,323.2009 160.864,327.3769 155.216,331.6729 " fill="none" id="AddExamQuestionController-to-Teacher" style="stroke:#181818;stroke-width:0.8000000000000002;"/><polygon fill="#181818" points="151.744,334.3529,159.3948,332.47,154.9051,331.9019,155.4732,327.4122,151.744,334.3529" style="stroke:#181818;stroke-width:0.8000000000000002;"/><text fill="#000000" font-family="sans-serif" font-size="10.4" lengthAdjust="spacing" textLength="51.2" x="243.2" y="292.5195">theTeacher</text></g><!--link AddExamQuestionController to Course--><g id="link_AddExamQuestionController_Course"><path codeLine="48" d="M404.96,256.6649 C391.752,275.6569 376.528,297.5449 363.608,316.1129 " fill="none" id="AddExamQuestionController-to-Course" style="stroke:#181818;stroke-width:0.8000000000000002;"/><polygon fill="#181818" points="361.224,319.5369,367.9659,315.4593,363.5109,316.2551,362.7151,311.8002,361.224,319.5369" style="stroke:#181818;stroke-width:0.8000000000000002;"/><text fill="#000000" font-family="sans-serif" font-size="10.4" lengthAdjust="spacing" textLength="47.2" x="386.4" y="292.5195">theCourse</text></g><!--link AddExamQuestionController to Question--><g id="link_AddExamQuestionController_Question"><path codeLine="49" d="M468.32,256.6969 C479.368,275.3689 490.408,297.7129 496,319.6969 C504.592,353.4649 502.768,363.9129 496,398.0969 C492.416,416.2089 484.648,435.3769 477.576,450.3609 " fill="none" id="AddExamQuestionController-to-Question" style="stroke:#181818;stroke-width:0.8000000000000002;"/><polygon fill="#181818" points="475.8,454.0809,481.8047,448.9796,477.5339,450.4762,476.0373,446.2054,475.8,454.0809" style="stroke:#181818;stroke-width:0.8000000000000002;"/><text fill="#000000" font-family="sans-serif" font-size="10.4" lengthAdjust="spacing" textLength="39.2" x="503.2" y="363.3195">question</text></g><!--link AddExamQuestionController to ExamQuestionMain--><g id="link_AddExamQuestionController_ExamQuestionMain"><path codeLine="50" d="M536.824,256.5609 C585.736,278.8969 643.48,305.2569 687.864,325.5289 " fill="none" id="AddExamQuestionController-to-ExamQuestionMain" style="stroke:#181818;stroke-width:0.8000000000000002;"/><polygon fill="#181818" points="691.568,327.2169,686.3375,321.3243,687.9265,325.5617,683.6892,327.1507,691.568,327.2169" style="stroke:#181818;stroke-width:0.8000000000000002;"/></g><!--link JpaCourseRepository to CourseRepository--><g id="link_JpaCourseRepository_CourseRepository"><path codeLine="51" d="M1030.2,334.3929 C1048.152,317.7769 1074.344,297.2249 1102,288.0969 C1203.312,254.6649 1324.824,286.9609 1405.688,318.0809 " fill="none" id="JpaCourseRepository-to-CourseRepository" style="stroke:#181818;stroke-width:0.8000000000000002;"/><polygon fill="#181818" points="1409.504,319.5609,1403.9418,313.9804,1405.773,318.1188,1401.6345,319.95,1409.504,319.5609" style="stroke:#181818;stroke-width:0.8000000000000002;"/></g><!--link InMemoryCourseRepository to CourseRepository--><g id="link_InMemoryCourseRepository_CourseRepository"><path codeLine="52" d="M1267.856,358.8969 C1275.672,358.8969 1283.488,358.8969 1291.296,358.8969 " fill="none" id="InMemoryCourseRepository-to-CourseRepository" style="stroke:#181818;stroke-width:0.8000000000000002;"/><polygon fill="#181818" points="1295.384,358.8969,1288.184,355.6969,1291.384,358.8969,1288.184,362.0969,1295.384,358.8969" style="stroke:#181818;stroke-width:0.8000000000000002;"/></g><!--link AddExamQuestionUI to Question--><g id="link_AddExamQuestionUI_Question"><path codeLine="55" d="M60.376,100.6969 C40.256,164.5209 5.272,311.8489 76.8,398.0969 C120.696,451.0329 333.488,469.8969 423.192,475.5769 " fill="none" id="AddExamQuestionUI-to-Question" style="stroke:#181818;stroke-width:0.8000000000000002;stroke-dasharray:7.0,7.0;"/><polygon fill="#181818" points="427.368,475.8329,420.3829,472.1875,423.3759,475.5819,419.9814,478.5749,427.368,475.8329" style="stroke:#181818;stroke-width:0.8000000000000002;"/></g><!--link ExamQuestionMain to Question--><g id="link_ExamQuestionMain_Question"><path codeLine="56" d="M656.504,390.5369 C611.496,405.4409 558.608,424.8889 512.8,446.8969 C509.448,448.5049 506.032,450.2889 502.648,452.1609 " fill="none" id="ExamQuestionMain-to-Question" style="stroke:#181818;stroke-width:0.8000000000000002;stroke-dasharray:7.0,7.0;"/><polygon fill="#181818" points="498.992,454.2249,506.8354,453.4755,502.4762,452.26,503.6916,447.9008,498.992,454.2249" style="stroke:#181818;stroke-width:0.8000000000000002;"/></g><!--link ExamQuestionMain to ExamQuestionLexer--><g id="link_ExamQuestionMain_ExamQuestionLexer"><path codeLine="57" d="M891.992,390.5129 C903.36,393.0969 914.68,395.6569 925.6,398.0969 C1025.712,420.4729 1053.056,417.0249 1151.2,446.8969 C1156.832,448.6089 1162.632,450.5609 1168.408,452.6169 " fill="none" id="ExamQuestionMain-to-ExamQuestionLexer" style="stroke:#181818;stroke-width:0.8000000000000002;stroke-dasharray:7.0,7.0;"/><polygon fill="#181818" points="1172.392,454.0649,1166.7097,448.6067,1168.6305,452.7043,1164.5329,454.6251,1172.392,454.0649" style="stroke:#181818;stroke-width:0.8000000000000002;"/></g><!--link ExamQuestionMain to CommonTokenStream--><g id="link_ExamQuestionMain_CommonTokenStream"><path codeLine="58" d="M716.536,390.5449 C690.32,409.4969 657.112,433.5129 632.192,451.5289 " fill="none" id="ExamQuestionMain-to-CommonTokenStream" style="stroke:#181818;stroke-width:0.8000000000000002;stroke-dasharray:7.0,7.0;"/><polygon fill="#181818" points="628.888,453.9209,636.5989,452.3015,632.1313,451.5797,632.8531,447.1122,628.888,453.9209" style="stroke:#181818;stroke-width:0.8000000000000002;"/></g><!--link ExamQuestionMain to ExamQuestionParser--><g id="link_ExamQuestionMain_ExamQuestionParser"><path codeLine="59" d="M759.2,390.6969 C759.2,409.0329 759.2,432.0569 759.2,449.8169 " fill="none" id="ExamQuestionMain-to-ExamQuestionParser" style="stroke:#181818;stroke-width:0.8000000000000002;stroke-dasharray:7.0,7.0;"/><polygon fill="#181818" points="759.2,453.9849,762.4,446.7849,759.2,449.9849,756,446.7849,759.2,453.9849" style="stroke:#181818;stroke-width:0.8000000000000002;"/></g><!--link ExamQuestionMain to ParseTree--><g id="link_ExamQuestionMain_ParseTree"><path codeLine="60" d="M794.304,390.6969 C815.584,409.4969 842.456,433.2329 862.752,451.1529 " fill="none" id="ExamQuestionMain-to-ParseTree" style="stroke:#181818;stroke-width:0.8000000000000002;stroke-dasharray:7.0,7.0;"/><polygon fill="#181818" points="865.952,453.9849,862.6695,446.8221,862.9523,451.3388,858.4357,451.6216,865.952,453.9849" style="stroke:#181818;stroke-width:0.8000000000000002;"/></g><!--link ExamQuestionMain to EvalVisitor--><g id="link_ExamQuestionMain_EvalVisitor"><path codeLine="61" d="M834.912,390.5449 C876.232,407.3849 927.36,428.2169 969.264,445.2889 " fill="none" id="ExamQuestionMain-to-EvalVisitor" style="stroke:#181818;stroke-width:0.8000000000000002;stroke-dasharray:7.0,7.0;"/><polygon fill="#181818" points="973.032,446.8249,967.5715,441.1448,969.3276,445.3157,965.1568,447.0718,973.032,446.8249" style="stroke:#181818;stroke-width:0.8000000000000002;"/></g><!--SRC=[bLJVQzim47xNNt6mXwHqWRANWGc1acoGqOvkIRU7iGVLkiPYikH9QjPH_BzFjcKvgHKxyvDy-kx7T_UTBBS2OIceCR3YTATf3jFbwW9cSB-1TrTNxmcPrDTeI5h3hXdxy4ppBqzeB5VoVWtpUQ7HeBIqCYmMy4B0VMyUb1989J2roTIVwGKfYO_ngQ1BzQGDViL26MwL_bj5GMsuiIXJh8AK7hoMjvWxn3aUtcMBDCrGEmHJEULDJU6s2NHyMHKysw2TjxmMyDkVJ7rvkLUS0MNinYLiGMOQG930sgAc3mAx61Nb9cThEb7IgwOkbRHQ2L5Je4KXU7hSsykGgo6p0E7AkXR2Cs-iPYtljDgvuHZN_ME_ZcT17RHZL52RRTL7xdIHmCPgBdVUr_VDzQ13smozEV5zVGlZFI5SEliZJH4YKzNj3qSpmFYHIpR4s9NMwY1f5N7CnD0zHXWS2FLmABTkQguwKRW4NLalff9zMfvgx7Tkis-yfXDlRHb9TOFFzUX3hZ98Dy-LtAfVA9q_kcsDW0uZtLKrH4FLDrkD60snfy9NtQSSeHf6tcpvv3FTyrqjMT9_BsQpnO3W4wWdqlwJqyWgJay-2QJ1DEBRgQEJobdfsXghyuX3sFiaz6Z4uxNaIEonZ30d9z_969XCLbYWPExfT5iM6z8FHas6xES12T9RX_z7zMG-3Ey9_lpeZVI7yM49Hi9swq3-0G00]--></g></svg>