<?xml version="1.0" encoding="us-ascii" standalone="no"?><svg xmlns="http://www.w3.org/2000/svg" xmlns:xlink="http://www.w3.org/1999/xlink" contentStyleType="text/css" height="516px" preserveAspectRatio="none" style="width:1235px;height:516px;background:#FFFFFF;" version="1.1" viewBox="0 0 1235 516" width="1235.2px" zoomAndPan="magnify"><defs/><g><text fill="#000000" font-family="sans-serif" font-size="11.2" font-weight="bold" lengthAdjust="spacing" textLength="170.4" x="526.8" y="20.0859">Domain Classes (DC) - US 2007</text><!--cluster <<aggregate>> Teacher--><g id="cluster_&lt;&lt;aggregate&gt;&gt; Teacher"><path d="M1099.6,311.7078 L1219.6,311.7078 A3,3 0 0 1 1221.6,313.7078 L1227.2,331.4047 L1227.6,331.4047 A2,2 0 0 1 1229.6,333.4047 L1229.6,508.5078 A2,2 0 0 1 1227.6,510.5078 L1099.6,510.5078 A2,2 0 0 1 1097.6,508.5078 L1097.6,313.7078 A2,2 0 0 1 1099.6,311.7078 " fill="none" style="stroke:#000000;stroke-width:1.2000000000000002;"/><line style="stroke:#000000;stroke-width:1.2000000000000002;" x1="1097.6" x2="1227.2" y1="331.4047" y2="331.4047"/><text fill="#000000" font-family="sans-serif" font-size="11.2" font-weight="bold" lengthAdjust="spacing" textLength="119.2" x="1100.8" y="325.3938">&#171;aggregate&#187; Teacher</text></g><!--cluster <<aggregate>> Course--><g id="cluster_&lt;&lt;aggregate&gt;&gt; Course"><path d="M6.8,36.5078 L122,36.5078 A3,3 0 0 1 124,38.5078 L129.6,56.2047 L240.4,56.2047 A2,2 0 0 1 242.4,58.2047 L242.4,263.3078 A2,2 0 0 1 240.4,265.3078 L6.8,265.3078 A2,2 0 0 1 4.8,263.3078 L4.8,38.5078 A2,2 0 0 1 6.8,36.5078 " fill="none" style="stroke:#000000;stroke-width:1.2000000000000002;"/><line style="stroke:#000000;stroke-width:1.2000000000000002;" x1="4.8" x2="129.6" y1="56.2047" y2="56.2047"/><text fill="#000000" font-family="sans-serif" font-size="11.2" font-weight="bold" lengthAdjust="spacing" textLength="114.4" x="8" y="50.1938">&#171;aggregate&#187; Course</text></g><!--cluster <<aggregate>> Question--><g id="cluster_&lt;&lt;aggregate&gt;&gt; Question"><path d="M263.6,173.3078 L389.2,173.3078 A3,3 0 0 1 391.2,175.3078 L396.8,193.0047 L1076.4,193.0047 A2,2 0 0 1 1078.4,195.0047 L1078.4,415.7078 A2,2 0 0 1 1076.4,417.7078 L263.6,417.7078 A2,2 0 0 1 261.6,415.7078 L261.6,175.3078 A2,2 0 0 1 263.6,173.3078 " fill="none" style="stroke:#000000;stroke-width:1.2000000000000002;"/><line style="stroke:#000000;stroke-width:1.2000000000000002;" x1="261.6" x2="396.8" y1="193.0047" y2="193.0047"/><text fill="#000000" font-family="sans-serif" font-size="11.2" font-weight="bold" lengthAdjust="spacing" textLength="124.8" x="264.8" y="186.9938">&#171;aggregate&#187; Question</text></g><!--class Teacher--><g id="elem_Teacher"><rect codeLine="10" fill="#F1F1F1" height="54.8344" id="Teacher" rx="2" ry="2" style="stroke:#181818;stroke-width:0.4000000000000001;" width="68" x="1115.6" y="341.3078"/><ellipse cx="1127.6" cy="365.525" fill="#ADD1B2" rx="8.8" ry="8.8" style="stroke:#181818;stroke-width:0.8000000000000002;"/><path d="M1126.6875,366.1625 L1126.6875,368.1625 L1130.15,368.1625 L1130.15,367.425 Q1130.15,366.9375 1130.3375,366.725 Q1130.5375,366.5125 1130.8375,366.5125 Q1131.1375,366.5125 1131.325,366.725 Q1131.5125,366.9375 1131.5125,367.425 L1131.5125,369.525 L1125.1125,369.525 Q1124.6125,369.525 1124.4,369.3375 Q1124.2,369.15 1124.2,368.8375 Q1124.2,368.5375 1124.4125,368.35 Q1124.625,368.1625 1125.1125,368.1625 L1125.325,368.1625 L1125.325,362.8375 L1125.1125,362.8375 Q1124.6125,362.8375 1124.4,362.65 Q1124.2,362.4625 1124.2,362.15 Q1124.2,361.85 1124.4,361.6625 Q1124.6125,361.475 1125.1125,361.475 L1131.2125,361.475 L1131.2125,363.55 Q1131.2125,364.0375 1131.025,364.25 Q1130.85,364.45 1130.5375,364.45 Q1130.2375,364.45 1130.05,364.25 Q1129.8625,364.0375 1129.8625,363.55 L1129.8625,362.8375 L1126.6875,362.8375 L1126.6875,364.8 L1127.875,364.8 Q1127.875,364.275 1127.975,364.125 Q1128.1875,363.8 1128.5625,363.8 Q1128.8625,363.8 1129.05,364.0125 Q1129.2375,364.2125 1129.2375,364.7 L1129.2375,366.275 Q1129.2375,366.7125 1129.1375,366.8625 Q1128.925,367.175 1128.5625,367.175 Q1128.1875,367.175 1127.975,366.85 Q1127.875,366.7 1127.875,366.1625 L1126.6875,366.1625 Z " fill="#000000"/><text fill="#000000" font-family="sans-serif" font-size="9.6" font-style="italic" lengthAdjust="spacing" textLength="34.4" x="1142.8" y="355.6672">&#171;entity&#187;</text><text fill="#000000" font-family="sans-serif" font-size="9.6" font-style="italic" lengthAdjust="spacing" textLength="28" x="1146" y="368.4359">&#171;root&#187;</text><text fill="#000000" font-family="sans-serif" font-size="11.2" lengthAdjust="spacing" textLength="42.4" x="1138.8" y="382.9313">Teacher</text><line style="stroke:#181818;stroke-width:0.4000000000000001;" x1="1116.4" x2="1182.8" y1="389.7422" y2="389.7422"/></g><!--class Acronym--><g id="elem_Acronym"><rect codeLine="11" fill="#F1F1F1" height="42.0656" id="Acronym" rx="2" ry="2" style="stroke:#181818;stroke-width:0.4000000000000001;" width="87.2" x="1110.8" y="455.3078"/><ellipse cx="1122.8" cy="473.1406" fill="#FF8B40" rx="8.8" ry="8.8" style="stroke:#181818;stroke-width:0.8000000000000002;"/><path d="M1123.275,475.7531 L1125.25,471.0531 L1124.9375,471.0531 Q1124.45,471.0531 1124.2375,470.8656 Q1124.025,470.6781 1124.025,470.3656 Q1124.025,470.0656 1124.2375,469.8781 Q1124.45,469.6906 1124.9375,469.6906 L1126.7625,469.6906 Q1127.25,469.6906 1127.4625,469.8781 Q1127.675,470.0656 1127.675,470.3656 Q1127.675,470.7406 1127.35,470.9531 Q1127.2,471.0531 1126.725,471.0531 L1123.9375,477.7406 L1122.625,477.7406 L1119.8375,471.0531 Q1119.3625,471.0531 1119.2125,470.9531 Q1118.8875,470.7406 1118.8875,470.3656 Q1118.8875,470.0656 1119.1,469.8781 Q1119.3125,469.6906 1119.8,469.6906 L1121.6375,469.6906 Q1122.125,469.6906 1122.325,469.8781 Q1122.5375,470.0656 1122.5375,470.3656 Q1122.5375,470.6781 1122.325,470.8656 Q1122.125,471.0531 1121.6375,471.0531 L1121.3125,471.0531 L1123.275,475.7531 Z " fill="#000000"/><text fill="#000000" font-family="sans-serif" font-size="9.6" font-style="italic" lengthAdjust="spacing" textLength="64.8" x="1132.4" y="469.6672">&#171;value object&#187;</text><text fill="#000000" font-family="sans-serif" font-size="11.2" lengthAdjust="spacing" textLength="44" x="1142.8" y="484.1625">Acronym</text><line style="stroke:#181818;stroke-width:0.4000000000000001;" x1="1111.6" x2="1197.2" y1="490.9734" y2="490.9734"/></g><!--class Course--><g id="elem_Course"><rect codeLine="16" fill="#F1F1F1" height="54.8344" id="Course" rx="2" ry="2" style="stroke:#181818;stroke-width:0.4000000000000001;" width="62.4" x="151.2" y="66.1078"/><ellipse cx="163.2" cy="90.325" fill="#ADD1B2" rx="8.8" ry="8.8" style="stroke:#181818;stroke-width:0.8000000000000002;"/><path d="M162.2875,90.9625 L162.2875,92.9625 L165.75,92.9625 L165.75,92.225 Q165.75,91.7375 165.9375,91.525 Q166.1375,91.3125 166.4375,91.3125 Q166.7375,91.3125 166.925,91.525 Q167.1125,91.7375 167.1125,92.225 L167.1125,94.325 L160.7125,94.325 Q160.2125,94.325 160,94.1375 Q159.8,93.95 159.8,93.6375 Q159.8,93.3375 160.0125,93.15 Q160.225,92.9625 160.7125,92.9625 L160.925,92.9625 L160.925,87.6375 L160.7125,87.6375 Q160.2125,87.6375 160,87.45 Q159.8,87.2625 159.8,86.95 Q159.8,86.65 160,86.4625 Q160.2125,86.275 160.7125,86.275 L166.8125,86.275 L166.8125,88.35 Q166.8125,88.8375 166.625,89.05 Q166.45,89.25 166.1375,89.25 Q165.8375,89.25 165.65,89.05 Q165.4625,88.8375 165.4625,88.35 L165.4625,87.6375 L162.2875,87.6375 L162.2875,89.6 L163.475,89.6 Q163.475,89.075 163.575,88.925 Q163.7875,88.6 164.1625,88.6 Q164.4625,88.6 164.65,88.8125 Q164.8375,89.0125 164.8375,89.5 L164.8375,91.075 Q164.8375,91.5125 164.7375,91.6625 Q164.525,91.975 164.1625,91.975 Q163.7875,91.975 163.575,91.65 Q163.475,91.5 163.475,90.9625 L162.2875,90.9625 Z " fill="#000000"/><text fill="#000000" font-family="sans-serif" font-size="9.6" font-style="italic" lengthAdjust="spacing" textLength="34.4" x="175.6" y="80.4672">&#171;entity&#187;</text><text fill="#000000" font-family="sans-serif" font-size="9.6" font-style="italic" lengthAdjust="spacing" textLength="28" x="178.8" y="93.2359">&#171;root&#187;</text><text fill="#000000" font-family="sans-serif" font-size="11.2" lengthAdjust="spacing" textLength="36.8" x="174.4" y="107.7313">Course</text><line style="stroke:#181818;stroke-width:0.4000000000000001;" x1="152" x2="212.8" y1="114.5422" y2="114.5422"/></g><!--class CourseCode--><g id="elem_CourseCode"><rect codeLine="17" fill="#F1F1F1" height="42.0656" id="CourseCode" rx="2" ry="2" style="stroke:#181818;stroke-width:0.4000000000000001;" width="89.6" x="17.6" y="210.1078"/><ellipse cx="29.6" cy="227.9406" fill="#FF8B40" rx="8.8" ry="8.8" style="stroke:#181818;stroke-width:0.8000000000000002;"/><path d="M30.075,230.5531 L32.05,225.8531 L31.7375,225.8531 Q31.25,225.8531 31.0375,225.6656 Q30.825,225.4781 30.825,225.1656 Q30.825,224.8656 31.0375,224.6781 Q31.25,224.4906 31.7375,224.4906 L33.5625,224.4906 Q34.05,224.4906 34.2625,224.6781 Q34.475,224.8656 34.475,225.1656 Q34.475,225.5406 34.15,225.7531 Q34,225.8531 33.525,225.8531 L30.7375,232.5406 L29.425,232.5406 L26.6375,225.8531 Q26.1625,225.8531 26.0125,225.7531 Q25.6875,225.5406 25.6875,225.1656 Q25.6875,224.8656 25.9,224.6781 Q26.1125,224.4906 26.6,224.4906 L28.4375,224.4906 Q28.925,224.4906 29.125,224.6781 Q29.3375,224.8656 29.3375,225.1656 Q29.3375,225.4781 29.125,225.6656 Q28.925,225.8531 28.4375,225.8531 L28.1125,225.8531 L30.075,230.5531 Z " fill="#000000"/><text fill="#000000" font-family="sans-serif" font-size="9.6" font-style="italic" lengthAdjust="spacing" textLength="64.8" x="40.4" y="224.4672">&#171;value object&#187;</text><text fill="#000000" font-family="sans-serif" font-size="11.2" lengthAdjust="spacing" textLength="64" x="40.8" y="238.9625">CourseCode</text><line style="stroke:#181818;stroke-width:0.4000000000000001;" x1="18.4" x2="106.4" y1="245.7734" y2="245.7734"/></g><!--class CourseStatus--><g id="elem_CourseStatus"><rect codeLine="18" fill="#F1F1F1" height="42.0656" id="CourseStatus" rx="2" ry="2" style="stroke:#181818;stroke-width:0.4000000000000001;" width="94.4" x="135.2" y="210.1078"/><ellipse cx="147.2" cy="227.9406" fill="#FF8B40" rx="8.8" ry="8.8" style="stroke:#181818;stroke-width:0.8000000000000002;"/><path d="M147.675,230.5531 L149.65,225.8531 L149.3375,225.8531 Q148.85,225.8531 148.6375,225.6656 Q148.425,225.4781 148.425,225.1656 Q148.425,224.8656 148.6375,224.6781 Q148.85,224.4906 149.3375,224.4906 L151.1625,224.4906 Q151.65,224.4906 151.8625,224.6781 Q152.075,224.8656 152.075,225.1656 Q152.075,225.5406 151.75,225.7531 Q151.6,225.8531 151.125,225.8531 L148.3375,232.5406 L147.025,232.5406 L144.2375,225.8531 Q143.7625,225.8531 143.6125,225.7531 Q143.2875,225.5406 143.2875,225.1656 Q143.2875,224.8656 143.5,224.6781 Q143.7125,224.4906 144.2,224.4906 L146.0375,224.4906 Q146.525,224.4906 146.725,224.6781 Q146.9375,224.8656 146.9375,225.1656 Q146.9375,225.4781 146.725,225.6656 Q146.525,225.8531 146.0375,225.8531 L145.7125,225.8531 L147.675,230.5531 Z " fill="#000000"/><text fill="#000000" font-family="sans-serif" font-size="9.6" font-style="italic" lengthAdjust="spacing" textLength="64.8" x="160.4" y="224.4672">&#171;value object&#187;</text><text fill="#000000" font-family="sans-serif" font-size="11.2" lengthAdjust="spacing" textLength="68.8" x="158.4" y="238.9625">CourseStatus</text><line style="stroke:#181818;stroke-width:0.4000000000000001;" x1="136" x2="228.8" y1="245.7734" y2="245.7734"/></g><!--class Answer--><g id="elem_Answer"><rect codeLine="24" fill="#F1F1F1" height="71.8594" id="Answer" rx="2" ry="2" style="stroke:#181818;stroke-width:0.4000000000000001;" width="81.6" x="274.4" y="332.9078"/><ellipse cx="295.04" cy="350.7406" fill="#ADD1B2" rx="8.8" ry="8.8" style="stroke:#181818;stroke-width:0.8000000000000002;"/><path d="M294.1275,351.3781 L294.1275,353.3781 L297.59,353.3781 L297.59,352.6406 Q297.59,352.1531 297.7775,351.9406 Q297.9775,351.7281 298.2775,351.7281 Q298.5775,351.7281 298.765,351.9406 Q298.9525,352.1531 298.9525,352.6406 L298.9525,354.7406 L292.5525,354.7406 Q292.0525,354.7406 291.84,354.5531 Q291.64,354.3656 291.64,354.0531 Q291.64,353.7531 291.8525,353.5656 Q292.065,353.3781 292.5525,353.3781 L292.765,353.3781 L292.765,348.0531 L292.5525,348.0531 Q292.0525,348.0531 291.84,347.8656 Q291.64,347.6781 291.64,347.3656 Q291.64,347.0656 291.84,346.8781 Q292.0525,346.6906 292.5525,346.6906 L298.6525,346.6906 L298.6525,348.7656 Q298.6525,349.2531 298.465,349.4656 Q298.29,349.6656 297.9775,349.6656 Q297.6775,349.6656 297.49,349.4656 Q297.3025,349.2531 297.3025,348.7656 L297.3025,348.0531 L294.1275,348.0531 L294.1275,350.0156 L295.315,350.0156 Q295.315,349.4906 295.415,349.3406 Q295.6275,349.0156 296.0025,349.0156 Q296.3025,349.0156 296.49,349.2281 Q296.6775,349.4281 296.6775,349.9156 L296.6775,351.4906 Q296.6775,351.9281 296.5775,352.0781 Q296.365,352.3906 296.0025,352.3906 Q295.6275,352.3906 295.415,352.0656 Q295.315,351.9156 295.315,351.3781 L294.1275,351.3781 Z " fill="#000000"/><text fill="#000000" font-family="sans-serif" font-size="9.6" font-style="italic" lengthAdjust="spacing" textLength="40" x="306.56" y="347.2672">&#171;entity&gt;&#187;</text><text fill="#000000" font-family="sans-serif" font-size="11.2" lengthAdjust="spacing" textLength="36.8" x="308.16" y="361.7625">Answer</text><line style="stroke:#181818;stroke-width:0.4000000000000001;" x1="275.2" x2="355.2" y1="368.5734" y2="368.5734"/><text fill="#000000" font-family="sans-serif" font-size="11.2" lengthAdjust="spacing" textLength="72" x="279.2" y="383.8594">correctAnswer</text><text fill="#000000" font-family="sans-serif" font-size="11.2" lengthAdjust="spacing" textLength="46.4" x="279.2" y="398.7563">feedback</text></g><!--class Question--><g id="elem_Question"><rect codeLine="30" fill="#F1F1F1" height="56.9625" id="Question" rx="2" ry="2" style="stroke:#181818;stroke-width:0.4000000000000001;" width="74.4" x="618.8" y="202.9078"/><ellipse cx="630.8" cy="220.7406" fill="#A9DCDF" rx="8.8" ry="8.8" style="stroke:#181818;stroke-width:0.8000000000000002;"/><path d="M632.55,222.1531 L629.2375,222.1531 L628.9,222.9781 L629.2375,222.9781 Q629.725,222.9781 629.9375,223.1656 Q630.15,223.3531 630.15,223.6656 Q630.15,223.9656 629.9375,224.1531 Q629.725,224.3406 629.2375,224.3406 L627.4,224.3406 Q626.9125,224.3406 626.7125,224.1531 Q626.5,223.9656 626.5,223.6531 Q626.5,223.3531 626.725,223.1656 Q626.9375,222.9656 627.4375,222.9781 L629.575,217.6531 L628.6875,217.6531 Q628.2,217.6531 627.9875,217.4656 Q627.775,217.2781 627.775,216.9656 Q627.775,216.6656 627.9875,216.4781 Q628.2,216.2906 628.6875,216.2906 L631.625,216.2906 L634.3375,222.9781 Q634.8125,222.9781 634.9625,223.0906 Q635.275,223.3031 635.275,223.6656 Q635.275,223.9656 635.0625,224.1531 Q634.8625,224.3406 634.375,224.3406 L632.5375,224.3406 Q632.05,224.3406 631.8375,224.1531 Q631.625,223.9656 631.625,223.6531 Q631.625,223.3531 631.8375,223.1656 Q632.05,222.9781 632.5375,222.9781 L632.875,222.9781 L632.55,222.1531 Z M631.975,220.7906 L630.8875,218.0906 L629.7875,220.7906 L631.975,220.7906 Z " fill="#000000"/><text fill="#000000" font-family="sans-serif" font-size="9.6" font-style="italic" lengthAdjust="spacing" textLength="52" x="640.4" y="217.2672">&#171;abstract&gt;&#187;</text><text fill="#000000" font-family="sans-serif" font-size="11.2" font-style="italic" lengthAdjust="spacing" textLength="45.6" x="643.6" y="231.7625">Question</text><line style="stroke:#181818;stroke-width:0.4000000000000001;" x1="619.6" x2="692.4" y1="238.5734" y2="238.5734"/><text fill="#000000" font-family="sans-serif" font-size="11.2" lengthAdjust="spacing" textLength="17.6" x="623.6" y="253.8594">text</text></g><!--class QuestionScore--><g id="elem_QuestionScore"><rect codeLine="33" fill="#F1F1F1" height="42.0656" id="QuestionScore" rx="2" ry="2" style="stroke:#181818;stroke-width:0.4000000000000001;" width="100.8" x="489.6" y="210.1078"/><ellipse cx="501.6" cy="227.9406" fill="#FF8B40" rx="8.8" ry="8.8" style="stroke:#181818;stroke-width:0.8000000000000002;"/><path d="M502.075,230.5531 L504.05,225.8531 L503.7375,225.8531 Q503.25,225.8531 503.0375,225.6656 Q502.825,225.4781 502.825,225.1656 Q502.825,224.8656 503.0375,224.6781 Q503.25,224.4906 503.7375,224.4906 L505.5625,224.4906 Q506.05,224.4906 506.2625,224.6781 Q506.475,224.8656 506.475,225.1656 Q506.475,225.5406 506.15,225.7531 Q506,225.8531 505.525,225.8531 L502.7375,232.5406 L501.425,232.5406 L498.6375,225.8531 Q498.1625,225.8531 498.0125,225.7531 Q497.6875,225.5406 497.6875,225.1656 Q497.6875,224.8656 497.9,224.6781 Q498.1125,224.4906 498.6,224.4906 L500.4375,224.4906 Q500.925,224.4906 501.125,224.6781 Q501.3375,224.8656 501.3375,225.1656 Q501.3375,225.4781 501.125,225.6656 Q500.925,225.8531 500.4375,225.8531 L500.1125,225.8531 L502.075,230.5531 Z " fill="#000000"/><text fill="#000000" font-family="sans-serif" font-size="9.6" font-style="italic" lengthAdjust="spacing" textLength="64.8" x="518" y="224.4672">&#171;value object&#187;</text><text fill="#000000" font-family="sans-serif" font-size="11.2" lengthAdjust="spacing" textLength="75.2" x="512.8" y="238.9625">QuestionScore</text><line style="stroke:#181818;stroke-width:0.4000000000000001;" x1="490.4" x2="589.6" y1="245.7734" y2="245.7734"/></g><!--class Matching--><g id="elem_Matching"><rect codeLine="35" fill="#F1F1F1" height="42.0656" id="Matching" rx="2" ry="2" style="stroke:#181818;stroke-width:0.4000000000000001;" width="71.2" x="384.4" y="347.7078"/><ellipse cx="396.4" cy="365.5406" fill="#ADD1B2" rx="8.8" ry="8.8" style="stroke:#181818;stroke-width:0.8000000000000002;"/><path d="M395.4875,366.1781 L395.4875,368.1781 L398.95,368.1781 L398.95,367.4406 Q398.95,366.9531 399.1375,366.7406 Q399.3375,366.5281 399.6375,366.5281 Q399.9375,366.5281 400.125,366.7406 Q400.3125,366.9531 400.3125,367.4406 L400.3125,369.5406 L393.9125,369.5406 Q393.4125,369.5406 393.2,369.3531 Q393,369.1656 393,368.8531 Q393,368.5531 393.2125,368.3656 Q393.425,368.1781 393.9125,368.1781 L394.125,368.1781 L394.125,362.8531 L393.9125,362.8531 Q393.4125,362.8531 393.2,362.6656 Q393,362.4781 393,362.1656 Q393,361.8656 393.2,361.6781 Q393.4125,361.4906 393.9125,361.4906 L400.0125,361.4906 L400.0125,363.5656 Q400.0125,364.0531 399.825,364.2656 Q399.65,364.4656 399.3375,364.4656 Q399.0375,364.4656 398.85,364.2656 Q398.6625,364.0531 398.6625,363.5656 L398.6625,362.8531 L395.4875,362.8531 L395.4875,364.8156 L396.675,364.8156 Q396.675,364.2906 396.775,364.1406 Q396.9875,363.8156 397.3625,363.8156 Q397.6625,363.8156 397.85,364.0281 Q398.0375,364.2281 398.0375,364.7156 L398.0375,366.2906 Q398.0375,366.7281 397.9375,366.8781 Q397.725,367.1906 397.3625,367.1906 Q396.9875,367.1906 396.775,366.8656 Q396.675,366.7156 396.675,366.1781 L395.4875,366.1781 Z " fill="#000000"/><text fill="#000000" font-family="sans-serif" font-size="9.6" font-style="italic" lengthAdjust="spacing" textLength="40" x="410.4" y="362.0672">&#171;entity&gt;&#187;</text><text fill="#000000" font-family="sans-serif" font-size="11.2" lengthAdjust="spacing" textLength="45.6" x="407.6" y="376.5625">Matching</text><line style="stroke:#181818;stroke-width:0.4000000000000001;" x1="385.2" x2="454.8" y1="383.3734" y2="383.3734"/></g><!--class MultipleChoice--><g id="elem_MultipleChoice"><rect codeLine="36" fill="#F1F1F1" height="42.0656" id="MultipleChoice" rx="2" ry="2" style="stroke:#181818;stroke-width:0.4000000000000001;" width="99.2" x="484" y="347.7078"/><ellipse cx="496" cy="365.5406" fill="#ADD1B2" rx="8.8" ry="8.8" style="stroke:#181818;stroke-width:0.8000000000000002;"/><path d="M495.0875,366.1781 L495.0875,368.1781 L498.55,368.1781 L498.55,367.4406 Q498.55,366.9531 498.7375,366.7406 Q498.9375,366.5281 499.2375,366.5281 Q499.5375,366.5281 499.725,366.7406 Q499.9125,366.9531 499.9125,367.4406 L499.9125,369.5406 L493.5125,369.5406 Q493.0125,369.5406 492.8,369.3531 Q492.6,369.1656 492.6,368.8531 Q492.6,368.5531 492.8125,368.3656 Q493.025,368.1781 493.5125,368.1781 L493.725,368.1781 L493.725,362.8531 L493.5125,362.8531 Q493.0125,362.8531 492.8,362.6656 Q492.6,362.4781 492.6,362.1656 Q492.6,361.8656 492.8,361.6781 Q493.0125,361.4906 493.5125,361.4906 L499.6125,361.4906 L499.6125,363.5656 Q499.6125,364.0531 499.425,364.2656 Q499.25,364.4656 498.9375,364.4656 Q498.6375,364.4656 498.45,364.2656 Q498.2625,364.0531 498.2625,363.5656 L498.2625,362.8531 L495.0875,362.8531 L495.0875,364.8156 L496.275,364.8156 Q496.275,364.2906 496.375,364.1406 Q496.5875,363.8156 496.9625,363.8156 Q497.2625,363.8156 497.45,364.0281 Q497.6375,364.2281 497.6375,364.7156 L497.6375,366.2906 Q497.6375,366.7281 497.5375,366.8781 Q497.325,367.1906 496.9625,367.1906 Q496.5875,367.1906 496.375,366.8656 Q496.275,366.7156 496.275,366.1781 L495.0875,366.1781 Z " fill="#000000"/><text fill="#000000" font-family="sans-serif" font-size="9.6" font-style="italic" lengthAdjust="spacing" textLength="40" x="524" y="362.0672">&#171;entity&gt;&#187;</text><text fill="#000000" font-family="sans-serif" font-size="11.2" lengthAdjust="spacing" textLength="73.6" x="507.2" y="376.5625">MultipleChoice</text><line style="stroke:#181818;stroke-width:0.4000000000000001;" x1="484.8" x2="582.4" y1="383.3734" y2="383.3734"/></g><!--class ShortAnswer--><g id="elem_ShortAnswer"><rect codeLine="37" fill="#F1F1F1" height="42.0656" id="ShortAnswer" rx="2" ry="2" style="stroke:#181818;stroke-width:0.4000000000000001;" width="89.6" x="611.2" y="347.7078"/><ellipse cx="623.2" cy="365.5406" fill="#ADD1B2" rx="8.8" ry="8.8" style="stroke:#181818;stroke-width:0.8000000000000002;"/><path d="M622.2875,366.1781 L622.2875,368.1781 L625.75,368.1781 L625.75,367.4406 Q625.75,366.9531 625.9375,366.7406 Q626.1375,366.5281 626.4375,366.5281 Q626.7375,366.5281 626.925,366.7406 Q627.1125,366.9531 627.1125,367.4406 L627.1125,369.5406 L620.7125,369.5406 Q620.2125,369.5406 620,369.3531 Q619.8,369.1656 619.8,368.8531 Q619.8,368.5531 620.0125,368.3656 Q620.225,368.1781 620.7125,368.1781 L620.925,368.1781 L620.925,362.8531 L620.7125,362.8531 Q620.2125,362.8531 620,362.6656 Q619.8,362.4781 619.8,362.1656 Q619.8,361.8656 620,361.6781 Q620.2125,361.4906 620.7125,361.4906 L626.8125,361.4906 L626.8125,363.5656 Q626.8125,364.0531 626.625,364.2656 Q626.45,364.4656 626.1375,364.4656 Q625.8375,364.4656 625.65,364.2656 Q625.4625,364.0531 625.4625,363.5656 L625.4625,362.8531 L622.2875,362.8531 L622.2875,364.8156 L623.475,364.8156 Q623.475,364.2906 623.575,364.1406 Q623.7875,363.8156 624.1625,363.8156 Q624.4625,363.8156 624.65,364.0281 Q624.8375,364.2281 624.8375,364.7156 L624.8375,366.2906 Q624.8375,366.7281 624.7375,366.8781 Q624.525,367.1906 624.1625,367.1906 Q623.7875,367.1906 623.575,366.8656 Q623.475,366.7156 623.475,366.1781 L622.2875,366.1781 Z " fill="#000000"/><text fill="#000000" font-family="sans-serif" font-size="9.6" font-style="italic" lengthAdjust="spacing" textLength="40" x="646.4" y="362.0672">&#171;entity&gt;&#187;</text><text fill="#000000" font-family="sans-serif" font-size="11.2" lengthAdjust="spacing" textLength="64" x="634.4" y="376.5625">ShortAnswer</text><line style="stroke:#181818;stroke-width:0.4000000000000001;" x1="612" x2="700" y1="383.3734" y2="383.3734"/></g><!--class Numerical--><g id="elem_Numerical"><rect codeLine="38" fill="#F1F1F1" height="42.0656" id="Numerical" rx="2" ry="2" style="stroke:#181818;stroke-width:0.4000000000000001;" width="75.2" x="728.8" y="347.7078"/><ellipse cx="740.8" cy="365.5406" fill="#ADD1B2" rx="8.8" ry="8.8" style="stroke:#181818;stroke-width:0.8000000000000002;"/><path d="M739.8875,366.1781 L739.8875,368.1781 L743.35,368.1781 L743.35,367.4406 Q743.35,366.9531 743.5375,366.7406 Q743.7375,366.5281 744.0375,366.5281 Q744.3375,366.5281 744.525,366.7406 Q744.7125,366.9531 744.7125,367.4406 L744.7125,369.5406 L738.3125,369.5406 Q737.8125,369.5406 737.6,369.3531 Q737.4,369.1656 737.4,368.8531 Q737.4,368.5531 737.6125,368.3656 Q737.825,368.1781 738.3125,368.1781 L738.525,368.1781 L738.525,362.8531 L738.3125,362.8531 Q737.8125,362.8531 737.6,362.6656 Q737.4,362.4781 737.4,362.1656 Q737.4,361.8656 737.6,361.6781 Q737.8125,361.4906 738.3125,361.4906 L744.4125,361.4906 L744.4125,363.5656 Q744.4125,364.0531 744.225,364.2656 Q744.05,364.4656 743.7375,364.4656 Q743.4375,364.4656 743.25,364.2656 Q743.0625,364.0531 743.0625,363.5656 L743.0625,362.8531 L739.8875,362.8531 L739.8875,364.8156 L741.075,364.8156 Q741.075,364.2906 741.175,364.1406 Q741.3875,363.8156 741.7625,363.8156 Q742.0625,363.8156 742.25,364.0281 Q742.4375,364.2281 742.4375,364.7156 L742.4375,366.2906 Q742.4375,366.7281 742.3375,366.8781 Q742.125,367.1906 741.7625,367.1906 Q741.3875,367.1906 741.175,366.8656 Q741.075,366.7156 741.075,366.1781 L739.8875,366.1781 Z " fill="#000000"/><text fill="#000000" font-family="sans-serif" font-size="9.6" font-style="italic" lengthAdjust="spacing" textLength="40" x="756.8" y="362.0672">&#171;entity&gt;&#187;</text><text fill="#000000" font-family="sans-serif" font-size="11.2" lengthAdjust="spacing" textLength="49.6" x="752" y="376.5625">Numerical</text><line style="stroke:#181818;stroke-width:0.4000000000000001;" x1="729.6" x2="803.2" y1="383.3734" y2="383.3734"/></g><!--class SelectMissingWords--><g id="elem_SelectMissingWords"><rect codeLine="39" fill="#F1F1F1" height="42.0656" id="SelectMissingWords" rx="2" ry="2" style="stroke:#181818;stroke-width:0.4000000000000001;" width="127.2" x="832.4" y="347.7078"/><ellipse cx="844.4" cy="365.5406" fill="#ADD1B2" rx="8.8" ry="8.8" style="stroke:#181818;stroke-width:0.8000000000000002;"/><path d="M843.4875,366.1781 L843.4875,368.1781 L846.95,368.1781 L846.95,367.4406 Q846.95,366.9531 847.1375,366.7406 Q847.3375,366.5281 847.6375,366.5281 Q847.9375,366.5281 848.125,366.7406 Q848.3125,366.9531 848.3125,367.4406 L848.3125,369.5406 L841.9125,369.5406 Q841.4125,369.5406 841.2,369.3531 Q841,369.1656 841,368.8531 Q841,368.5531 841.2125,368.3656 Q841.425,368.1781 841.9125,368.1781 L842.125,368.1781 L842.125,362.8531 L841.9125,362.8531 Q841.4125,362.8531 841.2,362.6656 Q841,362.4781 841,362.1656 Q841,361.8656 841.2,361.6781 Q841.4125,361.4906 841.9125,361.4906 L848.0125,361.4906 L848.0125,363.5656 Q848.0125,364.0531 847.825,364.2656 Q847.65,364.4656 847.3375,364.4656 Q847.0375,364.4656 846.85,364.2656 Q846.6625,364.0531 846.6625,363.5656 L846.6625,362.8531 L843.4875,362.8531 L843.4875,364.8156 L844.675,364.8156 Q844.675,364.2906 844.775,364.1406 Q844.9875,363.8156 845.3625,363.8156 Q845.6625,363.8156 845.85,364.0281 Q846.0375,364.2281 846.0375,364.7156 L846.0375,366.2906 Q846.0375,366.7281 845.9375,366.8781 Q845.725,367.1906 845.3625,367.1906 Q844.9875,367.1906 844.775,366.8656 Q844.675,366.7156 844.675,366.1781 L843.4875,366.1781 Z " fill="#000000"/><text fill="#000000" font-family="sans-serif" font-size="9.6" font-style="italic" lengthAdjust="spacing" textLength="40" x="886.4" y="362.0672">&#171;entity&gt;&#187;</text><text fill="#000000" font-family="sans-serif" font-size="11.2" lengthAdjust="spacing" textLength="101.6" x="855.6" y="376.5625">SelectMissingWords</text><line style="stroke:#181818;stroke-width:0.4000000000000001;" x1="833.2" x2="958.8" y1="383.3734" y2="383.3734"/></g><!--class TrueFalse--><g id="elem_TrueFalse"><rect codeLine="40" fill="#F1F1F1" height="42.0656" id="TrueFalse" rx="2" ry="2" style="stroke:#181818;stroke-width:0.4000000000000001;" width="77.6" x="987.6" y="347.7078"/><ellipse cx="999.6" cy="365.5406" fill="#ADD1B2" rx="8.8" ry="8.8" style="stroke:#181818;stroke-width:0.8000000000000002;"/><path d="M998.6875,366.1781 L998.6875,368.1781 L1002.15,368.1781 L1002.15,367.4406 Q1002.15,366.9531 1002.3375,366.7406 Q1002.5375,366.5281 1002.8375,366.5281 Q1003.1375,366.5281 1003.325,366.7406 Q1003.5125,366.9531 1003.5125,367.4406 L1003.5125,369.5406 L997.1125,369.5406 Q996.6125,369.5406 996.4,369.3531 Q996.2,369.1656 996.2,368.8531 Q996.2,368.5531 996.4125,368.3656 Q996.625,368.1781 997.1125,368.1781 L997.325,368.1781 L997.325,362.8531 L997.1125,362.8531 Q996.6125,362.8531 996.4,362.6656 Q996.2,362.4781 996.2,362.1656 Q996.2,361.8656 996.4,361.6781 Q996.6125,361.4906 997.1125,361.4906 L1003.2125,361.4906 L1003.2125,363.5656 Q1003.2125,364.0531 1003.025,364.2656 Q1002.85,364.4656 1002.5375,364.4656 Q1002.2375,364.4656 1002.05,364.2656 Q1001.8625,364.0531 1001.8625,363.5656 L1001.8625,362.8531 L998.6875,362.8531 L998.6875,364.8156 L999.875,364.8156 Q999.875,364.2906 999.975,364.1406 Q1000.1875,363.8156 1000.5625,363.8156 Q1000.8625,363.8156 1001.05,364.0281 Q1001.2375,364.2281 1001.2375,364.7156 L1001.2375,366.2906 Q1001.2375,366.7281 1001.1375,366.8781 Q1000.925,367.1906 1000.5625,367.1906 Q1000.1875,367.1906 999.975,366.8656 Q999.875,366.7156 999.875,366.1781 L998.6875,366.1781 Z " fill="#000000"/><text fill="#000000" font-family="sans-serif" font-size="9.6" font-style="italic" lengthAdjust="spacing" textLength="40" x="1016.8" y="362.0672">&#171;entity&gt;&#187;</text><text fill="#000000" font-family="sans-serif" font-size="11.2" lengthAdjust="spacing" textLength="52" x="1010.8" y="376.5625">TrueFalse</text><line style="stroke:#181818;stroke-width:0.4000000000000001;" x1="988.4" x2="1064.4" y1="383.3734" y2="383.3734"/></g><!--link Teacher to Acronym--><g id="link_Teacher_Acronym"><path codeLine="43" d="M1150.824,396.7318 C1151.584,413.4678 1152.544,434.7958 1153.288,451.0678 " fill="none" id="Teacher-to-Acronym" style="stroke:#181818;stroke-width:0.8000000000000002;"/><polygon fill="#181818" points="1153.464,455.0918,1156.3319,447.7532,1153.2813,451.096,1149.9385,448.0455,1153.464,455.0918" style="stroke:#181818;stroke-width:0.8000000000000002;"/></g><!--link Course to CourseCode--><g id="link_Course_CourseCode"><path codeLine="45" d="M158.688,121.3798 C136.728,146.2678 104.368,182.9398 83.336,206.7798 " fill="none" id="Course-to-CourseCode" style="stroke:#181818;stroke-width:0.8000000000000002;"/><polygon fill="#181818" points="80.576,209.9078,87.7449,206.6388,83.2278,206.9131,82.9535,202.396,80.576,209.9078" style="stroke:#181818;stroke-width:0.8000000000000002;"/></g><!--link Course to CourseStatus--><g id="link_Course_CourseStatus"><path codeLine="46" d="M182.4,121.3798 C182.4,145.9638 182.4,182.0438 182.4,205.8918 " fill="none" id="Course-to-CourseStatus" style="stroke:#181818;stroke-width:0.8000000000000002;"/><polygon fill="#181818" points="182.4,209.9078,185.6,202.7078,182.4,205.9078,179.2,202.7078,182.4,209.9078" style="stroke:#181818;stroke-width:0.8000000000000002;"/></g><!--link Course to Question--><g id="link_Course_Question"><path codeLine="47" d="M213.72,97.0038 C299.792,104.2998 537.928,127.6038 604.8,166.9078 C618.096,174.7238 629.336,187.3798 637.864,199.3478 " fill="none" id="Course-to-Question" style="stroke:#181818;stroke-width:0.8000000000000002;"/><polygon fill="#181818" points="640.2,202.6998,638.7089,194.9631,637.9131,199.4181,633.4581,198.6222,640.2,202.6998" style="stroke:#181818;stroke-width:0.8000000000000002;"/><polygon fill="#000000" points="595.0884,153.9625,588.6057,149.9796,587.5027,154.5507,595.0884,153.9625" style="stroke:#000000;stroke-width:0.8000000000000002;"/><text fill="#000000" font-family="sans-serif" font-size="10.4" lengthAdjust="spacing" textLength="16.8" x="598.4" y="157.3305">has</text><text fill="#000000" font-family="sans-serif" font-size="10.4" lengthAdjust="spacing" textLength="5.6" x="220.0109" y="94.0356">1</text><text fill="#000000" font-family="sans-serif" font-size="10.4" lengthAdjust="spacing" textLength="16" x="619.8119" y="193.8006">0..*</text></g><!--reverse link QuestionScore to Question--><g id="link_QuestionScore_Question"><path codeLine="49" d="M594.696,231.3078 C602.688,231.3078 610.672,231.3078 618.656,231.3078 " fill="none" id="QuestionScore-backto-Question" style="stroke:#181818;stroke-width:0.8000000000000002;"/><polygon fill="#181818" points="590.52,231.3078,597.72,234.5078,594.52,231.3078,597.72,228.1078,590.52,231.3078" style="stroke:#181818;stroke-width:0.8000000000000002;"/></g><!--link Question to Answer--><g id="link_Question_Answer"><path codeLine="50" d="M626.096,259.7718 C619.504,264.5238 612.248,268.8438 604.8,271.7078 C538.896,297.0358 515.904,271.3318 446.4,283.7078 C411.832,289.8678 400.088,286.5558 370.4,305.3078 C360.256,311.7158 350.904,320.5318 342.896,329.5318 " fill="none" id="Question-to-Answer" style="stroke:#181818;stroke-width:0.8000000000000002;"/><polygon fill="#181818" points="340.232,332.5878,347.3743,329.2611,342.8595,329.5719,342.5488,325.057,340.232,332.5878" style="stroke:#181818;stroke-width:0.8000000000000002;"/><polygon fill="#000000" points="446.5161,292.3809,454.1045,292.9331,452.9798,288.3673,446.5161,292.3809" style="stroke:#000000;stroke-width:0.8000000000000002;"/><text fill="#000000" font-family="sans-serif" font-size="10.4" lengthAdjust="spacing" textLength="16.8" x="457.6" y="295.7305">has</text><text fill="#000000" font-family="sans-serif" font-size="10.4" lengthAdjust="spacing" textLength="5.6" x="614.4662" y="277.5028">1</text><text fill="#000000" font-family="sans-serif" font-size="10.4" lengthAdjust="spacing" textLength="16" x="326.7336" y="323.9046">1..*</text></g><!--link Question to Teacher--><g id="link_Question_Teacher"><path codeLine="51" d="M693.352,231.8918 C769.592,232.8518 947.04,242.3078 1078.4,305.3078 C1094.84,313.1958 1110.368,325.9878 1122.704,337.9798 " fill="none" id="Question-to-Teacher" style="stroke:#181818;stroke-width:0.8000000000000002;"/><polygon fill="#181818" points="1125.768,341.0118,1122.8951,333.6752,1122.9225,338.2006,1118.3971,338.228,1125.768,341.0118" style="stroke:#181818;stroke-width:0.8000000000000002;"/><polygon fill="#000000" points="1064.6832,292.3837,1058.2224,288.3655,1057.0944,292.9305,1064.6832,292.3837" style="stroke:#000000;stroke-width:0.8000000000000002;"/><text fill="#000000" font-family="sans-serif" font-size="10.4" lengthAdjust="spacing" textLength="48.8" x="1068" y="295.7305">created by</text><text fill="#000000" font-family="sans-serif" font-size="10.4" lengthAdjust="spacing" textLength="16" x="699.7296" y="228.6453">0..*</text><text fill="#000000" font-family="sans-serif" font-size="10.4" lengthAdjust="spacing" textLength="5.6" x="1115.2577" y="332.2926">1</text></g><!--reverse link Question to Matching--><g id="link_Question_Matching"><path codeLine="53" d="M610.72,268.5878 C608.76,269.6998 606.784,270.7478 604.8,271.7078 C549.4,298.5798 522.248,272.0918 470.4,305.3078 C453.92,315.8678 440.392,333.6598 431.512,347.6118 " fill="none" id="Question-backto-Matching" style="stroke:#181818;stroke-width:0.8000000000000002;"/><polygon fill="none" points="607.808,263.8038,624.28,259.8198,613.888,273.2118,607.808,263.8038" style="stroke:#181818;stroke-width:0.8000000000000002;"/></g><!--reverse link Question to MultipleChoice--><g id="link_Question_MultipleChoice"><path codeLine="54" d="M620.16,271.9318 C597.832,296.7398 570.032,327.6278 552.056,347.6038 " fill="none" id="Question-backto-MultipleChoice" style="stroke:#181818;stroke-width:0.8000000000000002;"/><polygon fill="none" points="616.072,268.1078,630.936,259.9558,624.392,275.5958,616.072,268.1078" style="stroke:#181818;stroke-width:0.8000000000000002;"/></g><!--reverse link Question to ShortAnswer--><g id="link_Question_ShortAnswer"><path codeLine="55" d="M656,276.0598 C656,300.0918 656,328.7238 656,347.6038 " fill="none" id="Question-backto-ShortAnswer" style="stroke:#181818;stroke-width:0.8000000000000002;"/><polygon fill="none" points="650.4,275.9558,656,259.9558,661.6,275.9558,650.4,275.9558" style="stroke:#181818;stroke-width:0.8000000000000002;"/></g><!--reverse link Question to Numerical--><g id="link_Question_Numerical"><path codeLine="56" d="M688.88,272.6118 C708.92,297.3078 733.688,327.8118 749.752,347.6038 " fill="none" id="Question-backto-Numerical" style="stroke:#181818;stroke-width:0.8000000000000002;"/><polygon fill="none" points="684.344,275.9078,678.608,259.9558,693.04,268.8518,684.344,275.9078" style="stroke:#181818;stroke-width:0.8000000000000002;"/></g><!--reverse link Question to SelectMissingWords--><g id="link_Question_SelectMissingWords"><path codeLine="57" d="M708.448,251.7318 C741.136,264.9238 783.472,283.7958 818.4,305.3078 C838.32,317.5718 858.816,334.3718 873.736,347.4998 " fill="none" id="Question-backto-SelectMissingWords" style="stroke:#181818;stroke-width:0.8000000000000002;"/><polygon fill="none" points="706.304,256.9078,693.488,245.8198,710.424,246.4918,706.304,256.9078" style="stroke:#181818;stroke-width:0.8000000000000002;"/></g><!--reverse link Question to TrueFalse--><g id="link_Question_TrueFalse"><path codeLine="58" d="M709.352,234.1718 C775.776,238.9318 890.592,254.5158 973.6,305.3078 C990.608,315.7158 1004.808,333.5238 1014.176,347.5238 " fill="none" id="Question-backto-TrueFalse" style="stroke:#181818;stroke-width:0.8000000000000002;"/><polygon fill="none" points="708.976,239.7638,693.36,233.1718,709.68,228.5798,708.976,239.7638" style="stroke:#181818;stroke-width:0.8000000000000002;"/></g><!--SRC=[ZLDDRvmm4BtxLupe8KbL8b9LQXKXf2tHIZsaKaNQdesPW1l0o1wQRZ_-Uys7WMMBjhunxytCcta3gGP8GQg8L0MPr2X8gfenabGYtAcAonhYaXk31YxluYlmuNC2huFWBME5p10gf49bXfadMJTSymf4HzyHQPcsX1-4gXFv4o5WxE81kIXGiuQB9vuZU678yrnZpWcZ24ROWryCxCFQoZYuA8JX4B34CDHAKHJrjBuVx8HMzQ6oqEMNL_1Ylt_t_arm1TzvsIAez9kTpFB_M16nQhN1BGq3kf8m1Cye64Ynol2CY7LAGfnQyn_AFxLeUdysj3lSgR_OrURPhdinoH1PJ1ADt5wKqjq5BBAwzuYOfRPX7x0o-igJbEwBfuOq5pG9iFLTxBW3uGyQwynRS5c9xNzkTyjPxZc9GjRvSfeZl2r9DYN6XP82jrX9eJIThcL9-TXMgANWvMODBAsyUscCbVDLwSniCHzqYtjUccCvTglkolrCFTT-vEwPiV7sN7o-idyZmp4vpBlnmBUO5rnVl_HcVswXu0RiEgU8N-8Z-T6n6JCy5Rhf2utxScLcsj1dO7hJhtiBGgEzqGpIGzTrSivl6__tt9IjB5l3Iw_Ms6pIITQfEslARCiQ-Gi0]--></g></svg>