<?xml version="1.0" encoding="us-ascii" standalone="no"?><svg xmlns="http://www.w3.org/2000/svg" xmlns:xlink="http://www.w3.org/1999/xlink" contentStyleType="text/css" height="783.2px" preserveAspectRatio="none" style="width:2035px;height:783px;background:#FFFFFF;" version="1.1" viewBox="0 0 2035 783" width="2035.2px" zoomAndPan="magnify"><defs/><g><text fill="#000000" font-family="sans-serif" font-size="11.2" font-weight="bold" lengthAdjust="spacing" textLength="186.4" x="925.8" y="24.0859">Sequence Diagram (SD) - US 2007</text><rect fill="#FFFFFF" height="579.7547" style="stroke:#181818;stroke-width:0.8000000000000002;" width="8" x="26.8" y="110.2906"/><rect fill="#FFFFFF" height="561.1219" style="stroke:#181818;stroke-width:0.8000000000000002;" width="8" x="522" y="128.9234"/><rect fill="#FFFFFF" height="25.0328" style="stroke:#181818;stroke-width:0.8000000000000002;" width="8" x="1049.2" y="178.9891"/><rect fill="#FFFFFF" height="150.1969" style="stroke:#181818;stroke-width:0.8000000000000002;" width="8" x="1049.2" y="364.6188"/><rect fill="#FFFFFF" height="75.0984" style="stroke:#181818;stroke-width:0.8000000000000002;" width="8" x="1049.2" y="589.9141"/><rect fill="#FFFFFF" height="100.1313" style="stroke:#181818;stroke-width:0.8000000000000002;" width="8" x="1327.2" y="389.6516"/><rect fill="#FFFFFF" height="50.0656" style="stroke:#181818;stroke-width:0.8000000000000002;" width="8" x="1894.8" y="414.6844"/><line style="stroke:#181818;stroke-width:0.4000000000000001;stroke-dasharray:5.0,5.0;" x1="30.4" x2="30.4" y1="102.2906" y2="704.4453"/><line style="stroke:#181818;stroke-width:0.4000000000000001;stroke-dasharray:5.0,5.0;" x1="526" x2="526" y1="102.2906" y2="704.4453"/><line style="stroke:#181818;stroke-width:0.4000000000000001;stroke-dasharray:5.0,5.0;" x1="1053.2" x2="1053.2" y1="102.2906" y2="704.4453"/><line style="stroke:#181818;stroke-width:0.4000000000000001;stroke-dasharray:5.0,5.0;" x1="1217.2" x2="1217.2" y1="102.2906" y2="704.4453"/><line style="stroke:#181818;stroke-width:0.4000000000000001;stroke-dasharray:5.0,5.0;" x1="1330.8" x2="1330.8" y1="102.2906" y2="704.4453"/><line style="stroke:#181818;stroke-width:0.4000000000000001;stroke-dasharray:5.0,5.0;" x1="1449.2" x2="1449.2" y1="102.2906" y2="704.4453"/><line style="stroke:#181818;stroke-width:0.4000000000000001;stroke-dasharray:5.0,5.0;" x1="1574.8" x2="1574.8" y1="102.2906" y2="704.4453"/><line style="stroke:#181818;stroke-width:0.4000000000000001;stroke-dasharray:5.0,5.0;" x1="1703.6" x2="1703.6" y1="102.2906" y2="704.4453"/><line style="stroke:#181818;stroke-width:0.4000000000000001;stroke-dasharray:5.0,5.0;" x1="1814.8" x2="1814.8" y1="102.2906" y2="704.4453"/><line style="stroke:#181818;stroke-width:0.4000000000000001;stroke-dasharray:5.0,5.0;" x1="1898.8" x2="1898.8" y1="102.2906" y2="704.4453"/><line style="stroke:#181818;stroke-width:0.4000000000000001;stroke-dasharray:5.0,5.0;" x1="1986.8" x2="1986.8" y1="102.2906" y2="704.4453"/><text fill="#000000" font-family="sans-serif" font-size="11.2" lengthAdjust="spacing" textLength="48.8" x="4" y="99.4797">Professor</text><ellipse cx="30.8" cy="46.1938" fill="#E3E3E3" rx="6.4" ry="6.4" style="stroke:#181818;stroke-width:0.4000000000000001;"/><path d="M30.8,52.5938 L30.8,74.1938 M20.4,58.9938 L41.2,58.9938 M30.8,74.1938 L20.4,86.1938 M30.8,74.1938 L41.2,86.1938 " fill="none" style="stroke:#181818;stroke-width:0.4000000000000001;"/><text fill="#000000" font-family="sans-serif" font-size="11.2" lengthAdjust="spacing" textLength="48.8" x="4" y="715.7313">Professor</text><ellipse cx="30.8" cy="725.3422" fill="#E3E3E3" rx="6.4" ry="6.4" style="stroke:#181818;stroke-width:0.4000000000000001;"/><path d="M30.8,731.7422 L30.8,753.3422 M20.4,738.1422 L41.2,738.1422 M30.8,753.3422 L20.4,765.3422 M30.8,753.3422 L41.2,765.3422 " fill="none" style="stroke:#181818;stroke-width:0.4000000000000001;"/><rect fill="#E3E3E3" height="40.9938" rx="2" ry="2" style="stroke:#181818;stroke-width:0.4000000000000001;" width="113.6" x="469.2" y="60.4969"/><text fill="#000000" font-family="sans-serif" font-size="11.2" font-style="italic" lengthAdjust="spacing" textLength="76" x="488" y="78.1828">&#171;presentation&#187;</text><text fill="#000000" font-family="sans-serif" font-size="11.2" lengthAdjust="spacing" textLength="102.4" x="474.8" y="93.0797">AddExamQuestionUI</text><rect fill="#E3E3E3" height="40.9938" rx="2" ry="2" style="stroke:#181818;stroke-width:0.4000000000000001;" width="113.6" x="469.2" y="703.6453"/><text fill="#000000" font-family="sans-serif" font-size="11.2" font-style="italic" lengthAdjust="spacing" textLength="76" x="488" y="721.3313">&#171;presentation&#187;</text><text fill="#000000" font-family="sans-serif" font-size="11.2" lengthAdjust="spacing" textLength="102.4" x="474.8" y="736.2281">AddExamQuestionUI</text><text fill="#000000" font-family="sans-serif" font-size="11.2" font-style="italic" lengthAdjust="spacing" textLength="67.2" x="1017.2" y="84.5828">&#171;application&#187;</text><text fill="#000000" font-family="sans-serif" font-size="11.2" lengthAdjust="spacing" textLength="142.4" x="979.6" y="99.4797">AddExamQuestionController</text><ellipse cx="1053.2" cy="59.6969" fill="#E3E3E3" rx="9.6" ry="9.6" style="stroke:#181818;stroke-width:0.4000000000000001;"/><polygon fill="#181818" points="1050,50.0969,1054.8,46.0969,1053.2,50.0969,1054.8,54.0969,1050,50.0969" style="stroke:#181818;stroke-width:0.8000000000000002;"/><text fill="#000000" font-family="sans-serif" font-size="11.2" font-style="italic" lengthAdjust="spacing" textLength="67.2" x="1017.2" y="715.7313">&#171;application&#187;</text><text fill="#000000" font-family="sans-serif" font-size="11.2" lengthAdjust="spacing" textLength="142.4" x="979.6" y="730.6281">AddExamQuestionController</text><ellipse cx="1053.2" cy="746.2391" fill="#E3E3E3" rx="9.6" ry="9.6" style="stroke:#181818;stroke-width:0.4000000000000001;"/><polygon fill="#181818" points="1050,736.6391,1054.8,732.6391,1053.2,736.6391,1054.8,740.6391,1050,736.6391" style="stroke:#181818;stroke-width:0.8000000000000002;"/><rect fill="#E3E3E3" height="40.9938" rx="2" ry="2" style="stroke:#181818;stroke-width:0.4000000000000001;" width="104" x="1165.2" y="60.4969"/><text fill="#000000" font-family="sans-serif" font-size="11.2" font-style="italic" lengthAdjust="spacing" textLength="49.6" x="1192.4" y="78.1828">&#171;domain&#187;</text><text fill="#000000" font-family="sans-serif" font-size="11.2" lengthAdjust="spacing" textLength="92.8" x="1170.8" y="93.0797">theCourse:Course</text><rect fill="#E3E3E3" height="40.9938" rx="2" ry="2" style="stroke:#181818;stroke-width:0.4000000000000001;" width="104" x="1165.2" y="703.6453"/><text fill="#000000" font-family="sans-serif" font-size="11.2" font-style="italic" lengthAdjust="spacing" textLength="49.6" x="1192.4" y="721.3313">&#171;domain&#187;</text><text fill="#000000" font-family="sans-serif" font-size="11.2" lengthAdjust="spacing" textLength="92.8" x="1170.8" y="736.2281">theCourse:Course</text><rect fill="#E3E3E3" height="40.9938" rx="2" ry="2" style="stroke:#181818;stroke-width:0.4000000000000001;" width="108" x="1277.2" y="60.4969"/><text fill="#000000" font-family="sans-serif" font-size="11.2" font-style="italic" lengthAdjust="spacing" textLength="38.4" x="1312" y="78.1828">&#171;lprog&#187;</text><text fill="#000000" font-family="sans-serif" font-size="11.2" lengthAdjust="spacing" textLength="96.8" x="1282.8" y="93.0797">ExamQuestionMain</text><rect fill="#E3E3E3" height="40.9938" rx="2" ry="2" style="stroke:#181818;stroke-width:0.4000000000000001;" width="108" x="1277.2" y="703.6453"/><text fill="#000000" font-family="sans-serif" font-size="11.2" font-style="italic" lengthAdjust="spacing" textLength="38.4" x="1312" y="721.3313">&#171;lprog&#187;</text><text fill="#000000" font-family="sans-serif" font-size="11.2" lengthAdjust="spacing" textLength="96.8" x="1282.8" y="736.2281">ExamQuestionMain</text><rect fill="#E3E3E3" height="40.9938" rx="2" ry="2" style="stroke:#181818;stroke-width:0.4000000000000001;" width="112" x="1393.2" y="60.4969"/><text fill="#000000" font-family="sans-serif" font-size="11.2" font-style="italic" lengthAdjust="spacing" textLength="38.4" x="1430" y="78.1828">&#171;lprog&#187;</text><text fill="#000000" font-family="sans-serif" font-size="11.2" lengthAdjust="spacing" textLength="100.8" x="1398.8" y="93.0797">ExamQuestionLexer</text><rect fill="#E3E3E3" height="40.9938" rx="2" ry="2" style="stroke:#181818;stroke-width:0.4000000000000001;" width="112" x="1393.2" y="703.6453"/><text fill="#000000" font-family="sans-serif" font-size="11.2" font-style="italic" lengthAdjust="spacing" textLength="38.4" x="1430" y="721.3313">&#171;lprog&#187;</text><text fill="#000000" font-family="sans-serif" font-size="11.2" lengthAdjust="spacing" textLength="100.8" x="1398.8" y="736.2281">ExamQuestionLexer</text><rect fill="#E3E3E3" height="40.9938" rx="2" ry="2" style="stroke:#181818;stroke-width:0.4000000000000001;" width="124" x="1513.2" y="60.4969"/><text fill="#000000" font-family="sans-serif" font-size="11.2" font-style="italic" lengthAdjust="spacing" textLength="38.4" x="1556" y="78.1828">&#171;lprog&#187;</text><text fill="#000000" font-family="sans-serif" font-size="11.2" lengthAdjust="spacing" textLength="112.8" x="1518.8" y="93.0797">CommonTokenStream</text><rect fill="#E3E3E3" height="40.9938" rx="2" ry="2" style="stroke:#181818;stroke-width:0.4000000000000001;" width="124" x="1513.2" y="703.6453"/><text fill="#000000" font-family="sans-serif" font-size="11.2" font-style="italic" lengthAdjust="spacing" textLength="38.4" x="1556" y="721.3313">&#171;lprog&#187;</text><text fill="#000000" font-family="sans-serif" font-size="11.2" lengthAdjust="spacing" textLength="112.8" x="1518.8" y="736.2281">CommonTokenStream</text><rect fill="#E3E3E3" height="40.9938" rx="2" ry="2" style="stroke:#181818;stroke-width:0.4000000000000001;" width="117.6" x="1645.2" y="60.4969"/><text fill="#000000" font-family="sans-serif" font-size="11.2" font-style="italic" lengthAdjust="spacing" textLength="38.4" x="1684.8" y="78.1828">&#171;lprog&#187;</text><text fill="#000000" font-family="sans-serif" font-size="11.2" lengthAdjust="spacing" textLength="106.4" x="1650.8" y="93.0797">ExamQuestionParser</text><rect fill="#E3E3E3" height="40.9938" rx="2" ry="2" style="stroke:#181818;stroke-width:0.4000000000000001;" width="117.6" x="1645.2" y="703.6453"/><text fill="#000000" font-family="sans-serif" font-size="11.2" font-style="italic" lengthAdjust="spacing" textLength="38.4" x="1684.8" y="721.3313">&#171;lprog&#187;</text><text fill="#000000" font-family="sans-serif" font-size="11.2" lengthAdjust="spacing" textLength="106.4" x="1650.8" y="736.2281">ExamQuestionParser</text><rect fill="#E3E3E3" height="40.9938" rx="2" ry="2" style="stroke:#181818;stroke-width:0.4000000000000001;" width="88" x="1770.8" y="60.4969"/><text fill="#000000" font-family="sans-serif" font-size="11.2" font-style="italic" lengthAdjust="spacing" textLength="38.4" x="1795.6" y="78.1828">&#171;lprog&#187;</text><text fill="#000000" font-family="sans-serif" font-size="11.2" lengthAdjust="spacing" textLength="76.8" x="1776.4" y="93.0797">tree:ParseTree</text><rect fill="#E3E3E3" height="40.9938" rx="2" ry="2" style="stroke:#181818;stroke-width:0.4000000000000001;" width="88" x="1770.8" y="703.6453"/><text fill="#000000" font-family="sans-serif" font-size="11.2" font-style="italic" lengthAdjust="spacing" textLength="38.4" x="1795.6" y="721.3313">&#171;lprog&#187;</text><text fill="#000000" font-family="sans-serif" font-size="11.2" lengthAdjust="spacing" textLength="76.8" x="1776.4" y="736.2281">tree:ParseTree</text><rect fill="#E3E3E3" height="40.9938" rx="2" ry="2" style="stroke:#181818;stroke-width:0.4000000000000001;" width="64" x="1866.8" y="60.4969"/><text fill="#000000" font-family="sans-serif" font-size="11.2" font-style="italic" lengthAdjust="spacing" textLength="38.4" x="1879.6" y="78.1828">&#171;lprog&#187;</text><text fill="#000000" font-family="sans-serif" font-size="11.2" lengthAdjust="spacing" textLength="52.8" x="1872.4" y="93.0797">EvalVisitor</text><rect fill="#E3E3E3" height="40.9938" rx="2" ry="2" style="stroke:#181818;stroke-width:0.4000000000000001;" width="64" x="1866.8" y="703.6453"/><text fill="#000000" font-family="sans-serif" font-size="11.2" font-style="italic" lengthAdjust="spacing" textLength="38.4" x="1879.6" y="721.3313">&#171;lprog&#187;</text><text fill="#000000" font-family="sans-serif" font-size="11.2" lengthAdjust="spacing" textLength="52.8" x="1872.4" y="736.2281">EvalVisitor</text><text fill="#000000" font-family="sans-serif" font-size="11.2" font-style="italic" lengthAdjust="spacing" textLength="63.2" x="1952.8" y="84.5828">&#171;repository&#187;</text><text fill="#000000" font-family="sans-serif" font-size="11.2" lengthAdjust="spacing" textLength="91.2" x="1938.8" y="99.4797">CourseRepository</text><path d="M1972.4,43.6969 C1972.4,35.6969 1986.8,35.6969 1986.8,35.6969 C1986.8,35.6969 2001.2,35.6969 2001.2,43.6969 L2001.2,64.4969 C2001.2,72.4969 1986.8,72.4969 1986.8,72.4969 C1986.8,72.4969 1972.4,72.4969 1972.4,64.4969 L1972.4,43.6969 " fill="#E3E3E3" style="stroke:#181818;stroke-width:1.2000000000000002;"/><path d="M1972.4,43.6969 C1972.4,51.6969 1986.8,51.6969 1986.8,51.6969 C1986.8,51.6969 2001.2,51.6969 2001.2,43.6969 " fill="none" style="stroke:#181818;stroke-width:1.2000000000000002;"/><text fill="#000000" font-family="sans-serif" font-size="11.2" font-style="italic" lengthAdjust="spacing" textLength="63.2" x="1952.8" y="715.7313">&#171;repository&#187;</text><text fill="#000000" font-family="sans-serif" font-size="11.2" lengthAdjust="spacing" textLength="91.2" x="1938.8" y="730.6281">CourseRepository</text><path d="M1972.4,741.4391 C1972.4,733.4391 1986.8,733.4391 1986.8,733.4391 C1986.8,733.4391 2001.2,733.4391 2001.2,741.4391 L2001.2,762.2391 C2001.2,770.2391 1986.8,770.2391 1986.8,770.2391 C1986.8,770.2391 1972.4,770.2391 1972.4,762.2391 L1972.4,741.4391 " fill="#E3E3E3" style="stroke:#181818;stroke-width:1.2000000000000002;"/><path d="M1972.4,741.4391 C1972.4,749.4391 1986.8,749.4391 1986.8,749.4391 C1986.8,749.4391 2001.2,749.4391 2001.2,741.4391 " fill="none" style="stroke:#181818;stroke-width:1.2000000000000002;"/><rect fill="#FFFFFF" height="579.7547" style="stroke:#181818;stroke-width:0.8000000000000002;" width="8" x="26.8" y="110.2906"/><rect fill="#FFFFFF" height="561.1219" style="stroke:#181818;stroke-width:0.8000000000000002;" width="8" x="522" y="128.9234"/><rect fill="#FFFFFF" height="25.0328" style="stroke:#181818;stroke-width:0.8000000000000002;" width="8" x="1049.2" y="178.9891"/><rect fill="#FFFFFF" height="150.1969" style="stroke:#181818;stroke-width:0.8000000000000002;" width="8" x="1049.2" y="364.6188"/><rect fill="#FFFFFF" height="75.0984" style="stroke:#181818;stroke-width:0.8000000000000002;" width="8" x="1049.2" y="589.9141"/><rect fill="#FFFFFF" height="100.1313" style="stroke:#181818;stroke-width:0.8000000000000002;" width="8" x="1327.2" y="389.6516"/><rect fill="#FFFFFF" height="50.0656" style="stroke:#181818;stroke-width:0.8000000000000002;" width="8" x="1894.8" y="414.6844"/><polygon fill="#181818" points="512.4,125.7234,520.4,128.9234,512.4,132.1234,515.6,128.9234" style="stroke:#181818;stroke-width:0.8000000000000002;"/><line style="stroke:#181818;stroke-width:0.8000000000000002;" x1="34.8" x2="517.2" y1="128.9234" y2="128.9234"/><text fill="#000000" font-family="sans-serif" font-size="10.4" font-weight="bold" lengthAdjust="spacing" textLength="5.6" x="40.4" y="124.7133">1</text><text fill="#000000" font-family="sans-serif" font-size="10.4" lengthAdjust="spacing" textLength="306.4" x="49.2" y="124.7133">Pede para adicionar/atualizar quest&#245;es de exame a um reposit&#243;rio</text><polygon fill="#181818" points="1043.6,150.7563,1051.6,153.9563,1043.6,157.1563,1046.8,153.9563" style="stroke:#181818;stroke-width:0.8000000000000002;"/><line style="stroke:#181818;stroke-width:0.8000000000000002;" x1="530" x2="1048.4" y1="153.9563" y2="153.9563"/><text fill="#000000" font-family="sans-serif" font-size="10.4" font-weight="bold" lengthAdjust="spacing" textLength="5.6" x="535.6" y="149.7461">2</text><text fill="#000000" font-family="sans-serif" font-size="10.4" lengthAdjust="spacing" textLength="28.8" x="544.4" y="149.7461">create</text><polygon fill="#181818" points="1039.6,175.7891,1047.6,178.9891,1039.6,182.1891,1042.8,178.9891" style="stroke:#181818;stroke-width:0.8000000000000002;"/><line style="stroke:#181818;stroke-width:0.8000000000000002;" x1="530" x2="1044.4" y1="178.9891" y2="178.9891"/><text fill="#000000" font-family="sans-serif" font-size="10.4" font-weight="bold" lengthAdjust="spacing" textLength="5.6" x="535.6" y="174.7789">3</text><text fill="#000000" font-family="sans-serif" font-size="10.4" lengthAdjust="spacing" textLength="247.2" x="544.4" y="174.7789">availableCourses = listAllTeacherCoursesInProgress()</text><polygon fill="#181818" points="1977.2,200.8219,1985.2,204.0219,1977.2,207.2219,1980.4,204.0219" style="stroke:#181818;stroke-width:0.8000000000000002;"/><line style="stroke:#181818;stroke-width:0.8000000000000002;" x1="1053.2" x2="1982" y1="204.0219" y2="204.0219"/><text fill="#000000" font-family="sans-serif" font-size="10.4" font-weight="bold" lengthAdjust="spacing" textLength="5.6" x="1058.8" y="199.8117">4</text><text fill="#000000" font-family="sans-serif" font-size="10.4" lengthAdjust="spacing" textLength="210.4" x="1067.6" y="199.8117">findAllTeacherCoursesInProgress(theTeacher)</text><line style="stroke:#181818;stroke-width:0.8000000000000002;stroke-dasharray:2.0,2.0;" x1="530" x2="563.6" y1="229.0547" y2="229.0547"/><line style="stroke:#181818;stroke-width:0.8000000000000002;stroke-dasharray:2.0,2.0;" x1="563.6" x2="563.6" y1="229.0547" y2="239.4547"/><line style="stroke:#181818;stroke-width:0.8000000000000002;stroke-dasharray:2.0,2.0;" x1="530.8" x2="563.6" y1="239.4547" y2="239.4547"/><polygon fill="#181818" points="538.8,236.2547,530.8,239.4547,538.8,242.6547,535.6,239.4547" style="stroke:#181818;stroke-width:0.8000000000000002;"/><text fill="#000000" font-family="sans-serif" font-size="10.4" font-weight="bold" lengthAdjust="spacing" textLength="5.6" x="535.6" y="224.8445">5</text><text fill="#000000" font-family="sans-serif" font-size="10.4" lengthAdjust="spacing" textLength="499.2" x="544.4" y="224.8445">Mostra a lista de disciplinas dispon&#237;veis (no estado in_progress) e que s&#227;o lecionadas pelo pr&#243;prio professor</text><polygon fill="#181818" points="43.6,261.2875,35.6,264.4875,43.6,267.6875,40.4,264.4875" style="stroke:#181818;stroke-width:0.8000000000000002;"/><line style="stroke:#181818;stroke-width:0.8000000000000002;stroke-dasharray:2.0,2.0;" x1="38.8" x2="521.2" y1="264.4875" y2="264.4875"/><text fill="#000000" font-family="sans-serif" font-size="10.4" font-weight="bold" lengthAdjust="spacing" textLength="5.6" x="48.4" y="260.2773">6</text><text fill="#000000" font-family="sans-serif" font-size="10.4" lengthAdjust="spacing" textLength="159.2" x="57.2" y="260.2773">Pede para escolher uma disciplina</text><polygon fill="#181818" points="512.4,286.3203,520.4,289.5203,512.4,292.7203,515.6,289.5203" style="stroke:#181818;stroke-width:0.8000000000000002;"/><line style="stroke:#181818;stroke-width:0.8000000000000002;" x1="34.8" x2="517.2" y1="289.5203" y2="289.5203"/><text fill="#000000" font-family="sans-serif" font-size="10.4" font-weight="bold" lengthAdjust="spacing" textLength="5.6" x="40.4" y="285.3102">7</text><text fill="#000000" font-family="sans-serif" font-size="10.4" lengthAdjust="spacing" textLength="107.2" x="49.2" y="285.3102">Escolhe uma disciplina</text><polygon fill="#181818" points="43.6,311.3531,35.6,314.5531,43.6,317.7531,40.4,314.5531" style="stroke:#181818;stroke-width:0.8000000000000002;"/><line style="stroke:#181818;stroke-width:0.8000000000000002;stroke-dasharray:2.0,2.0;" x1="38.8" x2="521.2" y1="314.5531" y2="314.5531"/><text fill="#000000" font-family="sans-serif" font-size="10.4" font-weight="bold" lengthAdjust="spacing" textLength="5.6" x="48.4" y="310.343">8</text><text fill="#000000" font-family="sans-serif" font-size="10.4" lengthAdjust="spacing" textLength="459.2" x="57.2" y="310.343">Pede para introduzir o caminho at&#233; ao ficheiro com a informa&#231;&#227;o das quest&#245;es a adicionar/atualizar</text><polygon fill="#181818" points="512.4,336.3859,520.4,339.5859,512.4,342.7859,515.6,339.5859" style="stroke:#181818;stroke-width:0.8000000000000002;"/><line style="stroke:#181818;stroke-width:0.8000000000000002;" x1="34.8" x2="517.2" y1="339.5859" y2="339.5859"/><text fill="#000000" font-family="sans-serif" font-size="10.4" font-weight="bold" lengthAdjust="spacing" textLength="5.6" x="40.4" y="335.3758">9</text><text fill="#000000" font-family="sans-serif" font-size="10.4" lengthAdjust="spacing" textLength="156" x="49.2" y="335.3758">Introduz o caminho at&#233; ao ficheiro</text><polygon fill="#181818" points="1039.6,361.4188,1047.6,364.6188,1039.6,367.8188,1042.8,364.6188" style="stroke:#181818;stroke-width:0.8000000000000002;"/><line style="stroke:#181818;stroke-width:0.8000000000000002;" x1="530" x2="1044.4" y1="364.6188" y2="364.6188"/><text fill="#000000" font-family="sans-serif" font-size="10.4" font-weight="bold" lengthAdjust="spacing" textLength="11.2" x="535.6" y="360.4086">10</text><text fill="#000000" font-family="sans-serif" font-size="10.4" lengthAdjust="spacing" textLength="127.2" x="550" y="360.4086">parseQuestions(pathToFile)</text><polygon fill="#181818" points="1317.6,386.4516,1325.6,389.6516,1317.6,392.8516,1320.8,389.6516" style="stroke:#181818;stroke-width:0.8000000000000002;"/><line style="stroke:#181818;stroke-width:0.8000000000000002;" x1="1057.2" x2="1322.4" y1="389.6516" y2="389.6516"/><text fill="#000000" font-family="sans-serif" font-size="10.4" font-weight="bold" lengthAdjust="spacing" textLength="11.2" x="1062.8" y="385.4414">11</text><text fill="#000000" font-family="sans-serif" font-size="10.4" lengthAdjust="spacing" textLength="131.2" x="1077.2" y="385.4414">parseWithVisitor(pathToFile)</text><polygon fill="#181818" points="1885.2,411.4844,1893.2,414.6844,1885.2,417.8844,1888.4,414.6844" style="stroke:#181818;stroke-width:0.8000000000000002;"/><line style="stroke:#181818;stroke-width:0.8000000000000002;" x1="1335.2" x2="1890" y1="414.6844" y2="414.6844"/><text fill="#000000" font-family="sans-serif" font-size="10.4" font-weight="bold" lengthAdjust="spacing" textLength="11.2" x="1340.8" y="410.4742">12</text><text fill="#000000" font-family="sans-serif" font-size="10.4" lengthAdjust="spacing" textLength="41.6" x="1355.2" y="410.4742">visit(tree)</text><polygon fill="#181818" points="1885.2,436.5172,1893.2,439.7172,1885.2,442.9172,1888.4,439.7172" style="stroke:#181818;stroke-width:0.8000000000000002;"/><line style="stroke:#181818;stroke-width:0.8000000000000002;" x1="1335.2" x2="1890" y1="439.7172" y2="439.7172"/><text fill="#000000" font-family="sans-serif" font-size="10.4" font-weight="bold" lengthAdjust="spacing" textLength="11.2" x="1340.8" y="435.507">13</text><text fill="#000000" font-family="sans-serif" font-size="10.4" lengthAdjust="spacing" textLength="51.2" x="1355.2" y="435.507">questions()</text><polygon fill="#181818" points="1344,461.55,1336,464.75,1344,467.95,1340.8,464.75" style="stroke:#181818;stroke-width:0.8000000000000002;"/><line style="stroke:#181818;stroke-width:0.8000000000000002;stroke-dasharray:2.0,2.0;" x1="1339.2" x2="1898" y1="464.75" y2="464.75"/><text fill="#000000" font-family="sans-serif" font-size="10.4" font-weight="bold" lengthAdjust="spacing" textLength="11.2" x="1348.8" y="460.5398">14</text><text fill="#000000" font-family="sans-serif" font-size="10.4" lengthAdjust="spacing" textLength="44.8" x="1363.2" y="460.5398">questions</text><polygon fill="#181818" points="1066,486.5828,1058,489.7828,1066,492.9828,1062.8,489.7828" style="stroke:#181818;stroke-width:0.8000000000000002;"/><line style="stroke:#181818;stroke-width:0.8000000000000002;stroke-dasharray:2.0,2.0;" x1="1061.2" x2="1330.4" y1="489.7828" y2="489.7828"/><text fill="#000000" font-family="sans-serif" font-size="10.4" font-weight="bold" lengthAdjust="spacing" textLength="11.2" x="1070.8" y="485.5727">15</text><text fill="#000000" font-family="sans-serif" font-size="10.4" lengthAdjust="spacing" textLength="44.8" x="1085.2" y="485.5727">questions</text><polygon fill="#181818" points="538.8,511.6156,530.8,514.8156,538.8,518.0156,535.6,514.8156" style="stroke:#181818;stroke-width:0.8000000000000002;"/><line style="stroke:#181818;stroke-width:0.8000000000000002;stroke-dasharray:2.0,2.0;" x1="534" x2="1052.4" y1="514.8156" y2="514.8156"/><text fill="#000000" font-family="sans-serif" font-size="10.4" font-weight="bold" lengthAdjust="spacing" textLength="11.2" x="543.6" y="510.6055">16</text><text fill="#000000" font-family="sans-serif" font-size="10.4" lengthAdjust="spacing" textLength="44.8" x="558" y="510.6055">questions</text><polygon fill="#181818" points="43.6,536.6484,35.6,539.8484,43.6,543.0484,40.4,539.8484" style="stroke:#181818;stroke-width:0.8000000000000002;"/><line style="stroke:#181818;stroke-width:0.8000000000000002;stroke-dasharray:2.0,2.0;" x1="38.8" x2="521.2" y1="539.8484" y2="539.8484"/><text fill="#000000" font-family="sans-serif" font-size="10.4" font-weight="bold" lengthAdjust="spacing" textLength="11.2" x="48.4" y="535.6383">17</text><text fill="#000000" font-family="sans-serif" font-size="10.4" lengthAdjust="spacing" textLength="361.6" x="62.8" y="535.6383">Mostra os dados das quest&#245;es e pede confirma&#231;&#227;o para as adicionar/atualizar</text><polygon fill="#181818" points="512.4,561.6813,520.4,564.8813,512.4,568.0813,515.6,564.8813" style="stroke:#181818;stroke-width:0.8000000000000002;"/><line style="stroke:#181818;stroke-width:0.8000000000000002;" x1="34.8" x2="517.2" y1="564.8813" y2="564.8813"/><text fill="#000000" font-family="sans-serif" font-size="10.4" font-weight="bold" lengthAdjust="spacing" textLength="11.2" x="40.4" y="560.6711">18</text><text fill="#000000" font-family="sans-serif" font-size="10.4" lengthAdjust="spacing" textLength="95.2" x="54.8" y="560.6711">Confirma a opera&#231;&#227;o</text><polygon fill="#181818" points="1039.6,586.7141,1047.6,589.9141,1039.6,593.1141,1042.8,589.9141" style="stroke:#181818;stroke-width:0.8000000000000002;"/><line style="stroke:#181818;stroke-width:0.8000000000000002;" x1="530" x2="1044.4" y1="589.9141" y2="589.9141"/><text fill="#000000" font-family="sans-serif" font-size="10.4" font-weight="bold" lengthAdjust="spacing" textLength="11.2" x="535.6" y="585.7039">19</text><text fill="#000000" font-family="sans-serif" font-size="10.4" lengthAdjust="spacing" textLength="168.8" x="550" y="585.7039">addQuestions(theCourse, questions)</text><polygon fill="#181818" points="1207.6,611.7469,1215.6,614.9469,1207.6,618.1469,1210.8,614.9469" style="stroke:#181818;stroke-width:0.8000000000000002;"/><line style="stroke:#181818;stroke-width:0.8000000000000002;" x1="1057.2" x2="1212.4" y1="614.9469" y2="614.9469"/><text fill="#000000" font-family="sans-serif" font-size="10.4" font-weight="bold" lengthAdjust="spacing" textLength="11.2" x="1062.8" y="610.7367">20</text><text fill="#000000" font-family="sans-serif" font-size="10.4" lengthAdjust="spacing" textLength="126.4" x="1077.2" y="610.7367">addListQuestion(questions)</text><polygon fill="#181818" points="1977.2,636.7797,1985.2,639.9797,1977.2,643.1797,1980.4,639.9797" style="stroke:#181818;stroke-width:0.8000000000000002;"/><line style="stroke:#181818;stroke-width:0.8000000000000002;" x1="1057.2" x2="1982" y1="639.9797" y2="639.9797"/><text fill="#000000" font-family="sans-serif" font-size="10.4" font-weight="bold" lengthAdjust="spacing" textLength="11.2" x="1062.8" y="635.7695">21</text><text fill="#000000" font-family="sans-serif" font-size="10.4" lengthAdjust="spacing" textLength="74.4" x="1077.2" y="635.7695">save(theCourse)</text><polygon fill="#181818" points="538.8,661.8125,530.8,665.0125,538.8,668.2125,535.6,665.0125" style="stroke:#181818;stroke-width:0.8000000000000002;"/><line style="stroke:#181818;stroke-width:0.8000000000000002;stroke-dasharray:2.0,2.0;" x1="534" x2="1052.4" y1="665.0125" y2="665.0125"/><text fill="#000000" font-family="sans-serif" font-size="10.4" font-weight="bold" lengthAdjust="spacing" textLength="11.2" x="543.6" y="660.8023">22</text><text fill="#000000" font-family="sans-serif" font-size="10.4" lengthAdjust="spacing" textLength="44.8" x="558" y="660.8023">questions</text><polygon fill="#181818" points="39.6,686.8453,31.6,690.0453,39.6,693.2453,36.4,690.0453" style="stroke:#181818;stroke-width:0.8000000000000002;"/><line style="stroke:#181818;stroke-width:0.8000000000000002;stroke-dasharray:2.0,2.0;" x1="34.8" x2="525.2" y1="690.0453" y2="690.0453"/><text fill="#000000" font-family="sans-serif" font-size="10.4" font-weight="bold" lengthAdjust="spacing" textLength="11.2" x="44.4" y="685.8352">23</text><text fill="#000000" font-family="sans-serif" font-size="10.4" lengthAdjust="spacing" textLength="144.8" x="58.8" y="685.8352">Informa o sucesso da opera&#231;&#227;o</text><!--SRC=[jLN1Rjim3BtxAuYU4c35Ybq615c18ks002tGBUbs75YRIOJAaYh9MTlVsM7OOQTYNv0V6sNBiPEwRZ5WFYIK_SWdaa-Kkn7AeCKSSgrqkh8w9_2seCHjlnXCRt19Ctyl2Iob7jLIjW5kXPd-BjGI5YWT9OaNdg4pkYr8fGId0fS1DvYT3k4GhcRmxkZeVOA5rwh8hyac2QPUMxYqUa7EiOKEJiAhX1cyI8L1vU4aoyxkCFzKaFD2gwjfWF7lU6miEL8Um-lZuoJLobijznqcrMj9PVpMQZn6OwH8Q_yswO5VqKGNrj6e-Zi8pgSwHw7OCIkDFPyswKN0iST5XPV6wcKF_9pkgkrLHhV3HEVShhc-8JNpbhYqx12jboakaRCeEQBLxNB0yMXKGkPibMa7upc6DSelmWbVTQys6t267g_H4LHb_4n6bv3x06-jncExNR1Ra8POewSe2E2djE3mE3H_19UK4GGb0cQy6wtGlaLVe1GFQE4sPBtvGmuOHLm60eGYXqYoURH2bq6tF5VJSXqUZiyiBQMC8EKgU-f3u1g5n6iPPUFW0qZX_8cKSy9qHJQ-dohM-vALwmR3RRoTdJHXTxw7fyN8_AtoZM0XLDP7neAEttPfC-eYJkeiwt9VQET3hSkaC5Gr4uv588NYHh9jjDhyNfDmC50QkFey7K2eRoPkO0WKkW9kyqE3fB9Z6RiQaXgCtJmQRWaRSHRixA3gVBldv58jEHVkARPsadG8vQo2TY9VLu2dz2BWik91MD2GOYxKIWFwpIz0pPtWAWlB7pGVKSOkjCrnypCa7Z9kjDcftQuSff6lXotf4wS9vxcU16vWqA_c-gEGr6ZXsI8yrLqvr6BGhyAlugdl3nkSce1b20vL3umHh8Cr2DEdmpd2UjnljyarxlNNmsRFMrXN-skMFPhzOlR6s4spNRUwbxtkBoWmdaBD9uwFbzkJ4uipA9JlmONOAguQaUwrIfj4PzQcDcIh8BtQmYnhbBMzDjyqUVwJnk9LMuO_vv5JKmnQOPDNZ4M7QsfsDVnldPbMfvmFg2lICC6uD-qAxaNZswQrgkwulm00]--></g></svg>