<?xml version="1.0" encoding="us-ascii" standalone="no"?><svg xmlns="http://www.w3.org/2000/svg" xmlns:xlink="http://www.w3.org/1999/xlink" contentStyleType="text/css" height="405.6px" preserveAspectRatio="none" style="width:597px;height:405px;background:#FFFFFF;" version="1.1" viewBox="0 0 597 405" width="597.6px" zoomAndPan="magnify"><defs/><g><text fill="#000000" font-family="sans-serif" font-size="11.2" font-weight="bold" lengthAdjust="spacing" textLength="236.8" x="179.8" y="24.0859">System Sequence Diagram (SSD) - US 2007</text><rect fill="#FFFFFF" height="218.8953" style="stroke:#181818;stroke-width:0.8000000000000002;" width="8" x="26.8" y="106.5938"/><rect fill="#FFFFFF" height="50.0656" style="stroke:#181818;stroke-width:0.8000000000000002;" width="8" x="562" y="125.2266"/><rect fill="#FFFFFF" height="25.0328" style="stroke:#181818;stroke-width:0.8000000000000002;" width="8" x="562" y="200.325"/><rect fill="#FFFFFF" height="25.0328" style="stroke:#181818;stroke-width:0.8000000000000002;" width="8" x="562" y="250.3906"/><rect fill="#FFFFFF" height="25.0328" style="stroke:#181818;stroke-width:0.8000000000000002;" width="8" x="562" y="300.4563"/><line style="stroke:#181818;stroke-width:0.4000000000000001;stroke-dasharray:5.0,5.0;" x1="30.4" x2="30.4" y1="98.5938" y2="339.8891"/><line style="stroke:#181818;stroke-width:0.4000000000000001;stroke-dasharray:5.0,5.0;" x1="566" x2="566" y1="98.5938" y2="339.8891"/><text fill="#000000" font-family="sans-serif" font-size="11.2" lengthAdjust="spacing" textLength="48.8" x="4" y="95.7828">Professor</text><ellipse cx="30.8" cy="42.4969" fill="#E3E3E3" rx="6.4" ry="6.4" style="stroke:#181818;stroke-width:0.4000000000000001;"/><path d="M30.8,48.8969 L30.8,70.4969 M20.4,55.2969 L41.2,55.2969 M30.8,70.4969 L20.4,82.4969 M30.8,70.4969 L41.2,82.4969 " fill="none" style="stroke:#181818;stroke-width:0.4000000000000001;"/><text fill="#000000" font-family="sans-serif" font-size="11.2" lengthAdjust="spacing" textLength="48.8" x="4" y="351.175">Professor</text><ellipse cx="30.8" cy="360.7859" fill="#E3E3E3" rx="6.4" ry="6.4" style="stroke:#181818;stroke-width:0.4000000000000001;"/><path d="M30.8,367.1859 L30.8,388.7859 M20.4,373.5859 L41.2,373.5859 M30.8,388.7859 L20.4,400.7859 M30.8,388.7859 L41.2,400.7859 " fill="none" style="stroke:#181818;stroke-width:0.4000000000000001;"/><rect fill="#E3E3E3" height="26.0969" rx="2" ry="2" style="stroke:#181818;stroke-width:0.4000000000000001;" width="54.4" x="538.8" y="71.6969"/><text fill="#000000" font-family="sans-serif" font-size="11.2" lengthAdjust="spacing" textLength="43.2" x="544.4" y="89.3828">:Sistema</text><rect fill="#E3E3E3" height="26.0969" rx="2" ry="2" style="stroke:#181818;stroke-width:0.4000000000000001;" width="54.4" x="538.8" y="339.0891"/><text fill="#000000" font-family="sans-serif" font-size="11.2" lengthAdjust="spacing" textLength="43.2" x="544.4" y="356.775">:Sistema</text><rect fill="#FFFFFF" height="218.8953" style="stroke:#181818;stroke-width:0.8000000000000002;" width="8" x="26.8" y="106.5938"/><rect fill="#FFFFFF" height="50.0656" style="stroke:#181818;stroke-width:0.8000000000000002;" width="8" x="562" y="125.2266"/><rect fill="#FFFFFF" height="25.0328" style="stroke:#181818;stroke-width:0.8000000000000002;" width="8" x="562" y="200.325"/><rect fill="#FFFFFF" height="25.0328" style="stroke:#181818;stroke-width:0.8000000000000002;" width="8" x="562" y="250.3906"/><rect fill="#FFFFFF" height="25.0328" style="stroke:#181818;stroke-width:0.8000000000000002;" width="8" x="562" y="300.4563"/><polygon fill="#181818" points="552.4,122.0266,560.4,125.2266,552.4,128.4266,555.6,125.2266" style="stroke:#181818;stroke-width:0.8000000000000002;"/><line style="stroke:#181818;stroke-width:0.8000000000000002;" x1="34.8" x2="557.2" y1="125.2266" y2="125.2266"/><text fill="#000000" font-family="sans-serif" font-size="10.4" font-weight="bold" lengthAdjust="spacing" textLength="5.6" x="40.4" y="121.0164">1</text><text fill="#000000" font-family="sans-serif" font-size="10.4" lengthAdjust="spacing" textLength="306.4" x="49.2" y="121.0164">Pede para adicionar/atualizar quest&#245;es de exame a um reposit&#243;rio</text><polygon fill="#181818" points="43.6,147.0594,35.6,150.2594,43.6,153.4594,40.4,150.2594" style="stroke:#181818;stroke-width:0.8000000000000002;"/><line style="stroke:#181818;stroke-width:0.8000000000000002;stroke-dasharray:2.0,2.0;" x1="38.8" x2="561.2" y1="150.2594" y2="150.2594"/><text fill="#000000" font-family="sans-serif" font-size="10.4" font-weight="bold" lengthAdjust="spacing" textLength="5.6" x="48.4" y="146.0492">2</text><text fill="#000000" font-family="sans-serif" font-size="10.4" lengthAdjust="spacing" textLength="499.2" x="57.2" y="146.0492">Mostra a lista de disciplinas dispon&#237;veis (no estado in_progress) e que s&#227;o lecionadas pelo pr&#243;prio professor</text><polygon fill="#181818" points="556.4,172.0922,564.4,175.2922,556.4,178.4922,559.6,175.2922" style="stroke:#181818;stroke-width:0.8000000000000002;"/><line style="stroke:#181818;stroke-width:0.8000000000000002;stroke-dasharray:2.0,2.0;" x1="34.8" x2="561.2" y1="175.2922" y2="175.2922"/><text fill="#000000" font-family="sans-serif" font-size="10.4" font-weight="bold" lengthAdjust="spacing" textLength="5.6" x="40.4" y="171.082">3</text><text fill="#000000" font-family="sans-serif" font-size="10.4" lengthAdjust="spacing" textLength="159.2" x="49.2" y="171.082">Pede para escolher uma disciplina</text><polygon fill="#181818" points="552.4,197.125,560.4,200.325,552.4,203.525,555.6,200.325" style="stroke:#181818;stroke-width:0.8000000000000002;"/><line style="stroke:#181818;stroke-width:0.8000000000000002;" x1="34.8" x2="557.2" y1="200.325" y2="200.325"/><text fill="#000000" font-family="sans-serif" font-size="10.4" font-weight="bold" lengthAdjust="spacing" textLength="5.6" x="40.4" y="196.1148">4</text><text fill="#000000" font-family="sans-serif" font-size="10.4" lengthAdjust="spacing" textLength="107.2" x="49.2" y="196.1148">Escolhe uma disciplina</text><polygon fill="#181818" points="43.6,222.1578,35.6,225.3578,43.6,228.5578,40.4,225.3578" style="stroke:#181818;stroke-width:0.8000000000000002;"/><line style="stroke:#181818;stroke-width:0.8000000000000002;stroke-dasharray:2.0,2.0;" x1="38.8" x2="565.2" y1="225.3578" y2="225.3578"/><text fill="#000000" font-family="sans-serif" font-size="10.4" font-weight="bold" lengthAdjust="spacing" textLength="5.6" x="48.4" y="221.1477">5</text><text fill="#000000" font-family="sans-serif" font-size="10.4" lengthAdjust="spacing" textLength="459.2" x="57.2" y="221.1477">Pede para introduzir o caminho at&#233; ao ficheiro com a informa&#231;&#227;o das quest&#245;es a adicionar/atualizar</text><polygon fill="#181818" points="552.4,247.1906,560.4,250.3906,552.4,253.5906,555.6,250.3906" style="stroke:#181818;stroke-width:0.8000000000000002;"/><line style="stroke:#181818;stroke-width:0.8000000000000002;" x1="34.8" x2="557.2" y1="250.3906" y2="250.3906"/><text fill="#000000" font-family="sans-serif" font-size="10.4" font-weight="bold" lengthAdjust="spacing" textLength="5.6" x="40.4" y="246.1805">6</text><text fill="#000000" font-family="sans-serif" font-size="10.4" lengthAdjust="spacing" textLength="156" x="49.2" y="246.1805">Introduz o caminho at&#233; ao ficheiro</text><polygon fill="#181818" points="43.6,272.2234,35.6,275.4234,43.6,278.6234,40.4,275.4234" style="stroke:#181818;stroke-width:0.8000000000000002;"/><line style="stroke:#181818;stroke-width:0.8000000000000002;stroke-dasharray:2.0,2.0;" x1="38.8" x2="565.2" y1="275.4234" y2="275.4234"/><text fill="#000000" font-family="sans-serif" font-size="10.4" font-weight="bold" lengthAdjust="spacing" textLength="5.6" x="48.4" y="271.2133">7</text><text fill="#000000" font-family="sans-serif" font-size="10.4" lengthAdjust="spacing" textLength="361.6" x="57.2" y="271.2133">Mostra os dados das quest&#245;es e pede confirma&#231;&#227;o para as adicionar/atualizar</text><polygon fill="#181818" points="552.4,297.2563,560.4,300.4563,552.4,303.6563,555.6,300.4563" style="stroke:#181818;stroke-width:0.8000000000000002;"/><line style="stroke:#181818;stroke-width:0.8000000000000002;" x1="34.8" x2="557.2" y1="300.4563" y2="300.4563"/><text fill="#000000" font-family="sans-serif" font-size="10.4" font-weight="bold" lengthAdjust="spacing" textLength="5.6" x="40.4" y="296.2461">8</text><text fill="#000000" font-family="sans-serif" font-size="10.4" lengthAdjust="spacing" textLength="95.2" x="49.2" y="296.2461">Confirma a opera&#231;&#227;o</text><polygon fill="#181818" points="39.6,322.2891,31.6,325.4891,39.6,328.6891,36.4,325.4891" style="stroke:#181818;stroke-width:0.8000000000000002;"/><line style="stroke:#181818;stroke-width:0.8000000000000002;stroke-dasharray:2.0,2.0;" x1="34.8" x2="565.2" y1="325.4891" y2="325.4891"/><text fill="#000000" font-family="sans-serif" font-size="10.4" font-weight="bold" lengthAdjust="spacing" textLength="5.6" x="44.4" y="321.2789">9</text><text fill="#000000" font-family="sans-serif" font-size="10.4" lengthAdjust="spacing" textLength="144.8" x="53.2" y="321.2789">Informa o sucesso da opera&#231;&#227;o</text><!--SRC=[dPE_RjH04CRxVOhHLKbn8g91kW89aHGfa29Pr6XOZ-rHx9rbTXr8NeS2KL15F85VZDcpBtTAJkYWychdp_VxPjRfbaD4nG462U8xbO4WwqWkFKKY-bjigShtFO6IpnZQ_Z0XTLZBLmujDDWdSYvpjjJgFcKQeA8l8mLFSCdOblIpgheyXpLyhE3rnSKRXsEMC0wVIPr3dqLXTQFIK4gYAy04xygbCwtCdYE63AjDnQKvRkEpqBQOxp3JKk2s7rY_tP5iu8PgWW8DM5il2QYlC8_OymCg66VAqszAO5dq3MqK2EDWdgCapjEZikn5TgfByxNfp88R-20f5mteZH9BjvgJeVSS3DVEKSBqwuuumLaGC5KR873u55LQDUFdG8K6qlHTeASjQMsbaNg1gDDZD1GxB5FQEJrkbPANlYCrAtW0ucfwuUNbnAxcukUrfqnXJy0XgzJZ0oi8U1muT0AOfv-00WtxZbWj80EKt4PqmEb7iLuyxxToT6kdsRXU2FwY_o-R5TkYhImz0pIxnRENqF2JX_cvfVzdVx-qC_yIIUUs9z5UpxCqqsdqvQKOxs6F8_87L_DVz0S0]--></g></svg>