<?xml version="1.0" encoding="us-ascii" standalone="no"?><svg xmlns="http://www.w3.org/2000/svg" xmlns:xlink="http://www.w3.org/1999/xlink" contentStyleType="text/css" height="272px" preserveAspectRatio="none" style="width:621px;height:272px;background:#FFFFFF;" version="1.1" viewBox="0 0 621 272" width="621px" zoomAndPan="magnify"><defs/><g><text fill="#000000" font-family="sans-serif" font-size="14" font-weight="bold" lengthAdjust="spacing" textLength="201" x="203.25" y="25.1074">Class Diagram (CD) - US 1006</text><!--class ListCourseUI--><g id="elem_ListCourseUI"><rect codeLine="5" fill="#F1F1F1" height="79.2031" id="ListCourseUI" rx="2.5" ry="2.5" style="stroke:#181818;stroke-width:0.5;" width="112" x="7" y="46.6211"/><ellipse cx="22" cy="68.9121" fill="#ADD1B2" rx="11" ry="11" style="stroke:#181818;stroke-width:1.0;"/><path d="M24.7656,64.7871 Q24.9219,64.5684 25.1094,64.459 Q25.2969,64.3496 25.5156,64.3496 Q25.8906,64.3496 26.125,64.6152 Q26.3594,64.8652 26.3594,65.4746 L26.3594,66.9277 Q26.3594,67.5371 26.125,67.8027 Q25.8906,68.0684 25.5156,68.0684 Q25.1719,68.0684 24.9688,67.8652 Q24.7656,67.6777 24.6563,67.1621 Q24.6094,66.8027 24.4219,66.6152 Q24.0938,66.2402 23.4844,66.0215 Q22.875,65.8027 22.25,65.8027 Q21.4844,65.8027 20.8438,66.1309 Q20.2188,66.459 19.7188,67.209 Q19.2344,67.959 19.2344,68.9902 L19.2344,70.084 Q19.2344,71.3184 20.125,72.1465 Q21.0156,72.959 22.6094,72.959 Q23.5469,72.959 24.2031,72.709 Q24.5938,72.5527 25.0156,72.1152 Q25.2813,71.8496 25.4219,71.7715 Q25.5781,71.6934 25.7813,71.6934 Q26.1094,71.6934 26.3594,71.959 Q26.625,72.209 26.625,72.5527 Q26.625,72.8965 26.2813,73.3027 Q25.7813,73.8809 24.9844,74.209 Q23.9063,74.6621 22.6094,74.6621 Q21.0938,74.6621 19.8906,74.0371 Q18.9063,73.5371 18.2188,72.4746 Q17.5313,71.3965 17.5313,70.1152 L17.5313,68.959 Q17.5313,67.6309 18.1406,66.4902 Q18.7656,65.334 19.8594,64.7246 Q20.9531,64.0996 22.1875,64.0996 Q22.9219,64.0996 23.5625,64.2715 Q24.2188,64.4277 24.7656,64.7871 Z " fill="#000000"/><text fill="#000000" font-family="sans-serif" font-size="12" font-style="italic" lengthAdjust="spacing" textLength="82" x="35" y="64.5703">&#171;presentation&#187;</text><text fill="#000000" font-family="sans-serif" font-size="14" lengthAdjust="spacing" textLength="80" x="36" y="82.6895">ListCourseUI</text><line style="stroke:#181818;stroke-width:0.5;" x1="8" x2="118" y1="91.2031" y2="91.2031"/><line style="stroke:#181818;stroke-width:0.5;" x1="8" x2="118" y1="99.2031" y2="99.2031"/><text fill="#000000" font-family="sans-serif" font-size="14" lengthAdjust="spacing" textLength="60" x="13" y="118.3105">doShow()</text></g><!--class ListCourseController--><g id="elem_ListCourseController"><rect codeLine="8" fill="#F1F1F1" height="60.582" id="ListCourseController" rx="2.5" ry="2.5" style="stroke:#181818;stroke-width:0.5;" width="162" x="229" y="55.6211"/><ellipse cx="244" cy="77.9121" fill="#ADD1B2" rx="11" ry="11" style="stroke:#181818;stroke-width:1.0;"/><path d="M246.7656,73.7871 Q246.9219,73.5684 247.1094,73.459 Q247.2969,73.3496 247.5156,73.3496 Q247.8906,73.3496 248.125,73.6152 Q248.3594,73.8652 248.3594,74.4746 L248.3594,75.9277 Q248.3594,76.5371 248.125,76.8027 Q247.8906,77.0684 247.5156,77.0684 Q247.1719,77.0684 246.9688,76.8652 Q246.7656,76.6777 246.6563,76.1621 Q246.6094,75.8027 246.4219,75.6152 Q246.0938,75.2402 245.4844,75.0215 Q244.875,74.8027 244.25,74.8027 Q243.4844,74.8027 242.8438,75.1309 Q242.2188,75.459 241.7188,76.209 Q241.2344,76.959 241.2344,77.9902 L241.2344,79.084 Q241.2344,80.3184 242.125,81.1465 Q243.0156,81.959 244.6094,81.959 Q245.5469,81.959 246.2031,81.709 Q246.5938,81.5527 247.0156,81.1152 Q247.2813,80.8496 247.4219,80.7715 Q247.5781,80.6934 247.7813,80.6934 Q248.1094,80.6934 248.3594,80.959 Q248.625,81.209 248.625,81.5527 Q248.625,81.8965 248.2813,82.3027 Q247.7813,82.8809 246.9844,83.209 Q245.9063,83.6621 244.6094,83.6621 Q243.0938,83.6621 241.8906,83.0371 Q240.9063,82.5371 240.2188,81.4746 Q239.5313,80.3965 239.5313,79.1152 L239.5313,77.959 Q239.5313,76.6309 240.1406,75.4902 Q240.7656,74.334 241.8594,73.7246 Q242.9531,73.0996 244.1875,73.0996 Q244.9219,73.0996 245.5625,73.2715 Q246.2188,73.4277 246.7656,73.7871 Z " fill="#000000"/><text fill="#000000" font-family="sans-serif" font-size="12" font-style="italic" lengthAdjust="spacing" textLength="74" x="286" y="73.5703">&#171;application&#187;</text><text fill="#000000" font-family="sans-serif" font-size="14" lengthAdjust="spacing" textLength="130" x="258" y="91.6895">ListCourseController</text><line style="stroke:#181818;stroke-width:0.5;" x1="230" x2="390" y1="100.2031" y2="100.2031"/><line style="stroke:#181818;stroke-width:0.5;" x1="230" x2="390" y1="108.2031" y2="108.2031"/></g><!--class ListCourseService--><g id="elem_ListCourseService"><rect codeLine="9" fill="#F1F1F1" height="60.582" id="ListCourseService" rx="2.5" ry="2.5" style="stroke:#181818;stroke-width:0.5;" width="147" x="467.5" y="55.6211"/><ellipse cx="482.5" cy="77.9121" fill="#ADD1B2" rx="11" ry="11" style="stroke:#181818;stroke-width:1.0;"/><path d="M485.2656,73.7871 Q485.4219,73.5684 485.6094,73.459 Q485.7969,73.3496 486.0156,73.3496 Q486.3906,73.3496 486.625,73.6152 Q486.8594,73.8652 486.8594,74.4746 L486.8594,75.9277 Q486.8594,76.5371 486.625,76.8027 Q486.3906,77.0684 486.0156,77.0684 Q485.6719,77.0684 485.4688,76.8652 Q485.2656,76.6777 485.1563,76.1621 Q485.1094,75.8027 484.9219,75.6152 Q484.5938,75.2402 483.9844,75.0215 Q483.375,74.8027 482.75,74.8027 Q481.9844,74.8027 481.3438,75.1309 Q480.7188,75.459 480.2188,76.209 Q479.7344,76.959 479.7344,77.9902 L479.7344,79.084 Q479.7344,80.3184 480.625,81.1465 Q481.5156,81.959 483.1094,81.959 Q484.0469,81.959 484.7031,81.709 Q485.0938,81.5527 485.5156,81.1152 Q485.7813,80.8496 485.9219,80.7715 Q486.0781,80.6934 486.2813,80.6934 Q486.6094,80.6934 486.8594,80.959 Q487.125,81.209 487.125,81.5527 Q487.125,81.8965 486.7813,82.3027 Q486.2813,82.8809 485.4844,83.209 Q484.4063,83.6621 483.1094,83.6621 Q481.5938,83.6621 480.3906,83.0371 Q479.4063,82.5371 478.7188,81.4746 Q478.0313,80.3965 478.0313,79.1152 L478.0313,77.959 Q478.0313,76.6309 478.6406,75.4902 Q479.2656,74.334 480.3594,73.7246 Q481.4531,73.0996 482.6875,73.0996 Q483.4219,73.0996 484.0625,73.2715 Q484.7188,73.4277 485.2656,73.7871 Z " fill="#000000"/><text fill="#000000" font-family="sans-serif" font-size="12" font-style="italic" lengthAdjust="spacing" textLength="74" x="517" y="73.5703">&#171;application&#187;</text><text fill="#000000" font-family="sans-serif" font-size="14" lengthAdjust="spacing" textLength="115" x="496.5" y="91.6895">ListCourseService</text><line style="stroke:#181818;stroke-width:0.5;" x1="468.5" x2="613.5" y1="100.2031" y2="100.2031"/><line style="stroke:#181818;stroke-width:0.5;" x1="468.5" x2="613.5" y1="108.2031" y2="108.2031"/></g><!--class Course--><g id="elem_Course"><rect codeLine="10" fill="#F1F1F1" height="60.582" id="Course" rx="2.5" ry="2.5" style="stroke:#181818;stroke-width:0.5;" width="84" x="170" y="204.6211"/><ellipse cx="185" cy="226.9121" fill="#ADD1B2" rx="11" ry="11" style="stroke:#181818;stroke-width:1.0;"/><path d="M187.7656,222.7871 Q187.9219,222.5684 188.1094,222.459 Q188.2969,222.3496 188.5156,222.3496 Q188.8906,222.3496 189.125,222.6152 Q189.3594,222.8652 189.3594,223.4746 L189.3594,224.9277 Q189.3594,225.5371 189.125,225.8027 Q188.8906,226.0684 188.5156,226.0684 Q188.1719,226.0684 187.9688,225.8652 Q187.7656,225.6777 187.6563,225.1621 Q187.6094,224.8027 187.4219,224.6152 Q187.0938,224.2402 186.4844,224.0215 Q185.875,223.8027 185.25,223.8027 Q184.4844,223.8027 183.8438,224.1309 Q183.2188,224.459 182.7188,225.209 Q182.2344,225.959 182.2344,226.9902 L182.2344,228.084 Q182.2344,229.3184 183.125,230.1465 Q184.0156,230.959 185.6094,230.959 Q186.5469,230.959 187.2031,230.709 Q187.5938,230.5527 188.0156,230.1152 Q188.2813,229.8496 188.4219,229.7715 Q188.5781,229.6934 188.7813,229.6934 Q189.1094,229.6934 189.3594,229.959 Q189.625,230.209 189.625,230.5527 Q189.625,230.8965 189.2813,231.3027 Q188.7813,231.8809 187.9844,232.209 Q186.9063,232.6621 185.6094,232.6621 Q184.0938,232.6621 182.8906,232.0371 Q181.9063,231.5371 181.2188,230.4746 Q180.5313,229.3965 180.5313,228.1152 L180.5313,226.959 Q180.5313,225.6309 181.1406,224.4902 Q181.7656,223.334 182.8594,222.7246 Q183.9531,222.0996 185.1875,222.0996 Q185.9219,222.0996 186.5625,222.2715 Q187.2188,222.4277 187.7656,222.7871 Z " fill="#000000"/><text fill="#000000" font-family="sans-serif" font-size="12" font-style="italic" lengthAdjust="spacing" textLength="56" x="197" y="222.5703">&#171;domain&#187;</text><text fill="#000000" font-family="sans-serif" font-size="14" lengthAdjust="spacing" textLength="46" x="202" y="240.6895">Course</text><line style="stroke:#181818;stroke-width:0.5;" x1="171" x2="253" y1="249.2031" y2="249.2031"/><line style="stroke:#181818;stroke-width:0.5;" x1="171" x2="253" y1="257.2031" y2="257.2031"/></g><!--class CourseRepository--><g id="elem_CourseRepository"><rect codeLine="12" fill="#F1F1F1" height="60.582" id="CourseRepository" rx="2.5" ry="2.5" style="stroke:#181818;stroke-width:0.5;" width="146" x="355" y="204.6211"/><ellipse cx="370" cy="226.9121" fill="#B4A7E5" rx="11" ry="11" style="stroke:#181818;stroke-width:1.0;"/><path d="M370.9531,223.5527 L370.9531,230.209 L372.6719,230.209 Q373.2813,230.209 373.5469,230.4434 Q373.8125,230.6777 373.8125,231.0684 Q373.8125,231.4434 373.5469,231.6777 Q373.2813,231.9121 372.6719,231.9121 L367.5313,231.9121 Q366.9219,231.9121 366.6563,231.6777 Q366.3906,231.4434 366.3906,231.0527 Q366.3906,230.6777 366.6563,230.4434 Q366.9219,230.209 367.5313,230.209 L369.25,230.209 L369.25,223.5527 L367.5313,223.5527 Q366.9219,223.5527 366.6563,223.3184 Q366.3906,223.084 366.3906,222.6934 Q366.3906,222.3184 366.6563,222.084 Q366.9219,221.8496 367.5313,221.8496 L372.6719,221.8496 Q373.2813,221.8496 373.5469,222.084 Q373.8125,222.3184 373.8125,222.6934 Q373.8125,223.084 373.5469,223.3184 Q373.2813,223.5527 372.6719,223.5527 L370.9531,223.5527 Z " fill="#000000"/><text fill="#000000" font-family="sans-serif" font-size="12" font-style="italic" lengthAdjust="spacing" textLength="78" x="402" y="222.5703">&#171;repositories&#187;</text><text fill="#000000" font-family="sans-serif" font-size="14" font-style="italic" lengthAdjust="spacing" textLength="114" x="384" y="240.6895">CourseRepository</text><line style="stroke:#181818;stroke-width:0.5;" x1="356" x2="500" y1="249.2031" y2="249.2031"/><line style="stroke:#181818;stroke-width:0.5;" x1="356" x2="500" y1="257.2031" y2="257.2031"/></g><!--link ListCourseUI to ListCourseController--><g id="link_ListCourseUI_ListCourseController"><path codeLine="15" d="M119.05,86.1211 C149.98,86.1211 189.05,86.1211 223.79,86.1211 " fill="none" id="ListCourseUI-to-ListCourseController" style="stroke:#181818;stroke-width:1.0;"/><polygon fill="#181818" points="228.88,86.1211,219.88,82.1211,223.88,86.1211,219.88,90.1211,228.88,86.1211" style="stroke:#181818;stroke-width:1.0;"/><text fill="#000000" font-family="sans-serif" font-size="13" lengthAdjust="spacing" textLength="73" x="137.5" y="79.1494">theController</text></g><!--link ListCourseController to Course--><g id="link_ListCourseController_Course"><path codeLine="17" d="M290.17,116.8711 C274.1,140.9811 251.44,174.9611 234.65,200.1411 " fill="none" id="ListCourseController-to-Course" style="stroke:#181818;stroke-width:1.0;"/><polygon fill="#181818" points="231.8,204.4211,240.1205,199.1514,234.5735,200.2608,233.4641,194.7138,231.8,204.4211" style="stroke:#181818;stroke-width:1.0;"/><text fill="#000000" font-family="sans-serif" font-size="13" lengthAdjust="spacing" textLength="39" x="265" y="170.6494">course</text></g><!--link ListCourseController to CourseRepository--><g id="link_ListCourseController_CourseRepository"><path codeLine="18" d="M333.88,116.8711 C353.31,141.0811 380.74,175.2411 400.97,200.4511 " fill="none" id="ListCourseController-to-CourseRepository" style="stroke:#181818;stroke-width:1.0;"/><polygon fill="#181818" points="404.16,204.4211,401.6485,194.8978,401.0313,200.5209,395.4082,199.9038,404.16,204.4211" style="stroke:#181818;stroke-width:1.0;"/><text fill="#000000" font-family="sans-serif" font-size="13" lengthAdjust="spacing" textLength="25" x="381" y="170.6494">repo</text></g><!--link ListCourseController to ListCourseService--><g id="link_ListCourseController_ListCourseService"><path codeLine="19" d="M391.12,86.1211 C414.2,86.1211 439.3,86.1211 462.24,86.1211 " fill="none" id="ListCourseController-to-ListCourseService" style="stroke:#181818;stroke-width:1.0;"/><polygon fill="#181818" points="467.41,86.1211,458.41,82.1211,462.41,86.1211,458.41,90.1211,467.41,86.1211" style="stroke:#181818;stroke-width:1.0;"/><text fill="#000000" font-family="sans-serif" font-size="13" lengthAdjust="spacing" textLength="40" x="409.25" y="79.1494">service</text></g><!--link ListCourseUI to Course--><g id="link_ListCourseUI_Course"><path codeLine="22" d="M102.15,125.7411 C125.88,149.1611 155.85,178.7211 178.49,201.0611 " fill="none" id="ListCourseUI-to-Course" style="stroke:#181818;stroke-width:1.0;stroke-dasharray:7.0,7.0;"/><polygon fill="#181818" points="182.05,204.5811,178.4402,195.4176,178.486,201.0743,172.8293,201.1201,182.05,204.5811" style="stroke:#181818;stroke-width:1.0;"/></g><!--link ListCourseService to CourseRepository--><g id="link_ListCourseService_CourseRepository"><path codeLine="23" d="M518.13,116.8711 C499.52,141.0811 473.26,175.2411 453.88,200.4511 " fill="none" id="ListCourseService-to-CourseRepository" style="stroke:#181818;stroke-width:1.0;stroke-dasharray:7.0,7.0;"/><polygon fill="#181818" points="450.83,204.4211,459.4789,199.7097,453.871,200.4521,453.1286,194.8442,450.83,204.4211" style="stroke:#181818;stroke-width:1.0;"/></g><!--SRC=[XP0nJyCm48Nt-nMtjHqgbOKXgh8aIwMAWQWJOh3iepd9jIsVAKA8_uv9GYcuLJsTzRvtVi-9aoLih1B1bjK-gWFEctQ1IznrUBTQtGFC1fa4z81jMLBZNwFGReFhTOWav99Ax5rTumTWFiPtlN-RB-2pC3NUfUYjfPZDAWJB-kGjwOxYaJLTHqSiwyOV54yIi4iKNrGsZleZ1I-SV7pFPFovCCd4pnxKaVV3SlZJRrbVZbvXwi_k01Ufx9xoLQY7uGPtbhF2xvnN-VABAfHnodLQ2kGCEPqh_YlqP9JqP9vFRqAvgeH-Wy4N]--></g></svg>