<?xml version="1.0" encoding="us-ascii" standalone="no"?><svg xmlns="http://www.w3.org/2000/svg" xmlns:xlink="http://www.w3.org/1999/xlink" contentStyleType="text/css" height="675px" preserveAspectRatio="none" style="width:1686px;height:675px;background:#FFFFFF;" version="1.1" viewBox="0 0 1686 675" width="1686px" zoomAndPan="magnify"><defs/><g><text fill="#000000" font-family="sans-serif" font-size="14" font-weight="bold" lengthAdjust="spacing" textLength="213" x="729.5" y="25.1074">Domain Classes (DC) - US 1006</text><!--cluster <<aggregate>> Student--><g id="cluster_&lt;&lt;aggregate&gt;&gt; Student"><path d="M1274.5,416.1348 L1422.5,416.1348 A3.75,3.75 0 0 1 1425,418.6348 L1432,440.7559 L1487.5,440.7559 A2.5,2.5 0 0 1 1490,443.2559 L1490,665.6348 A2.5,2.5 0 0 1 1487.5,668.1348 L1274.5,668.1348 A2.5,2.5 0 0 1 1272,665.6348 L1272,418.6348 A2.5,2.5 0 0 1 1274.5,416.1348 " fill="none" style="stroke:#000000;stroke-width:1.5;"/><line style="stroke:#000000;stroke-width:1.5;" x1="1272" x2="1432" y1="440.7559" y2="440.7559"/><text fill="#000000" font-family="sans-serif" font-size="14" font-weight="bold" lengthAdjust="spacing" textLength="147" x="1276" y="433.2422">&#171;aggregate&#187; Student</text></g><!--cluster <<aggregate>> Manager--><g id="cluster_&lt;&lt;aggregate&gt;&gt; Manager"><path d="M872.5,224.6348 L1027.5,224.6348 A3.75,3.75 0 0 1 1030,227.1348 L1037,249.2559 L1037.5,249.2559 A2.5,2.5 0 0 1 1040,251.7559 L1040,352.1348 A2.5,2.5 0 0 1 1037.5,354.6348 L872.5,354.6348 A2.5,2.5 0 0 1 870,352.1348 L870,227.1348 A2.5,2.5 0 0 1 872.5,224.6348 " fill="none" style="stroke:#000000;stroke-width:1.5;"/><line style="stroke:#000000;stroke-width:1.5;" x1="870" x2="1037" y1="249.2559" y2="249.2559"/><text fill="#000000" font-family="sans-serif" font-size="14" font-weight="bold" lengthAdjust="spacing" textLength="154" x="874" y="241.7422">&#171;aggregate&#187; Manager</text></g><!--cluster <<aggregate>> Course--><g id="cluster_&lt;&lt;aggregate&gt;&gt; Course"><path d="M8.5,45.6348 L152.5,45.6348 A3.75,3.75 0 0 1 155,48.1348 L162,70.2559 L843.5,70.2559 A2.5,2.5 0 0 1 846,72.7559 L846,362.6348 A2.5,2.5 0 0 1 843.5,365.1348 L8.5,365.1348 A2.5,2.5 0 0 1 6,362.6348 L6,48.1348 A2.5,2.5 0 0 1 8.5,45.6348 " fill="none" style="stroke:#000000;stroke-width:1.5;"/><line style="stroke:#000000;stroke-width:1.5;" x1="6" x2="162" y1="70.2559" y2="70.2559"/><text fill="#000000" font-family="sans-serif" font-size="14" font-weight="bold" lengthAdjust="spacing" textLength="143" x="10" y="62.7422">&#171;aggregate&#187; Course</text></g><!--cluster <<aggregate>> Enrollment--><g id="cluster_&lt;&lt;aggregate&gt;&gt; Enrollment"><path d="M1066.5,224.6348 L1235.5,224.6348 A3.75,3.75 0 0 1 1238,227.1348 L1245,249.2559 L1245.5,249.2559 A2.5,2.5 0 0 1 1248,251.7559 L1248,535.6348 A2.5,2.5 0 0 1 1245.5,538.1348 L1066.5,538.1348 A2.5,2.5 0 0 1 1064,535.6348 L1064,227.1348 A2.5,2.5 0 0 1 1066.5,224.6348 " fill="none" style="stroke:#000000;stroke-width:1.5;"/><line style="stroke:#000000;stroke-width:1.5;" x1="1064" x2="1245" y1="249.2559" y2="249.2559"/><text fill="#000000" font-family="sans-serif" font-size="14" font-weight="bold" lengthAdjust="spacing" textLength="168" x="1068" y="241.7422">&#171;aggregate&#187; Enrollment</text></g><!--cluster <<aggregate>> Teacher--><g id="cluster_&lt;&lt;aggregate&gt;&gt; Teacher"><path d="M1516.5,224.6348 L1666.5,224.6348 A3.75,3.75 0 0 1 1669,227.1348 L1676,249.2559 L1676.5,249.2559 A2.5,2.5 0 0 1 1679,251.7559 L1679,535.6348 A2.5,2.5 0 0 1 1676.5,538.1348 L1516.5,538.1348 A2.5,2.5 0 0 1 1514,535.6348 L1514,227.1348 A2.5,2.5 0 0 1 1516.5,224.6348 " fill="none" style="stroke:#000000;stroke-width:1.5;"/><line style="stroke:#000000;stroke-width:1.5;" x1="1514" x2="1676" y1="249.2559" y2="249.2559"/><text fill="#000000" font-family="sans-serif" font-size="14" font-weight="bold" lengthAdjust="spacing" textLength="149" x="1518" y="241.7422">&#171;aggregate&#187; Teacher</text></g><!--class Student--><g id="elem_Student"><rect codeLine="8" fill="#F1F1F1" height="76.543" id="Student" rx="2.5" ry="2.5" style="stroke:#181818;stroke-width:0.5;" width="81" x="1314.5" y="453.1348"/><ellipse cx="1329.5" cy="483.4063" fill="#ADD1B2" rx="11" ry="11" style="stroke:#181818;stroke-width:1.0;"/><path d="M1328.3594,484.2031 L1328.3594,486.7031 L1332.6875,486.7031 L1332.6875,485.7813 Q1332.6875,485.1719 1332.9219,484.9063 Q1333.1719,484.6406 1333.5469,484.6406 Q1333.9219,484.6406 1334.1563,484.9063 Q1334.3906,485.1719 1334.3906,485.7813 L1334.3906,488.4063 L1326.3906,488.4063 Q1325.7656,488.4063 1325.5,488.1719 Q1325.25,487.9375 1325.25,487.5469 Q1325.25,487.1719 1325.5156,486.9375 Q1325.7813,486.7031 1326.3906,486.7031 L1326.6563,486.7031 L1326.6563,480.0469 L1326.3906,480.0469 Q1325.7656,480.0469 1325.5,479.8125 Q1325.25,479.5781 1325.25,479.1875 Q1325.25,478.8125 1325.5,478.5781 Q1325.7656,478.3438 1326.3906,478.3438 L1334.0156,478.3438 L1334.0156,480.9375 Q1334.0156,481.5469 1333.7813,481.8125 Q1333.5625,482.0625 1333.1719,482.0625 Q1332.7969,482.0625 1332.5625,481.8125 Q1332.3281,481.5469 1332.3281,480.9375 L1332.3281,480.0469 L1328.3594,480.0469 L1328.3594,482.5 L1329.8438,482.5 Q1329.8438,481.8438 1329.9688,481.6563 Q1330.2344,481.25 1330.7031,481.25 Q1331.0781,481.25 1331.3125,481.5156 Q1331.5469,481.7656 1331.5469,482.375 L1331.5469,484.3438 Q1331.5469,484.8906 1331.4219,485.0781 Q1331.1563,485.4688 1330.7031,485.4688 Q1330.2344,485.4688 1329.9688,485.0625 Q1329.8438,484.875 1329.8438,484.2031 L1328.3594,484.2031 Z " fill="#000000"/><text fill="#000000" font-family="sans-serif" font-size="12" font-style="italic" lengthAdjust="spacing" textLength="43" x="1346.5" y="471.084">&#171;entity&#187;</text><text fill="#000000" font-family="sans-serif" font-size="12" font-style="italic" lengthAdjust="spacing" textLength="35" x="1350.5" y="487.0449">&#171;root&#187;</text><text fill="#000000" font-family="sans-serif" font-size="14" lengthAdjust="spacing" textLength="49" x="1343.5" y="505.1641">Student</text><line style="stroke:#181818;stroke-width:0.5;" x1="1315.5" x2="1394.5" y1="513.6777" y2="513.6777"/><line style="stroke:#181818;stroke-width:0.5;" x1="1315.5" x2="1394.5" y1="521.6777" y2="521.6777"/></g><!--class MechanographicNumber--><g id="elem_MechanographicNumber"><rect codeLine="9" fill="#F1F1F1" height="60.582" id="MechanographicNumber" rx="2.5" ry="2.5" style="stroke:#181818;stroke-width:0.5;" width="186" x="1288" y="591.1348"/><ellipse cx="1303" cy="613.4258" fill="#FF8B40" rx="11" ry="11" style="stroke:#181818;stroke-width:1.0;"/><path d="M1303.5938,616.6914 L1306.0625,610.8164 L1305.6719,610.8164 Q1305.0625,610.8164 1304.7969,610.582 Q1304.5313,610.3477 1304.5313,609.957 Q1304.5313,609.582 1304.7969,609.3477 Q1305.0625,609.1133 1305.6719,609.1133 L1307.9531,609.1133 Q1308.5625,609.1133 1308.8281,609.3477 Q1309.0938,609.582 1309.0938,609.957 Q1309.0938,610.4258 1308.6875,610.6914 Q1308.5,610.8164 1307.9063,610.8164 L1304.4219,619.1758 L1302.7813,619.1758 L1299.2969,610.8164 Q1298.7031,610.8164 1298.5156,610.6914 Q1298.1094,610.4258 1298.1094,609.957 Q1298.1094,609.582 1298.375,609.3477 Q1298.6406,609.1133 1299.25,609.1133 L1301.5469,609.1133 Q1302.1563,609.1133 1302.4063,609.3477 Q1302.6719,609.582 1302.6719,609.957 Q1302.6719,610.3477 1302.4063,610.582 Q1302.1563,610.8164 1301.5469,610.8164 L1301.1406,610.8164 L1303.5938,616.6914 Z " fill="#000000"/><text fill="#000000" font-family="sans-serif" font-size="12" font-style="italic" lengthAdjust="spacing" textLength="81" x="1353.5" y="609.084">&#171;value object&#187;</text><text fill="#000000" font-family="sans-serif" font-size="14" lengthAdjust="spacing" textLength="154" x="1317" y="627.2031">MechanographicNumber</text><line style="stroke:#181818;stroke-width:0.5;" x1="1289" x2="1473" y1="635.7168" y2="635.7168"/><line style="stroke:#181818;stroke-width:0.5;" x1="1289" x2="1473" y1="643.7168" y2="643.7168"/></g><!--class Manager--><g id="elem_Manager"><rect codeLine="14" fill="#F1F1F1" height="76.543" id="Manager" rx="2.5" ry="2.5" style="stroke:#181818;stroke-width:0.5;" width="88" x="886" y="261.6348"/><ellipse cx="901" cy="291.9063" fill="#ADD1B2" rx="11" ry="11" style="stroke:#181818;stroke-width:1.0;"/><path d="M899.8594,292.7031 L899.8594,295.2031 L904.1875,295.2031 L904.1875,294.2813 Q904.1875,293.6719 904.4219,293.4063 Q904.6719,293.1406 905.0469,293.1406 Q905.4219,293.1406 905.6563,293.4063 Q905.8906,293.6719 905.8906,294.2813 L905.8906,296.9063 L897.8906,296.9063 Q897.2656,296.9063 897,296.6719 Q896.75,296.4375 896.75,296.0469 Q896.75,295.6719 897.0156,295.4375 Q897.2813,295.2031 897.8906,295.2031 L898.1563,295.2031 L898.1563,288.5469 L897.8906,288.5469 Q897.2656,288.5469 897,288.3125 Q896.75,288.0781 896.75,287.6875 Q896.75,287.3125 897,287.0781 Q897.2656,286.8438 897.8906,286.8438 L905.5156,286.8438 L905.5156,289.4375 Q905.5156,290.0469 905.2813,290.3125 Q905.0625,290.5625 904.6719,290.5625 Q904.2969,290.5625 904.0625,290.3125 Q903.8281,290.0469 903.8281,289.4375 L903.8281,288.5469 L899.8594,288.5469 L899.8594,291 L901.3438,291 Q901.3438,290.3438 901.4688,290.1563 Q901.7344,289.75 902.2031,289.75 Q902.5781,289.75 902.8125,290.0156 Q903.0469,290.2656 903.0469,290.875 L903.0469,292.8438 Q903.0469,293.3906 902.9219,293.5781 Q902.6563,293.9688 902.2031,293.9688 Q901.7344,293.9688 901.4688,293.5625 Q901.3438,293.375 901.3438,292.7031 L899.8594,292.7031 Z " fill="#000000"/><text fill="#000000" font-family="sans-serif" font-size="12" font-style="italic" lengthAdjust="spacing" textLength="43" x="921.5" y="279.584">&#171;entity&#187;</text><text fill="#000000" font-family="sans-serif" font-size="12" font-style="italic" lengthAdjust="spacing" textLength="35" x="925.5" y="295.5449">&#171;root&#187;</text><text fill="#000000" font-family="sans-serif" font-size="14" lengthAdjust="spacing" textLength="56" x="915" y="313.6641">Manager</text><line style="stroke:#181818;stroke-width:0.5;" x1="887" x2="973" y1="322.1777" y2="322.1777"/><line style="stroke:#181818;stroke-width:0.5;" x1="887" x2="973" y1="330.1777" y2="330.1777"/></g><!--class Course--><g id="elem_Course"><rect codeLine="19" fill="#F1F1F1" height="76.543" id="Course" rx="2.5" ry="2.5" style="stroke:#181818;stroke-width:0.5;" width="78" x="702" y="82.6348"/><ellipse cx="717" cy="112.9063" fill="#ADD1B2" rx="11" ry="11" style="stroke:#181818;stroke-width:1.0;"/><path d="M715.8594,113.7031 L715.8594,116.2031 L720.1875,116.2031 L720.1875,115.2813 Q720.1875,114.6719 720.4219,114.4063 Q720.6719,114.1406 721.0469,114.1406 Q721.4219,114.1406 721.6563,114.4063 Q721.8906,114.6719 721.8906,115.2813 L721.8906,117.9063 L713.8906,117.9063 Q713.2656,117.9063 713,117.6719 Q712.75,117.4375 712.75,117.0469 Q712.75,116.6719 713.0156,116.4375 Q713.2813,116.2031 713.8906,116.2031 L714.1563,116.2031 L714.1563,109.5469 L713.8906,109.5469 Q713.2656,109.5469 713,109.3125 Q712.75,109.0781 712.75,108.6875 Q712.75,108.3125 713,108.0781 Q713.2656,107.8438 713.8906,107.8438 L721.5156,107.8438 L721.5156,110.4375 Q721.5156,111.0469 721.2813,111.3125 Q721.0625,111.5625 720.6719,111.5625 Q720.2969,111.5625 720.0625,111.3125 Q719.8281,111.0469 719.8281,110.4375 L719.8281,109.5469 L715.8594,109.5469 L715.8594,112 L717.3438,112 Q717.3438,111.3438 717.4688,111.1563 Q717.7344,110.75 718.2031,110.75 Q718.5781,110.75 718.8125,111.0156 Q719.0469,111.2656 719.0469,111.875 L719.0469,113.8438 Q719.0469,114.3906 718.9219,114.5781 Q718.6563,114.9688 718.2031,114.9688 Q717.7344,114.9688 717.4688,114.5625 Q717.3438,114.375 717.3438,113.7031 L715.8594,113.7031 Z " fill="#000000"/><text fill="#000000" font-family="sans-serif" font-size="12" font-style="italic" lengthAdjust="spacing" textLength="43" x="732.5" y="100.584">&#171;entity&#187;</text><text fill="#000000" font-family="sans-serif" font-size="12" font-style="italic" lengthAdjust="spacing" textLength="35" x="736.5" y="116.5449">&#171;root&#187;</text><text fill="#000000" font-family="sans-serif" font-size="14" lengthAdjust="spacing" textLength="46" x="731" y="134.6641">Course</text><line style="stroke:#181818;stroke-width:0.5;" x1="703" x2="779" y1="143.1777" y2="143.1777"/><line style="stroke:#181818;stroke-width:0.5;" x1="703" x2="779" y1="151.1777" y2="151.1777"/></g><!--class CourseTitle--><g id="elem_CourseTitle"><rect codeLine="20" fill="#F1F1F1" height="60.582" id="CourseTitle" rx="2.5" ry="2.5" style="stroke:#181818;stroke-width:0.5;" width="109" x="22.5" y="269.6348"/><ellipse cx="37.5" cy="291.9258" fill="#FF8B40" rx="11" ry="11" style="stroke:#181818;stroke-width:1.0;"/><path d="M38.0938,295.1914 L40.5625,289.3164 L40.1719,289.3164 Q39.5625,289.3164 39.2969,289.082 Q39.0313,288.8477 39.0313,288.457 Q39.0313,288.082 39.2969,287.8477 Q39.5625,287.6133 40.1719,287.6133 L42.4531,287.6133 Q43.0625,287.6133 43.3281,287.8477 Q43.5938,288.082 43.5938,288.457 Q43.5938,288.9258 43.1875,289.1914 Q43,289.3164 42.4063,289.3164 L38.9219,297.6758 L37.2813,297.6758 L33.7969,289.3164 Q33.2031,289.3164 33.0156,289.1914 Q32.6094,288.9258 32.6094,288.457 Q32.6094,288.082 32.875,287.8477 Q33.1406,287.6133 33.75,287.6133 L36.0469,287.6133 Q36.6563,287.6133 36.9063,287.8477 Q37.1719,288.082 37.1719,288.457 Q37.1719,288.8477 36.9063,289.082 Q36.6563,289.3164 36.0469,289.3164 L35.6406,289.3164 L38.0938,295.1914 Z " fill="#000000"/><text fill="#000000" font-family="sans-serif" font-size="12" font-style="italic" lengthAdjust="spacing" textLength="81" x="49.5" y="287.584">&#171;value object&#187;</text><text fill="#000000" font-family="sans-serif" font-size="14" lengthAdjust="spacing" textLength="73" x="53.5" y="305.7031">CourseTitle</text><line style="stroke:#181818;stroke-width:0.5;" x1="23.5" x2="130.5" y1="314.2168" y2="314.2168"/><line style="stroke:#181818;stroke-width:0.5;" x1="23.5" x2="130.5" y1="322.2168" y2="322.2168"/></g><!--class CourseCode--><g id="elem_CourseCode"><rect codeLine="21" fill="#F1F1F1" height="60.582" id="CourseCode" rx="2.5" ry="2.5" style="stroke:#181818;stroke-width:0.5;" width="112" x="167" y="269.6348"/><ellipse cx="182" cy="291.9258" fill="#FF8B40" rx="11" ry="11" style="stroke:#181818;stroke-width:1.0;"/><path d="M182.5938,295.1914 L185.0625,289.3164 L184.6719,289.3164 Q184.0625,289.3164 183.7969,289.082 Q183.5313,288.8477 183.5313,288.457 Q183.5313,288.082 183.7969,287.8477 Q184.0625,287.6133 184.6719,287.6133 L186.9531,287.6133 Q187.5625,287.6133 187.8281,287.8477 Q188.0938,288.082 188.0938,288.457 Q188.0938,288.9258 187.6875,289.1914 Q187.5,289.3164 186.9063,289.3164 L183.4219,297.6758 L181.7813,297.6758 L178.2969,289.3164 Q177.7031,289.3164 177.5156,289.1914 Q177.1094,288.9258 177.1094,288.457 Q177.1094,288.082 177.375,287.8477 Q177.6406,287.6133 178.25,287.6133 L180.5469,287.6133 Q181.1563,287.6133 181.4063,287.8477 Q181.6719,288.082 181.6719,288.457 Q181.6719,288.8477 181.4063,289.082 Q181.1563,289.3164 180.5469,289.3164 L180.1406,289.3164 L182.5938,295.1914 Z " fill="#000000"/><text fill="#000000" font-family="sans-serif" font-size="12" font-style="italic" lengthAdjust="spacing" textLength="81" x="195.5" y="287.584">&#171;value object&#187;</text><text fill="#000000" font-family="sans-serif" font-size="14" lengthAdjust="spacing" textLength="80" x="196" y="305.7031">CourseCode</text><line style="stroke:#181818;stroke-width:0.5;" x1="168" x2="278" y1="314.2168" y2="314.2168"/><line style="stroke:#181818;stroke-width:0.5;" x1="168" x2="278" y1="322.2168" y2="322.2168"/></g><!--class CourseDescription--><g id="elem_CourseDescription"><rect codeLine="22" fill="#F1F1F1" height="60.582" id="CourseDescription" rx="2.5" ry="2.5" style="stroke:#181818;stroke-width:0.5;" width="149" x="314.5" y="269.6348"/><ellipse cx="329.5" cy="291.9258" fill="#FF8B40" rx="11" ry="11" style="stroke:#181818;stroke-width:1.0;"/><path d="M330.0938,295.1914 L332.5625,289.3164 L332.1719,289.3164 Q331.5625,289.3164 331.2969,289.082 Q331.0313,288.8477 331.0313,288.457 Q331.0313,288.082 331.2969,287.8477 Q331.5625,287.6133 332.1719,287.6133 L334.4531,287.6133 Q335.0625,287.6133 335.3281,287.8477 Q335.5938,288.082 335.5938,288.457 Q335.5938,288.9258 335.1875,289.1914 Q335,289.3164 334.4063,289.3164 L330.9219,297.6758 L329.2813,297.6758 L325.7969,289.3164 Q325.2031,289.3164 325.0156,289.1914 Q324.6094,288.9258 324.6094,288.457 Q324.6094,288.082 324.875,287.8477 Q325.1406,287.6133 325.75,287.6133 L328.0469,287.6133 Q328.6563,287.6133 328.9063,287.8477 Q329.1719,288.082 329.1719,288.457 Q329.1719,288.8477 328.9063,289.082 Q328.6563,289.3164 328.0469,289.3164 L327.6406,289.3164 L330.0938,295.1914 Z " fill="#000000"/><text fill="#000000" font-family="sans-serif" font-size="12" font-style="italic" lengthAdjust="spacing" textLength="81" x="361.5" y="287.584">&#171;value object&#187;</text><text fill="#000000" font-family="sans-serif" font-size="14" lengthAdjust="spacing" textLength="117" x="343.5" y="305.7031">CourseDescription</text><line style="stroke:#181818;stroke-width:0.5;" x1="315.5" x2="462.5" y1="314.2168" y2="314.2168"/><line style="stroke:#181818;stroke-width:0.5;" x1="315.5" x2="462.5" y1="322.2168" y2="322.2168"/></g><!--class CourseStatus--><g id="elem_CourseStatus"><rect codeLine="23" fill="#F1F1F1" height="60.582" id="CourseStatus" rx="2.5" ry="2.5" style="stroke:#181818;stroke-width:0.5;" width="118" x="499" y="269.6348"/><ellipse cx="514" cy="291.9258" fill="#FF8B40" rx="11" ry="11" style="stroke:#181818;stroke-width:1.0;"/><path d="M514.5938,295.1914 L517.0625,289.3164 L516.6719,289.3164 Q516.0625,289.3164 515.7969,289.082 Q515.5313,288.8477 515.5313,288.457 Q515.5313,288.082 515.7969,287.8477 Q516.0625,287.6133 516.6719,287.6133 L518.9531,287.6133 Q519.5625,287.6133 519.8281,287.8477 Q520.0938,288.082 520.0938,288.457 Q520.0938,288.9258 519.6875,289.1914 Q519.5,289.3164 518.9063,289.3164 L515.4219,297.6758 L513.7813,297.6758 L510.2969,289.3164 Q509.7031,289.3164 509.5156,289.1914 Q509.1094,288.9258 509.1094,288.457 Q509.1094,288.082 509.375,287.8477 Q509.6406,287.6133 510.25,287.6133 L512.5469,287.6133 Q513.1563,287.6133 513.4063,287.8477 Q513.6719,288.082 513.6719,288.457 Q513.6719,288.8477 513.4063,289.082 Q513.1563,289.3164 512.5469,289.3164 L512.1406,289.3164 L514.5938,295.1914 Z " fill="#000000"/><text fill="#000000" font-family="sans-serif" font-size="12" font-style="italic" lengthAdjust="spacing" textLength="81" x="530.5" y="287.584">&#171;value object&#187;</text><text fill="#000000" font-family="sans-serif" font-size="14" lengthAdjust="spacing" textLength="86" x="528" y="305.7031">CourseStatus</text><line style="stroke:#181818;stroke-width:0.5;" x1="500" x2="616" y1="314.2168" y2="314.2168"/><line style="stroke:#181818;stroke-width:0.5;" x1="500" x2="616" y1="322.2168" y2="322.2168"/></g><!--class CourseEnrolmentLimits--><g id="elem_CourseEnrolmentLimits"><rect codeLine="24" fill="#F1F1F1" height="97.8242" id="CourseEnrolmentLimits" rx="2.5" ry="2.5" style="stroke:#181818;stroke-width:0.5;" width="178" x="652" y="251.1348"/><ellipse cx="667" cy="273.4258" fill="#FF8B40" rx="11" ry="11" style="stroke:#181818;stroke-width:1.0;"/><path d="M667.5938,276.6914 L670.0625,270.8164 L669.6719,270.8164 Q669.0625,270.8164 668.7969,270.582 Q668.5313,270.3477 668.5313,269.957 Q668.5313,269.582 668.7969,269.3477 Q669.0625,269.1133 669.6719,269.1133 L671.9531,269.1133 Q672.5625,269.1133 672.8281,269.3477 Q673.0938,269.582 673.0938,269.957 Q673.0938,270.4258 672.6875,270.6914 Q672.5,270.8164 671.9063,270.8164 L668.4219,279.1758 L666.7813,279.1758 L663.2969,270.8164 Q662.7031,270.8164 662.5156,270.6914 Q662.1094,270.4258 662.1094,269.957 Q662.1094,269.582 662.375,269.3477 Q662.6406,269.1133 663.25,269.1133 L665.5469,269.1133 Q666.1563,269.1133 666.4063,269.3477 Q666.6719,269.582 666.6719,269.957 Q666.6719,270.3477 666.4063,270.582 Q666.1563,270.8164 665.5469,270.8164 L665.1406,270.8164 L667.5938,276.6914 Z " fill="#000000"/><text fill="#000000" font-family="sans-serif" font-size="12" font-style="italic" lengthAdjust="spacing" textLength="81" x="713.5" y="269.084">&#171;value object&#187;</text><text fill="#000000" font-family="sans-serif" font-size="14" lengthAdjust="spacing" textLength="146" x="681" y="287.2031">CourseEnrolmentLimits</text><line style="stroke:#181818;stroke-width:0.5;" x1="653" x2="829" y1="295.7168" y2="295.7168"/><text fill="#000000" font-family="sans-serif" font-size="14" lengthAdjust="spacing" textLength="126" x="658" y="314.8242">minimumEnrolments</text><text fill="#000000" font-family="sans-serif" font-size="14" lengthAdjust="spacing" textLength="129" x="658" y="333.4453">maximumEnrolments</text><line style="stroke:#181818;stroke-width:0.5;" x1="653" x2="829" y1="340.959" y2="340.959"/></g><!--class Enrollment--><g id="elem_Enrollment"><rect codeLine="32" fill="#F1F1F1" height="76.543" id="Enrollment" rx="2.5" ry="2.5" style="stroke:#181818;stroke-width:0.5;" width="99" x="1106.5" y="261.6348"/><ellipse cx="1121.5" cy="291.9063" fill="#ADD1B2" rx="11" ry="11" style="stroke:#181818;stroke-width:1.0;"/><path d="M1120.3594,292.7031 L1120.3594,295.2031 L1124.6875,295.2031 L1124.6875,294.2813 Q1124.6875,293.6719 1124.9219,293.4063 Q1125.1719,293.1406 1125.5469,293.1406 Q1125.9219,293.1406 1126.1563,293.4063 Q1126.3906,293.6719 1126.3906,294.2813 L1126.3906,296.9063 L1118.3906,296.9063 Q1117.7656,296.9063 1117.5,296.6719 Q1117.25,296.4375 1117.25,296.0469 Q1117.25,295.6719 1117.5156,295.4375 Q1117.7813,295.2031 1118.3906,295.2031 L1118.6563,295.2031 L1118.6563,288.5469 L1118.3906,288.5469 Q1117.7656,288.5469 1117.5,288.3125 Q1117.25,288.0781 1117.25,287.6875 Q1117.25,287.3125 1117.5,287.0781 Q1117.7656,286.8438 1118.3906,286.8438 L1126.0156,286.8438 L1126.0156,289.4375 Q1126.0156,290.0469 1125.7813,290.3125 Q1125.5625,290.5625 1125.1719,290.5625 Q1124.7969,290.5625 1124.5625,290.3125 Q1124.3281,290.0469 1124.3281,289.4375 L1124.3281,288.5469 L1120.3594,288.5469 L1120.3594,291 L1121.8438,291 Q1121.8438,290.3438 1121.9688,290.1563 Q1122.2344,289.75 1122.7031,289.75 Q1123.0781,289.75 1123.3125,290.0156 Q1123.5469,290.2656 1123.5469,290.875 L1123.5469,292.8438 Q1123.5469,293.3906 1123.4219,293.5781 Q1123.1563,293.9688 1122.7031,293.9688 Q1122.2344,293.9688 1121.9688,293.5625 Q1121.8438,293.375 1121.8438,292.7031 L1120.3594,292.7031 Z " fill="#000000"/><text fill="#000000" font-family="sans-serif" font-size="12" font-style="italic" lengthAdjust="spacing" textLength="43" x="1147.5" y="279.584">&#171;entity&#187;</text><text fill="#000000" font-family="sans-serif" font-size="12" font-style="italic" lengthAdjust="spacing" textLength="35" x="1151.5" y="295.5449">&#171;root&#187;</text><text fill="#000000" font-family="sans-serif" font-size="14" lengthAdjust="spacing" textLength="67" x="1135.5" y="313.6641">Enrollment</text><line style="stroke:#181818;stroke-width:0.5;" x1="1107.5" x2="1204.5" y1="322.1777" y2="322.1777"/><line style="stroke:#181818;stroke-width:0.5;" x1="1107.5" x2="1204.5" y1="330.1777" y2="330.1777"/></g><!--class EnrollmentStatus--><g id="elem_EnrollmentStatus"><rect codeLine="33" fill="#F1F1F1" height="60.582" id="EnrollmentStatus" rx="2.5" ry="2.5" style="stroke:#181818;stroke-width:0.5;" width="139" x="1086.5" y="461.1348"/><ellipse cx="1101.5" cy="483.4258" fill="#FF8B40" rx="11" ry="11" style="stroke:#181818;stroke-width:1.0;"/><path d="M1102.0938,486.6914 L1104.5625,480.8164 L1104.1719,480.8164 Q1103.5625,480.8164 1103.2969,480.582 Q1103.0313,480.3477 1103.0313,479.957 Q1103.0313,479.582 1103.2969,479.3477 Q1103.5625,479.1133 1104.1719,479.1133 L1106.4531,479.1133 Q1107.0625,479.1133 1107.3281,479.3477 Q1107.5938,479.582 1107.5938,479.957 Q1107.5938,480.4258 1107.1875,480.6914 Q1107,480.8164 1106.4063,480.8164 L1102.9219,489.1758 L1101.2813,489.1758 L1097.7969,480.8164 Q1097.2031,480.8164 1097.0156,480.6914 Q1096.6094,480.4258 1096.6094,479.957 Q1096.6094,479.582 1096.875,479.3477 Q1097.1406,479.1133 1097.75,479.1133 L1100.0469,479.1133 Q1100.6563,479.1133 1100.9063,479.3477 Q1101.1719,479.582 1101.1719,479.957 Q1101.1719,480.3477 1100.9063,480.582 Q1100.6563,480.8164 1100.0469,480.8164 L1099.6406,480.8164 L1102.0938,486.6914 Z " fill="#000000"/><text fill="#000000" font-family="sans-serif" font-size="12" font-style="italic" lengthAdjust="spacing" textLength="81" x="1128.5" y="479.084">&#171;value object&#187;</text><text fill="#000000" font-family="sans-serif" font-size="14" lengthAdjust="spacing" textLength="107" x="1115.5" y="497.2031">EnrollmentStatus</text><line style="stroke:#181818;stroke-width:0.5;" x1="1087.5" x2="1224.5" y1="505.7168" y2="505.7168"/><line style="stroke:#181818;stroke-width:0.5;" x1="1087.5" x2="1224.5" y1="513.7168" y2="513.7168"/></g><!--class Teacher--><g id="elem_Teacher"><rect codeLine="38" fill="#F1F1F1" height="76.543" id="Teacher" rx="2.5" ry="2.5" style="stroke:#181818;stroke-width:0.5;" width="85" x="1530.5" y="261.6348"/><ellipse cx="1545.5" cy="291.9063" fill="#ADD1B2" rx="11" ry="11" style="stroke:#181818;stroke-width:1.0;"/><path d="M1544.3594,292.7031 L1544.3594,295.2031 L1548.6875,295.2031 L1548.6875,294.2813 Q1548.6875,293.6719 1548.9219,293.4063 Q1549.1719,293.1406 1549.5469,293.1406 Q1549.9219,293.1406 1550.1563,293.4063 Q1550.3906,293.6719 1550.3906,294.2813 L1550.3906,296.9063 L1542.3906,296.9063 Q1541.7656,296.9063 1541.5,296.6719 Q1541.25,296.4375 1541.25,296.0469 Q1541.25,295.6719 1541.5156,295.4375 Q1541.7813,295.2031 1542.3906,295.2031 L1542.6563,295.2031 L1542.6563,288.5469 L1542.3906,288.5469 Q1541.7656,288.5469 1541.5,288.3125 Q1541.25,288.0781 1541.25,287.6875 Q1541.25,287.3125 1541.5,287.0781 Q1541.7656,286.8438 1542.3906,286.8438 L1550.0156,286.8438 L1550.0156,289.4375 Q1550.0156,290.0469 1549.7813,290.3125 Q1549.5625,290.5625 1549.1719,290.5625 Q1548.7969,290.5625 1548.5625,290.3125 Q1548.3281,290.0469 1548.3281,289.4375 L1548.3281,288.5469 L1544.3594,288.5469 L1544.3594,291 L1545.8438,291 Q1545.8438,290.3438 1545.9688,290.1563 Q1546.2344,289.75 1546.7031,289.75 Q1547.0781,289.75 1547.3125,290.0156 Q1547.5469,290.2656 1547.5469,290.875 L1547.5469,292.8438 Q1547.5469,293.3906 1547.4219,293.5781 Q1547.1563,293.9688 1546.7031,293.9688 Q1546.2344,293.9688 1545.9688,293.5625 Q1545.8438,293.375 1545.8438,292.7031 L1544.3594,292.7031 Z " fill="#000000"/><text fill="#000000" font-family="sans-serif" font-size="12" font-style="italic" lengthAdjust="spacing" textLength="43" x="1564.5" y="279.584">&#171;entity&#187;</text><text fill="#000000" font-family="sans-serif" font-size="12" font-style="italic" lengthAdjust="spacing" textLength="35" x="1568.5" y="295.5449">&#171;root&#187;</text><text fill="#000000" font-family="sans-serif" font-size="14" lengthAdjust="spacing" textLength="53" x="1559.5" y="313.6641">Teacher</text><line style="stroke:#181818;stroke-width:0.5;" x1="1531.5" x2="1614.5" y1="322.1777" y2="322.1777"/><line style="stroke:#181818;stroke-width:0.5;" x1="1531.5" x2="1614.5" y1="330.1777" y2="330.1777"/></g><!--class Acronym--><g id="elem_Acronym"><rect codeLine="39" fill="#F1F1F1" height="60.582" id="Acronym" rx="2.5" ry="2.5" style="stroke:#181818;stroke-width:0.5;" width="109" x="1530.5" y="461.1348"/><ellipse cx="1545.5" cy="483.4258" fill="#FF8B40" rx="11" ry="11" style="stroke:#181818;stroke-width:1.0;"/><path d="M1546.0938,486.6914 L1548.5625,480.8164 L1548.1719,480.8164 Q1547.5625,480.8164 1547.2969,480.582 Q1547.0313,480.3477 1547.0313,479.957 Q1547.0313,479.582 1547.2969,479.3477 Q1547.5625,479.1133 1548.1719,479.1133 L1550.4531,479.1133 Q1551.0625,479.1133 1551.3281,479.3477 Q1551.5938,479.582 1551.5938,479.957 Q1551.5938,480.4258 1551.1875,480.6914 Q1551,480.8164 1550.4063,480.8164 L1546.9219,489.1758 L1545.2813,489.1758 L1541.7969,480.8164 Q1541.2031,480.8164 1541.0156,480.6914 Q1540.6094,480.4258 1540.6094,479.957 Q1540.6094,479.582 1540.875,479.3477 Q1541.1406,479.1133 1541.75,479.1133 L1544.0469,479.1133 Q1544.6563,479.1133 1544.9063,479.3477 Q1545.1719,479.582 1545.1719,479.957 Q1545.1719,480.3477 1544.9063,480.582 Q1544.6563,480.8164 1544.0469,480.8164 L1543.6406,480.8164 L1546.0938,486.6914 Z " fill="#000000"/><text fill="#000000" font-family="sans-serif" font-size="12" font-style="italic" lengthAdjust="spacing" textLength="81" x="1557.5" y="479.084">&#171;value object&#187;</text><text fill="#000000" font-family="sans-serif" font-size="14" lengthAdjust="spacing" textLength="55" x="1570.5" y="497.2031">Acronym</text><line style="stroke:#181818;stroke-width:0.5;" x1="1531.5" x2="1638.5" y1="505.7168" y2="505.7168"/><line style="stroke:#181818;stroke-width:0.5;" x1="1531.5" x2="1638.5" y1="513.7168" y2="513.7168"/></g><!--link Student to MechanographicNumber--><g id="link_Student_MechanographicNumber"><path codeLine="42" d="M1362.66,530.3448 C1366.22,547.8548 1370.42,568.5448 1373.9,585.6948 " fill="none" id="Student-to-MechanographicNumber" style="stroke:#181818;stroke-width:1.0;"/><polygon fill="#181818" points="1374.96,590.8948,1377.0796,581.2767,1373.9602,585.9957,1369.2411,582.8764,1374.96,590.8948" style="stroke:#181818;stroke-width:1.0;"/></g><!--link Enrollment to Student--><g id="link_Enrollment_Student"><path codeLine="44" d="M1195.79,339.0248 C1229.39,371.0248 1277.4,416.7348 1311.9,449.5948 " fill="none" id="Enrollment-to-Student" style="stroke:#181818;stroke-width:1.0;"/><polygon fill="#181818" points="1315.62,453.1348,1311.8444,444.0384,1311.9929,449.6933,1306.338,449.8418,1315.62,453.1348" style="stroke:#181818;stroke-width:1.0;"/><text fill="#000000" font-family="sans-serif" font-size="13" lengthAdjust="spacing" textLength="21" x="1256" y="396.1631">has</text><text fill="#000000" font-family="sans-serif" font-size="13" lengthAdjust="spacing" textLength="20" x="1180.1654" y="360.0684">1..*</text><text fill="#000000" font-family="sans-serif" font-size="13" lengthAdjust="spacing" textLength="7" x="1300.982" y="441.8578">1</text></g><!--link Course to CourseTitle--><g id="link_Course_CourseTitle"><path codeLine="46" d="M701.85,124.8748 C585.68,133.5448 244.99,163.0448 149,216.6348 C128.5,228.0848 111.01,247.6948 98.41,264.9248 " fill="none" id="Course-to-CourseTitle" style="stroke:#181818;stroke-width:1.0;"/><polygon fill="#181818" points="95.32,269.2448,103.8077,264.2489,98.2275,265.1771,97.2994,259.5969,95.32,269.2448" style="stroke:#181818;stroke-width:1.0;"/></g><!--link Course to CourseCode--><g id="link_Course_CourseCode"><path codeLine="47" d="M701.92,122.5048 C620.9,124.8948 431.03,139.0548 297,216.6348 C276.43,228.5448 258.48,248.1648 245.41,265.2848 " fill="none" id="Course-to-CourseCode" style="stroke:#181818;stroke-width:1.0;"/><polygon fill="#181818" points="242.2,269.5848,250.7918,264.7701,245.1932,265.5796,244.3836,259.981,242.2,269.5848" style="stroke:#181818;stroke-width:1.0;"/></g><!--link Course to CourseDescription--><g id="link_Course_CourseDescription"><path codeLine="48" d="M701.68,131.5248 C649.1,145.1648 554.15,173.6048 482,216.6348 C459.6,229.9948 437.62,249.1248 420.66,265.6048 " fill="none" id="Course-to-CourseDescription" style="stroke:#181818;stroke-width:1.0;"/><polygon fill="#181818" points="416.9,269.2948,426.1276,265.8523,420.4711,265.7951,420.5282,260.1386,416.9,269.2948" style="stroke:#181818;stroke-width:1.0;"/></g><!--link Course to CourseStatus--><g id="link_Course_CourseStatus"><path codeLine="49" d="M701.96,155.4248 C681.59,173.1648 656.51,195.6148 635,216.6348 C618.98,232.2848 601.92,250.4148 587.93,265.6848 " fill="none" id="Course-to-CourseStatus" style="stroke:#181818;stroke-width:1.0;"/><polygon fill="#181818" points="584.45,269.4948,593.476,265.5538,587.8247,265.8054,587.5731,260.1542,584.45,269.4948" style="stroke:#181818;stroke-width:1.0;"/></g><!--link Course to CourseEnrolmentLimits--><g id="link_Course_CourseEnrolmentLimits"><path codeLine="50" d="M741,159.6748 C741,184.7048 741,217.9848 741,245.7548 " fill="none" id="Course-to-CourseEnrolmentLimits" style="stroke:#181818;stroke-width:1.0;"/><polygon fill="#181818" points="741,250.8748,745,241.8748,741,245.8748,737,241.8748,741,250.8748" style="stroke:#181818;stroke-width:1.0;"/></g><!--link Course to Manager--><g id="link_Course_Manager"><path codeLine="51" d="M780.26,156.7448 C800.15,174.4548 824.56,196.4748 846,216.6348 C860.02,229.8148 875.09,244.4648 888.54,257.7148 " fill="none" id="Course-to-Manager" style="stroke:#181818;stroke-width:1.0;"/><polygon fill="#181818" points="892.29,261.4048,888.6988,252.234,888.7331,257.8907,883.0764,257.925,892.29,261.4048" style="stroke:#181818;stroke-width:1.0;"/><polygon fill="#000000" points="842.6568,202.6902,838.0459,194.3722,834.0373,198.671,842.6568,202.6902" style="stroke:#000000;stroke-width:1.0;"/><text fill="#000000" font-family="sans-serif" font-size="13" lengthAdjust="spacing" textLength="85" x="848" y="204.6631">is managed by</text><text fill="#000000" font-family="sans-serif" font-size="13" lengthAdjust="spacing" textLength="20" x="788.1108" y="158.1534">0..*</text><text fill="#000000" font-family="sans-serif" font-size="13" lengthAdjust="spacing" textLength="20" x="864.0898" y="250.3797">1..*</text></g><!--link Course to Teacher--><g id="link_Course_Teacher"><path codeLine="52" d="M780.13,128.7248 C864.72,143.1348 1070.79,179.1848 1242,216.6348 C1343.5,238.8348 1461.32,269.3548 1525.44,286.3648 " fill="none" id="Course-to-Teacher" style="stroke:#181818;stroke-width:1.0;"/><polygon fill="#181818" points="1530.34,287.6648,1522.6723,281.4837,1525.5084,286.3782,1520.6138,289.2143,1530.34,287.6648" style="stroke:#181818;stroke-width:1.0;"/><polygon fill="#000000" points="1210.8918,200.3149,1202.6506,195.5679,1201.4343,201.3185,1210.8918,200.3149" style="stroke:#000000;stroke-width:1.0;"/><text fill="#000000" font-family="sans-serif" font-size="13" lengthAdjust="spacing" textLength="91" x="1215" y="204.6631">has responsible</text><text fill="#000000" font-family="sans-serif" font-size="13" lengthAdjust="spacing" textLength="7" x="787.9899" y="145.7886">1</text><text fill="#000000" font-family="sans-serif" font-size="13" lengthAdjust="spacing" textLength="7" x="1515.4063" y="301.075">1</text></g><!--link Course to Teacher--><g id="link_Course_Teacher"><path codeLine="53" d="M780.34,122.9348 C874.36,125.6648 1118.84,137.6148 1315,189.6348 C1391.47,209.9148 1474.88,248.6048 1525.56,274.1348 " fill="none" id="Course-to-Teacher-1" style="stroke:#181818;stroke-width:1.0;"/><polygon fill="#181818" points="1530.06,276.4148,1523.838,268.7802,1525.5994,274.1559,1520.2237,275.9172,1530.06,276.4148" style="stroke:#181818;stroke-width:1.0;"/><polygon fill="#000000" points="1382.9002,200.2745,1374.6201,195.5957,1373.4513,201.3562,1382.9002,200.2745" style="stroke:#000000;stroke-width:1.0;"/><text fill="#000000" font-family="sans-serif" font-size="13" lengthAdjust="spacing" textLength="50" x="1387" y="204.6631">is taught</text><text fill="#000000" font-family="sans-serif" font-size="13" lengthAdjust="spacing" textLength="20" x="787.8952" y="118.9944">1..*</text><text fill="#000000" font-family="sans-serif" font-size="13" lengthAdjust="spacing" textLength="20" x="1502.6153" y="268.9647">1..*</text></g><!--link Course to Enrollment--><g id="link_Course_Enrollment"><path codeLine="54" d="M780.17,133.3948 C821.15,145.6148 887.04,166.4948 942,189.6348 C997.85,213.1448 1059.2,245.2148 1101.83,268.5748 " fill="none" id="Course-to-Enrollment" style="stroke:#181818;stroke-width:1.0;"/><polygon fill="#181818" points="1106.42,271.0848,1100.4647,263.2404,1102.0398,268.6735,1096.6067,270.2487,1106.42,271.0848" style="stroke:#181818;stroke-width:1.0;"/><polygon fill="#000000" points="992.6095,201.2174,985.4095,195.0037,983.1322,200.4225,992.6095,201.2174" style="stroke:#000000;stroke-width:1.0;"/><text fill="#000000" font-family="sans-serif" font-size="13" lengthAdjust="spacing" textLength="21" x="997" y="204.6631">has</text><text fill="#000000" font-family="sans-serif" font-size="13" lengthAdjust="spacing" textLength="7" x="788.0373" y="131.1853">1</text><text fill="#000000" font-family="sans-serif" font-size="13" lengthAdjust="spacing" textLength="20" x="1078.4139" y="263.1176">0..*</text></g><!--link Enrollment to EnrollmentStatus--><g id="link_Enrollment_EnrollmentStatus"><path codeLine="56" d="M1156,339.0248 C1156,373.0648 1156,422.6348 1156,455.7248 " fill="none" id="Enrollment-to-EnrollmentStatus" style="stroke:#181818;stroke-width:1.0;"/><polygon fill="#181818" points="1156,460.8948,1160,451.8948,1156,455.8948,1152,451.8948,1156,460.8948" style="stroke:#181818;stroke-width:1.0;"/></g><!--link Teacher to Acronym--><g id="link_Teacher_Acronym"><path codeLine="58" d="M1575.4,339.0248 C1577.55,373.0648 1580.69,422.6348 1582.79,455.7248 " fill="none" id="Teacher-to-Acronym" style="stroke:#181818;stroke-width:1.0;"/><polygon fill="#181818" points="1583.12,460.8948,1586.5475,451.6616,1582.8063,455.9046,1578.5633,452.1634,1583.12,460.8948" style="stroke:#181818;stroke-width:1.0;"/></g><!--SRC=[bLFBJiCm4BpxArRXG8ieQYM448eYGKjFb4iBToUn4aDjH_O6g53_7UVX9aGfeJavExExio_ak6MmK89o2VCjDOOP62tcOvZ0onfcq-aD8QWoG0MXGbG2OgvPX5n9GixNcCTC8ibez4uJ1fxlqoJHBA78WW1gs8Dl0lQpJuuxPmNVhmoMwFjQAGo2aXOLCc35efHAbMYQfJnwpaN8jEMDNY_XRBcyVRYUZk63RdC6AdopWgpptYfQKMc5w6EAQhYZgBRsAYg2pbMk3JiMiq8x8IlZG8qLQLFEuE_IkZvp5P_gic0cqZmh9dUYvnefvkP4fqUfrLROwf-uu3ZWNVUk-0INNEJYu6uQX7xr8FjoGgMnj1wRKiFeJAe11gRL4F_La4BMXj4eFRwDDTmHL5i7rDn7MicT61RXpcqIgqyv2NeFYv1M5xpPrTM51nFBzMRUuLpl8AM6a7gnNRJM2lT3nQRs8ws5x2TKRUx7EklbIDwqfRrykjk-0sxi2XK_COGx20ukiwPMr_goLj3CP4eQ7jhpRD6x6Hedcm5fdgJO4xqIrcfpbIFurNfNOtVL27597ACUF_a1]--></g></svg>