<?xml version="1.0" encoding="us-ascii" standalone="no"?><svg xmlns="http://www.w3.org/2000/svg" xmlns:xlink="http://www.w3.org/1999/xlink" contentStyleType="text/css" height="639px" preserveAspectRatio="none" style="width:849px;height:639px;background:#FFFFFF;" version="1.1" viewBox="0 0 849 639" width="849.6px" zoomAndPan="magnify"><defs/><g><text fill="#000000" font-family="sans-serif" font-size="12.6" font-weight="bold" lengthAdjust="spacing" textLength="195.3" x="321.003" y="22.5967">Class Diagram (CD) - US 1001_3</text><!--class ListUserUI--><g id="elem_ListUserUI"><rect codeLine="4" fill="#F1F1F1" height="71.2828" id="ListUserUI" rx="2.25" ry="2.25" style="stroke:#181818;stroke-width:0.45;" width="99" x="499.356" y="41.959"/><ellipse cx="512.856" cy="62.0209" fill="#ADD1B2" rx="9.9" ry="9.9" style="stroke:#181818;stroke-width:0.9;"/><path d="M515.3451,58.3084 Q515.4857,58.1115 515.6544,58.0131 Q515.8232,57.9146 516.0201,57.9146 Q516.3576,57.9146 516.5685,58.1537 Q516.7794,58.3787 516.7794,58.9271 L516.7794,60.235 Q516.7794,60.7834 516.5685,61.0225 Q516.3576,61.2615 516.0201,61.2615 Q515.7107,61.2615 515.5279,61.0787 Q515.3451,60.91 515.2466,60.4459 Q515.2044,60.1225 515.0357,59.9537 Q514.7404,59.6162 514.1919,59.4193 Q513.6435,59.2225 513.081,59.2225 Q512.3919,59.2225 511.8154,59.5178 Q511.2529,59.8131 510.8029,60.4881 Q510.3669,61.1631 510.3669,62.0912 L510.3669,63.0756 Q510.3669,64.1865 511.1685,64.9318 Q511.9701,65.6631 513.4044,65.6631 Q514.2482,65.6631 514.8388,65.4381 Q515.1904,65.2975 515.5701,64.9037 Q515.8091,64.6646 515.9357,64.5943 Q516.0763,64.524 516.2591,64.524 Q516.5544,64.524 516.7794,64.7631 Q517.0185,64.9881 517.0185,65.2975 Q517.0185,65.6068 516.7091,65.9725 Q516.2591,66.4928 515.5419,66.7881 Q514.5716,67.1959 513.4044,67.1959 Q512.0404,67.1959 510.9576,66.6334 Q510.0716,66.1834 509.4529,65.2271 Q508.8341,64.2568 508.8341,63.1037 L508.8341,62.0631 Q508.8341,60.8678 509.3826,59.8412 Q509.9451,58.8006 510.9294,58.2521 Q511.9138,57.6896 513.0248,57.6896 Q513.6857,57.6896 514.2623,57.8443 Q514.8529,57.985 515.3451,58.3084 Z " fill="#000000"/><text fill="#000000" font-family="sans-serif" font-size="10.8" font-style="italic" lengthAdjust="spacing" textLength="73.8" x="523.656" y="58.1133">&#171;presentation&#187;</text><text fill="#000000" font-family="sans-serif" font-size="12.6" lengthAdjust="spacing" textLength="56.7" x="532.206" y="74.4205">ListUserUI</text><line style="stroke:#181818;stroke-width:0.45;" x1="500.256" x2="597.456" y1="82.0828" y2="82.0828"/><line style="stroke:#181818;stroke-width:0.45;" x1="500.256" x2="597.456" y1="89.2828" y2="89.2828"/><text fill="#000000" font-family="sans-serif" font-size="12.6" lengthAdjust="spacing" textLength="54" x="504.756" y="106.4795">doShow()</text></g><!--class RepositoryFactory--><g id="elem_RepositoryFactory"><rect codeLine="8" fill="#F1F1F1" height="54.5238" id="RepositoryFactory" rx="2.25" ry="2.25" style="stroke:#181818;stroke-width:0.45;" width="133.2" x="194.256" y="334.459"/><ellipse cx="207.756" cy="354.5209" fill="#B4A7E5" rx="9.9" ry="9.9" style="stroke:#181818;stroke-width:0.9;"/><path d="M208.6138,351.4975 L208.6138,357.4881 L210.1607,357.4881 Q210.7091,357.4881 210.9482,357.699 Q211.1873,357.91 211.1873,358.2615 Q211.1873,358.599 210.9482,358.81 Q210.7091,359.0209 210.1607,359.0209 L205.5341,359.0209 Q204.9857,359.0209 204.7466,358.81 Q204.5076,358.599 204.5076,358.2475 Q204.5076,357.91 204.7466,357.699 Q204.9857,357.4881 205.5341,357.4881 L207.081,357.4881 L207.081,351.4975 L205.5341,351.4975 Q204.9857,351.4975 204.7466,351.2865 Q204.5076,351.0756 204.5076,350.724 Q204.5076,350.3865 204.7466,350.1756 Q204.9857,349.9646 205.5341,349.9646 L210.1607,349.9646 Q210.7091,349.9646 210.9482,350.1756 Q211.1873,350.3865 211.1873,350.724 Q211.1873,351.0756 210.9482,351.2865 Q210.7091,351.4975 210.1607,351.4975 L208.6138,351.4975 Z " fill="#000000"/><text fill="#000000" font-family="sans-serif" font-size="10.8" font-style="italic" lengthAdjust="spacing" textLength="45" x="250.056" y="350.6133">&#171;factory&#187;</text><text fill="#000000" font-family="sans-serif" font-size="12.6" font-style="italic" lengthAdjust="spacing" textLength="104.4" x="220.356" y="366.9205">RepositoryFactory</text><line style="stroke:#181818;stroke-width:0.45;" x1="195.156" x2="326.556" y1="374.5828" y2="374.5828"/><line style="stroke:#181818;stroke-width:0.45;" x1="195.156" x2="326.556" y1="381.7828" y2="381.7828"/></g><!--class PersistenceContext--><g id="elem_PersistenceContext"><rect codeLine="9" fill="#F1F1F1" height="54.5238" id="PersistenceContext" rx="2.25" ry="2.25" style="stroke:#181818;stroke-width:0.45;" width="138.6" x="479.556" y="578.359"/><ellipse cx="493.056" cy="598.4209" fill="#ADD1B2" rx="9.9" ry="9.9" style="stroke:#181818;stroke-width:0.9;"/><path d="M495.5451,594.7084 Q495.6857,594.5115 495.8544,594.4131 Q496.0232,594.3146 496.2201,594.3146 Q496.5576,594.3146 496.7685,594.5537 Q496.9794,594.7787 496.9794,595.3271 L496.9794,596.635 Q496.9794,597.1834 496.7685,597.4225 Q496.5576,597.6615 496.2201,597.6615 Q495.9107,597.6615 495.7279,597.4787 Q495.5451,597.31 495.4466,596.8459 Q495.4044,596.5225 495.2357,596.3537 Q494.9404,596.0162 494.3919,595.8193 Q493.8435,595.6225 493.281,595.6225 Q492.5919,595.6225 492.0154,595.9178 Q491.4529,596.2131 491.0029,596.8881 Q490.5669,597.5631 490.5669,598.4912 L490.5669,599.4756 Q490.5669,600.5865 491.3685,601.3318 Q492.1701,602.0631 493.6044,602.0631 Q494.4482,602.0631 495.0388,601.8381 Q495.3904,601.6975 495.7701,601.3037 Q496.0091,601.0646 496.1357,600.9943 Q496.2763,600.924 496.4591,600.924 Q496.7544,600.924 496.9794,601.1631 Q497.2185,601.3881 497.2185,601.6975 Q497.2185,602.0068 496.9091,602.3725 Q496.4591,602.8928 495.7419,603.1881 Q494.7716,603.5959 493.6044,603.5959 Q492.2404,603.5959 491.1576,603.0334 Q490.2716,602.5834 489.6529,601.6271 Q489.0341,600.6568 489.0341,599.5037 L489.0341,598.4631 Q489.0341,597.2678 489.5826,596.2412 Q490.1451,595.2006 491.1294,594.6521 Q492.1138,594.0896 493.2248,594.0896 Q493.8857,594.0896 494.4623,594.2443 Q495.0529,594.385 495.5451,594.7084 Z " fill="#000000"/><text fill="#000000" font-family="sans-serif" font-size="10.8" font-style="italic" lengthAdjust="spacing" textLength="69.3" x="525.906" y="594.5133">&#171;persistence&#187;</text><text fill="#000000" font-family="sans-serif" font-size="12.6" lengthAdjust="spacing" textLength="109.8" x="505.656" y="610.8205">PersistenceContext</text><line style="stroke:#181818;stroke-width:0.45;" x1="480.456" x2="617.256" y1="618.4828" y2="618.4828"/><line style="stroke:#181818;stroke-width:0.45;" x1="480.456" x2="617.256" y1="625.6828" y2="625.6828"/></g><!--class JpaAutoTxUserRepository--><g id="elem_JpaAutoTxUserRepository"><rect codeLine="10" fill="#F1F1F1" height="54.5238" id="JpaAutoTxUserRepository" rx="2.25" ry="2.25" style="stroke:#181818;stroke-width:0.45;" width="175.5" x="41.706" y="460.459"/><ellipse cx="55.206" cy="480.5209" fill="#ADD1B2" rx="9.9" ry="9.9" style="stroke:#181818;stroke-width:0.9;"/><path d="M57.6951,476.8084 Q57.8357,476.6115 58.0044,476.5131 Q58.1732,476.4146 58.3701,476.4146 Q58.7076,476.4146 58.9185,476.6537 Q59.1294,476.8787 59.1294,477.4271 L59.1294,478.735 Q59.1294,479.2834 58.9185,479.5225 Q58.7076,479.7615 58.3701,479.7615 Q58.0607,479.7615 57.8779,479.5787 Q57.6951,479.41 57.5966,478.9459 Q57.5544,478.6225 57.3857,478.4537 Q57.0904,478.1162 56.5419,477.9193 Q55.9935,477.7225 55.431,477.7225 Q54.7419,477.7225 54.1654,478.0178 Q53.6029,478.3131 53.1529,478.9881 Q52.7169,479.6631 52.7169,480.5912 L52.7169,481.5756 Q52.7169,482.6865 53.5185,483.4318 Q54.3201,484.1631 55.7544,484.1631 Q56.5982,484.1631 57.1888,483.9381 Q57.5404,483.7975 57.9201,483.4037 Q58.1591,483.1646 58.2857,483.0943 Q58.4263,483.024 58.6091,483.024 Q58.9044,483.024 59.1294,483.2631 Q59.3685,483.4881 59.3685,483.7975 Q59.3685,484.1068 59.0591,484.4725 Q58.6091,484.9928 57.8919,485.2881 Q56.9216,485.6959 55.7544,485.6959 Q54.3904,485.6959 53.3076,485.1334 Q52.4216,484.6834 51.8029,483.7271 Q51.1841,482.7568 51.1841,481.6037 L51.1841,480.5631 Q51.1841,479.3678 51.7326,478.3412 Q52.2951,477.3006 53.2794,476.7521 Q54.2638,476.1896 55.3748,476.1896 Q56.0357,476.1896 56.6123,476.3443 Q57.2029,476.485 57.6951,476.8084 Z " fill="#000000"/><text fill="#000000" font-family="sans-serif" font-size="10.8" font-style="italic" lengthAdjust="spacing" textLength="69.3" x="106.506" y="476.6133">&#171;persistence&#187;</text><text fill="#000000" font-family="sans-serif" font-size="12.6" lengthAdjust="spacing" textLength="146.7" x="67.806" y="492.9205">JpaAutoTxUserRepository</text><line style="stroke:#181818;stroke-width:0.45;" x1="42.606" x2="216.306" y1="500.5828" y2="500.5828"/><line style="stroke:#181818;stroke-width:0.45;" x1="42.606" x2="216.306" y1="507.7828" y2="507.7828"/></g><!--class InMemoryUserRepository--><g id="elem_InMemoryUserRepository"><rect codeLine="11" fill="#F1F1F1" height="54.5238" id="InMemoryUserRepository" rx="2.25" ry="2.25" style="stroke:#181818;stroke-width:0.45;" width="171" x="249.156" y="460.459"/><ellipse cx="262.656" cy="480.5209" fill="#ADD1B2" rx="9.9" ry="9.9" style="stroke:#181818;stroke-width:0.9;"/><path d="M265.1451,476.8084 Q265.2857,476.6115 265.4544,476.5131 Q265.6232,476.4146 265.8201,476.4146 Q266.1576,476.4146 266.3685,476.6537 Q266.5794,476.8787 266.5794,477.4271 L266.5794,478.735 Q266.5794,479.2834 266.3685,479.5225 Q266.1576,479.7615 265.8201,479.7615 Q265.5107,479.7615 265.3279,479.5787 Q265.1451,479.41 265.0466,478.9459 Q265.0044,478.6225 264.8357,478.4537 Q264.5404,478.1162 263.9919,477.9193 Q263.4435,477.7225 262.881,477.7225 Q262.1919,477.7225 261.6154,478.0178 Q261.0529,478.3131 260.6029,478.9881 Q260.1669,479.6631 260.1669,480.5912 L260.1669,481.5756 Q260.1669,482.6865 260.9685,483.4318 Q261.7701,484.1631 263.2044,484.1631 Q264.0482,484.1631 264.6388,483.9381 Q264.9904,483.7975 265.3701,483.4037 Q265.6091,483.1646 265.7357,483.0943 Q265.8763,483.024 266.0591,483.024 Q266.3544,483.024 266.5794,483.2631 Q266.8185,483.4881 266.8185,483.7975 Q266.8185,484.1068 266.5091,484.4725 Q266.0591,484.9928 265.3419,485.2881 Q264.3716,485.6959 263.2044,485.6959 Q261.8404,485.6959 260.7576,485.1334 Q259.8716,484.6834 259.2529,483.7271 Q258.6341,482.7568 258.6341,481.6037 L258.6341,480.5631 Q258.6341,479.3678 259.1826,478.3412 Q259.7451,477.3006 260.7294,476.7521 Q261.7138,476.1896 262.8248,476.1896 Q263.4857,476.1896 264.0623,476.3443 Q264.6529,476.485 265.1451,476.8084 Z " fill="#000000"/><text fill="#000000" font-family="sans-serif" font-size="10.8" font-style="italic" lengthAdjust="spacing" textLength="69.3" x="311.706" y="476.6133">&#171;persistence&#187;</text><text fill="#000000" font-family="sans-serif" font-size="12.6" lengthAdjust="spacing" textLength="142.2" x="275.256" y="492.9205">InMemoryUserRepository</text><line style="stroke:#181818;stroke-width:0.45;" x1="250.056" x2="419.256" y1="500.5828" y2="500.5828"/><line style="stroke:#181818;stroke-width:0.45;" x1="250.056" x2="419.256" y1="507.7828" y2="507.7828"/></g><!--class SystemUser--><g id="elem_SystemUser"><rect codeLine="13" fill="#F1F1F1" height="54.5238" id="SystemUser" rx="2.25" ry="2.25" style="stroke:#181818;stroke-width:0.45;" width="96.3" x="747.306" y="334.459"/><ellipse cx="760.806" cy="354.5209" fill="#ADD1B2" rx="9.9" ry="9.9" style="stroke:#181818;stroke-width:0.9;"/><path d="M763.2951,350.8084 Q763.4357,350.6115 763.6044,350.5131 Q763.7732,350.4146 763.9701,350.4146 Q764.3076,350.4146 764.5185,350.6537 Q764.7294,350.8787 764.7294,351.4271 L764.7294,352.735 Q764.7294,353.2834 764.5185,353.5225 Q764.3076,353.7615 763.9701,353.7615 Q763.6607,353.7615 763.4779,353.5787 Q763.2951,353.41 763.1966,352.9459 Q763.1544,352.6225 762.9857,352.4537 Q762.6904,352.1162 762.1419,351.9193 Q761.5935,351.7225 761.031,351.7225 Q760.3419,351.7225 759.7654,352.0178 Q759.2029,352.3131 758.7529,352.9881 Q758.3169,353.6631 758.3169,354.5912 L758.3169,355.5756 Q758.3169,356.6865 759.1185,357.4318 Q759.9201,358.1631 761.3544,358.1631 Q762.1982,358.1631 762.7888,357.9381 Q763.1404,357.7975 763.5201,357.4037 Q763.7591,357.1646 763.8857,357.0943 Q764.0263,357.024 764.2091,357.024 Q764.5044,357.024 764.7294,357.2631 Q764.9685,357.4881 764.9685,357.7975 Q764.9685,358.1068 764.6591,358.4725 Q764.2091,358.9928 763.4919,359.2881 Q762.5216,359.6959 761.3544,359.6959 Q759.9904,359.6959 758.9076,359.1334 Q758.0216,358.6834 757.4029,357.7271 Q756.7841,356.7568 756.7841,355.6037 L756.7841,354.5631 Q756.7841,353.3678 757.3326,352.3412 Q757.8951,351.3006 758.8794,350.7521 Q759.8638,350.1896 760.9748,350.1896 Q761.6357,350.1896 762.2123,350.3443 Q762.8029,350.485 763.2951,350.8084 Z " fill="#000000"/><text fill="#000000" font-family="sans-serif" font-size="10.8" font-style="italic" lengthAdjust="spacing" textLength="52.2" x="781.056" y="350.6133">&#171;Domain&#187;</text><text fill="#000000" font-family="sans-serif" font-size="12.6" lengthAdjust="spacing" textLength="67.5" x="773.406" y="366.9205">SystemUser</text><line style="stroke:#181818;stroke-width:0.45;" x1="748.206" x2="842.706" y1="374.5828" y2="374.5828"/><line style="stroke:#181818;stroke-width:0.45;" x1="748.206" x2="842.706" y1="381.7828" y2="381.7828"/></g><!--class ListUsersController--><g id="elem_ListUsersController"><rect codeLine="15" fill="#F1F1F1" height="71.2828" id="ListUsersController" rx="2.25" ry="2.25" style="stroke:#181818;stroke-width:0.45;" width="221.4" x="438.156" y="184.159"/><ellipse cx="491.031" cy="204.2209" fill="#ADD1B2" rx="9.9" ry="9.9" style="stroke:#181818;stroke-width:0.9;"/><path d="M493.5201,200.5084 Q493.6607,200.3115 493.8294,200.2131 Q493.9982,200.1146 494.1951,200.1146 Q494.5326,200.1146 494.7435,200.3537 Q494.9544,200.5787 494.9544,201.1271 L494.9544,202.435 Q494.9544,202.9834 494.7435,203.2225 Q494.5326,203.4615 494.1951,203.4615 Q493.8857,203.4615 493.7029,203.2787 Q493.5201,203.11 493.4216,202.6459 Q493.3794,202.3225 493.2107,202.1537 Q492.9154,201.8162 492.3669,201.6193 Q491.8185,201.4225 491.256,201.4225 Q490.5669,201.4225 489.9904,201.7178 Q489.4279,202.0131 488.9779,202.6881 Q488.5419,203.3631 488.5419,204.2912 L488.5419,205.2756 Q488.5419,206.3865 489.3435,207.1318 Q490.1451,207.8631 491.5794,207.8631 Q492.4232,207.8631 493.0138,207.6381 Q493.3654,207.4975 493.7451,207.1037 Q493.9841,206.8646 494.1107,206.7943 Q494.2513,206.724 494.4341,206.724 Q494.7294,206.724 494.9544,206.9631 Q495.1935,207.1881 495.1935,207.4975 Q495.1935,207.8068 494.8841,208.1725 Q494.4341,208.6928 493.7169,208.9881 Q492.7466,209.3959 491.5794,209.3959 Q490.2154,209.3959 489.1326,208.8334 Q488.2466,208.3834 487.6279,207.4271 Q487.0091,206.4568 487.0091,205.3037 L487.0091,204.2631 Q487.0091,203.0678 487.5576,202.0412 Q488.1201,201.0006 489.1044,200.4521 Q490.0888,199.8896 491.1998,199.8896 Q491.8607,199.8896 492.4373,200.0443 Q493.0279,200.185 493.5201,200.5084 Z " fill="#000000"/><text fill="#000000" font-family="sans-serif" font-size="10.8" font-style="italic" lengthAdjust="spacing" textLength="67.5" x="529.731" y="200.3133">&#171;Application&#187;</text><text fill="#000000" font-family="sans-serif" font-size="12.6" lengthAdjust="spacing" textLength="108" x="509.481" y="216.6205">ListUsersController</text><line style="stroke:#181818;stroke-width:0.45;" x1="439.056" x2="658.656" y1="224.2828" y2="224.2828"/><line style="stroke:#181818;stroke-width:0.45;" x1="439.056" x2="658.656" y1="231.4828" y2="231.4828"/><ellipse cx="448.056" cy="244.8123" fill="#84BE84" rx="2.7" ry="2.7" style="stroke:#038048;stroke-width:0.9;"/><text fill="#000000" font-family="sans-serif" font-size="12.6" lengthAdjust="spacing" textLength="198" x="456.156" y="248.6795">Iterable&lt;SystemUser&gt; listAllUsers()</text></g><!--class UserManagementService--><g id="elem_UserManagementService"><rect codeLine="18" fill="#F1F1F1" height="71.2828" id="UserManagementService" rx="2.25" ry="2.25" style="stroke:#181818;stroke-width:0.45;" width="205.2" x="446.256" y="326.359"/><ellipse cx="475.146" cy="346.4209" fill="#ADD1B2" rx="9.9" ry="9.9" style="stroke:#181818;stroke-width:0.9;"/><path d="M477.6351,342.7084 Q477.7757,342.5115 477.9444,342.4131 Q478.1132,342.3146 478.3101,342.3146 Q478.6476,342.3146 478.8585,342.5537 Q479.0694,342.7787 479.0694,343.3271 L479.0694,344.635 Q479.0694,345.1834 478.8585,345.4225 Q478.6476,345.6615 478.3101,345.6615 Q478.0007,345.6615 477.8179,345.4787 Q477.6351,345.31 477.5366,344.8459 Q477.4944,344.5225 477.3257,344.3537 Q477.0304,344.0162 476.4819,343.8193 Q475.9335,343.6225 475.371,343.6225 Q474.6819,343.6225 474.1054,343.9178 Q473.5429,344.2131 473.0929,344.8881 Q472.6569,345.5631 472.6569,346.4912 L472.6569,347.4756 Q472.6569,348.5865 473.4585,349.3318 Q474.2601,350.0631 475.6944,350.0631 Q476.5382,350.0631 477.1288,349.8381 Q477.4804,349.6975 477.8601,349.3037 Q478.0991,349.0646 478.2257,348.9943 Q478.3663,348.924 478.5491,348.924 Q478.8444,348.924 479.0694,349.1631 Q479.3085,349.3881 479.3085,349.6975 Q479.3085,350.0068 478.9991,350.3725 Q478.5491,350.8928 477.8319,351.1881 Q476.8616,351.5959 475.6944,351.5959 Q474.3304,351.5959 473.2476,351.0334 Q472.3616,350.5834 471.7429,349.6271 Q471.1241,348.6568 471.1241,347.5037 L471.1241,346.4631 Q471.1241,345.2678 471.6726,344.2412 Q472.2351,343.2006 473.2194,342.6521 Q474.2038,342.0896 475.3148,342.0896 Q475.9757,342.0896 476.5523,342.2443 Q477.1429,342.385 477.6351,342.7084 Z " fill="#000000"/><text fill="#000000" font-family="sans-serif" font-size="10.8" font-style="italic" lengthAdjust="spacing" textLength="67.5" x="528.516" y="342.5133">&#171;Application&#187;</text><text fill="#000000" font-family="sans-serif" font-size="12.6" lengthAdjust="spacing" textLength="142.2" x="491.166" y="358.8205">UserManagementService</text><line style="stroke:#181818;stroke-width:0.45;" x1="447.156" x2="650.556" y1="366.4828" y2="366.4828"/><line style="stroke:#181818;stroke-width:0.45;" x1="447.156" x2="650.556" y1="373.6828" y2="373.6828"/><ellipse cx="456.156" cy="387.0123" fill="#84BE84" rx="2.7" ry="2.7" style="stroke:#038048;stroke-width:0.9;"/><text fill="#000000" font-family="sans-serif" font-size="12.6" lengthAdjust="spacing" textLength="181.8" x="464.256" y="390.8795">Iterable&lt;SystemUser&gt; allUsers()</text></g><!--class UserRepository--><g id="elem_UserRepository"><rect codeLine="22" fill="#F1F1F1" height="71.2828" id="UserRepository" rx="2.25" ry="2.25" style="stroke:#181818;stroke-width:0.45;" width="194.4" x="451.656" y="452.359"/><ellipse cx="500.931" cy="472.4209" fill="#B4A7E5" rx="9.9" ry="9.9" style="stroke:#181818;stroke-width:0.9;"/><path d="M501.7888,469.3975 L501.7888,475.3881 L503.3357,475.3881 Q503.8841,475.3881 504.1232,475.599 Q504.3623,475.81 504.3623,476.1615 Q504.3623,476.499 504.1232,476.71 Q503.8841,476.9209 503.3357,476.9209 L498.7091,476.9209 Q498.1607,476.9209 497.9216,476.71 Q497.6826,476.499 497.6826,476.1475 Q497.6826,475.81 497.9216,475.599 Q498.1607,475.3881 498.7091,475.3881 L500.256,475.3881 L500.256,469.3975 L498.7091,469.3975 Q498.1607,469.3975 497.9216,469.1865 Q497.6826,468.9756 497.6826,468.624 Q497.6826,468.2865 497.9216,468.0756 Q498.1607,467.8646 498.7091,467.8646 L503.3357,467.8646 Q503.8841,467.8646 504.1232,468.0756 Q504.3623,468.2865 504.3623,468.624 Q504.3623,468.9756 504.1232,469.1865 Q503.8841,469.3975 503.3357,469.3975 L501.7888,469.3975 Z " fill="#000000"/><text fill="#000000" font-family="sans-serif" font-size="10.8" font-style="italic" lengthAdjust="spacing" textLength="74.7" x="526.131" y="468.5133">&#171;Repositories&#187;</text><text fill="#000000" font-family="sans-serif" font-size="12.6" font-style="italic" lengthAdjust="spacing" textLength="88.2" x="519.381" y="484.8205">UserRepository</text><line style="stroke:#181818;stroke-width:0.45;" x1="452.556" x2="645.156" y1="492.4828" y2="492.4828"/><line style="stroke:#181818;stroke-width:0.45;" x1="452.556" x2="645.156" y1="499.6828" y2="499.6828"/><ellipse cx="461.556" cy="513.0123" fill="#84BE84" rx="2.7" ry="2.7" style="stroke:#038048;stroke-width:0.9;"/><text fill="#000000" font-family="sans-serif" font-size="12.6" lengthAdjust="spacing" textLength="171" x="469.656" y="516.8795">Iterable&lt;SystemUser&gt; findAll()</text></g><!--link ListUserUI to ListUsersController--><g id="link_ListUserUI_ListUsersController"><path codeLine="27" d="M548.856,113.113 C548.856,133.192 548.856,158.536 548.856,179.371 " fill="none" id="ListUserUI-to-ListUsersController" style="stroke:#181818;stroke-width:0.9;"/><polygon fill="#181818" points="548.856,184.015,552.456,175.915,548.856,179.515,545.256,175.915,548.856,184.015" style="stroke:#181818;stroke-width:0.9;"/><text fill="#000000" font-family="sans-serif" font-size="11.7" lengthAdjust="spacing" textLength="65.7" x="549.756" y="153.5845">theController</text></g><!--link ListUsersController to UserRepository--><g id="link_ListUsersController_UserRepository"><path codeLine="28" d="M476.487,255.43 C449.109,272.665 420.921,296.299 405.756,326.359 C391.518,354.574 390.438,369.82 405.756,397.459 C417.852,419.302 437.742,436.528 458.91,449.785 " fill="none" id="ListUsersController-to-UserRepository" style="stroke:#181818;stroke-width:0.9;"/><polygon fill="#181818" points="462.87,452.215,457.8228,444.9283,459.0261,449.8752,454.0792,451.0785,462.87,452.215" style="stroke:#181818;stroke-width:0.9;"/><text fill="#000000" font-family="sans-serif" font-size="11.7" lengthAdjust="spacing" textLength="22.5" x="406.656" y="366.8845">repo</text></g><!--link ListUsersController to UserManagementService--><g id="link_ListUsersController_UserManagementService"><path codeLine="29" d="M548.856,255.313 C548.856,275.392 548.856,300.736 548.856,321.571 " fill="none" id="ListUsersController-to-UserManagementService" style="stroke:#181818;stroke-width:0.9;"/><polygon fill="#181818" points="548.856,326.215,552.456,318.115,548.856,321.715,545.256,318.115,548.856,326.215" style="stroke:#181818;stroke-width:0.9;"/><text fill="#000000" font-family="sans-serif" font-size="11.7" lengthAdjust="spacing" textLength="36" x="549.756" y="295.7845">service</text></g><!--link ListUsersController to SystemUser--><g id="link_ListUsersController_SystemUser"><path codeLine="30" d="M659.7,250.903 C681.462,259.309 703.449,269.677 722.556,282.259 C742.077,295.12 759.978,314.299 773.163,330.508 " fill="none" id="ListUsersController-to-SystemUser" style="stroke:#181818;stroke-width:0.9;"/><polygon fill="#181818" points="776.07,334.135,773.8096,325.5641,773.2542,330.6248,768.1934,330.0694,776.07,334.135" style="stroke:#181818;stroke-width:0.9;"/><text fill="#000000" font-family="sans-serif" font-size="11.7" lengthAdjust="spacing" textLength="22.5" x="743.256" y="295.7845">user</text></g><!--link JpaAutoTxUserRepository to UserRepository--><g id="link_JpaAutoTxUserRepository_UserRepository"><path codeLine="31" d="M169.668,460.342 C191.898,446.77 220.635,431.866 248.706,424.909 C322.47,406.621 345.654,407.809 419.706,424.909 C442.377,430.147 465.678,439.93 486.135,450.253 " fill="none" id="JpaAutoTxUserRepository-to-UserRepository" style="stroke:#181818;stroke-width:0.9;"/><polygon fill="#181818" points="490.185,452.323,484.6117,445.4304,486.1783,450.2745,481.3341,451.8411,490.185,452.323" style="stroke:#181818;stroke-width:0.9;"/></g><!--link InMemoryUserRepository to UserRepository--><g id="link_InMemoryUserRepository_UserRepository"><path codeLine="32" d="M420.417,487.909 C429.246,487.909 438.075,487.909 446.904,487.909 " fill="none" id="InMemoryUserRepository-to-UserRepository" style="stroke:#181818;stroke-width:0.9;"/><polygon fill="#181818" points="451.521,487.909,443.421,484.309,447.021,487.909,443.421,491.509,451.521,487.909" style="stroke:#181818;stroke-width:0.9;"/></g><!--link ListUsersController to RepositoryFactory--><g id="link_ListUsersController_RepositoryFactory"><path codeLine="35" d="M437.931,252.091 C413.964,260.569 389.196,270.658 367.056,282.259 C341.307,295.741 315.045,315.154 295.083,331.327 " fill="none" id="ListUsersController-to-RepositoryFactory" style="stroke:#181818;stroke-width:0.9;stroke-dasharray:7.0,7.0;"/><polygon fill="#181818" points="291.429,334.315,299.9815,331.9858,294.9164,331.471,295.4311,326.4059,291.429,334.315" style="stroke:#181818;stroke-width:0.9;"/></g><!--link ListUsersController to PersistenceContext--><g id="link_ListUsersController_PersistenceContext"><path codeLine="36" d="M605.754,255.376 C629.577,273.313 654.714,297.514 667.656,326.359 C679.239,352.18 674.253,501.256 662.256,523.459 C650.376,545.446 629.676,562.924 609.183,575.974 " fill="none" id="ListUsersController-to-PersistenceContext" style="stroke:#181818;stroke-width:0.9;stroke-dasharray:7.0,7.0;"/><polygon fill="#181818" points="605.367,578.359,614.1457,577.1321,609.1866,575.9798,610.3389,571.0207,605.367,578.359" style="stroke:#181818;stroke-width:0.9;"/></g><!--link RepositoryFactory to UserRepository--><g id="link_RepositoryFactory_UserRepository"><path codeLine="37" d="M301.653,389.503 C320.976,401.446 344.682,415.108 367.056,425.359 C382.455,432.415 414.306,443.593 447.111,454.51 " fill="none" id="RepositoryFactory-to-UserRepository" style="stroke:#181818;stroke-width:0.9;stroke-dasharray:7.0,7.0;"/><polygon fill="#181818" points="451.53,455.977,444.9895,449.9944,447.2622,454.5501,442.7065,456.8228,451.53,455.977" style="stroke:#181818;stroke-width:0.9;"/></g><!--link RepositoryFactory to PersistenceContext--><g id="link_RepositoryFactory_PersistenceContext"><path codeLine="38" d="M194.139,368.173 C138.843,376.543 63.468,397.909 25.956,452.359 C8.028,478.378 5.4,499.456 25.956,523.459 C82.872,589.924 344.61,602.578 474.84,604.693 " fill="none" id="RepositoryFactory-to-PersistenceContext" style="stroke:#181818;stroke-width:0.9;stroke-dasharray:7.0,7.0;"/><polygon fill="#181818" points="479.412,604.765,471.3749,601.0267,474.9127,604.6879,471.2515,608.2256,479.412,604.765" style="stroke:#181818;stroke-width:0.9;"/></g><!--link UserRepository to PersistenceContext--><g id="link_UserRepository_PersistenceContext"><path codeLine="39" d="M548.856,523.639 C548.856,539.506 548.856,558.127 548.856,573.544 " fill="none" id="UserRepository-to-PersistenceContext" style="stroke:#181818;stroke-width:0.9;stroke-dasharray:7.0,7.0;"/><polygon fill="#181818" points="548.856,578.224,552.456,570.124,548.856,573.724,545.256,570.124,548.856,578.224" style="stroke:#181818;stroke-width:0.9;"/></g><!--link UserManagementService to UserRepository--><g id="link_UserManagementService_UserRepository"><path codeLine="40" d="M548.856,397.738 C548.856,413.209 548.856,431.488 548.856,447.463 " fill="none" id="UserManagementService-to-UserRepository" style="stroke:#181818;stroke-width:0.9;stroke-dasharray:7.0,7.0;"/><polygon fill="#181818" points="548.856,452.341,552.456,444.241,548.856,447.841,545.256,444.241,548.856,452.341" style="stroke:#181818;stroke-width:0.9;"/></g><!--SRC=[bLFHQi8m57tFL-HDPGZAteeKn39mp37M-JJ6YErL0sbIakYKuR_lfdLhDQrbVKblSix9oScDvLO0dGbc38qussYMqVui6j0XNSPqF1gDF-y9IOhr9sxiqe1Upkbaacim82spNCamfD-4ufUgUAk- -WDo8eHB2thD4g2la2l3hTB71vQu0UdhyiynJsVv5z06Tm2Pm4mX-M3TDjLa7VkOi-dEghU3yrFfjnFcSW4P8hhnPq9ynCdCmH4KgOnnUR7-6uPnNhKIeW1Eyrpmv3AKkpa6mLO29fLcI0Nofq8K4aLWfQoh5qoo3MIORWnwpp71_mYpkcZj5hoJ_nKSJ8VcciiKpPQIlMUsvvl22gcrn70ODeOIKBk5gYPD6CUzyXTGZSLDj9zJG4tvryghNMj0TpYGjbRoB96M7lA1f1T13ZB5fi9icxsyfyni8Vr0jlS-EXd-Ko7-8wiJhWpU1ZUeNn-v6-rVpWq_Fm00]--></g></svg>